<svg xmlns="http://www.w3.org/2000/svg" width="2800" height="350pt" viewBox="0 0 2100 350"><path fill="#1a1a33" d="M0 0h2100v350H0z"/><path d="M-3.973 143.313L5.328 227-14.82 123.941" fill="#4063d8"/><path d="M8 251.098v42.218l-19.258-140.73" fill="#389826"/><path d="M.023 59.773L-10.27 92.937 5.742 22.61" fill="#4063d8"/><path d="M9.23 244L-.887 152.96l16.86 53.106M11.465-1.438L33.629 49.36 2.227 58.598" fill="#9558b2"/><path d="M1.578 61.512l32.586 19.55-49.344 34.45" fill="#389826"/><path d="M34.043 51.324l.898 27.875L3.47 60.316" fill="#cb3c33"/><path d="M-2.438 141.96l-12.347-22.05 51.156 19.403" fill="#389826"/><path d="M35.148 82.813l4.723 55.687-54.746-20.762M17.063 202.898L-1.66 143.91l41.195-2.808" fill="#cb3c33"/><path d="M30.52 368.332L17.402 357.84l29.73-37.602" fill="#9558b2"/><path d="M16.668 355.547l-6.488-46.332 37.992 6.488" fill="#389826"/><path d="M10 307.156v-52.742l37.938 59.219" fill="#cb3c33"/><path d="M34.965 47.418L12.575-3.895l41.98 2.801" fill="#4063d8"/><path d="M40.984 142.969l17.72 50.355-40.099 11.192M17.648 208.063l46.707 46.707-54.18-4.672" fill="#389826"/><path d="M59.137 195.277l6.55 57.993-46.769-46.766" fill="#cb3c33"/><path d="M49.652 312.602l-38.715-60.43 54.766 4.719" fill="#9558b2"/><path d="M36.941 79.191l-.91-28.21 45.504-.91" fill="#389826"/><path d="M56.152.293l27.149 47.742-46.805.934M60.7 192.977L43.436 143.91l47.25 48.16" fill="#cb3c33"/><path d="M67.559 252.027l-6.442-57.062 30.371-.918" fill="#389826"/><path d="M50.54 316.504l41.315 25.355-59.16 26.293M92.45 196.96l6.437 56.106-30.352 1.84" fill="#cb3c33"/><path d="M85.063 47.086L58.117-.304l48.317 14.867" fill="#389826"/><path d="M41.86 138.277L37.104 82.2l74.141 12.356" fill="#9558b2"/><path d="M84.703 50.387l27.23 42.254-73.238-12.207" fill="#4063d8"/><path d="M67.57 257.637l46.301 33.074-62.367 22.68" fill="#cb3c33"/><path d="M99.36 255.04l14.296 33.058-43.777-31.27" fill="#9558b2"/><path d="M93.54 340.543L52.29 315.23l61.874-22.5" fill="#4063d8"/><path d="M92.715 191.281l-49.3-50.25 73.003.95" fill="#9558b2"/><path d="M113.145 95.723l3.765 44.261-72.515-.941" fill="#389826"/><path d="M118.668 137.063l-3.43-40.293 14.575 15.43" fill="#cb3c33"/><path d="M118.555 142.156l14.597 3.438-36.07 41.222" fill="#4063d8"/><path d="M130.441 115.691l3.395 28.008-14.43-3.394M108.047 12.969L67.148.383 130.86 8.25" fill="#9558b2"/><path d="M116.188 293.086l26.132 39.2-46.664 8.401" fill="#cb3c33"/><path d="M108.281 15.395l42.703 28.777-64.054 3.715" fill="#9558b2"/><path d="M114.094 92.3L86.77 49.899l65.015-3.77" fill="#cb3c33"/><path d="M130.59 110.11l-15.258-16.157 35.906-43.988" fill="#389826"/><path d="M136.422 9.14l15.18 33.04-41.075-27.68" fill="#cb3c33"/><path d="M144.2 331.496l-24.74-37.11 38.876 24.739" fill="#9558b2"/><path d="M100.793 252.129l-6.648-57.941 68.39 10.449" fill="#389826"/><path d="M134.777 146.77l28.45 55.949-68.274-10.434M159.117 317.254l-41.492-26.406 46.207-43.38" fill="#cb3c33"/><path d="M116.352 289.297l-14.91-34.488 60.581-8.387" fill="#389826"/><path d="M164 206.031v38.098l-60.398 8.363" fill="#9558b2"/><path d="M135.906 144.172l-3.617-29.863 49.77 39.816" fill="#cb3c33"/><path d="M164.934 201.66l-28.09-55.238 47.75 10.297" fill="#389826"/><path d="M154.43 46.824l51.492 50.54L132.5 110.71" fill="#cb3c33"/><path d="M206.02 64.71l.906 30.837-48.973-48.067M185.55 154.36l-52.21-41.77 73.097-13.29M94.094 343.05L200.664 369H35.711" fill="#389826"/><path d="M143.82 334.047l58.489 33.293-103.48-25.192" fill="#9558b2"/><path d="M159.941 320.383l43.559 45.336-57.785-32.89M165.79 248.164L209.2 318h-48.13" fill="#389826"/><path d="M208.094 367.613L162.348 320h47.613" fill="#cb3c33"/><path d="M166 243.14v-37.906l43.453 9.246" fill="#4063d8"/><path d="M186.012 158.469l24.27 54.144-43.876-9.336" fill="#9558b2"/><path d="M136.922 6.984L66.105-1.762 205.117-12.25" fill="#4063d8"/><path d="M206.137 62.629l-50.285-18.027 57.875-55.977" fill="#cb3c33"/><path d="M154.32 43.3L138.398 8.646l73.055-20.606" fill="#389826"/><path d="M210.273 315.938l-43.535-70.036 50.16-2.84" fill="#cb3c33"/><path d="M211.328 215.64l5.45 25.426-48.13 2.727" fill="#389826"/><path d="M211.96 320h17.52l-19.27 44.672M208.04 100.715L230.503 155h-43.055" fill="#9558b2"/><path d="M212.195 211.996l-24.043-53.637 44.391 24.97" fill="#389826"/><path d="M231.07 157l1.793 24.215L189.816 157M218.113 237.758l-5.043-23.54 18.496-26.058" fill="#cb3c33"/><path d="M218.77 244.598l20.02 25.48-26.392 44.598" fill="#389826"/><path d="M230.168 318h-17.414l25.25-42.66" fill="#cb3c33"/><path d="M215.738-11.379l32.856 43.18-40.367 30.039" fill="#389826"/><path d="M231.754 152.785l-22.438-54.219 39.262-14.953" fill="#4063d8"/><path d="M208.957 96.566l-.91-31.043 39.258 16.434" fill="#9558b2"/><path d="M249 33.992v46.504l-39.996-16.742" fill="#cb3c33"/><path d="M231.273 320.895l31.86 38.421-52.477 9.372" fill="#389826"/><path d="M249.707 29.965L216.988-13.04l49.547-.934" fill="#cb3c33"/><path d="M240.66 271.95l40.184 36.445-48.598 9.347" fill="#4063d8"/><path d="M264.645 358.004l-31.797-38.34 48.629-9.351" fill="#cb3c33"/><path d="M234.398 185.348l56.024 81.66-71.215-25.637" fill="#389826"/><path d="M240.48 268.992l-19.542-24.87 66.617 23.98" fill="#cb3c33"/><path d="M282.434 307.137l-39.895-36.184 49.176-.93" fill="#9558b2"/><path d="M234.879 181.313l-1.816-24.52 67.195-14.527" fill="#389826"/><path d="M250.543 84l53.488 55.402-70.683 15.282" fill="#cb3c33"/><path d="M268.527-13.582l36.227 19.508-52.945 24.152" fill="#4063d8"/><path d="M251 80.664V33.72l54.457 30.984" fill="#9558b2"/><path d="M306.027 7.543l.942 55.723-54.774-31.168" fill="#cb3c33"/><path d="M305.422 137.965L253.195 83.87l60.621 15.852" fill="#9558b2"/><path d="M307.238 66.266l6.457 31.359-59.953-15.68" fill="#389826"/><path d="M283.188 311.477l29.96 56.171-46.812-8.425M292.676 266.762l-56.73-82.692 82.69 2.883" fill="#9558b2"/><path d="M305.414 141.516l13.223 43.437-81.211-2.836M315.27 102.434l16.144 41.254-24.215-4.485" fill="#cb3c33"/><path d="M320.02 182.629l-12.582-41.348 24.265 4.496" fill="#389826"/><path d="M293.523 271.031l37.043 39.82-46.304-2.777" fill="#cb3c33"/><path d="M314.762 366.43l-30.04-56.325 46.938 2.817" fill="#389826"/><path d="M307.07 4.902L273.23-13.32l60.735 7.808" fill="#9558b2"/><path d="M319.918 189.48l20.793 75.598-46.305 2.832" fill="#cb3c33"/><path d="M332.395 309.883l-37.22-40.016 45.595-2.789" fill="#9558b2"/><path d="M333.21 314.656l20.376 40.75-37.047 12.043M333.309 147.34l21.007 32.883-32.882 4.57" fill="#4063d8"/><path d="M341.754 261.336l-20.488-74.504 33.527-4.656M308.973 63.383l-.942-55.61 50.895 30.16" fill="#389826"/><path d="M337.527-4.746l20.957 40.094-49.203-29.16" fill="#cb3c33"/><path d="M333.246 142.883l-16.77-42.852 45.645.93" fill="#389826"/><path d="M315.82 98.016l-6.37-30.93 50.945 31.84" fill="#cb3c33"/><path d="M360.074 39.594l2.836 58.547-52.883-33.051" fill="#9558b2"/><path d="M356.309 179.629l-20.668-32.356 42.238 18.875" fill="#389826"/><path d="M363.555 102.41l14.992 61.848-44.043-19.68M356.613 183.426l35.95 46.351-49.192 34.059" fill="#4063d8"/><path d="M361.137 36.102L339.57-5.156l55.32-5.625M342.684 267.723l53.503 38.488-61.953 4.691" fill="#389826"/><path d="M393.117 231.828l4.746 73.125-54.129-38.937M355.238 354.238l-20.68-41.355 62.032-4.7" fill="#9558b2"/><path d="M380.203 162.594l-14.988-61.82 41.219-8.434" fill="#389826"/><path d="M364.941 98.785l-2.804-57.996 43.965 49.578M379.844 167.277l27.722 28.614-49.183-15.2" fill="#cb3c33"/><path d="M393.844 228.164l-35.114-45.273 50.82 15.707" fill="#389826"/><path d="M396.816-10.035l21.622 46.062-55.461.938" fill="#9558b2"/><path d="M407.45 88.871L363.19 38.965l55.559-.945M398.875 308.633l19.523 29.754-60.43 15.804" fill="#389826"/><path d="M399.82 304.176l-4.664-71.805 34.504 30.774" fill="#cb3c33"/><path d="M410.754 200.598l18.234 59.27-33.738-30.09" fill="#9558b2"/><path d="M419.902 337.031l-18.46-28.136 28.132 9.671" fill="#cb3c33"/><path d="M430 266.074v50.524l-29.395-10.106" fill="#389826"/><path d="M407.984 93.906L433.578 165h-52.137" fill="#4063d8"/><path d="M410.902 196.46L382.36 167H433" fill="#9558b2"/><path d="M434.742 162.328l-24.875-69.09 35.008 20.266" fill="#389826"/><path d="M420.344 35.383L399.07-9.941l48.102 22.199" fill="#cb3c33"/><path d="M420.738 38.293l37.172 12.078-48.324 38.106" fill="#9558b2"/><path d="M445.32 111.45L409.777 90.87l48.637-38.348" fill="#cb3c33"/><path d="M448.473 13.773l10.043 34.692-36.52-11.867" fill="#389826"/><path d="M431.375 260.82l-18.852-61.27 51.844 16.97" fill="#4063d8"/><path d="M434.922 167.77l28.785 46.425-51.07-16.71" fill="#389826"/><path d="M419.938 340.05l40.636 15.9-98.058-.884" fill="#cb3c33"/><path d="M431.219 319.738l31.226 34.797-41.043-16.058" fill="#4063d8"/><path d="M460.777 49.086l-9.57-33.055 31.316 35.664" fill="#cb3c33"/><path d="M460.781 51.102l22.504 2.699-35.11 54.015" fill="#4063d8"/><path d="M466.059 217.594l18.293 21.035-50.301 21.95" fill="#9558b2"/><path d="M449.063 10.926l-46.368-21.399 87.387 8.024" fill="#389826"/><path d="M484.379 50.777L450.754 12.48 493.723-1.53M466.375 214.707l-28.469-45.918 56.938 32.145" fill="#9558b2"/><path d="M485.55 236.957l-17.937-20.625 27.801-13.453" fill="#389826"/><path d="M446.758 114.266l54.578 15.996-64.93 33.875" fill="#9558b2"/><path d="M496.156 199.375l-59.062-33.34 65.73-34.293M465.79 355.27l-33.169-36.961 72.024-36.012" fill="#cb3c33"/><path d="M432 316.383V264.25l72.04 16.113" fill="#9558b2"/><path d="M485.54 240.293l19.597 38.266-70.93-15.868" fill="#389826"/><path d="M506 284.004v63.191l-38.102 8.364M484.758 55.207l23.738 63.621-60.773-6.644" fill="#9558b2"/><path d="M503.54 128.824l-46.392-13.597 51.192 5.597M497.766 201.957l30.414-1.789-40.258 35.785" fill="#cb3c33"/><path d="M504.586 134.242l24.98 63.84-31.457 1.852" fill="#4063d8"/><path d="M495.773-1.64l42.114 15.91-51.473 36.503" fill="#cb3c33"/><path d="M510.484 121.137L545.086 129h-39.32" fill="#4063d8"/><path d="M530.926 196.063L505.465 131h47.148" fill="#9558b2"/><path d="M510.523 118.54l-23.66-63.411 69.086 36.91" fill="#4063d8"/><path d="M553.125 128.773l-40.434-9.187 44.11-25.727" fill="#cb3c33"/><path d="M539.766 15.39l18.468 25.86-69.257 10.156" fill="#9558b2"/><path d="M557.066 90.367l-68.918-36.82 70.805-10.383" fill="#389826"/><path d="M508 345.555v-64.34l52.984 10.41M507.336 278.457l-19.75-38.555 74.293-4.703" fill="#cb3c33"/><path d="M530.95 200.383l31.82 32.758-73.934 4.68" fill="#389826"/><path d="M562.043 289.793l-52.723-10.356 54.606-43.308" fill="#9558b2"/><path d="M562.3 293.137l5.579 38.12-57.64 14.876" fill="#389826"/><path d="M569.71 329.96l-5.214-35.644 19.125 22.606" fill="#cb3c33"/><path d="M560.938 43.586l27.43 13.715-29.259 32.004" fill="#4063d8"/><path d="M558.89 93.086l29.813 2.71-33.426 31.618" fill="#9558b2"/><path d="M589.066 59.504l.907 34.398-29.875-2.715M565.965 235.04l23.45.901-25.255 50.5" fill="#389826"/><path d="M569 333.031l25.082 6.473-75.246 6.473" fill="#9558b2"/><path d="M584.813 318.547l12.94 19.84-26.741-6.903" fill="#389826"/><path d="M554.61 131.332l53.136 21.824-74.96 43.645" fill="#cb3c33"/><path d="M590.54 96.813l17.835 54.437-52.563-21.586" fill="#389826"/><path d="M539.96 12.914L498.985-2.562 606.43-18.044" fill="#4063d8"/><path d="M589.383 55.574L561.59 41.676l49.097-57.434" fill="#389826"/><path d="M560.07 40.379l-18.558-25.98 67.734-31.547" fill="#cb3c33"/><path d="M590.375 233.977l-22.98-.887 42.425-40.66" fill="#9558b2"/><path d="M565.023 232.59l-31.921-32.863 76.992-10.329" fill="#cb3c33"/><path d="M609.137 154.66l2.785 32.477-76.09 10.207" fill="#4063d8"/><path d="M585.277 315.781l-19.976-23.613 62.66 4.543" fill="#389826"/><path d="M591.129 236.98l38.894 57.875-65.46-4.746M600.043 338.238l-13.566-20.804 42.511-18.993" fill="#cb3c33"/><path d="M610.035 149.89L592.27 95.669l41.136-12.156" fill="#9558b2"/><path d="M591.965 93.672l-.918-34.945 41.383 22.988" fill="#cb3c33"/><path d="M507.098 349.004l97.824 2.207-127.98 4.41" fill="#389826"/><path d="M599.906 341.012l32.024 8.804-106.473-2.398" fill="#cb3c33"/><path d="M631.363 298.574l7.426 51.055-37.129-10.211" fill="#4063d8"/><path d="M613.125-16.922l26.465 68.055-48.207 4.726" fill="#cb3c33"/><path d="M634.29 80.46l-41-22.776 46.464-4.559" fill="#389826"/><path d="M613.441 189.418L640.023 205l-46.75 27.504" fill="#4063d8"/><path d="M641.555 203.578l-26.407-15.48 42.797-20.032" fill="#389826"/><path d="M613.875 186.488l-2.758-32.164 45.946 11.946" fill="#cb3c33"/><path d="M634.922 85.238l23.613 79.348-47.23-12.281M641.176 49.695l-26.305-67.64 50.73 25.363M632.117 294.379l-38.855-57.805 74.867 18.004" fill="#389826"/><path d="M641.633 206.375l26.351 46.113-74.343-17.883" fill="#9558b2"/><path d="M670.004 255.484l9.437 10.297-42.039 25.739M666.844 5.805L619.44-17.898l62.325 10.535" fill="#cb3c33"/><path d="M640.727 349.047l-7.543-51.863 57.515 8.488" fill="#389826"/><path d="M680.422 267.527l11.156 36.254-56.703-8.367" fill="#9558b2"/><path d="M641.793 53.129l54.805 8.223-60.285 19.18" fill="#cb3c33"/><path d="M667.035 8.934l31.957 50.754-56.39-8.458" fill="#9558b2"/><path d="M683.426-6.156l15.12 61.386-30.245-48.042" fill="#4063d8"/><path d="M660.586 164.457l-23.715-79.68 66.399 53.121" fill="#cb3c33"/><path d="M700.23 62.293l4.543 23.617-64.492-4.539" fill="#389826"/><path d="M704.04 135.953l-65.911-52.73 66.851 4.707" fill="#9558b2"/><path d="M660.434 167.45l49.48 30.808-66.285 5.601" fill="#cb3c33"/><path d="M670.129 252.21l-26.484-46.347 67.156-5.675" fill="#389826"/><path d="M680.734 264.23l-9.425-10.28 36.851-47.134M704.21 139.668l7.524 57.367L661.891 166" fill="#4063d8"/><path d="M692.773 306.52l25.461 40.546-75.433 2.829" fill="#9558b2"/><path d="M693.621 303.621l-11.07-35.98 49.82 18.453" fill="#389826"/><path d="M719.586 345.46l-25.129-40.022 39.09-17.684" fill="#cb3c33"/><path d="M706.969 88.691l29.39 16.536-30.312 30.312" fill="#389826"/><path d="M713.691 196.578l-7.379-56.246 32.274 25.816" fill="#cb3c33"/><path d="M737.074 107.34l1.856 56.523-32.434-25.945" fill="#9558b2"/><path d="M701.477 58.762l-16.145-65.54 59.836 9.5" fill="#cb3c33"/><path d="M739.32 168.41l6.422 46.793-31.195-16.516M713.152 201.004l34.18 50.32-64.562 13.29" fill="#389826"/><path d="M746.035 217.621l1.762 30.824-31.711-46.68M734.441 284.727l-49.82-18.454 62.738-12.914" fill="#cb3c33"/><path d="M737.473 103.555l-29.614-16.657 49.047-35.168" fill="#4063d8"/><path d="M706.688 85.277l-4.52-23.496 52.418-10.847" fill="#cb3c33"/><path d="M746.535 4.223l11.238 44.011-54.312 11.235" fill="#389826"/><path d="M735.45 288.398l29.972 43.082-44.024 14.989" fill="#4063d8"/><path d="M747.84 215.766l-6.418-46.77 36.683 39.434" fill="#cb3c33"/><path d="M749.836 249.129l-1.79-31.352 29.56-7.168" fill="#389826"/><path d="M759.676 47.605l-10.89-42.66 35.398 31.77M779.684 211.148l16.808 48.559-45.758-8.406" fill="#cb3c33"/><path d="M749.457 253.516l45.344 30.535-58.297.926" fill="#389826"/><path d="M797 261.832v21.29l-43.46-29.27" fill="#4063d8"/><path d="M766.977 330.219l-30.082-43.25 59.226-.938" fill="#cb3c33"/><path d="M779.48 206.973l-37.87-40.707 55.859-30.297" fill="#9558b2"/><path d="M740.945 164.348l-1.89-57.739 57.738 27.45" fill="#4063d8"/><path d="M785.895 35.563L751.105 4.34l48.172 15.168" fill="#9558b2"/><path d="M759.297 51.059L799 104h-59.559" fill="#cb3c33"/><path d="M798.102 132.465L742.434 106h57.496" fill="#9558b2"/><path d="M785.29 38.41l13.737 62.293-38.472-51.3M719.914 349.004l80.914 17.164-146.3-14.711" fill="#389826"/><path d="M766.836 333.113l47.66 33.91-90.734-19.246" fill="#cb3c33"/><path d="M797.582 287.45l19.79 79.163-49.005-34.867" fill="#389826"/><path d="M818.926 364.578L799.28 286h36.48" fill="#4063d8"/><path d="M799 284v-21.21L833.469 284M800.82 20.777L834.023 82.7 787.36 36.934" fill="#389826"/><path d="M801.71 103.574L787.7 40.07l48.562 47.63M801.887 106.684l39.816 23.53-41.625 2.712" fill="#cb3c33"/><path d="M837.223 89.457l6.445 39.594-40.516-23.942M747.063.996l-46.81-7.43 127.79 4.457" fill="#9558b2"/><path d="M800.969 17.941l-48.14-15.156L850-.777M838.14 86.145l-34.53-64.391 56.93 34.527" fill="#cb3c33"/><path d="M855.14-.602l5.657 54.704-57.531-34.895" fill="#389826"/><path d="M836.863 283.742l-35.418-21.797 59.032-.906" fill="#cb3c33"/><path d="M837.21 288.793l24.462 73.379-41.395 5.644" fill="#389826"/><path d="M799.512 136.055l63.281 69.996-81.5 1.918" fill="#cb3c33"/><path d="M844.242 132.05l18.746 71.235-61.86-68.422M862.035 259.016l-61.144.941 63.027-50.8" fill="#389826"/><path d="M798.48 259.328l-17.085-49.36 80.687-1.898" fill="#4063d8"/><path d="M865.48 204.895l-18.433-70.047 39.633 45.16M862.8 54.031L857.267.516l33.214 30.449" fill="#cb3c33"/><path d="M891.316 29.016L858.113-1.422l39.66-8.3" fill="#9558b2"/><path d="M863.523 361.41l-24.472-73.422 59.3 48.95M865.871 210.414l34.067 57.086-35.907-8.29" fill="#cb3c33"/><path d="M863.305 261.098l34.383 7.933-57.31 14.106" fill="#9558b2"/><path d="M899.059 334.93l-59.887-49.434 61.789-15.21M887.836 178.3l-39.649-45.183 55.325 18.442" fill="#4063d8"/><path d="M904.234 149.691l-56.297-18.765 64.739-25.336" fill="#cb3c33"/><path d="M845.79 129.617l-6.567-40.34 71.297 15.012" fill="#389826"/><path d="M862.137 57.484l48.52 44.79-70.915-14.93" fill="#9558b2"/><path d="M891.48 32.734l20.504 68.043-48.468-44.738" fill="#4063d8"/><path d="M902.926 271.594l10.965 12.652-12.653 44.711" fill="#9558b2"/><path d="M905.531 152.07l21.516 2.582-36.145 22.375" fill="#cb3c33"/><path d="M914.242 108.043l14.332 44.777-22.39-2.683" fill="#4063d8"/><path d="M888.234 181.266l40.141 21.894-61.121 2.738" fill="#9558b2"/><path d="M901.887 266.86l-35.172-58.934 63.687-2.852M929.07 155.754l1.86 46.523-40.942-22.332" fill="#389826"/><path d="M914.941 282.402l-11.3-13.035 31.289-13.91" fill="#cb3c33"/><path d="M931.434 207.61l5.484 44.777-32.898 14.62" fill="#9558b2"/><path d="M899.758-9.473l38.87 20.36-45.347 18.511" fill="#cb3c33"/><path d="M900.172 338.102l37.48 11.601-70.496 11.602" fill="#9558b2"/><path d="M915.172 287.063l25.101 61.355-39.046-12.086" fill="#389826"/><path d="M937.66 255.137l8.004 24.023-28.469 3.559" fill="#4063d8"/><path d="M941.309 345.664l-24.887-60.832 29.492-3.687M930.074 150.953l-14.824-46.332 37.063-12.973" fill="#cb3c33"/><path d="M953.098 89.258l-36.059 12.62 41.465-50.483" fill="#389826"/><path d="M914.418 101.918l-20.953-69.52 64.758 16.188" fill="#cb3c33"/><path d="M940.527 12.273l17.575 34.223-62.895-15.726" fill="#389826"/><path d="M960.75 49.828l18.715 14.262-24.063 23.172" fill="#cb3c33"/><path d="M938.758 250.957l-5.606-45.766 47.633 7.473" fill="#389826"/><path d="M932.965 203.14l-1.856-46.445 49.23 53.875" fill="#4063d8"/><path d="M947.477 278.266l-8.137-24.407 41.582-4.52" fill="#9558b2"/><path d="M982.063 214.207l.914 32.898-42.036 4.57M947.793 282.926L993.102 349h-50.028M954.266 92.137l47.664 68.633-70.54-7.625" fill="#4063d8"/><path d="M982.684 210.172l-50.16-54.895 70.035 7.575M941.113 9.93L903.29-9.883l99.063 2.703M980.55 62.398l-19.093-14.546 44.547-50.91" fill="#389826"/><path d="M960.219 46.234l-17.77-34.601 63.59-17.766" fill="#cb3c33"/><path d="M983.918 249.395l27.789 30.57-62.066-.926" fill="#4063d8"/><path d="M994.605 347.66l-45.687-66.633 63.773.953" fill="#9558b2"/><path d="M981.043 65.344l34.875 29.367-59.652-5.508" fill="#389826"/><path d="M1003.527 159.566l-47.48-68.375 61.726 5.7" fill="#cb3c33"/><path d="M1013.84 279.336L986.262 249h45.965" fill="#389826"/><path d="M984.973 247l-.918-33.031L1030.848 247" fill="#9558b2"/><path d="M1004.254 163.98l29.926 39.282-49.567 7.484" fill="#4063d8"/><path d="M1033.086 246.129l-47.477-33.512 49.336-7.445" fill="#389826"/><path d="M1019.074 94.758l-33.91-28.559 54.438 15.172" fill="#cb3c33"/><path d="M1019.45 98.543l27.093 42.043-41.11 19.621" fill="#4063d8"/><path d="M1041.168 82.734l5.426 54.235-26.215-40.676M1035.438 201.61l-29.895-39.239 41.105-19.617M1014.656 282.387l35.543 15.902-53.316 48.64" fill="#389826"/><path d="M1033.77 250.313l16.492 45.816-34.82-15.578" fill="#4063d8"/><path d="M1009.32-6.066l50.711 60.277-77.5 8.613" fill="#cb3c33"/><path d="M1040.266-3.086l18.937 53.207-47.797-56.812M1041.617 79.855l-55.37-15.433 73.526-8.168" fill="#389826"/><path d="M1051.555 299.762l15.078 43.347-68.793 5.653" fill="#9558b2"/><path d="M1062.05 52.16l-19.554-54.937 39.106 5.59" fill="#4063d8"/><path d="M1062.262 56.3l18.32 10.47-35.77 12.214" fill="#cb3c33"/><path d="M1082 7.238v58.04l-18.75-10.716" fill="#389826"/><path d="M1036.957 204.96l43.395-1.847-45.243 42.473" fill="#4063d8"/><path d="M1048.477 143.84l32.835 57.23-44.093 1.875M1048.855 139.512l-5.632-56.344 48.832 36.621" fill="#9558b2"/><path d="M1082.25 68.313l10.234 49.3-48.37-36.277" fill="#4063d8"/><path d="M1067.71 345.027l22.54 16.473-85.828-11.27M1052.508 296.453l-16.957-47.098 65.937 14.13" fill="#cb3c33"/><path d="M1082.559 203.785l19.918 57.867-66.399-14.23" fill="#389826"/><path d="M1093.578 361.453l-23.906-17.473 46.894-35.859" fill="#4063d8"/><path d="M1068.492 342.367l-15.031-43.21 62.934 6.577" fill="#cb3c33"/><path d="M1103.492 264.547l14.031 39.293-62.68-6.547" fill="#9558b2"/><path d="M1083.148 200.246l-33.152-57.777 68.195 15.152" fill="#389826"/><path d="M1093.66 121.254l24.04 34.21-66.571-14.792" fill="#cb3c33"/><path d="M1104.113 260.262l-19.691-57.2 44.074 1.875" fill="#4063d8"/><path d="M1119.453 159.238l9.3 43.707-43.706-1.86" fill="#9558b2"/><path d="M1119.625 154.723l-24.2-34.434 41.88-26.059" fill="#4063d8"/><path d="M1094.688 118.395l-10.313-49.684 52.5 23.434" fill="#389826"/><path d="M1084 64.75V3.156l58.75 8.528M1119.379 306.652l27.91 24.188-51.172 29.77" fill="#cb3c33"/><path d="M1119.254 302.742l-13.961-39.094 48.402-14.89" fill="#389826"/><path d="M1130.14 206.164l24.34 40.258-48.683 14.98" fill="#cb3c33"/><path d="M1138.41 90.64l-52.93-23.628 71.832-31.188" fill="#4063d8"/><path d="M1144.773 12.55l12.778 20.99-69.352 30.112" fill="#389826"/><path d="M1148.883 329.578l-26.488-22.957 39.734 7.063" fill="#4063d8"/><path d="M1155.344 249.89l7.5 61.887-42.196-7.5M1130.55 201.79l-9.296-43.708 43.707 2.79" fill="#cb3c33"/><path d="M1139.16 95.016l26.305 63.882-44.156-2.816" fill="#389826"/><path d="M1156.352 245.648l-23.707-39.207 49.238 24.618" fill="#9558b2"/><path d="M1166.488 162.16l16.04 66.985-50.946-25.473M1164.332 307.422l-7.258-59.883 25.403-14.516" fill="#4063d8"/><path d="M1149.016 332.148l51.187 27.922-102.375 1.86" fill="#389826"/><path d="M1164 314.563l35.875 43.046-49.328-26.906" fill="#cb3c33"/><path d="M1083.023.992l-30.816-4.402 120.328-4.402" fill="#9558b2"/><path d="M1144.902 9.977l-53.625-7.786 105.52-10.378" fill="#389826"/><path d="M1159.207 32.418l-12.71-20.883 54.476-19.066" fill="#cb3c33"/><path d="M1159.3 36.195l46.497 67.371-65.473-12.336" fill="#389826"/><path d="M1167.254 157.988l-26.629-64.664 65.617 12.364" fill="#cb3c33"/><path d="M1207.074 107.914l.906 35.402-38.125 14.528" fill="#389826"/><path d="M1184.129 234.7l26.445 83.113-45.336-5.665" fill="#cb3c33"/><path d="M1203.414 358.734l-37.023-44.43 44.425 5.555" fill="#389826"/><path d="M1184.438 228.54l-15.938-66.567 44.066 24.375" fill="#9558b2"/><path d="M1208.16 145.39l4.617 38.79-43.41-24.012" fill="#cb3c33"/><path d="M1204.371-8.016l11.328 57.594-54.758-16.05" fill="#389826"/><path d="M1207.418 102.398l-45.992-66.644 54.441 15.957" fill="#cb3c33"/><path d="M1209.902 140.184l-.882-34.399 22.05-5.293" fill="#4063d8"/><path d="M1217.324 55.137l14.383 43.144-22.473 5.395M1214.719 183.566l-4.516-37.933 26.188 11.742" fill="#389826"/><path d="M1232.293 102.45l4.566 52.94-26.472-11.863" fill="#9558b2"/><path d="M1237.453 159.227l5.32 24.812-26.585.887" fill="#cb3c33"/><path d="M1212.555 321.43l34.148 46.144-41.531-7.383" fill="#4063d8"/><path d="M1233.137 96.246l-14.578-43.726 30.066 9.109" fill="#cb3c33"/><path d="M1248.05 366.04l-34.292-46.349 35.222-6.488" fill="#389826"/><path d="M1214.043 187.738l45.484 61.594-73.914-18.95" fill="#4063d8"/><path d="M1243.242 186.027l16.387 60.078-43.695-59.167" fill="#9558b2"/><path d="M1249.148 311.14l-34.847 6.419 45.855-62.364" fill="#cb3c33"/><path d="M1212.36 316.824l-26.86-84.406 74.816 19.184" fill="#9558b2"/><path d="M1249.277 59.734l-30.347-9.195 42.3-40.465" fill="#4063d8"/><path d="M1217.629 49.016L1206.3-8.578l54.758 16.05M1263.352 9.809l17.308 32.796-29.152 16.399" fill="#cb3c33"/><path d="M1262.375 248.582l-16.691-61.203 38.949 26.89" fill="#4063d8"/><path d="M1262.734 252.438l34.465 15.835-45.64 40.985" fill="#389826"/><path d="M1285.574 216.496l11.973 49.734-34.078-15.656" fill="#cb3c33"/><path d="M1282.027 40.91l-17.265-32.715 33.625 3.637" fill="#389826"/><path d="M1250.98 313.05l54.582 2.825-55.523 50.816" fill="#9558b2"/><path d="M1298.352 269.926l8.425 44.008-54.308-2.809" fill="#4063d8"/><path d="M1238.91 155.91l-4.738-54.965 74.863 48.332" fill="#389826"/><path d="M1285.543 212.469l-39.602-27.344 64.118-33" fill="#9558b2"/><path d="M1244.703 183.512l-5.488-25.621 67.719-6.407" fill="#4063d8"/><path d="M1307.383 316.918l10.39 49.117-66.117 1.887" fill="#cb3c33"/><path d="M1250.379 62.598l65.738 53.53-81.703-17.843" fill="#389826"/><path d="M1311.367 148.402l-73.183-47.246 80.597 17.602" fill="#9558b2"/><path d="M1281.867 44.223l44.985 40.394-74.364-23.867" fill="#389826"/><path d="M1319.531 116.328l-64.789-52.754 74.969 24.063M1320.395 120.54l11.19 18.073-18.073 9.465" fill="#cb3c33"/><path d="M1330.2 92.242l1.655 43.008-10.753-17.367" fill="#389826"/><path d="M1312.316 151.879l26.141 29.875-50.414 29.871" fill="#4063d8"/><path d="M1332.234 140.527l6.22 38.184-24.864-28.414" fill="#389826"/><path d="M1300.18 12.723l38.906 44.465-55.582-14.82" fill="#9558b2"/><path d="M1330.598 85.293l-44.828-40.254 54.89 14.637" fill="#4063d8"/><path d="M1299.805 9.973l-31.555-3.41 81.871-23.028" fill="#9558b2"/><path d="M1263.004 5.96L1210.71-9.366l138.855-9.02" fill="#389826"/><path d="M1341.441 56.844l-39.855-45.547 55.988-29.418" fill="#cb3c33"/><path d="M1299.773 266.938l-12.23-50.805 74.324 46.101" fill="#9558b2"/><path d="M1339.418 183.508l23.84 77.234-75.328-46.722M1308.645 313.059l-8.454-44.145 61.993-4.7" fill="#389826"/><path d="M1364.082 265.191l1.879 50.774-55.473-1.883" fill="#9558b2"/><path d="M1319.734 365.637l-10.32-48.782 58.164 30.02" fill="#389826"/><path d="M1366.094 317.969l2.726 27.297-56.41-29.118M1369.754 348.172l11.066 11.062-54.465 5.957" fill="#cb3c33"/><path d="M1342.617 60.16l40.567 9.016-50.48 16.226" fill="#9558b2"/><path d="M1333.941 137.469l-1.882-48.996 59.359 22.613" fill="#4063d8"/><path d="M1386.203 70.305l6.524 39.14-58.707-22.367" fill="#389826"/><path d="M1382.512 358.098l-11.184-11.184 23.23-30.11" fill="#4063d8"/><path d="M1370.746 344.398l-2.656-26.566 26.562-4.426" fill="#389826"/><path d="M1367.957 315.828l-1.824-49.265 29.191 44.703" fill="#cb3c33"/><path d="M1365.445 261.055l-23.73-76.895 61.703 36.074" fill="#9558b2"/><path d="M1340.773 180.535l-6.57-40.37 73.238 9.386" fill="#cb3c33"/><path d="M1393.5 112.328l15.86 35.453-72.77-9.328" fill="#9558b2"/><path d="M1404.137 218.336l-61.98-36.234 67.702-31.47" fill="#4063d8"/><path d="M1359.691-18.465l56.32 31.5-72.546 43.91" fill="#389826"/><path d="M1386.488 67.863l-41.836-9.297 70.657-42.77" fill="#cb3c33"/><path d="M1396.895 310.008l-29.954-45.863 51.48 3.742" fill="#4063d8"/><path d="M1404.566 221.934l14.032 43.96-51.446-3.742M1411.617 153.586l20.11 54.84-25.594 10.054" fill="#cb3c33"/><path d="M1419.832 263.18l-13.594-42.59 25.375-9.969" fill="#389826"/><path d="M1420.148 268.906l14.395 19.793-35.086 20.692" fill="#9558b2"/><path d="M1418.234 11.984l-44.296-24.773 58.562 24.023" fill="#cb3c33"/><path d="M1432.922 205.879l-20.465-55.805 37.207 1.86" fill="#9558b2"/><path d="M1433.156 212.875L1449.645 266h-28.395" fill="#cb3c33"/><path d="M1435.973 287.262L1421.965 268h27.144" fill="#389826"/><path d="M1394.8 109.723l-6.527-39.16 60.61 23.308M1450.02 149.95l-37.098-1.856 38.023-51.008" fill="#cb3c33"/><path d="M1411.219 147.035l-15.84-35.398L1449.41 95.8" fill="#389826"/><path d="M1418.246 14.617l40.676 38.785-70 14.188" fill="#9558b2"/><path d="M1451.277 92.652l-60.715-23.355 69.122-14.012" fill="#4063d8"/><path d="M1436.438 13.031l20.296 35.52-36.367-34.676M1397.672 313.27l66.941 21.683-80.14 23.57" fill="#389826"/><path d="M1435.707 290.332l29.777 42.8-66.062-21.398" fill="#cb3c33"/><path d="M1450.57 269.406l15.137 60.547-28.492-40.957M1468.082 336.02l25.273 3.156-92.398 16.586" fill="#9558b2"/><path d="M1452.984 94.98l45.793-.933-46.73 54.207" fill="#389826"/><path d="M1461.582 55.965l37.012 36.086-45.34.922" fill="#cb3c33"/><path d="M1500.555 91.172l-35.864-34.973 43.04 13.453" fill="#9558b2"/><path d="M1437.066 10.945l-71.785-29.449L1506.094-7.46" fill="#4063d8"/><path d="M1508.05 67.656l-45.335-14.168 48.172-58.558" fill="#389826"/><path d="M1461.148 52.246l-22.636-39.613L1509.25-6.23" fill="#cb3c33"/><path d="M1500.496 95.113l13.234 52.926-60.488 1.89" fill="#9558b2"/><path d="M1451.625 152.367l62.633 27.52-79.719 27.523" fill="#389826"/><path d="M1514.063 150.031l1.832 28.39-60.45-26.558" fill="#cb3c33"/><path d="M1451.602 265.566l-17.11-55.132 81.746 21.863" fill="#389826"/><path d="M1516.05 181.387l1.9 49.297-81.532-21.805" fill="#9558b2"/><path d="M1499.32 337.906l-29.215-3.652 47.473-49.297" fill="#cb3c33"/><path d="M1468.531 333.004l-16.176-64.707 65.66 13.32" fill="#4063d8"/><path d="M1518.031 233.621l.946 46.152-64.989-13.187" fill="#cb3c33"/><path d="M1520.91 276.527l-.844-41.257 11.79 16.84" fill="#4063d8"/><path d="M1512.82-3.41l19.993 48.164-22.715 21.809" fill="#cb3c33"/><path d="M1532.152 249.047l-12.004-17.152 14.579-31.727" fill="#9558b2"/><path d="M1519.84 227.781l-1.758-45.652 16.68 13.168" fill="#cb3c33"/><path d="M1520.598 282.336l16.812 7.078-34.508 44.242" fill="#389826"/><path d="M1532.547 255.453l5.176 31.926-16.391-6.902" fill="#cb3c33"/><path d="M1533.906 42.168L1513.496-7h37.11M1509.547 70.523l38.617 24.25-45.805-2.695" fill="#389826"/><path d="M1533.574 46.797l16.528 46.832-39.485-24.793M1515.438 146.625L1502.3 94.078l47.855 2.817" fill="#4063d8"/><path d="M1535.5 193.332l-16.973-13.398 31.266-29.48" fill="#389826"/><path d="M1517.86 177.813l-1.797-27.868 33.265-1.8" fill="#9558b2"/><path d="M1551 99.18v46.87l-34.008 1.84" fill="#389826"/><path d="M1538.715 290.992l17.832 45.059-54.442 1.875M1553 144.406V97.852l26.473 17.343M1552.219-5.54l29.023 52.43-45.875-2.808" fill="#cb3c33"/><path d="M1580.055 113.184l-26.676-17.477 28.516-44.148" fill="#389826"/><path d="M1552.266 93.746l-16.82-47.656 45.788 2.805" fill="#9558b2"/><path d="M1580.152 117.422l1.785 27.613-27.613.89M1536.938 196.246l43.996 10.297-46.805 43.062" fill="#389826"/><path d="M1552.207 149.543l28.89 54.984-43.8-10.25" fill="#cb3c33"/><path d="M1582 147.031v54.914l-28.371-53.996" fill="#9558b2"/><path d="M1582.215 44.52l-28.246-51.028 30.98 7.29" fill="#4063d8"/><path d="M1539.773 287.516l-5.582-34.41 65.098 5.582" fill="#389826"/><path d="M1582.594 207.73l18.898 49.137-66.144-5.668M1499.98 340.02l96.293 20.894-202.574-1.816" fill="#cb3c33"/><path d="M1557.77 338.008l41.152 21.433-90.875-19.718M1558.434 335.383l-17.938-45.324 71.758 2.832" fill="#389826"/><path d="M1602.43 259.387l11.136 31.554-70.535-2.78M1605.191 360.45l-45.359-23.622 53.863-42.523" fill="#cb3c33"/><path d="M1603.695 257.023l-17.836-46.378 42.809 47.273" fill="#389826"/><path d="M1615.145 289.406l-10.711-30.355 24.996.894" fill="#4063d8"/><path d="M1586.879 1.953l59.148 46-61.965-.937" fill="#389826"/><path d="M1583.95 49.773l63.78 39.985-65.687 23.8" fill="#cb3c33"/><path d="M1648.023 49.984l.93 38.18-62.39-39.11" fill="#9558b2"/><path d="M1631.164 260.957l19.969 28.14-34.492 1.817" fill="#389826"/><path d="M1630.648 257.121l-45.574-50.32 67.414-6.649" fill="#cb3c33"/><path d="M1584 204.898v-56.902l67.336 50.262" fill="#4063d8"/><path d="M1583.934 144.96l-1.836-28.5 70.785 25.743" fill="#cb3c33"/><path d="M1649.191 91.355l7.57 50.13L1583.93 115M1653.133 197.105l-67.274-50.218 71.063-2.844" fill="#389826"/><path d="M1648.492 47.336L1588.782.895l75.823-2.84" fill="#cb3c33"/><path d="M1615.684 294.512l49.347 63.582-57.886 2.847" fill="#389826"/><path d="M1652.191 291.043l12.98 63.969-48.21-62.114M1653.082 288.387l-20.172-28.426 45.848-.914" fill="#cb3c33"/><path d="M1654.082 201.582l25.375 55.45-46.992.937" fill="#4063d8"/><path d="M1666.61-1.64l13.847 6.054-28.562 38.945M1658.797 145.883l32.46 46.375-36.171 5.562" fill="#9558b2"/><path d="M1680.59 254.703l-25.13-54.914 36.302-5.586" fill="#cb3c33"/><path d="M1667.531 356.582l-13.082-64.477 41.113 26.165" fill="#4063d8"/><path d="M1680.516 260.07l14.855 55.707-40.851-25.996" fill="#389826"/><path d="M1650.95 87.89l-.927-37.93 48.106-1.85" fill="#cb3c33"/><path d="M1681.785 5.984l17.703 40.075-48.457 1.863M1658.684 140.84l-7.5-49.7 49.699 5.626" fill="#4063d8"/><path d="M1700.086 49.082l1.867 45.793-49.531-5.605M1692.746 190.895l-32.309-46.16 45.235 12.925" fill="#389826"/><path d="M1702.152 98.332l3.758 57.316-46.043-13.156" fill="#cb3c33"/><path d="M1696.68 320.129l15.82 45.601-43.738-7.445" fill="#9558b2"/><path d="M1682.11 2.957l-11.883-5.2 51.25-2.972" fill="#389826"/><path d="M1701.156 44.875l-17.742-40.148 49.488-10.27" fill="#cb3c33"/><path d="M1697.637 316.508l-14.98-56.176 52.429 35.578" fill="#9558b2"/><path d="M1714.668 365.867l-15.074-43.445 35.465 39.902" fill="#389826"/><path d="M1736 297.691v62.68l-37.422-42.098" fill="#cb3c33"/><path d="M1703.871 92.863l-1.836-45.031 35.844-6.434" fill="#9558b2"/><path d="M1734.309-4.027l4.597 43.207-35.851 6.437" fill="#4063d8"/><path d="M1707.66 158.059l32.38 2.699-44.97 29.676" fill="#cb3c33"/><path d="M1693.742 194.477l48.215 23.636-59.559 37.813" fill="#389826"/><path d="M1742.031 161.836l.942 54.547-47.961-23.512M1742.125 158.922l-33.277-2.774 40.675-56.39" fill="#4063d8"/><path d="M1707.816 154.16l-3.75-57.16h44.98" fill="#389826"/><path d="M1739.488 42.586L1749.785 95h-44.926" fill="#cb3c33"/><path d="M1736.352 294.352l-53.106-36.036 66.383-21.812" fill="#389826"/><path d="M1743.531 219.484l6.133 14.903-61.363 20.16M1751.488 93.3l-10.21-51.987 37.136 8.355" fill="#9558b2"/><path d="M1740.918 39.184l-4.563-42.903 41.075 51.114M1738 362.113v-62.828l45.95 68.457M1751.738 98.152l41.465 41.465-49.004 18.852" fill="#389826"/><path d="M1751.434 233.43l-6.102-14.82 47.074-15.692" fill="#cb3c33"/><path d="M1744.977 216.621l-.942-54.633 51.805 37.676" fill="#389826"/><path d="M1794.07 141.43l2.828 56.53-51.824-37.687M1751.71 236.379l45.173 18.824-58.348 38.582" fill="#cb3c33"/><path d="M1797.035 201.965l.938 51.523-44.965-18.734" fill="#389826"/><path d="M1779.953 50.984l25.32 45.953-52.52-1.874" fill="#4063d8"/><path d="M1794.504 138.09l-41-41 52.184 1.863" fill="#cb3c33"/><path d="M1779.824 47.184L1736.95-6.172l74.313-6.668" fill="#9558b2"/><path d="M1785.832 366.953l-46.984-69.996 79.582-1.918" fill="#cb3c33"/><path d="M1798.637 256.438l19.71 36.601-77.894 1.879" fill="#4063d8"/><path d="M1820.492 292.8l-17.21-31.956 27.863 28.68" fill="#cb3c33"/><path d="M1807.57 96.96l-24.28-44.062 53.054 42.266" fill="#389826"/><path d="M1798.871 197.422l-2.82-56.402 49.824.94" fill="#9558b2"/><path d="M1807.48 99.953l38.141 40-49.3-.93" fill="#389826"/><path d="M1838.191 97.05l8.153 40.763-37.137-38.95" fill="#cb3c33"/><path d="M1832.66 288.215l-31.82-32.758 52.406-16.844" fill="#389826"/><path d="M1799.977 253.637l-.942-51.774 53.652 34.828" fill="#cb3c33"/><path d="M1847.559 143.066l15.132 52.012-62.414 3.781" fill="#389826"/><path d="M1854.332 235.375l-53.242-34.559 61.648-3.738" fill="#9558b2"/><path d="M1813.125-12.082l49.75 70.8-81.324-10.527" fill="#4063d8"/><path d="M1847.2-12.023l15.66 67.238-47.895-68.16" fill="#389826"/><path d="M1838.805 94.566l-55.38-44.113 79.782 10.324M1820.2 295.98l47.937 66.149-80.532 5.754" fill="#9558b2"/><path d="M1832.488 291.203l30.907 60.98-41.766-57.64" fill="#4063d8"/><path d="M1855.668 238h25.98l-45.691 47.484" fill="#9558b2"/><path d="M1864.36 199.02l18.038 36.98h-26.156" fill="#4063d8"/><path d="M1848.824 140.02l-8.277-41.391 49.664 42.308" fill="#9558b2"/><path d="M1864.277 193.371l-14.937-51.34 42.008.934" fill="#4063d8"/><path d="M1890.137 365.816l-18.621-3.546 24.828-46.997" fill="#9558b2"/><path d="M1870.02 360.824l-35.063-69.176 61.594 18.954" fill="#389826"/><path d="M1883.383 239.086l13.32 69.469-61.855-19.032" fill="#4063d8"/><path d="M1883.977 234.672l-18.555-38.043 41.75-12.059" fill="#389826"/><path d="M1892.855 144.383l14.817 37.96-41.668 12.036M1865.582 58.082l-16.18-69.465 63.758 24.742" fill="#9558b2"/><path d="M1865.145 61.508l48.777 45.965-73.168-12.196" fill="#cb3c33"/><path d="M1892.828 140.54l-50.43-42.962 72.84 12.14" fill="#389826"/><path d="M1914.29 15.04l4.589 31.198-50.469 11.93" fill="#cb3c33"/><path d="M1916.105 106.785l-49.066-46.238 51.899-12.27M1909.14 180.61l-14.73-37.747 36.828-3.683" fill="#389826"/><path d="M1916.883 110.86l14.508 26.296-36.27 3.625M1898.762 312.016l42.273 37.574-48.851 15.973" fill="#cb3c33"/><path d="M1915.176 11.996l-53.168-20.633 83.32 19.84" fill="#389826"/><path d="M1920.688 44.813l-4.536-30.844 34.473-.906" fill="#4063d8"/><path d="M1898.61 307.86l-13.36-69.653 67.746 10.496" fill="#389826"/><path d="M1909.184 184.988l43.636 61.66-67.355-10.433" fill="#cb3c33"/><path d="M1920.934 48.434l33.425 13-36.214 44.57" fill="#9558b2"/><path d="M1952.145 14.367l2.761 45.133-33.16-12.895M1933.145 136.191l-14.516-26.308 37.195-2.723" fill="#389826"/><path d="M1955.117 63.672l1.84 41.402-37.723 2.758" fill="#4063d8"/><path d="M1942.68 348.379l-42.176-37.492 61.86-2.813" fill="#389826"/><path d="M1954.324 250.21l8.52 55.84-62.465 2.84" fill="#9558b2"/><path d="M1933.035 140.059l34.817 60.226-57.403-17.879" fill="#4063d8"/><path d="M1954.668 245.797l-43.145-60.965 57.211 17.82" fill="#9558b2"/><path d="M1958.965 105.195l-1.813-40.797 33.543 48.051" fill="#389826"/><path d="M1992.254 111.184l-34.793-49.84 41.375-22.57" fill="#4063d8"/><path d="M1956.902 59.367l-2.797-45.644 43.786 23.289" fill="#9558b2"/><path d="M1999 15.938v19.398l-41.441-22.043" fill="#cb3c33"/><path d="M1964.188 308.89l33.667 43.958-53.304-3.743" fill="#9558b2"/><path d="M1958.172 107.402l41.742 32.465-64.93-2.781" fill="#4063d8"/><path d="M1992.25 114.855l8.594 23.2-38.668-30.075M1969.973 199.953l-35.196-60.875 66.582 2.852" fill="#9558b2"/><path d="M1970.523 203.621l38.239 27.98-52.227 14.922M2002.691 143.672l14.04 51.48-44.926 5.614" fill="#389826"/><path d="M2010.32 230.262l-37.699-27.582 44.133-5.516" fill="#4063d8"/><path d="M1999.77 352.055l-33.688-43.98 52.402 1.87M1964.734 305.184l-8.55-56.055 72.207 7.601" fill="#cb3c33"/><path d="M2010.648 233.14l18.008 21.606-68.426-7.2" fill="#4063d8"/><path d="M2019.191 307.969l-52.359-1.867 62.645-47.688" fill="#389826"/><path d="M2031.078 260.54l9.738 39.827-19.472 7.082" fill="#cb3c33"/><path d="M2000.82 39.02l53.344 45.722-60.012 27.625" fill="#389826"/><path d="M2003.379 139.145l-9.121-24.625 57.457-26.446" fill="#cb3c33"/><path d="M1999.902 13.992l-35.695-2.277 78.984-9.113" fill="#9558b2"/><path d="M1953.059 10.988l-93.52-22.27L2045.691.298" fill="#cb3c33"/><path d="M2001 35.16V15.77l50.23-13.22" fill="#4063d8"/><path d="M2020.148 311.129l35.649 57.226-54.41-15.011" fill="#389826"/><path d="M2041.281 302.324l14.387 62.04-34.168-54.844M2055.535 83.285l-51.394-44.05 60.57 17.433" fill="#9558b2"/><path d="M2056.258 1.676l8.504 52.926-62.38-17.957" fill="#cb3c33"/><path d="M2018.832 196.969l45.652-1.828-52.046 34.699" fill="#9558b2"/><path d="M2030.863 254.277l-18.383-22.062 52.395-34.93M2067.063 193.035l-45.282 1.813 47.094-28.98" fill="#389826"/><path d="M2018.613 194.45l-14.152-51.891 63.21 21.699" fill="#4063d8"/><path d="M2055.363 87.129l13.356 75.375-63.926-21.945" fill="#389826"/><path d="M2066.484 57.668l12.832 10.266-21.39 14.546" fill="#cb3c33"/><path d="M2058.46 367.559l-14.874-64.145 39.043 28.816" fill="#389826"/><path d="M2083.383 330.3l-38.5-28.413 45.832-1.836" fill="#cb3c33"/><path d="M2042.777 299.969l-10.172-41.614 56.41 39.762M2080.383 66.227l-13.133-10.508 29.773-61.301" fill="#389826"/><path d="M2066.484 52.715L2058.125.687l39.95-13.007" fill="#9558b2"/><path d="M2070.48 160.977L2057.3 86.62l43.298 17.883" fill="#cb3c33"/><path d="M2080.676 69.43l18.969 32.515-41.547-17.16" fill="#389826"/><path d="M2099.137-5.852l1.797 106.043-18.872-32.351M2070.828 166.625l32.957 40.977-34.738-14.254" fill="#cb3c33"/><path d="M2068.184 195.645l37.921 39.816-72.996 18.957" fill="#4063d8"/><path d="M2106.027 210.68l.871 22.715-34.941-36.692" fill="#389826"/><path d="M2091.387 297.344l-58.047-40.918 73.273-19.031" fill="#cb3c33"/><path d="M2101.762 106.57l11.027 34.918-40.43 20.215" fill="#9558b2"/><path d="M2106.254 207.477l-34.7-43.137 41.266-20.633" fill="#389826"/></svg>