<svg xmlns="http://www.w3.org/2000/svg" width="2100" height="320" viewBox="0 0 2100 320">
<style>
  .a{
     stroke:none;
    fill:rgb(30.196078%,30.196078%,30.196078%);
  }
  .b{
     stroke:none;
    fill:rgb(20%,20%,20%);
  }
</style>
    <rect width="2100" height="320" fill="rgb(0%,0%,0%)"/>
    <path d="M2027.9 339.4L1985.9 339.4 2006.9 274.7ZM2027.9 339.4" class="a"/>
    <path d="M2008.8 274.1L2098.6 339.4 2030 339.4ZM2008.8 274.1" class="b"/>
    <path d="M1950 314.1L1984 338.8 2005 274.1ZM1950 314.1" class="a"/>
    <path d="M2003.8 272.5L1892.7 272.5 1948.3 312.8ZM2003.8 272.5" class="b"/>
    <path d="M1933.1 270.5L1891 270.5 1912.1 205.8ZM1933.1 270.5" class="a"/>
    <path d="M1889.7 268.2L1855.3 162.6 1910.9 203ZM1889.7 268.2" class="b"/>
    <path d="M1914 205.2L2003.8 270.5 1935.2 270.5ZM1914 205.2" class="b"/>
    <path d="M1948.8 315.7L1982.8 340.4 1927.8 380.3ZM1948.8 315.7" class="a"/>
    <path d="M1925.9 379.7L1891.6 274.1 1947.1 314.4ZM1925.9 379.7" class="b"/>
    <path d="M2078 270.5L2065 230.5 2010 270.5ZM2078 270.5" class="a"/>
    <path d="M2010 272.5L2099.8 337.8 2078.6 272.5ZM2010 272.5" class="b"/>
    <path d="M2079.9 269.9L2066.9 229.9 2134.9 229.9ZM2079.9 269.9" class="a"/>
    <path d="M2068.6 227.9L2158.4 162.6 2137.2 227.9ZM2068.6 227.9" class="b"/>
    <path d="M2136 231.5L2101.7 337.1 2080.5 271.9ZM2136 231.5" class="b"/>
    <path d="M2029.8 204.2L2063.8 228.9 2008.8 268.9ZM2029.8 204.2" class="a"/>
    <path d="M2006.9 268.2L1972.6 162.6 2028.1 203ZM2006.9 268.2" class="b"/>
    <path d="M1983.1 201.6L1970.1 161.6 1915.1 201.6ZM1983.1 201.6" class="a"/>
    <path d="M1967.6 161L1856.5 161 1912.1 201.3ZM1967.6 161" class="b"/>
    <path d="M1915.1 203.6L2005 268.9 1983.8 203.6ZM1915.1 203.6" class="b"/>
    <path d="M2031 202.6L2065 227.3 2086 162.6ZM2031 202.6" class="a"/>
    <path d="M2067.4 226.3L2157.3 161 2088.6 161ZM2067.4 226.3" class="b"/>
    <path d="M2084.8 161L1973.7 161 2029.3 201.3ZM2084.8 161" class="b"/>
    <path d="M1797.9 339.4L1887.8 274.1 1866.6 339.4ZM1797.9 339.4" class="b"/>
    <path d="M1854 296.2L1888 271.5 1833 231.5ZM1854 296.2" class="a"/>
    <path d="M1887.8 268.9L1853.4 163.2 1832.2 228.5ZM1887.8 268.9" class="b"/>
    <path d="M1831.1 232.1L1796.7 337.8 1852.3 297.4ZM1831.1 232.1" class="b"/>
    <path d="M1924 380.3L1889.7 274.7 1868.5 340ZM1924 380.3" class="b"/>
    <path d="M1736.8 299.4L1723.8 339.4 1791.8 339.4ZM1736.8 299.4" class="a"/>
    <path d="M1792.9 337.8L1758.6 232.1 1737.4 297.4ZM1792.9 337.8" class="b"/>
    <path d="M1773 269.9L1760 229.9 1828 229.9ZM1773 269.9" class="a"/>
    <path d="M1761.7 227.9L1851.5 162.6 1830.3 227.9ZM1761.7 227.9" class="b"/>
    <path d="M1829.2 231.5L1794.8 337.1 1773.6 271.9ZM1829.2 231.5" class="b"/>
    <path d="M1734.8 298.8L1721.9 338.8 1666.9 298.8ZM1734.8 298.8" class="a"/>
    <path d="M1719.3 339.4L1608.2 339.4 1663.8 299ZM1719.3 339.4" class="b"/>
    <path d="M1666.9 296.8L1756.7 231.5 1735.5 296.8ZM1666.9 296.8" class="b"/>
    <path d="M1531.3 339.4L1489.3 339.4 1510.3 274.7ZM1531.3 339.4" class="a"/>
    <path d="M1512.2 274.1L1602.1 339.4 1533.4 339.4ZM1512.2 274.1" class="b"/>
    <path d="M1453.4 314.1L1487.4 338.8 1508.4 274.1ZM1453.4 314.1" class="a"/>
    <path d="M1507.3 272.5L1396.2 272.5 1451.7 312.8ZM1507.3 272.5" class="b"/>
    <path d="M1436.5 270.5L1394.5 270.5 1415.5 205.8ZM1436.5 270.5" class="a"/>
    <path d="M1393.1 268.2L1358.8 162.6 1414.3 203ZM1393.1 268.2" class="b"/>
    <path d="M1417.4 205.2L1507.3 270.5 1438.6 270.5ZM1417.4 205.2" class="b"/>
    <path d="M1452.2 315.7L1486.2 340.4 1431.2 380.3ZM1452.2 315.7" class="a"/>
    <path d="M1429.3 379.7L1395 274.1 1450.5 314.4ZM1429.3 379.7" class="b"/>
    <path d="M1335 230.5L1322 270.5 1390 270.5ZM1335 230.5" class="a"/>
    <path d="M1391.2 268.9L1356.9 163.2 1335.7 228.5ZM1391.2 268.9" class="b"/>
    <path d="M1333.1 229.9L1320.1 269.9 1265.1 229.9ZM1333.1 229.9" class="a"/>
    <path d="M1317.6 270.5L1206.5 270.5 1262.1 230.1ZM1317.6 270.5" class="b"/>
    <path d="M1265.1 227.9L1355 162.6 1333.8 227.9ZM1265.1 227.9" class="b"/>
    <path d="M1226.4 204.2L1260.4 228.9 1205.3 268.9ZM1226.4 204.2" class="a"/>
    <path d="M1203.4 268.2L1169.1 162.6 1224.7 203ZM1203.4 268.2" class="b"/>
    <path d="M1179.7 201.6L1166.7 161.6 1111.7 201.6ZM1179.7 201.6" class="a"/>
    <path d="M1164.1 161L1053.1 161 1108.6 201.3ZM1164.1 161" class="b"/>
    <path d="M1111.7 203.6L1201.5 268.9 1180.3 203.6ZM1111.7 203.6" class="b"/>
    <path d="M1227.5 202.6L1261.5 227.3 1282.5 162.6ZM1227.5 202.6" class="a"/>
    <path d="M1264 226.3L1353.8 161 1285.2 161ZM1264 226.3" class="b"/>
    <path d="M1281.4 161L1170.3 161 1225.8 201.3ZM1281.4 161" class="b"/>
    <path d="M1335 312.4L1322 272.5 1390 272.5ZM1335 312.4" class="a"/>
    <path d="M1391.2 274.1L1356.9 379.7 1335.7 314.4ZM1391.2 274.1" class="b"/>
    <path d="M1427.4 380.3L1393.1 274.7 1371.9 340ZM1427.4 380.3" class="b"/>
    <path d="M1333.1 313.1L1320.1 273.1 1265.1 313.1ZM1333.1 313.1" class="a"/>
    <path d="M1317.6 272.5L1206.5 272.5 1262.1 312.8ZM1317.6 272.5" class="b"/>
    <path d="M1265.1 315.1L1355 380.3 1333.8 315.1ZM1265.1 315.1" class="b"/>
    <path d="M1581.4 270.5L1568.4 230.5 1513.4 270.5ZM1581.4 270.5" class="a"/>
    <path d="M1513.4 272.5L1603.3 337.8 1582.1 272.5ZM1513.4 272.5" class="b"/>
    <path d="M1583.3 269.9L1570.3 229.9 1638.3 229.9ZM1583.3 269.9" class="a"/>
    <path d="M1572 227.9L1661.9 162.6 1640.7 227.9ZM1572 227.9" class="b"/>
    <path d="M1639.5 231.5L1605.2 337.1 1584 271.9ZM1639.5 231.5" class="b"/>
    <path d="M1684.8 227.9L1642.8 227.9 1663.8 163.2ZM1684.8 227.9" class="a"/>
    <path d="M1665.7 162.6L1755.5 227.9 1686.9 227.9ZM1665.7 162.6" class="b"/>
    <path d="M1724.1 202.6L1758.1 227.3 1779.1 162.6ZM1724.1 202.6" class="a"/>
    <path d="M1760.5 226.3L1850.4 161 1781.7 161ZM1760.5 226.3" class="b"/>
    <path d="M1777.9 161L1666.9 161 1722.4 201.3ZM1777.9 161" class="b"/>
    <path d="M1684.8 229.9L1642.8 229.9 1663.8 294.6ZM1684.8 229.9" class="a"/>
    <path d="M1641.4 232.1L1607.1 337.8 1662.6 297.4ZM1641.4 232.1" class="b"/>
    <path d="M1665.7 295.2L1755.5 229.9 1686.9 229.9ZM1665.7 295.2" class="b"/>
    <path d="M1533.2 204.2L1567.2 228.9 1512.2 268.9ZM1533.2 204.2" class="a"/>
    <path d="M1510.3 268.2L1476 162.6 1531.5 203ZM1510.3 268.2" class="b"/>
    <path d="M1486.6 201.6L1473.6 161.6 1418.6 201.6ZM1486.6 201.6" class="a"/>
    <path d="M1471 161L1360 161 1415.5 201.3ZM1471 161" class="b"/>
    <path d="M1418.6 203.6L1508.4 268.9 1487.2 203.6ZM1418.6 203.6" class="b"/>
    <path d="M1534.4 202.6L1568.4 227.3 1589.4 162.6ZM1534.4 202.6" class="a"/>
    <path d="M1570.8 226.3L1660.7 161 1592.1 161ZM1570.8 226.3" class="b"/>
    <path d="M1588.3 161L1477.2 161 1532.7 201.3ZM1588.3 161" class="b"/>
    <path d="M1237.8 380.3L1203.4 274.7 1182.2 340ZM1237.8 380.3" class="b"/>
    <path d="M1146.5 314.1L1180.5 338.8 1201.5 274.1ZM1146.5 314.1" class="a"/>
    <path d="M1200.4 272.5L1089.3 272.5 1144.8 312.8ZM1200.4 272.5" class="b"/>
    <path d="M1129.6 270.5L1087.6 270.5 1108.6 205.8ZM1129.6 270.5" class="a"/>
    <path d="M1086.2 268.2L1051.9 162.6 1107.4 203ZM1086.2 268.2" class="b"/>
    <path d="M1110.5 205.2L1200.4 270.5 1131.7 270.5ZM1110.5 205.2" class="b"/>
    <path d="M1145.4 315.7L1179.4 340.4 1124.3 380.3ZM1145.4 315.7" class="a"/>
    <path d="M1122.4 379.7L1088.1 274.1 1143.7 314.4ZM1122.4 379.7" class="b"/>
    <path d="M1283.1 382L1241 382 1262.1 317.3ZM1283.1 382" class="a"/>
    <path d="M1239.7 379.7L1205.3 274.1 1260.9 314.4ZM1239.7 379.7" class="b"/>
    <path d="M1264 316.7L1353.8 382 1285.2 382ZM1264 316.7" class="b"/>
    <path d="M994.5 339.4L1084.3 274.1 1063.1 339.4ZM994.5 339.4" class="b"/>
    <path d="M1050.5 296.2L1084.5 271.5 1029.5 231.5ZM1050.5 296.2" class="a"/>
    <path d="M1084.3 268.9L1050 163.2 1028.8 228.5ZM1084.3 268.9" class="b"/>
    <path d="M1027.6 232.1L993.3 337.8 1048.8 297.4ZM1027.6 232.1" class="b"/>
    <path d="M1120.5 380.3L1086.2 274.7 1065 340ZM1120.5 380.3" class="b"/>
    <path d="M933.3 299.4L920.3 339.4 988.3 339.4ZM933.3 299.4" class="a"/>
    <path d="M989.5 337.8L955.2 232.1 934 297.4ZM989.5 337.8" class="b"/>
    <path d="M969.5 269.9L956.5 229.9 1024.5 229.9ZM969.5 269.9" class="a"/>
    <path d="M958.2 227.9L1048.1 162.6 1026.9 227.9ZM958.2 227.9" class="b"/>
    <path d="M1025.7 231.5L991.4 337.1 970.2 271.9ZM1025.7 231.5" class="b"/>
    <path d="M931.4 298.8L918.4 338.8 863.4 298.8ZM931.4 298.8" class="a"/>
    <path d="M915.9 339.4L804.8 339.4 860.3 299ZM915.9 339.4" class="b"/>
    <path d="M863.4 296.8L953.3 231.5 932.1 296.8ZM863.4 296.8" class="b"/>
    <path d="M-36 316.7L53.8 382 -14.8 382ZM-36 316.7" class="b"/>
    <path d="M436.8 299.4L423.8 339.4 491.8 339.4ZM436.8 299.4" class="a"/>
    <path d="M492.9 337.8L458.6 232.1 437.4 297.4ZM492.9 337.8" class="b"/>
    <path d="M473 269.9L460 229.9 528 229.9ZM473 269.9" class="a"/>
    <path d="M461.7 227.9L551.5 162.6 530.3 227.9ZM461.7 227.9" class="b"/>
    <path d="M529.2 231.5L494.8 337.1 473.6 271.9ZM529.2 231.5" class="b"/>
    <path d="M434.8 298.8L421.9 338.8 366.9 298.8ZM434.8 298.8" class="a"/>
    <path d="M419.3 339.4L308.2 339.4 363.8 299ZM419.3 339.4" class="b"/>
    <path d="M366.9 296.8L456.7 231.5 435.5 296.8ZM366.9 296.8" class="b"/>
    <path d="M555.1 297.8L589.1 273.1 610.2 337.8ZM555.1 297.8" class="a"/>
    <path d="M609 339.4L497.9 339.4 553.4 299ZM609 339.4" class="b"/>
    <path d="M554 296.2L588 271.5 533 231.5ZM554 296.2" class="a"/>
    <path d="M587.8 268.9L553.4 163.2 532.2 228.5ZM587.8 268.9" class="b"/>
    <path d="M531.1 232.1L496.7 337.8 552.3 297.4ZM531.1 232.1" class="b"/>
    <path d="M633.1 272.5L591 272.5 612.1 337.1ZM633.1 272.5" class="a"/>
    <path d="M614 337.8L703.8 272.5 635.2 272.5ZM614 337.8" class="b"/>
    <path d="M672.4 297.8L706.4 273.1 727.4 337.8ZM672.4 297.8" class="a"/>
    <path d="M708.8 274.1L798.6 339.4 730 339.4ZM708.8 274.1" class="b"/>
    <path d="M726.2 339.4L615.1 339.4 670.7 299ZM726.2 339.4" class="b"/>
    <path d="M633.1 270.5L591 270.5 612.1 205.8ZM633.1 270.5" class="a"/>
    <path d="M589.7 268.2L555.3 162.6 610.9 203ZM589.7 268.2" class="b"/>
    <path d="M614 205.2L703.8 270.5 635.2 270.5ZM614 205.2" class="b"/>
    <path d="M778 270.5L765 230.5 710 270.5ZM778 270.5" class="a"/>
    <path d="M710 272.5L799.8 337.8 778.6 272.5ZM710 272.5" class="b"/>
    <path d="M779.9 269.9L766.9 229.9 834.9 229.9ZM779.9 269.9" class="a"/>
    <path d="M768.6 227.9L858.4 162.6 837.2 227.9ZM768.6 227.9" class="b"/>
    <path d="M836 231.5L801.7 337.1 780.5 271.9ZM836 231.5" class="b"/>
    <path d="M881.3 227.9L839.3 227.9 860.3 163.2ZM881.3 227.9" class="a"/>
    <path d="M862.2 162.6L952.1 227.9 883.4 227.9ZM862.2 162.6" class="b"/>
    <path d="M920.6 202.6L954.6 227.3 975.7 162.6ZM920.6 202.6" class="a"/>
    <path d="M957.1 226.3L1046.9 161 978.3 161ZM957.1 226.3" class="b"/>
    <path d="M974.5 161L863.4 161 918.9 201.3ZM974.5 161" class="b"/>
    <path d="M881.3 229.9L839.3 229.9 860.3 294.6ZM881.3 229.9" class="a"/>
    <path d="M837.9 232.1L803.6 337.8 859.2 297.4ZM837.9 232.1" class="b"/>
    <path d="M862.2 295.2L952.1 229.9 883.4 229.9ZM862.2 295.2" class="b"/>
    <path d="M729.8 204.2L763.8 228.9 708.8 268.9ZM729.8 204.2" class="a"/>
    <path d="M706.9 268.2L672.6 162.6 728.1 203ZM706.9 268.2" class="b"/>
    <path d="M683.1 201.6L670.1 161.6 615.1 201.6ZM683.1 201.6" class="a"/>
    <path d="M667.6 161L556.5 161 612.1 201.3ZM667.6 161" class="b"/>
    <path d="M615.1 203.6L705 268.9 683.8 203.6ZM615.1 203.6" class="b"/>
    <path d="M731 202.6L765 227.3 786 162.6ZM731 202.6" class="a"/>
    <path d="M767.4 226.3L857.3 161 788.6 161ZM767.4 226.3" class="b"/>
    <path d="M784.8 161L673.7 161 729.3 201.3ZM784.8 161" class="b"/>
    <path d="M231.3 339.4L189.3 339.4 210.3 274.7ZM231.3 339.4" class="a"/>
    <path d="M212.2 274.1L302.1 339.4 233.4 339.4ZM212.2 274.1" class="b"/>
    <path d="M153.4 314.1L187.4 338.8 208.4 274.1ZM153.4 314.1" class="a"/>
    <path d="M207.3 272.5L96.2 272.5 151.7 312.8ZM207.3 272.5" class="b"/>
    <path d="M136.5 270.5L94.5 270.5 115.5 205.8ZM136.5 270.5" class="a"/>
    <path d="M93.1 268.2L58.8 162.6 114.3 203ZM93.1 268.2" class="b"/>
    <path d="M117.4 205.2L207.3 270.5 138.6 270.5ZM117.4 205.2" class="b"/>
    <path d="M152.2 315.7L186.2 340.4 131.2 380.3ZM152.2 315.7" class="a"/>
    <path d="M129.3 379.7L95 274.1 150.5 314.4ZM129.3 379.7" class="b"/>
    <path d="M35 230.5L22 270.5 90 270.5ZM35 230.5" class="a"/>
    <path d="M91.2 268.9L56.9 163.2 35.7 228.5ZM91.2 268.9" class="b"/>
    <path d="M33.1 229.9L20.1 269.9 -34.9 229.9ZM33.1 229.9" class="a"/>
    <path d="M17.6 270.5L-93.5 270.5 -37.9 230.1ZM17.6 270.5" class="b"/>
    <path d="M-34.9 227.9L55 162.6 33.8 227.9ZM-34.9 227.9" class="b"/>
    <path d="M-36 226.3L53.8 161 -14.8 161ZM-36 226.3" class="b"/>
    <path d="M35 312.4L22 272.5 90 272.5ZM35 312.4" class="a"/>
    <path d="M91.2 274.1L56.9 379.7 35.7 314.4ZM91.2 274.1" class="b"/>
    <path d="M127.4 380.3L93.1 274.7 71.9 340ZM127.4 380.3" class="b"/>
    <path d="M33.1 313.1L20.1 273.1 -34.9 313.1ZM33.1 313.1" class="a"/>
    <path d="M17.6 272.5L-93.5 272.5 -37.9 312.8ZM17.6 272.5" class="b"/>
    <path d="M-34.9 315.1L55 380.3 33.8 315.1ZM-34.9 315.1" class="b"/>
    <path d="M281.4 270.5L268.4 230.5 213.4 270.5ZM281.4 270.5" class="a"/>
    <path d="M213.4 272.5L303.3 337.8 282.1 272.5ZM213.4 272.5" class="b"/>
    <path d="M283.3 269.9L270.3 229.9 338.3 229.9ZM283.3 269.9" class="a"/>
    <path d="M272 227.9L361.9 162.6 340.7 227.9ZM272 227.9" class="b"/>
    <path d="M339.5 231.5L305.2 337.1 284 271.9ZM339.5 231.5" class="b"/>
    <path d="M384.8 227.9L342.8 227.9 363.8 163.2ZM384.8 227.9" class="a"/>
    <path d="M365.7 162.6L455.5 227.9 386.9 227.9ZM365.7 162.6" class="b"/>
    <path d="M424.1 202.6L458.1 227.3 479.1 162.6ZM424.1 202.6" class="a"/>
    <path d="M460.5 226.3L550.4 161 481.7 161ZM460.5 226.3" class="b"/>
    <path d="M477.9 161L366.9 161 422.4 201.3ZM477.9 161" class="b"/>
    <path d="M384.8 229.9L342.8 229.9 363.8 294.6ZM384.8 229.9" class="a"/>
    <path d="M341.4 232.1L307.1 337.8 362.6 297.4ZM341.4 232.1" class="b"/>
    <path d="M365.7 295.2L455.5 229.9 386.9 229.9ZM365.7 295.2" class="b"/>
    <path d="M233.2 204.2L267.2 228.9 212.2 268.9ZM233.2 204.2" class="a"/>
    <path d="M210.3 268.2L176 162.6 231.5 203ZM210.3 268.2" class="b"/>
    <path d="M186.6 201.6L173.6 161.6 118.6 201.6ZM186.6 201.6" class="a"/>
    <path d="M171 161L60 161 115.5 201.3ZM171 161" class="b"/>
    <path d="M118.6 203.6L208.4 268.9 187.2 203.6ZM118.6 203.6" class="b"/>
    <path d="M234.4 202.6L268.4 227.3 289.4 162.6ZM234.4 202.6" class="a"/>
    <path d="M270.8 226.3L360.7 161 292.1 161ZM270.8 226.3" class="b"/>
    <path d="M288.3 161L177.2 161 232.7 201.3ZM288.3 161" class="b"/>
    <path d="M-36 3.3L53.8-62 -14.8-62ZM-36 3.3" class="b"/>
    <path d="M436.8 20.6L423.8-19.4 491.8-19.4ZM436.8 20.6" class="a"/>
    <path d="M492.9-17.8L458.6 87.9 437.4 22.6ZM492.9-17.8" class="b"/>
    <path d="M473 50.1L460 90.1 528 90.1ZM473 50.1" class="a"/>
    <path d="M461.7 92.1L551.5 157.4 530.3 92.1ZM461.7 92.1" class="b"/>
    <path d="M529.2 88.5L494.8-17.1 473.6 48.1ZM529.2 88.5" class="b"/>
    <path d="M434.8 21.2L421.9-18.8 366.9 21.2ZM434.8 21.2" class="a"/>
    <path d="M419.3-19.4L308.2-19.4 363.8 21ZM419.3-19.4" class="b"/>
    <path d="M366.9 23.2L456.7 88.5 435.5 23.2ZM366.9 23.2" class="b"/>
    <path d="M555.1 22.2L589.1 46.9 610.2-17.8ZM555.1 22.2" class="a"/>
    <path d="M609-19.4L497.9-19.4 553.4 21ZM609-19.4" class="b"/>
    <path d="M554 23.8L588 48.5 533 88.5ZM554 23.8" class="a"/>
    <path d="M587.8 51.1L553.4 156.8 532.2 91.5ZM587.8 51.1" class="b"/>
    <path d="M531.1 87.9L496.7-17.8 552.3 22.6ZM531.1 87.9" class="b"/>
    <path d="M633.1 47.5L591 47.5 612.1-17.1ZM633.1 47.5" class="a"/>
    <path d="M614-17.8L703.8 47.5 635.2 47.5ZM614-17.8" class="b"/>
    <path d="M672.4 22.2L706.4 46.9 727.4-17.8ZM672.4 22.2" class="a"/>
    <path d="M708.8 45.9L798.6-19.4 730-19.4ZM708.8 45.9" class="b"/>
    <path d="M726.2-19.4L615.1-19.4 670.7 21ZM726.2-19.4" class="b"/>
    <path d="M633.1 49.5L591 49.5 612.1 114.2ZM633.1 49.5" class="a"/>
    <path d="M589.7 51.8L555.3 157.4 610.9 117ZM589.7 51.8" class="b"/>
    <path d="M614 114.8L703.8 49.5 635.2 49.5ZM614 114.8" class="b"/>
    <path d="M778 49.5L765 89.5 710 49.5ZM778 49.5" class="a"/>
    <path d="M710 47.5L799.8-17.8 778.6 47.5ZM710 47.5" class="b"/>
    <path d="M779.9 50.1L766.9 90.1 834.9 90.1ZM779.9 50.1" class="a"/>
    <path d="M768.6 92.1L858.4 157.4 837.2 92.1ZM768.6 92.1" class="b"/>
    <path d="M836 88.5L801.7-17.1 780.5 48.1ZM836 88.5" class="b"/>
    <path d="M881.3 92.1L839.3 92.1 860.3 156.8ZM881.3 92.1" class="a"/>
    <path d="M862.2 157.4L952.1 92.1 883.4 92.1ZM862.2 157.4" class="b"/>
    <path d="M920.6 117.4L954.6 92.7 975.7 157.4ZM920.6 117.4" class="a"/>
    <path d="M957.1 93.7L1046.9 159 978.3 159ZM957.1 93.7" class="b"/>
    <path d="M974.5 159L863.4 159 918.9 118.7ZM974.5 159" class="b"/>
    <path d="M881.3 90.1L839.3 90.1 860.3 25.4ZM881.3 90.1" class="a"/>
    <path d="M837.9 87.9L803.6-17.8 859.2 22.6ZM837.9 87.9" class="b"/>
    <path d="M862.2 24.8L952.1 90.1 883.4 90.1ZM862.2 24.8" class="b"/>
    <path d="M729.8 115.8L763.8 91.1 708.8 51.1ZM729.8 115.8" class="a"/>
    <path d="M706.9 51.8L672.6 157.4 728.1 117ZM706.9 51.8" class="b"/>
    <path d="M683.1 118.4L670.1 158.4 615.1 118.4ZM683.1 118.4" class="a"/>
    <path d="M667.6 159L556.5 159 612.1 118.7ZM667.6 159" class="b"/>
    <path d="M615.1 116.4L705 51.1 683.8 116.4ZM615.1 116.4" class="b"/>
    <path d="M731 117.4L765 92.7 786 157.4ZM731 117.4" class="a"/>
    <path d="M767.4 93.7L857.3 159 788.6 159ZM767.4 93.7" class="b"/>
    <path d="M784.8 159L673.7 159 729.3 118.7ZM784.8 159" class="b"/>
    <path d="M231.3-19.4L189.3-19.4 210.3 45.3ZM231.3-19.4" class="a"/>
    <path d="M212.2 45.9L302.1-19.4 233.4-19.4ZM212.2 45.9" class="b"/>
    <path d="M153.4 5.9L187.4-18.8 208.4 45.9ZM153.4 5.9" class="a"/>
    <path d="M207.3 47.5L96.2 47.5 151.7 7.2ZM207.3 47.5" class="b"/>
    <path d="M136.5 49.5L94.5 49.5 115.5 114.2ZM136.5 49.5" class="a"/>
    <path d="M93.1 51.8L58.8 157.4 114.3 117ZM93.1 51.8" class="b"/>
    <path d="M117.4 114.8L207.3 49.5 138.6 49.5ZM117.4 114.8" class="b"/>
    <path d="M152.2 4.3L186.2-20.4 131.2-60.3ZM152.2 4.3" class="a"/>
    <path d="M129.3-59.7L95 45.9 150.5 5.6ZM129.3-59.7" class="b"/>
    <path d="M35 89.5L22 49.5 90 49.5ZM35 89.5" class="a"/>
    <path d="M91.2 51.1L56.9 156.8 35.7 91.5ZM91.2 51.1" class="b"/>
    <path d="M33.1 90.1L20.1 50.1 -34.9 90.1ZM33.1 90.1" class="a"/>
    <path d="M17.6 49.5L-93.5 49.5 -37.9 89.9ZM17.6 49.5" class="b"/>
    <path d="M-34.9 92.1L55 157.4 33.8 92.1ZM-34.9 92.1" class="b"/>
    <path d="M-36 93.7L53.8 159 -14.8 159ZM-36 93.7" class="b"/>
    <path d="M35 7.6L22 47.5 90 47.5ZM35 7.6" class="a"/>
    <path d="M91.2 45.9L56.9-59.7 35.7 5.6ZM91.2 45.9" class="b"/>
    <path d="M127.4-60.3L93.1 45.3 71.9-20ZM127.4-60.3" class="b"/>
    <path d="M33.1 6.9L20.1 46.9 -34.9 6.9ZM33.1 6.9" class="a"/>
    <path d="M17.6 47.5L-93.5 47.5 -37.9 7.2ZM17.6 47.5" class="b"/>
    <path d="M-34.9 4.9L55-60.3 33.8 4.9ZM-34.9 4.9" class="b"/>
    <path d="M281.4 49.5L268.4 89.5 213.4 49.5ZM281.4 49.5" class="a"/>
    <path d="M213.4 47.5L303.3-17.8 282.1 47.5ZM213.4 47.5" class="b"/>
    <path d="M283.3 50.1L270.3 90.1 338.3 90.1ZM283.3 50.1" class="a"/>
    <path d="M272 92.1L361.9 157.4 340.7 92.1ZM272 92.1" class="b"/>
    <path d="M339.5 88.5L305.2-17.1 284 48.1ZM339.5 88.5" class="b"/>
    <path d="M384.8 92.1L342.8 92.1 363.8 156.8ZM384.8 92.1" class="a"/>
    <path d="M365.7 157.4L455.5 92.1 386.9 92.1ZM365.7 157.4" class="b"/>
    <path d="M424.1 117.4L458.1 92.7 479.1 157.4ZM424.1 117.4" class="a"/>
    <path d="M460.5 93.7L550.4 159 481.7 159ZM460.5 93.7" class="b"/>
    <path d="M477.9 159L366.9 159 422.4 118.7ZM477.9 159" class="b"/>
    <path d="M384.8 90.1L342.8 90.1 363.8 25.4ZM384.8 90.1" class="a"/>
    <path d="M341.4 87.9L307.1-17.8 362.6 22.6ZM341.4 87.9" class="b"/>
    <path d="M365.7 24.8L455.5 90.1 386.9 90.1ZM365.7 24.8" class="b"/>
    <path d="M233.2 115.8L267.2 91.1 212.2 51.1ZM233.2 115.8" class="a"/>
    <path d="M210.3 51.8L176 157.4 231.5 117ZM210.3 51.8" class="b"/>
    <path d="M186.6 118.4L173.6 158.4 118.6 118.4ZM186.6 118.4" class="a"/>
    <path d="M171 159L60 159 115.5 118.7ZM171 159" class="b"/>
    <path d="M118.6 116.4L208.4 51.1 187.2 116.4ZM118.6 116.4" class="b"/>
    <path d="M234.4 117.4L268.4 92.7 289.4 157.4ZM234.4 117.4" class="a"/>
    <path d="M270.8 93.7L360.7 159 292.1 159ZM270.8 93.7" class="b"/>
    <path d="M288.3 159L177.2 159 232.7 118.7ZM288.3 159" class="b"/>
    <path d="M933.3 20.6L920.3-19.4 988.3-19.4ZM933.3 20.6" class="a"/>
    <path d="M989.5-17.8L955.2 87.9 934 22.6ZM989.5-17.8" class="b"/>
    <path d="M969.5 50.1L956.5 90.1 1024.5 90.1ZM969.5 50.1" class="a"/>
    <path d="M958.2 92.1L1048.1 157.4 1026.9 92.1ZM958.2 92.1" class="b"/>
    <path d="M1025.7 88.5L991.4-17.1 970.2 48.1ZM1025.7 88.5" class="b"/>
    <path d="M931.4 21.2L918.4-18.8 863.4 21.2ZM931.4 21.2" class="a"/>
    <path d="M915.9-19.4L804.8-19.4 860.3 21ZM915.9-19.4" class="b"/>
    <path d="M863.4 23.2L953.3 88.5 932.1 23.2ZM863.4 23.2" class="b"/>
    <path d="M994.5-19.4L1084.3 45.9 1063.1-19.4ZM994.5-19.4" class="b"/>
    <path d="M1050.5 23.8L1084.5 48.5 1029.5 88.5ZM1050.5 23.8" class="a"/>
    <path d="M1084.3 51.1L1050 156.8 1028.8 91.5ZM1084.3 51.1" class="b"/>
    <path d="M1027.6 87.9L993.3-17.8 1048.8 22.6ZM1027.6 87.9" class="b"/>
    <path d="M1120.5-60.3L1086.2 45.3 1065-20ZM1120.5-60.3" class="b"/>
    <path d="M1237.8-60.3L1203.4 45.3 1182.2-20ZM1237.8-60.3" class="b"/>
    <path d="M1146.5 5.9L1180.5-18.8 1201.5 45.9ZM1146.5 5.9" class="a"/>
    <path d="M1200.4 47.5L1089.3 47.5 1144.8 7.2ZM1200.4 47.5" class="b"/>
    <path d="M1129.6 49.5L1087.6 49.5 1108.6 114.2ZM1129.6 49.5" class="a"/>
    <path d="M1086.2 51.8L1051.9 157.4 1107.4 117ZM1086.2 51.8" class="b"/>
    <path d="M1110.5 114.8L1200.4 49.5 1131.7 49.5ZM1110.5 114.8" class="b"/>
    <path d="M1145.4 4.3L1179.4-20.4 1124.3-60.3ZM1145.4 4.3" class="a"/>
    <path d="M1122.4-59.7L1088.1 45.9 1143.7 5.6ZM1122.4-59.7" class="b"/>
    <path d="M1283.1-62L1241-62 1262.1 2.7ZM1283.1-62" class="a"/>
    <path d="M1239.7-59.7L1205.3 45.9 1260.9 5.6ZM1239.7-59.7" class="b"/>
    <path d="M1264 3.3L1353.8-62 1285.2-62ZM1264 3.3" class="b"/>
    <path d="M2027.9-19.4L1985.9-19.4 2006.9 45.3ZM2027.9-19.4" class="a"/>
    <path d="M2008.8 45.9L2098.6-19.4 2030-19.4ZM2008.8 45.9" class="b"/>
    <path d="M1950 5.9L1984-18.8 2005 45.9ZM1950 5.9" class="a"/>
    <path d="M2003.8 47.5L1892.7 47.5 1948.3 7.2ZM2003.8 47.5" class="b"/>
    <path d="M1933.1 49.5L1891 49.5 1912.1 114.2ZM1933.1 49.5" class="a"/>
    <path d="M1889.7 51.8L1855.3 157.4 1910.9 117ZM1889.7 51.8" class="b"/>
    <path d="M1914 114.8L2003.8 49.5 1935.2 49.5ZM1914 114.8" class="b"/>
    <path d="M1948.8 4.3L1982.8-20.4 1927.8-60.3ZM1948.8 4.3" class="a"/>
    <path d="M1925.9-59.7L1891.6 45.9 1947.1 5.6ZM1925.9-59.7" class="b"/>
    <path d="M2078 49.5L2065 89.5 2010 49.5ZM2078 49.5" class="a"/>
    <path d="M2010 47.5L2099.8-17.8 2078.6 47.5ZM2010 47.5" class="b"/>
    <path d="M2079.9 50.1L2066.9 90.1 2134.9 90.1ZM2079.9 50.1" class="a"/>
    <path d="M2068.6 92.1L2158.4 157.4 2137.2 92.1ZM2068.6 92.1" class="b"/>
    <path d="M2136 88.5L2101.7-17.1 2080.5 48.1ZM2136 88.5" class="b"/>
    <path d="M2029.8 115.8L2063.8 91.1 2008.8 51.1ZM2029.8 115.8" class="a"/>
    <path d="M2006.9 51.8L1972.6 157.4 2028.1 117ZM2006.9 51.8" class="b"/>
    <path d="M1983.1 118.4L1970.1 158.4 1915.1 118.4ZM1983.1 118.4" class="a"/>
    <path d="M1967.6 159L1856.5 159 1912.1 118.7ZM1967.6 159" class="b"/>
    <path d="M1915.1 116.4L2005 51.1 1983.8 116.4ZM1915.1 116.4" class="b"/>
    <path d="M2031 117.4L2065 92.7 2086 157.4ZM2031 117.4" class="a"/>
    <path d="M2067.4 93.7L2157.3 159 2088.6 159ZM2067.4 93.7" class="b"/>
    <path d="M2084.8 159L1973.7 159 2029.3 118.7ZM2084.8 159" class="b"/>
    <path d="M1797.9-19.4L1887.8 45.9 1866.6-19.4ZM1797.9-19.4" class="b"/>
    <path d="M1854 23.8L1888 48.5 1833 88.5ZM1854 23.8" class="a"/>
    <path d="M1887.8 51.1L1853.4 156.8 1832.2 91.5ZM1887.8 51.1" class="b"/>
    <path d="M1831.1 87.9L1796.7-17.8 1852.3 22.6ZM1831.1 87.9" class="b"/>
    <path d="M1924-60.3L1889.7 45.3 1868.5-20ZM1924-60.3" class="b"/>
    <path d="M1736.8 20.6L1723.8-19.4 1791.8-19.4ZM1736.8 20.6" class="a"/>
    <path d="M1792.9-17.8L1758.6 87.9 1737.4 22.6ZM1792.9-17.8" class="b"/>
    <path d="M1773 50.1L1760 90.1 1828 90.1ZM1773 50.1" class="a"/>
    <path d="M1761.7 92.1L1851.5 157.4 1830.3 92.1ZM1761.7 92.1" class="b"/>
    <path d="M1829.2 88.5L1794.8-17.1 1773.6 48.1ZM1829.2 88.5" class="b"/>
    <path d="M1734.8 21.2L1721.9-18.8 1666.9 21.2ZM1734.8 21.2" class="a"/>
    <path d="M1719.3-19.4L1608.2-19.4 1663.8 21ZM1719.3-19.4" class="b"/>
    <path d="M1666.9 23.2L1756.7 88.5 1735.5 23.2ZM1666.9 23.2" class="b"/>
    <path d="M1531.3-19.4L1489.3-19.4 1510.3 45.3ZM1531.3-19.4" class="a"/>
    <path d="M1512.2 45.9L1602.1-19.4 1533.4-19.4ZM1512.2 45.9" class="b"/>
    <path d="M1453.4 5.9L1487.4-18.8 1508.4 45.9ZM1453.4 5.9" class="a"/>
    <path d="M1507.3 47.5L1396.2 47.5 1451.7 7.2ZM1507.3 47.5" class="b"/>
    <path d="M1436.5 49.5L1394.5 49.5 1415.5 114.2ZM1436.5 49.5" class="a"/>
    <path d="M1393.1 51.8L1358.8 157.4 1414.3 117ZM1393.1 51.8" class="b"/>
    <path d="M1417.4 114.8L1507.3 49.5 1438.6 49.5ZM1417.4 114.8" class="b"/>
    <path d="M1452.2 4.3L1486.2-20.4 1431.2-60.3ZM1452.2 4.3" class="a"/>
    <path d="M1429.3-59.7L1395 45.9 1450.5 5.6ZM1429.3-59.7" class="b"/>
    <path d="M1335 89.5L1322 49.5 1390 49.5ZM1335 89.5" class="a"/>
    <path d="M1391.2 51.1L1356.9 156.8 1335.7 91.5ZM1391.2 51.1" class="b"/>
    <path d="M1333.1 90.1L1320.1 50.1 1265.1 90.1ZM1333.1 90.1" class="a"/>
    <path d="M1317.6 49.5L1206.5 49.5 1262.1 89.9ZM1317.6 49.5" class="b"/>
    <path d="M1265.1 92.1L1355 157.4 1333.8 92.1ZM1265.1 92.1" class="b"/>
    <path d="M1226.4 115.8L1260.4 91.1 1205.3 51.1ZM1226.4 115.8" class="a"/>
    <path d="M1203.4 51.8L1169.1 157.4 1224.7 117ZM1203.4 51.8" class="b"/>
    <path d="M1179.7 118.4L1166.7 158.4 1111.7 118.4ZM1179.7 118.4" class="a"/>
    <path d="M1164.1 159L1053.1 159 1108.6 118.7ZM1164.1 159" class="b"/>
    <path d="M1111.7 116.4L1201.5 51.1 1180.3 116.4ZM1111.7 116.4" class="b"/>
    <path d="M1227.5 117.4L1261.5 92.7 1282.5 157.4ZM1227.5 117.4" class="a"/>
    <path d="M1264 93.7L1353.8 159 1285.2 159ZM1264 93.7" class="b"/>
    <path d="M1281.4 159L1170.3 159 1225.8 118.7ZM1281.4 159" class="b"/>
    <path d="M1335 7.6L1322 47.5 1390 47.5ZM1335 7.6" class="a"/>
    <path d="M1391.2 45.9L1356.9-59.7 1335.7 5.6ZM1391.2 45.9" class="b"/>
    <path d="M1427.4-60.3L1393.1 45.3 1371.9-20ZM1427.4-60.3" class="b"/>
    <path d="M1333.1 6.9L1320.1 46.9 1265.1 6.9ZM1333.1 6.9" class="a"/>
    <path d="M1317.6 47.5L1206.5 47.5 1262.1 7.2ZM1317.6 47.5" class="b"/>
    <path d="M1265.1 4.9L1355-60.3 1333.8 4.9ZM1265.1 4.9" class="b"/>
    <path d="M1581.4 49.5L1568.4 89.5 1513.4 49.5ZM1581.4 49.5" class="a"/>
    <path d="M1513.4 47.5L1603.3-17.8 1582.1 47.5ZM1513.4 47.5" class="b"/>
    <path d="M1583.3 50.1L1570.3 90.1 1638.3 90.1ZM1583.3 50.1" class="a"/>
    <path d="M1572 92.1L1661.9 157.4 1640.7 92.1ZM1572 92.1" class="b"/>
    <path d="M1639.5 88.5L1605.2-17.1 1584 48.1ZM1639.5 88.5" class="b"/>
    <path d="M1684.8 92.1L1642.8 92.1 1663.8 156.8ZM1684.8 92.1" class="a"/>
    <path d="M1665.7 157.4L1755.5 92.1 1686.9 92.1ZM1665.7 157.4" class="b"/>
    <path d="M1724.1 117.4L1758.1 92.7 1779.1 157.4ZM1724.1 117.4" class="a"/>
    <path d="M1760.5 93.7L1850.4 159 1781.7 159ZM1760.5 93.7" class="b"/>
    <path d="M1777.9 159L1666.9 159 1722.4 118.7ZM1777.9 159" class="b"/>
    <path d="M1684.8 90.1L1642.8 90.1 1663.8 25.4ZM1684.8 90.1" class="a"/>
    <path d="M1641.4 87.9L1607.1-17.8 1662.6 22.6ZM1641.4 87.9" class="b"/>
    <path d="M1665.7 24.8L1755.5 90.1 1686.9 90.1ZM1665.7 24.8" class="b"/>
    <path d="M1533.2 115.8L1567.2 91.1 1512.2 51.1ZM1533.2 115.8" class="a"/>
    <path d="M1510.3 51.8L1476 157.4 1531.5 117ZM1510.3 51.8" class="b"/>
    <path d="M1486.6 118.4L1473.6 158.4 1418.6 118.4ZM1486.6 118.4" class="a"/>
    <path d="M1471 159L1360 159 1415.5 118.7ZM1471 159" class="b"/>
    <path d="M1418.6 116.4L1508.4 51.1 1487.2 116.4ZM1418.6 116.4" class="b"/>
    <path d="M1534.4 117.4L1568.4 92.7 1589.4 157.4ZM1534.4 117.4" class="a"/>
    <path d="M1570.8 93.7L1660.7 159 1592.1 159ZM1570.8 93.7" class="b"/>
    <path d="M1588.3 159L1477.2 159 1532.7 118.7ZM1588.3 159" class="b"/>
</svg>
