<svg xmlns="http://www.w3.org/2000/svg" width="2800" height="350pt" viewBox="0 0 2100 350"><path fill="#1a1a33" d="M0 0h2100v350H0z"/><path d="M-10.074 241.332l-.848-78.062L.957 204" fill="#9558b2" fill-opacity=".7"/><path d="M-10.234 250.871l27.023 39.137-34.477 51.25" fill="#4063d8" fill-opacity=".7"/><path d="M17.559 292.445l17.035 70.98-52.051-18.929" fill="#389826" fill-opacity=".7"/><path d="M35.496 358.61l-16.25-67.712 21.664-1.804" fill="#9558b2" fill-opacity=".7"/><path d="M-11.148 154.625l-3.707-33.383 62.128 12.055" fill="#389826" fill-opacity=".7"/><path d="M2.676 20.645l52.398 34.62-60.816 5.614" fill="#9558b2" fill-opacity=".7"/><path d="M57 1.395V54.14L4.254 19.293" fill="#cb3c33" fill-opacity=".7"/><path d="M2.688 202.79l-13.114-44.97 67.45 30.918" fill="#4063d8" fill-opacity=".7"/><path d="M50.203 134.355l8.512 52.958-68.086-31.208M-6.242 63.645L58.34 103.53l-73.13 15.196" fill="#cb3c33" fill-opacity=".7"/><path d="M50.336 131.852l-61.258-11.887 70.402-14.63" fill="#4063d8" fill-opacity=".7"/><path d="M57.066 57.09l2.817 45.043-63.813-39.41" fill="#389826" fill-opacity=".7"/><path d="M2.46 205.973l55.427 60.125-67.64-18.79M41.54 287.035l-18.575 1.547 33.273-17.023" fill="#cb3c33" fill-opacity=".7"/><path d="M18.324 288.71l-26.933-39.007 66.87 18.574" fill="#389826" fill-opacity=".7"/><path d="M59.625 190.129l18.05 22.566-70.398-9.027" fill="#cb3c33" fill-opacity=".7"/><path d="M60.61 266.102L4.597 205.34l74.047 9.496" fill="#389826" fill-opacity=".7"/><path d="M79.68 217.93l2.27 12.879-16.669 28.03" fill="#4063d8" fill-opacity=".7"/><path d="M59 52.844V1.46l28.445 11.008M42.766 291.059l48.347 75.84-54.035-2.844" fill="#389826" fill-opacity=".7"/><path d="M88.988 13.754l11.575 16.914L61.39 52.922" fill="#cb3c33" fill-opacity=".7"/><path d="M61.938 102.941l-2.79-44.593 47.38 41.804" fill="#9558b2" fill-opacity=".7"/><path d="M101.156 32.629l6.594 65.937-48.04-42.39" fill="#4063d8" fill-opacity=".7"/><path d="M79.707 212.031l-18.36-22.949 44.981-44.066" fill="#9558b2" fill-opacity=".7"/><path d="M60.68 186.934l-8.477-52.758 54.64 7.535" fill="#389826" fill-opacity=".7"/><path d="M61.492 105.64l43.918 33.856-53.066-7.32" fill="#9558b2" fill-opacity=".7"/><path d="M108 102.063v36.902l-44.281-34.133" fill="#4063d8" fill-opacity=".7"/><path d="M61.207 269.234l48.578 25.188-65.672-7.195" fill="#389826" fill-opacity=".7"/><path d="M92.676 365.633l-48.711-76.41 69.726 7.64" fill="#4063d8" fill-opacity=".7"/><path d="M83.762 229.563l-2.586-14.653 43.101-3.45" fill="#cb3c33" fill-opacity=".7"/><path d="M108.875 144.023l19.805 65.079-47.157 3.773" fill="#389826" fill-opacity=".7"/><path d="M83.273 232.496l45.758 36.418-66.3-1.867" fill="#cb3c33" fill-opacity=".7"/><path d="M114.656 294.695l-49.32-25.574 64.848 1.828" fill="#9558b2" fill-opacity=".7"/><path d="M129.05 211.52l1.88 56.347-46.02-36.625" fill="#389826" fill-opacity=".7"/><path d="M115.168 298.875l19.55 44.695-40.034 22.344" fill="#9558b2" fill-opacity=".7"/><path d="M129.71 205.61l-19.46-63.934 31.504-9.266" fill="#cb3c33" fill-opacity=".7"/><path d="M110 139.664v-36.45l30.98 27.337M109.809 99.035l-6.579-65.797 44.176 34.782" fill="#389826" fill-opacity=".7"/><path d="M142.566 129.285L112.86 103.07l35.825 9.614" fill="#cb3c33" fill-opacity=".7"/><path d="M148.047 70.082l.922 40.606-37.836-10.153" fill="#4063d8" fill-opacity=".7"/><path d="M89.023 10.938L62.293.59l80.191-7.762M148.05 65.98l-44.452-34.996 46.347-37.832" fill="#cb3c33" fill-opacity=".7"/><path d="M102.21 29.535L90.57 12.523 146.086-6.28" fill="#389826" fill-opacity=".7"/><path d="M132.414 271.191l29.274 9.758-44.352 13.305" fill="#4063d8" fill-opacity=".7"/><path d="M136.023 341.559l-19.656-44.926 46.797-14.04" fill="#389826" fill-opacity=".7"/><path d="M132.977 269.27l-1.825-54.668 31.891 64.691" fill="#cb3c33" fill-opacity=".7"/><path d="M143.742 132.64l34.719 21.583-46.914 52.547" fill="#389826" fill-opacity=".7"/><path d="M151.93-6.348l35.644 42.207-37.52 30.016M150.656 113.105l35.438 5.188-41.485 11.234" fill="#9558b2" fill-opacity=".7"/><path d="M179.422 152.465l-33.942-21.102 44.036-11.925" fill="#cb3c33" fill-opacity=".7"/><path d="M150.98 111.133l-.917-40.313 38.48 45.809" fill="#389826" fill-opacity=".7"/><path d="M188.05 38.043l1.88 77.129-39.504-47.031" fill="#cb3c33" fill-opacity=".7"/><path d="M136.293 344.98l47.91-3.3-83.433 23.129" fill="#389826" fill-opacity=".7"/><path d="M165.031 283.328l27.414 55.777-54.832 3.782" fill="#9558b2" fill-opacity=".7"/><path d="M188.559 33.926L153.457-7.637l45.262 6.465M165.621 280l-31.988-64.89L197.609 280" fill="#4063d8" fill-opacity=".7"/><path d="M193.36 336.426L166.604 282h32.29M179.93 155.582l21.453 28.914-68.094 23.32M199.328 278.895l-65.504-66.442 72.055 26.203" fill="#cb3c33" fill-opacity=".7"/><path d="M202.102 186.363l3.785 50.168-72.883-26.504M207.863 238.93l31.672-2.715-38.008 41.629" fill="#389826" fill-opacity=".7"/><path d="M207.922 236.918l-3.676-48.695 35.832 45.937" fill="#cb3c33" fill-opacity=".7"/><path d="M191.621 119.39l50.031 23.16-60.222 10.192" fill="#4063d8" fill-opacity=".7"/><path d="M203.113 183.473l-21.34-28.758 60.305-10.207M200.836 282.652l43.223 25.368-48.86 30.066" fill="#9558b2" fill-opacity=".7"/><path d="M241.133 237.434l3.765 68.761-43.328-25.433" fill="#4063d8" fill-opacity=".7"/><path d="M191.93 115.066l-1.907-78.05 59.016.953" fill="#389826" fill-opacity=".7"/><path d="M200.555-.316l47.425 36.27-57.656-.934M244.508 141.668l-49.867-23.082 63.714-7.39" fill="#cb3c33" fill-opacity=".7"/><path d="M250.313 39.605l8.57 69.516-65.707 7.621M241.848 233.18l-36.352-46.606 54.992 12.117" fill="#9558b2" fill-opacity=".7"/><path d="M244.535 144.879l16.004 51.773-55.543-12.234M250.508 35.367l-48.02-36.722 64.028-9.415" fill="#389826" fill-opacity=".7"/><path d="M245.672 309.375l22.43 36.445-71.024-6.539M259.934 112.563l20.03 50.996-33.69-20.946" fill="#4063d8" fill-opacity=".7"/><path d="M262.309 195.617l-15.563-50.355 33.875 21.058" fill="#cb3c33" fill-opacity=".7"/><path d="M246.871 305.64l-3.77-68.82 44.31 26.395" fill="#389826" fill-opacity=".7"/><path d="M261.883 200.32l25.035 60.278-43.582-25.965" fill="#4063d8" fill-opacity=".7"/><path d="M270.023 345.129l-22.253-36.164 46.363-.926" fill="#9558b2" fill-opacity=".7"/><path d="M288.328 265.148l6.504 40.875-46.45.93" fill="#cb3c33" fill-opacity=".7"/><path d="M282.184 167.598l15.043 15.043-32.743 13.273" fill="#9558b2" fill-opacity=".7"/><path d="M288.477 259.133l-25.168-60.586 34.488-13.98M260.867 108.867l-8.422-68.316 47.727 62.699" fill="#cb3c33" fill-opacity=".7"/><path d="M281.906 163.031l-20.511-52.219 39.164-5.597" fill="#9558b2" fill-opacity=".7"/><path d="M194.016 341.035l112.488 27.887-206.387-1.86" fill="#cb3c33" fill-opacity=".7"/><path d="M269.715 347.977l37.101 18.964-99.761-24.734" fill="#9558b2" fill-opacity=".7"/><path d="M295.664 309.352l17.7 58.691-41.923-21.43" fill="#389826" fill-opacity=".7"/><path d="M268.457-10.266l48.063 42.41-64.086 3.77" fill="#4063d8" fill-opacity=".7"/><path d="M311.145-16.875l6.5 47.344L270.3-11.305" fill="#9558b2" fill-opacity=".7"/><path d="M301.52 101.715l-48.586-63.828 64.78-3.809M298.797 181.383l-15.262-15.262 43.102-31.43" fill="#389826" fill-opacity=".7"/><path d="M302.46 105.832l25.99 25.063-44.555 32.484" fill="#4063d8" fill-opacity=".7"/><path d="M329 134.629v60.82l-28.566-12.898" fill="#cb3c33" fill-opacity=".7"/><path d="M299.645 185.902l31.96 50.762-41.359 24.438" fill="#389826" fill-opacity=".7"/><path d="M329.047 197.668l2.656 35.394-30.086-47.785" fill="#4063d8" fill-opacity=".7"/><path d="M319.543 35.023l17.168 18.07-32.527 46.079" fill="#cb3c33" fill-opacity=".7"/><path d="M337.254 50.762l-16.984-17.88 23.242-35.757" fill="#9558b2" fill-opacity=".7"/><path d="M319.625 30.203l-6.414-46.746 30.246 10.082" fill="#389826" fill-opacity=".7"/><path d="M315.71 368.898L298.13 310.59l52.75 53.68" fill="#9558b2" fill-opacity=".7"/><path d="M330.223 129.824l-24.766-23.879 50.418 13.266" fill="#cb3c33" fill-opacity=".7"/><path d="M337.656 55.219l19.84 62.351-53.848-14.172" fill="#9558b2" fill-opacity=".7"/><path d="M296.813 305.75l-6.57-41.309 74.167 23.473" fill="#389826" fill-opacity=".7"/><path d="M332.703 238.336l32.828 47.832-74.094-23.445M352.383 362.945l-54.461-55.418 68.793-18.152" fill="#cb3c33" fill-opacity=".7"/><path d="M345.871-5.828l36.219 6.5-42.723 49.226" fill="#389826" fill-opacity=".7"/><path d="M331 195.406v-62.668l58.871 34.18" fill="#9558b2" fill-opacity=".7"/><path d="M358.633 120.234l30.023 43.668-56.406-32.75M359.3 116.648l-19.855-62.406 53.899 8.508" fill="#389826" fill-opacity=".7"/><path d="M383.383 2.238l10.387 58.555-53.832-8.5M333.875 235.293l-2.797-37.309 65.285-.933" fill="#cb3c33" fill-opacity=".7"/><path d="M391.355 168.422l7.336 26.598-64.195.917" fill="#4063d8" fill-opacity=".7"/><path d="M391.68 164.766l-30.938-44.996 47.809-6.563" fill="#cb3c33" fill-opacity=".7"/><path d="M394.672 64.39l14.035 46.778-47.715 6.55" fill="#9558b2" fill-opacity=".7"/><path d="M368.746 289.406l39.527 16.942-53.644 55.527" fill="#389826" fill-opacity=".7"/><path d="M408.016 357.113l-52.329 6.543 53.266-55.133" fill="#cb3c33" fill-opacity=".7"/><path d="M368.234 286.574L335.18 238.41l78.386 14.164" fill="#4063d8" fill-opacity=".7"/><path d="M399.398 197.54l15.2 53.19-78.836-14.246M409.156 304.55l-39.172-16.788 44.766-33.575" fill="#9558b2" fill-opacity=".7"/><path d="M400.367 193.57l-7.187-26.058 35.945-18.871" fill="#cb3c33" fill-opacity=".7"/><path d="M410.297 114.3l20.27 31.325-36.848 19.344" fill="#4063d8" fill-opacity=".7"/><path d="M416.129 248.809l-14.7-51.446 31.235 7.352" fill="#389826" fill-opacity=".7"/><path d="M431.11 149.242l1.847 53.485-31.355-7.375" fill="#9558b2" fill-opacity=".7"/><path d="M395.617 59.746l-10.363-58.41 49.93 12.246" fill="#4063d8" fill-opacity=".7"/><path d="M410.281 109.457L396.29 62.82l43.84-6.53" fill="#389826" fill-opacity=".7"/><path d="M436.277 15.379l4.614 38.773-43.387 6.465" fill="#9558b2" fill-opacity=".7"/><path d="M416.684 254.91l24.796 38.578-30.308 11.024" fill="#cb3c33" fill-opacity=".7"/><path d="M410.953 308.54l36.152 39.862-37.082 8.344" fill="#4063d8" fill-opacity=".7"/><path d="M442.145 295.375l5.527 50.672-35.93-39.617" fill="#389826" fill-opacity=".7"/><path d="M434.316 206.008l21.11 26.617-37.633 17.441" fill="#cb3c33" fill-opacity=".7"/><path d="M442.559 291.46l-25.098-39.034 38.11-17.66" fill="#389826" fill-opacity=".7"/><path d="M432.11 144.328L411.84 113h46.992" fill="#9558b2" fill-opacity=".7"/><path d="M441.766 57.46L459.613 111h-47.906" fill="#cb3c33" fill-opacity=".7"/><path d="M457.195 231.637l-20.57-25.934 42.031 10.73" fill="#9558b2" fill-opacity=".7"/><path d="M434.973 203.215l-1.856-53.88 45.516 65.028" fill="#389826" fill-opacity=".7"/><path d="M442.84 53.586l-4.633-38.898 46.309 22.23" fill="#cb3c33" fill-opacity=".7"/><path d="M457.773 234.098l31.266 3.68-44.14 52.413" fill="#9558b2" fill-opacity=".7"/><path d="M480.61 217.504l8.71 18.293-29.617-3.484" fill="#cb3c33" fill-opacity=".7"/><path d="M449.852 347.582l-5.614-51.45 47.707 34.614" fill="#4063d8" fill-opacity=".7"/><path d="M437.059 11.984L394.023 1.43l95 4.058" fill="#cb3c33" fill-opacity=".7"/><path d="M486.5 35.648l-46-22.078 58.879-7.36" fill="#389826" fill-opacity=".7"/><path d="M461.242 113.258l38.664 20.25-65.36 11.047" fill="#4063d8" fill-opacity=".7"/><path d="M480.59 213.672l-46.863-66.95 67.902-11.476" fill="#cb3c33" fill-opacity=".7"/><path d="M461.64 110.766l-17.785-53.364 61.79 40.258" fill="#9558b2" fill-opacity=".7"/><path d="M486.395 38.32l19.71 57.254-61.945-40.36" fill="#4063d8" fill-opacity=".7"/><path d="M502.203 132.453l-38.558-20.195 43.152-12.856M490.816 238.77l25.586 47.375-71.066 6.632" fill="#389826" fill-opacity=".7"/><path d="M493.668 329.523l-47.934-34.773 70.489-6.578M501.27 6.883l27.418 32.902-40.215-3.656" fill="#cb3c33" fill-opacity=".7"/><path d="M508.074 95.145L488.45 38.137l41.121 3.738" fill="#389826" fill-opacity=".7"/><path d="M508.824 99.34l28.953 9.953-33.476 22.621" fill="#9558b2" fill-opacity=".7"/><path d="M530.508 44.895l8.289 62.632-29.477-10.129" fill="#cb3c33" fill-opacity=".7"/><path d="M503.54 135.852l34.933 32.101-55.707 45.32" fill="#4063d8" fill-opacity=".7"/><path d="M539 110.883v54.84l-34.39-31.602" fill="#389826" fill-opacity=".7"/><path d="M493.89 332.121l46.622 30.164-87.758-13.71" fill="#cb3c33" fill-opacity=".7"/><path d="M517.8 289.453l25.29 72.121-47.77-30.91" fill="#389826" fill-opacity=".7"/><path d="M491.387 235.484l-8.989-18.87 61.11-18.872" fill="#4063d8" fill-opacity=".7"/><path d="M539.508 169.688l8.219 24.66-62.098 19.175M518.293 285.438l-25.16-46.59 55.91 20.5" fill="#cb3c33" fill-opacity=".7"/><path d="M548.059 196.914l1.894 60.637-56.844-20.844M544.77 360.324l-25.325-72.222 40.332 2.816" fill="#9558b2" fill-opacity=".7"/><path d="M550.508 260.73l9.086 28.168-39.074-2.726" fill="#4063d8" fill-opacity=".7"/><path d="M531.215 39.695L503.512 6.453l63.715 11.078" fill="#389826" fill-opacity=".7"/><path d="M500.918 3.996l-97.54-4.168 165.063-10.004" fill="#4063d8" fill-opacity=".7"/><path d="M569.383 15.879L506.309 4.906l74.043-15.539" fill="#cb3c33" fill-opacity=".7"/><path d="M561.758 289.086l-8.746-27.11 36.726 30.61M540.703 106.703l-8.55-64.613 61.761 4.754" fill="#389826" fill-opacity=".7"/><path d="M569.813 18.29l23.777 26.523-59.445-4.575" fill="#cb3c33" fill-opacity=".7"/><path d="M581.75-8.777l12.348 51.156L571.164 16.8" fill="#389826" fill-opacity=".7"/><path d="M551.902 255.813l-1.879-60.024 48.77-11.254" fill="#cb3c33" fill-opacity=".7"/><path d="M549.66 193.82l-8.137-24.418 55.164 13.567" fill="#9558b2" fill-opacity=".7"/><path d="M595.23 48.371l5.668 56.68-58.57 2.836" fill="#4063d8" fill-opacity=".7"/><path d="M561.496 292.434l38.871 54.988-54.039 15.168" fill="#cb3c33" fill-opacity=".7"/><path d="M592.137 294.898l8.16 48.957-37.172-52.582" fill="#9558b2" fill-opacity=".7"/><path d="M600.32 181.805l-56.695-13.946 67.852-22.304" fill="#389826" fill-opacity=".7"/><path d="M541 166.617V110.59l69.324 33.238" fill="#cb3c33" fill-opacity=".7"/><path d="M601.258 107.035l10.16 35.098-67.422-32.324" fill="#389826" fill-opacity=".7"/><path d="M592.871 292.59l-38.832-32.36 61.95 4.622" fill="#cb3c33" fill-opacity=".7"/><path d="M600.516 185.559l16.234 77.343-63.98-4.773" fill="#389826" fill-opacity=".7"/><path d="M613.21 146.719l16.24 33.383-27.067 1.804" fill="#cb3c33" fill-opacity=".7"/><path d="M618.512 261.566l-15.09-71.902 28.402 53.258" fill="#9558b2" fill-opacity=".7"/><path d="M630.035 182.066l1.828 56.676-29.254-54.847" fill="#4063d8" fill-opacity=".7"/><path d="M602.152 348.996l21.028-.617-56.282 10.512" fill="#389826" fill-opacity=".7"/><path d="M602.844 346.977l-8.235-49.407 39.34 48.489M613.41 141.824l-10.168-35.129 47.149-12.941" fill="#cb3c33" fill-opacity=".7"/><path d="M602.879 104.723l-5.645-56.442 53.618 43.27" fill="#389826" fill-opacity=".7"/><path d="M648.086 49.95l3.7 39.784-52.74-42.558" fill="#cb3c33" fill-opacity=".7"/><path d="M618.223 265.297L652 285.379l-56.602 7.305" fill="#389826" fill-opacity=".7"/><path d="M635.602 344.922l-40.696-50.16 58.676-7.57" fill="#4063d8" fill-opacity=".7"/><path d="M632.86 244.918l19.671 38.45-33.086-19.673" fill="#cb3c33" fill-opacity=".7"/><path d="M648.125 47.95l-49.605-2.81L654.676-3.53" fill="#4063d8" fill-opacity=".7"/><path d="M596.586 44.168l-13.29-55.059 70.25 5.696" fill="#cb3c33" fill-opacity=".7"/><path d="M631.52 179.781l-16.407-33.722 50.125 22.785" fill="#389826" fill-opacity=".7"/><path d="M633.867 238.832l-1.844-57.113 34.082-11.055" fill="#9558b2" fill-opacity=".7"/><path d="M656.855-4.793L682.301.66l-31.809 44.527" fill="#cb3c33" fill-opacity=".7"/><path d="M652.863 93.82l30.36 55.028-68.313-5.692" fill="#389826" fill-opacity=".7"/><path d="M667.746 167.785l-49.082-22.308 64.25 5.351" fill="#cb3c33" fill-opacity=".7"/><path d="M653.934 91.23l-3.598-38.648 34.156 47.637" fill="#389826" fill-opacity=".7"/><path d="M684.148 146.387l-29.097-52.742 30.918 9.093" fill="#cb3c33" fill-opacity=".7"/><path d="M655.621 287.371l33.488 14.883-51.164 41.863" fill="#389826" fill-opacity=".7"/><path d="M690.39 300.633l-33.417-14.852 50.125-37.125" fill="#cb3c33" fill-opacity=".7"/><path d="M655.352 284.496l-20.684-40.43 71.453 2.82M668.363 170.566l41.782 33.235-75.012 37.031" fill="#4063d8" fill-opacity=".7"/><path d="M708.07 244.96l-71.101-2.804 73.91-36.488M684.766 151.766l24.316 48.636-39.629-31.523M683.984 1.742l29.188 42.367-62.14 3.766" fill="#389826" fill-opacity=".7"/><path d="M686.84 100.059l-35.973-50.172 62.477-3.785" fill="#cb3c33" fill-opacity=".7"/><path d="M636.031 348.012l66.996 8.48-144.172 5.938" fill="#4063d8" fill-opacity=".7"/><path d="M690.613 303.61l22.766 52.175-74.945-9.484" fill="#9558b2" fill-opacity=".7"/><path d="M712.828 206.438l21.594 24.292-24.293 13.5" fill="#cb3c33" fill-opacity=".7"/><path d="M687.914 104.05l47.629 39.223-49.496 5.602" fill="#389826" fill-opacity=".7"/><path d="M711.934 201.633l-25.399-50.801 49.86-5.644" fill="#cb3c33" fill-opacity=".7"/><path d="M715.32 46.613l23.035 20.274-48.835 32.25" fill="#9558b2" fill-opacity=".7"/><path d="M715.477 355.59l-21.864-50.098 44.633 37.344" fill="#389826" fill-opacity=".7"/><path d="M737.113 141.973l-47.86-39.41 50.677-10.325" fill="#4063d8" fill-opacity=".7"/><path d="M739.074 68.809l.89 21.382-48.105 9.797M739.086 64.863l-22.64-19.922 24.449-25.355" fill="#389826" fill-opacity=".7"/><path d="M715.129 43.426L686.422 1.75l53.71 15.746" fill="#cb3c33" fill-opacity=".7"/><path d="M736.203 229.723l-21.226-23.883 42.457 11.5" fill="#9558b2" fill-opacity=".7"/><path d="M737.832 146.906l20.691 68.656-45.144-12.226" fill="#389826" fill-opacity=".7"/><path d="M709.547 247.563l50.11 33.09-67.126 19.85" fill="#9558b2" fill-opacity=".7"/><path d="M739.54 341.309l-46.47-38.88 67.332-19.913" fill="#cb3c33" fill-opacity=".7"/><path d="M735.586 232.375l23.75 45.668-48.41-31.969" fill="#4063d8" fill-opacity=".7"/><path d="M759.055 218.71l1.808 57.938-23.535-45.265M741.914 88.957l-.883-21.2 39.75-10.597" fill="#cb3c33" fill-opacity=".7"/><path d="M742.914 19.145l40.027 35.37-41.886 11.169" fill="#4063d8" fill-opacity=".7"/><path d="M741.848 15.914L688.762.355l99.765-13.73" fill="#389826" fill-opacity=".7"/><path d="M784.223 52.98l-40.559-35.843 48.106-30.184" fill="#cb3c33" fill-opacity=".7"/><path d="M762.941 279.066l-1.867-59.753 37.344 33.609M762.664 282.121l40.035 6.516-60.52 51.207" fill="#389826" fill-opacity=".7"/><path d="M799.246 254.797l4.57 31.996-39.308-6.398" fill="#4063d8" fill-opacity=".7"/><path d="M741.898 92.855l67.118 47.266-69.953 2.836" fill="#389826" fill-opacity=".7"/><path d="M760.355 214.71l-21.027-69.765 70.723-2.867M799.543 251.246l-36.879-33.195 47.945.922" fill="#cb3c33" fill-opacity=".7"/><path d="M811 144.234v72.746l-49.129-.945" fill="#389826" fill-opacity=".7"/><path d="M740.2 344.035l64.062 8.43-85.137 3.37" fill="#9558b2" fill-opacity=".7"/><path d="M804.309 289.898l10.48 61.934-72.418-9.527" fill="#cb3c33" fill-opacity=".7"/><path d="M784.953 56.332l32.625 30.758-73.64 2.797" fill="#389826" fill-opacity=".7"/><path d="M811.254 139.25l-67.258-47.363 74.836-2.84" fill="#cb3c33" fill-opacity=".7"/><path d="M816.676 351l-9.602-56.727 22.692 44.508" fill="#9558b2" fill-opacity=".7"/><path d="M820.34 86.945l-29.328-27.652 47.761 25.137" fill="#cb3c33" fill-opacity=".7"/><path d="M820.879 88.89l19.312-2.636-26.34 49.168M793.875-13.844l52 8.508-59.563 57.676" fill="#4063d8" fill-opacity=".7"/><path d="M805.691 285.762l-4.574-32.012 43.903-10.973" fill="#389826" fill-opacity=".7"/><path d="M812.535 219.527l32.969 21.067-43.961 10.988" fill="#9558b2" fill-opacity=".7"/><path d="M841.355 88.316l6.5 59.414-34.347-7.425" fill="#cb3c33" fill-opacity=".7"/><path d="M847.066 239.219l-33.343-21.305 35.195-27.785" fill="#4063d8" fill-opacity=".7"/><path d="M813 215.938v-72.11l35.586 44.016" fill="#cb3c33" fill-opacity=".7"/><path d="M848.02 149.813l.906 35.265-34.364-42.5M831.047 336.887l-24.445-47.942 52.648-1.882" fill="#389826" fill-opacity=".7"/><path d="M847.535 242.992l12.149 42.055-52.336 1.867M841.863 83.797L789.68 56.332l77.82 5.492" fill="#4063d8" fill-opacity=".7"/><path d="M847.547-4.172l21.039 64.07-81.281-5.738" fill="#cb3c33" fill-opacity=".7"/><path d="M850.969 188.871l32.015-4.574-33.847 53.058" fill="#389826" fill-opacity=".7"/><path d="M884.035 182.129l-30.45 4.348 31.321-24.36" fill="#cb3c33" fill-opacity=".7"/><path d="M850.95 185.996l-.915-35.644 33.817 10.054" fill="#9558b2" fill-opacity=".7"/><path d="M869.898 57.488l-20.62-62.804 40.308-11.25" fill="#389826" fill-opacity=".7"/><path d="M890.45-12.04L895.921 60H871.3" fill="#cb3c33" fill-opacity=".7"/><path d="M885.207 158.719l-34.398-10.227 44.625-49.27" fill="#4063d8" fill-opacity=".7"/><path d="M849.754 146.68l-6.613-60.43 51.933 10.387" fill="#9558b2" fill-opacity=".7"/><path d="M869.852 62.445l24.726 32.051-50.367-10.074" fill="#389826" fill-opacity=".7"/><path d="M896 62v31.066L872.035 62" fill="#9558b2" fill-opacity=".7"/><path d="M861.637 284.594l-12.164-42.102 61.75 18.711" fill="#389826" fill-opacity=".7"/><path d="M884.762 185.23l27.597 74.227-62.808-19.031M913.14 262.512l3.723 39.105-53.07-15.828" fill="#cb3c33" fill-opacity=".7"/><path d="M831.43 339.965l71.914-6.465-84.032 17.777" fill="#389826" fill-opacity=".7"/><path d="M861.305 287.492l56.043 42.742-84.54 7.598" fill="#4063d8" fill-opacity=".7"/><path d="M917.05 303.762l1.794 25.097-52.89-40.34" fill="#389826" fill-opacity=".7"/><path d="M886.969 160.742l50.218-15.86-51.101 36.126" fill="#9558b2" fill-opacity=".7"/><path d="M897.66 98.074l43.469 43.469-53.867 17.008" fill="#389826" fill-opacity=".7"/><path d="M898 93.984v-32.09l49.512-5.5" fill="#cb3c33" fill-opacity=".7"/><path d="M918.879 301.688l-3.649-38.301 33.743 29.183" fill="#389826" fill-opacity=".7"/><path d="M949.031 238.848l.93 51.93-34.313-29.676M920.816 328.414l-1.761-24.687 29.097-8.82" fill="#cb3c33" fill-opacity=".7"/><path d="M949.05 236.434l-29.734 19.82 31.387-37.168" fill="#9558b2" fill-opacity=".7"/><path d="M914.34 259.047l-27.528-74.04 63.598 31.325" fill="#389826" fill-opacity=".7"/><path d="M942.21 143.785l8.575 70.5-63.836-31.437" fill="#cb3c33" fill-opacity=".7"/><path d="M950.043 54.102l-50.7 5.632 53.516-64.78" fill="#9558b2" fill-opacity=".7"/><path d="M897.809 58.45l-5.715-75.263 60.02 9.528" fill="#4063d8" fill-opacity=".7"/><path d="M919.809 332.063l42.453 26.761-138.426-6.46" fill="#cb3c33" fill-opacity=".7"/><path d="M950.473 295.227L964.5 357.87l-43.012-27.113" fill="#389826" fill-opacity=".7"/><path d="M942.855 140.441L899.723 97.31l67.511 7.5" fill="#cb3c33" fill-opacity=".7"/><path d="M950.527 56.613l16.977 46.215-67.906-7.547" fill="#389826" fill-opacity=".7"/><path d="M968.992 101.078l-16.262-44.27 28.008 11.747" fill="#cb3c33" fill-opacity=".7"/><path d="M966.742 358.738l-13.07-58.383 27.883 54.028M981.328 72.805l1.629 23.578-12.2 5.691" fill="#4063d8" fill-opacity=".7"/><path d="M951.953 290.375l-.933-52.309 43.902 2.805" fill="#389826" fill-opacity=".7"/><path d="M952.852 217.59l39.601 21.117-41.36-2.64" fill="#cb3c33" fill-opacity=".7"/><path d="M954.934-6.598l41.25 15-44.063 44.063" fill="#389826" fill-opacity=".7"/><path d="M981.328 66.633l-28.566-11.98 43.312-43.313M996.105 238.39l-40.867-21.796 42.684-5.45" fill="#9558b2" fill-opacity=".7"/><path d="M952.871 214.879l-8.465-69.598 52.672 63.957M982.883 352.598l-29.856-57.852 46.653 15.86" fill="#389826" fill-opacity=".7"/><path d="M996.14 242.516l3.778 66.058-47.188-16.043" fill="#cb3c33" fill-opacity=".7"/><path d="M969.137 105.57l47.945 48.883-72.387-13.16" fill="#4063d8" fill-opacity=".7"/><path d="M998.688 208.047l-53.18-64.574 73.12 13.293" fill="#9558b2" fill-opacity=".7"/><path d="M983.613 98.285l30.98 50.774-43.89-44.75" fill="#389826" fill-opacity=".7"/><path d="M1020.29 158.016l8.452 10.988-26.207 34.66M999.809 212.898l37.234 53.196-39.008-26.598" fill="#4063d8" fill-opacity=".7"/><path d="M1032.176 302.156l-28.055 6.137 35.067-35.066" fill="#cb3c33" fill-opacity=".7"/><path d="M1001.871 307.715l-3.758-65.746 41.328 28.176" fill="#9558b2" fill-opacity=".7"/><path d="M998.52 9.934l44.46 44.46-59.597 12.301" fill="#cb3c33" fill-opacity=".7"/><path d="M1019.914 153.938l-34.148-55.965 62.605-.95" fill="#9558b2" fill-opacity=".7"/><path d="M984.934 95.984l-1.825-26.445 62.016 25.535" fill="#cb3c33" fill-opacity=".7"/><path d="M1044.14 56.2l4.66 38.226-63.398-26.106M1029.566 166.797l-8.39-10.91 25.176-50.352" fill="#389826" fill-opacity=".7"/><path d="M997.977 6.926l-39.383-14.32 93.086-8.055" fill="#cb3c33" fill-opacity=".7"/><path d="M1044.355 52.941L999.762 8.348l56.93-23.72" fill="#4063d8" fill-opacity=".7"/><path d="M1030.207 170.383l29.531 21.222-58.136 16.61" fill="#389826" fill-opacity=".7"/><path d="M1040.59 267.672l-39.965-57.098 59.95-17.129" fill="#cb3c33" fill-opacity=".7"/><path d="M1001.41 311.668l58.516 50.02-75.504-7.551" fill="#4063d8" fill-opacity=".7"/><path d="M1032.453 304.145l27.445 54.886-56.718-48.484M1062.219 195.031l17.57 40.688-36.988 31.437" fill="#389826" fill-opacity=".7"/><path d="M1050.79 94.223l-4.602-37.735 38.656 13.805" fill="#cb3c33" fill-opacity=".7"/><path d="M1041.582 271.848l47.887 42.363-55.254-11.973" fill="#389826" fill-opacity=".7"/><path d="M1080.277 237.926l11.325 75.504-49.075-43.414M1063.105 360.977l-28.277-56.559 56.555 12.254M1080.957 233.375l-17.539-40.613 35.996-6.461" fill="#cb3c33" fill-opacity=".7"/><path d="M1058.828-15.965l43.098 1.875-55.278 65.582" fill="#389826" fill-opacity=".7"/><path d="M1086.246 68.668l-39.555-14.125 55.567-65.922" fill="#9558b2" fill-opacity=".7"/><path d="M1092.645 318.418l10.097 35.809-37.644 7.343" fill="#4063d8" fill-opacity=".7"/><path d="M1086.867 71.316l16.051 16.942-49.043 6.242" fill="#389826" fill-opacity=".7"/><path d="M1050.504 97.938l60.332 61.292-79.484 8.618" fill="#9558b2" fill-opacity=".7"/><path d="M1100.32 184.105l-33.418 6 43.7-27.421" fill="#389826" fill-opacity=".7"/><path d="M1062.04 190.797l-29.337-21.086 76.086-8.25M1104.121 90.121l7.563 67.113-59.555-60.496" fill="#4063d8" fill-opacity=".7"/><path d="M1093.61 313.332l-11.368-75.793 50.215 18.95M1104.465-12.219l33.125 56.785-49.215 23.664" fill="#389826" fill-opacity=".7"/><path d="M1132.082-6.215l5.379 46.59-31.36-53.758" fill="#9558b2" fill-opacity=".7"/><path d="M1104.922 87.465l-16.254-17.156 46.957-22.579M1113.793 158.117l-7.36-65.324 32.204 46" fill="#cb3c33" fill-opacity=".7"/><path d="M1101.54 186.363l41.12 19.63-59.812 28.038" fill="#4063d8" fill-opacity=".7"/><path d="M1133.273 254.656l-49.703-18.754 60.016-28.136M1113.16 161.98l28.863 41.493-39.687-18.946" fill="#cb3c33" fill-opacity=".7"/><path d="M1139.14 140.934l4.59 61.488-29.367-42.215" fill="#4063d8" fill-opacity=".7"/><path d="M1104.727 353.89l-10.188-36.113 64.824 28.707" fill="#cb3c33" fill-opacity=".7"/><path d="M1138.781 46.918l26.414 57.55-58.492-16.038" fill="#9558b2" fill-opacity=".7"/><path d="M1140.063 137.344l-32.653-46.645 57.84 15.86" fill="#389826" fill-opacity=".7"/><path d="M1133.984 257.793l33.262 50.363-72.223 6.653" fill="#cb3c33" fill-opacity=".7"/><path d="M1162.215 345.559l-65.293-28.914 70.89-6.532M1139.727 42.574l-5.614-48.636 48.637-2.805M1169.117 307.363l-31.46-47.64 45.843 31.46" fill="#389826" fill-opacity=".7"/><path d="M1145.934 205.063l-4.657-62.364 43.75 65.156" fill="#cb3c33" fill-opacity=".7"/><path d="M1145.79 207.059l38.769 2.77-48.922 43.382" fill="#389826" fill-opacity=".7"/><path d="M1184.21 289.246l-45.581-31.281 48.266 9.832" fill="#9558b2" fill-opacity=".7"/><path d="M1186.04 211.191l.94 54.579-50.82-10.352" fill="#4063d8" fill-opacity=".7"/><path d="M1169.574 311.766l18.785 29.52-24.152 4.472" fill="#9558b2" fill-opacity=".7"/><path d="M1184.227 293.375l4.37 44.555-18.347-28.828M1167.09 103.8l-26.563-57.87 60.715-2.848" fill="#cb3c33" fill-opacity=".7"/><path d="M1184.633-8.004l16.984 49.066-60.39 2.833M1167.215 107.316l34.937 22.067-59.765 8.277" fill="#9558b2" fill-opacity=".7"/><path d="M1186.54 206.52l-44.817-66.75 61.98-8.583M1202.516 44.898l8.343 45.426-41.718 13.906" fill="#389826" fill-opacity=".7"/><path d="M1204.277 128.363l-34.96-22.082 41.402-13.8" fill="#cb3c33" fill-opacity=".7"/><path d="M1188.965 264.969l-.934-54.215 40.192 23.371" fill="#389826" fill-opacity=".7"/><path d="M1229.625 232.625L1190.711 210h51.582" fill="#cb3c33" fill-opacity=".7"/><path d="M1205.621 131.766l40.73 32.207-57.777 42.625" fill="#4063d8" fill-opacity=".7"/><path d="M1243.086 208h-53.047l56.77-41.879M1190.895 340.879l-4.704-47.957 64.887 40.437" fill="#389826" fill-opacity=".7"/><path d="M1203.492 40.367l-17.039-49.23 72.899 6.625M1212.75 89.543l-8.434-45.91 56.22 23.422" fill="#4063d8" fill-opacity=".7"/><path d="M1261.027-1l.95 66.492-56.993-23.75" fill="#389826" fill-opacity=".7"/><path d="M1188.785 268.77l68.297 47.625-70.992-26.06" fill="#4063d8" fill-opacity=".7"/><path d="M1229.563 235.613l32.289 81.668-72.172-50.328M1253.73 332.656l-59.968-37.375 68.66 25.207" fill="#cb3c33" fill-opacity=".7"/><path d="M1212.809 92.16l51.879 9.266-58.364 26.863" fill="#9558b2" fill-opacity=".7"/><path d="M1247.484 162.316l-40.586-32.09 59.465-27.37M1262.207 68.48l4.602 31.29-51.543-9.204M1262.07-3.996l160.934 14.629L1220.27-6.086" fill="#389826" fill-opacity=".7"/><path d="M1263.898 59.965l-.882-61.914 17.687.887" fill="#cb3c33" fill-opacity=".7"/><path d="M1244.563 210.043l37.886 2.64-50.222 19.383" fill="#389826" fill-opacity=".7"/><path d="M1248.777 166.543l35.993 44.3-39.684-2.769M1268.875 100.078l-4.438-30.164 31.942 32.828" fill="#cb3c33" fill-opacity=".7"/><path d="M1264.316 321.277l30.547 15.274-39.031-3.395" fill="#389826" fill-opacity=".7"/><path d="M1299.137 336.45l-31.63-15.813 33.388-3.516" fill="#cb3c33" fill-opacity=".7"/><path d="M1264.125 317.594l-32.578-82.399 70.902 8.625" fill="#389826" fill-opacity=".7"/><path d="M1286.543 213.246l15.645 28.527-68.09-8.28M1301.023 315.098l-35.277 3.714 37.137-71.488" fill="#4063d8" fill-opacity=".7"/><path d="M1268.332 103.258l36.89 53.918-55.808 5.676" fill="#cb3c33" fill-opacity=".7"/><path d="M1298.125 104.922l7.25 48.933-35.34-51.652" fill="#4063d8" fill-opacity=".7"/><path d="M1286.672 210.008l-36.727-45.2 55.559-5.652M1282.328.574l32.102 55.703-50.04 9.442" fill="#389826" fill-opacity=".7"/><path d="M1298.602 102.156l-33.586-34.52 49.449-9.327" fill="#4063d8" fill-opacity=".7"/><path d="M1304.898 246.691l23.848 43.11-25.68 23.847" fill="#389826" fill-opacity=".7"/><path d="M1303.918 240.773l-15.59-28.433 40.356-25.68" fill="#9558b2" fill-opacity=".7"/><path d="M1307.371 159.875l22.082 23.926-40.484 25.762" fill="#cb3c33" fill-opacity=".7"/><path d="M1330.086 181.535l-21.024-22.777 21.899-2.625" fill="#389826" fill-opacity=".7"/><path d="M1307.848 156.89l-7.184-48.476 29.625 45.785" fill="#9558b2" fill-opacity=".7"/><path d="M1315.816 54.68L1283.81-.867l51.777 3.765" fill="#cb3c33" fill-opacity=".7"/><path d="M1163.02 348.008l143.125 13.668-190.567-7.238" fill="#9558b2" fill-opacity=".7"/><path d="M1190.02 343.012l110.832 16.148-130.649-12.476" fill="#389826" fill-opacity=".7"/><path d="M1253.895 335.02l76.718 26.457-133.156-19.403" fill="#9558b2" fill-opacity=".7"/><path d="M1299.672 338.977l33.578 21.293-71.254-24.57" fill="#cb3c33" fill-opacity=".7"/><path d="M1302.773 318.54l33.582 41.331-35.304-22.387" fill="#389826" fill-opacity=".7"/><path d="M1329.29 292.023l10.183 68.512-36.106-44.437" fill="#cb3c33" fill-opacity=".7"/><path d="M1316.309 59.09l24.02 32.34-39.727 11.086" fill="#9558b2" fill-opacity=".7"/><path d="M1331.422 152.266l-30.844-47.668 40.192-11.215" fill="#cb3c33" fill-opacity=".7"/><path d="M1336.98 4.855l13.743 37.567-32.985 12.828" fill="#9558b2" fill-opacity=".7"/><path d="M1341.469 89.605l-23.883-32.148 33.066-12.86" fill="#389826" fill-opacity=".7"/><path d="M1330.371 288.605l-24.184-43.718 59.532 22.324" fill="#4063d8" fill-opacity=".7"/><path d="M1330.988 186.43l35.125 78.797-60.758-22.786" fill="#389826" fill-opacity=".7"/><path d="M1352.512 45.5l26.781 38.79-36.02 6.464" fill="#4063d8" fill-opacity=".7"/><path d="M1380.11 81.953l-26.587-38.508 28.422-11.918" fill="#cb3c33" fill-opacity=".7"/><path d="M1352.578 41.672L1338.922 4.34l41.883 25.496" fill="#389826" fill-opacity=".7"/><path d="M1341.605 361.262l-10.433-70.176 54.055 3.793" fill="#4063d8" fill-opacity=".7"/><path d="M1367.719 268.34l17.254 24.515-51.758-3.632" fill="#cb3c33" fill-opacity=".7"/><path d="M1342.723 93.836l48.261 37.855-57.726 21.766" fill="#389826" fill-opacity=".7"/><path d="M1380.262 86.148l11.043 43.25-46.934-36.808" fill="#cb3c33" fill-opacity=".7"/><path d="M1332.938 156.844l59.097 40.004-60.008-13.641" fill="#9558b2" fill-opacity=".7"/><path d="M1392.082 133.414l3.8 63.621-61.722-41.781" fill="#4063d8" fill-opacity=".7"/><path d="M1367.98 264.5l-35.253-79.082 62.882 14.293" fill="#cb3c33" fill-opacity=".7"/><path d="M1386.727 291.871l-17.305-24.586 34.605-21.855" fill="#9558b2" fill-opacity=".7"/><path d="M1396.664 202.34l8.219 40.183-34.703 21.918" fill="#4063d8" fill-opacity=".7"/><path d="M1386.98 295.852l23.551 37.683-66.886 28.262" fill="#cb3c33" fill-opacity=".7"/><path d="M1382.938 28.793l-42.133-25.648 72.36 2.75" fill="#9558b2" fill-opacity=".7"/><path d="M1383.953 31.305l46.883 13.129-48.758 38.441" fill="#389826" fill-opacity=".7"/><path d="M1415.59 6.563l15.652 35.906-46.031-12.887M1406.605 240.98l-8.257-40.37 34.867 13.761M1406.29 245.09l27.983 38.242-45.707 9.328" fill="#cb3c33" fill-opacity=".7"/><path d="M1411.887 331.93l-23.274-37.239 45.614-9.308" fill="#9558b2" fill-opacity=".7"/><path d="M1411.746 335.195l24.977 26.828-90.664.926M1432.875 41.21l-15.18-34.823 25.004 5.355M1393.563 130.156L1382.27 85.93l64.93-3.766" fill="#389826" fill-opacity=".7"/><path d="M1432.621 45.57l15.86 34.516-64.368 3.73" fill="#cb3c33" fill-opacity=".7"/><path d="M1434.902 215.516l21.04 27.445-47.575-.914" fill="#4063d8" fill-opacity=".7"/><path d="M1435.879 282.145L1408 244.039l48.328.93M1434.45 212.707l-35.622-14.059 67.492-63.742" fill="#389826" fill-opacity=".7"/><path d="M1397.871 196.8l-3.809-63.816 72.387-.949" fill="#9558b2" fill-opacity=".7"/><path d="M1449.582 82.715l17.977 47.305-71.903.945" fill="#cb3c33" fill-opacity=".7"/><path d="M1458.234 245.648l20.965 20.965-41.015 15.492" fill="#9558b2" fill-opacity=".7"/><path d="M1469.09 133.418l13.707 27.41-44.774 48.43" fill="#cb3c33" fill-opacity=".7"/><path d="M1436.48 285.309l50.758 22.558-73.316 24.438" fill="#389826" fill-opacity=".7"/><path d="M1439 361.531l-25.207-27.074 72.82-24.273" fill="#cb3c33" fill-opacity=".7"/><path d="M1480.27 268.344l8.328 37.937-49.965-22.207" fill="#4063d8" fill-opacity=".7"/><path d="M1457.96 242.305l-21.312-27.801 52.817-17.606" fill="#9558b2" fill-opacity=".7"/><path d="M1483.457 163.059l7.36 31.28-52.438 17.481" fill="#389826" fill-opacity=".7"/><path d="M1480.309 264.895l-21.012-21.012 31.062-44.766M1444.555 12.504l48.945 29.55-59.105.923" fill="#cb3c33" fill-opacity=".7"/><path d="M1450.371 79.414l-15.82-34.437 59.566-.93" fill="#4063d8" fill-opacity=".7"/><path d="M1469.469 129.414l-17.653-46.453 49.239 23.227" fill="#389826" fill-opacity=".7"/><path d="M1496.18 44.95l5.66 59.398-49.973-23.57" fill="#cb3c33" fill-opacity=".7"/><path d="M1483.832 158.426l-13.562-27.121 30.738-22.598" fill="#9558b2" fill-opacity=".7"/><path d="M1489.734 309.758l22.727 47.344-71.016 4.734" fill="#389826" fill-opacity=".7"/><path d="M1444.043 9.988l-19.762-4.234 70.578-2.121" fill="#4063d8" fill-opacity=".7"/><path d="M1496.563 41.566l-49.579-29.933 67.352-8.418M1490.781 306.898l-8.25-37.593 46.766 33.011" fill="#389826" fill-opacity=".7"/><path d="M1513.824 355.324l-22.316-46.496 39.054-4.648M1538.043 112.762l-33.25-7.387 35.098-43.414" fill="#cb3c33" fill-opacity=".7"/><path d="M1503.762 103.465l-5.617-58.985 41.195 14.98" fill="#389826" fill-opacity=".7"/><path d="M1515.977 4.434l23.168 52.828-40.782-14.828M1492.605 193.215l-7.386-31.399 57.258-9.234" fill="#cb3c33" fill-opacity=".7"/><path d="M1503.41 107.875l40.555 42.441-58.473 9.43" fill="#389826" fill-opacity=".7"/><path d="M1538.14 114.832l6.25 33.035-38.39-40.176" fill="#9558b2" fill-opacity=".7"/><path d="M1337 .996l-38.02-2.766 183.184-8.292" fill="#389826" fill-opacity=".7"/><path d="M1515.742 1.008l-82.262 2.469 107.766-15.633" fill="#cb3c33" fill-opacity=".7"/><path d="M1415.945 3.996l-61.394-2.332 163.207-12.434" fill="#4063d8" fill-opacity=".7"/><path d="M1515.758 1h-152.469l178.875-13.629" fill="#9558b2" fill-opacity=".7"/><path d="M1540.328 54.977l-23.035-52.52 28.562-14.742M1532.262 305.414l21.281 36.082-37.934 14.8M1492.715 196.938l62.101 53.5-72.609 15.285" fill="#389826" fill-opacity=".7"/><path d="M1531.61 301.5l-48.16-33.992 71.769-15.11" fill="#cb3c33" fill-opacity=".7"/><path d="M1545.55 152.656l20.888 56.016-72.157-14.242" fill="#4063d8" fill-opacity=".7"/><path d="M1556.445 249.203l-60.922-52.488 71.235 14.058" fill="#cb3c33" fill-opacity=".7"/><path d="M1541.953 60.3l37.168 10.22-39.027 40.886" fill="#9558b2" fill-opacity=".7"/><path d="M1568.168 207.586l-20.617-55.285 45.914 8.433" fill="#cb3c33" fill-opacity=".7"/><path d="M1568.398 212.379l30.45 45.215-40.602-7.383" fill="#4063d8" fill-opacity=".7"/><path d="M1555.184 340.344l-21.594-36.614 67.601-12.207" fill="#cb3c33" fill-opacity=".7"/><path d="M1557.348 252.586l44.359 36.812-67.957 12.27" fill="#9558b2" fill-opacity=".7"/><path d="M1600.078 259.848l2.692 27.832-42.196-35.012" fill="#389826" fill-opacity=".7"/><path d="M1594.273 158.852l-45.703-8.395 58.762-40.11" fill="#9558b2" fill-opacity=".7"/><path d="M1546.7 149.313l-6.513-34.41 65.102-5.583" fill="#4063d8" fill-opacity=".7"/><path d="M1580.902 71.55l26.235 35.606-65.586 5.621" fill="#389826" fill-opacity=".7"/><path d="M1547.898-12.703l62.895 18.11-68.613 51.46" fill="#4063d8" fill-opacity=".7"/><path d="M1580.469 68.816l-37.239-10.238 67.028-50.27" fill="#389826" fill-opacity=".7"/><path d="M1594.758 162.555l16.804 53.21-42.011-6.535" fill="#4063d8" fill-opacity=".7"/><path d="M1600.629 256.66l-30.52-45.32 41.618 6.472" fill="#cb3c33" fill-opacity=".7"/><path d="M1555.035 343.059l56.5 17.656-92.691-3.531" fill="#4063d8" fill-opacity=".7"/><path d="M1603.414 292.082l14.262 68.457-60.852-19.016" fill="#389826" fill-opacity=".7"/><path d="M1619.691 360.406l-13.316-63.918 29.293 54.153" fill="#9558b2" fill-opacity=".7"/><path d="M1608.813 106.063l-26.243-35.618 53.426-21.558" fill="#cb3c33" fill-opacity=".7"/><path d="M1613.082 7.094l23.461 39.414-53.488 21.586M1613.672 215.809l-16.645-52.715 50.86 44.39" fill="#9558b2" fill-opacity=".7"/><path d="M1609.648 109.441l45.024 22.512-58.156 26.266" fill="#389826" fill-opacity=".7"/><path d="M1649.184 205.96l-52.352-45.69 59.016-26.653M1604.871 288.605l-2.758-28.484 61.563 6.434" fill="#cb3c33" fill-opacity=".7"/><path d="M1613.523 218.805l51.497 45.879-62.73-6.555" fill="#4063d8" fill-opacity=".7"/><path d="M1649.324 209.195l16.653 53.664-50.887-45.34" fill="#cb3c33" fill-opacity=".7"/><path d="M1612.941 3.941l-59.574-17.148 110.125-3.613" fill="#389826" fill-opacity=".7"/><path d="M1637.902 44.883l-23.449-39.399 52.527-21.574" fill="#cb3c33" fill-opacity=".7"/><path d="M1638 49.324l29.363 61.563-56.828-3.785" fill="#4063d8" fill-opacity=".7"/><path d="M1656.617 130.691l-42.722-21.363 53.406 3.563M1637 348.902l-31.293-57.847 61.64 1.894" fill="#cb3c33" fill-opacity=".7"/><path d="M1667.055 267.422l.906 23.547-58.863-1.813M1668.98 109.64l-27.66-58.003 37.477 36.586" fill="#389826" fill-opacity=".7"/><path d="M1669.969 291.2l-.785-20.45 11.007 22.809" fill="#cb3c33" fill-opacity=".7"/><path d="M1669.516 293.145l10.707 2.472-37.059 46.117M1657.914 132.973l32.375-.922-38.848 71.222" fill="#389826" fill-opacity=".7"/><path d="M1669.258 113.512l20.054 16.566-30.515.871" fill="#9558b2" fill-opacity=".7"/><path d="M1679.77 90.898l10.41 37.301-19.95-16.48" fill="#cb3c33" fill-opacity=".7"/><path d="M1669.16-16.012l34.145 49.32-63.547 12.333" fill="#4063d8" fill-opacity=".7"/><path d="M1679.688 86.297l-39.622-38.68 63.204-12.262" fill="#cb3c33" fill-opacity=".7"/><path d="M1668.422 263.988l-16.965-54.664 54.668 11.309" fill="#389826" fill-opacity=".7"/><path d="M1691.52 133.973l15.234 84.75-55.23-11.43M1637.379 351.938l44.09-9.934-55.266 16.766" fill="#cb3c33" fill-opacity=".7"/><path d="M1681.914 296.703l24.465 37.637-66.805 15.055" fill="#9558b2" fill-opacity=".7"/><path d="M1704.523 31.555L1671-16.871l43.77 2.793" fill="#cb3c33" fill-opacity=".7"/><path d="M1682.324 293.375l-12.773-26.465 45.625-2.738" fill="#4063d8" fill-opacity=".7"/><path d="M1707.469 222.133l9.289 39.941-46.442 2.785" fill="#cb3c33" fill-opacity=".7"/><path d="M1692.566 129.305l-11.136-39.91 47.332 12.066" fill="#4063d8" fill-opacity=".7"/><path d="M1704.918 36.555l24.445 62.996-47.949-12.223" fill="#9558b2" fill-opacity=".7"/><path d="M1716.688-13.496L1742.25.199l-35.605 31.04" fill="#389826" fill-opacity=".7"/><path d="M1708.715 218.332l-15.07-83.832 50.863 60.285" fill="#4063d8" fill-opacity=".7"/><path d="M1708.148 333.395l-24.355-37.473 62.766-2.813" fill="#389826" fill-opacity=".7"/><path d="M1717.984 264.352l28.598 26.753-61.812 2.77" fill="#cb3c33" fill-opacity=".7"/><path d="M1708.105 336.012l39.864 3.324-113.774 19.098" fill="#389826" fill-opacity=".7"/><path d="M1748.313 294.172l6.511 43.726-44.656-3.722" fill="#cb3c33" fill-opacity=".7"/><path d="M1718.785 261.96l-9.156-39.366 46.691 37.535" fill="#389826" fill-opacity=".7"/><path d="M1745.305 196.652l12.183 61.852-47.793-38.422M1748.531 290.191l-28.12-26.308 37.194-1.813" fill="#9558b2" fill-opacity=".7"/><path d="M1731.336 99.105l-24.36-62.78 52.473 30.921" fill="#4063d8" fill-opacity=".7"/><path d="M1743.43 1.824l16.011 63.098-52.738-31.078M1730.781 102.43l30.89 43.992-67.394-15.91" fill="#cb3c33" fill-opacity=".7"/><path d="M1745.672 193.059l-50.957-60.391 67.941 16.043M1756.82 337.71l-6.375-42.792 33.688 34.598" fill="#389826" fill-opacity=".7"/><path d="M1759.29 263.36l29.956 48.109-39.031-19.973" fill="#4063d8" fill-opacity=".7"/><path d="M1785.617 328.172l-31.656-32.512 36.789 18.824M1761.203 63.73l-16-63.054 46.113-14.114M1760.863 68.664l29.926 47.691-57.98-15.894" fill="#9558b2" fill-opacity=".7"/><path d="M1764.121 146.434l-30.707-43.735 57.695 15.82" fill="#4063d8" fill-opacity=".7"/><path d="M1792.621-11.277L1805.816 66h-43.351" fill="#389826" fill-opacity=".7"/><path d="M1792.637 115.543L1762.809 68h42.879M1764.422 149.695l44.16 38.524-61.074 5.636M1792.883 119.559l18.226 25.52-44.652 1.82" fill="#cb3c33" fill-opacity=".7"/><path d="M1810.098 186.887l-43.547-37.989 45.398-1.855" fill="#4063d8" fill-opacity=".7"/><path d="M1759.758 259.668l-12.332-62.598 68.289 42.68" fill="#cb3c33" fill-opacity=".7"/><path d="M1810.14 190.082l6.579 47.938-67.676-42.297" fill="#389826" fill-opacity=".7"/><path d="M1791.746 311.703l-31.242-50.176 55.86-19.882" fill="#9558b2" fill-opacity=".7"/><path d="M1807.61 64.625l-12.872-75.39 34.016 48.726" fill="#4063d8" fill-opacity=".7"/><path d="M1829-5.215V34.82l-33.664-48.222M1813.309 144.71l-17.465-24.448 35.8 14.843" fill="#389826" fill-opacity=".7"/><path d="M1813.973 146.621l18.007-9.434-19.722 46.31" fill="#cb3c33" fill-opacity=".7"/><path d="M1807.441 69.168l35.582 44.945-48.691 2.809" fill="#389826" fill-opacity=".7"/><path d="M1833.555 133.734l-36.14-14.988 45.839-2.644M1829.434 40.324l13.796 70.832L1808.277 67M1756.063 340.004l76.085 3.308-189.39 15.711" fill="#cb3c33" fill-opacity=".7"/><path d="M1786.043 331.031l49.785 10.438-73.875-3.211" fill="#9558b2" fill-opacity=".7"/><path d="M1792.54 315.406l48.491 25.11-53.687-11.254" fill="#cb3c33" fill-opacity=".7"/><path d="M1818.516 241.547l39.691 26.46-64.262 43.47" fill="#389826" fill-opacity=".7"/><path d="M1847.422 341.574l-52.527-27.203 66.597-15.008" fill="#4063d8" fill-opacity=".7"/><path d="M1859.172 269.77l2.746 27.449-64.969 14.64" fill="#cb3c33" fill-opacity=".7"/><path d="M1859.207 266.27l-39.57-26.38 48.047-42.398" fill="#4063d8" fill-opacity=".7"/><path d="M1818.738 238.016l-6.574-47.891 54.465 5.637" fill="#cb3c33" fill-opacity=".7"/><path d="M1834.14 137.223l33.005 56.578-54.692-5.656" fill="#4063d8" fill-opacity=".7"/><path d="M1845.43 111.969l-14.235-73.07 54.09-4.747" fill="#9558b2" fill-opacity=".7"/><path d="M1831 36.91V-4.105l53.129 36.351" fill="#4063d8" fill-opacity=".7"/><path d="M1845.184 116.738l41.14 47.399-50.976-29.512" fill="#389826" fill-opacity=".7"/><path d="M1869.137 193.25l-32.371-55.492 52.718 30.52" fill="#9558b2" fill-opacity=".7"/><path d="M1886.469 31.426l-53.016-36.274 64.18 2.79M1886.473 36.223l11.37 75.82-51.175 1.894" fill="#389826" fill-opacity=".7"/><path d="M1890.324 165.695l-43.199-49.773 50.71-1.879" fill="#cb3c33" fill-opacity=".7"/><path d="M1847.996 344.004l40.7 3.7-210.165 10.358" fill="#389826" fill-opacity=".7"/><path d="M1863.367 300.059l37.387 46.734-51.406-4.676M1890.879 169.73l15.316 25.223-35.132-.902" fill="#cb3c33" fill-opacity=".7"/><path d="M1863.805 295.984l-2.723-27.23 49.02-12.711" fill="#389826" fill-opacity=".7"/><path d="M1869.691 197.559l42.602 55.851-51.121 13.254" fill="#cb3c33" fill-opacity=".7"/><path d="M1907.098 196.977l5.543 53.59-41.579-54.512" fill="#389826" fill-opacity=".7"/><path d="M1902.781 346.125l-37.164-46.453 52.957 13.008" fill="#9558b2" fill-opacity=".7"/><path d="M1913.203 256.008l5.656 54.683-53.738-13.199M1914.848 252.46l-5.274-50.976 21.09 43.067" fill="#cb3c33" fill-opacity=".7"/><path d="M1899.54-1.45l32.065 21.075-43.062 11.91" fill="#4063d8" fill-opacity=".7"/><path d="M1899.836 111.824l-11.188-74.574 45.676 68.05" fill="#9558b2" fill-opacity=".7"/><path d="M1933.031 21.305l1.89 81.293-46.32-69.004M1920.848 310.484l-5.442-52.609 28.117 41.723" fill="#389826" fill-opacity=".7"/><path d="M1931.316 246.46l11.45 48.435-27.301-40.508" fill="#9558b2" fill-opacity=".7"/><path d="M1899.738 114.86l45.145 35.738-52.668 15.988" fill="#389826" fill-opacity=".7"/><path d="M1935.254 107.16l10.082 41.246-43.996-34.832M1908.145 194.309l-15.622-25.727 51.454-15.617" fill="#4063d8" fill-opacity=".7"/><path d="M1903.004 349l21.598.922-152.106 5.512" fill="#cb3c33" fill-opacity=".7"/><path d="M1920.215 313.887l27.648 35.02-43.316-1.84" fill="#4063d8" fill-opacity=".7"/><path d="M1944.148 301.52l4.516 45.175-27.105-34.336" fill="#cb3c33" fill-opacity=".7"/><path d="M1932.074 242.875l-22.242-45.41 42.629 10.195" fill="#9558b2" fill-opacity=".7"/><path d="M1946.285 153.352l6.543 52.34-42.992-10.282" fill="#389826" fill-opacity=".7"/><path d="M1936.887 101.148l-1.852-79.691 29.652 11.117M1954.676 204.355l-6.508-52.074 38.129 8.367" fill="#9558b2" fill-opacity=".7"/><path d="M1987.133 158.785l-38.215-8.387 44.738-48.468" fill="#cb3c33" fill-opacity=".7"/><path d="M1947.527 148.953l-10.289-42.094 55.192-6.546" fill="#389826" fill-opacity=".7"/><path d="M1966.031 34.586l27.52 63.578-55.988 6.645" fill="#4063d8" fill-opacity=".7"/><path d="M1950.906 349.02l-4.633-46.332 47.258 47.257M1994.309 94.883l-26.399-60.985 30.04 12.743M1945.547 297.96l-12.332-52.163 73.98-13.277" fill="#389826" fill-opacity=".7"/><path d="M1954.422 208.27l52.117 22.335-72.594 13.028" fill="#4063d8" fill-opacity=".7"/><path d="M1995.574 349.156l-47.707-47.703 60.801 9.356" fill="#cb3c33" fill-opacity=".7"/><path d="M2009 233.52v75.316l-61.969-9.535" fill="#9558b2" fill-opacity=".7"/><path d="M1966.059 30.953L1939.516 21h66.359" fill="#389826" fill-opacity=".7"/><path d="M1934.3 19l-30.452-20.012L2003.902 19" fill="#9558b2" fill-opacity=".7"/><path d="M1998.574 44.734l-29.433-12.488 42.816-10.703" fill="#cb3c33" fill-opacity=".7"/><path d="M1988.035 161.656l28.102 35.598-59.95 8.43" fill="#4063d8" fill-opacity=".7"/><path d="M2009.309 229.613l-51.621-22.12 58.992-8.298M1999.828 48.332l31.477 33.332-35.18 15.738" fill="#cb3c33" fill-opacity=".7"/><path d="M2011 306.184V232.5l33.578 13.992M2018.738 199.2l26.82 6.257-33.972 23.246" fill="#389826" fill-opacity=".7"/><path d="M2045.07 244.531l-32.984-13.746 34.816-23.824" fill="#cb3c33" fill-opacity=".7"/><path d="M2014.125 21.785l35.629 45.676-49.332-21.922" fill="#389826" fill-opacity=".7"/><path d="M2033.176 80.73l-30.024-31.789 47.684 21.192M2045.668 248.629l10.152 37.836-43.375 21.223" fill="#9558b2" fill-opacity=".7"/><path d="M1995.777 101.012l62.688 55.09-69.34 2.851" fill="#389826" fill-opacity=".7"/><path d="M2032.438 83.348l26.234 70.273-61.844-54.344M2047.29 203.809l-27.259-6.364 39.067-37.25" fill="#9558b2" fill-opacity=".7"/><path d="M2018.105 196.52L1990 160.918l68.387-2.809" fill="#cb3c33" fill-opacity=".7"/><path d="M2052.148 71.676l7.172 77.96-25.093-67.206" fill="#389826" fill-opacity=".7"/><path d="M2052.555 67.805l-36.567-46.88 49.692-1.874" fill="#cb3c33" fill-opacity=".7"/><path d="M2010.52 311.566l53.375 36.52-66.485 1.875" fill="#389826" fill-opacity=".7"/><path d="M2056.668 288.273l21.195 30.41-64.504-9.214" fill="#cb3c33" fill-opacity=".7"/><path d="M2066.578 347.5l-52.473-35.902 64.438 9.203" fill="#9558b2" fill-opacity=".7"/><path d="M2079.73 323.047l3.141 12.558-13.344 10.204M2067.375 20.457l17.258 27.254-29.977 19.984" fill="#389826" fill-opacity=".7"/><path d="M2048.95 206.09l40.495 3.683-42.34 34.051" fill="#9558b2" fill-opacity=".7"/><path d="M2061.348 159.54l28.789 48.288-40.86-3.715" fill="#389826" fill-opacity=".7"/><path d="M2079.492 317.523l-21.199-30.418 35.027-35.949" fill="#4063d8" fill-opacity=".7"/><path d="M2057.512 285.043l-10.196-37.988 45.403 1.851" fill="#cb3c33" fill-opacity=".7"/><path d="M2091.148 210.969l2.77 35.984-45.215-1.844" fill="#389826" fill-opacity=".7"/><path d="M2083.672 330.563l-2.645-10.583 9.922-47.628" fill="#cb3c33" fill-opacity=".7"/><path d="M2091.441 206.11l-28.652-48.063 36.047.922" fill="#9558b2" fill-opacity=".7"/><path d="M2094.84 232.871l-1.832-23.832 4.887-31.16" fill="#cb3c33" fill-opacity=".7"/><path d="M2066.898 17.004l-14.457.543 24.278-2.18" fill="#9558b2" fill-opacity=".7"/><path d="M2014.055 18.992L1914.992-.82l175.727 12.922" fill="#389826" fill-opacity=".7"/><path d="M2085.871 45.93l-17.219-27.192 32.63-5.437" fill="#cb3c33" fill-opacity=".7"/><path d="M2099.316 156.98l-35.402-.906 49.93-37.219" fill="#389826" fill-opacity=".7"/><path d="M2061.832 155.133l-7.633-83.02 60.117 43.895" fill="#9558b2" fill-opacity=".7"/><path d="M2085.566 49.492l28.016 63.504-58.836-42.957" fill="#4063d8" fill-opacity=".7"/><path d="M2100.988 158.21l12.504-32.823-16.41 103.16" fill="#9558b2" fill-opacity=".7"/><path d="M2102.434 15.54l11.726 93.815-27.062-61.34" fill="#389826" fill-opacity=".7"/></svg>