<svg xmlns="http://www.w3.org/2000/svg" width="2800" height="350pt" viewBox="0 0 2100 350"><path fill="#1a1a33" d="M0 0h2100v350H0z"/><path d="M-6.531 328.746L-16.898 207.79l19.87 81.215" fill="#389826" fill-opacity=".45"/><path d="M4.074 285.098L-14.594 208.8l23.54 59.25" fill="#9558b2" fill-opacity=".45"/><path d="M-5.363 117.313L13.77 140.09l-30.977 50.105" fill="#cb3c33" fill-opacity=".45"/><path d="M15.406 141.246l24.543 10-55.453 40M10.207 265.809l-27.48-69.168 58.746 19.898" fill="#4063d8" fill-opacity=".45"/><path d="M41.031 152.934l.946 61.664-58.817-19.922M4.496 291.223l37.281 46.601-47.53-3.73" fill="#cb3c33" fill-opacity=".45"/><path d="M-5.355 112.887L-15.781 53.16l60.676 7.586" fill="#389826" fill-opacity=".45"/><path d="M19.809-11.61L45.5 58.806l-60.902-7.614M10.684 269.242l36.062 10.555-41.34 7.914" fill="#cb3c33" fill-opacity=".45"/><path d="M43.29 336.512l-37.474-46.84 44.032-8.434M42.605 218.484l8.208 31.918-38.297 15.5" fill="#389826" fill-opacity=".45"/><path d="M50.047 278.68l-37.008-10.832 37.91-15.344M46.805 56.543l-25.43-69.688 43.32-4.707" fill="#4063d8" fill-opacity=".45"/><path d="M41.414 149.68l-24.723-10.07 47.614-53.106" fill="#cb3c33" fill-opacity=".45"/><path d="M15.023 138.473l-19.41-23.106 67.473-30.5" fill="#389826" fill-opacity=".45"/><path d="M46.98 61.465l18.356 20.191-67 30.285M67.375 83.895l19.242 21.074-42.144 42.144" fill="#4063d8" fill-opacity=".45"/><path d="M66.484-16.73l28.13 36.57-45.946 37.508" fill="#9558b2" fill-opacity=".45"/><path d="M66.73 80.215L48.45 60.109l44.788-36.562" fill="#cb3c33" fill-opacity=".45"/><path d="M87.406 107.008l9.356 43.969-52.39-.934M43.977 214.46l-.95-61.75 61.746 34.2" fill="#9558b2" fill-opacity=".45"/><path d="M97.223 152.984l8.23 32.016L46 152.07M52.96 252.11l50.024 5.456-50.93 20.922" fill="#389826" fill-opacity=".45"/><path d="M52.797 250.082l-8.195-31.867 58.273 37.328" fill="#cb3c33" fill-opacity=".45"/><path d="M106 188.55v66.622l-60.91-39.02" fill="#389826" fill-opacity=".45"/><path d="M87.922 103.43L68.863 82.555l42.653-10.887" fill="#cb3c33" fill-opacity=".45"/><path d="M95.879 22.617l16.808 46.688-43.886 11.203" fill="#389826" fill-opacity=".45"/><path d="M51.871 281.145l62.438 9.457-69.059 46.355" fill="#cb3c33" fill-opacity=".45"/><path d="M106.18 347.855l-59.508-9.445 68.953-46.281" fill="#4063d8" fill-opacity=".45"/><path d="M106.363 258.344l9.219 30.43-60.86-9.223" fill="#9558b2" fill-opacity=".45"/><path d="M107.82 186.18l-7.656-29.782 27.23 34.887" fill="#cb3c33" fill-opacity=".45"/><path d="M108 251.262v-62.969l20.688 5.398" fill="#9558b2" fill-opacity=".45"/><path d="M43.828 339.988l59.324 16.18L9.45 337.293" fill="#4063d8" fill-opacity=".45"/><path d="M106.668 349.96l17.734 9.93-62.43-17.023M117.629 292.281l15.113 17.781-24.004 34.672" fill="#cb3c33" fill-opacity=".45"/><path d="M131.063 361.328l-22.614-12.664 24.422-35.277" fill="#389826" fill-opacity=".45"/><path d="M133.3 307.633l-14.976-17.621 20.262-22.903" fill="#4063d8" fill-opacity=".45"/><path d="M117.438 287.996l-8.989-29.668 29.664 6.293" fill="#389826" fill-opacity=".45"/><path d="M129.574 197.145l9.238 65.582-30.484-6.47M98.715 150.563l-9.332-43.864 53.195 23.332" fill="#cb3c33" fill-opacity=".45"/><path d="M113.848 71.883l28.968 56.066-53.265-23.36M129.508 190.746l-29.95-38.371 43.989-20.59" fill="#389826" fill-opacity=".45"/><path d="M114.703 69L98.36 23.602 146.484 69" fill="#4063d8" fill-opacity=".45"/><path d="M145.172 128.152l-27.633-53.48 40.11 37.437" fill="#cb3c33" fill-opacity=".45"/><path d="M148.21 71l9.048 38.008L116.535 71" fill="#389826" fill-opacity=".45"/><path d="M148.344 68.004l-50.672-47.8 65.969-37.286" fill="#cb3c33" fill-opacity=".45"/><path d="M96.262 18.703L68.032-18h93.167M134.918 312.191l43 39.262-44.871 10.281M165.36-15.352l22.421 56.985-37.367 26.156" fill="#4063d8" fill-opacity=".45"/><path d="M140.758 265.918l47.672 39.262-53.282 3.738" fill="#cb3c33" fill-opacity=".45"/><path d="M179.422 350.117l-43.024-39.281 53.313-3.742M190.375 304.188l-47.957-39.493 58.3-7.523" fill="#389826" fill-opacity=".45"/><path d="M140.852 262.883l-9.485-67.36 68.305 59.77" fill="#9558b2" fill-opacity=".45"/><path d="M201.262 254.027l-68.395-59.847 75.996 4.75" fill="#4063d8" fill-opacity=".45"/><path d="M145.703 131.36l66.637 26.652-80.914 33.32" fill="#cb3c33" fill-opacity=".45"/><path d="M209.125 196.941l-74.73-4.668 79.402-32.695" fill="#389826" fill-opacity=".45"/><path d="M159.16 113.426l50.215 41.246-62.77-25.106" fill="#9558b2" fill-opacity=".45"/><path d="M189.434 40.367L167.082-16.44l51.219 33.527" fill="#389826" fill-opacity=".45"/><path d="M159.734 110.773l-9.332-39.195 66.258 24.266" fill="#cb3c33" fill-opacity=".45"/><path d="M188.676 43.445l29.09 50.672-66.621-24.398" fill="#9558b2" fill-opacity=".45"/><path d="M214.156 156.012l-53.008-43.543 57.743-15.145" fill="#389826" fill-opacity=".45"/><path d="M191.512 308.152L227.84 351h-46.574M220.805 98.473l10.058 11.738-14.25 40.242M219.832 15.695l-49.734-32.554 66.007 14.468" fill="#cb3c33" fill-opacity=".45"/><path d="M220.074 18.223L246.04 34.34l-53.719 6.265" fill="#4063d8" fill-opacity=".45"/><path d="M219.918 93.848l-29.297-51.032 56.7-6.613" fill="#389826" fill-opacity=".45"/><path d="M231.465 107.84l-10.281-11.996 24.847-52.27" fill="#9558b2" fill-opacity=".45"/><path d="M237.54-.992l9.776 33.77-25.773-15.997" fill="#389826" fill-opacity=".45"/><path d="M210.809 199.445l36.343 15.84-43.797 38.207" fill="#9558b2" fill-opacity=".45"/><path d="M215.633 161.012l30.914 51.828-35.461-15.457" fill="#cb3c33" fill-opacity=".45"/><path d="M202.656 257.676l52.75 36.738-63.113 10.36" fill="#9558b2" fill-opacity=".45"/><path d="M229.777 350.188l-36.87-43.489 63.34-10.398M248.66 216.621l16.793 35.45-60.637 2.796" fill="#389826" fill-opacity=".45"/><path d="M257.336 293.32l-52.348-36.457 60.762-2.804" fill="#cb3c33" fill-opacity=".45"/><path d="M232.336 112.043l34.633 43.996-50.543.934" fill="#4063d8" fill-opacity=".45"/><path d="M248.758 212.64l-32.016-53.671 50.848-.942M249.418 32.844L239.273-2.203l43.348-7.379" fill="#9558b2" fill-opacity=".45"/><path d="M267.441 251.598l-15.992-33.762 34.649 23.098M258.086 297.094l29.234 49.043-55.644 4.718M249.418 37.684l47.656 81.02-63.86-9.532" fill="#cb3c33" fill-opacity=".45"/><path d="M269.012 155.398l-34.668-44.039 62.777 9.371" fill="#9558b2" fill-opacity=".45"/><path d="M284.656-8.941L299.594 34H251.05" fill="#4063d8" fill-opacity=".45"/><path d="M298.082 116.469L250.75 36h49.227" fill="#389826" fill-opacity=".45"/><path d="M267.594 255.008l33.27 33.27-41.59 5.542" fill="#4063d8" fill-opacity=".45"/><path d="M287.418 242.484l13.414 42.934-32.2-32.2M288.602 344.383l-28.965-48.594 42.047-5.605M269.523 158.55l39.465 26.313-58.258 28.188" fill="#389826" fill-opacity=".45"/><path d="M287.54 239.492l-36.528-24.355 58.07-28.098" fill="#9558b2" fill-opacity=".45"/><path d="M299.059 121.512l18.117 19.023-45.29 14.492" fill="#4063d8" fill-opacity=".45"/><path d="M310.29 183.324L271.28 157.32l46.438-14.86" fill="#9558b2" fill-opacity=".45"/><path d="M319.34 144.719l9.465 24.949-16.348 12.906M311.625 186.11l16.527 2.613-36.535 46.101" fill="#cb3c33" fill-opacity=".45"/><path d="M329 172.063v14.765l-15.586-2.46" fill="#389826" fill-opacity=".45"/><path d="M303.719 287.945l-13.457-43.062 38.578 41.27" fill="#9558b2" fill-opacity=".45"/><path d="M301.914 38.668l38.59 68.71-40.473 11.298" fill="#cb3c33" fill-opacity=".45"/><path d="M318.879 139.422l-18.008-18.906 38.719-10.805" fill="#389826" fill-opacity=".45"/><path d="M303.527 291.074l45.368 50.094-58.598 4.723" fill="#cb3c33" fill-opacity=".45"/><path d="M330.316 288.05l18 49.497-43.195-47.695" fill="#389826" fill-opacity=".45"/><path d="M301.598 33.668L286.625-9.375l64.566 22.457" fill="#9558b2" fill-opacity=".45"/><path d="M341.91 105.797l-38.656-68.828 59.398 23.57" fill="#4063d8" fill-opacity=".45"/><path d="M353.273 14.387l9.36 43.996L303.66 34.98" fill="#cb3c33" fill-opacity=".45"/><path d="M329.934 189.691l33.203 49.332-73.047.95" fill="#9558b2" fill-opacity=".45"/><path d="M330.902 285.43l-40.625-43.461 72.746-.942" fill="#cb3c33" fill-opacity=".45"/><path d="M364.82 237.941L332.06 189.27l51.48 6.554" fill="#389826" fill-opacity=".45"/><path d="M331 187.121v-15.566l47.563 21.617" fill="#9558b2" fill-opacity=".45"/><path d="M351.66 340.89l-18.308-50.35 49.437 45.776" fill="#cb3c33" fill-opacity=".45"/><path d="M330.648 168.887l-10.003-26.367 62.742 18.183" fill="#4063d8" fill-opacity=".45"/><path d="M342.086 109.625l42.937 49.473-64.406-18.668M384.129 193.504l-50.668-23.027 53.43-8.293" fill="#cb3c33" fill-opacity=".45"/><path d="M365.223 241.398l26.738 19.36-58.086 23.972" fill="#389826" fill-opacity=".45"/><path d="M384.484 198.621l8.207 60.2-26.449-19.157" fill="#4063d8" fill-opacity=".45"/><path d="M364.117 62.148l31.926 53.524-52.586-8.45" fill="#cb3c33" fill-opacity=".45"/><path d="M387.46 158.855l-42.901-49.43 52.23 8.391M384.633 335.297l-50.875-47.106 68.777 4.711" fill="#389826" fill-opacity=".45"/><path d="M393.379 262.336l9.215 28.566-67.262-4.609" fill="#cb3c33" fill-opacity=".45"/><path d="M397.39 114.027l-31.488-52.789 37.973 4.633" fill="#9558b2" fill-opacity=".45"/><path d="M364.828 59.094l-9.133-42.938 46.59 47.504M354.117 11.98L294.355-8.805l116.06 14.723" fill="#389826" fill-opacity=".45"/><path d="M404.445 63.008L356.16 13.773l61.54-6.628" fill="#cb3c33" fill-opacity=".45"/><path d="M404.203 294.09l25.04 37.094-42.661 4.636M388.824 163.035l40.192 34.707-42.93-3.652" fill="#9558b2" fill-opacity=".45"/><path d="M394.613 258.086l-8.453-61.984 44.14 3.757M430.313 329.195l-24.575-36.406 29.125-3.64" fill="#389826" fill-opacity=".45"/><path d="M404.7 290.906l-8.891-27.554 37.332 24" fill="#9558b2" fill-opacity=".45"/><path d="M405.715 67.195l39.254 41.125-45.797 7.477" fill="#389826" fill-opacity=".45"/><path d="M431.98 200.945l22.536 38.5-58.22 19.723" fill="#4063d8" fill-opacity=".45"/><path d="M435.535 286.512l-39.25-25.23 57.942-19.626" fill="#389826" fill-opacity=".45"/><path d="M418.883 4.977L301.566-9.906l154.961.875" fill="#4063d8" fill-opacity=".45"/><path d="M398.691 118.465l62.008 31.004-71.402 10.332" fill="#cb3c33" fill-opacity=".45"/><path d="M446.379 110.113l15.672 37.793-60.836-30.418" fill="#4063d8" fill-opacity=".45"/><path d="M431.79 197.496l-41.478-35.82 71.641-10.367" fill="#389826" fill-opacity=".45"/><path d="M419.574 7.91l45.367 42.531-58.597 13.23" fill="#9558b2" fill-opacity=".45"/><path d="M461.11-8.602l4.683 57.098-44.93-42.121" fill="#389826" fill-opacity=".45"/><path d="M446.59 107.121L406.94 65.586 465.47 52.37" fill="#cb3c33" fill-opacity=".45"/><path d="M385.027 338.008l66.649 5.996-89.309-2.664" fill="#389826" fill-opacity=".45"/><path d="M430.926 333.016l42.039 10.898-77.848-7.008" fill="#cb3c33" fill-opacity=".45"/><path d="M436.73 290.414l45.477 53.828-50.117-12.992M467.863 49.316L463.41-5.035l22.274 43.656" fill="#9558b2" fill-opacity=".45"/><path d="M463.96 147.293l-15.69-37.84 37.843-20.305" fill="#389826" fill-opacity=".45"/><path d="M467.234 53.387l19.38 33.222-37.837 20.301" fill="#9558b2" fill-opacity=".45"/><path d="M486.035 40.746l.883 42.418-18.555-31.816" fill="#4063d8" fill-opacity=".45"/><path d="M486.332 35.488L463.879-8.52l26.043 6.29M464.406 151.207l28.266 10.027-57.442 34.649" fill="#cb3c33" fill-opacity=".45"/><path d="M487.41 91.363l6.445 68.172-28.558-10.137" fill="#9558b2" fill-opacity=".45"/><path d="M456.3 241.875l42.387 48.98-61.222-3.765" fill="#4063d8" fill-opacity=".45"/><path d="M484.566 343.938l-46.293-54.797 61.41 3.78M456.25 238.45l-22.535-38.497 68.543-1.879" fill="#389826" fill-opacity=".45"/><path d="M494.39 162.535l9.305 33.5-67.93 1.86" fill="#9558b2" fill-opacity=".45"/><path d="M500.547 289.95l-42.258-48.833 55.402 2.817" fill="#389826" fill-opacity=".45"/><path d="M504.383 198.871l9.363 43.063-55.234-2.809" fill="#4063d8" fill-opacity=".45"/><path d="M495.762 158.418l-6.578-69.52 41.336 25.368M491.863-1.523l41.684 18.527-45.387 20.379" fill="#389826" fill-opacity=".45"/><path d="M501.574 293.586l39.363 26.242-54.359 24.367" fill="#4063d8" fill-opacity=".45"/><path d="M505.422 194.781l-9.227-33.219 51.672-23.07" fill="#389826" fill-opacity=".45"/><path d="M532.035 115.57l17.328 20.067-51.07 22.797M515.758 243.984l39.512-.922-52.375 45.946" fill="#cb3c33" fill-opacity=".45"/><path d="M542.3 318.332l-39.66-26.441 53.829-47.215" fill="#389826" fill-opacity=".45"/><path d="M531.473 112.504l-41.641-25.555 67.191-46.37" fill="#9558b2" fill-opacity=".45"/><path d="M488.96 85.121l-.94-45.137 67.703-.937" fill="#389826" fill-opacity=".45"/><path d="M535.813 18.18l20.648 18.855-64.645.899" fill="#cb3c33" fill-opacity=".45"/><path d="M350.98 343.004l168.313 20.644-217.54-16.671" fill="#389826" fill-opacity=".45"/><path d="M484.848 346.996l65.312 18.422-177.52-21.773" fill="#cb3c33" fill-opacity=".45"/><path d="M542.473 321.332l18.808 45.145-73.36-20.692" fill="#389826" fill-opacity=".45"/><path d="M557.18 241.02l-39.196.91 46.489-36.461" fill="#9558b2" fill-opacity=".45"/><path d="M515.637 241.23l-9.367-43.101 57.152 5.621" fill="#389826" fill-opacity=".45"/><path d="M550.496 138.328l14.227 63.543-57.852-5.691" fill="#cb3c33" fill-opacity=".45"/><path d="M566.328 199.879l-13.578-60.633 28.055 28.961" fill="#4063d8" fill-opacity=".45"/><path d="M558.715 243.574l21.902 12.778-35.59 58.398" fill="#cb3c33" fill-opacity=".45"/><path d="M566.184 207.074l14.125 46.781-21.184-12.359" fill="#389826" fill-opacity=".45"/><path d="M536.168 15.98L498.152-.918l84.48 12.676" fill="#4063d8" fill-opacity=".45"/><path d="M559.04 36.68l-20.692-18.89 49.476-4.497" fill="#389826" fill-opacity=".45"/><path d="M590.313 13.848l4.48 25.086-33.152-1.793" fill="#cb3c33" fill-opacity=".45"/><path d="M582.148 257.676l21.313 24.094-57.45 35.21M563.64 366.938l-18.394-44.149 57.945 40.469" fill="#9558b2" fill-opacity=".45"/><path d="M604.023 283.773l.954 78.293-60.153-42.011" fill="#cb3c33" fill-opacity=".45"/><path d="M551.223 134.727l-17.254-19.977 69.015-9.082" fill="#389826" fill-opacity=".45"/><path d="M559.316 40.102l46.868 63.128-72.696 9.567" fill="#cb3c33" fill-opacity=".45"/><path d="M595.16 40.957l11.059 58.965-45.149-60.809" fill="#389826" fill-opacity=".45"/><path d="M581.652 166.203l-29.03-29.965L606 106.27" fill="#cb3c33" fill-opacity=".45"/><path d="M582.395 169.54l28.32 21.01-42.938 10.966" fill="#389826" fill-opacity=".45"/><path d="M582.21 253.234l-14.952-49.523 43.922-11.215" fill="#4063d8" fill-opacity=".45"/><path d="M590.902 10.973L503.82-2.09l126.266-.87" fill="#389826" fill-opacity=".45"/><path d="M596.629 37.824l-4.496-25.164 40.445-14.383" fill="#9558b2" fill-opacity=".45"/><path d="M608.102 106.406l31.253 61.567-55.878-.95" fill="#389826" fill-opacity=".45"/><path d="M612.984 189.742l-27.886-20.691 53.07.902M608.477 101.113L597.203 41h45.086" fill="#cb3c33" fill-opacity=".45"/><path d="M635.379-1.828L642.8 39h-44.54" fill="#4063d8" fill-opacity=".45"/><path d="M605.238 280.762l-20.93-23.66 62.794 2.73" fill="#389826" fill-opacity=".45"/><path d="M613.07 193.176l36.184 64.746-65.7-2.856M650.402 260.418l6.239 19.61-47.239.89" fill="#cb3c33" fill-opacity=".45"/><path d="M640.672 170.531l20.187 38.535-45.879-18.351" fill="#9558b2" fill-opacity=".45"/><path d="M650.64 256.309l-35.39-63.332 46.566 18.628" fill="#389826" fill-opacity=".45"/><path d="M640.809 166.414l-31.383-61.812 58.008-18.067" fill="#cb3c33" fill-opacity=".45"/><path d="M643.996 42.05l23.531 42.36-57.422 17.887" fill="#9558b2" fill-opacity=".45"/><path d="M606.984 362.605l-.957-78.296 62.063 57.289" fill="#389826" fill-opacity=".45"/><path d="M657.18 282.016l11.246 57.171-60.918-56.234" fill="#9558b2" fill-opacity=".45"/><path d="M669.07 83.07l-23.136-41.644 44.421 9.254" fill="#389826" fill-opacity=".45"/><path d="M691.02 48.773l-44.98-9.37 45.917-44.981" fill="#cb3c33" fill-opacity=".45"/><path d="M644.648 37.965l-7.464-41.047 53.175-3.73" fill="#389826" fill-opacity=".45"/><path d="M691.113 53.172l1.809 50.613-22.598-18.98" fill="#4063d8" fill-opacity=".45"/><path d="M662.863 208.586l-20.574-39.281 49.566-35.535" fill="#cb3c33" fill-opacity=".45"/><path d="M669.219 87.5l23.48 43.203-49.773 35.688" fill="#389826" fill-opacity=".45"/><path d="M693 106.465v20.601l-20.602-37.902" fill="#cb3c33" fill-opacity=".45"/><path d="M658.527 279.36l-6.218-19.548 40.875-6.218" fill="#389826" fill-opacity=".45"/><path d="M663.492 213.16l31.61 38.117-42.766 6.508M670.668 340.219l-11.129-56.574 39.879 34.316" fill="#4063d8" fill-opacity=".45"/><path d="M696.113 253.906l3.746 61.793-40.261-34.64" fill="#cb3c33" fill-opacity=".45"/><path d="M700.781 319.434l12.407 17.722-39.88 3.547M693.883 134.074l20.82 69.09-50.16 6.625" fill="#389826" fill-opacity=".45"/><path d="M696.691 250.063l-31.765-38.31 49.52-6.538" fill="#9558b2" fill-opacity=".45"/><path d="M693.941-4.684l41.832 65.07-42.761-11.156" fill="#389826" fill-opacity=".45"/><path d="M694.918 103.668l-1.871-52.36 43.012 11.22" fill="#cb3c33" fill-opacity=".45"/><path d="M695 129.34v-22.395l47.48-2.687" fill="#9558b2" fill-opacity=".45"/><path d="M737.414 64l8.36 38.066-49.212 2.786" fill="#389826" fill-opacity=".45"/><path d="M714.96 336.203l-12.55-17.93 41.242-26.894" fill="#cb3c33" fill-opacity=".45"/><path d="M701.895 316.223l-3.77-62.18 47.105 33.918" fill="#389826" fill-opacity=".45"/><path d="M670.004 343.055l76.062 25.66-134.714-5.496" fill="#4063d8" fill-opacity=".45"/><path d="M714.676 339.031l33.644 28.336-73.488-24.793" fill="#cb3c33" fill-opacity=".45"/><path d="M746.223 291.07l5.605 76.637-35.512-29.906" fill="#389826" fill-opacity=".45"/><path d="M716.414 201.902L695.5 132.508l61.79 19.012" fill="#9558b2" fill-opacity=".45"/><path d="M746.34 104.48l11.262 45.043-60.997-18.77" fill="#4063d8" fill-opacity=".45"/><path d="M716.336 205.871L756.762 251h-58.29" fill="#cb3c33" fill-opacity=".45"/><path d="M746.48 286.395L700.102 253h57.511" fill="#9558b2" fill-opacity=".45"/><path d="M758.313 153.434l4.585 34.863-44.035 13.762" fill="#cb3c33" fill-opacity=".45"/><path d="M758.188 249.594l-40.407-45.102 45.106-14.097" fill="#389826" fill-opacity=".45"/><path d="M737.844 59.906L694.848-6.977l72.617.957" fill="#cb3c33" fill-opacity=".45"/><path d="M769.43-5.512l13.12 8.746-40.237 51.61" fill="#4063d8" fill-opacity=".45"/><path d="M753.918 368.832l-5.59-76.36 39.113 70.774" fill="#9558b2" fill-opacity=".45"/><path d="M759.66 149.52l-11.07-44.29 42.441 27.68" fill="#389826" fill-opacity=".45"/><path d="M759.445 253.828L793.54 287h-45.152" fill="#4063d8" fill-opacity=".45"/><path d="M788.3 360.672L748.696 289h46.207" fill="#cb3c33" fill-opacity=".45"/><path d="M792.145 131.246l-42.915-27.984 46.645-16.793" fill="#9558b2" fill-opacity=".45"/><path d="M747.734 101.672l-8.355-38.063 54.773 21.352M764.848 187.773l-4.54-34.507 35.415 27.242" fill="#4063d8" fill-opacity=".45"/><path d="M792.16 134.578l4.606 44.211-35.922-27.633M764.938 189.805l31.105-7.317-35.676 64.95M783.906 4.75l19.602 31.738-62.547 23.34" fill="#cb3c33" fill-opacity=".45"/><path d="M796.215 83.621l-55.41-21.601 62.925-23.477M795.68 286.293l-33.067-32.172 42 12.508" fill="#389826" fill-opacity=".45"/><path d="M797.309 184.336l7.558 80.281-44.394-13.222" fill="#9558b2" fill-opacity=".45"/><path d="M806.574 261.43l-7.398-78.621 29.597 16.648" fill="#4063d8" fill-opacity=".45"/><path d="M829.309 203.89l2.66 41.63-23.918 17.714" fill="#389826" fill-opacity=".45"/><path d="M797.898 86.242l35.047 8.301-38.734 35.969" fill="#4063d8" fill-opacity=".45"/><path d="M784.2 1.93l-12.036-8.02 55.36-1.605" fill="#cb3c33" fill-opacity=".45"/><path d="M805.063 35.2L785.59 3.671l50.07-11.129" fill="#389826" fill-opacity=".45"/><path d="M805.79 38.36l39.96 14.87-47.398 29.743" fill="#9558b2" fill-opacity=".45"/><path d="M834.328 92.813l-34.773-8.235 46.668-29.281M837.398-6.445l9.34 57.91-40.164-14.945M829.688 197.676l-29.122-16.38 50.055-14.562" fill="#cb3c33" fill-opacity=".45"/><path d="M798.871 179.707l-4.68-44.937 56.172 29.957" fill="#4063d8" fill-opacity=".45"/><path d="M834.445 95.879l17.032 67.176-56.77-30.278M796.883 289.3l55.125 16.157-61.778 56.074" fill="#389826" fill-opacity=".45"/><path d="M806.375 267.594l43.137 35.05-52.125-15.28" fill="#cb3c33" fill-opacity=".45"/><path d="M832.512 247.605l19.351 54.368-44.234-35.938" fill="#9558b2" fill-opacity=".45"/><path d="M853.418 306.879L866.734 363H791.59" fill="#cb3c33" fill-opacity=".45"/><path d="M854.648 303.84l-19.07-53.578 44.496 48.129" fill="#389826" fill-opacity=".45"/><path d="M881.707 297.21l-46.293-50.073 67.078 3.781" fill="#4063d8" fill-opacity=".45"/><path d="M903.02 248.941l-66.973-3.77 67.918-45.276" fill="#389826" fill-opacity=".45"/><path d="M833.887 244.207l-2.82-44.223 70.562-.937" fill="#cb3c33" fill-opacity=".45"/><path d="M853.285 166.363l48.344 30.68-69.727.93M868.605 362.215l-13.117-55.277 48.719 26.234" fill="#389826" fill-opacity=".45"/><path d="M881.563 300.117l21.167 29.988-45.863-24.695" fill="#9558b2" fill-opacity=".45"/><path d="M913.016 45.098l-62.203 6.597L913.957-8.62" fill="#cb3c33" fill-opacity=".45"/><path d="M848.684 50.965l-9.516-58.996 73.266-1.903M848.61 54.383l62.8 29.058-74.984 9.371" fill="#389826" fill-opacity=".45"/><path d="M913.027 47.11l.93 35.304-62.25-28.8" fill="#9558b2" fill-opacity=".45"/><path d="M904.336 196.395L855.12 165.16l62.469-27.45" fill="#4063d8" fill-opacity=".45"/><path d="M853.68 163.61L836.508 95.87l80.14 40.07" fill="#9558b2" fill-opacity=".45"/><path d="M914.082 85.121l3.785 49.195-79.465-39.734" fill="#cb3c33" fill-opacity=".45"/><path d="M919.445 138.563l12.352 19.41-24.703 35.293M905.973 199.39l29.355 10.094-30.273 37.61" fill="#9558b2" fill-opacity=".45"/><path d="M932.223 160.855l3.66 46.704-29.301-10.075" fill="#cb3c33" fill-opacity=".45"/><path d="M915.988-10.223l20.387-5.32-21.273 55.848" fill="#389826" fill-opacity=".45"/><path d="M906.02 334.273l31.27 23.914-66.22 4.598" fill="#4063d8" fill-opacity=".45"/><path d="M932.8 155.824l-12.421-19.523 27.508-17.75" fill="#389826" fill-opacity=".45"/><path d="M919.867 134.25l-3.676-47.805 32.176 29.418" fill="#4063d8" fill-opacity=".45"/><path d="M936.77 210.879l18.632 40.059-49.375-1.864M904.328 251.71l60.73 58.833-81.605-12.336" fill="#389826" fill-opacity=".45"/><path d="M956.16 252.969l10.293 56.14-59.883-58.011M906.387 331.813l-22.219-31.473 79.613 12.035" fill="#cb3c33" fill-opacity=".45"/><path d="M939.715 357.523l-31.617-24.18 57.656-19.527" fill="#389826" fill-opacity=".45"/><path d="M949.516 114.2L916.68 84.18l51.597-30.02" fill="#9558b2" fill-opacity=".45"/><path d="M915.957 82.29l-.926-35.173 51.828 5.551" fill="#389826" fill-opacity=".45"/><path d="M938.09-14.43l30.258 65.246-52.953-5.671" fill="#cb3c33" fill-opacity=".45"/><path d="M969.895 55.695l10.94 43.77-29.179 14.59M968.598 309.707l-9.907-54.035 27.016 33.32" fill="#4063d8" fill-opacity=".45"/><path d="M969.941 49.5L940.11-14.828 986.723 8.48" fill="#9558b2" fill-opacity=".45"/><path d="M957.531 250.77l-18.242-39.22 48.34 29.188" fill="#4063d8" fill-opacity=".45"/><path d="M986.16 286.379l-27.472-33.887 30.222-10.074" fill="#9558b2" fill-opacity=".45"/><path d="M981.918 95.543l-10.73-42.918 21.457-8.05" fill="#389826" fill-opacity=".45"/><path d="M987.605 11.61l5.27 30.745-21.082 7.907" fill="#4063d8" fill-opacity=".45"/><path d="M950.41 117.656l42.047 35.504-57.934 3.738" fill="#cb3c33" fill-opacity=".45"/><path d="M981.32 101.457l11.992 49.809-41.507-35.051" fill="#9558b2" fill-opacity=".45"/><path d="M937.832 206.832l-3.754-47.898 58.23-3.758" fill="#389826" fill-opacity=".45"/><path d="M968.16 313.688l36.703 41.406-63.054 2.824" fill="#4063d8" fill-opacity=".45"/><path d="M986.578 291.082l18.168 60.871-35.43-39.976" fill="#9558b2" fill-opacity=".45"/><path d="M989.559 239.566L939.32 209.23l76.782-27.488" fill="#389826" fill-opacity=".45"/><path d="M994.938 155.438l21.335 24.117-75.14 26.902M994.648 44.777l52.04 40.684-63.395 13.246" fill="#cb3c33" fill-opacity=".45"/><path d="M995.492 151.773l-12.277-51.003 63.281-13.227" fill="#389826" fill-opacity=".45"/><path d="M1018.219 178.738l-20.602-23.289 48.371 8.063" fill="#9558b2" fill-opacity=".45"/><path d="M1048 88.867v72.953l-51.16-8.527" fill="#4063d8" fill-opacity=".45"/><path d="M1048.27 84.16l-49.59-38.77 53.199 15.329" fill="#9558b2" fill-opacity=".45"/><path d="M1018.273 181.8l32.98 36.75-59.362 20.731" fill="#cb3c33" fill-opacity=".45"/><path d="M1048.113 164.625l3.68 51.535-32.207-35.89M990.914 242.383l61.14 21.637-63.96 23.511" fill="#389826" fill-opacity=".45"/><path d="M1052.063 220.387l1.87 42.175-60.917-21.554" fill="#9558b2" fill-opacity=".45"/><path d="M1042.348 353.035l-32.36 1.797 51.235-42.246" fill="#cb3c33" fill-opacity=".45"/><path d="M1007.527 354.27l-19.062-63.856 73.387 19.063" fill="#4063d8" fill-opacity=".45"/><path d="M1054.25 265.34l8.457 42.289-72.363-18.793" fill="#9558b2" fill-opacity=".45"/><path d="M1052.344 58.77L996.93 42.805l70.441-30.996" fill="#389826" fill-opacity=".45"/><path d="M994.77 41.57L989.19 9.031l75.305 1.86" fill="#cb3c33" fill-opacity=".45"/><path d="M1068.39 8.984l-73.562-1.816 86.277-23.613" fill="#4063d8" fill-opacity=".45"/><path d="M988.105 6.934L942.18-16.027l133.187-.922M1064.168 311l25.07 36.21-44.566 5.575" fill="#389826" fill-opacity=".45"/><path d="M1053.809 216.297l-3.727-52.164 40.055 4.656" fill="#cb3c33" fill-opacity=".45"/><path d="M1091.242 170.637l3.676 39.547-39.543 7.359" fill="#389826" fill-opacity=".45"/><path d="M1064.5 306.406l-8.3-41.52 37.823-3.687" fill="#cb3c33" fill-opacity=".45"/><path d="M1055.953 262.902l-1.844-41.46 39.621 37.773" fill="#389826" fill-opacity=".45"/><path d="M1095 212.203v45.461l-39.895-38.039" fill="#4063d8" fill-opacity=".45"/><path d="M1053.89 60.797l39.59-10.555-43.109 33.43" fill="#cb3c33" fill-opacity=".45"/><path d="M1069.367 12.129l26.93 35.289-41.785 11.145" fill="#9558b2" fill-opacity=".45"/><path d="M1082.645-15.05l13.363 58.788-25.836-33.847" fill="#389826" fill-opacity=".45"/><path d="M1090.691 345.797l-25.136-36.305 42.824-15.828" fill="#cb3c33" fill-opacity=".45"/><path d="M1095.824 262.098l12.836 29.332-42.168 15.582M1091.402 166.922l-39.636-4.606 61.757-42.402" fill="#389826" fill-opacity=".45"/><path d="M1050 161.102V87.566l63.984 29.602" fill="#cb3c33" fill-opacity=".45"/><path d="M1097.414 49.719l17.082 65.484-63.586-29.422" fill="#389826" fill-opacity=".45"/><path d="M1096.898 209.863l-3.652-39.25 35.602 34.684" fill="#cb3c33" fill-opacity=".45"/><path d="M1098.523 45.793l-14.226-62.594 58.8 8.535M1110.21 289.984l-12.858-29.394 45.007-15.617" fill="#9558b2" fill-opacity=".45"/><path d="M1097 258.594v-45.746l45.746 29.875" fill="#389826" fill-opacity=".45"/><path d="M1130.348 207.102l12.632 33.382-44.21-28.87" fill="#4063d8" fill-opacity=".45"/><path d="M1116.379 118.543l30.684 23.242-52.997 24.172" fill="#cb3c33" fill-opacity=".45"/><path d="M1130.492 204.11l-36.746-35.805 53.707-24.5" fill="#4063d8" fill-opacity=".45"/><path d="M1110.344 294.098l39.66 51.933-57.602.946" fill="#9558b2" fill-opacity=".45"/><path d="M1116.352 114.39l-17.024-65.265 52.024 4.73" fill="#cb3c33" fill-opacity=".45"/><path d="M1144.305-6.582l7.543 58.473-51.871-4.715" fill="#389826" fill-opacity=".45"/><path d="M1144.602 245.281l13.074 46.692-45.762-.934" fill="#cb3c33" fill-opacity=".45"/><path d="M1151.32 344.46l-39.265-51.417 45.808.934M1148.586 140.43l-30.633-23.203 50.125-22.278" fill="#389826" fill-opacity=".45"/><path d="M1152.863 55.234l15.832 37.25-50.289 22.352" fill="#4063d8" fill-opacity=".45"/><path d="M1145.48 241.441l-12.894-34.078 46.969 10.133" fill="#389826" fill-opacity=".45"/><path d="M1149.207 144.953l31.09 70.656-48.047-10.363" fill="#9558b2" fill-opacity=".45"/><path d="M1153.73 50.855l-7.468-57.882 40.144 25.207M1090.96 349.012l80.08 16.18-118.903-11.325" fill="#cb3c33" fill-opacity=".45"/><path d="M1151.75 348.004l32.082 17.73-83.582-16.886" fill="#389826" fill-opacity=".45"/><path d="M1159.781 294.75l32.477 22.266-38.973 27.836" fill="#4063d8" fill-opacity=".45"/><path d="M1189.125 366.375l-35.254-19.484 38.965-27.829" fill="#9558b2" fill-opacity=".45"/><path d="M1159.543 291.234l-13.066-46.664 48.53 16.797" fill="#4063d8" fill-opacity=".45"/><path d="M1181.484 218.586l13.91 40.8-48.218-16.69" fill="#cb3c33" fill-opacity=".45"/><path d="M1193.098 315.168l-32.45-22.25 35.23-29.664" fill="#9558b2" fill-opacity=".45"/><path d="M1170.234 90.996l-15.847-37.293 52.203-12.117" fill="#cb3c33" fill-opacity=".45"/><path d="M1187.984 19.43l19.082 19.992-50.886 11.812M1170.61 94.117l44.53 7.418-64.011 38.035" fill="#4063d8" fill-opacity=".45"/><path d="M1208.367 42.55l8.442 57.24-45.04-7.509" fill="#389826" fill-opacity=".45"/><path d="M1182.234 215.05l-31.328-71.198 65.504 26.582" fill="#cb3c33" fill-opacity=".45"/><path d="M1217 102.758v65.758l-65.758-26.684" fill="#389826" fill-opacity=".45"/><path d="M1219 168.781v-58.867l12.797 56.309M1197.879 263.293l33.445 33.445-36.234 18.578" fill="#cb3c33" fill-opacity=".45"/><path d="M1232.676 161.07l-13.528-59.527 21.645-10.824" fill="#389826" fill-opacity=".45"/><path d="M1218.79 99.488l-8.157-55.273 29.902 44.398" fill="#cb3c33" fill-opacity=".45"/><path d="M1197.676 259.883l-13.832-40.57 55.324 34.117" fill="#389826" fill-opacity=".45"/><path d="M1232.398 294.984l-33.296-33.3 41.625-6.473" fill="#9558b2" fill-opacity=".45"/><path d="M1188.215 16.953l-38.309-24.055 89.09 16.036" fill="#389826" fill-opacity=".45"/><path d="M1209.066 38.621l-19.023-19.93 51.64-8.156" fill="#9558b2" fill-opacity=".45"/><path d="M1218.09 171.531l27.004 27.934-60.528 15.832" fill="#389826" fill-opacity=".45"/><path d="M1241.152 252.305l-56.636-34.93 61.355-16.047" fill="#4063d8" fill-opacity=".45"/><path d="M1232.398 168.14l11.579 27.294-23.985-24.813" fill="#9558b2" fill-opacity=".45"/><path d="M1194.902 318.285l54.496 15.035-58.253 32.887" fill="#4063d8" fill-opacity=".45"/><path d="M1232.578 298.34l17.457 33.082-53.293-14.703" fill="#389826" fill-opacity=".45"/><path d="M1241.676 86.727l-30.742-45.645 44.714 1.863" fill="#9558b2" fill-opacity=".45"/><path d="M1244.555 10.703l10.996 30.235-43.98-1.833" fill="#cb3c33" fill-opacity=".45"/><path d="M1247.672 199.02l-12.348-29.106 41.453 29.988" fill="#389826" fill-opacity=".45"/><path d="M1247.91 201.027l30.184.914-34.758 48.48M1242.867 90.2l36.457 7.476-44.867 65.433" fill="#cb3c33" fill-opacity=".45"/><path d="M1257.145 44.832l22.168 50.8-36.024-7.39" fill="#389826" fill-opacity=".45"/><path d="M1279.688 199.54l-43.532-31.493 61.13.926" fill="#cb3c33" fill-opacity=".45"/><path d="M1280.574 99.39l17.137 67.59-62.832-.953M1252.273 333.996l45.766-.863-99.305 31.086" fill="#389826" fill-opacity=".45"/><path d="M1252.598 331.988l-17.29-32.754 65.508 31.844" fill="#cb3c33" fill-opacity=".45"/><path d="M1280.004 202.71l24.336 33.696-59.902 15.91M1257.574 40.648l-11.09-30.496 64.684 6.47" fill="#389826" fill-opacity=".45"/><path d="M1281.277 95.133l-22.539-51.653 54.465 14.09" fill="#9558b2" fill-opacity=".45"/><path d="M1314 17.543v38.164l-53.988-13.96" fill="#cb3c33" fill-opacity=".45"/><path d="M1242.746 255.316l73.34 25.387-81.8 15.043" fill="#389826" fill-opacity=".45"/><path d="M1304.375 330.582l-68.2-33.148 82.407-15.157M1305.336 238.21l13.105 41.192-73.02-25.277" fill="#4063d8" fill-opacity=".45"/><path d="M1314.492 14.945l-63.93-6.394 82.196-21.918" fill="#cb3c33" fill-opacity=".45"/><path d="M1244.957 7.977l-90.426-16.278 171.809-5.426" fill="#9558b2" fill-opacity=".45"/><path d="M1299.313 169.465l34.007 24.816-51.472 5.516" fill="#4063d8" fill-opacity=".45"/><path d="M1305.996 235.285l-24.176-33.472 52.07-5.583M1320.664 282.293l17.676 6.187-30.938 38.891M1305.02 333.043l36.203 9.71-137.735 22.071" fill="#cb3c33" fill-opacity=".45"/><path d="M1339.27 290.523l5.578 51.133-38.118-10.226" fill="#9558b2" fill-opacity=".45"/><path d="M1316 56.285V19.531l28.684 46.617" fill="#389826" fill-opacity=".45"/><path d="M1334.39-12.215l10.93 75.574-29.136-47.347" fill="#9558b2" fill-opacity=".45"/><path d="M1299.777 167l-16.925-66.77 67.71 66.77" fill="#cb3c33" fill-opacity=".45"/><path d="M1335.723 193.563L1302.066 169h49.121" fill="#9558b2" fill-opacity=".45"/><path d="M1314.984 58.566l36.704 45.176-68.704-7.531" fill="#389826" fill-opacity=".45"/><path d="M1346.125 68.758l6.156 32.543-34.3-42.219" fill="#cb3c33" fill-opacity=".45"/><path d="M1352.04 165.645l-68.29-67.336 69.234 7.586" fill="#9558b2" fill-opacity=".45"/><path d="M1339.785 286.867l-16.773-5.87 40.261-14.263" fill="#389826" fill-opacity=".45"/><path d="M1320.64 279.71l-13.019-40.913 57.652 25.105" fill="#cb3c33" fill-opacity=".45"/><path d="M1335.816 196.98l30.168 65.051-58.453-25.453M1346.8 341.129l-5.562-50.996 37.086 26.887" fill="#389826" fill-opacity=".45"/><path d="M1367.39 265.84l11.047 48.793-36.824-26.7" fill="#4063d8" fill-opacity=".45"/><path d="M1347.441 64.078l-11.304-78.195 43.34-4.711" fill="#cb3c33" fill-opacity=".45"/><path d="M1354.707 103.352l-6.398-33.809 37.464 13.707M1354.973 106.785l37.39 23.371-38.328 35.52" fill="#389826" fill-opacity=".45"/><path d="M1387.21 84.703l5.532 43.332-36.879-23.05" fill="#cb3c33" fill-opacity=".45"/><path d="M1380.305 313.816l-11.082-48.941 34.168-3.695" fill="#9558b2" fill-opacity=".45"/><path d="M1353.39 169.254l49.278 20.988-64.79 3.649M1404.027 259.098l-34.254 3.703 36.106-67.578" fill="#389826" fill-opacity=".45"/><path d="M1368.063 261.758l-30.536-65.844 67.754-3.816M1393.39 131.93l12.231 57.394-50.809-21.64" fill="#cb3c33" fill-opacity=".45"/><path d="M1381.145-17.602l31.445 59.079-63.84 24.773" fill="#389826" fill-opacity=".45"/><path d="M1387.586 81.785l-37.75-13.812 61.691-23.942" fill="#4063d8" fill-opacity=".45"/><path d="M1345.953 344.02l66.86 17.168-207.81 5.421" fill="#389826" fill-opacity=".45"/><path d="M1379.871 318.36l37.207 41.859-68.836-17.676" fill="#cb3c33" fill-opacity=".45"/><path d="M1407.934 193.348l24.77 24.77-26.606 38.534M1414.168 40.188l-30.926-58.102 57.164 25.305" fill="#9558b2" fill-opacity=".45"/><path d="M1433.285 215.871l-24.828-24.828 32.184-28.504" fill="#cb3c33" fill-opacity=".45"/><path d="M1407.621 189.113l-12.152-57.015 44.867 28.043M1414.293 43.406l31.402 21.242-55.414 16.625" fill="#389826" fill-opacity=".45"/><path d="M1441.258 9.531l5.527 53.438-31.328-21.192M1441.246 158.352l-45.492-28.434 56.867-43.602" fill="#cb3c33" fill-opacity=".45"/><path d="M1394.773 128.148l-5.636-44.132 61.972.941" fill="#389826" fill-opacity=".45"/><path d="M1447.344 66.242l5.285 16.738-58.145-.882" fill="#cb3c33" fill-opacity=".45"/><path d="M1405.313 261.781l52.332 55.188-76.122-.95" fill="#4063d8" fill-opacity=".45"/><path d="M1420.008 360.504l-37.758-42.477 75.516.946" fill="#389826" fill-opacity=".45"/><path d="M1434.242 219.406l29.547 21.235-56.32 17.543" fill="#4063d8" fill-opacity=".45"/><path d="M1459.18 315.68l-52.348-55.203 58.055-18.082" fill="#389826" fill-opacity=".45"/><path d="M1459.324 320.23l5.528 36.868-42.395 3.683" fill="#9558b2" fill-opacity=".45"/><path d="M1454.742 83.023l-5.043-15.968 31.098 16.808" fill="#389826" fill-opacity=".45"/><path d="M1454.852 85.027l28.453.918-39.47 68.844M1466.867 242.754l17.895 11.633-23.266 57.27M1484.574 83.633L1450.27 65.09l56.558-25.035" fill="#9558b2" fill-opacity=".45"/><path d="M1448.852 63.527l-5.676-54.882 63.398 29.335" fill="#4063d8" fill-opacity=".45"/><path d="M1484.785 87.387l27.75 78.465-68.898-6.696M1466.79 356.512l-5.563-37.078 50.054 15.757" fill="#cb3c33" fill-opacity=".45"/><path d="M1508.336 36.59l-60.367-27.93 65.77 7.207" fill="#389826" fill-opacity=".45"/><path d="M1486.297 255.926l27.148 32.765-51.488 27.145" fill="#cb3c33" fill-opacity=".45"/><path d="M1513.027 333.645l-50.441-15.88 51.379-27.09" fill="#389826" fill-opacity=".45"/><path d="M1442.777 161.68l70.371 44.695-77.976 10.46" fill="#4063d8" fill-opacity=".45"/><path d="M1513.043 167.91l1.863 37.211-68.836-43.719M1466.016 239.781l-29.391-21.125 75.313-10.101" fill="#389826" fill-opacity=".45"/><path d="M1485.7 252.613l-17.895-11.633 44.734-30.417" fill="#4063d8" fill-opacity=".45"/><path d="M1516.906 205.121l-1.77-35.41 20.36 22.133M1514.477 165.352l-26.97-76.262 53.013 55.8" fill="#9558b2" fill-opacity=".45"/><path d="M1536.238 189.695l-20.77-22.578 25.286-19.867" fill="#cb3c33" fill-opacity=".45"/><path d="M1509.129 39.95l39.625 57.55-62.27-13.207" fill="#4063d8" fill-opacity=".45"/><path d="M1541.39 142.906l-53.445-56.258 61.883 13.125" fill="#389826" fill-opacity=".45"/><path d="M1515.031 287.469l-27.027-32.621 60.582-4.66" fill="#9558b2" fill-opacity=".45"/><path d="M1516.105 208.691l32.887 39.461-61.07 4.696" fill="#389826" fill-opacity=".45"/><path d="M1536.379 193.672l12.617 51.36-31.539-37.845M1515.55 16.855l41.032 37.465-46.387-16.949" fill="#cb3c33" fill-opacity=".45"/><path d="M1550.547 96.582l-38.945-56.566 48.218 17.617" fill="#389826" fill-opacity=".45"/><path d="M1515.96 290.758l42.778 26.035-43.707 16.742" fill="#4063d8" fill-opacity=".45"/><path d="M1550.32 251.25l9.38 63.79-43.15-26.267M1514.887 13.98l-62.254-6.82 107.453-8.527" fill="#cb3c33" fill-opacity=".45"/><path d="M1442.172 5.984l-55.207-24.437L1556.21-3.066M1560.234 54.945l-43.308-39.543 49.898-16.945M1560.625 318.215l7.574 10.941-47.133 4.211M1542.86 146.36l42.808 14.886-47.461 28.848" fill="#389826" fill-opacity=".45"/><path d="M1551.48 101.754l34.254 57.398-42.586-14.812M1570.07 328.344l-7.625-11.016 31.344-17.789" fill="#cb3c33" fill-opacity=".45"/><path d="M1561.777 315.41l-9.347-63.566 43.933 43.933" fill="#389826" fill-opacity=".45"/><path d="M1514.113 336.055l76.11 18.12-119.602 2.72" fill="#4063d8" fill-opacity=".45"/><path d="M1569.656 331.035l24.727 22.074-74.176-17.66" fill="#cb3c33" fill-opacity=".45"/><path d="M1597 298.79v53.976l-25.617-22.871" fill="#4063d8" fill-opacity=".45"/><path d="M1551.719 247.734l-13.133-53.476 59.105 39.402" fill="#389826" fill-opacity=".45"/><path d="M1587.254 162.625l11.387 69.266-59.782-39.852" fill="#9558b2" fill-opacity=".45"/><path d="M1597.074 293.66l-44.191-44.191 46.074-14.102M1568.691-.281l35.543 50.508-42.093 5.613" fill="#cb3c33" fill-opacity=".45"/><path d="M1592.258-11.625l11.812 58.145-34.523-49.063" fill="#9558b2" fill-opacity=".45"/><path d="M1561.668 58.512l52.336 28.972-61.684 10.282" fill="#cb3c33" fill-opacity=".45"/><path d="M1605.285 52.105l10.059 33.836-51.211-28.351M1587.82 158.746l-35.21-59 62.808-10.469" fill="#389826" fill-opacity=".45"/><path d="M1600.39 230.223l-10.992-66.875 28.399 21.988M1600.95 235.594l35.41 17.703-37.274 40.066" fill="#4063d8" fill-opacity=".45"/><path d="M1618.848 188.164l17.582 62.934-35.168-17.586" fill="#389826" fill-opacity=".45"/><path d="M1599 352.66v-55.242l42.137 14.98" fill="#cb3c33" fill-opacity=".45"/><path d="M1637.195 255.336l4.676 55.203-42.101-14.973" fill="#9558b2" fill-opacity=".45"/><path d="M1617.098 90.46l30.39 61.731-57.93 7.598" fill="#cb3c33" fill-opacity=".45"/><path d="M1618.895 183.652l-28.383-21.972 55.847-7.325M1606.652 49.195l-12.312-60.613 59.668 22.73" fill="#389826" fill-opacity=".45"/><path d="M1648.496 149.715L1618.508 88.8l40.297-5.625" fill="#4063d8" fill-opacity=".45"/><path d="M1617.715 86.89l-10.043-33.777 49.297 28.301" fill="#cb3c33" fill-opacity=".45"/><path d="M1642.578 313.785l16.938 47.043-59.278-6.586M1638.184 249.938l-17.82-63.782 42.206 4.692" fill="#4063d8" fill-opacity=".45"/><path d="M1648.66 154.824l13.781 33.996-41.347-4.593" fill="#9558b2" fill-opacity=".45"/><path d="M1655.383 12.777l10.32 45.043-57.246-7.508" fill="#4063d8" fill-opacity=".45"/><path d="M1659.41 80.508l-48.531-27.86 54.82 7.192" fill="#9558b2" fill-opacity=".45"/><path d="M1655.918 9.898l-57.188-21.785 92.59 1.817" fill="#cb3c33" fill-opacity=".45"/><path d="M1667.79 59.84l24.273-5.86-30.133 25.11" fill="#389826" fill-opacity=".45"/><path d="M1667.75 57.79l-9.98-43.544 36.289 37.195" fill="#9558b2" fill-opacity=".45"/><path d="M1694.027-9.305l.934 58.809-37.336-38.274M1661.516 360.477l-16.754-46.54 51.187 24.2" fill="#389826" fill-opacity=".45"/><path d="M1660.723 83.871l44.507 35.984-54.925 31.25" fill="#cb3c33" fill-opacity=".45"/><path d="M1695.293 53.89l10.3 63.688-44.019-35.59" fill="#9558b2" fill-opacity=".45"/><path d="M1664.273 191.96l42.79 54.2-67.512 5.707" fill="#389826" fill-opacity=".45"/><path d="M1700.121 199.816l7.254 43.512-40.793-51.672" fill="#cb3c33" fill-opacity=".45"/><path d="M1700.207 197.777l-34.383-8.363 45.531-52.969" fill="#389826" fill-opacity=".45"/><path d="M1664.313 188.105l-13.977-34.476 59.629-18.633" fill="#cb3c33" fill-opacity=".45"/><path d="M1706.547 121.406l5.066 10.98-54.043 16.887" fill="#389826" fill-opacity=".45"/><path d="M1697.414 336.617l-51.926-24.547 69.864-28.324" fill="#cb3c33" fill-opacity=".45"/><path d="M1643.883 310.563l-4.754-56.083 75.094 27.567" fill="#4063d8" fill-opacity=".45"/><path d="M1708.219 248.07l7.394 32.356-73.031-26.809" fill="#cb3c33" fill-opacity=".45"/><path d="M1707.3 115.605l-10.16-62.82 31.41-6.465" fill="#389826" fill-opacity=".45"/><path d="M1696.98 50.777l-.921-58.199 32.332 51.73" fill="#cb3c33" fill-opacity=".45"/><path d="M1729.496 42.305l-32.84-52.54 44.098-6.57" fill="#389826" fill-opacity=".45"/><path d="M1698.125 339.113l41.316 15.27-74.55 6.285" fill="#cb3c33" fill-opacity=".45"/><path d="M1717.04 284.992l25.269 68.317-43.051-15.91M1750.137 131.023l-30.774.809 32.395-11.34" fill="#389826" fill-opacity=".45"/><path d="M1713.527 131.758l-4.98-10.793 38.18-.828" fill="#9558b2" fill-opacity=".45"/><path d="M1730.008 48.39l21.644 69.637-43.289.942" fill="#cb3c33" fill-opacity=".45"/><path d="M1709.656 244.867l-7.468-44.82 48.554 1.867" fill="#389826" fill-opacity=".45"/><path d="M1713.504 135.828l37.707 64.102-49.02-1.883" fill="#9558b2" fill-opacity=".45"/><path d="M1750.031 133.027l1.856 64.11-37.164-63.184" fill="#cb3c33" fill-opacity=".45"/><path d="M1717.566 279.992l-7.375-32.258 51.618-12.906" fill="#9558b2" fill-opacity=".45"/><path d="M1752.621 202.84l11.05 29.46-51.558 12.891M1743.918 351.89l-25.461-68.831 46.203 1.886" fill="#cb3c33" fill-opacity=".45"/><path d="M1764.047 235.402l.933 47.555-45.69-1.863" fill="#389826" fill-opacity=".45"/><path d="M1742.5-15.273l35.734 58.308-47.02.942" fill="#4063d8" fill-opacity=".45"/><path d="M1753.07 115.855l-21.718-69.882 47.214-.946" fill="#389826" fill-opacity=".45"/><path d="M1753.625 121.523l28.777 38.891-30.336-28.781" fill="#cb3c33" fill-opacity=".45"/><path d="M1753.938 198.867l-1.868-64.472 36.442 34.57" fill="#4063d8" fill-opacity=".45"/><path d="M1766.39 286.121l23.223 29.73-43.66 36.231" fill="#389826" fill-opacity=".45"/><path d="M1790.152 318.004l1.785 23.242-43.8 11.621" fill="#cb3c33" fill-opacity=".45"/><path d="M1765.457 231.375l-10.918-29.117 40.035 6.367" fill="#389826" fill-opacity=".45"/><path d="M1789.324 170.906l6.442 35.887-40.485-6.441" fill="#cb3c33" fill-opacity=".45"/><path d="M1779.852 41.844l-35.743-58.317 55.496 13.168" fill="#389826" fill-opacity=".45"/><path d="M1780.273 46.191l23.36 34.57-48.586 35.505" fill="#4063d8" fill-opacity=".45"/><path d="M1789.41 166.52l-35.008-47.305 49.2-35.953" fill="#9558b2" fill-opacity=".45"/><path d="M1790.402 313.61l-23.144-29.626 37.031-49.996" fill="#cb3c33" fill-opacity=".45"/><path d="M1766.941 281.047l-.921-47.117 37.878-2.774" fill="#9558b2" fill-opacity=".45"/><path d="M1796.574 209.602l7.977 19.5-36.344 2.66M1801.48-2.602l34.325 18.551L1782 41.926" fill="#cb3c33" fill-opacity=".45"/><path d="M1805.398 79.805L1782.7 46.207l54.485 22.703" fill="#389826" fill-opacity=".45"/><path d="M1837.059 17.566l1.882 49.91-56.504-23.542" fill="#9558b2" fill-opacity=".45"/><path d="M1805.758 82.496l33.738 16.871-47.793 65.598" fill="#389826" fill-opacity=".45"/><path d="M1839.047 70.383l.898 26.972-32.363-16.183M1797.668 206.07l-6.473-36.07h47.168" fill="#4063d8" fill-opacity=".45"/><path d="M1840 102.07V168h-48.035" fill="#9558b2" fill-opacity=".45"/><path d="M1793.023 343.027l46.094 10.059-87.16.836" fill="#389826" fill-opacity=".45"/><path d="M1793.941 341.18l-1.785-23.207 50.883 33.922" fill="#4063d8" fill-opacity=".45"/><path d="M1806.617 228.871l-8.02-19.605 61.481 9.804" fill="#389826" fill-opacity=".45"/><path d="M1840.688 170.613l23.546 47.094-64.988-10.363" fill="#cb3c33" fill-opacity=".45"/><path d="M1863.117 235.887l-50.46-6.09 52.202-9.57" fill="#9558b2" fill-opacity=".45"/><path d="M1847.633 352.555l-53.196-35.465 70.926 1.867" fill="#cb3c33" fill-opacity=".45"/><path d="M1806.703 231.777l73.145 54.86-87.578 27.91" fill="#389826" fill-opacity=".45"/><path d="M1863.27 237.918l16.656 46.277-70.34-52.754" fill="#cb3c33" fill-opacity=".45"/><path d="M1866.383 316.984l-69.442-1.828 83.145-26.496" fill="#9558b2" fill-opacity=".45"/><path d="M1866.398 217.566l-22.27-44.543 39.196 33.852" fill="#389826" fill-opacity=".45"/><path d="M1866.941 219.59l14.387-9.09-15.902 22.719" fill="#4063d8" fill-opacity=".45"/><path d="M1884.273 205.05l-40.757-35.198 46.316-2.782" fill="#cb3c33" fill-opacity=".45"/><path d="M1841.973 98.176l-.903-27.133 49.743 37.082M1890.066 165.055l-46.66 2.8 50.39-55.062" fill="#389826" fill-opacity=".45"/><path d="M1842 166.426v-66.203l51.07 10.406" fill="#cb3c33" fill-opacity=".45"/><path d="M1894.055 108.047l-52.203-38.914 54.101-29.426" fill="#9558b2" fill-opacity=".45"/><path d="M1840.938 67.352l-1.883-49.891 55.539 20.71" fill="#cb3c33" fill-opacity=".45"/><path d="M1867.395 319.398l29.214 17.344-46.562 15.52" fill="#389826" fill-opacity=".45"/><path d="M1881.84 289.629l15.34 45.129-28.88-17.149" fill="#cb3c33" fill-opacity=".45"/><path d="M1896.45 36.727l-52.145-19.442 59.215 2.649" fill="#389826" fill-opacity=".45"/><path d="M1838.273 15.012L1807.766-1.48l85.754 18.964" fill="#9558b2" fill-opacity=".45"/><path d="M1882.434 285.254l-16.746-46.52 47.449 18.61" fill="#389826" fill-opacity=".45"/><path d="M1884.934 208.836l27.699 46.16-47.086-18.465M1895.777 113.176l32.407 52.777-36.114-.926" fill="#9558b2" fill-opacity=".45"/><path d="M1891.746 167.809l36.95 27.714-42.493 10.16" fill="#389826" fill-opacity=".45"/><path d="M1929.031 167.977l.899 25.968-35.825-26.867" fill="#4063d8" fill-opacity=".45"/><path d="M1914.637 254.45l-28.078-46.794 43.05-10.297" fill="#cb3c33" fill-opacity=".45"/><path d="M1899.59 335.625l-15.98-47 66.738 23.5" fill="#389826" fill-opacity=".45"/><path d="M1914.828 258.508l35.598 51.527-66.512-23.422" fill="#cb3c33" fill-opacity=".45"/><path d="M1899.07 338.031l49.676 9.422-93.36 5.14" fill="#9558b2" fill-opacity=".45"/><path d="M1952.16 313.492l3.695 33.274-53.605-10.168M1904.852 17.941L1808.477-3.37l149.195-7.414M1897.934 40.445l62.812 66.621-64.719 1.903" fill="#cb3c33" fill-opacity=".45"/><path d="M1929.96 165.023l-33.202-54.074 64.508-1.898" fill="#4063d8" fill-opacity=".45"/><path d="M1931.285 198.848l30.04 61.007-45.055-3.753" fill="#9558b2" fill-opacity=".45"/><path d="M1952.477 309.48l-35.454-51.308 44.782 3.73" fill="#389826" fill-opacity=".45"/><path d="M1905.598 20.152l52.754 11.43-59.786 5.277" fill="#cb3c33" fill-opacity=".45"/><path d="M1962.063 105.55l-62.918-66.734 64.828-5.722" fill="#389826" fill-opacity=".45"/><path d="M1961.11-10.375l2.8 41.117-56.066-12.148" fill="#4063d8" fill-opacity=".45"/><path d="M1956.898 349.008l19.032 4.933-95.852-.707" fill="#389826" fill-opacity=".45"/><path d="M1963.445 259.645l-29.507-59.946 56.253 46.11M1983.258 353.773l-24.29-6.296 33.286-32.383" fill="#cb3c33" fill-opacity=".45"/><path d="M1957.77 345.86l-3.653-32.86h37.422" fill="#389826" fill-opacity=".45"/><path d="M1963.484 263.723L1992.223 311h-38.008" fill="#4063d8" fill-opacity=".45"/><path d="M1991.047 247.617l1.84 60.625-28.477-46.847M1991.309 244.14l-57.297-46.964 64.812 3.758" fill="#389826" fill-opacity=".45"/><path d="M1931.969 195.055l-.914-26.453 63.847 30.101" fill="#9558b2" fill-opacity=".45"/><path d="M1965.957 33.645l42.441 22.636-44.328 49.043" fill="#4063d8" fill-opacity=".45"/><path d="M2009.285 58.281l4.61 35.965-47.95 11.988M1963.277 109.55l52.375 44.763-83.8 11.425" fill="#cb3c33" fill-opacity=".45"/><path d="M1999.465 198.645l-65.985-31.11 82.954-11.312M2014.063 96.266l2.824 56.464-51.762-44.23M2009.238 54.46l-42.172-22.491 50.606-29.055" fill="#389826" fill-opacity=".45"/><path d="M1965.89 30.336l-2.8-41.063 53.195 12.133" fill="#cb3c33" fill-opacity=".45"/><path d="M1994.563 314l46.687 47.625-56.027-7.473" fill="#389826" fill-opacity=".45"/><path d="M2015.832 93.621l-4.594-35.828 41.34 22.047" fill="#9558b2" fill-opacity=".45"/><path d="M1994.945 310.168l-1.902-62.715 61.77 22.805M2018.96 154.207l-2.769-55.434 40.649 64.672" fill="#cb3c33" fill-opacity=".45"/><path d="M2054.066 81.418l3.758 79.828-41.324-65.742" fill="#4063d8" fill-opacity=".45"/><path d="M2000.84 201.012l57.84.933-65.305 41.98" fill="#cb3c33" fill-opacity=".45"/><path d="M2056.098 268.602l-61.871-22.844 66.632-42.836" fill="#389826" fill-opacity=".45"/><path d="M2018.352 156.813l41.27 43.148-58.153-.938" fill="#9558b2" fill-opacity=".45"/><path d="M2058.063 165.8l2.707 32.466-39.68-41.485" fill="#389826" fill-opacity=".45"/><path d="M2019.617 3.414l47.043 60.219-55.512-8.469" fill="#cb3c33" fill-opacity=".45"/><path d="M2062.098-6.793l5.632 68.543-46.949-60.094" fill="#389826" fill-opacity=".45"/><path d="M2054.793 78.758l-39.16-20.887 51.344 7.832" fill="#4063d8" fill-opacity=".45"/><path d="M2043.574 361.137l-47.75-48.703 72.578-24.832" fill="#cb3c33" fill-opacity=".45"/><path d="M2056.797 271.336l11.523 14.184-67.36 23.043" fill="#389826" fill-opacity=".45"/><path d="M2062.906 199.836l-2.574-30.879 18.012 28.305M2069.156 66.297L2088.636 79h-31.335M2059.945 163.844l-3.707-78.781 34.297 74.148" fill="#cb3c33" fill-opacity=".45"/><path d="M2091 81v74.457L2056.562 81" fill="#4063d8" fill-opacity=".45"/><path d="M2079.691 195.652l-19.023-29.894 29.894-4.528" fill="#389826" fill-opacity=".45"/><path d="M2070.082 288.879l25.535 63.363-50.12 9.457" fill="#9558b2" fill-opacity=".45"/><path d="M2062.793 203.867l35.625 50.625-40.313 14.063" fill="#cb3c33" fill-opacity=".45"/><path d="M2079.336 199.125l17.336 49.406-32.938-46.804" fill="#389826" fill-opacity=".45"/><path d="M2070.066 284.496l-11.39-14.02 37.676-13.144" fill="#9558b2" fill-opacity=".45"/><path d="M2091.43 165.129l6.914 82.133-17.29-49.278" fill="#4063d8" fill-opacity=".45"/><path d="M2093 145.555V80.219l13.066-28.586" fill="#389826" fill-opacity=".45"/><path d="M2091.574 78.527l-20.586-13.422 34.907-17.902" fill="#4063d8" fill-opacity=".45"/><path d="M2069.875 63.43l-5.625-68.41 42.172 49.668" fill="#cb3c33" fill-opacity=".45"/><path d="M2094.207-4.07l11.727 45.09-40.582-47.793M2096.871 350.004l-25.445-63.145 46.18-4.71" fill="#389826" fill-opacity=".45"/><path d="M2099.895 256.547l17.27 23.637-44.54 4.543" fill="#cb3c33" fill-opacity=".45"/><path d="M2100.973 254.637l-6.739-80.04 22.746 101.946" fill="#389826" fill-opacity=".45"/><path d="M2107.504 55.824l9.96 213.7-24.448-109.567" fill="#cb3c33" fill-opacity=".45"/></svg>