<svg xmlns="http://www.w3.org/2000/svg" width="2100" height="320" viewBox="0 0 2100 320">
<style>
  .a{
     stroke:none;
    fill:rgb(30.196078%,30.196078%,30.196078%);
  }
  .b{
     stroke:none;
    fill:rgb(20%,20%,20%);
  }
</style>
    <rect width="2100" height="320" fill="rgb(0%,0%,0%)"/>
    <path d="M2020.2 315.7L2027.9 339.4 1987.6 339.4ZM2020.2 315.7" class="a"/>
    <path d="M1986.4 337.8L2006.9 274.7 2019.6 313.7ZM1986.4 337.8" class="b"/>
    <path d="M2022.1 315.1L2029.8 338.8 2062.4 315.1ZM2022.1 315.1" class="a"/>
    <path d="M2032.4 339.4L2098.6 339.4 2065.5 315.3ZM2032.4 339.4" class="b"/>
    <path d="M2062.4 313.1L2008.8 274.1 2021.4 313.1ZM2062.4 313.1" class="b"/>
    <path d="M1970.1 299.4L1950 314.1 1982.6 337.8ZM1970.1 299.4" class="a"/>
    <path d="M1984.5 337.1L2005 274.1 1971.8 298.2ZM1984.5 337.1" class="b"/>
    <path d="M1969 297.8L1948.8 312.4 1936.3 274.1ZM1969 297.8" class="a"/>
    <path d="M1946.4 311.4L1892.7 272.5 1933.7 272.5ZM1946.4 311.4" class="b"/>
    <path d="M1937.5 272.5L2003.8 272.5 1970.7 296.6ZM1937.5 272.5" class="b"/>
    <path d="M1925.4 246.8L1933.1 270.5 1892.7 270.5ZM1925.4 246.8" class="a"/>
    <path d="M1891.6 268.9L1912.1 205.8 1924.7 244.8ZM1891.6 268.9" class="b"/>
    <path d="M1903 227.3L1910.7 203.6 1870.4 203.6ZM1903 227.3" class="a"/>
    <path d="M1909 201.6L1855.3 162.6 1868 201.6ZM1909 201.6" class="b"/>
    <path d="M1869.2 205.2L1889.7 268.2 1902.3 229.3ZM1869.2 205.2" class="b"/>
    <path d="M1927.3 246.2L1935 269.9 1967.6 246.2ZM1927.3 246.2" class="a"/>
    <path d="M1937.5 270.5L2003.8 270.5 1970.7 246.4ZM1937.5 270.5" class="b"/>
    <path d="M1967.6 244.2L1914 205.2 1926.6 244.2ZM1967.6 244.2" class="b"/>
    <path d="M1941.1 339.4L1948.8 315.7 1981.4 339.4ZM1941.1 339.4" class="a"/>
    <path d="M1939.2 338.8L1946.9 315.1 1906.6 315.1ZM1939.2 338.8" class="a"/>
    <path d="M1945.2 313.1L1891.6 274.1 1904.2 313.1ZM1945.2 313.1" class="b"/>
    <path d="M1905.4 316.7L1925.9 379.7 1938.6 340.8ZM1905.4 316.7" class="b"/>
    <path d="M2053 270.5L2078 270.5 2065.5 232.1ZM2053 270.5" class="a"/>
    <path d="M2063.6 231.5L2010 270.5 2050.9 270.5ZM2063.6 231.5" class="b"/>
    <path d="M2053 272.5L2078 272.5 2065.5 310.8ZM2053 272.5" class="a"/>
    <path d="M2079.3 274.7L2099.8 337.8 2066.7 313.7ZM2079.3 274.7" class="b"/>
    <path d="M2063.6 311.4L2010 272.5 2050.9 272.5ZM2063.6 311.4" class="b"/>
    <path d="M2100 255.2L2079.9 269.9 2067.4 231.5ZM2100 255.2" class="a"/>
    <path d="M2068.6 229.9L2134.9 229.9 2101.7 254ZM2068.6 229.9" class="b"/>
    <path d="M2122.2 188.9L2068.6 227.9 2109.5 227.9ZM2122.2 188.9" class="b"/>
    <path d="M2101.2 256.8L2081 271.5 2113.7 295.2ZM2101.2 256.8" class="a"/>
    <path d="M2081.2 274.1L2101.7 337.1 2114.4 298.2ZM2081.2 274.1" class="b"/>
    <path d="M2022.1 227.9L2029.8 204.2 2062.4 227.9ZM2022.1 227.9" class="a"/>
    <path d="M2062.4 229.9L2008.8 268.9 2021.4 229.9ZM2062.4 229.9" class="b"/>
    <path d="M2020.2 227.3L2027.9 203.6 1987.6 203.6ZM2020.2 227.3" class="a"/>
    <path d="M2026.2 201.6L1972.6 162.6 1985.2 201.6ZM2026.2 201.6" class="b"/>
    <path d="M1986.4 205.2L2006.9 268.2 2019.6 229.3ZM1986.4 205.2" class="b"/>
    <path d="M1958.2 201.6L1983.1 201.6 1970.7 163.2ZM1958.2 201.6" class="a"/>
    <path d="M1968.8 162.6L1915.1 201.6 1956.1 201.6ZM1968.8 162.6" class="b"/>
    <path d="M1932.7 186.3L1912.6 201 1900.1 162.6ZM1932.7 186.3" class="a"/>
    <path d="M1910.2 200L1856.5 161 1897.5 161ZM1910.2 200" class="b"/>
    <path d="M1901.3 161L1967.6 161 1934.4 185.1ZM1901.3 161" class="b"/>
    <path d="M1958.2 203.6L1983.1 203.6 1970.7 241.9ZM1958.2 203.6" class="a"/>
    <path d="M1984.5 205.8L2005 268.9 1971.8 244.8ZM1984.5 205.8" class="b"/>
    <path d="M1968.8 242.5L1915.1 203.6 1956.1 203.6ZM1968.8 242.5" class="b"/>
    <path d="M2051.1 187.9L2031 202.6 2063.6 226.3ZM2051.1 187.9" class="a"/>
    <path d="M2065.5 225.7L2086 162.6 2052.8 186.7ZM2065.5 225.7" class="b"/>
    <path d="M2080.7 185.3L2088.4 161.6 2121 185.3ZM2080.7 185.3" class="a"/>
    <path d="M2091 161L2157.3 161 2124.1 185.1ZM2091 161" class="b"/>
    <path d="M2121 187.3L2067.4 226.3 2080.1 187.3ZM2121 187.3" class="b"/>
    <path d="M2050 186.3L2029.8 201 2017.3 162.6ZM2050 186.3" class="a"/>
    <path d="M2027.4 200L1973.7 161 2014.7 161ZM2027.4 200" class="b"/>
    <path d="M2018.5 161L2084.8 161 2051.7 185.1ZM2018.5 161" class="b"/>
    <path d="M1841 339.4L1865.9 339.4 1853.4 301ZM1841 339.4" class="a"/>
    <path d="M1867.3 337.1L1887.8 274.1 1854.6 298.2ZM1867.3 337.1" class="b"/>
    <path d="M1851.5 300.4L1797.9 339.4 1838.9 339.4ZM1851.5 300.4" class="b"/>
    <path d="M1846.3 272.5L1854 296.2 1886.6 272.5ZM1846.3 272.5" class="a"/>
    <path d="M1886.6 270.5L1833 231.5 1845.6 270.5ZM1886.6 270.5" class="b"/>
    <path d="M1852.9 243.5L1832.8 228.9 1865.4 205.2ZM1852.9 243.5" class="a"/>
    <path d="M1833 226.3L1853.4 163.2 1866.1 202.2ZM1833 226.3" class="b"/>
    <path d="M1867.3 205.8L1887.8 268.9 1854.6 244.8ZM1867.3 205.8" class="b"/>
    <path d="M1844.4 273.1L1852.1 296.8 1811.7 296.8ZM1844.4 273.1" class="a"/>
    <path d="M1850.4 298.8L1796.7 337.8 1809.4 298.8ZM1850.4 298.8" class="b"/>
    <path d="M1810.6 295.2L1831.1 232.1 1843.7 271.1ZM1810.6 295.2" class="b"/>
    <path d="M1889.1 355L1869 340.4 1901.6 316.7ZM1889.1 355" class="a"/>
    <path d="M1869.2 337.8L1889.7 274.7 1902.3 313.7ZM1869.2 337.8" class="b"/>
    <path d="M1903.5 317.3L1924 380.3 1890.8 356.3ZM1903.5 317.3" class="b"/>
    <path d="M1756.9 314.1L1736.8 299.4 1724.3 337.8ZM1756.9 314.1" class="a"/>
    <path d="M1725.5 339.4L1791.8 339.4 1758.6 315.3ZM1725.5 339.4" class="b"/>
    <path d="M1758.1 312.4L1737.9 297.8 1770.5 274.1ZM1758.1 312.4" class="a"/>
    <path d="M1738.1 295.2L1758.6 232.1 1771.3 271.1ZM1738.1 295.2" class="b"/>
    <path d="M1772.4 274.7L1792.9 337.8 1759.8 313.7ZM1772.4 274.7" class="b"/>
    <path d="M1793.1 255.2L1773 269.9 1760.5 231.5ZM1793.1 255.2" class="a"/>
    <path d="M1761.7 229.9L1828 229.9 1794.8 254ZM1761.7 229.9" class="b"/>
    <path d="M1804.8 227.9L1829.7 227.9 1817.2 189.6ZM1804.8 227.9" class="a"/>
    <path d="M1831.1 225.7L1851.5 162.6 1818.4 186.7ZM1831.1 225.7" class="b"/>
    <path d="M1815.3 188.9L1761.7 227.9 1802.7 227.9ZM1815.3 188.9" class="b"/>
    <path d="M1794.3 256.8L1774.1 271.5 1806.8 295.2ZM1794.3 256.8" class="a"/>
    <path d="M1774.3 274.1L1794.8 337.1 1807.5 298.2ZM1774.3 274.1" class="b"/>
    <path d="M1808.7 294.6L1829.2 231.5 1796 255.6ZM1808.7 294.6" class="b"/>
    <path d="M1709.9 298.8L1734.8 298.8 1722.4 337.1ZM1709.9 298.8" class="a"/>
    <path d="M1720.5 337.8L1666.9 298.8 1707.8 298.8ZM1720.5 337.8" class="b"/>
    <path d="M1684.5 314.1L1664.3 299.4 1651.8 337.8ZM1684.5 314.1" class="a"/>
    <path d="M1661.9 300.4L1608.2 339.4 1649.2 339.4ZM1661.9 300.4" class="b"/>
    <path d="M1653 339.4L1719.3 339.4 1686.2 315.3ZM1653 339.4" class="b"/>
    <path d="M1709.9 296.8L1734.8 296.8 1722.4 258.5ZM1709.9 296.8" class="a"/>
    <path d="M1736.2 294.6L1756.7 231.5 1723.6 255.6ZM1736.2 294.6" class="b"/>
    <path d="M1720.5 257.8L1666.9 296.8 1707.8 296.8ZM1720.5 257.8" class="b"/>
    <path d="M1523.6 315.7L1531.3 339.4 1491 339.4ZM1523.6 315.7" class="a"/>
    <path d="M1489.8 337.8L1510.3 274.7 1523 313.7ZM1489.8 337.8" class="b"/>
    <path d="M1525.5 315.1L1533.2 338.8 1565.9 315.1ZM1525.5 315.1" class="a"/>
    <path d="M1535.8 339.4L1602.1 339.4 1568.9 315.3ZM1535.8 339.4" class="b"/>
    <path d="M1565.9 313.1L1512.2 274.1 1524.9 313.1ZM1565.9 313.1" class="b"/>
    <path d="M1473.6 299.4L1453.4 314.1 1486 337.8ZM1473.6 299.4" class="a"/>
    <path d="M1487.9 337.1L1508.4 274.1 1475.3 298.2ZM1487.9 337.1" class="b"/>
    <path d="M1472.4 297.8L1452.2 312.4 1439.8 274.1ZM1472.4 297.8" class="a"/>
    <path d="M1449.8 311.4L1396.2 272.5 1437.2 272.5ZM1449.8 311.4" class="b"/>
    <path d="M1441 272.5L1507.3 272.5 1474.1 296.6ZM1441 272.5" class="b"/>
    <path d="M1428.8 246.8L1436.5 270.5 1396.2 270.5ZM1428.8 246.8" class="a"/>
    <path d="M1395 268.9L1415.5 205.8 1428.2 244.8ZM1395 268.9" class="b"/>
    <path d="M1406.4 227.3L1414.1 203.6 1373.8 203.6ZM1406.4 227.3" class="a"/>
    <path d="M1412.4 201.6L1358.8 162.6 1371.4 201.6ZM1412.4 201.6" class="b"/>
    <path d="M1372.6 205.2L1393.1 268.2 1405.8 229.3ZM1372.6 205.2" class="b"/>
    <path d="M1430.7 246.2L1438.4 269.9 1471 246.2ZM1430.7 246.2" class="a"/>
    <path d="M1441 270.5L1507.3 270.5 1474.1 246.4ZM1441 270.5" class="b"/>
    <path d="M1471 244.2L1417.4 205.2 1430.1 244.2ZM1471 244.2" class="b"/>
    <path d="M1444.5 339.4L1452.2 315.7 1484.9 339.4ZM1444.5 339.4" class="a"/>
    <path d="M1442.6 338.8L1450.3 315.1 1410 315.1ZM1442.6 338.8" class="a"/>
    <path d="M1448.6 313.1L1395 274.1 1407.7 313.1ZM1448.6 313.1" class="b"/>
    <path d="M1408.9 316.7L1429.3 379.7 1442 340.8ZM1408.9 316.7" class="b"/>
    <path d="M1355.2 245.2L1335 230.5 1322.6 268.9ZM1355.2 245.2" class="a"/>
    <path d="M1323.7 270.5L1390 270.5 1356.9 246.4ZM1323.7 270.5" class="b"/>
    <path d="M1356.4 243.5L1336.2 228.9 1368.8 205.2ZM1356.4 243.5" class="a"/>
    <path d="M1336.4 226.3L1356.9 163.2 1369.6 202.2ZM1336.4 226.3" class="b"/>
    <path d="M1370.7 205.8L1391.2 268.9 1358.1 244.8ZM1370.7 205.8" class="b"/>
    <path d="M1308.2 229.9L1333.1 229.9 1320.7 268.2ZM1308.2 229.9" class="a"/>
    <path d="M1318.8 268.9L1265.1 229.9 1306.1 229.9ZM1318.8 268.9" class="b"/>
    <path d="M1282.7 245.2L1262.6 230.5 1250.1 268.9ZM1282.7 245.2" class="a"/>
    <path d="M1260.2 231.5L1206.5 270.5 1247.5 270.5ZM1260.2 231.5" class="b"/>
    <path d="M1251.3 270.5L1317.6 270.5 1284.4 246.4ZM1251.3 270.5" class="b"/>
    <path d="M1308.2 227.9L1333.1 227.9 1320.7 189.6ZM1308.2 227.9" class="a"/>
    <path d="M1334.5 225.7L1355 162.6 1321.8 186.7ZM1334.5 225.7" class="b"/>
    <path d="M1318.8 188.9L1265.1 227.9 1306.1 227.9ZM1318.8 188.9" class="b"/>
    <path d="M1218.7 227.9L1226.4 204.2 1259 227.9ZM1218.7 227.9" class="a"/>
    <path d="M1259 229.9L1205.3 268.9 1218 229.9ZM1259 229.9" class="b"/>
    <path d="M1216.8 227.3L1224.5 203.6 1184.1 203.6ZM1216.8 227.3" class="a"/>
    <path d="M1222.8 201.6L1169.1 162.6 1181.8 201.6ZM1222.8 201.6" class="b"/>
    <path d="M1183 205.2L1203.4 268.2 1216.1 229.3ZM1183 205.2" class="b"/>
    <path d="M1154.8 201.6L1179.7 201.6 1167.2 163.2ZM1154.8 201.6" class="a"/>
    <path d="M1165.3 162.6L1111.7 201.6 1152.7 201.6ZM1165.3 162.6" class="b"/>
    <path d="M1129.3 186.3L1109.1 201 1096.7 162.6ZM1129.3 186.3" class="a"/>
    <path d="M1106.7 200L1053.1 161 1094 161ZM1106.7 200" class="b"/>
    <path d="M1097.9 161L1164.1 161 1131 185.1ZM1097.9 161" class="b"/>
    <path d="M1154.8 203.6L1179.7 203.6 1167.2 241.9ZM1154.8 203.6" class="a"/>
    <path d="M1181.1 205.8L1201.5 268.9 1168.4 244.8ZM1181.1 205.8" class="b"/>
    <path d="M1165.3 242.5L1111.7 203.6 1152.7 203.6ZM1165.3 242.5" class="b"/>
    <path d="M1247.7 187.9L1227.5 202.6 1260.2 226.3ZM1247.7 187.9" class="a"/>
    <path d="M1262.1 225.7L1282.5 162.6 1249.4 186.7ZM1262.1 225.7" class="b"/>
    <path d="M1277.3 185.3L1285 161.6 1317.6 185.3ZM1277.3 185.3" class="a"/>
    <path d="M1287.5 161L1353.8 161 1320.7 185.1ZM1287.5 161" class="b"/>
    <path d="M1317.6 187.3L1264 226.3 1276.6 187.3ZM1317.6 187.3" class="b"/>
    <path d="M1246.5 186.3L1226.4 201 1213.9 162.6ZM1246.5 186.3" class="a"/>
    <path d="M1223.9 200L1170.3 161 1211.3 161ZM1223.9 200" class="b"/>
    <path d="M1215.1 161L1281.4 161 1248.2 185.1ZM1215.1 161" class="b"/>
    <path d="M1355.2 297.8L1335 312.4 1322.6 274.1ZM1355.2 297.8" class="a"/>
    <path d="M1323.7 272.5L1390 272.5 1356.9 296.6ZM1323.7 272.5" class="b"/>
    <path d="M1356.4 299.4L1336.2 314.1 1368.8 337.8ZM1356.4 299.4" class="a"/>
    <path d="M1336.4 316.7L1356.9 379.7 1369.6 340.8ZM1336.4 316.7" class="b"/>
    <path d="M1370.7 337.1L1391.2 274.1 1358.1 298.2ZM1370.7 337.1" class="b"/>
    <path d="M1392.6 355L1372.4 340.4 1405 316.7ZM1392.6 355" class="a"/>
    <path d="M1372.6 337.8L1393.1 274.7 1405.8 313.7ZM1372.6 337.8" class="b"/>
    <path d="M1406.9 317.3L1427.4 380.3 1394.3 356.3ZM1406.9 317.3" class="b"/>
    <path d="M1308.2 313.1L1333.1 313.1 1320.7 274.7ZM1308.2 313.1" class="a"/>
    <path d="M1318.8 274.1L1265.1 313.1 1306.1 313.1ZM1318.8 274.1" class="b"/>
    <path d="M1282.7 297.8L1262.6 312.4 1250.1 274.1ZM1282.7 297.8" class="a"/>
    <path d="M1260.2 311.4L1206.5 272.5 1247.5 272.5ZM1260.2 311.4" class="b"/>
    <path d="M1251.3 272.5L1317.6 272.5 1284.4 296.6ZM1251.3 272.5" class="b"/>
    <path d="M1308.2 315.1L1333.1 315.1 1320.7 353.4ZM1308.2 315.1" class="a"/>
    <path d="M1334.5 317.3L1355 380.3 1321.8 356.3ZM1334.5 317.3" class="b"/>
    <path d="M1318.8 354L1265.1 315.1 1306.1 315.1ZM1318.8 354" class="b"/>
    <path d="M1556.5 270.5L1581.4 270.5 1568.9 232.1ZM1556.5 270.5" class="a"/>
    <path d="M1567 231.5L1513.4 270.5 1554.4 270.5ZM1567 231.5" class="b"/>
    <path d="M1556.5 272.5L1581.4 272.5 1568.9 310.8ZM1556.5 272.5" class="a"/>
    <path d="M1582.8 274.7L1603.3 337.8 1570.1 313.7ZM1582.8 274.7" class="b"/>
    <path d="M1567 311.4L1513.4 272.5 1554.4 272.5ZM1567 311.4" class="b"/>
    <path d="M1603.5 255.2L1583.3 269.9 1570.8 231.5ZM1603.5 255.2" class="a"/>
    <path d="M1572 229.9L1638.3 229.9 1605.2 254ZM1572 229.9" class="b"/>
    <path d="M1615.1 227.9L1640 227.9 1627.6 189.6ZM1615.1 227.9" class="a"/>
    <path d="M1641.4 225.7L1661.9 162.6 1628.7 186.7ZM1641.4 225.7" class="b"/>
    <path d="M1625.7 188.9L1572 227.9 1613 227.9ZM1625.7 188.9" class="b"/>
    <path d="M1604.6 256.8L1584.5 271.5 1617.1 295.2ZM1604.6 256.8" class="a"/>
    <path d="M1584.7 274.1L1605.2 337.1 1617.8 298.2ZM1584.7 274.1" class="b"/>
    <path d="M1619 294.6L1639.5 231.5 1606.3 255.6ZM1619 294.6" class="b"/>
    <path d="M1677.1 204.2L1684.8 227.9 1644.5 227.9ZM1677.1 204.2" class="a"/>
    <path d="M1643.3 226.3L1663.8 163.2 1676.4 202.2ZM1643.3 226.3" class="b"/>
    <path d="M1679 203.6L1686.7 227.3 1719.3 203.6ZM1679 203.6" class="a"/>
    <path d="M1689.2 227.9L1755.5 227.9 1722.4 203.8ZM1689.2 227.9" class="b"/>
    <path d="M1719.3 201.6L1665.7 162.6 1678.3 201.6ZM1719.3 201.6" class="b"/>
    <path d="M1744.3 187.9L1724.1 202.6 1756.7 226.3ZM1744.3 187.9" class="a"/>
    <path d="M1758.6 225.7L1779.1 162.6 1745.9 186.7ZM1758.6 225.7" class="b"/>
    <path d="M1773.8 185.3L1781.5 161.6 1814.1 185.3ZM1773.8 185.3" class="a"/>
    <path d="M1784.1 161L1850.4 161 1817.2 185.1ZM1784.1 161" class="b"/>
    <path d="M1814.1 187.3L1760.5 226.3 1773.2 187.3ZM1814.1 187.3" class="b"/>
    <path d="M1743.1 186.3L1722.9 201 1710.5 162.6ZM1743.1 186.3" class="a"/>
    <path d="M1720.5 200L1666.9 161 1707.8 161ZM1720.5 200" class="b"/>
    <path d="M1711.6 161L1777.9 161 1744.8 185.1ZM1711.6 161" class="b"/>
    <path d="M1677.1 253.6L1684.8 229.9 1644.5 229.9ZM1677.1 253.6" class="a"/>
    <path d="M1643.3 231.5L1663.8 294.6 1676.4 255.6ZM1643.3 231.5" class="b"/>
    <path d="M1654.7 273.1L1662.4 296.8 1622.1 296.8ZM1654.7 273.1" class="a"/>
    <path d="M1660.7 298.8L1607.1 337.8 1619.7 298.8ZM1660.7 298.8" class="b"/>
    <path d="M1620.9 295.2L1641.4 232.1 1654.1 271.1ZM1620.9 295.2" class="b"/>
    <path d="M1679 254.2L1686.7 230.5 1719.3 254.2ZM1679 254.2" class="a"/>
    <path d="M1689.2 229.9L1755.5 229.9 1722.4 254ZM1689.2 229.9" class="b"/>
    <path d="M1719.3 256.2L1665.7 295.2 1678.3 256.2ZM1719.3 256.2" class="b"/>
    <path d="M1525.5 227.9L1533.2 204.2 1565.9 227.9ZM1525.5 227.9" class="a"/>
    <path d="M1565.9 229.9L1512.2 268.9 1524.9 229.9ZM1565.9 229.9" class="b"/>
    <path d="M1523.6 227.3L1531.3 203.6 1491 203.6ZM1523.6 227.3" class="a"/>
    <path d="M1529.6 201.6L1476 162.6 1488.7 201.6ZM1529.6 201.6" class="b"/>
    <path d="M1489.8 205.2L1510.3 268.2 1523 229.3ZM1489.8 205.2" class="b"/>
    <path d="M1461.6 201.6L1486.6 201.6 1474.1 163.2ZM1461.6 201.6" class="a"/>
    <path d="M1472.2 162.6L1418.6 201.6 1459.5 201.6ZM1472.2 162.6" class="b"/>
    <path d="M1436.2 186.3L1416 201 1403.6 162.6ZM1436.2 186.3" class="a"/>
    <path d="M1413.6 200L1360 161 1400.9 161ZM1413.6 200" class="b"/>
    <path d="M1404.7 161L1471 161 1437.9 185.1ZM1404.7 161" class="b"/>
    <path d="M1461.6 203.6L1486.6 203.6 1474.1 241.9ZM1461.6 203.6" class="a"/>
    <path d="M1487.9 205.8L1508.4 268.9 1475.3 244.8ZM1487.9 205.8" class="b"/>
    <path d="M1472.2 242.5L1418.6 203.6 1459.5 203.6ZM1472.2 242.5" class="b"/>
    <path d="M1554.6 187.9L1534.4 202.6 1567 226.3ZM1554.6 187.9" class="a"/>
    <path d="M1568.9 225.7L1589.4 162.6 1556.3 186.7ZM1568.9 225.7" class="b"/>
    <path d="M1584.2 185.3L1591.9 161.6 1624.5 185.3ZM1584.2 185.3" class="a"/>
    <path d="M1594.4 161L1660.7 161 1627.6 185.1ZM1594.4 161" class="b"/>
    <path d="M1624.5 187.3L1570.8 226.3 1583.5 187.3ZM1624.5 187.3" class="b"/>
    <path d="M1553.4 186.3L1533.2 201 1520.8 162.6ZM1553.4 186.3" class="a"/>
    <path d="M1530.8 200L1477.2 161 1518.2 161ZM1530.8 200" class="b"/>
    <path d="M1522 161L1588.3 161 1555.1 185.1ZM1522 161" class="b"/>
    <path d="M1202.9 355L1182.8 340.4 1215.4 316.7ZM1202.9 355" class="a"/>
    <path d="M1183 337.8L1203.4 274.7 1216.1 313.7ZM1183 337.8" class="b"/>
    <path d="M1217.3 317.3L1237.8 380.3 1204.6 356.3ZM1217.3 317.3" class="b"/>
    <path d="M1166.7 299.4L1146.5 314.1 1179.2 337.8ZM1166.7 299.4" class="a"/>
    <path d="M1181.1 337.1L1201.5 274.1 1168.4 298.2ZM1181.1 337.1" class="b"/>
    <path d="M1165.5 297.8L1145.4 312.4 1132.9 274.1ZM1165.5 297.8" class="a"/>
    <path d="M1142.9 311.4L1089.3 272.5 1130.3 272.5ZM1142.9 311.4" class="b"/>
    <path d="M1134.1 272.5L1200.4 272.5 1167.2 296.6ZM1134.1 272.5" class="b"/>
    <path d="M1121.9 246.8L1129.6 270.5 1089.3 270.5ZM1121.9 246.8" class="a"/>
    <path d="M1088.1 268.9L1108.6 205.8 1121.3 244.8ZM1088.1 268.9" class="b"/>
    <path d="M1099.5 227.3L1107.2 203.6 1066.9 203.6ZM1099.5 227.3" class="a"/>
    <path d="M1105.5 201.6L1051.9 162.6 1064.6 201.6ZM1105.5 201.6" class="b"/>
    <path d="M1065.7 205.2L1086.2 268.2 1098.9 229.3ZM1065.7 205.2" class="b"/>
    <path d="M1123.8 246.2L1131.5 269.9 1164.1 246.2ZM1123.8 246.2" class="a"/>
    <path d="M1134.1 270.5L1200.4 270.5 1167.2 246.4ZM1134.1 270.5" class="b"/>
    <path d="M1164.1 244.2L1110.5 205.2 1123.2 244.2ZM1164.1 244.2" class="b"/>
    <path d="M1137.7 339.4L1145.4 315.7 1178 339.4ZM1137.7 339.4" class="a"/>
    <path d="M1135.8 338.8L1143.5 315.1 1103.1 315.1ZM1135.8 338.8" class="a"/>
    <path d="M1141.8 313.1L1088.1 274.1 1100.8 313.1ZM1141.8 313.1" class="b"/>
    <path d="M1102 316.7L1122.4 379.7 1135.1 340.8ZM1102 316.7" class="b"/>
    <path d="M1241.6 380.3L1262.1 317.3 1274.7 356.3ZM1241.6 380.3" class="b"/>
    <path d="M1253 338.8L1260.7 315.1 1220.4 315.1ZM1253 338.8" class="a"/>
    <path d="M1259 313.1L1205.3 274.1 1218 313.1ZM1259 313.1" class="b"/>
    <path d="M1219.2 316.7L1239.7 379.7 1252.3 340.8ZM1219.2 316.7" class="b"/>
    <path d="M1317.6 355.6L1264 316.7 1276.6 355.6ZM1317.6 355.6" class="b"/>
    <path d="M1037.5 339.4L1062.5 339.4 1050 301ZM1037.5 339.4" class="a"/>
    <path d="M1063.8 337.1L1084.3 274.1 1051.2 298.2ZM1063.8 337.1" class="b"/>
    <path d="M1048.1 300.4L994.5 339.4 1035.4 339.4ZM1048.1 300.4" class="b"/>
    <path d="M1042.8 272.5L1050.5 296.2 1083.1 272.5ZM1042.8 272.5" class="a"/>
    <path d="M1083.1 270.5L1029.5 231.5 1042.2 270.5ZM1083.1 270.5" class="b"/>
    <path d="M1049.5 243.5L1029.3 228.9 1061.9 205.2ZM1049.5 243.5" class="a"/>
    <path d="M1029.5 226.3L1050 163.2 1062.7 202.2ZM1029.5 226.3" class="b"/>
    <path d="M1063.8 205.8L1084.3 268.9 1051.2 244.8ZM1063.8 205.8" class="b"/>
    <path d="M1040.9 273.1L1048.6 296.8 1008.3 296.8ZM1040.9 273.1" class="a"/>
    <path d="M1046.9 298.8L993.3 337.8 1006 298.8ZM1046.9 298.8" class="b"/>
    <path d="M1007.1 295.2L1027.6 232.1 1040.3 271.1ZM1007.1 295.2" class="b"/>
    <path d="M1085.7 355L1065.5 340.4 1098.2 316.7ZM1085.7 355" class="a"/>
    <path d="M1065.7 337.8L1086.2 274.7 1098.9 313.7ZM1065.7 337.8" class="b"/>
    <path d="M1100.1 317.3L1120.5 380.3 1087.4 356.3ZM1100.1 317.3" class="b"/>
    <path d="M953.5 314.1L933.3 299.4 920.8 337.8ZM953.5 314.1" class="a"/>
    <path d="M922 339.4L988.3 339.4 955.2 315.3ZM922 339.4" class="b"/>
    <path d="M954.6 312.4L934.5 297.8 967.1 274.1ZM954.6 312.4" class="a"/>
    <path d="M934.7 295.2L955.2 232.1 967.8 271.1ZM934.7 295.2" class="b"/>
    <path d="M969 274.7L989.5 337.8 956.3 313.7ZM969 274.7" class="b"/>
    <path d="M989.7 255.2L969.5 269.9 957.1 231.5ZM989.7 255.2" class="a"/>
    <path d="M958.2 229.9L1024.5 229.9 991.4 254ZM958.2 229.9" class="b"/>
    <path d="M1001.3 227.9L1026.2 227.9 1013.8 189.6ZM1001.3 227.9" class="a"/>
    <path d="M1027.6 225.7L1048.1 162.6 1015 186.7ZM1027.6 225.7" class="b"/>
    <path d="M1011.9 188.9L958.2 227.9 999.2 227.9ZM1011.9 188.9" class="b"/>
    <path d="M990.9 256.8L970.7 271.5 1003.3 295.2ZM990.9 256.8" class="a"/>
    <path d="M970.9 274.1L991.4 337.1 1004.1 298.2ZM970.9 274.1" class="b"/>
    <path d="M1005.2 294.6L1025.7 231.5 992.6 255.6ZM1005.2 294.6" class="b"/>
    <path d="M906.5 298.8L931.4 298.8 918.9 337.1ZM906.5 298.8" class="a"/>
    <path d="M917 337.8L863.4 298.8 904.4 298.8ZM917 337.8" class="b"/>
    <path d="M881 314.1L860.9 299.4 848.4 337.8ZM881 314.1" class="a"/>
    <path d="M858.4 300.4L804.8 339.4 845.8 339.4ZM858.4 300.4" class="b"/>
    <path d="M849.6 339.4L915.9 339.4 882.7 315.3ZM849.6 339.4" class="b"/>
    <path d="M906.5 296.8L931.4 296.8 918.9 258.5ZM906.5 296.8" class="a"/>
    <path d="M932.8 294.6L953.3 231.5 920.1 255.6ZM932.8 294.6" class="b"/>
    <path d="M917 257.8L863.4 296.8 904.4 296.8ZM917 257.8" class="b"/>
    <path d="M17.6 355.6L-36 316.7 -23.4 355.6ZM17.6 355.6" class="b"/>
    <path d="M456.9 314.1L436.8 299.4 424.3 337.8ZM456.9 314.1" class="a"/>
    <path d="M425.5 339.4L491.8 339.4 458.6 315.3ZM425.5 339.4" class="b"/>
    <path d="M458.1 312.4L437.9 297.8 470.5 274.1ZM458.1 312.4" class="a"/>
    <path d="M438.1 295.2L458.6 232.1 471.3 271.1ZM438.1 295.2" class="b"/>
    <path d="M472.4 274.7L492.9 337.8 459.8 313.7ZM472.4 274.7" class="b"/>
    <path d="M493.1 255.2L473 269.9 460.5 231.5ZM493.1 255.2" class="a"/>
    <path d="M461.7 229.9L528 229.9 494.8 254ZM461.7 229.9" class="b"/>
    <path d="M504.8 227.9L529.7 227.9 517.2 189.6ZM504.8 227.9" class="a"/>
    <path d="M531.1 225.7L551.5 162.6 518.4 186.7ZM531.1 225.7" class="b"/>
    <path d="M515.3 188.9L461.7 227.9 502.7 227.9ZM515.3 188.9" class="b"/>
    <path d="M494.3 256.8L474.1 271.5 506.8 295.2ZM494.3 256.8" class="a"/>
    <path d="M474.3 274.1L494.8 337.1 507.5 298.2ZM474.3 274.1" class="b"/>
    <path d="M508.7 294.6L529.2 231.5 496 255.6ZM508.7 294.6" class="b"/>
    <path d="M409.9 298.8L434.8 298.8 422.4 337.1ZM409.9 298.8" class="a"/>
    <path d="M420.5 337.8L366.9 298.8 407.8 298.8ZM420.5 337.8" class="b"/>
    <path d="M384.5 314.1L364.3 299.4 351.8 337.8ZM384.5 314.1" class="a"/>
    <path d="M361.9 300.4L308.2 339.4 349.2 339.4ZM361.9 300.4" class="b"/>
    <path d="M353 339.4L419.3 339.4 386.2 315.3ZM353 339.4" class="b"/>
    <path d="M409.9 296.8L434.8 296.8 422.4 258.5ZM409.9 296.8" class="a"/>
    <path d="M436.2 294.6L456.7 231.5 423.6 255.6ZM436.2 294.6" class="b"/>
    <path d="M420.5 257.8L366.9 296.8 407.8 296.8ZM420.5 257.8" class="b"/>
    <path d="M575.3 312.4L555.1 297.8 587.8 274.1ZM575.3 312.4" class="a"/>
    <path d="M589.7 274.7L610.2 337.8 577 313.7ZM589.7 274.7" class="b"/>
    <path d="M574.1 314.1L554 299.4 541.5 337.8ZM574.1 314.1" class="a"/>
    <path d="M551.5 300.4L497.9 339.4 538.9 339.4ZM551.5 300.4" class="b"/>
    <path d="M542.7 339.4L609 339.4 575.8 315.3ZM542.7 339.4" class="b"/>
    <path d="M546.3 272.5L554 296.2 586.6 272.5ZM546.3 272.5" class="a"/>
    <path d="M586.6 270.5L533 231.5 545.6 270.5ZM586.6 270.5" class="b"/>
    <path d="M552.9 243.5L532.8 228.9 565.4 205.2ZM552.9 243.5" class="a"/>
    <path d="M533 226.3L553.4 163.2 566.1 202.2ZM533 226.3" class="b"/>
    <path d="M567.3 205.8L587.8 268.9 554.6 244.8ZM567.3 205.8" class="b"/>
    <path d="M544.4 273.1L552.1 296.8 511.7 296.8ZM544.4 273.1" class="a"/>
    <path d="M550.4 298.8L496.7 337.8 509.4 298.8ZM550.4 298.8" class="b"/>
    <path d="M510.6 295.2L531.1 232.1 543.7 271.1ZM510.6 295.2" class="b"/>
    <path d="M625.4 296.2L633.1 272.5 592.7 272.5ZM625.4 296.2" class="a"/>
    <path d="M591.6 274.1L612.1 337.1 624.7 298.2ZM591.6 274.1" class="b"/>
    <path d="M627.3 296.8L635 273.1 667.6 296.8ZM627.3 296.8" class="a"/>
    <path d="M637.5 272.5L703.8 272.5 670.7 296.6ZM637.5 272.5" class="b"/>
    <path d="M667.6 298.8L614 337.8 626.6 298.8ZM667.6 298.8" class="b"/>
    <path d="M692.5 312.4L672.4 297.8 705 274.1ZM692.5 312.4" class="a"/>
    <path d="M706.9 274.7L727.4 337.8 694.2 313.7ZM706.9 274.7" class="b"/>
    <path d="M722.1 315.1L729.8 338.8 762.4 315.1ZM722.1 315.1" class="a"/>
    <path d="M732.4 339.4L798.6 339.4 765.5 315.3ZM732.4 339.4" class="b"/>
    <path d="M762.4 313.1L708.8 274.1 721.4 313.1ZM762.4 313.1" class="b"/>
    <path d="M691.4 314.1L671.2 299.4 658.7 337.8ZM691.4 314.1" class="a"/>
    <path d="M668.8 300.4L615.1 339.4 656.1 339.4ZM668.8 300.4" class="b"/>
    <path d="M659.9 339.4L726.2 339.4 693.1 315.3ZM659.9 339.4" class="b"/>
    <path d="M625.4 246.8L633.1 270.5 592.7 270.5ZM625.4 246.8" class="a"/>
    <path d="M591.6 268.9L612.1 205.8 624.7 244.8ZM591.6 268.9" class="b"/>
    <path d="M603 227.3L610.7 203.6 570.4 203.6ZM603 227.3" class="a"/>
    <path d="M609 201.6L555.3 162.6 568 201.6ZM609 201.6" class="b"/>
    <path d="M569.2 205.2L589.7 268.2 602.3 229.3ZM569.2 205.2" class="b"/>
    <path d="M627.3 246.2L635 269.9 667.6 246.2ZM627.3 246.2" class="a"/>
    <path d="M637.5 270.5L703.8 270.5 670.7 246.4ZM637.5 270.5" class="b"/>
    <path d="M667.6 244.2L614 205.2 626.6 244.2ZM667.6 244.2" class="b"/>
    <path d="M753 270.5L778 270.5 765.5 232.1ZM753 270.5" class="a"/>
    <path d="M763.6 231.5L710 270.5 750.9 270.5ZM763.6 231.5" class="b"/>
    <path d="M753 272.5L778 272.5 765.5 310.8ZM753 272.5" class="a"/>
    <path d="M779.3 274.7L799.8 337.8 766.7 313.7ZM779.3 274.7" class="b"/>
    <path d="M763.6 311.4L710 272.5 750.9 272.5ZM763.6 311.4" class="b"/>
    <path d="M800 255.2L779.9 269.9 767.4 231.5ZM800 255.2" class="a"/>
    <path d="M768.6 229.9L834.9 229.9 801.7 254ZM768.6 229.9" class="b"/>
    <path d="M811.6 227.9L836.6 227.9 824.1 189.6ZM811.6 227.9" class="a"/>
    <path d="M837.9 225.7L858.4 162.6 825.3 186.7ZM837.9 225.7" class="b"/>
    <path d="M822.2 188.9L768.6 227.9 809.5 227.9ZM822.2 188.9" class="b"/>
    <path d="M801.2 256.8L781 271.5 813.7 295.2ZM801.2 256.8" class="a"/>
    <path d="M781.2 274.1L801.7 337.1 814.4 298.2ZM781.2 274.1" class="b"/>
    <path d="M815.6 294.6L836 231.5 802.9 255.6ZM815.6 294.6" class="b"/>
    <path d="M873.6 204.2L881.3 227.9 841 227.9ZM873.6 204.2" class="a"/>
    <path d="M839.8 226.3L860.3 163.2 873 202.2ZM839.8 226.3" class="b"/>
    <path d="M875.5 203.6L883.2 227.3 915.9 203.6ZM875.5 203.6" class="a"/>
    <path d="M885.8 227.9L952.1 227.9 918.9 203.8ZM885.8 227.9" class="b"/>
    <path d="M915.9 201.6L862.2 162.6 874.9 201.6ZM915.9 201.6" class="b"/>
    <path d="M940.8 187.9L920.6 202.6 953.3 226.3ZM940.8 187.9" class="a"/>
    <path d="M955.2 225.7L975.7 162.6 942.5 186.7ZM955.2 225.7" class="b"/>
    <path d="M970.4 185.3L978.1 161.6 1010.7 185.3ZM970.4 185.3" class="a"/>
    <path d="M980.6 161L1046.9 161 1013.8 185.1ZM980.6 161" class="b"/>
    <path d="M1010.7 187.3L957.1 226.3 969.7 187.3ZM1010.7 187.3" class="b"/>
    <path d="M939.6 186.3L919.5 201 907 162.6ZM939.6 186.3" class="a"/>
    <path d="M917 200L863.4 161 904.4 161ZM917 200" class="b"/>
    <path d="M908.2 161L974.5 161 941.3 185.1ZM908.2 161" class="b"/>
    <path d="M873.6 253.6L881.3 229.9 841 229.9ZM873.6 253.6" class="a"/>
    <path d="M839.8 231.5L860.3 294.6 873 255.6ZM839.8 231.5" class="b"/>
    <path d="M851.3 273.1L859 296.8 818.6 296.8ZM851.3 273.1" class="a"/>
    <path d="M857.3 298.8L803.6 337.8 816.3 298.8ZM857.3 298.8" class="b"/>
    <path d="M817.5 295.2L837.9 232.1 850.6 271.1ZM817.5 295.2" class="b"/>
    <path d="M875.5 254.2L883.2 230.5 915.9 254.2ZM875.5 254.2" class="a"/>
    <path d="M885.8 229.9L952.1 229.9 918.9 254ZM885.8 229.9" class="b"/>
    <path d="M915.9 256.2L862.2 295.2 874.9 256.2ZM915.9 256.2" class="b"/>
    <path d="M722.1 227.9L729.8 204.2 762.4 227.9ZM722.1 227.9" class="a"/>
    <path d="M762.4 229.9L708.8 268.9 721.4 229.9ZM762.4 229.9" class="b"/>
    <path d="M720.2 227.3L727.9 203.6 687.6 203.6ZM720.2 227.3" class="a"/>
    <path d="M726.2 201.6L672.6 162.6 685.2 201.6ZM726.2 201.6" class="b"/>
    <path d="M686.4 205.2L706.9 268.2 719.6 229.3ZM686.4 205.2" class="b"/>
    <path d="M658.2 201.6L683.1 201.6 670.7 163.2ZM658.2 201.6" class="a"/>
    <path d="M668.8 162.6L615.1 201.6 656.1 201.6ZM668.8 162.6" class="b"/>
    <path d="M632.7 186.3L612.6 201 600.1 162.6ZM632.7 186.3" class="a"/>
    <path d="M610.2 200L556.5 161 597.5 161ZM610.2 200" class="b"/>
    <path d="M601.3 161L667.6 161 634.4 185.1ZM601.3 161" class="b"/>
    <path d="M658.2 203.6L683.1 203.6 670.7 241.9ZM658.2 203.6" class="a"/>
    <path d="M684.5 205.8L705 268.9 671.8 244.8ZM684.5 205.8" class="b"/>
    <path d="M668.8 242.5L615.1 203.6 656.1 203.6ZM668.8 242.5" class="b"/>
    <path d="M751.1 187.9L731 202.6 763.6 226.3ZM751.1 187.9" class="a"/>
    <path d="M765.5 225.7L786 162.6 752.8 186.7ZM765.5 225.7" class="b"/>
    <path d="M780.7 185.3L788.4 161.6 821 185.3ZM780.7 185.3" class="a"/>
    <path d="M791 161L857.3 161 824.1 185.1ZM791 161" class="b"/>
    <path d="M821 187.3L767.4 226.3 780.1 187.3ZM821 187.3" class="b"/>
    <path d="M750 186.3L729.8 201 717.3 162.6ZM750 186.3" class="a"/>
    <path d="M727.4 200L673.7 161 714.7 161ZM727.4 200" class="b"/>
    <path d="M718.5 161L784.8 161 751.7 185.1ZM718.5 161" class="b"/>
    <path d="M223.6 315.7L231.3 339.4 191 339.4ZM223.6 315.7" class="a"/>
    <path d="M189.8 337.8L210.3 274.7 223 313.7ZM189.8 337.8" class="b"/>
    <path d="M225.5 315.1L233.2 338.8 265.9 315.1ZM225.5 315.1" class="a"/>
    <path d="M235.8 339.4L302.1 339.4 268.9 315.3ZM235.8 339.4" class="b"/>
    <path d="M265.9 313.1L212.2 274.1 224.9 313.1ZM265.9 313.1" class="b"/>
    <path d="M173.6 299.4L153.4 314.1 186 337.8ZM173.6 299.4" class="a"/>
    <path d="M187.9 337.1L208.4 274.1 175.3 298.2ZM187.9 337.1" class="b"/>
    <path d="M172.4 297.8L152.2 312.4 139.8 274.1ZM172.4 297.8" class="a"/>
    <path d="M149.8 311.4L96.2 272.5 137.2 272.5ZM149.8 311.4" class="b"/>
    <path d="M141 272.5L207.3 272.5 174.1 296.6ZM141 272.5" class="b"/>
    <path d="M128.8 246.8L136.5 270.5 96.2 270.5ZM128.8 246.8" class="a"/>
    <path d="M95 268.9L115.5 205.8 128.2 244.8ZM95 268.9" class="b"/>
    <path d="M106.4 227.3L114.1 203.6 73.8 203.6ZM106.4 227.3" class="a"/>
    <path d="M112.4 201.6L58.8 162.6 71.4 201.6ZM112.4 201.6" class="b"/>
    <path d="M72.6 205.2L93.1 268.2 105.8 229.3ZM72.6 205.2" class="b"/>
    <path d="M130.7 246.2L138.4 269.9 171 246.2ZM130.7 246.2" class="a"/>
    <path d="M141 270.5L207.3 270.5 174.1 246.4ZM141 270.5" class="b"/>
    <path d="M171 244.2L117.4 205.2 130.1 244.2ZM171 244.2" class="b"/>
    <path d="M144.5 339.4L152.2 315.7 184.9 339.4ZM144.5 339.4" class="a"/>
    <path d="M142.6 338.8L150.3 315.1 110 315.1ZM142.6 338.8" class="a"/>
    <path d="M148.6 313.1L95 274.1 107.7 313.1ZM148.6 313.1" class="b"/>
    <path d="M108.9 316.7L129.3 379.7 142 340.8ZM108.9 316.7" class="b"/>
    <path d="M55.2 245.2L35 230.5 22.6 268.9ZM55.2 245.2" class="a"/>
    <path d="M23.7 270.5L90 270.5 56.9 246.4ZM23.7 270.5" class="b"/>
    <path d="M56.4 243.5L36.2 228.9 68.8 205.2ZM56.4 243.5" class="a"/>
    <path d="M36.4 226.3L56.9 163.2 69.6 202.2ZM36.4 226.3" class="b"/>
    <path d="M70.7 205.8L91.2 268.9 58.1 244.8ZM70.7 205.8" class="b"/>
    <path d="M8.2 229.9L33.1 229.9 20.7 268.2ZM8.2 229.9" class="a"/>
    <path d="M18.8 268.9L-34.9 229.9 6.1 229.9ZM18.8 268.9" class="b"/>
    <path d="M-48.7 270.5L17.6 270.5 -15.6 246.4ZM-48.7 270.5" class="b"/>
    <path d="M8.2 227.9L33.1 227.9 20.7 189.6ZM8.2 227.9" class="a"/>
    <path d="M34.5 225.7L55 162.6 21.8 186.7ZM34.5 225.7" class="b"/>
    <path d="M18.8 188.9L-34.9 227.9 6.1 227.9ZM18.8 188.9" class="b"/>
    <path d="M-22.7 185.3L-15 161.6 17.6 185.3ZM-22.7 185.3" class="a"/>
    <path d="M-12.5 161L53.8 161 20.7 185.1ZM-12.5 161" class="b"/>
    <path d="M17.6 187.3L-36 226.3 -23.4 187.3ZM17.6 187.3" class="b"/>
    <path d="M55.2 297.8L35 312.4 22.6 274.1ZM55.2 297.8" class="a"/>
    <path d="M23.7 272.5L90 272.5 56.9 296.6ZM23.7 272.5" class="b"/>
    <path d="M56.4 299.4L36.2 314.1 68.8 337.8ZM56.4 299.4" class="a"/>
    <path d="M36.4 316.7L56.9 379.7 69.6 340.8ZM36.4 316.7" class="b"/>
    <path d="M70.7 337.1L91.2 274.1 58.1 298.2ZM70.7 337.1" class="b"/>
    <path d="M92.6 355L72.4 340.4 105 316.7ZM92.6 355" class="a"/>
    <path d="M72.6 337.8L93.1 274.7 105.8 313.7ZM72.6 337.8" class="b"/>
    <path d="M106.9 317.3L127.4 380.3 94.3 356.3ZM106.9 317.3" class="b"/>
    <path d="M8.2 313.1L33.1 313.1 20.7 274.7ZM8.2 313.1" class="a"/>
    <path d="M18.8 274.1L-34.9 313.1 6.1 313.1ZM18.8 274.1" class="b"/>
    <path d="M-48.7 272.5L17.6 272.5 -15.6 296.6ZM-48.7 272.5" class="b"/>
    <path d="M8.2 315.1L33.1 315.1 20.7 353.4ZM8.2 315.1" class="a"/>
    <path d="M34.5 317.3L55 380.3 21.8 356.3ZM34.5 317.3" class="b"/>
    <path d="M18.8 354L-34.9 315.1 6.1 315.1ZM18.8 354" class="b"/>
    <path d="M256.5 270.5L281.4 270.5 268.9 232.1ZM256.5 270.5" class="a"/>
    <path d="M267 231.5L213.4 270.5 254.4 270.5ZM267 231.5" class="b"/>
    <path d="M256.5 272.5L281.4 272.5 268.9 310.8ZM256.5 272.5" class="a"/>
    <path d="M282.8 274.7L303.3 337.8 270.1 313.7ZM282.8 274.7" class="b"/>
    <path d="M267 311.4L213.4 272.5 254.4 272.5ZM267 311.4" class="b"/>
    <path d="M303.5 255.2L283.3 269.9 270.8 231.5ZM303.5 255.2" class="a"/>
    <path d="M272 229.9L338.3 229.9 305.2 254ZM272 229.9" class="b"/>
    <path d="M315.1 227.9L340 227.9 327.6 189.6ZM315.1 227.9" class="a"/>
    <path d="M341.4 225.7L361.9 162.6 328.7 186.7ZM341.4 225.7" class="b"/>
    <path d="M325.7 188.9L272 227.9 313 227.9ZM325.7 188.9" class="b"/>
    <path d="M304.6 256.8L284.5 271.5 317.1 295.2ZM304.6 256.8" class="a"/>
    <path d="M284.7 274.1L305.2 337.1 317.8 298.2ZM284.7 274.1" class="b"/>
    <path d="M319 294.6L339.5 231.5 306.3 255.6ZM319 294.6" class="b"/>
    <path d="M377.1 204.2L384.8 227.9 344.5 227.9ZM377.1 204.2" class="a"/>
    <path d="M343.3 226.3L363.8 163.2 376.4 202.2ZM343.3 226.3" class="b"/>
    <path d="M379 203.6L386.7 227.3 419.3 203.6ZM379 203.6" class="a"/>
    <path d="M389.2 227.9L455.5 227.9 422.4 203.8ZM389.2 227.9" class="b"/>
    <path d="M419.3 201.6L365.7 162.6 378.3 201.6ZM419.3 201.6" class="b"/>
    <path d="M444.3 187.9L424.1 202.6 456.7 226.3ZM444.3 187.9" class="a"/>
    <path d="M458.6 225.7L479.1 162.6 445.9 186.7ZM458.6 225.7" class="b"/>
    <path d="M473.8 185.3L481.5 161.6 514.1 185.3ZM473.8 185.3" class="a"/>
    <path d="M484.1 161L550.4 161 517.2 185.1ZM484.1 161" class="b"/>
    <path d="M514.1 187.3L460.5 226.3 473.2 187.3ZM514.1 187.3" class="b"/>
    <path d="M443.1 186.3L422.9 201 410.5 162.6ZM443.1 186.3" class="a"/>
    <path d="M420.5 200L366.9 161 407.8 161ZM420.5 200" class="b"/>
    <path d="M411.6 161L477.9 161 444.8 185.1ZM411.6 161" class="b"/>
    <path d="M377.1 253.6L384.8 229.9 344.5 229.9ZM377.1 253.6" class="a"/>
    <path d="M343.3 231.5L363.8 294.6 376.4 255.6ZM343.3 231.5" class="b"/>
    <path d="M354.7 273.1L362.4 296.8 322.1 296.8ZM354.7 273.1" class="a"/>
    <path d="M360.7 298.8L307.1 337.8 319.7 298.8ZM360.7 298.8" class="b"/>
    <path d="M320.9 295.2L341.4 232.1 354.1 271.1ZM320.9 295.2" class="b"/>
    <path d="M379 254.2L386.7 230.5 419.3 254.2ZM379 254.2" class="a"/>
    <path d="M389.2 229.9L455.5 229.9 422.4 254ZM389.2 229.9" class="b"/>
    <path d="M419.3 256.2L365.7 295.2 378.3 256.2ZM419.3 256.2" class="b"/>
    <path d="M225.5 227.9L233.2 204.2 265.9 227.9ZM225.5 227.9" class="a"/>
    <path d="M265.9 229.9L212.2 268.9 224.9 229.9ZM265.9 229.9" class="b"/>
    <path d="M223.6 227.3L231.3 203.6 191 203.6ZM223.6 227.3" class="a"/>
    <path d="M229.6 201.6L176 162.6 188.7 201.6ZM229.6 201.6" class="b"/>
    <path d="M189.8 205.2L210.3 268.2 223 229.3ZM189.8 205.2" class="b"/>
    <path d="M161.6 201.6L186.6 201.6 174.1 163.2ZM161.6 201.6" class="a"/>
    <path d="M172.2 162.6L118.6 201.6 159.5 201.6ZM172.2 162.6" class="b"/>
    <path d="M136.2 186.3L116 201 103.6 162.6ZM136.2 186.3" class="a"/>
    <path d="M113.6 200L60 161 100.9 161ZM113.6 200" class="b"/>
    <path d="M104.7 161L171 161 137.9 185.1ZM104.7 161" class="b"/>
    <path d="M161.6 203.6L186.6 203.6 174.1 241.9ZM161.6 203.6" class="a"/>
    <path d="M187.9 205.8L208.4 268.9 175.3 244.8ZM187.9 205.8" class="b"/>
    <path d="M172.2 242.5L118.6 203.6 159.5 203.6ZM172.2 242.5" class="b"/>
    <path d="M254.6 187.9L234.4 202.6 267 226.3ZM254.6 187.9" class="a"/>
    <path d="M268.9 225.7L289.4 162.6 256.3 186.7ZM268.9 225.7" class="b"/>
    <path d="M284.2 185.3L291.9 161.6 324.5 185.3ZM284.2 185.3" class="a"/>
    <path d="M294.4 161L360.7 161 327.6 185.1ZM294.4 161" class="b"/>
    <path d="M324.5 187.3L270.8 226.3 283.5 187.3ZM324.5 187.3" class="b"/>
    <path d="M253.4 186.3L233.2 201 220.8 162.6ZM253.4 186.3" class="a"/>
    <path d="M230.8 200L177.2 161 218.2 161ZM230.8 200" class="b"/>
    <path d="M222 161L288.3 161 255.1 185.1ZM222 161" class="b"/>
    <path d="M17.6-35.6L-36 3.3 -23.4-35.6ZM17.6-35.6" class="b"/>
    <path d="M456.9 5.9L436.8 20.6 424.3-17.8ZM456.9 5.9" class="a"/>
    <path d="M425.5-19.4L491.8-19.4 458.6 4.7ZM425.5-19.4" class="b"/>
    <path d="M458.1 7.6L437.9 22.2 470.5 45.9ZM458.1 7.6" class="a"/>
    <path d="M438.1 24.8L458.6 87.9 471.3 48.9ZM438.1 24.8" class="b"/>
    <path d="M472.4 45.3L492.9-17.8 459.8 6.3ZM472.4 45.3" class="b"/>
    <path d="M493.1 64.8L473 50.1 460.5 88.5ZM493.1 64.8" class="a"/>
    <path d="M461.7 90.1L528 90.1 494.8 66ZM461.7 90.1" class="b"/>
    <path d="M504.8 92.1L529.7 92.1 517.2 130.4ZM504.8 92.1" class="a"/>
    <path d="M531.1 94.3L551.5 157.4 518.4 133.3ZM531.1 94.3" class="b"/>
    <path d="M515.3 131.1L461.7 92.1 502.7 92.1ZM515.3 131.1" class="b"/>
    <path d="M494.3 63.2L474.1 48.5 506.8 24.8ZM494.3 63.2" class="a"/>
    <path d="M474.3 45.9L494.8-17.1 507.5 21.8ZM474.3 45.9" class="b"/>
    <path d="M508.7 25.4L529.2 88.5 496 64.4ZM508.7 25.4" class="b"/>
    <path d="M409.9 21.2L434.8 21.2 422.4-17.1ZM409.9 21.2" class="a"/>
    <path d="M420.5-17.8L366.9 21.2 407.8 21.2ZM420.5-17.8" class="b"/>
    <path d="M384.5 5.9L364.3 20.6 351.8-17.8ZM384.5 5.9" class="a"/>
    <path d="M361.9 19.6L308.2-19.4 349.2-19.4ZM361.9 19.6" class="b"/>
    <path d="M353-19.4L419.3-19.4 386.2 4.7ZM353-19.4" class="b"/>
    <path d="M409.9 23.2L434.8 23.2 422.4 61.5ZM409.9 23.2" class="a"/>
    <path d="M436.2 25.4L456.7 88.5 423.6 64.4ZM436.2 25.4" class="b"/>
    <path d="M420.5 62.2L366.9 23.2 407.8 23.2ZM420.5 62.2" class="b"/>
    <path d="M575.3 7.6L555.1 22.2 587.8 45.9ZM575.3 7.6" class="a"/>
    <path d="M589.7 45.3L610.2-17.8 577 6.3ZM589.7 45.3" class="b"/>
    <path d="M574.1 5.9L554 20.6 541.5-17.8ZM574.1 5.9" class="a"/>
    <path d="M551.5 19.6L497.9-19.4 538.9-19.4ZM551.5 19.6" class="b"/>
    <path d="M542.7-19.4L609-19.4 575.8 4.7ZM542.7-19.4" class="b"/>
    <path d="M546.3 47.5L554 23.8 586.6 47.5ZM546.3 47.5" class="a"/>
    <path d="M586.6 49.5L533 88.5 545.6 49.5ZM586.6 49.5" class="b"/>
    <path d="M552.9 76.5L532.8 91.1 565.4 114.8ZM552.9 76.5" class="a"/>
    <path d="M533 93.7L553.4 156.8 566.1 117.8ZM533 93.7" class="b"/>
    <path d="M567.3 114.2L587.8 51.1 554.6 75.2ZM567.3 114.2" class="b"/>
    <path d="M544.4 46.9L552.1 23.2 511.7 23.2ZM544.4 46.9" class="a"/>
    <path d="M550.4 21.2L496.7-17.8 509.4 21.2ZM550.4 21.2" class="b"/>
    <path d="M510.6 24.8L531.1 87.9 543.7 48.9ZM510.6 24.8" class="b"/>
    <path d="M625.4 23.8L633.1 47.5 592.7 47.5ZM625.4 23.8" class="a"/>
    <path d="M591.6 45.9L612.1-17.1 624.7 21.8ZM591.6 45.9" class="b"/>
    <path d="M627.3 23.2L635 46.9 667.6 23.2ZM627.3 23.2" class="a"/>
    <path d="M637.5 47.5L703.8 47.5 670.7 23.4ZM637.5 47.5" class="b"/>
    <path d="M667.6 21.2L614-17.8 626.6 21.2ZM667.6 21.2" class="b"/>
    <path d="M692.5 7.6L672.4 22.2 705 45.9ZM692.5 7.6" class="a"/>
    <path d="M706.9 45.3L727.4-17.8 694.2 6.3ZM706.9 45.3" class="b"/>
    <path d="M722.1 4.9L729.8-18.8 762.4 4.9ZM722.1 4.9" class="a"/>
    <path d="M732.4-19.4L798.6-19.4 765.5 4.7ZM732.4-19.4" class="b"/>
    <path d="M762.4 6.9L708.8 45.9 721.4 6.9ZM762.4 6.9" class="b"/>
    <path d="M691.4 5.9L671.2 20.6 658.7-17.8ZM691.4 5.9" class="a"/>
    <path d="M668.8 19.6L615.1-19.4 656.1-19.4ZM668.8 19.6" class="b"/>
    <path d="M659.9-19.4L726.2-19.4 693.1 4.7ZM659.9-19.4" class="b"/>
    <path d="M625.4 73.2L633.1 49.5 592.7 49.5ZM625.4 73.2" class="a"/>
    <path d="M591.6 51.1L612.1 114.2 624.7 75.2ZM591.6 51.1" class="b"/>
    <path d="M603 92.7L610.7 116.4 570.4 116.4ZM603 92.7" class="a"/>
    <path d="M609 118.4L555.3 157.4 568 118.4ZM609 118.4" class="b"/>
    <path d="M569.2 114.8L589.7 51.8 602.3 90.7ZM569.2 114.8" class="b"/>
    <path d="M627.3 73.8L635 50.1 667.6 73.8ZM627.3 73.8" class="a"/>
    <path d="M637.5 49.5L703.8 49.5 670.7 73.6ZM637.5 49.5" class="b"/>
    <path d="M667.6 75.8L614 114.8 626.6 75.8ZM667.6 75.8" class="b"/>
    <path d="M753 49.5L778 49.5 765.5 87.9ZM753 49.5" class="a"/>
    <path d="M763.6 88.5L710 49.5 750.9 49.5ZM763.6 88.5" class="b"/>
    <path d="M753 47.5L778 47.5 765.5 9.2ZM753 47.5" class="a"/>
    <path d="M779.3 45.3L799.8-17.8 766.7 6.3ZM779.3 45.3" class="b"/>
    <path d="M763.6 8.6L710 47.5 750.9 47.5ZM763.6 8.6" class="b"/>
    <path d="M800 64.8L779.9 50.1 767.4 88.5ZM800 64.8" class="a"/>
    <path d="M768.6 90.1L834.9 90.1 801.7 66ZM768.6 90.1" class="b"/>
    <path d="M811.6 92.1L836.6 92.1 824.1 130.4ZM811.6 92.1" class="a"/>
    <path d="M837.9 94.3L858.4 157.4 825.3 133.3ZM837.9 94.3" class="b"/>
    <path d="M822.2 131.1L768.6 92.1 809.5 92.1ZM822.2 131.1" class="b"/>
    <path d="M801.2 63.2L781 48.5 813.7 24.8ZM801.2 63.2" class="a"/>
    <path d="M781.2 45.9L801.7-17.1 814.4 21.8ZM781.2 45.9" class="b"/>
    <path d="M815.6 25.4L836 88.5 802.9 64.4ZM815.6 25.4" class="b"/>
    <path d="M873.6 115.8L881.3 92.1 841 92.1ZM873.6 115.8" class="a"/>
    <path d="M839.8 93.7L860.3 156.8 873 117.8ZM839.8 93.7" class="b"/>
    <path d="M875.5 116.4L883.2 92.7 915.9 116.4ZM875.5 116.4" class="a"/>
    <path d="M885.8 92.1L952.1 92.1 918.9 116.2ZM885.8 92.1" class="b"/>
    <path d="M915.9 118.4L862.2 157.4 874.9 118.4ZM915.9 118.4" class="b"/>
    <path d="M940.8 132.1L920.6 117.4 953.3 93.7ZM940.8 132.1" class="a"/>
    <path d="M955.2 94.3L975.7 157.4 942.5 133.3ZM955.2 94.3" class="b"/>
    <path d="M970.4 134.7L978.1 158.4 1010.7 134.7ZM970.4 134.7" class="a"/>
    <path d="M980.6 159L1046.9 159 1013.8 134.9ZM980.6 159" class="b"/>
    <path d="M1010.7 132.7L957.1 93.7 969.7 132.7ZM1010.7 132.7" class="b"/>
    <path d="M939.6 133.7L919.5 119 907 157.4ZM939.6 133.7" class="a"/>
    <path d="M917 120L863.4 159 904.4 159ZM917 120" class="b"/>
    <path d="M908.2 159L974.5 159 941.3 134.9ZM908.2 159" class="b"/>
    <path d="M873.6 66.4L881.3 90.1 841 90.1ZM873.6 66.4" class="a"/>
    <path d="M839.8 88.5L860.3 25.4 873 64.4ZM839.8 88.5" class="b"/>
    <path d="M851.3 46.9L859 23.2 818.6 23.2ZM851.3 46.9" class="a"/>
    <path d="M857.3 21.2L803.6-17.8 816.3 21.2ZM857.3 21.2" class="b"/>
    <path d="M817.5 24.8L837.9 87.9 850.6 48.9ZM817.5 24.8" class="b"/>
    <path d="M875.5 65.8L883.2 89.5 915.9 65.8ZM875.5 65.8" class="a"/>
    <path d="M885.8 90.1L952.1 90.1 918.9 66ZM885.8 90.1" class="b"/>
    <path d="M915.9 63.8L862.2 24.8 874.9 63.8ZM915.9 63.8" class="b"/>
    <path d="M722.1 92.1L729.8 115.8 762.4 92.1ZM722.1 92.1" class="a"/>
    <path d="M762.4 90.1L708.8 51.1 721.4 90.1ZM762.4 90.1" class="b"/>
    <path d="M720.2 92.7L727.9 116.4 687.6 116.4ZM720.2 92.7" class="a"/>
    <path d="M726.2 118.4L672.6 157.4 685.2 118.4ZM726.2 118.4" class="b"/>
    <path d="M686.4 114.8L706.9 51.8 719.6 90.7ZM686.4 114.8" class="b"/>
    <path d="M658.2 118.4L683.1 118.4 670.7 156.8ZM658.2 118.4" class="a"/>
    <path d="M668.8 157.4L615.1 118.4 656.1 118.4ZM668.8 157.4" class="b"/>
    <path d="M632.7 133.7L612.6 119 600.1 157.4ZM632.7 133.7" class="a"/>
    <path d="M610.2 120L556.5 159 597.5 159ZM610.2 120" class="b"/>
    <path d="M601.3 159L667.6 159 634.4 134.9ZM601.3 159" class="b"/>
    <path d="M658.2 116.4L683.1 116.4 670.7 78.1ZM658.2 116.4" class="a"/>
    <path d="M684.5 114.2L705 51.1 671.8 75.2ZM684.5 114.2" class="b"/>
    <path d="M668.8 77.5L615.1 116.4 656.1 116.4ZM668.8 77.5" class="b"/>
    <path d="M751.1 132.1L731 117.4 763.6 93.7ZM751.1 132.1" class="a"/>
    <path d="M765.5 94.3L786 157.4 752.8 133.3ZM765.5 94.3" class="b"/>
    <path d="M780.7 134.7L788.4 158.4 821 134.7ZM780.7 134.7" class="a"/>
    <path d="M791 159L857.3 159 824.1 134.9ZM791 159" class="b"/>
    <path d="M821 132.7L767.4 93.7 780.1 132.7ZM821 132.7" class="b"/>
    <path d="M750 133.7L729.8 119 717.3 157.4ZM750 133.7" class="a"/>
    <path d="M727.4 120L673.7 159 714.7 159ZM727.4 120" class="b"/>
    <path d="M718.5 159L784.8 159 751.7 134.9ZM718.5 159" class="b"/>
    <path d="M223.6 4.3L231.3-19.4 191-19.4ZM223.6 4.3" class="a"/>
    <path d="M189.8-17.8L210.3 45.3 223 6.3ZM189.8-17.8" class="b"/>
    <path d="M225.5 4.9L233.2-18.8 265.9 4.9ZM225.5 4.9" class="a"/>
    <path d="M235.8-19.4L302.1-19.4 268.9 4.7ZM235.8-19.4" class="b"/>
    <path d="M265.9 6.9L212.2 45.9 224.9 6.9ZM265.9 6.9" class="b"/>
    <path d="M173.6 20.6L153.4 5.9 186-17.8ZM173.6 20.6" class="a"/>
    <path d="M187.9-17.1L208.4 45.9 175.3 21.8ZM187.9-17.1" class="b"/>
    <path d="M172.4 22.2L152.2 7.6 139.8 45.9ZM172.4 22.2" class="a"/>
    <path d="M149.8 8.6L96.2 47.5 137.2 47.5ZM149.8 8.6" class="b"/>
    <path d="M141 47.5L207.3 47.5 174.1 23.4ZM141 47.5" class="b"/>
    <path d="M128.8 73.2L136.5 49.5 96.2 49.5ZM128.8 73.2" class="a"/>
    <path d="M95 51.1L115.5 114.2 128.2 75.2ZM95 51.1" class="b"/>
    <path d="M106.4 92.7L114.1 116.4 73.8 116.4ZM106.4 92.7" class="a"/>
    <path d="M112.4 118.4L58.8 157.4 71.4 118.4ZM112.4 118.4" class="b"/>
    <path d="M72.6 114.8L93.1 51.8 105.8 90.7ZM72.6 114.8" class="b"/>
    <path d="M130.7 73.8L138.4 50.1 171 73.8ZM130.7 73.8" class="a"/>
    <path d="M141 49.5L207.3 49.5 174.1 73.6ZM141 49.5" class="b"/>
    <path d="M171 75.8L117.4 114.8 130.1 75.8ZM171 75.8" class="b"/>
    <path d="M144.5-19.4L152.2 4.3 184.9-19.4ZM144.5-19.4" class="a"/>
    <path d="M142.6-18.8L150.3 4.9 110 4.9ZM142.6-18.8" class="a"/>
    <path d="M148.6 6.9L95 45.9 107.7 6.9ZM148.6 6.9" class="b"/>
    <path d="M108.9 3.3L129.3-59.7 142-20.8ZM108.9 3.3" class="b"/>
    <path d="M55.2 74.8L35 89.5 22.6 51.1ZM55.2 74.8" class="a"/>
    <path d="M23.7 49.5L90 49.5 56.9 73.6ZM23.7 49.5" class="b"/>
    <path d="M56.4 76.5L36.2 91.1 68.8 114.8ZM56.4 76.5" class="a"/>
    <path d="M36.4 93.7L56.9 156.8 69.6 117.8ZM36.4 93.7" class="b"/>
    <path d="M70.7 114.2L91.2 51.1 58.1 75.2ZM70.7 114.2" class="b"/>
    <path d="M8.2 90.1L33.1 90.1 20.7 51.8ZM8.2 90.1" class="a"/>
    <path d="M18.8 51.1L-34.9 90.1 6.1 90.1ZM18.8 51.1" class="b"/>
    <path d="M-48.7 49.5L17.6 49.5 -15.6 73.6ZM-48.7 49.5" class="b"/>
    <path d="M8.2 92.1L33.1 92.1 20.7 130.4ZM8.2 92.1" class="a"/>
    <path d="M34.5 94.3L55 157.4 21.8 133.3ZM34.5 94.3" class="b"/>
    <path d="M18.8 131.1L-34.9 92.1 6.1 92.1ZM18.8 131.1" class="b"/>
    <path d="M-22.7 134.7L-15 158.4 17.6 134.7ZM-22.7 134.7" class="a"/>
    <path d="M-12.5 159L53.8 159 20.7 134.9ZM-12.5 159" class="b"/>
    <path d="M17.6 132.7L-36 93.7 -23.4 132.7ZM17.6 132.7" class="b"/>
    <path d="M55.2 22.2L35 7.6 22.6 45.9ZM55.2 22.2" class="a"/>
    <path d="M23.7 47.5L90 47.5 56.9 23.4ZM23.7 47.5" class="b"/>
    <path d="M56.4 20.6L36.2 5.9 68.8-17.8ZM56.4 20.6" class="a"/>
    <path d="M36.4 3.3L56.9-59.7 69.6-20.8ZM36.4 3.3" class="b"/>
    <path d="M70.7-17.1L91.2 45.9 58.1 21.8ZM70.7-17.1" class="b"/>
    <path d="M92.6-35L72.4-20.4 105 3.3ZM92.6-35" class="a"/>
    <path d="M72.6-17.8L93.1 45.3 105.8 6.3ZM72.6-17.8" class="b"/>
    <path d="M106.9 2.7L127.4-60.3 94.3-36.3ZM106.9 2.7" class="b"/>
    <path d="M8.2 6.9L33.1 6.9 20.7 45.3ZM8.2 6.9" class="a"/>
    <path d="M18.8 45.9L-34.9 6.9 6.1 6.9ZM18.8 45.9" class="b"/>
    <path d="M-48.7 47.5L17.6 47.5 -15.6 23.4ZM-48.7 47.5" class="b"/>
    <path d="M8.2 4.9L33.1 4.9 20.7-33.4ZM8.2 4.9" class="a"/>
    <path d="M34.5 2.7L55-60.3 21.8-36.3ZM34.5 2.7" class="b"/>
    <path d="M18.8-34L-34.9 4.9 6.1 4.9ZM18.8-34" class="b"/>
    <path d="M256.5 49.5L281.4 49.5 268.9 87.9ZM256.5 49.5" class="a"/>
    <path d="M267 88.5L213.4 49.5 254.4 49.5ZM267 88.5" class="b"/>
    <path d="M256.5 47.5L281.4 47.5 268.9 9.2ZM256.5 47.5" class="a"/>
    <path d="M282.8 45.3L303.3-17.8 270.1 6.3ZM282.8 45.3" class="b"/>
    <path d="M267 8.6L213.4 47.5 254.4 47.5ZM267 8.6" class="b"/>
    <path d="M303.5 64.8L283.3 50.1 270.8 88.5ZM303.5 64.8" class="a"/>
    <path d="M272 90.1L338.3 90.1 305.2 66ZM272 90.1" class="b"/>
    <path d="M315.1 92.1L340 92.1 327.6 130.4ZM315.1 92.1" class="a"/>
    <path d="M341.4 94.3L361.9 157.4 328.7 133.3ZM341.4 94.3" class="b"/>
    <path d="M325.7 131.1L272 92.1 313 92.1ZM325.7 131.1" class="b"/>
    <path d="M304.6 63.2L284.5 48.5 317.1 24.8ZM304.6 63.2" class="a"/>
    <path d="M284.7 45.9L305.2-17.1 317.8 21.8ZM284.7 45.9" class="b"/>
    <path d="M319 25.4L339.5 88.5 306.3 64.4ZM319 25.4" class="b"/>
    <path d="M377.1 115.8L384.8 92.1 344.5 92.1ZM377.1 115.8" class="a"/>
    <path d="M343.3 93.7L363.8 156.8 376.4 117.8ZM343.3 93.7" class="b"/>
    <path d="M379 116.4L386.7 92.7 419.3 116.4ZM379 116.4" class="a"/>
    <path d="M389.2 92.1L455.5 92.1 422.4 116.2ZM389.2 92.1" class="b"/>
    <path d="M419.3 118.4L365.7 157.4 378.3 118.4ZM419.3 118.4" class="b"/>
    <path d="M444.3 132.1L424.1 117.4 456.7 93.7ZM444.3 132.1" class="a"/>
    <path d="M458.6 94.3L479.1 157.4 445.9 133.3ZM458.6 94.3" class="b"/>
    <path d="M473.8 134.7L481.5 158.4 514.1 134.7ZM473.8 134.7" class="a"/>
    <path d="M484.1 159L550.4 159 517.2 134.9ZM484.1 159" class="b"/>
    <path d="M514.1 132.7L460.5 93.7 473.2 132.7ZM514.1 132.7" class="b"/>
    <path d="M443.1 133.7L422.9 119 410.5 157.4ZM443.1 133.7" class="a"/>
    <path d="M420.5 120L366.9 159 407.8 159ZM420.5 120" class="b"/>
    <path d="M411.6 159L477.9 159 444.8 134.9ZM411.6 159" class="b"/>
    <path d="M377.1 66.4L384.8 90.1 344.5 90.1ZM377.1 66.4" class="a"/>
    <path d="M343.3 88.5L363.8 25.4 376.4 64.4ZM343.3 88.5" class="b"/>
    <path d="M354.7 46.9L362.4 23.2 322.1 23.2ZM354.7 46.9" class="a"/>
    <path d="M360.7 21.2L307.1-17.8 319.7 21.2ZM360.7 21.2" class="b"/>
    <path d="M320.9 24.8L341.4 87.9 354.1 48.9ZM320.9 24.8" class="b"/>
    <path d="M379 65.8L386.7 89.5 419.3 65.8ZM379 65.8" class="a"/>
    <path d="M389.2 90.1L455.5 90.1 422.4 66ZM389.2 90.1" class="b"/>
    <path d="M419.3 63.8L365.7 24.8 378.3 63.8ZM419.3 63.8" class="b"/>
    <path d="M225.5 92.1L233.2 115.8 265.9 92.1ZM225.5 92.1" class="a"/>
    <path d="M265.9 90.1L212.2 51.1 224.9 90.1ZM265.9 90.1" class="b"/>
    <path d="M223.6 92.7L231.3 116.4 191 116.4ZM223.6 92.7" class="a"/>
    <path d="M229.6 118.4L176 157.4 188.7 118.4ZM229.6 118.4" class="b"/>
    <path d="M189.8 114.8L210.3 51.8 223 90.7ZM189.8 114.8" class="b"/>
    <path d="M161.6 118.4L186.6 118.4 174.1 156.8ZM161.6 118.4" class="a"/>
    <path d="M172.2 157.4L118.6 118.4 159.5 118.4ZM172.2 157.4" class="b"/>
    <path d="M136.2 133.7L116 119 103.6 157.4ZM136.2 133.7" class="a"/>
    <path d="M113.6 120L60 159 100.9 159ZM113.6 120" class="b"/>
    <path d="M104.7 159L171 159 137.9 134.9ZM104.7 159" class="b"/>
    <path d="M161.6 116.4L186.6 116.4 174.1 78.1ZM161.6 116.4" class="a"/>
    <path d="M187.9 114.2L208.4 51.1 175.3 75.2ZM187.9 114.2" class="b"/>
    <path d="M172.2 77.5L118.6 116.4 159.5 116.4ZM172.2 77.5" class="b"/>
    <path d="M254.6 132.1L234.4 117.4 267 93.7ZM254.6 132.1" class="a"/>
    <path d="M268.9 94.3L289.4 157.4 256.3 133.3ZM268.9 94.3" class="b"/>
    <path d="M284.2 134.7L291.9 158.4 324.5 134.7ZM284.2 134.7" class="a"/>
    <path d="M294.4 159L360.7 159 327.6 134.9ZM294.4 159" class="b"/>
    <path d="M324.5 132.7L270.8 93.7 283.5 132.7ZM324.5 132.7" class="b"/>
    <path d="M253.4 133.7L233.2 119 220.8 157.4ZM253.4 133.7" class="a"/>
    <path d="M230.8 120L177.2 159 218.2 159ZM230.8 120" class="b"/>
    <path d="M222 159L288.3 159 255.1 134.9ZM222 159" class="b"/>
    <path d="M953.5 5.9L933.3 20.6 920.8-17.8ZM953.5 5.9" class="a"/>
    <path d="M922-19.4L988.3-19.4 955.2 4.7ZM922-19.4" class="b"/>
    <path d="M954.6 7.6L934.5 22.2 967.1 45.9ZM954.6 7.6" class="a"/>
    <path d="M934.7 24.8L955.2 87.9 967.8 48.9ZM934.7 24.8" class="b"/>
    <path d="M969 45.3L989.5-17.8 956.3 6.3ZM969 45.3" class="b"/>
    <path d="M989.7 64.8L969.5 50.1 957.1 88.5ZM989.7 64.8" class="a"/>
    <path d="M958.2 90.1L1024.5 90.1 991.4 66ZM958.2 90.1" class="b"/>
    <path d="M1001.3 92.1L1026.2 92.1 1013.8 130.4ZM1001.3 92.1" class="a"/>
    <path d="M1027.6 94.3L1048.1 157.4 1015 133.3ZM1027.6 94.3" class="b"/>
    <path d="M1011.9 131.1L958.2 92.1 999.2 92.1ZM1011.9 131.1" class="b"/>
    <path d="M990.9 63.2L970.7 48.5 1003.3 24.8ZM990.9 63.2" class="a"/>
    <path d="M970.9 45.9L991.4-17.1 1004.1 21.8ZM970.9 45.9" class="b"/>
    <path d="M1005.2 25.4L1025.7 88.5 992.6 64.4ZM1005.2 25.4" class="b"/>
    <path d="M906.5 21.2L931.4 21.2 918.9-17.1ZM906.5 21.2" class="a"/>
    <path d="M917-17.8L863.4 21.2 904.4 21.2ZM917-17.8" class="b"/>
    <path d="M881 5.9L860.9 20.6 848.4-17.8ZM881 5.9" class="a"/>
    <path d="M858.4 19.6L804.8-19.4 845.8-19.4ZM858.4 19.6" class="b"/>
    <path d="M849.6-19.4L915.9-19.4 882.7 4.7ZM849.6-19.4" class="b"/>
    <path d="M906.5 23.2L931.4 23.2 918.9 61.5ZM906.5 23.2" class="a"/>
    <path d="M932.8 25.4L953.3 88.5 920.1 64.4ZM932.8 25.4" class="b"/>
    <path d="M917 62.2L863.4 23.2 904.4 23.2ZM917 62.2" class="b"/>
    <path d="M1037.5-19.4L1062.5-19.4 1050 19ZM1037.5-19.4" class="a"/>
    <path d="M1063.8-17.1L1084.3 45.9 1051.2 21.8ZM1063.8-17.1" class="b"/>
    <path d="M1048.1 19.6L994.5-19.4 1035.4-19.4ZM1048.1 19.6" class="b"/>
    <path d="M1042.8 47.5L1050.5 23.8 1083.1 47.5ZM1042.8 47.5" class="a"/>
    <path d="M1083.1 49.5L1029.5 88.5 1042.2 49.5ZM1083.1 49.5" class="b"/>
    <path d="M1049.5 76.5L1029.3 91.1 1061.9 114.8ZM1049.5 76.5" class="a"/>
    <path d="M1029.5 93.7L1050 156.8 1062.7 117.8ZM1029.5 93.7" class="b"/>
    <path d="M1063.8 114.2L1084.3 51.1 1051.2 75.2ZM1063.8 114.2" class="b"/>
    <path d="M1040.9 46.9L1048.6 23.2 1008.3 23.2ZM1040.9 46.9" class="a"/>
    <path d="M1046.9 21.2L993.3-17.8 1006 21.2ZM1046.9 21.2" class="b"/>
    <path d="M1007.1 24.8L1027.6 87.9 1040.3 48.9ZM1007.1 24.8" class="b"/>
    <path d="M1085.7-35L1065.5-20.4 1098.2 3.3ZM1085.7-35" class="a"/>
    <path d="M1065.7-17.8L1086.2 45.3 1098.9 6.3ZM1065.7-17.8" class="b"/>
    <path d="M1100.1 2.7L1120.5-60.3 1087.4-36.3ZM1100.1 2.7" class="b"/>
    <path d="M1202.9-35L1182.8-20.4 1215.4 3.3ZM1202.9-35" class="a"/>
    <path d="M1183-17.8L1203.4 45.3 1216.1 6.3ZM1183-17.8" class="b"/>
    <path d="M1217.3 2.7L1237.8-60.3 1204.6-36.3ZM1217.3 2.7" class="b"/>
    <path d="M1166.7 20.6L1146.5 5.9 1179.2-17.8ZM1166.7 20.6" class="a"/>
    <path d="M1181.1-17.1L1201.5 45.9 1168.4 21.8ZM1181.1-17.1" class="b"/>
    <path d="M1165.5 22.2L1145.4 7.6 1132.9 45.9ZM1165.5 22.2" class="a"/>
    <path d="M1142.9 8.6L1089.3 47.5 1130.3 47.5ZM1142.9 8.6" class="b"/>
    <path d="M1134.1 47.5L1200.4 47.5 1167.2 23.4ZM1134.1 47.5" class="b"/>
    <path d="M1121.9 73.2L1129.6 49.5 1089.3 49.5ZM1121.9 73.2" class="a"/>
    <path d="M1088.1 51.1L1108.6 114.2 1121.3 75.2ZM1088.1 51.1" class="b"/>
    <path d="M1099.5 92.7L1107.2 116.4 1066.9 116.4ZM1099.5 92.7" class="a"/>
    <path d="M1105.5 118.4L1051.9 157.4 1064.6 118.4ZM1105.5 118.4" class="b"/>
    <path d="M1065.7 114.8L1086.2 51.8 1098.9 90.7ZM1065.7 114.8" class="b"/>
    <path d="M1123.8 73.8L1131.5 50.1 1164.1 73.8ZM1123.8 73.8" class="a"/>
    <path d="M1134.1 49.5L1200.4 49.5 1167.2 73.6ZM1134.1 49.5" class="b"/>
    <path d="M1164.1 75.8L1110.5 114.8 1123.2 75.8ZM1164.1 75.8" class="b"/>
    <path d="M1137.7-19.4L1145.4 4.3 1178-19.4ZM1137.7-19.4" class="a"/>
    <path d="M1135.8-18.8L1143.5 4.9 1103.1 4.9ZM1135.8-18.8" class="a"/>
    <path d="M1141.8 6.9L1088.1 45.9 1100.8 6.9ZM1141.8 6.9" class="b"/>
    <path d="M1102 3.3L1122.4-59.7 1135.1-20.8ZM1102 3.3" class="b"/>
    <path d="M1241.6-60.3L1262.1 2.7 1274.7-36.3ZM1241.6-60.3" class="b"/>
    <path d="M1253-18.8L1260.7 4.9 1220.4 4.9ZM1253-18.8" class="a"/>
    <path d="M1259 6.9L1205.3 45.9 1218 6.9ZM1259 6.9" class="b"/>
    <path d="M1219.2 3.3L1239.7-59.7 1252.3-20.8ZM1219.2 3.3" class="b"/>
    <path d="M1317.6-35.6L1264 3.3 1276.6-35.6ZM1317.6-35.6" class="b"/>
    <path d="M2020.2 4.3L2027.9-19.4 1987.6-19.4ZM2020.2 4.3" class="a"/>
    <path d="M1986.4-17.8L2006.9 45.3 2019.6 6.3ZM1986.4-17.8" class="b"/>
    <path d="M2022.1 4.9L2029.8-18.8 2062.4 4.9ZM2022.1 4.9" class="a"/>
    <path d="M2032.4-19.4L2098.6-19.4 2065.5 4.7ZM2032.4-19.4" class="b"/>
    <path d="M2062.4 6.9L2008.8 45.9 2021.4 6.9ZM2062.4 6.9" class="b"/>
    <path d="M1970.1 20.6L1950 5.9 1982.6-17.8ZM1970.1 20.6" class="a"/>
    <path d="M1984.5-17.1L2005 45.9 1971.8 21.8ZM1984.5-17.1" class="b"/>
    <path d="M1969 22.2L1948.8 7.6 1936.3 45.9ZM1969 22.2" class="a"/>
    <path d="M1946.4 8.6L1892.7 47.5 1933.7 47.5ZM1946.4 8.6" class="b"/>
    <path d="M1937.5 47.5L2003.8 47.5 1970.7 23.4ZM1937.5 47.5" class="b"/>
    <path d="M1925.4 73.2L1933.1 49.5 1892.7 49.5ZM1925.4 73.2" class="a"/>
    <path d="M1891.6 51.1L1912.1 114.2 1924.7 75.2ZM1891.6 51.1" class="b"/>
    <path d="M1903 92.7L1910.7 116.4 1870.4 116.4ZM1903 92.7" class="a"/>
    <path d="M1909 118.4L1855.3 157.4 1868 118.4ZM1909 118.4" class="b"/>
    <path d="M1869.2 114.8L1889.7 51.8 1902.3 90.7ZM1869.2 114.8" class="b"/>
    <path d="M1927.3 73.8L1935 50.1 1967.6 73.8ZM1927.3 73.8" class="a"/>
    <path d="M1937.5 49.5L2003.8 49.5 1970.7 73.6ZM1937.5 49.5" class="b"/>
    <path d="M1967.6 75.8L1914 114.8 1926.6 75.8ZM1967.6 75.8" class="b"/>
    <path d="M1941.1-19.4L1948.8 4.3 1981.4-19.4ZM1941.1-19.4" class="a"/>
    <path d="M1939.2-18.8L1946.9 4.9 1906.6 4.9ZM1939.2-18.8" class="a"/>
    <path d="M1945.2 6.9L1891.6 45.9 1904.2 6.9ZM1945.2 6.9" class="b"/>
    <path d="M1905.4 3.3L1925.9-59.7 1938.6-20.8ZM1905.4 3.3" class="b"/>
    <path d="M2053 49.5L2078 49.5 2065.5 87.9ZM2053 49.5" class="a"/>
    <path d="M2063.6 88.5L2010 49.5 2050.9 49.5ZM2063.6 88.5" class="b"/>
    <path d="M2053 47.5L2078 47.5 2065.5 9.2ZM2053 47.5" class="a"/>
    <path d="M2079.3 45.3L2099.8-17.8 2066.7 6.3ZM2079.3 45.3" class="b"/>
    <path d="M2063.6 8.6L2010 47.5 2050.9 47.5ZM2063.6 8.6" class="b"/>
    <path d="M2100 64.8L2079.9 50.1 2067.4 88.5ZM2100 64.8" class="a"/>
    <path d="M2068.6 90.1L2134.9 90.1 2101.7 66ZM2068.6 90.1" class="b"/>
    <path d="M2122.2 131.1L2068.6 92.1 2109.5 92.1ZM2122.2 131.1" class="b"/>
    <path d="M2101.2 63.2L2081 48.5 2113.7 24.8ZM2101.2 63.2" class="a"/>
    <path d="M2081.2 45.9L2101.7-17.1 2114.4 21.8ZM2081.2 45.9" class="b"/>
    <path d="M2022.1 92.1L2029.8 115.8 2062.4 92.1ZM2022.1 92.1" class="a"/>
    <path d="M2062.4 90.1L2008.8 51.1 2021.4 90.1ZM2062.4 90.1" class="b"/>
    <path d="M2020.2 92.7L2027.9 116.4 1987.6 116.4ZM2020.2 92.7" class="a"/>
    <path d="M2026.2 118.4L1972.6 157.4 1985.2 118.4ZM2026.2 118.4" class="b"/>
    <path d="M1986.4 114.8L2006.9 51.8 2019.6 90.7ZM1986.4 114.8" class="b"/>
    <path d="M1958.2 118.4L1983.1 118.4 1970.7 156.8ZM1958.2 118.4" class="a"/>
    <path d="M1968.8 157.4L1915.1 118.4 1956.1 118.4ZM1968.8 157.4" class="b"/>
    <path d="M1932.7 133.7L1912.6 119 1900.1 157.4ZM1932.7 133.7" class="a"/>
    <path d="M1910.2 120L1856.5 159 1897.5 159ZM1910.2 120" class="b"/>
    <path d="M1901.3 159L1967.6 159 1934.4 134.9ZM1901.3 159" class="b"/>
    <path d="M1958.2 116.4L1983.1 116.4 1970.7 78.1ZM1958.2 116.4" class="a"/>
    <path d="M1984.5 114.2L2005 51.1 1971.8 75.2ZM1984.5 114.2" class="b"/>
    <path d="M1968.8 77.5L1915.1 116.4 1956.1 116.4ZM1968.8 77.5" class="b"/>
    <path d="M2051.1 132.1L2031 117.4 2063.6 93.7ZM2051.1 132.1" class="a"/>
    <path d="M2065.5 94.3L2086 157.4 2052.8 133.3ZM2065.5 94.3" class="b"/>
    <path d="M2080.7 134.7L2088.4 158.4 2121 134.7ZM2080.7 134.7" class="a"/>
    <path d="M2091 159L2157.3 159 2124.1 134.9ZM2091 159" class="b"/>
    <path d="M2121 132.7L2067.4 93.7 2080.1 132.7ZM2121 132.7" class="b"/>
    <path d="M2050 133.7L2029.8 119 2017.3 157.4ZM2050 133.7" class="a"/>
    <path d="M2027.4 120L1973.7 159 2014.7 159ZM2027.4 120" class="b"/>
    <path d="M2018.5 159L2084.8 159 2051.7 134.9ZM2018.5 159" class="b"/>
    <path d="M1841-19.4L1865.9-19.4 1853.4 19ZM1841-19.4" class="a"/>
    <path d="M1867.3-17.1L1887.8 45.9 1854.6 21.8ZM1867.3-17.1" class="b"/>
    <path d="M1851.5 19.6L1797.9-19.4 1838.9-19.4ZM1851.5 19.6" class="b"/>
    <path d="M1846.3 47.5L1854 23.8 1886.6 47.5ZM1846.3 47.5" class="a"/>
    <path d="M1886.6 49.5L1833 88.5 1845.6 49.5ZM1886.6 49.5" class="b"/>
    <path d="M1852.9 76.5L1832.8 91.1 1865.4 114.8ZM1852.9 76.5" class="a"/>
    <path d="M1833 93.7L1853.4 156.8 1866.1 117.8ZM1833 93.7" class="b"/>
    <path d="M1867.3 114.2L1887.8 51.1 1854.6 75.2ZM1867.3 114.2" class="b"/>
    <path d="M1844.4 46.9L1852.1 23.2 1811.7 23.2ZM1844.4 46.9" class="a"/>
    <path d="M1850.4 21.2L1796.7-17.8 1809.4 21.2ZM1850.4 21.2" class="b"/>
    <path d="M1810.6 24.8L1831.1 87.9 1843.7 48.9ZM1810.6 24.8" class="b"/>
    <path d="M1889.1-35L1869-20.4 1901.6 3.3ZM1889.1-35" class="a"/>
    <path d="M1869.2-17.8L1889.7 45.3 1902.3 6.3ZM1869.2-17.8" class="b"/>
    <path d="M1903.5 2.7L1924-60.3 1890.8-36.3ZM1903.5 2.7" class="b"/>
    <path d="M1756.9 5.9L1736.8 20.6 1724.3-17.8ZM1756.9 5.9" class="a"/>
    <path d="M1725.5-19.4L1791.8-19.4 1758.6 4.7ZM1725.5-19.4" class="b"/>
    <path d="M1758.1 7.6L1737.9 22.2 1770.5 45.9ZM1758.1 7.6" class="a"/>
    <path d="M1738.1 24.8L1758.6 87.9 1771.3 48.9ZM1738.1 24.8" class="b"/>
    <path d="M1772.4 45.3L1792.9-17.8 1759.8 6.3ZM1772.4 45.3" class="b"/>
    <path d="M1793.1 64.8L1773 50.1 1760.5 88.5ZM1793.1 64.8" class="a"/>
    <path d="M1761.7 90.1L1828 90.1 1794.8 66ZM1761.7 90.1" class="b"/>
    <path d="M1804.8 92.1L1829.7 92.1 1817.2 130.4ZM1804.8 92.1" class="a"/>
    <path d="M1831.1 94.3L1851.5 157.4 1818.4 133.3ZM1831.1 94.3" class="b"/>
    <path d="M1815.3 131.1L1761.7 92.1 1802.7 92.1ZM1815.3 131.1" class="b"/>
    <path d="M1794.3 63.2L1774.1 48.5 1806.8 24.8ZM1794.3 63.2" class="a"/>
    <path d="M1774.3 45.9L1794.8-17.1 1807.5 21.8ZM1774.3 45.9" class="b"/>
    <path d="M1808.7 25.4L1829.2 88.5 1796 64.4ZM1808.7 25.4" class="b"/>
    <path d="M1709.9 21.2L1734.8 21.2 1722.4-17.1ZM1709.9 21.2" class="a"/>
    <path d="M1720.5-17.8L1666.9 21.2 1707.8 21.2ZM1720.5-17.8" class="b"/>
    <path d="M1684.5 5.9L1664.3 20.6 1651.8-17.8ZM1684.5 5.9" class="a"/>
    <path d="M1661.9 19.6L1608.2-19.4 1649.2-19.4ZM1661.9 19.6" class="b"/>
    <path d="M1653-19.4L1719.3-19.4 1686.2 4.7ZM1653-19.4" class="b"/>
    <path d="M1709.9 23.2L1734.8 23.2 1722.4 61.5ZM1709.9 23.2" class="a"/>
    <path d="M1736.2 25.4L1756.7 88.5 1723.6 64.4ZM1736.2 25.4" class="b"/>
    <path d="M1720.5 62.2L1666.9 23.2 1707.8 23.2ZM1720.5 62.2" class="b"/>
    <path d="M1523.6 4.3L1531.3-19.4 1491-19.4ZM1523.6 4.3" class="a"/>
    <path d="M1489.8-17.8L1510.3 45.3 1523 6.3ZM1489.8-17.8" class="b"/>
    <path d="M1525.5 4.9L1533.2-18.8 1565.9 4.9ZM1525.5 4.9" class="a"/>
    <path d="M1535.8-19.4L1602.1-19.4 1568.9 4.7ZM1535.8-19.4" class="b"/>
    <path d="M1565.9 6.9L1512.2 45.9 1524.9 6.9ZM1565.9 6.9" class="b"/>
    <path d="M1473.6 20.6L1453.4 5.9 1486-17.8ZM1473.6 20.6" class="a"/>
    <path d="M1487.9-17.1L1508.4 45.9 1475.3 21.8ZM1487.9-17.1" class="b"/>
    <path d="M1472.4 22.2L1452.2 7.6 1439.8 45.9ZM1472.4 22.2" class="a"/>
    <path d="M1449.8 8.6L1396.2 47.5 1437.2 47.5ZM1449.8 8.6" class="b"/>
    <path d="M1441 47.5L1507.3 47.5 1474.1 23.4ZM1441 47.5" class="b"/>
    <path d="M1428.8 73.2L1436.5 49.5 1396.2 49.5ZM1428.8 73.2" class="a"/>
    <path d="M1395 51.1L1415.5 114.2 1428.2 75.2ZM1395 51.1" class="b"/>
    <path d="M1406.4 92.7L1414.1 116.4 1373.8 116.4ZM1406.4 92.7" class="a"/>
    <path d="M1412.4 118.4L1358.8 157.4 1371.4 118.4ZM1412.4 118.4" class="b"/>
    <path d="M1372.6 114.8L1393.1 51.8 1405.8 90.7ZM1372.6 114.8" class="b"/>
    <path d="M1430.7 73.8L1438.4 50.1 1471 73.8ZM1430.7 73.8" class="a"/>
    <path d="M1441 49.5L1507.3 49.5 1474.1 73.6ZM1441 49.5" class="b"/>
    <path d="M1471 75.8L1417.4 114.8 1430.1 75.8ZM1471 75.8" class="b"/>
    <path d="M1444.5-19.4L1452.2 4.3 1484.9-19.4ZM1444.5-19.4" class="a"/>
    <path d="M1442.6-18.8L1450.3 4.9 1410 4.9ZM1442.6-18.8" class="a"/>
    <path d="M1448.6 6.9L1395 45.9 1407.7 6.9ZM1448.6 6.9" class="b"/>
    <path d="M1408.9 3.3L1429.3-59.7 1442-20.8ZM1408.9 3.3" class="b"/>
    <path d="M1355.2 74.8L1335 89.5 1322.6 51.1ZM1355.2 74.8" class="a"/>
    <path d="M1323.7 49.5L1390 49.5 1356.9 73.6ZM1323.7 49.5" class="b"/>
    <path d="M1356.4 76.5L1336.2 91.1 1368.8 114.8ZM1356.4 76.5" class="a"/>
    <path d="M1336.4 93.7L1356.9 156.8 1369.6 117.8ZM1336.4 93.7" class="b"/>
    <path d="M1370.7 114.2L1391.2 51.1 1358.1 75.2ZM1370.7 114.2" class="b"/>
    <path d="M1308.2 90.1L1333.1 90.1 1320.7 51.8ZM1308.2 90.1" class="a"/>
    <path d="M1318.8 51.1L1265.1 90.1 1306.1 90.1ZM1318.8 51.1" class="b"/>
    <path d="M1282.7 74.8L1262.6 89.5 1250.1 51.1ZM1282.7 74.8" class="a"/>
    <path d="M1260.2 88.5L1206.5 49.5 1247.5 49.5ZM1260.2 88.5" class="b"/>
    <path d="M1251.3 49.5L1317.6 49.5 1284.4 73.6ZM1251.3 49.5" class="b"/>
    <path d="M1308.2 92.1L1333.1 92.1 1320.7 130.4ZM1308.2 92.1" class="a"/>
    <path d="M1334.5 94.3L1355 157.4 1321.8 133.3ZM1334.5 94.3" class="b"/>
    <path d="M1318.8 131.1L1265.1 92.1 1306.1 92.1ZM1318.8 131.1" class="b"/>
    <path d="M1218.7 92.1L1226.4 115.8 1259 92.1ZM1218.7 92.1" class="a"/>
    <path d="M1259 90.1L1205.3 51.1 1218 90.1ZM1259 90.1" class="b"/>
    <path d="M1216.8 92.7L1224.5 116.4 1184.1 116.4ZM1216.8 92.7" class="a"/>
    <path d="M1222.8 118.4L1169.1 157.4 1181.8 118.4ZM1222.8 118.4" class="b"/>
    <path d="M1183 114.8L1203.4 51.8 1216.1 90.7ZM1183 114.8" class="b"/>
    <path d="M1154.8 118.4L1179.7 118.4 1167.2 156.8ZM1154.8 118.4" class="a"/>
    <path d="M1165.3 157.4L1111.7 118.4 1152.7 118.4ZM1165.3 157.4" class="b"/>
    <path d="M1129.3 133.7L1109.1 119 1096.7 157.4ZM1129.3 133.7" class="a"/>
    <path d="M1106.7 120L1053.1 159 1094 159ZM1106.7 120" class="b"/>
    <path d="M1097.9 159L1164.1 159 1131 134.9ZM1097.9 159" class="b"/>
    <path d="M1154.8 116.4L1179.7 116.4 1167.2 78.1ZM1154.8 116.4" class="a"/>
    <path d="M1181.1 114.2L1201.5 51.1 1168.4 75.2ZM1181.1 114.2" class="b"/>
    <path d="M1165.3 77.5L1111.7 116.4 1152.7 116.4ZM1165.3 77.5" class="b"/>
    <path d="M1247.7 132.1L1227.5 117.4 1260.2 93.7ZM1247.7 132.1" class="a"/>
    <path d="M1262.1 94.3L1282.5 157.4 1249.4 133.3ZM1262.1 94.3" class="b"/>
    <path d="M1277.3 134.7L1285 158.4 1317.6 134.7ZM1277.3 134.7" class="a"/>
    <path d="M1287.5 159L1353.8 159 1320.7 134.9ZM1287.5 159" class="b"/>
    <path d="M1317.6 132.7L1264 93.7 1276.6 132.7ZM1317.6 132.7" class="b"/>
    <path d="M1246.5 133.7L1226.4 119 1213.9 157.4ZM1246.5 133.7" class="a"/>
    <path d="M1223.9 120L1170.3 159 1211.3 159ZM1223.9 120" class="b"/>
    <path d="M1215.1 159L1281.4 159 1248.2 134.9ZM1215.1 159" class="b"/>
    <path d="M1355.2 22.2L1335 7.6 1322.6 45.9ZM1355.2 22.2" class="a"/>
    <path d="M1323.7 47.5L1390 47.5 1356.9 23.4ZM1323.7 47.5" class="b"/>
    <path d="M1356.4 20.6L1336.2 5.9 1368.8-17.8ZM1356.4 20.6" class="a"/>
    <path d="M1336.4 3.3L1356.9-59.7 1369.6-20.8ZM1336.4 3.3" class="b"/>
    <path d="M1370.7-17.1L1391.2 45.9 1358.1 21.8ZM1370.7-17.1" class="b"/>
    <path d="M1392.6-35L1372.4-20.4 1405 3.3ZM1392.6-35" class="a"/>
    <path d="M1372.6-17.8L1393.1 45.3 1405.8 6.3ZM1372.6-17.8" class="b"/>
    <path d="M1406.9 2.7L1427.4-60.3 1394.3-36.3ZM1406.9 2.7" class="b"/>
    <path d="M1308.2 6.9L1333.1 6.9 1320.7 45.3ZM1308.2 6.9" class="a"/>
    <path d="M1318.8 45.9L1265.1 6.9 1306.1 6.9ZM1318.8 45.9" class="b"/>
    <path d="M1282.7 22.2L1262.6 7.6 1250.1 45.9ZM1282.7 22.2" class="a"/>
    <path d="M1260.2 8.6L1206.5 47.5 1247.5 47.5ZM1260.2 8.6" class="b"/>
    <path d="M1251.3 47.5L1317.6 47.5 1284.4 23.4ZM1251.3 47.5" class="b"/>
    <path d="M1308.2 4.9L1333.1 4.9 1320.7-33.4ZM1308.2 4.9" class="a"/>
    <path d="M1334.5 2.7L1355-60.3 1321.8-36.3ZM1334.5 2.7" class="b"/>
    <path d="M1318.8-34L1265.1 4.9 1306.1 4.9ZM1318.8-34" class="b"/>
    <path d="M1556.5 49.5L1581.4 49.5 1568.9 87.9ZM1556.5 49.5" class="a"/>
    <path d="M1567 88.5L1513.4 49.5 1554.4 49.5ZM1567 88.5" class="b"/>
    <path d="M1556.5 47.5L1581.4 47.5 1568.9 9.2ZM1556.5 47.5" class="a"/>
    <path d="M1582.8 45.3L1603.3-17.8 1570.1 6.3ZM1582.8 45.3" class="b"/>
    <path d="M1567 8.6L1513.4 47.5 1554.4 47.5ZM1567 8.6" class="b"/>
    <path d="M1603.5 64.8L1583.3 50.1 1570.8 88.5ZM1603.5 64.8" class="a"/>
    <path d="M1572 90.1L1638.3 90.1 1605.2 66ZM1572 90.1" class="b"/>
    <path d="M1615.1 92.1L1640 92.1 1627.6 130.4ZM1615.1 92.1" class="a"/>
    <path d="M1641.4 94.3L1661.9 157.4 1628.7 133.3ZM1641.4 94.3" class="b"/>
    <path d="M1625.7 131.1L1572 92.1 1613 92.1ZM1625.7 131.1" class="b"/>
    <path d="M1604.6 63.2L1584.5 48.5 1617.1 24.8ZM1604.6 63.2" class="a"/>
    <path d="M1584.7 45.9L1605.2-17.1 1617.8 21.8ZM1584.7 45.9" class="b"/>
    <path d="M1619 25.4L1639.5 88.5 1606.3 64.4ZM1619 25.4" class="b"/>
    <path d="M1677.1 115.8L1684.8 92.1 1644.5 92.1ZM1677.1 115.8" class="a"/>
    <path d="M1643.3 93.7L1663.8 156.8 1676.4 117.8ZM1643.3 93.7" class="b"/>
    <path d="M1679 116.4L1686.7 92.7 1719.3 116.4ZM1679 116.4" class="a"/>
    <path d="M1689.2 92.1L1755.5 92.1 1722.4 116.2ZM1689.2 92.1" class="b"/>
    <path d="M1719.3 118.4L1665.7 157.4 1678.3 118.4ZM1719.3 118.4" class="b"/>
    <path d="M1744.3 132.1L1724.1 117.4 1756.7 93.7ZM1744.3 132.1" class="a"/>
    <path d="M1758.6 94.3L1779.1 157.4 1745.9 133.3ZM1758.6 94.3" class="b"/>
    <path d="M1773.8 134.7L1781.5 158.4 1814.1 134.7ZM1773.8 134.7" class="a"/>
    <path d="M1784.1 159L1850.4 159 1817.2 134.9ZM1784.1 159" class="b"/>
    <path d="M1814.1 132.7L1760.5 93.7 1773.2 132.7ZM1814.1 132.7" class="b"/>
    <path d="M1743.1 133.7L1722.9 119 1710.5 157.4ZM1743.1 133.7" class="a"/>
    <path d="M1720.5 120L1666.9 159 1707.8 159ZM1720.5 120" class="b"/>
    <path d="M1711.6 159L1777.9 159 1744.8 134.9ZM1711.6 159" class="b"/>
    <path d="M1677.1 66.4L1684.8 90.1 1644.5 90.1ZM1677.1 66.4" class="a"/>
    <path d="M1643.3 88.5L1663.8 25.4 1676.4 64.4ZM1643.3 88.5" class="b"/>
    <path d="M1654.7 46.9L1662.4 23.2 1622.1 23.2ZM1654.7 46.9" class="a"/>
    <path d="M1660.7 21.2L1607.1-17.8 1619.7 21.2ZM1660.7 21.2" class="b"/>
    <path d="M1620.9 24.8L1641.4 87.9 1654.1 48.9ZM1620.9 24.8" class="b"/>
    <path d="M1679 65.8L1686.7 89.5 1719.3 65.8ZM1679 65.8" class="a"/>
    <path d="M1689.2 90.1L1755.5 90.1 1722.4 66ZM1689.2 90.1" class="b"/>
    <path d="M1719.3 63.8L1665.7 24.8 1678.3 63.8ZM1719.3 63.8" class="b"/>
    <path d="M1525.5 92.1L1533.2 115.8 1565.9 92.1ZM1525.5 92.1" class="a"/>
    <path d="M1565.9 90.1L1512.2 51.1 1524.9 90.1ZM1565.9 90.1" class="b"/>
    <path d="M1523.6 92.7L1531.3 116.4 1491 116.4ZM1523.6 92.7" class="a"/>
    <path d="M1529.6 118.4L1476 157.4 1488.7 118.4ZM1529.6 118.4" class="b"/>
    <path d="M1489.8 114.8L1510.3 51.8 1523 90.7ZM1489.8 114.8" class="b"/>
    <path d="M1461.6 118.4L1486.6 118.4 1474.1 156.8ZM1461.6 118.4" class="a"/>
    <path d="M1472.2 157.4L1418.6 118.4 1459.5 118.4ZM1472.2 157.4" class="b"/>
    <path d="M1436.2 133.7L1416 119 1403.6 157.4ZM1436.2 133.7" class="a"/>
    <path d="M1413.6 120L1360 159 1400.9 159ZM1413.6 120" class="b"/>
    <path d="M1404.7 159L1471 159 1437.9 134.9ZM1404.7 159" class="b"/>
    <path d="M1461.6 116.4L1486.6 116.4 1474.1 78.1ZM1461.6 116.4" class="a"/>
    <path d="M1487.9 114.2L1508.4 51.1 1475.3 75.2ZM1487.9 114.2" class="b"/>
    <path d="M1472.2 77.5L1418.6 116.4 1459.5 116.4ZM1472.2 77.5" class="b"/>
    <path d="M1554.6 132.1L1534.4 117.4 1567 93.7ZM1554.6 132.1" class="a"/>
    <path d="M1568.9 94.3L1589.4 157.4 1556.3 133.3ZM1568.9 94.3" class="b"/>
    <path d="M1584.2 134.7L1591.9 158.4 1624.5 134.7ZM1584.2 134.7" class="a"/>
    <path d="M1594.4 159L1660.7 159 1627.6 134.9ZM1594.4 159" class="b"/>
    <path d="M1624.5 132.7L1570.8 93.7 1583.5 132.7ZM1624.5 132.7" class="b"/>
    <path d="M1553.4 133.7L1533.2 119 1520.8 157.4ZM1553.4 133.7" class="a"/>
    <path d="M1530.8 120L1477.2 159 1518.2 159ZM1530.8 120" class="b"/>
    <path d="M1522 159L1588.3 159 1555.1 134.9ZM1522 159" class="b"/>
</svg>
