<svg xmlns="http://www.w3.org/2000/svg" width="2800" height="350pt" viewBox="0 0 2100 350"><path fill="#1a1a33" d="M0 0h2100v350H0z"/><path d="M-12.098 360.723l-2.804-124.348 31.789 62.64M-6.703 212.848l33.762 38.203-41.758-19.547" fill="#cb3c33" fill-opacity=".75"/><path d="M17.742 296.285l-31.535-62.148 43.594 20.406" fill="#9558b2" fill-opacity=".75"/><path d="M-13.09 161.754l-4.71-62.176 51.812 50.871M17.723 301.941l16.96 65.95-46.163-3.77M-17.035 37.27l57.7 53.914-58.645 4.73" fill="#389826" fill-opacity=".75"/><path d="M35.246 148.86l-51.984-51.04 58.601-4.726" fill="#9558b2" fill-opacity=".75"/><path d="M30.496 251.922l-35.539-40.215 47.7-7.484" fill="#389826" fill-opacity=".75"/><path d="M-6.156 209.855l-6.524-44.73 54.051 37.277" fill="#9558b2" fill-opacity=".75"/><path d="M35.176 152.227l7.484 48.632-54.246-37.41" fill="#cb3c33" fill-opacity=".75"/><path d="M31.05 257.426l16.38 50.957-28.207-10.012" fill="#389826" fill-opacity=".75"/><path d="M35.926 364.691l-16.489-64.12 28.395 10.077" fill="#cb3c33" fill-opacity=".75"/><path d="M18.902-1.469l46.422 61.582-81.472-25.582" fill="#389826" fill-opacity=".75"/><path d="M42.91 90.547L-14.105 37.27l80.382 25.238" fill="#cb3c33" fill-opacity=".75"/><path d="M41.043-15.84L74.945 2.414 21.918-3.672" fill="#4063d8" fill-opacity=".75"/><path d="M67.469 59.633L21.203-1.742l57.598 6.61M44.45 205.293l39.394 53.465-51.59-5.63" fill="#9558b2" fill-opacity=".75"/><path d="M49.355 307.84l-16.933-52.68 51.738 5.645" fill="#4063d8" fill-opacity=".75"/><path d="M85.238 257.281l-39.226-53.238 43.898.934" fill="#cb3c33" fill-opacity=".75"/><path d="M44.86 202.02l-7.422-48.247 51.027 49.172M85.5 262.36l5.36 24.117-38.41 20.546" fill="#389826" fill-opacity=".75"/><path d="M43.898 92.902L91.5 87.301l-54.133 60.664" fill="#cb3c33" fill-opacity=".75"/><path d="M68.094 63.45l23.633 21.812-46.352 5.453M80.617 5.957l33.656 31.79-44.875 22.437" fill="#389826" fill-opacity=".75"/><path d="M93.664 84.332L69.742 62.246l44.164-22.082M90.762 202.383l-52.114-50.219 77.7 4.738" fill="#cb3c33" fill-opacity=".75"/><path d="M93.61 87.941l22.96 66.97-78.453-4.782" fill="#389826" fill-opacity=".75"/><path d="M49.625 311.813l65.672 54.253-78.047 1.903" fill="#4063d8" fill-opacity=".75"/><path d="M91.418 288.445l24.57 75.594-65.203-53.86" fill="#cb3c33" fill-opacity=".75"/><path d="M80.156 2.95L46.168-15.356l77.566 9.59" fill="#389826" fill-opacity=".75"/><path d="M115.531 36.18L82.094 4.602l46.437-9.29" fill="#cb3c33" fill-opacity=".75"/><path d="M92.8 286l-5.343-24.055L131.113 286" fill="#4063d8" fill-opacity=".75"/><path d="M116.02 40.36l19.46 40.777-39.851 3.707" fill="#389826" fill-opacity=".75"/><path d="M117.863 152.516L95.36 86.879l40.32-3.75" fill="#cb3c33" fill-opacity=".75"/><path d="M118.457 157.23l19.547 7.11-43.54 35.543" fill="#4063d8" fill-opacity=".75"/><path d="M136.254 88.93l2.691 73.625-19.75-7.184" fill="#389826" fill-opacity=".75"/><path d="M129.95-2.54l10.753 37.638-23.3 1.793" fill="#4063d8" fill-opacity=".75"/><path d="M136.387 78.39L117.53 38.888l23.344-1.797" fill="#cb3c33" fill-opacity=".75"/><path d="M91.902 205.152l47.801 7.5-52.488 44.989" fill="#389826" fill-opacity=".75"/><path d="M139.086 166.04l1.863 44.784-47.582-7.465" fill="#cb3c33" fill-opacity=".75"/><path d="M118.488 365.27l-24.136-74.274 49.203 52.922" fill="#389826" fill-opacity=".75"/><path d="M134.16 288l9.27 52.844L94.297 288M134.71 285.7l-45.323-24.973 67.523-5.551" fill="#9558b2" fill-opacity=".75"/><path d="M141.594 213.664l15.969 39.45-68.567 5.636" fill="#cb3c33" fill-opacity=".75"/><path d="M142.73 34.922L131.762-3.473 179.3 31.266" fill="#9558b2" fill-opacity=".75"/><path d="M142.906 36.914l36.621-3.66-41.199 45.773" fill="#4063d8" fill-opacity=".75"/><path d="M185.07 331.23l-35 10.243 36.711-27.317" fill="#9558b2" fill-opacity=".75"/><path d="M145.703 342.23l-9.387-53.503 49.75 23.464" fill="#cb3c33" fill-opacity=".75"/><path d="M158.84 255.918l26.972 53.945-49.292-23.254" fill="#389826" fill-opacity=".75"/><path d="M159.242 251.93l-15.926-39.344 59.016-21.547" fill="#9558b2" fill-opacity=".75"/><path d="M142.941 210.59l-1.879-45.11 61.09 23.497M181.816 30.625l-48.8-35.66 77.89-.942" fill="#4063d8" fill-opacity=".75"/><path d="M204.383 187.691l-59.79-22.996 68.989-4.597" fill="#cb3c33" fill-opacity=".75"/><path d="M214.016 158.063l-71.04 4.738 71.989-60.621" fill="#4063d8" fill-opacity=".75"/><path d="M140.926 161.914l-2.88-78.648 75.774 17.261" fill="#cb3c33" fill-opacity=".75"/><path d="M181.762 33.758l32.398 64.797-75.277-17.153" fill="#389826" fill-opacity=".75"/><path d="M188.059 309.883l-27.414-54.828 57.664 1.89" fill="#4063d8" fill-opacity=".75"/><path d="M204.516 191.414l14.226 63.543-57.851-1.894" fill="#389826" fill-opacity=".75"/><path d="M145.379 344.992l74.48-1.754-98.14 21.907" fill="#cb3c33" fill-opacity=".75"/><path d="M186.031 333.031l35.89 8.16-69.335 1.63" fill="#4063d8" fill-opacity=".75"/><path d="M188.824 313.816l36.547 26.106-38.289-8.703M220.383 257.348l9.05 4.937-35.39 41.152M213.262-5.723l23.457 12.63-51.426 22.558" fill="#389826" fill-opacity=".75"/><path d="M215.68 97.125l-32.317-64.633 54.18-23.762" fill="#4063d8" fill-opacity=".75"/><path d="M215.402 160.953l22.473 25.168-31.46 1.797" fill="#389826" fill-opacity=".75"/><path d="M230.184 260.414l-9-4.906 16.363-56.45" fill="#cb3c33" fill-opacity=".75"/><path d="M220.125 251.98l-13.89-62.05 32.41-1.852" fill="#9558b2" fill-opacity=".75"/><path d="M216.93 104.164l23.613 48.137-24.523 5.449" fill="#cb3c33" fill-opacity=".75"/><path d="M239.145 184.54l-22.262-24.935 24.043-5.343M241.21 149.121l-23.655-48.226 26.386-1.82" fill="#4063d8" fill-opacity=".75"/><path d="M229.473 340.395l-39.54-28.243 58.372-29.187" fill="#9558b2" fill-opacity=".75"/><path d="M231.055 263.469l17.257 17.258L192 308.883" fill="#cb3c33" fill-opacity=".75"/><path d="M239.594 8.762l29.008 23.394-50.528 63.625" fill="#389826" fill-opacity=".75"/><path d="M244.293 97.047l-26.102 1.8 48.598-61.199" fill="#cb3c33" fill-opacity=".75"/><path d="M240.883 188.043l38.281 1.867-46.684 68.16" fill="#9558b2" fill-opacity=".75"/><path d="M242.875 155.168l35.422 32.7-37.238-1.817" fill="#389826" fill-opacity=".75"/><path d="M245.918 99.543l37.246 17.691-40.039 33.52" fill="#cb3c33" fill-opacity=".75"/><path d="M269.648 35.754l14.032 79.512-37.418-17.774" fill="#9558b2" fill-opacity=".75"/><path d="M250.64 282.254l41.184 13.101-59.902 43.993" fill="#389826" fill-opacity=".75"/><path d="M280.55 187.223l-36.335-33.54 50.308-7.453" fill="#4063d8" fill-opacity=".75"/><path d="M284.578 118.66l10.031 25.535-49.25 7.297M250.145 279.73l-17.094-17.093 62.972-11.696" fill="#389826" fill-opacity=".75"/><path d="M280.688 191.227l19 57-66.5 12.351" fill="#4063d8" fill-opacity=".75"/><path d="M293.188 293.691L252.358 280.7l47.325-29.691" fill="#9558b2" fill-opacity=".75"/><path d="M270.16 30.844L242.625 8.637l56.852 9.773" fill="#4063d8" fill-opacity=".75"/><path d="M230.008 343.023l68.164 14.352-168.617 8.07" fill="#389826" fill-opacity=".75"/><path d="M293.313 296.746l11.425 59.965-72.343-15.23" fill="#9558b2" fill-opacity=".75"/><path d="M285.309 112.996L271.19 33h41.41" fill="#389826" fill-opacity=".75"/><path d="M302.688 19.219L311.94 31h-37.023" fill="#9558b2" fill-opacity=".75"/><path d="M301.777 250.527l26.45 13.68-32.832 28.273" fill="#cb3c33" fill-opacity=".75"/><path d="M296.2 147.512l32.57 61.414-46.528-20.473" fill="#389826" fill-opacity=".75"/><path d="M329.031 262.371l-26.496-13.703 27.41-34.715" fill="#4063d8" fill-opacity=".75"/><path d="M301.363 246.926l-18.703-56.102 46.754 20.57M314.504 31.023L306.32 20.61l24.547 11.157M306.54 355.484l-11.255-59.093 44.082 12.195" fill="#cb3c33" fill-opacity=".75"/><path d="M329.422 265.816l10.191 40.762-43.543-12.043" fill="#4063d8" fill-opacity=".75"/><path d="M302.691 16.934L244.043 6.852l94.39-21.993" fill="#cb3c33" fill-opacity=".75"/><path d="M239.14 5.941L216.474-6.266l112.472-8.718" fill="#9558b2" fill-opacity=".75"/><path d="M335.168 31.523l-30.363-13.8L340.69-14.48" fill="#389826" fill-opacity=".75"/><path d="M296.71 144.078l-9.769-24.875 55.075 30.203" fill="#9558b2" fill-opacity=".75"/><path d="M330.691 208.281l-32.914-62.066 47.957 5.644M314.383 33.973l48.875 56.543-76.664 24.914" fill="#cb3c33" fill-opacity=".75"/><path d="M335.367 33.973l25.168 50.332-44.258-51.2" fill="#389826" fill-opacity=".75"/><path d="M346.398 149.527l-58.89-32.293 75.984-24.691" fill="#4063d8" fill-opacity=".75"/><path d="M340.957 309.805l22.422 35.504-55.121 11.21" fill="#389826" fill-opacity=".75"/><path d="M347.414 153.328l35.797 50.863-50.867 5.653" fill="#4063d8" fill-opacity=".75"/><path d="M365.031 88.828l-27.058-54.117 47.586 15.863M342.816-15.422l46.852 25.297-52.473 21.555" fill="#cb3c33" fill-opacity=".75"/><path d="M386.16 48.664l-47.289-15.762 51.926-21.328M331.965 212.965l59.351 44.281-60.296 5.652" fill="#389826" fill-opacity=".75"/><path d="M384.172 206.098l8.426 49.605-58.97-43.988M341.555 306.102l-10.301-41.215 59.945-5.621" fill="#cb3c33" fill-opacity=".75"/><path d="M365.273 93.566l34.899 63.192-51.875-6.602" fill="#389826" fill-opacity=".75"/><path d="M384.71 202.855l-35.589-50.578 51.516 6.559" fill="#cb3c33" fill-opacity=".75"/><path d="M393.723 259.637l11.87 22.828-60.265 22.824" fill="#389826" fill-opacity=".75"/><path d="M365.422 344.793l-22.121-35.02 64.515 20.274" fill="#9558b2" fill-opacity=".75"/><path d="M406.117 284.402l3.762 44.196-65.824-20.688" fill="#4063d8" fill-opacity=".75"/><path d="M387.21 51.723l26.833 29.605-47.188 8.328" fill="#389826" fill-opacity=".75"/><path d="M401.523 155.066l-34.972-63.324 48.203-8.508" fill="#cb3c33" fill-opacity=".75"/><path d="M364.996 347.02l56.531 11.812-106.312-1.687" fill="#4063d8" fill-opacity=".75"/><path d="M410.613 331.191l19.121 27.313-60.996-12.746" fill="#cb3c33" fill-opacity=".75"/><path d="M416.625 84.137l25.027 26.886-38.007 43.57M394.645 255.82l-8.485-49.957 61.266-7.539" fill="#389826" fill-opacity=".75"/><path d="M402.46 159.664l45.087 36.629-61.05 7.516" fill="#9558b2" fill-opacity=".75"/><path d="M442.578 113.004l14.055 44.973-52.469-.938" fill="#cb3c33" fill-opacity=".75"/><path d="M449.36 195.191l-44.481-36.14 51.894.926" fill="#389826" fill-opacity=".75"/><path d="M392.773 11.89l63.418 50.36-68.082-13.055" fill="#4063d8" fill-opacity=".75"/><path d="M416.27 80.809l-26.52-29.262 66.758 12.8" fill="#9558b2" fill-opacity=".75"/><path d="M442.617 109.121L417.72 82.38l40.574-16.602M407.453 281.703l-11.793-22.68 60.781.91" fill="#cb3c33" fill-opacity=".75"/><path d="M449.367 199.168l10.438 58.812-63.559-.945" fill="#4063d8" fill-opacity=".75"/><path d="M432.027 358.297l-19.328-27.61 46.938-9.207" fill="#389826" fill-opacity=".75"/><path d="M411.902 328.805l-3.73-43.809 51.27 34.488" fill="#9558b2" fill-opacity=".75"/><path d="M460.023 260.527l.946 57.575-51.91-34.922M459.191 62.078l-64.546-51.254 70.242-4.746" fill="#389826" fill-opacity=".75"/><path d="M460.664 65.105l18.383 2.625-33.266 38.52" fill="#9558b2" fill-opacity=".75"/><path d="M466.402 10.918l13.278 54.883-18.586-2.656M458.754 160.266l24.2 7.172-31.368 26.886" fill="#cb3c33" fill-opacity=".75"/><path d="M458.797 158.191l-13.11-41.941 36.7 48.934" fill="#389826" fill-opacity=".75"/><path d="M465.68 4.02l-58.172 3.93 75.465-14.934" fill="#cb3c33" fill-opacity=".75"/><path d="M392.16 8.95l-45.754-24.708 133.598 7.32" fill="#389826" fill-opacity=".75"/><path d="M480.555 60.914L467.14 5.461l19.675-12.524" fill="#9558b2" fill-opacity=".75"/><path d="M461.434 255.71l-10.23-57.648 36.26 1.86" fill="#cb3c33" fill-opacity=".75"/><path d="M484.238 168.969l3.621 28.972-35.308-1.812" fill="#4063d8" fill-opacity=".75"/><path d="M462.953 317.094l-.933-56.91 39.183 6.53" fill="#cb3c33" fill-opacity=".75"/><path d="M488.637 202.145l13.086 62.628-39.262-6.543M481.137 68.371l24.804 19.297-59.718 21.133" fill="#389826" fill-opacity=".75"/><path d="M484.598 164.8l-39.98-53.312 61.878-21.894" fill="#cb3c33" fill-opacity=".75"/><path d="M502.766 267.96l12.906 29.493-50.695 20.277" fill="#389826" fill-opacity=".75"/><path d="M462.203 321.398l51.735 38.567-79.954-.942" fill="#cb3c33" fill-opacity=".75"/><path d="M516 299.477v59.53l-51.973-38.741M503.383 262.953l-13.113-62.77 41.222 5.622" fill="#9558b2" fill-opacity=".75"/><path d="M489.898 198.113l-3.601-28.812 43.215 34.215M517.621 296.926l-12.297-28.106 36.89 25.473" fill="#cb3c33" fill-opacity=".75"/><path d="M508.688 89.215l35.488 9.34-56.969 64.437" fill="#9558b2" fill-opacity=".75"/><path d="M532.559 203.375l-44.563-35.277 57.559 1.855" fill="#389826" fill-opacity=".75"/><path d="M545.035 100.602l.95 67.363-58.829-1.895" fill="#4063d8" fill-opacity=".75"/><path d="M488.781-6.559l58.168 67.707-64.844 4.77" fill="#389826" fill-opacity=".75"/><path d="M540.105-8.984l7.543 67.875-57.503-66.93" fill="#9558b2" fill-opacity=".75"/><path d="M508.059 86.777L483.664 67.81l61.434-4.52" fill="#cb3c33" fill-opacity=".75"/><path d="M545.102 96.73l-34.63-9.113 37.364-23.695" fill="#389826" fill-opacity=".75"/><path d="M518 359.691v-58.136l30.453 49.832" fill="#cb3c33" fill-opacity=".75"/><path d="M544.094 296.102l4.539 51.742-29.957-49.02M533.25 206.762l28.098 30.906-56.196 26.227" fill="#4063d8" fill-opacity=".75"/><path d="M544.453 293.406l-39.45-27.238 56.36-26.3M547.98 167.61l-.933-66.258 36.394 54.125" fill="#389826" fill-opacity=".75"/><path d="M549.617 58.492l-7.512-67.605 43.192-4.696M547.586 170.25l41.344 13.781-54.207 19.293" fill="#cb3c33" fill-opacity=".75"/><path d="M562.79 236.281l-28.04-30.844 55.14-19.625" fill="#389826" fill-opacity=".75"/><path d="M584.293 157.297l6.297 25.18-40.465-13.489" fill="#9558b2" fill-opacity=".75"/><path d="M550.84 350.113l-4.692-53.484 46.914 21.582" fill="#cb3c33" fill-opacity=".75"/><path d="M594.11 319.926l1.831 32.05-43.039-.913" fill="#389826" fill-opacity=".75"/><path d="M563.57 239.508l42.317 25.39-59.242 28.211" fill="#cb3c33" fill-opacity=".75"/><path d="M594.316 316.586l-46.957-21.602 59.168-28.175" fill="#4063d8" fill-opacity=".75"/><path d="M549.914 63.078l56.352 4.621-59.125 28.637" fill="#cb3c33" fill-opacity=".75"/><path d="M586.742-12.219l21.906 78.106-58.101-4.762" fill="#389826" fill-opacity=".75"/><path d="M584.828 153.953L547.66 98.676l68.617-14.297" fill="#cb3c33" fill-opacity=".75"/><path d="M609.547 68.332l6.976 13.953-62.796 13.082" fill="#389826" fill-opacity=".75"/><path d="M618.04 80.84l-6.614-13.223 16.531-4.96" fill="#4063d8" fill-opacity=".75"/><path d="M610.688 65.75l-20.5-73.082 38.324 67.734" fill="#cb3c33" fill-opacity=".75"/><path d="M597.96 352.316l-1.769-31.007 31.891 43.41" fill="#9558b2" fill-opacity=".75"/><path d="M592.219 185.707l46.523 50.32-74.058.95" fill="#cb3c33" fill-opacity=".75"/><path d="M607.898 263.773l-41.363-24.82 71.7-.918" fill="#4063d8" fill-opacity=".75"/><path d="M592.473 181.77l-6.328-25.31 51.527-32.542" fill="#cb3c33" fill-opacity=".75"/><path d="M618.156 85.078l22.453 34.617-53.324 33.68" fill="#389826" fill-opacity=".75"/><path d="M642.277 121.273l20.813 10.86-66.067 47.062" fill="#9558b2" fill-opacity=".75"/><path d="M641.043 235.574l-45.234-48.93 67.39 27.696" fill="#389826" fill-opacity=".75"/><path d="M664 133.941v78.567l-69.945-28.746" fill="#cb3c33" fill-opacity=".75"/><path d="M629.992 58.953L588.867-13.73l75.551 10.52M608.684 266.402l54.703 24.524-66.961 25.46" fill="#389826" fill-opacity=".75"/><path d="M630.8 365.04l-34.214-46.571 67.48-25.664M640.645 238.613l23.324 50.38-54.114-24.259" fill="#cb3c33" fill-opacity=".75"/><path d="M630.39 62.371l45.895 26.098-56.695-6.297" fill="#9558b2" fill-opacity=".75"/><path d="M642.25 118.547l-22.262-34.32 58.438 6.492" fill="#4063d8" fill-opacity=".75"/><path d="M664.465 130.594l-20.613-10.758 34.953-26.887" fill="#389826" fill-opacity=".75"/><path d="M665.79-1.559l22.769 65.461-56.922-3.797" fill="#cb3c33" fill-opacity=".75"/><path d="M680.46 88.543l-46.17-26.254 54.32 3.621M665.914 293.578l22.738 59.695-55.902 12.317" fill="#389826" fill-opacity=".75"/><path d="M684.063 297.754l4.312 49.172-20.703-54.348" fill="#9558b2" fill-opacity=".75"/><path d="M666 210v-76.098l29.695 20.414" fill="#389826" fill-opacity=".75"/><path d="M680.8 93.328l14.59 58.352-29.175-20.059" fill="#cb3c33" fill-opacity=".75"/><path d="M689.813 61.414l-21.934-63.05 31.984 20.105" fill="#4063d8" fill-opacity=".75"/><path d="M664.996 215.39l32.879 31.965-54.8-10.96" fill="#cb3c33" fill-opacity=".75"/><path d="M666.242 289.145l-23.508-50.778 56.422 11.285" fill="#9558b2" fill-opacity=".75"/><path d="M684.363 295.75l-16.64-5.254 30.652-36.785" fill="#389826" fill-opacity=".75"/><path d="M696.953 156.215l21.598 45.078-51.653 11.27" fill="#cb3c33" fill-opacity=".75"/><path d="M700.629 247.246l-33.598-32.664 51.332-11.203" fill="#389826" fill-opacity=".75"/><path d="M690.871 352.508l-4.668-53.25 43.906 35.5" fill="#cb3c33" fill-opacity=".75"/><path d="M700.984 16.809L669.32-3.094l64.23-1.808" fill="#9558b2" fill-opacity=".75"/><path d="M701.504 250.652l41.219 31.852-56.207 13.117" fill="#cb3c33" fill-opacity=".75"/><path d="M731.41 333.238l-44.191-35.73 56.414-13.16" fill="#4063d8" fill-opacity=".75"/><path d="M690.555 66.414l52.636 27.223-60.804-4.535" fill="#9558b2" fill-opacity=".75"/><path d="M697.504 151.89l-15.2-60.788 63.641 4.746" fill="#4063d8" fill-opacity=".75"/><path d="M720.383 203.723l27.77 25.922-45.36 17.585" fill="#cb3c33" fill-opacity=".75"/><path d="M747.074 210.773l1.668 16.684-25.023-23.355" fill="#389826" fill-opacity=".75"/><path d="M744.176 281.098l-41.164-31.805 45.84-17.777" fill="#9558b2" fill-opacity=".75"/><path d="M747.313 208.766l-25.243-7.215 36.063-30.649" fill="#cb3c33" fill-opacity=".75"/><path d="M720.34 200.398l-21.55-44.976 59.03 13.117" fill="#389826" fill-opacity=".75"/><path d="M747.36 97.27l11.413 69.433-59.921-13.316M701.66 19.563l61.262 36.757-71.629 7.54" fill="#9558b2" fill-opacity=".75"/><path d="M747.54 93.637l-54.114-27.992 70.91-7.465" fill="#cb3c33" fill-opacity=".75"/><path d="M736.582-4.52l27.156 58.997-60.867-36.52" fill="#389826" fill-opacity=".75"/><path d="M765.758 54.078l-27.13-58.93 42.095 3.743M745.695 284.34l36.207 13.926-48.273 34.347M760.48 164.75l-11.144-67.793 34.36 20.43" fill="#cb3c33" fill-opacity=".75"/><path d="M765.816 59.727l17.438 55.07-33.961-20.192M732.035 336.082l47.324 17.86-84.828-.895" fill="#389826" fill-opacity=".75"/><path d="M783.035 299.914l.938 53.629-49.864-18.816M760.762 168.977l30.62-.899-41.429 38.727" fill="#9558b2" fill-opacity=".75"/><path d="M784.555 120.18l8.254 45.855-31.18.918M750.855 231.586l44.024 23.418-48.707 26.23" fill="#389826" fill-opacity=".75"/><path d="M783.355 296.68l-35.964-13.832 47.953-25.82" fill="#9558b2" fill-opacity=".75"/><path d="M782.254.89L811.3 62.735l-44.043-6.558" fill="#389826" fill-opacity=".75"/><path d="M785.23 114.422l-17.793-56.195 44.02 6.554" fill="#4063d8" fill-opacity=".75"/><path d="M796.563 253.637l-43.5-23.14 60.164-10.18" fill="#cb3c33" fill-opacity=".75"/><path d="M750.887 228.836l-1.766-17.676 59.215 7.953" fill="#9558b2" fill-opacity=".75"/><path d="M793.617 168.727l19.813 49.054-63.207-8.492" fill="#389826" fill-opacity=".75"/><path d="M785.984 354.16l-.925-52.937 42.718 60.367" fill="#4063d8" fill-opacity=".75"/><path d="M813.398 62.492L784.52 1.016 842.273 42" fill="#cb3c33" fill-opacity=".75"/><path d="M843-1v41.063L785.137-1" fill="#9558b2" fill-opacity=".75"/><path d="M794.629 164.852l-8.45-46.946 56.333-4.695" fill="#cb3c33" fill-opacity=".75"/><path d="M813.102 65.953l30.125 45.192-56.489 4.707" fill="#9558b2" fill-opacity=".75"/><path d="M843.027 43.918l.926 64.707-29.582-44.371M815.398 220.441l33.082 21.137-49.625 11.945" fill="#389826" fill-opacity=".75"/><path d="M815.41 217.344l-19.793-49.012 63.149 12.254" fill="#4063d8" fill-opacity=".75"/><path d="M850.254 240.336l-33.574-21.45 42.902-36.374" fill="#9558b2" fill-opacity=".75"/><path d="M844.996 113.477l20.313 22.156-67.399 28.62" fill="#389826" fill-opacity=".75"/><path d="M860.152 178.816l-62.75-12.175 68.368-29.032" fill="#9558b2" fill-opacity=".75"/><path d="M797.563 256.598l68.765 47.101-81.012-6.594" fill="#389826" fill-opacity=".75"/><path d="M850.316 243.195l17.907 59.375-68.801-47.125M829.988 361.254l-43.933-62.082 82.14 6.683" fill="#cb3c33" fill-opacity=".75"/><path d="M869.7 307.195l9.085 26.352-45.433 26.351" fill="#389826" fill-opacity=".75"/><path d="M867.352 134.902l-18.872-20.586 42.887 15.438" fill="#cb3c33" fill-opacity=".75"/><path d="M867.895 136.832l24.875-5.332-30.204 44.418M845 40.41V-.57l48.43 17.695M894.195 128.648L847.56 111.86l53.164-26.117" fill="#389826" fill-opacity=".75"/><path d="M845.977 110.406l-.95-66.426 55.04 39.856" fill="#cb3c33" fill-opacity=".75"/><path d="M861.715 181.855l43.383 34.899-52.817 23.578" fill="#389826" fill-opacity=".75"/><path d="M894.363 132.71l11.301 81.935-43.316-34.844M870.52 303.266l-17.922-59.434 57.543 26.414" fill="#4063d8" fill-opacity=".75"/><path d="M906.137 218.48l4.703 49.887-57.414-26.355" fill="#cb3c33" fill-opacity=".75"/><path d="M880.387 332.05l-9.094-26.37 42.738-11.82" fill="#9558b2" fill-opacity=".75"/><path d="M911.387 271.813l4.426 19.476-41.61 11.512M895.668 18.27l21.258 30.503-69.324-7.394" fill="#cb3c33" fill-opacity=".75"/><path d="M901.633 82.5l-54.004-39.105 69.832 7.445" fill="#4063d8" fill-opacity=".75"/><path d="M917.867 291.305l-3.89-17.118 18.671 24.122" fill="#389826" fill-opacity=".75"/><path d="M917.254 293.227l16.613 7.87-48.969 28.856M880.156 335.066l57.219 13.622-102.633 12.718" fill="#cb3c33" fill-opacity=".75"/><path d="M935.227 302.617l6.57 45.07-59.152-14.085" fill="#9558b2" fill-opacity=".75"/><path d="M896.008 15.938L849.805-.945l92.41.89" fill="#cb3c33" fill-opacity=".75"/><path d="M918.914 48.129l-21.336-30.617L945.82.812" fill="#389826" fill-opacity=".75"/><path d="M919.66 50.918l24.988-3.445-39.64 32.742" fill="#9558b2" fill-opacity=".75"/><path d="M947 2.781V45.13l-26.129 3.605M935.516 298.742l-22.121-28.574 35.949-28.574" fill="#cb3c33" fill-opacity=".75"/><path d="M912.824 268.07l-4.66-49.37 40.984 20.491" fill="#389826" fill-opacity=".75"/><path d="M950.195 237.48l-39.996-20 43.63-7.273" fill="#cb3c33" fill-opacity=".75"/><path d="M954.07 208.14l-44.922 7.489 50.536-73.93" fill="#4063d8" fill-opacity=".75"/><path d="M907.637 214.297l-11.469-83.149 63.078 7.645M902.805 85.371l57.226 21.578-63.797 21.578" fill="#cb3c33" fill-opacity=".75"/><path d="M960.07 136.879l-60.582-7.344 62.418-21.11M947.41 47.785l14.164 57.61-57.61-21.723" fill="#389826" fill-opacity=".75"/><path d="M943.848 347.879l-6.438-44.149 41.39 39.551" fill="#4063d8" fill-opacity=".75"/><path d="M963.383 104.367l-13.887-56.476 36.106 18.515" fill="#9558b2" fill-opacity=".75"/><path d="M963.953 107.773l25.356-6.992-27.106 34.098" fill="#4063d8" fill-opacity=".75"/><path d="M986.434 68.945l4.445 29.328-25.774 7.11" fill="#389826" fill-opacity=".75"/><path d="M951.48 241.266l40.637 52.925-54.812 5.668" fill="#9558b2" fill-opacity=".75"/><path d="M980.469 342.11l-42.215-40.337 54.406-5.628M961.73 141.215l37.586 63.894-43.222 2.817" fill="#cb3c33" fill-opacity=".75"/><path d="M955.883 209.945l41.418-2.703-45.02 29.715" fill="#4063d8" fill-opacity=".75"/><path d="M986.516 64.629l-36.211-18.57 55.71-25.07" fill="#cb3c33" fill-opacity=".75"/><path d="M949 44.453V.387l56.254 18.754M993.64 292.89l-40.785-53.113 60.704-7.59" fill="#389826" fill-opacity=".75"/><path d="M1000.652 207.426l12.75 22.765-58.277 7.286" fill="#cb3c33" fill-opacity=".75"/><path d="M991.762 100.906l26.316 58.274-55.453-21.618" fill="#389826" fill-opacity=".75"/><path d="M1000.852 203.777l-37.528-63.797 55.356 21.579M994.637 296.496l33.355 18.531-45.398 26.868M1015.238 229.379l-12.613-22.524 39.64-3.601" fill="#9558b2" fill-opacity=".75"/><path d="M1020.164 163.188l23.145 37.96-40.739 3.704" fill="#389826" fill-opacity=".75"/><path d="M1029.863 316.242l14.059 13.184-57.117 12.3M1044.387 199.074l-22.442-36.804 26.93 3.59" fill="#cb3c33" fill-opacity=".75"/><path d="M992.758 97.316l-4.613-30.445 62.73-7.379" fill="#4063d8" fill-opacity=".75"/><path d="M1008.375 20.61l44.191 36.671-63.933 7.52" fill="#389826" fill-opacity=".75"/><path d="M1015.59 232.414l37.484 18.742-57.164 41.235" fill="#cb3c33" fill-opacity=".75"/><path d="M1029.484 313.57l-33.62-18.68 56.972-41.097M1044.383 203.984l9.226 45.203-36.898-18.449" fill="#4063d8" fill-opacity=".75"/><path d="M1049.152 163.879l-27.593-3.68 38.629-72.664" fill="#389826" fill-opacity=".75"/><path d="M1020.074 158.73l-26.668-59.042 66.664-16.192" fill="#cb3c33" fill-opacity=".75"/><path d="M1054.418 59.574l6.328 21.7-63.297 15.374" fill="#389826" fill-opacity=".75"/><path d="M1008.137 17.992L959.133 1.656l93.922 13.883" fill="#cb3c33" fill-opacity=".75"/><path d="M1054.336 56.148l-43.734-36.289 51.175-2.793" fill="#9558b2" fill-opacity=".75"/><path d="M1062.43 86.012l26.222 70.238-37.46 7.492" fill="#cb3c33" fill-opacity=".75"/><path d="M1046.133 328.754l-14.063-13.184 56.243-12.3" fill="#9558b2" fill-opacity=".75"/><path d="M1055.293 253l36.941 47.363-60.625 13.262" fill="#cb3c33" fill-opacity=".75"/><path d="M1055.797 249.906l-9.274-45.437 51.93 40.8" fill="#389826" fill-opacity=".75"/><path d="M1093.313 298.492l-36.422-46.691 42.957-4.668" fill="#9558b2" fill-opacity=".75"/><path d="M1050.828 166.332l49.961 16.652-54.586 17.578" fill="#389826" fill-opacity=".75"/><path d="M1089.469 158.125l12.457 23.129-48.04-16.012M1100.094 244.016l-52.996-41.641 55.836-17.98M1062.57 80.387l-6.297-21.598 50.395-9" fill="#9558b2" fill-opacity=".75"/><path d="M1063.7 17.668l44.675 29.785-52.121 9.309M1090.207 154.695l-26.062-69.808 46.539 35.37" fill="#389826" fill-opacity=".75"/><path d="M1110.027 49.895l.946 68.066-47.274-35.926" fill="#4063d8" fill-opacity=".75"/><path d="M1110.23 46.285l-44.257-29.508 48.867-3.687" fill="#cb3c33" fill-opacity=".75"/><path d="M1093.71 302.344l20.33 29.57-64.688-2.77" fill="#4063d8" fill-opacity=".75"/><path d="M1112.926 114.684l-.899-64.7 19.77 14.375" fill="#9558b2" fill-opacity=".75"/><path d="M1116.395 16.426l14.695 44.949-19.016-13.832" fill="#389826" fill-opacity=".75"/><path d="M1101.855 247.21l29.344 6.419-35.765 44.02M981.02 345.004l111.015 9.84-137.71-6.324" fill="#cb3c33" fill-opacity=".75"/><path d="M1045.957 331.031l83.402 25.11-141.691-12.555" fill="#389826" fill-opacity=".75"/><path d="M1115.543 333.98l20.25 22.008-81.871-24.648" fill="#cb3c33" fill-opacity=".75"/><path d="M1104.906 185.027l35.492 28.957-38.296 29.887" fill="#4063d8" fill-opacity=".75"/><path d="M1132.246 251.813l-28.953-6.336 37.098-28.954" fill="#389826" fill-opacity=".75"/><path d="M1116.262 331.617l-20.188-29.363 54.137 6.422" fill="#cb3c33" fill-opacity=".75"/><path d="M1132.664 255l18.84 51.816-55.582-6.593M1138.52 356.004l-20.997-22.824 33.778-22.825" fill="#389826" fill-opacity=".75"/><path d="M1104.469 181.762l-12.707-23.602 61.722 5.445" fill="#4063d8" fill-opacity=".75"/><path d="M1112.227 121.578l42.968 40.172-63.523-5.605" fill="#9558b2" fill-opacity=".75"/><path d="M1141.488 212.293l-35.5-28.961 50.45-18.687" fill="#389826" fill-opacity=".75"/><path d="M1115.848 11.008l-27.145 2.05 53.262-8.195" fill="#4063d8" fill-opacity=".75"/><path d="M1062.996 14.988L962.036.063 1154.3.94" fill="#389826" fill-opacity=".75"/><path d="M1133.219 61.453l-15.93-48.73 47.793-11.243" fill="#9558b2" fill-opacity=".75"/><path d="M1133.328 65.977l33.856 41.382-53.61 11.286" fill="#389826" fill-opacity=".75"/><path d="M1157.371 161.043l-43.285-40.461 53.637-11.293" fill="#cb3c33" fill-opacity=".75"/><path d="M1169.36 111.313l12.437 28.433-22.215 20.438" fill="#4063d8" fill-opacity=".75"/><path d="M1167.352 1.473l15.113 10.668-45.34 46.222" fill="#cb3c33" fill-opacity=".75"/><path d="M1142.652 215.617l39.782 25.903-48.106 10.175" fill="#9558b2" fill-opacity=".75"/><path d="M1153.133 305.438l-18.801-51.7 48.879-10.336M1153.777 308.934l30.77-2.715-43.442 47.965" fill="#cb3c33" fill-opacity=".75"/><path d="M1184.129 246.09l1.84 57.996-31.301 2.762" fill="#389826" fill-opacity=".75"/><path d="M1168.68 106.031l-34.11-41.691 61.59-30.32" fill="#cb3c33" fill-opacity=".75"/><path d="M1183.871 13.559l12.64 18.058-58.69 28.895" fill="#4063d8" fill-opacity=".75"/><path d="M1183.059 137.645l-12.57-28.739 27.84-1.797" fill="#389826" fill-opacity=".75"/><path d="M1197.137 37.066l1.836 67.996-28.485 1.84" fill="#4063d8" fill-opacity=".75"/><path d="M1158.434 164.96l48.136 52.856-63.238-4.718" fill="#cb3c33" fill-opacity=".75"/><path d="M1184.883 240.73l-39.074-25.445 60.879 4.547M1182.535 141.785l24.05 73.078-47.175-51.8M1186.805 306.707l23.59 42.461-68.887 7.55" fill="#389826" fill-opacity=".75"/><path d="M1200.953 104.191l-1.871-69.18 36.457 46.743M1209.574 217.543l-24.176-73.457 53 57.652" fill="#cb3c33" fill-opacity=".75"/><path d="M1187.914 302.227l-1.887-59.36 54.649-7.539" fill="#4063d8" fill-opacity=".75"/><path d="M1209.207 220.184l30.164 13.308-51.453 7.098" fill="#cb3c33" fill-opacity=".75"/><path d="M1239.145 203.61l2.699 28.788-30.586-13.496" fill="#4063d8" fill-opacity=".75"/><path d="M1200.309 107.617l44.586 39.942-60.375-8.36" fill="#cb3c33" fill-opacity=".75"/><path d="M1239.324 199.785l-53.703-58.414 61.238 8.48M1236.262 83.672l10.293 62.691-44.914-40.234" fill="#389826" fill-opacity=".75"/><path d="M1236.988 80.36l-36.37-46.63 59.687 15.852" fill="#4063d8" fill-opacity=".75"/><path d="M1212.16 348.23l-23.672-42.613 76.703-21.781" fill="#cb3c33" fill-opacity=".75"/><path d="M1242.828 235.832l23.719 45.543-76.848 21.82M1184.188 10.906L1169.71.687l86.867-10.218" fill="#389826" fill-opacity=".75"/><path d="M1261.137 47.738l-60.64-16.11 67.273-41.69" fill="#cb3c33" fill-opacity=".75"/><path d="M1198.277 30.652l-12.652-18.074 76.809-21.683M1259.688 364.844l-43.336-14.446 64.101-9.03" fill="#9558b2" fill-opacity=".75"/><path d="M1267.523 284.152l14.227 55.012-67.344 9.488" fill="#389826" fill-opacity=".75"/><path d="M1269.441-7.078l14.325 47.45-20.59 7.16M1248.594 146.453l-10.39-63.289 51.01 6.613" fill="#4063d8" fill-opacity=".75"/><path d="M1261.98 50.68l26.848 37.03-49.988-6.48" fill="#cb3c33" fill-opacity=".75"/><path d="M1284.16 42.352l5.363 42.91-25.925-35.758" fill="#9558b2" fill-opacity=".75"/><path d="M1283.004 336.023l-13.516-52.27 24.328 10.817" fill="#cb3c33" fill-opacity=".75"/><path d="M1243.86 232.473l-2.755-29.399 56.043 3.676" fill="#9558b2" fill-opacity=".75"/><path d="M1248.809 150.344l50.746 17.855-58.266 31.953" fill="#cb3c33" fill-opacity=".75"/><path d="M1300.027 204.934l-56.539-3.707 57.465-31.512" fill="#4063d8" fill-opacity=".75"/><path d="M1290.355 91.617l10.426 74.895-51.191-18.012M1294.375 292.629l-24.695-10.977 42.074-45.734" fill="#389826" fill-opacity=".75"/><path d="M1268.23 280.273l-23.605-45.32 67.035-1.887" fill="#9558b2" fill-opacity=".75"/><path d="M1300.547 207.328l11.855 23.715-64.757 1.824M1285.465 39.086l-14.934-49.473 46.672 16.801" fill="#cb3c33" fill-opacity=".75"/><path d="M1295.754 295.078l37.684 3.676-48.715 38.605" fill="#389826" fill-opacity=".75"/><path d="M1314.04 235.281l20.523 61.574-38.247-3.73" fill="#cb3c33" fill-opacity=".75"/><path d="M1314.633 231.027l-10.844-21.687 30.024 22.52" fill="#389826" fill-opacity=".75"/><path d="M1335.09 292.11l-19.684-59.048 20.578.895" fill="#4063d8" fill-opacity=".75"/><path d="M1302.977 168.95l51.668-2.77-52.594 37.832" fill="#cb3c33" fill-opacity=".75"/><path d="M1291.816 87.465l-5.656-45.25 70.7 12.258" fill="#4063d8" fill-opacity=".75"/><path d="M1318.953 7.484l38.485 45.059-70.403-12.203" fill="#389826" fill-opacity=".75"/><path d="M1354.098 9.93l4.55 40.945-37.308-43.676" fill="#9558b2" fill-opacity=".75"/><path d="M1357.047 164.05l-52.98 2.837 56.765-76.63" fill="#4063d8" fill-opacity=".75"/><path d="M1302.652 165.438l-10.507-75.47 67.828-1.91" fill="#cb3c33" fill-opacity=".75"/><path d="M1359.094 55.582l1.843 30.45-65.507 1.843" fill="#389826" fill-opacity=".75"/><path d="M1283.367 341.094l71.895 14.562-92.828 9.102" fill="#4063d8" fill-opacity=".75"/><path d="M1335.613 299.582l24.68 55.05-74.984-15.187M1336.977 231.73l-32.918-24.683 62.175.914" fill="#9558b2" fill-opacity=".75"/><path d="M1357.402 166.664l10.297 39.316-63.66-.937" fill="#389826" fill-opacity=".75"/><path d="M1354.836 7.984l-27.84-2.32 54.906-9.281" fill="#cb3c33" fill-opacity=".75"/><path d="M1319.094 4.969l-43.446-15.637 105.133 5.211" fill="#9558b2" fill-opacity=".75"/><path d="M1360.621 50.523l-4.547-40.898 31.809-13.629" fill="#389826" fill-opacity=".75"/><path d="M1369.137 208.176l23.824 11.469-52.055 11.472M1362.95 86.117l-1.794-29.597 34.977 34.085" fill="#cb3c33" fill-opacity=".75"/><path d="M1337.957 235.785l58.559 72.723-59.504-11.332" fill="#389826" fill-opacity=".75"/><path d="M1395.04 221.234l2.862 85.805-59.113-73.41" fill="#9558b2" fill-opacity=".75"/><path d="M1362.246 354.102l-24.55-54.762 59.48 11.332" fill="#cb3c33" fill-opacity=".75"/><path d="M1395.258 218.531l-24.84-11.957 39.559-66.238" fill="#389826" fill-opacity=".75"/><path d="M1369.363 204.441l-10.199-38.945 50.07-27.816" fill="#4063d8" fill-opacity=".75"/><path d="M1362.887 89.238l47.445 45.547-51.242 28.465" fill="#9558b2" fill-opacity=".75"/><path d="M1398.23 92.906l11.707 38.727-45.035-43.23" fill="#389826" fill-opacity=".75"/><path d="M1389.816-3.395l23.645 70.938-52.02-14.188" fill="#cb3c33" fill-opacity=".75"/><path d="M1398.852 90.46l-35.383-34.48 49.902 13.614" fill="#9558b2" fill-opacity=".75"/><path d="M1398.926 311.688l14.566 21.855-48.258 20.031" fill="#4063d8" fill-opacity=".75"/><path d="M1399.727 301.77l-2.672-80.125 17.804 8.902" fill="#cb3c33" fill-opacity=".75"/><path d="M1415.05 65.992l-23.687-71.066 51.168-2.844M1415.402 332.8l-14.312-21.468 52.781 8.05" fill="#389826" fill-opacity=".75"/><path d="M1412.637 137.023l44.75 43.797-59.985 37.137" fill="#cb3c33" fill-opacity=".75"/><path d="M1415.758 228.762l-17.707-8.856 55.777-34.527" fill="#389826" fill-opacity=".75"/><path d="M1458.129 178.75l-39.274-38.441 40.11 24.234" fill="#4063d8" fill-opacity=".75"/><path d="M1412.617 133.586l-12.133-40.129 59.727 16.797" fill="#cb3c33" fill-opacity=".75"/><path d="M1415.191 70.477l43.7 37.328-58.266-16.387" fill="#389826" fill-opacity=".75"/><path d="M1459.094 162.285l-45.008-27.195 47.82-23.442" fill="#9558b2" fill-opacity=".75"/><path d="M1415.16 335.016l40.121 3.343-84.422 15.047" fill="#389826" fill-opacity=".75"/><path d="M1457.309 320.3l4.363 16.587-41.899-3.492M1416.754 231.258l46.336 13.238-62.41 62.41" fill="#4063d8" fill-opacity=".75"/><path d="M1457.102 317.852l-55.997-8.543 62.641-62.641M1458.223 183.398l5.644 59.239-46.074-13.164" fill="#cb3c33" fill-opacity=".75"/><path d="M1444.016-6.172l23.64 61.465-51.066 12.297" fill="#9558b2" fill-opacity=".75"/><path d="M1462.215 108.016l-45.074-38.504 50.707-12.207" fill="#cb3c33" fill-opacity=".75"/><path d="M1469.43 54.328l-21.594-56.137 32.82 46.637" fill="#389826" fill-opacity=".75"/><path d="M1463.496 335.96l-4.3-16.347 29.253-11.183" fill="#9558b2" fill-opacity=".75"/><path d="M1465.633 247.96l25.031 57.481-31.52 12.051" fill="#389826" fill-opacity=".75"/><path d="M1460.879 166.098l33.566 29.37-34.406-15.105" fill="#cb3c33" fill-opacity=".75"/><path d="M1465.758 241.398l-5.602-58.796 38.266 16.796" fill="#389826" fill-opacity=".75"/><path d="M1481.637 42.746l-35.895-51.008 53.84-8.504" fill="#9558b2" fill-opacity=".75"/><path d="M1491.605 307.926l9.028 26.176-35.207 2.707M1491.773 302.98l-24.683-56.683 34.742 19.2" fill="#4063d8" fill-opacity=".75"/><path d="M1499.125 201.754l2.793 61.508-35.41-19.57" fill="#cb3c33" fill-opacity=".75"/><path d="M1469.8 57.86l38.298 28.956-43.903 21.485" fill="#389826" fill-opacity=".75"/><path d="M1481.79 46.488l24.1 36.153-35.288-26.684" fill="#4063d8" fill-opacity=".75"/><path d="M1463.883 112.172l47.863 44.113-50.68 6.57" fill="#389826" fill-opacity=".75"/><path d="M1509.086 88.559l3.773 66.03-48.105-44.335" fill="#cb3c33" fill-opacity=".75"/><path d="M1499.527 197.258l-37.199-32.551 50.219-6.512M1503.852 261.715l-2.77-60.91 29.531 17.535" fill="#9558b2" fill-opacity=".75"/><path d="M1501.3-15.54l32.048 53.72-49.953 5.656" fill="#cb3c33" fill-opacity=".75"/><path d="M1509.895 85.04l-26.153-39.231 49.504-5.602" fill="#389826" fill-opacity=".75"/><path d="M1514.723 158h18.14l-30.238 36.29" fill="#4063d8" fill-opacity=".75"/><path d="M1531.082 216.293l-29.562-17.555 32.335-38.8M1514.945 156l-3.55-62.121L1533.582 156" fill="#389826" fill-opacity=".75"/><path d="M1463.07 339.004l60.664 2.363-140.242 11.817" fill="#cb3c33" fill-opacity=".75"/><path d="M1501.96 336.008l21.114 3.332-42.785-1.668" fill="#389826" fill-opacity=".75"/><path d="M1502.75 334.105l-8.766-25.421 42.079 30.683" fill="#cb3c33" fill-opacity=".75"/><path d="M1531.977 219.945l12.636 21.664-38.816 20.762" fill="#389826" fill-opacity=".75"/><path d="M1534.934 41.293l20.507 45.672-43.812-.93" fill="#9558b2" fill-opacity=".75"/><path d="M1534.945 153.875l-23.515-65.844 44.21.942" fill="#4063d8" fill-opacity=".75"/><path d="M1503.68 266.328l51.23 19.563-61.476 18.629" fill="#389826" fill-opacity=".75"/><path d="M1539.477 339.383l-45.266-33.008 62.242-18.86" fill="#4063d8" fill-opacity=".75"/><path d="M1545.367 243.473l11.149 40.89-51.11-19.515" fill="#cb3c33" fill-opacity=".75"/><path d="M1534.93 36.93l-32.2-53.985 60.614-1.894" fill="#389826" fill-opacity=".75"/><path d="M1565.543-18.86l20.473 4.454-47.18 48.07" fill="#cb3c33" fill-opacity=".75"/><path d="M1557.445 89.895l29.02 29.957-49.613 34.636" fill="#389826" fill-opacity=".75"/><path d="M1558.426 283.766l-11.145-40.868 44.582-3.718" fill="#4063d8" fill-opacity=".75"/><path d="M1593.066 240.914l.914 41.164-33.847 2.746" fill="#389826" fill-opacity=".75"/><path d="M1535.895 159.207l59.652 55.867-62.496 1.895" fill="#4063d8" fill-opacity=".75"/><path d="M1593.152 237.066l-42.062 3.504 45.57-22.78" fill="#389826" fill-opacity=".75"/><path d="M1546.39 240.688l-12.68-21.739 59.778-1.812" fill="#cb3c33" fill-opacity=".75"/><path d="M1540 342.004l44.012 3.668-174.574 7.336" fill="#9558b2" fill-opacity=".75"/><path d="M1558.328 288.21l39.629 56.618-56.613-4.719" fill="#389826" fill-opacity=".75"/><path d="M1594.082 284.078l4.629 58.34-38.89-55.563" fill="#cb3c33" fill-opacity=".75"/><path d="M1587.488 121.578l16.012 46.149-65.93-11.301" fill="#4063d8" fill-opacity=".75"/><path d="M1597.293 213.965l-59.176-55.414 65.75 11.27M1557.45 86.563l-20.735-46.184 72.578 15.078" fill="#389826" fill-opacity=".75"/><path d="M1587.578-13.145l22.906 66.81-73.488-15.27" fill="#9558b2" fill-opacity=".75"/><path d="M1587.613 118.164l-29.02-29.953 51.485-30.89" fill="#cb3c33" fill-opacity=".75"/><path d="M1595.98 282.102l-.921-41.516 43.359 46.129" fill="#4063d8" fill-opacity=".75"/><path d="M1600.777 343.168l-4.683-59.043 43.11 4.684" fill="#389826" fill-opacity=".75"/><path d="M1605.598 167.668l-15.797-45.535 53.898 29.738" fill="#9558b2" fill-opacity=".75"/><path d="M1612.215 52.547l-22.774-66.422 56.934 4.742" fill="#389826" fill-opacity=".75"/><path d="M1598.7 217.746l52.507 38.27-56.066-18.692" fill="#cb3c33" fill-opacity=".75"/><path d="M1640.79 286.313l-43.349-46.11 58.102 19.367" fill="#389826" fill-opacity=".75"/><path d="M1640.82 289.984l18.762 40.336-57.219 14.07" fill="#4063d8" fill-opacity=".75"/><path d="M1612.5 56.527l47.406 31.29-70.16 30.34" fill="#9558b2" fill-opacity=".75"/><path d="M1645.344 150.496l-55.078-30.387 70.273-30.386" fill="#cb3c33" fill-opacity=".75"/><path d="M1647.684-7.363l17 62.34-51.004-.946" fill="#9558b2" fill-opacity=".75"/><path d="M1661.207 86.277l-45.781-30.215 49.445.918" fill="#389826" fill-opacity=".75"/><path d="M1605.766 170.645l61.175 37.648-67.765 6.586" fill="#cb3c33" fill-opacity=".75"/><path d="M1645.465 153.305l22.402 53.21-60.676-37.34M1656.402 257.328l-55.687-40.586 67.957-6.61M1662.527 90.008l17.149 18.05-31.586 39.712" fill="#389826" fill-opacity=".75"/><path d="M1666.387 60.953l12.515 43.387-15.851-16.684" fill="#4063d8" fill-opacity=".75"/><path d="M1666.496 54.016l-16-58.664 30.219 43.554" fill="#cb3c33" fill-opacity=".75"/><path d="M1680.098 101.262l-12.98-44.992 13.843-14.708M1681.223 36.129l-30.778-44.36 33.493 9.958" fill="#389826" fill-opacity=".75"/><path d="M1660.953 332.043l21.082 7.297-70.55 4.867" fill="#cb3c33" fill-opacity=".75"/><path d="M1670.207 206.914l-22.656-53.809 56.64 3.778" fill="#4063d8" fill-opacity=".75"/><path d="M1680.824 109.828l23.469 45.055-56.324-3.754M1657.258 260.598l47.074 43.382-61.84-16.613" fill="#cb3c33" fill-opacity=".75"/><path d="M1661.46 329.621l-18.648-40.098 62.481 16.786" fill="#9558b2" fill-opacity=".75"/><path d="M1686.57 338.793l-23.074-7.988 41.711-22.188M1705.168 159.004l2.773 48.996h-36.054" fill="#389826" fill-opacity=".75"/><path d="M1670.48 211.121l40.336 47.84-52.527-.938" fill="#4063d8" fill-opacity=".75"/><path d="M1708.074 210l3.688 46.977-39.61-46.977" fill="#9558b2" fill-opacity=".75"/><path d="M1707.219 303.922l-47.606-43.875 52.274.933" fill="#389826" fill-opacity=".75"/><path d="M1709.875 206.77l-2.738-48.403 27.394 24.656" fill="#4063d8" fill-opacity=".75"/><path d="M1713.742 262.438l23.668 28.222-28.223 13.652" fill="#cb3c33" fill-opacity=".75"/><path d="M1706.531 154.852l-22.984-44.13 58.836 35.856" fill="#9558b2" fill-opacity=".75"/><path d="M1735.434 181.145l-27.336-24.602 35.535-8.203M1713.922 258.945l-3.668-46.765 35.762 44.933" fill="#389826" fill-opacity=".75"/><path d="M1735.316 185.047l11.094 69.351-36.062-45.308" fill="#9558b2" fill-opacity=".75"/><path d="M1738.54 288.895l-23.493-28.012 31.621-1.805" fill="#4063d8" fill-opacity=".75"/><path d="M1685.906 2.234l65.188 14.899-67.98 20.488M1708.398 307.258l51.848 22.222-71.293 9.258" fill="#cb3c33" fill-opacity=".75"/><path d="M1738.637 292.285l22.765 35.512-50.992-21.852" fill="#389826" fill-opacity=".75"/><path d="M1754.441 18.21l10 22.735-76.375-2.73" fill="#9558b2" fill-opacity=".75"/><path d="M1682.973 40.855l81.293 54.516-82.25 11.477" fill="#cb3c33" fill-opacity=".75"/><path d="M1765.02 42.965l.945 51.137-80.492-53.977" fill="#4063d8" fill-opacity=".75"/><path d="M1744.54 145.547l-60.63-36.945 81.469-11.368M1686.926 341.008l82.058 17.765-155.656-12.691" fill="#389826" fill-opacity=".75"/><path d="M1763.504 331.074l18.344 28.438-88.98-19.266" fill="#9558b2" fill-opacity=".75"/><path d="M1766.668 41.035l-8.961-20.367 24.438 21.18" fill="#389826" fill-opacity=".75"/><path d="M1767.895 90.258l-.875-47.203 16.609.875" fill="#cb3c33" fill-opacity=".75"/><path d="M1748.766 256.457l-11.313-70.707 51.852 49.023M1755.016 15.977l-57.055-13.04 90.473 6.52" fill="#4063d8" fill-opacity=".75"/><path d="M1784.512 41.254l-27.305-23.664 37.32-7.285M1745.652 148.512l54.79 30.644-63.145 2.785" fill="#cb3c33" fill-opacity=".75"/><path d="M1790.426 233.082l-52.024-49.187 64.32-2.836" fill="#389826" fill-opacity=".75"/><path d="M1785.281 45.281l27.059 41.989-43.852 7.464" fill="#4063d8" fill-opacity=".75"/><path d="M1767.398 97.598l46.227 36.789-66.977 11.32" fill="#cb3c33" fill-opacity=".75"/><path d="M1803.367 178.5l-55.402-30.988 66.668-11.266" fill="#389826" fill-opacity=".75"/><path d="M1813.05 89.176l1.856 43.676-45.535-36.243M1748.605 259.582l63.028 40.785-71.371-10.195" fill="#9558b2" fill-opacity=".75"/><path d="M1764.34 328.68l-23.32-36.383 71.832 10.262" fill="#4063d8" fill-opacity=".75"/><path d="M1783.926 359.04l-18.5-28.673 48.097-25.898M1790.465 236.422l23.543 63.098-64.04-41.438M1796.438 10.898l43.402 45.25-53.563-13.851" fill="#389826" fill-opacity=".75"/><path d="M1814.156 86.398l-26.93-41.789 53.864 13.93" fill="#cb3c33" fill-opacity=".75"/><path d="M1850.152 134.977l-31.261-.895 35.726-26.797" fill="#389826" fill-opacity=".75"/><path d="M1816.918 133.063l-1.852-43.551 38.918 15.75" fill="#cb3c33" fill-opacity=".75"/><path d="M1842.504 59.953l11.992 43.36-38.746-15.684" fill="#9558b2" fill-opacity=".75"/><path d="M1816.488 137.047l39.2 43.867-50.399-1.867" fill="#cb3c33" fill-opacity=".75"/><path d="M1850.137 136.977l6.367 41.851-38.211-42.762" fill="#4063d8" fill-opacity=".75"/><path d="M1816.063 303.98l39.996 63.805-70.47-7.617" fill="#cb3c33" fill-opacity=".75"/><path d="M1857.102 365.688l-39.211-62.555 41.078 2.8M1795.914 7.992l-93.867-6.765 148.836-6.766" fill="#389826" fill-opacity=".75"/><path d="M1842.504 56.04l-44.582-46.481 61.66-15.18M1804.582 181.887l55.883 51.148-68.195.945" fill="#cb3c33" fill-opacity=".75"/><path d="M1857.09 182.969l4.664 48.535-55.07-50.402" fill="#389826" fill-opacity=".75"/><path d="M1859.043 303.934l-41.219-2.813 44.031-63.707" fill="#cb3c33" fill-opacity=".75"/><path d="M1816.266 299.855l-23.832-63.875 68.64-.953" fill="#9558b2" fill-opacity=".75"/><path d="M1863.8 231.875l-4.39-45.648 19.313 31.601" fill="#cb3c33" fill-opacity=".75"/><path d="M1856.79 104.098l-11.606-41.957 38.382 45.527" fill="#389826" fill-opacity=".75"/><path d="M1856.832 106.121l26.656 3.555-31.097 23.988" fill="#4063d8" fill-opacity=".75"/><path d="M1860.922 307.46l24.746 26.58-26.578 32.077" fill="#9558b2" fill-opacity=".75"/><path d="M1863.852 237.496l36.488 63.621-39.293 2.805" fill="#389826" fill-opacity=".75"/><path d="M1886.723 332.234l-24.567-26.386 38.215-2.73" fill="#4063d8" fill-opacity=".75"/><path d="M1879.754 215.68l-20.438-33.446 44.594-35.304" fill="#9558b2" fill-opacity=".75"/><path d="M1858.73 180.148l-6.539-42.964 51.371 7.472" fill="#389826" fill-opacity=".75"/><path d="M1885.703 110.492l18.41 32.223-50.633-7.363" fill="#cb3c33" fill-opacity=".75"/><path d="M1861.54-5.203l44.534 38.848-61.59 22.742" fill="#389826" fill-opacity=".75"/><path d="M1885.566 106.934l-40.882-48.489 61.796-22.816" fill="#cb3c33" fill-opacity=".75"/><path d="M1880.156 219.227l28.61 15.601-43.348-1.73" fill="#4063d8" fill-opacity=".75"/><path d="M1901.473 299.074l-36.707-64.004 47.062 1.883" fill="#9558b2" fill-opacity=".75"/><path d="M1907.46 32.203L1863.97-5.734l52.746 4.625M1887.48 334.988l38.079-.883-63.758 31.88" fill="#cb3c33" fill-opacity=".75"/><path d="M1902.266 303.79l25.53 28.26-39.206.91" fill="#389826" fill-opacity=".75"/><path d="M1918.77-1.04l16.085-.847-24.55 31.325" fill="#9558b2" fill-opacity=".75"/><path d="M1906.27 146.254l33.183 51.2-57.836 18.964" fill="#4063d8" fill-opacity=".75"/><path d="M1912.71 234.703l-30.202-16.473 55.832-18.304M1913.676 238.04l25.898 24.972-36.074 36.074" fill="#cb3c33" fill-opacity=".75"/><path d="M1940 201.043v59.605l-25.676-24.761M1906.297 142.508l-18.559-32.48 59.39.929" fill="#389826" fill-opacity=".75"/><path d="M1908.285 36.582l40.004 72.39-60.96-.952" fill="#9558b2" fill-opacity=".75"/><path d="M1929.848 331.34l-25.715-28.469 45.004-2.754" fill="#4063d8" fill-opacity=".75"/><path d="M1940.496 264.918l9.211 33.16-45.133 2.762M1940.926 196.047l-32.848-50.68 55.371 9.383" fill="#389826" fill-opacity=".75"/><path d="M1949.504 111.645l14.008 41.09-55.094-9.34M1936.777-1.098l29.118 62.926-56.352-28.176" fill="#cb3c33" fill-opacity=".75"/><path d="M1949.844 107.652l-39.41-71.316 56.3 28.148" fill="#389826" fill-opacity=".75"/><path d="M1942 261.258v-60.844l38.379 38.379" fill="#9558b2" fill-opacity=".75"/><path d="M1951.535 300.035l28.207 1.762-46.719 28.207" fill="#389826" fill-opacity=".75"/><path d="M1951.773 298.047l-8.886-31.992 37.324 33.77" fill="#cb3c33" fill-opacity=".75"/><path d="M1981.027 240.727l.938 57.988-39.281-35.543" fill="#389826" fill-opacity=".75"/><path d="M1964.719 156.602l17.687 60.507-40.027-19.55" fill="#9558b2" fill-opacity=".75"/><path d="M1981.215 236.8l-35.277-35.277 37 18.07" fill="#cb3c33" fill-opacity=".75"/><path d="M1968.508 65.441l25.574 14.614-42.012 27.402" fill="#4063d8" fill-opacity=".75"/><path d="M1965.71 152.98l-13.663-40.07 49.18 39.16" fill="#389826" fill-opacity=".75"/><path d="M1995.184 81.727l7.562 68.996-51.039-40.641" fill="#9558b2" fill-opacity=".75"/><path d="M1984.016 215.496l-17.692-60.531 36.317-.93" fill="#cb3c33" fill-opacity=".75"/><path d="M1930.242 333.996l73.809-.887-137.836 32.903" fill="#389826" fill-opacity=".75"/><path d="M1982.836 302.27l27.832 28.757-77.004.93M1995.605 78.621l-25.437-14.535 44.516-20.895" fill="#9558b2" fill-opacity=".75"/><path d="M1968.484 62.668L1939.188-.656l75.609 41.586" fill="#389826" fill-opacity=".75"/><path d="M2016.063 39.344l-75.688-41.63 77.582-6.62" fill="#cb3c33" fill-opacity=".75"/><path d="M2004.691 150.14l-7.57-69.097 52.063 1.89" fill="#389826" fill-opacity=".75"/><path d="M2017.176 42.781l31.629 38.137-51.164-1.86" fill="#cb3c33" fill-opacity=".75"/><path d="M2047.07 43.941l2.692 35-30.512-36.793M2019.918-7.934l33.32 27.766-35.168 19.434" fill="#4063d8" fill-opacity=".75"/><path d="M2047.273 41.95l-26.796-1.727 32.847-18.157M1983.965 298.805l-.95-58.832 69.27-1.899" fill="#cb3c33" fill-opacity=".75"/><path d="M1984.879 220.254l62.887 15.945-64.657 1.77" fill="#4063d8" fill-opacity=".75"/><path d="M2050.32 84.84l9.516 82.793-54.246-15.227" fill="#cb3c33" fill-opacity=".75"/><path d="M2004.578 154.535l55.184 34.254-74.211 28.543" fill="#4063d8" fill-opacity=".75"/><path d="M2060.04 169.77l.866 17.375-50.39-31.278" fill="#9558b2" fill-opacity=".75"/><path d="M2054.172 235.758l-66.875-16.953 73.469-28.258M2013.11 333.004l40.523.793-163.684 28.605M2013.152 330.719l-27.914-28.844 80.957-4.656" fill="#cb3c33" fill-opacity=".75"/><path d="M2054.438 238.84l14.292 56.23-82.918 4.766" fill="#9558b2" fill-opacity=".75"/><path d="M2063.152 331.984l-46.8-.918 52.304-33.035M2070.742 294.863l-13.047-51.32 28.703 48.71M2061.79 167.098l-9.278-80.696 36.175 59.364M2051.844 79.93l-2.758-35.852 40.45 2.758" fill="#389826" fill-opacity=".75"/><path d="M2055.555 21.613l32.941 23.145-39.172-2.672" fill="#9558b2" fill-opacity=".75"/><path d="M2062.82 190.316l28.317 9.133-34.711 34.711" fill="#389826" fill-opacity=".75"/><path d="M2062.965 188.262l-.844-16.84 26.941 25.258" fill="#4063d8" fill-opacity=".75"/><path d="M2089.11 147.98l2.75 48.583-29.329-27.5" fill="#9558b2" fill-opacity=".75"/><path d="M2064.086 334h15.781l-127.883 19.59" fill="#389826" fill-opacity=".75"/><path d="M2070.559 298.793l20.64 33.207h-26.023" fill="#4063d8" fill-opacity=".75"/><path d="M2087.137 294.156l4.304 34.446-19.804-31.86M2087.781 290.656l-30.898-52.426 47.75 5.618" fill="#9558b2" fill-opacity=".75"/><path d="M2092.52 200.898l12.093 40.93-47.445-5.582" fill="#4063d8" fill-opacity=".75"/><path d="M2093.07 325.512l-4.047-32.399 14.579-40.496" fill="#389826" fill-opacity=".75"/><path d="M2091.39 44.352l-34.683-24.372 50.621-37.496" fill="#cb3c33" fill-opacity=".75"/><path d="M2055.035 18.73l-33.59-27.996 83.98-9.332" fill="#9558b2" fill-opacity=".75"/><path d="M2090.055 144.172l-36.39-59.723 57.855 28.93" fill="#4063d8" fill-opacity=".75"/><path d="M2091.504 47.766l19.836 63.289-58.563-29.285" fill="#cb3c33" fill-opacity=".75"/><path d="M2105.313 237.148l-11.278-38.18 17.352-74.62" fill="#389826" fill-opacity=".75"/><path d="M2093.605 191.984l-2.585-45.695 19.828-28.453" fill="#cb3c33" fill-opacity=".75"/><path d="M2108.21-12.934l3.571 118.704-18.742-59.797" fill="#389826" fill-opacity=".75"/></svg>