<svg xmlns="http://www.w3.org/2000/svg" width="2800" height="350pt" viewBox="0 0 2100 350"><path fill="#1a1a33" d="M0 0h2100v350H0z"/><path d="M-5.305 66.473L8.875 84.19l-25.7 73.547M-1.395 180.371l-16.19-13.496 44.077-52.172" fill="#389826" fill-opacity=".9"/><path d="M10.348 86.035l18.359 22.95-44.977 53.234" fill="#9558b2" fill-opacity=".9"/><path d="M-.43 184.727l37.957 58.835-51.242 22.774" fill="#389826" fill-opacity=".9"/><path d="M38.926 242.04L1.582 184.16l56.012 23.336" fill="#cb3c33" fill-opacity=".9"/><path d="M30.434 110.543l29.906 21.496-58.883 46.734" fill="#4063d8" fill-opacity=".9"/><path d="M58.059 205.523L.949 181.73l59.965-47.59" fill="#9558b2" fill-opacity=".9"/><path d="M8.688-1.395L66.77 34.79-4.645 62.402" fill="#389826" fill-opacity=".9"/><path d="M43.488-11.82l22.934 44.035L10.46-2.645M10.145 82.578L-4.367 64.441l68.023-26.304" fill="#4063d8" fill-opacity=".9"/><path d="M29.828 107.184L11.395 84.14 65.77 38.98M-14.176 269.172l77.188 14.531-80.82 8.172" fill="#cb3c33" fill-opacity=".9"/><path d="M38.691 245.23l28.903 37.301-79.254-14.922" fill="#9558b2" fill-opacity=".9"/><path d="M9.2 329.586l-26.356-35.766 83.77-8.472" fill="#389826" fill-opacity=".9"/><path d="M66.063 349.617L11.081 330.66l57.824-44.555" fill="#4063d8" fill-opacity=".9"/><path d="M62.941 133.508l22.743 10.004-25.473 58.222" fill="#389826" fill-opacity=".9"/><path d="M61.734 130.578l-29.488-21.195 53.445-15.664" fill="#9558b2" fill-opacity=".9"/><path d="M68.793 37.54l17.93 53.792-54.735 16.043" fill="#4063d8" fill-opacity=".9"/><path d="M86.031 141.48l-22.55-9.921L86.93 95.48" fill="#cb3c33" fill-opacity=".9"/><path d="M59.27 208.61l36.218 33.433-54.797.93" fill="#9558b2" fill-opacity=".9"/><path d="M69.95 282.3l-28.934-37.335 55.066-.934" fill="#cb3c33" fill-opacity=".9"/><path d="M70.887 286.578l26.761 31.379-29.53 30.453" fill="#9558b2" fill-opacity=".9"/><path d="M97.043 246.176l.922 69.066-26.707-31.308" fill="#389826" fill-opacity=".9"/><path d="M69.273 33.363L45.84-11.633l59.055 11.25" fill="#9558b2" fill-opacity=".9"/><path d="M98.586 319.863l8.082 23.348-36.82 6.289M86.887 145.754l22.652 66.07-49.082-5.664" fill="#cb3c33" fill-opacity=".9"/><path d="M97.645 241.309L61.93 208.344l47.617 5.496" fill="#389826" fill-opacity=".9"/><path d="M88.363 89.934L70.711 36.973l42.738 21.37" fill="#cb3c33" fill-opacity=".9"/><path d="M106.27 1.066l7.484 55.192-43.031-21.516" fill="#4063d8" fill-opacity=".9"/><path d="M115.781 56.324l-7.105-52.398 23.98 41.742M111.605 214.121l19.887 3.457-31.129 22.48" fill="#cb3c33" fill-opacity=".9"/><path d="M88.98 93.078l47.625 3.738-48.558 43.891" fill="#389826" fill-opacity=".9"/><path d="M114.906 59.727l22.184 35.12-47.137-3.699" fill="#4063d8" fill-opacity=".9"/><path d="M133.164 47.71l4.418 44.173-21.203-33.57" fill="#389826" fill-opacity=".9"/><path d="M133.082 215.824l-20.668-3.594 25.16-59.308" fill="#9558b2" fill-opacity=".9"/><path d="M111.098 210.207l-22.66-66.094 49.097 3.778" fill="#389826" fill-opacity=".9"/><path d="M138 98.25v47.672l-48.602-3.742" fill="#4063d8" fill-opacity=".9"/><path d="M107.879 345.035l31.312 13.184-65.093-7.418M133.723 43.512L108.867.242l36.824 4.602" fill="#389826" fill-opacity=".9"/><path d="M99.969 315.648l-.95-71.046 49.262 23.683" fill="#cb3c33" fill-opacity=".9"/><path d="M133.46 218.621l14.895 47.48-48.406-23.273" fill="#9558b2" fill-opacity=".9"/><path d="M145.254 358.602l-35.234-14.836 44.507-32.454" fill="#cb3c33" fill-opacity=".9"/><path d="M108.504 342.395l-8.168-23.594 51.727-8.168" fill="#9558b2" fill-opacity=".9"/><path d="M149.297 270.09l5.57 38.078-52.933 8.355" fill="#389826" fill-opacity=".9"/><path d="M156.7 306.883l-5.454-37.266 30 12.723" fill="#9558b2" fill-opacity=".9"/><path d="M182.035 280.504l-30.125-12.781 31.04-25.563" fill="#cb3c33" fill-opacity=".9"/><path d="M150.512 266.285l-14.883-47.433 46.504 21.39M156.492 311.676l27.781 44.449-37.039 2.781" fill="#389826" fill-opacity=".9"/><path d="M182.094 284.32l2.758 68.953-27.582-44.128M147.688 5.156l36.687 7.34-48.61 31.184M139.922 148.14l53.953 7.57-58.688 58.688" fill="#cb3c33" fill-opacity=".9"/><path d="M195.238 153.883l-53.156-7.461 63.414-35.438" fill="#4063d8" fill-opacity=".9"/><path d="M140 145.297V97.21l64.113 12.254" fill="#389826" fill-opacity=".9"/><path d="M206.176 107.824L142.14 95.582l71.566-34.84" fill="#cb3c33" fill-opacity=".9"/><path d="M139.852 94.473l-4.727-47.282 76.594 12.293" fill="#9558b2" fill-opacity=".9"/><path d="M186.672 13.398l26.375 44.274-76.3-12.246" fill="#389826" fill-opacity=".9"/><path d="M183.637 238.734l-46.801-21.53 75.82-22.466" fill="#4063d8" fill-opacity=".9"/><path d="M195.727 156.688l17.843 35.69-76.078 22.544" fill="#389826" fill-opacity=".9"/><path d="M215.273 194.398l16.954 11.598-44.61 30.336" fill="#cb3c33" fill-opacity=".9"/><path d="M215.613 61.488l21.903 29.2-29.2 16.425" fill="#389826" fill-opacity=".9"/><path d="M232.258 357.969l-43.32-1.844 55.3-39.633" fill="#4063d8" fill-opacity=".9"/><path d="M186.926 355.105l-2.86-71.44 60.012 30.48" fill="#9558b2" fill-opacity=".9"/><path d="M238.813 89.082l-22.258-29.676 46.37-20.402" fill="#4063d8" fill-opacity=".9"/><path d="M215.406 57.73l-26.195-43.972 72.973 23.39" fill="#9558b2" fill-opacity=".9"/><path d="M207.594 110.816l56.437 47.973-66.785-4.703" fill="#389826" fill-opacity=".9"/><path d="M238.5 92.43l26.04 64.168-55.798-47.43" fill="#cb3c33" fill-opacity=".9"/><path d="M233.758 204.621l-16.942-11.59 46.364-29.422" fill="#389826" fill-opacity=".9"/><path d="M215.398 191.563L197.68 156.12l66.218 4.664" fill="#4063d8" fill-opacity=".9"/><path d="M264.176 35.688l-71.434-22.899 75.098-2.746" fill="#cb3c33" fill-opacity=".9"/><path d="M184.977 241.07l79.757 5.633-80.699 33.777" fill="#389826" fill-opacity=".9"/><path d="M245.422 312.586l-60.043-30.5 81.965-34.309" fill="#cb3c33" fill-opacity=".9"/><path d="M233.832 207.324l32.816 37.508-79.703-5.625" fill="#9558b2" fill-opacity=".9"/><path d="M147.05 3L124.7.203l96.667 1.117" fill="#cb3c33" fill-opacity=".9"/><path d="M268.66 8.012l-57.086 2.09 64.742-7.66" fill="#9558b2" fill-opacity=".9"/><path d="M187.04 10.988l-30.962-6.191 102.953-2.324" fill="#4063d8" fill-opacity=".9"/><path d="M269.93 9.559l7.777-5.653-10.605 25.45" fill="#389826" fill-opacity=".9"/><path d="M265.129 39.043l18.426 28.562-42.383 21.192" fill="#cb3c33" fill-opacity=".9"/><path d="M279.313 5.246l4.398 58.91-17.586-27.258" fill="#9558b2" fill-opacity=".9"/><path d="M282.234 153.219l-12.582 4.719 25.164-36.176" fill="#389826" fill-opacity=".9"/><path d="M267.234 157.914l-26.441-65.156 56.656 21.719" fill="#4063d8" fill-opacity=".9"/><path d="M284.387 69.426l13.062 42.906-55.972-21.453" fill="#389826" fill-opacity=".9"/><path d="M269.3 248.238l35.048 52.098-56.836 12.312" fill="#9558b2" fill-opacity=".9"/><path d="M299.094 253.82l5.394 43.14-33.254-49.429" fill="#389826" fill-opacity=".9"/><path d="M267.125 161.54l37.64 37.64-68.69 5.648" fill="#cb3c33" fill-opacity=".9"/><path d="M268.977 244.457l-32.918-37.621 68.66-5.645" fill="#389826" fill-opacity=".9"/><path d="M282.523 155.246l20.575 39.438-34.293-34.293M299.152 251.785l-28.343-6.402 34.742-42.059" fill="#9558b2" fill-opacity=".9"/><path d="M246.574 315.617l67.934 47.176-80.2-4.719" fill="#cb3c33" fill-opacity=".9"/><path d="M305.21 302.195l11.349 59.586-68.098-47.289" fill="#389826" fill-opacity=".9"/><path d="M306.512 297.027l-5.434-43.468 28.98-15.395" fill="#9558b2" fill-opacity=".9"/><path d="M307.652 202.695l22.883 32.95-29.289 15.562M285.79 65.137l-4.724-63.262 53.82-6.61M318.43 360.906l-11.176-58.672 37.25 6.52" fill="#cb3c33" fill-opacity=".9"/><path d="M331.668 239.527l13.074 67.239-37.355-6.54" fill="#4063d8" fill-opacity=".9"/><path d="M307.523 198.84l-22.078-42.317 58.875 33.118" fill="#cb3c33" fill-opacity=".9"/><path d="M331.672 233.777l-23.024-33.16 36.84-9.207" fill="#389826" fill-opacity=".9"/><path d="M299.488 115.473l53.325 32.742-68.293 4.68" fill="#cb3c33" fill-opacity=".9"/><path d="M346.313 188.465l-59.907-33.695 68.332-4.68" fill="#389826" fill-opacity=".9"/><path d="M299.531 112.316L286.351 69h68.739" fill="#4063d8" fill-opacity=".9"/><path d="M336.61-3.707L356.675 67h-69.75" fill="#389826" fill-opacity=".9"/><path d="M355.285 147.387l-54.101-33.219 65.492-27.527" fill="#4063d8" fill-opacity=".9"/><path d="M357.715 69.488l8.844 15.032-61.012 25.644" fill="#cb3c33" fill-opacity=".9"/><path d="M346.02 310.195l20.523 39.176-46.64 13.059" fill="#9558b2" fill-opacity=".9"/><path d="M347.602 191.383l38.058 17.637-51.984 25.062" fill="#4063d8" fill-opacity=".9"/><path d="M356.395 151.867l29.32 54.973-37.567-17.41" fill="#cb3c33" fill-opacity=".9"/><path d="M368.254 83.46L359.57 68.7l33.868-6.95" fill="#389826" fill-opacity=".9"/><path d="M358.707 66.832L339.125-2.176l55.953 61.551" fill="#9558b2" fill-opacity=".9"/><path d="M346.77 306.723l-13.274-68.278 66.379 52.157M396.293 57.734L339.031-5.254l66.805-8.59" fill="#cb3c33" fill-opacity=".9"/><path d="M368.43 348.668l-20.36-38.871 57.38 20.36" fill="#389826" fill-opacity=".9"/><path d="M401.188 292.293l5.57 36.203-57.559-20.422" fill="#4063d8" fill-opacity=".9"/><path d="M368.703 86.68l40.473 27.297-51.77 32.941" fill="#9558b2" fill-opacity=".9"/><path d="M396.434 61.809l12.933 49.886-39.722-26.793" fill="#cb3c33" fill-opacity=".9"/><path d="M388.07 207.004l-30.199-56.625 58.508 11.324" fill="#389826" fill-opacity=".9"/><path d="M410.238 115.672l6.567 44.078-58.149-11.254M387.613 210.297l30.2 50.016-83.043-24.54" fill="#cb3c33" fill-opacity=".9"/><path d="M401.738 289.523l-65.015-51.086 81.734 24.149M420.137 260.293l-28.942-47.934 44.317 29.844" fill="#389826" fill-opacity=".9"/><path d="M411.41 111.602l-13.078-50.454 43.91 4.672" fill="#4063d8" fill-opacity=".9"/><path d="M443 68.273v38.891l-29.848 5.43M407.813-13.54L443.39 2.376l-44.938 54.3" fill="#389826" fill-opacity=".9"/><path d="M443.016 63.89l-44.059-4.687 44.996-54.371" fill="#9558b2" fill-opacity=".9"/><path d="M418.719 159.027l-6.477-43.484 38.86 14.805" fill="#389826" fill-opacity=".9"/><path d="M443.383 109.129l7.82 19.117-36.496-13.902" fill="#cb3c33" fill-opacity=".9"/><path d="M408.785 328.54l-5.55-36.103 49.988 15.735" fill="#9558b2" fill-opacity=".9"/><path d="M420.094 263.742l33.133 42.336-49.7-15.644" fill="#cb3c33" fill-opacity=".9"/><path d="M436.555 244.066l17.058 59.262-32.324-41.3" fill="#4063d8" fill-opacity=".9"/><path d="M418.367 162.3l39.133 19.567-67.09 25.16" fill="#9558b2" fill-opacity=".9"/><path d="M436.516 240.469l-46.348-31.215 68.102-25.54" fill="#cb3c33" fill-opacity=".9"/><path d="M452.258 131.992l6.5 48.27-38.988-19.496" fill="#4063d8" fill-opacity=".9"/><path d="M407.98 331.129l52.036 28.3-88.551-10.042" fill="#cb3c33" fill-opacity=".9"/><path d="M455.23 309.453l8.438 49.684-53.434-29.059" fill="#4063d8" fill-opacity=".9"/><path d="M453.55 128.703l-7.87-19.242 34.105 8.746" fill="#389826" fill-opacity=".9"/><path d="M445 107.223V68.047l35.535 48.289" fill="#4063d8" fill-opacity=".9"/><path d="M460.879 181.04l-6.195-46.036 26.558 46.918" fill="#389826" fill-opacity=".9"/><path d="M482 119.477v59.726l-27.566-48.7M456.36 305.629l-17.973-62.426 53.914 7.567" fill="#cb3c33" fill-opacity=".9"/><path d="M460.121 184.477l32.133 64.27-53.871-7.563" fill="#389826" fill-opacity=".9"/><path d="M482.145 183.965l9.8 59.687-30.289-60.578" fill="#cb3c33" fill-opacity=".9"/><path d="M493.547 252.512l7.305 31.945-41.985 20.992" fill="#389826" fill-opacity=".9"/><path d="M445.082.941l-33.289-14.89 84.973.875" fill="#9558b2" fill-opacity=".9"/><path d="M484 179.043v-59.344l24.652 13.696" fill="#4063d8" fill-opacity=".9"/><path d="M465.844 360l-8.364-49.258L510.457 360" fill="#9558b2" fill-opacity=".9"/><path d="M501.207 286.516l10.398 71.82-53.867-50.086" fill="#4063d8" fill-opacity=".9"/><path d="M445.965 4.215L512.395 64h-67.38" fill="#cb3c33" fill-opacity=".9"/><path d="M503.168-12.738l10.465 75.16-66.598-59.938M482.918 116.203L445.977 66h67.25M509.645 131.656l-24.547-13.633 48.18-25.453" fill="#389826" fill-opacity=".9"/><path d="M515.133 66.715l19.304 22.98-48.718 25.739" fill="#4063d8" fill-opacity=".9"/><path d="M535.168 87.453L516.41 65.125l21.438-17.863" fill="#389826" fill-opacity=".9"/><path d="M515.742 63.078L505.676-9.215l32.031 53.992M494.617 247.582l-10.41-63.402 53.941 7.57" fill="#4063d8" fill-opacity=".9"/><path d="M509.98 135.14l28.243 54.602-53.66-7.531" fill="#cb3c33" fill-opacity=".9"/><path d="M513.844 359.84l-10.211-70.531 42.691 64.964M538.566 42.309L505.66-13.164l46.067-4.7" fill="#389826" fill-opacity=".9"/><path d="M547.848 352.945l-43.02-65.465 59.852 28.993" fill="#9558b2" fill-opacity=".9"/><path d="M535.922 92.059l31.027 61.109-55.469-20.684" fill="#cb3c33" fill-opacity=".9"/><path d="M540.184 189.18l-28.106-54.336 55.274 20.61" fill="#389826" fill-opacity=".9"/><path d="M565.086 314.445l-60.988-29.543 64.8-39.07" fill="#cb3c33" fill-opacity=".9"/><path d="M502.668 283.43l-7.434-32.524 70.621-5.574" fill="#9558b2" fill-opacity=".9"/><path d="M539.867 192.797l28.488 50.328-72.171 5.7M539.86 47.172l42.71 39.926-45.5 1.859" fill="#cb3c33" fill-opacity=".9"/><path d="M568.66 152.121l-31.062-61.184 46.12-1.882M566.336 317.656l19.887 18.082-36.157 17.172" fill="#389826" fill-opacity=".9"/><path d="M553.531-16.75l43.551 53.969-56.805 6.625" fill="#cb3c33" fill-opacity=".9"/><path d="M584.48 86.145l-43.222-40.403 56.379-6.574M570.898 245.883l33.63 24.285-37.368 42.973" fill="#389826" fill-opacity=".9"/><path d="M587.652 334.332l-19.898-18.09 36.183-18.094" fill="#9558b2" fill-opacity=".9"/><path d="M605 272.676v22.707l-34.934 17.469" fill="#cb3c33" fill-opacity=".9"/><path d="M598.816 36.184l-41.898-51.922L610.66 13.41" fill="#389826" fill-opacity=".9"/><path d="M585.434 90.492L615.48 136.5l-45.07 16.902M569.223 156.316l44.672 27.922-71.665 5.586" fill="#cb3c33" fill-opacity=".9"/><path d="M570.14 242.219l-28.495-50.344 73.14-5.7M616 138.441v44.754l-44.754-27.968" fill="#389826" fill-opacity=".9"/><path d="M605.934 268.719L573.16 245.05l58.262.91" fill="#4063d8" fill-opacity=".9"/><path d="M616.57 187.145l16.102 56.835-60.621-.949M599.73 39.105l41.704 5.563-54.68 40.777" fill="#9558b2" fill-opacity=".9"/><path d="M612.27 14.652l28.855 27.957-40.582-5.414M634.02 241.395l-15.051-53.11 23.902 23.016" fill="#cb3c33" fill-opacity=".9"/><path d="M643.508 209.14L618.5 185.06l42.61-35.2" fill="#389826" fill-opacity=".9"/><path d="M618 182.875v-44.633l42.777 9.297" fill="#cb3c33" fill-opacity=".9"/><path d="M588.02 337.098l71.183 31.03-107.691-13.69" fill="#9558b2" fill-opacity=".9"/><path d="M606.246 297.89l56.395 69.555-73.313-31.957" fill="#389826" fill-opacity=".9"/><path d="M612.176 11.957l-52.84-28.66L661.434 3.898" fill="#cb3c33" fill-opacity=".9"/><path d="M643.773 42.387l-29.648-28.723 50.957-8.336" fill="#389826" fill-opacity=".9"/><path d="M607 294.824V271.29l56.121 14.484" fill="#4063d8" fill-opacity=".9"/><path d="M633.89 246.438l31.368 37.82-57.196-14.758" fill="#389826" fill-opacity=".9"/><path d="M665.066 367.258l-57.203-70.547 59.11-9.531" fill="#cb3c33" fill-opacity=".9"/><path d="M617.293 135.621l-30.195-46.234 80.207 14.152" fill="#389826" fill-opacity=".9"/><path d="M643.59 45.55l24.738 56.141-80.875-14.273" fill="#cb3c33" fill-opacity=".9"/><path d="M662.18 145.797l-42.606-9.262 49.086-31.488" fill="#9558b2" fill-opacity=".9"/><path d="M667.04 2.988L603.554-9.82l72.394 11.695" fill="#389826" fill-opacity=".9"/><path d="M666.746 6.445L681.5 51.63l-35.96-8.3" fill="#9558b2" fill-opacity=".9"/><path d="M682 3.133v43.582L668.328 4.844" fill="#cb3c33" fill-opacity=".9"/><path d="M669.754 99.965l-24.035-54.543 36.054 8.32M663.164 149.965l22.422 53.254-40.172 6.539" fill="#4063d8" fill-opacity=".9"/><path d="M682.762 57.895l5.148 32.613-16.305 10.297" fill="#cb3c33" fill-opacity=".9"/><path d="M644.594 212.531l42.367 25.79-51.578 5.527" fill="#4063d8" fill-opacity=".9"/><path d="M686.098 205.16l2.738 31.961-42.004-25.57" fill="#9558b2" fill-opacity=".9"/><path d="M667.762 284.148l-31.801-38.351 52.383-5.613" fill="#cb3c33" fill-opacity=".9"/><path d="M668.96 287.625l24.767 12.84-26.598 64.203" fill="#389826" fill-opacity=".9"/><path d="M689.313 242.832l4.542 55.45-24.543-12.727M694.207 304.523l2.754 59.63-29.356 4.585" fill="#9558b2" fill-opacity=".9"/><path d="M670.746 104.664l43.781 27.945-50.3 13.04" fill="#389826" fill-opacity=".9"/><path d="M688.71 92.367l24.821 37.23-41.664-26.593" fill="#4063d8" fill-opacity=".9"/><path d="M687 201.426l-22.629-53.746 50.918-13.203" fill="#cb3c33" fill-opacity=".9"/><path d="M698.957 364.059l-2.75-59.586 32.086 61.418" fill="#389826" fill-opacity=".9"/><path d="M695.852 298.133l-4.715-57.504 50.906 23.566" fill="#cb3c33" fill-opacity=".9"/><path d="M717.29 134.883l27.198 31.887-55.332 34.699" fill="#389826" fill-opacity=".9"/><path d="M682.977.984l-114.02-18.418 173.664 6.137" fill="#cb3c33" fill-opacity=".9"/><path d="M689.742 89.29l-5.586-35.384 66.114-5.586" fill="#389826" fill-opacity=".9"/><path d="M684 51.91V3.816l66.953 42.438" fill="#4063d8" fill-opacity=".9"/><path d="M750.059-10.785l2.843 55.906-67.277-42.64" fill="#389826" fill-opacity=".9"/><path d="M729.969 364.777l-33.375-63.886 66.75-4.77" fill="#cb3c33" fill-opacity=".9"/><path d="M743.754 265.422l19.445 28.703-64.816 4.629" fill="#9558b2" fill-opacity=".9"/><path d="M743.398 262.617l-51.347-23.77 75.117-49.445" fill="#4063d8" fill-opacity=".9"/><path d="M690.852 237.242l-2.782-32.441 76.008-15.758" fill="#cb3c33" fill-opacity=".9"/><path d="M745.902 168.242l20.918 18.188-74.574 15.46M717.324 131.684l-26.222-39.332 75.855 12.171" fill="#9558b2" fill-opacity=".9"/><path d="M753.41 48.605l15.203 54.16-76.96-12.35M746.105 165.582L719.168 134h63.164" fill="#cb3c33" fill-opacity=".9"/><path d="M769.582 105.367L783.355 132H720.91" fill="#4063d8" fill-opacity=".9"/><path d="M768.484 185.227L747.524 167l35.538-30.984" fill="#389826" fill-opacity=".9"/><path d="M765 293.219L745.887 265h38.226" fill="#4063d8" fill-opacity=".9"/><path d="M768.816 190.805L784.754 263h-39.379" fill="#cb3c33" fill-opacity=".9"/><path d="M754.926 45.55l-2.778-54.64 35.192 41.676" fill="#9558b2" fill-opacity=".9"/><path d="M765.02 297.246l27.511 54.07-60.715 14.23" fill="#4063d8" fill-opacity=".9"/><path d="M785.906 265.918l10.61 19.45-29.172 7.956" fill="#cb3c33" fill-opacity=".9"/><path d="M793.223 348.27l-26.774-52.63 30.469-8.308" fill="#9558b2" fill-opacity=".9"/><path d="M784.867 130.566l-13.5-26.101 28.801-13.504" fill="#cb3c33" fill-opacity=".9"/><path d="M770.645 102.594l-14.774-52.63 44.317 38.782" fill="#389826" fill-opacity=".9"/><path d="M788.29 34.36l12.034 51.847-44.437-38.883" fill="#cb3c33" fill-opacity=".9"/><path d="M788.824 31.242l-35.578-42.129 57.11 2.809M786.441 261.355l-15.918-72.09 42.133 29.024" fill="#389826" fill-opacity=".9"/><path d="M785.71 134.121l42.802 6.512-57.688 43.73" fill="#4063d8" fill-opacity=".9"/><path d="M813.34 216.332l-42.633-29.371 58.738-44.527" fill="#9558b2" fill-opacity=".9"/><path d="M802.172 91.328l26.937 47.371-42.726-6.5" fill="#389826" fill-opacity=".9"/><path d="M812.328-7.516l20.817 15.387-41.633 22.625" fill="#cb3c33" fill-opacity=".9"/><path d="M802.7 87.598l-12.157-52.38 52.379 34.606" fill="#389826" fill-opacity=".9"/><path d="M834.238 9.55l9.41 58.36-52.707-34.828" fill="#4063d8" fill-opacity=".9"/><path d="M798.57 284.957l-10.574-19.387 59.035 15.86" fill="#9558b2" fill-opacity=".9"/><path d="M814 219.922l36.844 60.465-63.297-17.008" fill="#4063d8" fill-opacity=".9"/><path d="M798.879 288.04l52.113 43.585-55.902 18.95" fill="#cb3c33" fill-opacity=".9"/><path d="M852 283.074v46.785l-51.465-43.043M831.367 143.016l25.305 51.55-41.238 21.555M852.54 279.32l-36.278-59.53 45.578 14.882" fill="#389826" fill-opacity=".9"/><path d="M857.191 196.55l4.618 36.009-45.243-14.774" fill="#9558b2" fill-opacity=".9"/><path d="M831.246 138.41L803.98 90.46l63.934 14.103" fill="#cb3c33" fill-opacity=".9"/><path d="M844.668 71.238l22.953 31.211-62.426-13.77" fill="#4063d8" fill-opacity=".9"/><path d="M845.664 67.848l-9.379-58.16 45.028 20.636" fill="#389826" fill-opacity=".9"/><path d="M863.844 234.86l18.16-3.462-26.809 44.965" fill="#4063d8" fill-opacity=".9"/><path d="M863.855 232.82l-4.378-34.152 22.77 30.648" fill="#cb3c33" fill-opacity=".9"/><path d="M870.336 102.77L848.46 73.02l40.25 21.875" fill="#389826" fill-opacity=".9"/><path d="M882.266 32.223l7.504 60.972-43.149-23.453M858.145 193.023l-25.438-51.816 56.527 6.594" fill="#4063d8" fill-opacity=".9"/><path d="M869.691 105.645l19.606 40.148-56.02-6.535" fill="#389826" fill-opacity=".9"/><path d="M890 96.516v46.156l-18.64-38.168M852.98 333.063l37.094 14.132-89.203 3.532" fill="#4063d8" fill-opacity=".9"/><path d="M894.117 346.594l-38.96-14.844 42.671-28.754" fill="#389826" fill-opacity=".9"/><path d="M854 330.121v-46.625l42.895 17.715" fill="#cb3c33" fill-opacity=".9"/><path d="M883.55 232.707l14.079 66.645-43.176-17.832M884.234 228.64l-22.828-30.73 38.633 20.195" fill="#389826" fill-opacity=".9"/><path d="M890.398 149.64l10.309 66.555-41.242-21.558" fill="#9558b2" fill-opacity=".9"/><path d="M898.293 292.824l-13.176-62.367 15.813-10.543M882.73 28.777L838.055 8.301l78.183-18.617" fill="#cb3c33" fill-opacity=".9"/><path d="M835.219 6.918l-20.293-15 94.418-2.648" fill="#389826" fill-opacity=".9"/><path d="M891.809 93.379l-7.532-61.2 49.899 36.72M892 144.395V96.047l41.84 1.86" fill="#cb3c33" fill-opacity=".9"/><path d="M935 70.734v25.22l-40.535-1.802" fill="#389826" fill-opacity=".9"/><path d="M899.906 302.14l38.82 5.548-42.515 37.894M919.098-10.578L943 10.566l-56.996 17.47" fill="#4063d8" fill-opacity=".9"/><path d="M935.266 67.219l-50.07-36.844 58.57-17.953" fill="#9558b2" fill-opacity=".9"/><path d="M902.855 217l-10.347-66.793L951.778 217" fill="#389826" fill-opacity=".9"/><path d="M935.914 98.59l32.18 44.48-74.77 2.84" fill="#9558b2" fill-opacity=".9"/><path d="M953.438 215.863l-60.286-67.945 75.598-2.871" fill="#cb3c33" fill-opacity=".9"/><path d="M902.953 219.34l65.04 20.086-67.911 59.3" fill="#9558b2" fill-opacity=".9"/><path d="M940.383 305.902L901.3 300.32l66.066-57.691" fill="#389826" fill-opacity=".9"/><path d="M953.504 219l13.808 18.125L908.63 219" fill="#cb3c33" fill-opacity=".9"/><path d="M940.96 308.375l26.946 26.945-69.691 11.153" fill="#9558b2" fill-opacity=".9"/><path d="M969.66 141.824l-31.89-44.086 48.773-7.504" fill="#389826" fill-opacity=".9"/><path d="M937 95.836V70.457l47.133 18.125" fill="#cb3c33" fill-opacity=".9"/><path d="M945.688 13.102L989 56.414l-51.79 11.297" fill="#4063d8" fill-opacity=".9"/><path d="M987.129 87.594l-47.652-18.328 50.398-10.996" fill="#389826" fill-opacity=".9"/><path d="M970.676 145.613l19.945 12.696-34.453 54.402" fill="#4063d8" fill-opacity=".9"/><path d="M987.309 94.332l3.578 61.777-19.696-12.535" fill="#cb3c33" fill-opacity=".9"/><path d="M990.059 330.195L974 334.02l16.824-13.766" fill="#9558b2" fill-opacity=".9"/><path d="M970.066 334.652l-25.957-25.96 45.653 9.847" fill="#389826" fill-opacity=".9"/><path d="M970.523 240.324l24.739 11-51.317 51.313" fill="#cb3c33" fill-opacity=".9"/><path d="M991.09 316.781l-48.086-10.37 52.797-52.798" fill="#9558b2" fill-opacity=".9"/><path d="M945.152 9.8l-23.757-21.015 79.496-7.312" fill="#cb3c33" fill-opacity=".9"/><path d="M990.379 54.965l-43.7-43.7 57.946-29.445M970.2 237.613l-14.43-18.941 55.02-10.824" fill="#389826" fill-opacity=".9"/><path d="M991.879 160.063l21.66 45.207-57.45 11.3" fill="#cb3c33" fill-opacity=".9"/><path d="M996.457 249.664l-24.477-10.879 40.793-29.914" fill="#9558b2" fill-opacity=".9"/><path d="M991.836 58.809l42.906 30.125-45.644-.91" fill="#cb3c33" fill-opacity=".9"/><path d="M992.828 154.992l-3.765-64.972 47.078.945" fill="#4063d8" fill-opacity=".9"/><path d="M970.004 337.012l61.05 9.074-122.925.824" fill="#cb3c33" fill-opacity=".9"/><path d="M990.969 332.035l39.617 11.961-55.313-8.223" fill="#4063d8" fill-opacity=".9"/><path d="M992.879 319.633l42.562 23.738-43.382-13.098M997.84 253.195l50.203 48.309-54.941 15.156" fill="#cb3c33" fill-opacity=".9"/><path d="M1043.203 345.41l-48.586-27.094 54.192-14.949" fill="#389826" fill-opacity=".9"/><path d="M1006.715-18.438l44.52 25.579L992.503 54.5" fill="#9558b2" fill-opacity=".9"/><path d="M1037.637 88.523L994.164 58h59.195" fill="#389826" fill-opacity=".9"/><path d="M1052.082 9.027L1053.961 56h-60.129" fill="#4063d8" fill-opacity=".9"/><path d="M1015.445 207.578l40.184 29.906-57.004 12.149" fill="#389826" fill-opacity=".9"/><path d="M1049.254 299.895l-50.203-48.31 57.781-12.315" fill="#9558b2" fill-opacity=".9"/><path d="M1015.46 204.652l-21.534-44.945 66.48 22.473" fill="#389826" fill-opacity=".9"/><path d="M1057.164 236.129l-40.262-29.961 44.942-22.473" fill="#cb3c33" fill-opacity=".9"/><path d="M1037.73 92.18l25.793 70.695-69.738-5.73" fill="#9558b2" fill-opacity=".9"/><path d="M1062.145 180.656l-62.098-20.992 63.844 5.25" fill="#cb3c33" fill-opacity=".9"/><path d="M1065.43 162.254l-24.828-68.04 45.972 48.731" fill="#4063d8" fill-opacity=".9"/><path d="M1063.89 183.277l30.368 8.286-34.969 43.253" fill="#389826" fill-opacity=".9"/><path d="M1065.781 166.008l26.27 22.879-27.961-7.625" fill="#9558b2" fill-opacity=".9"/><path d="M1087.316 144.98l7.239 43.434-28.051-24.434" fill="#389826" fill-opacity=".9"/><path d="M1050.785 303.672l44.758 27.973-50.352 13.988" fill="#9558b2" fill-opacity=".9"/><path d="M1055.95 55.676l-1.868-46.64 45.707 33.581" fill="#cb3c33" fill-opacity=".9"/><path d="M1055.184 58.828l44.601 55.754-60.398-25.09" fill="#9558b2" fill-opacity=".9"/><path d="M1087.805 141.336l-45.864-48.617 59.625 24.77" fill="#cb3c33" fill-opacity=".9"/><path d="M1101.02 44.336l.94 69.766-45.253-56.567" fill="#389826" fill-opacity=".9"/><path d="M1058.746 240.082l50.207 47.363-57.785 13.262" fill="#4063d8" fill-opacity=".9"/><path d="M1097.414 330.453l-44.832-28.02 56.973-13.078" fill="#389826" fill-opacity=".9"/><path d="M1053.164 5.941l-42.277-24.289 95.343 12.594" fill="#4063d8" fill-opacity=".9"/><path d="M1101.332 41.27l-45.96-33.77 55.339-12.191" fill="#389826" fill-opacity=".9"/><path d="M1095.559 193.137l16.015 57.468-51.816-13.19" fill="#4063d8" fill-opacity=".9"/><path d="M1110.121 285.797l-48.629-45.875 50.465 12.844" fill="#389826" fill-opacity=".9"/><path d="M1096.559 188.266l-7.418-44.496 41.714-9.27" fill="#9558b2" fill-opacity=".9"/><path d="M1103.383 118.336l26.762 14.273-40.141 8.922" fill="#4063d8" fill-opacity=".9"/><path d="M1113.941 253.07l24.973 1.782-26.754 30.324M1132.695 131.703l-25.277-13.48 33.703 1.683" fill="#9558b2" fill-opacity=".9"/><path d="M1103.988 116.047l-.933-68.984 38.222 70.851" fill="#4063d8" fill-opacity=".9"/><path d="M1043.914 348l83.531 14.742-205.547-13.922" fill="#389826" fill-opacity=".9"/><path d="M1097.816 333.09l43.82 30.125-93.116-16.434M1112.586-3.867l46.922 51.613-56.305-5.633" fill="#cb3c33" fill-opacity=".9"/><path d="M1159.04-17.703l1.882 64.031L1113.84-5.46" fill="#9558b2" fill-opacity=".9"/><path d="M1142.691 116.32l-38.918-72.136 56.954 5.695" fill="#389826" fill-opacity=".9"/><path d="M1140.508 252.96l-24.34-1.737 45.203-27.817" fill="#cb3c33" fill-opacity=".9"/><path d="M1113.605 250.453l-16.085-57.73 65.3 27.445" fill="#389826" fill-opacity=".9"/><path d="M1111.617 289.438l55.336 28.136-67.527 13.13" fill="#4063d8" fill-opacity=".9"/><path d="M1145.629 363.531l-45.098-31.004 67.645-13.152M1140.727 255.82l27.187 59.996-55.309-28.12" fill="#389826" fill-opacity=".9"/><path d="M1143.152 120.508l38.094 35.496-46.754-23.375" fill="#4063d8" fill-opacity=".9"/><path d="M1133.191 134.559l51.48 48.617-86.75 6.672" fill="#cb3c33" fill-opacity=".9"/><path d="M1164.594 218.746l-64.395-27.066 84.93-6.532" fill="#9558b2" fill-opacity=".9"/><path d="M1186 160.617v21.063l-47.39-44.758M1165.05 221.66l26.794 33.258-48.965-1.848" fill="#389826" fill-opacity=".9"/><path d="M1169.926 315.418l-27.348-60.36 49.985 1.887" fill="#4063d8" fill-opacity=".9"/><path d="M1186.293 187.074l6.387 65.696-26.461-32.848M1162.43 51.238l33.988 45.317-51.926 20.773" fill="#cb3c33" fill-opacity=".9"/><path d="M1195.043 49.027l1.828 44.797-32.914-43.883" fill="#389826" fill-opacity=".9"/><path d="M1186.332 158.012l-41.496-38.668 51.871-20.75" fill="#9558b2" fill-opacity=".9"/><path d="M1195.086 47.027l-30.371.891 33.05-29.477" fill="#cb3c33" fill-opacity=".9"/><path d="M1162.938 46.824l-1.872-63.523 36.434 32.695" fill="#389826" fill-opacity=".9"/><path d="M1193.45 260.191l4.484 41.254-26.008 14.352" fill="#9558b2" fill-opacity=".9"/><path d="M1170.45 319.32l41.015 19.578-63.39 24.239" fill="#cb3c33" fill-opacity=".9"/><path d="M1198.496 303.418l13.61 33.57-39.918-19.05" fill="#4063d8" fill-opacity=".9"/><path d="M1214.047 340.05l20.703 5.798-77.004 15.73" fill="#9558b2" fill-opacity=".9"/><path d="M1188 183.293v-21.258l50.484 38.969" fill="#4063d8" fill-opacity=".9"/><path d="M1194.785 253.742l-6.637-68.281 54.051 18.969M1199.75 299.645l-4.648-42.766 47.414-5.578" fill="#389826" fill-opacity=".9"/><path d="M1243.05 206.43l.93 42.683-47.324 5.567" fill="#4063d8" fill-opacity=".9"/><path d="M1199.863 17.516l50.473 23.859-53.227 5.504" fill="#9558b2" fill-opacity=".9"/><path d="M1198.95 95.773l-1.876-46.007 59.156 33.8" fill="#cb3c33" fill-opacity=".9"/><path d="M1253.125 43.098l4.648 39.05-58.578-33.472" fill="#389826" fill-opacity=".9"/><path d="M1238.418 344.797l-22.41-6.274 40.336-36.75" fill="#cb3c33" fill-opacity=".9"/><path d="M1214.387 337.293l-13.942-34.387 55.766-3.719" fill="#389826" fill-opacity=".9"/><path d="M1244.547 252.02l13.144 45.066-56.332 3.754" fill="#4063d8" fill-opacity=".9"/><path d="M1253.445 40.633l-50.691-23.965 61.75-5.531" fill="#389826" fill-opacity=".9"/><path d="M1199.344 14.965l-35.528-31.883L1260.38 9.5" fill="#cb3c33" fill-opacity=".9"/><path d="M1198.66 99.035l65.738 63.832-76.218-3.808" fill="#389826" fill-opacity=".9"/><path d="M1258.117 85.21l7.617 76.165-65.695-63.79" fill="#9558b2" fill-opacity=".9"/><path d="M1243.703 202.508l-53.566-41.352 75.183 3.762" fill="#cb3c33" fill-opacity=".9"/><path d="M1259.566 299.242l21.496 7.168-39.414 35.828" fill="#389826" fill-opacity=".9"/><path d="M1259.625 80.777L1255.09 42.7l30.828-9.972" fill="#cb3c33" fill-opacity=".9"/><path d="M1266.406 11.77l19.692 18.796-30.434 9.844" fill="#9558b2" fill-opacity=".9"/><path d="M1239.078 347.004l47.813 2.351-120.711 12.543" fill="#389826" fill-opacity=".9"/><path d="M1282.602 307.715l15.898 40.21-57.043-2.804M1282.406 304.746l-21.535-7.176 38.582-37.687" fill="#cb3c33" fill-opacity=".9"/><path d="M1259.492 296.121l-13.113-44.969 53.398 5.621" fill="#389826" fill-opacity=".9"/><path d="M1301.2 254.91l-52.805-5.558 60.214-31.497" fill="#4063d8" fill-opacity=".9"/><path d="M1245.965 248.367l-.938-43.164 61.93 11.262" fill="#cb3c33" fill-opacity=".9"/><path d="M1267.148 165.75l40.336 48.777-61.91-11.257" fill="#4063d8" fill-opacity=".9"/><path d="M1267.852 162.457l-7.551-75.508 49.078 54.742" fill="#389826" fill-opacity=".9"/><path d="M1309.035 213.266l-40.465-48.934 41.407-20.703" fill="#cb3c33" fill-opacity=".9"/><path d="M1287.969 29.59l-19.676-18.785 41.145-3.578M1287.926 33.219l29.304 63.343-56.722-13.238" fill="#4063d8" fill-opacity=".9"/><path d="M1310.383 139.813l-48.52-54.118 55.985 13.063" fill="#cb3c33" fill-opacity=".9"/><path d="M1300.602 347.8l-15.477-39.148 45.52 30.953M1319.875 98.781l17.043-5.113-23.863 42.613" fill="#389826" fill-opacity=".9"/><path d="M1319.543 96.793l-27.461-59.352 45.18 54.036" fill="#cb3c33" fill-opacity=".9"/><path d="M1311.973 144.102l26.726 22.12-27.648 46.083" fill="#389826" fill-opacity=".9"/><path d="M1338.05 95.742l.923 68.11-26.692-22.09M1311.66 5.027l-36.691 3.188 60.617-19.14" fill="#cb3c33" fill-opacity=".9"/><path d="M1265.98 8.957l-97.703-26.73 167.754 4.609M1302.426 257.691l42.324 36.68-60.191 10.348" fill="#389826" fill-opacity=".9"/><path d="M1332.445 338.414l-46.836-31.848 59.95-10.304" fill="#4063d8" fill-opacity=".9"/><path d="M1310.676 217.723l36.953 26.793-44.344 10.164" fill="#cb3c33" fill-opacity=".9"/><path d="M1346.125 292.918l-41.98-36.383 44.777-10.262" fill="#9558b2" fill-opacity=".9"/><path d="M1339.89 168.125l13.755 29.34-41.262 16.504" fill="#4063d8" fill-opacity=".9"/><path d="M1349.188 243.176l-37.133-26.922 41.773-16.707" fill="#389826" fill-opacity=".9"/><path d="M1312.133 7.305l53.465 36.875-75.59-13.828" fill="#cb3c33" fill-opacity=".9"/><path d="M1338.914 90.34l-48.371-57.86 77.773 14.227" fill="#389826" fill-opacity=".9"/><path d="M1341.586-12.523l25.95 55.609-53.755-37.07" fill="#9558b2" fill-opacity=".9"/><path d="M1369.652 42.89l-25.718-55.113L1378.84.637M1355.203 196.078l-13.648-29.117 36.394-.91" fill="#389826" fill-opacity=".9"/><path d="M1340.984 164.977l-.93-69.059 38.262 68.125" fill="#9558b2" fill-opacity=".9"/><path d="M1350.89 246.863l32.34 23.102-35.113 23.101M1369.734 48.184l17.766 48.629-46.758-5.61" fill="#cb3c33" fill-opacity=".9"/><path d="M1379.406 161.902l-38.57-68.675 47.039 5.644" fill="#4063d8" fill-opacity=".9"/><path d="M1347.648 296.285l42.743 14.867-55.75 26.946" fill="#389826" fill-opacity=".9"/><path d="M1384.305 271.656l7.379 37.828-42.442-14.761M1333.066 341.02l51.2 6.98h-76.797" fill="#9558b2" fill-opacity=".9"/><path d="M1392.223 312.488l5.578 35.34-61.38-8.371M1380.508 2.363l23.844 32.094-33.012 10.09" fill="#cb3c33" fill-opacity=".9"/><path d="M1388.855 94.695l-17.554-48.047 33.262-10.164" fill="#389826" fill-opacity=".9"/><path d="M1355.875 199.21l61.027 13.145-65.718 30.98" fill="#cb3c33" fill-opacity=".9"/><path d="M1384.703 268.559l-32.734-23.383 65.465-30.86" fill="#389826" fill-opacity=".9"/><path d="M1380.047 166.598l37.277 43.804-60.578-13.05" fill="#9558b2" fill-opacity=".9"/><path d="M1393.594 308.82l-7.39-37.87 42.487-1.848" fill="#389826" fill-opacity=".9"/><path d="M1419.52 214.734l10.273 52.317-42.973 1.87M1399.82 347.793l-5.46-34.594 38.234 27.313" fill="#9558b2" fill-opacity=".9"/><path d="M1430.34 270.254l7.457 47.523-42.863-7.457" fill="#cb3c33" fill-opacity=".9"/><path d="M1434.297 339.27l-37.145-26.532 40.684 7.075" fill="#389826" fill-opacity=".9"/><path d="M1420.46 211l-35.315-41.5 64.453 41.5" fill="#4063d8" fill-opacity=".9"/><path d="M1431.32 264.45L1421.215 213h30.316" fill="#cb3c33" fill-opacity=".9"/><path d="M1389.77 99.79l61.945 44.792-70.524 19.059" fill="#9558b2" fill-opacity=".9"/><path d="M1452.027 210.184l-69.593-44.805 70.546-19.066" fill="#cb3c33" fill-opacity=".9"/><path d="M1406.402 37.344l46.512 67.394-62.648-7.593" fill="#4063d8" fill-opacity=".9"/><path d="M1453.05 143.078l-60.327-43.621 61.254 7.426" fill="#389826" fill-opacity=".9"/><path d="M1406.172 33.555L1381.824.78l74.914-9.367" fill="#4063d8" fill-opacity=".9"/><path d="M1454.496 103.508l-46.055-66.73 56.395 16.917" fill="#cb3c33" fill-opacity=".9"/><path d="M1459.184-8.02l5.68 59.633-56.794-17.035" fill="#389826" fill-opacity=".9"/><path d="M1466.43 55.86l15.285 27.878-25.18 19.785" fill="#4063d8" fill-opacity=".9"/><path d="M1439.895 319.676l39.878-19.516-43.273 38.184" fill="#cb3c33" fill-opacity=".9"/><path d="M1439.777 317.508l-7.484-47.727 51.469 26.2M1453.313 213.938l32.894 39.472-53.57 13.156" fill="#9558b2" fill-opacity=".9"/><path d="M1485.074 294.406l-51.222-26.078 53.085-13.039" fill="#389826" fill-opacity=".9"/><path d="M1454.945 148.555l35.371 59.57-36.3 2.793" fill="#9558b2" fill-opacity=".9"/><path d="M1487.219 251.5l-32.211-38.652 35.89-2.762" fill="#cb3c33" fill-opacity=".9"/><path d="M1455.96 107.598l51.958 25.98-52.887 10.203" fill="#4063d8" fill-opacity=".9"/><path d="M1482.7 85.508l25.84 46.144-51.68-25.84M1491.625 206.41l-36.04-60.7 54.06-10.429" fill="#389826" fill-opacity=".9"/><path d="M1434.953 342.035l68.711 22.055-99.25-15.27" fill="#cb3c33" fill-opacity=".9"/><path d="M1485.621 297.668l28.61 67.715-77.25-24.797" fill="#389826" fill-opacity=".9"/><path d="M1466.79 50.738l-5.669-59.527 53.856 9.45" fill="#4063d8" fill-opacity=".9"/><path d="M1483.36 82.578l-15.481-28.23 46.441 8.195" fill="#cb3c33" fill-opacity=".9"/><path d="M1516 2.48V60.81l-47.977-8.47" fill="#389826" fill-opacity=".9"/><path d="M1510.273 130.66l-25.941-46.332 31.504-20.383" fill="#9558b2" fill-opacity=".9"/><path d="M1518 59.844V3.375l23.68 36.43M1516.32 365.191l-28.035-66.351 54.203 38.316" fill="#4063d8" fill-opacity=".9"/><path d="M1542.262 37.027L1518.442.383l28.402-14.66" fill="#9558b2" fill-opacity=".9"/><path d="M1488.957 254.93l59.523-4.653-61.382 43.715" fill="#cb3c33" fill-opacity=".9"/><path d="M1492.848 210.766l56.191 37.46-59.937 4.684" fill="#389826" fill-opacity=".9"/><path d="M1543.543 335.453l-54.336-38.41 69.324.937" fill="#cb3c33" fill-opacity=".9"/><path d="M1551.277 250.742l7.54 45.242-69.747-.941M1511.402 136.48l47.715 74.438-65.847-2.863" fill="#4063d8" fill-opacity=".9"/><path d="M1551.367 247.375l-55.832-37.219 64.207 2.79" fill="#cb3c33" fill-opacity=".9"/><path d="M1517.797 64.484l42.52 50.079-48.188 17.949" fill="#389826" fill-opacity=".9"/><path d="M1542.422 41.797l17.55 69.27-41.562-48.95" fill="#cb3c33" fill-opacity=".9"/><path d="M1560.3 209.059l-47.198-73.637 53.808 10.387" fill="#9558b2" fill-opacity=".9"/><path d="M1561.25 116.348l5.477 27.386-52.04-10.043" fill="#cb3c33" fill-opacity=".9"/><path d="M1561.414 214.523l17 26.844-25.05 6.262" fill="#9558b2" fill-opacity=".9"/><path d="M1560.773 295.57l-7.335-44.039 36.695 31.196" fill="#cb3c33" fill-opacity=".9"/><path d="M1579.309 243.203l10.793 36.871-35.973-30.574M1568.688 148.035l24.96 40.672-31.43 21.262" fill="#389826" fill-opacity=".9"/><path d="M1579.648 239.574l-17.285-27.289 30.93-20.922" fill="#cb3c33" fill-opacity=".9"/><path d="M1562.676 113.594l-17.73-69.989 50.39 55.055" fill="#9558b2" fill-opacity=".9"/><path d="M1568.488 142.348l-5.351-26.766 31.23-14.277M1548.813-13.855l50.874 48.046-55.585 4.711" fill="#389826" fill-opacity=".9"/><path d="M1596.184 96.625l-51.075-55.8 55.801-4.727M1544.246 338.203l58.262 25.895-84.156 1.851" fill="#cb3c33" fill-opacity=".9"/><path d="M1560.238 299.102l43.914 63.539-58.867-26.164" fill="#389826" fill-opacity=".9"/><path d="M1591.242 284.422l13.938 76.187-43.668-63.18" fill="#9558b2" fill-opacity=".9"/><path d="M1601.547 33.195L1552.844-12.8l55.918 24.352" fill="#cb3c33" fill-opacity=".9"/><path d="M1595.23 187.465l-24.746-40.328 47.66 20.164" fill="#4063d8" fill-opacity=".9"/><path d="M1596.727 101.309l21.613 63.902-48.867-20.672" fill="#9558b2" fill-opacity=".9"/><path d="M1592.766 282.059l-10.836-37.032 45.156 39.739" fill="#cb3c33" fill-opacity=".9"/><path d="M1607.223 360.66l-14.004-76.562 35.476 2.8" fill="#389826" fill-opacity=".9"/><path d="M1610.129 9.965l-52.574-22.895 83.097 17.809M1595.633 190.434l52.812 26.406-66.957 23.578" fill="#4063d8" fill-opacity=".9"/><path d="M1629.496 284.223l-47.555-41.848 67.528-23.773" fill="#389826" fill-opacity=".9"/><path d="M1619.773 168.531l28.516 45.996-51.512-25.757" fill="#cb3c33" fill-opacity=".9"/><path d="M1602.781 37.832l48.059 67.848-52.77-7.535" fill="#9558b2" fill-opacity=".9"/><path d="M1630.05 289.402l21.645 66.809-43.285 7.527" fill="#cb3c33" fill-opacity=".9"/><path d="M1610.602 12.36l40.363 17.94-47.54 3.59" fill="#389826" fill-opacity=".9"/><path d="M1645.332 6.125l7.969 23.027-39.852-17.715" fill="#cb3c33" fill-opacity=".9"/><path d="M1652.078 103.969l-48.242-68.106 50.137-3.781" fill="#4063d8" fill-opacity=".9"/><path d="M1620.543 165.48l-21.512-63.593 54.239 43.02" fill="#cb3c33" fill-opacity=".9"/><path d="M1652.043 107.875l1.844 34.965-53.371-42.328M1650.176 213.777l-28.801-46.46 32.52-20.442" fill="#389826" fill-opacity=".9"/><path d="M1651.18 219.84l16.578 36.836-35.918 26.707" fill="#9558b2" fill-opacity=".9"/><path d="M1655.617 29.723l-8.047-23.239 41.118 11.618" fill="#389826" fill-opacity=".9"/><path d="M1655.844 147.809l38.562 51.726-42.324 15.988" fill="#4063d8" fill-opacity=".9"/><path d="M1669.023 254.613l-16.675-37.054 41.687-15.746" fill="#389826" fill-opacity=".9"/><path d="M1695.277 203.86l3.653 50.206-28.297 1.829M1655.887 142.832l-1.84-34.934 45.05-4.597" fill="#cb3c33" fill-opacity=".9"/><path d="M1653.496 355.281l-21.945-67.734 74.414 23.851" fill="#389826" fill-opacity=".9"/><path d="M1668.781 258.406l36.625 50.715-73.25-23.48" fill="#cb3c33" fill-opacity=".9"/><path d="M1699.14 256.059l7.297 51.07-35.566-49.246" fill="#389826" fill-opacity=".9"/><path d="M1685.418 368.695l-30.484-12.007 50.808-42.497M1695.605 197.797l-38.687-51.895 54.727-2.832" fill="#cb3c33" fill-opacity=".9"/><path d="M1701.469 103.84l10.238 37.226-53.977 2.793M1655.953 32.813l57.156 37.152-59.062 35.246" fill="#389826" fill-opacity=".9"/><path d="M1701.3 101.066l-43.913 4.48 55.562-33.16M1691.46 19.25l21.267 48.078-55.477-36.058M1713.348 139.5l-9.832-35.762 25.03 10.727" fill="#4063d8" fill-opacity=".9"/><path d="M1714.918 72.86l13.41 39.335-25.031-10.726M1700.734 251.297l-3.687-50.68 37.781-17.508" fill="#9558b2" fill-opacity=".9"/><path d="M1713.328 144.441l22.23 36.125-37.98 17.598M1708.824 309.695l-7.308-51.152 33.8 42.934" fill="#4063d8" fill-opacity=".9"/><path d="M1715.574 68.824l-21.27-48.086 58.258 38.84" fill="#cb3c33" fill-opacity=".9"/><path d="M1730.14 111.316l-13.843-40.609 36.918-9.23" fill="#389826" fill-opacity=".9"/><path d="M1708.426 312.727l46.441 41.703-67.297 14.215" fill="#4063d8" fill-opacity=".9"/><path d="M1736.398 303.234l18.22 48.282-44.638-40.082" fill="#9558b2" fill-opacity=".9"/><path d="M1730.332 115.379l27.93 17.117-43.246 8.11" fill="#389826" fill-opacity=".9"/><path d="M1736.91 178.945l-22.297-36.23 44.59-8.36" fill="#cb3c33" fill-opacity=".9"/><path d="M1692.035 16.969l-39.23-11.086 99.78-1.703" fill="#4063d8" fill-opacity=".9"/><path d="M1754.23 58.285l-59.699-39.797 67.282-14.215" fill="#389826" fill-opacity=".9"/><path d="M1736.914 183.41l31.535 76.453-66.894-5.734" fill="#4063d8" fill-opacity=".9"/><path d="M1737.008 300.395l-34.797-44.204 65.832 5.645" fill="#389826" fill-opacity=".9"/><path d="M1770.668 260l-25.27-61.266 32.93 61.266" fill="#9558b2" fill-opacity=".9"/><path d="M1763.48 6.758l18.18 43.62-25.45 8.18M1755.375 61.57l35.621 28.121-59.059 22.5" fill="#cb3c33" fill-opacity=".9"/><path d="M1760.742 131.668l-28.484-17.457 57.89-22.055M1782.297 52.277l9 35.102-34.203-27M1762.672 2.004L1659.367 3.77l131.559-22.07" fill="#9558b2" fill-opacity=".9"/><path d="M1646.023 3.98l-89.246-19.12 224.938-3.645" fill="#cb3c33" fill-opacity=".9"/><path d="M1782.59 47.418l-18.36-44.07 29.38-21.118" fill="#389826" fill-opacity=".9"/><path d="M1757.168 352.617l-18.855-49.972 55.628-16.97" fill="#4063d8" fill-opacity=".9"/><path d="M1770.121 262.441L1794 283.566l-54.184 16.528" fill="#cb3c33" fill-opacity=".9"/><path d="M1779.477 262l10.941 15.727L1772.641 262" fill="#389826" fill-opacity=".9"/><path d="M1779.863 258.633l-40.91-76.113 64.695 16.171M1795.598 286.805l15.152 68.172-52.078-.946" fill="#cb3c33" fill-opacity=".9"/><path d="M1761.441 134.355l48.84 25.36-71.383 19.722" fill="#4063d8" fill-opacity=".9"/><path d="M1804.234 196.777l-63.304-15.824 70.754-19.55" fill="#9558b2" fill-opacity=".9"/><path d="M1792.594 92.219l18.808 65.824-48.898-25.39" fill="#cb3c33" fill-opacity=".9"/><path d="M1793.422 87.617l-9.219-35.953 43.324-13.824" fill="#389826" fill-opacity=".9"/><path d="M1795.547-17.238l32.922 52.675-44.211 14.11" fill="#cb3c33" fill-opacity=".9"/><path d="M1813.11 156.738l-18.567-64.972 36.2 15.777" fill="#389826" fill-opacity=".9"/><path d="M1829.086 39.102l1.871 66.351-36.45-15.887" fill="#4063d8" fill-opacity=".9"/><path d="M1832.09 109.715l8.726 20.07-25.308 26.18" fill="#9558b2" fill-opacity=".9"/><path d="M1796.293 282.668l-14.461-20.785 56.031-3.613" fill="#4063d8" fill-opacity=".9"/><path d="M1805.203 200.203l35.059 55.906-58.75 3.79" fill="#389826" fill-opacity=".9"/><path d="M1812.566 353.941l-15.02-67.597 46.942 33.8" fill="#9558b2" fill-opacity=".9"/><path d="M1841.105 258.684l3.762 59.27-47.039-33.868" fill="#389826" fill-opacity=".9"/><path d="M1813.656 161.742l33.063 24.797-40.41 10.102" fill="#cb3c33" fill-opacity=".9"/><path d="M1841.262 132.203l6.46 52.586-33.214-24.91" fill="#389826" fill-opacity=".9"/><path d="M1841.297 253.996l-34.719-55.36 41.285-10.32" fill="#9558b2" fill-opacity=".9"/><path d="M1845.754 321.715l21.46 41.992-53.187-8.398M1830.309 34.605l-32.84-52.539 70.37 28.145" fill="#389826" fill-opacity=".9"/><path d="M1842.309 128.203l-8.993-20.683 47.664-20.688" fill="#4063d8" fill-opacity=".9"/><path d="M1832.957 105.496l-1.895-67.242 52.086 45.457" fill="#389826" fill-opacity=".9"/><path d="M1869.313 11.64l14.12 69.665-51.777-45.188M1846.797 316.754l-3.742-58.918 43.957-7.484" fill="#4063d8" fill-opacity=".9"/><path d="M1849.71 189.945l37.63 58.325-44.215 7.523" fill="#389826" fill-opacity=".9"/><path d="M1888.566 246.48l-37.425-58.003 48.652 10.289" fill="#9558b2" fill-opacity=".9"/><path d="M1885.285 80.371l-13.82-68.172 31.324 21.188M1900.105 196.79l-48.812-10.325 53.504-42.242" fill="#389826" fill-opacity=".9"/><path d="M1849.777 185.113l-6.617-53.879 60.496 11.344" fill="#cb3c33" fill-opacity=".9"/><path d="M1884.617 85.875l19.848 54.82-60.492-11.343" fill="#389826" fill-opacity=".9"/><path d="M1869.426 363.64l-21.457-41.984 63.441 19.59" fill="#9558b2" fill-opacity=".9"/><path d="M1888.879 251.129l27.633 60.031-68.606 7.621" fill="#389826" fill-opacity=".9"/><path d="M1913.172 339.695l-62.285-19.23 65.945-7.328M1870.203 9.004l-61.34-24.535 102.23 25.351" fill="#cb3c33" fill-opacity=".9"/><path d="M1903.758 31.629l-30.395-20.563 44.7.895M1906.656 140.875L1887.88 89.02l40.238 48.28" fill="#4063d8" fill-opacity=".9"/><path d="M1906.926 142.86l21.332-3.555-25.774 53.328M1901.68 199.484l37.246 19.559-48.422 27.934" fill="#cb3c33" fill-opacity=".9"/><path d="M1929.457 141.426l10.293 75.789-37.43-19.653M1920.484 12.031l27.164 1.7-40.742 16.976" fill="#389826" fill-opacity=".9"/><path d="M1918.402 310.484L1891.25 251.5l59.922 35.578" fill="#9558b2" fill-opacity=".9"/><path d="M1914.219 342.016l38.02 2.535-76.04 17.742" fill="#4063d8" fill-opacity=".9"/><path d="M1918.754 313.855l37.066 28.93-40.683-2.71" fill="#389826" fill-opacity=".9"/><path d="M1952.184 288.813l5.574 52.949-38.086-29.727" fill="#cb3c33" fill-opacity=".9"/><path d="M1904.586 34.293l54.586 20.703-72.469 27.293" fill="#4063d8" fill-opacity=".9"/><path d="M1951.3 14.375l9.29 39.02-53.887-20.438M1930.059 136.508l-42.36-50.828 74.36 17.882" fill="#cb3c33" fill-opacity=".9"/><path d="M1961.059 56.422l1.886 45.297-74.547-17.93" fill="#389826" fill-opacity=".9"/><path d="M1940.742 220.3l22.2 28.673-70.29-.926" fill="#9558b2" fill-opacity=".9"/><path d="M1952.434 285.5l-59.707-35.45 70.902.93" fill="#389826" fill-opacity=".9"/><path d="M1941.602 216.004l-10.41-76.668 48.273 12.305" fill="#4063d8" fill-opacity=".9"/><path d="M1963.594 104.852l15.84 44.718-47.512-12.113" fill="#9558b2" fill-opacity=".9"/><path d="M1964.902 100.68l-1.789-43 21.5 23.293" fill="#4063d8" fill-opacity=".9"/><path d="M1985.566 79.059l-21.851-23.676 33.687-13.656" fill="#9558b2" fill-opacity=".9"/><path d="M1962.703 53.637l-9.195-38.617 43.215 24.824M1959.879 342.805l-5.574-52.953 42.734 45.52" fill="#389826" fill-opacity=".9"/><path d="M1965.41 251.977l35.102 39.718-46.184-5.543" fill="#9558b2" fill-opacity=".9"/><path d="M1998.21 333.7l-42.6-45.38 46.304 5.555" fill="#cb3c33" fill-opacity=".9"/><path d="M1965.113 248.512l-22.261-28.754 61.218-8.348" fill="#4063d8" fill-opacity=".9"/><path d="M1980.871 153.191l24.68 55.996-62.645 8.543" fill="#389826" fill-opacity=".9"/><path d="M2002.664 291.11l-33.984-38.458 42.035 17.887" fill="#cb3c33" fill-opacity=".9"/><path d="M2006.176 212.164l4.691 56.266-44.078-18.754" fill="#389826" fill-opacity=".9"/><path d="M1951.875 11.988l-23.922-1.492L1998.22-2.96" fill="#cb3c33" fill-opacity=".9"/><path d="M1920.027 9.977L1805.773-18.36 2005.95-6.477" fill="#389826" fill-opacity=".9"/><path d="M1998.426 38.516l-43.969-25.258 58-18.711" fill="#9558b2" fill-opacity=".9"/><path d="M1981.656 149.863l-15.793-44.601 61.324 36.238" fill="#4063d8" fill-opacity=".9"/><path d="M1985.875 82.54l40.516 56.167-60.774-35.91M2006.879 207.242l-24.453-55.488 46.082-8.465" fill="#9558b2" fill-opacity=".9"/><path d="M1999.113 336.996l11.293-.34-24.976 3.078" fill="#4063d8" fill-opacity=".9"/><path d="M2003.742 295.832l26.39 38.223-30.03.91M1999.55 41.578l39.942 26.938-52.02 11.144" fill="#389826" fill-opacity=".9"/><path d="M2012.836 267.992l-4.621-55.469 33.281 31.434" fill="#4063d8" fill-opacity=".9"/><path d="M2030.066 140.383l-40.937-56.754 63.27 30.703" fill="#cb3c33" fill-opacity=".9"/><path d="M2041.277 70.176l11.196 41.969-63.422-30.778" fill="#9558b2" fill-opacity=".9"/><path d="M2014.668-5.809l41.73 10.204-55.64 33.382" fill="#4063d8" fill-opacity=".9"/><path d="M2041.39 67.383l-40.527-27.332 56.551-33.934" fill="#cb3c33" fill-opacity=".9"/><path d="M2012.598 271.219l48.37 14.332-56.433 6.273" fill="#389826" fill-opacity=".9"/><path d="M2032.004 333.242l-27.23-39.433 59.152-6.57" fill="#cb3c33" fill-opacity=".9"/><path d="M2042.707 245.55l21.25 38.802-49.887-14.782" fill="#9558b2" fill-opacity=".9"/><path d="M2030.3 144.238l35.048 52.098-56.836 12.312" fill="#cb3c33" fill-opacity=".9"/><path d="M2042.715 242.355l-33.649-31.78 56.082-12.15M1959.133 344.996l98.289-3.223-170.8 20.141" fill="#389826" fill-opacity=".9"/><path d="M2032.012 336.008l34.113 3.48-84.938 2.785" fill="#9558b2" fill-opacity=".9"/><path d="M2059.465 6.18l22.148 27.687-37.84 32.305" fill="#389826" fill-opacity=".9"/><path d="M2066.242 287.406l16.028 11.578-46.305 32.055" fill="#9558b2" fill-opacity=".9"/><path d="M2080.078 338.902l-45.281-4.62 48.055-33.27" fill="#4063d8" fill-opacity=".9"/><path d="M2059.2 3.02l15.28 3.734-25.808-5.434" fill="#389826" fill-opacity=".9"/><path d="M2082.563 31.852l-21.16-26.454 27.331 4.41" fill="#4063d8" fill-opacity=".9"/><path d="M2053.836 115.73l38.172 67.036-60.52-40.965" fill="#389826" fill-opacity=".9"/><path d="M2067.383 195.777l-33.68-50.062 59.164 40.047" fill="#4063d8" fill-opacity=".9"/><path d="M2066.371 284.594l-21.039-38.414 47.563 21.949" fill="#389826" fill-opacity=".9"/><path d="M2066.883 199.43l26.273 66.617-48.793-22.52" fill="#cb3c33" fill-opacity=".9"/><path d="M2084.988 299.207l6.473-18.238-8.238 42.363" fill="#9558b2" fill-opacity=".9"/><path d="M2094 187.469v75.27l-25.703-65.173" fill="#389826" fill-opacity=".9"/><path d="M2083.504 297.406l-15.707-11.344 25.308-15.707" fill="#cb3c33" fill-opacity=".9"/><path d="M2054.77 113.012l-11.165-41.871 70.715 42.8" fill="#389826" fill-opacity=".9"/><path d="M2082.621 35.64l33.219 76.883-72.137-43.66" fill="#cb3c33" fill-opacity=".9"/><path d="M2089.973 12.809l23.652 89.546-29.566-68.425" fill="#389826" fill-opacity=".9"/><path d="M2095.219 184.367l-38.106-66.922 61.344 43.684" fill="#cb3c33" fill-opacity=".9"/><path d="M2117.043 115.984l1.867 43.012-61.71-43.945M2096 259.324v-72.91l22.23-22.23" fill="#9558b2" fill-opacity=".9"/></svg>