<svg xmlns="http://www.w3.org/2000/svg" width="2800" height="350pt" viewBox="0 0 2100 350"><path fill="#1a1a33" d="M0 0h2100v350H0z"/><path d="M1.012 262.809l-4.805 14.406 7.805-63.63" fill="#389826" fill-opacity=".85"/><path d="M-5.387 273.77l-5.246-180.223 16.621 87.488" fill="#4063d8" fill-opacity=".85"/><path d="M6.352 172.223L-9.246 90.14l17.238 41.043" fill="#9558b2" fill-opacity=".85"/><path d="M5.738 16.031l6.196 41.59-22.125 20.356" fill="#389826" fill-opacity=".85"/><path d="M7.703 185.926l22.059 61.59L3.105 261.3" fill="#cb3c33" fill-opacity=".85"/><path d="M9.39 129.352L-9.95 83.3l44.212 24.867" fill="#4063d8" fill-opacity=".85"/><path d="M12.664 59.668l21.14 45.95-44.113-24.813" fill="#cb3c33" fill-opacity=".85"/><path d="M30.727 244.27L8.449 182.078l34.344 1.86" fill="#4063d8" fill-opacity=".85"/><path d="M-2.102 352.719l-2.832-64.239 49.121 18.895" fill="#cb3c33" fill-opacity=".85"/><path d="M2.438 264.852l39.523 39.523L-4.75 286.41" fill="#9558b2" fill-opacity=".85"/><path d="M30.34 249.465l13.793 54.254-40.457-40.457M9.945 132.402l36.121 12.965-37.972 33.344" fill="#389826" fill-opacity=".85"/><path d="M43.105 181.95l-33.601-1.817 37.234-32.696M35.512 109.73l10.91 33.641-35.461-12.73" fill="#cb3c33" fill-opacity=".85"/><path d="M45.559 308.832l10.152 30.461L.332 353.137M35.773 105.117L14.277 58.383 56.336 32.21" fill="#389826" fill-opacity=".85"/><path d="M13.766 56.348L7.238 12.516 55.73 30.234" fill="#4063d8" fill-opacity=".85"/><path d="M57.316 28.688L10.281 11.5l53.367-6.332" fill="#389826" fill-opacity=".85"/><path d="M46.715 305.746l-13.848-54.465 45.235 45.235" fill="#4063d8" fill-opacity=".85"/><path d="M57.215 337.48l-9.938-29.812 30.715-9.035" fill="#cb3c33" fill-opacity=".85"/><path d="M44.676 184.73l34.648 25.286-46.824 35.59" fill="#9558b2" fill-opacity=".85"/><path d="M48.637 143.719L37.68 109.938l44.738 21.91" fill="#4063d8" fill-opacity=".85"/><path d="M48.93 145.734l33.093-11.629-36.671 45.618" fill="#389826" fill-opacity=".85"/><path d="M80.098 208.102l-34.66-25.293 38.406-47.774" fill="#4063d8" fill-opacity=".85"/><path d="M56.816 341.078l25.586 16.758-78.511-3.527" fill="#cb3c33" fill-opacity=".85"/><path d="M79.324 300.387l5.48 56.633-26.492-17.356" fill="#9558b2" fill-opacity=".85"/><path d="M58.402 32.262l37.032 51.281-57.926 22.789" fill="#4063d8" fill-opacity=".85"/><path d="M84.328 130.559l-45.851-22.457L95.559 85.64" fill="#cb3c33" fill-opacity=".85"/><path d="M79.484 295.07L32.93 248.516l63.656-17.102" fill="#9558b2" fill-opacity=".85"/><path d="M80.852 211.367l15.363 18.078-60.55 16.266" fill="#4063d8" fill-opacity=".85"/><path d="M65.559 5.773l33.25 27.86-39.54-4.496" fill="#9558b2" fill-opacity=".85"/><path d="M96.148 4.027l4.454 28.496-32.95-27.605" fill="#cb3c33" fill-opacity=".85"/><path d="M96.273 81.285L60.137 31.25l40.77 4.633M85.852 134.898l43.5 60.524L82.07 208.66" fill="#389826" fill-opacity=".85"/><path d="M98.05 228.512l-15.277-17.969 44.93-12.582" fill="#cb3c33" fill-opacity=".85"/><path d="M102.875 34.121L98.402 5.492l40.258 33.996" fill="#4063d8" fill-opacity=".85"/><path d="M102.887 36.145l36.949 5.542L98.27 81.403" fill="#9558b2" fill-opacity=".85"/><path d="M86.8 356.879L81.103 298h68.375" fill="#389826" fill-opacity=".85"/><path d="M98.457 232.16L149.91 296H81.305" fill="#cb3c33" fill-opacity=".85"/><path d="M151.242 299.086l6.637 55.96-69.238 2.845" fill="#4063d8" fill-opacity=".85"/><path d="M141.645 39.39L99.59 3.88l59.808-2.805" fill="#389826" fill-opacity=".85"/><path d="M131.031 194.328L87.56 133.844l72.77 22.683" fill="#cb3c33" fill-opacity=".85"/><path d="M130.883 197.559l29.902 42.05-60.742-10.277" fill="#389826" fill-opacity=".85"/><path d="M151.434 294.703l-51-63.277 61.386 10.39" fill="#4063d8" fill-opacity=".85"/><path d="M97.715 85.27l66.922 20.734-78.235 24.508" fill="#389826" fill-opacity=".85"/><path d="M161.148 154.688l-72.796-22.692 78.472-24.578" fill="#4063d8" fill-opacity=".85"/><path d="M141.621 42.746l24.672 61.68-67.371-20.88M161.219 1.91l32.61 41.926-50.313-3.727" fill="#cb3c33" fill-opacity=".85"/><path d="M168.063 103.465l-24.54-61.348 50.97 3.774" fill="#389826" fill-opacity=".85"/><path d="M163.57 243.277l33.664 41.141-43.949 11.223" fill="#cb3c33" fill-opacity=".85"/><path d="M198.824 283.207l-30.894-37.758 37.757 24.883" fill="#9558b2" fill-opacity=".85"/><path d="M159.86 354.75l-6.583-55.46 54.52 43.241" fill="#cb3c33" fill-opacity=".85"/><path d="M198.215 286.23l10.3 54.317-54.312-43.078M96.922 2l-3.59.113L109.828.43" fill="#389826" fill-opacity=".85"/><path d="M160.871-.996L123.828.742l66.559-8.105" fill="#4063d8" fill-opacity=".85"/><path d="M195.578 42.832L162.766.641l47.816-10.313" fill="#389826" fill-opacity=".85"/><path d="M196.016 47.36l18.62 39.105-44.687 17.687" fill="#cb3c33" fill-opacity=".85"/><path d="M162.152 157.434l52.805 44.32-82.035-6.602" fill="#389826" fill-opacity=".85"/><path d="M163.242 239.617l-30.183-42.449 82.066 6.605" fill="#cb3c33" fill-opacity=".85"/><path d="M206.262 268.316l-41.473-27.336 51.844-35.82" fill="#4063d8" fill-opacity=".85"/><path d="M168.758 108.086l48.77 45.957-54.4.937" fill="#9558b2" fill-opacity=".85"/><path d="M215.082 88.438l3.773 64.109-49.023-46.195" fill="#389826" fill-opacity=".85"/><path d="M217.086 200.926l-52.395-43.973 54.266-.933" fill="#cb3c33" fill-opacity=".85"/><path d="M207.621 270.96l22.992-1.585-29.336 13.477" fill="#389826" fill-opacity=".85"/><path d="M218.25 207.648l16.46 59.438-26.519 1.828" fill="#cb3c33" fill-opacity=".85"/><path d="M216.598 85.926l-17.743-37.258 41.696 34.598" fill="#389826" fill-opacity=".85"/><path d="M220.688 149.637l-3.633-61.746 24.515-2.727M220.848 158.664L244.32 202h-25.277" fill="#9558b2" fill-opacity=".85"/><path d="M235.719 263.242L219.316 204h25.52" fill="#389826" fill-opacity=".85"/><path d="M210.55 340.527l-10.355-54.59 51.77-2.824" fill="#4063d8" fill-opacity=".85"/><path d="M235.867 269.164l15.406 11.984-47.082 2.567" fill="#cb3c33" fill-opacity=".85"/><path d="M242.61 82.375l-43.602-36.18 57.515 3.711M210.012 344.027l39.863 9.137-82.215 1.66" fill="#4063d8" fill-opacity=".85"/><path d="M253.16 284.875l3.77 67.852-45.239-10.364" fill="#9558b2" fill-opacity=".85"/><path d="M242.75 88.023l14.95 78.489-36.442-12.149" fill="#cb3c33" fill-opacity=".85"/><path d="M245.828 200.586l-23.742-43.836 35.617 11.871" fill="#389826" fill-opacity=".85"/><path d="M212.621-9.527l47.102 25.433-62.176 27.32" fill="#4063d8" fill-opacity=".85"/><path d="M257.121 47.941l-56.965-3.675 60.64-26.645M258.496 50.383l26.215 13.558-39.774 18.082" fill="#389826" fill-opacity=".85"/><path d="M262.605 19.324l22.047 42.336-25.574-13.23" fill="#4063d8" fill-opacity=".85"/><path d="M259.703 168.98l32.125-.89-43.726 32.125" fill="#cb3c33" fill-opacity=".85"/><path d="M258.914 352.457l-3.758-67.637 43.215 48.848M246.746 204.738l53.152 37.016-62.644 24.676" fill="#4063d8" fill-opacity=".85"/><path d="M253.977 280.715L238 268.289l58.59-23.082M262.117 14.926L217.47-9.184l84.828 12.5" fill="#389826" fill-opacity=".85"/><path d="M286.79 61.43L263.452 16.62l42.008-12.137" fill="#cb3c33" fill-opacity=".85"/><path d="M294.234 166.02l-33.109.921 50.586-63.464" fill="#9558b2" fill-opacity=".85"/><path d="M259.574 165.676l-15.312-80.387 67.945 14.356" fill="#389826" fill-opacity=".85"/><path d="M286.691 65.238l24.86 32.223-65.367-13.809" fill="#cb3c33" fill-opacity=".85"/><path d="M299.684 332.133l-42.934-48.535 57.867 12.132" fill="#389826" fill-opacity=".85"/><path d="M301.434 243.773l13.187 49.915-58.394-12.243" fill="#cb3c33" fill-opacity=".85"/><path d="M294.672 168.48l21.558 39.368-67.488-5.621" fill="#9558b2" fill-opacity=".85"/><path d="M301.61 240.512l-51.985-36.207 66.84 5.57M315.98 291.016l-12.707-48.106 25.414-1.812" fill="#389826" fill-opacity=".85"/><path d="M317.898 211.504l10.68 27.594-24.922 1.78" fill="#cb3c33" fill-opacity=".85"/><path d="M306.938 1.98l-74.61-10.996 97.387 4.711" fill="#4063d8" fill-opacity=".85"/><path d="M307.234 5.496l30.125 54.598-48.953 2.824" fill="#9558b2" fill-opacity=".85"/><path d="M335.059-3.703l2.746 60.469-29.317-53.141M313.934 97.277l-24.985-32.386 48.121-2.778M330.309 238.027l-10.754-27.78 29.57 4.48M314.719 100.152l40.195 7.477-57.957 56.086" fill="#389826" fill-opacity=".85"/><path d="M338.773 63.164l16.641 42.523-39.75-7.394" fill="#4063d8" fill-opacity=".85"/><path d="M300.25 334.988l50.938-2.425-84.899 18.597" fill="#389826" fill-opacity=".85"/><path d="M316.43 296.59l43.793 33.543-58.703 2.793M350.336 212.887l-30.066-4.555 46.468-41.004" fill="#cb3c33" fill-opacity=".85"/><path d="M318.277 207.422l-21.625-39.488 69.575-2.82" fill="#4063d8" fill-opacity=".85"/><path d="M356.395 108.977l11.382 54.07-70.195 2.848M330.316 242.809l37.532 73.187-50.668-21.582" fill="#cb3c33" fill-opacity=".85"/><path d="M362.676 329.492l-39.774-30.465 45.7 19.465" fill="#389826" fill-opacity=".85"/><path d="M370.656 318.887l10.067-2.012-14.762 10.734" fill="#cb3c33" fill-opacity=".85"/><path d="M351.125 215.434l49.871 43.406-69.266-19.395M384.258 314.129l-12.207 2.441 28.476-46.379" fill="#4063d8" fill-opacity=".85"/><path d="M370.078 315.96l-38.144-74.382 71.52 20.027" fill="#9558b2" fill-opacity=".85"/><path d="M363.121 331.996l29.328-.664-99.32 15.996" fill="#cb3c33" fill-opacity=".85"/><path d="M385.02 316.223l18.843 12.847-37.687.856" fill="#389826" fill-opacity=".85"/><path d="M404.148 266.176l1.797 61.894-19.734-13.457" fill="#cb3c33" fill-opacity=".85"/><path d="M357.559 105.68l-16.84-43.035 65.484 22.453" fill="#389826" fill-opacity=".85"/><path d="M369.512 165.527l37.351 24.274-54.156 22.41" fill="#4063d8" fill-opacity=".85"/><path d="M404.117 258.906l-51.242-44.601 55.035-22.774" fill="#9558b2" fill-opacity=".85"/><path d="M369.71 162.527l-11.25-53.433 52.497 32.808" fill="#389826" fill-opacity=".85"/><path d="M408.102 86.465l3.761 53.648-52.703-32.941M408.14 188.25l-37.132-24.137 40.847-20.422" fill="#cb3c33" fill-opacity=".85"/><path d="M339.902 58.793l-2.859-62.844 74.27-3.808M408.262 83.691l-63.02-21.609 67.52.902" fill="#9558b2" fill-opacity=".85"/><path d="M413-6.7v67.688l-71.5-.953" fill="#cb3c33" fill-opacity=".85"/><path d="M415 60.133v-65.86l30.61 45.454" fill="#4063d8" fill-opacity=".85"/><path d="M434.203-6.07l10.399 40.718-28.59-42.453M413.797 144.48l31.351 36.887-35.039 7.38" fill="#9558b2" fill-opacity=".85"/><path d="M446.297 179.629l-31.086-36.57 35.656.914M414.676 63.59l34.656 21.328-39.098-.89" fill="#389826" fill-opacity=".85"/><path d="M446.215 41.723l5.523 42.324-35.886-22.082M451.02 141.973l-36.11-.926 37.035-51.848" fill="#cb3c33" fill-opacity=".85"/><path d="M413.805 139.156l-3.73-53.133 41.01.934" fill="#4063d8" fill-opacity=".85"/><path d="M407.953 328.367l-1.894-65.332 52.074 38.82" fill="#9558b2" fill-opacity=".85"/><path d="M409.879 192.18l52.21 48.414-56.007 18.984" fill="#cb3c33" fill-opacity=".85"/><path d="M446.297 183.172l15.746 54.648-50.945-47.238" fill="#389826" fill-opacity=".85"/><path d="M459.121 300.098l-51.996-38.762 55.777-18.91" fill="#4063d8" fill-opacity=".85"/><path d="M459.242 303.531l4.57 27.426-53.023-1.828" fill="#389826" fill-opacity=".85"/><path d="M464.914 242.34l19.684 6.265-23.262 48.317" fill="#cb3c33" fill-opacity=".85"/><path d="M465.762 330.477l-4.43-26.575 26.574 15.059" fill="#9558b2" fill-opacity=".85"/><path d="M485.219 251.926l3.68 65.3-27.59-15.636M485.617 246.828l-19.23-6.117 42.828-26.223" fill="#389826" fill-opacity=".85"/><path d="M464.598 239.46l-16.047-55.687 62.297 27.372" fill="#cb3c33" fill-opacity=".85"/><path d="M453.766 84.125l-5.633-43.16 62.863-1.875" fill="#9558b2" fill-opacity=".85"/><path d="M513.043 37.027l-59.664 1.782 60.555-21.371" fill="#389826" fill-opacity=".85"/><path d="M447.7 38.691l-11.298-44.25 75.317 21.657" fill="#4063d8" fill-opacity=".85"/><path d="M452.852 144.21l59.554 13.028L448.2 180.5" fill="#cb3c33" fill-opacity=".85"/><path d="M512.082 209.504l-62.394-27.414 65.23-23.633M406.996 331.012l98.317 16.238-232.708 5.41" fill="#389826" fill-opacity=".85"/><path d="M464.828 332.996l37.297 11.7-79.71-13.165" fill="#9558b2" fill-opacity=".85"/><path d="M489.773 320.246l23.051 25.711-45.215-14.187" fill="#cb3c33" fill-opacity=".85"/><path d="M453.973 87.582l60.554 29.332-61.5 24.598" fill="#9558b2" fill-opacity=".85"/><path d="M515.031 155.766l-59.636-13.047 60.566-24.227M513.46 39.695l16.15 54.137-74.083-8.547" fill="#389826" fill-opacity=".85"/><path d="M516.633 115.71l-57.895-28.042 70.563 8.14M515.906 18.113l26.82 23.364-27.687-4.329" fill="#cb3c33" fill-opacity=".85"/><path d="M530.984 91.45L515.41 39.233l29.317 4.578" fill="#9558b2" fill-opacity=".85"/><path d="M516.04 346.547L492.062 319.8l56.253-5.531" fill="#389826" fill-opacity=".85"/><path d="M490.941 317.902l-3.796-67.343 61.652 61.652" fill="#cb3c33" fill-opacity=".85"/><path d="M516.879 159.21l36.305 34.446-39.098 15.824M517.93 119.848l36.406 47.332-37.316-10.922" fill="#9558b2" fill-opacity=".85"/><path d="M554.172 191.836l-34.485-32.715 36.25 10.61" fill="#cb3c33" fill-opacity=".85"/><path d="M513.316 212.262l50.25 24.195-75.375 10.234" fill="#4063d8" fill-opacity=".85"/><path d="M550.402 310.988l-62.27-62.27 77.598-10.534" fill="#9558b2" fill-opacity=".85"/><path d="M554.336 195.348l11.105 39.793-49.972-24.063M514.883 14.926L441.137-6.277l122.597-5.528" fill="#389826" fill-opacity=".85"/><path d="M545.586 41.316l-28.848-25.129L566.062-10.8" fill="#4063d8" fill-opacity=".85"/><path d="M550.965 314.45l17.187 18.995-48.847 12.664" fill="#9558b2" fill-opacity=".85"/><path d="M557.738 172.32l21.188 37.293-22.883-16.101" fill="#389826" fill-opacity=".85"/><path d="M567.355 234.547l-10.64-38.117 23.933 16.843" fill="#4063d8" fill-opacity=".85"/><path d="M531.219 96.516l49.023 42.671-61.73-22.699" fill="#389826" fill-opacity=".85"/><path d="M557.11 167.504l-37.208-48.371 63.254 23.254" fill="#4063d8" fill-opacity=".85"/><path d="M581.148 209.477l-22.894-40.297 25.64-24.727" fill="#9558b2" fill-opacity=".85"/><path d="M567.277 240.531l19.48 51.024-34.323 19.48" fill="#389826" fill-opacity=".85"/><path d="M569.695 332.172l-17.117-18.918 33.332-18.918M546.707 44.16l41.84 8.367-55.79 39.98" fill="#cb3c33" fill-opacity=".85"/><path d="M567.95-10.14l21.519 60.816-42.102-8.422" fill="#389826" fill-opacity=".85"/><path d="M588.035-17.684l1.785 63.356-20.523-58.004" fill="#9558b2" fill-opacity=".85"/><path d="M515.89 349.004l72.094 17.582-298.925-12.309" fill="#cb3c33" fill-opacity=".85"/><path d="M569.633 335.129l25.683 31.187-75.218-18.347" fill="#389826" fill-opacity=".85"/><path d="M581.953 214.96l24.402 43.376-37.957-21.688" fill="#cb3c33" fill-opacity=".85"/><path d="M588.25 289.848l-19.32-50.594 38.636 22.078" fill="#9558b2" fill-opacity=".85"/><path d="M584.988 140.664l-50.172-43.668 77.118 19.512" fill="#cb3c33" fill-opacity=".85"/><path d="M590.508 53.582l21.914 60.988-79.09-20.011" fill="#389826" fill-opacity=".85"/><path d="M614.027 113.117L592.355 52.82l47.11-6.593" fill="#9558b2" fill-opacity=".85"/><path d="M591.969 50.855l-1.887-66.937 49.023 60.336" fill="#cb3c33" fill-opacity=".85"/><path d="M588.535 293.285l57.086 22.461-73.93 16.844" fill="#4063d8" fill-opacity=".85"/><path d="M646.04 349.29l-44.216 16.241 46.02-46.926" fill="#389826" fill-opacity=".85"/><path d="M598.066 366.504l-26.265-31.89 74.101-16.884M609.027 262.738l37.145 51.075-56.645-22.286M585.95 143.207l67.69 13.348-70.55 54.343" fill="#cb3c33" fill-opacity=".85"/><path d="M613.98 117.363l38.84 36.992-65.66-12.949M640.828 48.262l16.895 63.82-42.235 2.816" fill="#4063d8" fill-opacity=".85"/><path d="M655.148 153.809l-38.808-36.961 41.582-2.774" fill="#9558b2" fill-opacity=".85"/><path d="M609.219 259.352l-25.63-45.563 81.634-11.39" fill="#389826" fill-opacity=".85"/><path d="M655.422 157.707l11.32 42.457-81.14 11.324" fill="#9558b2" fill-opacity=".85"/><path d="M648.73 313.93l-37.605-51.707 55.469 5.64" fill="#389826" fill-opacity=".85"/><path d="M667 203.441v62.454l-55.828-5.68" fill="#9558b2" fill-opacity=".85"/><path d="M641.04 43.465l-48.778-60.04 75.043 30.958" fill="#389826" fill-opacity=".85"/><path d="M668.477 12.703L595.426-17.43l83.097 7.305" fill="#4063d8" fill-opacity=".85"/><path d="M659.512 111.027l-16.696-63.074 41.743 37.102" fill="#9558b2" fill-opacity=".85"/><path d="M668.469 16.078l15.816 66.063-41.867-37.22" fill="#cb3c33" fill-opacity=".85"/><path d="M659.738 116.773l24.219 49.332-26.91-10.761" fill="#4063d8" fill-opacity=".85"/><path d="M685 87.477v76.218l-24.793-50.507M668.32 198.324l-10.84-40.656 27.102 10.844" fill="#389826" fill-opacity=".85"/><path d="M649.855 318.5l37.106 42.535-38.918-11.765M668.316 268.95l22.086 26.69-39.57 18.407" fill="#9558b2" fill-opacity=".85"/><path d="M689.078 360.422l-38.45-44.078 40.325-18.754" fill="#389826" fill-opacity=".85"/><path d="M669 263.445v-61.02l30.508 11.098" fill="#cb3c33" fill-opacity=".85"/><path d="M685.777 170.496l13.621 40.856-29.964-10.895" fill="#9558b2" fill-opacity=".85"/><path d="M691.652 294.012l-21.8-26.344 33.613-6.36" fill="#cb3c33" fill-opacity=".85"/><path d="M700.262 216.125l3.664 43.059-33.899 6.414" fill="#389826" fill-opacity=".85"/><path d="M680.105-8.754l31.45 56.61-41.336-34.145" fill="#cb3c33" fill-opacity=".85"/><path d="M686.523 82.89l-15.855-66.214 42.898 35.437" fill="#389826" fill-opacity=".85"/><path d="M687 165.074V86.242l52.238 11.399" fill="#4063d8" fill-opacity=".85"/><path d="M714.832 53.707L739 95.539l-51.129-11.152" fill="#9558b2" fill-opacity=".85"/><path d="M692.96 297.383l50.095 17.012-51.985 46.312" fill="#cb3c33" fill-opacity=".85"/><path d="M705.309 262.094l36.984 49.93-49.008-16.641M715.2 50.297L682.315-8.891l62.008 27.246" fill="#4063d8" fill-opacity=".85"/><path d="M701.582 211.582l-14.016-42.043 59.797 18.684" fill="#389826" fill-opacity=".85"/><path d="M744.383 311.484l-37.301-50.351 44.762 2.797" fill="#9558b2" fill-opacity=".85"/><path d="M705.922 259.055l-3.7-43.493 48.122 46.27" fill="#cb3c33" fill-opacity=".85"/><path d="M749.063 189.602l2.84 70.953-49.196-47.301" fill="#9558b2" fill-opacity=".85"/><path d="M744.473 315.809l10.257 36.37-61.55 9.329" fill="#389826" fill-opacity=".85"/><path d="M740.832 94.71l-24.164-41.82 41.82-2.788" fill="#cb3c33" fill-opacity=".85"/><path d="M745.715 19.797l12.781 28.3-41.082 2.739" fill="#389826" fill-opacity=".85"/><path d="M741.02 98.605l25.39 31.032-77.105 35.73" fill="#9558b2" fill-opacity=".85"/><path d="M749.344 186.746l-60.574-18.93 77.609-35.96" fill="#4063d8" fill-opacity=".85"/><path d="M753.84 264.105l31.133 3.665-38.461 43.035" fill="#389826" fill-opacity=".85"/><path d="M753.965 262.105l-2.766-69.19 34.133 72.882" fill="#cb3c33" fill-opacity=".85"/><path d="M760.52 50.406l29.46 15.653-46.953 28.539" fill="#9558b2" fill-opacity=".85"/><path d="M767.672 128.023l-25.168-30.765 47.543-28.903" fill="#389826" fill-opacity=".85"/><path d="M768.45 131.926l34.757 36.637-51.668 17.847" fill="#cb3c33" fill-opacity=".85"/><path d="M746.004 16.91L685.035-9.879l116.395 2.77M791.27 64.48l-29.73-15.796 42.737-52.957" fill="#389826" fill-opacity=".85"/><path d="M760.242 47.105l-12.914-28.59 55.344-23.984M792.152 68.445l20.48 39.102-42.823 20.48" fill="#cb3c33" fill-opacity=".85"/><path d="M804.313 166.82l-34.641-36.511 43.066-20.598" fill="#389826" fill-opacity=".85"/><path d="M786.96 264.555l-35.366-75.508 66.906 1.91" fill="#9558b2" fill-opacity=".85"/><path d="M804.621 170.188l13.395 18.753-62.512-1.785" fill="#389826" fill-opacity=".85"/><path d="M788.5 366.676l-30.645-13.93 59.434-50.148" fill="#cb3c33" fill-opacity=".85"/><path d="M756.543 351.234l-10.29-36.464 70.13-14.028" fill="#9558b2" fill-opacity=".85"/><path d="M787.05 268.441l30.888 29.954-70.196 14.039" fill="#cb3c33" fill-opacity=".85"/><path d="M814.191 106.21l-20-38.183 38.18 16.364" fill="#4063d8" fill-opacity=".85"/><path d="M820.215 297.816l-27.738-26.902 41.187 21.016M833.277 82.602L798.16 67.55l37.625 3.344" fill="#389826" fill-opacity=".85"/><path d="M820.383 188.816l-12.403-17.363 27.29 12.402" fill="#4063d8" fill-opacity=".85"/><path d="M806.707-6.363l41.57 26.453-54.797 43.457" fill="#cb3c33" fill-opacity=".85"/><path d="M836.246 68.93l-41.66-3.703L848.28 22.64" fill="#9558b2" fill-opacity=".85"/><path d="M814.586 110.89L849.223 168H806.16" fill="#cb3c33" fill-opacity=".85"/><path d="M837.734 182.781L809.617 170h39.192" fill="#9558b2" fill-opacity=".85"/><path d="M820.316 191.805l39.98 42.836-71.394 30.46" fill="#4063d8" fill-opacity=".85"/><path d="M835.523 290.633l-46.164-23.551 70.66-30.148" fill="#cb3c33" fill-opacity=".85"/><path d="M837.473 185.23l20.906 44.426-36.586-39.199M820.371 300.613l45.656 38.047-75.14 27.582" fill="#389826" fill-opacity=".85"/><path d="M835.64 293.25l27.516 40.41-41.273-34.39" fill="#4063d8" fill-opacity=".85"/><path d="M834.375 85.113l46.492 10.727-64.375 10.73" fill="#9558b2" fill-opacity=".85"/><path d="M850.898 166.902l-35.277-58.16 68.645-11.441" fill="#4063d8" fill-opacity=".85"/><path d="M837.7 71.504l41.1 21.808-43.616-10.066" fill="#cb3c33" fill-opacity=".85"/><path d="M850.273 22.918l33.532 70.785-45.637-24.215M851.3 170.18l29.696 11.027-40.723 1.7" fill="#389826" fill-opacity=".85"/><path d="M881.066 231.129l-17.398 2.61 20.879-46.102" fill="#9558b2" fill-opacity=".85"/><path d="M861.984 232.613l-22.437-47.675 44.871-1.872" fill="#cb3c33" fill-opacity=".85"/><path d="M861.867 237.7l23.547 68.753-48.035-15.066" fill="#389826" fill-opacity=".85"/><path d="M881.074 233.148l4.434 67.41-22.172-64.745M867.957 337.16l-29.512-43.344 47.032 14.754M885.457 99.45l6.457 47.976-38.75 19.375" fill="#cb3c33" fill-opacity=".85"/><path d="M885.254 180.656l-31.746-11.793 38.097-19.047M850.227 18.957L811.055-5.969l89.023 17.805" fill="#9558b2" fill-opacity=".85"/><path d="M868 340.066l41.55 15.356-112.913 10.84" fill="#cb3c33" fill-opacity=".85"/><path d="M886.965 309.973l24.828 44.144-42.305-15.633" fill="#389826" fill-opacity=".85"/><path d="M886.375 94.453l-33.824-71.402 65.765 46.976" fill="#4063d8" fill-opacity=".85"/><path d="M905.242 13.117l13.156 54.512-65.785-46.992" fill="#389826" fill-opacity=".85"/><path d="M893.844 146.777l-6.555-48.695 55.254 37.461" fill="#9558b2" fill-opacity=".85"/><path d="M919.54 71.61l23.405 61.788-55.234-37.445" fill="#389826" fill-opacity=".85"/><path d="M920.344 67.168L907.34 13.289l37.16 7.43M944.543 131.973l-22.734-60.02 29.101 13.64M914.078 354.102l-25.476-45.293 61.332-7.547" fill="#cb3c33" fill-opacity=".85"/><path d="M887.93 306.879l-4.762-72.348 66.637 64.73M951.309 302.797l5.582 49.277-40.91 2.79" fill="#389826" fill-opacity=".85"/><path d="M946.305 21.578l12.203 10.461-34.863 33.117" fill="#9558b2" fill-opacity=".85"/><path d="M951.21 83.527l-29.46-13.812 36.828-34.985M886.914 183.09l70.727 6.601-74.496 40.547" fill="#389826" fill-opacity=".85"/><path d="M893.695 149.586l63.043 38.012-69.535-6.489" fill="#4063d8" fill-opacity=".85"/><path d="M944.313 137.184l14.98 49.617-63.66-38.383" fill="#389826" fill-opacity=".85"/><path d="M951.555 298.172l-66.278-64.383 81.426 18.938" fill="#9558b2" fill-opacity=".85"/><path d="M960.172 190.59l6.68 60.117-82.063-19.086" fill="#cb3c33" fill-opacity=".85"/><path d="M961.621 187.598l-14.156-46.891 30.969 38.93" fill="#4063d8" fill-opacity=".85"/><path d="M968.2 244.727l-6.126-55.13 16.625-7.874" fill="#389826" fill-opacity=".85"/><path d="M979.21 177.402l-31.698-39.851 34.418 7.246" fill="#9558b2" fill-opacity=".85"/><path d="M952.813 86.441l34.257 14.813-40.742 32.41" fill="#389826" fill-opacity=".85"/><path d="M982.156 142.8l-34.87-7.34 40.378-32.12" fill="#cb3c33" fill-opacity=".85"/><path d="M968.633 253.266l21.515 7.172-35.859 35.859" fill="#389826" fill-opacity=".85"/><path d="M979.95 186.395l10.82 72.14-21.645-7.215" fill="#cb3c33" fill-opacity=".85"/><path d="M988.313 368.48l-28.723-15.75 42.617-47.25" fill="#389826" fill-opacity=".85"/><path d="M958.742 350.684l-5.617-49.641 48.7 1.875" fill="#9558b2" fill-opacity=".85"/><path d="M991.504 261.91l11.156 39.04-48.336-1.86M960.762 33.645l44.086 27.203-51.59 22.511" fill="#cb3c33" fill-opacity=".85"/><path d="M988.492 99.691l-33.98-14.695 50.511-22.043" fill="#9558b2" fill-opacity=".85"/><path d="M906.07 10.996L821.238-5.973l176.453 11.88" fill="#cb3c33" fill-opacity=".85"/><path d="M945.996 18.98l-32.086-6.418 86.637-4.812M1006.203 59.332l-44.125-27.223 50.7-24.41" fill="#389826" fill-opacity=".85"/><path d="M960.156 30.816L948.2 20.566l58.07-11.953" fill="#cb3c33" fill-opacity=".85"/><path d="M1007.543 62.234l21.348 7.118-37.36 28.464" fill="#389826" fill-opacity=".85"/><path d="M1014.352 11.148l15.199 56.313-21.453-7.148" fill="#4063d8" fill-opacity=".85"/><path d="M983.918 145.035l46.82 1.836-49.574 31.215" fill="#389826" fill-opacity=".85"/><path d="M989.71 103.129l41.778 41.773-47.343-1.859M1032.027 312.516l-26.53-10.98 27.444-42.079" fill="#9558b2" fill-opacity=".85"/><path d="M1004.36 299.617l-11.067-38.734 38.734-3.692" fill="#389826" fill-opacity=".85"/><path d="M1033.09 255.082l-38.91 3.707 44.465-58.363" fill="#9558b2" fill-opacity=".85"/><path d="M992.637 257.512l-11.418-76.13 57.097 16.18" fill="#389826" fill-opacity=".85"/><path d="M1033.191 147.691l5.641 47.938-56.398-15.98" fill="#4063d8" fill-opacity=".85"/><path d="M1004.535 304.223l34.856 42.394-48.989 21.668" fill="#cb3c33" fill-opacity=".85"/><path d="M1032.148 314.73l6.852 28.262-31.688-38.539" fill="#389826" fill-opacity=".85"/><path d="M1030.723 70.469l15.57 25.644-54.04 3.664" fill="#cb3c33" fill-opacity=".85"/><path d="M1033.504 144.09l-42.242-42.242 55.386-3.754M1013.953 4.996L851.551-5.937l200.66 4.687" fill="#389826" fill-opacity=".85"/><path d="M1031.238 66.04l-15.984-59.231 46.07-7.524" fill="#9558b2" fill-opacity=".85"/><path d="M1034.977 257.344l43.078 13.11-44.016 41.202" fill="#cb3c33" fill-opacity=".85"/><path d="M1040.852 198.516l43.183 20.652-48.816 34.738" fill="#4063d8" fill-opacity=".85"/><path d="M1079.148 268.695l-42.91-13.058 48.504-34.516" fill="#389826" fill-opacity=".85"/><path d="M1041.48 344.738l-7.324-30.207 50.344-25.629" fill="#cb3c33" fill-opacity=".85"/><path d="M1079.703 271.645l6.957 13.914-47.824 24.347" fill="#389826" fill-opacity=".85"/><path d="M1048.629 98.445l42.043 21.489-55.125 24.293M1041.184 348.012l58.543 3.445-103.313 16.356" fill="#4063d8" fill-opacity=".85"/><path d="M1087.633 288.117l19.965 61.797-64.653-3.8M1085.488 217.648l-43.465-20.789 72.758-48.187" fill="#389826" fill-opacity=".85"/><path d="M1040.805 195.27l-5.68-48.27h78.555" fill="#9558b2" fill-opacity=".85"/><path d="M1092.75 121.203L1114.715 145h-75.965" fill="#cb3c33" fill-opacity=".85"/><path d="M1048.223 95.441l-15.762-25.964 80.668-33.38" fill="#9558b2" fill-opacity=".85"/><path d="M1063.438-.535l52.402 33.348-82.89 34.3" fill="#4063d8" fill-opacity=".85"/><path d="M1090.535-5.902l23.95 35.48-48.786-31.043M1092.375 118.559l-42.637-21.793 66.324-60.637" fill="#389826" fill-opacity=".85"/><path d="M1116.973 148.625l22.668 56.668-51.95 12.281" fill="#cb3c33" fill-opacity=".85"/><path d="M1137.035 159.578l2.567 40.238-20.543-51.367" fill="#389826" fill-opacity=".85"/><path d="M1109.598 349.598l-19.493-60.34 50.125 45.488M1118.602 34.527l32.84 19.703-56.297 61.922" fill="#9558b2" fill-opacity=".85"/><path d="M1086.852 220.316l68.996 21.739-74.668 26.465" fill="#cb3c33" fill-opacity=".85"/><path d="M1140.46 207.156l16.59 33.18-67.284-21.2" fill="#389826" fill-opacity=".85"/><path d="M1088.406 284.574l-7.008-14.008 69.168-24.515" fill="#9558b2" fill-opacity=".85"/><path d="M1152.2 52.352l-32.477-19.485L1158.695.391" fill="#389826" fill-opacity=".85"/><path d="M1118.21 31.523l-25.23-37.378 64.477 4.671" fill="#cb3c33" fill-opacity=".85"/><path d="M1141.984 333.637l-48.937-44.407 66.156 28.094" fill="#4063d8" fill-opacity=".85"/><path d="M1158.047 243.766l1.91 71.707-69.789-29.641" fill="#cb3c33" fill-opacity=".85"/><path d="M1117.215 144.758l-21.985-23.817 70.528-1.832" fill="#389826" fill-opacity=".85"/><path d="M1152.504 56.031l16.203 61.004-73.39 1.906" fill="#4063d8" fill-opacity=".85"/><path d="M1137.762 157.676l-18.75-11.606 47.328-25.004M1141.832 203.34l-2.781-43.55 45.406-10.196" fill="#cb3c33" fill-opacity=".85"/><path d="M1169.867 119.793l15.598 27.527-44.957 10.094" fill="#9558b2" fill-opacity=".85"/><path d="M1161.863 311.79l-1.836-68.716 26.57 1.832M1160.809-.41l35.379 19.55-41.895 32.587" fill="#4063d8" fill-opacity=".85"/><path d="M1170.453 115.805l-15.863-59.711 42.918 25.191" fill="#9558b2" fill-opacity=".85"/><path d="M1187.691 247.719l11.153 58.547-36.242 9.293M1142.172 336.027l50.402 5.88-78.12 7.562" fill="#cb3c33" fill-opacity=".85"/><path d="M1161.133 318.254l36.449 22.223-53.34-6.223" fill="#389826" fill-opacity=".85"/><path d="M1199.07 308.27l1.825 31.882-37.352-22.773M1197.5 20.656l5.234 15.711-44.511 14.84" fill="#9558b2" fill-opacity=".85"/><path d="M1198.18 79.36l-42.774-25.106 47.422-15.809" fill="#389826" fill-opacity=".85"/><path d="M1187.375 242.953l-25.766-1.777 41.758-33.762" fill="#9558b2" fill-opacity=".85"/><path d="M1159.34 240.441l-16.746-33.488 60.465-1.863" fill="#cb3c33" fill-opacity=".85"/><path d="M1186.645 150.059l17.972 52.984-61.496 1.89" fill="#4063d8" fill-opacity=".85"/><path d="M1187.242 146.398l-15.734-27.761 62.933-16.66" fill="#389826" fill-opacity=".85"/><path d="M1199.29 82.254l35.855 17.469-62.52 16.547" fill="#cb3c33" fill-opacity=".85"/><path d="M1206.648 205h35.188l-51.43 36.09" fill="#389826" fill-opacity=".85"/><path d="M1206.715 203l-17.442-51.418 53.25 51.418" fill="#cb3c33" fill-opacity=".85"/><path d="M1197.914 17.809l-35.016-19.352 81.09-15.664" fill="#9558b2" fill-opacity=".85"/><path d="M1204.36 34.922l-5.184-15.559 43.219-32.847" fill="#4063d8" fill-opacity=".85"/><path d="M1237.68 101.676l12.914 27.676-59.965 16.605" fill="#9558b2" fill-opacity=".85"/><path d="M1244.2 201.836l-55.247-53.34 61.914-17.144" fill="#389826" fill-opacity=".85"/><path d="M1202.945 340.98l-1.836-32.101 49.528 31.187" fill="#cb3c33" fill-opacity=".85"/><path d="M1204.824 38.61l53.309 29.925-57.985 11.223" fill="#4063d8" fill-opacity=".85"/><path d="M1237.691 98.738l-35.562-17.324 56.535-10.941M1253.273 339.36l-50.27-31.65 56.786-5.585" fill="#389826" fill-opacity=".85"/><path d="M1260.113 300.082l-56.14 5.523 60.742-39.574" fill="#cb3c33" fill-opacity=".85"/><path d="M1200.703 305.348l-11.426-59.989 74.27 19.043" fill="#389826" fill-opacity=".85"/><path d="M1244.492 205.578l19.946 56.988-74.086-18.996" fill="#9558b2" fill-opacity=".85"/><path d="M1247.86-17.203l30.417 54.18-72.242-.95" fill="#cb3c33" fill-opacity=".85"/><path d="M1260.648 67.656l-52.734-29.605 70.313.926" fill="#389826" fill-opacity=".85"/><path d="M1252.637 129l-12.157-26.05 37.34 26.05M1252.68 133.45l30.86 58.913-37.407 10.29" fill="#cb3c33" fill-opacity=".85"/><path d="M1280.063 131l3.64 57.371-30.05-57.371M1260.988 70.695l28.664 39.758-49.93-11.094" fill="#9558b2" fill-opacity=".85"/><path d="M1280.7 128.57l-37.981-26.496 47.699 10.598" fill="#4063d8" fill-opacity=".85"/><path d="M1279.445 40.82l10.89 67.16-28.136-39.023" fill="#cb3c33" fill-opacity=".85"/><path d="M1279.75 35.508l-29.957-53.36 45.871 3.747" fill="#389826" fill-opacity=".85"/><path d="M1266.55 262.547l-19.527-55.79 51.141 38.122" fill="#cb3c33" fill-opacity=".85"/><path d="M1284.313 194.227l13.902 48.195-50.977-38M1266.781 265.695l31.028 20.078-35.59 13.688" fill="#4063d8" fill-opacity=".85"/><path d="M1299 246.703v37.457l-31.063-20.098M1201.996 343.004l93.496 9.672-168.453-2.418" fill="#389826" fill-opacity=".85"/><path d="M1253.91 342l43.766 8.89-79.328-8.202" fill="#9558b2" fill-opacity=".85"/><path d="M1261.668 302.984l53.047 49.329-59.563-12.098" fill="#cb3c33" fill-opacity=".85"/><path d="M1299.32 287.332l16.828 63.582-53.293-49.555" fill="#9558b2" fill-opacity=".85"/><path d="M1301 283.754V246.57l27.207 12.696" fill="#cb3c33" fill-opacity=".85"/><path d="M1329.129 257.488l-27.371-12.77 31.02-29.195" fill="#389826" fill-opacity=".85"/><path d="M1300.508 243.148l-13.977-48.441 45.653 18.633M1292.762 110.438l-11.43-70.473 66.664 40" fill="#9558b2" fill-opacity=".85"/><path d="M1329.898 260.438l22.864 27.437-50.305-2.742" fill="#389826" fill-opacity=".85"/><path d="M1333.406 211.68l-46.164-18.844 66.895-39.57" fill="#cb3c33" fill-opacity=".85"/><path d="M1285.895 191.309l-3.81-59.965 71.392 19.988" fill="#389826" fill-opacity=".85"/><path d="M1292.332 113.375l56.961 34.707-66.75-18.687" fill="#cb3c33" fill-opacity=".85"/><path d="M1349.133 81.621l5.703 67.5-60.844-37.078M1318.637 352.492l-16.89-63.797 53.48 43.157" fill="#389826" fill-opacity=".85"/><path d="M1354.043 289.95l1.855 39.874-52.859-42.656M1297.68-13.84l60.257 12.238-76.265 37.66" fill="#cb3c33" fill-opacity=".85"/><path d="M1349.578 78.582l-65.586-39.355 82.453 4.687" fill="#389826" fill-opacity=".85"/><path d="M1360.223-.5l6.597 42.43-82.976-4.711" fill="#9558b2" fill-opacity=".85"/><path d="M1368.434 39.29l-6.29-40.45 24.266-3.594" fill="#4063d8" fill-opacity=".85"/><path d="M1356.621 152.234l33.371 10.2-53.762 47.273" fill="#389826" fill-opacity=".85"/><path d="M1357.156 333.059l30.852 6.855-64.27 11.996" fill="#cb3c33" fill-opacity=".85"/><path d="M1392.496 338.863l-32.191-7.152 47.39-19.672" fill="#9558b2" fill-opacity=".85"/><path d="M1357.934 330.531l-1.864-40.05 51.227 19.558" fill="#4063d8" fill-opacity=".85"/><path d="M1368.625 44h43.547l-59.875 33.566" fill="#cb3c33" fill-opacity=".85"/><path d="M1388.148-3.723L1414.278 42h-44.79" fill="#389826" fill-opacity=".85"/><path d="M1334.852 214.742l77.265 49.938-81.035-6.594" fill="#cb3c33" fill-opacity=".85"/><path d="M1355.313 287.813l-23.02-27.622 79.187 6.446" fill="#9558b2" fill-opacity=".85"/><path d="M1409.18 308.617l-51.36-19.61 56.961-21.48" fill="#cb3c33" fill-opacity=".85"/><path d="M1391.504 160.805l-33.04-10.098 55.985-33.039" fill="#9558b2" fill-opacity=".85"/><path d="M1356.863 149.328l-5.715-67.598 63.793 33.325" fill="#4063d8" fill-opacity=".85"/><path d="M1415.023 44.695l.954 68.64-63.875-33.366" fill="#389826" fill-opacity=".85"/><path d="M1391.984 163.344l23.094 21.25-76.672 25.863" fill="#cb3c33" fill-opacity=".85"/><path d="M1415.023 264.176l-78.738-50.89 79.7-26.888" fill="#389826" fill-opacity=".85"/><path d="M1417.336 116.5l17.969 13.477-40.434 28.753" fill="#cb3c33" fill-opacity=".85"/><path d="M1416.574 183.25l-22.988-21.148 41.379-29.426M1436.34 128.254l-17.64-13.227 23.812-16.757" fill="#389826" fill-opacity=".85"/><path d="M1417.973 113.094l-.914-65.95 25.644 48.544" fill="#cb3c33" fill-opacity=".85"/><path d="M1416.277 41.469l-25.96-45.426 53.773 22.25" fill="#9558b2" fill-opacity=".85"/><path d="M1417.98 186.438l29.649 11.117-30.574 63.918" fill="#cb3c33" fill-opacity=".85"/><path d="M1436.672 133.832l11.035 61.613-29.43-11.035" fill="#9558b2" fill-opacity=".85"/><path d="M1416.766 267.793l30.332 22.059-35.848 18.382" fill="#389826" fill-opacity=".85"/><path d="M1444.113 94.078l-25.586-48.433 42.035 24.671" fill="#9558b2" fill-opacity=".85"/><path d="M1445.484 19.73l14.805 48.106-42.555-24.977M1410.36 311.398l50.769 31.387-66.465-3.695" fill="#389826" fill-opacity=".85"/><path d="M1448.383 291.441l14.914 50.329-51.266-31.688" fill="#cb3c33" fill-opacity=".85"/><path d="M1448.754 199.832l17.934 64.191-49.086.946" fill="#9558b2" fill-opacity=".85"/><path d="M1448.797 288.617l-29.8-21.676 46.956-.902" fill="#cb3c33" fill-opacity=".85"/><path d="M1449.629 194.84l-11.238-62.738 43.074 28.09" fill="#389826" fill-opacity=".85"/><path d="M1393.035 341.012l80.777 9.254-143.882 2.523" fill="#4063d8" fill-opacity=".85"/><path d="M1464.828 344.992l12.606 3.676-50.414-5.777M1462.574 68.465l-14.707-47.8 41.367 31.253" fill="#cb3c33" fill-opacity=".85"/><path d="M1444.82 96.984l42.684-.91-49.043 31.785" fill="#9558b2" fill-opacity=".85"/><path d="M1482.203 158.285l-43.367-28.281 50.91-33" fill="#4063d8" fill-opacity=".85"/><path d="M1462.188 71.484l26.183 22.57-42.434.903" fill="#cb3c33" fill-opacity=".85"/><path d="M1490 53.797v39.02l-26.316-22.684M1488.184 349.719l-21.555-6.285 28.742-40.418" fill="#389826" fill-opacity=".85"/><path d="M1465.375 341.746l-14.953-50.46 44.855 8.41" fill="#4063d8" fill-opacity=".85"/><path d="M1468.043 266.594l26.36 30.902-43.626-8.18" fill="#389826" fill-opacity=".85"/><path d="M1468.504 263.082l-17.758-63.547 46.727 34.578" fill="#4063d8" fill-opacity=".85"/><path d="M1496.082 296.379l-26.723-31.324 28.563-28.563" fill="#cb3c33" fill-opacity=".85"/><path d="M1482.996 161.48l19.14 20.961-50.124 12.762" fill="#9558b2" fill-opacity=".85"/><path d="M1498.176 232.148l-46.887-34.699 51.578-13.129M1446.031 16.93l-52.789-21.844 110.13 1.82" fill="#cb3c33" fill-opacity=".85"/><path d="M1490.48 50.352l-42.386-32.024 59.34-20.723M1504.746 185.637l35.274 46.41-39.915.926" fill="#9558b2" fill-opacity=".85"/><path d="M1499.918 236.664l42.277 50.73-44.156 10.336" fill="#389826" fill-opacity=".85"/><path d="M1541.035 234.023l1.86 51.086-41.801-50.156" fill="#4063d8" fill-opacity=".85"/><path d="M1497.66 301.273l45.988 52.559-53.496-3.754" fill="#9558b2" fill-opacity=".85"/><path d="M1543.035 289.254l1.883 62.988-46.07-52.648" fill="#cb3c33" fill-opacity=".85"/><path d="M1491.871 96.113l53.816 6.61-61.37 54.761" fill="#389826" fill-opacity=".85"/><path d="M1492 94.117v-39.91l52.902 46.406" fill="#cb3c33" fill-opacity=".85"/><path d="M1541.414 230.578l-35.21-46.332 42.624 4.633M1504.195 181.73l-19.144-20.964 69.281-8.207" fill="#389826" fill-opacity=".85"/><path d="M1547.398 103.879l10.383 46.258-71.75 8.496M1549.234 186.91l-42.101-4.574 50.34-29.29" fill="#cb3c33" fill-opacity=".85"/><path d="M1509.656-2.773l52.711 15.062-69.652 37.648M1547.664 100.375L1494.02 53.32l72.468 7.528" fill="#4063d8" fill-opacity=".85"/><path d="M1564.098 13.625l2.832 45.258-72.606-7.543" fill="#cb3c33" fill-opacity=".85"/><path d="M1546.969 354l-1.844-61.793L1578.328 354" fill="#389826" fill-opacity=".85"/><path d="M1564.734 10.883l-50.242-14.356 72.672-6.277" fill="#cb3c33" fill-opacity=".85"/><path d="M1544.914 285.602l-1.871-51.465 45.852 5.613" fill="#389826" fill-opacity=".85"/><path d="M1550.598 190.34l38.082 47.367-45.512-5.57" fill="#cb3c33" fill-opacity=".85"/><path d="M1559.512 148.719l-10.27-45.742 46.676-.934" fill="#389826" fill-opacity=".85"/><path d="M1568.184 61.941l27.875 38.098-46.461.93" fill="#cb3c33" fill-opacity=".85"/><path d="M1559.734 152.207l37.504 9.148-45.734 24.696" fill="#389826" fill-opacity=".85"/><path d="M1597.094 103.79l1.863 55.925-38.219-9.32" fill="#cb3c33" fill-opacity=".85"/><path d="M1568.883 58.09l-2.774-44.356 36.04 19.407" fill="#4063d8" fill-opacity=".85"/><path d="M1589.523-9.203l12.774 40.152-35.586-19.164" fill="#9558b2" fill-opacity=".85"/><path d="M1590.559 236.855L1552 188.895l52.664-2.82" fill="#389826" fill-opacity=".85"/><path d="M1599.344 162.492l5.39 21.574-50.34 2.696" fill="#cb3c33" fill-opacity=".85"/><path d="M1580.164 353.195l-34.133-63.527 68.266 20.86" fill="#9558b2" fill-opacity=".85"/><path d="M1590.598 240.863l23.8 67.602-68.55-20.945" fill="#cb3c33" fill-opacity=".85"/><path d="M1598.012 99.324l-28.125-38.441 60.004-3.75" fill="#9558b2" fill-opacity=".85"/><path d="M1603.973 34.27l25.43 20.89-58.126 3.633M1615.762 311.895l23.554 51.816-57.468-9.422" fill="#389826" fill-opacity=".85"/><path d="M1639.016 314.852l.89 45.324-22.218-48.88" fill="#cb3c33" fill-opacity=".85"/><path d="M1606.645 186.41l33.402 15.774-47.317 34.324" fill="#4063d8" fill-opacity=".85"/><path d="M1639.086 312.836l-21.684-3.617 27.106-65.961" fill="#9558b2" fill-opacity=".85"/><path d="M1616.07 307.195l-23.675-67.246 52.09-1.894" fill="#389826" fill-opacity=".85"/><path d="M1641.2 203.816l3.683 32.223-50.637 1.844" fill="#9558b2" fill-opacity=".85"/><path d="M1631.805 54.547l-25.676-21.09 50.437-13.758" fill="#cb3c33" fill-opacity=".85"/><path d="M1604.664 31.781l-13.055-41.02 64.329 27.036" fill="#389826" fill-opacity=".85"/><path d="M1641.492 200.656l-33.387-15.77 54.72-33.386" fill="#cb3c33" fill-opacity=".85"/><path d="M1606.64 183.438l-5.413-21.649 58.632-10.824" fill="#9558b2" fill-opacity=".85"/><path d="M1600.96 159.805l-1.894-56.809 63.442 45.45M1631.957 57.715l32.05 47.137-64.1-4.715" fill="#389826" fill-opacity=".85"/><path d="M1664.043 147.086l-62.57-44.828 63.504 4.668" fill="#4063d8" fill-opacity=".85"/><path d="M1658.676 20.184l19.594 58.789-44.79-23.328" fill="#389826" fill-opacity=".85"/><path d="M1665.918 104.102l-30.86-45.38 43.567 22.688" fill="#cb3c33" fill-opacity=".85"/><path d="M1646.906 238.242l35.485 8.406-41.086 63.497" fill="#4063d8" fill-opacity=".85"/><path d="M1646.914 236.188l-3.582-31.344 37.613 39.406M1680.488 79.3l-18.687-56.054 33.812 43.598" fill="#cb3c33" fill-opacity=".85"/><path d="M1665.578 150.18l32.168 8.273-53.309 40.442" fill="#4063d8" fill-opacity=".85"/><path d="M1666.926 109.242l30.828 47.149-31.734-8.16" fill="#9558b2" fill-opacity=".85"/><path d="M1679.656 83.66l17.844 68.688-30.332-46.387" fill="#4063d8" fill-opacity=".85"/><path d="M1658.824 16.844L1594.32-10.27l104.703-6.543" fill="#cb3c33" fill-opacity=".85"/><path d="M1696.156 64.281l-35.777-46.133 40.488-33.894" fill="#389826" fill-opacity=".85"/><path d="M1641.98 364l-.937-47.91 61.062 47.91" fill="#4063d8" fill-opacity=".85"/><path d="M1683.977 244.527l-38.915-40.77 62.075 14.825" fill="#389826" fill-opacity=".85"/><path d="M1699.262 159.816l8.531 56.868-63.504-15.164M1684.156 247.598l31.125 32.066-72.625 32.07" fill="#cb3c33" fill-opacity=".85"/><path d="M1704.254 363.14l-62.324-48.898 73.828-32.601" fill="#389826" fill-opacity=".85"/><path d="M1702.75-13.7l32.781 76.805-37.465 2.813" fill="#cb3c33" fill-opacity=".85"/><path d="M1708.98 219.523l31.383 36.922-54.457-11.078" fill="#4063d8" fill-opacity=".85"/><path d="M1717.066 278.633l-30.097-31.008 53.812 10.945" fill="#389826" fill-opacity=".85"/><path d="M1736.438 60.137l-32.86-76.989 41.313 3.754M1717.719 282.055l33.867 31.988-45.156 47.977" fill="#4063d8" fill-opacity=".85"/><path d="M1731.313 360.09l-23.61 3.5 41.969-44.598" fill="#cb3c33" fill-opacity=".85"/><path d="M1742.32 259.883l9.164 51.308-32.984-31.152" fill="#9558b2" fill-opacity=".85"/><path d="M1742.68 256.078l-31.707-37.3 48.488-5.594" fill="#389826" fill-opacity=".85"/><path d="M1709.844 216.895l-8.446-56.325 57.262 50.692" fill="#9558b2" fill-opacity=".85"/><path d="M1756.07 149.18l3.782 60.468-57.637-51.023" fill="#4063d8" fill-opacity=".85"/><path d="M1697.117 68.2L1754.32 99l-72.164-18.48" fill="#9558b2" fill-opacity=".85"/><path d="M1700.555 156.152l-19.16-73.761 78.55 20.117" fill="#389826" fill-opacity=".85"/><path d="M1736.488 65.043l22.5 34.2-58.504-31.5" fill="#4063d8" fill-opacity=".85"/><path d="M1756.086 147.145l-52.84 9.27 57.477-51.915M1753.668 312.043L1744.371 260l39.965 24.16M1761.777 208.379l-3.699-59.137 31.418 6.469" fill="#cb3c33" fill-opacity=".85"/><path d="M1762.648 105.273l26.438 48.313-30.992-6.383" fill="#389826" fill-opacity=".85"/><path d="M1762.406 100.797l-22.582-34.324 50.582 24.386" fill="#cb3c33" fill-opacity=".85"/><path d="M1790.113 151.3l-26.672-48.75 28.512-10.116" fill="#9558b2" fill-opacity=".85"/><path d="M1753.297 315.785l38.504 41.32-58.223 2.817" fill="#389826" fill-opacity=".85"/><path d="M1785.219 286.063l7.465 69.058-38.262-41.062" fill="#4063d8" fill-opacity=".85"/><path d="M1746.82-12.375l49.399 28.504-57.95 45.601" fill="#cb3c33" fill-opacity=".85"/><path d="M1792.102 89.457l-53.223-25.66 57.973-45.621M1790.484 158.125l6.399 40.207-33.813 11.879" fill="#389826" fill-opacity=".85"/><path d="M1761.297 213.98l36.539 45.903-53.399-2.809" fill="#cb3c33" fill-opacity=".85"/><path d="M1785.664 282.629l-38.734-23.422 51.343 2.703" fill="#389826" fill-opacity=".85"/><path d="M1797.043 200.395l1.86 57.62-36.247-45.538M1798.875 17.906l17.902 13.426-22.379 53.711" fill="#4063d8" fill-opacity=".85"/><path d="M1800.93 258.762l-1.848-57.266 30.48 30.48M1793.895 94.379l38.238 62.488-40.102-2.797" fill="#389826" fill-opacity=".85"/><path d="M1798.652 196.742l-6.468-40.656 39.734 2.77" fill="#cb3c33" fill-opacity=".85"/><path d="M1797.941 14.813l-48.058-27.727 84.101 1.848" fill="#4063d8" fill-opacity=".85"/><path d="M1817.594 29.445L1799.69 16.02l34.91-25.067M1794.762 355.738l-7.602-70.324 57.016 18.059" fill="#9558b2" fill-opacity=".85"/><path d="M1800.223 262.559l41.746 38.117-54.453-17.246" fill="#4063d8" fill-opacity=".85"/><path d="M1830.387 233.941l13.992 66.223-42.906-39.172M1831.07 230.656l-29.578-29.578 48.403 14.34" fill="#9558b2" fill-opacity=".85"/><path d="M1833.582 159.992l16.898 53.516-50.699-15.024" fill="#389826" fill-opacity=".85"/><path d="M1837.016-9.563l20.332 44.352-37.887-4.617" fill="#cb3c33" fill-opacity=".85"/><path d="M1845.473 305.012l14.222 56.886-63.523-4.738" fill="#389826" fill-opacity=".85"/><path d="M1818.195 33.129l42.785 65.601-66.554-8.554" fill="#9558b2" fill-opacity=".85"/><path d="M1858.055 36.89l3.71 59.387-41.753-64.023M1833.91 155.941l-38.969-63.683 66.536 8.555" fill="#4063d8" fill-opacity=".85"/><path d="M1852.488 213.223l-16.652-52.727 42.555 29.602" fill="#cb3c33" fill-opacity=".85"/><path d="M1861.79 362.04l-13.071-52.294 30.504 53.164" fill="#4063d8" fill-opacity=".85"/><path d="M1846.586 300.934l-14.152-66.997 50.953 28.31" fill="#389826" fill-opacity=".85"/><path d="M1851.797 216.45l29.883 42.562-48.899-27.168" fill="#4063d8" fill-opacity=".85"/><path d="M1879.145 192.105l4.609 66.38-30.426-43.333M1880.523 361.16l-32.925-57.383 45.156-6.586" fill="#389826" fill-opacity=".85"/><path d="M1884.492 263.984l8.254 31.188-44.027 6.422" fill="#9558b2" fill-opacity=".85"/><path d="M1863.816 97.047l-3.714-59.48 34.386 14.867" fill="#cb3c33" fill-opacity=".85"/><path d="M1863.184 101.871l32.062 41.496-59.41 13.2" fill="#9558b2" fill-opacity=".85"/><path d="M1879.512 188.441l-43.07-29.96 58.984-13.106M1895.168 50.55l-34.387-14.87 40.89-39.032" fill="#389826" fill-opacity=".85"/><path d="M1859.324 34.309l-20.695-45.157 62.09 5.645" fill="#4063d8" fill-opacity=".85"/><path d="M1895.738 54.145l18.762 49.71-49.71-4.69" fill="#389826" fill-opacity=".85"/><path d="M1896.805 142.113l-31.606-40.902 49.27 4.648M1894.531 298.547l34.856 50.867-47.102 13.188" fill="#cb3c33" fill-opacity=".85"/><path d="M1903.672-3.215l26.816 39.762-33.289 13.871" fill="#4063d8" fill-opacity=".85"/><path d="M1915.777 101.578l-18.5-49.027 33.301-13.875" fill="#9558b2" fill-opacity=".85"/><path d="M1885.895 260.434l-4.75-68.375 57.93 41.785" fill="#4063d8" fill-opacity=".85"/><path d="M1897.664 145.086l46.309 5.559-62.051 37.042" fill="#cb3c33" fill-opacity=".85"/><path d="M1916.148 106.977l28.77 41.765-46.402-5.566" fill="#389826" fill-opacity=".85"/><path d="M1930.723 347.828l-35.078-51.195 58.78-14.223" fill="#4063d8" fill-opacity=".85"/><path d="M1894.715 294.797l-8.305-31.387 65.54 17.543" fill="#cb3c33" fill-opacity=".85"/><path d="M1940.402 235.418l14.09 44.144-66.687-17.847" fill="#389826" fill-opacity=".85"/><path d="M1932.043 35.277l-26.984-40.011 52.109 6.511" fill="#9558b2" fill-opacity=".85"/><path d="M1932.262 40.246l32.027 77.234-47.098-13.183" fill="#389826" fill-opacity=".85"/><path d="M1946.95 148.168l-28.56-41.461 46.067 12.898M1940.855 232.664l-56.761-40.941 80.953 13.957" fill="#cb3c33" fill-opacity=".85"/><path d="M1946.473 151.48l19 52.243-82.641-14.25M1959.098 2.54l27.722 28.647-52.675 4.622" fill="#389826" fill-opacity=".85"/><path d="M1965.79 115.883l-32.345-78.004 54.223-4.758" fill="#cb3c33" fill-opacity=".85"/><path d="M1956.598 279.582l-13.868-43.45 47.149 26.81" fill="#9558b2" fill-opacity=".85"/><path d="M1966.7 206.832l23.202 53.824-47.328-26.914M1956.434 282.738l38.793 35.008-62.45 30.281" fill="#389826" fill-opacity=".85"/><path d="M1991.137 264.55l4.636 50.997-38.015-34.309" fill="#cb3c33" fill-opacity=".85"/><path d="M1967.574 203.648l-18.605-51.164 53.953 35.352" fill="#4063d8" fill-opacity=".85"/><path d="M1991.59 259.52l-23.281-54.008 35.386-15.832" fill="#cb3c33" fill-opacity=".85"/><path d="M1988.922 36.207l16.871 74.984-38.43 6.563M1996.523 319.344L2010.426 349h-75.07M1966.438 120.2l43.832 14.609-61.184 13.699" fill="#9558b2" fill-opacity=".85"/><path d="M2004.27 186.324l-54.743-35.863 63.239-14.16" fill="#cb3c33" fill-opacity=".85"/><path d="M2006.3 113.133l6.18 20.305-42.375-14.125" fill="#389826" fill-opacity=".85"/><path d="M1988.832 30.39l-27.914-28.847 54.898-13.957" fill="#cb3c33" fill-opacity=".85"/><path d="M2014.656 137.11l31.606 32.535-39.973 16.73" fill="#389826" fill-opacity=".85"/><path d="M2045.156 360.64l-31.644-11.167 40.953-65.153" fill="#9558b2" fill-opacity=".85"/><path d="M2012.129 347.918l-13.852-29.55 54.48-35.09" fill="#389826" fill-opacity=".85"/><path d="M1997.848 316.266l-4.723-51.934 60.43 16.055" fill="#9558b2" fill-opacity=".85"/><path d="M2007.477 109.559l-17.207-76.465 66.91 4.777" fill="#4063d8" fill-opacity=".85"/><path d="M2018.098-12.281l38.687 48.12-66.05-4.718" fill="#389826" fill-opacity=".85"/><path d="M2005.563 190.617l51.453 76.23-63.844-4.761" fill="#4063d8" fill-opacity=".85"/><path d="M2055.277 278.773l-52.609-13.972 55.074 4.11" fill="#389826" fill-opacity=".85"/><path d="M2058.172 34.375l-36.586-45.512 38.371 18.742" fill="#cb3c33" fill-opacity=".85"/><path d="M2047.46 168.008l-31.757-32.688 44.832-20.55" fill="#4063d8" fill-opacity=".85"/><path d="M2014.625 133.613l-6.27-20.59 49.239.899" fill="#cb3c33" fill-opacity=".85"/><path d="M2058.117 40.027l2.844 71.953-52.074-.945" fill="#389826" fill-opacity=".85"/><path d="M2047.703 171.207l17.973 21.566-56.61-5.39" fill="#cb3c33" fill-opacity=".85"/><path d="M2058.332 265.223l-51.316-76.028 59.867 5.703" fill="#9558b2" fill-opacity=".85"/><path d="M2062.191 116.418l16.485 44.883-29.309 7.328" fill="#cb3c33" fill-opacity=".85"/><path d="M2067.668 192.04l-17.879-21.458 28.606-7.148" fill="#4063d8" fill-opacity=".85"/><path d="M2068.297 199.84l10.605 46.844-18.558 18.558" fill="#389826" fill-opacity=".85"/><path d="M2060.797 5.79l-38.934-19.017 61.57-3.62" fill="#9558b2" fill-opacity=".85"/><path d="M2056.668 282.785l34.902 51.883-44.336 25.469M2080.02 164.797l16.136 41.238-26.894-12.55" fill="#cb3c33" fill-opacity=".85"/><path d="M2080.324 243.91l-10.898-48.14 27.25 12.714" fill="#9558b2" fill-opacity=".85"/><path d="M2059.633 269.586l33.297 21.117-35.73-11.371" fill="#cb3c33" fill-opacity=".85"/><path d="M2079.66 248.754l18.16 42.68-37.23-23.61" fill="#9558b2" fill-opacity=".85"/><path d="M2092.434 332.367l-34-50.543 40.433 12.863" fill="#389826" fill-opacity=".85"/><path d="M2097.102 212.336l1.777 76.476-17.785-41.796" fill="#cb3c33" fill-opacity=".85"/><path d="M2061.836 9.5l44.871 52.055-46.668-25.13" fill="#9558b2" fill-opacity=".85"/><path d="M2085.523-16.11l23.164 76.895-46.324-53.734" fill="#389826" fill-opacity=".85"/><path d="M2062.91 110.707l-2.844-71.996 49.262 26.527" fill="#cb3c33" fill-opacity=".85"/><path d="M2100.547 274.426l-1.543-66.352 12.344-70.207" fill="#389826" fill-opacity=".85"/><path d="M2080.309 159.934l-16.832-45.817 48.62 3.738" fill="#9558b2" fill-opacity=".85"/><path d="M2110.129 67.254l2.809 48.66-48.665-3.742" fill="#389826" fill-opacity=".85"/><path d="M2097.633 204.316l-16.496-42.16 31.16-41.242" fill="#4063d8" fill-opacity=".85"/></svg>