<svg xmlns="http://www.w3.org/2000/svg" width="2800" height="350pt" viewBox="0 0 2100 350"><path fill="#1a1a33" d="M0 0h2100v350H0z"/><path d="M-4.379 73.277l10.36 45.758-18.993 120" fill="#cb3c33" fill-opacity=".4"/><path d="M5.004 207.793l-17.723 42.195 18.567-117.3" fill="#4063d8" fill-opacity=".4"/><path d="M7.898 128.055l5.086 23.98-5.812 40.692" fill="#389826" fill-opacity=".4"/><path d="M.637 332.098l-16.34-28.375 44.715 33.535" fill="#4063d8" fill-opacity=".4"/><path d="M-14.082 258.918l47.973-4.613-51.664 43.36" fill="#389826" fill-opacity=".4"/><path d="M6.215 210.074l28.996 42.094-48.64 4.676M14.71 150.527l-6.362-30 39.086 13.637" fill="#cb3c33" fill-opacity=".4"/><path d="M4.688 4.281l45.374 51.043-53.878 9.453" fill="#389826" fill-opacity=".4"/><path d="M14.691 154.223l46.13 49.89-53.66 2.825" fill="#cb3c33" fill-opacity=".4"/><path d="M49.258 135.488l12.137 66.305-45.758-49.492" fill="#9558b2" fill-opacity=".4"/><path d="M36.898 251.09L7.836 208.906l53.434-2.812" fill="#389826" fill-opacity=".4"/><path d="M49.348 132.715L9.293 118.742l54.96-34.465" fill="#9558b2" fill-opacity=".4"/><path d="M7.664 117.402l-11.34-50.078 67.09 15.117" fill="#389826" fill-opacity=".4"/><path d="M51.46 57.11l12.618 23.433L.09 66.121" fill="#4063d8" fill-opacity=".4"/><path d="M32.75 337.563l-49.184-36.887 80.395-10.403" fill="#389826" fill-opacity=".4"/><path d="M36.86 254.422l27.242 33.816-79.844 10.332" fill="#4063d8" fill-opacity=".4"/><path d="M51.73 54.191L6.941 3.801l60.653 15.863" fill="#cb3c33" fill-opacity=".4"/><path d="M66.184 290.54l13.261 12.378-42.437 31.828" fill="#9558b2" fill-opacity=".4"/><path d="M66.332 84.328l19.234 29.309-33.89 18.32" fill="#389826" fill-opacity=".4"/><path d="M62.93 207.23l23.41 50.567-47.758-5.617" fill="#cb3c33" fill-opacity=".4"/><path d="M65.96 287.36l-26.644-33.083 46.864 5.516" fill="#389826" fill-opacity=".4"/><path d="M80.309 300.984l-12.977-12.109 19.031-25.953" fill="#4063d8" fill-opacity=".4"/><path d="M63.715 203.348l-12.07-65.91 40.847 47.343" fill="#389826" fill-opacity=".4"/><path d="M87.309 255.129l-23.036-49.762 28.567-18.43" fill="#4063d8" fill-opacity=".4"/><path d="M32.734 339.969l31.801 11.742-47.945-14.68" fill="#389826" fill-opacity=".4"/><path d="M80.434 304.676L96.5 361.379l-61.43-22.68" fill="#4063d8" fill-opacity=".4"/><path d="M66.105 80.082L53.383 56.457 96.09 36.465" fill="#389826" fill-opacity=".4"/><path d="M69.477 20.355L96.703 33.97 54.047 53.937M86.566 115.371l11.707 23.414-45.027-5.402" fill="#9558b2" fill-opacity=".4"/><path d="M93.305 182.66L52.44 135.3l46.434 5.571" fill="#cb3c33" fill-opacity=".4"/><path d="M68.996 17.965L13.418 3.43l94.059 4.273" fill="#9558b2" fill-opacity=".4"/><path d="M98.59 32.676l-26.781-13.39L111.98 8.573M100.871 141.027l28.04.907-33.466 39.793" fill="#389826" fill-opacity=".4"/><path d="M100.629 139.02L89.46 116.684l37.8 23.195" fill="#cb3c33" fill-opacity=".4"/><path d="M88.836 260.102l49.23 5.574-55.73 35.293" fill="#389826" fill-opacity=".4"/><path d="M87.387 112.766L67.984 83.203l73.903 7.39" fill="#9558b2" fill-opacity=".4"/><path d="M99.078 35.648l44.574 53.114-75.87-7.59" fill="#cb3c33" fill-opacity=".4"/><path d="M130.41 139.465L89.207 114.18l55.25-22.473" fill="#389826" fill-opacity=".4"/><path d="M114.266 8.578l34.652 31.008-48.332-6.387" fill="#4063d8" fill-opacity=".4"/><path d="M145.285 87.594l-43.863-52.266 49.465 6.535M94.898 186.309l58.028 17.12-63.735 53.274" fill="#389826" fill-opacity=".4"/><path d="M140.223 263.906l-49.79-5.636 62.942-52.606M130.676 142.938l22.656 58.527-57.582-16.992" fill="#4063d8" fill-opacity=".4"/><path d="M134.281 366.895l-34.265-4.633 52.789-58.348" fill="#389826" fill-opacity=".4"/><path d="M98.469 360.988l-16.16-57.039 70.351-2.855" fill="#9558b2" fill-opacity=".4"/><path d="M140.52 266.488l13.027 32.57-68.863 2.794" fill="#cb3c33" fill-opacity=".4"/><path d="M151.742 39.426L117.484 8.773l45.977 9.918M155.59 201.758l-22.184-57.309 53.614 47.14M113.941 5.996L26.746 2.031l149.02-6.34" fill="#389826" fill-opacity=".4"/><path d="M164.715 16.914l-45.387-9.789 69.414-11.57M146.64 91.367l43.012 18.703-57.039 28.989M188.2 189.965l-54.5-47.922 59.198.941" fill="#cb3c33" fill-opacity=".4"/><path d="M191.098 111.582l1.836 29.402-57.887-.922" fill="#389826" fill-opacity=".4"/><path d="M155.54 301.71l37.714 30.173-56.57 33.941M152.816 42.55l46.813 24.345-52.43 21.53" fill="#4063d8" fill-opacity=".4"/><path d="M191.297 108.605l-42.73-18.578 52.019-21.367" fill="#9558b2" fill-opacity=".4"/><path d="M165.121 19.82l33.414 44.25-45.156-23.48" fill="#cb3c33" fill-opacity=".4"/><path d="M191.262-4.008l9.226 67.348-34.133-45.207" fill="#9558b2" fill-opacity=".4"/><path d="M194.762 330.527l-35.168-28.132 44.84 13.187M155.656 204.625l55.067 36.078-68.356 22.79" fill="#389826" fill-opacity=".4"/><path d="M188.484 193.219l22.016 44.945-53.203-34.855" fill="#9558b2" fill-opacity=".4"/><path d="M205.117 313.7l-48.234-14.188 54.855-55.805" fill="#cb3c33" fill-opacity=".4"/><path d="M155.36 298.207l-13.036-32.594 67.047-22.351" fill="#9558b2" fill-opacity=".4"/><path d="M194.742 144.64l34.285 45.407-38.918.926" fill="#389826" fill-opacity=".4"/><path d="M212.86 238.438l-22.274-45.477 38.98-.926" fill="#cb3c33" fill-opacity=".4"/><path d="M230.188 196.215l1.761 49.426-17.652-5.297M213.625 245.02l18.191 42.75-24.558 24.558" fill="#9558b2" fill-opacity=".4"/><path d="M232 247.742v35.356l-17.246-40.528M195.117 333.098l40.059 13.656-94.684 19.117" fill="#389826" fill-opacity=".4"/><path d="M206.18 316.566l28.925 28.051-38.57-13.148" fill="#cb3c33" fill-opacity=".4"/><path d="M232.219 290.195l5.508 54.18-30.301-29.387" fill="#389826" fill-opacity=".4"/><path d="M230.758 189.016l-34.45-45.618 50.274 8.38" fill="#cb3c33" fill-opacity=".4"/><path d="M202.652 64.39l-9.48-69.214 54.043 7.582" fill="#389826" fill-opacity=".4"/><path d="M247.074 149.832l-50.414-8.402 53.215-35.477" fill="#4063d8" fill-opacity=".4"/><path d="M194.89 140.203l-1.831-29.305 54.035-5.496" fill="#cb3c33" fill-opacity=".4"/><path d="M202.625 68.727l45.738 34.535-55.074 5.601" fill="#389826" fill-opacity=".4"/><path d="M248.645 4.2l16.058 51.007-60.457 10.39" fill="#9558b2" fill-opacity=".4"/><path d="M250.469 102.348l-46.024-34.754 60.114-10.332" fill="#cb3c33" fill-opacity=".4"/><path d="M233.965 246.04l-1.867-52.317 48.578 54.183" fill="#4063d8" fill-opacity=".4"/><path d="M234 285.953V248.04l46.234 1.852M239.742 344.406l-5.648-55.531 53.648-6.59" fill="#cb3c33" fill-opacity=".4"/><path d="M282.363 250.766l6.426 29.375-52.328 6.425M248.457 152.48l43.777 27.942-59.609 9.312" fill="#389826" fill-opacity=".4"/><path d="M282.371 246.8l-49.398-55.097 60.8-9.5M266.59 54.547L250.734 4.184l52.23 30.777" fill="#cb3c33" fill-opacity=".4"/><path d="M251.883 105.848l54.347 38.418-57.156 5.625" fill="#9558b2" fill-opacity=".4"/><path d="M294.512 179.5l-43.54-27.79 56.505-5.554" fill="#cb3c33" fill-opacity=".4"/><path d="M304.402 33.488L255.711 4.793l53.039 13.914M266.582 57.484l45.93 26.246-59.989 18.747" fill="#9558b2" fill-opacity=".4"/><path d="M308.172 143.191l-54.942-38.84 60.625-18.945" fill="#cb3c33" fill-opacity=".4"/><path d="M304.29 36.52l9.288 45.515-45.515-26.008" fill="#389826" fill-opacity=".4"/><path d="M239.035 348.012l65.531 8.625-155.207 9.484" fill="#cb3c33" fill-opacity=".4"/><path d="M289.64 283.102l23.915 72.699-72.7-9.567" fill="#4063d8" fill-opacity=".4"/><path d="M315.863 83.234l-8.578-42.043 26.598 48.047" fill="#9558b2" fill-opacity=".4"/><path d="M315.871 85.344l18.719 6.242-24.067 48.129" fill="#389826" fill-opacity=".4"/><path d="M290.719 279.602l-6.426-29.364 53.223 9.176" fill="#4063d8" fill-opacity=".4"/><path d="M295.816 182.117l48.985 6.598-60.285 57.46" fill="#389826" fill-opacity=".4"/><path d="M340.094 257.828l-54.965-9.476 60.652-57.809M309.336 146.89l35.137 39.762-48.082-6.472" fill="#9558b2" fill-opacity=".4"/><path d="M315.332 354.813l-23.672-71.97 56.817 25.567" fill="#cb3c33" fill-opacity=".4"/><path d="M340.242 260.414l8.43 45.89-56.192-25.284" fill="#389826" fill-opacity=".4"/><path d="M310.742 19.02l34.727.847-38.961 13.551M335.95 93.34l23.48 52.597-48.844-1.878" fill="#cb3c33" fill-opacity=".4"/><path d="M346.61 186.047l-35.313-39.957 48.324 1.86" fill="#4063d8" fill-opacity=".4"/><path d="M349.602 310.281l13.074 46.692-45.762-.934" fill="#389826" fill-opacity=".4"/><path d="M336.063 89.05l-29.32-52.968 61.48 2.836" fill="#cb3c33" fill-opacity=".4"/><path d="M350.734 20.152l16.735 16.73-57.242-2.64" fill="#4063d8" fill-opacity=".4"/><path d="M249.043.996L206.32-5h154.403" fill="#cb3c33" fill-opacity=".4"/><path d="M350.762 17.992l-33.907-.824L389.63-2.68" fill="#9558b2" fill-opacity=".4"/><path d="M309.996 16.965L255.441 2.656 388.695-4.5" fill="#389826" fill-opacity=".4"/><path d="M369.824 36.41l-17.16-17.16 42.453-22.586" fill="#cb3c33" fill-opacity=".4"/><path d="M364.61 356.473l-13.005-46.45 47.38 26.012" fill="#4063d8" fill-opacity=".4"/><path d="M361.258 145.121l-23.735-53.164 69.301-1.898" fill="#9558b2" fill-opacity=".4"/><path d="M370.07 39.738l36.95 48.317-69.157 1.894M347.875 189.523l60.004 28.575-65.719 39.05" fill="#389826" fill-opacity=".4"/><path d="M350.723 306.398l-8.485-46.199 67.88 10.371" fill="#cb3c33" fill-opacity=".4"/><path d="M409.098 219.7l2.832 49.124-68.02-10.39" fill="#9558b2" fill-opacity=".4"/><path d="M397.688-3.648l14.875 47.406-40.903-6.508" fill="#389826" fill-opacity=".4"/><path d="M408.285 86.422l-35.969-47.043 40.582 6.457" fill="#cb3c33" fill-opacity=".4"/><path d="M361.707 148.027l49.766 1.844-62.668 35.941" fill="#389826" fill-opacity=".4"/><path d="M409.11 216.469l-59.958-28.551 64.715-37.113M408.242 91.484l5.649 56.473-50.829-1.883M400.66 334.672l-45.965-25.235 58.582 5.407" fill="#cb3c33" fill-opacity=".4"/><path d="M412.078 271.723l1.871 41.175-60.824-5.613M414.832 46.535l15.715 7.856-20.078 30.554" fill="#9558b2" fill-opacity=".4"/><path d="M415.863 150.93l19.864 15.351-24.38 46.953M415.879 311.336L414.094 272l21.457 15.2M431.258 52.512l-15.66-7.832 21.75-25.23" fill="#389826" fill-opacity=".4"/><path d="M414.418 42.984L399.688-3.96l37.742 20.254" fill="#4063d8" fill-opacity=".4"/><path d="M401.254 337.012l34.988 1.668-65.812 16.66" fill="#cb3c33" fill-opacity=".4"/><path d="M415.227 315.508l24.91 21.355-37.367-1.781" fill="#389826" fill-opacity=".4"/><path d="M436.281 289.465l5.426 46.11-25.316-21.7" fill="#cb3c33" fill-opacity=".4"/><path d="M413.828 267.023l-2.765-47.996 35.07.926" fill="#389826" fill-opacity=".4"/><path d="M436.594 168.957l10.172 49.012-35.141-.926" fill="#cb3c33" fill-opacity=".4"/><path d="M436.648 164.465l-20.03-15.48 46.44-37.337" fill="#4063d8" fill-opacity=".4"/><path d="M415.813 147.066l-5.665-56.629 53.797 17.93" fill="#389826" fill-opacity=".4"/><path d="M431.98 55.848l31.684 50.32-53.113-17.707M436.785 285.621l-21.812-15.45 51.8-24.538" fill="#4063d8" fill-opacity=".4"/><path d="M448.113 220.602l20.235 22.074-52.426 24.832M466.086 106.262L435.73 58.047l42.856 32.14M439.766 17.367l45.308 17.57-51.781 17.567" fill="#cb3c33" fill-opacity=".4"/><path d="M479.254 88.191l-45.137-33.855 52.66-17.863M487.102 33.578L442.828 16.41l46.082-7.226" fill="#389826" fill-opacity=".4"/><path d="M439.176 14.96l-35.594-19.1 79.871 12.156M466.188 109.863l36.93 47.352-64.395 7.574" fill="#9558b2" fill-opacity=".4"/><path d="M469.863 241.371L449.56 219.22l57.222-35.074" fill="#4063d8" fill-opacity=".4"/><path d="M448.691 217.402l-10.402-50.117 69.031 14.184" fill="#9558b2" fill-opacity=".4"/><path d="M504.215 159.098l4.48 20.613-65.418-13.441" fill="#4063d8" fill-opacity=".4"/><path d="M442.934 339.047l64.976 25.629-137.277-7.324" fill="#389826" fill-opacity=".4"/><path d="M509.246 184.012l4.672 56.035-42.027 1.867" fill="#cb3c33" fill-opacity=".4"/><path d="M513.04 364.547l-67.767-26.727 69.676-41.039" fill="#4063d8" fill-opacity=".4"/><path d="M443.813 336.36l-5.672-48.239 74.722 7.567" fill="#389826" fill-opacity=".4"/><path d="M470.063 244.582l43.496 49.164-74.696-7.562" fill="#cb3c33" fill-opacity=".4"/><path d="M514.02 242.043l.93 50.262-42.813-48.399M480.367 91.16l45.578 14.024-57.851 1.754" fill="#389826" fill-opacity=".4"/><path d="M504.832 156.156L468 108.941l62.328-1.89M490.926 9.02l45 .898-46.797 23.398M510.73 179.656l-4.394-20.215 32.523 9.668" fill="#cb3c33" fill-opacity=".4"/><path d="M531.488 109.156l9.274 58.434-34.317-10.203" fill="#389826" fill-opacity=".4"/><path d="M488.832 36.219l57.512 13.199-65.051 38.652" fill="#9558b2" fill-opacity=".4"/><path d="M531.328 104.746L482.45 89.707l64.86-38.539" fill="#cb3c33" fill-opacity=".4"/><path d="M539.305 10.465l8.37 37.207-56.737-13.024M516.918 297.941l30.687 41.848-32.546 24.18" fill="#389826" fill-opacity=".4"/><path d="M516.957 292.707l-.93-50.277 39.106 13.965" fill="#4063d8" fill-opacity=".4"/><path d="M515.836 238.996l-4.691-56.305 45.043 22.52" fill="#389826" fill-opacity=".4"/><path d="M541.469 170.266l14.484 32.593-43.453-21.726" fill="#9558b2" fill-opacity=".4"/><path d="M556.027 254.59l-39.047-13.945 39.977-33.47M548.703 337.902l-30.598-41.722 44.504 3.707" fill="#cb3c33" fill-opacity=".4"/><path d="M556.316 258.031l6.493 39.867-44.504-3.71M558.973 206.41l25.449 9.09-26.36 37.266" fill="#9558b2" fill-opacity=".4"/><path d="M564.484 300.59l23.645 17.281-37.29 20.008" fill="#389826" fill-opacity=".4"/><path d="M539.938 8l-27-.543 56.16-3.777" fill="#4063d8" fill-opacity=".4"/><path d="M549.563 46.938L541.21 9.831l50.098-7.422" fill="#cb3c33" fill-opacity=".4"/><path d="M549.281 341.04l39.258 4.358-69.793 18.32" fill="#9558b2" fill-opacity=".4"/><path d="M589.219 319.555l3.601 24.308-40.515-4.504" fill="#4063d8" fill-opacity=".4"/><path d="M542.797 167.652l-9.442-59.484 59.485 41.543" fill="#9558b2" fill-opacity=".4"/><path d="M585.18 213.645l-25.633-9.153 33.871-50.347" fill="#389826" fill-opacity=".4"/><path d="M558.18 202.941l-14.828-33.363 49.117-17.61M589.195 316.172l-23.797-17.387 30.204-41.183" fill="#cb3c33" fill-opacity=".4"/><path d="M564.605 296.484l-6.437-39.543 36.781-1.836" fill="#389826" fill-opacity=".4"/><path d="M585.605 217.29l10.09 35.773-36.691 1.835M593.32 3.184l8.477 55.55-50.844-10.355M549.563 50.61l55.964 38.89-72.09 15.176" fill="#4063d8" fill-opacity=".4"/><path d="M602.125 60.844l4.5 26.98-53.066-36.875M594.34 148.32l-59.875-41.816 72.23-15.207M595.688 152.324l35.675 41.313-44.125 19.715" fill="#cb3c33" fill-opacity=".4"/><path d="M597.902 254.93l34.137-2.766-40.594 61.813" fill="#4063d8" fill-opacity=".4"/><path d="M597.738 252.938l-9.972-35.364 43.523 32.64" fill="#cb3c33" fill-opacity=".4"/><path d="M632.027 195.531l.938 53.442-45.004-33.754" fill="#4063d8" fill-opacity=".4"/><path d="M594.059 346.02l35.226 4.914-100.762 12.289" fill="#389826" fill-opacity=".4"/><path d="M594.879 344.113l-3.547-23.957 41.703 29.281" fill="#9558b2" fill-opacity=".4"/><path d="M593.828.008l-79.39 5.344 127.48-19.082" fill="#cb3c33" fill-opacity=".4"/><path d="M490 6.988L408.34-5.438l229.894-9.765" fill="#389826" fill-opacity=".4"/><path d="M608.73 91.355l50.973 19.825-63.246 36.816M633.074 192.559l-35.46-41.063 66.257 12.133" fill="#4063d8" fill-opacity=".4"/><path d="M661.125 112.668l3.777 49.113-67.062-12.277" fill="#389826" fill-opacity=".4"/><path d="M634.016 252.8l32.324 47.54-74.16 16.16" fill="#9558b2" fill-opacity=".4"/><path d="M636.707 349.574l-44.266-31.082 73.465-16.012" fill="#4063d8" fill-opacity=".4"/><path d="M603.84 58.875L595.332 3.09l70.914 47.277" fill="#cb3c33" fill-opacity=".4"/><path d="M656.207-15.734l11.402 64.605-71.254-47.504" fill="#389826" fill-opacity=".4"/><path d="M661.156 109.598L610.2 89.78l57.563-36.804" fill="#9558b2" fill-opacity=".4"/><path d="M608.738 88.34l-4.582-27.488 60.477-8.247" fill="#389826" fill-opacity=".4"/><path d="M669.5 55.352l12.344 34.39-18.516 18.516" fill="#cb3c33" fill-opacity=".4"/><path d="M667.727 303.34l13.933 41.8-42.73 4.645" fill="#389826" fill-opacity=".4"/><path d="M682.293 340.715l-12.555-37.664 14.227 7.535" fill="#4063d8" fill-opacity=".4"/><path d="M684.125 308.406l-14.785-7.828 18.262-35.656" fill="#cb3c33" fill-opacity=".4"/><path d="M667.879 299.043l-31.742-46.68 51.347 8.403" fill="#389826" fill-opacity=".4"/><path d="M669.426 47.668l-11.063-62.707 31.352 18.441" fill="#cb3c33" fill-opacity=".4"/><path d="M688.133 258.844l-51.055-8.352 55.695-29.707" fill="#4063d8" fill-opacity=".4"/><path d="M634.973 249.348l-.946-53.848 57.625 23.617" fill="#cb3c33" fill-opacity=".4"/><path d="M665.707 164.648l26.207 52.415-57.098-23.399" fill="#9558b2" fill-opacity=".4"/><path d="M683.27 87.793l-12.485-34.781 26.754 13.375" fill="#4063d8" fill-opacity=".4"/><path d="M690.45 6.602l7.323 57.668-27.46-13.73" fill="#389826" fill-opacity=".4"/><path d="M666.89 161.555l-3.73-48.508 44.778 31.719" fill="#cb3c33" fill-opacity=".4"/><path d="M682.719 91.695l24.652 50.215-43.824-31.043" fill="#4063d8" fill-opacity=".4"/><path d="M693.625 216.012l-26.25-52.496 41.246-16.871" fill="#389826" fill-opacity=".4"/><path d="M698.969 67.848l28.16 45.422-42.695-23.618" fill="#9558b2" fill-opacity=".4"/><path d="M710.145 143.027L685.3 92.414l43.25 23.926M710.672 146.617l22.906 14.66-37.566 53.141" fill="#cb3c33" fill-opacity=".4"/><path d="M729.3 118.773l4.473 40.254-22.363-14.312" fill="#4063d8" fill-opacity=".4"/><path d="M699.7 63.555L692.19 4.43l44.11 14.078M685.96 310.742l48.247-15.476-50.066 48.246" fill="#cb3c33" fill-opacity=".4"/><path d="M689.86 261.785l45.87 30.89-49.613 15.919M694.855 220.23l54.938 13.036-59.59 25.14" fill="#389826" fill-opacity=".4"/><path d="M737.375 291.375l-46.285-31.172 60.453-25.504" fill="#cb3c33" fill-opacity=".4"/><path d="M735.031 162.688l31.2 40.652-69.961 14.18" fill="#389826" fill-opacity=".4"/><path d="M752.473 231.848l-53.817-12.77 67.496-13.683M682.96 347.012l66.368 12.343-101.863-8.488" fill="#cb3c33" fill-opacity=".4"/><path d="M737.672 294.707l29.633 65.961-82.211-15.297M738.23 19.3l29.532 17.536-65.52 26.758" fill="#389826" fill-opacity=".4"/><path d="M768.258 202.691l-27.446-35.761 37.426 29.941M730.297 114.582l-29.258-47.191 77.395 14.156" fill="#4063d8" fill-opacity=".4"/><path d="M769.309 38.363l10.343 41.375-77.105-14.105" fill="#cb3c33" fill-opacity=".4"/><path d="M780.777 75.992l-7.992-31.969 10.172 18.164M737.867 16.906l-42.465-13.55 84.926-12.649" fill="#9558b2" fill-opacity=".4"/><path d="M691.203 1.957l-30.21-17.77 113.73 5.333" fill="#389826" fill-opacity=".4"/><path d="M769.422 35.496L739.93 17.984l43.316-26.726" fill="#cb3c33" fill-opacity=".4"/><path d="M753.395 235.543l39.636 64.172-53.793-7.55" fill="#4063d8" fill-opacity=".4"/><path d="M768.977 359.508l-29.325-65.266 53.914 7.567" fill="#cb3c33" fill-opacity=".4"/><path d="M794.777 304.074l12.985 49.153-37.098 7.421" fill="#389826" fill-opacity=".4"/><path d="M779.918 195.652l-42.227-33.78 78.82-3.75" fill="#9558b2" fill-opacity=".4"/><path d="M735.89 159.957l-4.702-42.309 83.675 38.547" fill="#389826" fill-opacity=".4"/><path d="M780.617 82.473l36.215 72.425-84.816-39.07" fill="#cb3c33" fill-opacity=".4"/><path d="M768.223 205.746l47.047 52.586-60.887-25.832" fill="#9558b2" fill-opacity=".4"/><path d="M779.656 198.36l32.805 53.835-42.899-47.949M794.988 299.078l-39.488-63.93 62.05 26.325" fill="#389826" fill-opacity=".4"/><path d="M819.367 262.332l10.903 5.871-31.032 27.676" fill="#cb3c33" fill-opacity=".4"/><path d="M784.094 60.121L771.297 37.27l62.164-47.54" fill="#389826" fill-opacity=".4"/><path d="M785.754-10.055l48.965-3.695-62.824 48.043" fill="#4063d8" fill-opacity=".4"/><path d="M784.703 63.95l49.485 43.405-52.086-26.914" fill="#cb3c33" fill-opacity=".4"/><path d="M818.988 154.742l-35.722-71.445 56.406 29.144" fill="#389826" fill-opacity=".4"/><path d="M855.02 346.137l-43.317 6.449 44.238-47" fill="#4063d8" fill-opacity=".4"/><path d="M809.508 352.004l-13.2-49.961 58.446 1.887" fill="#cb3c33" fill-opacity=".4"/><path d="M831.832 269.488l23.18 32.446-57.48-1.852M840.96 114.355l20.427 45.493-40.852-3.711" fill="#9558b2" fill-opacity=".4"/><path d="M819.156 158.27l41.008 25.164-77.351 12.113" fill="#389826" fill-opacity=".4"/><path d="M818.973 259.031l-37.34-61.273 79.469-12.45" fill="#4063d8" fill-opacity=".4"/><path d="M831.46 266.574l-11.081-5.969 37.512-65.648" fill="#389826" fill-opacity=".4"/><path d="M862 161.914v20.3l-38.836-23.831M837.75-12.898l27.805 70.949-79.582 2.879" fill="#cb3c33" fill-opacity=".4"/><path d="M840.676 110.387L786.55 62.91l78.816-2.851" fill="#389826" fill-opacity=".4"/><path d="M857.953 305.05l37.875 30.485-38.797 10.16" fill="#9558b2" fill-opacity=".4"/><path d="M867.25 56.902L839.809-13.12l58.668 25.55" fill="#4063d8" fill-opacity=".4"/><path d="M863.594 159.883l-20.258-45.125 58.016 38.68" fill="#cb3c33" fill-opacity=".4"/><path d="M864 182.027v-20.183l35.984-6.145" fill="#389826" fill-opacity=".4"/><path d="M899.875 13.918l9.797 18.703-39.192 23.16" fill="#cb3c33" fill-opacity=".4"/><path d="M903.328 155.73l7.395 36.989-45.309-9.246" fill="#9558b2" fill-opacity=".4"/><path d="M897.617 334.406l-38.05-30.625 53.828-4.64" fill="#389826" fill-opacity=".4"/><path d="M863.375 185.871l50.82 54.656-80.547 25.891" fill="#cb3c33" fill-opacity=".4"/><path d="M911.066 194.832l3.692 43.363-48.903-52.59" fill="#389826" fill-opacity=".4"/><path d="M914.016 297.082l-54.473 4.695 55.414-58.23" fill="#4063d8" fill-opacity=".4"/><path d="M857.11 301.434l-23.5-32.903 78.96-25.379" fill="#389826" fill-opacity=".4"/><path d="M867.234 60.793l50.356 57.957-75.059-7.602" fill="#cb3c33" fill-opacity=".4"/><path d="M903.59 152.523l-58.688-39.12 73.59 7.449M910.164 34.656l8.516 82.301-50.137-57.707" fill="#389826" fill-opacity=".4"/><path d="M916.86 239.305l-3.505-41.168 19.27 31.531" fill="#9558b2" fill-opacity=".4"/><path d="M920.855 118.559l-8.183-79.121 30.012 70.027" fill="#cb3c33" fill-opacity=".4"/><path d="M943.324 105.883l-30.488-71.14 35.105 12.933" fill="#9558b2" fill-opacity=".4"/><path d="M934.066 228.188l-19.632-32.122 33.015 13.383M915.594 299.121l30.676 5.414-46.012 28.867" fill="#cb3c33" fill-opacity=".4"/><path d="M916.93 244.934l30.242 57.726-31.156-5.496" fill="#9558b2" fill-opacity=".4"/><path d="M933.305 231.598l13.316 65.71-29.3-55.945" fill="#389826" fill-opacity=".4"/><path d="M809.145 354.992l61.609-5.488-78.492 8.863" fill="#cb3c33" fill-opacity=".4"/><path d="M856.105 347.996l28.356-1.719L842.64 350" fill="#389826" fill-opacity=".4"/><path d="M898.086 337.012l43.39 3.804-75.363 4.57" fill="#cb3c33" fill-opacity=".4"/><path d="M948.254 305.648l5.555 34.243-52.754-4.625" fill="#4063d8" fill-opacity=".4"/><path d="M900.223 11.008l-52.18-22.727 108.566 24.406M948.535 45.762l-34.539-12.723 50.899-17.27" fill="#cb3c33" fill-opacity=".4"/><path d="M911.488 31.777l-9.808-18.726 59.75 1.785" fill="#389826" fill-opacity=".4"/><path d="M920.383 121.531l43.535 32.418-58.356-.926" fill="#9558b2" fill-opacity=".4"/><path d="M943.531 111.277l20.625 40.36-42.148-31.39" fill="#4063d8" fill-opacity=".4"/><path d="M948.387 207.672l-34.32-13.914 51.019-36.172" fill="#389826" fill-opacity=".4"/><path d="M912.68 192.293l-7.457-37.273 58.707.933" fill="#cb3c33" fill-opacity=".4"/><path d="M966.996 16.094l11.535 21.293-27.504 7.984" fill="#4063d8" fill-opacity=".4"/><path d="M967.254 157.398l24.187 40.93-40.93 9.305" fill="#cb3c33" fill-opacity=".4"/><path d="M949.797 49.59l42.32 52.664-47.023 6.582" fill="#389826" fill-opacity=".4"/><path d="M979.25 39.258l12.883 59.82-41.414-51.535" fill="#9558b2" fill-opacity=".4"/><path d="M967.008 152.816l-21.477-42.02 46.688-6.538" fill="#cb3c33" fill-opacity=".4"/><path d="M966.992 12.973L859.363-11.223l135.16 17.52" fill="#9558b2" fill-opacity=".4"/><path d="M980.063 36.016l-11.567-21.352 29.356-7.113" fill="#cb3c33" fill-opacity=".4"/><path d="M992.629 196.41l-23.848-40.363 33.942.918" fill="#389826" fill-opacity=".4"/><path d="M993.555 106.027l9.234 48.942-34.164-.926" fill="#4063d8" fill-opacity=".4"/><path d="M1002.05 333.129l-40.51 5.906 41.358-19.414" fill="#cb3c33" fill-opacity=".4"/><path d="M955.773 339.531l-5.543-34.187 50.817 12.937M949.36 210.219l53.867 21.55-67.336-2.695" fill="#389826" fill-opacity=".4"/><path d="M992.438 200.152l14.578 30.977-54.664-21.863M949.57 301.777l-14.336-70.726 71.68 2.867" fill="#9558b2" fill-opacity=".4"/><path d="M1003.074 316.73l-52.277-13.304 57.027-67.488" fill="#cb3c33" fill-opacity=".4"/><path d="M1004.223 159.164l23.78 57.621-33.839-18.293" fill="#9558b2" fill-opacity=".4"/><path d="M1009.41 231.523l-14.21-30.199 32.862 17.766" fill="#4063d8" fill-opacity=".4"/><path d="M1029.547 215.285l-24.188-58.617 34.422-9.305" fill="#cb3c33" fill-opacity=".4"/><path d="M1004.781 154.754l-9.242-48.992 43.441 39.746" fill="#389826" fill-opacity=".4"/><path d="M1009.773 236.887l29.899 61.672-34.57 17.75" fill="#9558b2" fill-opacity=".4"/><path d="M994.656 101.297L981.395 39.73l60.62 27.47" fill="#4063d8" fill-opacity=".4"/><path d="M1000.059 7.793l40.933 56.746-59.539-26.977" fill="#389826" fill-opacity=".4"/><path d="M1004.918 319.32l33.93 10.176-34.778 3.395" fill="#9558b2" fill-opacity=".4"/><path d="M1040.148 300.563l2.711 28.05-36.195-10.86" fill="#389826" fill-opacity=".4"/><path d="M1043.414 64.48l-40.957-56.785 48.406 13.035" fill="#4063d8" fill-opacity=".4"/><path d="M1029.707 220.395l24.2 37.644-43.02-25.094" fill="#cb3c33" fill-opacity=".4"/><path d="M1040.938 296.574l-29.606-61.054 44.406 25.902" fill="#389826" fill-opacity=".4"/><path d="M1040.824 144.484l-43.879-40.144 66.29 7.469" fill="#9558b2" fill-opacity=".4"/><path d="M1043.613 68.512l19.707 41.293-66.632-7.508" fill="#389826" fill-opacity=".4"/><path d="M1057.207 259.473l-24.934-38.782 51.711 14.774" fill="#9558b2" fill-opacity=".4"/><path d="M1064.91 112.902l24.117 43.594-46.379-11.129" fill="#cb3c33" fill-opacity=".4"/><path d="M1041.66 148.316l49.461 58.024-59.922 11.414" fill="#9558b2" fill-opacity=".4"/><path d="M1090.031 158.797l1.852 45.351-48.13-56.46" fill="#4063d8" fill-opacity=".4"/><path d="M1085.281 233.754l-50.96-14.559 57.331-10.922" fill="#cb3c33" fill-opacity=".4"/><path d="M1003.035 335.004l64.211 4.996h-98.46" fill="#389826" fill-opacity=".4"/><path d="M1043.938 331.012l35.238 7.91-64.727-5.035" fill="#4063d8" fill-opacity=".4"/><path d="M1044.926 329.184l-2.7-27.91 46.813 37.812" fill="#cb3c33" fill-opacity=".4"/><path d="M1000 4.992l-141.703-18.37 228.3 7" fill="#4063d8" fill-opacity=".4"/><path d="M1051.86 18.926L1005.104 6.34l89.016-11.692" fill="#cb3c33" fill-opacity=".4"/><path d="M1052.805 21.223l50.445 12.144-57.918 31.762" fill="#9558b2" fill-opacity=".4"/><path d="M1098.262-5.422l6.492 37.094-50.078-12.055" fill="#389826" fill-opacity=".4"/><path d="M1065.586 109.906l-19.246-40.328 57.742 34.828" fill="#9558b2" fill-opacity=".4"/><path d="M1105.023 34.676l.954 68.539-59.973-36.172" fill="#cb3c33" fill-opacity=".4"/><path d="M1090.727 155.441l-24.149-43.656 39.012-5.574" fill="#389826" fill-opacity=".4"/><path d="M1057.46 262.48l46.54 29.79-61.434 5.582" fill="#cb3c33" fill-opacity=".4"/><path d="M1092.46 339.277l-48.913-39.504 62.082-5.644M1085.563 236.734l19.492 53.836-46.407-29.703" fill="#389826" fill-opacity=".4"/><path d="M1107.742 294.031l22.196.887-34.626 41.73" fill="#cb3c33" fill-opacity=".4"/><path d="M1093.523 209.023l40.762 43.477-47.101-18.117" fill="#389826" fill-opacity=".4"/><path d="M1131.148 292.965l-22.109-.883 27.414-33.605" fill="#9558b2" fill-opacity=".4"/><path d="M1107.34 291l-19.652-54.281 48.664 18.719" fill="#cb3c33" fill-opacity=".4"/><path d="M1106.684 31.11l-6.418-36.688 36.683 11.008" fill="#9558b2" fill-opacity=".4"/><path d="M1107.95 101.2l-.934-67.173 37.316.93" fill="#389826" fill-opacity=".4"/><path d="M1138.41 6.813l6.313 26.156-36.075-.903" fill="#cb3c33" fill-opacity=".4"/><path d="M1131.727 295.898l16.808 39.227-53.234 4.668" fill="#389826" fill-opacity=".4"/><path d="M1137.523 253.027l-42.46-45.289 57.558-7.547" fill="#4063d8" fill-opacity=".4"/><path d="M1093.953 205.867l-1.875-45.972 59.106 38.464M1107.496 106.813l45.266 41.492-60.352 8.488" fill="#cb3c33" fill-opacity=".4"/><path d="M1153.035 197.18l-59.25-38.563 60.192-8.465" fill="#389826" fill-opacity=".4"/><path d="M1145.61 36.793l16.117 71.113-53.098-3.793" fill="#9558b2" fill-opacity=".4"/><path d="M1154.367 147.063l-44.574-40.86 52.004 3.715M955.012 342.004l204.851 18.05-372.703.903" fill="#389826" fill-opacity=".4"/><path d="M1092.89 342l74.258 16.688L977.742 342" fill="#4063d8" fill-opacity=".4"/><path d="M1149.695 337.031l28.184 22.016-78.387-17.613" fill="#9558b2" fill-opacity=".4"/><path d="M1138.883 255.836l43.722-9.11-49.187 44.637" fill="#4063d8" fill-opacity=".4"/><path d="M1154.383 201.3l29.933 43.028-44.898 9.356M1163.527 106.797l-15.695-69.238 37.852 42.464" fill="#cb3c33" fill-opacity=".4"/><path d="M1186.473 77.906l-36.625-41.09 41.984 18.758" fill="#9558b2" fill-opacity=".4"/><path d="M1155.95 151.508L1198.722 198h-43.703" fill="#cb3c33" fill-opacity=".4"/><path d="M1185.672 242.777L1155.914 200h43.707M1139.156 4.004L1110.81-4.5l72.992 9.21" fill="#389826" fill-opacity=".4"/><path d="M1192.246 53.566l-43.91-19.617 52.32-26.16" fill="#cb3c33" fill-opacity=".4"/><path d="M1146.676 32.543l-6.403-26.523 57.622.914" fill="#9558b2" fill-opacity=".4"/><path d="M1163.652 110.844L1208.238 148h-52.02" fill="#4063d8" fill-opacity=".4"/><path d="M1200.406 196.875L1157.277 150h52.504" fill="#9558b2" fill-opacity=".4"/><path d="M1186.637 82.004l22.234 63.922-44.465-37.055" fill="#389826" fill-opacity=".4"/><path d="M1150.57 334.79l-16.804-39.208 73.75 22.402" fill="#4063d8" fill-opacity=".4"/><path d="M1185.547 246.762l23.875 69.715-75.445-22.922" fill="#9558b2" fill-opacity=".4"/><path d="M1181.77 359.55l-29.622-23.14 56.47-16.664M1202.758 7.418l27.433 11.89-35.668 32.922M1193.598 56.8l37.683 31.403-43.066-8.973" fill="#389826" fill-opacity=".4"/><path d="M1211.074 146.168l-22.55-64.828 45.097 9.394" fill="#4063d8" fill-opacity=".4"/><path d="M1211.04 319.73l24.16 32.52-51.106 7.434M1211.52 316.434l-23.528-68.7 59.29 44.23" fill="#cb3c33" fill-opacity=".4"/><path d="M1236.453 350.59l-24.031-32.352 35.125-24.031" fill="#389826" fill-opacity=".4"/><path d="M1234.871 92.977l14.84 48.234-37.106 6.492M1201.664 200.188l46.508 11.164-60.461 31.625" fill="#9558b2" fill-opacity=".4"/><path d="M1211.496 151.613l37.313 57.832-46.641-11.191" fill="#389826" fill-opacity=".4"/><path d="M1250 143.191v64.414l-37.344-57.878" fill="#cb3c33" fill-opacity=".4"/><path d="M1231.672 20.66l20.601 44.012-57.12-10.3" fill="#4063d8" fill-opacity=".4"/><path d="M1234.852 88.574l-38.301-31.918 55.629 10.032" fill="#9558b2" fill-opacity=".4"/><path d="M1248.215 290.164l-59.367-44.285 65.02-2.828" fill="#389826" fill-opacity=".4"/><path d="M1250.191 212.55l3.676 28.497-63.426 2.758" fill="#cb3c33" fill-opacity=".4"/><path d="M1251.375 139.82L1236.5 91.473l41.836 12.086" fill="#4063d8" fill-opacity=".4"/><path d="M1253.953 67.672l23.594 33.578-40.84-11.797M1249.824 293h33.117l-44.16 56.117" fill="#cb3c33" fill-opacity=".4"/><path d="M1255.645 245.02l27.59 45.98h-33.106" fill="#4063d8" fill-opacity=".4"/><path d="M1252 209.809v-64.414l37.344 57.878" fill="#9558b2" fill-opacity=".4"/><path d="M1255.723 239.785l-3.61-27.965 36.082-6.312" fill="#4063d8" fill-opacity=".4"/><path d="M1279.566 100.645l-24.199-34.438 40.953-31.644" fill="#389826" fill-opacity=".4"/><path d="M1254.375 64.445l-20.633-44.082 61.903 12.192M1202.008 4.992l-85.73-10.82 166.464 1.664" fill="#9558b2" fill-opacity=".4"/><path d="M1297.031 30.79l-61.281-12.071 62.21-22.285" fill="#389826" fill-opacity=".4"/><path d="M1232.035 17.926l-26.2-11.356 84.716-9.605" fill="#cb3c33" fill-opacity=".4"/><path d="M1279.672 105.117l20.598 59.922-47.75-23.406" fill="#9558b2" fill-opacity=".4"/><path d="M1290.66 201.629l-36.867-57.149 47.008 23.047" fill="#cb3c33" fill-opacity=".4"/><path d="M1284.668 294.04l18.95 53.058-64.43 4.738M1285.168 290.332l-28.047-46.742 57.027 14.957" fill="#389826" fill-opacity=".4"/><path d="M1290.71 205.758l23.49 50.738-57.313-15.035" fill="#cb3c33" fill-opacity=".4"/><path d="M1302.285 164.754l-20.691-60.191 49.847 15.988" fill="#4063d8" fill-opacity=".4"/><path d="M1299.93-2.375l42.793 50.078-43.703-16.39" fill="#cb3c33" fill-opacity=".4"/><path d="M1298.695 33.328l45.309 16.992-62.3 50.028" fill="#9558b2" fill-opacity=".4"/><path d="M1332.223 118.7l-50.149-16.083 62.45-50.148M1316.621 256.96l-22.629-48.878 51.59 47.066" fill="#389826" fill-opacity=".4"/><path d="M1305.672 346.902l-18.602-52.078 61.383 46.5" fill="#cb3c33" fill-opacity=".4"/><path d="M1332.941 121.902l17.551 30.48-46.183 12.934M1302.66 168.285l48.094 16.649-58.266 17.574" fill="#389826" fill-opacity=".4"/><path d="M1351.078 154.297l1.832 29.266-47.562-16.461" fill="#cb3c33" fill-opacity=".4"/><path d="M1347.176 253.895l-54.2-49.446 59.903-18.066M1316.07 259.406l46.848 42.168-75.895-10.308" fill="#9558b2" fill-opacity=".4"/><path d="M1350.543 340.398l-61.902-46.894 75.972 10.316" fill="#389826" fill-opacity=".4"/><path d="M1347.328 257.043l16.25 42.434-45.14-40.63" fill="#cb3c33" fill-opacity=".4"/><path d="M1345.797 48.227l-44.356-51.91 67.008 8.495" fill="#389826" fill-opacity=".4"/><path d="M1354.813 181.977l-1.762-28.207 24.683-6.172M1346.488 52.855l32.946 57.422-45.184 8.473" fill="#9558b2" fill-opacity=".4"/><path d="M1379.023 145.215l-24.695 6.172 25.574-37.04" fill="#389826" fill-opacity=".4"/><path d="M1352.078 151.129l-17.508-30.406 44.227-8.293M1304.918 349.008l62.219 14.738-117.887-10.644" fill="#cb3c33" fill-opacity=".4"/><path d="M1350.707 343.047L1376.902 364l-66.359-15.715" fill="#389826" fill-opacity=".4"/><path d="M1365.773 306.371l13.582 57.031-27.16-21.726" fill="#cb3c33" fill-opacity=".4"/><path d="M1354.773 187.734l39.575 53.707-45.227 13.192" fill="#4063d8" fill-opacity=".4"/><path d="M1366.113 300.504l-16.793-43.848 44.782-13.062" fill="#389826" fill-opacity=".4"/><path d="M1370.406 5.383l25.586 14.62-47.515 27.415M1380.977 108.945l-32.997-57.5 57.504 12.254" fill="#cb3c33" fill-opacity=".4"/><path d="M1397.305 21.555l8.402 40.148-56.953-12.137" fill="#389826" fill-opacity=".4"/><path d="M1379.816 148.078l29.075 66.59-53.461-30.012" fill="#cb3c33" fill-opacity=".4"/><path d="M1395.914 240.2l-38.355-52.055 52.054 29.222" fill="#9558b2" fill-opacity=".4"/><path d="M1381.45 363.574l-14.126-59.332 48.969 8.477" fill="#389826" fill-opacity=".4"/><path d="M1395.797 244.684l20.758 66.05-49.067-8.492M1407.762 61.762l-8.219-39.266 39.27 31.047" fill="#9558b2" fill-opacity=".4"/><path d="M1411.266 215.105l-29.512-67.59 69.492 19.04" fill="#4063d8" fill-opacity=".4"/><path d="M1407.32 64.508l44.239 33.879-68.707 11.297" fill="#389826" fill-opacity=".4"/><path d="M1440.313 55.219l11.882 41.14-42.968-32.914M1381.977 111.852l67.355-11.07-68.277 43.363" fill="#cb3c33" fill-opacity=".4"/><path d="M1452.02 164.695l-69.575-19.062 70.528-44.797" fill="#9558b2" fill-opacity=".4"/><path d="M1418.55 310.422l-20.78-66.121 61.402 38.726" fill="#cb3c33" fill-opacity=".4"/><path d="M1411.383 218.309l47.25 23.625-60.883-.907" fill="#389826" fill-opacity=".4"/><path d="M1460.086 281.242l-60.543-38.187 62.406.93" fill="#4063d8" fill-opacity=".4"/><path d="M1370.023 2.996l-54.398-6.898 127.945.77" fill="#cb3c33" fill-opacity=".4"/><path d="M1398.098 18.906L1373.293 4.73l85.05-7.09" fill="#9558b2" fill-opacity=".4"/><path d="M1440.598 52.406l-40.555-32.066 64.133-22.637" fill="#389826" fill-opacity=".4"/><path d="M1452.633 168.02l13.043 38.199-52.176 9.32" fill="#9558b2" fill-opacity=".4"/><path d="M1462.164 241.465l-48.02-24.012 51.715-9.234" fill="#4063d8" fill-opacity=".4"/><path d="M1418.3 313.332l47.169 27.356-82.07 23.582" fill="#9558b2" fill-opacity=".4"/><path d="M1460.203 284.742l6.563 54.387-46.883-27.192" fill="#4063d8" fill-opacity=".4"/><path d="M1466.297-2.16l14.32 16.11-36.699 35.804" fill="#cb3c33" fill-opacity=".4"/><path d="M1454.965 101.484L1483.629 132l-29.59 31.438" fill="#4063d8" fill-opacity=".4"/><path d="M1467.875 208.176l29.805 5.418-33.418 27.094" fill="#389826" fill-opacity=".4"/><path d="M1467.758 206.121l-12.418-36.367 41.687 41.691" fill="#4063d8" fill-opacity=".4"/><path d="M1484.375 134.121l14.055 75.895-44.035-44.036M1454.484 97.074l-12.18-42.156 57.15-3.75" fill="#389826" fill-opacity=".4"/><path d="M1481.762 15.629l18.597 33.476-56.722 3.72" fill="#9558b2" fill-opacity=".4"/><path d="M1463.938 244.277l38.64 10.121-40.48 26.68" fill="#389826" fill-opacity=".4"/><path d="M1499.227 214.914l4.601 37.746-38.664-10.129M1485.219 130.773l-27.965-29.77 55.027 16.24" fill="#cb3c33" fill-opacity=".4"/><path d="M1501.383 52.063l12.32 63.511-57.824-17.062" fill="#9558b2" fill-opacity=".4"/><path d="M1468.02 342.035l42.101 10.527-118.418 11.403" fill="#cb3c33" fill-opacity=".4"/><path d="M1515.027 351.727l-44.754-11.188 45.684-34.5" fill="#4063d8" fill-opacity=".4"/><path d="M1468.785 339.156l-6.594-54.64 52.754 19.78" fill="#9558b2" fill-opacity=".4"/><path d="M1504.36 255.621l11.23 46.781-52.399-19.648" fill="#cb3c33" fill-opacity=".4"/><path d="M1505.852 252.723l-4.47-36.645 26.813 30.387" fill="#4063d8" fill-opacity=".4"/><path d="M1516.977 299.613l-10.782-44.91 22.457-6.285" fill="#9558b2" fill-opacity=".4"/><path d="M1517.926 307.574l18.71 32.07-19.6 11.583M1515.582 114.758l-12.043-62.082 37.063 32.43" fill="#389826" fill-opacity=".4"/><path d="M1500.492 210.16L1486.203 133h59.059" fill="#cb3c33" fill-opacity=".4"/><path d="M1515.016 118.11l27.496 12.89h-53.278" fill="#389826" fill-opacity=".4"/><path d="M1541.254 87.434l4.562 42.906-29.21-13.692" fill="#cb3c33" fill-opacity=".4"/><path d="M1482.305 12.84l-14.192-15.965 73.614-4.434" fill="#389826" fill-opacity=".4"/><path d="M1502.148 48.207l-18.695-33.648 62.629-21.5" fill="#cb3c33" fill-opacity=".4"/><path d="M1530.41 249.7l27 46.55-39.105 6.52" fill="#389826" fill-opacity=".4"/><path d="M1537.922 337.883l-19.328-33.133 38.656-6.445" fill="#4063d8" fill-opacity=".4"/><path d="M1541.684 83.395l-37.075-32.438 53.758-.93" fill="#cb3c33" fill-opacity=".4"/><path d="M1548.422-6.672l10.375 54.692-54.692.945M1529.965 245.45l-28.04-31.778 62.622-11.215" fill="#389826" fill-opacity=".4"/><path d="M1546.691 134.523l19.04 65.688-63.782 11.426" fill="#9558b2" fill-opacity=".4"/><path d="M1566.953 197.246l-18.457-63.676 32.3 11.075M1558.86 294.762l-27.329-47.114 52.77-13.191" fill="#cb3c33" fill-opacity=".4"/><path d="M1566.875 202.75l17.578 29.605-51.808 12.954" fill="#4063d8" fill-opacity=".4"/><path d="M1581.23 142.68l-31.863-10.926 38.238-22.762" fill="#9558b2" fill-opacity=".4"/><path d="M1547.828 130.344l-4.644-43.688 43.683 20.45" fill="#389826" fill-opacity=".4"/><path d="M1560 51.234l26.82 53.641-43.468-20.344M1560.602 46.8L1550.21-7.98l57.613.945M1559.508 298.242l55.168 19.637-74.805 20.57" fill="#9558b2" fill-opacity=".4"/><path d="M1585.945 235.7l30.36 80.636-55.973-19.922" fill="#389826" fill-opacity=".4"/><path d="M1588.977 104.719l-27.422-54.848 55.793-4.726" fill="#4063d8" fill-opacity=".4"/><path d="M1609.371-5.766l8.457 48.86-55.441 4.699" fill="#cb3c33" fill-opacity=".4"/><path d="M1582.379 146.488l34.77 55.442-48.864-1.883" fill="#389826" fill-opacity=".4"/><path d="M1586.234 231.438l-17.437-29.368 47.723 1.836M1538.16 341.066l70.336 17.157-89.207-6.004" fill="#9558b2" fill-opacity=".4"/><path d="M1617.063 319.297l1.874 39.414-76.957-18.77" fill="#cb3c33" fill-opacity=".4"/><path d="M1589.715 108.605l37.723 23.004-44.165 11.043" fill="#389826" fill-opacity=".4"/><path d="M1618.422 200.195l-34.844-55.558 45.203-11.301" fill="#cb3c33" fill-opacity=".4"/><path d="M1619.293 39.832l-8.164-47.164 26.305-9.07" fill="#389826" fill-opacity=".4"/><path d="M1629.559 130.559l-36.614-22.325 45.543 2.68M1619.39 45.508l25.91 18.508-53.671 39.789" fill="#cb3c33" fill-opacity=".4"/><path d="M1639.148 108.95l-47.34-2.786 53.837-39.914" fill="#389826" fill-opacity=".4"/><path d="M1638.473-13.11l7.32 75.016-25.617-18.297M1630.445 135.648l19.313 45.973-29.426 19.309" fill="#4063d8" fill-opacity=".4"/><path d="M1618.156 315.574l-30.523-81.07 63.902 18.121" fill="#9558b2" fill-opacity=".4"/><path d="M1618.828 204.508l31.758 45.77-62.582-17.75" fill="#cb3c33" fill-opacity=".4"/><path d="M1650.05 183.82l1.856 64.848-31.5-45.395M1620.95 358.906l-1.84-38.625 40.464 34.946" fill="#389826" fill-opacity=".4"/><path d="M1652.664 254.773l15.066 60.278-48.03 1.883" fill="#cb3c33" fill-opacity=".4"/><path d="M1661.32 354.09l-40.75-35.192 47.23-1.851" fill="#4063d8" fill-opacity=".4"/><path d="M1640.594 111.11l44.222 7.074-53.066 12.382" fill="#389826" fill-opacity=".4"/><path d="M1651.164 179.809l-19.785-47.106 56.527-13.187" fill="#cb3c33" fill-opacity=".4"/><path d="M1647.645 66.414l39.964 50.191-46.472-7.437M1669.621 318.254l34.063 39.586-40.508-2.762" fill="#9558b2" fill-opacity=".4"/><path d="M1669.547 314.066l-15.156-60.628 59.68 17.05M1690.313 119.41l24.914 16.61-60.899 42.44" fill="#4063d8" fill-opacity=".4"/><path d="M1647.809 61.984l-7.676-78.672 76.75 19.188" fill="#cb3c33" fill-opacity=".4"/><path d="M1715.047 268.688l-60.137-17.184 63-63" fill="#9558b2" fill-opacity=".4"/><path d="M1653.934 249.652l-1.903-66.59 64.688 3.805" fill="#cb3c33" fill-opacity=".4"/><path d="M1716.074 137.863l1.883 47.075-64.02-3.766" fill="#389826" fill-opacity=".4"/><path d="M1689.734 116.059l-40.964-51.446 69.546-16.195" fill="#cb3c33" fill-opacity=".4"/><path d="M1718.047 4.14l.933 42.07-68.246 15.892M1705.414 356.785l-34.863-40.515 48.05-27.325" fill="#389826" fill-opacity=".4"/><path d="M1715.434 271.953l3.421 14.547-43.636 24.813" fill="#cb3c33" fill-opacity=".4"/><path d="M1720.89 286.41l-2.675-11.367 12.703 18.723" fill="#4063d8" fill-opacity=".4"/><path d="M1720.68 288.738l13.062 9.578-25.254 53.118" fill="#cb3c33" fill-opacity=".4"/><path d="M1732.035 362.805l-24.574-4.551 26.394-55.52" fill="#389826" fill-opacity=".4"/><path d="M1719.953 187.29l27.668 7.378-30.434 70.086" fill="#4063d8" fill-opacity=".4"/><path d="M1748.203 192.754l-26.91-7.176 32.293-23.324" fill="#389826" fill-opacity=".4"/><path d="M1719.926 184.098l-1.852-46.235 35.14 22.192M1716.992 134.793l-24.273-16.184 61.136-8.988" fill="#cb3c33" fill-opacity=".4"/><path d="M1720.172 49.164l36.172 58.07-64.73 9.52M1754.098 158.25l-35.278-22.281 38.063-25.996" fill="#389826" fill-opacity=".4"/><path d="M1757.145 104.734l-35.508-57 38.308-6.539" fill="#cb3c33" fill-opacity=".4"/><path d="M1720.973 45.82l-.922-41.52 38.754 35.06" fill="#4063d8" fill-opacity=".4"/><path d="M1734.969 296.172l-17.395-25.633 42.11-13.73" fill="#389826" fill-opacity=".4"/><path d="M1748.672 197.266l12.164 57.062-43.035 14.031" fill="#9558b2" fill-opacity=".4"/><path d="M1718.992.969l-69.61-17.403 112.247 6.09" fill="#4063d8" fill-opacity=".4"/><path d="M1760.266 37.988l-39.23-35.492 45.769-12.144" fill="#cb3c33" fill-opacity=".4"/><path d="M1735.91 300.918l48.02 64.965-49.903-2.824" fill="#4063d8" fill-opacity=".4"/><path d="M1761.824 44.016l23.84 49.52-26.59 12.835" fill="#389826" fill-opacity=".4"/><path d="M1786.832 91.344l-23.945-49.735 36.84 11.051M1755.648 162.09l44.032 44.95-49.535-13.759" fill="#cb3c33" fill-opacity=".4"/><path d="M1762.566 252.86l-12.246-57.454 50.864 14.13M1768.852-9.855l36.02 5.539-42.485 41.558" fill="#389826" fill-opacity=".4"/><path d="M1800.133 50.695l-37.223-11.164 42.805-41.875" fill="#9558b2" fill-opacity=".4"/><path d="M1762.258 256.469l46.047 35.707-71.418 4.699" fill="#cb3c33" fill-opacity=".4"/><path d="M1785.664 364.867l-48.773-65.988 72.683-4.781" fill="#9558b2" fill-opacity=".4"/><path d="M1802.508 211.055l9.242 35.129-47.145 7.394" fill="#cb3c33" fill-opacity=".4"/><path d="M1810.086 291.023l-45.645-35.394 47.508-7.453" fill="#9558b2" fill-opacity=".4"/><path d="M1758.914 109.55l56.524 27.321-59.352 21.668" fill="#cb3c33" fill-opacity=".4"/><path d="M1786.68 95.266l28.199 39.113L1760.3 108" fill="#9558b2" fill-opacity=".4"/><path d="M1802.402 206.96l-45.601-46.554 59.855-21.851" fill="#389826" fill-opacity=".4"/><path d="M1818.535 139.328l15.242 19.727-28.691 44.828" fill="#9558b2" fill-opacity=".4"/><path d="M1807.848-3.5l27.55 12.855-33.062 39.489M1818.168 135.523l-28.344-39.316 50.29 20.117" fill="#cb3c33" fill-opacity=".4"/><path d="M1834.383 156.566l-15.016-19.433 21.2-18.551" fill="#389826" fill-opacity=".4"/><path d="M1801.648 53.215l47.336 12.996-60.328 25.988" fill="#9558b2" fill-opacity=".4"/><path d="M1841.254 114.625l-51.649-20.66 61.04-26.293" fill="#389826" fill-opacity=".4"/><path d="M1836.523 11.125l14.067 53.453-47.824-13.129" fill="#4063d8" fill-opacity=".4"/><path d="M1813.61 245.39l-9.29-35.3 56.668 3.715" fill="#389826" fill-opacity=".4"/><path d="M1834.926 160.973l27.34 50.91-57.512-3.77" fill="#cb3c33" fill-opacity=".4"/><path d="M1813.914 249.023l48.492 39.168-50.36 3.727" fill="#389826" fill-opacity=".4"/><path d="M1811.387 294.98l53.617 62.235-77.555 8.617" fill="#4063d8" fill-opacity=".4"/><path d="M1864.031 290.074l1.887 65.14-52.863-61.362" fill="#cb3c33" fill-opacity=".4"/><path d="M1863.164 214.762l3.719 39.066-51.16-7.441" fill="#9558b2" fill-opacity=".4"/><path d="M1864.168 287.043l-47.7-38.527 50.454 7.34" fill="#cb3c33" fill-opacity=".4"/><path d="M1868.73 252.105l-3.605-37.84 25.227 5.403" fill="#389826" fill-opacity=".4"/><path d="M1852.695 67.621l43.067 27.149-52.43 19.664" fill="#cb3c33" fill-opacity=".4"/><path d="M1868.914 256h26.723l-29.395 30.281" fill="#389826" fill-opacity=".4"/><path d="M1891.43 221.66l5.39 32.34h-26.953" fill="#4063d8" fill-opacity=".4"/><path d="M1891.137 217.793l-25.57-5.48 32.874-55.708" fill="#cb3c33" fill-opacity=".4"/><path d="M1864.043 210.96l-27.461-51.124 61.543-6.629" fill="#389826" fill-opacity=".4"/><path d="M1842.746 117.64l54.258 33.676-60.805 6.547" fill="#4063d8" fill-opacity=".4"/><path d="M1897.05 96.426l1.884 53.734-54.68-33.937M1867.922 355.348l-1.875-64.809 41.324 17.848" fill="#389826" fill-opacity=".4"/><path d="M1897.402 257.05l10.227 49.27-40.902-17.664" fill="#cb3c33" fill-opacity=".4"/><path d="M1897.688 93.621l-42.043-26.504 57.578 1.828" fill="#4063d8" fill-opacity=".4"/><path d="M1908.465 310.195l5.387 24.246-43.106 20.657" fill="#9558b2" fill-opacity=".4"/><path d="M1837.152 7.969l-25.465-11.887 95.067 1.7" fill="#4063d8" fill-opacity=".4"/><path d="M1914.055 66.969l-59.762-1.895 63.559-65.457" fill="#cb3c33" fill-opacity=".4"/><path d="M1852.516 64.031L1838.25 9.828l77.98-11.414M1919.906-1.273l15.871 9.699-19.402 52.914" fill="#9558b2" fill-opacity=".4"/><path d="M1915.023 69.84l19.887 29.828-35.254-5.426M1900.95 150.55l-1.868-53.25 42.04 37.368" fill="#cb3c33" fill-opacity=".4"/><path d="M1936.14 101.879l5.376 30.465-40.32-35.84" fill="#9558b2" fill-opacity=".4"/><path d="M1914.887 336.164l35.781 26.606-79.816-5.508" fill="#4063d8" fill-opacity=".4"/><path d="M1898.836 253.926l-5.535-33.196 59.941 28.586" fill="#389826" fill-opacity=".4"/><path d="M1937.242 10.242l19.375 30.446-39.672 24.91" fill="#4063d8" fill-opacity=".4"/><path d="M1936.719 98.777l-20.317-30.476 39.711-24.934M1953.18 362.145l-36.598-27.215 43.168-38.477" fill="#9558b2" fill-opacity=".4"/><path d="M1915.605 333.121l-5.421-24.402 47-12.656" fill="#cb3c33" fill-opacity=".4"/><path d="M1909.766 306.758l-10.313-49.684 59.059 36.559" fill="#389826" fill-opacity=".4"/><path d="M1956.094 251.082l3.73 41.012-58.726-36.352M1900.734 154.29l58.97 64.679-66.579-.953" fill="#9558b2" fill-opacity=".4"/><path d="M1942.281 136.36l17.922 80.183-58.488-64.145" fill="#4063d8" fill-opacity=".4"/><path d="M1956.23 248.527l-59.675-28.46 64.27.917M1962.484 217.582l-17.617-78.816 39.871 47.289" fill="#cb3c33" fill-opacity=".4"/><path d="M1943.629 132.82l-5.5-31.175 51.348-19.254" fill="#389826" fill-opacity=".4"/><path d="M1958.387 42.926l32.89 36.652-52.629 19.734" fill="#4063d8" fill-opacity=".4"/><path d="M1961.875 295.305l37.41 11.222-43.957 54.246" fill="#389826" fill-opacity=".4"/><path d="M1984.25 365.922l-28.3-2.738 42.905-52.95" fill="#cb3c33" fill-opacity=".4"/><path d="M1937.16 6.926l-14.976-9.153 69.058-4.992" fill="#4063d8" fill-opacity=".4"/><path d="M1958.129 39.34L1938.582 8.62l60.508-15.824" fill="#9558b2" fill-opacity=".4"/><path d="M1992.84 78.324l-31.211-34.777 41.91 16.941" fill="#389826" fill-opacity=".4"/><path d="M2001.11-6.473l2.824 64.961-44.25-17.886" fill="#cb3c33" fill-opacity=".4"/><path d="M1985.86 184.281l-40.598-48.152 67.035 3.777" fill="#389826" fill-opacity=".4"/><path d="M1992.617 81.906l19.938 56.012-67.403-3.797" fill="#4063d8" fill-opacity=".4"/><path d="M2000.348 304.762l-37.114-11.137 52.887-38.043" fill="#9558b2" fill-opacity=".4"/><path d="M1961.836 292.164l-3.734-41.11 56.992 2.805" fill="#cb3c33" fill-opacity=".4"/><path d="M1962.746 221.602l51.25 30.199-55.824-2.746M1986.387 187.188l40.234 13.718-62.184 17.375" fill="#389826" fill-opacity=".4"/><path d="M2017.332 251.445l-52.8-31.113 64.116-17.914" fill="#4063d8" fill-opacity=".4"/><path d="M2013.633 141.574l14.937 57.883-41.078-14.004" fill="#9558b2" fill-opacity=".4"/><path d="M2029.902 205.871l8.88 47.074-19.536-.89M2005.953 58.922l-2.793-64.234 39.102 61.44" fill="#389826" fill-opacity=".4"/><path d="M2005.59 60.957l32.797-2.523-42.887 19.34M2030.152 197.594l-14.8-57.356 33.304 5.551" fill="#cb3c33" fill-opacity=".4"/><path d="M2018.5 254.719l33.613 28.011-49.488 21.473" fill="#389826" fill-opacity=".4"/><path d="M2039.36 254.973l11.73 24.3-30.168-25.14" fill="#4063d8" fill-opacity=".4"/><path d="M2001.566 307.785l54.157 45.606-69.36 12.351" fill="#389826" fill-opacity=".4"/><path d="M2053.082 284.488l3.79 67.254-53.993-45.469" fill="#4063d8" fill-opacity=".4"/><path d="M2014.535 137.52l-19.824-55.7 66.086 28.325" fill="#cb3c33" fill-opacity=".4"/><path d="M2043.426 58.355l17.86 49.82-65.802-28.198" fill="#389826" fill-opacity=".4"/><path d="M2049.352 143.879l-32.485-5.414 44.211-26.168" fill="#4063d8" fill-opacity=".4"/><path d="M2043.71 54.68l-39.956-62.785 61.836-3.805M2040.621 251.902l-9.371-49.672 48.73 8.434" fill="#cb3c33" fill-opacity=".4"/><path d="M2050.148 147.563l30.086 61.117-48.894-8.461" fill="#4063d8" fill-opacity=".4"/><path d="M2058.945 353l-3.61-64.086L2081.513 353" fill="#389826" fill-opacity=".4"/><path d="M2063.66 111.098l19.09 2.605-30.371 27.77M2082.168 349.32l-26.215-64.187 28.024 14.465M2054.277 281.277l-12.77-26.457 43.794-5.476" fill="#9558b2" fill-opacity=".4"/><path d="M2081.328 212.152l5.524 34.985-44.192 5.523" fill="#4063d8" fill-opacity=".4"/><path d="M2084.094 297.406l-28.438-14.676 31.188-32.105" fill="#cb3c33" fill-opacity=".4"/><path d="M2084.18 111.879l-19.551-2.668 28.441-47.992" fill="#4063d8" fill-opacity=".4"/><path d="M2063.223 107.66l-17.813-49.687 47.813-.938" fill="#cb3c33" fill-opacity=".4"/><path d="M2067.098-10.098l26.43 65.125-48.137.946" fill="#9558b2" fill-opacity=".4"/><path d="M2094.898 53.086l-25.82-63.625 38.727 23.977M2081.914 207.563l-30.426-61.81 59.903-10.456" fill="#389826" fill-opacity=".4"/><path d="M2085.063 114.297l25.488 19.117-57.348 10.012M2088.16 242.602l-5.129-32.48 26.5-64.966" fill="#cb3c33" fill-opacity=".4"/><path d="M2088.992 248.137l16.02-73.047-17.942 105.726" fill="#389826" fill-opacity=".4"/><path d="M2095.133 61.027l16.277 70.532-25.32-18.993" fill="#9558b2" fill-opacity=".4"/><path d="M2108.188 18.723l3.472 105.027-15.625-67.703" fill="#cb3c33" fill-opacity=".4"/></svg>