<svg xmlns="http://www.w3.org/2000/svg" width="2000" height="310" viewBox="0 0 2000 310">
<style>
  .a{
     stroke:none;
    fill:rgb(20%,20%,20%);
  }
</style>
    <rect width="2000" height="310" fill="rgb(10.196078%,10.196078%,10.196078%)"/>
    <path d="M22 67.8L38.8 60.8 55.5 67.8" class="a"/>
    <path d="M55.5 9.7L57.9 27.7 72.3 38.8" class="a"/>
    <path d="M72.3 38.8L57.9 49.8 55.5 67.8" class="a"/>
    <path d="M22 67.8L19.6 49.8 5.2 38.8" class="a"/>
    <path d="M22 9.7L38.8 16.7 55.5 9.7" class="a"/>
    <path d="M5.2 38.8L19.6 27.7 22 9.7" class="a"/>
    <path d="M89.1 67.8L88 49.1 72.3 38.8" class="a"/>
    <path d="M89.1 67.8L105.9 59.4 122.6 67.8" class="a"/>
    <path d="M89.1 9.7L105.9 18.1 122.6 9.7" class="a"/>
    <path d="M122.6 9.7L123.8 28.4 139.4 38.8" class="a"/>
    <path d="M139.4 38.8L123.8 49.1 122.6 67.8" class="a"/>
    <path d="M72.3 38.8L88 28.4 89.1 9.7" class="a"/>
    <path d="M156.2 9.7L173 19.6 189.8 9.7" class="a"/>
    <path d="M206.5 38.8L189.6 48.3 189.8 67.8" class="a"/>
    <path d="M156.2 67.8L156.4 48.3 139.4 38.8" class="a"/>
    <path d="M156.2 67.8L173 57.9 189.8 67.8" class="a"/>
    <path d="M139.4 38.8L156.4 29.2 156.2 9.7" class="a"/>
    <path d="M189.8 9.7L189.6 29.2 206.5 38.8" class="a"/>
    <path d="M273.7 38.8L255.3 47.5 256.9 67.8" class="a"/>
    <path d="M223.3 67.8L224.9 47.5 206.5 38.8" class="a"/>
    <path d="M223.3 67.8L240.1 56.3 256.9 67.8" class="a"/>
    <path d="M223.3 9.7L240.1 21.2 256.9 9.7" class="a"/>
    <path d="M256.9 9.7L255.3 30 273.7 38.8" class="a"/>
    <path d="M206.5 38.8L224.9 30 223.3 9.7" class="a"/>
    <path d="M290.4 9.7L307.2 23 324 9.7" class="a"/>
    <path d="M290.4 67.8L293.5 46.6 273.7 38.8" class="a"/>
    <path d="M324 9.7L320.9 30.9 340.8 38.8" class="a"/>
    <path d="M340.8 38.8L320.9 46.6 324 67.8" class="a"/>
    <path d="M290.4 67.8L307.2 54.5 324 67.8" class="a"/>
    <path d="M273.7 38.8L293.5 30.9 290.4 9.7" class="a"/>
    <path d="M357.6 9.7L374.3 24.9 391.1 9.7" class="a"/>
    <path d="M357.6 67.8L362.4 45.7 340.8 38.8" class="a"/>
    <path d="M391.1 9.7L386.3 31.8 407.9 38.8" class="a"/>
    <path d="M340.8 38.8L362.4 31.8 357.6 9.7" class="a"/>
    <path d="M357.6 67.8L374.3 52.6 391.1 67.8" class="a"/>
    <path d="M407.9 38.8L386.3 45.7 391.1 67.8" class="a"/>
    <path d="M424.7 9.7L441.5 27.2 458.2 9.7" class="a"/>
    <path d="M407.9 38.8L431.4 33 424.7 9.7" class="a"/>
    <path d="M424.7 67.8L431.4 44.5 407.9 38.8" class="a"/>
    <path d="M424.7 67.8L441.5 50.3 458.2 67.8" class="a"/>
    <path d="M458.2 9.7L451.5 33 475 38.8" class="a"/>
    <path d="M475 38.8L451.5 44.5 458.2 67.8" class="a"/>
    <path d="M491.8 9.7L508.6 29.8 525.3 9.7" class="a"/>
    <path d="M525.3 9.7L516.3 34.3 542.1 38.8" class="a"/>
    <path d="M542.1 38.8L516.3 43.2 525.3 67.8" class="a"/>
    <path d="M491.8 67.8L500.8 43.2 475 38.8" class="a"/>
    <path d="M491.8 67.8L508.6 47.7 525.3 67.8" class="a"/>
    <path d="M475 38.8L500.8 34.3 491.8 9.7" class="a"/>
    <path d="M558.9 9.7L575.7 32.8 592.5 9.7" class="a"/>
    <path d="M592.5 9.7L580.8 35.8 609.2 38.8" class="a"/>
    <path d="M609.2 38.8L580.8 41.7 592.5 67.8" class="a"/>
    <path d="M558.9 67.8L570.5 41.7 542.1 38.8" class="a"/>
    <path d="M558.9 67.8L575.7 44.7 592.5 67.8" class="a"/>
    <path d="M542.1 38.8L570.5 35.8 558.9 9.7" class="a"/>
    <path d="M626 9.7L642.8 36.5 659.6 9.7" class="a"/>
    <path d="M659.6 9.7L644.8 37.6 676.4 38.8" class="a"/>
    <path d="M626 67.8L640.8 39.9 609.2 38.8" class="a"/>
    <path d="M609.2 38.8L640.8 37.6 626 9.7" class="a"/>
    <path d="M626 67.8L642.8 41 659.6 67.8" class="a"/>
    <path d="M676.4 38.8L644.8 39.9 659.6 67.8" class="a"/>
    <path d="M693.1 9.7L709.9 36.7 726.7 9.7" class="a"/>
    <path d="M693.1 67.8L708.2 39.8 676.4 38.8" class="a"/>
    <path d="M726.7 9.7L711.7 37.7 743.5 38.8" class="a"/>
    <path d="M676.4 38.8L708.2 37.7 693.1 9.7" class="a"/>
    <path d="M693.1 67.8L709.9 40.8 726.7 67.8" class="a"/>
    <path d="M743.5 38.8L711.7 39.8 726.7 67.8" class="a"/>
    <path d="M760.3 9.7L777 33 793.8 9.7" class="a"/>
    <path d="M810.6 38.8L782 41.6 793.8 67.8" class="a"/>
    <path d="M793.8 9.7L782 35.9 810.6 38.8" class="a"/>
    <path d="M760.3 67.8L777 44.5 793.8 67.8" class="a"/>
    <path d="M760.3 67.8L772.1 41.6 743.5 38.8" class="a"/>
    <path d="M743.5 38.8L772.1 35.9 760.3 9.7" class="a"/>
    <path d="M877.7 38.8L851.8 43.1 860.9 67.8" class="a"/>
    <path d="M827.4 9.7L844.2 30 860.9 9.7" class="a"/>
    <path d="M860.9 9.7L851.8 34.4 877.7 38.8" class="a"/>
    <path d="M827.4 67.8L836.5 43.1 810.6 38.8" class="a"/>
    <path d="M810.6 38.8L836.5 34.4 827.4 9.7" class="a"/>
    <path d="M827.4 67.8L844.2 47.5 860.9 67.8" class="a"/>
    <path d="M894.5 9.7L911.3 27.4 928.1 9.7" class="a"/>
    <path d="M928.1 9.7L921.1 33.1 944.8 38.8" class="a"/>
    <path d="M894.5 67.8L901.4 44.4 877.7 38.8" class="a"/>
    <path d="M944.8 38.8L921.1 44.4 928.1 67.8" class="a"/>
    <path d="M894.5 67.8L911.3 50.1 928.1 67.8" class="a"/>
    <path d="M877.7 38.8L901.4 33.1 894.5 9.7" class="a"/>
    <path d="M961.6 67.8L966.6 45.5 944.8 38.8" class="a"/>
    <path d="M961.6 9.7L978.4 25.2 995.2 9.7" class="a"/>
    <path d="M995.2 9.7L990.2 32 1011.9 38.8" class="a"/>
    <path d="M1011.9 38.8L990.2 45.5 995.2 67.8" class="a"/>
    <path d="M961.6 67.8L978.4 52.3 995.2 67.8" class="a"/>
    <path d="M944.8 38.8L966.6 32 961.6 9.7" class="a"/>
    <path d="M1028.7 67.8L1032 46.5 1011.9 38.8" class="a"/>
    <path d="M1028.7 9.7L1045.5 23.2 1062.3 9.7" class="a"/>
    <path d="M1062.3 9.7L1059 31 1079.1 38.8" class="a"/>
    <path d="M1028.7 67.8L1045.5 54.3 1062.3 67.8" class="a"/>
    <path d="M1011.9 38.8L1032 31 1028.7 9.7" class="a"/>
    <path d="M1079.1 38.8L1059 46.5 1062.3 67.8" class="a"/>
    <path d="M1095.8 67.8L1097.6 47.4 1079.1 38.8" class="a"/>
    <path d="M1095.8 9.7L1112.6 21.4 1129.4 9.7" class="a"/>
    <path d="M1129.4 9.7L1127.6 30.1 1146.2 38.8" class="a"/>
    <path d="M1095.8 67.8L1112.6 56.1 1129.4 67.8" class="a"/>
    <path d="M1079.1 38.8L1097.6 30.1 1095.8 9.7" class="a"/>
    <path d="M1146.2 38.8L1127.6 47.4 1129.4 67.8" class="a"/>
    <path d="M1213.3 38.8L1196.1 48.2 1196.5 67.8" class="a"/>
    <path d="M1163 67.8L1179.7 57.6 1196.5 67.8" class="a"/>
    <path d="M1163 67.8L1163.4 48.2 1146.2 38.8" class="a"/>
    <path d="M1146.2 38.8L1163.4 29.3 1163 9.7" class="a"/>
    <path d="M1163 9.7L1179.7 19.9 1196.5 9.7" class="a"/>
    <path d="M1196.5 9.7L1196.1 29.3 1213.3 38.8" class="a"/>
    <path d="M1230.1 9.7L1246.9 18.4 1263.6 9.7" class="a"/>
    <path d="M1230.1 67.8L1229.2 48.9 1213.3 38.8" class="a"/>
    <path d="M1230.1 67.8L1246.9 59.1 1263.6 67.8" class="a"/>
    <path d="M1213.3 38.8L1229.2 28.6 1230.1 9.7" class="a"/>
    <path d="M1263.6 9.7L1264.5 28.6 1280.4 38.8" class="a"/>
    <path d="M1280.4 38.8L1264.5 48.9 1263.6 67.8" class="a"/>
    <path d="M1297.2 67.8L1314 60.4 1330.8 67.8" class="a"/>
    <path d="M1297.2 67.8L1295.2 49.6 1280.4 38.8" class="a"/>
    <path d="M1297.2 9.7L1314 17.1 1330.8 9.7" class="a"/>
    <path d="M1330.8 9.7L1332.8 27.9 1347.5 38.8" class="a"/>
    <path d="M1347.5 38.8L1332.8 49.6 1330.8 67.8" class="a"/>
    <path d="M1280.4 38.8L1295.2 27.9 1297.2 9.7" class="a"/>
    <path d="M1414.6 38.8L1400.9 50.2 1397.9 67.8" class="a"/>
    <path d="M1364.3 67.8L1361.2 50.2 1347.5 38.8" class="a"/>
    <path d="M1364.3 67.8L1381.1 61.7 1397.9 67.8" class="a"/>
    <path d="M1347.5 38.8L1361.2 27.3 1364.3 9.7" class="a"/>
    <path d="M1364.3 9.7L1381.1 15.8 1397.9 9.7" class="a"/>
    <path d="M1397.9 9.7L1400.9 27.3 1414.6 38.8" class="a"/>
    <path d="M1431.4 67.8L1448.2 62.9 1465 67.8" class="a"/>
    <path d="M1431.4 67.8L1427.3 50.8 1414.6 38.8" class="a"/>
    <path d="M1414.6 38.8L1427.3 26.7 1431.4 9.7" class="a"/>
    <path d="M1465 9.7L1469.1 26.7 1481.8 38.8" class="a"/>
    <path d="M1481.8 38.8L1469.1 50.8 1465 67.8" class="a"/>
    <path d="M1431.4 9.7L1448.2 14.6 1465 9.7" class="a"/>
    <path d="M1498.5 67.8L1515.3 64 1532.1 67.8" class="a"/>
    <path d="M1532.1 9.7L1537.2 26.1 1548.9 38.8" class="a"/>
    <path d="M1548.9 38.8L1537.2 51.4 1532.1 67.8" class="a"/>
    <path d="M1498.5 67.8L1493.5 51.4 1481.8 38.8" class="a"/>
    <path d="M1498.5 9.7L1515.3 13.5 1532.1 9.7" class="a"/>
    <path d="M1481.8 38.8L1493.5 26.1 1498.5 9.7" class="a"/>
    <path d="M1565.7 67.8L1582.4 65 1599.2 67.8" class="a"/>
    <path d="M1616 38.8L1605.2 51.9 1599.2 67.8" class="a"/>
    <path d="M1565.7 67.8L1559.7 51.9 1548.9 38.8" class="a"/>
    <path d="M1548.9 38.8L1559.7 25.6 1565.7 9.7" class="a"/>
    <path d="M1565.7 9.7L1582.4 12.5 1599.2 9.7" class="a"/>
    <path d="M1599.2 9.7L1605.2 25.6 1616 38.8" class="a"/>
    <path d="M1632.8 67.8L1649.6 66 1666.3 67.8" class="a"/>
    <path d="M1683.1 38.8L1673.1 52.4 1666.3 67.8" class="a"/>
    <path d="M1632.8 67.8L1626 52.4 1616 38.8" class="a"/>
    <path d="M1616 38.8L1626 25.1 1632.8 9.7" class="a"/>
    <path d="M1632.8 9.7L1649.6 11.5 1666.3 9.7" class="a"/>
    <path d="M1666.3 9.7L1673.1 25.1 1683.1 38.8" class="a"/>
    <path d="M1699.9 67.8L1716.7 66.9 1733.5 67.8" class="a"/>
    <path d="M1699.9 67.8L1692.3 52.8 1683.1 38.8" class="a"/>
    <path d="M1750.2 38.8L1741 52.8 1733.5 67.8" class="a"/>
    <path d="M1683.1 38.8L1692.3 24.7 1699.9 9.7" class="a"/>
    <path d="M1733.5 9.7L1741 24.7 1750.2 38.8" class="a"/>
    <path d="M1699.9 9.7L1716.7 10.6 1733.5 9.7" class="a"/>
    <path d="M1767 67.8L1783.8 67.6 1800.6 67.8" class="a"/>
    <path d="M1817.4 38.8L1808.8 53.2 1800.6 67.8" class="a"/>
    <path d="M1767 67.8L1758.8 53.2 1750.2 38.8" class="a"/>
    <path d="M1750.2 38.8L1758.8 24.3 1767 9.7" class="a"/>
    <path d="M1767 9.7L1783.8 9.9 1800.6 9.7" class="a"/>
    <path d="M1800.6 9.7L1808.8 24.3 1817.4 38.8" class="a"/>
    <path d="M1834.1 67.8L1850.9 68.3 1867.7 67.8" class="a"/>
    <path d="M1834.1 67.8L1825.3 53.5 1817.4 38.8" class="a"/>
    <path d="M1884.5 38.8L1876.5 53.5 1867.7 67.8" class="a"/>
    <path d="M1817.4 38.8L1825.3 24 1834.1 9.7" class="a"/>
    <path d="M1834.1 9.7L1850.9 9.2 1867.7 9.7" class="a"/>
    <path d="M1867.7 9.7L1876.5 24 1884.5 38.8" class="a"/>
    <path d="M1901.2 67.8L1918 68.8 1934.8 67.8" class="a"/>
    <path d="M1951.6 38.8L1944 53.8 1934.8 67.8" class="a"/>
    <path d="M1884.5 38.8L1892 23.8 1901.2 9.7" class="a"/>
    <path d="M1901.2 67.8L1892 53.8 1884.5 38.8" class="a"/>
    <path d="M1901.2 9.7L1918 8.8 1934.8 9.7" class="a"/>
    <path d="M1934.8 9.7L1944 23.8 1951.6 38.8" class="a"/>
    <path d="M1968.4 67.8L1985.1 69 2001.9 67.8" class="a"/>
    <path d="M1968.4 67.8L1959 53.9 1951.6 38.8" class="a"/>
    <path d="M1951.6 38.8L1959 23.6 1968.4 9.7" class="a"/>
    <path d="M1968.4 9.7L1985.1 8.5 2001.9 9.7" class="a"/>
    <path d="M55.5 125.9L72.3 118.1 89.1 125.9" class="a"/>
    <path d="M55.5 67.8L72.3 75.6 89.1 67.8" class="a"/>
    <path d="M89.1 67.8L90.7 86.3 105.9 96.9" class="a"/>
    <path d="M105.9 96.9L90.7 107.5 89.1 125.9" class="a"/>
    <path d="M55.5 125.9L53.9 107.5 38.8 96.9" class="a"/>
    <path d="M38.8 96.9L53.9 86.3 55.5 67.8" class="a"/>
    <path d="M173 96.9L156.6 106.8 156.2 125.9" class="a"/>
    <path d="M122.6 125.9L122.3 106.8 105.9 96.9" class="a"/>
    <path d="M122.6 125.9L139.4 116.7 156.2 125.9" class="a"/>
    <path d="M122.6 67.8L139.4 77.1 156.2 67.8" class="a"/>
    <path d="M156.2 67.8L156.6 87 173 96.9" class="a"/>
    <path d="M105.9 96.9L122.3 87 122.6 67.8" class="a"/>
    <path d="M189.8 67.8L206.5 78.7 223.3 67.8" class="a"/>
    <path d="M240.1 96.9L222.3 106 223.3 125.9" class="a"/>
    <path d="M189.8 125.9L190.8 106 173 96.9" class="a"/>
    <path d="M189.8 125.9L206.5 115.1 223.3 125.9" class="a"/>
    <path d="M173 96.9L190.8 87.8 189.8 67.8" class="a"/>
    <path d="M223.3 67.8L222.3 87.8 240.1 96.9" class="a"/>
    <path d="M256.9 67.8L273.7 80.4 290.4 67.8" class="a"/>
    <path d="M256.9 125.9L259.4 105.1 240.1 96.9" class="a"/>
    <path d="M256.9 125.9L273.7 113.4 290.4 125.9" class="a"/>
    <path d="M240.1 96.9L259.4 88.6 256.9 67.8" class="a"/>
    <path d="M290.4 67.8L287.9 88.6 307.2 96.9" class="a"/>
    <path d="M307.2 96.9L287.9 105.1 290.4 125.9" class="a"/>
    <path d="M324 67.8L340.8 82.3 357.6 67.8" class="a"/>
    <path d="M324 125.9L328.2 104.2 307.2 96.9" class="a"/>
    <path d="M307.2 96.9L328.2 89.6 324 67.8" class="a"/>
    <path d="M357.6 67.8L353.4 89.6 374.3 96.9" class="a"/>
    <path d="M324 125.9L340.8 111.4 357.6 125.9" class="a"/>
    <path d="M374.3 96.9L353.4 104.2 357.6 125.9" class="a"/>
    <path d="M391.1 67.8L407.9 84.4 424.7 67.8" class="a"/>
    <path d="M391.1 125.9L397.1 103.1 374.3 96.9" class="a"/>
    <path d="M424.7 67.8L418.7 90.7 441.5 96.9" class="a"/>
    <path d="M391.1 125.9L407.9 109.3 424.7 125.9" class="a"/>
    <path d="M374.3 96.9L397.1 90.7 391.1 67.8" class="a"/>
    <path d="M441.5 96.9L418.7 103.1 424.7 125.9" class="a"/>
    <path d="M458.2 67.8L475 86.9 491.8 67.8" class="a"/>
    <path d="M508.6 96.9L483.6 101.9 491.8 125.9" class="a"/>
    <path d="M458.2 125.9L466.4 101.9 441.5 96.9" class="a"/>
    <path d="M458.2 125.9L475 106.8 491.8 125.9" class="a"/>
    <path d="M441.5 96.9L466.4 91.9 458.2 67.8" class="a"/>
    <path d="M491.8 67.8L483.6 91.9 508.6 96.9" class="a"/>
    <path d="M525.3 67.8L542.1 89.8 558.9 67.8" class="a"/>
    <path d="M525.3 125.9L536 100.4 508.6 96.9" class="a"/>
    <path d="M558.9 67.8L548.3 93.3 575.7 96.9" class="a"/>
    <path d="M508.6 96.9L536 93.3 525.3 67.8" class="a"/>
    <path d="M525.3 125.9L542.1 104 558.9 125.9" class="a"/>
    <path d="M575.7 96.9L548.3 100.4 558.9 125.9" class="a"/>
    <path d="M592.5 67.8L609.2 93.2 626 67.8" class="a"/>
    <path d="M626 67.8L612.4 95.1 642.8 96.9" class="a"/>
    <path d="M592.5 125.9L606.1 98.7 575.7 96.9" class="a"/>
    <path d="M592.5 125.9L609.2 100.5 626 125.9" class="a"/>
    <path d="M575.7 96.9L606.1 95.1 592.5 67.8" class="a"/>
    <path d="M642.8 96.9L612.4 98.7 626 125.9" class="a"/>
    <path d="M659.6 67.8L676.4 96.3 693.1 67.8" class="a"/>
    <path d="M693.1 67.8L676.9 96.6 709.9 96.9" class="a"/>
    <path d="M659.6 125.9L675.9 97.2 642.8 96.9" class="a"/>
    <path d="M642.8 96.9L675.9 96.6 659.6 67.8" class="a"/>
    <path d="M659.6 125.9L676.4 97.5 693.1 125.9" class="a"/>
    <path d="M709.9 96.9L676.9 97.2 693.1 125.9" class="a"/>
    <path d="M726.7 67.8L743.5 92.3 760.3 67.8" class="a"/>
    <path d="M777 96.9L747.5 99.2 760.3 125.9" class="a"/>
    <path d="M760.3 67.8L747.5 94.6 777 96.9" class="a"/>
    <path d="M726.7 125.9L743.5 101.5 760.3 125.9" class="a"/>
    <path d="M726.7 125.9L739.5 99.2 709.9 96.9" class="a"/>
    <path d="M709.9 96.9L739.5 94.6 726.7 67.8" class="a"/>
    <path d="M793.8 67.8L810.6 89 827.4 67.8" class="a"/>
    <path d="M793.8 125.9L803.8 100.8 777 96.9" class="a"/>
    <path d="M844.2 96.9L817.4 100.8 827.4 125.9" class="a"/>
    <path d="M827.4 67.8L817.4 92.9 844.2 96.9" class="a"/>
    <path d="M793.8 125.9L810.6 104.7 827.4 125.9" class="a"/>
    <path d="M777 96.9L803.8 92.9 793.8 67.8" class="a"/>
    <path d="M860.9 67.8L877.7 86.3 894.5 67.8" class="a"/>
    <path d="M911.3 96.9L886.9 102.2 894.5 125.9" class="a"/>
    <path d="M844.2 96.9L868.5 91.6 860.9 67.8" class="a"/>
    <path d="M894.5 67.8L886.9 91.6 911.3 96.9" class="a"/>
    <path d="M860.9 125.9L877.7 107.5 894.5 125.9" class="a"/>
    <path d="M860.9 125.9L868.5 102.2 844.2 96.9" class="a"/>
    <path d="M928.1 67.8L944.8 83.9 961.6 67.8" class="a"/>
    <path d="M928.1 125.9L933.6 103.4 911.3 96.9" class="a"/>
    <path d="M911.3 96.9L933.6 90.4 928.1 67.8" class="a"/>
    <path d="M961.6 67.8L956.1 90.4 978.4 96.9" class="a"/>
    <path d="M928.1 125.9L944.8 109.8 961.6 125.9" class="a"/>
    <path d="M978.4 96.9L956.1 103.4 961.6 125.9" class="a"/>
    <path d="M995.2 67.8L1011.9 81.9 1028.7 67.8" class="a"/>
    <path d="M995.2 125.9L998.9 104.4 978.4 96.9" class="a"/>
    <path d="M995.2 125.9L1011.9 111.9 1028.7 125.9" class="a"/>
    <path d="M1028.7 67.8L1025 89.4 1045.5 96.9" class="a"/>
    <path d="M1045.5 96.9L1025 104.4 1028.7 125.9" class="a"/>
    <path d="M978.4 96.9L998.9 89.4 995.2 67.8" class="a"/>
    <path d="M1062.3 125.9L1064.5 105.3 1045.5 96.9" class="a"/>
    <path d="M1045.5 96.9L1064.5 88.4 1062.3 67.8" class="a"/>
    <path d="M1062.3 67.8L1079.1 80 1095.8 67.8" class="a"/>
    <path d="M1095.8 67.8L1093.7 88.4 1112.6 96.9" class="a"/>
    <path d="M1062.3 125.9L1079.1 113.7 1095.8 125.9" class="a"/>
    <path d="M1112.6 96.9L1093.7 105.3 1095.8 125.9" class="a"/>
    <path d="M1112.6 96.9L1130.2 87.6 1129.4 67.8" class="a"/>
    <path d="M1129.4 67.8L1146.2 78.4 1163 67.8" class="a"/>
    <path d="M1129.4 125.9L1146.2 115.4 1163 125.9" class="a"/>
    <path d="M1129.4 125.9L1130.2 106.1 1112.6 96.9" class="a"/>
    <path d="M1179.7 96.9L1162.2 106.1 1163 125.9" class="a"/>
    <path d="M1163 67.8L1162.2 87.6 1179.7 96.9" class="a"/>
    <path d="M1196.5 67.8L1213.3 76.9 1230.1 67.8" class="a"/>
    <path d="M1196.5 125.9L1213.3 116.9 1230.1 125.9" class="a"/>
    <path d="M1196.5 125.9L1196 106.9 1179.7 96.9" class="a"/>
    <path d="M1179.7 96.9L1196 86.9 1196.5 67.8" class="a"/>
    <path d="M1230.1 67.8L1230.6 86.9 1246.9 96.9" class="a"/>
    <path d="M1246.9 96.9L1230.6 106.9 1230.1 125.9" class="a"/>
    <path d="M1263.6 67.8L1280.4 75.5 1297.2 67.8" class="a"/>
    <path d="M1314 96.9L1299 107.6 1297.2 125.9" class="a"/>
    <path d="M1263.6 125.9L1280.4 118.3 1297.2 125.9" class="a"/>
    <path d="M1263.6 125.9L1261.9 107.6 1246.9 96.9" class="a"/>
    <path d="M1246.9 96.9L1261.9 86.2 1263.6 67.8" class="a"/>
    <path d="M1297.2 67.8L1299 86.2 1314 96.9" class="a"/>
    <path d="M1330.8 125.9L1347.5 119.6 1364.3 125.9" class="a"/>
    <path d="M1330.8 125.9L1327.9 108.2 1314 96.9" class="a"/>
    <path d="M1314 96.9L1327.9 85.5 1330.8 67.8" class="a"/>
    <path d="M1330.8 67.8L1347.5 74.2 1364.3 67.8" class="a"/>
    <path d="M1364.3 67.8L1367.2 85.5 1381.1 96.9" class="a"/>
    <path d="M1381.1 96.9L1367.2 108.2 1364.3 125.9" class="a"/>
    <path d="M1397.9 125.9L1414.6 120.8 1431.4 125.9" class="a"/>
    <path d="M1397.9 125.9L1393.9 108.9 1381.1 96.9" class="a"/>
    <path d="M1431.4 67.8L1435.4 84.9 1448.2 96.9" class="a"/>
    <path d="M1448.2 96.9L1435.4 108.9 1431.4 125.9" class="a"/>
    <path d="M1397.9 67.8L1414.6 72.9 1431.4 67.8" class="a"/>
    <path d="M1381.1 96.9L1393.9 84.9 1397.9 67.8" class="a"/>
    <path d="M1465 125.9L1481.8 122 1498.5 125.9" class="a"/>
    <path d="M1465 125.9L1460 109.4 1448.2 96.9" class="a"/>
    <path d="M1448.2 96.9L1460 84.3 1465 67.8" class="a"/>
    <path d="M1465 67.8L1481.8 71.8 1498.5 67.8" class="a"/>
    <path d="M1498.5 67.8L1503.5 84.3 1515.3 96.9" class="a"/>
    <path d="M1515.3 96.9L1503.5 109.4 1498.5 125.9" class="a"/>
    <path d="M1532.1 125.9L1548.9 123.1 1565.7 125.9" class="a"/>
    <path d="M1532.1 125.9L1526.2 110 1515.3 96.9" class="a"/>
    <path d="M1565.7 67.8L1571.6 83.8 1582.4 96.9" class="a"/>
    <path d="M1582.4 96.9L1571.6 110 1565.7 125.9" class="a"/>
    <path d="M1515.3 96.9L1526.2 83.8 1532.1 67.8" class="a"/>
    <path d="M1532.1 67.8L1548.9 70.6 1565.7 67.8" class="a"/>
    <path d="M1599.2 125.9L1616 124.2 1632.8 125.9" class="a"/>
    <path d="M1649.6 96.9L1639.6 110.5 1632.8 125.9" class="a"/>
    <path d="M1599.2 125.9L1592.4 110.5 1582.4 96.9" class="a"/>
    <path d="M1582.4 96.9L1592.4 83.2 1599.2 67.8" class="a"/>
    <path d="M1599.2 67.8L1616 69.6 1632.8 67.8" class="a"/>
    <path d="M1632.8 67.8L1639.6 83.2 1649.6 96.9" class="a"/>
    <path d="M1666.3 125.9L1683.1 125.2 1699.9 125.9" class="a"/>
    <path d="M1666.3 125.9L1658.6 111 1649.6 96.9" class="a"/>
    <path d="M1699.9 67.8L1707.6 82.7 1716.7 96.9" class="a"/>
    <path d="M1716.7 96.9L1707.6 111 1699.9 125.9" class="a"/>
    <path d="M1649.6 96.9L1658.6 82.7 1666.3 67.8" class="a"/>
    <path d="M1666.3 67.8L1683.1 68.6 1699.9 67.8" class="a"/>
    <path d="M1733.5 125.9L1750.2 126.1 1767 125.9" class="a"/>
    <path d="M1733.5 125.9L1724.9 111.5 1716.7 96.9" class="a"/>
    <path d="M1767 67.8L1775.5 82.3 1783.8 96.9" class="a"/>
    <path d="M1783.8 96.9L1775.5 111.5 1767 125.9" class="a"/>
    <path d="M1716.7 96.9L1724.9 82.3 1733.5 67.8" class="a"/>
    <path d="M1733.5 67.8L1750.2 67.7 1767 67.8" class="a"/>
    <path d="M1800.6 125.9L1817.4 126.9 1834.1 125.9" class="a"/>
    <path d="M1850.9 96.9L1843.4 111.9 1834.1 125.9" class="a"/>
    <path d="M1800.6 125.9L1791.3 111.9 1783.8 96.9" class="a"/>
    <path d="M1783.8 96.9L1791.3 81.9 1800.6 67.8" class="a"/>
    <path d="M1800.6 67.8L1817.4 66.8 1834.1 67.8" class="a"/>
    <path d="M1834.1 67.8L1843.4 81.9 1850.9 96.9" class="a"/>
    <path d="M1867.7 125.9L1884.5 127.6 1901.2 125.9" class="a"/>
    <path d="M1918 96.9L1911.1 112.2 1901.2 125.9" class="a"/>
    <path d="M1867.7 125.9L1857.9 112.2 1850.9 96.9" class="a"/>
    <path d="M1850.9 96.9L1857.9 81.5 1867.7 67.8" class="a"/>
    <path d="M1901.2 67.8L1911.1 81.5 1918 96.9" class="a"/>
    <path d="M1867.7 67.8L1884.5 66.2 1901.2 67.8" class="a"/>
    <path d="M1934.8 125.9L1951.6 128 1968.4 125.9" class="a"/>
    <path d="M1985.1 96.9L1978.5 112.4 1968.4 125.9" class="a"/>
    <path d="M1918 96.9L1924.6 81.3 1934.8 67.8" class="a"/>
    <path d="M1968.4 67.8L1978.5 81.3 1985.1 96.9" class="a"/>
    <path d="M1934.8 125.9L1924.6 112.4 1918 96.9" class="a"/>
    <path d="M1934.8 67.8L1951.6 65.7 1968.4 67.8" class="a"/>
    <path d="M2001.9 125.9L1991.7 112.5 1985.1 96.9" class="a"/>
    <path d="M1985.1 96.9L1991.7 81.3 2001.9 67.8" class="a"/>
    <path d="M22 184.1L19.9 165.9 5.2 155" class="a"/>
    <path d="M72.3 155L57.6 165.9 55.5 184.1" class="a"/>
    <path d="M22 125.9L38.8 133.2 55.5 125.9" class="a"/>
    <path d="M22 184.1L38.8 176.8 55.5 184.1" class="a"/>
    <path d="M5.2 155L19.9 144.1 22 125.9" class="a"/>
    <path d="M55.5 125.9L57.6 144.1 72.3 155" class="a"/>
    <path d="M89.1 184.1L88.2 165.2 72.3 155" class="a"/>
    <path d="M89.1 184.1L105.9 175.4 122.6 184.1" class="a"/>
    <path d="M89.1 125.9L105.9 134.6 122.6 125.9" class="a"/>
    <path d="M139.4 155L123.5 165.2 122.6 184.1" class="a"/>
    <path d="M72.3 155L88.2 144.8 89.1 125.9" class="a"/>
    <path d="M122.6 125.9L123.5 144.8 139.4 155" class="a"/>
    <path d="M206.5 155L189.3 164.4 189.8 184.1" class="a"/>
    <path d="M156.2 184.1L156.6 164.4 139.4 155" class="a"/>
    <path d="M156.2 184.1L173 173.9 189.8 184.1" class="a"/>
    <path d="M156.2 125.9L173 136.1 189.8 125.9" class="a"/>
    <path d="M189.8 125.9L189.3 145.6 206.5 155" class="a"/>
    <path d="M139.4 155L156.6 145.6 156.2 125.9" class="a"/>
    <path d="M223.3 184.1L225.2 163.6 206.5 155" class="a"/>
    <path d="M223.3 184.1L240.1 172.2 256.9 184.1" class="a"/>
    <path d="M206.5 155L225.2 146.4 223.3 125.9" class="a"/>
    <path d="M223.3 125.9L240.1 137.8 256.9 125.9" class="a"/>
    <path d="M256.9 125.9L255 146.4 273.7 155" class="a"/>
    <path d="M273.7 155L255 163.6 256.9 184.1" class="a"/>
    <path d="M290.4 125.9L307.2 139.6 324 125.9" class="a"/>
    <path d="M324 125.9L320.5 147.3 340.8 155" class="a"/>
    <path d="M290.4 184.1L293.9 162.7 273.7 155" class="a"/>
    <path d="M290.4 184.1L307.2 170.4 324 184.1" class="a"/>
    <path d="M273.7 155L293.9 147.3 290.4 125.9" class="a"/>
    <path d="M340.8 155L320.5 162.7 324 184.1" class="a"/>
    <path d="M357.6 125.9L374.3 141.7 391.1 125.9" class="a"/>
    <path d="M357.6 184.1L362.8 161.7 340.8 155" class="a"/>
    <path d="M340.8 155L362.8 148.3 357.6 125.9" class="a"/>
    <path d="M391.1 125.9L385.9 148.3 407.9 155" class="a"/>
    <path d="M407.9 155L385.9 161.7 391.1 184.1" class="a"/>
    <path d="M357.6 184.1L374.3 168.3 391.1 184.1" class="a"/>
    <path d="M424.7 125.9L441.5 144 458.2 125.9" class="a"/>
    <path d="M458.2 125.9L451 149.5 475 155" class="a"/>
    <path d="M424.7 184.1L431.9 160.5 407.9 155" class="a"/>
    <path d="M424.7 184.1L441.5 166 458.2 184.1" class="a"/>
    <path d="M407.9 155L431.9 149.5 424.7 125.9" class="a"/>
    <path d="M475 155L451 160.5 458.2 184.1" class="a"/>
    <path d="M491.8 125.9L508.6 146.7 525.3 125.9" class="a"/>
    <path d="M491.8 184.1L501.4 159.1 475 155" class="a"/>
    <path d="M475 155L501.4 150.9 491.8 125.9" class="a"/>
    <path d="M525.3 125.9L515.7 150.9 542.1 155" class="a"/>
    <path d="M491.8 184.1L508.6 163.3 525.3 184.1" class="a"/>
    <path d="M542.1 155L515.7 159.1 525.3 184.1" class="a"/>
    <path d="M558.9 125.9L575.7 149.9 592.5 125.9" class="a"/>
    <path d="M609.2 155L580.1 157.5 592.5 184.1" class="a"/>
    <path d="M558.9 184.1L575.7 160.1 592.5 184.1" class="a"/>
    <path d="M592.5 125.9L580.1 152.5 609.2 155" class="a"/>
    <path d="M558.9 184.1L571.3 157.5 542.1 155" class="a"/>
    <path d="M542.1 155L571.3 152.5 558.9 125.9" class="a"/>
    <path d="M626 125.9L642.8 153.9 659.6 125.9" class="a"/>
    <path d="M676.4 155L643.8 155.6 659.6 184.1" class="a"/>
    <path d="M626 184.1L641.8 155.6 609.2 155" class="a"/>
    <path d="M626 184.1L642.8 156.1 659.6 184.1" class="a"/>
    <path d="M609.2 155L641.8 154.4 626 125.9" class="a"/>
    <path d="M659.6 125.9L643.8 154.4 676.4 155" class="a"/>
    <path d="M693.1 125.9L709.9 151.8 726.7 125.9" class="a"/>
    <path d="M693.1 184.1L707.2 156.6 676.4 155" class="a"/>
    <path d="M726.7 125.9L712.7 153.4 743.5 155" class="a"/>
    <path d="M676.4 155L707.2 153.4 693.1 125.9" class="a"/>
    <path d="M693.1 184.1L709.9 158.2 726.7 184.1" class="a"/>
    <path d="M743.5 155L712.7 156.6 726.7 184.1" class="a"/>
    <path d="M760.3 125.9L777 148.3 793.8 125.9" class="a"/>
    <path d="M810.6 155L782.9 158.4 793.8 184.1" class="a"/>
    <path d="M793.8 125.9L782.9 151.6 810.6 155" class="a"/>
    <path d="M760.3 184.1L777 161.7 793.8 184.1" class="a"/>
    <path d="M760.3 184.1L771.2 158.4 743.5 155" class="a"/>
    <path d="M743.5 155L771.2 151.6 760.3 125.9" class="a"/>
    <path d="M827.4 125.9L844.2 145.3 860.9 125.9" class="a"/>
    <path d="M860.9 125.9L852.5 150.2 877.7 155" class="a"/>
    <path d="M877.7 155L852.5 159.8 860.9 184.1" class="a"/>
    <path d="M827.4 184.1L844.2 164.7 860.9 184.1" class="a"/>
    <path d="M827.4 184.1L835.8 159.8 810.6 155" class="a"/>
    <path d="M810.6 155L835.8 150.2 827.4 125.9" class="a"/>
    <path d="M894.5 125.9L911.3 142.8 928.1 125.9" class="a"/>
    <path d="M894.5 184.1L911.3 167.2 928.1 184.1" class="a"/>
    <path d="M894.5 184.1L900.7 161.1 877.7 155" class="a"/>
    <path d="M877.7 155L900.7 148.9 894.5 125.9" class="a"/>
    <path d="M928.1 125.9L921.8 148.9 944.8 155" class="a"/>
    <path d="M944.8 155L921.8 161.1 928.1 184.1" class="a"/>
    <path d="M961.6 125.9L978.4 140.7 995.2 125.9" class="a"/>
    <path d="M961.6 184.1L966 162.2 944.8 155" class="a"/>
    <path d="M995.2 125.9L990.8 147.8 1011.9 155" class="a"/>
    <path d="M944.8 155L966 147.8 961.6 125.9" class="a"/>
    <path d="M961.6 184.1L978.4 169.3 995.2 184.1" class="a"/>
    <path d="M1011.9 155L990.8 162.2 995.2 184.1" class="a"/>
    <path d="M1028.7 184.1L1031.4 163.1 1011.9 155" class="a"/>
    <path d="M1028.7 125.9L1045.5 138.7 1062.3 125.9" class="a"/>
    <path d="M1028.7 184.1L1045.5 171.3 1062.3 184.1" class="a"/>
    <path d="M1011.9 155L1031.4 146.9 1028.7 125.9" class="a"/>
    <path d="M1062.3 125.9L1059.6 146.9 1079.1 155" class="a"/>
    <path d="M1079.1 155L1059.6 163.1 1062.3 184.1" class="a"/>
    <path d="M1095.8 184.1L1097 164 1079.1 155" class="a"/>
    <path d="M1095.8 125.9L1112.6 137 1129.4 125.9" class="a"/>
    <path d="M1095.8 184.1L1112.6 173 1129.4 184.1" class="a"/>
    <path d="M1079.1 155L1097 146 1095.8 125.9" class="a"/>
    <path d="M1129.4 125.9L1128.2 146 1146.2 155" class="a"/>
    <path d="M1146.2 155L1128.2 164 1129.4 184.1" class="a"/>
    <path d="M1163 125.9L1179.7 135.4 1196.5 125.9" class="a"/>
    <path d="M1163 184.1L1179.7 174.6 1196.5 184.1" class="a"/>
    <path d="M1163 184.1L1162.8 164.8 1146.2 155" class="a"/>
    <path d="M1146.2 155L1162.8 145.2 1163 125.9" class="a"/>
    <path d="M1196.5 125.9L1196.7 145.2 1213.3 155" class="a"/>
    <path d="M1213.3 155L1196.7 164.8 1196.5 184.1" class="a"/>
    <path d="M1230.1 125.9L1246.9 134 1263.6 125.9" class="a"/>
    <path d="M1230.1 184.1L1246.9 176 1263.6 184.1" class="a"/>
    <path d="M1230.1 184.1L1228.6 165.5 1213.3 155" class="a"/>
    <path d="M1213.3 155L1228.6 144.5 1230.1 125.9" class="a"/>
    <path d="M1263.6 125.9L1265.1 144.5 1280.4 155" class="a"/>
    <path d="M1280.4 155L1265.1 165.5 1263.6 184.1" class="a"/>
    <path d="M1297.2 184.1L1294.6 166.2 1280.4 155" class="a"/>
    <path d="M1297.2 125.9L1314 132.6 1330.8 125.9" class="a"/>
    <path d="M1297.2 184.1L1314 177.4 1330.8 184.1" class="a"/>
    <path d="M1280.4 155L1294.6 143.8 1297.2 125.9" class="a"/>
    <path d="M1330.8 125.9L1333.4 143.8 1347.5 155" class="a"/>
    <path d="M1347.5 155L1333.4 166.2 1330.8 184.1" class="a"/>
    <path d="M1364.3 125.9L1381.1 131.3 1397.9 125.9" class="a"/>
    <path d="M1414.6 155L1401.6 166.8 1397.9 184.1" class="a"/>
    <path d="M1364.3 184.1L1381.1 178.7 1397.9 184.1" class="a"/>
    <path d="M1364.3 184.1L1360.6 166.8 1347.5 155" class="a"/>
    <path d="M1347.5 155L1360.6 143.2 1364.3 125.9" class="a"/>
    <path d="M1397.9 125.9L1401.6 143.2 1414.6 155" class="a"/>
    <path d="M1481.8 155L1469.8 167.4 1465 184.1" class="a"/>
    <path d="M1431.4 184.1L1448.2 179.9 1465 184.1" class="a"/>
    <path d="M1431.4 184.1L1426.7 167.4 1414.6 155" class="a"/>
    <path d="M1414.6 155L1426.7 142.6 1431.4 125.9" class="a"/>
    <path d="M1431.4 125.9L1448.2 130.1 1465 125.9" class="a"/>
    <path d="M1465 125.9L1469.8 142.6 1481.8 155" class="a"/>
    <path d="M1548.9 155L1537.9 168 1532.1 184.1" class="a"/>
    <path d="M1498.5 184.1L1515.3 181.1 1532.1 184.1" class="a"/>
    <path d="M1498.5 184.1L1492.8 168 1481.8 155" class="a"/>
    <path d="M1481.8 155L1492.8 142 1498.5 125.9" class="a"/>
    <path d="M1532.1 125.9L1537.9 142 1548.9 155" class="a"/>
    <path d="M1498.5 125.9L1515.3 128.9 1532.1 125.9" class="a"/>
    <path d="M1565.7 184.1L1582.4 182.2 1599.2 184.1" class="a"/>
    <path d="M1565.7 184.1L1558.9 168.6 1548.9 155" class="a"/>
    <path d="M1616 155L1606 168.6 1599.2 184.1" class="a"/>
    <path d="M1548.9 155L1558.9 141.4 1565.7 125.9" class="a"/>
    <path d="M1565.7 125.9L1582.4 127.8 1599.2 125.9" class="a"/>
    <path d="M1599.2 125.9L1606 141.4 1616 155" class="a"/>
    <path d="M1632.8 184.1L1649.6 183.3 1666.3 184.1" class="a"/>
    <path d="M1632.8 184.1L1625.1 169.1 1616 155" class="a"/>
    <path d="M1683.1 155L1674 169.1 1666.3 184.1" class="a"/>
    <path d="M1616 155L1625.1 140.9 1632.8 125.9" class="a"/>
    <path d="M1632.8 125.9L1649.6 126.7 1666.3 125.9" class="a"/>
    <path d="M1666.3 125.9L1674 140.9 1683.1 155" class="a"/>
    <path d="M1699.9 184.1L1716.7 184.3 1733.5 184.1" class="a"/>
    <path d="M1699.9 184.1L1691.3 169.7 1683.1 155" class="a"/>
    <path d="M1683.1 155L1691.3 140.3 1699.9 125.9" class="a"/>
    <path d="M1733.5 125.9L1742.1 140.3 1750.2 155" class="a"/>
    <path d="M1750.2 155L1742.1 169.7 1733.5 184.1" class="a"/>
    <path d="M1699.9 125.9L1716.7 125.7 1733.5 125.9" class="a"/>
    <path d="M1767 184.1L1783.8 185.3 1800.6 184.1" class="a"/>
    <path d="M1800.6 125.9L1810 139.8 1817.4 155" class="a"/>
    <path d="M1817.4 155L1810 170.2 1800.6 184.1" class="a"/>
    <path d="M1767 184.1L1757.5 170.2 1750.2 155" class="a"/>
    <path d="M1750.2 155L1757.5 139.8 1767 125.9" class="a"/>
    <path d="M1767 125.9L1783.8 124.7 1800.6 125.9" class="a"/>
    <path d="M1834.1 184.1L1850.9 186.2 1867.7 184.1" class="a"/>
    <path d="M1834.1 184.1L1823.9 170.6 1817.4 155" class="a"/>
    <path d="M1884.5 155L1877.9 170.6 1867.7 184.1" class="a"/>
    <path d="M1817.4 155L1823.9 139.4 1834.1 125.9" class="a"/>
    <path d="M1867.7 125.9L1877.9 139.4 1884.5 155" class="a"/>
    <path d="M1834.1 125.9L1850.9 123.8 1867.7 125.9" class="a"/>
    <path d="M1951.6 155L1945.7 170.9 1934.8 184.1" class="a"/>
    <path d="M1901.2 184.1L1918 186.9 1934.8 184.1" class="a"/>
    <path d="M1901.2 184.1L1890.4 170.9 1884.5 155" class="a"/>
    <path d="M1884.5 155L1890.4 139.1 1901.2 125.9" class="a"/>
    <path d="M1934.8 125.9L1945.7 139.1 1951.6 155" class="a"/>
    <path d="M1901.2 125.9L1918 123.1 1934.8 125.9" class="a"/>
    <path d="M1968.4 184.1L1985.1 187.3 2001.9 184.1" class="a"/>
    <path d="M1968.4 184.1L1957.2 171.1 1951.6 155" class="a"/>
    <path d="M1951.6 155L1957.2 138.9 1968.4 125.9" class="a"/>
    <path d="M1968.4 125.9L1985.1 122.7 2001.9 125.9" class="a"/>
    <path d="M55.5 242.2L54.1 223.6 38.8 213.1" class="a"/>
    <path d="M55.5 242.2L72.3 234.2 89.1 242.2" class="a"/>
    <path d="M55.5 184.1L72.3 192.1 89.1 184.1" class="a"/>
    <path d="M89.1 184.1L90.5 202.6 105.9 213.1" class="a"/>
    <path d="M38.8 213.1L54.1 202.6 55.5 184.1" class="a"/>
    <path d="M105.9 213.1L90.5 223.6 89.1 242.2" class="a"/>
    <path d="M122.6 242.2L122.5 222.9 105.9 213.1" class="a"/>
    <path d="M122.6 242.2L139.4 232.7 156.2 242.2" class="a"/>
    <path d="M122.6 184.1L139.4 193.6 156.2 184.1" class="a"/>
    <path d="M156.2 184.1L156.4 203.3 173 213.1" class="a"/>
    <path d="M173 213.1L156.4 222.9 156.2 242.2" class="a"/>
    <path d="M105.9 213.1L122.5 203.3 122.6 184.1" class="a"/>
    <path d="M189.8 242.2L191 222.1 173 213.1" class="a"/>
    <path d="M189.8 242.2L206.5 231.1 223.3 242.2" class="a"/>
    <path d="M189.8 184.1L206.5 195.2 223.3 184.1" class="a"/>
    <path d="M223.3 184.1L222.1 204.1 240.1 213.1" class="a"/>
    <path d="M240.1 213.1L222.1 222.1 223.3 242.2" class="a"/>
    <path d="M173 213.1L191 204.1 189.8 184.1" class="a"/>
    <path d="M256.9 184.1L273.7 196.9 290.4 184.1" class="a"/>
    <path d="M290.4 184.1L287.7 205 307.2 213.1" class="a"/>
    <path d="M256.9 242.2L259.6 221.2 240.1 213.1" class="a"/>
    <path d="M256.9 242.2L273.7 229.3 290.4 242.2" class="a"/>
    <path d="M240.1 213.1L259.6 205 256.9 184.1" class="a"/>
    <path d="M307.2 213.1L287.7 221.2 290.4 242.2" class="a"/>
    <path d="M324 242.2L328.4 220.2 307.2 213.1" class="a"/>
    <path d="M324 184.1L340.8 198.9 357.6 184.1" class="a"/>
    <path d="M374.3 213.1L353.1 220.2 357.6 242.2" class="a"/>
    <path d="M324 242.2L340.8 227.4 357.6 242.2" class="a"/>
    <path d="M307.2 213.1L328.4 206 324 184.1" class="a"/>
    <path d="M357.6 184.1L353.1 206 374.3 213.1" class="a"/>
    <path d="M391.1 184.1L407.9 201.1 424.7 184.1" class="a"/>
    <path d="M391.1 242.2L397.5 219.1 374.3 213.1" class="a"/>
    <path d="M424.7 184.1L418.3 207.1 441.5 213.1" class="a"/>
    <path d="M441.5 213.1L418.3 219.1 424.7 242.2" class="a"/>
    <path d="M391.1 242.2L407.9 225.2 424.7 242.2" class="a"/>
    <path d="M374.3 213.1L397.5 207.1 391.1 184.1" class="a"/>
    <path d="M458.2 184.1L475 203.6 491.8 184.1" class="a"/>
    <path d="M491.8 184.1L483.2 208.4 508.6 213.1" class="a"/>
    <path d="M508.6 213.1L483.2 217.9 491.8 242.2" class="a"/>
    <path d="M458.2 242.2L466.8 217.9 441.5 213.1" class="a"/>
    <path d="M458.2 242.2L475 222.6 491.8 242.2" class="a"/>
    <path d="M441.5 213.1L466.8 208.4 458.2 184.1" class="a"/>
    <path d="M525.3 184.1L542.1 206.6 558.9 184.1" class="a"/>
    <path d="M575.7 213.1L547.8 216.4 558.9 242.2" class="a"/>
    <path d="M525.3 242.2L542.1 219.6 558.9 242.2" class="a"/>
    <path d="M525.3 242.2L536.5 216.4 508.6 213.1" class="a"/>
    <path d="M558.9 184.1L547.8 209.9 575.7 213.1" class="a"/>
    <path d="M508.6 213.1L536.5 209.9 525.3 184.1" class="a"/>
    <path d="M592.5 184.1L609.2 210.2 626 184.1" class="a"/>
    <path d="M592.5 242.2L606.7 214.6 575.7 213.1" class="a"/>
    <path d="M626 184.1L611.7 211.7 642.8 213.1" class="a"/>
    <path d="M642.8 213.1L611.7 214.6 626 242.2" class="a"/>
    <path d="M592.5 242.2L609.2 216 626 242.2" class="a"/>
    <path d="M575.7 213.1L606.7 211.7 592.5 184.1" class="a"/>
    <path d="M659.6 184.1L676.4 211.6 693.1 184.1" class="a"/>
    <path d="M659.6 242.2L675.1 213.9 642.8 213.1" class="a"/>
    <path d="M642.8 213.1L675.1 212.4 659.6 184.1" class="a"/>
    <path d="M693.1 184.1L677.6 212.4 709.9 213.1" class="a"/>
    <path d="M659.6 242.2L676.4 214.6 693.1 242.2" class="a"/>
    <path d="M709.9 213.1L677.6 213.9 693.1 242.2" class="a"/>
    <path d="M726.7 184.1L743.5 207.8 760.3 184.1" class="a"/>
    <path d="M777 213.1L748.1 215.8 760.3 242.2" class="a"/>
    <path d="M760.3 184.1L748.1 210.5 777 213.1" class="a"/>
    <path d="M726.7 242.2L738.9 215.8 709.9 213.1" class="a"/>
    <path d="M726.7 242.2L743.5 218.5 760.3 242.2" class="a"/>
    <path d="M709.9 213.1L738.9 210.5 726.7 184.1" class="a"/>
    <path d="M793.8 184.1L810.6 204.6 827.4 184.1" class="a"/>
    <path d="M827.4 184.1L818 208.9 844.2 213.1" class="a"/>
    <path d="M844.2 213.1L818 217.4 827.4 242.2" class="a"/>
    <path d="M793.8 242.2L803.2 217.4 777 213.1" class="a"/>
    <path d="M777 213.1L803.2 208.9 793.8 184.1" class="a"/>
    <path d="M793.8 242.2L810.6 221.6 827.4 242.2" class="a"/>
    <path d="M860.9 184.1L877.7 201.9 894.5 184.1" class="a"/>
    <path d="M894.5 184.1L887.4 207.5 911.3 213.1" class="a"/>
    <path d="M860.9 242.2L877.7 224.3 894.5 242.2" class="a"/>
    <path d="M860.9 242.2L868 218.7 844.2 213.1" class="a"/>
    <path d="M911.3 213.1L887.4 218.7 894.5 242.2" class="a"/>
    <path d="M844.2 213.1L868 207.5 860.9 184.1" class="a"/>
    <path d="M928.1 184.1L944.8 199.6 961.6 184.1" class="a"/>
    <path d="M961.6 184.1L956.5 206.4 978.4 213.1" class="a"/>
    <path d="M978.4 213.1L956.5 219.9 961.6 242.2" class="a"/>
    <path d="M928.1 242.2L944.8 226.6 961.6 242.2" class="a"/>
    <path d="M928.1 242.2L933.1 219.9 911.3 213.1" class="a"/>
    <path d="M911.3 213.1L933.1 206.4 928.1 184.1" class="a"/>
    <path d="M995.2 184.1L1011.9 197.6 1028.7 184.1" class="a"/>
    <path d="M995.2 242.2L998.5 220.9 978.4 213.1" class="a"/>
    <path d="M1028.7 184.1L1025.4 205.4 1045.5 213.1" class="a"/>
    <path d="M1045.5 213.1L1025.4 220.9 1028.7 242.2" class="a"/>
    <path d="M995.2 242.2L1011.9 228.7 1028.7 242.2" class="a"/>
    <path d="M978.4 213.1L998.5 205.4 995.2 184.1" class="a"/>
    <path d="M1062.3 242.2L1079.1 230.5 1095.8 242.2" class="a"/>
    <path d="M1062.3 184.1L1079.1 195.8 1095.8 184.1" class="a"/>
    <path d="M1112.6 213.1L1094.1 221.8 1095.8 242.2" class="a"/>
    <path d="M1062.3 242.2L1064 221.8 1045.5 213.1" class="a"/>
    <path d="M1045.5 213.1L1064 204.4 1062.3 184.1" class="a"/>
    <path d="M1095.8 184.1L1094.1 204.4 1112.6 213.1" class="a"/>
    <path d="M1129.4 242.2L1146.2 232.1 1163 242.2" class="a"/>
    <path d="M1129.4 242.2L1129.7 222.6 1112.6 213.1" class="a"/>
    <path d="M1129.4 184.1L1146.2 194.1 1163 184.1" class="a"/>
    <path d="M1163 184.1L1162.6 203.6 1179.7 213.1" class="a"/>
    <path d="M1179.7 213.1L1162.6 222.6 1163 242.2" class="a"/>
    <path d="M1112.6 213.1L1129.7 203.6 1129.4 184.1" class="a"/>
    <path d="M1196.5 242.2L1195.5 223.4 1179.7 213.1" class="a"/>
    <path d="M1196.5 242.2L1213.3 233.6 1230.1 242.2" class="a"/>
    <path d="M1196.5 184.1L1213.3 192.6 1230.1 184.1" class="a"/>
    <path d="M1230.1 184.1L1231.1 202.9 1246.9 213.1" class="a"/>
    <path d="M1246.9 213.1L1231.1 223.4 1230.1 242.2" class="a"/>
    <path d="M1179.7 213.1L1195.5 202.9 1196.5 184.1" class="a"/>
    <path d="M1263.6 242.2L1280.4 235 1297.2 242.2" class="a"/>
    <path d="M1263.6 242.2L1261.4 224.1 1246.9 213.1" class="a"/>
    <path d="M1297.2 184.1L1299.4 202.2 1314 213.1" class="a"/>
    <path d="M1314 213.1L1299.4 224.1 1297.2 242.2" class="a"/>
    <path d="M1263.6 184.1L1280.4 191.2 1297.2 184.1" class="a"/>
    <path d="M1246.9 213.1L1261.4 202.2 1263.6 184.1" class="a"/>
    <path d="M1381.1 213.1L1367.7 224.8 1364.3 242.2" class="a"/>
    <path d="M1330.8 242.2L1347.5 236.4 1364.3 242.2" class="a"/>
    <path d="M1330.8 242.2L1327.4 224.8 1314 213.1" class="a"/>
    <path d="M1314 213.1L1327.4 201.5 1330.8 184.1" class="a"/>
    <path d="M1330.8 184.1L1347.5 189.9 1364.3 184.1" class="a"/>
    <path d="M1364.3 184.1L1367.7 201.5 1381.1 213.1" class="a"/>
    <path d="M1397.9 242.2L1414.6 237.6 1431.4 242.2" class="a"/>
    <path d="M1397.9 184.1L1414.6 188.6 1431.4 184.1" class="a"/>
    <path d="M1431.4 184.1L1435.9 200.9 1448.2 213.1" class="a"/>
    <path d="M1448.2 213.1L1435.9 225.4 1431.4 242.2" class="a"/>
    <path d="M1397.9 242.2L1393.4 225.4 1381.1 213.1" class="a"/>
    <path d="M1381.1 213.1L1393.4 200.9 1397.9 184.1" class="a"/>
    <path d="M1515.3 213.1L1504 226 1498.5 242.2" class="a"/>
    <path d="M1465 242.2L1481.8 238.8 1498.5 242.2" class="a"/>
    <path d="M1465 242.2L1459.5 226 1448.2 213.1" class="a"/>
    <path d="M1448.2 213.1L1459.5 200.3 1465 184.1" class="a"/>
    <path d="M1465 184.1L1481.8 187.4 1498.5 184.1" class="a"/>
    <path d="M1498.5 184.1L1504 200.3 1515.3 213.1" class="a"/>
    <path d="M1532.1 242.2L1548.9 240 1565.7 242.2" class="a"/>
    <path d="M1532.1 242.2L1525.6 226.6 1515.3 213.1" class="a"/>
    <path d="M1515.3 213.1L1525.6 199.7 1532.1 184.1" class="a"/>
    <path d="M1532.1 184.1L1548.9 186.2 1565.7 184.1" class="a"/>
    <path d="M1565.7 184.1L1572.2 199.7 1582.4 213.1" class="a"/>
    <path d="M1582.4 213.1L1572.2 226.6 1565.7 242.2" class="a"/>
    <path d="M1599.2 242.2L1616 241.2 1632.8 242.2" class="a"/>
    <path d="M1599.2 242.2L1591.7 227.1 1582.4 213.1" class="a"/>
    <path d="M1582.4 213.1L1591.7 199.1 1599.2 184.1" class="a"/>
    <path d="M1632.8 184.1L1640.3 199.1 1649.6 213.1" class="a"/>
    <path d="M1649.6 213.1L1640.3 227.1 1632.8 242.2" class="a"/>
    <path d="M1599.2 184.1L1616 185.1 1632.8 184.1" class="a"/>
    <path d="M1666.3 242.2L1683.1 242.3 1699.9 242.2" class="a"/>
    <path d="M1716.7 213.1L1708.4 227.7 1699.9 242.2" class="a"/>
    <path d="M1666.3 242.2L1657.9 227.7 1649.6 213.1" class="a"/>
    <path d="M1649.6 213.1L1657.9 198.5 1666.3 184.1" class="a"/>
    <path d="M1699.9 184.1L1708.4 198.5 1716.7 213.1" class="a"/>
    <path d="M1666.3 184.1L1683.1 184 1699.9 184.1" class="a"/>
    <path d="M1733.5 242.2L1750.2 243.4 1767 242.2" class="a"/>
    <path d="M1733.5 242.2L1724 228.3 1716.7 213.1" class="a"/>
    <path d="M1716.7 213.1L1724 198 1733.5 184.1" class="a"/>
    <path d="M1767 184.1L1776.4 198 1783.8 213.1" class="a"/>
    <path d="M1783.8 213.1L1776.4 228.3 1767 242.2" class="a"/>
    <path d="M1733.5 184.1L1750.2 182.9 1767 184.1" class="a"/>
    <path d="M1850.9 213.1L1844.5 228.8 1834.1 242.2" class="a"/>
    <path d="M1800.6 242.2L1817.4 244.5 1834.1 242.2" class="a"/>
    <path d="M1800.6 242.2L1790.2 228.8 1783.8 213.1" class="a"/>
    <path d="M1783.8 213.1L1790.2 197.5 1800.6 184.1" class="a"/>
    <path d="M1834.1 184.1L1844.5 197.5 1850.9 213.1" class="a"/>
    <path d="M1800.6 184.1L1817.4 181.8 1834.1 184.1" class="a"/>
    <path d="M1867.7 242.2L1884.5 245.5 1901.2 242.2" class="a"/>
    <path d="M1867.7 242.2L1856.5 229.3 1850.9 213.1" class="a"/>
    <path d="M1850.9 213.1L1856.5 197 1867.7 184.1" class="a"/>
    <path d="M1901.2 184.1L1912.5 197 1918 213.1" class="a"/>
    <path d="M1918 213.1L1912.5 229.3 1901.2 242.2" class="a"/>
    <path d="M1867.7 184.1L1884.5 180.8 1901.2 184.1" class="a"/>
    <path d="M1934.8 242.2L1951.6 246.2 1968.4 242.2" class="a"/>
    <path d="M1934.8 242.2L1922.9 229.7 1918 213.1" class="a"/>
    <path d="M1985.1 213.1L1980.3 229.7 1968.4 242.2" class="a"/>
    <path d="M1918 213.1L1922.9 196.6 1934.8 184.1" class="a"/>
    <path d="M1968.4 184.1L1980.3 196.6 1985.1 213.1" class="a"/>
    <path d="M1934.8 184.1L1951.6 180 1968.4 184.1" class="a"/>
    <path d="M2001.9 242.2L1989.9 229.8 1985.1 213.1" class="a"/>
    <path d="M1985.1 213.1L1989.9 196.5 2001.9 184.1" class="a"/>
    <path d="M72.3 271.3L57.5 282.1 55.5 300.3" class="a"/>
    <path d="M22 300.3L20 282.1 5.2 271.3" class="a"/>
    <path d="M22 300.3L38.8 292.9 55.5 300.3" class="a"/>
    <path d="M5.2 271.3L20 260.4 22 242.2" class="a"/>
    <path d="M22 242.2L38.8 249.6 55.5 242.2" class="a"/>
    <path d="M55.5 242.2L57.5 260.4 72.3 271.3" class="a"/>
    <path d="M89.1 242.2L105.9 251 122.6 242.2" class="a"/>
    <path d="M89.1 300.3L88.3 281.4 72.3 271.3" class="a"/>
    <path d="M89.1 300.3L105.9 291.5 122.6 300.3" class="a"/>
    <path d="M72.3 271.3L88.3 261.1 89.1 242.2" class="a"/>
    <path d="M122.6 242.2L123.4 261.1 139.4 271.3" class="a"/>
    <path d="M139.4 271.3L123.4 281.4 122.6 300.3" class="a"/>
    <path d="M156.2 300.3L156.8 280.6 139.4 271.3" class="a"/>
    <path d="M156.2 300.3L173 290 189.8 300.3" class="a"/>
    <path d="M156.2 242.2L173 252.5 189.8 242.2" class="a"/>
    <path d="M189.8 242.2L189.2 261.9 206.5 271.3" class="a"/>
    <path d="M206.5 271.3L189.2 280.6 189.8 300.3" class="a"/>
    <path d="M139.4 271.3L156.8 261.9 156.2 242.2" class="a"/>
    <path d="M223.3 300.3L225.3 279.8 206.5 271.3" class="a"/>
    <path d="M223.3 242.2L240.1 254.2 256.9 242.2" class="a"/>
    <path d="M256.9 242.2L254.9 262.7 273.7 271.3" class="a"/>
    <path d="M273.7 271.3L254.9 279.8 256.9 300.3" class="a"/>
    <path d="M223.3 300.3L240.1 288.3 256.9 300.3" class="a"/>
    <path d="M206.5 271.3L225.3 262.7 223.3 242.2" class="a"/>
    <path d="M324 242.2L320.4 263.7 340.8 271.3" class="a"/>
    <path d="M340.8 271.3L320.4 278.8 324 300.3" class="a"/>
    <path d="M290.4 300.3L307.2 286.4 324 300.3" class="a"/>
    <path d="M273.7 271.3L294.1 263.7 290.4 242.2" class="a"/>
    <path d="M290.4 242.2L307.2 256.1 324 242.2" class="a"/>
    <path d="M290.4 300.3L294.1 278.8 273.7 271.3" class="a"/>
    <path d="M357.6 242.2L374.3 258.2 391.1 242.2" class="a"/>
    <path d="M357.6 300.3L363 277.8 340.8 271.3" class="a"/>
    <path d="M391.1 242.2L385.7 264.7 407.9 271.3" class="a"/>
    <path d="M340.8 271.3L363 264.7 357.6 242.2" class="a"/>
    <path d="M407.9 271.3L385.7 277.8 391.1 300.3" class="a"/>
    <path d="M357.6 300.3L374.3 284.3 391.1 300.3" class="a"/>
    <path d="M424.7 242.2L441.5 260.5 458.2 242.2" class="a"/>
    <path d="M475 271.3L450.7 276.6 458.2 300.3" class="a"/>
    <path d="M424.7 300.3L441.5 282 458.2 300.3" class="a"/>
    <path d="M424.7 300.3L432.2 276.6 407.9 271.3" class="a"/>
    <path d="M458.2 242.2L450.7 265.9 475 271.3" class="a"/>
    <path d="M407.9 271.3L432.2 265.9 424.7 242.2" class="a"/>
    <path d="M491.8 242.2L508.6 263.3 525.3 242.2" class="a"/>
    <path d="M491.8 300.3L501.7 275.2 475 271.3" class="a"/>
    <path d="M475 271.3L501.7 267.3 491.8 242.2" class="a"/>
    <path d="M525.3 242.2L515.4 267.3 542.1 271.3" class="a"/>
    <path d="M491.8 300.3L508.6 279.2 525.3 300.3" class="a"/>
    <path d="M542.1 271.3L515.4 275.2 525.3 300.3" class="a"/>
    <path d="M558.9 242.2L575.7 266.6 592.5 242.2" class="a"/>
    <path d="M609.2 271.3L579.7 273.6 592.5 300.3" class="a"/>
    <path d="M558.9 300.3L571.7 273.6 542.1 271.3" class="a"/>
    <path d="M558.9 300.3L575.7 275.9 592.5 300.3" class="a"/>
    <path d="M592.5 242.2L579.7 268.9 609.2 271.3" class="a"/>
    <path d="M542.1 271.3L571.7 268.9 558.9 242.2" class="a"/>
    <path d="M626 242.2L642.8 270.7 659.6 242.2" class="a"/>
    <path d="M626 300.3L642.3 271.5 609.2 271.3" class="a"/>
    <path d="M659.6 242.2L643.3 271 676.4 271.3" class="a"/>
    <path d="M609.2 271.3L642.3 271 626 242.2" class="a"/>
    <path d="M676.4 271.3L643.3 271.5 659.6 300.3" class="a"/>
    <path d="M626 300.3L642.8 271.8 659.6 300.3" class="a"/>
    <path d="M693.1 242.2L709.9 267.6 726.7 242.2" class="a"/>
    <path d="M743.5 271.3L713.1 273.1 726.7 300.3" class="a"/>
    <path d="M726.7 242.2L713.1 269.4 743.5 271.3" class="a"/>
    <path d="M693.1 300.3L709.9 274.9 726.7 300.3" class="a"/>
    <path d="M693.1 300.3L706.7 273.1 676.4 271.3" class="a"/>
    <path d="M676.4 271.3L706.7 269.4 693.1 242.2" class="a"/>
    <path d="M760.3 242.2L777 264.1 793.8 242.2" class="a"/>
    <path d="M810.6 271.3L783.2 274.8 793.8 300.3" class="a"/>
    <path d="M760.3 300.3L777 278.4 793.8 300.3" class="a"/>
    <path d="M760.3 300.3L770.8 274.8 743.5 271.3" class="a"/>
    <path d="M743.5 271.3L770.8 267.7 760.3 242.2" class="a"/>
    <path d="M793.8 242.2L783.2 267.7 810.6 271.3" class="a"/>
    <path d="M827.4 242.2L844.2 261.2 860.9 242.2" class="a"/>
    <path d="M877.7 271.3L852.9 276.3 860.9 300.3" class="a"/>
    <path d="M827.4 300.3L844.2 281.3 860.9 300.3" class="a"/>
    <path d="M827.4 300.3L835.4 276.3 810.6 271.3" class="a"/>
    <path d="M810.6 271.3L835.4 266.2 827.4 242.2" class="a"/>
    <path d="M860.9 242.2L852.9 266.2 877.7 271.3" class="a"/>
    <path d="M928.1 242.2L922.1 265 944.8 271.3" class="a"/>
    <path d="M894.5 300.3L911.3 283.8 928.1 300.3" class="a"/>
    <path d="M894.5 242.2L911.3 258.7 928.1 242.2" class="a"/>
    <path d="M944.8 271.3L922.1 277.5 928.1 300.3" class="a"/>
    <path d="M894.5 300.3L900.4 277.5 877.7 271.3" class="a"/>
    <path d="M877.7 271.3L900.4 265 894.5 242.2" class="a"/>
    <path d="M961.6 242.2L978.4 256.6 995.2 242.2" class="a"/>
    <path d="M961.6 300.3L965.7 278.6 944.8 271.3" class="a"/>
    <path d="M995.2 242.2L991.1 263.9 1011.9 271.3" class="a"/>
    <path d="M1011.9 271.3L991.1 278.6 995.2 300.3" class="a"/>
    <path d="M961.6 300.3L978.4 285.9 995.2 300.3" class="a"/>
    <path d="M944.8 271.3L965.7 263.9 961.6 242.2" class="a"/>
    <path d="M1028.7 300.3L1031.1 279.5 1011.9 271.3" class="a"/>
    <path d="M1011.9 271.3L1031.1 263 1028.7 242.2" class="a"/>
    <path d="M1028.7 242.2L1045.5 254.7 1062.3 242.2" class="a"/>
    <path d="M1062.3 242.2L1059.9 263 1079.1 271.3" class="a"/>
    <path d="M1079.1 271.3L1059.9 279.5 1062.3 300.3" class="a"/>
    <path d="M1028.7 300.3L1045.5 287.8 1062.3 300.3" class="a"/>
    <path d="M1095.8 300.3L1112.6 289.6 1129.4 300.3" class="a"/>
    <path d="M1095.8 300.3L1096.8 280.4 1079.1 271.3" class="a"/>
    <path d="M1095.8 242.2L1112.6 252.9 1129.4 242.2" class="a"/>
    <path d="M1146.2 271.3L1128.5 280.4 1129.4 300.3" class="a"/>
    <path d="M1129.4 242.2L1128.5 262.1 1146.2 271.3" class="a"/>
    <path d="M1079.1 271.3L1096.8 262.1 1095.8 242.2" class="a"/>
    <path d="M1163 300.3L1179.7 291.1 1196.5 300.3" class="a"/>
    <path d="M1163 300.3L1162.5 281.2 1146.2 271.3" class="a"/>
    <path d="M1163 242.2L1179.7 251.4 1196.5 242.2" class="a"/>
    <path d="M1196.5 242.2L1197 261.3 1213.3 271.3" class="a"/>
    <path d="M1213.3 271.3L1197 281.2 1196.5 300.3" class="a"/>
    <path d="M1146.2 271.3L1162.5 261.3 1163 242.2" class="a"/>
    <path d="M1280.4 271.3L1265.3 281.9 1263.6 300.3" class="a"/>
    <path d="M1230.1 300.3L1228.4 281.9 1213.3 271.3" class="a"/>
    <path d="M1230.1 300.3L1246.9 292.6 1263.6 300.3" class="a"/>
    <path d="M1213.3 271.3L1228.4 260.6 1230.1 242.2" class="a"/>
    <path d="M1230.1 242.2L1246.9 249.9 1263.6 242.2" class="a"/>
    <path d="M1263.6 242.2L1265.3 260.6 1280.4 271.3" class="a"/>
    <path d="M1297.2 300.3L1314 294 1330.8 300.3" class="a"/>
    <path d="M1297.2 300.3L1294.3 282.6 1280.4 271.3" class="a"/>
    <path d="M1297.2 242.2L1314 248.5 1330.8 242.2" class="a"/>
    <path d="M1330.8 242.2L1333.6 259.9 1347.5 271.3" class="a"/>
    <path d="M1347.5 271.3L1333.6 282.6 1330.8 300.3" class="a"/>
    <path d="M1280.4 271.3L1294.3 259.9 1297.2 242.2" class="a"/>
    <path d="M1414.6 271.3L1401.9 283.3 1397.9 300.3" class="a"/>
    <path d="M1364.3 300.3L1381.1 295.3 1397.9 300.3" class="a"/>
    <path d="M1364.3 300.3L1360.3 283.3 1347.5 271.3" class="a"/>
    <path d="M1347.5 271.3L1360.3 259.2 1364.3 242.2" class="a"/>
    <path d="M1364.3 242.2L1381.1 247.2 1397.9 242.2" class="a"/>
    <path d="M1397.9 242.2L1401.9 259.2 1414.6 271.3" class="a"/>
    <path d="M1481.8 271.3L1470.1 283.9 1465 300.3" class="a"/>
    <path d="M1431.4 300.3L1448.2 296.5 1465 300.3" class="a"/>
    <path d="M1431.4 300.3L1426.3 283.9 1414.6 271.3" class="a"/>
    <path d="M1414.6 271.3L1426.3 258.6 1431.4 242.2" class="a"/>
    <path d="M1431.4 242.2L1448.2 246 1465 242.2" class="a"/>
    <path d="M1465 242.2L1470.1 258.6 1481.8 271.3" class="a"/>
    <path d="M1498.5 300.3L1515.3 297.7 1532.1 300.3" class="a"/>
    <path d="M1498.5 300.3L1492.4 284.5 1481.8 271.3" class="a"/>
    <path d="M1548.9 271.3L1538.2 284.5 1532.1 300.3" class="a"/>
    <path d="M1481.8 271.3L1492.4 258 1498.5 242.2" class="a"/>
    <path d="M1532.1 242.2L1538.2 258 1548.9 271.3" class="a"/>
    <path d="M1498.5 242.2L1515.3 244.8 1532.1 242.2" class="a"/>
    <path d="M1565.7 300.3L1582.4 298.9 1599.2 300.3" class="a"/>
    <path d="M1565.7 300.3L1558.5 285.1 1548.9 271.3" class="a"/>
    <path d="M1548.9 271.3L1558.5 257.4 1565.7 242.2" class="a"/>
    <path d="M1565.7 242.2L1582.4 243.6 1599.2 242.2" class="a"/>
    <path d="M1599.2 242.2L1606.4 257.4 1616 271.3" class="a"/>
    <path d="M1616 271.3L1606.4 285.1 1599.2 300.3" class="a"/>
    <path d="M1632.8 300.3L1649.6 300 1666.3 300.3" class="a"/>
    <path d="M1632.8 300.3L1624.6 285.6 1616 271.3" class="a"/>
    <path d="M1616 271.3L1624.6 256.9 1632.8 242.2" class="a"/>
    <path d="M1683.1 271.3L1674.5 285.6 1666.3 300.3" class="a"/>
    <path d="M1632.8 242.2L1649.6 242.5 1666.3 242.2" class="a"/>
    <path d="M1666.3 242.2L1674.5 256.9 1683.1 271.3" class="a"/>
    <path d="M1699.9 300.3L1716.7 301.2 1733.5 300.3" class="a"/>
    <path d="M1699.9 300.3L1690.7 286.2 1683.1 271.3" class="a"/>
    <path d="M1733.5 242.2L1742.6 256.3 1750.2 271.3" class="a"/>
    <path d="M1750.2 271.3L1742.6 286.2 1733.5 300.3" class="a"/>
    <path d="M1683.1 271.3L1690.7 256.3 1699.9 242.2" class="a"/>
    <path d="M1699.9 242.2L1716.7 241.3 1733.5 242.2" class="a"/>
    <path d="M1767 300.3L1783.8 302.4 1800.6 300.3" class="a"/>
    <path d="M1767 300.3L1756.8 286.8 1750.2 271.3" class="a"/>
    <path d="M1817.4 271.3L1810.7 286.8 1800.6 300.3" class="a"/>
    <path d="M1750.2 271.3L1756.8 255.7 1767 242.2" class="a"/>
    <path d="M1767 242.2L1783.8 240.1 1800.6 242.2" class="a"/>
    <path d="M1800.6 242.2L1810.7 255.7 1817.4 271.3" class="a"/>
    <path d="M1834.1 300.3L1850.9 303.5 1867.7 300.3" class="a"/>
    <path d="M1834.1 300.3L1822.9 287.4 1817.4 271.3" class="a"/>
    <path d="M1884.5 271.3L1878.9 287.4 1867.7 300.3" class="a"/>
    <path d="M1817.4 271.3L1822.9 255.1 1834.1 242.2" class="a"/>
    <path d="M1867.7 242.2L1878.9 255.1 1884.5 271.3" class="a"/>
    <path d="M1834.1 242.2L1850.9 239 1867.7 242.2" class="a"/>
    <path d="M1901.2 300.3L1918 304.7 1934.8 300.3" class="a"/>
    <path d="M1951.6 271.3L1947 288 1934.8 300.3" class="a"/>
    <path d="M1901.2 300.3L1889.1 288 1884.5 271.3" class="a"/>
    <path d="M1884.5 271.3L1889.1 254.5 1901.2 242.2" class="a"/>
    <path d="M1934.8 242.2L1947 254.5 1951.6 271.3" class="a"/>
    <path d="M1901.2 242.2L1918 237.8 1934.8 242.2" class="a"/>
    <path d="M1968.4 300.3L1985.1 305.6 2001.9 300.3" class="a"/>
    <path d="M1968.4 300.3L1955.4 288.4 1951.6 271.3" class="a"/>
    <path d="M1951.6 271.3L1955.4 254.1 1968.4 242.2" class="a"/>
    <path d="M1968.4 242.2L1985.1 236.9 2001.9 242.2" class="a"/>
</svg>
