<svg xmlns="http://www.w3.org/2000/svg" width="2800" height="350pt" viewBox="0 0 2100 350"><path fill="#1a1a33" d="M0 0h2100v350H0z"/><path d="M.2 81.023l1.796 32.942-4.191 32.937" fill="#4063d8" fill-opacity=".55"/><path d="M-5.066 302.023l-.852-87.418L5.965 262.98" fill="#389826" fill-opacity=".55"/><path d="M-3.168 171.113L39.09 209.7l-45.016-4.594" fill="#9558b2" fill-opacity=".55"/><path d="M7.434 260.566l-13.125-53.425 45.93 4.683M3.867 6.438l38.238 41.968L1.07 57.73" fill="#cb3c33" fill-opacity=".55"/><path d="M41.41 213.668l5.473 34.656-37.395 12.77" fill="#4063d8" fill-opacity=".55"/><path d="M3.938 112.8L1.12 61.21l51.594 42.212" fill="#cb3c33" fill-opacity=".55"/><path d="M43.223 50.203l10.25 51.254L2.219 59.523" fill="#4063d8" fill-opacity=".55"/><path d="M43.61 47.086L5.226 4.96l53.359-.938M3.79 115.734L61.464 154.5l-64.297 13.238" fill="#389826" fill-opacity=".55"/><path d="M54.191 105.172l8.414 47.687L5.57 114.523" fill="#9558b2" fill-opacity=".55"/><path d="M41.602 209.281l-43.48-39.699 64.273-13.23M7.516 264.852l56.5 52.73-68.743-9.418" fill="#cb3c33" fill-opacity=".55"/><path d="M47.313 250.29l17.8 65.581-56.21-52.465" fill="#389826" fill-opacity=".55"/><path d="M49.422 356.824l-28.914-7.226 44.273-28.012" fill="#cb3c33" fill-opacity=".55"/><path d="M18.34 348.602L-4.098 310.27l68.25 9.347" fill="#389826" fill-opacity=".55"/><path d="M55.41 100.945L45.184 49.816l39.043-6.507" fill="#9558b2" fill-opacity=".55"/><path d="M60.285 5.227L84.31 41.27 45.5 47.738" fill="#cb3c33" fill-opacity=".55"/><path d="M64.828 153.934l-8.078-45.762 31.406 43.969" fill="#389826" fill-opacity=".55"/><path d="M48.617 246.508l-5.508-34.899 46.836-20.203" fill="#cb3c33" fill-opacity=".55"/><path d="M64.32 156.918l27.04 31.7-47.551 20.51" fill="#389826" fill-opacity=".55"/><path d="M89.086 154.074l2.66 31.914-25.71-30.14" fill="#cb3c33" fill-opacity=".55"/><path d="M67.473 320.418l27.347 15.496-42.843 20.059" fill="#9558b2" fill-opacity=".55"/><path d="M59.816 2.004l-43.457.762 77-12.961" fill="#4063d8" fill-opacity=".55"/><path d="M85.691 39.73L61.54 3.504 102.41-11.36" fill="#389826" fill-opacity=".55"/><path d="M85.734 44.766l17.899 64.062-47.102-5.652" fill="#cb3c33" fill-opacity=".55"/><path d="M89.691 150.848l-32.558-45.586 46.512 5.582M92.582 191.223l18.05 64.597-60.8-7.597" fill="#9558b2" fill-opacity=".55"/><path d="M96.496 334.566l-27.582-15.632 45.973-30.34" fill="#4063d8" fill-opacity=".55"/><path d="M67.602 317.402l-18.028-66.425 65.477 35.113" fill="#cb3c33" fill-opacity=".55"/><path d="M111.14 257.898l4.528 26.25-62.457-33.488" fill="#389826" fill-opacity=".55"/><path d="M117.813 284.816l-4.293-24.882 21.453 21.453" fill="#4063d8" fill-opacity=".55"/><path d="M112.29 254.313l-17.83-63.797 44.099 14.074" fill="#cb3c33" fill-opacity=".55"/><path d="M136.305 279.89l-22.602-22.6 28.027-13.563" fill="#389826" fill-opacity=".55"/><path d="M139.273 207.516l2.676 33.882-27.64 13.375" fill="#4063d8" fill-opacity=".55"/><path d="M139.102 202.664l-43.915-14.016 47.649-34.57" fill="#389826" fill-opacity=".55"/><path d="M93.848 187.148l-2.762-33.168 49.75-.921" fill="#9558b2" fill-opacity=".55"/><path d="M105.398 111.898l36.348 39.145-50.328.93" fill="#389826" fill-opacity=".55"/><path d="M97.113 337.05l42.895 9.63-84.035 9.629" fill="#cb3c33" fill-opacity=".55"/><path d="M117.078 288.496l27.137 57.078-45.852-10.293" fill="#9558b2" fill-opacity=".55"/><path d="M136.156 283.188l7.965 57.53-25.668-53.988" fill="#389826" fill-opacity=".55"/><path d="M143.281 149.754l-35.832-38.586 40.426 2.758" fill="#4063d8" fill-opacity=".55"/><path d="M104.371-10.914l49.266 62.531-66.32-10.422M148.117 111.938l-41.008-2.797 47.532-53.121" fill="#cb3c33" fill-opacity=".55"/><path d="M105.473 107.973L87.383 43.23l66.648 10.473M155.418 50.645L106.086-11.97l60.715.95M143.918 240.926l-2.73-34.598 37.328 31.863" fill="#389826" fill-opacity=".55"/><path d="M143.871 242.934l34.457-2.72-39.898 38.99M168.414-8.746l12.426 26.629-23.074 31.062" fill="#cb3c33" fill-opacity=".55"/><path d="M156.879 54.082l31.285 2.758-37.723 52.445" fill="#4063d8" fill-opacity=".55"/><path d="M181.48 20.379l7.262 34.508-30.875-2.727" fill="#389826" fill-opacity=".55"/><path d="M146.762 345.21l-8.52-61.526 56.797 26.503" fill="#cb3c33" fill-opacity=".55"/><path d="M180.418 240.969l15.16 67.261-56.844-26.527" fill="#4063d8" fill-opacity=".55"/><path d="M149.79 114.719l46.343 30.59-50.98 5.558" fill="#9558b2" fill-opacity=".55"/><path d="M144.883 153.559l54.61 27.304-58.376 21.657" fill="#4063d8" fill-opacity=".55"/><path d="M198.09 147.105l2.762 32.204-53.364-26.684" fill="#389826" fill-opacity=".55"/><path d="M180.55 237.3l-38.605-32.956 58.38-21.656" fill="#9558b2" fill-opacity=".55"/><path d="M196.238 311.79l4.617 33.23-51.695.925M189.871 57.89l23.582 44.333-62.254 9.433" fill="#389826" fill-opacity=".55"/><path d="M198.5 144.473l-46.777-30.875 61.746-9.356M202.922 180.047l-2.711-31.649 37.976 33.457" fill="#cb3c33" fill-opacity=".55"/><path d="M197.703 308.566l-15.137-67.168 61.489 45.41" fill="#9558b2" fill-opacity=".55"/><path d="M202.656 343.45l-4.562-32.856 44.719-20.992" fill="#cb3c33" fill-opacity=".55"/><path d="M182.492 16.691l-12.93-27.71 78.516-.922" fill="#389826" fill-opacity=".55"/><path d="M190.578 53.887l-7.433-35.297 65.945-28.793" fill="#4063d8" fill-opacity=".55"/><path d="M145.992 348.008l89.703 11.734-170.183-2.512" fill="#389826" fill-opacity=".55"/><path d="M201.863 347.004l38.575 11.344-80.93-10.59" fill="#4063d8" fill-opacity=".55"/><path d="M245.25 289.68l6.617 69.945-48.207-14.18" fill="#389826" fill-opacity=".55"/><path d="M202.34 183.004l49.406 60.809-69.36-5.704" fill="#cb3c33" fill-opacity=".55"/><path d="M240.18 183.96l11.996 57.208-47.98-59.055M245.316 285.25l-60.894-44.965 68.387 5.621" fill="#389826" fill-opacity=".55"/><path d="M215.336 104.965l37.355 44.824-52.296-4.668" fill="#9558b2" fill-opacity=".55"/><path d="M240.633 181.344l-38.68-34.078 51.574 4.605M254.262 148.55l-37.563-45.073 44.137-15.024" fill="#389826" fill-opacity=".55"/><path d="M261.145 86.234l-40.512 13.793 44.82-33.617" fill="#4063d8" fill-opacity=".55"/><path d="M215.336 101.5l-23.57-44.313 72.593 7.543" fill="#9558b2" fill-opacity=".55"/><path d="M252.379-10.836l13.398 73.703-73.703-7.656" fill="#389826" fill-opacity=".55"/><path d="M253.586 356.559l-6.496-68.672 33.406-3.715" fill="#9558b2" fill-opacity=".55"/><path d="M254.555 247.438l25.613 34.761-32.934 3.656M254.762 243.766l-12.008-57.282 43.422 48.965" fill="#cb3c33" fill-opacity=".55"/><path d="M281.324 280.398l-25.648-34.808 31.144-8.242" fill="#389826" fill-opacity=".55"/><path d="M281.438 287.379l7.453 73.59-34.465-.93" fill="#cb3c33" fill-opacity=".55"/><path d="M267.613 61.785l-13.047-71.75 40.07 41" fill="#9558b2" fill-opacity=".55"/><path d="M262.852 88.43l41.296 16.894-47.867 43.176" fill="#4063d8" fill-opacity=".55"/><path d="M267.578 66.059l34.48 36.25-38.902-15.918" fill="#389826" fill-opacity=".55"/><path d="M295.305 33.309l9.289 68.765-36.239-38.101" fill="#4063d8" fill-opacity=".55"/><path d="M296.008 29.578L257.87-9.445l51.442 25.718M255.465 152.43l55.558 32.41-68.52-2.781" fill="#cb3c33" fill-opacity=".55"/><path d="M287.8 234.266l-44.491-50.172 70.05 2.84" fill="#4063d8" fill-opacity=".55"/><path d="M305.578 106.727l11.082 29.546-58.172 12.926" fill="#389826" fill-opacity=".55"/><path d="M314.102 184.316l-56.395-32.894 59.215-13.156" fill="#9558b2" fill-opacity=".55"/><path d="M290.895 360.918l-7.524-74.3 50.79 70.538" fill="#389826" fill-opacity=".55"/><path d="M288.816 237.516l53.461 26.261-59.09 17.82" fill="#4063d8" fill-opacity=".55"/><path d="M314.848 188.387l28.304 73.59-53.777-26.414" fill="#9558b2" fill-opacity=".55"/><path d="M318.492 135.469l-10.86-28.961 38.013 10.86" fill="#cb3c33" fill-opacity=".55"/><path d="M347.133 115.71l-39.418-11.26 46.926-59.13" fill="#389826" fill-opacity=".55"/><path d="M306.676 102.54l-9.5-70.31 57.004 10.454" fill="#cb3c33" fill-opacity=".55"/><path d="M311.164 17.25l39.332 22.723-52.441-9.614" fill="#4063d8" fill-opacity=".55"/><path d="M335.703 355.879l-51.637-71.719 75.543 5.738" fill="#9558b2" fill-opacity=".55"/><path d="M344.566 265.176l14.512 22.676-71.656-5.442" fill="#cb3c33" fill-opacity=".55"/><path d="M310.938 14.852l-54.11-27.055 104.485-5.598" fill="#389826" fill-opacity=".55"/><path d="M355.227 40.398L312.914 15.95l50.774-32.906M318.926 138.242l43.777 10.246-46.57 35.395" fill="#cb3c33" fill-opacity=".55"/><path d="M347.648 118.438l15.399 28.078-42.574-9.965" fill="#9558b2" fill-opacity=".55"/><path d="M344.867 260.867l-28.39-73.808 49.207 1.89" fill="#cb3c33" fill-opacity=".55"/><path d="M364.098 149.941l1.847 37.016-48.117-1.848" fill="#389826" fill-opacity=".55"/><path d="M356.766 44.234l24.925 25.848-32.308 43.387" fill="#cb3c33" fill-opacity=".55"/><path d="M361.125 287.34l-14.477-22.617 40.715-7.239" fill="#389826" fill-opacity=".55"/><path d="M367.074 191.34l21.606 63.879-42.274 7.515" fill="#9558b2" fill-opacity=".55"/><path d="M389.453 251.258l-20.66-61.082 25.148 14.37" fill="#389826" fill-opacity=".55"/><path d="M361.375 290.902l35.945 39.73-59.593 25.54M389.395 258.203l10.195 54.688-37.074-24.098" fill="#cb3c33" fill-opacity=".55"/><path d="M398.277 328.71l-31.382-34.687 33.035 21.473" fill="#4063d8" fill-opacity=".55"/><path d="M365.152 146.195l-15.687-28.601 50.75-15.688" fill="#389826" fill-opacity=".55"/><path d="M382.953 71.734l18.473 27.707-50.793 15.7" fill="#4063d8" fill-opacity=".55"/><path d="M394.36 202.48l-25.786-14.734 41.442-46.043" fill="#cb3c33" fill-opacity=".55"/><path d="M367.879 185.531l-1.836-36.73 43.156-9.184" fill="#9558b2" fill-opacity=".55"/><path d="M402.504 102.238l8.289 34.996-43.285 9.211" fill="#cb3c33" fill-opacity=".55"/><path d="M365.797-17.543l48.101 21.691-56.59 35.84" fill="#9558b2" fill-opacity=".55"/><path d="M382.738 68.29L357.57 42.186 413.496 6.77M398.793 332.176l30.562 28.715-88.914-3.707" fill="#389826" fill-opacity=".55"/><path d="M401.656 317.813l24.817 37.62-26.418-24.812" fill="#9558b2" fill-opacity=".55"/><path d="M395.879 205.32l39.062 12.09-43.714 36.274" fill="#cb3c33" fill-opacity=".55"/><path d="M412.098 141.625l23.37 73.855-39.261-12.152" fill="#389826" fill-opacity=".55"/><path d="M416.191 2.988L379.313-13.64l52.789 15.907" fill="#cb3c33" fill-opacity=".55"/><path d="M403.273 98.61L384.79 70.878l66.555-4.621" fill="#389826" fill-opacity=".55"/><path d="M416.105 6.023l37.145 58.094-68.574 4.766" fill="#cb3c33" fill-opacity=".55"/><path d="M437.246 4.035l15.047 54.875-34.52-53.988" fill="#389826" fill-opacity=".55"/><path d="M412.617 136.266l-8.34-35.22 51.903 1.852" fill="#9558b2" fill-opacity=".55"/><path d="M454.184 66.754l3.699 34.207-51.77-1.852M431.82 359.91l-29.3-44.426 58.605-22.687" fill="#cb3c33" fill-opacity=".55"/><path d="M401.762 313.633l-10.418-55.88 69.14 33.15" fill="#389826" fill-opacity=".55"/><path d="M436.531 218.688l24.727 70.367-69.418-33.282M437.223 214.39l-23.672-74.808 53.027 17.992" fill="#9558b2" fill-opacity=".55"/><path d="M458.281 103.809l8.465 51.71-52.652-17.863" fill="#389826" fill-opacity=".55"/><path d="M462.465 286.457L438.762 219l29.172 14.586" fill="#cb3c33" fill-opacity=".55"/><path d="M462.71 294.16l16.99 72.672-46.247-5.66" fill="#9558b2" fill-opacity=".55"/><path d="M468.055 159.074l19.527 33.48-48.355 22.317" fill="#cb3c33" fill-opacity=".55"/><path d="M468.555 231.66l-29.246-14.625 47.523-21.933M459.852 100.566l-3.641-33.664 34.578 20.926" fill="#389826" fill-opacity=".55"/><path d="M469.762 235.363l21.875 24.61-27.344 28.254" fill="#9558b2" fill-opacity=".55"/><path d="M488.223 196.79l3.605 60.39-21.633-24.34M480.93 363.313l-16.582-70.946 29.48 7.371" fill="#cb3c33" fill-opacity=".55"/><path d="M492.117 262.348l1.817 35.355-29.012-7.254" fill="#389826" fill-opacity=".55"/><path d="M492.621 86.602l-33.914-20.528 44.625.895" fill="#cb3c33" fill-opacity=".55"/><path d="M455.766 64.016L439.902 6.164l62.52 58.785" fill="#4063d8" fill-opacity=".55"/><path d="M438.016 1.96l-65.723-19.808 128.742 2.703" fill="#389826" fill-opacity=".55"/><path d="M504.082 63.762L439.988 3.496 506.95-14.68" fill="#cb3c33" fill-opacity=".55"/><path d="M488.926 190.887L469.449 157.5l44.512-17.617" fill="#389826" fill-opacity=".55"/><path d="M468.785 155.613l-8.437-51.582 53.453 33.762" fill="#4063d8" fill-opacity=".55"/><path d="M492.492 89.29l21.192 46.062-52.512-33.165M516.266 139.727l19.199 20.113-43.883 30.172" fill="#cb3c33" fill-opacity=".55"/><path d="M493.848 257.406l-3.774-63.207 49.055 8.492" fill="#9558b2" fill-opacity=".55"/><path d="M536.164 161.79l3.715 39.003-48.29-8.36M495.691 300.621l49.34 31.313-62.625 34.16M508.883-12.79l48.344 74.888-51.188 2.843M505.309 67.523l48.824 38.88-59.676-18.989" fill="#389826" fill-opacity=".55"/><path d="M558 64.059v42.867l-50.324-40.074" fill="#cb3c33" fill-opacity=".55"/><path d="M516.418 136.512L494.855 89.64l61.872 19.687" fill="#9558b2" fill-opacity=".55"/><path d="M536.68 158.215l-19.137-20.047 39.187-26.43" fill="#389826" fill-opacity=".55"/><path d="M495.91 297.219l-1.863-36.317 67.976-6.515" fill="#cb3c33" fill-opacity=".55"/><path d="M540.785 203.832l23.68 48.309-69.153 6.632" fill="#389826" fill-opacity=".55"/><path d="M546.844 330.715l-47.453-30.113 67.527 9.125" fill="#cb3c33" fill-opacity=".55"/><path d="M565.094 254.777l2.843 53.07-70.128-9.476M558.371 60.18l-48.59-75.266 59.067-2.855" fill="#4063d8" fill-opacity=".55"/><path d="M569.887 306.824l-2.528-47.164 13.473 37.055" fill="#cb3c33" fill-opacity=".55"/><path d="M570.723-16.863l11.125 11.129-20.54 59.058" fill="#9558b2" fill-opacity=".55"/><path d="M581.125 291.672l-13.633-37.488 14.488 1.703" fill="#389826" fill-opacity=".55"/><path d="M541.746 199.27l-3.687-38.684 49.734-24.863" fill="#4063d8" fill-opacity=".55"/><path d="M559.414 110.563l29.691 22.265-50.101 25.05" fill="#9558b2" fill-opacity=".55"/><path d="M547.086 333.09l60.355 21.36-121.636 12.07" fill="#cb3c33" fill-opacity=".55"/><path d="M568.992 310.457l39.48 42.234-59.679-21.117" fill="#4063d8" fill-opacity=".55"/><path d="M581.715 298.625l26.07 50.398-37.367-39.972" fill="#389826" fill-opacity=".55"/><path d="M582.52 253.938l-14.239-1.676 41.875-38.528" fill="#4063d8" fill-opacity=".55"/><path d="M566.309 251.355l-23.649-48.242 70.945 4.73" fill="#9558b2" fill-opacity=".55"/><path d="M590.672 135.156l23.902 70.746-71.703-4.78" fill="#cb3c33" fill-opacity=".55"/><path d="M583.23-3.613l34.141 58.797-56.902 6.636" fill="#389826" fill-opacity=".55"/><path d="M590.86 131.645l-29.301-21.977 54.937-7.324" fill="#cb3c33" fill-opacity=".55"/><path d="M560 107.86V64.815l56.14 35.555" fill="#389826" fill-opacity=".55"/><path d="M618 57.125v42.059l-56.078-35.516M583.984 255.691l44.832-17.382-45.746 55.808" fill="#cb3c33" fill-opacity=".55"/><path d="M615.906 208.902l14.664 26.578-44.91 17.415M620 99.84V60.426l17.516 36.785" fill="#389826" fill-opacity=".55"/><path d="M616.695 205.938l-22.32-66.075 42.855 64.285" fill="#4063d8" fill-opacity=".55"/><path d="M631.605 233.21l-13.988-25.347 20.106-1.75" fill="#cb3c33" fill-opacity=".55"/><path d="M638.574 94.781l-17.863-37.515 24.117 3.57" fill="#9558b2" fill-opacity=".55"/><path d="M612.469 353.727l-27.746-53.641 59.191 40.691" fill="#4063d8" fill-opacity=".55"/><path d="M583.55-6.867l-8.82-8.817L626.97 8.738" fill="#389826" fill-opacity=".55"/><path d="M645.027 58.844L620.77 55.25l25.156-35.04" fill="#cb3c33" fill-opacity=".55"/><path d="M619.09 54.16L585.242-4.133l60.172 21.625" fill="#9558b2" fill-opacity=".55"/><path d="M619.082 102.426l40.965 37.238-67.035-7.445" fill="#389826" fill-opacity=".55"/><path d="M638.465 99.09l20.68 37.055-37.915-34.47" fill="#4063d8" fill-opacity=".55"/><path d="M638.75 202.82l-45.727-68.59 68.59 7.622" fill="#cb3c33" fill-opacity=".55"/><path d="M631.992 237.59l34.184 42.73-81.668 15.196" fill="#9558b2" fill-opacity=".55"/><path d="M645.504 339.445l-60.95-41.902 81.903-15.238" fill="#389826" fill-opacity=".55"/><path d="M646.79 61.242l30.886 8.176-37.246 26.348" fill="#4063d8" fill-opacity=".55"/><path d="M647.922 20.32l29.867 47.059-30.77-8.145M663.566 142.34l22.746 10.012-44.585 48.226" fill="#389826" fill-opacity=".55"/><path d="M668.48 280l-30.02-37.527L685.16 280" fill="#cb3c33" fill-opacity=".55"/><path d="M668.7 282h17.378l-36.5 52.145" fill="#9558b2" fill-opacity=".55"/><path d="M645.98 342.09l36.59 16.55-66.207-4.355" fill="#cb3c33" fill-opacity=".55"/><path d="M687 284.172v74.277l-39.488-17.863" fill="#389826" fill-opacity=".55"/><path d="M647.188 15.984l-66.067-30.89L684.086 13.41" fill="#cb3c33" fill-opacity=".55"/><path d="M679.473 66.305l-30.73-48.426 40.042-2.793" fill="#9558b2" fill-opacity=".55"/><path d="M663.023 138.992l-22.5-40.312 53.438-12.188" fill="#389826" fill-opacity=".55"/><path d="M679.89 70.305l14.122 14.12-50.317 11.477M687.168 150.54l-22.734-10 30.007-50.927" fill="#cb3c33" fill-opacity=".55"/><path d="M687.715 279.488L639.5 240.742l55.102 26.692M639.785 206.07l65.145 5.504-71.57 22.942" fill="#389826" fill-opacity=".55"/><path d="M695.328 265.563l-60.644-29.372 73.91-23.691M687.633 153.871l20.879 56-67.387-5.695" fill="#4063d8" fill-opacity=".55"/><path d="M690.61 16.242l40.37 46.945-49.761 4.692" fill="#389826" fill-opacity=".55"/><path d="M696.168 83.754l-13.957-13.957 46.238-4.363M689 356.848v-74.594l45.324 10.387" fill="#4063d8" fill-opacity=".55"/><path d="M696.352 268.398L730.43 289.7l-40.895-9.37" fill="#9558b2" fill-opacity=".55"/><path d="M696.715 87.441l39.574 48.055-47.113 15.078" fill="#389826" fill-opacity=".55"/><path d="M710 208.14l-20.695-55.507 47.039-15.051" fill="#9558b2" fill-opacity=".55"/><path d="M737.41 140.441L743.902 210h-32.46" fill="#4063d8" fill-opacity=".55"/><path d="M710.48 213.203l41.47 51.832-54.665.942" fill="#cb3c33" fill-opacity=".55"/><path d="M744.148 212l8.25 50.395L712.082 212M735.723 290.645l-36.328-22.704 52.671-.906M690.074 12.984l-105.52-29.02L748.115 5.95" fill="#389826" fill-opacity=".55"/><path d="M732.68 62.094l-40.7-47.328 62.47-7.57" fill="#cb3c33" fill-opacity=".55"/><path d="M732.727 65.305l24.82 33.093-58.832-13.789" fill="#9558b2" fill-opacity=".55"/><path d="M737.879 134.281l-39.227-47.633 59.774 14.008" fill="#4063d8" fill-opacity=".55"/><path d="M735.816 293.992l28.649 62.067-74.48 2.863" fill="#9558b2" fill-opacity=".55"/><path d="M756.195 8.223l30.125 48.953-51.777 5.648" fill="#4063d8" fill-opacity=".55"/><path d="M787 8.938v45.53l-29.137-47.35" fill="#9558b2" fill-opacity=".55"/><path d="M759.953 98.27l-25.101-33.465 51.128-5.578" fill="#389826" fill-opacity=".55"/><path d="M754.242 267.406L786.906 291H737.91" fill="#cb3c33" fill-opacity=".55"/><path d="M765.898 354.39L737.562 293h51.004" fill="#389826" fill-opacity=".55"/><path d="M760.52 101.07l37.023 4.516-56.895 27.996" fill="#9558b2" fill-opacity=".55"/><path d="M787.617 60.375l12.02 43.453-37.903-4.625" fill="#cb3c33" fill-opacity=".55"/><path d="M789.75 290.586l-32.574-23.527 47.957.906" fill="#389826" fill-opacity=".55"/><path d="M754.852 265.016l-8.403-51.36 57.895 52.293" fill="#9558b2" fill-opacity=".55"/><path d="M800.516 106.352l13.914 30.609-72.344-1.856" fill="#389826" fill-opacity=".55"/><path d="M790.238 294.238l26.274 41.285-48.79 19.704" fill="#4063d8" fill-opacity=".55"/><path d="M806.41 269.648l9.844 61.743-25.059-39.371" fill="#cb3c33" fill-opacity=".55"/><path d="M745.871 209.586l-6.695-71.77 77.508 44.02" fill="#389826" fill-opacity=".55"/><path d="M815.063 138.977l2.812 41.234-75.91-43.11M806.273 264.996l-59.402-53.656 70.899-27.785" fill="#cb3c33" fill-opacity=".55"/><path d="M801.32 102.406l-12.05-43.574 39.863-5.562" fill="#389826" fill-opacity=".55"/><path d="M789 56.852V10.453l39.902 40.828" fill="#cb3c33" fill-opacity=".55"/><path d="M819.176 187.902l12.707 62.614-23.594 14.52" fill="#9558b2" fill-opacity=".55"/><path d="M817.973 337.09l11.882 5.547-53.078 11.09" fill="#cb3c33" fill-opacity=".55"/><path d="M816.633 136.973l-12.992-28.578 34.644 27.714" fill="#4063d8" fill-opacity=".55"/><path d="M819.742 178.203l-2.676-39.246 22.301-.89" fill="#389826" fill-opacity=".55"/><path d="M831.223 53.637l28.957 28.957-56.98 20.55" fill="#9558b2" fill-opacity=".55"/><path d="M840.563 135.367l-37.543-30.031 57.25-20.648M833.469 248.29l-13.086-64.5 40.195 19.628" fill="#389826" fill-opacity=".55"/><path d="M840.805 139.68l19.535 61.394-40.004-19.535" fill="#4063d8" fill-opacity=".55"/><path d="M830.945 50.512L790.582 9.21l70.402 5.633M818.781 334.55l-10.406-65.284 58.66 43.523" fill="#9558b2" fill-opacity=".55"/><path d="M832.648 252.39l33.051 56.915-56.918-42.227M832.848 341.824l-12.45-5.808 42.329-19.09" fill="#4063d8" fill-opacity=".55"/><path d="M861.805 81.39L832.91 52.497l55.922-15.844" fill="#cb3c33" fill-opacity=".55"/><path d="M863.156 15.367l25.63 19.223-54.919 15.558" fill="#389826" fill-opacity=".55"/><path d="M862.055 204.84l27.164 39.34-54.324 5.617" fill="#9558b2" fill-opacity=".55"/><path d="M868.738 310.559l-34.097-58.723 54.933-5.684" fill="#cb3c33" fill-opacity=".55"/><path d="M869.32 314.035l17.992 1.633-47.433 22.898" fill="#9558b2" fill-opacity=".55"/><path d="M890 251.34v62.566l-19.664-1.789" fill="#389826" fill-opacity=".55"/><path d="M862.21 85.223l28.106 44.968-47.78 5.621" fill="#9558b2" fill-opacity=".55"/><path d="M862.125 200.098l-19.805-62.246 48.098-5.66" fill="#389826" fill-opacity=".55"/><path d="M756.004 4.992l-168.742-22.68 302.101 5.442" fill="#4063d8" fill-opacity=".55"/><path d="M787.941 6.996l-21.457-1.344 98.567-12.738" fill="#389826" fill-opacity=".55"/><path d="M862.73 12.977l-67.039-5.364L898.484-11.16" fill="#4063d8" fill-opacity=".55"/><path d="M890.395 33.297l-25.672-19.254 36.675-24.754" fill="#cb3c33" fill-opacity=".55"/><path d="M890.86 37.168L910.472 82h-46.7" fill="#389826" fill-opacity=".55"/><path d="M891.82 128.828L863.805 84H910.5M890.922 316.148l21.355 14.239-72.972 10.68" fill="#cb3c33" fill-opacity=".55"/><path d="M891.18 243.5l-26.742-38.73L917 220.445" fill="#389826" fill-opacity=".55"/><path d="M891.852 133.957l25.652 84.555-54.152-16.153" fill="#cb3c33" fill-opacity=".55"/><path d="M914.855 329.703l-21.027-14.02 38.547-4.378" fill="#389826" fill-opacity=".55"/><path d="M892 313.879v-65.617l41.246 60.93" fill="#4063d8" fill-opacity=".55"/><path d="M903.422-10.563l41.156 61.735-52.383-16.836" fill="#389826" fill-opacity=".55"/><path d="M912.375 81.363l-19.57-44.734 52.187 16.777" fill="#cb3c33" fill-opacity=".55"/><path d="M912.07 85.43l33.801 69.48-52.578-24.414" fill="#389826" fill-opacity=".55"/><path d="M919.191 217.191l-25.586-84.343 53.07 24.64" fill="#9558b2" fill-opacity=".55"/><path d="M833.121 343.996l85.367-2.918-134.254 13.133" fill="#4063d8" fill-opacity=".55"/><path d="M914.96 332.016l27.33 6.246-91.356 3.125" fill="#9558b2" fill-opacity=".55"/><path d="M934.758 311.707l13.363 25.836-31.183-7.125M919.242 221.125l28.063 8.77-52.617 13.152" fill="#4063d8" fill-opacity=".55"/><path d="M934.488 307.46l-41.86-61.835 57.083-14.273M947.414 160.66l5.496 47.633-32.058 10.078" fill="#389826" fill-opacity=".55"/><path d="M950.176 228.695l-27.832-8.699 30.441-9.566M946.71 54.563l17.517 32.269-49.782-4.61" fill="#9558b2" fill-opacity=".55"/><path d="M947.715 154.129l-34.04-69.969 51.06 4.727M946.969 51.152l-41.258-61.89 62.828 27.195" fill="#cb3c33" fill-opacity=".55"/><path d="M954.844 210.176l27.738 5.199-30.34 13.004" fill="#389826" fill-opacity=".55"/><path d="M954.91 208.152l-5.433-47.074 34.402 52.508" fill="#cb3c33" fill-opacity=".55"/><path d="M966.148 86.176l-17.375-32.008 39.32 3.66" fill="#389826" fill-opacity=".55"/><path d="M969.895 18.063L988.32 55.84l-39.617-3.688" fill="#4063d8" fill-opacity=".55"/><path d="M989.488 53.672l-17.855-36.61 23.21.895M951.715 231.531l50.433 27.594-65.66 48.531" fill="#cb3c33" fill-opacity=".55"/><path d="M985.46 216.32l16.548 40.45-48.723-26.66" fill="#9558b2" fill-opacity=".55"/><path d="M950.008 340.004l46.976 3.789-186.382 9.848" fill="#cb3c33" fill-opacity=".55"/><path d="M966.703 89.262l46.203 14.144-63.172 50.914" fill="#4063d8" fill-opacity=".55"/><path d="M989.852 58.824l23.101 42.504-45.277-13.86" fill="#9558b2" fill-opacity=".55"/><path d="M985.938 213.078l-36.032-54.996 65.422 2.848" fill="#389826" fill-opacity=".55"/><path d="M1014.07 105.035l1.89 53.918-65.269-2.836" fill="#cb3c33" fill-opacity=".55"/><path d="M950.465 337.723L936.645 311h78.328" fill="#389826" fill-opacity=".55"/><path d="M1003.465 260.637L1018.637 309h-80.602M1011.223 342.934l-57.008-4.598 64.363-26.664" fill="#9558b2" fill-opacity=".55"/><path d="M1020.637 311.664l7.988 5.594-14.383 21.574" fill="#389826" fill-opacity=".55"/><path d="M1017.914 157.563l-1.723-49.075 14.637 35.297" fill="#4063d8" fill-opacity=".55"/><path d="M1029.973 318.844l8.543 13.664-23.918 9.398" fill="#9558b2" fill-opacity=".55"/><path d="M995.766 15.992l-20.414-.785 61.238-21.2" fill="#389826" fill-opacity=".55"/><path d="M970.04 14.93l-62.052-26.86 134.293 1.852" fill="#9558b2" fill-opacity=".55"/><path d="M1004.262 257l-16.89-41.285 58.175-13.137" fill="#389826" fill-opacity=".55"/><path d="M1017.121 161.82l29.145 38.547-58.29 13.16" fill="#cb3c33" fill-opacity=".55"/><path d="M1031.516 145.977l14.093 50.203-27.304-36.11" fill="#9558b2" fill-opacity=".55"/><path d="M1031.945 141.254l-15.566-37.543 32.047-7.324" fill="#cb3c33" fill-opacity=".55"/><path d="M996.723 18.93l56.816 48.433-62.406-11.175" fill="#389826" fill-opacity=".55"/><path d="M1047.172-9.418l8.55 76.016-57.96-49.41" fill="#cb3c33" fill-opacity=".55"/><path d="M1049.191 94.16l-30.21 6.903 36.253-29.344" fill="#389826" fill-opacity=".55"/><path d="M1015.305 101.465L991.87 58.352l62.8 11.246" fill="#4063d8" fill-opacity=".55"/><path d="M1029.676 315.555l-8.192-5.735 33.59-38.504" fill="#cb3c33" fill-opacity=".55"/><path d="M1020.418 307.996l-15.023-47.894 53.53 3.753" fill="#389826" fill-opacity=".55"/><path d="M1047.473 203.352l12.277 58.558-53.836-3.777" fill="#cb3c33" fill-opacity=".55"/><path d="M1057.473 64.25l-8.348-74.184 31.527 1.856" fill="#389826" fill-opacity=".55"/><path d="M1040.207 331.441l-8.754-14.003 46.387-21.004" fill="#cb3c33" fill-opacity=".55"/><path d="M1061.102 264.832l20.363 27.766-49.055 22.214" fill="#389826" fill-opacity=".55"/><path d="M1057.535 70.867l26.77 24.985-33.02-1.786" fill="#cb3c33" fill-opacity=".55"/><path d="M1048.387 198.672l-15.133-53.906 60.523-12.293" fill="#4063d8" fill-opacity=".55"/><path d="M1050.465 96.633l43.21 33.82-60.12 12.211" fill="#9558b2" fill-opacity=".55"/><path d="M1086.219 97.96l8.05 30.419-41.152-32.207M1061.55 260.762l-12.222-58.297 47.953 15.043" fill="#389826" fill-opacity=".55"/><path d="M1095.105 134.07l2.848 81.551-48.363-15.172" fill="#cb3c33" fill-opacity=".55"/><path d="M1011.969 345.004l70.843 8.14-271.156 2.446" fill="#389826" fill-opacity=".55"/><path d="M1040.016 334.066l50.402 17.942-74.32-8.543" fill="#cb3c33" fill-opacity=".55"/><path d="M1082.457 294.871l15.094 57.55-55.664-19.812" fill="#389826" fill-opacity=".55"/><path d="M1082.012-5.762l23.625 71.817-47.246 1.89" fill="#cb3c33" fill-opacity=".55"/><path d="M1086.82 95.465l-27.386-25.563 45.644-1.824" fill="#4063d8" fill-opacity=".55"/><path d="M1083.031 291.348l-20.25-27.61 47.86-7.363" fill="#9558b2" fill-opacity=".55"/><path d="M1098.664 218.977l12.977 35.222-48.196 7.414" fill="#4063d8" fill-opacity=".55"/><path d="M1112.988 252.074l-12.785-34.699 33.79-23.742" fill="#389826" fill-opacity=".55"/><path d="M1099.934 215.121l-2.813-80.637 37.504 56.258" fill="#9558b2" fill-opacity=".55"/><path d="M1107.594 65.602l-23.282-70.77 54.008 55.871" fill="#389826" fill-opacity=".55"/><path d="M1135.25 188.074l-36.836-55.258 40.52 12.895" fill="#4063d8" fill-opacity=".55"/><path d="M1099.555 352.18l-15.063-57.434 53.668 23.54" fill="#cb3c33" fill-opacity=".55"/><path d="M1112.742 256.938l25.34 59.128-53.496-23.46" fill="#389826" fill-opacity=".55"/><path d="M1139.555 49.102l-54.688-56.575L1153.7 4.785" fill="#cb3c33" fill-opacity=".55"/><path d="M1139.664 319.625l16.73 35.32-54.84-1.86M1139.512 143.793l-40.664-12.938 61.918-26.796" fill="#389826" fill-opacity=".55"/><path d="M1096.668 129.621l-8.344-31.531 70.48 4.637" fill="#4063d8" fill-opacity=".55"/><path d="M1107.293 68.363l51.805 32.38-70.305-4.626" fill="#389826" fill-opacity=".55"/><path d="M1139.512 52.348l21.218 47.054-51.668-32.293" fill="#cb3c33" fill-opacity=".55"/><path d="M1136.262 193.23l30.148 46.168-51.82 14.133" fill="#9558b2" fill-opacity=".55"/><path d="M1139.918 315.27l-25.547-59.606 52.04-14.195" fill="#cb3c33" fill-opacity=".55"/><path d="M1158.063 353.8l-16.668-35.195 43.527-13.894" fill="#4063d8" fill-opacity=".55"/><path d="M1167.918 243.191l17.84 59.157-44.133 14.082M1140.809 147.223l44.68 44.68-48.403-1.86" fill="#389826" fill-opacity=".55"/><path d="M1167.813 237.887l-29.918-45.813 48.617 1.871" fill="#4063d8" fill-opacity=".55"/><path d="M1155.656 5.227l32.117 9.175-45.878 33.953" fill="#389826" fill-opacity=".55"/><path d="M1163.07 103.988l38.57 61.145-60.203-20.696" fill="#9558b2" fill-opacity=".55"/><path d="M1187.813 191.398l-44.047-44.046 58.726 20.187" fill="#cb3c33" fill-opacity=".55"/><path d="M1203.27 163.969l-38.48-61.008 44.112-.938" fill="#4063d8" fill-opacity=".55"/><path d="M1187.207 300.219l-17.754-58.864 41.113 9.344" fill="#9558b2" fill-opacity=".55"/><path d="M1187.996 195.566l22.328 53.028-40.933-9.305M1209.07 100.02l-44.03.937 48.714-64.64" fill="#389826" fill-opacity=".55"/><path d="M1163.219 100.05l-21.809-48.359 71.113-17.07" fill="#9558b2" fill-opacity=".55"/><path d="M1189.992 15.25l22.723 17.27-68.172 16.359M1187.004 305.078l31.187 56.711-58.597-6.617M1210.695 104.414l27.832 51.957-33.402 9.277M1215.672 37.516l24.832 64.39-29.434-1.84" fill="#cb3c33" fill-opacity=".55"/><path d="M1239.137 153.273l-27.407-51.164 29.235 1.829M1155.078 3l-55.16-9.824 126.941 8.312" fill="#389826" fill-opacity=".55"/><path d="M1190.043 12.973l-28.39-8.114 77.058-1.62" fill="#cb3c33" fill-opacity=".55"/><path d="M1214.953 31.707l-22.582-17.16 54.195-10.84" fill="#389826" fill-opacity=".55"/><path d="M1204.16 168.648l45.004 48.676-59.7-24.797" fill="#9558b2" fill-opacity=".55"/><path d="M1239.238 158.25l12.055 58.434-45.445-49.16" fill="#389826" fill-opacity=".55"/><path d="M1245.227 239.184l-28.012 8.242 33.777-24.719" fill="#4063d8" fill-opacity=".55"/><path d="M1212.43 248.445l-22.563-53.586 61.11 25.383" fill="#cb3c33" fill-opacity=".55"/><path d="M1241.973 100.145l-25.504-66.118 49.113.946" fill="#389826" fill-opacity=".55"/><path d="M1249.71 3.59l15.61 29.379-47.738-.918" fill="#4063d8" fill-opacity=".55"/><path d="M1212.238 251.84l54.215 64.676-77.992-14.266" fill="#cb3c33" fill-opacity=".55"/><path d="M1245.324 241.242l21.36 72.438-52.938-63.153" fill="#9558b2" fill-opacity=".55"/><path d="M1267.023 356.113l-44.043 5.508 44.961-41.289" fill="#cb3c33" fill-opacity=".55"/><path d="M1220.262 361.402l-31.371-57.039 77.953 14.258" fill="#389826" fill-opacity=".55"/><path d="M1267.512 32.828l-14.078-26.492 26.496 23.18" fill="#cb3c33" fill-opacity=".55"/><path d="M1269.934 320.605l10.843 12.508-11.68 20.016" fill="#9558b2" fill-opacity=".55"/><path d="M1253.625 218.082l-12.11-58.684 41.919 31.672" fill="#4063d8" fill-opacity=".55"/><path d="M1253.64 221.2l40.395 10.538-46.543 7.024" fill="#cb3c33" fill-opacity=".55"/><path d="M1284.547 192.762l12.906 37.8-42.41-11.062M1269.078 314.734l-21.793-73.918 50.223-7.582" fill="#389826" fill-opacity=".55"/><path d="M1267.113 36.629l34.203 74.113-57.96-8.555" fill="#cb3c33" fill-opacity=".55"/><path d="M1281.281 31.227l18.028 70.386-30.903-66.953" fill="#389826" fill-opacity=".55"/><path d="M1242.957 104.152l57.445 8.477-59.328 42.375" fill="#9558b2" fill-opacity=".55"/><path d="M1282.11 331.598l-11.325-13.063 40.063-11.32" fill="#389826" fill-opacity=".55"/><path d="M1298.781 235.668l15.04 68.625-43.243 12.223" fill="#cb3c33" fill-opacity=".55"/><path d="M1282.164 28.816l-28.879-25.273 61.371 9.93M1285 189.746l-41.469-31.332 71.88 8.293" fill="#389826" fill-opacity=".55"/><path d="M1302.418 113.645l14.223 51.19-73.946-8.53" fill="#4063d8" fill-opacity=".55"/><path d="M1298.918 228.668l-12.738-37.309 30.027-22.746" fill="#cb3c33" fill-opacity=".55"/><path d="M1315.27 301.563l-14.692-67.032 31.223 24.793" fill="#389826" fill-opacity=".55"/><path d="M1249.934.992L1104.449-8.53l219.09-5.196" fill="#9558b2" fill-opacity=".55"/><path d="M1317.496 11.906l-61.879-10.011 77.348-15.47" fill="#4063d8" fill-opacity=".55"/><path d="M1332.805 262.242l7.035 27.274-22.871 13.191" fill="#9558b2" fill-opacity=".55"/><path d="M1318.637 164.563l-13.922-50.13 47.344 33.419" fill="#389826" fill-opacity=".55"/><path d="M1317.91 14.148l33.18 22.418-65.461-7.175" fill="#cb3c33" fill-opacity=".55"/><path d="M1334.79-12.727l18.163 48.137-33.605-22.707" fill="#389826" fill-opacity=".55"/><path d="M1303.648 110.496l-20.015-78.144 71.476 49.554" fill="#4063d8" fill-opacity=".55"/><path d="M1354.04 38.902l1.87 41.125-70.101-48.605" fill="#389826" fill-opacity=".55"/><path d="M1353.086 146.129l-48.207-34.027 51.039-28.36" fill="#9558b2" fill-opacity=".55"/><path d="M1318.547 167.719l37.683 30.148-55.585 32.031" fill="#4063d8" fill-opacity=".55"/><path d="M1332.578 257.39l-31.805-25.257 55.192-31.805M1353.121 149.559l3.7 46.214-36.977-29.578" fill="#cb3c33" fill-opacity=".55"/><path d="M1282.45 334.215l78.413 27.355-91.18-5.472" fill="#4063d8" fill-opacity=".55"/><path d="M1314.91 306.387l49.68 54.363-80.61-28.117" fill="#9558b2" fill-opacity=".55"/><path d="M1340.473 291.457l24.816 67.094-48.71-53.305M1341.785 289.047l-7.215-27.969 52.325 30.672" fill="#cb3c33" fill-opacity=".55"/><path d="M1367.945 359.965l-25.476-68.875 47.176 2.832M1391.027 199.91l-30.949-2.73 31.86-35.496" fill="#389826" fill-opacity=".55"/><path d="M1358.813 195.598l-3.7-46.246 36.07 10.175" fill="#9558b2" fill-opacity=".55"/><path d="M1357.93 83.598l48.175 24.558-51.011 37.79" fill="#389826" fill-opacity=".55"/><path d="M1392.32 157.77l-36.086-10.18 49.965-37.012M1355.55 36.625l-18.843-49.938 69.723 25.442" fill="#4063d8" fill-opacity=".55"/><path d="M1358.387 199.7l50.41 45.652-74.192 12.367" fill="#389826" fill-opacity=".55"/><path d="M1391.313 201.941l17.007 40.282-47.441-42.965" fill="#cb3c33" fill-opacity=".55"/><path d="M1390.523 291.563l-54.636-32.032 73.48-12.246M1407.098 106.418l-48.368-24.66 53.11-49.317" fill="#9558b2" fill-opacity=".55"/><path d="M1357.902 79.797l-1.863-40.93 53.957-7.445" fill="#4063d8" fill-opacity=".55"/><path d="M1408.297 13.45l3.492 15.706-50.621 6.985" fill="#389826" fill-opacity=".55"/><path d="M1391.184 295.645l26.375 53.69-48.04 12.247" fill="#cb3c33" fill-opacity=".55"/><path d="M1408.852 10.879l-65.977-24.07 87.371 8.914" fill="#9558b2" fill-opacity=".55"/><path d="M1413.832 29.14l-3.258-14.675 24.457 18.754" fill="#4063d8" fill-opacity=".55"/><path d="M1432.254-3.246l5.39 35.945-26.96-20.668M1413.926 31.195l23.672 4.555-28.223 66.457" fill="#389826" fill-opacity=".55"/><path d="M1411.355 247.719l39.403 37.527-58.168 6.567" fill="#cb3c33" fill-opacity=".55"/><path d="M1419.035 347.805l-26.512-53.97 58.704-6.628" fill="#389826" fill-opacity=".55"/><path d="M1431.473 360.152l-11.227-10.363 29.363-55.277M1452.05 283.715l-38.769-36.922 39.696-3.691" fill="#4063d8" fill-opacity=".55"/><path d="M1408.617 109.438l44.043 22.492-58.098 25.297" fill="#389826" fill-opacity=".55"/><path d="M1453.266 241.063l-37.371 3.476 44.324-23.465" fill="#9558b2" fill-opacity=".55"/><path d="M1411.496 244.605l-17.789-42.132 65.543 16.851" fill="#389826" fill-opacity=".55"/><path d="M1393.95 161.152l64.198 55.825-65.128-16.747" fill="#4063d8" fill-opacity=".55"/><path d="M1454.117 133.477l6.692 83.16-65.957-57.352M1438.879 37.84l22.738 69.16h-52.105" fill="#cb3c33" fill-opacity=".55"/><path d="M1454.418 130.582L1412.156 109h49.457" fill="#4063d8" fill-opacity=".55"/><path d="M1463.516 106.363l-22.024-66.988 44.047 50.473" fill="#389826" fill-opacity=".55"/><path d="M1462.602 214.027l-6.493-80.687 30.61 8.347" fill="#9558b2" fill-opacity=".55"/><path d="M1463.348 110.117l22.082 29.145-29.149-7.95" fill="#389826" fill-opacity=".55"/><path d="M1486.04 91.973l.901 45.972-22.539-29.75" fill="#9558b2" fill-opacity=".55"/><path d="M1453.5 287.941l47.688 48.637-67.715 23.844" fill="#389826" fill-opacity=".55"/><path d="M1486.754 88.195l-45.094-51.668 63.88 12.211" fill="#4063d8" fill-opacity=".55"/><path d="M1506.137 46.816l-62.754-11.996 66.445-18.457" fill="#9558b2" fill-opacity=".55"/><path d="M1439.82 33.734l-5.61-37.39 72.915 18.695" fill="#4063d8" fill-opacity=".55"/><path d="M1502.445 335.008l-46.64-47.574 55.968 8.394" fill="#cb3c33" fill-opacity=".55"/><path d="M1454.977 243.102l56.96 5.601-57.894 35.484" fill="#389826" fill-opacity=".55"/><path d="M1512.047 293.848l-56.184-8.43 58.059-35.582" fill="#9558b2" fill-opacity=".55"/><path d="M1462.555 220.445l47.668 26.078-54.86-5.394M1488.078 143.926l26.52 67.246-51.145 6.633" fill="#cb3c33" fill-opacity=".55"/><path d="M1514.047 246.34l-48.871-26.742 49.793-6.457" fill="#9558b2" fill-opacity=".55"/><path d="M1511.652 17.918l19.446 30.934-22.98-1.77" fill="#389826" fill-opacity=".55"/><path d="M1488.945 138.172l-.93-47.344 44.563-8.355" fill="#cb3c33" fill-opacity=".55"/><path d="M1507.238 49.824l25.887 30.512-44.375 8.32" fill="#389826" fill-opacity=".55"/><path d="M1532.059 50.93l1.75 27.12-24.496-28.87" fill="#9558b2" fill-opacity=".55"/><path d="M1516.977 212.832l18.125-3.453-18.989 34.52" fill="#389826" fill-opacity=".55"/><path d="M1503.105 338.023l30.57 4.133-89.23 16.524" fill="#cb3c33" fill-opacity=".55"/><path d="M1513.39 297.684l24.731 43.054-33.89-4.582M1515.957 249h32.95l-34.778 43.016" fill="#389826" fill-opacity=".55"/><path d="M1536.797 210.445L1549.59 247h-32.899" fill="#cb3c33" fill-opacity=".55"/><path d="M1536.332 207.11l-17.562 3.343 35.96-39.308" fill="#4063d8" fill-opacity=".55"/><path d="M1516.344 210.145l-26.625-67.508 67.508 22.82" fill="#389826" fill-opacity=".55"/><path d="M1534.578 83.16l22.938 80.281-67.86-22.937" fill="#9558b2" fill-opacity=".55"/><path d="M1539.84 339.71l-25.317-44.065 47.817-12.192" fill="#cb3c33" fill-opacity=".55"/><path d="M1550.688 249.98l11.976 31.329-46.992 11.98M1510.965 13.957L1441.16-3.941l120.813.898" fill="#9558b2" fill-opacity=".55"/><path d="M1533.012 48.14l-20.489-32.593 53.086-17.695" fill="#cb3c33" fill-opacity=".55"/><path d="M1535.895 79.32L1534.066 51h50.243" fill="#4063d8" fill-opacity=".55"/><path d="M1567.754-1.781L1586.563 49h-51.723M1539.926 343.031l44.347 15.078-140.136 2.66" fill="#389826" fill-opacity=".55"/><path d="M1563.922 284.89l24.484 72.512-47.086-16.007" fill="#9558b2" fill-opacity=".55"/><path d="M1559.754 164l-22.418-78.469L1599.922 164" fill="#389826" fill-opacity=".55"/><path d="M1551.441 246.23l-13.101-37.43 64.566-10.292" fill="#4063d8" fill-opacity=".55"/><path d="M1559.375 166.465l43.98 29.945-64.566 10.293" fill="#9558b2" fill-opacity=".55"/><path d="M1601.117 166l3.617 28.926L1562.246 166M1588.063 47.29l-18.598-50.22 39.055 1.86M1564.469 280.426L1552.453 249h55.457" fill="#cb3c33" fill-opacity=".55"/><path d="M1605.203 199.105l4.695 47.895h-56.347" fill="#9558b2" fill-opacity=".55"/><path d="M1590.133 356.262l-24.52-72.606 49.035 17.914" fill="#cb3c33" fill-opacity=".55"/><path d="M1610.168 249.836l4.687 49.68-48.742-17.809" fill="#389826" fill-opacity=".55"/><path d="M1587.695 51.336l29.157 43.266-79.004-14.11" fill="#9558b2" fill-opacity=".55"/><path d="M1601.516 162.79l-64.079-80.34 80.336 14.347" fill="#cb3c33" fill-opacity=".55"/><path d="M1619.125 94.398l-27.348-40.582 39.7 27.348" fill="#389826" fill-opacity=".55"/><path d="M1611.852 246.457l-4.594-46.89 34.015 32.18" fill="#cb3c33" fill-opacity=".55"/><path d="M1610.25-.027l33.848 44.187-54.532 4.7" fill="#4063d8" fill-opacity=".55"/><path d="M1632.5 79.441l-41.637-28.683 53.664-4.63" fill="#9558b2" fill-opacity=".55"/><path d="M1619.266 99.098l30.144 68.77-46.16-3.77" fill="#4063d8" fill-opacity=".55"/><path d="M1606.797 195.324l-3.652-29.226 44.757 3.652" fill="#389826" fill-opacity=".55"/><path d="M1616.164 303.082l38.895 59.77-63.563-4.743" fill="#9558b2" fill-opacity=".55"/><path d="M1616.863 299.508l-4.668-49.496 45.762 30.816" fill="#cb3c33" fill-opacity=".55"/><path d="M1642.43 233.402l15.644 45.094-45.094-30.367M1656.113 360.805l-38.64-59.375 41.468-18.852" fill="#4063d8" fill-opacity=".55"/><path d="M1642.719 230.36l-34.297-32.446 51.91-1.855" fill="#389826" fill-opacity=".55"/><path d="M1650.535 170.469l9.977 23.582-50.797 1.816" fill="#4063d8" fill-opacity=".55"/><path d="M1645.773 43.063l-33.8-44.13 54.457-1.878" fill="#389826" fill-opacity=".55"/><path d="M1633.266 82.18l41.464 16.414-53.558-3.457" fill="#9558b2" fill-opacity=".55"/><path d="M1650.996 166.5l-30.422-69.395 58.942 3.801" fill="#389826" fill-opacity=".55"/><path d="M1646.25 47.254l32.25 50.68-44.23-17.508" fill="#cb3c33" fill-opacity=".55"/><path d="M1660.504 279.406l-15.727-45.332 45.332 24.055" fill="#9558b2" fill-opacity=".55"/><path d="M1661.965 197.254l27.832 58.445-45.457-24.12" fill="#4063d8" fill-opacity=".55"/><path d="M1662.543 193.719l-9.867-23.328 44.86 9.87" fill="#9558b2" fill-opacity=".55"/><path d="M1691.406 254.426l-28.039-58.88 36.45-14.019" fill="#389826" fill-opacity=".55"/><path d="M1668.238-2.086L1700.09 38.2l-52.465 5.621" fill="#4063d8" fill-opacity=".55"/><path d="M1680.73 97.71l-33.023-51.886 52.836-5.664M1660.93 283.004l44.527 35.055-47.371 43.582" fill="#389826" fill-opacity=".55"/><path d="M1695.219 368.867l-36.012-5.539 46.168-42.473M1691.387 259.672l13.933 55.734-43.656-34.37" fill="#cb3c33" fill-opacity=".55"/><path d="M1701.652 36.95l-31.68-40.067 46.59-2.793" fill="#389826" fill-opacity=".55"/><path d="M1681.375 101.648l35.867 31.149-64.187 33.984" fill="#cb3c33" fill-opacity=".55"/><path d="M1700.375 178.84l-46.5-10.23 63.238-33.481" fill="#389826" fill-opacity=".55"/><path d="M1701.563 183.863l29.968 70.242-38.398 2.81" fill="#cb3c33" fill-opacity=".55"/><path d="M1707.234 314.813l-13.976-55.903 38.199-2.793" fill="#389826" fill-opacity=".55"/><path d="M1702.516 40.578l40.511 28.266-60.3 29.207" fill="#9558b2" fill-opacity=".55"/><path d="M1718.602 131.328l-35.801-31.09 60.293-29.203" fill="#389826" fill-opacity=".55"/><path d="M1718.012-3.984l25 70.379-39.82-27.782" fill="#cb3c33" fill-opacity=".55"/><path d="M1732.7 251.746l-30.145-70.648 45.215 2.828" fill="#389826" fill-opacity=".55"/><path d="M1707.688 319.574l39.242 23.36-49.52 25.226" fill="#4063d8" fill-opacity=".55"/><path d="M1732.832 258.027l15.871 55.09-40.148 3.735" fill="#cb3c33" fill-opacity=".55"/><path d="M1748.059 341.277l-37.91-22.566 38.812-3.61M1719.48 134.543l32.465 22.258-49.16 21.336" fill="#9558b2" fill-opacity=".55"/><path d="M1748.184 181.945l-42.97-2.683 47.446-20.59" fill="#cb3c33" fill-opacity=".55"/><path d="M1744.852 65.594l-25.485-71.73 45.305-4.72M1745.492 70.445l21.883 12.766-45.59 45.59" fill="#4063d8" fill-opacity=".55"/><path d="M1785.05 138.387l-26.667 15 28.336-33.336" fill="#389826" fill-opacity=".55"/><path d="M1753.82 155.664l-32.379-22.203 63.836-14.805" fill="#cb3c33" fill-opacity=".55"/><path d="M1768.773 84.64l17.704 31.688-64.301 14.91" fill="#389826" fill-opacity=".55"/><path d="M1750.754 313l-15.637-54.262L1785.7 313" fill="#9558b2" fill-opacity=".55"/><path d="M1750.965 315h34.015l-34.91 25.957" fill="#389826" fill-opacity=".55"/><path d="M1766.652-10.531L1787.57.383l-40.015 62.754" fill="#9558b2" fill-opacity=".55"/><path d="M1768.785 81.719l-21.512-12.551 49.297-19.719" fill="#cb3c33" fill-opacity=".55"/><path d="M1788.566 2.54l10.266 43.85-51.316 20.528" fill="#389826" fill-opacity=".55"/><path d="M1749.547 185.152l57.332 65.93-72.621 2.867" fill="#9558b2" fill-opacity=".55"/><path d="M1787.59 312.094l-52.371-56.18 72.367-2.86" fill="#cb3c33" fill-opacity=".55"/><path d="M1754.758 158.355l55.344 20.868-59.88 2.722" fill="#4063d8" fill-opacity=".55"/><path d="M1785.703 140.313l26.594 37.601-55.938-21.094M1808.2 249.555l-57.087-65.649 62.797-2.855" fill="#cb3c33" fill-opacity=".55"/><path d="M1749.285 343.977l58.137-5.813-102.152 28.234" fill="#389826" fill-opacity=".55"/><path d="M1788.016 315.234l28.23 20.036-63.75 6.375" fill="#cb3c33" fill-opacity=".55"/><path d="M1815.77 182.816l15.074 21.282-20.395 42.566" fill="#9558b2" fill-opacity=".55"/><path d="M1800.758 45.852L1790.707 2.91l41.117 37.457" fill="#4063d8" fill-opacity=".55"/><path d="M1831.328 207.719l3.59 40.394-24.238 2.696M1809.227 254.445l25.285 44.95-44.95 13.109" fill="#389826" fill-opacity=".55"/><path d="M1832.07 332.176l-11.3 2.422 13.722-29.063" fill="#cb3c33" fill-opacity=".55"/><path d="M1818.605 334.492l-28.34-20.11 43.883-12.8" fill="#9558b2" fill-opacity=".55"/><path d="M1835 250.117v46.067l-24.387-43.356M1788.402 115.672l-17.613-31.524 68.61 5.563" fill="#cb3c33" fill-opacity=".55"/><path d="M1800.063 48.46l40.257 39.321-69.277-5.617" fill="#389826" fill-opacity=".55"/><path d="M1833.2 42.156l8.234 43.914-39.34-38.425" fill="#9558b2" fill-opacity=".55"/><path d="M1833.445 39.145L1791.004.473l56.59-16.035" fill="#389826" fill-opacity=".55"/><path d="M1788.875 118.422l60.742 24.121-62.527-4.469" fill="#cb3c33" fill-opacity=".55"/><path d="M1842.32 90.469l12.266 51.894-64.16-25.476" fill="#4063d8" fill-opacity=".55"/><path d="M1815.176 178.516l-27.14-38.368 65.507 4.68" fill="#389826" fill-opacity=".55"/><path d="M1831.754 201.922l-15.418-21.766 37.184-32.648" fill="#4063d8" fill-opacity=".55"/><path d="M1843.629 86.926l-8.406-44.828 48.566 3.734" fill="#389826" fill-opacity=".55"/><path d="M1849.367-14.43l34.785 58.285-48.886-3.761" fill="#4063d8" fill-opacity=".55"/><path d="M1837 297.684V250.02l49.531.933" fill="#389826" fill-opacity=".55"/><path d="M1836.918 248.016l-3.715-41.758 52.899 42.687" fill="#4063d8" fill-opacity=".55"/><path d="M1818.977 337.043l65.628 21.262-179.324 10.168" fill="#cb3c33" fill-opacity=".55"/><path d="M1832.887 334.047l40.847 18.633-50.882-16.485" fill="#389826" fill-opacity=".55"/><path d="M1856.793 143l-12.102-51.195L1903.336 143" fill="#cb3c33" fill-opacity=".55"/><path d="M1886.055 43.137l-34.528-57.856 55.989 26.13" fill="#9558b2" fill-opacity=".55"/><path d="M1856.438 145.598l53.234 40.875-76.047 16.16" fill="#cb3c33" fill-opacity=".55"/><path d="M1905.129 145l5.543 39.719L1858.945 145M1888.54 248.344l-54.278-43.801 76.18-16.188M1836.902 301.113l70.239 8.317-73.012 22.183" fill="#389826" fill-opacity=".55"/><path d="M1889.492 357.668l-53.672-24.48 74.387-22.598" fill="#cb3c33" fill-opacity=".55"/><path d="M1888.605 251.746l21.86 56.066-72.223-8.554" fill="#9558b2" fill-opacity=".55"/><path d="M1885.766 46.672l25.472 47.172-66.043-5.66" fill="#cb3c33" fill-opacity=".55"/><path d="M1905.27 142.035l-59.31-51.777 65.9 5.648" fill="#389826" fill-opacity=".55"/><path d="M1912.55 307.66l-21.01-53.902 45.679 42.941M1912.145 189.523l26.335 52.676-47.972 6.586" fill="#cb3c33" fill-opacity=".55"/><path d="M1938.043 294.727l-46.832-44.02 47.77-6.559" fill="#4063d8" fill-opacity=".55"/><path d="M1939.387 239.535l-25.89-51.777 32.358-5.547" fill="#389826" fill-opacity=".55"/><path d="M1912.848 185.84l-5.477-39.258 37.43 33.781" fill="#9558b2" fill-opacity=".55"/><path d="M1909.188 12.508l43.8 39.14-65.234-7.453" fill="#4063d8" fill-opacity=".55"/><path d="M1947.172 16.902l7.2 33.301-42.302-37.8M1913.25 93.36l-25.46-47.15 66.007 7.544" fill="#9558b2" fill-opacity=".55"/><path d="M1912.508 310.328l47.855 21.582-68.5 25.332" fill="#389826" fill-opacity=".55"/><path d="M1938.645 298.25l21.511 31.371-45.71-20.613" fill="#9558b2" fill-opacity=".55"/><path d="M1913.813 96.39l47.73 18.72-54.281 27.144" fill="#cb3c33" fill-opacity=".55"/><path d="M1955.266 55.117l7.527 58.336-47.988-18.82" fill="#389826" fill-opacity=".55"/><path d="M1947.145 179.781l-36.352-32.804 55.855 22.168" fill="#cb3c33" fill-opacity=".55"/><path d="M1963.14 116.547l4.715 50.922-59.41-23.574" fill="#389826" fill-opacity=".55"/><path d="M1956.777 51.855l-7.18-33.203 34.102 28.72M1940.953 245.547l43.875 48.543-44.808 1.867" fill="#cb3c33" fill-opacity=".55"/><path d="M1962.977 330.2l-22.13-32.274 44.262-1.848" fill="#4063d8" fill-opacity=".55"/><path d="M1969.8 166.785l-4.51-48.707 24.355 28.863M1962.746 333.16l27.766 27.766-95.332-2.774" fill="#9558b2" fill-opacity=".55"/><path d="M1986.262 297.977l5.496 61.367-27.477-27.48" fill="#cb3c33" fill-opacity=".55"/><path d="M1964.816 113.52l-7.484-58.02 45.855 40.238" fill="#9558b2" fill-opacity=".55"/><path d="M1985.367 49.121l17.18 43.395-44.3-38.875" fill="#389826" fill-opacity=".55"/><path d="M1990.54 144.902l-24.93-29.547 37.855-17.543" fill="#cb3c33" fill-opacity=".55"/><path d="M1947.957 14.988l-29.55-3.789 79.566-6.82" fill="#389826" fill-opacity=".55"/><path d="M1909.18 9.98l-54.176-25.28 148.988 17.155" fill="#4063d8" fill-opacity=".55"/><path d="M1985.754 46.484l-35.543-29.93 61.73-13.097" fill="#9558b2" fill-opacity=".55"/><path d="M1986.785 293.27l-44.504-49.239 70.07.946" fill="#389826" fill-opacity=".55"/><path d="M1947.848 182.402l68.515 26.645-75.176 32.355" fill="#cb3c33" fill-opacity=".55"/><path d="M2013.133 242.988l-68.426-.925 73.05-31.438" fill="#9558b2" fill-opacity=".55"/><path d="M1968.895 170.195l44.378 35.504-63.906-24.851" fill="#4063d8" fill-opacity=".55"/><path d="M1990.684 148.73l25.691 56.891-45.879-36.703" fill="#389826" fill-opacity=".55"/><path d="M2014.21 3.578l17.142 16.238-42.403 25.262" fill="#4063d8" fill-opacity=".55"/><path d="M2005.48 98.02l36.524 40.27-49.633 7.491" fill="#389826" fill-opacity=".55"/><path d="M2018.89 206.332l-26.437-58.539 50.043-7.555M2014.547 245.102l28.055 4.523-52.489 41.629" fill="#cb3c33" fill-opacity=".55"/><path d="M2019.613 211.777l23.32 35.875-27.804-4.484" fill="#389826" fill-opacity=".55"/><path d="M2005.383 94.246l-17.918-45.266 66.012-.945" fill="#4063d8" fill-opacity=".55"/><path d="M2032.785 21.293l21.074 24.738-64.136.914" fill="#9558b2" fill-opacity=".55"/><path d="M2043.7 142.816l14.03 74.836-37.418-9.355" fill="#4063d8" fill-opacity=".55"/><path d="M2044.855 246.945l-23.632-36.36 36.359 9.09M2043.941 137.45l-36.25-39.973 59.493 10.226" fill="#cb3c33" fill-opacity=".55"/><path d="M2055.402 48.96l12.305 56.802-60.586-10.41" fill="#389826" fill-opacity=".55"/><path d="M2061.09 368.887l-65.887-7.637 72.574-70.66" fill="#cb3c33" fill-opacity=".55"/><path d="M1993.809 359.816l-5.723-63.906 78.215-6.676" fill="#389826" fill-opacity=".55"/><path d="M2044.738 250.484l22.559 36.657-77.074 6.582" fill="#9558b2" fill-opacity=".55"/><path d="M2069.363 108.16l10.446 3.211-30.532 22.5M2069.48 294.145l12.426 50.601-18.64 22.192" fill="#389826" fill-opacity=".55"/><path d="M2082.727 339.695l-11.813-48.086 16.031 17.715" fill="#9558b2" fill-opacity=".55"/><path d="M2014.031.996l-127.07-14.633 185.598 11.555" fill="#389826" fill-opacity=".55"/><path d="M2033.23 18.84L2016.38 2.875l67.402-3.547" fill="#cb3c33" fill-opacity=".55"/><path d="M2055.918 45.363l-21.242-24.937L2087.32.106" fill="#389826" fill-opacity=".55"/><path d="M2081.18 109.703l-10.828-3.336 17.496-41.66" fill="#cb3c33" fill-opacity=".55"/><path d="M2069.305 103.688l-11.97-55.254 31.31 9.21" fill="#4063d8" fill-opacity=".55"/><path d="M2089 1.195v54.47l-31.387-9.235" fill="#cb3c33" fill-opacity=".55"/><path d="M2059.613 216.852l-14.097-75.192 46.054 40.418" fill="#9558b2" fill-opacity=".55"/><path d="M2081.484 112.621l13.946 41.824-49.262-15.8" fill="#cb3c33" fill-opacity=".55"/><path d="M2092.29 180.047l-44.013-38.625 47.606 15.27M2089.648 66.2l5.797 81.968-12.422-37.258M2059.379 220.55l50.766 38.766-63.688-11.078" fill="#389826" fill-opacity=".55"/><path d="M2069.332 286.633l-22.316-36.266 64.164 11.156M2088.965 309.316l19.258-35.554-22.961 62.218" fill="#cb3c33" fill-opacity=".55"/><path d="M2087.793 307.281l-17.234-19.05 40.82-24.493" fill="#4063d8" fill-opacity=".55"/><path d="M2092.504 184.02l19.777 74.41-51.804-39.559" fill="#cb3c33" fill-opacity=".55"/><path d="M2097.023 162.414l12.774 78.879-15.777-59.348" fill="#9558b2" fill-opacity=".55"/></svg>