<svg xmlns="http://www.w3.org/2000/svg" width="2800" height="350pt" viewBox="0 0 2100 350"><path fill="#1a1a33" d="M0 0h2100v350H0z"/><path d="M-9.543 235.496l-7.016-135.059 17.54 59.637" fill="#9558b2" fill-opacity=".8"/><path d="M1.945 167.625l3.035 24.293-12.144 40.988" fill="#4063d8" fill-opacity=".8"/><path d="M-9.379 250.246l18.285 45.711-27.426 55.77M2.902 5.871l9.028 47.856-27.989 34.312" fill="#cb3c33" fill-opacity=".8"/><path d="M13.27 50.031L4.2 1.957l25.394-.906M6.742 193.016l39.715.925-54.492 48.95" fill="#389826" fill-opacity=".8"/><path d="M6.887 191.02l-3.614-28.907 42.454 29.809M2.66 158.703L-16.19 94.605l64.097 48.075" fill="#cb3c33" fill-opacity=".8"/><path d="M48.04 191.102L4.16 160.297l44.813-15.871" fill="#389826" fill-opacity=".8"/><path d="M10.156 297.95l41.89 59.023-70.452-.953" fill="#4063d8" fill-opacity=".8"/><path d="M10.473 294.484L-8.293 247.57l60.984 18.766" fill="#389826" fill-opacity=".8"/><path d="M48.168 195.09l5.715 69.52-61.903-19.048" fill="#cb3c33" fill-opacity=".8"/><path d="M13 55.582l42.39 51.809-71.593-16.012" fill="#9558b2" fill-opacity=".8"/><path d="M49.375 141.281L-13.68 93.992l70.477 15.762" fill="#389826" fill-opacity=".8"/><path d="M31.41 1.93l30.832 33.629-47.648 16.816" fill="#cb3c33" fill-opacity=".8"/><path d="M57.207 106.45L14.676 54.468l48.199-17.012" fill="#4063d8" fill-opacity=".8"/><path d="M53.484 355.543l-41.836-58.95 57.047-15.21" fill="#9558b2" fill-opacity=".8"/><path d="M54.895 267.27l13.101 12.23-52.402 13.973" fill="#4063d8" fill-opacity=".8"/><path d="M64.676 39.996l24.976 56.43-30.527 11.101" fill="#389826" fill-opacity=".8"/><path d="M50.98 143.953l37.84-1.844-38.761 47.989" fill="#cb3c33" fill-opacity=".8"/><path d="M58.57 110.945l30.078 29.168-37.37 1.825" fill="#4063d8" fill-opacity=".8"/><path d="M90 98.426v40.21l-30.156-29.241" fill="#cb3c33" fill-opacity=".8"/><path d="M70.383 283.102l24.312 50.492-39.27 22.441" fill="#389826" fill-opacity=".8"/><path d="M55.793 263.43l-5.66-68.844 45.265 19.805" fill="#9558b2" fill-opacity=".8"/><path d="M90.207 143.57l5.66 68.844-45.265-19.805" fill="#4063d8" fill-opacity=".8"/><path d="M90.441 93.27l-24.84-56.125 31.282 2.761" fill="#cb3c33" fill-opacity=".8"/><path d="M97.031 37.91l-30.578-2.7 31.48-26.976" fill="#9558b2" fill-opacity=".8"/><path d="M64.082 34.61L33.477 1.222l63.07 5.566" fill="#389826" fill-opacity=".8"/><path d="M95.723 331.121l-21.7-45.07 25.875 29.21" fill="#cb3c33" fill-opacity=".8"/><path d="M70.066 278.691l-13.132-12.253 49.898-15.758" fill="#9558b2" fill-opacity=".8"/><path d="M96.746 215.906l13.887 31.477-52.77 16.664" fill="#cb3c33" fill-opacity=".8"/><path d="M100.355 312.762l-28.894-32.617 39.144-29.825" fill="#389826" fill-opacity=".8"/><path d="M97.727 210.64l-5.61-68.261 37.403 11.223" fill="#cb3c33" fill-opacity=".8"/><path d="M92 140.258V100.12l36.488 51.082" fill="#389826" fill-opacity=".8"/><path d="M96.242 335.016l31.535 1.66-66.394 18.258" fill="#4063d8" fill-opacity=".8"/><path d="M101.617 316.578l28.637 18.223-32.973-1.735M98.75 4.973L38.82-.312l93.422-15.864" fill="#9558b2" fill-opacity=".8"/><path d="M112.723 249.766l23.859 17.437-33.953 44.047" fill="#cb3c33" fill-opacity=".8"/><path d="M98.762 41.027l45.203 40.493-51.793 14.125" fill="#9558b2" fill-opacity=".8"/><path d="M130.492 150.566l-37.844-52.98 52.036-14.191" fill="#cb3c33" fill-opacity=".8"/><path d="M99.934 8.176l51.058 45.586-51.969-15.5" fill="#4063d8" fill-opacity=".8"/><path d="M136.355-16.41l16.915 69.523-52.614-46.976" fill="#cb3c33" fill-opacity=".8"/><path d="M145.547 80.25l-43.555-39.016 51.723 15.426M112.434 246.508l-13.88-31.457 58.294 1.851" fill="#389826" fill-opacity=".8"/><path d="M130.914 155.207l27.5 59.742-59.742-1.898M137.578 265.453l-23.832-17.414 43.996-29.332" fill="#9558b2" fill-opacity=".8"/><path d="M133.887 334.742l-29.703-18.902 53.109-2.7" fill="#389826" fill-opacity=".8"/><path d="M137.809 268.887l20.629 42.191-55.32 2.813" fill="#9558b2" fill-opacity=".8"/><path d="M160.098 218.297l20.398 38.02-40.797 9.273" fill="#389826" fill-opacity=".8"/><path d="M159.91 309.535l-20.457-41.84 40.91-9.297" fill="#4063d8" fill-opacity=".8"/><path d="M159.984 213.578l-27.32-59.355 50.875 6.597M134.059 337.02l44.18 6.796-112.15 11.895" fill="#cb3c33" fill-opacity=".8"/><path d="M159.895 313.457l23.695 29.16-47.387-7.289" fill="#9558b2" fill-opacity=".8"/><path d="M155.645 57.191l32.011 8.004-40.011 15.114" fill="#4063d8" fill-opacity=".8"/><path d="M190.02 63.723l-33.48-8.368 34.41-58.59" fill="#cb3c33" fill-opacity=".8"/><path d="M155.387 53.363L138.344-16.71l52.082 10.414" fill="#389826" fill-opacity=".8"/><path d="M146.664 83.695l45.496 32.227-59.715 35.07" fill="#4063d8" fill-opacity=".8"/><path d="M184.207 158.89l-50.184-6.507L192.57 118M190.082 66.414l2.797 47.566-44.766-31.71" fill="#389826" fill-opacity=".8"/><path d="M181.887 254.676l-20.434-38.082 41.797-13.004" fill="#4063d8" fill-opacity=".8"/><path d="M185.027 162.387l18.575 39-41.786 13M182.102 259.438l22.39 44.78-42.914 6.532" fill="#389826" fill-opacity=".8"/><path d="M185.809 342.18l-23.93-29.453 42.34-6.446" fill="#4063d8" fill-opacity=".8"/><path d="M205.574 200.883l-17.875-37.54 42.903 33.071M205.266 203.953l28.054 35.535-49.562 15.899" fill="#cb3c33" fill-opacity=".8"/><path d="M232.055 198.184l1.8 38.754-27.035-34.247" fill="#389826" fill-opacity=".8"/><path d="M205.95 302.66l-22.532-45.062 49.758-15.961M192.977-5.344l42.386 22.606-43.328 45.21" fill="#9558b2" fill-opacity=".8"/><path d="M185.996 345.008l40.98 4.55-141.152 6.07" fill="#4063d8" fill-opacity=".8"/><path d="M206.164 306.875l31.637 41.875-50.25-5.582" fill="#9558b2" fill-opacity=".8"/><path d="M236.395 19.074l3.48 17.41-43.516 24.368" fill="#4063d8" fill-opacity=".8"/><path d="M194.773 117.21l55.102 13.075-63.508 28.02" fill="#cb3c33" fill-opacity=".8"/><path d="M232.457 195.32l-45.512-35.086 64.477-28.445" fill="#389826" fill-opacity=".8"/><path d="M234.91 242.656l16.797 45.727-43.86 14.933" fill="#4063d8" fill-opacity=".8"/><path d="M239.477 347.652L207.633 305.5l44.023-14.984" fill="#cb3c33" fill-opacity=".8"/><path d="M252.078 128.754l-55.219-13.106L254.887 85.7" fill="#9558b2" fill-opacity=".8"/><path d="M194.906 114.406l-2.824-48.047 61.238 17.899" fill="#cb3c33" fill-opacity=".8"/><path d="M240.418 38.473l14.059 44.039-60.91-17.805" fill="#9558b2" fill-opacity=".8"/><path d="M256.363 81.848L242.586 38.68l35.82 13.777" fill="#cb3c33" fill-opacity=".8"/><path d="M253.7 288l-16.356-44.523L286.41 288" fill="#389826" fill-opacity=".8"/><path d="M288.047 286.785l-50.29-45.633 51.223 2.793" fill="#9558b2" fill-opacity=".8"/><path d="M235.957 239.05l-1.855-39.874 52.859 42.656" fill="#4063d8" fill-opacity=".8"/><path d="M237.102 15.922L196.609-5.676 286.594.625M279.285 50.652l-36.207-13.925 47.348-34.348" fill="#389826" fill-opacity=".8"/><path d="M241.676 35.273l-3.52-17.586L286.52 2.742" fill="#cb3c33" fill-opacity=".8"/><path d="M256.898 85.582l39.922 20.426-42.707 22.285" fill="#4063d8" fill-opacity=".8"/><path d="M279.676 54.098l17.55 49.87-39.714-20.316" fill="#9558b2" fill-opacity=".8"/><path d="M253.625 290.86l47.316 40.687-59.617 17.035" fill="#389826" fill-opacity=".8"/><path d="M288.273 290l12.668 38.91L255.695 290M253.36 132.285l59.25 86.004-78.36-21.976" fill="#cb3c33" fill-opacity=".8"/><path d="M289.957 241.68l-52.543-42.403 75.59 21.2M298.746 107.258L316.863 129h-59.785" fill="#9558b2" fill-opacity=".8"/><path d="M314.133 216.98L254.903 131h63.05" fill="#389826" fill-opacity=".8"/><path d="M290.973 244.262l46.566 11.175-47.496 31.668" fill="#4063d8" fill-opacity=".8"/><path d="M314.844 221.504l22.785 31.898-45.57-10.937" fill="#389826" fill-opacity=".8"/><path d="M319.172 128.645l-17.762-21.313 39.965 5.328" fill="#cb3c33" fill-opacity=".8"/><path d="M303.535 330.41L290.45 290.22l58.89 8.41" fill="#9558b2" fill-opacity=".8"/><path d="M339.406 256.598l11.219 40.195-58.89-8.414" fill="#389826" fill-opacity=".8"/><path d="M319.914 131.957l31.774 24.297-35.512 59.805" fill="#cb3c33" fill-opacity=".8"/><path d="M343.328 113.715l8.156 39.867-30.804-23.559" fill="#389826" fill-opacity=".8"/><path d="M292.68 1.496l60.507 32.14-71.851 17.02" fill="#9558b2" fill-opacity=".8"/><path d="M343.16 110.879l-42.285-5.637 53.563-67.656" fill="#389826" fill-opacity=".8"/><path d="M299.34 103.957l-18.027-51.238 72.117-17.082" fill="#4063d8" fill-opacity=".8"/><path d="M355.176 32.43L295.234.586l64.625-8.43" fill="#cb3c33" fill-opacity=".8"/><path d="M302.879 333.074l55.101 30.305-112.957-13.774" fill="#9558b2" fill-opacity=".8"/><path d="M351.27 299.723l10.41 63.41-56.785-31.23M339.824 253.031l-23.265-32.57 47.46-18.61" fill="#cb3c33" fill-opacity=".8"/><path d="M352.691 158.48l12.09 40.922-47.433 18.602M361.809-7.281l20.613 13.445-25.098 25.098" fill="#389826" fill-opacity=".8"/><path d="M356.504 37.293l28.125 57.184-39.371 15.937" fill="#9558b2" fill-opacity=".8"/><path d="M352.328 295.46l-11.11-39.808 42.587-13.882" fill="#cb3c33" fill-opacity=".8"/><path d="M366.023 202.285l18.563 37.125-42.691 13.918" fill="#4063d8" fill-opacity=".8"/><path d="M366.64 198.633l-11.85-40.11 39.198 28.258" fill="#cb3c33" fill-opacity=".8"/><path d="M385.566 236.898l-18.199-36.402 27.301-11.828M383.52 7.895l14.8 49.949-40.703-24.047" fill="#9558b2" fill-opacity=".8"/><path d="M385.906 92.543l-27.531-55.977 40.379 23.86M353.71 154.488l-8.382-40.98 52.16 17.695" fill="#cb3c33" fill-opacity=".8"/><path d="M385.434 96.309l12.855 33.054-51.418-17.445" fill="#389826" fill-opacity=".8"/><path d="M395.129 185.14l-40.242-29.011 43.988-23.399" fill="#4063d8" fill-opacity=".8"/><path d="M363.758 363.457l-10.414-63.45 59.66 36.934M386.012 241.957l30.293 50.168-62.477 4.734" fill="#389826" fill-opacity=".8"/><path d="M414.113 335.277l-58.976-36.511 61.785-4.68M400.527 58.254L385.684 8.168l43.593 25.969" fill="#cb3c33" fill-opacity=".8"/><path d="M418.852 295.191l17.746 16.856-20.407 22.18" fill="#4063d8" fill-opacity=".8"/><path d="M400.855 133.04l43.153 36.581-46.903 15.945M396.797 188.16l46.734 8.41-56.078 41.125" fill="#cb3c33" fill-opacity=".8"/><path d="M445 171.395v23.41l-45.016-8.102M400.426 61.633l49.258 39.965-62.27-7.438" fill="#389826" fill-opacity=".8"/><path d="M400.523 129.59L387.535 96.19l62.164 7.422" fill="#cb3c33" fill-opacity=".8"/><path d="M430.5 35.723l20.531 64.39-49.46-40.125" fill="#9558b2" fill-opacity=".8"/><path d="M445.203 168.012l-43.43-36.817 50.04-26.437M437.941 313.54l13.215 16.737-33.476 5.29M430.969 32.816L389.105 7.875l63.243 10.691" fill="#389826" fill-opacity=".8"/><path d="M452.14 97.012l-19.96-62.598 21.773-14.516" fill="#4063d8" fill-opacity=".8"/><path d="M418.367 291.672l-30.11-49.863 76.212 25.402" fill="#cb3c33" fill-opacity=".8"/><path d="M445.445 197.648l20.051 67.797-77.344-25.78" fill="#9558b2" fill-opacity=".8"/><path d="M437.813 310.445l-18.118-17.215 44.387-23.55" fill="#389826" fill-opacity=".8"/><path d="M452.477 328.723l-13.25-16.782L464.84 272.2" fill="#9558b2" fill-opacity=".8"/><path d="M454.672 16.93l-65.61-11.09 102.575-24.024" fill="#cb3c33" fill-opacity=".8"/><path d="M384.188 4.93L363.991-8.242l117.664-9.66M447 194.152v-23.265l43.852-5.371" fill="#9558b2" fill-opacity=".8"/><path d="M453.715 105.8l39.527 57.407-46.117 5.648" fill="#4063d8" fill-opacity=".8"/><path d="M415.094 338.086l79.676 26.867-127.856-.926" fill="#9558b2" fill-opacity=".8"/><path d="M452.746 332.05l42.402 30.923-75.972-25.621" fill="#cb3c33" fill-opacity=".8"/><path d="M494.426 161.402l-39.727-57.699 51.078-9.46" fill="#389826" fill-opacity=".8"/><path d="M455.969 19.328l51.312 15.203-53.21 65.567" fill="#cb3c33" fill-opacity=".8"/><path d="M506.027 92.164l-50.539 9.36 52.41-64.583" fill="#4063d8" fill-opacity=".8"/><path d="M494.457-18.105l13.133 50.644-50.645-15.008M467.445 264.98l-19.949-67.445 61.746 19.95" fill="#389826" fill-opacity=".8"/><path d="M494.43 165.566l15.062 49.895-61.191-19.77" fill="#4063d8" fill-opacity=".8"/><path d="M510.246 219.371l3.668 34.871-44.043 11.008M467.73 268.344l45.2 16.949-58.383 43.312" fill="#cb3c33" fill-opacity=".8"/><path d="M514 256.281v27.278l-43.64-16.368" fill="#389826" fill-opacity=".8"/><path d="M500.29 364.242l-45.603-33.25 58.903-43.699" fill="#4063d8" fill-opacity=".8"/><path d="M509.938 35.906l22.699 16.344-24.516 37.23" fill="#9558b2" fill-opacity=".8"/><path d="M511.633 215.64l-14.606-48.382 40.168 37.426" fill="#389826" fill-opacity=".8"/><path d="M507.531 95.867l30.98 52.574-42.25 14.082" fill="#9558b2" fill-opacity=".8"/><path d="M538.04 202.738l-41.126-38.32 42.063-14.023M533.395 54.734l6.41 43.04-31.133-5.493" fill="#cb3c33" fill-opacity=".8"/><path d="M539.07 145.453l-30.105-51.09 31.02 5.473" fill="#4063d8" fill-opacity=".8"/><path d="M515.91 254.094l-3.539-33.621 27.43 36.277" fill="#389826" fill-opacity=".8"/><path d="M538.082 206.48l2.734 48.297-28.25-37.363M516 282.586v-26.469l23.82 2.649" fill="#cb3c33" fill-opacity=".8"/><path d="M533.309 50.27l-22.82-16.43 32.863-36.512" fill="#4063d8" fill-opacity=".8"/><path d="M509.5 31.95l-13.098-50.516L543.18-5.473" fill="#cb3c33" fill-opacity=".8"/><path d="M515.59 287.46l41.816 56.075-55.12 20.91" fill="#9558b2" fill-opacity=".8"/><path d="M541.773 259.64l25.938 46.317-50.95-21.305" fill="#389826" fill-opacity=".8"/><path d="M558.621 341.82l-40.633-54.488 50.79 21.242" fill="#4063d8" fill-opacity=".8"/><path d="M541.96 101.055l38.087 30.656-39.016 15.793" fill="#9558b2" fill-opacity=".8"/><path d="M559.086 345.035l19.875 3.977-65.98 13.515" fill="#cb3c33" fill-opacity=".8"/><path d="M570.055 311.25l12.437 36.43-22.215-4.446M541.723 97.074l-6.535-43.883 49.488 7.47" fill="#389826" fill-opacity=".8"/><path d="M545.512-3.332l39.465 62.016-49.801-7.516" fill="#9558b2" fill-opacity=".8"/><path d="M569.762 305.527L543.41 258.47l48.938-21.645" fill="#4063d8" fill-opacity=".8"/><path d="M542.918 256.5l-2.816-49.762 51.636 28.168M540.957 151.46l52.59 55.411-53.531-2.82" fill="#389826" fill-opacity=".8"/><path d="M581.238 133.387l13.168 71.48-52.672-55.492M593.117 233.379l-49.773-27.149 51.582 2.715" fill="#cb3c33" fill-opacity=".8"/><path d="M586.516 57.375L547.148-4.488l49.676 11.246" fill="#4063d8" fill-opacity=".8"/><path d="M581.695 130.473l-37.73-30.371 53.379 1.843" fill="#389826" fill-opacity=".8"/><path d="M586.473 61.758l11.18 38.195-54.032-1.863" fill="#cb3c33" fill-opacity=".8"/><path d="M584.23 346.582l-12.843-37.617 34.863-.918" fill="#4063d8" fill-opacity=".8"/><path d="M593.75 238.96l13.043 67.071-35.398.934" fill="#9558b2" fill-opacity=".8"/><path d="M599.645 99.648l-11.012-37.625 44.05 23.86M608.566 304.68l-13.097-67.364 42.101 30.875" fill="#389826" fill-opacity=".8"/><path d="M608.477 308.18l28.043 8.14-49.754 29.852" fill="#9558b2" fill-opacity=".8"/><path d="M638 270.863v43.805l-28.29-8.211" fill="#cb3c33" fill-opacity=".8"/><path d="M597.895 4.95L551.566-5.54l84.786-6.991" fill="#9558b2" fill-opacity=".8"/><path d="M596.578 205.625l-13.324-72.344 59.969 12.375" fill="#389826" fill-opacity=".8"/><path d="M599.25 102.625l42.543 40.691-58.266-12.023" fill="#cb3c33" fill-opacity=".8"/><path d="M634.223 87.406l9.285 54.785-42.711-40.855" fill="#9558b2" fill-opacity=".8"/><path d="M596.926 209.035l49.668 1.805-51.473 22.578" fill="#389826" fill-opacity=".8"/><path d="M638.336 266.273l-42.348-31.054 53.64-23.524M644.238 147.61l5.66 61.35-51.91-1.89" fill="#cb3c33" fill-opacity=".8"/><path d="M598.648 7.82l50.977 41.535-61.36 9.438" fill="#389826" fill-opacity=".8"/><path d="M634.547 84.617L590.09 60.535l60.203-9.262" fill="#cb3c33" fill-opacity=".8"/><path d="M641.215-12.543l9.394 60.121-50.726-41.336" fill="#4063d8" fill-opacity=".8"/><path d="M638.656 317.371l13.688 22.813-63.871 7.296M651.91 208.969l-5.469-59.254 31.903 58.34" fill="#389826" fill-opacity=".8"/><path d="M652.531 46.93l-9.379-60.024 44.082-3.754M645.73 143.328l-9.41-55.52 52.696 27.29" fill="#cb3c33" fill-opacity=".8"/><path d="M652.105 52.117l36.223 60.371-52.012-26.933M651.652 211.777l47.22 36.828-58.552 17.946" fill="#389826" fill-opacity=".8"/><path d="M679.406 210.02l18.555 35.34-44.176-34.454" fill="#cb3c33" fill-opacity=".8"/><path d="M654.234 339.45l-13.699-22.833 56.625-15.527" fill="#4063d8" fill-opacity=".8"/><path d="M640 314.688v-45.07l58.215 29.109" fill="#389826" fill-opacity=".8"/><path d="M700 250.352v47.03l-58.316-29.16" fill="#cb3c33" fill-opacity=".8"/><path d="M653.813 342.027l47.175 24.032-109.476-16.91" fill="#4063d8" fill-opacity=".8"/><path d="M700.176 301.078l5.672 65.211-50.094-25.516" fill="#389826" fill-opacity=".8"/><path d="M680.074 207.05l-33.289-60.87 68.48 6.656" fill="#4063d8" fill-opacity=".8"/><path d="M690.738 116.367l24.192 34.426-66.996-6.512" fill="#389826" fill-opacity=".8"/><path d="M691.008 113.066l-36.852-61.414 63.305 17.95" fill="#9558b2" fill-opacity=".8"/><path d="M689.258-16.383l48.687 45.824-84.008 19.094" fill="#389826" fill-opacity=".8"/><path d="M718.5 67.82l-62.457-17.715 82.035-18.644" fill="#cb3c33" fill-opacity=".8"/><path d="M707.738 364.965l-5.625-64.715 41.266 8.438M716.82 150.004l-24.336-34.629 52.414-26.207" fill="#9558b2" fill-opacity=".8"/><path d="M719.32 70.395l25.66 16.496-51.32 25.66" fill="#cb3c33" fill-opacity=".8"/><path d="M737.156 156.719l-18.758-5.36 26.793-58.058M739.39 33.242l6.356 51.766L720.32 68.66" fill="#389826" fill-opacity=".8"/><path d="M701.32 247.457l-19.625-37.379 62.614 2.8" fill="#4063d8" fill-opacity=".8"/><path d="M716.887 154.012l28.457 56.914-63.555-2.848" fill="#389826" fill-opacity=".8"/><path d="M737.117 158.79l7.805 46.815-26.012-52.02M744.438 310.758l7.425 45.484-42.699 10.211" fill="#cb3c33" fill-opacity=".8"/><path d="M744.195 306.816l-41.011-8.39 50.332-43.809" fill="#4063d8" fill-opacity=".8"/><path d="M702 296.805v-46.746l50.488 2.804" fill="#389826" fill-opacity=".8"/><path d="M746.344 213.813l7.422 37.117-50.11-2.785M740.188 28.805l-45.13-42.477 63.712 33.625" fill="#9558b2" fill-opacity=".8"/><path d="M747.258 80.883l-6.176-50.29 18.527-8.823M747.625 90.016l32.844 55.363-41.29 11.262" fill="#4063d8" fill-opacity=".8"/><path d="M747.5 208.922l-8.363-50.195 40.898-11.153" fill="#9558b2" fill-opacity=".8"/><path d="M781.293 142.848L748.933 88.3l36.981 5.547" fill="#cb3c33" fill-opacity=".8"/><path d="M755.781 253.305l31.375 10.148-40.601 41.527" fill="#389826" fill-opacity=".8"/><path d="M755.867 251.23l-7.105-35.515 37.293 45.281" fill="#cb3c33" fill-opacity=".8"/><path d="M753.719 355.2l-7.516-46.036 58.25 7.516" fill="#389826" fill-opacity=".8"/><path d="M788.578 264.863l16.961 49.942-58.422-7.54" fill="#4063d8" fill-opacity=".8"/><path d="M761.668 21.7l45.43 32.179-58.684 31.234" fill="#9558b2" fill-opacity=".8"/><path d="M786.469 91.91l-36.328-5.45 56.304-29.968" fill="#389826" fill-opacity=".8"/><path d="M806.23 317.84l3.657 28.336-53.02 9.14" fill="#4063d8" fill-opacity=".8"/><path d="M782.035 148.066l28.414 49.246-61.558 13.258" fill="#389826" fill-opacity=".8"/><path d="M788.648 261l-39.832-48.367 61.645-13.278" fill="#9558b2" fill-opacity=".8"/><path d="M761.063 18.902l-66.618-35.16L811.023-.528" fill="#389826" fill-opacity=".8"/><path d="M808.191 52.2l-45.097-31.942L813.828.528" fill="#cb3c33" fill-opacity=".8"/><path d="M809.496 55.156l21.168 5.29-40.57 29.105" fill="#4063d8" fill-opacity=".8"/><path d="M807.59 314.625l-16.367-48.188 40.007 37.278" fill="#389826" fill-opacity=".8"/><path d="M811.578 343.672l-3.492-27.07 22.707-10.48" fill="#9558b2" fill-opacity=".8"/><path d="M815.855.395l26.508 10.054-31.996 40.223" fill="#389826" fill-opacity=".8"/><path d="M832.246 58.781l-21.496-5.375L842.098 14" fill="#9558b2" fill-opacity=".8"/><path d="M787.809 95.09l53.656 48.95-58.363.94" fill="#389826" fill-opacity=".8"/><path d="M812.02 196.031l-28.305-49.058 58.496-.946" fill="#cb3c33" fill-opacity=".8"/><path d="M843.332 148.043l3.594 32.36-32.36 15.277M832.574 61.535l17.778 41.172-60.82-10.293" fill="#389826" fill-opacity=".8"/><path d="M843.36 143.063l-53.173-48.508 60.633 10.261" fill="#4063d8" fill-opacity=".8"/><path d="M812.484 199.625l39.641 30.203-61.348 31.149" fill="#389826" fill-opacity=".8"/><path d="M832.484 302.152l-41.754-38.91 61.684-31.316M847.176 182.496l5.543 45.27-38.805-29.563M833.34 305.531l33.441 26.008-53.879 13.938" fill="#cb3c33" fill-opacity=".8"/><path d="M854.145 233.152l25.44 65.961-45.23 3.77" fill="#9558b2" fill-opacity=".8"/><path d="M868.54 330.375l-32.903-25.59 43.87-3.656" fill="#389826" fill-opacity=".8"/><path d="M844.602 11.922l39.296 36.492-49.59 10.293" fill="#cb3c33" fill-opacity=".8"/><path d="M852.48 102.59l-17.597-40.75 52.793 21.3" fill="#4063d8" fill-opacity=".8"/><path d="M885.133 50.2l3.676 31.241-52.371-21.132" fill="#389826" fill-opacity=".8"/><path d="M848.758 178.766l-3.668-33.024 47.7-12.844" fill="#4063d8" fill-opacity=".8"/><path d="M852.707 105.605l40.793 25.032-48.21 12.98" fill="#389826" fill-opacity=".8"/><path d="M889.191 84.59l5.559 44.469-40.766-25.012" fill="#9558b2" fill-opacity=".8"/><path d="M811 348.016l76.945 13.382-125.457-5.02" fill="#cb3c33" fill-opacity=".8"/><path d="M868.727 333.105l31.062 28.32-84.055-14.616" fill="#389826" fill-opacity=".8"/><path d="M880.965 302.938l19.789 56.66-30.578-27.88" fill="#9558b2" fill-opacity=".8"/><path d="M885.91 47.55l-38.984-36.198 63.117 7.425" fill="#389826" fill-opacity=".8"/><path d="M854.777 228.11l-5.64-46.055 60.152 2.82" fill="#4063d8" fill-opacity=".8"/><path d="M895.535 132.926l15.098 50.008-60.387-2.829" fill="#389826" fill-opacity=".8"/><path d="M881.352 298.137l-25.442-65.969 57.485 31.102" fill="#cb3c33" fill-opacity=".8"/><path d="M911.074 186.008l2.86 75.277-58.125-31.445" fill="#389826" fill-opacity=".8"/><path d="M915.79 257.465l-2.708-71.274 20.754 17.145M911.879 16.98l-53.406-6.285 74.609-1.57" fill="#cb3c33" fill-opacity=".8"/><path d="M844.172 8.996L821.754.492l95.855 6.957M903.324 360.895L882.41 301h65.598" fill="#4063d8" fill-opacity=".8"/><path d="M915.012 264.465L947.676 299h-64.399" fill="#389826" fill-opacity=".8"/><path d="M934.648 201.414l-20.921-17.285 40.937-24.563" fill="#9558b2" fill-opacity=".8"/><path d="M912.586 182.48l-15.012-49.722 57.23 24.394" fill="#4063d8" fill-opacity=".8"/><path d="M890.848 81.645l-3.703-31.477 67.59 9.258" fill="#9558b2" fill-opacity=".8"/><path d="M912.11 19.426l43.714 38.129-67.894-9.301" fill="#cb3c33" fill-opacity=".8"/><path d="M938.426 9.277l18.152 46.282-42.652-37.207M956.18 155.563l-58.153-24.786 67.684-48.62" fill="#389826" fill-opacity=".8"/><path d="M896.785 129.207l-5.656-45.25 72.586-2.828" fill="#cb3c33" fill-opacity=".8"/><path d="M958.41 60.262l7.16 18.793-68.902 2.683" fill="#4063d8" fill-opacity=".8"/><path d="M949.582 302.23l16.113 57.81-60.652 1.897M935.453 204.8l30.856 28.985-49.555 27.113" fill="#389826" fill-opacity=".8"/><path d="M949.504 298.02l-32.887-34.766 49.801-27.246M967.254 358.184l-15.332-55.012 28.86 27.055" fill="#cb3c33" fill-opacity=".8"/><path d="M938.95 6.992L845.026.176l128.766.758" fill="#389826" fill-opacity=".8"/><path d="M959.055 56.398L940.379 8.773l42.953-7.468M967.586 83.254l17.242 32.668-26.316 37.21" fill="#4063d8" fill-opacity=".8"/><path d="M968.543 235.809l23.004 20.246-39.567 40.488" fill="#9558b2" fill-opacity=".8"/><path d="M957.535 158.203l33.988 10.106-54.199 32.148" fill="#4063d8" fill-opacity=".8"/><path d="M967.61 232.262l-30.958-29.082L992 170.348" fill="#9558b2" fill-opacity=".8"/><path d="M985.387 118.598l7.386 47.992-34.152-10.153" fill="#cb3c33" fill-opacity=".8"/><path d="M992.496 254.223l-22.945-20.192 38.547-31.203" fill="#389826" fill-opacity=".8"/><path d="M994.11 170.453l14.636 29.274-38.426 31.105M967.617 78.813l-7.082-18.594 52.238 7.082" fill="#cb3c33" fill-opacity=".8"/><path d="M985.05 2.367l31.223 63.39-55.824-7.57M986.09 114.031l-17.613-33.375 47.28-12.054" fill="#389826" fill-opacity=".8"/><path d="M981.969 328.598l-29.711-27.852 64.062-7.43" fill="#9558b2" fill-opacity=".8"/><path d="M992.887 257.547l24.304 33.656-64.504 7.48" fill="#4063d8" fill-opacity=".8"/><path d="M1017.602 63.93L986.574.934l44.192-1.88" fill="#cb3c33" fill-opacity=".8"/><path d="M1010.313 202.406l24.167 39.04-39.964 13.011" fill="#9558b2" fill-opacity=".8"/><path d="M1018.676 289.844l-24.063-33.317 39.797-12.957" fill="#cb3c33" fill-opacity=".8"/><path d="M994.61 165.379l-7.485-48.637 50.508-13.094" fill="#389826" fill-opacity=".8"/><path d="M1017.984 68.852l20.442 32.523-50.176 13.008M982.434 331.398l53.593 30.493-67.453-1.848" fill="#9558b2" fill-opacity=".8"/><path d="M1018.523 293.922l19.813 66.98-54.719-31.132" fill="#4063d8" fill-opacity=".8"/><path d="M1035.906 239.95l-23.566-38.071 36.258 12.691" fill="#389826" fill-opacity=".8"/><path d="M1032.527.43l27.055 37.32-40.117 27.055" fill="#4063d8" fill-opacity=".8"/><path d="M1039.715 99.664l-20.352-32.375 39.778-26.828M1049.223 212.668l-37.575-13.148 51.664-65.75" fill="#cb3c33" fill-opacity=".8"/><path d="M1010.188 198.14l-14.86-29.718 65.938-35.29" fill="#4063d8" fill-opacity=".8"/><path d="M1040.098 103.61l23.308 26.109-66.203 35.433" fill="#cb3c33" fill-opacity=".8"/><path d="M1036.344 244.098l29.851 39.183-45.71 7.465" fill="#4063d8" fill-opacity=".8"/><path d="M1040.086 359.766l-19.805-66.961 46.211-7.547" fill="#cb3c33" fill-opacity=".8"/><path d="M1065.715 131.68l18.988 12.656-32.55 63.289M1061.5 39.688l33.77 27.203-53.47 32.832M1050.43 215.379l42.914 23.742-55.7 1.824" fill="#4063d8" fill-opacity=".8"/><path d="M1067.941 282.273l-29.972-39.336 57.133-1.875" fill="#cb3c33" fill-opacity=".8"/><path d="M1096.063 64.96l-33.555-27.03 35.418-34.489" fill="#389826" fill-opacity=".8"/><path d="M1061.133 36.477L1034.027-.91l62.621 2.805M1085.637 146.89l16.086 70.012-50.145-3.785" fill="#cb3c33" fill-opacity=".8"/><path d="M1096.371 238.508l-41.879-23.164 47.223 3.562M1065.277 128.813l-22.586-25.297 58.727 10.84" fill="#389826" fill-opacity=".8"/><path d="M1096.262 68.625l7.511 44.133-61.03-11.27" fill="#9558b2" fill-opacity=".8"/><path d="M1085.703 142.602l-18.566-12.38 35.363-14.144" fill="#cb3c33" fill-opacity=".8"/><path d="M1068.492 285.602l38.797 28.386L1042 360.355" fill="#389826" fill-opacity=".8"/><path d="M1108.102 315.867l2.835 52.04-68.128-5.677" fill="#cb3c33" fill-opacity=".8"/><path d="M1096.992 241.828l32.953 50.84-60.254-9.414" fill="#389826" fill-opacity=".8"/><path d="M1108.945 312.723l-37.035-27.098 57.813 9.031M1099.93 3.344l31.613 31.613-33.473 29.754" fill="#9558b2" fill-opacity=".8"/><path d="M1105.715 112.246l-7.328-43.047 33.89 23.813" fill="#4063d8" fill-opacity=".8"/><path d="M1132.04 37.195l.925 53.856-34.356-24.145M1103.61 216.18l-15.887-69.14 45.78 43.913" fill="#389826" fill-opacity=".8"/><path d="M1104.785 116.207l27.64 70.938-45.144-43.301" fill="#4063d8" fill-opacity=".8"/><path d="M1103.543 219.805l28.191 24.668-33.476-5.286" fill="#9558b2" fill-opacity=".8"/><path d="M1131.191 290.914l-32.132-49.578 34.886 5.512" fill="#4063d8" fill-opacity=".8"/><path d="M1134 193.152v50.645l-29.465-25.781" fill="#cb3c33" fill-opacity=".8"/><path d="M1112.922 367.508l-2.809-51.485 45.867 32.766" fill="#389826" fill-opacity=".8"/><path d="M1131.66 295.621l23.793 50.332-44.84-32.031M1132.734 33.32L1100.88 1.46l57.152-17.8" fill="#cb3c33" fill-opacity=".8"/><path d="M1133.645 94.492l33.468 65.078-60.43-45.554" fill="#9558b2" fill-opacity=".8"/><path d="M1135.438 189.367l-28.227-72.449 61.16 46.105" fill="#389826" fill-opacity=".8"/><path d="M1170.309 161.414l-33.004-64.18 53.172 46.758" fill="#cb3c33" fill-opacity=".8"/><path d="M1160.473-16.723l31.37 12.914-56.28 35.985M1136 244.2v-51.884l57.543 16.036" fill="#389826" fill-opacity=".8"/><path d="M1169.715 164.508l24.195 41.87-56.762-15.815" fill="#4063d8" fill-opacity=".8"/><path d="M1191.453 142.188l-55.2-48.536 71.38-11.422" fill="#389826" fill-opacity=".8"/><path d="M1134.98 91.832l-.949-55.039 72.117 43.652" fill="#4063d8" fill-opacity=".8"/><path d="M1193.465-2.469l18.023 53.125-75.894-16.129" fill="#9558b2" fill-opacity=".8"/><path d="M1208.219 79.355l-69.64-42.148 73.304 15.578" fill="#389826" fill-opacity=".8"/><path d="M1135.902 247.594l76.489 39.66-79.32 5.668" fill="#cb3c33" fill-opacity=".8"/><path d="M1205.152 350.945l-44.949-2.808 54.313-57.125" fill="#4063d8" fill-opacity=".8"/><path d="M1158.281 347.254l-24.754-52.36 79.97-5.714" fill="#389826" fill-opacity=".8"/><path d="M1195.59 209.434l22.695 46.336-80.379-10.403" fill="#4063d8" fill-opacity=".8"/><path d="M1215.191 286.453l-74.703-38.734 78.39 10.144M1191.934 145.379l34.492 36.312-54.465-19.062" fill="#389826" fill-opacity=".8"/><path d="M1196.316 206.55l-24.101-41.714 55.62 19.465M1213.754 53.852l15.55 12.093-19.007 12.961" fill="#cb3c33" fill-opacity=".8"/><path d="M1230.066 64.008l-15.84-12.32 17.598-40.481" fill="#389826" fill-opacity=".8"/><path d="M1213.113 49.227L1195.54-2.574l36.074 9.25" fill="#cb3c33" fill-opacity=".8"/><path d="M1220.906 257.777l20.535-5.988-23.957 32.508" fill="#4063d8" fill-opacity=".8"/><path d="M1220.527 255.805l-21.441-43.774 42.883 37.52" fill="#389826" fill-opacity=".8"/><path d="M1229.336 185.691l13.062 61.579-44.785-39.184" fill="#9558b2" fill-opacity=".8"/><path d="M1229.82 182.36l-34.582-36.403 48.23 13.648" fill="#cb3c33" fill-opacity=".8"/><path d="M1216.582 290.762l29.883 46.695-39.223 13.074" fill="#389826" fill-opacity=".8"/><path d="M1243.59 252.242l12.965 46.305-38.895-11.113" fill="#9558b2" fill-opacity=".8"/><path d="M1247.613 335.54l-29.347-45.853 38.52 11.004M1209.602 82.617l53.18 36.086-69.325 23.742" fill="#cb3c33" fill-opacity=".8"/><path d="M1244.477 157.813l-49.125-13.903 67.66-23.172M1230.715 67.406l30.808 48.028-50.746-34.438M1232.945 4.953l-33.082-8.48 74.653-6.79M1258.566 298.313l-12.77-45.61 35.575 28.277" fill="#389826" fill-opacity=".8"/><path d="M1233.938 7.902l49.996 35.848-51.883 20.754" fill="#9558b2" fill-opacity=".8"/><path d="M1281.098-10.602l3.754 52.547-49.735-35.656M1265.055 117.234l-31.707-49.43 55.023 17.723" fill="#cb3c33" fill-opacity=".8"/><path d="M1285.133 45.422l3.722 38.16-54.91-17.684" fill="#389826" fill-opacity=".8"/><path d="M1248.055 339.035l37.394 8.313-72.297 3.324" fill="#cb3c33" fill-opacity=".8"/><path d="M1258.43 302.29l32.203 44.16-41.403-9.2" fill="#389826" fill-opacity=".8"/><path d="M1282.262 282.816l9.148 61.305-32.023-43.918" fill="#cb3c33" fill-opacity=".8"/><path d="M1265.41 120.418l30.313 18.371-48.688 18.375" fill="#9558b2" fill-opacity=".8"/><path d="M1289.367 87.55l7.332 49.493-30.246-18.332" fill="#4063d8" fill-opacity=".8"/><path d="M1244.66 248.285l-13.383-63.082 83.157 12.426" fill="#cb3c33" fill-opacity=".8"/><path d="M1245.371 160.328l65.969 34.817-79.711-11.915" fill="#389826" fill-opacity=".8"/><path d="M1297.375 140.305l17.906 54.656-67.851-35.809" fill="#4063d8" fill-opacity=".8"/><path d="M1282.988 279.71l-36.023-28.628 68.348 1.848" fill="#cb3c33" fill-opacity=".8"/><path d="M1316.035 198.938l.945 52.035-70.011-1.895M1317.102 194.098l-17.73-54.13 40.128-.933" fill="#389826" fill-opacity=".8"/><path d="M1298.86 137.98l-7.41-50.035 47.25 49.11M1318.945 248.898l-.902-49.585 21.637 19.832M1290.836 83.29l-3.723-38.196 56.824 4.66" fill="#cb3c33" fill-opacity=".8"/><path d="M1346.023 47.918l-57.007-4.676 57.941-37.379" fill="#9558b2" fill-opacity=".8"/><path d="M1286.879 42.242l-3.785-52.949L1345.5 4.422M1293.625 345.414l-9.492-63.59 62.64-10.441" fill="#389826" fill-opacity=".8"/><path d="M1318.102 253.215l27.996 16.254-59.606 9.933" fill="#9558b2" fill-opacity=".8"/><path d="M1340.398 221.613l7.29 46.469-28.247-16.402M1340.875 136.426l-46.992-48.832 63.574 24.875" fill="#4063d8" fill-opacity=".8"/><path d="M1346.293 50.629l11.387 59.781-65.473-25.62" fill="#389826" fill-opacity=".8"/><path d="M1349.156 271.496l9.403 8.543-57.25 58.106" fill="#cb3c33" fill-opacity=".8"/><path d="M1292.973 349.004l43.43 4.535-99.829-1.945" fill="#4063d8" fill-opacity=".8"/><path d="M1359 282.441v71.45l-63.828-6.668" fill="#9558b2" fill-opacity=".8"/><path d="M1361 348.742v-66.82l17.82 12.473" fill="#389826" fill-opacity=".8"/><path d="M1341.352 139.79l40.68 41.628-63.387 14.187" fill="#4063d8" fill-opacity=".8"/><path d="M1341.02 217.664l-21.934-20.105 61.23-13.711" fill="#389826" fill-opacity=".8"/><path d="M1359.742 278.414l-9.27-8.426 29.493-27.808" fill="#9558b2" fill-opacity=".8"/><path d="M1349.695 267.973l-7.43-47.36 39.93 16.715" fill="#389826" fill-opacity=".8"/><path d="M1379.125 292.168l-17.813-12.469 21.376-38.297" fill="#cb3c33" fill-opacity=".8"/><path d="M1383 184.18v51.316l-40.121-16.793" fill="#4063d8" fill-opacity=".8"/><path d="M1358.938 113.848l25.562 42.914-41.996-19.176" fill="#cb3c33" fill-opacity=".8"/><path d="M1383.273 179.828l-37.808-38.691 40.45 18.465" fill="#9558b2" fill-opacity=".8"/><path d="M1379.59 298.457l6.308 46.856-24.328 8.109" fill="#cb3c33" fill-opacity=".8"/><path d="M1348.973 5.207l37.843 7.387-38.765 34.148" fill="#389826" fill-opacity=".8"/><path d="M1388.492 13.781l5.278 17.594-42.227 14.953" fill="#cb3c33" fill-opacity=".8"/><path d="M1386.535 156.266l-26.176-43.938 40.196-25.242" fill="#4063d8" fill-opacity=".8"/><path d="M1359.707 110.375l-11.285-59.25 51.726 33.86" fill="#cb3c33" fill-opacity=".8"/><path d="M1394.172 33.355l6.55 49.614-51.484-33.7" fill="#389826" fill-opacity=".8"/><path d="M1384.883 238.719l44.133 27.23-47.891 26.293" fill="#9558b2" fill-opacity=".8"/><path d="M1388.777 10.938l-36.285-7.079 74.336-19.472" fill="#cb3c33" fill-opacity=".8"/><path d="M1347.992 2.969l-58.804-14.254 133.644-5.348" fill="#9558b2" fill-opacity=".8"/><path d="M1395.383 29.8l-5.219-17.394 37.399-26.09M1430.18 264.316l-44.446-27.421 52.008-41.61" fill="#389826" fill-opacity=".8"/><path d="M1385 234.918v-51.7l51.7 10.34" fill="#9558b2" fill-opacity=".8"/><path d="M1387.785 160.707l46.336 30.297-49.008-9.8" fill="#4063d8" fill-opacity=".8"/><path d="M1438.078 191.203l-48.547-31.742 50.414-11.203M1402.684 86.668l37.668 25.426-51.797 44.261" fill="#cb3c33" fill-opacity=".8"/><path d="M1440.023 146.191l-49.324 10.961 50.238-42.93M1387.082 347.027l42.613 6.973h-63.53" fill="#389826" fill-opacity=".8"/><path d="M1441.14 353.848l-51.355-8.407 56.957-35.48" fill="#4063d8" fill-opacity=".8"/><path d="M1387.785 344.332l-6.605-49.066 64.168 13.21" fill="#389826" fill-opacity=".8"/><path d="M1430.496 267.418l15.875 39.227-63.508-13.075" fill="#4063d8" fill-opacity=".8"/><path d="M1441.258 110.293l-37.508-25.32 46.887-33.758" fill="#389826" fill-opacity=".8"/><path d="M1402.773 83.21l-6.578-49.812 53.57 15.98" fill="#9558b2" fill-opacity=".8"/><path d="M1431.613-15.797l18.899 63.309-53.86-16.063M1448.508 306.586l-15.656-38.672 47.882 21.176M1439.852 194.406l48.273 18.934-55.848 50.168" fill="#cb3c33" fill-opacity=".8"/><path d="M1452.375 46.758l-19.008-63.672 61.77 3.8" fill="#389826" fill-opacity=".8"/><path d="M1441.953 148.113l58.031 6.551-59.902 36.508" fill="#9558b2" fill-opacity=".8"/><path d="M1489.273 211.64l-48.03-18.835 60.277-36.73" fill="#389826" fill-opacity=".8"/><path d="M1442.945 113.867l56.196 38.692-57.114-6.45" fill="#cb3c33" fill-opacity=".8"/><path d="M1482.426 287.652l-48.957-21.656 67.789-30.125" fill="#389826" fill-opacity=".8"/><path d="M1489.777 214.543l11.77 19.008-65.176 28.969M1448.738 310.105l54.352 52.477-59.973-8.434" fill="#9558b2" fill-opacity=".8"/><path d="M1482.402 290.46l21.508 70.13-54.234-52.363" fill="#389826" fill-opacity=".8"/><path d="M1496.512-11.594l9.316 41.926-51.242 16.77M1452.71 50.887l60.895 50.43-70.406 9.511" fill="#cb3c33" fill-opacity=".8"/><path d="M1506.16 32.328l8.531 67.29-60.656-50.231M1502.379 152.36l-57.68-39.715 69.973-9.457M1503.7 155.469l25.671 12.836-37.59 41.254" fill="#4063d8" fill-opacity=".8"/><path d="M1516.578 98.61l-8.2-64.669 26.415 28.235" fill="#389826" fill-opacity=".8"/><path d="M1516.746 103.133l22.41 3.586-34.062 43.023" fill="#9558b2" fill-opacity=".8"/><path d="M1530.23 166.496l-25.683-12.84 34.855-44.027" fill="#cb3c33" fill-opacity=".8"/><path d="M1535.387 65.46l4.472 39.345-22.355-3.578" fill="#4063d8" fill-opacity=".8"/><path d="M1531.152 365.895l-23.554-2.715 32.613-58.887" fill="#cb3c33" fill-opacity=".8"/><path d="M1506.266 361.457l-21.836-71.2 56.011 9.493" fill="#9558b2" fill-opacity=".8"/><path d="M1503.473 235.625l40.449 31.043-59.262 20.691" fill="#cb3c33" fill-opacity=".8"/><path d="M1541.137 297.84l-54.14-9.176 57.812-20.187M1503.133 232.316l-11.719-18.93 51.379-27.042" fill="#4063d8" fill-opacity=".8"/><path d="M1531.055 169.422l14.238 13.348-50.715 26.69M1545.023 264.992l-40.574-31.14 41.52-48.125" fill="#389826" fill-opacity=".8"/><path d="M1535.68 60.195l-27.164-29.035 56.199-39.34" fill="#cb3c33" fill-opacity=".8"/><path d="M1507.652 29.324l-9.394-42.27 65.75 2.817M1546.79 268.766l32.644 22.668-36.274 6.347M1541.656 108.223l51.16 56.843-60.636 1.895" fill="#389826" fill-opacity=".8"/><path d="M1547.238 181.855l-13.789-12.93 55.168-1.726" fill="#4063d8" fill-opacity=".8"/><path d="M1593.043 191.773l-42.367-9.015 43.27-15.324M1541.777 103.969l-4.668-41.059 55.989-4.664" fill="#389826" fill-opacity=".8"/><path d="M1567.004-8.445l27.531 64.562-56.969 4.75" fill="#4063d8" fill-opacity=".8"/><path d="M1547.973 185.266l52.363 48.554-53.316 31.418" fill="#9558b2" fill-opacity=".8"/><path d="M1593.145 193.84l7.285 37.34-50.09-46.446" fill="#4063d8" fill-opacity=".8"/><path d="M1581.484 290.426l-33.632-23.356 52.32-30.832" fill="#cb3c33" fill-opacity=".8"/><path d="M1542.707 301.074l58.102 56.196-67.63 8.574" fill="#389826" fill-opacity=".8"/><path d="M1581.313 293.137l19.53 61.386-56.738-54.875" fill="#cb3c33" fill-opacity=".8"/><path d="M1595.895 54.203l-27.118-63.586 43.95 14.028" fill="#389826" fill-opacity=".8"/><path d="M1594.54 163.992l-51.696-57.437 73.71-19.145" fill="#9558b2" fill-opacity=".8"/><path d="M1595.855 58.465l20.442 26.945-71.54 18.582" fill="#4063d8" fill-opacity=".8"/><path d="M1614 7.113l18.523 54.64-35.195-5.554" fill="#cb3c33" fill-opacity=".8"/><path d="M1617.965 84.3l-19.668-25.925 33.973 5.363M1603.566 356.488l-19.687-61.883 55.316 40.317" fill="#389826" fill-opacity=".8"/><path d="M1614.047 2.965l-37.559-11.988 62.328 6.394" fill="#cb3c33" fill-opacity=".8"/><path d="M1633.668 58.906L1615.305 4.73l28.465-6.425" fill="#389826" fill-opacity=".8"/><path d="M1633.805 65.035l9.61 21.844-23.595-1.746M1595.945 167.523l47.926 21.704-48.832 2.714" fill="#cb3c33" fill-opacity=".8"/><path d="M1602.633 232.012l-7.43-38.078 50.149-2.786M1602.52 235.555l46.289 31.175-65.18 23.618" fill="#389826" fill-opacity=".8"/><path d="M1640.25 333.219l-56.14-40.918 65.656-23.79" fill="#cb3c33" fill-opacity=".8"/><path d="M1647.086 192.258l2.84 72.812-46.336-31.207" fill="#4063d8" fill-opacity=".8"/><path d="M1618.242 88.777L1655.398 165h-59.07" fill="#cb3c33" fill-opacity=".8"/><path d="M1644.133 88.938l10.875 70.695-35.348-72.508" fill="#389826" fill-opacity=".8"/><path d="M1647.438 188.648L1599.632 167h55.926M1651.406 271.11l13.446 37.644-22.407 23.3" fill="#9558b2" fill-opacity=".8"/><path d="M1666.5 307.426l-13.672-38.285 38.285 20.964" fill="#4063d8" fill-opacity=".8"/><path d="M1645.723-1.254l46.363 33.117-56.77 29.332" fill="#cb3c33" fill-opacity=".8"/><path d="M1645.281 86.16l-9.988-22.703 54.484-28.148" fill="#4063d8" fill-opacity=".8"/><path d="M1641.047 336.14l49.312 24.657-84.015-3.652" fill="#9558b2" fill-opacity=".8"/><path d="M1665.777 310.676l26.813 49-49.926-24.961" fill="#cb3c33" fill-opacity=".8"/><path d="M1657.59 167.273l37.515 13.399-45.554 8.039" fill="#389826" fill-opacity=".8"/><path d="M1657.59 163.262l-11.38-73.973 52.161 11.379" fill="#cb3c33" fill-opacity=".8"/><path d="M1693.21 34.422l5.673 64.312-52.016-11.351" fill="#9558b2" fill-opacity=".8"/><path d="M1693.645 30.516l-44.836-32.024 57.644 7.32" fill="#389826" fill-opacity=".8"/><path d="M1692.617 288.652l-38.234-20.941 52.8-4.55" fill="#cb3c33" fill-opacity=".8"/><path d="M1651.957 265.914l-2.844-73.055 57.871 68.309" fill="#389826" fill-opacity=".8"/><path d="M1698.137 182.168l9.46 76.629-57.71-68.113" fill="#9558b2" fill-opacity=".8"/><path d="M1698.742 179.844l-36.469-13.024 51.227-1.734" fill="#cb3c33" fill-opacity=".8"/><path d="M1699.586 102.469l15.144 60.574-55.843 1.89" fill="#389826" fill-opacity=".8"/><path d="M1692.836 291.34l34.8 40.293-59.527-22.895" fill="#9558b2" fill-opacity=".8"/><path d="M1695.313 360.488l-27.126-49.574 60.801 23.383" fill="#389826" fill-opacity=".8"/><path d="M1708.488 6.234L1736.012 16l-39.957 14.207" fill="#cb3c33" fill-opacity=".8"/><path d="M1708.957 264.094l27.414 52.996-42.035-27.414" fill="#389826" fill-opacity=".8"/><path d="M1730.832 332.277l-32.445-37.57 39.277 25.617M1709.559 258.363l-9.375-75.937 38.437 12.187" fill="#4063d8" fill-opacity=".8"/><path d="M1715.918 165.496l21.242 26.555-36.289-11.508" fill="#389826" fill-opacity=".8"/><path d="M1700.848 98.219l-5.72-64.781L1762.77 56.3" fill="#cb3c33" fill-opacity=".8"/><path d="M1738.59 17.207l24.004 36.922-65.543-22.152" fill="#389826" fill-opacity=".8"/><path d="M1716.648 162.477l-15.12-60.489 61.433 34.024" fill="#cb3c33" fill-opacity=".8"/><path d="M1739.742 192.074l-22.23-27.785 45.386-25.934" fill="#9558b2" fill-opacity=".8"/><path d="M1738.984 317.793l-28.277-54.672 53.73 3.774" fill="#cb3c33" fill-opacity=".8"/><path d="M1739.89 196.648l24.65 68.247-54.032-3.793" fill="#389826" fill-opacity=".8"/><path d="M1764.176 57.766l4.707 46.152-65.93-4.711" fill="#9558b2" fill-opacity=".8"/><path d="M1764.238 134.438l-59.789-33.118 64.39 4.598" fill="#389826" fill-opacity=".8"/><path d="M1770.418 108.68l9.223 22.629-13.41 3.351M1731.262 335.063l45.574 8.042-77.742 16.977" fill="#cb3c33" fill-opacity=".8"/><path d="M1739.387 321.34l36.617 19.586-43.43-7.664M1780.387 127.84l-9.067-22.25 11.54-4.121" fill="#389826" fill-opacity=".8"/><path d="M1770.867 103.629l-4.215-41.277 16.008 37.066M1707.96 3.988l-52.304-6.644 121.215-7.473" fill="#cb3c33" fill-opacity=".8"/><path d="M1738.918 14.91l-27.2-9.652 72.817-14.914" fill="#389826" fill-opacity=".8"/><path d="M1764.77 53.809l-24.34-37.442 48.675-26.21" fill="#cb3c33" fill-opacity=".8"/><path d="M1764.918 138.71l27.375 75.517-50.973-20.77" fill="#4063d8" fill-opacity=".8"/><path d="M1780.18 133.234l11.261 72.774-25.125-69.305" fill="#9558b2" fill-opacity=".8"/><path d="M1766.195 263.602l-24.492-67.829 50.871 20.727" fill="#cb3c33" fill-opacity=".8"/><path d="M1793.344 219.223l3.582 33.136-28.66 11.641M1766.457 267.324l37.3 17.719-62.48 32.64" fill="#389826" fill-opacity=".8"/><path d="M1781.5 341.598l-40.36-21.586 62.883-32.852" fill="#9558b2" fill-opacity=".8"/><path d="M1797.309 254.36l7.207 28.827-36.036-17.117" fill="#cb3c33" fill-opacity=".8"/><path d="M1784.2 97.941l-17.516-40.566 39.644 8.297M1791.336-10.082l36.95 42.629-61.579 21.789" fill="#389826" fill-opacity=".8"/><path d="M1807.555 63.887l-38.856-8.133 58.735-20.785" fill="#cb3c33" fill-opacity=".8"/><path d="M1806.457 282.71l-7.277-29.116 41.855-17.285" fill="#4063d8" fill-opacity=".8"/><path d="M1798.852 251.566l-3.684-34.082 46.059 16.578" fill="#cb3c33" fill-opacity=".8"/><path d="M1781.945 344.035l57.535 18.88-135.742-1.798" fill="#4063d8" fill-opacity=".8"/><path d="M1806.09 287.395l37.926 74.902-60.68-19.91M1843.559 236.266l16.046 61.347-51.91-13.215" fill="#cb3c33" fill-opacity=".8"/><path d="M1845.645 361.086l-37.758-74.574 51.918 13.215M1784.887 101.258l73 18.48-75.774 11.09" fill="#4063d8" fill-opacity=".8"/><path d="M1808.145 66.559l51.582 51.582-74.09-18.758" fill="#9558b2" fill-opacity=".8"/><path d="M1794.71 214.05l-12.487-80.695 80.695 21.133" fill="#4063d8" fill-opacity=".8"/><path d="M1862.066 121.148l1.856 31.536-77.914-20.407" fill="#cb3c33" fill-opacity=".8"/><path d="M1843.656 232.813l-45.402-16.344 64.473-8.172" fill="#9558b2" fill-opacity=".8"/><path d="M1864 156.2v49.917l-66.871 8.477M1830.07 31.555l-36.66-42.301 73.324 7.52" fill="#cb3c33" fill-opacity=".8"/><path d="M1861.582 300.93l17.094 16.195-30.59 42.285M1830.313 34.313l47.14 25.878-67.476 3.7" fill="#9558b2" fill-opacity=".8"/><path d="M1862.531 118.117l-52.242-52.242 69.336-3.797" fill="#cb3c33" fill-opacity=".8"/><path d="M1868.352-2.008l11.28 61.117-47.948-26.328" fill="#389826" fill-opacity=".8"/><path d="M1865.95 153.102l-1.759-29.872 24.602 32.508" fill="#9558b2" fill-opacity=".8"/><path d="M1866 202.91v-47.789l23.441 2.707" fill="#389826" fill-opacity=".8"/><path d="M1865.46 208.035l24.813 1.711-42.777 21.387" fill="#4063d8" fill-opacity=".8"/><path d="M1890.21 160.684l2.727 47.242-26.347-1.82" fill="#cb3c33" fill-opacity=".8"/><path d="M1861.625 297.438l-16.094-61.54 63.43 32.188" fill="#4063d8" fill-opacity=".8"/><path d="M1893.371 210.434l16.031 55.632-63.18-32.058" fill="#9558b2" fill-opacity=".8"/><path d="M1879.805 315.438l-17.176-16.27 45.2-28.023" fill="#cb3c33" fill-opacity=".8"/><path d="M1881.496 62.805l31.79 28.984-48.622 26.18" fill="#389826" fill-opacity=".8"/><path d="M1890.695 154.941l-26.195-34.613 48.645-26.195" fill="#4063d8" fill-opacity=".8"/><path d="M1881.496 58.188l-11.273-61.083 45.105 3.758M1880.324 318.258l35.184 16.668-66.664 26.851" fill="#cb3c33" fill-opacity=".8"/><path d="M1910.305 270.969l6.515 62.367-35.37-16.758M1917.762 336.176l25.847 25.847-92.32.922" fill="#389826" fill-opacity=".8"/><path d="M1915 90.648L1883.582 62h62.836" fill="#9558b2" fill-opacity=".8"/><path d="M1916.95 2.055L1947.347 60h-64.598" fill="#389826" fill-opacity=".8"/><path d="M1942.129-13.344l5.488 69.559L1918.332.387M1945.098 360.68l-25.797-25.793 28.558-40.532" fill="#cb3c33" fill-opacity=".8"/><path d="M1918.719 332.246l-6.516-62.348 35.363 21.403" fill="#9558b2" fill-opacity=".8"/><path d="M1915.375 93.867l39.797 42.64-62.54 18.954" fill="#389826" fill-opacity=".8"/><path d="M1911.453 265.96l-16.101-55.874 61.558 3.789" fill="#cb3c33" fill-opacity=".8"/><path d="M1894.945 208.055l-2.816-48.828 63.855 52.585" fill="#4063d8" fill-opacity=".8"/><path d="M1956.035 138.336l1.906 72.496-64.863-53.418" fill="#cb3c33" fill-opacity=".8"/><path d="M1948.5 289.527l-34.93-21.14 47.797-11.95" fill="#389826" fill-opacity=".8"/><path d="M1958.227 215.41l3.695 38.828-48.074 12.02" fill="#9558b2" fill-opacity=".8"/><path d="M1948.5 62.809l14.914 49.402-46.605-20.508" fill="#4063d8" fill-opacity=".8"/><path d="M1956.602 135.105l-37.551-40.23 44.703 19.668" fill="#9558b2" fill-opacity=".8"/><path d="M1965.383 111.805l-14.707-48.711 35.847 20.218" fill="#389826" fill-opacity=".8"/><path d="M1959.973 212l-1.828-69.547L1986.512 212" fill="#9558b2" fill-opacity=".8"/><path d="M1963.883 253.719l-3.617-37.98 29.84 30.745" fill="#cb3c33" fill-opacity=".8"/><path d="M1987.11 214l3.55 30.188L1961.363 214" fill="#389826" fill-opacity=".8"/><path d="M1963.367 256.813l33.219 34.14-46.137-.926" fill="#cb3c33" fill-opacity=".8"/><path d="M1991.184 248.262l6.347 40.793-32.636-33.54" fill="#389826" fill-opacity=".8"/><path d="M1949.895 293.512l53.136 59.777-55.98 8.54" fill="#4063d8" fill-opacity=".8"/><path d="M1998.09 292.98l5.62 58.063-52.444-58.996" fill="#9558b2" fill-opacity=".8"/><path d="M1987.703 81.684l-35.832-20.211 57.883-11.028M1965.41 115.867l46.668 48.465-53.848-27.824" fill="#4063d8" fill-opacity=".8"/><path d="M1988.2 210.844l-29.25-71.711 56.612 29.25" fill="#389826" fill-opacity=".8"/><path d="M2011.156 48.145l-57.41 10.933 63.79-41.918" fill="#9558b2" fill-opacity=".8"/><path d="M1949.863 59.234l-5.742-72.714 72.719 28.703" fill="#389826" fill-opacity=".8"/><path d="M1988.016 84.656l44.796 57.86-66.261-28.93" fill="#9558b2" fill-opacity=".8"/><path d="M2016.941 166.5l-47.734-49.57 65.176 28.457M1999.863 291.04l-6.422-41.27 44.942 43.105" fill="#cb3c33" fill-opacity=".8"/><path d="M2030.21 368.34l-23.843-14.672 33.012-55.023" fill="#9558b2" fill-opacity=".8"/><path d="M2005.703 350.883l-5.598-57.828 39.176 1.863" fill="#389826" fill-opacity=".8"/><path d="M1992.754 244.832l-3.664-31.133 51.277-16.48" fill="#cb3c33" fill-opacity=".8"/><path d="M2017.168 169.582l24.969 24.969-51.782 16.64" fill="#9558b2" fill-opacity=".8"/><path d="M2035.363 147.344l7.16 44.765-24.171-24.172M2011.98 50.762l34.524 51.32-56.918-19.594" fill="#389826" fill-opacity=".8"/><path d="M2035.625 142.879l-44.785-57.844 56.91 19.594" fill="#4063d8" fill-opacity=".8"/><path d="M2018.77 13.832L1948.258-14h99.27" fill="#cb3c33" fill-opacity=".8"/><path d="M2019.621 16.945l41.324 38.575-47.754-7.348" fill="#389826" fill-opacity=".8"/><path d="M2048.676 101.727l-34.57-51.391 48.585 7.473M2049.371-13l13.059 67.168-41.977-39.18M2040.68 292.305l-46.614-44.707 74.2-15.223" fill="#9558b2" fill-opacity=".8"/><path d="M2043.875 196.54l24.41 33.792-73.222 15.02" fill="#4063d8" fill-opacity=".8"/><path d="M2069.832 233.762l20.742 65.062-48.09-5.656" fill="#389826" fill-opacity=".8"/><path d="M2044.832 193.875l-7.46-46.64 55.034 40.113" fill="#cb3c33" fill-opacity=".8"/><path d="M2069.91 229.168l-24.125-33.402 47.32-6.496" fill="#389826" fill-opacity=".8"/><path d="M2064.656 58.234l31.157 9.164-44.903 33.907" fill="#cb3c33" fill-opacity=".8"/><path d="M2041.77 295.805l57.265 41.996-66.808 30.539" fill="#389826" fill-opacity=".8"/><path d="M2091.188 300.91l8.214 34.676-54.754-40.149" fill="#cb3c33" fill-opacity=".8"/><path d="M2049.516 105.68l52.421 41.187-64.59-2.808" fill="#9558b2" fill-opacity=".8"/><path d="M2094.39 186.316l-55.124-40.171 64.468 2.8M2097.383 68.719l9.324 39.168-55.02-4.664" fill="#389826" fill-opacity=".8"/><path d="M2104.145 146.059l-51.899-40.782 54.68 4.637M2092.05 296.871l-20.562-64.5 40.196 9.348" fill="#cb3c33" fill-opacity=".8"/><path d="M2094.762 190.402l16.715 49.215-39.934-9.285" fill="#9558b2" fill-opacity=".8"/><path d="M2100.691 332.355l-7.648-32.296 17.848-50.149" fill="#4063d8" fill-opacity=".8"/><path d="M2104.516 154.055l6.78 78.824-15.253-44.922" fill="#cb3c33" fill-opacity=".8"/><path d="M2097.332 65.762l-31.465-9.254L2115.84 4.68" fill="#9558b2" fill-opacity=".8"/><path d="M2064.613 54.922l-13.336-68.594L2116.06 1.57" fill="#389826" fill-opacity=".8"/><path d="M2107.566 102.855l-8.53-35.824 17.058-56.293" fill="#cb3c33" fill-opacity=".8"/></svg>