<svg xmlns="http://www.w3.org/2000/svg" width="2100" height="350" viewBox="0 0 2100 350">
<style>
  .a {fill-opacity:0.4;fill:rgb(25.1%,38.8%,84.7%);}
  .b {fill-opacity:0.4;fill:rgb(22%,59.6%,14.9%);}
  .c {fill-opacity:0.4;fill:rgb(79.6%,23.5%,20%);}
  .d {fill-opacity:0.4;fill:rgb(58.4%,34.5%,69.8%);}</style>
<rect width="2100" height="350" fill="rgb(3.921569%,3.921569%,3.921569%)"/>
<path d="M-1 62.4L-3.4 67.1 0.4 47.7ZM-1 62.4" class="a"/>
<path d="M1.7 141.3L-5.3 85.5 38.3 129.1ZM1.7 141.3" class="b"/>
<path d="M7.6 13.9L42.2 54.6 3.2 60.6ZM7.6 13.9" class="c"/>
<path d="M35.4-4.9L43.1 49.5 9.1 9.6ZM35.4-4.9" class="d"/>
<path d="M2.3 64.8L31.4 60.3 -3.5 75.8ZM2.3 64.8" class="a"/>
<path d="M-4.2 286L42.7 307.3 -7.7 338.3ZM-4.2 286" class="b"/>
<path d="M-5.5 279.9L-13.1 266.9 35.9 244.7ZM-5.5 279.9" class="c"/>
<path d="M1.2 201.6L44.2 236.5 -13.1 262.5ZM1.2 201.6" class="d"/>
<path d="M45 303.9L-2.3 282.5 45.9 241.4ZM45 303.9" class="a"/>
<path d="M2 195.5L2 147.8 54.1 183.1ZM2 195.5" class="b"/>
<path d="M40.7 132.5L55.4 179.1 4.5 144.6ZM40.7 132.5" class="c"/>
<path d="M46.7 233.4L4.4 199 56.4 186.7ZM46.7 233.4" class="d"/>
<path d="M41.7 126.9L-1.6 83.5 61.7 98.3ZM41.7 126.9" class="a"/>
<path d="M45 58.6L61.5 94.1 -1.7 79.4ZM45 58.6" class="b"/>
<path d="M46.3 309.8L63.5 338.1 -2.6 339.8ZM46.3 309.8" class="c"/>
<path d="M64.8 91.8L49 57.8 78.1 55.3ZM64.8 91.8" class="d"/>
<path d="M47.7 53.8L40.1-0.3 77.3 51.3ZM47.7 53.8" class="a"/>
<path d="M79.5 63L80.9 92.3 68.1 94.5ZM79.5 63" class="b"/>
<path d="M68 337.7L52.5 312.2 90.4 332.3ZM68 337.7" class="c"/>
<path d="M80.8 49.3L41.5-5.2 104.9 5.5ZM80.8 49.3" class="d"/>
<path d="M60.2 188.1L107.2 235.9 50.4 235ZM60.2 188.1" class="a"/>
<path d="M49.9 241L111.5 288.1 49 304.4ZM49.9 241" class="b"/>
<path d="M110.1 240L113.7 284.7 54 239.1ZM110.1 240" class="c"/>
<path d="M95.1 330.2L52.5 307.6 112.4 292ZM95.1 330.2" class="d"/>
<path d="M60 180.4L44.8 132.1 111.9 133.9ZM60 180.4" class="a"/>
<path d="M65.5 99.8L110.2 129.8 45.8 128.1ZM65.5 99.8" class="b"/>
<path d="M82.2 96.2L104.8 121.4 70.3 98.1ZM82.2 96.2" class="c"/>
<path d="M110.5 233.6L63.8 186.1 115.8 187ZM110.5 233.6" class="d"/>
<path d="M115.1 136.4L116 183 64.1 182.1ZM115.1 136.4" class="a"/>
<path d="M119.8 173L119.1 137.8 127.8 148.4ZM119.8 173" class="b"/>
<path d="M96.1 335L113 338 83.8 338ZM96.1 335" class="c"/>
<path d="M115.9 294.1L132.8 337.4 98.9 331.5ZM115.9 294.1" class="d"/>
<path d="M117.7 284.5L114.5 243.7 135.2 266.9ZM117.7 284.5" class="a"/>
<path d="M84.8 89.8L83.1 54.6 139.7 41.7ZM84.8 89.8" class="b"/>
<path d="M108.6 7.1L142.7 36.9 84.9 50.1ZM108.6 7.1" class="c"/>
<path d="M117.4 129.5L88.8 97.5 149.4 112.7ZM117.4 129.5" class="d"/>
<path d="M145.4 42L152.7 109.4 87.2 93ZM145.4 42" class="a"/>
<path d="M129.9 144.7L120.1 132.6 148.7 117.6ZM129.9 144.7" class="b"/>
<path d="M136.2 334.9L119.1 291.3 155 294.7ZM136.2 334.9" class="c"/>
<path d="M137.8 270L153.6 290.6 120.4 287.4ZM137.8 270" class="d"/>
<path d="M107.8 1.9L53.9-7.2 151.9-14ZM107.8 1.9" class="a"/>
<path d="M146.1 34.5L111.9 4.7 162.7-13.7ZM146.1 34.5" class="b"/>
<path d="M119.7 187.8L163.5 205.3 114.4 234.2ZM119.7 187.8" class="c"/>
<path d="M137.5 263.4L115.1 238.5 163.3 210.1ZM137.5 263.4" class="d"/>
<path d="M130.6 152.5L162.8 200.8 120.5 183.8ZM130.6 152.5" class="a"/>
<path d="M156 114.1L180.6 116.4 136.8 141.8ZM156 114.1" class="b"/>
<path d="M168.2 201.7L136.5 154.1 184.9 182.5ZM168.2 201.7" class="c"/>
<path d="M185.1 118.4L185.9 178.5 134 148ZM185.1 118.4" class="d"/>
<path d="M166.9-13.5L185.9 3 151.2 31.9ZM166.9-13.5" class="a"/>
<path d="M158.9 290.8L143.6 271 189.5 286.3ZM158.9 290.8" class="b"/>
<path d="M185.6 112.9L159.4 110.4 199.5 69.4ZM185.6 112.9" class="c"/>
<path d="M156.5 107.6L149.4 41.2 200.5 62.7ZM156.5 107.6" class="d"/>
<path d="M187.8 6.6L201.1 58.6 150.8 37.4ZM187.8 6.6" class="a"/>
<path d="M189.9 178L189.1 123.1 210.4 162.4ZM189.9 178" class="b"/>
<path d="M168.7 208.1L210.8 242.2 141.8 263.7ZM168.7 208.1" class="c"/>
<path d="M196.8 284.5L144.5 267.1 211.6 246.1ZM196.8 284.5" class="d"/>
<path d="M187.4 185.7L209.8 236.2 170.9 204.8ZM187.4 185.7" class="a"/>
<path d="M135.9 342L153 344.4 120.9 342ZM135.9 342" class="b"/>
<path d="M158.6 296.5L209.5 348.2 139 338.4ZM158.6 296.5" class="c"/>
<path d="M196.5 289.2L211.1 344.2 162.2 294.4ZM196.5 289.2" class="d"/>
<path d="M215.7 246.7L227.1 258.9 202.8 280.2ZM215.7 246.7" class="a"/>
<path d="M212.8 165.7L232.6 186.2 193 180.7ZM212.8 165.7" class="b"/>
<path d="M215 238L191.3 184.5 235.1 190.6ZM215 238" class="c"/>
<path d="M190 1.2L178.1-9.2 216.9 9ZM190 1.2" class="d"/>
<path d="M205 57.7L191.8 5.9 237.5 19.1ZM205 57.7" class="a"/>
<path d="M239.1 23.3L240 52.4 209.3 58.8ZM239.1 23.3" class="b"/>
<path d="M205.1 65.1L238 85.8 190.4 110.9ZM205.1 65.1" class="c"/>
<path d="M240 56.5L240 82.4 209.2 62.9ZM240 56.5" class="d"/>
<path d="M214 160.6L192.5 121 240.4 152.4ZM214 160.6" class="a"/>
<path d="M240.1 89.2L242.8 149.2 190.9 115.2ZM240.1 89.2" class="b"/>
<path d="M236.8 184.8L216.7 163.9 242.4 155.9ZM236.8 184.8" class="c"/>
<path d="M216.2 347.8L201.7 293.1 242.7 330.7ZM216.2 347.8" class="d"/>
<path d="M230 261.6L260.3 287.7 203.1 285.2ZM230 261.6" class="a"/>
<path d="M245.4 327.7L203.4 289.2 262.9 291.9ZM245.4 327.7" class="b"/>
<path d="M230 256.1L218.2 243.5 269.4 216ZM230 256.1" class="c"/>
<path d="M239 191.7L275.5 208.2 219.1 238.5ZM239 191.7" class="d"/>
<path d="M246 158.3L274.7 203.4 240.3 187.8ZM246 158.3" class="a"/>
<path d="M243.9 51.3L243.1 21.1 284.2 38.7ZM243.9 51.3" class="b"/>
<path d="M246.7 146.6L244.1 87.9 286.2 85.2ZM246.7 146.6" class="c"/>
<path d="M244 83.9L244 57.5 283.5 81.4ZM244 83.9" class="d"/>
<path d="M288 41.7L288 79.5 246.8 54.6ZM288 41.7" class="a"/>
<path d="M279.7 203.8L248.9 155.3 300 159.8ZM279.7 203.8" class="b"/>
<path d="M288.9 88.4L300.6 155.8 248.5 151.3ZM288.9 88.4" class="c"/>
<path d="M246.6 333L286 333 225.5 346.6ZM246.6 333" class="d"/>
<path d="M266.5 293.5L299.4 329 249.2 329ZM266.5 293.5" class="a"/>
<path d="M266.1 287.5L235.5 261.1 302.8 261.9ZM266.1 287.5" class="b"/>
<path d="M279.6 211.3L305.6 258 234.7 257.1ZM279.6 211.3" class="c"/>
<path d="M241.1 15.8L176.2-14.4 300.7-7.5ZM241.1 15.8" class="d"/>
<path d="M288.9 36.4L246.3 18.1 306.3-5.4ZM288.9 36.4" class="a"/>
<path d="M303.9 328L275.7 297.5 312.9 317.6ZM303.9 328" class="b"/>
<path d="M307.4 263.5L313.5 313.4 269.8 289.8ZM307.4 263.5" class="c"/>
<path d="M311-6.3L328.4 2.5 295.2 31.8ZM311-6.3" class="d"/>
<path d="M303.9 151.7L292.5 85.4 334 92.5ZM303.9 151.7" class="a"/>
<path d="M292 81.3L292 44.2 331.6 88.1ZM292 81.3" class="b"/>
<path d="M335.1 99.1L336 144.6 307 154.5ZM335.1 99.1" class="c"/>
<path d="M316.4 319.6L334.4 331.4 308.1 329.3ZM316.4 319.6" class="d"/>
<path d="M303.5 161.8L340.7 207.9 283.1 206.1ZM303.5 161.8" class="a"/>
<path d="M336.3 148.7L342.3 203.4 306.4 159ZM336.3 148.7" class="b"/>
<path d="M309.2 256.3L283.5 210.1 341.2 211.9ZM309.2 256.3" class="c"/>
<path d="M340.7 330.7L320.5 317.6 345.3 309ZM340.7 330.7" class="d"/>
<path d="M317.7 314.3L311.8 266.4 344.6 305.1ZM317.7 314.3" class="a"/>
<path d="M344 214.9L349.7 242.7 314.5 255.8ZM344 214.9" class="b"/>
<path d="M346.3 300.9L312.4 260.9 349.8 246.9ZM346.3 300.9" class="c"/>
<path d="M332 4.6L361.2 29.5 296 36.4ZM332 4.6" class="d"/>
<path d="M336.5 87.5L294.1 40.6 362.6 33.4ZM336.5 87.5" class="a"/>
<path d="M366.7 29L349.3 14.2 375.4 29ZM366.7 29" class="b"/>
<path d="M353.9 245.9L383.3 245.1 350.5 298.1ZM353.9 245.9" class="c"/>
<path d="M353.6 242L348.1 214.9 381.4 241.2ZM353.6 242" class="d"/>
<path d="M381.5 27.8L337.1 2.6 387.6-12.2ZM381.5 27.8" class="c"/>
<path d="M346.6 205.9L340.3 149 389.2 166.8ZM346.6 205.9" class="d"/>
<path d="M349.5 308.5L393.6 319.9 344.6 331.3ZM349.5 308.5" class="a"/>
<path d="M386 248.4L399.4 317.3 351.1 304.7ZM386 248.4" class="b"/>
<path d="M303.8 333.1L388.8 366.6 227.5 350.3ZM303.8 333.1" class="c"/>
<path d="M341.4 336L380.2 358.9 317.2 334ZM341.4 336" class="d"/>
<path d="M400.1 322.5L400.9 366.5 347.3 334.8ZM400.1 322.5" class="a"/>
<path d="M366.5 34.7L403.2 78.6 340.5 88.4ZM366.5 34.7" class="b"/>
<path d="M381.8 33L397.9 66.1 370.3 33ZM381.8 33" class="c"/>
<path d="M391.4 163.3L341.7 145.2 404.1 85.6ZM391.4 163.3" class="d"/>
<path d="M339.9 141.4L339 92.7 401 83ZM339.9 141.4" class="a"/>
<path d="M386.2 239.8L349.6 211.1 403.6 199.8ZM386.2 239.8" class="b"/>
<path d="M392.3 169.3L404.2 195.6 351.7 206.5ZM392.3 169.3" class="c"/>
<path d="M408 86.2L435.4 137.3 395.7 162ZM408 86.2" class="d"/>
<path d="M407.1 192.4L395.5 166.8 432.8 143.6ZM407.1 192.4" class="a"/>
<path d="M391.6-12.3L434.9 2.4 385.6 27.5ZM391.6-12.3" class="b"/>
<path d="M437.2 132.3L413.6 88.2 441.8 111.8ZM437.2 132.3" class="c"/>
<path d="M408 77.4L387.2 35 446.9 61ZM408 77.4" class="d"/>
<path d="M438.6 5L449.3 57.6 387.7 30.9ZM438.6 5" class="a"/>
<path d="M442.6 107.2L410.8 80.6 449.5 64.2ZM442.6 107.2" class="b"/>
<path d="M403.5 317.3L390 248.2 452 300.3ZM403.5 317.3" class="c"/>
<path d="M438 142.3L460 183.6 410.8 194.1ZM438 142.3" class="d"/>
<path d="M404.9 367.3L404.1 323.3 458.7 351.5ZM404.9 367.3" class="a"/>
<path d="M454.4 303.7L461.4 348.4 407 320.3ZM454.4 303.7" class="b"/>
<path d="M407.8 200.2L462 242.9 390 241.1ZM407.8 200.2" class="c"/>
<path d="M461.2 187.4L465.6 240.6 411.6 198.1ZM461.2 187.4" class="d"/>
<path d="M454.7 297.3L392.7 245.1 465.5 246.9ZM454.7 297.3" class="a"/>
<path d="M464.4 354L443.9 357.2 530.5 334.5ZM464.4 354" class="b"/>
<path d="M465.7 349.7L459.7 311.6 479.8 347.5ZM465.7 349.7" class="c"/>
<path d="M440.4 0L419.7-7 459 0.8ZM440.4 0" class="d"/>
<path d="M452.9 55.4L442.5 4.1 481.6 5.9ZM452.9 55.4" class="a"/>
<path d="M445.1 115.2L482 156.1 440.3 136.9ZM445.1 115.2" class="b"/>
<path d="M463.6 181.9L442.6 142.3 486.3 162.5ZM463.6 181.9" class="c"/>
<path d="M469.4 237.9L465.2 187.6 492.1 194.3ZM469.4 237.9" class="d"/>
<path d="M488.6 165.8L492.5 190.3 467.3 184ZM488.6 165.8" class="a"/>
<path d="M484.7 8.5L502.2 51.4 455.8 58.4ZM484.7 8.5" class="b"/>
<path d="M453.4 64.7L504.7 106.2 446.4 108.9ZM453.4 64.7" class="c"/>
<path d="M503.2 55.3L507.6 103.5 456.8 62.3ZM503.2 55.3" class="d"/>
<path d="M489.3 158.2L448.3 112.8 507.1 110.1ZM489.3 158.2" class="a"/>
<path d="M494.7 197.8L508.3 232.6 471.8 242ZM494.7 197.8" class="b"/>
<path d="M469.1 249.4L509.8 297.1 458.5 298.9ZM469.1 249.4" class="c"/>
<path d="M509.1 236.5L511.7 293.3 471.6 246.1ZM509.1 236.5" class="d"/>
<path d="M483.1 345.1L459.4 302.9 510.3 301.1ZM483.1 345.1" class="a"/>
<path d="M515.9 295.9L513.3 240.8 543 283.2ZM515.9 295.9" class="b"/>
<path d="M511.7 105L507.4 57.7 545.3 89.5ZM511.7 105" class="c"/>
<path d="M511.1 110.9L547.7 131.9 493.6 158ZM511.1 110.9" class="d"/>
<path d="M547.2 93L549.7 128.4 514.4 108.2ZM547.2 93" class="a"/>
<path d="M496.7 191L492.6 165.4 544.5 190.1ZM496.7 191" class="b"/>
<path d="M550.1 135.2L550.9 188.8 494.6 162ZM550.1 135.2" class="c"/>
<path d="M511.8 230.4L497.9 194.9 548.1 194.1ZM511.8 230.4" class="d"/>
<path d="M514.4 302.1L549.7 335.7 487 346.3ZM514.4 302.1" class="a"/>
<path d="M544.4 286.9L551.2 331.5 517.5 299.6ZM544.4 286.9" class="b"/>
<path d="M545.8 280.2L518 240.5 555.3 262.7ZM545.8 280.2" class="c"/>
<path d="M551.3 196.5L555.7 258.3 514.2 233.6ZM551.3 196.5" class="d"/>
<path d="M485 2L411.4-12.8 545.4-11.2ZM485 2" class="a"/>
<path d="M505.6 49.3L487.8 5.4 557.5-9.7ZM505.6 49.3" class="b"/>
<path d="M548.7 87.2L512.8 56.9 563.4 69.2ZM548.7 87.2" class="c"/>
<path d="M562.4-9.2L583.2 42.3 509.9 50.4ZM562.4-9.2" class="d"/>
<path d="M566.2 65.8L516.5 53.7 581.5 46.5ZM566.2 65.8" class="a"/>
<path d="M559.7 257.6L555.4 197.7 586.2 231.9ZM559.7 257.6" class="b"/>
<path d="M555.6 333.9L548.7 288.2 590.1 315.8ZM555.6 333.9" class="c"/>
<path d="M558.2 265.9L586.8 308.8 548.6 283.4ZM558.2 265.9" class="d"/>
<path d="M587.7 227.6L556.8 193.2 594.6 184.6ZM587.7 227.6" class="a"/>
<path d="M595.1 180.4L562.7 187.7 595.8 164.9ZM595.1 180.4" class="b"/>
<path d="M554.9 188.2L554.1 135.7 594.4 161.1ZM554.9 188.2" class="c"/>
<path d="M553.7 128.3L551.2 92.1 602 93.8ZM553.7 128.3" class="d"/>
<path d="M567.5 70.6L600.2 89.7 553.1 88.1ZM567.5 70.6" class="a"/>
<path d="M596.5 157.7L555.6 131.9 605.3 96.4ZM596.5 157.7" class="b"/>
<path d="M585.5 47.8L603.5 87.1 570 67.4ZM585.5 47.8" class="c"/>
<path d="M593.9 318.3L608.5 328.6 564.5 333.8ZM593.9 318.3" class="d"/>
<path d="M586.2 39.1L565.8-11.3 614.5-17.5ZM586.2 39.1" class="b"/>
<path d="M588.7 235.1L624.5 287.6 561.6 261.3ZM588.7 235.1" class="c"/>
<path d="M594.6 313.2L563.3 266.4 625.8 292.4ZM594.6 313.2" class="d"/>
<path d="M613.1 326.9L597.5 316 625.6 297.4ZM613.1 326.9" class="a"/>
<path d="M599.9 163.2L632.3 166.2 599.1 179ZM599.9 163.2" class="b"/>
<path d="M629.3 287.5L592.9 234.1 645.3 235.9ZM629.3 287.5" class="c"/>
<path d="M598.5 185.4L645.1 217.1 591.4 229.4ZM598.5 185.4" class="d"/>
<path d="M646.2 231.9L604.4 230.5 647.7 220.6ZM646.2 231.9" class="a"/>
<path d="M639.4 167.7L647.2 213.7 601.3 182.5ZM639.4 167.7" class="b"/>
<path d="M608.9 89.2L589.8 47.5 648.1 68.4ZM608.9 89.2" class="c"/>
<path d="M609.6 94.6L649.2 106.9 600.8 155.3ZM609.6 94.6" class="d"/>
<path d="M639.4 162.8L602.4 159.4 649.7 112.1ZM639.4 162.8" class="a"/>
<path d="M651 71.3L651 103.3 613.2 91.5ZM651 71.3" class="b"/>
<path d="M618.8-17.1L659.8 9.6 590.3 40ZM618.8-17.1" class="c"/>
<path d="M651.5 65.3L591.4 43.8 661.3 13.3ZM651.5 65.3" class="d"/>
<path d="M630.5 295.9L663.1 338 616.8 328.5ZM630.5 295.9" class="a"/>
<path d="M654.1 110.5L682.8 145.2 643.7 161.7ZM654.1 110.5" class="b"/>
<path d="M649.2 237L683.1 257 633.5 287.5ZM649.2 237" class="c"/>
<path d="M667 336.4L632.9 292.5 684 261.2ZM667 336.4" class="d"/>
<path d="M664.1 7.7L626.3-17 692.8-8.8ZM664.1 7.7" class="a"/>
<path d="M651.7 215.8L643.9 170 694 211.5ZM651.7 215.8" class="b"/>
<path d="M684.5 148.8L696 207.9 644.8 165.6ZM684.5 148.8" class="c"/>
<path d="M651.8 219.8L685.5 216.4 650.4 230.8ZM651.8 219.8" class="d"/>
<path d="M685.8 253.9L652.5 234.3 696 216.4ZM685.8 253.9" class="a"/>
<path d="M655 101.2L655 69.6 696.6 60.5ZM655 101.2" class="b"/>
<path d="M665.2 14.5L699.4 55.8 655.5 65.4ZM665.2 14.5" class="c"/>
<path d="M697.2-6.7L700.6 51 667.1 10.6ZM697.2-6.7" class="d"/>
<path d="M554 339L669.7 363.1 498.8 348.4ZM554 339" class="b"/>
<path d="M613.7 332L683.7 361.9 566.5 337.6ZM613.7 332" class="c"/>
<path d="M667.1 342.9L689.4 360 632.9 335.9ZM667.1 342.9" class="d"/>
<path d="M687.8 262.7L715.3 314.2 670.9 337.2ZM687.8 262.7" class="a"/>
<path d="M701.9 364.6L671.7 341.3 714.8 318.9ZM701.9 364.6" class="b"/>
<path d="M686 142.8L657.1 107.9 714.8 106.1ZM686 142.8" class="c"/>
<path d="M702.1 60.7L716.2 102.1 658.1 103.8ZM702.1 60.7" class="d"/>
<path d="M704.7 51.8L701.2-6.2 735 15.5ZM704.7 51.8" class="a"/>
<path d="M700 217L736.3 256.8 689.6 255.1ZM700 217" class="b"/>
<path d="M717.8 310.3L690.4 259.1 738.1 260.9ZM717.8 310.3" class="c"/>
<path d="M744.1 108.4L722.1 102.7 744.9 66.2ZM744.1 108.4" class="d"/>
<path d="M719.5 99.4L705.8 59.1 743.5 60.8ZM719.5 99.4" class="a"/>
<path d="M736.9 19.5L744.5 56.9 707.1 55.2ZM736.9 19.5" class="b"/>
<path d="M700.4 209.7L688.8 149.9 743.2 181.1ZM700.4 209.7" class="c"/>
<path d="M739.4 254.2L702 213.4 744.7 184.9ZM739.4 254.2" class="d"/>
<path d="M719.1 107.1L749.7 141.2 690.3 143.8ZM719.1 107.1" class="a"/>
<path d="M744.3 112.6L750.1 135.7 724.9 107.6ZM744.3 112.6" class="b"/>
<path d="M745.5 177.9L693 147.7 751.6 145.1ZM745.5 177.9" class="c"/>
<path d="M718.9 319.1L759.6 365.1 705.7 366ZM718.9 319.1" class="d"/>
<path d="M741.3 263.5L766.7 307.4 721.1 312.6ZM741.3 263.5" class="a"/>
<path d="M762.5 362.3L722 316.5 767.8 311.3ZM762.5 362.3" class="b"/>
<path d="M748.9 63.6L787.8 100.8 748 108.6ZM748.9 63.6" class="c"/>
<path d="M755 138.9L748.4 112.6 786.4 105.1ZM755 138.9" class="d"/>
<path d="M738.4 12.9L707.6-6.9 787.4 3.4ZM738.4 12.9" class="a"/>
<path d="M748.2 54.8L740.4 16.6 794.3 6.1ZM748.2 54.8" class="b"/>
<path d="M748.6 186.3L798.2 250.4 743.2 256.7ZM748.6 186.3" class="c"/>
<path d="M770 305L744.3 260.6 798.3 254.4ZM770 305" class="d"/>
<path d="M755.7 145L800.1 144.1 749.8 176.8ZM755.7 145" class="a"/>
<path d="M791.3 105.7L804.1 140.1 758.7 140.9ZM791.3 105.7" class="b"/>
<path d="M771.6 312.5L806.4 336 766.4 362.9ZM771.6 312.5" class="c"/>
<path d="M801 257.8L808.7 300.4 773.8 306.3ZM801 257.8" class="d"/>
<path d="M808.1 332.3L775.3 310.1 808.9 304.4ZM808.1 332.3" class="a"/>
<path d="M791.5 98.8L752.4 61.4 809.7 65.8ZM791.5 98.8" class="b"/>
<path d="M798.8 7.1L810.5 61.8 751.3 57.3ZM798.8 7.1" class="c"/>
<path d="M800.8 247.2L751.3 183.3 810.7 187.8ZM800.8 247.2" class="d"/>
<path d="M805.4 145.4L810.7 183.8 753.1 179.5ZM805.4 145.4" class="a"/>
<path d="M814.7 187.8L827.8 186.4 806.7 235.8ZM814.7 187.8" class="b"/>
<path d="M814.7 183.8L810.4 151.9 827.8 182.3ZM814.7 183.8" class="c"/>
<path d="M809.8 338.6L834.2 362.2 771 364.7ZM809.8 338.6" class="d"/>
<path d="M799.8 1L728.6-8.2 828.7-8.9ZM799.8 1" class="b"/>
<path d="M812.4 298.5L804.8 256.4 838.5 280ZM812.4 298.5" class="c"/>
<path d="M813 303.1L835.8 286.9 812.2 328.1ZM813 303.1" class="d"/>
<path d="M837.2 359.4L812.5 335.6 839.7 288ZM837.2 359.4" class="a"/>
<path d="M808 138.9L795.2 104.8 841.2 115ZM808 138.9" class="b"/>
<path d="M813.2 67.9L841.6 111 795 100.6ZM813.2 67.9" class="c"/>
<path d="M831.3 180.6L811.9 146.5 846.8 162.7ZM831.3 180.6" class="d"/>
<path d="M844.3 117.7L847.7 158.7 810.9 141.6ZM844.3 117.7" class="a"/>
<path d="M814.3 60.4L802.9 7.1 847.5 34.2ZM814.3 60.4" class="b"/>
<path d="M839.5-8.4L848 29.9 804.7 3.5ZM839.5-8.4" class="c"/>
<path d="M844.4 107.9L815.7 64.4 848.7 38.3ZM844.4 107.9" class="d"/>
<path d="M831.5 187.9L862.7 229 805.6 248.6ZM831.5 187.9" class="a"/>
<path d="M841.2 277L806.4 252.6 862.1 233.4ZM841.2 277" class="b"/>
<path d="M848.9 166.3L861.9 221.3 833.6 184.1ZM848.9 166.3" class="c"/>
<path d="M843.8 287.1L880.9 351.7 841.1 361.4ZM843.8 287.1" class="d"/>
<path d="M852.2 30L843.6-8.5 883.8-1.7ZM852.2 30" class="a"/>
<path d="M852.6 39.9L889 92.2 848.2 110.8ZM852.6 39.9" class="b"/>
<path d="M867.2 226.3L853.2 166.8 897.8 199.2ZM867.2 226.3" class="c"/>
<path d="M867.1 232.4L901.1 242.6 846.7 274.9ZM867.1 232.4" class="d"/>
<path d="M899.5 203L903.7 239.2 870 229.1ZM899.5 203" class="a"/>
<path d="M887.2 0.6L907.5 57.2 854.5 33.4ZM887.2 0.6" class="b"/>
<path d="M891.9 89.3L856.8 38.8 908.1 61.9ZM891.9 89.3" class="c"/>
<path d="M883.9 348.8L846.2 283.2 908.1 300.3ZM883.9 348.8" class="d"/>
<path d="M904.3 245.3L908.8 296.3 847.1 279.3ZM904.3 245.3" class="a"/>
<path d="M851.8 159L848.2 116.6 909.1 132.5ZM851.8 159" class="b"/>
<path d="M891.2 95.6L910.8 128.8 851.9 113.5ZM891.2 95.6" class="c"/>
<path d="M899.7 195.6L853.9 162.4 912.2 135.5ZM899.7 195.6" class="d"/>
<path d="M911.3 64.4L926.4 81.9 896.2 89.8ZM911.3 64.4" class="a"/>
<path d="M914.4 127.1L895.1 94.3 927 85.8ZM914.4 127.1" class="b"/>
<path d="M907.5 237.8L903.5 203.2 926.8 219.3ZM907.5 237.8" class="c"/>
<path d="M928.4 78L917.9 65.9 928.9 70.3ZM928.4 78" class="d"/>
<path d="M915.9 137.3L935.4 168.6 904.1 193.9ZM915.9 137.3" class="a"/>
<path d="M928.5 215.6L904.3 198.9 935.2 173.8ZM928.5 215.6" class="b"/>
<path d="M911.2 303.2L937.6 347.2 887.4 350.8ZM911.2 303.2" class="d"/>
<path d="M940.1 343.6L915.3 302.3 946.7 311.4ZM940.1 343.6" class="a"/>
<path d="M947.5 307.5L914.7 298 960.5 250.6ZM947.5 307.5" class="b"/>
<path d="M912.6 294.4L908.2 244.1 959.4 245.8ZM912.6 294.4" class="c"/>
<path d="M930.2 221.6L957.6 241.8 910.8 240.2ZM930.2 221.6" class="d"/>
<path d="M930 66.4L914.3 60.2 958.3 7.6ZM930 66.4" class="b"/>
<path d="M911.7 57L890.8-1.1 962.6-3.8ZM911.7 57" class="c"/>
<path d="M966.8-0.9L978.6 31.3 936.3 62.6ZM966.8-0.9" class="d"/>
<path d="M978 5L978.6 19.6 971.3-0.2ZM978 5" class="a"/>
<path d="M965.3 247.3L982.2 258.5 953.2 300.4ZM965.3 247.3" class="b"/>
<path d="M939.6 171.4L986.7 181 932.7 215ZM939.6 171.4" class="c"/>
<path d="M963.2 240.9L933.6 219.1 987.6 185.2ZM963.2 240.9" class="d"/>
<path d="M983.3 254.5L966.5 243.3 988.9 192.1ZM983.3 254.5" class="a"/>
<path d="M931.4 85.1L988.2 89.5 918.4 127.9ZM931.4 85.1" class="b"/>
<path d="M932.8 71.6L976.4 84.6 932.1 81.2ZM932.8 71.6" class="c"/>
<path d="M979.8 35.4L992.2 85.1 935.4 68.2ZM979.8 35.4" class="d"/>
<path d="M950.3 313.8L994.9 353.3 943.4 347.3ZM950.3 313.8" class="b"/>
<path d="M938.8 166.6L919 134.7 994.9 146.7ZM938.8 166.6" class="c"/>
<path d="M993.4 91.2L1000.6 143.6 921.1 130.9ZM993.4 91.2" class="d"/>
<path d="M990.6 177.7L945.5 168.5 999.9 149.2ZM990.6 177.7" class="a"/>
<path d="M985.5 260.9L1010.1 279.6 954.8 305.1ZM985.5 260.9" class="b"/>
<path d="M999.6 352.1L952.6 310.5 1011.4 283.4ZM999.6 352.1" class="c"/>
<path d="M993.5 186L1028 240 987.3 255ZM993.5 186" class="d"/>
<path d="M1013.2 276.9L989.1 258.6 1027.3 244.5ZM1013.2 276.9" class="a"/>
<path d="M1004.7 143.4L998 95.3 1028.7 135.9ZM1004.7 143.4" class="b"/>
<path d="M1004.6 147.6L1025.4 141.1 996.7 172ZM1004.6 147.6" class="c"/>
<path d="M1030.6 131.9L999.2 90.3 1035.7 92.8ZM1030.6 131.9" class="d"/>
<path d="M1015.5 283.3L1037.2 296.6 1004.6 346.8ZM1015.5 283.3" class="a"/>
<path d="M1030.1 248L1037.3 292 1016.5 279.2ZM1030.1 248" class="b"/>
<path d="M1036.7 88.9L1000.7 86.4 1054.3 47.8ZM1036.7 88.9" class="c"/>
<path d="M996.2 84.7L983.7 34.4 1053.7 43.3ZM996.2 84.7" class="d"/>
<path d="M980.8 2.1L975.6-1.9 1015.1 7.3ZM980.8 2.1" class="a"/>
<path d="M1057.5 39.8L994.2 31.7 1062.3 19.5ZM1057.5 39.8" class="b"/>
<path d="M982.9 29.6L982.1 6.3 1052.8 17.2ZM982.9 29.6" class="c"/>
<path d="M1031.3 237.7L996.6 183.5 1062.4 204ZM1031.3 237.7" class="d"/>
<path d="M1031.5 140.4L1062 199.7 995.6 179ZM1031.5 140.4" class="a"/>
<path d="M1039.7 300.1L1066.8 358.8 1004.5 354.3ZM1039.7 300.1" class="c"/>
<path d="M1070.4 357.1L1045.9 303.9 1084.3 338.3ZM1070.4 357.1" class="d"/>
<path d="M1085.5 334L1048.7 301.1 1087.8 314.4ZM1085.5 334" class="a"/>
<path d="M1088.1 310.2L1044.5 295.4 1088.9 265.8ZM1088.1 310.2" class="b"/>
<path d="M1041.5 292.6L1033.5 244 1086.6 262.6ZM1041.5 292.6" class="c"/>
<path d="M1066.4 205.5L1090.2 219.5 1037.7 236.7ZM1066.4 205.5" class="d"/>
<path d="M1089.3 259.3L1037.2 241.1 1092.7 222.9ZM1089.3 259.3" class="a"/>
<path d="M1039.8 92.8L1091.2 85 1034.6 132.2ZM1039.8 92.8" class="b"/>
<path d="M1059.7 45.5L1093.8 80.6 1041.3 88.5ZM1059.7 45.5" class="c"/>
<path d="M1066 21.6L1093.1 57.2 1061.3 40.9ZM1066 21.6" class="d"/>
<path d="M1096.5 77.6L1069 49.3 1097.9 64.2ZM1096.5 77.6" class="a"/>
<path d="M1093.6 216.8L1069.3 202.6 1101.9 171.7ZM1093.6 216.8" class="b"/>
<path d="M1066.6 199.7L1036.2 140.8 1101.4 166.7ZM1066.6 199.7" class="c"/>
<path d="M1096.3 86L1102.7 162.9 1035.9 136.4ZM1096.3 86" class="d"/>
<path d="M1064.8 14.9L987.3-3.3 1099.6 0.7ZM1064.8 14.9" class="a"/>
<path d="M1098.7 58L1068.2 17.9 1106.5 2.2ZM1098.7 58" class="b"/>
<path d="M1110.6 2.1L1128.2 11.8 1103.4 53.5ZM1110.6 2.1" class="c"/>
<path d="M1101.8 64.9L1130.6 63.5 1100.4 78.6ZM1101.8 64.9" class="d"/>
<path d="M1130 16.6L1137.6 59.1 1103.6 60.8ZM1130 16.6" class="a"/>
<path d="M1091.8 314.6L1131 304.6 1089.5 333.8ZM1091.8 314.6" class="b"/>
<path d="M1092.9 266L1136.5 299.1 1092.1 310.4ZM1092.9 266" class="c"/>
<path d="M1106.8 163L1100.6 89 1142 146.2ZM1106.8 163" class="d"/>
<path d="M1096.7 223.3L1143.3 251 1093.2 259.6ZM1096.7 223.3" class="a"/>
<path d="M1139.6 296.4L1095.9 263.2 1146.6 254.4ZM1139.6 296.4" class="b"/>
<path d="M1106.3 170.1L1146.8 209.7 1097.5 217.6ZM1106.3 170.1" class="c"/>
<path d="M1147.2 248.6L1100.8 221.1 1148.9 213.4ZM1147.2 248.6" class="d"/>
<path d="M1143.3 150L1148.5 205.8 1108.4 166.6ZM1143.3 150" class="a"/>
<path d="M1139 63.7L1157.1 104.2 1102.8 81.8ZM1139 63.7" class="b"/>
<path d="M1144.5 142.9L1103.7 86.5 1158.4 109.1ZM1144.5 142.9" class="c"/>
<path d="M1087.9 340.2L1152.1 353.1 1074.2 358.7ZM1087.9 340.2" class="d"/>
<path d="M1140.2 303L1163.5 351.3 1092 337ZM1140.2 303" class="a"/>
<path d="M1152.4 204.2L1147.2 149.5 1178 156.4ZM1152.4 204.2" class="b"/>
<path d="M1161 113.2L1177.6 152.2 1147.8 145.6ZM1161 113.2" class="c"/>
<path d="M1150.3 256.1L1177.4 282.3 1143.6 296.7ZM1150.3 256.1" class="d"/>
<path d="M1166.2 347.7L1143.7 301 1178.3 286.3ZM1166.2 347.7" class="a"/>
<path d="M1180.4 296.5L1185.8 349.3 1169.5 351.6ZM1180.4 296.5" class="b"/>
<path d="M1131.2 8.8L1115.7 0.4 1177.7-5.2ZM1131.2 8.8" class="d"/>
<path d="M1162.3 106L1144.9 67.1 1197.9 106ZM1162.3 106" class="a"/>
<path d="M1181.1 150.2L1164 110 1200.8 110ZM1181.1 150.2" class="b"/>
<path d="M1152.8 215.3L1198.8 257.1 1151.1 250.3ZM1152.8 215.3" class="c"/>
<path d="M1181 280.2L1154.8 254.9 1200.6 261.4ZM1181 280.2" class="d"/>
<path d="M1181.2 158.8L1205.7 192.9 1155 207.7ZM1181.2 158.8" class="a"/>
<path d="M1203.3 255.7L1155 211.9 1206.8 196.7ZM1203.3 255.7" class="b"/>
<path d="M1141.6 58.7L1133.7 14.5 1203.5 48.1ZM1141.6 58.7" class="c"/>
<path d="M1195.5-6.5L1207.1 45.4 1136.5 11.4ZM1195.5-6.5" class="d"/>
<path d="M1202.4 104.3L1145 62.2 1207.7 51.4ZM1202.4 104.3" class="a"/>
<path d="M1205 110.4L1231.4 118.7 1186.1 149.2ZM1205 110.4" class="b"/>
<path d="M1209.8 191.7L1187.5 160.6 1233.7 184.5ZM1209.8 191.7" class="c"/>
<path d="M1189.6 346.7L1183.3 285.8 1236.2 301.9ZM1189.6 346.7" class="d"/>
<path d="M1204.9 262.9L1234 297.1 1184.8 282.1ZM1204.9 262.9" class="a"/>
<path d="M1211.8 51.5L1238.6 58.2 1206.7 101ZM1211.8 51.5" class="b"/>
<path d="M1234.3 115.4L1207.3 106.9 1239.3 64ZM1234.3 115.4" class="c"/>
<path d="M1235.5 120.7L1248.6 138.7 1190.7 150.9ZM1235.5 120.7" class="d"/>
<path d="M1237.8 182.1L1186.9 155.8 1249.2 142.6ZM1237.8 182.1" class="a"/>
<path d="M1240.6 54.6L1214.2 48 1253 14.1ZM1240.6 54.6" class="b"/>
<path d="M1211.2 45.3L1199.7-6.2 1252.9 8.9ZM1211.2 45.3" class="c"/>
<path d="M1239.1 304.6L1259 365.3 1192.1 349.9ZM1239.1 304.6" class="b"/>
<path d="M1210.8 198.1L1264.7 244 1207.2 257.4ZM1210.8 198.1" class="c"/>
<path d="M1238 187.4L1262.8 237.1 1213.1 194.9ZM1238 187.4" class="d"/>
<path d="M1239.6 297.4L1208.7 261.2 1265.2 247.9ZM1239.6 297.4" class="a"/>
<path d="M1252.8 137.7L1240.8 121.2 1280.6 131ZM1252.8 137.7" class="b"/>
<path d="M1284.2 234.7L1274.4 239.9 1287.1 218.5ZM1284.2 234.7" class="c"/>
<path d="M1269.2 240.8L1243.3 189.1 1288.1 208.9ZM1269.2 240.8" class="d"/>
<path d="M1252.6 145.1L1286.2 203.7 1241.4 183.9ZM1252.6 145.1" class="a"/>
<path d="M1287.1 133.5L1288.8 200.1 1255.1 141.3ZM1287.1 133.5" class="b"/>
<path d="M1258.4 10.3L1294 16.2 1245.7 51.8ZM1258.4 10.3" class="c"/>
<path d="M1283.6 364.1L1266.7 365.6 1296.8 330.3ZM1283.6 364.1" class="d"/>
<path d="M1262.8 364L1243.1 304 1299.5 321ZM1262.8 364" class="a"/>
<path d="M1268.9 249.6L1299.4 316.8 1242.9 299.8ZM1268.9 249.6" class="b"/>
<path d="M1284.6 239L1297.5 303.1 1271.6 245.9ZM1284.6 239" class="c"/>
<path d="M1243.7 60.1L1303.1 88.8 1238.3 114.9ZM1243.7 60.1" class="d"/>
<path d="M1287.9 128.7L1242.5 117.5 1304.1 92.7ZM1287.9 128.7" class="a"/>
<path d="M1298.8 17.6L1313.2 31.2 1253.4 51.1ZM1298.8 17.6" class="b"/>
<path d="M1306.4 86L1247.3 57.3 1314.5 34.9ZM1306.4 86" class="c"/>
<path d="M1298.8 12.9L1275.3 9 1317.3 6.8ZM1298.8 12.9" class="d"/>
<path d="M1257.2 6L1218.9-4.9 1305.2 3.4ZM1257.2 6" class="a"/>
<path d="M1316.5 28.8L1302.8 15.8 1327.9 7.5ZM1316.5 28.8" class="b"/>
<path d="M1304.6 317.8L1290.4 247.5 1329.7 315.3ZM1304.6 317.8" class="c"/>
<path d="M1309.2 91.3L1329.4 95.2 1294.4 124ZM1309.2 91.3" class="d"/>
<path d="M1317.5 41.5L1331.2 91.4 1310.3 87.4ZM1317.5 41.5" class="a"/>
<path d="M1303.6 323.8L1338.6 364.9 1287.9 364.1ZM1303.6 323.8" class="c"/>
<path d="M1331.4 319.2L1339.5 359.8 1307 321.6ZM1331.4 319.2" class="d"/>
<path d="M1292.5 210.7L1341.1 228.8 1288.4 233.8ZM1292.5 210.7" class="a"/>
<path d="M1332.1 311.4L1289.3 237.7 1347.5 232.2ZM1332.1 311.4" class="b"/>
<path d="M1332.1 8.1L1348.1 36.2 1320 30.6ZM1332.1 8.1" class="c"/>
<path d="M1334.2 87.1L1319.8 34.6 1349.4 40.5ZM1334.2 87.1" class="d"/>
<path d="M1348.3 227.2L1299.1 208.9 1351.7 201.4ZM1348.3 227.2" class="a"/>
<path d="M1352.2 197.2L1298.6 204.9 1355.6 163.3ZM1352.2 197.2" class="b"/>
<path d="M1292.9 204.1L1291.1 134 1353.9 159.5ZM1292.9 204.1" class="c"/>
<path d="M1333.1 97.3L1354.6 155.4 1292.9 130.4ZM1333.1 97.3" class="d"/>
<path d="M1352.7 36.1L1335.9 6.7 1382.9 15.1ZM1352.7 36.1" class="a"/>
<path d="M1355.8 200.9L1383.1 198.5 1352.7 225ZM1355.8 200.9" class="b"/>
<path d="M1359.5 163.9L1385 194.3 1356.2 196.8ZM1359.5 163.9" class="c"/>
<path d="M1351.6 232.5L1386.6 242.1 1336.6 308.8ZM1351.6 232.5" class="d"/>
<path d="M1387.1 200.3L1387.9 238.4 1354.1 229.1ZM1387.1 200.3" class="a"/>
<path d="M1353.2 41.6L1387.7 55.5 1337.7 89.1ZM1353.2 41.6" class="b"/>
<path d="M1386.3 17.6L1389.7 51.9 1356.2 38.5ZM1386.3 17.6" class="c"/>
<path d="M1344.4 364L1335.6 319.9 1395.7 337.5ZM1344.4 364" class="d"/>
<path d="M1389 192.9L1363.1 162 1407.3 170.3ZM1389 192.9" class="a"/>
<path d="M1389.4 245.1L1409.3 297.6 1337.9 313.8ZM1389.4 245.1" class="b"/>
<path d="M1399.6 334.5L1340.9 317.2 1409.1 301.7ZM1399.6 334.5" class="c"/>
<path d="M1358.8 155.4L1336.9 96.2 1412.5 100.7ZM1358.8 155.4" class="d"/>
<path d="M1391.3 57.9L1413.4 96.8 1340 92.4ZM1391.3 57.9" class="a"/>
<path d="M1409.2 166.6L1362.1 157.7 1414.5 104.4ZM1409.2 166.6" class="b"/>
<path d="M1411.4 171.6L1427.3 181.4 1394.8 192ZM1411.4 171.6" class="c"/>
<path d="M1391.9 238.6L1391.1 200.1 1432.2 230.9ZM1391.9 238.6" class="d"/>
<path d="M1430.3 184.7L1434.6 227.7 1393.3 196.7ZM1430.3 184.7" class="a"/>
<path d="M1412 293.3L1392.7 242.5 1433.9 234.6ZM1412 293.3" class="b"/>
<path d="M1393.6 51.2L1390.2 16.1 1434.6 18.7ZM1393.6 51.2" class="c"/>
<path d="M1418.8 101.9L1437.3 110 1413.9 158.4ZM1418.8 101.9" class="d"/>
<path d="M1412.9 303L1436.1 328.7 1403.8 334.5ZM1412.9 303" class="a"/>
<path d="M1417.4 95.6L1396.1 58.1 1441.3 70.1ZM1417.4 95.6" class="b"/>
<path d="M1438.4 20.8L1442.7 66.3 1396.4 54.1ZM1438.4 20.8" class="c"/>
<path d="M1438.3 106.1L1420.4 98.3 1442.3 74.9ZM1438.3 106.1" class="d"/>
<path d="M1431.6 179.4L1415 169.1 1458.3 146.3ZM1431.6 179.4" class="a"/>
<path d="M1440.5 112.7L1462.9 139.4 1415.4 164.4ZM1440.5 112.7" class="b"/>
<path d="M1437 237.8L1465.7 315.7 1414.6 297.8ZM1437 237.8" class="c"/>
<path d="M1440.6 327.6L1418.8 303.5 1463.2 319.1ZM1440.6 327.6" class="d"/>
<path d="M1438.8 229.5L1434.4 186 1482.2 218.2ZM1438.8 229.5" class="a"/>
<path d="M1465.1 144.3L1483.7 214.4 1434.9 181.6ZM1465.1 144.3" class="b"/>
<path d="M1446.5 72.9L1485.7 105.2 1442.3 106.9ZM1446.5 72.9" class="c"/>
<path d="M1465.9 136.8L1444.2 110.8 1486.9 109.2ZM1465.9 136.8" class="d"/>
<path d="M1401.3 339.1L1477 352.4 1353.1 364ZM1401.3 339.1" class="a"/>
<path d="M1439.8 332.1L1476.2 348.2 1412.4 337ZM1439.8 332.1" class="b"/>
<path d="M1468.2 321.4L1486.4 348.4 1445.3 330.1ZM1468.2 321.4" class="c"/>
<path d="M1332 2L1228-8 1459.8-15.7ZM1332 2" class="d"/>
<path d="M1439.5 15L1399.4 12.7 1484.1-12.8ZM1439.5 15" class="a"/>
<path d="M1387.9 11.9L1344.8 4.3 1472.6-13.5ZM1387.9 11.9" class="b"/>
<path d="M1469 313.3L1440.1 234.6 1495.3 244.5ZM1469 313.3" class="c"/>
<path d="M1485.9 221.4L1494.6 240.4 1446.3 231.6ZM1485.9 221.4" class="d"/>
<path d="M1490.9 347.9L1471.9 319.7 1499.2 304.8ZM1490.9 347.9" class="a"/>
<path d="M1496.6 252.2L1499.9 299.9 1472.8 314.6ZM1496.6 252.2" class="b"/>
<path d="M1490.5 104L1450 70.5 1516.1 64.4ZM1490.5 104" class="c"/>
<path d="M1446.8 66.8L1442.4 20.6 1513.4 60.6ZM1446.8 66.8" class="d"/>
<path d="M1496.8-15.9L1516.8 57.9 1443.9 16.9ZM1496.8-15.9" class="a"/>
<path d="M1487.4 212.9L1468.6 142.1 1517 143.9ZM1487.4 212.9" class="b"/>
<path d="M1491.1 110.2L1515.6 139.8 1469.9 138.1ZM1491.1 110.2" class="c"/>
<path d="M1519.8 53.7L1501.1-15.2 1531.7 0.1ZM1519.8 53.7" class="d"/>
<path d="M1533.1 12.1L1537.8 65.2 1522.4 60.6ZM1533.1 12.1" class="a"/>
<path d="M1520.2 65.4L1538.6 87.1 1495.9 103ZM1520.2 65.4" class="b"/>
<path d="M1538.1 69.5L1539.4 81.8 1525.9 65.9ZM1538.1 69.5" class="c"/>
<path d="M1519.4 138.2L1494.3 107.9 1538.4 91.5ZM1519.4 138.2" class="d"/>
<path d="M1541.4 94.7L1552.4 145.5 1522.8 140.4ZM1541.4 94.7" class="a"/>
<path d="M1503.4 304.5L1554.8 341.7 1494.5 350.6ZM1503.4 304.5" class="b"/>
<path d="M1498.9 240.3L1490 220.7 1550.4 214.2ZM1498.9 240.3" class="c"/>
<path d="M1520.3 146.4L1557.7 209.3 1490.2 216.6ZM1520.3 146.4" class="d"/>
<path d="M1553.2 149.7L1558.2 202.3 1523.9 144.7ZM1553.2 149.7" class="a"/>
<path d="M1558.2 339.2L1508.5 303.2 1559.9 304.9ZM1558.2 339.2" class="b"/>
<path d="M1503.9 299.1L1500.3 247.9 1556.8 300.8ZM1503.9 299.1" class="c"/>
<path d="M1559.7 213.9L1566.4 242 1506.1 241.1ZM1559.7 213.9" class="d"/>
<path d="M1560.5 298.8L1503.1 245.1 1566.8 246ZM1560.5 298.8" class="a"/>
<path d="M1563.9 305.2L1583.3 306.7 1562.3 336.3ZM1563.9 305.2" class="b"/>
<path d="M1569.8 253.9L1584.3 302.8 1564.2 301.2ZM1569.8 253.9" class="c"/>
<path d="M1555.8 142.3L1544.4 89.8 1586.4 85.4ZM1555.8 142.3" class="d"/>
<path d="M1543.8 85.8L1542.3 70.8 1579.9 82ZM1543.8 85.8" class="a"/>
<path d="M1570.1 240.1L1563.6 213.4 1593.6 217.4ZM1570.1 240.1" class="c"/>
<path d="M1589.4 80.7L1553 69.8 1600.3 69.1ZM1589.4 80.7" class="d"/>
<path d="M1541.8 66L1536.5 4.1 1600.1 65.1ZM1541.8 66" class="a"/>
<path d="M1591.3-15.4L1602.2 61.6 1537.9 0ZM1591.3-15.4" class="b"/>
<path d="M1587.4 299.4L1572 247.2 1606.3 259.2ZM1587.4 299.4" class="c"/>
<path d="M1596.9 219.8L1606.1 254.9 1572.7 243.2ZM1596.9 219.8" class="d"/>
<path d="M1596.6 213.8L1565.7 209.6 1610.8 171.2ZM1596.6 213.8" class="a"/>
<path d="M1562.6 207L1557.3 150.7 1610.9 165.9ZM1562.6 207" class="b"/>
<path d="M1589.5 88.2L1612 162.1 1557.9 146.8ZM1589.5 88.2" class="c"/>
<path d="M1560.1 345L1565.7 345 1553.3 346ZM1560.1 345" class="d"/>
<path d="M1587 308.4L1611 341 1563.9 341ZM1587 308.4" class="a"/>
<path d="M1609.8 253L1600.5 217.7 1635 212.6ZM1609.8 253" class="b"/>
<path d="M1615.4 170L1635.9 208.4 1600.9 213.6ZM1615.4 170" class="c"/>
<path d="M1630.3 165.2L1635.3 198.8 1618.1 166.6ZM1630.3 165.2" class="d"/>
<path d="M1606.6 63.7L1596.1-10.7 1638.1 44.4ZM1606.6 63.7" class="a"/>
<path d="M1605.2 69.8L1639.2 98.4 1593.5 82.1ZM1605.2 69.8" class="b"/>
<path d="M1630.4 161.2L1618.7 162.6 1642.2 120.2ZM1630.4 161.2" class="c"/>
<path d="M1615.5 159.9L1593.1 86.2 1646.1 105.1ZM1615.5 159.9" class="d"/>
<path d="M1639.4 48.3L1646.3 99.1 1608.4 67.3ZM1639.4 48.3" class="a"/>
<path d="M1638.5 214.6L1647.5 240.8 1613.9 253.9ZM1638.5 214.6" class="b"/>
<path d="M1609.5 261.6L1646.5 303.9 1590.1 303ZM1609.5 261.6" class="c"/>
<path d="M1645.2 337.2L1620.4 340.3 1648.3 311.6ZM1645.2 337.2" class="d"/>
<path d="M1615.2 339.9L1591 307.1 1646.3 307.9ZM1615.2 339.9" class="a"/>
<path d="M1648 244.9L1648.9 300.6 1612.4 258.8ZM1648 244.9" class="b"/>
<path d="M1640.4 40.9L1598.9-13.6 1652.5 7.2ZM1640.4 40.9" class="c"/>
<path d="M1640.4 205.8L1634.4 165.3 1675.7 170.5ZM1640.4 205.8" class="d"/>
<path d="M1649.5 109.6L1676.6 166.6 1634.6 161.3ZM1649.5 109.6" class="a"/>
<path d="M1652.9 301.7L1652.1 247.7 1678.2 279.8ZM1652.9 301.7" class="b"/>
<path d="M1679 252.5L1679 274.4 1655.6 245.7ZM1679 252.5" class="c"/>
<path d="M1655.2 3.9L1613.4-12.2 1676-0.8ZM1655.2 3.9" class="d"/>
<path d="M1656.5 7.7L1679.8 2.4 1646 37.1ZM1656.5 7.7" class="a"/>
<path d="M1679.9 248.6L1655.5 241.5 1691.7 223.4ZM1679.9 248.6" class="b"/>
<path d="M1651.1 239.2L1642 212.5 1689.5 220ZM1651.1 239.2" class="c"/>
<path d="M1679.1 172.7L1693.1 216.5 1643.2 208.6ZM1679.1 172.7" class="d"/>
<path d="M1650.6 101.2L1643.6 49 1695.7 82.6ZM1650.6 101.2" class="a"/>
<path d="M1679.3 163L1651.7 105 1697.2 86.3ZM1679.3 163" class="b"/>
<path d="M1652.7 308.7L1708.6 329.1 1649.3 336.7ZM1652.7 308.7" class="c"/>
<path d="M1680.7 282.9L1711.6 325.9 1654.9 305.3ZM1680.7 282.9" class="d"/>
<path d="M1685.9 1.9L1714.9 34.5 1646.4 42.4ZM1685.9 1.9" class="a"/>
<path d="M1699.1 80L1646.8 46.3 1715.9 38.4ZM1699.1 80" class="b"/>
<path d="M1614.9 345L1704.3 362.4 1521.6 352.6ZM1614.9 345" class="d"/>
<path d="M1646.8 341L1698.3 357.2 1627.7 343.4ZM1646.8 341" class="a"/>
<path d="M1715.8 332.2L1729.4 362.8 1656.3 339.8ZM1715.8 332.2" class="b"/>
<path d="M1718.9 32.9L1692 2.7 1734.5 14.1ZM1718.9 32.9" class="c"/>
<path d="M1700.9 88.1L1737 144 1682.8 165.7ZM1700.9 88.1" class="d"/>
<path d="M1683 277L1683 253.1 1731.5 256.4ZM1683 277" class="a"/>
<path d="M1696.7 222.2L1733.9 252.6 1684.1 249.2ZM1696.7 222.2" class="b"/>
<path d="M1717.2 326.8L1686.6 284.4 1737.6 304.8ZM1717.2 326.8" class="c"/>
<path d="M1738.1 258L1738.9 301 1686.3 279.9ZM1738.1 258" class="d"/>
<path d="M1731.9 358.7L1719.4 330.4 1738.2 310ZM1731.9 358.7" class="a"/>
<path d="M1738.8 139.5L1706.7 89.7 1742.8 113ZM1738.8 139.5" class="b"/>
<path d="M1697.3 216.5L1683.3 172.8 1742.7 201.6ZM1697.3 216.5" class="c"/>
<path d="M1738.4 147.8L1745.5 198.6 1684.9 169.2ZM1738.4 147.8" class="d"/>
<path d="M1738.5 251.2L1700.1 219.8 1745.5 204.9ZM1738.5 251.2" class="a"/>
<path d="M1720.1 38.5L1747.6 47.6 1704.4 77.5ZM1720.1 38.5" class="b"/>
<path d="M1743.4 108.6L1703.6 82.9 1749.5 51.1ZM1743.4 108.6" class="c"/>
<path d="M1737.4 16.8L1748.5 43.7 1722.4 35ZM1737.4 16.8" class="d"/>
<path d="M1752.8 43.7L1741 15.1 1785.7 16.8ZM1752.8 43.7" class="a"/>
<path d="M1746.7 114L1784.2 113.1 1742.7 140.8ZM1746.7 114" class="b"/>
<path d="M1753.4 53.1L1787.5 109.1 1747.2 109.9ZM1753.4 53.1" class="c"/>
<path d="M1749.7 204.1L1794.9 207.6 1742.8 250.2ZM1749.7 204.1" class="d"/>
<path d="M1742.5 308L1798.3 357.5 1735.3 363.8ZM1742.5 308" class="a"/>
<path d="M1798.5 203.9L1754.1 200.5 1808.7 165.5ZM1798.5 203.9" class="b"/>
<path d="M1749.5 198.6L1742.4 147.6 1806.9 161.9ZM1749.5 198.6" class="c"/>
<path d="M1790.1 114L1808.7 158.2 1745 144.1ZM1790.1 114" class="d"/>
<path d="M1742.9 300.1L1742 256.9 1807.3 253.4ZM1742.9 300.1" class="a"/>
<path d="M1799 209.4L1811.3 249.1 1746 252.7ZM1799 209.4" class="b"/>
<path d="M1801.8 355.3L1746.9 306.6 1811.5 312.8ZM1801.8 355.3" class="c"/>
<path d="M1812 254.9L1812 308.8 1746.5 302.5ZM1812 254.9" class="d"/>
<path d="M1790.8 17.7L1814.5 42.2 1757.9 44.7ZM1790.8 17.7" class="a"/>
<path d="M1790.7 106.6L1755.5 48.8 1815.9 46.1ZM1790.7 106.6" class="b"/>
<path d="M1815.5 249L1805.3 216.4 1830 249ZM1815.5 249" class="c"/>
<path d="M1816 304.9L1816 257.1 1833.5 281ZM1816 304.9" class="d"/>
<path d="M1832.1 253L1833.5 274.3 1817.9 253ZM1832.1 253" class="a"/>
<path d="M1815.1 315.1L1836.8 338.5 1805.9 355.1ZM1815.1 315.1" class="b"/>
<path d="M1834.4 286.6L1837.6 333.5 1816.6 310.9ZM1834.4 286.6" class="c"/>
<path d="M1813.3 159L1796.9 119.9 1836.1 159.8ZM1813.3 159" class="d"/>
<path d="M1813.5 163.1L1836.5 163.8 1804 198.8ZM1813.5 163.1" class="a"/>
<path d="M1790.7 13L1757.1 11.7 1822.9 0.3ZM1790.7 13" class="c"/>
<path d="M1738.1 11L1699.8 0.6 1814.7-2.3ZM1738.1 11" class="d"/>
<path d="M1818.4 40.5L1794.5 15.8 1838.1-1.3ZM1818.4 40.5" class="a"/>
<path d="M1841 1.8L1847.6 44.8 1822 42.3ZM1841 1.8" class="b"/>
<path d="M1833.8 247.5L1803.9 207.9 1859.3 206.1ZM1833.8 247.5" class="c"/>
<path d="M1840.5 165.4L1859.8 202.1 1804.7 203.8ZM1840.5 165.4" class="d"/>
<path d="M1819.6 47.8L1860.3 96.6 1794.3 108.4ZM1819.6 47.8" class="a"/>
<path d="M1848.4 48.9L1859.6 89.6 1823.7 46.5ZM1848.4 48.9" class="b"/>
<path d="M1840.2 158.3L1795.1 112.3 1860.9 100.6ZM1840.2 158.3" class="c"/>
<path d="M1837.8 277.7L1836.1 253 1881.4 253ZM1837.8 277.7" class="d"/>
<path d="M1862.9 208L1885.6 249 1837.6 249ZM1862.9 208" class="a"/>
<path d="M1865 93.9L1853.2 51 1886.8 69.5ZM1865 93.9" class="b"/>
<path d="M1840 341.3L1884.4 365.9 1809.6 357.7ZM1840 341.3" class="d"/>
<path d="M1841.8 335.3L1838.2 283.8 1891.5 300.7ZM1841.8 335.3" class="a"/>
<path d="M1887.4 254.2L1893.6 297.1 1841 280.5ZM1887.4 254.2" class="b"/>
<path d="M1892.1 365.7L1843.8 338.8 1893.9 303.9ZM1892.1 365.7" class="c"/>
<path d="M1888.5 65.9L1853.4 46.6 1898.1 6.3ZM1888.5 65.9" class="d"/>
<path d="M1851.4 43L1844.4-2.7 1896.3 2.5ZM1851.4 43" class="a"/>
<path d="M1888.7 246.4L1866.8 206.8 1902.2 213.5ZM1888.7 246.4" class="b"/>
<path d="M1903.2 209.6L1867.6 202.8 1905.7 172.4ZM1903.2 209.6" class="c"/>
<path d="M1863.6 200.9L1844.5 164.3 1902.9 169.5ZM1863.6 200.9" class="d"/>
<path d="M1864.5 102.5L1904.2 165.6 1843.8 160.2ZM1864.5 102.5" class="a"/>
<path d="M1890.3 71.7L1911.2 87.8 1869.3 95ZM1890.3 71.7" class="b"/>
<path d="M1906.6 162L1867.3 99.5 1913.7 91.4ZM1906.6 162" class="c"/>
<path d="M1897.9 302.2L1929.7 304.7 1896.2 361.3ZM1897.9 302.2" class="d"/>
<path d="M1897.8 298.1L1892 257.6 1928.4 300.6ZM1897.8 298.1" class="a"/>
<path d="M1909.7 172L1935.4 192.7 1907.2 208.5ZM1909.7 172" class="b"/>
<path d="M1902.2 6L1936.7 52 1892.5 66.1ZM1902.2 6" class="c"/>
<path d="M1915.5 86.1L1894.2 69.7 1935.2 56.6ZM1915.5 86.1" class="d"/>
<path d="M1917.3 96.4L1938.5 141.4 1910.5 163.5ZM1917.3 96.4" class="a"/>
<path d="M1937.2 188.9L1911.2 168 1938.8 146.3ZM1937.2 188.9" class="b"/>
<path d="M1938.2 47.2L1904.3 2.1 1939.9-8.3ZM1938.2 47.2" class="a"/>
<path d="M1932.6 307.7L1953.2 364.1 1897.6 366.8ZM1932.6 307.7" class="b"/>
<path d="M1939.6 57.3L1962.9 115.2 1918.8 88.4ZM1939.6 57.3" class="c"/>
<path d="M1941.7 138.8L1920.6 94.2 1963.6 120.3ZM1941.7 138.8" class="d"/>
<path d="M1905.9 215.2L1961 257.2 1891.9 249.3ZM1905.9 215.2" class="a"/>
<path d="M1933 299.9L1893.8 253.6 1964.1 261.6ZM1933 299.9" class="b"/>
<path d="M1938 195.8L1963.1 253.8 1908.6 212.3ZM1938 195.8" class="c"/>
<path d="M1956.2 360.7L1935.9 305.2 1980 308.8ZM1956.2 360.7" class="d"/>
<path d="M1967.2 264.1L1980.2 304.8 1937 301.3ZM1967.2 264.1" class="a"/>
<path d="M1942.8 148.4L1982.7 210.4 1941.1 191.7ZM1942.8 148.4" class="b"/>
<path d="M1968 255L1942.9 196.9 1985.4 216ZM1968 255" class="c"/>
<path d="M1967.6 116.1L1943.8 57.1 1994.9 81.7ZM1967.6 116.1" class="d"/>
<path d="M1983.6 310.4L2007.7 334.6 1960.4 361.2ZM1983.6 310.4" class="a"/>
<path d="M1983.5 301.9L1970.6 261.6 2009.3 254.7ZM1983.5 301.9" class="b"/>
<path d="M1988.4 219.1L2009.6 250.6 1971.4 257.4ZM1988.4 219.1" class="c"/>
<path d="M1943.9-7.2L2013.6 41.7 1942.1 50.7ZM1943.9-7.2" class="d"/>
<path d="M2011.2-11.9L2016.6 38.8 1948-9.2ZM2011.2-11.9" class="a"/>
<path d="M1997.2 78.4L1947 54.1 2015.3 45.5ZM1997.2 78.4" class="b"/>
<path d="M1967.3 122.3L2009.3 140.9 1946.4 140.1ZM1967.3 122.3" class="c"/>
<path d="M1987.6 210.8L1944.7 144 2016 145ZM1987.6 210.8" class="d"/>
<path d="M1997.3 85.1L2015.6 139.3 1970.2 119.2ZM1997.3 85.1" class="a"/>
<path d="M2019.7 146.5L2027.4 154.2 1997.9 197.1ZM2019.7 146.5" class="b"/>
<path d="M2013.9 249.7L1996.2 223.6 2026.5 246.2ZM2013.9 249.7" class="c"/>
<path d="M2020.1 34.3L2015.2-12.2 2038-13.8ZM2020.1 34.3" class="a"/>
<path d="M2029.2 158.7L2040.5 199.6 1992.7 211.8ZM2029.2 158.7" class="b"/>
<path d="M2029.8 243.6L1992.6 215.9 2040.2 203.8ZM2029.8 243.6" class="c"/>
<path d="M2020 45.4L2042.1 51.7 2003.4 75.3ZM2020 45.4" class="d"/>
<path d="M2039.8-7L2044.8 48.3 2021.6 41.7ZM2039.8-7" class="a"/>
<path d="M2020 139.7L2001.9 86.3 2046.7 119ZM2020 139.7" class="b"/>
<path d="M2045.2 54.5L2047.8 114.9 2001.6 81.1ZM2045.2 54.5" class="c"/>
<path d="M2029.6 150.7L2022 143.2 2043.3 126.7ZM2029.6 150.7" class="d"/>
<path d="M2010.9 332.1L1986.8 308 2046.1 290.8ZM2010.9 332.1" class="a"/>
<path d="M2013.5 255.2L2048 286.1 1987.1 303.7ZM2013.5 255.2" class="b"/>
<path d="M2030 249.4L2045.1 278.1 2017.1 252.9ZM2030 249.4" class="c"/>
<path d="M2011.4 337.1L2056.5 341.7 1968.7 361.1ZM2011.4 337.1" class="d"/>
<path d="M2051.2 291L2066.2 338.7 2015 333.4ZM2051.2 291" class="a"/>
<path d="M2048.6 46.1L2043.4-11.8 2077.1 12.4ZM2048.6 46.1" class="b"/>
<path d="M2051.7 112.2L2049.1 53.7 2081 63.2ZM2051.7 112.2" class="c"/>
<path d="M2078.4 17L2081.8 59.3 2050.5 50ZM2078.4 17" class="d"/>
<path d="M2069.3 335.3L2055.1 290.2 2084.3 300.2ZM2069.3 335.3" class="a"/>
<path d="M2044.3 204L2096.2 232.1 2033.7 244.4ZM2044.3 204" class="b"/>
<path d="M2085.5 296.4L2055.6 286.1 2098.4 239.8ZM2085.5 296.4" class="c"/>
<path d="M2052.5 283.6L2034 248.4 2096.4 236.2ZM2052.5 283.6" class="d"/>
<path d="M2051 121.3L2104.5 134.9 2034 151ZM2051 121.3" class="a"/>
<path d="M2044.5 198.8L2033 157.4 2108.6 189.1ZM2044.5 198.8" class="b"/>
<path d="M2111.1 137.5L2113.8 186.9 2036.5 154.6ZM2111.1 137.5" class="c"/>
<path d="M2100.8 230.1L2049.2 202.1 2113.1 192.5ZM2100.8 230.1" class="d"/>
<path d="M2087.6 302.6L2113.1 329.8 2072.4 338.3ZM2087.6 302.6" class="a"/>
<path d="M2101.6 243.7L2114 324.9 2089.2 298.4ZM2101.6 243.7" class="b"/>
<path d="M2085.9 61.2L2083 24.4 2111 91.4ZM2085.9 61.2" class="d"/>
<path d="M2084.3 65.5L2114.4 101.8 2054.1 116ZM2084.3 65.5" class="a"/>
<path d="M2111.4 132.5L2058.4 119.1 2115.6 105.6ZM2111.4 132.5" class="b"/></svg>
