<svg xmlns="http://www.w3.org/2000/svg" width="2800" height="350pt" viewBox="0 0 2100 350"><path fill="#1a1a33" d="M0 0h2100v350H0z"/><path d="M-12 323.309V4.87L2.996 161" fill="#389826" fill-opacity=".6"/><path d="M3.738 174.695l3.258 60.239-17.094 89.539" fill="#cb3c33" fill-opacity=".6"/><path d="M8.656 228.613L5.41 168.578l10.547 32.45" fill="#9558b2" fill-opacity=".6"/><path d="M4.371 154.406L-11.039-6.043l29.008 96.086" fill="#cb3c33" fill-opacity=".6"/><path d="M16.012 34.293l1.715 48.023L-9.715-8.586" fill="#4063d8" fill-opacity=".6"/><path d="M7.898 240.871l10.043 64.84-29.222 35.617" fill="#389826" fill-opacity=".6"/><path d="M16.996 204.926l14.024 53.46-21.91-23.663" fill="#4063d8" fill-opacity=".6"/><path d="M19.336 301.645l-9.848-63.563 22.383 24.168" fill="#cb3c33" fill-opacity=".6"/><path d="M19.207 93.86l13.633 41.804-27.266 22.723" fill="#389826" fill-opacity=".6"/><path d="M17.46 199.18L5.767 163.2l30.586 17.991" fill="#4063d8" fill-opacity=".6"/><path d="M33.172 137.992l3.66 41.16L5.73 160.86M18.715 307.922l20.59 49.605-50.54-13.101M33.902 132.48L20.875 92.523l19.977 13.899" fill="#cb3c33" fill-opacity=".6"/><path d="M33.207 264.648l10.531 21.063-22.816 17.55" fill="#389826" fill-opacity=".6"/><path d="M17.121 32.258l-28.183-46.973L48.12-6.258" fill="#cb3c33" fill-opacity=".6"/><path d="M41.523 104.45l-20.82-14.485 37.113-28.059" fill="#389826" fill-opacity=".6"/><path d="M19.93 88.043l-1.867-52.27L58.199 59.11" fill="#cb3c33" fill-opacity=".6"/><path d="M49.352-4.602l9.347 61.688-40.191-23.367M41.273 357.055L20.48 306.957l62.387-1.89" fill="#389826" fill-opacity=".6"/><path d="M45.137 287.156l35.496 15.977-58.57 1.773" fill="#cb3c33" fill-opacity=".6"/><path d="M60.438 60.648l35.445 28.918-52.235 14.922" fill="#9558b2" fill-opacity=".6"/><path d="M84.773 305.883l12.883 27.605-53.37 23.008" fill="#cb3c33" fill-opacity=".6"/><path d="M33.684 260.668L18.48 202.699l79.825 33.262" fill="#389826" fill-opacity=".6"/><path d="M38.031 182.352l57.688 50.363L18.8 200.668" fill="#cb3c33" fill-opacity=".6"/><path d="M84.305 302.59l-37.489-16.871 52.485-46.86" fill="#4063d8" fill-opacity=".6"/><path d="M45.309 284.383l-10.922-21.844 61.89-23.664" fill="#cb3c33" fill-opacity=".6"/><path d="M97.055 195.809l2.77 37.84-58.145-50.762" fill="#389826" fill-opacity=".6"/><path d="M60.586 56.195L51.14-6.137l52.886-6.61M42.578 107.707l63.512 48.781-70.875-21.168" fill="#4063d8" fill-opacity=".6"/><path d="M97.219 91.262l12.312 65.351-65.347-50.195" fill="#cb3c33" fill-opacity=".6"/><path d="M97.363 193.824L41.875 180.88l67.508-20.348" fill="#4063d8" fill-opacity=".6"/><path d="M38.887 179.688l-3.762-42.31 72.395 21.626" fill="#389826" fill-opacity=".6"/><path d="M97.836 88.574l-34.691-28.3 52.949 4.566" fill="#4063d8" fill-opacity=".6"/><path d="M105.418-11.203l11.398 74.098-55.093-4.75M98.844 335.156L127.168 358h-81.32" fill="#389826" fill-opacity=".6"/><path d="M101.813 233.414l-2.75-37.578 38.496-6.414" fill="#cb3c33" fill-opacity=".6"/><path d="M111.406 160.82l26.512 26.512-38.398 6.402" fill="#389826" fill-opacity=".6"/><path d="M99.105 331.863l-12.847-27.531 50.472-35.789" fill="#9558b2" fill-opacity=".6"/><path d="M101.625 237.71l36.672 27.27-51.719 36.672" fill="#cb3c33" fill-opacity=".6"/><path d="M139 190.816v72.196l-36.566-27.192M118.695 61.934l-11.25-73.121 43.121 42.183" fill="#9558b2" fill-opacity=".6"/><path d="M111.73 157.477L99.492 92.52l52.719 43.304" fill="#4063d8" fill-opacity=".6"/><path d="M139.484 186.07l-26.824-26.824 39.774-21.273M151.328 28.945L110.45-11.047l44.434 18.664M129.59 357.383l-29.008-23.39 58.95-48.657" fill="#cb3c33" fill-opacity=".6"/><path d="M140.281 266.48l20.117 15.547-57.605 47.543M118.293 65.258l40.863 19.976-59.023 3.633" fill="#389826" fill-opacity=".6"/><path d="M153.316 134.145l-52.714-43.301 61.187-3.766M151.379 32.996l10.242 51.219-41.902-20.488" fill="#cb3c33" fill-opacity=".6"/><path d="M154.508 137.965l25.863 26.789-38.797 21.242M162.043 284.508l23.61 51.941-53.833 20.778M163.543 83.625L153.367 32.73l36.086 16.657" fill="#389826" fill-opacity=".6"/><path d="M181.613 166.352l7.793 13.859-44.168 6.062" fill="#9558b2" fill-opacity=".6"/><path d="M186.613 333.73l-23.097-50.812 33.257-1.848" fill="#cb3c33" fill-opacity=".6"/><path d="M156.813 8.215l38.285 8.902-41.848 12.469" fill="#389826" fill-opacity=".6"/><path d="M190.324 47.586l-35.5-16.383 42.781-12.742" fill="#cb3c33" fill-opacity=".6"/><path d="M141 263.656v-73.574l66.887 53.508" fill="#389826" fill-opacity=".6"/><path d="M190.29 182.105l17.823 59.106-65.672-52.535" fill="#cb3c33" fill-opacity=".6"/><path d="M197.266 279.04l-32.172 1.788 42.898-33.96" fill="#389826" fill-opacity=".6"/><path d="M161.992 280.73l-19.84-15.332 63.13-18.937" fill="#4063d8" fill-opacity=".6"/><path d="M163.828 87.05l48.438 2.794-56.82 43.781" fill="#389826" fill-opacity=".6"/><path d="M181.68 163.227l-26.184-27.118L212.54 92.16M190.902 50.785l22.266 37.11-48.238-2.786" fill="#cb3c33" fill-opacity=".6"/><path d="M199.566 18.86l28.094 25.374-35.344 3.625" fill="#9558b2" fill-opacity=".6"/><path d="M214.75 86.637l-22.082-36.801 35.883-3.684" fill="#389826" fill-opacity=".6"/><path d="M191.41 179.688l-7.82-13.899 50.375-6.95" fill="#4063d8" fill-opacity=".6"/><path d="M214.922 91.688l23.71 64.492-55.007 7.586M198.75 281.383l39.238 15.883-49.511 37.367" fill="#9558b2" fill-opacity=".6"/><path d="M210.691 245.09l30.575 3.594-41.364 28.777" fill="#cb3c33" fill-opacity=".6"/><path d="M239.113 295.563l-39.027-15.797 42.746-29.735M229.852 43.52l-28.403-25.653 49.477-2.75" fill="#389826" fill-opacity=".6"/><path d="M186.988 338.074l65.13 26.602-117.411-6.422" fill="#cb3c33" fill-opacity=".6"/><path d="M239.41 298.7l17.117 65.62-67.523-27.582M243.285 246.91l-31.144-3.664 46.718-47.633" fill="#4063d8" fill-opacity=".6"/><path d="M210.469 242.094l-18.051-59.86 66.508 10.453" fill="#9558b2" fill-opacity=".6"/><path d="M239.613 158.3l19.43 32.38-64.758-10.176" fill="#cb3c33" fill-opacity=".6"/><path d="M230.21 47.484l36.36 67.13-50.347-26.106" fill="#9558b2" fill-opacity=".6"/><path d="M240.293 154.895l-23.465-63.82 50.68 26.277" fill="#4063d8" fill-opacity=".6"/><path d="M244.895 249.309l34.14 10.148-37.828 35.063" fill="#9558b2" fill-opacity=".6"/><path d="M260.992 195.469l18.52 62.047-34.262-10.188" fill="#cb3c33" fill-opacity=".6"/><path d="M252.715 13.016L207.98 15.5l82.016-23.195" fill="#9558b2" fill-opacity=".6"/><path d="M198.977 15.969l-37.313-8.68L284.883-8.328" fill="#cb3c33" fill-opacity=".6"/><path d="M156.14 5.973l-44.984-18.891 172.742 2.7M261.07 190.176l-19.597-32.668 58.797-22.399" fill="#389826" fill-opacity=".6"/><path d="M269.324 118.258l31.121 14.644-57.668 21.97M269.25 115.363l-36.832-67.996 69.887 35.887" fill="#cb3c33" fill-opacity=".6"/><path d="M302.031 131.438l-31.297-14.727 32.22-31.297M293.164 367.926l-33.367-2.781 44.488-64.875" fill="#389826" fill-opacity=".6"/><path d="M258.414 363.629L241.29 297.98l62.793-.953" fill="#9558b2" fill-opacity=".6"/><path d="M280.824 260.527l23.313 34.5-61.543.934M253.277 15.305l57.57 32.5-78.925-3.715" fill="#cb3c33" fill-opacity=".6"/><path d="M303.41 81.574l-68.855-35.36 79.09 3.724" fill="#9558b2" fill-opacity=".6"/><path d="M297.383-9.512l15.992 56.446-58.328-32.926" fill="#4063d8" fill-opacity=".6"/><path d="M281.363 256.719l-18.894-63.29 52.902 14.169" fill="#389826" fill-opacity=".6"/><path d="M302.453 135.492l13.27 70.13-53.075-14.216" fill="#4063d8" fill-opacity=".6"/><path d="M306.73 297.719l26.832 18.504-37.933 49.039M304.957 85.063l39.05 31.613-39.98 14.875" fill="#cb3c33" fill-opacity=".6"/><path d="M315.258 46.246L299.28-10.148l46.992-5.637" fill="#389826" fill-opacity=".6"/><path d="M346.082 201.14l-26.73 4.454 30.296-39.207" fill="#cb3c33" fill-opacity=".6"/><path d="M317.57 204.629l-13.164-69.57 45.13 28.203" fill="#9558b2" fill-opacity=".6"/><path d="M345.145 118.387l4.64 42.672-44.531-27.829M315.59 50.426l35.683 18.3-45.75 12.81" fill="#389826" fill-opacity=".6"/><path d="M345.297 115.145L306.133 83.44l46.62-13.054" fill="#9558b2" fill-opacity=".6"/><path d="M347.258-13.277l5.62 80.578-36.542-18.739" fill="#cb3c33" fill-opacity=".6"/><path d="M306.191 294.5l-23.418-34.66 70.258-6.559" fill="#4063d8" fill-opacity=".6"/><path d="M317.09 208.629l36.879 42.555-70.926 6.62" fill="#cb3c33" fill-opacity=".6"/><path d="M346.191 203.148l8.18 45.446-35.445-40.903" fill="#389826" fill-opacity=".6"/><path d="M334.465 314.418l-26.844-18.516 46.285-40.726" fill="#9558b2" fill-opacity=".6"/><path d="M335.203 317.375l18.988 13.563-56.062 34.359" fill="#4063d8" fill-opacity=".6"/><path d="M355 258.254v70.805l-18.82-13.446" fill="#cb3c33" fill-opacity=".6"/><path d="M351.746 165.52l26.305 32.652-29.934 2.723" fill="#389826" fill-opacity=".6"/><path d="M356.414 248.66l-8.238-45.762 30.207-2.746" fill="#cb3c33" fill-opacity=".6"/><path d="M356.207 332.047l39.242 6.242-94.539 27.649" fill="#9558b2" fill-opacity=".6"/><path d="M354.867 67.063l-5.699-81.72 52.258 45.61" fill="#389826" fill-opacity=".6"/><path d="M394.156-4.184l7.207 32.43-49.543-43.238" fill="#4063d8" fill-opacity=".6"/><path d="M379.91 197.293l-27.043-33.57 54.086-8.395" fill="#9558b2" fill-opacity=".6"/><path d="M351.883 161.852l-4.672-42.98 58.863 34.57" fill="#cb3c33" fill-opacity=".6"/><path d="M379.965 201.5l27.289 64.93-49.871-15.059" fill="#389826" fill-opacity=".6"/><path d="M399.285 336.875l-40.601-6.46 52.597-35.067" fill="#cb3c33" fill-opacity=".6"/><path d="M357 329.133v-75.184l54.242 39.02" fill="#4063d8" fill-opacity=".6"/><path d="M408.113 268.777l3.52 22.008-50.18-36.094" fill="#9558b2" fill-opacity=".6"/><path d="M354.797 70.3l56.328 17.84-63.84 27.223" fill="#389826" fill-opacity=".6"/><path d="M408.125 152.324l-59.91-35.183 64.664-27.575" fill="#9558b2" fill-opacity=".6"/><path d="M402.328 32.79L412.7 86.54 356.117 68.62" fill="#cb3c33" fill-opacity=".6"/><path d="M408.621 156.434l19.727 73.277-46.973-31" fill="#4063d8" fill-opacity=".6"/><path d="M409.145 265.766l-26.946-64.118 46.461 30.665" fill="#cb3c33" fill-opacity=".6"/><path d="M414.383 84.71l-9.98-51.73 26.316 15.43" fill="#4063d8" fill-opacity=".6"/><path d="M431.21 46.379l-26.733-15.672 35.027-46.086" fill="#cb3c33" fill-opacity=".6"/><path d="M403.508 28.68l-7.332-32.992 42.156-12.833M413.422 295.148l27.742 35.137-39.766 6.473" fill="#389826" fill-opacity=".6"/><path d="M413.848 291.957l-3.551-22.191 40.832 20.418" fill="#4063d8" fill-opacity=".6"/><path d="M429.86 234.227l23.16 54.664-42.618-21.309" fill="#389826" fill-opacity=".6"/><path d="M442.594 328.871l-27.606-34.965 38.649-1.84" fill="#9558b2" fill-opacity=".6"/><path d="M414.89 89.473l41.333 17.847-46.028 44.149" fill="#389826" fill-opacity=".6"/><path d="M431.992 50.457l24.067 54.613-40.73-17.586" fill="#cb3c33" fill-opacity=".6"/><path d="M430.402 229.648l-19.867-73.8 52.98 25.547" fill="#389826" fill-opacity=".6"/><path d="M457.383 108.977l8.406 41.085-54.16 2.801" fill="#cb3c33" fill-opacity=".6"/><path d="M464.102 179.457l-51.145-24.66 52.969-2.738" fill="#9558b2" fill-opacity=".6"/><path d="M467.332 147.633l-8.039-39.293 22.328 5.36" fill="#389826" fill-opacity=".6"/><path d="M455.656 292.297l46.371 16.695-57.504 20.406M455.504 289.621l-23.637-55.773 73.738 30.25" fill="#cb3c33" fill-opacity=".6"/><path d="M504.09 307.61l-46.578-16.766 49.375-25.153" fill="#4063d8" fill-opacity=".6"/><path d="M465.254 182.395l43.332 30.144-76.3 17.899" fill="#9558b2" fill-opacity=".6"/><path d="M507.082 262.543l-73.812-30.281 76.652-17.98" fill="#389826" fill-opacity=".6"/><path d="M504.258 310.324l7.441 35.352-65.12-14.883" fill="#9558b2" fill-opacity=".6"/><path d="M482.54 111.86l-22.27-5.344 49.878-38.297" fill="#cb3c33" fill-opacity=".6"/><path d="M458.402 105.43l-24.714-56.082 77.945 15.21" fill="#389826" fill-opacity=".6"/><path d="M441.84-17.746l72.492 19.078-81.078 44.832" fill="#4063d8" fill-opacity=".6"/><path d="M513.055 62.797l-78.164-15.25 81.023-44.805" fill="#cb3c33" fill-opacity=".6"/><path d="M467.938 151.98l46.242-.906-48.055 28.11" fill="#389826" fill-opacity=".6"/><path d="M510.191 211.219l-43.336-30.145 49.93-29.207" fill="#cb3c33" fill-opacity=".6"/><path d="M483.328 114.8l32.39 34.243-47.198.926" fill="#4063d8" fill-opacity=".6"/><path d="M400.063 339.023l123.019 20.348-221.066 8.328" fill="#389826" fill-opacity=".6"/><path d="M442.922 332.027l76.914 24.782-113.66-18.801" fill="#cb3c33" fill-opacity=".6"/><path d="M512.605 347.934l13.551 8.808-60.984-19.648M513.844 66.113l18.668 42-47.598 3.735" fill="#389826" fill-opacity=".6"/><path d="M517.64 148.168l-32.476-34.336 47.324-3.71" fill="#cb3c33" fill-opacity=".6"/><path d="M517.875 3.645l29.66 36.148-32.441 22.242" fill="#389826" fill-opacity=".6"/><path d="M548 15.652v21.551L520.414 3.586M533.672 105.8L515.25 64.356l32.238-22.105" fill="#cb3c33" fill-opacity=".6"/><path d="M518.863 151.29l35.36 10.237-41.875 48.387" fill="#389826" fill-opacity=".6"/><path d="M534.04 111.656l20.222 47.801-34.934-10.113" fill="#9558b2" fill-opacity=".6"/><path d="M511.906 214.598l50.703 26.289-53.52 21.593M555.582 163.008l10.16 32.328-51.722 15.703" fill="#cb3c33" fill-opacity=".6"/><path d="M564.07 239.39l-50.43-26.148 52.298-15.875" fill="#389826" fill-opacity=".6"/><path d="M532.707 358.617l-17.937-11.66 48.437-34.984" fill="#cb3c33" fill-opacity=".6"/><path d="M513.66 345.29l-7.433-35.31 57.609-.93" fill="#4063d8" fill-opacity=".6"/><path d="M508.875 265.902l55.176 41.145-57.98.937" fill="#cb3c33" fill-opacity=".6"/><path d="M564.043 242.465l1.894 63.496-55.914-41.7" fill="#389826" fill-opacity=".6"/><path d="M549.328 43.2l30.086 67.698-44.191-2.824" fill="#4063d8" fill-opacity=".6"/><path d="M556.086 158.633l-20.535-48.531 43.867 2.8" fill="#389826" fill-opacity=".6"/><path d="M567.938 305.93l-1.75-58.653 16.632 46.399" fill="#9558b2" fill-opacity=".6"/><path d="M567.898 198.313l15.786 15.785-17.54 23.675" fill="#cb3c33" fill-opacity=".6"/><path d="M566.848 310.059l16.738 36.265-48.352 12.086" fill="#389826" fill-opacity=".6"/><path d="M583.04 296.086l.87 46.168-15.68-33.973" fill="#cb3c33" fill-opacity=".6"/><path d="M548.926 13.875L520.523 1.449l66.57-10.652M567.184 193.246l-10-31.816 35.449-22.727" fill="#389826" fill-opacity=".6"/><path d="M581.059 114.086l12.593 21.59-35.082 22.488M584.266 211.852l-16.063-16.063 24.988-53.55" fill="#4063d8" fill-opacity=".6"/><path d="M584.168 291.5l-17.16-47.855 30.703 21.671" fill="#cb3c33" fill-opacity=".6"/><path d="M584.578 216.246l12.719 46.328-30.883-21.8" fill="#9558b2" fill-opacity=".6"/><path d="M580.96 109.45L550.97 41.964l48.738 21.558" fill="#389826" fill-opacity=".6"/><path d="M550 39.348V17.285l45.895 42.363" fill="#9558b2" fill-opacity=".6"/><path d="M591.195-9.344l8.485 69.762-49.024-45.25" fill="#cb3c33" fill-opacity=".6"/><path d="M585.977 345.652l-.942-49.707 49.711 34.703" fill="#389826" fill-opacity=".6"/><path d="M601.715 60.598L593.25-8.988l43.258 28.21" fill="#9558b2" fill-opacity=".6"/><path d="M637 21.742v20.66l-31.852 17.22M595.84 137.3l43.387 13.208-52.817 60.363M599.363 266.469l45.032 31.246-58.813-4.594" fill="#389826" fill-opacity=".6"/><path d="M636.484 329.422l-48.898-34.14 59.047 4.613" fill="#cb3c33" fill-opacity=".6"/><path d="M599.691 263.742l-13.113-47.773 61.824 32.785" fill="#389826" fill-opacity=".6"/><path d="M647.11 297.164l-45.848-31.812 48.652-14.973M640.54 152.047l12.222 43.242-64.867 16.922" fill="#cb3c33" fill-opacity=".6"/><path d="M650.09 247.387l-62.352-33.067 65.188-17.007" fill="#4063d8" fill-opacity=".6"/><path d="M595.285 134.504l-12.82-21.977 76.926-28.39" fill="#389826" fill-opacity=".6"/><path d="M601.59 64.203l60.172 16.926-78.977 29.148" fill="#cb3c33" fill-opacity=".6"/><path d="M640.371 148.762l-43.246-13.16 65.809-51.707M637.695 44.3l24.848 34.97-58.895-16.563" fill="#4063d8" fill-opacity=".6"/><path d="M654.684 194.742l-11.797-41.75 38.117 33.582" fill="#389826" fill-opacity=".6"/><path d="M665.234 83.371l18.465 31.387-40.62 32.312" fill="#9558b2" fill-opacity=".6"/><path d="M637.113 332.012l42.297 3.191-83.797 9.578" fill="#cb3c33" fill-opacity=".6"/><path d="M648.469 300.719l38.562 33.054-48.664-3.671" fill="#389826" fill-opacity=".6"/><path d="M654.824 199.105l36.098 55.536-38.871-6.48" fill="#cb3c33" fill-opacity=".6"/><path d="M682.18 188.3l9.175 63.337-35.796-55.075M651.887 250.934l39.105 29.793-41.898 16.757" fill="#9558b2" fill-opacity=".6"/><path d="M692 256.848v22.132l-37.184-28.332" fill="#389826" fill-opacity=".6"/><path d="M689.113 332.922l-39.207-33.606 42.008-16.804" fill="#4063d8" fill-opacity=".6"/><path d="M682.652 185.36l-38.894-34.266 53.71 1.855" fill="#cb3c33" fill-opacity=".6"/><path d="M684.55 116.637l12.981 34.312-53.785-1.855M665.172 79.516L639.937 44h65.422" fill="#389826" fill-opacity=".6"/><path d="M639 42V20.398L702 42M684.727 112.566L666.28 81.203l39.66-35.05" fill="#cb3c33" fill-opacity=".6"/><path d="M707.188 41.664l-65.915-22.598L713.777-2.59" fill="#9558b2" fill-opacity=".6"/><path d="M638.156 17.91l-42.468-27.7L709.25-3.323" fill="#389826" fill-opacity=".6"/><path d="M693.633 253.395l-9.457-65.262 52.015 5.676" fill="#cb3c33" fill-opacity=".6"/><path d="M699.293 153.762l36.098 37.949-50.907-5.555" fill="#389826" fill-opacity=".6"/><path d="M699.734 151.113l-12.484-32.988 48.148 39.23" fill="#9558b2" fill-opacity=".6"/><path d="M737.07 190.574l-35.258-37.066 36.165 6.328M715.5-.559l24.625 52.903-31.012-10.035" fill="#cb3c33" fill-opacity=".6"/><path d="M732.215-14.273l7.972 62.007L716.27-3.645" fill="#389826" fill-opacity=".6"/><path d="M585.098 348.008l135.234 6.637-178.375 4.148" fill="#4063d8" fill-opacity=".6"/><path d="M689.887 336.02l51.152 17.636-143.75-7.054" fill="#389826" fill-opacity=".6"/><path d="M694 279.719v-22.54l54.094 9.016" fill="#cb3c33" fill-opacity=".6"/><path d="M737.48 195.445l14.247 69.328-56.98-9.496M693.926 282.383l56.57 19.8-59.398 31.114" fill="#389826" fill-opacity=".6"/><path d="M747.125 353.64l-54.61-18.831 59.317-31.067" fill="#4063d8" fill-opacity=".6"/><path d="M752 267.281v33.309l-55.516-19.43" fill="#9558b2" fill-opacity=".6"/><path d="M708.477 44.79l43.71 39.91-65.562 28.503" fill="#389826" fill-opacity=".6"/><path d="M741.238 54.805l10.293 26.586-39.453-36.02M738.348 157.18l-51.442-41.918 65.73-28.578" fill="#4063d8" fill-opacity=".6"/><path d="M753.848 303.664l24.613 14.586-29.172 33.73" fill="#cb3c33" fill-opacity=".6"/><path d="M739.953 160.57l55.309 26.735-56.23 4.605" fill="#389826" fill-opacity=".6"/><path d="M753.457 263.258l-14.25-69.352 57.953-4.75" fill="#cb3c33" fill-opacity=".6"/><path d="M779.55 316.57l-24.773-14.68 48.633-37.624" fill="#389826" fill-opacity=".6"/><path d="M754 299.96v-33.05l48.66-4.59" fill="#cb3c33" fill-opacity=".6"/><path d="M798.297 191.16l6.613 68.938-50.055 4.722" fill="#389826" fill-opacity=".6"/><path d="M780.012 319.516L810.77 354h-60.582M754.418 83.313l-11.094-28.657 66.563-19.414" fill="#9558b2" fill-opacity=".6"/><path d="M742.844 52.71l-8.586-66.78 77.277 46.746M754.71 86.52l62.099 33.437-76.426 37.258" fill="#cb3c33" fill-opacity=".6"/><path d="M813.117 35.086l4.781 83.184-62.148-33.465" fill="#389826" fill-opacity=".6"/><path d="M813.36 31.441L739.956-12.96l78.84 22.656" fill="#4063d8" fill-opacity=".6"/><path d="M798.492 186.645l-56.562-27.34 76.36-18.852" fill="#cb3c33" fill-opacity=".6"/><path d="M818.082 121.563l.875 16.664-71.05 17.543" fill="#389826" fill-opacity=".6"/><path d="M819.441 110.273L815.06 34h15.78" fill="#cb3c33" fill-opacity=".6"/><path d="M820.316 11.863L830.383 32H815.28" fill="#9558b2" fill-opacity=".6"/><path d="M806.227 262.914l30.062 38.52-54.492 15.03" fill="#cb3c33" fill-opacity=".6"/><path d="M812.742 353.207l-30.926-34.672 54.352-14.992" fill="#389826" fill-opacity=".6"/><path d="M837 306.465v51.363l-22.527-3.605M806.633 257.133l-6.54-68.211 38.31-2.8" fill="#cb3c33" fill-opacity=".6"/><path d="M820.008 141.523l18.512 42.582-37.954 2.778" fill="#4063d8" fill-opacity=".6"/><path d="M820.14 8L764.228-8.066 836.852 8" fill="#9558b2" fill-opacity=".6"/><path d="M832.066 30.898L821.617 10h22.64" fill="#4063d8" fill-opacity=".6"/><path d="M840 182.496l-18.328-42.164 33.91 6.418" fill="#389826" fill-opacity=".6"/><path d="M820.957 138.164l-.852-16.195 32.391 22.16M837.676 299.957l-30.004-38.441 49.695-15.942" fill="#9558b2" fill-opacity=".6"/><path d="M839.848 187.79l17.894 55.565-49.914 16.008" fill="#4063d8" fill-opacity=".6"/><path d="M832.488 36.504l36 79.582-48.316 2.844" fill="#389826" fill-opacity=".6"/><path d="M856.578 144.5l-34.598-23.672 46.434-2.734" fill="#cb3c33" fill-opacity=".6"/><path d="M870.145 119.121l8.453 13.524-19.442 10.988" fill="#4063d8" fill-opacity=".6"/><path d="M857.23 147.973l44.883 59.847-60.777-23.379" fill="#cb3c33" fill-opacity=".6"/><path d="M879.426 134.473l22.765 70.117-43.707-58.281" fill="#389826" fill-opacity=".6"/><path d="M859.523 242.367l-17.93-55.683 61.348 23.593M839 356.805v-53.848l65.184-2.832" fill="#9558b2" fill-opacity=".6"/><path d="M859.363 245.938l45.516 52.152-65.43 2.848M846.324 10.43l57.535 39.273-70.32-17.355" fill="#389826" fill-opacity=".6"/><path d="M870.125 114.848l-36.363-80.383 73.683 18.183" fill="#4063d8" fill-opacity=".6"/><path d="M845.95 7.965L743.19-14.77l160.957 3.637" fill="#389826" fill-opacity=".6"/><path d="M908.027 50.125L848.238 9.316l60.739-19.93" fill="#4063d8" fill-opacity=".6"/><path d="M904.156 211.867l4.7 54.488-47.915-22.546" fill="#389826" fill-opacity=".6"/><path d="M906.227 296.594l-43.336-49.66 46.047 21.671" fill="#cb3c33" fill-opacity=".6"/><path d="M880.14 131.336l-8.699-13.914 36.532-17.399" fill="#389826" fill-opacity=".6"/><path d="M908.215 55.254l2.742 41.137-38.394 18.28" fill="#9558b2" fill-opacity=".6"/><path d="M906.535 300.73l12.172 35.582-76.781 20.598" fill="#4063d8" fill-opacity=".6"/><path d="M910.734 270.8l20.239 29.04-22.88-1.758" fill="#389826" fill-opacity=".6"/><path d="M920.027 333.984l-11.59-33.87 23.176 1.78" fill="#cb3c33" fill-opacity=".6"/><path d="M905.379 207.934l-23.692-72.973 58.758 29.379" fill="#9558b2" fill-opacity=".6"/><path d="M911.719 98.82l28.222 63.035-58.328-29.167M910.703 264.504l-4.625-53.637 35.14-4.625" fill="#cb3c33" fill-opacity=".6"/><path d="M941.066 166.754l.91 37.371-34.632 4.559M910.98-10.695L948.297-.43l-38.25 49.442" fill="#389826" fill-opacity=".6"/><path d="M912.848 94.695l-2.77-41.558 38.79 4.617" fill="#4063d8" fill-opacity=".6"/><path d="M949.05 1.863l.93 54.008-39.109-4.656" fill="#cb3c33" fill-opacity=".6"/><path d="M941.66 160.793L914.06 99.145l36.8 18.402" fill="#4063d8" fill-opacity=".6"/><path d="M950.04 59.418l.933 55.95-37.301-18.65M919.965 338.047l27.351 9.402-97.441 9.399" fill="#cb3c33" fill-opacity=".6"/><path d="M933.05 303.797l17.2 42.543-28.965-9.957" fill="#9558b2" fill-opacity=".6"/><path d="M932.984 299.23l-21.328-30.601 50.078-12.055" fill="#cb3c33" fill-opacity=".6"/><path d="M942.902 207.344l19.72 46.96-50.712 12.208" fill="#9558b2" fill-opacity=".6"/><path d="M951.918 52.234l-.906-52.539 27.176-9.965" fill="#4063d8" fill-opacity=".6"/><path d="M964.344 253.242l-18.762-44.676 33.953 29.485" fill="#389826" fill-opacity=".6"/><path d="M952.98 115.875l-.918-55.2 31.278 51.52" fill="#9558b2" fill-opacity=".6"/><path d="M952.66 346.965l-17.32-42.844 51.957 41.02" fill="#389826" fill-opacity=".6"/><path d="M952.742 118.316l42.817 14.895-52.125 28.851" fill="#cb3c33" fill-opacity=".6"/><path d="M984.5 114.066l11.07 17.032-39.164-13.625" fill="#389826" fill-opacity=".6"/><path d="M979.816-8.984l21.758 76.629-49.191-11.352" fill="#cb3c33" fill-opacity=".6"/><path d="M984.824 110.785l-31.738-52.277 48.543 11.203" fill="#389826" fill-opacity=".6"/><path d="M997.234 129.984l-11.109-17.09 15.379-37.597M980.719 236.43l-35.48-30.813 57.886-10.27" fill="#cb3c33" fill-opacity=".6"/><path d="M943.973 203.813l-.934-38.211 58.711 27.96" fill="#4063d8" fill-opacity=".6"/><path d="M997.176 134.598l6.625 57.722-59.617-28.386" fill="#9558b2" fill-opacity=".6"/><path d="M964.18 256.52l43.379 39.605-72.61 3.773" fill="#389826" fill-opacity=".6"/><path d="M989.578 344.39l-53.875-42.53 72.777-3.778" fill="#cb3c33" fill-opacity=".6"/><path d="M980.719 239.695l26.05 53.004-41.324-37.73" fill="#9558b2" fill-opacity=".6"/><path d="M1005.754 191.79l-6.524-56.825 38.196 24.222" fill="#4063d8" fill-opacity=".6"/><path d="M1003.602 67.46L981.789-9.366l65.445 50.273M1038.582 160.863l10.047 29.227-41.098 2.738" fill="#9558b2" fill-opacity=".6"/><path d="M1005.188 195.742l49.109 56.668-71.774-15.113" fill="#4063d8" fill-opacity=".6"/><path d="M1049.113 192.063l6.54 58.855-48.583-56.055M1010.309 295.363l-27.504-55.96 72.082 15.175" fill="#cb3c33" fill-opacity=".6"/><path d="M1010.363 298.754l45.258 44.316-64.113 1.887" fill="#4063d8" fill-opacity=".6"/><path d="M1003.91 70.215l53.871 11.34-58.597 49.148" fill="#389826" fill-opacity=".6"/><path d="M1038.387 157.426l-38.696-24.54 58.516-49.077" fill="#cb3c33" fill-opacity=".6"/><path d="M1048.387 42.543l10.215 37.14-52.926-11.14" fill="#4063d8" fill-opacity=".6"/><path d="M1048.664 39.48l-63.23-48.57 75.144 25.66M1056.402 255.902l8.364 37.164-52.032 2.786" fill="#389826" fill-opacity=".6"/><path d="M1057.316 341.934l-44.992-44.059 52.492-2.809" fill="#cb3c33" fill-opacity=".6"/><path d="M1060.375 78.586l-10.031-36.469 31.91 2.738" fill="#9558b2" fill-opacity=".6"/><path d="M1062.172 17.836l19.617 24.973-31.21-2.676" fill="#cb3c33" fill-opacity=".6"/><path d="M1066.492 291.633l-8.054-35.797 25.058 12.531" fill="#9558b2" fill-opacity=".6"/><path d="M952.031 349l108.657 3.8-195.278 4.56" fill="#389826" fill-opacity=".6"/><path d="M989.992 347l41.832 2.79-56.969-1.993" fill="#4063d8" fill-opacity=".6"/><path d="M1057.895 345.004l25.601 6.226-72.652-4.843" fill="#cb3c33" fill-opacity=".6"/><path d="M1066.746 295.676l34.34 22.273-41.766 24.133" fill="#9558b2" fill-opacity=".6"/><path d="M1094.25 351.79l-33.59-8.173 40.856-23.605M1084.695 270.11l16.36 45.437-33.625-21.809" fill="#389826" fill-opacity=".6"/><path d="M1084.05 45.758l25.942 35.203-48.176-.926" fill="#4063d8" fill-opacity=".6"/><path d="M1084.453 266.61l-25.8-12.9 50.679-53.444" fill="#cb3c33" fill-opacity=".6"/><path d="M1057.758 251.75l-6.63-59.656 58.708 4.734" fill="#389826" fill-opacity=".6"/><path d="M1061.86 14.895l-76.712-26.196 128.168-7.48" fill="#cb3c33" fill-opacity=".6"/><path d="M1083.824 42.156l-20.363-25.918 50.91-33.324M1060.54 82.848l55.507 50.722-75.606 23.926" fill="#389826" fill-opacity=".6"/><path d="M1111.105 82.984l5.594 48.473-54.066-49.406M1111.098 194.926l-58.586-4.727 64.258-53.863" fill="#cb3c33" fill-opacity=".6"/><path d="M1050.473 189.3l-10.196-29.655 73.211-23.168" fill="#4063d8" fill-opacity=".6"/><path d="M1118.766 131.918l-5.192-45.004 18.172 32.887M1103.508 316.46l-16.672-46.312 47.238 25.934" fill="#9558b2" fill-opacity=".6"/><path d="M1112.48 197.566l28.899 20.512-54.07 46.61" fill="#4063d8" fill-opacity=".6"/><path d="M1118.844 135.68l25.691 15.601-31.2 41.293" fill="#9558b2" fill-opacity=".6"/><path d="M1142.082 216.121l-28.664-20.34 31.437-41.61M1132.633 121.71l11.254 26.837-24.239-14.715" fill="#389826" fill-opacity=".6"/><path d="M1103.605 319.844l40.512 34.988-47.879-2.762" fill="#9558b2" fill-opacity=".6"/><path d="M1135.29 297.676l10.214 55.71-40.856-35.284" fill="#cb3c33" fill-opacity=".6"/><path d="M1117.281-18.363l32.95 31.07-64.02 29.188" fill="#9558b2" fill-opacity=".6"/><path d="M1135.477 294.574l-48-26.355 66.824-22.59" fill="#389826" fill-opacity=".6"/><path d="M1142.68 219.598l11.914 23.824-65.059 21.988M1112.137 80.5l-26.332-35.738 75.234-10.344" fill="#9558b2" fill-opacity=".6"/><path d="M1151.602 14.281l10.761 17.934-71.742 9.863" fill="#4063d8" fill-opacity=".6"/><path d="M1132.8 117.574l-19.55-35.379 48.414-45.62M1156.535 242.836l-11.223-22.45 31.946 17.27" fill="#cb3c33" fill-opacity=".6"/><path d="M1147.617 353.824l-10.308-56.23 44.984 17.804" fill="#389826" fill-opacity=".6"/><path d="M1156.012 246.754l26.21 66.469-44.933-17.79" fill="#cb3c33" fill-opacity=".6"/><path d="M1179.063 239.266l3.62 69.672-25.335-64.243" fill="#4063d8" fill-opacity=".6"/><path d="M1146.918 152.855l43.348 30.157-46.176 32.98" fill="#9558b2" fill-opacity=".6"/><path d="M1179.305 236.488l-34.418-18.605 45.582-32.563" fill="#389826" fill-opacity=".6"/><path d="M1146.426 149.426l-12.031-28.688 68.484-13.883" fill="#4063d8" fill-opacity=".6"/><path d="M1164.23 35.336l41.188 68.965-70.883 14.367" fill="#389826" fill-opacity=".6"/><path d="M1206.328 101.93l-40.371-67.606 46.945 7.512" fill="#cb3c33" fill-opacity=".6"/><path d="M1184.148 316.332l28.563 20.27-62.656 17.507" fill="#4063d8" fill-opacity=".6"/><path d="M1191.75 181.61l-42.797-29.774 66.055-3.723" fill="#cb3c33" fill-opacity=".6"/><path d="M1206.383 106.719l9.367 39.351-66.52 3.746" fill="#9558b2" fill-opacity=".6"/><path d="M1213.172 39.855l-45.547-7.289 50.102-20.949" fill="#389826" fill-opacity=".6"/><path d="M1164.414 31.742l-10.695-17.816 59.699-2.676" fill="#cb3c33" fill-opacity=".6"/><path d="M1214.527 335.438l-28.402-20.157 42.148-15.578" fill="#9558b2" fill-opacity=".6"/><path d="M1184.93 313.59l-3.774-72.64 47.168 56.6M1214.809 42.797l21.824 15.46-28.188 42.74" fill="#389826" fill-opacity=".6"/><path d="M1219.41 13.75l16.422 41.488-20.746-14.695M1229.422 295.742l-46.426-55.707 53.852 17.64" fill="#cb3c33" fill-opacity=".6"/><path d="M1218.547 9.02l-59.59 2.668 83.602-28.461" fill="#389826" fill-opacity=".6"/><path d="M1152.246 11.86l-32.707-30.84 120.555.933M1192.688 184.543l54.824 31.191-66.168 20.793" fill="#cb3c33" fill-opacity=".6"/><path d="M1237.332 255.727l-54.059-17.707 65.243-20.504" fill="#9558b2" fill-opacity=".6"/><path d="M1230.176 300.332l19.16 33.758-32.848 1.824M1217.523 144.875l-9.28-38.973 46.394-3.71" fill="#389826" fill-opacity=".6"/><path d="M1237.824 60.082l17.692 40.035-46.551 3.723" fill="#cb3c33" fill-opacity=".6"/><path d="M1217.41 148.16l37.383 10.942-60.176 21.882" fill="#389826" fill-opacity=".6"/><path d="M1249.215 214.402l-54.84-31.203 62.402-22.691M1256.047 103.621l.93 54.04-38.2-11.18" fill="#9558b2" fill-opacity=".6"/><path d="M1258.977 157.71l-.895-51.98 21.508 46.606" fill="#4063d8" fill-opacity=".6"/><path d="M1238.383 56.25l-17.863-45.129 60.171 4.703" fill="#9558b2" fill-opacity=".6"/><path d="M1246.055-17.59l34.136 31.367-59.046-4.613M1257.531 99.727L1240.43 61.02l40.504 29.703" fill="#4063d8" fill-opacity=".6"/><path d="M1280.137 148.742l-21.782-47.191 23.598-9.078M1282.078 17.266l.895 26-41.243 12.554" fill="#389826" fill-opacity=".6"/><path d="M1282.043 89.059l-41.84-30.684 42.77-13.016" fill="#9558b2" fill-opacity=".6"/><path d="M1250.742 217.02l32.586.906-43.445 36.203" fill="#389826" fill-opacity=".6"/><path d="M1258.531 162.402l25.856 53.551-33.242-.922" fill="#cb3c33" fill-opacity=".6"/><path d="M1280.098 154.27l4.492 57.507-25.16-52.117M1238.656 258.86l47.492 40.042-54.941-1.863" fill="#389826" fill-opacity=".6"/><path d="M1251.25 333.41l-19.5-34.351 54.777 1.859" fill="#cb3c33" fill-opacity=".6"/><path d="M1285.074 219.074l2.844 78.707-48.36-40.777M1215.035 338.027l72.805 15.094-133.18 1.777" fill="#9558b2" fill-opacity=".6"/><path d="M1250.828 336.012l35.95 14.847-64.083-13.285" fill="#cb3c33" fill-opacity=".6"/><path d="M1288.29 302.016l7.464 50.386-42.926-17.726" fill="#4063d8" fill-opacity=".6"/><path d="M1289.832 295.324l-2.77-76.57 27.68 15.684" fill="#cb3c33" fill-opacity=".6"/><path d="M1330.121 355.918l-31.105-2.742 36.597-43" fill="#389826" fill-opacity=".6"/><path d="M1297.668 351.676l-7.48-50.492 44.878 6.546" fill="#cb3c33" fill-opacity=".6"/><path d="M1315.836 237.043l19.773 68.742-45.199-6.59" fill="#9558b2" fill-opacity=".6"/><path d="M1284.969 45.45l50.504 19.64-51.438 24.316" fill="#4063d8" fill-opacity=".6"/><path d="M1284.977 43.309l-.895-25.973 49.258 44.777" fill="#9558b2" fill-opacity=".6"/><path d="M1315.645 232.648l-27.391-15.52 49.305-21" fill="#389826" fill-opacity=".6"/><path d="M1286.887 215.535l-4.727-60.512 55.785 38.766" fill="#cb3c33" fill-opacity=".6"/><path d="M1283.215 13.84l-34.32-31.54 90.906 9.278" fill="#389826" fill-opacity=".6"/><path d="M1337.168 62.89l-52.305-47.55 58.012-22.82M1283.96 92.238l72.317 16.176-74.218 42.82" fill="#cb3c33" fill-opacity=".6"/><path d="M1337.535 66.324l19.652 40.246-71.128-15.91" fill="#389826" fill-opacity=".6"/><path d="M1339.832 192.664l-54.797-38.078 78.016 11.144" fill="#4063d8" fill-opacity=".6"/><path d="M1358.168 109.637l5.703 54.191-79.863-11.41M1337.266 304.305l-19.868-69.059 51.086 8.516" fill="#389826" fill-opacity=".6"/><path d="M1340.008 195.93l27.996 45.722-50.39-8.398" fill="#4063d8" fill-opacity=".6"/><path d="M1370.195 244.805l17.383 21.043-47.574 37.511" fill="#cb3c33" fill-opacity=".6"/><path d="M1388.063 268.012l.91 28.164-48.153 9.086" fill="#9558b2" fill-opacity=".6"/><path d="M1344.836-6.941l44.488 38.808-50.168 31.235" fill="#389826" fill-opacity=".6"/><path d="M1382.176-5.059l7.23 34.34-42.476-37.054" fill="#9558b2" fill-opacity=".6"/><path d="M1358.934 105.582l-19.641-40.21 49.562-30.86" fill="#4063d8" fill-opacity=".6"/><path d="M1337.727 309.332l50.605 57.16-56.227-10.305" fill="#cb3c33" fill-opacity=".6"/><path d="M1389.016 298.203l.945 67.117-51.043-57.664" fill="#389826" fill-opacity=".6"/><path d="M1365.676 161.863l-5.551-52.734 34.23 3.7" fill="#cb3c33" fill-opacity=".6"/><path d="M1390.27 36.316l4.66 74.563-34.489-3.73" fill="#9558b2" fill-opacity=".6"/><path d="M1365.297 166.188l39.976 15.445-62.691 10.902" fill="#389826" fill-opacity=".6"/><path d="M1370.02 241.113l-28.399-46.379 65.313-11.359" fill="#cb3c33" fill-opacity=".6"/><path d="M1396.16 113.703l19.274 22.027-47.72 26.614" fill="#389826" fill-opacity=".6"/><path d="M1408.223 180.629l-40.875-15.793 48.308-26.941" fill="#cb3c33" fill-opacity=".6"/><path d="M1390.969 296.07l-.899-27.882 36.88 30.582" fill="#4063d8" fill-opacity=".6"/><path d="M1391.95 364.336l-.934-66.258 37.328 2.8M1416.602 134.027l-19.09-21.816 33.636-21.816" fill="#cb3c33" fill-opacity=".6"/><path d="M1396.89 110.23l-4.683-74.953 39.352 52.465" fill="#389826" fill-opacity=".6"/><path d="M1391.61 30.035l-7.407-35.18 50.914-6.48M1432.246 85.328l-39.144-52.191 43.804 2.797" fill="#4063d8" fill-opacity=".6"/><path d="M1437-10.656v44.59l-43.664-2.786" fill="#cb3c33" fill-opacity=".6"/><path d="M1389.367 264.871l-17.078-20.668 72.8 6.29" fill="#389826" fill-opacity=".6"/><path d="M1408.984 183.879l40.118 64.953-77.368-6.687" fill="#9558b2" fill-opacity=".6"/><path d="M1429.602 298.371l-38.457-31.89 58.152-15.008" fill="#cb3c33" fill-opacity=".6"/><path d="M1417.82 137.125l39.711 5.54-47.101 36.94" fill="#4063d8" fill-opacity=".6"/><path d="M1433.184 90.605l25.07 50.141-39.926-5.57" fill="#9558b2" fill-opacity=".6"/><path d="M1450.82 247.809l-38.785-62.797 51.715 31.398" fill="#cb3c33" fill-opacity=".6"/><path d="M1459.129 143.953l4.742 70.192-53.117-32.25" fill="#9558b2" fill-opacity=".6"/><path d="M1430.047 301.93l37.223 58.222-74.446 6.68" fill="#389826" fill-opacity=".6"/><path d="M1451.078 252.395l28.117 56.234-47.797-9.375" fill="#4063d8" fill-opacity=".6"/><path d="M1468.566 358.469l-36.464-57.04 47.687 9.352M1438.855 36.598l44.997 24.375-49.684 25.312" fill="#cb3c33" fill-opacity=".6"/><path d="M1465.734 212.023l-4.59-67.898 26.61 20.188" fill="#4063d8" fill-opacity=".6"/><path d="M1480.727 315.523l7.043 52.829-17.606-7.926" fill="#389826" fill-opacity=".6"/><path d="M1489.29 165.758l16.23 17.133-37.872 29.757M1460.3 140.363l-25.605-51.207 73.97 6.637" fill="#cb3c33" fill-opacity=".6"/><path d="M1485.7 62.277l23.179 31.528-72.332-6.489" fill="#4063d8" fill-opacity=".6"/><path d="M1488.477 162.348l-26.922-20.422 47.343-43.63" fill="#9558b2" fill-opacity=".6"/><path d="M1465.414 217.621l49.195 39.914-62.191-8.355" fill="#4063d8" fill-opacity=".6"/><path d="M1481.156 308.078l-28.418-56.836 63.469 8.528" fill="#cb3c33" fill-opacity=".6"/><path d="M1506.258 184.855l10.387 71.758-50.043-40.601" fill="#9558b2" fill-opacity=".6"/><path d="M1485.613 59.652l-45.293-24.53 77.375-32.083" fill="#389826" fill-opacity=".6"/><path d="M1439 33.504v-45.32l77.418 13.218" fill="#9558b2" fill-opacity=".6"/><path d="M1506.742 181.277l-16.246-17.152 39.715-29.785" fill="#389826" fill-opacity=".6"/><path d="M1511.29 97.39l20.382 33.356-40.77 30.578" fill="#4063d8" fill-opacity=".6"/><path d="M1518.766 257.313l-9.692-66.973 24.672 57.281" fill="#cb3c33" fill-opacity=".6"/><path d="M1510.875 93.14l-23.176-31.519 46.348-11.125" fill="#9558b2" fill-opacity=".6"/><path d="M1519.762 3.45l14.945 44.831-46.703 11.211" fill="#4063d8" fill-opacity=".6"/><path d="M1489.797 368.422l-7.547-56.606 55.664 30.188" fill="#9558b2" fill-opacity=".6"/><path d="M1534.914 245.27l-25.863-60.04 39.719 21.247" fill="#389826" fill-opacity=".6"/><path d="M1536.23 46.527l-14.808-44.422 37.945 2.778" fill="#cb3c33" fill-opacity=".6"/><path d="M1518.219 260.402l43.383 32.067-78.282 16.035" fill="#9558b2" fill-opacity=".6"/><path d="M1539.559 340.625l-55.672-30.195 78.32-16.043" fill="#cb3c33" fill-opacity=".6"/><path d="M1534.703 249.383l25.496 39.562-40.441-29.89" fill="#4063d8" fill-opacity=".6"/><path d="M1533.055 129.168l-20.48-33.508 52.124-12.101" fill="#389826" fill-opacity=".6"/><path d="M1536.219 50.691l28.863 30.727-52.14 12.105" fill="#cb3c33" fill-opacity=".6"/><path d="M1533.39 132.457l44.247 29.184-68.723 19.77" fill="#9558b2" fill-opacity=".6"/><path d="M1549.68 204.695l-40.035-21.414 67.968-19.554M1566.41 84.605l12.238 75.305-44.242-29.18" fill="#cb3c33" fill-opacity=".6"/><path d="M1560.953 6.145l20.445 40.89-43.68.93" fill="#389826" fill-opacity=".6"/><path d="M1566.723 80.242l-28.457-30.289 43.14-.918M1550.422 207.793l49.691 47.816-63.754-8.437" fill="#9558b2" fill-opacity=".6"/><path d="M1600.055 295.89l-33.758-3.648 35.582-32.847" fill="#389826" fill-opacity=".6"/><path d="M1564.195 291.457l-27.183-42.184 63.742 8.438M1540.18 343.043l60.254 9.89-106.121 15.29" fill="#cb3c33" fill-opacity=".6"/><path d="M1564.16 294.941l40.621 56.68-63.293-10.39" fill="#389826" fill-opacity=".6"/><path d="M1600.09 297.906l5.512 51.426-39.489-55.098" fill="#cb3c33" fill-opacity=".6"/><path d="M1560.84 2.984L1527.71.563l72.724-13.739" fill="#389826" fill-opacity=".6"/><path d="M1582.922 45.61l-20.543-41.09 45.758-18.68" fill="#cb3c33" fill-opacity=".6"/><path d="M1580.176 163.516l32.664 29.867-60.66 11.199" fill="#9558b2" fill-opacity=".6"/><path d="M1602.363 255l-50.265-48.371 61.648-11.379" fill="#389826" fill-opacity=".6"/><path d="M1580.594 159.418l-12.29-75.633 48.216 24.582" fill="#9558b2" fill-opacity=".6"/><path d="M1583.094 50.148l32.328 55.414-47.106-24.011M1614.613 192.29l-32.71-29.907 52.335-18.692" fill="#389826" fill-opacity=".6"/><path d="M1617.879 109.91l16.695 31.535L1582.633 160" fill="#cb3c33" fill-opacity=".6"/><path d="M1610.14-13.762l27.329 47.114-52.77 13.191" fill="#389826" fill-opacity=".6"/><path d="M1632.105-11.14l5.258 40.324-25.422-43.832" fill="#4063d8" fill-opacity=".6"/><path d="M1617.68 105.465l-33.145-56.817 53.031-13.257" fill="#9558b2" fill-opacity=".6"/><path d="M1603.914 258.75l36.805 23.004-38.645 13.8" fill="#cb3c33" fill-opacity=".6"/><path d="M1607.633 349.535l-5.555-51.86 38.895-13.89" fill="#389826" fill-opacity=".6"/><path d="M1635.8 139.484l-16.347-30.879 29.973-9.082" fill="#4063d8" fill-opacity=".6"/><path d="M1638.8 38.363l11.052 58.942-30.391 9.207" fill="#cb3c33" fill-opacity=".6"/><path d="M1615.594 196.23l50.265 58.801-61.648.95" fill="#4063d8" fill-opacity=".6"/><path d="M1642.84 280.723l-36.438-22.774 59.215-.914" fill="#389826" fill-opacity=".6"/><path d="M1636.316 143.887l31.84 36.52-51.504 12.175" fill="#9558b2" fill-opacity=".6"/><path d="M1667.07 253.371l-50.246-58.773 52.14-12.325" fill="#389826" fill-opacity=".6"/><path d="M1642.918 284.375l25.64 60.777-59.828 6.649" fill="#9558b2" fill-opacity=".6"/><path d="M1669.672 347.043l14.34 12.652-67.485-6.746M1670.91 184.434l20.902 34.535-22.722 33.629" fill="#cb3c33" fill-opacity=".6"/><path d="M1651.68 96.188l-11.309-60.301 51.824 28.265" fill="#389826" fill-opacity=".6"/><path d="M1693.48 65.688l4.282 13.707-41.125 15.425" fill="#cb3c33" fill-opacity=".6"/><path d="M1692.8 221.082l15.641 36.805-38.644-2.762" fill="#389826" fill-opacity=".6"/><path d="M1667.898 257.547l41.825 56.695-65.059-32.527" fill="#cb3c33" fill-opacity=".6"/><path d="M1709.047 259.934l2.781 53.796-41.734-56.578" fill="#9558b2" fill-opacity=".6"/><path d="M1670.45 344.492l-25.477-60.387 66.047 33.024" fill="#389826" fill-opacity=".6"/><path d="M1686.754 359.45l-15.121-13.345 38.25-25.796" fill="#9558b2" fill-opacity=".6"/><path d="M1693.438 62.555l-52.29-28.524 75.106-38.027" fill="#cb3c33" fill-opacity=".6"/><path d="M1639.809 32.469l-5.66-43.387 80.171 5.66" fill="#389826" fill-opacity=".6"/><path d="M1651.582 99.387l64.941 31.058-79.058 10.356" fill="#9558b2" fill-opacity=".6"/><path d="M1670.05 179.535l-32.07-36.785 79.23-10.375" fill="#cb3c33" fill-opacity=".6"/><path d="M1692.7 216.57l-21.438-35.418 46.601-46.601M1698.445 81.277l19.64 47.7-64.534-30.864M1713.922 315.492l-2.746-53.113 29.304 41.207" fill="#389826" fill-opacity=".6"/><path d="M1720.316 129.145l-19.375-47.055 42.442 21.219" fill="#cb3c33" fill-opacity=".6"/><path d="M1744.113 101.438l-43.035-21.516 46.777-28.07" fill="#9558b2" fill-opacity=".6"/><path d="M1699.574 78.488l-4.304-13.781 47.367-12.055" fill="#389826" fill-opacity=".6"/><path d="M1718.215-3.547l29.281 52.899-51.95 13.222" fill="#9558b2" fill-opacity=".6"/><path d="M1720.645 132.313l26.777 10.156-51.711 71.101" fill="#4063d8" fill-opacity=".6"/><path d="M1744.238 105.355l3.602 35.137-26.125-9.91M1713.313 318.434l36.328 25.148-60.543 15.836" fill="#389826" fill-opacity=".6"/><path d="M1741.32 305.402l9.067 36.266-35.36-24.48" fill="#cb3c33" fill-opacity=".6"/><path d="M1748.355 144.59l8.524 60.613-61.563 12.313" fill="#9558b2" fill-opacity=".6"/><path d="M1710.52 257.668l-15.832-37.258 65.195 14.903" fill="#cb3c33" fill-opacity=".6"/><path d="M1757.188 207.184l4.57 26.507-63.985-14.625" fill="#389826" fill-opacity=".6"/><path d="M1741.637 301.762l-30.117-42.352 49.878-22.59" fill="#9558b2" fill-opacity=".6"/><path d="M1748.71 47.41l-29.116-52.597 46.023-5.637" fill="#cb3c33" fill-opacity=".6"/><path d="M1752.043 345.023l22.215 3.829-72.008 9.195" fill="#9558b2" fill-opacity=".6"/><path d="M1752.813 343.125l-8.829-35.309 34.426 39.723M1749.848 52.043l32.441 27.805-36.148 21.316" fill="#389826" fill-opacity=".6"/><path d="M1749.934 141.285l-3.582-34.902 36.691 47.43" fill="#4063d8" fill-opacity=".6"/><path d="M1783.047 81.723l1.871 71.246-38.434-49.684" fill="#9558b2" fill-opacity=".6"/><path d="M1758.578 202.922l-8.351-59.39 34.332 12.991" fill="#389826" fill-opacity=".6"/><path d="M1763.754 233.484l-4.477-25.96 32.227 11.64" fill="#9558b2" fill-opacity=".6"/><path d="M1785.39 159.137l7.41 58.367-33.35-12.043" fill="#cb3c33" fill-opacity=".6"/><path d="M1763.266 237.563l37.011 67.378-56.941-1.898" fill="#389826" fill-opacity=".6"/><path d="M1780.766 347.203l-36.512-42.129 56.172 1.875" fill="#cb3c33" fill-opacity=".6"/><path d="M1767.664-10.7l33.434 12.075-50.153 45.508" fill="#4063d8" fill-opacity=".6"/><path d="M1793.652 220.305l19.946 30.824-48.047-16.32" fill="#389826" fill-opacity=".6"/><path d="M1801.672 303.324l-36.555-66.55 49.676 16.874" fill="#cb3c33" fill-opacity=".6"/><path d="M1783.906 78.602l-32.488-27.844 63.121-6.5" fill="#4063d8" fill-opacity=".6"/><path d="M1802.535 2.77l13.121 39.363-63.726 6.558" fill="#cb3c33" fill-opacity=".6"/><path d="M1817.008 39.86l-12.801-38.4 32-18.284" fill="#389826" fill-opacity=".6"/><path d="M1815.691 250.68l-20.359-31.461 40.715-32.387" fill="#cb3c33" fill-opacity=".6"/><path d="M1794.77 217.11l-7.532-59.31 48.953 26.36" fill="#4063d8" fill-opacity=".6"/><path d="M1816.23 256.047l24.114 55.648-37.098-6.492" fill="#9558b2" fill-opacity=".6"/><path d="M1817.27 44.2l23.207 9.82-52.665 23.207" fill="#389826" fill-opacity=".6"/><path d="M1837.344-13.945l4.547 66.39-23.645-10.004" fill="#4063d8" fill-opacity=".6"/><path d="M1802.227 307.813l42.28 49.796-62.01-9.394" fill="#389826" fill-opacity=".6"/><path d="M1841.086 313.855l4.566 42.016-41.097-48.41M1786.938 153.582L1785.027 81h71.624" fill="#cb3c33" fill-opacity=".6"/><path d="M1842.605 55.266L1857.211 79h-68.461" fill="#4063d8" fill-opacity=".6"/><path d="M1837.992 182.86l-46.246-24.9 70.258 11.56" fill="#9558b2" fill-opacity=".6"/><path d="M1858.156 82.324l5.762 85.485-75.879-12.489" fill="#4063d8" fill-opacity=".6"/><path d="M1838.168 186.77l25.398 55.503-46.093 9.407" fill="#9558b2" fill-opacity=".6"/><path d="M1841.871 310.188l-24.465-56.454 46.106-9.41" fill="#389826" fill-opacity=".6"/><path d="M1865.55 162.297l-5.378-79.797 19.723 18.828" fill="#9558b2" fill-opacity=".6"/><path d="M1880.867 105.926l6.07 33.804L1867 164.871" fill="#cb3c33" fill-opacity=".6"/><path d="M1847.824 357.344l-4.66-42.883 48.477 16.781" fill="#389826" fill-opacity=".6"/><path d="M1864.734 170.29l34.664 44.698-59.293-31.015" fill="#cb3c33" fill-opacity=".6"/><path d="M1865.426 241.523l-25.301-55.285 60.906 31.86M1887.43 142.328l13.8 71.758-34.96-45.078" fill="#389826" fill-opacity=".6"/><path d="M1865.434 244.879l35.902 36.844-57.629 29.289" fill="#cb3c33" fill-opacity=".6"/><path d="M1893.227 329.676l-48.676-16.852 57.101-29.015" fill="#4063d8" fill-opacity=".6"/><path d="M1859.355 78.668l-14.546-23.64 56.37.91" fill="#cb3c33" fill-opacity=".6"/><path d="M1880.73 99.36l-20.046-19.137 41.914-22.778M1904.152 53.984l-57.246-.922 62.785-33.238" fill="#389826" fill-opacity=".6"/><path d="M1843.89 52.395l-4.773-69.708 69.711 35.333" fill="#9558b2" fill-opacity=".6"/><path d="M1902.629 219.441l7.84 14.805-40.934 6.969" fill="#4063d8" fill-opacity=".6"/><path d="M1902.379 279.93l-35.332-36.262 43.7-7.441M1903.844 282.95l27.988-1.81-36.117 46.051" fill="#389826" fill-opacity=".6"/><path d="M1912.418 238.133l20.027 40.965-28.218 1.82" fill="#cb3c33" fill-opacity=".6"/><path d="M1888.723 138.375l-6.496-36.191 52.898 7.421" fill="#389826" fill-opacity=".6"/><path d="M1905.07 57.031l30.973 50.684-53.5-7.508" fill="#4063d8" fill-opacity=".6"/><path d="M1903.492 215.266l-14.242-74.055 54.121 8.543" fill="#cb3c33" fill-opacity=".6"/><path d="M1937.27 110.629l6.503 37.164-52.96-8.36M1934.336 278.406l-18.918-38.691 30.094 29.234" fill="#9558b2" fill-opacity=".6"/><path d="M1911.633 20.344l33.851 41.172-39.34-7.32" fill="#cb3c33" fill-opacity=".6"/><path d="M1937.55 106.352l-30.527-49.957 39.782 7.398" fill="#389826" fill-opacity=".6"/><path d="M1894.129 332.086l55.676 17.344-98.575 8.215" fill="#cb3c33" fill-opacity=".6"/><path d="M1933.598 282.137l19.902 66.347-57.82-18.007" fill="#4063d8" fill-opacity=".6"/><path d="M1911.172 16.969l-65.055-32.977 110.508 26.735" fill="#389826" fill-opacity=".6"/><path d="M1947.54 60.863l-34.63-42.117 47.73-6.55" fill="#9558b2" fill-opacity=".6"/><path d="M1912.355 233.531l-7.906-14.93 51.813-15.804" fill="#cb3c33" fill-opacity=".6"/><path d="M1944.734 151.363l15.993 47.98-55.508 16.934M1946.406 267.027l-32.843-31.902 46.917-32.84" fill="#389826" fill-opacity=".6"/><path d="M1962.621 201.844l18.05 15.34-31.585 46.925M1962.746 12.078l28.16 2.723-40.879 44.511" fill="#4063d8" fill-opacity=".6"/><path d="M1981.25 215.05l-18.02-15.316 27.93-59.464" fill="#389826" fill-opacity=".6"/><path d="M1962.156 197.313l-15.886-47.66 44.859-14.02" fill="#9558b2" fill-opacity=".6"/><path d="M1945.79 147.707l-6.477-37.012 50.89 23.133M1948.664 64.645l44.879 29.918-54.227 13.09" fill="#cb3c33" fill-opacity=".6"/><path d="M1992.113 132.5l-51.058-23.21 53.843-12.997" fill="#389826" fill-opacity=".6"/><path d="M1992.559 15.957l12.132 39.195-54.125 6.532" fill="#cb3c33" fill-opacity=".6"/><path d="M1995.383 93.387l-44.578-29.719 53.863-6.5" fill="#4063d8" fill-opacity=".6"/><path d="M1947.023 270.29l55.278 43.183-66.504-33.684" fill="#cb3c33" fill-opacity=".6"/><path d="M1955.602 348.523l-19.973-66.578 73.234 37.094" fill="#389826" fill-opacity=".6"/><path d="M2008.055 359.79l-50.2-10.228 52.06-28.82" fill="#cb3c33" fill-opacity=".6"/><path d="M1982.172 218.535l33.82 31.942-66.703 16.91" fill="#9558b2" fill-opacity=".6"/><path d="M2010.191 317.098l-60.968-47.63 67.636-17.148" fill="#389826" fill-opacity=".6"/><path d="M2018.832 252.691l26.73 16.594-33.183 46.09" fill="#4063d8" fill-opacity=".6"/><path d="M1992.805 12.977l-25.586-2.477 72.633-21.46" fill="#9558b2" fill-opacity=".6"/><path d="M1961.973 9.965l-114.875-27.793 196.402 3.707" fill="#4063d8" fill-opacity=".6"/><path d="M2006.305 53.61l-12.102-39.102 53.063-26.996" fill="#389826" fill-opacity=".6"/><path d="M1996.922 96.066l51.82 3.704-54.597 32.39" fill="#cb3c33" fill-opacity=".6"/><path d="M2006.55 57.883l42.704 39.918-51.988-3.711" fill="#9558b2" fill-opacity=".6"/><path d="M2049.2-11.809l4.722 75.594-46.3-8.504" fill="#cb3c33" fill-opacity=".6"/><path d="M2051.184 96.867l-42.008-39.265 44.75 8.218M2051.172 100.652l3.71 34.313-58.421-1.856" fill="#389826" fill-opacity=".6"/><path d="M2011.914 320.82l45.473 30.625-47.328 8.352" fill="#4063d8" fill-opacity=".6"/><path d="M2046.914 270.832l15.633 26.668-48.738 19.313" fill="#9558b2" fill-opacity=".6"/><path d="M2059.129 350.207l-45.996-30.977 49.754-19.714M1993.723 136.156l72.058 73.02-82.629 6.726" fill="#cb3c33" fill-opacity=".6"/><path d="M2055.145 136.973l11.367 70.093-71.043-71.988" fill="#9558b2" fill-opacity=".6"/><path d="M2018.047 249.668l-33.727-31.852 80.57-6.558" fill="#389826" fill-opacity=".6"/><path d="M2046.473 267.496l-26.758-16.61 46.137-37.831" fill="#cb3c33" fill-opacity=".6"/><path d="M2068.418 206.32l-11.145-68.707 33.426 13.93" fill="#389826" fill-opacity=".6"/><path d="M2064.844 300.164l31.492 29.645-35.2 20.378" fill="#4063d8" fill-opacity=".6"/><path d="M2055.934 63.887l-4.7-75.168 46.043 70.472" fill="#389826" fill-opacity=".6"/><path d="M2091.168 149.57l-33.496-13.957 40.941-46.523" fill="#4063d8" fill-opacity=".6"/><path d="M2056.75 133.633l-3.664-33.89 43.969-11.911" fill="#9558b2" fill-opacity=".6"/><path d="M2055.871 66.512l41.227 19.238-43.977 11.91" fill="#4063d8" fill-opacity=".6"/><path d="M2098.043 61.117l.894 23.285-40.3-18.808" fill="#cb3c33" fill-opacity=".6"/><path d="M2068.484 211.621l30.758 23.305-50.332 31.691" fill="#9558b2" fill-opacity=".6"/><path d="M2064.434 296.762l-15.45-26.352 55.43 10.902" fill="#389826" fill-opacity=".6"/><path d="M2100.242 236.66l6.555 43.086-57.133-11.242M2097.379 328.043l-31.535-29.684 40.812-15.765M2092.074 153.473l20.512 42.886-42.887 12.121" fill="#cb3c33" fill-opacity=".6"/><path d="M2100.5 233.367l-30.293-22.953 42.23-11.934" fill="#4063d8" fill-opacity=".6"/><path d="M2100.012 94.086l12.222 96.902-19.207-40.156" fill="#389826" fill-opacity=".6"/><path d="M2098.7 57.71l-46.466-71.12 64.48 16.12" fill="#4063d8" fill-opacity=".6"/></svg>