<?xml version="1.0" encoding="UTF-8"?>
<svg xmlns="http://www.w3.org/2000/svg" xmlns:xlink="http://www.w3.org/1999/xlink" width="2100pt" height="320pt" viewBox="0 0 2100 320" version="1.1">
<g id="surface609">
<rect x="0" y="0" width="2100" height="320" style="fill:rgb(3.921569%,3.921569%,3.921569%);fill-opacity:1;stroke:none;"/>
<style> style="fill:none;stroke-width:0.5;stroke-linecap:butt;stroke-linejoin:miter;stroke-opacity:1;stroke-miterlimit:10;"</style>
<path style="stroke:rgb(22%,59.6%,14.9%);" d="M -62 186 L -56 140 L -1 130 Z M -62 186 "/>
<path style="stroke:rgb(25.1%,38.8%,84.7%);" d="M -56 140 L -12 109 L -1 130 Z M -56 140 "/>
<path style="stroke:rgb(79.6%,23.5%,20%);" d="M -60 311 L -39 244 L 16 310 Z M -60 311 "/>
<path style="stroke:rgb(58.4%,34.5%,69.8%);" d="M -39 244 L 6 239 L 16 310 Z M -39 244 "/>
<path style="stroke:rgb(25.1%,38.8%,84.7%);" d="M -70 49 L -49 8 L 18 36 Z M -70 49 "/>
<path style="stroke:rgb(22%,59.6%,14.9%);" d="M 18 36 L -12 109 L -70 49 Z M 18 36 "/>
<path style="stroke:rgb(79.6%,23.5%,20%);" d="M -49 8 L 10 -10 L 18 36 Z M -49 8 "/>
<path style="stroke:rgb(25.1%,38.8%,84.7%);" d="M 20 193 L 6 239 L -39 244 Z M 20 193 "/>
<path style="stroke:rgb(79.6%,23.5%,20%);" d="M 20 193 L -39 244 L -62 186 Z M 20 193 "/>
<path style="stroke:rgb(22%,59.6%,14.9%);" d="M -62 186 L -1 130 L 20 193 Z M -62 186 "/>
<path style="stroke:rgb(25.1%,38.8%,84.7%);" d="M 6 239 L 20 193 L 42 206 Z M 6 239 "/>
<path style="stroke:rgb(79.6%,23.5%,20%);" d="M 47 16 L 18 36 L 10 -10 Z M 47 16 "/>
<path style="stroke:rgb(79.6%,23.5%,20%);" d="M -12 109 L 18 36 L 47 47 Z M -12 109 "/>
<path style="stroke:rgb(79.6%,23.5%,20%);" d="M 18 36 L 47 16 L 47 47 Z M 18 36 "/>
<path style="stroke:rgb(58.4%,34.5%,69.8%);" d="M 6 239 L 42 206 L 48 232 Z M 6 239 "/>
<path style="stroke:rgb(22%,59.6%,14.9%);" d="M 51 148 L 42 206 L 20 193 Z M 51 148 "/>
<path style="stroke:rgb(58.4%,34.5%,69.8%);" d="M 51 148 L 20 193 L -1 130 Z M 51 148 "/>
<path style="stroke:rgb(58.4%,34.5%,69.8%);" d="M 62 117 L -1 130 L -12 109 Z M 62 117 "/>
<path style="stroke:rgb(58.4%,34.5%,69.8%);" d="M -12 109 L 47 47 L 62 117 Z M -12 109 "/>
<path style="stroke:rgb(25.1%,38.8%,84.7%);" d="M 62 117 L 51 148 L -1 130 Z M 62 117 "/>
<path style="stroke:rgb(25.1%,38.8%,84.7%);" d="M 67 294 L 16 310 L 6 239 Z M 67 294 "/>
<path style="stroke:rgb(22%,59.6%,14.9%);" d="M 6 239 L 48 232 L 67 294 Z M 6 239 "/>
<path style="stroke:rgb(58.4%,34.5%,69.8%);" d="M 84 11 L 47 16 L 10 -10 Z M 84 11 "/>
<path style="stroke:rgb(58.4%,34.5%,69.8%);" d="M 84 11 L 47 47 L 47 16 Z M 84 11 "/>
<path style="stroke:rgb(79.6%,23.5%,20%);" d="M 95 43 L 62 117 L 47 47 Z M 95 43 "/>
<path style="stroke:rgb(25.1%,38.8%,84.7%);" d="M 47 47 L 84 11 L 95 43 Z M 47 47 "/>
<path style="stroke:rgb(58.4%,34.5%,69.8%);" d="M 107 253 L 97 284 L 67 294 Z M 107 253 "/>
<path style="stroke:rgb(79.6%,23.5%,20%);" d="M 107 253 L 67 294 L 48 232 Z M 107 253 "/>
<path style="stroke:rgb(25.1%,38.8%,84.7%);" d="M 109 208 L 107 253 L 48 232 Z M 109 208 "/>
<path style="stroke:rgb(79.6%,23.5%,20%);" d="M 109 208 L 48 232 L 42 206 Z M 109 208 "/>
<path style="stroke:rgb(22%,59.6%,14.9%);" d="M 42 206 L 51 148 L 109 208 Z M 42 206 "/>
<path style="stroke:rgb(25.1%,38.8%,84.7%);" d="M 51 148 L 62 117 L 113 144 Z M 51 148 "/>
<path style="stroke:rgb(22%,59.6%,14.9%);" d="M 113 144 L 109 208 L 51 148 Z M 113 144 "/>
<path style="stroke:rgb(22%,59.6%,14.9%);" d="M 62 117 L 95 43 L 117 85 Z M 62 117 "/>
<path style="stroke:rgb(25.1%,38.8%,84.7%);" d="M 117 85 L 113 144 L 62 117 Z M 117 85 "/>
<path style="stroke:rgb(58.4%,34.5%,69.8%);" d="M 107 253 L 109 208 L 132 210 Z M 107 253 "/>
<path style="stroke:rgb(25.1%,38.8%,84.7%);" d="M 109 208 L 113 144 L 132 210 Z M 109 208 "/>
<path style="stroke:rgb(58.4%,34.5%,69.8%);" d="M 107 253 L 132 210 L 144 231 Z M 107 253 "/>
<path style="stroke:rgb(58.4%,34.5%,69.8%);" d="M 148 47 L 117 85 L 95 43 Z M 148 47 "/>
<path style="stroke:rgb(58.4%,34.5%,69.8%);" d="M 113 144 L 117 85 L 154 154 Z M 113 144 "/>
<path style="stroke:rgb(22%,59.6%,14.9%);" d="M 154 154 L 132 210 L 113 144 Z M 154 154 "/>
<path style="stroke:rgb(22%,59.6%,14.9%);" d="M 160 16 L 148 47 L 95 43 Z M 160 16 "/>
<path style="stroke:rgb(58.4%,34.5%,69.8%);" d="M 160 16 L 95 43 L 84 11 Z M 160 16 "/>
<path style="stroke:rgb(22%,59.6%,14.9%);" d="M 117 85 L 148 47 L 163 82 Z M 117 85 "/>
<path style="stroke:rgb(22%,59.6%,14.9%);" d="M 163 82 L 154 154 L 117 85 Z M 163 82 "/>
<path style="stroke:rgb(25.1%,38.8%,84.7%);" d="M 16 310 L 67 294 L 168 317 Z M 16 310 "/>
<path style="stroke:rgb(58.4%,34.5%,69.8%);" d="M 67 294 L 97 284 L 168 317 Z M 67 294 "/>
<path style="stroke:rgb(58.4%,34.5%,69.8%);" d="M 97 284 L 107 253 L 168 317 Z M 97 284 "/>
<path style="stroke:rgb(22%,59.6%,14.9%);" d="M 107 253 L 144 231 L 168 317 Z M 107 253 "/>
<path style="stroke:rgb(79.6%,23.5%,20%);" d="M 154 154 L 163 82 L 186 109 Z M 154 154 "/>
<path style="stroke:rgb(25.1%,38.8%,84.7%);" d="M 148 47 L 160 16 L 192 15 Z M 148 47 "/>
<path style="stroke:rgb(58.4%,34.5%,69.8%);" d="M 201 297 L 168 317 L 144 231 Z M 201 297 "/>
<path style="stroke:rgb(58.4%,34.5%,69.8%);" d="M 202 219 L 144 231 L 132 210 Z M 202 219 "/>
<path style="stroke:rgb(58.4%,34.5%,69.8%);" d="M 132 210 L 154 154 L 202 219 Z M 132 210 "/>
<path style="stroke:rgb(58.4%,34.5%,69.8%);" d="M 154 154 L 186 109 L 204 155 Z M 154 154 "/>
<path style="stroke:rgb(22%,59.6%,14.9%);" d="M 204 155 L 202 219 L 154 154 Z M 204 155 "/>
<path style="stroke:rgb(25.1%,38.8%,84.7%);" d="M 218 43 L 163 82 L 148 47 Z M 218 43 "/>
<path style="stroke:rgb(25.1%,38.8%,84.7%);" d="M 148 47 L 192 15 L 218 43 Z M 148 47 "/>
<path style="stroke:rgb(58.4%,34.5%,69.8%);" d="M 218 43 L 186 109 L 163 82 Z M 218 43 "/>
<path style="stroke:rgb(25.1%,38.8%,84.7%);" d="M 220 264 L 201 297 L 144 231 Z M 220 264 "/>
<path style="stroke:rgb(22%,59.6%,14.9%);" d="M 144 231 L 202 219 L 220 264 Z M 144 231 "/>
<path style="stroke:rgb(22%,59.6%,14.9%);" d="M 231 0 L 160 16 L 84 11 Z M 231 0 "/>
<path style="stroke:rgb(25.1%,38.8%,84.7%);" d="M 231 0 L 84 11 L 10 -10 Z M 231 0 "/>
<path style="stroke:rgb(22%,59.6%,14.9%);" d="M 231 0 L 192 15 L 160 16 Z M 231 0 "/>
<path style="stroke:rgb(22%,59.6%,14.9%);" d="M 231 0 L 218 43 L 192 15 Z M 231 0 "/>
<path style="stroke:rgb(58.4%,34.5%,69.8%);" d="M 186 109 L 218 43 L 246 69 Z M 186 109 "/>
<path style="stroke:rgb(79.6%,23.5%,20%);" d="M 218 43 L 231 0 L 246 69 Z M 218 43 "/>
<path style="stroke:rgb(58.4%,34.5%,69.8%);" d="M 248 87 L 204 155 L 186 109 Z M 248 87 "/>
<path style="stroke:rgb(25.1%,38.8%,84.7%);" d="M 186 109 L 246 69 L 248 87 Z M 186 109 "/>
<path style="stroke:rgb(22%,59.6%,14.9%);" d="M 202 219 L 204 155 L 254 165 Z M 202 219 "/>
<path style="stroke:rgb(22%,59.6%,14.9%);" d="M 204 155 L 248 87 L 254 165 Z M 204 155 "/>
<path style="stroke:rgb(58.4%,34.5%,69.8%);" d="M 259 237 L 220 264 L 202 219 Z M 259 237 "/>
<path style="stroke:rgb(58.4%,34.5%,69.8%);" d="M 201 297 L 220 264 L 268 286 Z M 201 297 "/>
<path style="stroke:rgb(79.6%,23.5%,20%);" d="M 220 264 L 259 237 L 268 286 Z M 220 264 "/>
<path style="stroke:rgb(58.4%,34.5%,69.8%);" d="M 202 219 L 254 165 L 270 184 Z M 202 219 "/>
<path style="stroke:rgb(22%,59.6%,14.9%);" d="M 270 184 L 259 237 L 202 219 Z M 270 184 "/>
<path style="stroke:rgb(79.6%,23.5%,20%);" d="M 292 2 L 246 69 L 231 0 Z M 292 2 "/>
<path style="stroke:rgb(22%,59.6%,14.9%);" d="M 168 317 L 201 297 L 299 317 Z M 168 317 "/>
<path style="stroke:rgb(79.6%,23.5%,20%);" d="M 201 297 L 268 286 L 299 317 Z M 201 297 "/>
<path style="stroke:rgb(79.6%,23.5%,20%);" d="M 304 138 L 270 184 L 254 165 Z M 304 138 "/>
<path style="stroke:rgb(25.1%,38.8%,84.7%);" d="M 304 138 L 254 165 L 248 87 Z M 304 138 "/>
<path style="stroke:rgb(22%,59.6%,14.9%);" d="M 305 56 L 248 87 L 246 69 Z M 305 56 "/>
<path style="stroke:rgb(79.6%,23.5%,20%);" d="M 246 69 L 292 2 L 305 56 Z M 246 69 "/>
<path style="stroke:rgb(22%,59.6%,14.9%);" d="M 316 82 L 304 138 L 248 87 Z M 316 82 "/>
<path style="stroke:rgb(22%,59.6%,14.9%);" d="M 248 87 L 305 56 L 316 82 Z M 248 87 "/>
<path style="stroke:rgb(25.1%,38.8%,84.7%);" d="M 259 237 L 270 184 L 316 210 Z M 259 237 "/>
<path style="stroke:rgb(79.6%,23.5%,20%);" d="M 270 184 L 304 138 L 316 210 Z M 270 184 "/>
<path style="stroke:rgb(25.1%,38.8%,84.7%);" d="M 316 247 L 268 286 L 259 237 Z M 316 247 "/>
<path style="stroke:rgb(79.6%,23.5%,20%);" d="M 259 237 L 316 210 L 316 247 Z M 259 237 "/>
<path style="stroke:rgb(22%,59.6%,14.9%);" d="M 332 301 L 299 317 L 268 286 Z M 332 301 "/>
<path style="stroke:rgb(79.6%,23.5%,20%);" d="M 268 286 L 316 247 L 332 301 Z M 268 286 "/>
<path style="stroke:rgb(25.1%,38.8%,84.7%);" d="M 335 11 L 305 56 L 292 2 Z M 335 11 "/>
<path style="stroke:rgb(22%,59.6%,14.9%);" d="M 304 138 L 316 82 L 341 151 Z M 304 138 "/>
<path style="stroke:rgb(25.1%,38.8%,84.7%);" d="M 341 151 L 316 210 L 304 138 Z M 341 151 "/>
<path style="stroke:rgb(79.6%,23.5%,20%);" d="M 341 243 L 332 301 L 316 247 Z M 341 243 "/>
<path style="stroke:rgb(79.6%,23.5%,20%);" d="M 341 243 L 316 247 L 316 210 Z M 341 243 "/>
<path style="stroke:rgb(22%,59.6%,14.9%);" d="M 360 41 L 316 82 L 305 56 Z M 360 41 "/>
<path style="stroke:rgb(79.6%,23.5%,20%);" d="M 305 56 L 335 11 L 360 41 Z M 305 56 "/>
<path style="stroke:rgb(58.4%,34.5%,69.8%);" d="M 316 210 L 341 151 L 367 210 Z M 316 210 "/>
<path style="stroke:rgb(58.4%,34.5%,69.8%);" d="M 367 210 L 341 243 L 316 210 Z M 367 210 "/>
<path style="stroke:rgb(22%,59.6%,14.9%);" d="M 369 94 L 341 151 L 316 82 Z M 369 94 "/>
<path style="stroke:rgb(22%,59.6%,14.9%);" d="M 316 82 L 360 41 L 369 94 Z M 316 82 "/>
<path style="stroke:rgb(79.6%,23.5%,20%);" d="M 386 84 L 369 94 L 360 41 Z M 386 84 "/>
<path style="stroke:rgb(79.6%,23.5%,20%);" d="M 299 317 L 332 301 L 390 293 Z M 299 317 "/>
<path style="stroke:rgb(79.6%,23.5%,20%);" d="M 332 301 L 341 243 L 390 293 Z M 332 301 "/>
<path style="stroke:rgb(25.1%,38.8%,84.7%);" d="M 394 10 L 335 11 L 292 2 Z M 394 10 "/>
<path style="stroke:rgb(25.1%,38.8%,84.7%);" d="M 394 10 L 360 41 L 335 11 Z M 394 10 "/>
<path style="stroke:rgb(58.4%,34.5%,69.8%);" d="M 394 55 L 386 84 L 360 41 Z M 394 55 "/>
<path style="stroke:rgb(25.1%,38.8%,84.7%);" d="M 360 41 L 394 10 L 394 55 Z M 360 41 "/>
<path style="stroke:rgb(22%,59.6%,14.9%);" d="M 341 243 L 367 210 L 397 262 Z M 341 243 "/>
<path style="stroke:rgb(25.1%,38.8%,84.7%);" d="M 367 210 L 390 214 L 397 262 Z M 367 210 "/>
<path style="stroke:rgb(22%,59.6%,14.9%);" d="M 397 262 L 390 293 L 341 243 Z M 397 262 "/>
<path style="stroke:rgb(25.1%,38.8%,84.7%);" d="M 401 137 L 390 214 L 367 210 Z M 401 137 "/>
<path style="stroke:rgb(25.1%,38.8%,84.7%);" d="M 401 137 L 367 210 L 341 151 Z M 401 137 "/>
<path style="stroke:rgb(58.4%,34.5%,69.8%);" d="M 341 151 L 369 94 L 401 137 Z M 341 151 "/>
<path style="stroke:rgb(79.6%,23.5%,20%);" d="M 369 94 L 386 84 L 401 137 Z M 369 94 "/>
<path style="stroke:rgb(79.6%,23.5%,20%);" d="M 433 214 L 397 262 L 390 214 Z M 433 214 "/>
<path style="stroke:rgb(58.4%,34.5%,69.8%);" d="M 390 214 L 401 137 L 433 214 Z M 390 214 "/>
<path style="stroke:rgb(58.4%,34.5%,69.8%);" d="M 386 84 L 394 55 L 435 64 Z M 386 84 "/>
<path style="stroke:rgb(22%,59.6%,14.9%);" d="M 299 317 L 390 293 L 438 296 Z M 299 317 "/>
<path style="stroke:rgb(79.6%,23.5%,20%);" d="M 390 293 L 397 262 L 438 296 Z M 390 293 "/>
<path style="stroke:rgb(25.1%,38.8%,84.7%);" d="M 445 12 L 435 64 L 394 55 Z M 445 12 "/>
<path style="stroke:rgb(25.1%,38.8%,84.7%);" d="M 445 12 L 394 55 L 394 10 Z M 445 12 "/>
<path style="stroke:rgb(79.6%,23.5%,20%);" d="M 452 85 L 401 137 L 386 84 Z M 452 85 "/>
<path style="stroke:rgb(25.1%,38.8%,84.7%);" d="M 386 84 L 435 64 L 452 85 Z M 386 84 "/>
<path style="stroke:rgb(58.4%,34.5%,69.8%);" d="M 463 131 L 433 214 L 401 137 Z M 463 131 "/>
<path style="stroke:rgb(79.6%,23.5%,20%);" d="M 401 137 L 452 85 L 463 131 Z M 401 137 "/>
<path style="stroke:rgb(58.4%,34.5%,69.8%);" d="M 397 262 L 433 214 L 467 248 Z M 397 262 "/>
<path style="stroke:rgb(25.1%,38.8%,84.7%);" d="M 467 248 L 438 296 L 397 262 Z M 467 248 "/>
<path style="stroke:rgb(58.4%,34.5%,69.8%);" d="M 433 214 L 463 131 L 484 203 Z M 433 214 "/>
<path style="stroke:rgb(79.6%,23.5%,20%);" d="M 463 131 L 480 137 L 484 203 Z M 463 131 "/>
<path style="stroke:rgb(58.4%,34.5%,69.8%);" d="M 484 203 L 467 248 L 433 214 Z M 484 203 "/>
<path style="stroke:rgb(22%,59.6%,14.9%);" d="M 467 248 L 484 203 L 486 236 Z M 467 248 "/>
<path style="stroke:rgb(79.6%,23.5%,20%);" d="M 501 92 L 480 137 L 463 131 Z M 501 92 "/>
<path style="stroke:rgb(25.1%,38.8%,84.7%);" d="M 501 92 L 463 131 L 452 85 Z M 501 92 "/>
<path style="stroke:rgb(22%,59.6%,14.9%);" d="M 299 317 L 438 296 L 510 313 Z M 299 317 "/>
<path style="stroke:rgb(25.1%,38.8%,84.7%);" d="M 438 296 L 467 248 L 510 313 Z M 438 296 "/>
<path style="stroke:rgb(79.6%,23.5%,20%);" d="M 467 248 L 486 236 L 510 313 Z M 467 248 "/>
<path style="stroke:rgb(79.6%,23.5%,20%);" d="M 435 64 L 445 12 L 512 33 Z M 435 64 "/>
<path style="stroke:rgb(58.4%,34.5%,69.8%);" d="M 512 33 L 452 85 L 435 64 Z M 512 33 "/>
<path style="stroke:rgb(58.4%,34.5%,69.8%);" d="M 512 33 L 501 92 L 452 85 Z M 512 33 "/>
<path style="stroke:rgb(79.6%,23.5%,20%);" d="M 514 4 L 512 33 L 445 12 Z M 514 4 "/>
<path style="stroke:rgb(58.4%,34.5%,69.8%);" d="M 530 313 L 510 313 L 486 236 Z M 530 313 "/>
<path style="stroke:rgb(22%,59.6%,14.9%);" d="M 542 200 L 484 203 L 480 137 Z M 542 200 "/>
<path style="stroke:rgb(25.1%,38.8%,84.7%);" d="M 542 200 L 486 236 L 484 203 Z M 542 200 "/>
<path style="stroke:rgb(22%,59.6%,14.9%);" d="M 543 256 L 530 313 L 486 236 Z M 543 256 "/>
<path style="stroke:rgb(79.6%,23.5%,20%);" d="M 486 236 L 542 200 L 543 256 Z M 486 236 "/>
<path style="stroke:rgb(25.1%,38.8%,84.7%);" d="M 545 -12 L 394 10 L 292 2 Z M 545 -12 "/>
<path style="stroke:rgb(22%,59.6%,14.9%);" d="M 545 -12 L 514 4 L 445 12 Z M 545 -12 "/>
<path style="stroke:rgb(25.1%,38.8%,84.7%);" d="M 545 -12 L 445 12 L 394 10 Z M 545 -12 "/>
<path style="stroke:rgb(79.6%,23.5%,20%);" d="M 512 33 L 514 4 L 545 -12 Z M 512 33 "/>
<path style="stroke:rgb(22%,59.6%,14.9%);" d="M 480 137 L 501 92 L 546 98 Z M 480 137 "/>
<path style="stroke:rgb(25.1%,38.8%,84.7%);" d="M 501 92 L 512 33 L 546 98 Z M 501 92 "/>
<path style="stroke:rgb(58.4%,34.5%,69.8%);" d="M 562 164 L 542 200 L 480 137 Z M 562 164 "/>
<path style="stroke:rgb(79.6%,23.5%,20%);" d="M 480 137 L 546 98 L 562 164 Z M 480 137 "/>
<path style="stroke:rgb(79.6%,23.5%,20%);" d="M 512 33 L 545 -12 L 570 41 Z M 512 33 "/>
<path style="stroke:rgb(79.6%,23.5%,20%);" d="M 570 41 L 546 98 L 512 33 Z M 570 41 "/>
<path style="stroke:rgb(25.1%,38.8%,84.7%);" d="M 530 313 L 543 256 L 584 266 Z M 530 313 "/>
<path style="stroke:rgb(79.6%,23.5%,20%);" d="M 584 266 L 543 256 L 542 200 Z M 584 266 "/>
<path style="stroke:rgb(22%,59.6%,14.9%);" d="M 585 119 L 562 164 L 546 98 Z M 585 119 "/>
<path style="stroke:rgb(79.6%,23.5%,20%);" d="M 546 98 L 570 41 L 585 119 Z M 546 98 "/>
<path style="stroke:rgb(79.6%,23.5%,20%);" d="M 562 164 L 585 119 L 603 155 Z M 562 164 "/>
<path style="stroke:rgb(79.6%,23.5%,20%);" d="M 530 313 L 584 266 L 608 292 Z M 530 313 "/>
<path style="stroke:rgb(22%,59.6%,14.9%);" d="M 542 200 L 562 164 L 613 202 Z M 542 200 "/>
<path style="stroke:rgb(22%,59.6%,14.9%);" d="M 562 164 L 603 155 L 613 202 Z M 562 164 "/>
<path style="stroke:rgb(25.1%,38.8%,84.7%);" d="M 613 202 L 584 266 L 542 200 Z M 613 202 "/>
<path style="stroke:rgb(25.1%,38.8%,84.7%);" d="M 615 -17 L 612 30 L 570 41 Z M 615 -17 "/>
<path style="stroke:rgb(22%,59.6%,14.9%);" d="M 615 -17 L 570 41 L 545 -12 Z M 615 -17 "/>
<path style="stroke:rgb(22%,59.6%,14.9%);" d="M 632 68 L 585 119 L 570 41 Z M 632 68 "/>
<path style="stroke:rgb(58.4%,34.5%,69.8%);" d="M 570 41 L 612 30 L 632 68 Z M 570 41 "/>
<path style="stroke:rgb(22%,59.6%,14.9%);" d="M 635 270 L 608 292 L 584 266 Z M 635 270 "/>
<path style="stroke:rgb(79.6%,23.5%,20%);" d="M 584 266 L 613 202 L 635 270 Z M 584 266 "/>
<path style="stroke:rgb(25.1%,38.8%,84.7%);" d="M 637 206 L 613 202 L 603 155 Z M 637 206 "/>
<path style="stroke:rgb(58.4%,34.5%,69.8%);" d="M 637 206 L 635 270 L 613 202 Z M 637 206 "/>
<path style="stroke:rgb(22%,59.6%,14.9%);" d="M 608 292 L 635 270 L 640 284 Z M 608 292 "/>
<path style="stroke:rgb(22%,59.6%,14.9%);" d="M 585 119 L 632 68 L 647 94 Z M 585 119 "/>
<path style="stroke:rgb(79.6%,23.5%,20%);" d="M 650 147 L 603 155 L 585 119 Z M 650 147 "/>
<path style="stroke:rgb(22%,59.6%,14.9%);" d="M 585 119 L 647 94 L 650 147 Z M 585 119 "/>
<path style="stroke:rgb(58.4%,34.5%,69.8%);" d="M 650 147 L 637 206 L 603 155 Z M 650 147 "/>
<path style="stroke:rgb(79.6%,23.5%,20%);" d="M 612 30 L 615 -17 L 661 -4 Z M 612 30 "/>
<path style="stroke:rgb(22%,59.6%,14.9%);" d="M 661 -4 L 632 68 L 612 30 Z M 661 -4 "/>
<path style="stroke:rgb(25.1%,38.8%,84.7%);" d="M 637 206 L 650 147 L 684 157 Z M 637 206 "/>
<path style="stroke:rgb(25.1%,38.8%,84.7%);" d="M 705 113 L 684 157 L 650 147 Z M 705 113 "/>
<path style="stroke:rgb(25.1%,38.8%,84.7%);" d="M 705 113 L 650 147 L 647 94 Z M 705 113 "/>
<path style="stroke:rgb(58.4%,34.5%,69.8%);" d="M 706 286 L 640 284 L 635 270 Z M 706 286 "/>
<path style="stroke:rgb(22%,59.6%,14.9%);" d="M 632 68 L 661 -4 L 708 10 Z M 632 68 "/>
<path style="stroke:rgb(58.4%,34.5%,69.8%);" d="M 635 270 L 637 206 L 711 216 Z M 635 270 "/>
<path style="stroke:rgb(58.4%,34.5%,69.8%);" d="M 637 206 L 684 157 L 711 216 Z M 637 206 "/>
<path style="stroke:rgb(22%,59.6%,14.9%);" d="M 715 268 L 706 286 L 635 270 Z M 715 268 "/>
<path style="stroke:rgb(58.4%,34.5%,69.8%);" d="M 635 270 L 711 216 L 715 268 Z M 635 270 "/>
<path style="stroke:rgb(22%,59.6%,14.9%);" d="M 718 67 L 647 94 L 632 68 Z M 718 67 "/>
<path style="stroke:rgb(79.6%,23.5%,20%);" d="M 632 68 L 708 10 L 718 67 Z M 632 68 "/>
<path style="stroke:rgb(22%,59.6%,14.9%);" d="M 718 67 L 705 113 L 647 94 Z M 718 67 "/>
<path style="stroke:rgb(79.6%,23.5%,20%);" d="M 732 196 L 711 216 L 684 157 Z M 732 196 "/>
<path style="stroke:rgb(79.6%,23.5%,20%);" d="M 705 113 L 718 67 L 734 98 Z M 705 113 "/>
<path style="stroke:rgb(22%,59.6%,14.9%);" d="M 736 64 L 734 98 L 718 67 Z M 736 64 "/>
<path style="stroke:rgb(25.1%,38.8%,84.7%);" d="M 736 64 L 718 67 L 708 10 Z M 736 64 "/>
<path style="stroke:rgb(25.1%,38.8%,84.7%);" d="M 706 286 L 715 268 L 738 270 Z M 706 286 "/>
<path style="stroke:rgb(58.4%,34.5%,69.8%);" d="M 738 270 L 715 268 L 711 216 Z M 738 270 "/>
<path style="stroke:rgb(79.6%,23.5%,20%);" d="M 750 11 L 708 10 L 661 -4 Z M 750 11 "/>
<path style="stroke:rgb(79.6%,23.5%,20%);" d="M 750 11 L 736 64 L 708 10 Z M 750 11 "/>
<path style="stroke:rgb(58.4%,34.5%,69.8%);" d="M 530 313 L 608 292 L 756 307 Z M 530 313 "/>
<path style="stroke:rgb(25.1%,38.8%,84.7%);" d="M 608 292 L 640 284 L 756 307 Z M 608 292 "/>
<path style="stroke:rgb(58.4%,34.5%,69.8%);" d="M 640 284 L 706 286 L 756 307 Z M 640 284 "/>
<path style="stroke:rgb(79.6%,23.5%,20%);" d="M 706 286 L 738 270 L 756 307 Z M 706 286 "/>
<path style="stroke:rgb(79.6%,23.5%,20%);" d="M 684 157 L 705 113 L 764 133 Z M 684 157 "/>
<path style="stroke:rgb(22%,59.6%,14.9%);" d="M 764 133 L 732 196 L 684 157 Z M 764 133 "/>
<path style="stroke:rgb(58.4%,34.5%,69.8%);" d="M 705 113 L 734 98 L 764 133 Z M 705 113 "/>
<path style="stroke:rgb(79.6%,23.5%,20%);" d="M 734 98 L 736 64 L 780 107 Z M 734 98 "/>
<path style="stroke:rgb(79.6%,23.5%,20%);" d="M 780 107 L 764 133 L 734 98 Z M 780 107 "/>
<path style="stroke:rgb(25.1%,38.8%,84.7%);" d="M 736 64 L 750 11 L 781 9 Z M 736 64 "/>
<path style="stroke:rgb(58.4%,34.5%,69.8%);" d="M 711 216 L 732 196 L 784 239 Z M 711 216 "/>
<path style="stroke:rgb(79.6%,23.5%,20%);" d="M 784 239 L 738 270 L 711 216 Z M 784 239 "/>
<path style="stroke:rgb(79.6%,23.5%,20%);" d="M 784 239 L 756 307 L 738 270 Z M 784 239 "/>
<path style="stroke:rgb(79.6%,23.5%,20%);" d="M 732 196 L 764 133 L 796 198 Z M 732 196 "/>
<path style="stroke:rgb(22%,59.6%,14.9%);" d="M 796 198 L 784 239 L 732 196 Z M 796 198 "/>
<path style="stroke:rgb(79.6%,23.5%,20%);" d="M 756 307 L 784 239 L 814 294 Z M 756 307 "/>
<path style="stroke:rgb(25.1%,38.8%,84.7%);" d="M 816 69 L 780 107 L 736 64 Z M 816 69 "/>
<path style="stroke:rgb(79.6%,23.5%,20%);" d="M 736 64 L 781 9 L 816 69 Z M 736 64 "/>
<path style="stroke:rgb(22%,59.6%,14.9%);" d="M 764 133 L 780 107 L 816 138 Z M 764 133 "/>
<path style="stroke:rgb(22%,59.6%,14.9%);" d="M 816 138 L 796 198 L 764 133 Z M 816 138 "/>
<path style="stroke:rgb(58.4%,34.5%,69.8%);" d="M 796 198 L 816 138 L 843 162 Z M 796 198 "/>
<path style="stroke:rgb(79.6%,23.5%,20%);" d="M 848 66 L 816 69 L 781 9 Z M 848 66 "/>
<path style="stroke:rgb(22%,59.6%,14.9%);" d="M 780 107 L 816 69 L 848 111 Z M 780 107 "/>
<path style="stroke:rgb(22%,59.6%,14.9%);" d="M 848 111 L 816 138 L 780 107 Z M 848 111 "/>
<path style="stroke:rgb(79.6%,23.5%,20%);" d="M 848 111 L 843 162 L 816 138 Z M 848 111 "/>
<path style="stroke:rgb(22%,59.6%,14.9%);" d="M 816 69 L 848 66 L 848 111 Z M 816 69 "/>
<path style="stroke:rgb(25.1%,38.8%,84.7%);" d="M 784 239 L 796 198 L 848 246 Z M 784 239 "/>
<path style="stroke:rgb(79.6%,23.5%,20%);" d="M 848 246 L 836 288 L 814 294 Z M 848 246 "/>
<path style="stroke:rgb(22%,59.6%,14.9%);" d="M 848 246 L 814 294 L 784 239 Z M 848 246 "/>
<path style="stroke:rgb(25.1%,38.8%,84.7%);" d="M 796 198 L 843 162 L 864 217 Z M 796 198 "/>
<path style="stroke:rgb(79.6%,23.5%,20%);" d="M 864 217 L 848 246 L 796 198 Z M 864 217 "/>
<path style="stroke:rgb(25.1%,38.8%,84.7%);" d="M 867 -19 L 781 9 L 750 11 Z M 867 -19 "/>
<path style="stroke:rgb(58.4%,34.5%,69.8%);" d="M 867 -19 L 750 11 L 661 -4 Z M 867 -19 "/>
<path style="stroke:rgb(25.1%,38.8%,84.7%);" d="M 867 -19 L 661 -4 L 615 -17 Z M 867 -19 "/>
<path style="stroke:rgb(25.1%,38.8%,84.7%);" d="M 867 -19 L 848 66 L 781 9 Z M 867 -19 "/>
<path style="stroke:rgb(25.1%,38.8%,84.7%);" d="M 836 288 L 848 246 L 881 259 Z M 836 288 "/>
<path style="stroke:rgb(79.6%,23.5%,20%);" d="M 848 246 L 864 217 L 881 259 Z M 848 246 "/>
<path style="stroke:rgb(25.1%,38.8%,84.7%);" d="M 888 187 L 864 217 L 843 162 Z M 888 187 "/>
<path style="stroke:rgb(25.1%,38.8%,84.7%);" d="M 848 66 L 867 -19 L 901 19 Z M 848 66 "/>
<path style="stroke:rgb(58.4%,34.5%,69.8%);" d="M 848 66 L 901 19 L 911 55 Z M 848 66 "/>
<path style="stroke:rgb(58.4%,34.5%,69.8%);" d="M 843 162 L 848 111 L 915 163 Z M 843 162 "/>
<path style="stroke:rgb(22%,59.6%,14.9%);" d="M 915 163 L 888 187 L 843 162 Z M 915 163 "/>
<path style="stroke:rgb(79.6%,23.5%,20%);" d="M 916 96 L 848 111 L 848 66 Z M 916 96 "/>
<path style="stroke:rgb(22%,59.6%,14.9%);" d="M 848 66 L 911 55 L 916 96 Z M 848 66 "/>
<path style="stroke:rgb(79.6%,23.5%,20%);" d="M 916 96 L 915 163 L 848 111 Z M 916 96 "/>
<path style="stroke:rgb(79.6%,23.5%,20%);" d="M 836 288 L 881 259 L 919 289 Z M 836 288 "/>
<path style="stroke:rgb(25.1%,38.8%,84.7%);" d="M 888 187 L 915 163 L 933 184 Z M 888 187 "/>
<path style="stroke:rgb(22%,59.6%,14.9%);" d="M 937 30 L 911 55 L 901 19 Z M 937 30 "/>
<path style="stroke:rgb(22%,59.6%,14.9%);" d="M 915 163 L 916 96 L 938 119 Z M 915 163 "/>
<path style="stroke:rgb(25.1%,38.8%,84.7%);" d="M 938 238 L 881 259 L 864 217 Z M 938 238 "/>
<path style="stroke:rgb(58.4%,34.5%,69.8%);" d="M 864 217 L 888 187 L 938 238 Z M 864 217 "/>
<path style="stroke:rgb(58.4%,34.5%,69.8%);" d="M 888 187 L 933 184 L 938 238 Z M 888 187 "/>
<path style="stroke:rgb(22%,59.6%,14.9%);" d="M 938 238 L 919 289 L 881 259 Z M 938 238 "/>
<path style="stroke:rgb(58.4%,34.5%,69.8%);" d="M 949 17 L 937 30 L 901 19 Z M 949 17 "/>
<path style="stroke:rgb(22%,59.6%,14.9%);" d="M 949 17 L 901 19 L 867 -19 Z M 949 17 "/>
<path style="stroke:rgb(22%,59.6%,14.9%);" d="M 966 156 L 933 184 L 915 163 Z M 966 156 "/>
<path style="stroke:rgb(22%,59.6%,14.9%);" d="M 915 163 L 938 119 L 966 156 Z M 915 163 "/>
<path style="stroke:rgb(22%,59.6%,14.9%);" d="M 756 307 L 814 294 L 968 318 Z M 756 307 "/>
<path style="stroke:rgb(25.1%,38.8%,84.7%);" d="M 814 294 L 836 288 L 968 318 Z M 814 294 "/>
<path style="stroke:rgb(25.1%,38.8%,84.7%);" d="M 836 288 L 919 289 L 968 318 Z M 836 288 "/>
<path style="stroke:rgb(25.1%,38.8%,84.7%);" d="M 919 289 L 938 238 L 968 318 Z M 919 289 "/>
<path style="stroke:rgb(58.4%,34.5%,69.8%);" d="M 986 60 L 916 96 L 911 55 Z M 986 60 "/>
<path style="stroke:rgb(58.4%,34.5%,69.8%);" d="M 911 55 L 937 30 L 986 60 Z M 911 55 "/>
<path style="stroke:rgb(58.4%,34.5%,69.8%);" d="M 937 30 L 949 17 L 986 60 Z M 937 30 "/>
<path style="stroke:rgb(79.6%,23.5%,20%);" d="M 987 96 L 938 119 L 916 96 Z M 987 96 "/>
<path style="stroke:rgb(22%,59.6%,14.9%);" d="M 916 96 L 986 60 L 987 96 Z M 916 96 "/>
<path style="stroke:rgb(25.1%,38.8%,84.7%);" d="M 987 96 L 966 156 L 938 119 Z M 987 96 "/>
<path style="stroke:rgb(79.6%,23.5%,20%);" d="M 999 252 L 968 318 L 938 238 Z M 999 252 "/>
<path style="stroke:rgb(58.4%,34.5%,69.8%);" d="M 968 318 L 999 252 L 1005 310 Z M 968 318 "/>
<path style="stroke:rgb(25.1%,38.8%,84.7%);" d="M 1011 185 L 999 252 L 938 238 Z M 1011 185 "/>
<path style="stroke:rgb(22%,59.6%,14.9%);" d="M 1011 185 L 938 238 L 933 184 Z M 1011 185 "/>
<path style="stroke:rgb(58.4%,34.5%,69.8%);" d="M 933 184 L 966 156 L 1011 185 Z M 933 184 "/>
<path style="stroke:rgb(79.6%,23.5%,20%);" d="M 966 156 L 987 96 L 1012 132 Z M 966 156 "/>
<path style="stroke:rgb(25.1%,38.8%,84.7%);" d="M 1012 132 L 1011 185 L 966 156 Z M 1012 132 "/>
<path style="stroke:rgb(25.1%,38.8%,84.7%);" d="M 1018 -8 L 949 17 L 867 -19 Z M 1018 -8 "/>
<path style="stroke:rgb(22%,59.6%,14.9%);" d="M 1018 -8 L 986 60 L 949 17 Z M 1018 -8 "/>
<path style="stroke:rgb(25.1%,38.8%,84.7%);" d="M 1034 294 L 1005 310 L 999 252 Z M 1034 294 "/>
<path style="stroke:rgb(79.6%,23.5%,20%);" d="M 986 60 L 1018 -8 L 1037 -3 Z M 986 60 "/>
<path style="stroke:rgb(22%,59.6%,14.9%);" d="M 1050 62 L 987 96 L 986 60 Z M 1050 62 "/>
<path style="stroke:rgb(25.1%,38.8%,84.7%);" d="M 986 60 L 1037 -3 L 1050 62 Z M 986 60 "/>
<path style="stroke:rgb(22%,59.6%,14.9%);" d="M 1053 264 L 1034 294 L 999 252 Z M 1053 264 "/>
<path style="stroke:rgb(58.4%,34.5%,69.8%);" d="M 1056 99 L 1012 132 L 987 96 Z M 1056 99 "/>
<path style="stroke:rgb(79.6%,23.5%,20%);" d="M 987 96 L 1050 62 L 1056 99 Z M 987 96 "/>
<path style="stroke:rgb(22%,59.6%,14.9%);" d="M 1011 185 L 1012 132 L 1058 157 Z M 1011 185 "/>
<path style="stroke:rgb(58.4%,34.5%,69.8%);" d="M 1012 132 L 1056 99 L 1058 157 Z M 1012 132 "/>
<path style="stroke:rgb(79.6%,23.5%,20%);" d="M 999 252 L 1011 185 L 1063 216 Z M 999 252 "/>
<path style="stroke:rgb(58.4%,34.5%,69.8%);" d="M 1063 216 L 1053 264 L 999 252 Z M 1063 216 "/>
<path style="stroke:rgb(22%,59.6%,14.9%);" d="M 1011 185 L 1058 157 L 1063 216 Z M 1011 185 "/>
<path style="stroke:rgb(25.1%,38.8%,84.7%);" d="M 968 318 L 1005 310 L 1090 302 Z M 968 318 "/>
<path style="stroke:rgb(58.4%,34.5%,69.8%);" d="M 1005 310 L 1034 294 L 1090 302 Z M 1005 310 "/>
<path style="stroke:rgb(22%,59.6%,14.9%);" d="M 1034 294 L 1053 264 L 1090 302 Z M 1034 294 "/>
<path style="stroke:rgb(25.1%,38.8%,84.7%);" d="M 1104 16 L 1050 62 L 1037 -3 Z M 1104 16 "/>
<path style="stroke:rgb(25.1%,38.8%,84.7%);" d="M 1104 81 L 1056 99 L 1050 62 Z M 1104 81 "/>
<path style="stroke:rgb(58.4%,34.5%,69.8%);" d="M 1050 62 L 1104 16 L 1106 56 Z M 1050 62 "/>
<path style="stroke:rgb(79.6%,23.5%,20%);" d="M 1106 56 L 1104 81 L 1050 62 Z M 1106 56 "/>
<path style="stroke:rgb(58.4%,34.5%,69.8%);" d="M 1109 133 L 1058 157 L 1056 99 Z M 1109 133 "/>
<path style="stroke:rgb(22%,59.6%,14.9%);" d="M 1056 99 L 1104 81 L 1109 133 Z M 1056 99 "/>
<path style="stroke:rgb(58.4%,34.5%,69.8%);" d="M 1053 264 L 1063 216 L 1115 259 Z M 1053 264 "/>
<path style="stroke:rgb(79.6%,23.5%,20%);" d="M 1115 259 L 1090 302 L 1053 264 Z M 1115 259 "/>
<path style="stroke:rgb(79.6%,23.5%,20%);" d="M 1120 215 L 1063 216 L 1058 157 Z M 1120 215 "/>
<path style="stroke:rgb(22%,59.6%,14.9%);" d="M 1058 157 L 1109 133 L 1120 215 Z M 1058 157 "/>
<path style="stroke:rgb(79.6%,23.5%,20%);" d="M 1120 215 L 1115 259 L 1063 216 Z M 1120 215 "/>
<path style="stroke:rgb(58.4%,34.5%,69.8%);" d="M 1115 259 L 1120 215 L 1136 214 Z M 1115 259 "/>
<path style="stroke:rgb(79.6%,23.5%,20%);" d="M 1090 302 L 1115 259 L 1136 270 Z M 1090 302 "/>
<path style="stroke:rgb(25.1%,38.8%,84.7%);" d="M 1115 259 L 1136 214 L 1136 270 Z M 1115 259 "/>
<path style="stroke:rgb(79.6%,23.5%,20%);" d="M 1104 81 L 1106 56 L 1141 88 Z M 1104 81 "/>
<path style="stroke:rgb(79.6%,23.5%,20%);" d="M 1141 88 L 1109 133 L 1104 81 Z M 1141 88 "/>
<path style="stroke:rgb(25.1%,38.8%,84.7%);" d="M 1150 67 L 1141 88 L 1106 56 Z M 1150 67 "/>
<path style="stroke:rgb(58.4%,34.5%,69.8%);" d="M 1150 67 L 1106 56 L 1104 16 Z M 1150 67 "/>
<path style="stroke:rgb(25.1%,38.8%,84.7%);" d="M 1151 146 L 1136 214 L 1120 215 Z M 1151 146 "/>
<path style="stroke:rgb(22%,59.6%,14.9%);" d="M 1151 146 L 1120 215 L 1109 133 Z M 1151 146 "/>
<path style="stroke:rgb(22%,59.6%,14.9%);" d="M 1109 133 L 1141 88 L 1151 146 Z M 1109 133 "/>
<path style="stroke:rgb(58.4%,34.5%,69.8%);" d="M 1090 302 L 1136 270 L 1156 295 Z M 1090 302 "/>
<path style="stroke:rgb(58.4%,34.5%,69.8%);" d="M 1157 6 L 1104 16 L 1037 -3 Z M 1157 6 "/>
<path style="stroke:rgb(79.6%,23.5%,20%);" d="M 1157 6 L 1150 67 L 1104 16 Z M 1157 6 "/>
<path style="stroke:rgb(25.1%,38.8%,84.7%);" d="M 1150 67 L 1157 6 L 1191 50 Z M 1150 67 "/>
<path style="stroke:rgb(79.6%,23.5%,20%);" d="M 1136 214 L 1151 146 L 1195 187 Z M 1136 214 "/>
<path style="stroke:rgb(25.1%,38.8%,84.7%);" d="M 1141 88 L 1150 67 L 1201 118 Z M 1141 88 "/>
<path style="stroke:rgb(22%,59.6%,14.9%);" d="M 1150 67 L 1191 50 L 1201 118 Z M 1150 67 "/>
<path style="stroke:rgb(25.1%,38.8%,84.7%);" d="M 1201 118 L 1151 146 L 1141 88 Z M 1201 118 "/>
<path style="stroke:rgb(58.4%,34.5%,69.8%);" d="M 1204 4 L 1191 50 L 1157 6 Z M 1204 4 "/>
<path style="stroke:rgb(58.4%,34.5%,69.8%);" d="M 1207 238 L 1156 295 L 1136 270 Z M 1207 238 "/>
<path style="stroke:rgb(22%,59.6%,14.9%);" d="M 1207 238 L 1136 270 L 1136 214 Z M 1207 238 "/>
<path style="stroke:rgb(79.6%,23.5%,20%);" d="M 1136 214 L 1195 187 L 1207 238 Z M 1136 214 "/>
<path style="stroke:rgb(25.1%,38.8%,84.7%);" d="M 1215 150 L 1195 187 L 1151 146 Z M 1215 150 "/>
<path style="stroke:rgb(79.6%,23.5%,20%);" d="M 1151 146 L 1201 118 L 1215 150 Z M 1151 146 "/>
<path style="stroke:rgb(58.4%,34.5%,69.8%);" d="M 1156 295 L 1207 238 L 1220 304 Z M 1156 295 "/>
<path style="stroke:rgb(58.4%,34.5%,69.8%);" d="M 1242 218 L 1207 238 L 1195 187 Z M 1242 218 "/>
<path style="stroke:rgb(58.4%,34.5%,69.8%);" d="M 1195 187 L 1215 150 L 1242 218 Z M 1195 187 "/>
<path style="stroke:rgb(22%,59.6%,14.9%);" d="M 1244 141 L 1215 150 L 1201 118 Z M 1244 141 "/>
<path style="stroke:rgb(22%,59.6%,14.9%);" d="M 1244 141 L 1242 218 L 1215 150 Z M 1244 141 "/>
<path style="stroke:rgb(22%,59.6%,14.9%);" d="M 968 318 L 1090 302 L 1245 320 Z M 968 318 "/>
<path style="stroke:rgb(79.6%,23.5%,20%);" d="M 1090 302 L 1156 295 L 1245 320 Z M 1090 302 "/>
<path style="stroke:rgb(79.6%,23.5%,20%);" d="M 1156 295 L 1220 304 L 1245 320 Z M 1156 295 "/>
<path style="stroke:rgb(22%,59.6%,14.9%);" d="M 1253 -17 L 1157 6 L 1037 -3 Z M 1253 -17 "/>
<path style="stroke:rgb(22%,59.6%,14.9%);" d="M 1253 -17 L 1037 -3 L 1018 -8 Z M 1253 -17 "/>
<path style="stroke:rgb(58.4%,34.5%,69.8%);" d="M 1253 -17 L 1204 4 L 1157 6 Z M 1253 -17 "/>
<path style="stroke:rgb(25.1%,38.8%,84.7%);" d="M 1255 253 L 1220 304 L 1207 238 Z M 1255 253 "/>
<path style="stroke:rgb(22%,59.6%,14.9%);" d="M 1207 238 L 1242 218 L 1255 253 Z M 1207 238 "/>
<path style="stroke:rgb(25.1%,38.8%,84.7%);" d="M 1255 253 L 1245 320 L 1220 304 Z M 1255 253 "/>
<path style="stroke:rgb(22%,59.6%,14.9%);" d="M 1191 50 L 1204 4 L 1257 33 Z M 1191 50 "/>
<path style="stroke:rgb(58.4%,34.5%,69.8%);" d="M 1204 4 L 1253 -17 L 1257 33 Z M 1204 4 "/>
<path style="stroke:rgb(58.4%,34.5%,69.8%);" d="M 1258 109 L 1244 141 L 1201 118 Z M 1258 109 "/>
<path style="stroke:rgb(58.4%,34.5%,69.8%);" d="M 1258 109 L 1201 118 L 1191 50 Z M 1258 109 "/>
<path style="stroke:rgb(79.6%,23.5%,20%);" d="M 1191 50 L 1257 33 L 1258 109 Z M 1191 50 "/>
<path style="stroke:rgb(79.6%,23.5%,20%);" d="M 1282 81 L 1258 109 L 1257 33 Z M 1282 81 "/>
<path style="stroke:rgb(79.6%,23.5%,20%);" d="M 1245 320 L 1255 253 L 1284 286 Z M 1245 320 "/>
<path style="stroke:rgb(58.4%,34.5%,69.8%);" d="M 1285 234 L 1284 286 L 1255 253 Z M 1285 234 "/>
<path style="stroke:rgb(25.1%,38.8%,84.7%);" d="M 1285 234 L 1255 253 L 1242 218 Z M 1285 234 "/>
<path style="stroke:rgb(25.1%,38.8%,84.7%);" d="M 1294 220 L 1285 234 L 1242 218 Z M 1294 220 "/>
<path style="stroke:rgb(25.1%,38.8%,84.7%);" d="M 1301 -6 L 1257 33 L 1253 -17 Z M 1301 -6 "/>
<path style="stroke:rgb(58.4%,34.5%,69.8%);" d="M 1244 141 L 1258 109 L 1302 151 Z M 1244 141 "/>
<path style="stroke:rgb(25.1%,38.8%,84.7%);" d="M 1258 109 L 1282 81 L 1302 151 Z M 1258 109 "/>
<path style="stroke:rgb(58.4%,34.5%,69.8%);" d="M 1242 218 L 1244 141 L 1302 151 Z M 1242 218 "/>
<path style="stroke:rgb(25.1%,38.8%,84.7%);" d="M 1302 151 L 1294 220 L 1242 218 Z M 1302 151 "/>
<path style="stroke:rgb(58.4%,34.5%,69.8%);" d="M 1305 32 L 1282 81 L 1257 33 Z M 1305 32 "/>
<path style="stroke:rgb(22%,59.6%,14.9%);" d="M 1257 33 L 1301 -6 L 1305 32 Z M 1257 33 "/>
<path style="stroke:rgb(79.6%,23.5%,20%);" d="M 1332 34 L 1305 32 L 1301 -6 Z M 1332 34 "/>
<path style="stroke:rgb(79.6%,23.5%,20%);" d="M 1282 81 L 1305 32 L 1332 34 Z M 1282 81 "/>
<path style="stroke:rgb(22%,59.6%,14.9%);" d="M 1294 220 L 1302 151 L 1336 192 Z M 1294 220 "/>
<path style="stroke:rgb(79.6%,23.5%,20%);" d="M 1284 286 L 1285 234 L 1337 268 Z M 1284 286 "/>
<path style="stroke:rgb(79.6%,23.5%,20%);" d="M 1285 234 L 1294 220 L 1337 268 Z M 1285 234 "/>
<path style="stroke:rgb(22%,59.6%,14.9%);" d="M 1294 220 L 1336 192 L 1337 268 Z M 1294 220 "/>
<path style="stroke:rgb(22%,59.6%,14.9%);" d="M 1340 -6 L 1301 -6 L 1253 -17 Z M 1340 -6 "/>
<path style="stroke:rgb(22%,59.6%,14.9%);" d="M 1340 -6 L 1332 34 L 1301 -6 Z M 1340 -6 "/>
<path style="stroke:rgb(22%,59.6%,14.9%);" d="M 1245 320 L 1284 286 L 1348 289 Z M 1245 320 "/>
<path style="stroke:rgb(22%,59.6%,14.9%);" d="M 1284 286 L 1337 268 L 1348 289 Z M 1284 286 "/>
<path style="stroke:rgb(79.6%,23.5%,20%);" d="M 1353 80 L 1302 151 L 1282 81 Z M 1353 80 "/>
<path style="stroke:rgb(58.4%,34.5%,69.8%);" d="M 1282 81 L 1332 34 L 1353 80 Z M 1282 81 "/>
<path style="stroke:rgb(25.1%,38.8%,84.7%);" d="M 1366 155 L 1336 192 L 1302 151 Z M 1366 155 "/>
<path style="stroke:rgb(25.1%,38.8%,84.7%);" d="M 1302 151 L 1353 80 L 1366 155 Z M 1302 151 "/>
<path style="stroke:rgb(25.1%,38.8%,84.7%);" d="M 1332 34 L 1340 -6 L 1388 42 Z M 1332 34 "/>
<path style="stroke:rgb(79.6%,23.5%,20%);" d="M 1388 42 L 1353 80 L 1332 34 Z M 1388 42 "/>
<path style="stroke:rgb(79.6%,23.5%,20%);" d="M 1389 284 L 1348 289 L 1337 268 Z M 1389 284 "/>
<path style="stroke:rgb(79.6%,23.5%,20%);" d="M 1401 -16 L 1340 -6 L 1253 -17 Z M 1401 -16 "/>
<path style="stroke:rgb(25.1%,38.8%,84.7%);" d="M 1401 -16 L 1388 42 L 1340 -6 Z M 1401 -16 "/>
<path style="stroke:rgb(25.1%,38.8%,84.7%);" d="M 1408 232 L 1389 284 L 1337 268 Z M 1408 232 "/>
<path style="stroke:rgb(25.1%,38.8%,84.7%);" d="M 1408 232 L 1337 268 L 1336 192 Z M 1408 232 "/>
<path style="stroke:rgb(58.4%,34.5%,69.8%);" d="M 1336 192 L 1366 155 L 1414 184 Z M 1336 192 "/>
<path style="stroke:rgb(58.4%,34.5%,69.8%);" d="M 1366 155 L 1399 159 L 1414 184 Z M 1366 155 "/>
<path style="stroke:rgb(58.4%,34.5%,69.8%);" d="M 1414 184 L 1408 232 L 1336 192 Z M 1414 184 "/>
<path style="stroke:rgb(22%,59.6%,14.9%);" d="M 1418 88 L 1399 159 L 1366 155 Z M 1418 88 "/>
<path style="stroke:rgb(58.4%,34.5%,69.8%);" d="M 1418 88 L 1366 155 L 1353 80 Z M 1418 88 "/>
<path style="stroke:rgb(22%,59.6%,14.9%);" d="M 1353 80 L 1388 42 L 1418 88 Z M 1353 80 "/>
<path style="stroke:rgb(58.4%,34.5%,69.8%);" d="M 1389 284 L 1408 232 L 1433 280 Z M 1389 284 "/>
<path style="stroke:rgb(58.4%,34.5%,69.8%);" d="M 1399 159 L 1418 88 L 1444 109 Z M 1399 159 "/>
<path style="stroke:rgb(25.1%,38.8%,84.7%);" d="M 1408 232 L 1414 184 L 1449 198 Z M 1408 232 "/>
<path style="stroke:rgb(22%,59.6%,14.9%);" d="M 1450 253 L 1433 280 L 1408 232 Z M 1450 253 "/>
<path style="stroke:rgb(58.4%,34.5%,69.8%);" d="M 1408 232 L 1449 198 L 1450 253 Z M 1408 232 "/>
<path style="stroke:rgb(25.1%,38.8%,84.7%);" d="M 1388 42 L 1401 -16 L 1461 38 Z M 1388 42 "/>
<path style="stroke:rgb(25.1%,38.8%,84.7%);" d="M 1461 38 L 1418 88 L 1388 42 Z M 1461 38 "/>
<path style="stroke:rgb(58.4%,34.5%,69.8%);" d="M 1464 160 L 1414 184 L 1399 159 Z M 1464 160 "/>
<path style="stroke:rgb(79.6%,23.5%,20%);" d="M 1399 159 L 1444 109 L 1464 160 Z M 1399 159 "/>
<path style="stroke:rgb(25.1%,38.8%,84.7%);" d="M 1464 160 L 1449 198 L 1414 184 Z M 1464 160 "/>
<path style="stroke:rgb(58.4%,34.5%,69.8%);" d="M 1465 -10 L 1461 38 L 1401 -16 Z M 1465 -10 "/>
<path style="stroke:rgb(58.4%,34.5%,69.8%);" d="M 1484 60 L 1444 109 L 1418 88 Z M 1484 60 "/>
<path style="stroke:rgb(58.4%,34.5%,69.8%);" d="M 1418 88 L 1461 38 L 1484 60 Z M 1418 88 "/>
<path style="stroke:rgb(79.6%,23.5%,20%);" d="M 1433 280 L 1450 253 L 1492 266 Z M 1433 280 "/>
<path style="stroke:rgb(25.1%,38.8%,84.7%);" d="M 1497 108 L 1464 160 L 1444 109 Z M 1497 108 "/>
<path style="stroke:rgb(79.6%,23.5%,20%);" d="M 1444 109 L 1484 60 L 1497 108 Z M 1444 109 "/>
<path style="stroke:rgb(25.1%,38.8%,84.7%);" d="M 1245 320 L 1348 289 L 1499 317 Z M 1245 320 "/>
<path style="stroke:rgb(25.1%,38.8%,84.7%);" d="M 1348 289 L 1389 284 L 1499 317 Z M 1348 289 "/>
<path style="stroke:rgb(79.6%,23.5%,20%);" d="M 1389 284 L 1433 280 L 1499 317 Z M 1389 284 "/>
<path style="stroke:rgb(25.1%,38.8%,84.7%);" d="M 1433 280 L 1492 266 L 1499 317 Z M 1433 280 "/>
<path style="stroke:rgb(79.6%,23.5%,20%);" d="M 1461 38 L 1465 -10 L 1512 9 Z M 1461 38 "/>
<path style="stroke:rgb(25.1%,38.8%,84.7%);" d="M 1512 9 L 1484 60 L 1461 38 Z M 1512 9 "/>
<path style="stroke:rgb(58.4%,34.5%,69.8%);" d="M 1464 160 L 1497 108 L 1514 137 Z M 1464 160 "/>
<path style="stroke:rgb(58.4%,34.5%,69.8%);" d="M 1519 206 L 1492 266 L 1450 253 Z M 1519 206 "/>
<path style="stroke:rgb(25.1%,38.8%,84.7%);" d="M 1519 206 L 1450 253 L 1449 198 Z M 1519 206 "/>
<path style="stroke:rgb(25.1%,38.8%,84.7%);" d="M 1449 198 L 1464 160 L 1519 206 Z M 1449 198 "/>
<path style="stroke:rgb(22%,59.6%,14.9%);" d="M 1464 160 L 1514 137 L 1533 158 Z M 1464 160 "/>
<path style="stroke:rgb(25.1%,38.8%,84.7%);" d="M 1533 158 L 1519 206 L 1464 160 Z M 1533 158 "/>
<path style="stroke:rgb(58.4%,34.5%,69.8%);" d="M 1539 60 L 1497 108 L 1484 60 Z M 1539 60 "/>
<path style="stroke:rgb(79.6%,23.5%,20%);" d="M 1484 60 L 1512 9 L 1539 60 Z M 1484 60 "/>
<path style="stroke:rgb(58.4%,34.5%,69.8%);" d="M 1492 266 L 1519 206 L 1541 236 Z M 1492 266 "/>
<path style="stroke:rgb(22%,59.6%,14.9%);" d="M 1549 14 L 1539 60 L 1512 9 Z M 1549 14 "/>
<path style="stroke:rgb(25.1%,38.8%,84.7%);" d="M 1519 206 L 1533 158 L 1550 186 Z M 1519 206 "/>
<path style="stroke:rgb(58.4%,34.5%,69.8%);" d="M 1550 186 L 1541 236 L 1519 206 Z M 1550 186 "/>
<path style="stroke:rgb(58.4%,34.5%,69.8%);" d="M 1563 103 L 1514 137 L 1497 108 Z M 1563 103 "/>
<path style="stroke:rgb(25.1%,38.8%,84.7%);" d="M 1497 108 L 1539 60 L 1563 103 Z M 1497 108 "/>
<path style="stroke:rgb(22%,59.6%,14.9%);" d="M 1563 103 L 1533 158 L 1514 137 Z M 1563 103 "/>
<path style="stroke:rgb(58.4%,34.5%,69.8%);" d="M 1570 285 L 1499 317 L 1492 266 Z M 1570 285 "/>
<path style="stroke:rgb(79.6%,23.5%,20%);" d="M 1492 266 L 1541 236 L 1570 285 Z M 1492 266 "/>
<path style="stroke:rgb(22%,59.6%,14.9%);" d="M 1541 236 L 1550 186 L 1582 243 Z M 1541 236 "/>
<path style="stroke:rgb(79.6%,23.5%,20%);" d="M 1582 243 L 1570 285 L 1541 236 Z M 1582 243 "/>
<path style="stroke:rgb(25.1%,38.8%,84.7%);" d="M 1588 81 L 1563 103 L 1539 60 Z M 1588 81 "/>
<path style="stroke:rgb(79.6%,23.5%,20%);" d="M 1591 165 L 1550 186 L 1533 158 Z M 1591 165 "/>
<path style="stroke:rgb(79.6%,23.5%,20%);" d="M 1533 158 L 1563 103 L 1591 165 Z M 1533 158 "/>
<path style="stroke:rgb(79.6%,23.5%,20%);" d="M 1563 103 L 1588 81 L 1591 165 Z M 1563 103 "/>
<path style="stroke:rgb(22%,59.6%,14.9%);" d="M 1599 210 L 1582 243 L 1550 186 Z M 1599 210 "/>
<path style="stroke:rgb(58.4%,34.5%,69.8%);" d="M 1550 186 L 1591 165 L 1599 210 Z M 1550 186 "/>
<path style="stroke:rgb(25.1%,38.8%,84.7%);" d="M 1603 -17 L 1549 14 L 1512 9 Z M 1603 -17 "/>
<path style="stroke:rgb(79.6%,23.5%,20%);" d="M 1603 -17 L 1512 9 L 1465 -10 Z M 1603 -17 "/>
<path style="stroke:rgb(25.1%,38.8%,84.7%);" d="M 1539 60 L 1549 14 L 1612 52 Z M 1539 60 "/>
<path style="stroke:rgb(79.6%,23.5%,20%);" d="M 1612 52 L 1588 81 L 1539 60 Z M 1612 52 "/>
<path style="stroke:rgb(79.6%,23.5%,20%);" d="M 1549 14 L 1603 -17 L 1612 52 Z M 1549 14 "/>
<path style="stroke:rgb(79.6%,23.5%,20%);" d="M 1499 317 L 1570 285 L 1617 320 Z M 1499 317 "/>
<path style="stroke:rgb(58.4%,34.5%,69.8%);" d="M 1570 285 L 1582 243 L 1617 320 Z M 1570 285 "/>
<path style="stroke:rgb(79.6%,23.5%,20%);" d="M 1646 83 L 1591 165 L 1588 81 Z M 1646 83 "/>
<path style="stroke:rgb(79.6%,23.5%,20%);" d="M 1588 81 L 1612 52 L 1646 83 Z M 1588 81 "/>
<path style="stroke:rgb(22%,59.6%,14.9%);" d="M 1582 243 L 1599 210 L 1648 239 Z M 1582 243 "/>
<path style="stroke:rgb(25.1%,38.8%,84.7%);" d="M 1648 239 L 1617 320 L 1582 243 Z M 1648 239 "/>
<path style="stroke:rgb(22%,59.6%,14.9%);" d="M 1656 1 L 1612 52 L 1603 -17 Z M 1656 1 "/>
<path style="stroke:rgb(25.1%,38.8%,84.7%);" d="M 1617 320 L 1648 239 L 1659 312 Z M 1617 320 "/>
<path style="stroke:rgb(58.4%,34.5%,69.8%);" d="M 1669 45 L 1646 83 L 1612 52 Z M 1669 45 "/>
<path style="stroke:rgb(58.4%,34.5%,69.8%);" d="M 1612 52 L 1656 1 L 1669 45 Z M 1612 52 "/>
<path style="stroke:rgb(79.6%,23.5%,20%);" d="M 1591 165 L 1646 83 L 1669 153 Z M 1591 165 "/>
<path style="stroke:rgb(58.4%,34.5%,69.8%);" d="M 1670 182 L 1648 239 L 1599 210 Z M 1670 182 "/>
<path style="stroke:rgb(25.1%,38.8%,84.7%);" d="M 1670 182 L 1599 210 L 1591 165 Z M 1670 182 "/>
<path style="stroke:rgb(58.4%,34.5%,69.8%);" d="M 1591 165 L 1669 153 L 1670 182 Z M 1591 165 "/>
<path style="stroke:rgb(58.4%,34.5%,69.8%);" d="M 1646 83 L 1669 45 L 1683 92 Z M 1646 83 "/>
<path style="stroke:rgb(25.1%,38.8%,84.7%);" d="M 1689 135 L 1669 153 L 1646 83 Z M 1689 135 "/>
<path style="stroke:rgb(79.6%,23.5%,20%);" d="M 1646 83 L 1683 92 L 1689 135 Z M 1646 83 "/>
<path style="stroke:rgb(22%,59.6%,14.9%);" d="M 1689 135 L 1670 182 L 1669 153 Z M 1689 135 "/>
<path style="stroke:rgb(22%,59.6%,14.9%);" d="M 1697 42 L 1683 92 L 1669 45 Z M 1697 42 "/>
<path style="stroke:rgb(79.6%,23.5%,20%);" d="M 1617 320 L 1659 312 L 1697 312 Z M 1617 320 "/>
<path style="stroke:rgb(79.6%,23.5%,20%);" d="M 1697 312 L 1659 312 L 1648 239 Z M 1697 312 "/>
<path style="stroke:rgb(58.4%,34.5%,69.8%);" d="M 1699 270 L 1697 312 L 1648 239 Z M 1699 270 "/>
<path style="stroke:rgb(25.1%,38.8%,84.7%);" d="M 1702 0 L 1656 1 L 1603 -17 Z M 1702 0 "/>
<path style="stroke:rgb(58.4%,34.5%,69.8%);" d="M 1702 0 L 1697 42 L 1669 45 Z M 1702 0 "/>
<path style="stroke:rgb(58.4%,34.5%,69.8%);" d="M 1702 0 L 1669 45 L 1656 1 Z M 1702 0 "/>
<path style="stroke:rgb(79.6%,23.5%,20%);" d="M 1648 239 L 1670 182 L 1712 205 Z M 1648 239 "/>
<path style="stroke:rgb(58.4%,34.5%,69.8%);" d="M 1712 205 L 1699 270 L 1648 239 Z M 1712 205 "/>
<path style="stroke:rgb(58.4%,34.5%,69.8%);" d="M 1670 182 L 1689 135 L 1712 205 Z M 1670 182 "/>
<path style="stroke:rgb(22%,59.6%,14.9%);" d="M 1699 270 L 1712 205 L 1738 212 Z M 1699 270 "/>
<path style="stroke:rgb(25.1%,38.8%,84.7%);" d="M 1697 42 L 1702 0 L 1745 19 Z M 1697 42 "/>
<path style="stroke:rgb(58.4%,34.5%,69.8%);" d="M 1617 320 L 1697 312 L 1753 316 Z M 1617 320 "/>
<path style="stroke:rgb(22%,59.6%,14.9%);" d="M 1697 312 L 1699 270 L 1753 316 Z M 1697 312 "/>
<path style="stroke:rgb(22%,59.6%,14.9%);" d="M 1754 111 L 1689 135 L 1683 92 Z M 1754 111 "/>
<path style="stroke:rgb(58.4%,34.5%,69.8%);" d="M 1699 270 L 1738 212 L 1755 230 Z M 1699 270 "/>
<path style="stroke:rgb(58.4%,34.5%,69.8%);" d="M 1755 230 L 1753 316 L 1699 270 Z M 1755 230 "/>
<path style="stroke:rgb(25.1%,38.8%,84.7%);" d="M 1683 92 L 1697 42 L 1759 68 Z M 1683 92 "/>
<path style="stroke:rgb(22%,59.6%,14.9%);" d="M 1759 68 L 1754 111 L 1683 92 Z M 1759 68 "/>
<path style="stroke:rgb(58.4%,34.5%,69.8%);" d="M 1697 42 L 1745 19 L 1759 68 Z M 1697 42 "/>
<path style="stroke:rgb(58.4%,34.5%,69.8%);" d="M 1765 169 L 1738 212 L 1712 205 Z M 1765 169 "/>
<path style="stroke:rgb(79.6%,23.5%,20%);" d="M 1765 169 L 1712 205 L 1689 135 Z M 1765 169 "/>
<path style="stroke:rgb(58.4%,34.5%,69.8%);" d="M 1689 135 L 1754 111 L 1765 169 Z M 1689 135 "/>
<path style="stroke:rgb(79.6%,23.5%,20%);" d="M 1786 184 L 1755 230 L 1738 212 Z M 1786 184 "/>
<path style="stroke:rgb(79.6%,23.5%,20%);" d="M 1738 212 L 1765 169 L 1786 184 Z M 1738 212 "/>
<path style="stroke:rgb(79.6%,23.5%,20%);" d="M 1786 184 L 1781 231 L 1755 230 Z M 1786 184 "/>
<path style="stroke:rgb(25.1%,38.8%,84.7%);" d="M 1753 316 L 1755 230 L 1790 297 Z M 1753 316 "/>
<path style="stroke:rgb(79.6%,23.5%,20%);" d="M 1755 230 L 1781 231 L 1790 297 Z M 1755 230 "/>
<path style="stroke:rgb(58.4%,34.5%,69.8%);" d="M 1794 137 L 1786 184 L 1765 169 Z M 1794 137 "/>
<path style="stroke:rgb(25.1%,38.8%,84.7%);" d="M 1794 137 L 1765 169 L 1754 111 Z M 1794 137 "/>
<path style="stroke:rgb(22%,59.6%,14.9%);" d="M 1798 1 L 1745 19 L 1702 0 Z M 1798 1 "/>
<path style="stroke:rgb(25.1%,38.8%,84.7%);" d="M 1801 40 L 1759 68 L 1745 19 Z M 1801 40 "/>
<path style="stroke:rgb(58.4%,34.5%,69.8%);" d="M 1745 19 L 1798 1 L 1801 40 Z M 1745 19 "/>
<path style="stroke:rgb(25.1%,38.8%,84.7%);" d="M 1754 111 L 1759 68 L 1817 115 Z M 1754 111 "/>
<path style="stroke:rgb(25.1%,38.8%,84.7%);" d="M 1817 115 L 1794 137 L 1754 111 Z M 1817 115 "/>
<path style="stroke:rgb(58.4%,34.5%,69.8%);" d="M 1759 68 L 1801 40 L 1817 115 Z M 1759 68 "/>
<path style="stroke:rgb(58.4%,34.5%,69.8%);" d="M 1786 184 L 1794 137 L 1835 145 Z M 1786 184 "/>
<path style="stroke:rgb(58.4%,34.5%,69.8%);" d="M 1794 137 L 1817 115 L 1835 145 Z M 1794 137 "/>
<path style="stroke:rgb(25.1%,38.8%,84.7%);" d="M 1842 -18 L 1798 1 L 1702 0 Z M 1842 -18 "/>
<path style="stroke:rgb(22%,59.6%,14.9%);" d="M 1842 -18 L 1702 0 L 1603 -17 Z M 1842 -18 "/>
<path style="stroke:rgb(25.1%,38.8%,84.7%);" d="M 1847 49 L 1817 115 L 1801 40 Z M 1847 49 "/>
<path style="stroke:rgb(79.6%,23.5%,20%);" d="M 1847 49 L 1801 40 L 1798 1 Z M 1847 49 "/>
<path style="stroke:rgb(22%,59.6%,14.9%);" d="M 1798 1 L 1842 -18 L 1847 49 Z M 1798 1 "/>
<path style="stroke:rgb(79.6%,23.5%,20%);" d="M 1854 98 L 1835 145 L 1817 115 Z M 1854 98 "/>
<path style="stroke:rgb(22%,59.6%,14.9%);" d="M 1817 115 L 1847 49 L 1854 98 Z M 1817 115 "/>
<path style="stroke:rgb(25.1%,38.8%,84.7%);" d="M 1753 316 L 1790 297 L 1861 309 Z M 1753 316 "/>
<path style="stroke:rgb(25.1%,38.8%,84.7%);" d="M 1781 231 L 1786 184 L 1866 191 Z M 1781 231 "/>
<path style="stroke:rgb(22%,59.6%,14.9%);" d="M 1786 184 L 1835 145 L 1866 191 Z M 1786 184 "/>
<path style="stroke:rgb(22%,59.6%,14.9%);" d="M 1867 258 L 1861 309 L 1790 297 Z M 1867 258 "/>
<path style="stroke:rgb(25.1%,38.8%,84.7%);" d="M 1867 258 L 1790 297 L 1781 231 Z M 1867 258 "/>
<path style="stroke:rgb(25.1%,38.8%,84.7%);" d="M 1781 231 L 1866 191 L 1867 258 Z M 1781 231 "/>
<path style="stroke:rgb(79.6%,23.5%,20%);" d="M 1882 236 L 1867 258 L 1866 191 Z M 1882 236 "/>
<path style="stroke:rgb(79.6%,23.5%,20%);" d="M 1885 61 L 1854 98 L 1847 49 Z M 1885 61 "/>
<path style="stroke:rgb(79.6%,23.5%,20%);" d="M 1893 207 L 1882 236 L 1866 191 Z M 1893 207 "/>
<path style="stroke:rgb(58.4%,34.5%,69.8%);" d="M 1861 309 L 1867 258 L 1893 303 Z M 1861 309 "/>
<path style="stroke:rgb(22%,59.6%,14.9%);" d="M 1867 258 L 1882 236 L 1893 303 Z M 1867 258 "/>
<path style="stroke:rgb(79.6%,23.5%,20%);" d="M 1854 98 L 1885 61 L 1902 81 Z M 1854 98 "/>
<path style="stroke:rgb(58.4%,34.5%,69.8%);" d="M 1909 -11 L 1885 61 L 1847 49 Z M 1909 -11 "/>
<path style="stroke:rgb(25.1%,38.8%,84.7%);" d="M 1909 -11 L 1847 49 L 1842 -18 Z M 1909 -11 "/>
<path style="stroke:rgb(22%,59.6%,14.9%);" d="M 1835 145 L 1854 98 L 1917 135 Z M 1835 145 "/>
<path style="stroke:rgb(22%,59.6%,14.9%);" d="M 1917 135 L 1866 191 L 1835 145 Z M 1917 135 "/>
<path style="stroke:rgb(22%,59.6%,14.9%);" d="M 1854 98 L 1902 81 L 1917 135 Z M 1854 98 "/>
<path style="stroke:rgb(25.1%,38.8%,84.7%);" d="M 1882 236 L 1893 207 L 1931 206 Z M 1882 236 "/>
<path style="stroke:rgb(25.1%,38.8%,84.7%);" d="M 1933 166 L 1893 207 L 1866 191 Z M 1933 166 "/>
<path style="stroke:rgb(79.6%,23.5%,20%);" d="M 1866 191 L 1917 135 L 1933 166 Z M 1866 191 "/>
<path style="stroke:rgb(79.6%,23.5%,20%);" d="M 1933 166 L 1931 206 L 1893 207 Z M 1933 166 "/>
<path style="stroke:rgb(25.1%,38.8%,84.7%);" d="M 1946 264 L 1893 303 L 1882 236 Z M 1946 264 "/>
<path style="stroke:rgb(79.6%,23.5%,20%);" d="M 1882 236 L 1931 206 L 1946 264 Z M 1882 236 "/>
<path style="stroke:rgb(25.1%,38.8%,84.7%);" d="M 1948 87 L 1917 135 L 1902 81 Z M 1948 87 "/>
<path style="stroke:rgb(25.1%,38.8%,84.7%);" d="M 1951 37 L 1948 87 L 1902 81 Z M 1951 37 "/>
<path style="stroke:rgb(58.4%,34.5%,69.8%);" d="M 1951 37 L 1902 81 L 1885 61 Z M 1951 37 "/>
<path style="stroke:rgb(79.6%,23.5%,20%);" d="M 1885 61 L 1909 -11 L 1951 37 Z M 1885 61 "/>
<path style="stroke:rgb(58.4%,34.5%,69.8%);" d="M 1909 -11 L 1935 -20 L 1951 37 Z M 1909 -11 "/>
<path style="stroke:rgb(22%,59.6%,14.9%);" d="M 1893 303 L 1946 264 L 1952 298 Z M 1893 303 "/>
<path style="stroke:rgb(22%,59.6%,14.9%);" d="M 1982 112 L 1933 166 L 1917 135 Z M 1982 112 "/>
<path style="stroke:rgb(25.1%,38.8%,84.7%);" d="M 1917 135 L 1948 87 L 1982 112 Z M 1917 135 "/>
<path style="stroke:rgb(25.1%,38.8%,84.7%);" d="M 1984 3 L 1951 37 L 1935 -20 Z M 1984 3 "/>
<path style="stroke:rgb(22%,59.6%,14.9%);" d="M 1931 206 L 1933 166 L 1988 219 Z M 1931 206 "/>
<path style="stroke:rgb(58.4%,34.5%,69.8%);" d="M 1988 219 L 1946 264 L 1931 206 Z M 1988 219 "/>
<path style="stroke:rgb(79.6%,23.5%,20%);" d="M 1948 87 L 1951 37 L 1991 55 Z M 1948 87 "/>
<path style="stroke:rgb(25.1%,38.8%,84.7%);" d="M 1991 55 L 1982 112 L 1948 87 Z M 1991 55 "/>
<path style="stroke:rgb(79.6%,23.5%,20%);" d="M 1951 37 L 1984 3 L 1991 55 Z M 1951 37 "/>
<path style="stroke:rgb(22%,59.6%,14.9%);" d="M 1933 166 L 1982 112 L 1999 147 Z M 1933 166 "/>
<path style="stroke:rgb(79.6%,23.5%,20%);" d="M 1999 147 L 1988 219 L 1933 166 Z M 1999 147 "/>
<path style="stroke:rgb(79.6%,23.5%,20%);" d="M 1946 264 L 1988 219 L 2013 256 Z M 1946 264 "/>
<path style="stroke:rgb(25.1%,38.8%,84.7%);" d="M 2014 281 L 1952 298 L 1946 264 Z M 2014 281 "/>
<path style="stroke:rgb(22%,59.6%,14.9%);" d="M 1946 264 L 2013 256 L 2014 281 Z M 1946 264 "/>
<path style="stroke:rgb(58.4%,34.5%,69.8%);" d="M 1982 112 L 1991 55 L 2037 101 Z M 1982 112 "/>
<path style="stroke:rgb(58.4%,34.5%,69.8%);" d="M 2037 101 L 1999 147 L 1982 112 Z M 2037 101 "/>
<path style="stroke:rgb(25.1%,38.8%,84.7%);" d="M 2041 270 L 2014 281 L 2013 256 Z M 2041 270 "/>
<path style="stroke:rgb(22%,59.6%,14.9%);" d="M 1988 219 L 1999 147 L 2045 218 Z M 1988 219 "/>
<path style="stroke:rgb(58.4%,34.5%,69.8%);" d="M 2045 218 L 2041 270 L 2013 256 Z M 2045 218 "/>
<path style="stroke:rgb(22%,59.6%,14.9%);" d="M 2045 218 L 2013 256 L 1988 219 Z M 2045 218 "/>
<path style="stroke:rgb(58.4%,34.5%,69.8%);" d="M 1753 316 L 1861 309 L 2051 320 Z M 1753 316 "/>
<path style="stroke:rgb(58.4%,34.5%,69.8%);" d="M 1861 309 L 1893 303 L 2051 320 Z M 1861 309 "/>
<path style="stroke:rgb(25.1%,38.8%,84.7%);" d="M 1893 303 L 1952 298 L 2051 320 Z M 1893 303 "/>
<path style="stroke:rgb(22%,59.6%,14.9%);" d="M 1952 298 L 2014 281 L 2051 320 Z M 1952 298 "/>
<path style="stroke:rgb(22%,59.6%,14.9%);" d="M 2014 281 L 2041 270 L 2051 320 Z M 2014 281 "/>
<path style="stroke:rgb(58.4%,34.5%,69.8%);" d="M 2055 -4 L 1984 3 L 1935 -20 Z M 2055 -4 "/>
<path style="stroke:rgb(25.1%,38.8%,84.7%);" d="M 2055 -4 L 1991 55 L 1984 3 Z M 2055 -4 "/>
<path style="stroke:rgb(79.6%,23.5%,20%);" d="M 1999 147 L 2037 101 L 2062 130 Z M 1999 147 "/>
<path style="stroke:rgb(79.6%,23.5%,20%);" d="M 2062 130 L 2045 218 L 1999 147 Z M 2062 130 "/>
<path style="stroke:rgb(22%,59.6%,14.9%);" d="M 2069 63 L 2037 101 L 1991 55 Z M 2069 63 "/>
<path style="stroke:rgb(79.6%,23.5%,20%);" d="M 1991 55 L 2055 -4 L 2069 63 Z M 1991 55 "/>
<path style="stroke:rgb(79.6%,23.5%,20%);" d="M 2069 63 L 2062 130 L 2037 101 Z M 2069 63 "/>
<path style="stroke:rgb(79.6%,23.5%,20%);" d="M 2041 270 L 2045 218 L 2089 237 Z M 2041 270 "/>
<path style="stroke:rgb(79.6%,23.5%,20%);" d="M 2095 11 L 2069 63 L 2055 -4 Z M 2095 11 "/>
<path style="stroke:rgb(25.1%,38.8%,84.7%);" d="M 2045 218 L 2062 130 L 2102 188 Z M 2045 218 "/>
<path style="stroke:rgb(22%,59.6%,14.9%);" d="M 2102 188 L 2089 237 L 2045 218 Z M 2102 188 "/>
<path style="stroke:rgb(22%,59.6%,14.9%);" d="M 2069 63 L 2095 11 L 2110 60 Z M 2069 63 "/>
<path style="stroke:rgb(79.6%,23.5%,20%);" d="M 2114 149 L 2102 188 L 2062 130 Z M 2114 149 "/>
<path style="stroke:rgb(25.1%,38.8%,84.7%);" d="M 2118 280 L 2051 320 L 2041 270 Z M 2118 280 "/>
<path style="stroke:rgb(25.1%,38.8%,84.7%);" d="M 2041 270 L 2089 237 L 2118 280 Z M 2041 270 "/>
<path style="stroke:rgb(79.6%,23.5%,20%);" d="M 2062 130 L 2069 63 L 2120 103 Z M 2062 130 "/>
<path style="stroke:rgb(22%,59.6%,14.9%);" d="M 2069 63 L 2110 60 L 2120 103 Z M 2069 63 "/>
<path style="stroke:rgb(22%,59.6%,14.9%);" d="M 2120 103 L 2114 149 L 2062 130 Z M 2120 103 "/>
<path style="stroke:rgb(22%,59.6%,14.9%);" d="M 2089 237 L 2102 188 L 2138 210 Z M 2089 237 "/>
<path style="stroke:rgb(22%,59.6%,14.9%);" d="M 2138 210 L 2118 280 L 2089 237 Z M 2138 210 "/>
<path style="stroke:rgb(25.1%,38.8%,84.7%);" d="M 2102 188 L 2114 149 L 2138 210 Z M 2102 188 "/>
<path style="stroke:rgb(22%,59.6%,14.9%);" d="M 2051 320 L 2118 280 L 2162 304 Z M 2051 320 "/>
<path style="stroke:rgb(79.6%,23.5%,20%);" d="M 2170 1 L 2055 -4 L 1935 -20 Z M 2170 1 "/>
<path style="stroke:rgb(58.4%,34.5%,69.8%);" d="M 2170 1 L 2095 11 L 2055 -4 Z M 2170 1 "/>
<path style="stroke:rgb(25.1%,38.8%,84.7%);" d="M 2170 1 L 2110 60 L 2095 11 Z M 2170 1 "/>
</g>
</svg>
