<svg xmlns="http://www.w3.org/2000/svg" width="2800" height="350pt" viewBox="0 0 2100 350"><path fill="#1a1a33" d="M0 0h2100v350H0z"/><path d="M3.055 288.457l9.312 66.035-27.09-84.66M6.266 9.523l9.683 41.38-22.011 50.187" fill="#389826" fill-opacity=".95"/><path d="M-8.18 164.398l25.985 28.77-33.41 67.742" fill="#cb3c33" fill-opacity=".95"/><path d="M17.457 48.563L7.907 7.761 28.741 32.07" fill="#9558b2" fill-opacity=".95"/><path d="M29.156 29.477L9.852 6.957l20.109 9.652" fill="#389826" fill-opacity=".95"/><path d="M17.023 53.434l17.614 38-40.782 14.828" fill="#9558b2" fill-opacity=".95"/><path d="M29.277 34.828l5.137 51.375-16.27-35.11M-7.04 110.18l47.813 42.191-48.75 8.438" fill="#cb3c33" fill-opacity=".95"/><path d="M35.152 93.371l6.559 57.156-47.785-42.164" fill="#4063d8" fill-opacity=".95"/><path d="M18.836 191.328l-25.879-28.652 48.063-8.317" fill="#389826" fill-opacity=".95"/><path d="M42.547 155.695l10.11 47.785-32.165-11.027" fill="#cb3c33" fill-opacity=".95"/><path d="M15.676 363.633L5.27 289.855l49.187 27.43" fill="#4063d8" fill-opacity=".95"/><path d="M55 319.754v35.46l-37.281 9.095" fill="#9558b2" fill-opacity=".95"/><path d="M4.125 286.684l-19.18-20.094 69.418-15.527" fill="#4063d8" fill-opacity=".95"/><path d="M19.156 194.941l38.153 53.41-72.489 16.215" fill="#9558b2" fill-opacity=".95"/><path d="M53.078 205.742l4.492 39.535-35.941-50.32" fill="#389826" fill-opacity=".95"/><path d="M55.074 315.336L5.871 287.898 57.911 251M59.813 247.297l-4.465-39.305 24.117 26.797M31.883 17.938l47.07 36.144L31.04 31.387" fill="#cb3c33" fill-opacity=".95"/><path d="M36.832 90.27l-5.66-56.61 53.777 25.477" fill="#389826" fill-opacity=".95"/><path d="M30.945 14.863L8.835 4.25l73.407-20.34" fill="#cb3c33" fill-opacity=".95"/><path d="M86.05 57.012L32.77 16.098 87.953-17.2" fill="#389826" fill-opacity=".95"/><path d="M57 353.75v-35.7l37.531 1.829" fill="#cb3c33" fill-opacity=".95"/><path d="M59.84 252.645l35.433 65.27-38.23-1.864" fill="#4063d8" fill-opacity=".95"/><path d="M80.293 236.637l14.523 76.246-34.492-63.54" fill="#9558b2" fill-opacity=".95"/><path d="M80.773 233.25L55.88 205.594l44.254-10.14" fill="#4063d8" fill-opacity=".95"/><path d="M101.133 193.172l-42.656 9.777 47.097-34.66" fill="#cb3c33" fill-opacity=".95"/><path d="M54.656 203.273l-10.363-48.992 60.297 12.25" fill="#9558b2" fill-opacity=".95"/><path d="M106.168 164.813L46.18 152.625l66.55-30.934" fill="#4063d8" fill-opacity=".95"/><path d="M43.836 151.508l-6.66-58.024 74.195 26.633" fill="#cb3c33" fill-opacity=".95"/><path d="M86.559 60.477l25.582 57.793-73.903-26.528" fill="#9558b2" fill-opacity=".95"/><path d="M96.762 320.563l21.453 36.382-59.7-1.867" fill="#389826" fill-opacity=".95"/><path d="M97.457 316.066l-15.164-79.632 50.242 15.168" fill="#cb3c33" fill-opacity=".95"/><path d="M102.04 196.113l29.874 53.211-49.476-14.933" fill="#9558b2" fill-opacity=".95"/><path d="M89.914-15.672l43.383 68.844-45.27 4.715" fill="#cb3c33" fill-opacity=".95"/><path d="M107.625 168.18l25.844 28.515-30.297-3.562" fill="#389826" fill-opacity=".95"/><path d="M133.133 247.414l-29.301-52.191 31.133 3.664M114.184 117.945L89.098 61.27l46.453 25.085" fill="#cb3c33" fill-opacity=".95"/><path d="M134.066 55.102l1.825 29.164L90.324 59.66" fill="#4063d8" fill-opacity=".95"/><path d="M134.285 50.992L91.105-17.53l48.813 10.324" fill="#389826" fill-opacity=".95"/><path d="M119.727 355.57l-21.415-36.316 43.762-33.52" fill="#9558b2" fill-opacity=".95"/><path d="M133.75 253.55l9.086 29.083-42.707 32.71" fill="#4063d8" fill-opacity=".95"/><path d="M114.781 121.508l50.551 25.277-57.102 17.785" fill="#cb3c33" fill-opacity=".95"/><path d="M135.855 196.352l-27.062-29.864 56.922-17.73M136.879 87.965l28.855 56.785-50.265-25.133" fill="#9558b2" fill-opacity=".95"/><path d="M141.86-6.484l39.335 18.734-44.957 39.34M144.566 284.516l38.668 23.578-61.304 47.16" fill="#cb3c33" fill-opacity=".95"/><path d="M167.766 144.336L138.664 87.07l46 1.875" fill="#4063d8" fill-opacity=".95"/><path d="M137.941 85.04l-1.816-29.09 46.355 30.905" fill="#cb3c33" fill-opacity=".95"/><path d="M182.512 13.754l7.226 22.586-50.586 15.355" fill="#4063d8" fill-opacity=".95"/><path d="M185.168 86.242l-47.852-31.898L189.86 38.39" fill="#389826" fill-opacity=".95"/><path d="M130.309 368.809l-8.434-10.118 63.25-10.964" fill="#cb3c33" fill-opacity=".95"/><path d="M184.426 309.703l9.324 34.5-69.93 12.121" fill="#389826" fill-opacity=".95"/><path d="M185.988 91.465l12.785 42.926-29.226 10.96" fill="#9558b2" fill-opacity=".95"/><path d="M136.96 199.082l67.993 5.668-69.883 44.387" fill="#389826" fill-opacity=".95"/><path d="M168.047 148.809l37.906 54.015-68.234-5.683" fill="#cb3c33" fill-opacity=".95"/><path d="M199.152 136.387l7.399 63.808-36.992-52.71" fill="#389826" fill-opacity=".95"/><path d="M184.586 306.578l-38.66-23.574 71.664-43.375" fill="#4063d8" fill-opacity=".95"/><path d="M144.574 281.484l-9.277-29.683 79.773-12.985" fill="#9558b2" fill-opacity=".95"/><path d="M207.484 205.512l11.164 30.695-79.996 13.023" fill="#cb3c33" fill-opacity=".95"/><path d="M195.246 345.977l27.012-3.375-70.91 20.257" fill="#4063d8" fill-opacity=".95"/><path d="M195.738 343.898l-9.097-33.66 45.488 29.114" fill="#cb3c33" fill-opacity=".95"/><path d="M182.98 10.883L144.72-7.336l89.281-8.2" fill="#9558b2" fill-opacity=".95"/><path d="M191.418 35.023L184.211 12.5l50.457-26.129" fill="#389826" fill-opacity=".95"/><path d="M220.418 238.418l22.93 13.758-55.036 51.363" fill="#cb3c33" fill-opacity=".95"/><path d="M208.672 201.094l-7.524-64.883 44.196 7.523M191.875 38.309l62.238 18.859-66.953 29.234" fill="#4063d8" fill-opacity=".95"/><path d="M238.48-14.91l17.133 70.445-62.828-19.039" fill="#cb3c33" fill-opacity=".95"/><path d="M234.71 338.629l-46.366-29.676 66.77-.926" fill="#389826" fill-opacity=".95"/><path d="M244.398 253.93l11.364 52.086-68.188.949" fill="#9558b2" fill-opacity=".95"/><path d="M246.527 141.906l-42.082-7.164 58.2-17.012" fill="#389826" fill-opacity=".95"/><path d="M200.676 133.762l-13.156-44.16 74.23 26.308" fill="#cb3c33" fill-opacity=".95"/><path d="M256.188 58.445l7.601 56.063-75.07-26.606M244.637 250.617l-22.633-13.582 44.363-24.441" fill="#389826" fill-opacity=".95"/><path d="M220.54 235.559l-11.056-30.407 56.211 5.528" fill="#4063d8" fill-opacity=".95"/><path d="M246.707 145.313l20.863 63.542-57.847-5.69" fill="#9558b2" fill-opacity=".95"/><path d="M265.254 110.445l-7.145-52.703 20.543-5.36M257.48 308.082l23.582 3.492-42.796 25.332" fill="#cb3c33" fill-opacity=".95"/><path d="M257.828 306.113l-10.71-49.093 34.812 52.664" fill="#389826" fill-opacity=".95"/><path d="M279.082 50.207l-20.062 5.234 24.425-43.617" fill="#9558b2" fill-opacity=".95"/><path d="M257.371 54.293l-16.879-69.387L283.625 7.41" fill="#389826" fill-opacity=".95"/><path d="M265.348 117.277l25.824 12.47-41.852 11.573" fill="#cb3c33" fill-opacity=".95"/><path d="M268.977 206.723l-20.7-63.04 44.223-12.23M280.023 55.348l13.735 56.773-27.469 2.746" fill="#389826" fill-opacity=".95"/><path d="M293.09 128.45l-24.461-11.81 25.305-2.527" fill="#9558b2" fill-opacity=".95"/><path d="M293.887 133.715l16.883 68.472-40.332 6.567" fill="#cb3c33" fill-opacity=".95"/><path d="M283.832 312.262l29.684 30.613-75.141-3.71" fill="#389826" fill-opacity=".95"/><path d="M269.191 211.68l47.102 50.867-69.711-11.305" fill="#9558b2" fill-opacity=".95"/><path d="M311.125 204.156l6.535 56.922-46.66-50.39" fill="#389826" fill-opacity=".95"/><path d="M284.047 309.262l-36.953-55.91 70.12 11.37" fill="#cb3c33" fill-opacity=".95"/><path d="M312.57 201.14l-16.293-66.085 34.399 49.789" fill="#389826" fill-opacity=".95"/><path d="M285.09 5.918L243.87-15.586l85.125 7.168" fill="#9558b2" fill-opacity=".95"/><path d="M315.86 342.422l-29.54-30.465 50.774-.922" fill="#cb3c33" fill-opacity=".95"/><path d="M318.77 265.98l18.718 43.047-51.468.938" fill="#9558b2" fill-opacity=".95"/><path d="M285.82 8.633l51.395 29.902-56.067 11.215" fill="#4063d8" fill-opacity=".95"/><path d="M333.156-7.672l5.602 44.793-51.324-29.863M295.402 110.414l-14.187-58.637 56.746-11.351" fill="#cb3c33" fill-opacity=".95"/><path d="M235.047 341.027l103.14 19.336-199.832 8.29" fill="#389826" fill-opacity=".95"/><path d="M315.723 344.988l25.297 13.875-91.403-17.14" fill="#4063d8" fill-opacity=".95"/><path d="M338.406 312.664l7.29 46.48-28.25-15.492" fill="#9558b2" fill-opacity=".95"/><path d="M295.906 114.61l47.215 24.894-48.074-10.3" fill="#4063d8" fill-opacity=".95"/><path d="M331.785 182.926l-35.527-51.418 52.355 11.219M319.8 262.2l-6.515-56.782 39.094 33.512" fill="#9558b2" fill-opacity=".95"/><path d="M331.61 186.695l19.906 48.86-38-32.575" fill="#cb3c33" fill-opacity=".95"/><path d="M338.668 306.73l-18.43-42.386 32.254-23.035" fill="#4063d8" fill-opacity=".95"/><path d="M339.805 41.246l25.77 65.852-68.716 4.77" fill="#9558b2" fill-opacity=".95"/><path d="M349.563 140.64l-50.989-26.886 66.75-4.637" fill="#389826" fill-opacity=".95"/><path d="M367.133 109.973l17.164 25.297-32.524 5.421M366.832 104.82l-25.453-65.035 45.246-7.543" fill="#cb3c33" fill-opacity=".95"/><path d="M340.863 37.844l-5.582-44.649 50.23 37.207M347.66 358.758l-7.476-47.66 46.726 3.738" fill="#389826" fill-opacity=".95"/><path d="M354.36 242.137l33.007 70.73-47.152-3.773" fill="#cb3c33" fill-opacity=".95"/><path d="M388.34 310.219l-32.578-69.809 38.164 8.38M387.344 29.27L337.168-7.898l57.61 1.859M385.855 134.004l-17.007-25.059 29.535-.894" fill="#9558b2" fill-opacity=".95"/><path d="M387.738 35.758l11.098 70.277-30.516.926" fill="#389826" fill-opacity=".95"/><path d="M388.754 315.777l15.785 32.5-54.785 11.141" fill="#cb3c33" fill-opacity=".95"/><path d="M350.352 143.75l54.62 53.676-71.57-13.184" fill="#389826" fill-opacity=".95"/><path d="M385.332 137.125l20.309 58.156-53.54-52.617" fill="#4063d8" fill-opacity=".95"/><path d="M394.277 246.816l-37.914-8.32 49.938-36.992" fill="#389826" fill-opacity=".95"/><path d="M354.441 237.43l-20.824-51.118 71.938 13.254" fill="#9558b2" fill-opacity=".95"/><path d="M406.5 347.742l-15.277-31.453 41.34 21.566" fill="#389826" fill-opacity=".95"/><path d="M408.738 200.121l30.102 4.563-41.961 40.136" fill="#cb3c33" fill-opacity=".95"/><path d="M395.824 249.977l54.098 44.605-59.793 18.031" fill="#389826" fill-opacity=".95"/><path d="M434.477 336.602l-42.84-22.352 58.672-17.695" fill="#4063d8" fill-opacity=".95"/><path d="M396.824-6.07l52.336-4.59-59.68 39.48" fill="#cb3c33" fill-opacity=".95"/><path d="M440.324 202.887l-30.14-4.567 46.578-43.84" fill="#389826" fill-opacity=".95"/><path d="M408.438 197.215l-20.915-59.88 69.387 14.259" fill="#cb3c33" fill-opacity=".95"/><path d="M400.375 108.527l54.426 40.59-67.344-13.84" fill="#389826" fill-opacity=".95"/><path d="M457.023 107.016l.93 41.957-55.008-41.024" fill="#cb3c33" fill-opacity=".95"/><path d="M440.535 205.828l17 52.879-60.437-11.332" fill="#389826" fill-opacity=".95"/><path d="M451.348 293.164L398.633 249.7l59.187 11.098M457.117 105.016l-53.656.925 58.281-37.93" fill="#4063d8" fill-opacity=".95"/><path d="M400.746 105.32l-11.465-72.617 71.664 33.442" fill="#cb3c33" fill-opacity=".95"/><path d="M452.21-10.281l9.567 74.605-71.738-33.476" fill="#389826" fill-opacity=".95"/><path d="M463.316 60.61l-9.113-71.098 24.61 9.113" fill="#cb3c33" fill-opacity=".95"/><path d="M452.516 296.418l32.254 17.508-47.922 22.12" fill="#9558b2" fill-opacity=".95"/><path d="M459.422 262.988l25.187 48.578-31.484-17.093" fill="#389826" fill-opacity=".95"/><path d="M435.11 339.027l46.597 7.23-69.898 1.61" fill="#9558b2" fill-opacity=".95"/><path d="M486.246 315.45l5.52 30.347-53.34-8.277" fill="#4063d8" fill-opacity=".95"/><path d="M459.969 149.613l-.926-41.715 41.715 27.809" fill="#389826" fill-opacity=".95"/><path d="M480.332.797l22.324 42.789L464.52 64.05M459.375 153l45.36 53.86-62.368-3.778" fill="#9558b2" fill-opacity=".95"/><path d="M502.074 137.371l3.762 67.695-45.129-53.593" fill="#4063d8" fill-opacity=".95"/><path d="M459.426 258.063l-17.028-52.977 62.438 3.785" fill="#cb3c33" fill-opacity=".95"/><path d="M463.809 67.582l51.168 27.906-55.817 9.305" fill="#389826" fill-opacity=".95"/><path d="M502.508 134.469L460.66 106.57l55.797-9.3" fill="#9558b2" fill-opacity=".95"/><path d="M503.363 45.477l13.063 48.527-51.324-27.996M486.875 311.586L460.387 260.5l55.812-23.652" fill="#4063d8" fill-opacity=".95"/><path d="M506.668 209.836l10.035 24.629-53.82 22.805M504.168 42.156L481.664-.973l55.316.938" fill="#389826" fill-opacity=".95"/><path d="M492.879 348.004l48.223 12.86-118.145-11.255" fill="#cb3c33" fill-opacity=".95"/><path d="M518.54 94.16l-13.142-48.816 53.508 12.203" fill="#389826" fill-opacity=".95"/><path d="M538.695 1.02l20.707 54.59-53.648-12.235" fill="#cb3c33" fill-opacity=".95"/><path d="M559.047 244.719l-37.621-9.856 38.52-13.437" fill="#9558b2" fill-opacity=".95"/><path d="M518.566 233.742l-9.921-24.351 48.707 10.824" fill="#cb3c33" fill-opacity=".95"/><path d="M560.223 59.055l2.687 24.195-41.222 10.754M560.043 218.762l-51.27-11.39 54.118-68.36" fill="#9558b2" fill-opacity=".95"/><path d="M507.852 205.313L504.059 137h57.875" fill="#389826" fill-opacity=".95"/><path d="M518.43 97.7l42.894 37.3h-56.883" fill="#cb3c33" fill-opacity=".95"/><path d="M563 85.293v48.512l-42.914-37.317" fill="#4063d8" fill-opacity=".95"/><path d="M552.332 361.79l-56.504-15.071 72.516-35.785" fill="#389826" fill-opacity=".95"/><path d="M493.746 345.516l-5.558-30.586 76.925-4.633" fill="#cb3c33" fill-opacity=".95"/><path d="M518.25 237.098l49.902 71.011-79.648 4.797" fill="#9558b2" fill-opacity=".95"/><path d="M559.113 246.8l9.223 58.09-47.95-68.23" fill="#389826" fill-opacity=".95"/><path d="M570.703 307.055l-9.129-57.524 31.043 38.352" fill="#4063d8" fill-opacity=".95"/><path d="M564.871 139.61l35.695 63.874-38.511 15.032" fill="#389826" fill-opacity=".95"/><path d="M564.777 81.938l-2.691-24.211 43.047-12.559M565 134.258v-48.64l44.898 22.448" fill="#cb3c33" fill-opacity=".95"/><path d="M608.098 45.172l2.824 61.172-45.172-22.586" fill="#389826" fill-opacity=".95"/><path d="M561.95 221.297l45.968 12.621-46.867 10.812" fill="#4063d8" fill-opacity=".95"/><path d="M601.383 205.313l9.078 27.226-46.285-12.703" fill="#cb3c33" fill-opacity=".95"/><path d="M593.629 285.953l-31.844-39.34 48.703-11.238" fill="#389826" fill-opacity=".95"/><path d="M608.098 42.223l-43.391 12.652 47.91-45.195" fill="#4063d8" fill-opacity=".95"/><path d="M561.402 55.246L540.512.168l71.222 7.598" fill="#9558b2" fill-opacity=".95"/><path d="M570.527 310.656l43.309 32.953-59.313 17.887" fill="#cb3c33" fill-opacity=".95"/><path d="M593.59 289.688l20.172 51.355-42.18-32.098" fill="#389826" fill-opacity=".95"/><path d="M601.629 201.29l-35.957-64.349 52.043-1.894" fill="#9558b2" fill-opacity=".95"/><path d="M611.375 109.523l6.332 23.524-49.762 1.808" fill="#389826" fill-opacity=".95"/><path d="M619.41 136.543l13.39 21.426-28.566 41.066" fill="#4063d8" fill-opacity=".95"/><path d="M615.98 345.05l24.36 8.4-77.281 7.562" fill="#389826" fill-opacity=".95"/><path d="M614.773 8.703l31.938 20.988-36.5 11.864" fill="#cb3c33" fill-opacity=".95"/><path d="M612.273 236.348l34.801 56.437-51.734-5.644M644.09 352.629l-26.547-9.152 30.207-45.77" fill="#9558b2" fill-opacity=".95"/><path d="M616.227 341.84l-20.692-52.668 51.727 5.644" fill="#4063d8" fill-opacity=".95"/><path d="M612.574 232.555l-9.09-27.266 44.536 8.18" fill="#9558b2" fill-opacity=".95"/><path d="M633.648 160.254l15.91 51.465-45.851-8.422M633.746 155.707l-13.45-21.52 30.485-26.898" fill="#389826" fill-opacity=".95"/><path d="M619.547 132.184l-6.274-23.305 36.747-3.582" fill="#cb3c33" fill-opacity=".95"/><path d="M612.95 106.902l-2.798-60.593 41.02 56.863" fill="#4063d8" fill-opacity=".95"/><path d="M648.07 31.352l3.746 69.3-41.203-57.125" fill="#389826" fill-opacity=".95"/><path d="M613.918 5.984L554.109-.395l91.707-2.39" fill="#cb3c33" fill-opacity=".95"/><path d="M648.238 28.305L616.395 7.379 652.789-2.63M648.375 291.082l-34.379-55.754 40.887 6.508" fill="#389826" fill-opacity=".95"/><path d="M650.258 214.535l4.512 25.258-39.692-6.316" fill="#4063d8" fill-opacity=".95"/><path d="M653.633 105.215l29.328 8.25-46.742 41.246" fill="#cb3c33" fill-opacity=".95"/><path d="M649.793 297.145l34.426 54.898-38.149.93" fill="#4063d8" fill-opacity=".95"/><path d="M654.836-2.82l32.566 6.332-37.09 24.425M656.66 243.637l40.168 56.05-46.707-6.539" fill="#cb3c33" fill-opacity=".95"/><path d="M685.598 350.48l-34.61-55.19 46.774 6.546" fill="#9558b2" fill-opacity=".95"/><path d="M684.25 111.75l-29.543-8.309 43.387-55.386" fill="#4063d8" fill-opacity=".95"/><path d="M653.855 101.29l-3.78-69.958 48.21 13.234" fill="#cb3c33" fill-opacity=".95"/><path d="M689.363 4.617l9.262 37.969-47.23-12.965" fill="#4063d8" fill-opacity=".95"/><path d="M656.742 239.469l-4.531-25.367 45.305 3.62" fill="#cb3c33" fill-opacity=".95"/><path d="M700.223 215.934l-46.942-3.754 61.965-60.086" fill="#389826" fill-opacity=".95"/><path d="M651.473 211.148l-16.16-52.285 78.902-8.554" fill="#4063d8" fill-opacity=".95"/><path d="M684.914 114.41l30.05 33.805-77.94 8.453" fill="#9558b2" fill-opacity=".95"/><path d="M698.664 298.813l-40.672-56.747 58.64 1.891" fill="#389826" fill-opacity=".95"/><path d="M700.664 218.313l15.445 23.625-56.336-1.817" fill="#9558b2" fill-opacity=".95"/><path d="M717.016 153.305l14.73 60.773-29.465 1.84" fill="#cb3c33" fill-opacity=".95"/><path d="M717.914 241.043l-15.137-23.152 28.493-1.782M700.785 43l-9.078-37.227L735.289 43" fill="#389826" fill-opacity=".95"/><path d="M718.082 245.96l21.441 55.005-39.152-.934M700.484 46.488l46.563 68.418-60.82-2.851" fill="#9558b2" fill-opacity=".95"/><path d="M737.14 45l10.204 66.793L701.89 45" fill="#cb3c33" fill-opacity=".95"/><path d="M717.031 147.531l-29.707-33.422 59.414 2.786" fill="#4063d8" fill-opacity=".95"/><path d="M699.535 302.977L747.617 352h-60.336" fill="#389826" fill-opacity=".95"/><path d="M740.156 302.98l8.297 47.016-47.015-47.937" fill="#cb3c33" fill-opacity=".95"/><path d="M690.016 1.984L662.96-3.277l72.898-2.254" fill="#389826" fill-opacity=".95"/><path d="M737.43 42.195L692.285 3.637l57.367-9.403" fill="#cb3c33" fill-opacity=".95"/><path d="M732.96 210.594l-14.808-61.082 32.391-17.582" fill="#389826" fill-opacity=".95"/><path d="M748.414 118.04l2.453 11.437L722.27 145M733.176 216.79l25.422 30.866-39.04-5.449" fill="#cb3c33" fill-opacity=".95"/><path d="M740.984 299.207l-21.433-54.98 40.07 5.59M751.793-6.066l30.824-2.72-42.61 48.954" fill="#389826" fill-opacity=".95"/><path d="M752.29 133.293l33.222 79.734-51.258.95" fill="#cb3c33" fill-opacity=".95"/><path d="M760.96 247.379l-25.874-31.418 49.898-.922" fill="#4063d8" fill-opacity=".95"/><path d="M749.668 113.758l-10.41-68.149 52.058 21.77" fill="#389826" fill-opacity=".95"/><path d="M784.242-7.605l7.59 73.03-52.168-21.812" fill="#cb3c33" fill-opacity=".95"/><path d="M786.66 216.137l7.07 21.222-30.062 9.727M752.625 128.148l-2.488-11.617 42.328-22.41" fill="#389826" fill-opacity=".95"/><path d="M792.578 68.969l6.215 19.539-45.293 23.98" fill="#4063d8" fill-opacity=".95"/><path d="M761.367 250.86l39.57 42.398-58.414 7.539" fill="#9558b2" fill-opacity=".95"/><path d="M794.18 239.316l7.379 51.676-38.754-41.523" fill="#cb3c33" fill-opacity=".95"/><path d="M750.785 351.703l-8.469-47.988 64.926 30.11" fill="#9558b2" fill-opacity=".95"/><path d="M802.18 295.113l6.504 37.176-64.125-29.738" fill="#cb3c33" fill-opacity=".95"/><path d="M786.973 211.332l-33.422-80.21 63.023 4.773" fill="#389826" fill-opacity=".95"/><path d="M799.582 90.672l16.906 43.21-61.996-4.695" fill="#cb3c33" fill-opacity=".95"/><path d="M800.375 86.887l-6.172-19.407 37.047-20.285" fill="#9558b2" fill-opacity=".95"/><path d="M793.84 65.398l-7.535-72.515 47.09 50.855" fill="#389826" fill-opacity=".95"/><path d="M818.14 132.621L801.544 90.2l36.887 4.614" fill="#9558b2" fill-opacity=".95"/><path d="M834.254 46.59l4.625 46.262-37.012-4.625M834.504 41.992L789.39-6.727l51.43 25.262M795.613 236.676l-7.21-21.63 56.784 1.802" fill="#cb3c33" fill-opacity=".95"/><path d="M803.746 292.148l-7.535-52.75 54.637 16.012" fill="#389826" fill-opacity=".95"/><path d="M849.105 217.434l2.786 36.199-53.832-15.778" fill="#9558b2" fill-opacity=".95"/><path d="M809.996 335.05l37.516 12.216-89.867 4.363" fill="#4063d8" fill-opacity=".95"/><path d="M818.438 136.621l40.812 32.274-70.234 42.71" fill="#cb3c33" fill-opacity=".95"/><path d="M849.215 214.973l-58.82-1.868 69.09-42.011" fill="#389826" fill-opacity=".95"/><path d="M852.219 346.695l-39.992-13.023 48.363-33.48" fill="#cb3c33" fill-opacity=".95"/><path d="M810.715 332.29l-6.512-37.208 54.879 3.723" fill="#389826" fill-opacity=".95"/><path d="M852.352 256.773l8.398 40.141-55.07-3.734" fill="#cb3c33" fill-opacity=".95"/><path d="M862.727 299.602l17.8 10.68-25.808 33.82M861.652 170.602l19.758 12.574-29.637 29.637" fill="#9558b2" fill-opacity=".95"/><path d="M840.3 95.555L886.247 134h-66.574" fill="#389826" fill-opacity=".95"/><path d="M860.852 167.61L820.879 136h66.004" fill="#9558b2" fill-opacity=".95"/><path d="M882.203 181.309l-19.71-12.547 25.085-30.465" fill="#cb3c33" fill-opacity=".95"/><path d="M840.777 91.727l-4.687-46.875 57.191-8.442" fill="#389826" fill-opacity=".95"/><path d="M842.695 19.266l48.852 15.379-55.184 8.144" fill="#9558b2" fill-opacity=".95"/><path d="M881.61 308.602l-17.864-10.723 41.09-33.05" fill="#389826" fill-opacity=".95"/><path d="M862.645 296.2l-8.383-40.055 51.23 5.59" fill="#9558b2" fill-opacity=".95"/><path d="M853.934 254.098l-2.762-35.926 53.422 41.45" fill="#cb3c33" fill-opacity=".95"/><path d="M882.547 184.867l23.515 73.363-54.554-42.324" fill="#389826" fill-opacity=".95"/><path d="M889.027 133.719l-44.82-37.504 68.602 19.21" fill="#9558b2" fill-opacity=".95"/><path d="M895.453 37.027l18.18 76.551-71.766-20.094" fill="#cb3c33" fill-opacity=".95"/><path d="M882.09 311.531l30.683 31.61-57.644 3.718" fill="#389826" fill-opacity=".95"/><path d="M895.45 33.777l-50.477-15.89 70.109-28.043" fill="#4063d8" fill-opacity=".95"/><path d="M842.043 16.906L789.176-9.062l122.426-1.856" fill="#9558b2" fill-opacity=".95"/><path d="M889.879 136.02l38.726.921-44.257 43.34" fill="#389826" fill-opacity=".95"/><path d="M914.813 116.406l14.132 18.543-37.093-.883" fill="#cb3c33" fill-opacity=".95"/><path d="M915.07 110.965l-17.746-74.711 36.422 6.535" fill="#389826" fill-opacity=".95"/><path d="M916.863-9.246l16.657 49.965-36.086-6.477" fill="#cb3c33" fill-opacity=".95"/><path d="M908.441 259.105l-23.414-73.058 51.516 44.023M930.383 138.004L944.64 209.3l-59.891-26.617" fill="#9558b2" fill-opacity=".95"/><path d="M937.61 228.352l-48.735-41.645 55.824 24.809M935.293 39.723L919.02-9.105l31.644 25.32" fill="#389826" fill-opacity=".95"/><path d="M931.129 134.52l-14.242-18.692 38.27-3.558" fill="#9558b2" fill-opacity=".95"/><path d="M935.094 45.441l21.558 64.68-40.304 3.75" fill="#4063d8" fill-opacity=".95"/><path d="M908.262 262.637l47.285 45.394-71.871.946" fill="#cb3c33" fill-opacity=".95"/><path d="M915.078 342.645l-30.742-31.676 70.805-.93" fill="#4063d8" fill-opacity=".95"/><path d="M930.54 344.934l-13.095-1.637 35.188-28.64" fill="#cb3c33" fill-opacity=".95"/><path d="M937.969 231.473l44.008 49.62-72.098-20.597" fill="#4063d8" fill-opacity=".95"/><path d="M958 307.613l-46.402-44.547 71.457 20.418" fill="#389826" fill-opacity=".95"/><path d="M952.09 17.691l40.418 49.606-56.035-25.723" fill="#cb3c33" fill-opacity=".95"/><path d="M991.094 96.293l-29.27 12.05 32.715-35.292" fill="#4063d8" fill-opacity=".95"/><path d="M958.414 109.082l-21.738-65.21 57.652 26.46" fill="#389826" fill-opacity=".95"/><path d="M952.215 14.89L920.66-10.351 993.684 2.27" fill="#cb3c33" fill-opacity=".95"/><path d="M995.078 67.285l-41.363-50.762 43.246-13.16" fill="#389826" fill-opacity=".95"/><path d="M852.95 349.004l120.84 18.336-206.68-14.168" fill="#cb3c33" fill-opacity=".95"/><path d="M914.879 345.012l70.371 22.043-122.938-18.653" fill="#9558b2" fill-opacity=".95"/><path d="M930.766 346.98l20.297 7.27-25.145-7.879" fill="#389826" fill-opacity=".95"/><path d="M957.957 310.758l37.57 57.293-62.93-22.543" fill="#4063d8" fill-opacity=".95"/><path d="M984.297 285.066l12.039 80.575-37.047-56.496" fill="#9558b2" fill-opacity=".95"/><path d="M946.355 212.734l54.07 52.301-61.163-35.457" fill="#cb3c33" fill-opacity=".95"/><path d="M985.2 281.719l-42.34-47.746 62.16 36.035" fill="#389826" fill-opacity=".95"/><path d="M1006.203 267.84l-57.84-55.945 63.532-2.844" fill="#9558b2" fill-opacity=".95"/><path d="M1012.086 207.04l-62.45 2.796 66.177-42.875" fill="#4063d8" fill-opacity=".95"/><path d="M946.691 209.36l-14.37-71.86 82.398 27.785" fill="#cb3c33" fill-opacity=".95"/><path d="M958.004 112.36l54.824 50.18-79.914-26.95" fill="#389826" fill-opacity=".95"/><path d="M991.422 98.32l23.223 63.168-54.81-50.164M998.96 3.34l33.462 10.223-35.32 52.98" fill="#cb3c33" fill-opacity=".95"/><path d="M1035.078 365.09l-35.152 3.703 40.703-65.68" fill="#389826" fill-opacity=".95"/><path d="M998.586 367.156l-12.367-82.777 54.23 15.223" fill="#cb3c33" fill-opacity=".95"/><path d="M1006.902 271.219l30.832 25.547-50.21-14.098M1013.777 210.328l30.696 33.488L1008.199 268" fill="#4063d8" fill-opacity=".95"/><path d="M1041.145 296.992l-32.473-26.906 36.183-24.121" fill="#cb3c33" fill-opacity=".95"/><path d="M1017.836 166.805l27.375 19.164-31.024 20.074" fill="#9558b2" fill-opacity=".95"/><path d="M1045.043 241.477l-30.508-33.282 31.434-20.336M996.797 71.434l61.039 26.421-64.68-1.824" fill="#389826" fill-opacity=".95"/><path d="M1034.012 14.781l29.281 42.5-65.168 11.336" fill="#9558b2" fill-opacity=".95"/><path d="M1062.07 97.508L999.47 70.41l64.472-11.21" fill="#4063d8" fill-opacity=".95"/><path d="M1046.559 184.473l-27.598-19.32 45.078-22.079" fill="#cb3c33" fill-opacity=".95"/><path d="M1017.555 163.613L993.91 99.301l69.988 41.613" fill="#389826" fill-opacity=".95"/><path d="M1062.066 99.973l2.801 39.191L995.82 98.11M998.031.992l-66.855-11.558 134.535 4.129" fill="#4063d8" fill-opacity=".95"/><path d="M1033.941 11.938l-31-9.473 70.61-7.75" fill="#9558b2" fill-opacity=".95"/><path d="M1064.535 55.563l-29.023-42.13 43.066-18.726M1066.41 142.598L1083.387 156l-33.953 26.805M1046.902 245.387l36.235 13.008-39.953 38.093" fill="#389826" fill-opacity=".95"/><path d="M1065.906 59.973l41.582 32.34-43.43 5.542M1084.566 154.383l-17.101-13.5 39.601-43.203" fill="#cb3c33" fill-opacity=".95"/><path d="M1066.832 138.613l-2.766-38.742 43.352-5.535" fill="#389826" fill-opacity=".95"/><path d="M1080.371-4.168l31.984 60.203-46.093.938" fill="#cb3c33" fill-opacity=".95"/><path d="M1109.203 91.113l-41.363-32.172 45.039-.918" fill="#389826" fill-opacity=".95"/><path d="M1042.852 300.691l68.703 41.989-74.426 21.945" fill="#4063d8" fill-opacity=".95"/><path d="M1085.008 259.375l27.847 25.992-67.761 12.067" fill="#9558b2" fill-opacity=".95"/><path d="M1113.031 341.234l-68.258-41.71 69.207-12.325" fill="#389826" fill-opacity=".95"/><path d="M1047.973 187.48l69.304 28.48-70.254 26.583" fill="#9558b2" fill-opacity=".95"/><path d="M1084.68 256.824l-35.79-12.847 67.907-25.696" fill="#4063d8" fill-opacity=".95"/><path d="M1084.715 157.5l32.933 56.453-68.687-28.226M1114.152 283.84l-27.777-25.926 32.406-38.89M1115.91 291.207l16.79 44.188-17.677 6.187" fill="#cb3c33" fill-opacity=".95"/><path d="M1114.059 54.98l-32.067-60.359 58.473 16.977M1110.238 95.113l33.078 48.203-56.707 11.344M1120.355 214.621l-32-54.855 54.856 41.14" fill="#389826" fill-opacity=".95"/><path d="M1144 145.219V199l-56.61-42.457" fill="#cb3c33" fill-opacity=".95"/><path d="M1133.871 332.848l-17.125-45.075 27.043 10.82M1120.906 217.363l41.344 14.098-46.043 51.68" fill="#389826" fill-opacity=".95"/><path d="M1144.34 296.66l-27.645-11.058 45.157-50.684M1144.676 202.36l16.96 26.777-39.273-13.387" fill="#cb3c33" fill-opacity=".95"/><path d="M1114.875 58.168l47.883 8.285-51.563 24.86" fill="#9558b2" fill-opacity=".95"/><path d="M1141.852 13.164L1164.34 64.7l-48.723-8.433M1145.035 142.285l-32.55-47.433 54.874 17.671" fill="#cb3c33" fill-opacity=".95"/><path d="M1165.098 67.543l2.808 43.055-55.218-17.782" fill="#389826" fill-opacity=".95"/><path d="M1164.262 229.543l-16.574-26.168 31.402 14.828" fill="#4063d8" fill-opacity=".95"/><path d="M1180.02 216.43l-33.582-15.856 34.515-55.972" fill="#389826" fill-opacity=".95"/><path d="M1146 197.473v-52.551l34.113-2.766" fill="#9558b2" fill-opacity=".95"/><path d="M1168.781 113.957l11.727 26.16-33.375 2.707M1166.129 63.8l-21.906-50.206 37.425 23.734" fill="#389826" fill-opacity=".95"/><path d="M1181.559 137.57l-11.207-25.004 16.378-6.03" fill="#cb3c33" fill-opacity=".95"/><path d="M1169.91 110.598l-2.625-40.29 19.266 34.16" fill="#9558b2" fill-opacity=".95"/><path d="M1182.238 40.277l4.438 60.34-19.524-34.61" fill="#cb3c33" fill-opacity=".95"/><path d="M1164.55 232.727l28.876 23.289-46.574 39.125" fill="#389826" fill-opacity=".95"/><path d="M1190.094 290.125l-41.723 6.352 45.352-38.098" fill="#9558b2" fill-opacity=".95"/><path d="M1180.531 219.617l12.278 33.332-27.192-21.93M1182.602 35.563l-37.344-23.68 50.094-1.82M1114.121 344.008l72.61 3.414-139.239 16.23" fill="#cb3c33" fill-opacity=".95"/><path d="M1134.086 337.027l48.418 8.196-63.313-2.98" fill="#389826" fill-opacity=".95"/><path d="M1145.516 299.816l50.28 45.63-60.523-10.247" fill="#cb3c33" fill-opacity=".95"/><path d="M1190.152 292.14l7.465 52.255-50.387-45.723" fill="#4063d8" fill-opacity=".95"/><path d="M1195.66 254.898l-12.668-34.386 45.246 29.863" fill="#9558b2" fill-opacity=".95"/><path d="M1195.773 258.05l39.364 35.704-43.028-3.664" fill="#4063d8" fill-opacity=".95"/><path d="M1230.168 252.125l6.398 40.223-39.308-35.653" fill="#389826" fill-opacity=".95"/><path d="M1199.648 344.469l-7.48-52.367 43.95 3.742" fill="#9558b2" fill-opacity=".95"/><path d="M1196.75 8.008l-45.797 1.664 91.594-24.145" fill="#389826" fill-opacity=".95"/><path d="M1142.012 9.96L1085.77-6.366l156.035-9.98" fill="#cb3c33" fill-opacity=".95"/><path d="M1188.902 103.64l-4.757-64.69 66.593 43.76M1199.023 348.004l40.809 2.969-161.762 11.129" fill="#9558b2" fill-opacity=".95"/><path d="M1237.59 297.21l15.055 52.688-51.747-3.761M1197.496 10.242l53 19.192-65.793 6.394" fill="#389826" fill-opacity=".95"/><path d="M1252.066 81.191l-66.148-43.468 68.039-6.618" fill="#cb3c33" fill-opacity=".95"/><path d="M1251.094-16.441l2.812 44.98-54.351-19.68" fill="#4063d8" fill-opacity=".95"/><path d="M1188.793 106.313l73.598 24.222-79.184 9.317" fill="#9558b2" fill-opacity=".95"/><path d="M1252.332 84.281l13.176 45.176-74.348-24.469" fill="#389826" fill-opacity=".95"/><path d="M1182.977 142.7l81.578 46.07-82.535 27.832" fill="#cb3c33" fill-opacity=".95"/><path d="M1266 132.125v55.16l-80.84-45.648" fill="#389826" fill-opacity=".95"/><path d="M1230.668 249.582l-47.406-31.289 81.539-27.496M1267.43 128.902l-12.25-41.996 24.5 27.125" fill="#4063d8" fill-opacity=".95"/><path d="M1268 185.492v-50.984L1283.824 160" fill="#cb3c33" fill-opacity=".95"/><path d="M1280.215 116.523l3.426 39.391-15.414-24.832M1255.828 27.2l-2.762-44.141 34.028 1.84M1296.082 344.117l-38.539 5.38 41.23-32.267" fill="#389826" fill-opacity=".95"/><path d="M1254.555 349.297l-15.078-52.77 58.421 18.848" fill="#cb3c33" fill-opacity=".95"/><path d="M1299.238 313.703l-58.968-19.023 72.28-48.504" fill="#9558b2" fill-opacity=".95"/><path d="M1238.742 293.297l-6.586-41.39 78.082-6.587" fill="#4063d8" fill-opacity=".95"/><path d="M1267.156 190.723l44.817 52.445-79.145 6.676M1255.953 31.23l56.48 12.235-58.363 37.652" fill="#389826" fill-opacity=".95"/><path d="M1280.742 112.223l-26.21-29.02 58.038-37.445" fill="#cb3c33" fill-opacity=".95"/><path d="M1288.781-14.02l24.512 55.625-56.57-12.253" fill="#4063d8" fill-opacity=".95"/><path d="M1285.121 161.7l29.328 34.823-45.824-8.246" fill="#389826" fill-opacity=".95"/><path d="M1313.164 241.48l-43.582-51 46.363 8.344" fill="#cb3c33" fill-opacity=".95"/><path d="M1317.012 196.46l-28.055-33.315 39.453 20.164M1285.824 157.926l-3.738-42.98 55.129-2.801" fill="#4063d8" fill-opacity=".95"/><path d="M1314.879 45.57l23.715 64.5-55.965 2.844" fill="#389826" fill-opacity=".95"/><path d="M1300.902 316.023l37.82.899-40.519 26.113" fill="#cb3c33" fill-opacity=".95"/><path d="M1314.316 247.57l26.207 67.395-39.312-.938" fill="#389826" fill-opacity=".95"/><path d="M1329.574 181.66l-41.77-21.351 61.262-15.778" fill="#9558b2" fill-opacity=".95"/><path d="M1339.543 112.746l10.16 29.555-60.957 15.703M1315.652 42l-23.8-54.012L1350.442 42" fill="#389826" fill-opacity=".95"/><path d="M1339.695 107.273L1316.434 44h35.355" fill="#4063d8" fill-opacity=".95"/><path d="M1297.063 346l29.894.492-50.969 2.45" fill="#cb3c33" fill-opacity=".95"/><path d="M1341.629 317.43l14.691 27.543-56.007-.918M1317.813 200.93l41.488 59.925-44.254-17.515" fill="#389826" fill-opacity=".95"/><path d="M1329.68 184.895l28.105 70.261-39.52-57.086" fill="#9558b2" fill-opacity=".95"/><path d="M1341.984 313.203l-26.222-67.43 44.957 17.793" fill="#4063d8" fill-opacity=".95"/><path d="M1352.555 41.23l-60.59-55.855 76.683 9.465M1351.164 140.402l-9.976-29.02 37.18-26.296" fill="#cb3c33" fill-opacity=".95"/><path d="M1353.547 45.473l26.055 36.293-38.153 26.984" fill="#389826" fill-opacity=".95"/><path d="M1358.48 344.777l-14.445-27.09 48.762 15.352" fill="#cb3c33" fill-opacity=".95"/><path d="M1370.684-4.922l25.16 2.695-40.434 41.336M1362.465 264.598l37.488 28.117-56.23 21.555" fill="#389826" fill-opacity=".95"/><path d="M1395.184 331.695l-50.149-15.789 55.723-21.36" fill="#9558b2" fill-opacity=".95"/><path d="M1362.426 261.375l-30.336-75.84 69.203 44.555" fill="#389826" fill-opacity=".95"/><path d="M1401.031 291.023l-37.402-28.05 38.336-30.856M1381.137 80.477l-25.813-35.957 51.63 11.066" fill="#cb3c33" fill-opacity=".95"/><path d="M1397.375-.93l10.363 54.637-52.754-11.305" fill="#9558b2" fill-opacity=".95"/><path d="M1351.188 144.793l54.624 65.926-74.402-28.254" fill="#389826" fill-opacity=".95"/><path d="M1402.477 228.473l-63.922-41.157 69.175 26.274" fill="#cb3c33" fill-opacity=".95"/><path d="M1381.059 84.145l34.187 60.773-62.676-2.848" fill="#4063d8" fill-opacity=".95"/><path d="M1408.285 210.566l-55.074-66.464 62.668 2.847" fill="#cb3c33" fill-opacity=".95"/><path d="M1409.836 54.035l-9.754-51.418 30.14 52.305" fill="#389826" fill-opacity=".95"/><path d="M1409.387 56.02l18.777.816-41.637 21.223" fill="#9558b2" fill-opacity=".95"/><path d="M1416.48 143.035l-34.097-60.617 48.304-24.625" fill="#cb3c33" fill-opacity=".95"/><path d="M1417.629 149.152l20.113 35.653-27.426 25.597" fill="#9558b2" fill-opacity=".95"/><path d="M1396.133 334.012l43.86 3.133-73.626 7.05" fill="#389826" fill-opacity=".95"/><path d="M1402.715 294.96l46.398 40.833-51.965-3.715" fill="#cb3c33" fill-opacity=".95"/><path d="M1451.438 335.172l-46.508-40.926 55.808 4.652" fill="#389826" fill-opacity=".95"/><path d="M1432.133 54.227l-32.14-55.77 65.222 14.18M1432.668 58.082l34.926 34.926-49.086 50.027" fill="#9558b2" fill-opacity=".95"/><path d="M1409.434 214.773l52.18 48.7-57.4-33.914" fill="#389826" fill-opacity=".95"/><path d="M1403.973 231.734l62.683 37.043-63.633 22.793" fill="#9558b2" fill-opacity=".95"/><path d="M1461.23 296.934l-54.55-4.547 60.914-21.82" fill="#cb3c33" fill-opacity=".95"/><path d="M1439.16 183.25l-20.41-36.184 49.172 1.856" fill="#389826" fill-opacity=".95"/><path d="M1468.043 95.402l.937 51.559-49.683-1.875" fill="#cb3c33" fill-opacity=".95"/><path d="M1469.848 269.758l8.007-2.914-13.105 24.027M1466.64 10.898l-60.628-13.18 74.687-2.636M1439.129 186.25l42.305 25.75h-69.899" fill="#4063d8" fill-opacity=".95"/><path d="M1468.488 267.152L1411.535 214h72.14" fill="#cb3c33" fill-opacity=".95"/><path d="M1479.066 264.277l-8.566 3.114 12.457-43.606" fill="#9558b2" fill-opacity=".95"/><path d="M1469.477 150.18l14.015 60.73-42.98-26.16" fill="#cb3c33" fill-opacity=".95"/><path d="M1470.918 143.578l-.89-49.078 19.628 8.031" fill="#389826" fill-opacity=".95"/><path d="M1462.469 300.207l27.508 34.844-36.68.918M1490.707 105.05l6.148 25.473-24.597 14.934M1467 13.61l35.84 45.269-68.852-3.774" fill="#4063d8" fill-opacity=".95"/><path d="M1469.031 91.617l-34.476-34.476 68.02 3.726" fill="#389826" fill-opacity=".95"/><path d="M1490.39 100.668l-19.55-7.996 31.992-29.328M1480.11 266.89l35.206 50.036-51.886-19.457" fill="#cb3c33" fill-opacity=".95"/><path d="M1492.219 334.664l-27.211-34.469 50.793 19.047M1483.105-4.613l42.153 34.98-56.504-18.836" fill="#389826" fill-opacity=".95"/><path d="M1505.059 58.465l-35.192-44.457 58.344 19.449" fill="#9558b2" fill-opacity=".95"/><path d="M1451.977 338.008l62.488 8.812-137.793-1.601" fill="#cb3c33" fill-opacity=".95"/><path d="M1491.86 337.004l26.363 8.324-54.114-7.629" fill="#389826" fill-opacity=".95"/><path d="M1517.54 320.496l10.718 25.906-33.946-10.718" fill="#cb3c33" fill-opacity=".95"/><path d="M1485.617 211.223l-14.262-61.801 67.504 19.016" fill="#9558b2" fill-opacity=".95"/><path d="M1497.898 132.23l39.028 33.583-64.442-18.153M1485.906 214.031l53.38 1.875-58.063 46.824" fill="#389826" fill-opacity=".95"/><path d="M1540.043 170.05l.934 43.915-53.254-1.871" fill="#cb3c33" fill-opacity=".95"/><path d="M1518.188 317.531l-35.086-49.863 59.093 29.547" fill="#389826" fill-opacity=".95"/><path d="M1529.809 344.922l-10.606-25.629 22.977-19.445M1541.355 216.805l10.407 50.144-69.067-2.84" fill="#4063d8" fill-opacity=".95"/><path d="M1543.395 295.578l-58.778-29.387 67.043 2.754M1529.926 31.637L1486.39-4.484l68.543 10.187" fill="#cb3c33" fill-opacity=".95"/><path d="M1498.668 129.512l-6.414-26.582 63.246-3.668" fill="#389826" fill-opacity=".95"/><path d="M1505.527 61.578l51.512 35.594-64.625 3.746" fill="#9558b2" fill-opacity=".95"/><path d="M1540.45 166.207l-40.688-35.012 58.668-31.226M1529.719 34.777l27.84 60.32-51.043-35.265M1542.95 212.563l-.927-43.54 41.684.926" fill="#4063d8" fill-opacity=".95"/><path d="M1553.547 265.707l-10.297-49.605 46.797 3.746" fill="#389826" fill-opacity=".95"/><path d="M1585.258 171.223l5.605 46.683-46.687-3.734" fill="#cb3c33" fill-opacity=".95"/><path d="M1560.645 99.441l33.628 16.813-51.378 48.578" fill="#389826" fill-opacity=".95"/><path d="M1585.176 167.98l-41.719-.925 50.988-48.207" fill="#cb3c33" fill-opacity=".95"/><path d="M1553.621 269.375l46.563 21-54.782 5.48M1591.703 220.977l11.969 30.386-47.875 14.73" fill="#9558b2" fill-opacity=".95"/><path d="M1603.04 289.469l-47.216-21.293 48.14-14.813" fill="#389826" fill-opacity=".95"/><path d="M1357.98 347.004l197.637 16.668-280.18-12.703" fill="#4063d8" fill-opacity=".95"/><path d="M1529.871 349l64.61 15.941-208.926-17.62" fill="#9558b2" fill-opacity=".95"/><path d="M1544.48 299.027l59.598 66.223-72.844-17.977" fill="#389826" fill-opacity=".95"/><path d="M1603.043 292.102l2.848 72.171-59.829-66.476" fill="#cb3c33" fill-opacity=".95"/><path d="M1557.04 3.996L1503.87-3.91l96.277 5.031" fill="#9558b2" fill-opacity=".95"/><path d="M1557.219 6.21l56.238 26.74-81.129-.923" fill="#389826" fill-opacity=".95"/><path d="M1560.273 96.207L1531.57 34.02l84.196.957" fill="#cb3c33" fill-opacity=".95"/><path d="M1595.352 114.559l-33.727-16.864 54.336-59.957" fill="#4063d8" fill-opacity=".95"/><path d="M1616.031 2.066l.918 30.329-56.058-26.653" fill="#cb3c33" fill-opacity=".95"/><path d="M1592.73 216.703l-5.609-46.766 50.504-2.804" fill="#9558b2" fill-opacity=".95"/><path d="M1596.602 118.2l41.289 46.917-50.672 2.813M1607.941 365.473l-2.785-70.547 33.418 56.625" fill="#389826" fill-opacity=".95"/><path d="M1618.922 31.445l-.879-29.101 21.164 6.176" fill="#9558b2" fill-opacity=".95"/><path d="M1618.113 37.434l27.461 80.48-48.289-2.84" fill="#389826" fill-opacity=".95"/><path d="M1639.328 163.723l-40.992-46.582 47.516 2.793" fill="#4063d8" fill-opacity=".95"/><path d="M1605.977 252.91l38.351-3.652-39.265 39.265" fill="#cb3c33" fill-opacity=".95"/><path d="M1646.059 247.086l-37.711 3.59 39.507-30.528" fill="#389826" fill-opacity=".95"/><path d="M1605.441 250.395l-11.984-30.422 52.547-.918" fill="#cb3c33" fill-opacity=".95"/><path d="M1639.363 168.191l8.453 48.829-53.523.94M1640.77 9.773l22.05 44.102-43.183-20.215" fill="#389826" fill-opacity=".95"/><path d="M1646.914 115.656l-27.207-79.754 44.098 20.641" fill="#cb3c33" fill-opacity=".95"/><path d="M1639.871 349.813l-34.086-57.754 58.703 1.894" fill="#9558b2" fill-opacity=".95"/><path d="M1646.656 249.758l17.817 42.191-58.133-1.875" fill="#4063d8" fill-opacity=".95"/><path d="M1665.164 59.07l15.59 38.512-32.098 19.258" fill="#389826" fill-opacity=".95"/><path d="M1665.195 54.156l-21.918-43.836 40.184 21.004" fill="#9558b2" fill-opacity=".95"/><path d="M1681.207 93.375l-15.059-37.207 17.715-22.148M1649.871 219.953l33.324 26.117-35.125.903" fill="#cb3c33" fill-opacity=".95"/><path d="M1666.012 290.46l-17.52-41.5 35.965-.92M1684.703 29.715l-38.035-19.88 47.543 6.915M1685.488 245.328l-33.926-26.59 44.012-4.586" fill="#389826" fill-opacity=".95"/><path d="M1649.824 216.91l-8.379-48.422 53.078 43.766" fill="#cb3c33" fill-opacity=".95"/><path d="M1686.082 249.32l22.27 42.68h-40.829" fill="#4063d8" fill-opacity=".95"/><path d="M1647.816 120.313l61.094 19.738-67.676 24.441" fill="#9558b2" fill-opacity=".95"/><path d="M1681.723 99.332l27.703 38.785-60.024-19.39M1696.355 211.172l-54.367-44.828 68.672-24.797" fill="#4063d8" fill-opacity=".95"/><path d="M1666.402 294.57l49.336 37.953-74.008 18.024" fill="#cb3c33" fill-opacity=".95"/><path d="M1709.18 294l7.316 36.582L1668.941 294" fill="#389826" fill-opacity=".95"/><path d="M1712.637 141.875l27.914 24.191-41.871 43.735" fill="#cb3c33" fill-opacity=".95"/><path d="M1685.934 32.469l59.882 24.71-62.734 38.97" fill="#389826" fill-opacity=".95"/><path d="M1696.195 17.426l45.535 35.906-55.168-22.77" fill="#cb3c33" fill-opacity=".95"/><path d="M1741.375 168.098l5.477 29.199-46.536 13.683" fill="#9558b2" fill-opacity=".95"/><path d="M1717.816 334.074l33.559 21.766-104.305-4.535M1712.234 138.61l-28.05-39.274 69.199 10.285" fill="#389826" fill-opacity=".95"/><path d="M1747.242 58.648l7.563 49.164-69.961-10.402" fill="#cb3c33" fill-opacity=".95"/><path d="M1741.418 164.172l-27.797-24.09 40.77-28.727" fill="#9558b2" fill-opacity=".95"/><path d="M1697.527 214.621l58.508 42.723-68.726-11.145" fill="#4063d8" fill-opacity=".95"/><path d="M1747.23 199.27l11.297 57.414-59.3-43.297M1710.367 291.543l-22.558-43.238 69.55 11.28" fill="#389826" fill-opacity=".95"/><path d="M1754.152 355.258l-34.664-22.485 41.223-49.656" fill="#cb3c33" fill-opacity=".95"/><path d="M1718.57 330.75l-7.402-37.012 48.113-12.027" fill="#9558b2" fill-opacity=".95"/><path d="M1759.164 260.777l1.758 18.461-45.711 11.43M1695.906 14.977l-47.36-6.891 105.915-12.914" fill="#cb3c33" fill-opacity=".95"/><path d="M1641.082 6.984l-18.18-5.304L1734.25-4.38M1747.406 55.258l-49.34-38.903 64.52-21.82" fill="#389826" fill-opacity=".95"/><path d="M1764.805-6.094l13.492-1.687-26.985 55.66" fill="#cb3c33" fill-opacity=".95"/><path d="M1756.602 110.746l25.808 20.277-38.715 32.262" fill="#4063d8" fill-opacity=".95"/><path d="M1760.652 257.137l-11.023-56.032 34.906 35.825" fill="#cb3c33" fill-opacity=".95"/><path d="M1748.816 196.926l-5.453-29.074 48.157 25.441" fill="#389826" fill-opacity=".95"/><path d="M1783.313 132.875l10.351 59.29-49.879-26.352" fill="#cb3c33" fill-opacity=".95"/><path d="M1785.406 234.957l-35.215-36.14 43.555-3.708" fill="#4063d8" fill-opacity=".95"/><path d="M1762.723 283.102l30.886 50.543-37.437 21.527M1783.633 129.438l-25.52-20.047 41.012-12.758" fill="#389826" fill-opacity=".95"/><path d="M1756.813 107.7l-7.461-48.5 49.433 35.44" fill="#9558b2" fill-opacity=".95"/><path d="M1779.938-6.578l31.417 74.258-61.882-11.426" fill="#4063d8" fill-opacity=".95"/><path d="M1800.598 93.48l-48.375-34.683 59.328 10.953" fill="#cb3c33" fill-opacity=".95"/><path d="M1762.91 279l-1.762-18.48 47.52 18.48" fill="#389826" fill-opacity=".95"/><path d="M1785.781 238.496l25.684 39.445-49.535-19.265M1794.754 331.684L1763.78 281h48.809" fill="#9558b2" fill-opacity=".95"/><path d="M1795.527 191.203l-10.328-59.152 45.067 1.879" fill="#389826" fill-opacity=".95"/><path d="M1801.227 96.86l28.593 35.05-44.273-1.847" fill="#4063d8" fill-opacity=".95"/><path d="M1812.945 66.3l-31.082-73.46 50.86 20.719" fill="#cb3c33" fill-opacity=".95"/><path d="M1795.746 195.32l36.895 12.914-45.196 26.75" fill="#9558b2" fill-opacity=".95"/><path d="M1813.648 277.629l-26.242-40.3 45.926-27.18" fill="#389826" fill-opacity=".95"/><path d="M1831.133 136.355l2.808 70.215-37.445-13.105M1814.602 281.297l26.507 10.055-43.87 39.3" fill="#cb3c33" fill-opacity=".95"/><path d="M1813.45 70.414l29.59 17.035-40.349 6.278" fill="#389826" fill-opacity=".95"/><path d="M1831.598 130.926l-28.72-35.207 41.692-6.485" fill="#9558b2" fill-opacity=".95"/><path d="M1795.016 335.145l49.468 26.566-86.109-5.496" fill="#cb3c33" fill-opacity=".95"/><path d="M1842.172 293.086l5.68 68.16-51.122-27.453M1834.121 15.527l19.469 39.864-38.938 12.05" fill="#389826" fill-opacity=".95"/><path d="M1845.387 86.492l-29.903-17.215L1853.54 57.5" fill="#4063d8" fill-opacity=".95"/><path d="M1835.191 210.91l21.493 48.59-41.114 18.688" fill="#cb3c33" fill-opacity=".95"/><path d="M1842.5 289.742l-25.898-9.824 39.293-17.863" fill="#389826" fill-opacity=".95"/><path d="M1835.918 205.973l-2.852-71.348 57.079 27.59" fill="#9558b2" fill-opacity=".95"/><path d="M1846.66 89.246l45.586 13.957-58.613 27.91" fill="#cb3c33" fill-opacity=".95"/><path d="M1891.078 160.445l-56.765-27.437 59.605-28.383M1855.453 58.078l36.567 42.965-44.793-13.715M1858.617 258.922l-21.25-48.04 61.899 43.423" fill="#389826" fill-opacity=".95"/><path d="M1894.426 100.781l-37.781-44.394 51.003-21.723" fill="#cb3c33" fill-opacity=".95"/><path d="M1855.48 54.707l-19.62-40.176 70.078 18.688" fill="#9558b2" fill-opacity=".95"/><path d="M1899.184 368.879l-48.012-6.59 59.308-57.426" fill="#cb3c33" fill-opacity=".95"/><path d="M1849.82 360.813l-5.718-68.625 65.765 10.484" fill="#4063d8" fill-opacity=".95"/><path d="M1858.363 261.547l49.95 38.851-63.829-10.175" fill="#9558b2" fill-opacity=".95"/><path d="M1901.21 256.098l9.243 43.43-49.902-38.813" fill="#4063d8" fill-opacity=".95"/><path d="M1892.008 163.281l21.922 17.356-73.993 24.664" fill="#cb3c33" fill-opacity=".95"/><path d="M1901.305 253.293l-64.106-44.973 77.5-25.832" fill="#4063d8" fill-opacity=".95"/><path d="M1908.441 31.816l-67.43-17.98 76.419-1.797" fill="#389826" fill-opacity=".95"/><path d="M1834.184 11.996L1787.93-6.848l119.062 17.13" fill="#9558b2" fill-opacity=".95"/><path d="M1909.734 34.434l32.606 14.906-45.649 50.308" fill="#4063d8" fill-opacity=".95"/><path d="M1919.16 13.063l22.094 33.582-30.93-14.141" fill="#cb3c33" fill-opacity=".95"/><path d="M1916.332 184.629l27.195 70.336-40.324-.938M1912.742 300.68l-9.183-43.164 40.406 32.14" fill="#9558b2" fill-opacity=".95"/><path d="M1944.027 256.977l.91 30.898-39.988-31.805" fill="#4063d8" fill-opacity=".95"/><path d="M1912.516 304.828l32.898 55.457-44.176 8.461" fill="#9558b2" fill-opacity=".95"/><path d="M1945.02 291.406l.93 65.86-32.47-54.727" fill="#389826" fill-opacity=".95"/><path d="M1895.918 104.625l52.895 28.336-55.727 27.39" fill="#cb3c33" fill-opacity=".95"/><path d="M1915.805 179.57l-21.942-17.37 53.942-26.516" fill="#389826" fill-opacity=".95"/><path d="M1943.656 46.66l-22.441-34.113 30.523 7.183" fill="#4063d8" fill-opacity=".95"/><path d="M1943.621 50.906l18.945 53.051-65.367-1.894" fill="#cb3c33" fill-opacity=".95"/><path d="M1950.54 131.617l-51.325-27.496 63.238 1.836" fill="#389826" fill-opacity=".95"/><path d="M1945.105 253.504l-27.07-70.016 46.676 29.875" fill="#cb3c33" fill-opacity=".95"/><path d="M1947.984 359.785l-.937-66.34 38.308 58.864" fill="#9558b2" fill-opacity=".95"/><path d="M1964.156 107.04l21.64 32.46-33.362-7.215" fill="#4063d8" fill-opacity=".95"/><path d="M1950.938 134.781l36.996 58.809-70.196-13.278" fill="#cb3c33" fill-opacity=".95"/><path d="M1965.953 211.785l-45.062-28.844 66.695 12.621" fill="#4063d8" fill-opacity=".95"/><path d="M1987.031 141.813l1.832 49.5-35.75-56.833" fill="#389826" fill-opacity=".95"/><path d="M1946.95 288.23l-.915-31.085 42.059 5.484" fill="#cb3c33" fill-opacity=".95"/><path d="M1966.02 215.238l23.226 45.524-42.738-5.575" fill="#389826" fill-opacity=".95"/><path d="M1989.031 196.977l.907 60.738-22.665-44.418" fill="#cb3c33" fill-opacity=".95"/><path d="M1964.691 103.965l-18.394-51.508 54.265 49.668" fill="#389826" fill-opacity=".95"/><path d="M1987.773 138.855l-21.964-32.945 35.691-1.832" fill="#9558b2" fill-opacity=".95"/><path d="M1986.797 350.852l-38.61-59.325 57.442 13.184" fill="#cb3c33" fill-opacity=".95"/><path d="M1990.496 263.492l14.902 39.113-56.812-13.039M1918.91 9.977L1790.746-8.465l212.996-9.219" fill="#389826" fill-opacity=".95"/><path d="M1952.813 17.93l-30.11-7.086 81.469-26.567" fill="#cb3c33" fill-opacity=".95"/><path d="M1953.68 20.21l59.632 15.599-67.89 11.925" fill="#9558b2" fill-opacity=".95"/><path d="M2002.402 101.098l-56.23-51.465 70.523-12.387" fill="#cb3c33" fill-opacity=".95"/><path d="M2010.21-17.285l6.61 51.941-61.386-16.054" fill="#4063d8" fill-opacity=".95"/><path d="M1990.969 194.176l-1.852-50.004 43.524 58.336" fill="#cb3c33" fill-opacity=".95"/><path d="M1991.957 259.086l-.937-62.863 42.218 8.445M2018.578 37.992l16.133 16.133-29.574 43.914" fill="#389826" fill-opacity=".95"/><path d="M2003.613 104.172l34.621 8.2-48.289 26.425" fill="#cb3c33" fill-opacity=".95"/><path d="M2035.246 56.91l4.64 53.797-35.25-8.348" fill="#9558b2" fill-opacity=".95"/><path d="M2007.422 305.617l32.59 26.07-51.215 19.555" fill="#4063d8" fill-opacity=".95"/><path d="M2007.313 302.016l-14.903-39.121 49.363-3.723" fill="#cb3c33" fill-opacity=".95"/><path d="M2034.395 206.453l8.437 50.633-49.695 3.75M2041.266 330.133l-31.32-25.059 34.898.899" fill="#9558b2" fill-opacity=".95"/><path d="M2043.113 260.695l1.844 43.278-35.91-.922" fill="#389826" fill-opacity=".95"/><path d="M2034.918 202.215l-44.293-59.367 67.852 20.73" fill="#9558b2" fill-opacity=".95"/><path d="M2040.465 113.434l17.89 48.02-67.793-20.716" fill="#389826" fill-opacity=".95"/><path d="M2035.79 52.375l-16.247-16.246 44.234-31.598" fill="#4063d8" fill-opacity=".95"/><path d="M2018.781 34.215l-6.582-51.727 52.664 18.809M2041.77 333.16l35.19 33.336-86.124-13.89M2060.14 160.516l-17.761-47.68 44.875-5.61" fill="#9558b2" fill-opacity=".95"/><path d="M2041.906 110.879l-4.68-54.274 49.598 48.66" fill="#cb3c33" fill-opacity=".95"/><path d="M2044.625 255.656l-8.465-50.77 54.531-5.644" fill="#389826" fill-opacity=".95"/><path d="M2060.172 164.64l30.71 32.575-53.976 5.582M2067.25.027l-30.188-10.78 50.668 14.015" fill="#cb3c33" fill-opacity=".95"/><path d="M2088.738 108.723l14.946 52.304-42.036.938" fill="#389826" fill-opacity=".95"/><path d="M2092.582 196.098l-30.312-32.149 41.332-.918" fill="#9558b2" fill-opacity=".95"/><path d="M2092.453 200.25l11.328 53.809-57.586 2.832" fill="#cb3c33" fill-opacity=".95"/><path d="M2104 168.164v77.23l-9.965-47.335" fill="#389826" fill-opacity=".95"/><path d="M2046.883 305.852l52.875-9.856-56.457 34.05" fill="#4063d8" fill-opacity=".95"/><path d="M2079.555 366.2l-35.914-34.024 59.539-35.91" fill="#389826" fill-opacity=".95"/><path d="M2046.95 303.805l-1.872-44.008 57.117 33.707" fill="#9558b2" fill-opacity=".95"/><path d="M2104 256.05v36.2l-56.617-33.414" fill="#389826" fill-opacity=".95"/><path d="M2067.082 2.84l44.707 62.777-74.191-12.363" fill="#9558b2" fill-opacity=".95"/><path d="M2104.121 7.875l8.27 55.14-43.196-60.656M2088.82 104.426l-49.855-48.918 73.375 12.23" fill="#4063d8" fill-opacity=".95"/><path d="M2104.504 156.625l-14.418-50.465 22.531-35.148" fill="#cb3c33" fill-opacity=".95"/></svg>