<svg xmlns="http://www.w3.org/2000/svg" width="2800" height="350pt" viewBox="0 0 2100 350"><path fill="#1a1a33" d="M0 0h2100v350H0z"/><path d="M1.652 94.559L4 134.996.48 191.262" fill="#389826" fill-opacity=".65"/><path d="M4.934 152.117l2.058 37.801-6.183 28.18M5.793 131.418L2.336 71.785l15.559 37.16" fill="#9558b2" fill-opacity=".65"/><path d="M8.941 188.934L6.22 138.949l29.078 48.164" fill="#389826" fill-opacity=".65"/><path d="M8.816 190.945l25.82-1.78L.806 227.448" fill="#cb3c33" fill-opacity=".65"/><path d="M-.336 233.379l39.52 47.988-47.989 10.352" fill="#4063d8" fill-opacity=".65"/><path d="M16.855 339.668l-25.332-45.973 47.852-10.32" fill="#cb3c33" fill-opacity=".65"/><path d="M31.23 352.102l-13.027-10.418 20.84-52.102" fill="#389826" fill-opacity=".65"/><path d="M4.887 11.145l56.636 50.972L2.06 64.95" fill="#cb3c33" fill-opacity=".65"/><path d="M45.297.195l16.805 59.75L6.086 9.531" fill="#4063d8" fill-opacity=".65"/><path d="M36.793 189.746l26.398 49.969-62.226-9.43" fill="#9558b2" fill-opacity=".65"/><path d="M40.86 280.258l-39.426-47.88 61.957 9.392" fill="#389826" fill-opacity=".65"/><path d="M19.512 107.637L2.746 67.582 63.29 86.211" fill="#cb3c33" fill-opacity=".65"/><path d="M63.086 64.043l1.789 20.566L6.762 66.727M19.184 110.766l44.863 53.105-57.68-29.297" fill="#389826" fill-opacity=".65"/><path d="M37.313 186.582L7.66 137.472l58.375 29.653" fill="#cb3c33" fill-opacity=".65"/><path d="M64.863 243.215l16.606 38.75-38.75-.926M41.688 284.563L83.3 339.413l-50.125 13.242" fill="#4063d8" fill-opacity=".65"/><path d="M82.035 283.977l1.856 52.906-40.84-53.832" fill="#9558b2" fill-opacity=".65"/><path d="M65.027 238.914L38.973 189.59l46.53 13.031" fill="#cb3c33" fill-opacity=".65"/><path d="M67.648 168.445l17.344 31.953-45.644-12.78M65.496 87.36l23.52 54.562-67.735-32.926" fill="#389826" fill-opacity=".65"/><path d="M68.063 165.523l-45.247-53.558 66.485 32.32" fill="#cb3c33" fill-opacity=".65"/><path d="M86.238 198.5l-17.004-31.32 20.586-20.586" fill="#4063d8" fill-opacity=".65"/><path d="M82.734 279.844l-15.925-37.16 23.004 7.964" fill="#9558b2" fill-opacity=".65"/><path d="M86.273 205.324l3.602 43.227-23.414-8.106" fill="#389826" fill-opacity=".65"/><path d="M64.367 60.61L47.457.48 94.43 14.574" fill="#cb3c33" fill-opacity=".65"/><path d="M95.91 15.969l7.813 14.758-35.598 27.785" fill="#389826" fill-opacity=".65"/><path d="M91.176 141.887l-23.16-53.735 43.543 22.235" fill="#9558b2" fill-opacity=".65"/><path d="M66.95 85.363l-1.723-19.8 42.18 40.457" fill="#cb3c33" fill-opacity=".65"/><path d="M104.188 32.902l7.542 74.496-46.203-44.32" fill="#9558b2" fill-opacity=".65"/><path d="M113.813 108.078l-7.481-73.836 39.258 48.602M85.926 337.914l-1.887-53.848 61.402 3.778" fill="#389826" fill-opacity=".65"/><path d="M91.64 251.605l52.626 34.165-60.012-3.696M146.21 80.43L109.614 35.12l38.34 24.399" fill="#4063d8" fill-opacity=".65"/><path d="M147.402 285.422l-51.617-33.508 57.957 10.867" fill="#cb3c33" fill-opacity=".65"/><path d="M154.129 260.82L94.32 249.605l64.485-28.972" fill="#9558b2" fill-opacity=".65"/><path d="M91.879 248.508l-3.77-45.223 68.778 16.016" fill="#cb3c33" fill-opacity=".65"/><path d="M148.457 57.469l-41.148-26.184 56.109-18.703" fill="#389826" fill-opacity=".65"/><path d="M105.488 29.785L97.625 14.93l60.285-2.621" fill="#4063d8" fill-opacity=".65"/><path d="M91.93 145.063l72.047 4.742-75.84 50.242" fill="#cb3c33" fill-opacity=".65"/><path d="M159.117 217.77l-69.629-16.22 76.309-50.554M113.27 111.426l50.324 36.347-70.828-4.66" fill="#389826" fill-opacity=".65"/><path d="M146.469 84.7l18.715 61.753-50.528-36.492" fill="#cb3c33" fill-opacity=".65"/><path d="M147.563 288.676l19.976 53.27-79.906-2.852" fill="#4063d8" fill-opacity=".65"/><path d="M149.832 61.04l31.715 27.308-33.477-6.168" fill="#cb3c33" fill-opacity=".65"/><path d="M167.004 145.563l-18.57-61.282 35.28 6.5" fill="#389826" fill-opacity=".65"/><path d="M85 341.035l89.855 24.02-137.007-11.567" fill="#cb3c33" fill-opacity=".65"/><path d="M168.469 343.98l15.113 21.34-89.793-24.004" fill="#389826" fill-opacity=".65"/><path d="M155.61 263.527l28.48 16.91-34.707 5.34" fill="#4063d8" fill-opacity=".65"/><path d="M168.879 339.828l-19.512-52.027 36.235-5.574" fill="#9558b2" fill-opacity=".65"/><path d="M184.61 94.707l7.238 55.203-23.528-1.812" fill="#cb3c33" fill-opacity=".65"/><path d="M160.832 220.516l34.063 16.574-38.668 23.015" fill="#4063d8" fill-opacity=".65"/><path d="M186.328 279.438L156.957 262l38.55-22.95" fill="#cb3c33" fill-opacity=".65"/><path d="M164.621 10.016l-60.68 2.636 90.582-27.261" fill="#9558b2" fill-opacity=".65"/><path d="M96 12.957L51.066-.523l137.496-14.38" fill="#389826" fill-opacity=".65"/><path d="M167.71 151.957l31.802 49.578-38.352 15.903" fill="#cb3c33" fill-opacity=".65"/><path d="M192.133 151.938l7.144 45.523-30.351-47.309" fill="#4063d8" fill-opacity=".65"/><path d="M196.168 235.484l-33.734-16.41 37.379-15.5" fill="#9558b2" fill-opacity=".65"/><path d="M165.398 12.96l43.247 48.888-58.286-3.762" fill="#cb3c33" fill-opacity=".65"/><path d="M184.938 88.625l-33.024-28.434 56.871 3.668M198.273-15.105l11.235 74.91-43.074-48.692M197.738 238.258l31.102 9.148-40.246 31.098" fill="#4063d8" fill-opacity=".65"/><path d="M201.684 204.828l26.957 40.438-30.551-8.989" fill="#cb3c33" fill-opacity=".65"/><path d="M193.691 148.59l-7.539-57.504 51.844 3.77" fill="#389826" fill-opacity=".65"/><path d="M210.988 64.453l26.535 28.363-50.324-3.66" fill="#cb3c33" fill-opacity=".65"/><path d="M230.375 244.262l-27.906-41.864 36.277-17.675" fill="#389826" fill-opacity=".65"/><path d="M201.777 200.508l-7.43-47.383 43.665 29.73" fill="#cb3c33" fill-opacity=".65"/><path d="M239.219 91.703l-26.39-28.21 30.03-9.102" fill="#4063d8" fill-opacity=".65"/><path d="M211.816 61.707L200.68-12.535l41.761 64.96" fill="#389826" fill-opacity=".65"/><path d="M186.238 365.605l-15.597-22.023 76.152-21.102" fill="#4063d8" fill-opacity=".65"/><path d="M187.598 282.523l61.89 37.137-79.027 21.899" fill="#389826" fill-opacity=".65"/><path d="M230.445 248.691l19.89 69.145-61.565-36.941" fill="#9558b2" fill-opacity=".65"/><path d="M239.621 96.031L257.613 150h-62.492" fill="#4063d8" fill-opacity=".65"/><path d="M239.684 181.574L196.246 152h60.996M251.32 321.71l7.48 37.4-69.187 6.542" fill="#389826" fill-opacity=".65"/><path d="M243.922 51.031l-42.305-65.808 62.988 27.261" fill="#cb3c33" fill-opacity=".65"/><path d="M265.785 10.816l-61.262-26.515 84.122 4.574" fill="#389826" fill-opacity=".65"/><path d="M240.805 184.46l50.113 22.692-58.625 37.825" fill="#9558b2" fill-opacity=".65"/><path d="M259.008 152.941l31.46 51.813-49.038-22.203" fill="#cb3c33" fill-opacity=".65"/><path d="M244.906 54.02l46.145.921-49.836 36.914" fill="#389826" fill-opacity=".65"/><path d="M266.094 13.941l26.011 39.02-46.453-.93" fill="#4063d8" fill-opacity=".65"/><path d="M290.102-9.75l2.734 60.203-25.54-38.312M259.453 149.195l-17.848-53.539 53.54 19.727" fill="#cb3c33" fill-opacity=".65"/><path d="M293.094 55.918l2.832 57.621-53.844-19.836M292.648 204.492l-31.511-51.902 42.633 11.12" fill="#9558b2" fill-opacity=".65"/><path d="M296.324 117.02l7.438 44.625-42.766-11.157" fill="#389826" fill-opacity=".65"/><path d="M252.594 318.441l-20.02-69.59 74.356 35.274M292.43 208.559l17.105 56.066-76.023-18.055" fill="#cb3c33" fill-opacity=".65"/><path d="M308.16 282.496l-68.148-32.328 69.898 16.602" fill="#389826" fill-opacity=".65"/><path d="M260.793 358.855l-7.414-37.062 58.375 28.727" fill="#cb3c33" fill-opacity=".65"/><path d="M308.148 285.719l5.696 63.597-59.801-29.425" fill="#4063d8" fill-opacity=".65"/><path d="M311.566 264.438l-16.347-53.59 37.238 39.964" fill="#389826" fill-opacity=".65"/><path d="M315.922 350.082l-5.3-59.195 23.855 60.965M297.941 113.8l-2.82-57.398 51.75 47.989" fill="#cb3c33" fill-opacity=".65"/><path d="M305.469 165.086l43.933 51.414-55.152-10.285" fill="#4063d8" fill-opacity=".65"/><path d="M333.785 249.305l-37.984-40.766 54.66 10.191" fill="#cb3c33" fill-opacity=".65"/><path d="M348.188 102.883l-51.254-47.528 54.984 6.524" fill="#389826" fill-opacity=".65"/><path d="M352.016 59.875l-56.02-6.645 56.969-65.515" fill="#cb3c33" fill-opacity=".65"/><path d="M294.887 51.457l-2.844-62.504 59.668-2.844" fill="#389826" fill-opacity=".65"/><path d="M311.86 267.309l42.53 13.02-44.265 2.605" fill="#4063d8" fill-opacity=".65"/><path d="M333.816 252.313l23.149 26.71-43.63-13.355" fill="#cb3c33" fill-opacity=".65"/><path d="M335.926 350.063l-25.492-65.145 48.152-2.832" fill="#389826" fill-opacity=".65"/><path d="M305.758 161.46l-7.52-45.108 62.028 15.976" fill="#cb3c33" fill-opacity=".65"/><path d="M348.457 106.121l12.625 24.352-59.523-15.332M351.293 215.637l-44.727-52.34 55.196-29.5M354.973-12.906l25.754 21.152-26.672 48.746" fill="#9558b2" fill-opacity=".65"/><path d="M360.3 283.258l22.345 33.512-44.684 33.507" fill="#cb3c33" fill-opacity=".65"/><path d="M383.078 318.941l1.867 44.778-46.644-11.196" fill="#4063d8" fill-opacity=".65"/><path d="M363.477 136.164l28.144 75.996-38.465 4.692M352.379 219.39l43.398 25.856-60.015 4.617" fill="#389826" fill-opacity=".65"/><path d="M360.09 279.578l-24.035-27.734 60.086-4.621" fill="#9558b2" fill-opacity=".65"/><path d="M383.512 314.469l-22.2-33.305 36.075-32.375" fill="#389826" fill-opacity=".65"/><path d="M392.184 214.105l5.437 29.91-42.594-25.378" fill="#4063d8" fill-opacity=".65"/><path d="M382.09 9.914l17.453 25.719-44.086 22.96" fill="#389826" fill-opacity=".65"/><path d="M353.797 63.27l49.293 51.148-53.012-10.227" fill="#cb3c33" fill-opacity=".65"/><path d="M400.098 37.598l4.734 75.75-50.184-52.078" fill="#9558b2" fill-opacity=".65"/><path d="M363.48 130.754l-12.64-24.379 51.469 9.93" fill="#389826" fill-opacity=".65"/><path d="M392.996 210.11l-27.988-75.57 44.781 29.855" fill="#4063d8" fill-opacity=".65"/><path d="M405.14 117.387l4.645 44.601-44.601-29.734" fill="#cb3c33" fill-opacity=".65"/><path d="M406.887 114.188l-4.567-73.09 27.407 57.558" fill="#389826" fill-opacity=".65"/><path d="M399.648 243.973l-5.464-30.055 39.16-2.73" fill="#cb3c33" fill-opacity=".65"/><path d="M411.176 166.418l23.203 42.691-39.906 2.786M382.18 6.852L356.793-14h77.973" fill="#389826" fill-opacity=".65"/><path d="M401.047 34.29l-17.52-25.821 53.485-21.207" fill="#4063d8" fill-opacity=".65"/><path d="M430.777 96.207l-27.945-58.684 41.918 11.18" fill="#cb3c33" fill-opacity=".65"/><path d="M439.246-12.367l5.621 59.031-42.164-11.246M386.945 363.691l-1.875-45.039 58.176 29.09M411.887 162.879l-4.606-44.227 40.543 39.618" fill="#389826" fill-opacity=".65"/><path d="M430.453 100.582l17.387 54.91-40.266-39.351" fill="#4063d8" fill-opacity=".65"/><path d="M435.691 207.34l-23.113-42.535 36.059-4.621" fill="#9558b2" fill-opacity=".65"/><path d="M399.73 247.375l54.141 21.844-68.387 45.59" fill="#4063d8" fill-opacity=".65"/><path d="M435.563 211.82l18.789 55.438-53.555-21.61" fill="#389826" fill-opacity=".65"/><path d="M445.406 346.586l-58.988-29.496 78.969-32.348" fill="#cb3c33" fill-opacity=".65"/><path d="M455.785 270.344l9.61 12.234-72.516 29.703" fill="#389826" fill-opacity=".65"/><path d="M450.79 159.898l38.425-5.492-51.23 52.149" fill="#cb3c33" fill-opacity=".65"/><path d="M446.078 349.016l39.91 4.886-88.781 8.961" fill="#9558b2" fill-opacity=".65"/><path d="M446.426 50.094l48.105 58.48L432.277 98.2M491.094 152.117l-38.367 5.485 42.937-44.762" fill="#389826" fill-opacity=".65"/><path d="M450.445 157.09l-18-56.836 62.524 10.422M456.523 267.434l-18.836-55.57 60.278 27.312" fill="#cb3c33" fill-opacity=".65"/><path d="M466.98 281.36l-9.53-12.137 38.136-26M467.54 284.582l32.73 22.445-52.368 38.34" fill="#9558b2" fill-opacity=".65"/><path d="M494.156 352.89l-45.527-5.574 52.027-38.093" fill="#cb3c33" fill-opacity=".65"/><path d="M499.086 241.887l1.855 63.175-32.515-22.296" fill="#389826" fill-opacity=".65"/><path d="M446.871 46.582l-5.71-59.957 73.28 33.309" fill="#cb3c33" fill-opacity=".65"/><path d="M491.957 154.473l25.285 29.03-77.73 24.349" fill="#389826" fill-opacity=".65"/><path d="M499.414 237.637l-60.613-27.465 78.605-24.625" fill="#9558b2" fill-opacity=".65"/><path d="M496.578 107.914l-48.75-59.266 70.738-14.336" fill="#cb3c33" fill-opacity=".65"/><path d="M516.285 21.355l2.508 10.868-61.86 12.543" fill="#389826" fill-opacity=".65"/><path d="M502.941 305.012l-1.863-63.325 34.457 38.18" fill="#cb3c33" fill-opacity=".65"/><path d="M502.742 308.797l32.356 24.035-38.825 19.414" fill="#389826" fill-opacity=".65"/><path d="M536 282.035v48.977l-32.344-24.028" fill="#9558b2" fill-opacity=".65"/><path d="M497.781 111.938l41.778 34.347-46.418 5.57" fill="#4063d8" fill-opacity=".65"/><path d="M518.863 182.324l-24.867-28.554 46.055-5.528" fill="#9558b2" fill-opacity=".65"/><path d="M516.703 18.766l-71.988-32.72 97.23.934M541.594 145.371l-41.215-33.887 52.203 7.329" fill="#389826" fill-opacity=".65"/><path d="M520.84 32.191l-2.352-10.18 31.328 18.012" fill="#cb3c33" fill-opacity=".65"/><path d="M543.488-11.746l12.028 52.738-37.012-21.281" fill="#4063d8" fill-opacity=".65"/><path d="M520.68 34.219l34.492 9.324-55.934 62.46" fill="#389826" fill-opacity=".65"/><path d="M553.047 116.855l-54.05-7.585 56.894-63.532" fill="#4063d8" fill-opacity=".65"/><path d="M519.629 185.238l36.187 11.137L502 236.273" fill="#389826" fill-opacity=".65"/><path d="M541.715 149.352l14.734 45.125-35.914-11.051" fill="#cb3c33" fill-opacity=".65"/><path d="M536.918 278.418l-34.195-37.895 54.53 10.168" fill="#4063d8" fill-opacity=".65"/><path d="M557.035 197.96l.942 50.833-55.54-10.356M557.406 40.285l-11.972-52.504 33.16 15.66" fill="#cb3c33" fill-opacity=".65"/><path d="M558.633 194.723l-14.453-44.266 37.941 36.137" fill="#389826" fill-opacity=".65"/><path d="M554.484 119.441l32.621 19.028-43.492 7.25" fill="#4063d8" fill-opacity=".65"/><path d="M583.254 184.91l-39.113-37.254 44.699-7.449M537.246 333.996l43.227-.816-77.485 17.945" fill="#cb3c33" fill-opacity=".65"/><path d="M589.273 331.012l-46.336.875 52.458-19.235" fill="#9558b2" fill-opacity=".65"/><path d="M538 331.566v-49.925l56.52 29.203" fill="#389826" fill-opacity=".65"/><path d="M558.934 251.781l35.296 56.66-55.734-28.793" fill="#cb3c33" fill-opacity=".65"/><path d="M557.871 46.25l40.465 63.992-43.29 6.586" fill="#9558b2" fill-opacity=".65"/><path d="M589.465 137.527l-32.516-18.964 41.547-6.32" fill="#389826" fill-opacity=".65"/><path d="M559.977 248.68l-.93-50.262 40.023 39.094" fill="#4063d8" fill-opacity=".65"/><path d="M583.371 188.277l15.375 46.125-38.89-37.988" fill="#9558b2" fill-opacity=".65"/><path d="M596.176 307.785l-35.625-57.187 39.375-11.25" fill="#389826" fill-opacity=".65"/><path d="M580.098 4.836l29.828 41.012-51.266-3.73" fill="#9558b2" fill-opacity=".65"/><path d="M599.484 108.316l-40.578-64.175 51.907 3.777" fill="#4063d8" fill-opacity=".65"/><path d="M590.703 141.445l49.5 60.707-55.105-15.875" fill="#9558b2" fill-opacity=".65"/><path d="M601.492 236.316l-15.941-47.828 55.328 15.942" fill="#cb3c33" fill-opacity=".65"/><path d="M612.102 45.438L582.16 4.27l61.754 7.484M597.77 311.852l41.957-9.418-47.95 27.398" fill="#389826" fill-opacity=".65"/><path d="M601.844 240.867l42.453 58.488-46.227 10.38M600.59 112.32l44.566 18.192-53.66 7.277" fill="#cb3c33" fill-opacity=".65"/><path d="M642.207 201.445l-50.305-61.695 56-7.594M642.426 205.754l16.035 61.309-55.652-29.243" fill="#389826" fill-opacity=".65"/><path d="M645.797 298.02l-41.473-57.145 54.375 28.57" fill="#9558b2" fill-opacity=".65"/><path d="M589.965 333.035l69.144 20.926-155.574-.91" fill="#389826" fill-opacity=".65"/><path d="M645.465 301.457l18.914 52.008-71.867-21.75" fill="#cb3c33" fill-opacity=".65"/><path d="M645.785 12.684l19.485 35.254-51.028-1.856" fill="#9558b2" fill-opacity=".65"/><path d="M612.582 49.324l54.145 67.442-65.543-6.653" fill="#389826" fill-opacity=".65"/><path d="M666.027 49.965l1.887 65.086-53.766-66.973" fill="#cb3c33" fill-opacity=".65"/><path d="M648.895 129.875l-42.098-17.18 59.277 6.012" fill="#9558b2" fill-opacity=".65"/><path d="M649.895 132.3l28.601 8.305-34.137 59.043" fill="#cb3c33" fill-opacity=".65"/><path d="M668.605 119.45l9.477 18.952-26.707-7.754M669.86 113.156l-1.81-62.386 21.7 12.66" fill="#389826" fill-opacity=".65"/><path d="M645.945 9.984l-52.36-6.343 89.645-2.383" fill="#cb3c33" fill-opacity=".65"/><path d="M580.21 1.992l-30.632-14.465L676.363-.559" fill="#4063d8" fill-opacity=".65"/><path d="M690.055 61.29L668.332 48.62l23.531-44.348" fill="#cb3c33" fill-opacity=".65"/><path d="M666.98 46.898l-19.464-35.226 43.57-10.195" fill="#389826" fill-opacity=".65"/><path d="M660.61 267.379l-15.923-60.887 50.583 37.469" fill="#cb3c33" fill-opacity=".65"/><path d="M679.688 142.535l17.968 62.418-52.957-1.894" fill="#389826" fill-opacity=".65"/><path d="M696.098 242.09l-49.914-36.977 51.765 1.852" fill="#9558b2" fill-opacity=".65"/><path d="M660.324 270.715l42.418 41.5-55.328-12.914" fill="#cb3c33" fill-opacity=".65"/><path d="M703.047 353.023l-34.61.914 36.434-37.347" fill="#4063d8" fill-opacity=".65"/><path d="M666.395 353.164l-18.825-51.77 56.477 13.176" fill="#389826" fill-opacity=".65"/><path d="M696.215 245.738l8.426 65.535-43.067-42.132M680.082 137.93l-9.809-19.618 38.34-27.636" fill="#4063d8" fill-opacity=".65"/><path d="M691.324 64.887l19.2 21.945-39.317 28.344" fill="#cb3c33" fill-opacity=".65"/><path d="M699.906 207.793l37.657 24.797-39.493 10.105" fill="#4063d8" fill-opacity=".65"/><path d="M706.516 310.184l-8.41-65.434 40.195-10.281" fill="#389826" fill-opacity=".65"/><path d="M693.945 1.781l46.18 29.215-48.066 30.16" fill="#9558b2" fill-opacity=".65"/><path d="M729.316-8.777l10.98 37.515L695.458.371M711.8 85.254l-19.277-22.031 46.817-29.371" fill="#4063d8" fill-opacity=".65"/><path d="M712.34 88.371l27.672 16.602-57.188 32.285" fill="#cb3c33" fill-opacity=".65"/><path d="M741 34.984v68.25l-27.668-16.601M699.512 204.16l-18.117-62.93 73.418 11.442" fill="#9558b2" fill-opacity=".65"/><path d="M741.422 106.477l14.133 44.285L683 139.457M706.945 315.11l50.98 5.562-52.831 31.512" fill="#389826" fill-opacity=".65"/><path d="M739.742 236.195l19.953 82.657-52.254-5.7" fill="#cb3c33" fill-opacity=".65"/><path d="M760.043 321.734l.93 38.133-53.946-6.508" fill="#4063d8" fill-opacity=".65"/><path d="M739.855 231.707l-37.44-24.656 60.269.914" fill="#389826" fill-opacity=".65"/><path d="M756.285 154.031l7.555 51.95-62.34-.942M742.629 29.594l-11.05-37.77 46.058 21.188" fill="#cb3c33" fill-opacity=".65"/><path d="M762.926 358l-.871-35.805 16.593 13.973" fill="#9558b2" fill-opacity=".65"/><path d="M757.266 149.543L743.39 106.07l37.922 1.848" fill="#cb3c33" fill-opacity=".65"/><path d="M765.535 203.738l-7.394-50.851 35.132-3.7" fill="#9558b2" fill-opacity=".65"/><path d="M782.695 109.523l11.008 37.61-34.855 3.668" fill="#4063d8" fill-opacity=".65"/><path d="M794.113 151.953l1.848 64.633-29.547-10.156" fill="#389826" fill-opacity=".65"/><path d="M761.79 319l-19.497-80.754L796.133 319" fill="#4063d8" fill-opacity=".65"/><path d="M779.98 334.68L763.738 321h31.633M782.328 105.965l-37.598-1.832 55.024-43.102" fill="#389826" fill-opacity=".65"/><path d="M743 102.945V32.547l57.082 25.687" fill="#cb3c33" fill-opacity=".65"/><path d="M779.535 14.328l20.352 41.625-55.5-24.976" fill="#389826" fill-opacity=".65"/><path d="M765.129 208.309l35.598 24.64-58.414-.914" fill="#cb3c33" fill-opacity=".65"/><path d="M796.262 218.805l5.41 12.367-30.149-20.871M797.207 317.008l-55.32-82.977 61.043.953" fill="#9558b2" fill-opacity=".65"/><path d="M802.582 59.27l25.43 9.082-42.688 35.421" fill="#4063d8" fill-opacity=".65"/><path d="M795.762 147.04l-10.817-36.954 43.266 38.758M804.645 232.977l-5.7-13.028 27.676 12.211" fill="#cb3c33" fill-opacity=".65"/><path d="M780.293 337.3l46.469 25.516-62.867-2.734" fill="#389826" fill-opacity=".65"/><path d="M797.852 321.469l29.57 39.426-45.7-25.09M797.941 215.922l-1.863-65.234 34.48 38.207" fill="#4063d8" fill-opacity=".65"/><path d="M830.023 150.95l.907 35.374-33.559-37.191M830.035 231.48l-31.152-13.742 32.066-26.57" fill="#389826" fill-opacity=".65"/><path d="M829.684 69.563l14.773 28.624-58.172 7.387" fill="#9558b2" fill-opacity=".65"/><path d="M830.488 148.2l-45.191-40.485 59.312-7.531" fill="#4063d8" fill-opacity=".65"/><path d="M780.043 11.918L734.207-9.168l115.508-4.582M829.355 66.707l-25.75-9.195L853.27-9.625" fill="#389826" fill-opacity=".65"/><path d="M802.176 56.082l-20.793-42.527 71.824-26.461" fill="#cb3c33" fill-opacity=".65"/><path d="M804.84 236.313l51.496 53.402-57.215 28.605" fill="#389826" fill-opacity=".65"/><path d="M830.379 234.023l24.105 50.891-48.21-49.996" fill="#9558b2" fill-opacity=".65"/><path d="M830.691 361.926l-31.171-41.567 56.68-28.34M846.516 97.82L832.05 69.793l50.629 18.082" fill="#cb3c33" fill-opacity=".65"/><path d="M832.941 186.766l-.921-35.95 50.699-10.14" fill="#9558b2" fill-opacity=".65"/><path d="M846.484 100.898l37.489 37.489-51.547 10.308" fill="#cb3c33" fill-opacity=".65"/><path d="M885 89.313v47.273l-37.078-37.078" fill="#4063d8" fill-opacity=".65"/><path d="M856.5-13.258l38.879 33.188-63.531 45.515" fill="#cb3c33" fill-opacity=".65"/><path d="M891.145 288.023l-30.56.899 35.954-34.152" fill="#389826" fill-opacity=".65"/><path d="M858.313 288.324l-25.465-53.762 63.191 17.922" fill="#cb3c33" fill-opacity=".65"/><path d="M885.426 86.734l-51.996-18.57 65.922-16.715" fill="#4063d8" fill-opacity=".65"/><path d="M896.23 21.781l3.66 27.469-65.003 16.48M858.273 292.168l45.895 66.93-71.711 3.824" fill="#389826" fill-opacity=".65"/><path d="M891.184 290.023l12.894 65.41-44.219-64.488M832.969 190.36l82.883 26.37-83.825 15.07" fill="#cb3c33" fill-opacity=".65"/><path d="M897.55 250.832l-62.112-17.613 82.511-14.832M885.645 140.691l32.558 74.688-84.265-26.813" fill="#389826" fill-opacity=".65"/><path d="M901.805 48.48l-3.59-26.933 32.32 12.566" fill="#9558b2" fill-opacity=".65"/><path d="M898.652 254.234l37.637 42.23-43.144-8.265" fill="#4063d8" fill-opacity=".65"/><path d="M930.113 356.098l-22.332 2.68 29.477-55.38" fill="#cb3c33" fill-opacity=".65"/><path d="M906.438 357.05l-13.168-66.788 44.21 8.465" fill="#389826" fill-opacity=".65"/><path d="M920.07 214.66l-32.117-73.683 56.68 25.503" fill="#9558b2" fill-opacity=".65"/><path d="M945.223 169.727l2.718 45.308-26.28.906" fill="#cb3c33" fill-opacity=".65"/><path d="M932.785 32.844L901.098 20.52l51.93-6.16" fill="#4063d8" fill-opacity=".65"/><path d="M897.316 18.957l-37.214-31.77 90.765 25.415" fill="#389826" fill-opacity=".65"/><path d="M920.219 218.535l42.863 38.203-63.363-5.59" fill="#4063d8" fill-opacity=".65"/><path d="M948.336 217.023l15.129 37.375-40.938-36.484M938.89 296.375l-38.464-43.156 63.797 5.629M901.523 51.395l61.711 31.789-75.734 3.742" fill="#389826" fill-opacity=".65"/><path d="M932.664 35.285l31.297 46.024-60.75-31.297" fill="#cb3c33" fill-opacity=".65"/><path d="M945.328 164.602l-57.285-25.778 77.332-52.512" fill="#4063d8" fill-opacity=".65"/><path d="M887 137.113v-48.16l76.488-3.777M955.86 11.922l-88.848-24.875 112.836 10.66M955.746 14.586l27.504 48.586-48.586-29.336" fill="#cb3c33" fill-opacity=".65"/><path d="M967.164 82.465l-30.766-45.246 47.961 28.957M982.074-1.29l2.746 63.177-27.468-48.528" fill="#389826" fill-opacity=".65"/><path d="M966.059 259.703l19.23 24.723-43.957 11.906" fill="#cb3c33" fill-opacity=".65"/><path d="M967.227 87.152l20.535 49.477-40.14 27.07" fill="#389826" fill-opacity=".65"/><path d="M939.664 300.55l48.066 64.09-55.605-8.48" fill="#9558b2" fill-opacity=".65"/><path d="M986.047 286.293l2.836 76.55-48.2-64.265" fill="#389826" fill-opacity=".65"/><path d="M949.906 214.379l-2.816-46.91 53.48 19.703" fill="#4063d8" fill-opacity=".65"/><path d="M988.41 138.605l13.098 46.782-53.328-19.649" fill="#cb3c33" fill-opacity=".65"/><path d="M986.016 67.363l19.25 17.504-35.88-1.75" fill="#9558b2" fill-opacity=".65"/><path d="M988.95 134.27l-20.423-49.196 38.059 1.86" fill="#cb3c33" fill-opacity=".65"/><path d="M986.91 283.258l-19.312-24.832 46.906-19.317" fill="#389826" fill-opacity=".65"/><path d="M966.55 256.691l-15.831-39.113 63.328 19.555" fill="#cb3c33" fill-opacity=".65"/><path d="M1002.375 188.473l13.168 47.03-63.965-19.753" fill="#9558b2" fill-opacity=".65"/><path d="M990.867 362.383l-2.82-76.14 40.418 8.456" fill="#cb3c33" fill-opacity=".65"/><path d="M1016.563 239.586l12.117 53.117-40.07-8.387" fill="#4063d8" fill-opacity=".65"/><path d="M1003.445 184.887l-13.133-46.91 52.536-.938" fill="#389826" fill-opacity=".65"/><path d="M1008.293 88.078l34.75 46.957-52.594.938" fill="#4063d8" fill-opacity=".65"/><path d="M1017.328 234.469l-13.02-46.5 40.919-.93" fill="#389826" fill-opacity=".65"/><path d="M1044.105 138.66l1.856 46.363-40.8.926" fill="#cb3c33" fill-opacity=".65"/><path d="M1007.969 84.617l-20.059-18.23 59.258-20.969" fill="#389826" fill-opacity=".65"/><path d="M986.941 64.605l-2.855-65.664 64.71 43.778" fill="#cb3c33" fill-opacity=".65"/><path d="M1042.156-5.941l7.492 46.82-63.675-43.074" fill="#4063d8" fill-opacity=".65"/><path d="M1030.05 295.965l30.4 48.445-68.395 19.95" fill="#389826" fill-opacity=".65"/><path d="M1044.965 134.27l-34.293-46.344 53.758 17.613" fill="#9558b2" fill-opacity=".65"/><path d="M1050.445 44.969l14.16 58.523-54.746-17.937" fill="#cb3c33" fill-opacity=".65"/><path d="M1030.54 291.875l-12.185-53.426 46.864 14.059" fill="#9558b2" fill-opacity=".65"/><path d="M1046.703 188.473l18.8 62.035-46.995-14.098" fill="#cb3c33" fill-opacity=".65"/><path d="M1066.254 101.8l-13.734-56.773 30.218 17.399" fill="#389826" fill-opacity=".65"/><path d="M1062.09 343.262l-29.957-47.746 57.11 13.105" fill="#4063d8" fill-opacity=".65"/><path d="M1066.703 253.848l22.602 52.738-57.446-13.184" fill="#389826" fill-opacity=".65"/><path d="M1083.352 60.473l-30.43-17.52 41.496-26.742" fill="#cb3c33" fill-opacity=".65"/><path d="M1051.746 41.328l-7.48-46.75 49.558 19.637" fill="#9558b2" fill-opacity=".65"/><path d="M1090.773 304.934l-21.738-50.727 30.797 16.305" fill="#cb3c33" fill-opacity=".65"/><path d="M1100.023 268.352l-31.535-16.696 32.465-44.523" fill="#4063d8" fill-opacity=".65"/><path d="M1067.375 249.79l-18.86-62.243 51.868 16.976" fill="#389826" fill-opacity=".65"/><path d="M1101.055 202.637l-52.149-17.067 54.992-52.148" fill="#4063d8" fill-opacity=".65"/><path d="M1047.91 183.758l-1.87-46.84 56.206-4.684" fill="#9558b2" fill-opacity=".65"/><path d="M1066.27 106.383l35.789 23.86-55.059 4.585" fill="#389826" fill-opacity=".65"/><path d="M1062.113 346.008l42.856 2.426-101.074 14.554" fill="#9558b2" fill-opacity=".65"/><path d="M1090.89 309.762l22.282 37.133-49.203-2.786" fill="#cb3c33" fill-opacity=".65"/><path d="M1084.328 63.805l32.57 34.425-49.316 5.586" fill="#9558b2" fill-opacity=".65"/><path d="M1104.563 129.508l-35.731-23.82 48.555-5.5" fill="#cb3c33" fill-opacity=".65"/><path d="M1115.465 346.832l-21.692-36.152 50.614 28.015M1102.965 206.203l43.297 38.59-44.235 23.527M1096.164 12.988L1051.98-4.516l91.704 15.004" fill="#389826" fill-opacity=".65"/><path d="M1119.348 100.7l31.129 29.3h-43.95" fill="#4063d8" fill-opacity=".65"/><path d="M1101.621 271.57l50.223 31.625-59.524 3.72" fill="#389826" fill-opacity=".65"/><path d="M1146.32 337.48l-51.84-28.695 59.247-3.703M1147.18 246.57l6.582 55.47-50.77-31.966" fill="#cb3c33" fill-opacity=".65"/><path d="M1105.898 133.484l54.133 59.828-56.98 9.5" fill="#9558b2" fill-opacity=".65"/><path d="M1152.133 132l8.414 58.902L1107.254 132" fill="#389826" fill-opacity=".65"/><path d="M1147.46 243.18l-43.237-38.535 56.398-9.403" fill="#cb3c33" fill-opacity=".65"/><path d="M1096.715 15.258l63.062 18.824-74.355 26.352" fill="#9558b2" fill-opacity=".65"/><path d="M1152.36 12.035l8.867 20.39-59.403-17.73" fill="#cb3c33" fill-opacity=".65"/><path d="M1118.871 97.406l-33.09-34.976 74.684-26.473M1152.574 129.227l-31.383-29.536 44.305-6.46" fill="#389826" fill-opacity=".65"/><path d="M1162.203 36.96l3.735 54.185-44.84 6.539" fill="#cb3c33" fill-opacity=".65"/><path d="M1162.563 195.73l17.953 14.364-30.52 31.418" fill="#389826" fill-opacity=".65"/><path d="M1163.508 32.664l-8.91-20.496 43.664 4.457" fill="#4063d8" fill-opacity=".65"/><path d="M1167.828 89.453l-3.723-53.973 37.223 13.961" fill="#9558b2" fill-opacity=".65"/><path d="M1201.047 17.543l.91 29.996-36.363-13.633" fill="#389826" fill-opacity=".65"/><path d="M1167.766 92.824l31.761-8.82-44.113 43.23" fill="#cb3c33" fill-opacity=".65"/><path d="M1202 51.754v29.484l-32.168 8.938" fill="#389826" fill-opacity=".65"/><path d="M1155.852 302.688l-6.57-55.383 51.624 41.3" fill="#4063d8" fill-opacity=".65"/><path d="M1147.09 340.012l46.328 4.484-70.238 2.242" fill="#9558b2" fill-opacity=".65"/><path d="M1155.629 305.734l49.96 37.93-57.362-5.55" fill="#4063d8" fill-opacity=".65"/><path d="M1202.137 290.316l5.62 52.485-50.609-38.426M1182.125 211.305l33.215 23.066-64.582 9.227" fill="#cb3c33" fill-opacity=".65"/><path d="M1202.441 287.273l-52.011-41.609 66.199-9.457" fill="#389826" fill-opacity=".65"/><path d="M1181.836 208.59l-18.035-14.43 51.406-27.96" fill="#cb3c33" fill-opacity=".65"/><path d="M1162.785 192.434l-8.527-59.715 62.554 30.332" fill="#9558b2" fill-opacity=".65"/><path d="M1217.027 233.105l-33.586-23.32 34.52-43.847" fill="#389826" fill-opacity=".65"/><path d="M1201.73 14.969l-42.082-4.297 67.848-13.738" fill="#9558b2" fill-opacity=".65"/><path d="M1152.98 9.984l-96.824-15.843 166.364 1.757" fill="#4063d8" fill-opacity=".65"/><path d="M1203.09 83.313l28.75 21.332-75.121 24.113" fill="#389826" fill-opacity=".65"/><path d="M1218.336 161.566l-62.652-30.379 76.894-24.68M1204 81.496V52.871l26.89 48.578" fill="#cb3c33" fill-opacity=".65"/><path d="M1209.793 343.016l-5.563-51.899 36.145 25.95" fill="#389826" fill-opacity=".65"/><path d="M1218.605 236.563l24.73 15.57-38.472 33.89" fill="#cb3c33" fill-opacity=".65"/><path d="M1241.086 315.113l-36.484-26.191 39.289-34.613" fill="#9558b2" fill-opacity=".65"/><path d="M1115.055 349.004l115.453 4.152-219.281 10.797" fill="#389826" fill-opacity=".65"/><path d="M1208.926 346.004l30.855 5.484-95.304-3.43" fill="#cb3c33" fill-opacity=".65"/><path d="M1241.52 318.719l11 33.004-41.25-7.336M1234.285 107.895l25.156 52.18-39.132 1.863" fill="#4063d8" fill-opacity=".65"/><path d="M1203.96 47.684l-.92-30.371 55.218 14.726" fill="#cb3c33" fill-opacity=".65"/><path d="M1231.809-3.645l27.476 33.887-54.953-14.656" fill="#389826" fill-opacity=".65"/><path d="M1233.836 102.637l-29.352-53.024 55.864-16.097" fill="#9558b2" fill-opacity=".65"/><path d="M1219.965 165.516l46.297 50.074-47.242 17.953" fill="#4063d8" fill-opacity=".65"/><path d="M1260.125 162.043l6.488 50.984-45.422-49.129" fill="#9558b2" fill-opacity=".65"/><path d="M1244.691 250.625l-24.46-15.402 45.3-17.215" fill="#389826" fill-opacity=".65"/><path d="M1260.832 158.348l-25.3-52.473 44.038-3.75" fill="#cb3c33" fill-opacity=".65"/><path d="M1261.844 35.2l17.87 64.905-44.21 3.762" fill="#389826" fill-opacity=".65"/><path d="M1245.887 254.48l33.582 37.313-36.38 23.32" fill="#4063d8" fill-opacity=".65"/><path d="M1254.672 351.855l-10.785-32.359 39.55 26.969" fill="#389826" fill-opacity=".65"/><path d="M1280.152 293.73l4.66 51.25-41-27.953" fill="#cb3c33" fill-opacity=".65"/><path d="M1268.305 217.383l25.437 16.355-46.336 16.352" fill="#9558b2" fill-opacity=".65"/><path d="M1280.496 289.95l-33.75-37.505 47.816-16.879" fill="#389826" fill-opacity=".65"/><path d="M1281.227 103.48l19.41 35.118-37.89 20.332" fill="#4063d8" fill-opacity=".65"/><path d="M1262.262 30.734l-27.89-34.398 74.378 10.226" fill="#cb3c33" fill-opacity=".65"/><path d="M1295.625 232.57l-25.422-16.343 42.672-16.34" fill="#4063d8" fill-opacity=".65"/><path d="M1268.832 214.61l-6.559-51.524 50.59 34.66" fill="#389826" fill-opacity=".65"/><path d="M1301.309 140.508l12.171 55.238-50.558-34.64M1281.52 99.125l-17.926-65.105 54.726 30.195" fill="#cb3c33" fill-opacity=".65"/><path d="M1311.203 7.543l7.535 54.617-54.62-30.133" fill="#389826" fill-opacity=".65"/><path d="M1302.023 136.977l-19.543-35.364 48.395-13.96" fill="#cb3c33" fill-opacity=".65"/><path d="M1319.777 65.59l11.703 19.808-46.816 13.504" fill="#9558b2" fill-opacity=".65"/><path d="M1315.176 194.148l-11.98-54.375 31.335-6.449" fill="#389826" fill-opacity=".65"/><path d="M1332.215 89.324l2.73 41.871-30.949 6.371" fill="#9558b2" fill-opacity=".65"/><path d="M1286.855 345.36l-4.714-51.86 57.52 21.688" fill="#389826" fill-opacity=".65"/><path d="M1315.52 199.16l24.937 6.235-41.86 25.828" fill="#9558b2" fill-opacity=".65"/><path d="M1335.473 136.96l6.398 66.727-25.594-6.398M1311.871 4.973l-66.937-9.203 93.71-1.672" fill="#4063d8" fill-opacity=".65"/><path d="M1333.273 84.5l-11.464-19.402 33.515 1.761" fill="#389826" fill-opacity=".65"/><path d="M1320.879 63.043l-7.371-53.434 42.379 55.278" fill="#4063d8" fill-opacity=".65"/><path d="M1343.246-5.613l12.977 67.648-42.63-55.601" fill="#9558b2" fill-opacity=".65"/><path d="M1336.664 126.84l-2.633-40.383 21.95-17.562" fill="#4063d8" fill-opacity=".65"/><path d="M1286.023 348.012l51.957 7.218-75.05-2.886" fill="#9558b2" fill-opacity=".65"/><path d="M1341.48 316.45l14.985 39.327-67.422-9.363" fill="#4063d8" fill-opacity=".65"/><path d="M1296.688 235.34l68.41 26.605-82.664 28.504" fill="#9558b2" fill-opacity=".65"/><path d="M1341.504 313.742l-57.559-21.699 82.09-28.309" fill="#cb3c33" fill-opacity=".65"/><path d="M1342.547 206.453l23.57 53.742-67.883-26.398M1358.313 62.328L1345.16-6.27l43.223-11.273M1368.137 263.988l21.332 31.532-45.446 17.62" fill="#389826" fill-opacity=".65"/><path d="M1343.797 202.848l-6.645-69.29 55.051 22.782" fill="#9558b2" fill-opacity=".65"/><path d="M1368.652 261l-22.699-51.758L1399.527 261" fill="#4063d8" fill-opacity=".65"/><path d="M1390.68 293.742L1369.883 263h30.742" fill="#9558b2" fill-opacity=".65"/><path d="M1358.582 355.723l-14.805-38.864 55.52 24.059" fill="#389826" fill-opacity=".65"/><path d="M1390.3 297.344l10.25 41.937-55.917-24.23" fill="#cb3c33" fill-opacity=".65"/><path d="M1393.488 157.879l8.278 29.43-55.184 15.636" fill="#389826" fill-opacity=".65"/><path d="M1401.031 259.672l-56.086-54.184 57.035-16.16" fill="#9558b2" fill-opacity=".65"/><path d="M1358.504 67.648l53.328 40.95-74.277 21.902" fill="#389826" fill-opacity=".65"/><path d="M1393.469 154.7L1339 132.16l73.25-21.601" fill="#4063d8" fill-opacity=".65"/><path d="M1390.055-16.309l26.593 62.688-56.988 18.047" fill="#cb3c33" fill-opacity=".65"/><path d="M1413.121 107.066l-52.992-40.691 56.777-17.98" fill="#9558b2" fill-opacity=".65"/><path d="M1414.57 110.219l20.477 6.23-38.285 35.617" fill="#cb3c33" fill-opacity=".65"/><path d="M1418.613 53l16.942 61.516-20.504-6.243M1403.957 191.063l32.64 45.695-33.57 23.312M1418.195 44.902l-26.11-61.543 48.49 27.973" fill="#389826" fill-opacity=".65"/><path d="M1441.578 13.438l4.266 17.058-24.739 13.649" fill="#cb3c33" fill-opacity=".65"/><path d="M1403.773 187.055l-8.144-28.953 56.098 32.574" fill="#9558b2" fill-opacity=".65"/><path d="M1437.75 234.93l-32.695-45.774 49.511 3.739M1402.031 342.05l47.074 13.95h-85.43" fill="#cb3c33" fill-opacity=".65"/><path d="M1402.531 263.613l52.84 38.008-63.039-6.488" fill="#389826" fill-opacity=".65"/><path d="M1437.457 238.594l19.676 61.828-53.399-38.406" fill="#9558b2" fill-opacity=".65"/><path d="M1455.07 355.684l-50.738-15.036 53.559-35.707" fill="#389826" fill-opacity=".65"/><path d="M1402.633 339.375l-10.324-42.234 63.824 6.57M1437.047 117.324l23.808 19.23-63.187 17.4" fill="#9558b2" fill-opacity=".65"/><path d="M1455.2 190.379l-58.638-34.047 65.258-17.969" fill="#389826" fill-opacity=".65"/><path d="M1437.695 114.758l-17.847-64.813 60.117 52.602" fill="#cb3c33" fill-opacity=".65"/><path d="M1446.563 32.383l32.378 66.613-59.21-51.808" fill="#4063d8" fill-opacity=".65"/><path d="M1462.707 135.477l-23.586-19.047 40.82-11.793" fill="#389826" fill-opacity=".65"/><path d="M1442.21 9.969l-45.1-26.024 80.663 21.684" fill="#9558b2" fill-opacity=".65"/><path d="M1447.617 29.352l-4.37-17.497 35.866-4.375" fill="#389826" fill-opacity=".65"/><path d="M1463.844 138.281l18.656 5.328-24.871 43.528" fill="#cb3c33" fill-opacity=".65"/><path d="M1481.176 106.527l1.754 35.13-18.442-5.27M1456.434 193.613l25.707 20.2-42.235 21.117" fill="#4063d8" fill-opacity=".65"/><path d="M1483 146.766v65.175l-25.703-20.195" fill="#9558b2" fill-opacity=".65"/><path d="M1459.86 305.59l32.417 38.906-35.199 11.113M1459.395 300.945l-19.825-62.312 54.758 19.824" fill="#cb3c33" fill-opacity=".65"/><path d="M1483.355 215.441l11.172 40.961-53.996-19.55M1481.836 100.379l-32.543-66.95 46.492 26.036" fill="#389826" fill-opacity=".65"/><path d="M1482.398 7.637l13.032 49.34-46.547-26.067" fill="#cb3c33" fill-opacity=".65"/><path d="M1493.348 342.656l-32.778-39.336 42.145-21.539" fill="#9558b2" fill-opacity=".65"/><path d="M1495.66 259.988l7.098 19.524-39.934 20.41M1485 211.262v-66.93l45.246 13.2" fill="#389826" fill-opacity=".65"/><path d="M1484.965 142.238l-1.828-36.539 45.676 49.328" fill="#cb3c33" fill-opacity=".65"/><path d="M1496.332 255.418l-11.156-40.914 50.21-26.965" fill="#9558b2" fill-opacity=".65"/><path d="M1531.45 159.207l5.413 25.266-48.73 26.172" fill="#cb3c33" fill-opacity=".65"/><path d="M1504.742 281.742l37.547 26.281-46.93 34.727" fill="#389826" fill-opacity=".65"/><path d="M1494.168 345.996l43.172-1.394-69.63 9.75" fill="#4063d8" fill-opacity=".65"/><path d="M1543.496 309.617l11.117 32.426-57.441 1.855M1497.45 60.785l56.472 52.711-70.594-11.297" fill="#cb3c33" fill-opacity=".65"/><path d="M1553.05 63.938l2.81 48.628-56.114-52.37M1531.824 155.34l-47.125-50.895 70.688 11.309" fill="#389826" fill-opacity=".65"/><path d="M1553.184 61.941l-53.141-3.73 61.531-40.09" fill="#cb3c33" fill-opacity=".65"/><path d="M1497.613 57.406l-13.27-50.23 75.821 9.476M1543.465 306.406l-37.738-26.418 60.382-43.398" fill="#9558b2" fill-opacity=".65"/><path d="M1504.488 278.418l-7.199-19.793 64.781-21.594" fill="#cb3c33" fill-opacity=".65"/><path d="M1538.027 186.957l28.461 46.492-68.308 22.77M1562.473 14.926l-73.621-9.203 91.109-20.246" fill="#389826" fill-opacity=".65"/><path d="M1483.023 4.969l-84.984-22.844 175.45 2.742M1568.508 232.918l-26.047-42.547 44.285 39.941M1557.785 111.242l-2.746-47.586 33.86-13.726" fill="#cb3c33" fill-opacity=".65"/><path d="M1563.598 18.2l25.722 29.402-33.992 13.78" fill="#4063d8" fill-opacity=".65"/><path d="M1581.406-13.043l8.137 57.86-25.313-28.93M1556.023 344.008l29.864 2.844-100.965 7.109" fill="#cb3c33" fill-opacity=".65"/><path d="M1538.633 183.176l-5.473-25.535 64.75-23.711" fill="#4063d8" fill-opacity=".65"/><path d="M1557.441 116.21l42.586 14.813-65.73 24.07M1568.191 236.648l35.188 71.325-58.012-.95" fill="#cb3c33" fill-opacity=".65"/><path d="M1588.21 232.125l14.247 69.465-32.95-66.797M1597.184 345.918l-38.368-3.656 44.762-31.059" fill="#9558b2" fill-opacity=".65"/><path d="M1556.516 341.426l-11.11-32.403 56.473.926M1588.758 229.434l-47.946-43.243 70.508 4.7" fill="#389826" fill-opacity=".65"/><path d="M1602.305 132.879l9.496 56.039-71.235-4.75" fill="#cb3c33" fill-opacity=".65"/><path d="M1590.836 50.535l22.742 64.442-54.965-.95" fill="#389826" fill-opacity=".65"/><path d="M1602.66 129.824l-39.433-13.715 49.722.856" fill="#9558b2" fill-opacity=".65"/><path d="M1591.762 46.246l-8.465-60.203 48.918 31.984M1605.797 310.191l29.887 6.34-36.227 28.074" fill="#389826" fill-opacity=".65"/><path d="M1613.465 191.184l27.062 8.117-48.71 28.867" fill="#9558b2" fill-opacity=".65"/><path d="M1642.188 197.71l-27.27-8.179 33.633-32.726" fill="#cb3c33" fill-opacity=".65"/><path d="M1613.668 187.957l-9.355-55.203 43.972 21.52" fill="#389826" fill-opacity=".65"/><path d="M1615.055 117.535l30.601 33.227-41.097-20.114" fill="#4063d8" fill-opacity=".65"/><path d="M1649 115.059v36.379l-31.832-34.56" fill="#389826" fill-opacity=".65"/><path d="M1649.027 113.055l-32.289 1.843 34.137-62.734" fill="#4063d8" fill-opacity=".65"/><path d="M1615.195 113.547L1592.415 49h57.901" fill="#9558b2" fill-opacity=".65"/><path d="M1633.695 19.434L1650.235 47h-56.055M1637.285 314.828l-30.512-6.473 49.93-63.796" fill="#cb3c33" fill-opacity=".65"/><path d="M1605.547 306.68l-15.285-74.508 66.867 8.598" fill="#389826" fill-opacity=".65"/><path d="M1642.496 200.46l14.961 38.333-65.445-8.414M1638.098 317.188l23.18 12.48-58.837 15.156" fill="#4063d8" fill-opacity=".65"/><path d="M1652.895 51.523l29.617 50.907-31.469 10.183" fill="#389826" fill-opacity=".65"/><path d="M1651 150.695v-35.968l30.574-9.891" fill="#4063d8" fill-opacity=".65"/><path d="M1663.785 331.09l21.168 15.875-79.387-.88M1652.496 46.883l-16.156-26.926 52.055 19.746" fill="#389826" fill-opacity=".65"/><path d="M1683.379 99.945l-29.813-51.238 37.266-7.453" fill="#cb3c33" fill-opacity=".65"/><path d="M1659.348 242.5l38.03 62.754-58 9.508" fill="#9558b2" fill-opacity=".65"/><path d="M1663.938 328.832l-22.88-12.32 53.676-8.801" fill="#389826" fill-opacity=".65"/><path d="M1687.41 346.309l-21.695-16.274 31.637-21.691M1691.234 38.64l-54.828-20.796 65.227-34.977" fill="#cb3c33" fill-opacity=".65"/><path d="M1634.05 16.84l-48.816-31.918 113.59-2.817" fill="#9558b2" fill-opacity=".65"/><path d="M1698.563 303.352l-37.723-62.247 50.93 2.829M1650.71 155.93l60.048 51.605-66.613-9.383" fill="#389826" fill-opacity=".65"/><path d="M1712.031 241.945l-49.558-2.754 50.476-28.449" fill="#9558b2" fill-opacity=".65"/><path d="M1659.512 238.563l-14.957-38.333 66.382 9.348" fill="#cb3c33" fill-opacity=".65"/><path d="M1684.094 104.66l31.023 36.66-62.984 11.282" fill="#389826" fill-opacity=".65"/><path d="M1713.094 206.902l-60.848-52.289 63.7-11.41" fill="#cb3c33" fill-opacity=".65"/><path d="M1692.89 40.918l38.962-3.707-46.383 62.144" fill="#9558b2" fill-opacity=".65"/><path d="M1703.738-17.496l32.508 16.719-42.726 38.082" fill="#389826" fill-opacity=".65"/><path d="M1733.094 35.082l-38.149 3.633 41.782-37.242" fill="#cb3c33" fill-opacity=".65"/><path d="M1714.977 209.766l21.78-6.102-22.652 35.723" fill="#4063d8" fill-opacity=".65"/><path d="M1717.777 147.023l19.91 54.305-22.624 6.336" fill="#389826" fill-opacity=".65"/><path d="M1738.61 198.031l-19.985-54.5 27.25 8.176" fill="#4063d8" fill-opacity=".65"/><path d="M1713.773 244.125l31.325 4.605-44.223 53.434" fill="#cb3c33" fill-opacity=".65"/><path d="M1738.457 204.723l7.32 42.086-31.109-4.575" fill="#9558b2" fill-opacity=".65"/><path d="M1699.613 307.602l62.907 41.308-73.235-1.879" fill="#4063d8" fill-opacity=".65"/><path d="M1746.613 250.035l18.985 57.903-64.547-2.848" fill="#9558b2" fill-opacity=".65"/><path d="M1765.043 348.176l-62.457-41.016 63.39 2.797" fill="#389826" fill-opacity=".65"/><path d="M1717.027 140.484l-31.183-36.851 80.324-17.012" fill="#cb3c33" fill-opacity=".65"/><path d="M1733.98 37.695l33.317 46.645-80.91 17.133" fill="#389826" fill-opacity=".65"/><path d="M1746.36 149.762l-27.551-8.262 47.75-52.34" fill="#9558b2" fill-opacity=".65"/><path d="M1738.79 1.004l40.456 34.937-44.133-.918" fill="#389826" fill-opacity=".65"/><path d="M1768.586 82.7l-32.613-45.657 44.726.93M1747.79 152.418l35.23 14.832-42.645 32.45" fill="#cb3c33" fill-opacity=".65"/><path d="M1768.746 88.922l14.914 76.43-35.418-14.915" fill="#389826" fill-opacity=".65"/><path d="M1767.988 309.516l15.942-11.746-16.782 46.144" fill="#cb3c33" fill-opacity=".65"/><path d="M1767.52 307.375l-17.93-54.688 34.965 42.137" fill="#389826" fill-opacity=".65"/><path d="M1785.824 293.223l-36.234-43.664 53.89 11.148" fill="#4063d8" fill-opacity=".65"/><path d="M1782.34 39.566L1808.258 84h-37.95" fill="#389826" fill-opacity=".65"/><path d="M1785.215 162.871l-15-76.871h38.433" fill="#4063d8" fill-opacity=".65"/><path d="M1781.746 35.46L1740.25-.378l69.79-12.262" fill="#9558b2" fill-opacity=".65"/><path d="M1597.988 348.004l185.02 18.07-307.223-9.465" fill="#389826" fill-opacity=".65"/><path d="M1687.914 349l92.715 14.832-159.469-15.574" fill="#cb3c33" fill-opacity=".65"/><path d="M1765.8 350.996l37.856 14.496-100.672-16.11" fill="#9558b2" fill-opacity=".65"/><path d="M1786.008 297.902l25.289 68.375-44.02-16.859" fill="#389826" fill-opacity=".65"/><path d="M1804.297 258.832l-54.137-11.2 66.27-30.8" fill="#cb3c33" fill-opacity=".65"/><path d="M1747.762 246.543l-7.535-43.328 74.41 12.246" fill="#4063d8" fill-opacity=".65"/><path d="M1784.77 168.43l31.078 45.203-74.395-12.242M1809.785 82.648l-26.36-45.187 50.837-22.594" fill="#9558b2" fill-opacity=".65"/><path d="M1812.164-12.309l22.18 24.95-49.903 22.18" fill="#389826" fill-opacity=".65"/><path d="M1835.074 18.504l.91 66.457-24.578-.91M1805.113 261.89l31.52 44.5-49.137-12.054" fill="#cb3c33" fill-opacity=".65"/><path d="M1835.043 362.184l-20.352 4.425 23.008-53.09" fill="#4063d8" fill-opacity=".65"/><path d="M1813.074 365.316l-25.484-68.894 50.023 12.265" fill="#9558b2" fill-opacity=".65"/><path d="M1818.375 213.781l-30.11-43.797 58.4 32.848" fill="#389826" fill-opacity=".65"/><path d="M1818.55 216.691l28.555 22.106-40.527 19.34" fill="#9558b2" fill-opacity=".65"/><path d="M1848 204.46v32.5l-27.988-21.667" fill="#cb3c33" fill-opacity=".65"/><path d="M1838.371 305.379l-31.867-44.988 41.238-19.684" fill="#4063d8" fill-opacity=".65"/><path d="M1810.422 87.043l48.816 57.426-72.742 21.058" fill="#cb3c33" fill-opacity=".65"/><path d="M1836.316 86.977l21.41 52.625-45.492-53.52M1848.297 201.457l-60.727-34.16 72.114-20.875" fill="#4063d8" fill-opacity=".65"/><path d="M1837.969 83.734l-.918-67.129 26.668 43.22" fill="#389826" fill-opacity=".65"/><path d="M1861.258 142.977l-22.469-55.235 49.617 18.727" fill="#cb3c33" fill-opacity=".65"/><path d="M1864.738 61.61l23.098 42.503-48.973-18.48" fill="#4063d8" fill-opacity=".65"/><path d="M1839.918 309.563l51.797 25.43-54.625 26.37M1836.309 11.84l-21.899-24.633 75.727 6.387" fill="#9558b2" fill-opacity=".65"/><path d="M1864.86 57.867l-27.348-44.324 55.64-18.86M1849.656 241.441l50.328 63.621-59.824 1.899" fill="#cb3c33" fill-opacity=".65"/><path d="M1893.355 333.57l-50.308-24.699 57.629-1.828" fill="#4063d8" fill-opacity=".65"/><path d="M1901.39 303.617l-49.85-63.02 58.315 13.169M1861.527 147.395l51.067 69.03-62.414-14.183" fill="#389826" fill-opacity=".65"/><path d="M1910.133 251.777l-57.32-12.941 61.019-19.414" fill="#cb3c33" fill-opacity=".65"/><path d="M1850 237.633v-33.38l61.195 13.907" fill="#4063d8" fill-opacity=".65"/><path d="M1889.863 103.652l-23.472-43.183 49.757-22.532" fill="#389826" fill-opacity=".65"/><path d="M1895.078-4.73l21.535 40.261L1866.993 58M1890.148 107.477l27.707 24.937-54.492 11.086M1902.793 306.883l25.973-4.328-32.899 29.43" fill="#9558b2" fill-opacity=".65"/><path d="M1911.426 256.469l19.144 43.758-27.347 4.554" fill="#cb3c33" fill-opacity=".65"/><path d="M1915.637 221.254l15.758 28.887-19.262 1.754" fill="#4063d8" fill-opacity=".65"/><path d="M1931.09 296.43l-18.617-42.559 19.504-1.773M1914.645 215.84l-51.317-69.375 69.375 13.305" fill="#9558b2" fill-opacity=".65"/><path d="M1919.473 134.129l12.648 23.492-65.96-12.648" fill="#cb3c33" fill-opacity=".65"/><path d="M1918.117 34.098l-21.465-40.13 50.395-.933" fill="#389826" fill-opacity=".65"/><path d="M1918.277 38l35.075 45.5-61.618 20.855" fill="#cb3c33" fill-opacity=".65"/><path d="M1919.836 131.508l-27.899-25.11 60.446-20.457" fill="#389826" fill-opacity=".65"/><path d="M1894.207 336.012l58.54 2.62-109.212 21.84" fill="#cb3c33" fill-opacity=".65"/><path d="M1931.871 302.457l27 34.445-62.379-2.793" fill="#389826" fill-opacity=".65"/><path d="M1948.578-5.668l14.008 53.23-42.957-12.14" fill="#cb3c33" fill-opacity=".65"/><path d="M1954.543 81.766l-33.906-43.98 42.152 11.91M1933.156 249.203l-16.64-30.516 49.93-11.093" fill="#389826" fill-opacity=".65"/><path d="M1934.355 161.152l32.922 44.207-50.789 11.286" fill="#4063d8" fill-opacity=".65"/><path d="M1933.957 253.121l48.629 41.145-49.563 5.613" fill="#389826" fill-opacity=".65"/><path d="M1960.86 336.2l-26.97-34.407 49.29-5.582" fill="#cb3c33" fill-opacity=".65"/><path d="M1964.742 47.895l-13.36-50.774 33.848 48.102" fill="#389826" fill-opacity=".65"/><path d="M1964.8 49.902l19.778-2.578L1957.063 80" fill="#9558b2" fill-opacity=".65"/><path d="M1934.46 157.746l-12.773-23.723 71.172.91" fill="#389826" fill-opacity=".65"/><path d="M1955.074 85.617l40.723 47.356-73.871-.95" fill="#cb3c33" fill-opacity=".65"/><path d="M1968.738 203.973l-33.152-44.52 60.621-23.68" fill="#9558b2" fill-opacity=".65"/><path d="M1986.508 43.563l-35.61-50.602 46.856-.938" fill="#cb3c33" fill-opacity=".65"/><path d="M1960.863 339.047l37.059 18.074-150.031 4.52" fill="#389826" fill-opacity=".65"/><path d="M1984.676 297.633l15.785 58.504-38.074-18.57" fill="#9558b2" fill-opacity=".65"/><path d="M1969.082 207.496L2011.586 250h-76.504" fill="#cb3c33" fill-opacity=".65"/><path d="M1984.785 293.508L1935.73 252h76.415" fill="#9558b2" fill-opacity=".65"/><path d="M1997.828 137.102l19.832 70.816-47.215-2.832" fill="#cb3c33" fill-opacity=".65"/><path d="M2013.25 248.836l-41.68-41.68 46.313 2.778M1986.773 47.824l31.106 64.094-61.27-28.277" fill="#4063d8" fill-opacity=".65"/><path d="M1998.09 132.57l-39.332-45.734 59.453 27.441" fill="#389826" fill-opacity=".65"/><path d="M1999.445-6.344l31.754 52.305-42.965-.934" fill="#4063d8" fill-opacity=".65"/><path d="M2020.125 111.965l-30.55-62.945 49.062 34.25" fill="#389826" fill-opacity=".65"/><path d="M2032.172 47.98l6.375 32.786-48.266-33.696" fill="#cb3c33" fill-opacity=".65"/><path d="M2019.125 205.738l-19.688-70.308 41.25 11.25" fill="#389826" fill-opacity=".65"/><path d="M2019.824 115.512l19.805 28.804-39.61-10.8" fill="#cb3c33" fill-opacity=".65"/><path d="M2039.102 86.234l1.789 56.391-19.688-28.645" fill="#9558b2" fill-opacity=".65"/><path d="M2041 151.656v43.762l-20.129 11.375" fill="#cb3c33" fill-opacity=".65"/><path d="M2002.504 356.027l-16.219-60.105 78.23-4.77" fill="#4063d8" fill-opacity=".65"/><path d="M2014.254 252.43l49.93 36.738-77.247 4.71" fill="#cb3c33" fill-opacity=".65"/><path d="M2066 292.492v53.664l-61.191 10.356" fill="#389826" fill-opacity=".65"/><path d="M2033.066 45.184l-32.168-52.985 65.286 6.621M2019.797 210.777l46.508 32.559-51.16 6.512" fill="#cb3c33" fill-opacity=".65"/><path d="M2041.621 197.363l24.356 43.297-45.106-31.57" fill="#4063d8" fill-opacity=".65"/><path d="M2066.082 288.082l-49.477-36.406 51.344-6.535" fill="#389826" fill-opacity=".65"/><path d="M2068.691 241.41l-24.699-43.91 34.762 8.234" fill="#cb3c33" fill-opacity=".65"/><path d="M2040.645 81.07l-6.438-33.093 44.129-.922" fill="#9558b2" fill-opacity=".65"/><path d="M2067.586.3l12.113 44.727-44.726.93" fill="#389826" fill-opacity=".65"/><path d="M2079.059 203.75l-34.872-8.258 36.708-30.281" fill="#4063d8" fill-opacity=".65"/><path d="M2043 193.879v-46.367l37.094 15.765" fill="#9558b2" fill-opacity=".65"/><path d="M2068 344.64v-52.538l29.496 23.964M2069.969 244.766l28.832-8.11-30.637 49.555" fill="#4063d8" fill-opacity=".65"/><path d="M2098.05 313.941l-29.738-24.164 31.598-51.109" fill="#389826" fill-opacity=".65"/><path d="M2080.39 207.3l18.981 27.118-28.926 8.137" fill="#9558b2" fill-opacity=".65"/><path d="M2082.691 169.535l15.91 60.293-17.585-25.121" fill="#389826" fill-opacity=".65"/><path d="M2081.305 43.297L2069.316-.965l35.043.922" fill="#4063d8" fill-opacity=".65"/><path d="M2066.984 348.016l34.95 7.152-86.582 1.586" fill="#cb3c33" fill-opacity=".65"/><path d="M2098.516 317.863l11.046 36.82-40.507-8.285" fill="#389826" fill-opacity=".65"/><path d="M2081.46 161.684l-37.593-15.977 68.606-59.207" fill="#4063d8" fill-opacity=".65"/><path d="M2042.934 143.875L2041.03 84h71.282" fill="#cb3c33" fill-opacity=".65"/><path d="M2080.934 47.406L2112.723 82h-70.121" fill="#389826" fill-opacity=".65"/><path d="M2100.523 229.273l-17.468-66.203 30.34-73.558M2105.352 2.348l8.332 77.742-31.47-34.246" fill="#cb3c33" fill-opacity=".65"/></svg>