<?xml version="1.0" encoding="UTF-8" standalone="no"?>
<!DOCTYPE svg PUBLIC "-//W3C//DTD SVG 1.1//EN" "http://www.w3.org/Graphics/SVG/1.1/DTD/svg11.dtd">
<svg width="100%" height="100%" viewBox="0 0 315 220" version="1.1" xmlns="http://www.w3.org/2000/svg" xmlns:xlink="http://www.w3.org/1999/xlink" xml:space="preserve" xmlns:serif="http://www.serif.com/" style="fill-rule:evenodd;clip-rule:evenodd;stroke-linejoin:round;stroke-miterlimit:2;">
    <g transform="matrix(1,0,0,1,-416.907,-364.979)">
        <g transform="matrix(1.39759,0,0,1.39759,276.895,131.949)">
            <g transform="matrix(0.215466,0,0,0.215466,60.1939,179.756)">
                <path d="M445.103,63.046C445.103,40.191 426.429,21.796 403.853,21.796L285.678,21.796C262.823,21.796 244.428,40.191 244.428,63.046L244.428,102.623C244.428,125.478 262.823,143.873 285.678,143.873L401.344,143.873L401.344,178.991L287.629,178.991L287.629,162.547L244.428,162.547L244.428,181.22C244.428,204.075 262.823,222.47 285.678,222.47L403.853,222.47C426.429,222.47 445.103,204.075 445.103,181.22L445.103,141.643C445.103,118.788 426.429,100.393 403.853,100.393L287.629,100.393L287.629,65.275L401.344,65.275L401.344,81.719L445.103,81.719L445.103,63.046Z" style="fill:#fff;fill-rule:nonzero;stroke:#fff;stroke-width:3.32px;"/>
                <path d="M625.431,103.459L625.431,60.816L502.239,60.816C480.221,60.816 461.825,79.211 461.825,101.229L461.825,182.057C461.825,204.075 480.221,222.47 502.239,222.47L625.709,222.47L625.709,179.827L504.469,179.827L504.469,103.459L625.431,103.459Z" style="fill:#fff;fill-rule:nonzero;stroke:#fff;stroke-width:3.32px;"/>
                <rect x="656.089" y="60.816" width="42.643" height="161.654" style="fill:#fff;fill-rule:nonzero;stroke:#fff;stroke-width:3.32px;"/>
                <path d="M838.926,102.902L770.919,21.796L726.325,21.796L726.325,222.47L769.526,222.47L769.526,88.13L838.926,170.351C861.223,144.151 885.471,114.608 908.047,87.851L908.047,222.47L951.526,222.47L951.526,21.796L906.653,21.796L838.926,102.902Z" style="fill:#fff;fill-rule:nonzero;stroke:#fff;stroke-width:3.32px;"/>
                <path d="M974.102,222.47L1174.78,222.47L1174.78,178.991L1017.3,178.991L1017.3,21.517L974.102,21.517L974.102,222.47Z" style="fill:#fff;fill-rule:nonzero;stroke:#fff;stroke-width:3.32px;"/>
            </g>
            <g transform="matrix(1.3903,0,0,1.40792,-167.98,-27.4525)">
                <g transform="matrix(134.484,0,0,134.484,201.204,216.446)">
                    <path d="M0.303,0.002C0.283,0.002 0.265,-0.003 0.249,-0.011C0.233,-0.019 0.22,-0.03 0.211,-0.045C0.201,-0.06 0.197,-0.077 0.197,-0.096C0.197,-0.114 0.201,-0.131 0.21,-0.146C0.218,-0.161 0.231,-0.173 0.247,-0.183C0.263,-0.192 0.281,-0.196 0.301,-0.196C0.319,-0.196 0.337,-0.192 0.353,-0.184C0.369,-0.176 0.382,-0.165 0.392,-0.151C0.402,-0.136 0.407,-0.119 0.407,-0.099C0.407,-0.081 0.403,-0.064 0.394,-0.049C0.385,-0.033 0.373,-0.021 0.357,-0.012C0.341,-0.003 0.323,0.002 0.303,0.002ZM0.002,-0.093C0.002,-0.11 0.006,-0.127 0.015,-0.143C0.024,-0.159 0.036,-0.172 0.052,-0.182C0.067,-0.191 0.085,-0.196 0.104,-0.196C0.116,-0.196 0.128,-0.194 0.14,-0.19C0.151,-0.186 0.161,-0.18 0.168,-0.173C0.175,-0.166 0.179,-0.159 0.179,-0.151C0.179,-0.143 0.176,-0.137 0.169,-0.133C0.163,-0.128 0.155,-0.126 0.147,-0.126C0.139,-0.126 0.132,-0.128 0.127,-0.132C0.122,-0.136 0.119,-0.141 0.119,-0.148C0.118,-0.156 0.117,-0.163 0.115,-0.167C0.113,-0.171 0.108,-0.173 0.1,-0.173C0.087,-0.173 0.077,-0.167 0.07,-0.157C0.063,-0.147 0.06,-0.133 0.06,-0.116C0.06,-0.095 0.064,-0.077 0.072,-0.06C0.08,-0.044 0.093,-0.036 0.109,-0.036C0.121,-0.036 0.131,-0.04 0.139,-0.049C0.147,-0.057 0.155,-0.069 0.162,-0.085L0.19,-0.077C0.183,-0.052 0.172,-0.033 0.156,-0.019C0.14,-0.005 0.121,0.002 0.099,0.002C0.081,0.002 0.065,-0.003 0.05,-0.012C0.035,-0.02 0.023,-0.032 0.015,-0.046C0.006,-0.061 0.002,-0.076 0.002,-0.093ZM0.259,-0.107C0.259,-0.085 0.263,-0.065 0.272,-0.048C0.281,-0.03 0.293,-0.021 0.309,-0.021C0.321,-0.021 0.33,-0.027 0.336,-0.039C0.342,-0.051 0.345,-0.067 0.345,-0.086C0.345,-0.11 0.34,-0.13 0.332,-0.147C0.323,-0.164 0.311,-0.173 0.297,-0.173C0.284,-0.173 0.275,-0.167 0.268,-0.154C0.262,-0.141 0.259,-0.125 0.259,-0.107ZM0.422,-0.193L0.48,-0.193L0.48,-0.178C0.498,-0.19 0.517,-0.197 0.538,-0.197C0.559,-0.197 0.574,-0.191 0.584,-0.18C0.593,-0.169 0.598,-0.155 0.598,-0.138L0.598,-0L0.541,-0L0.541,-0.132C0.541,-0.141 0.539,-0.149 0.536,-0.154C0.532,-0.16 0.527,-0.163 0.521,-0.163C0.51,-0.163 0.497,-0.156 0.48,-0.142L0.48,-0L0.422,-0L0.422,-0.193Z" style="fill:#9457b1;fill-rule:nonzero;"/>
                </g>
            </g>
            <g transform="matrix(1.09617,0,0,1.11006,7.07938,74.978)">
                <path d="M260.511,213.756C262.708,212.815 264.624,211.885 266.26,210.966C267.896,210.047 269.387,208.915 270.732,207.57C272.211,206.091 273.422,204.522 274.363,202.863C275.304,201.204 275.887,199.77 276.111,198.56C276.47,196.632 276.649,194.884 276.649,193.315C276.649,190.535 276.156,187.79 275.17,185.077C274.184,182.365 272.794,179.911 271.001,177.714C268.939,175.159 266.54,172.963 263.806,171.125C261.071,169.287 258.135,167.852 254.997,166.821C249.932,165.207 243.88,164.401 236.842,164.401L233.883,164.401C232.359,164.401 231.238,164.311 230.521,164.132C229.714,163.952 228.997,163.582 228.369,163.022C227.742,162.462 227.114,161.756 226.487,160.904C226.307,160.68 226.195,160.4 226.15,160.063C226.106,159.727 226.083,159.38 226.083,159.021C226.083,158.259 226.218,157.407 226.487,156.466C227.069,154.449 228.078,152.633 229.512,151.019C230.947,149.406 232.639,148.139 234.589,147.22C236.539,146.301 238.545,145.842 240.607,145.842C242.894,145.842 245.169,146.346 247.432,147.355C249.696,148.363 251.77,149.697 253.652,151.356C255.311,152.835 256.869,154.426 258.326,156.13C259.783,157.833 261.363,159.828 263.066,162.114L264.882,164.535C268.916,169.78 271.897,174.039 273.825,177.311C276.963,182.825 278.532,188.249 278.532,193.584C278.532,196.363 277.994,199.075 276.918,201.72C275.842,204.365 274.273,206.629 272.211,208.511C269.163,211.201 265.353,213.129 260.78,214.294L260.511,213.756ZM204.566,194.794C204.566,191.477 205.193,188.384 206.448,185.515L206.852,185.515C206.717,187.084 206.628,188.003 206.583,188.271C206.404,190.154 206.314,191.253 206.314,191.566C206.314,195.063 206.93,198.313 208.163,201.316C209.396,204.32 211.29,206.808 213.845,208.78C215.817,210.349 218.003,211.571 220.401,212.445C222.799,213.319 225.187,213.756 227.562,213.756C228.369,213.756 229.288,213.655 230.319,213.454C231.35,213.252 232,213.129 232.269,213.084C237.873,212.053 243.611,208.601 249.483,202.729C251.321,200.891 252.935,198.929 254.325,196.845C255.714,194.76 257.396,192.037 259.368,188.675C259.682,188.047 259.984,187.498 260.276,187.028C260.567,186.557 260.825,186.142 261.049,185.784C261.99,184.215 262.842,183.015 263.604,182.186C264.366,181.357 265.353,180.942 266.563,180.942C268.356,180.942 270.149,182.197 271.942,184.708C272.525,185.515 272.884,186.097 273.018,186.456C274.004,189.235 274.497,191.656 274.497,193.718C274.497,197.125 273.556,200.173 271.673,202.863C270.015,205.239 267.93,207.234 265.42,208.848C262.909,210.461 260.197,211.605 257.283,212.277C253.339,213.173 250.38,213.756 248.407,214.025C245.449,214.474 243.566,214.765 242.759,214.899C239.532,215.437 236.943,215.83 234.993,216.076C233.043,216.323 231.059,216.446 229.042,216.446C224.066,216.446 219.942,215.594 216.669,213.891C212.993,211.963 210.057,209.296 207.86,205.889C205.664,202.482 204.566,198.784 204.566,194.794ZM208.6,192.373C208.6,190.984 208.735,189.482 209.004,187.868C209.273,186.254 209.452,185.246 209.542,184.842C210.079,181.525 210.942,178.185 212.13,174.823C213.318,171.461 214.786,167.897 216.535,164.132C218.283,160.321 219.964,157.071 221.578,154.381C223.192,151.692 225.097,149.338 227.293,147.321C229.176,145.662 231.238,144.396 233.48,143.522C235.721,142.648 238.052,142.211 240.473,142.211C241.549,142.211 242.401,142.255 243.028,142.345C247.152,142.928 251.187,145.124 255.132,148.935L254.863,149.473C252.308,147.366 249.663,145.842 246.928,144.9C245.045,144.273 243.073,143.959 241.011,143.959C238.904,143.959 236.819,144.34 234.757,145.102C232.695,145.864 230.79,146.962 229.042,148.397C227.024,150.056 225.388,152.118 224.133,154.583C222.878,157.049 221.78,159.963 220.838,163.325C220.3,165.252 220.031,167.673 220.031,170.587C220.031,174.801 220.681,179.071 221.981,183.396C223.281,187.722 225.097,191.88 227.428,195.87C227.562,196.094 227.966,196.789 228.638,197.954C229.311,199.12 229.804,200.263 230.118,201.384C230.387,202.325 230.521,203.222 230.521,204.073C230.521,205.373 230.252,206.494 229.714,207.436C228.818,208.915 227.204,209.901 224.873,210.394C224.649,210.439 224.335,210.517 223.931,210.63C223.528,210.742 223.169,210.798 222.855,210.798C221.242,210.798 219.661,210.45 218.115,209.755C216.568,209.061 215.19,208.108 213.98,206.898C211.559,204.477 209.945,201.025 209.138,196.542C208.779,194.57 208.6,193.18 208.6,192.373Z" style="fill:#fff;fill-rule:nonzero;stroke:#fff;stroke-width:0.65px;"/>
            </g>
            <g id="julia-dots.svg" transform="matrix(0.055188,0,0,0.055188,206.478,182.51)">
                <g transform="matrix(1,0,0,1,-162.5,-150)">
                    <g id="surface91">
                        <path d="M150.898,225C150.898,266.422 117.32,300 75.898,300C34.477,300 0.898,266.422 0.898,225C0.898,183.578 34.477,150 75.898,150C117.32,150 150.898,183.578 150.898,225" style="fill:#ca3b33;fill-rule:nonzero;"/>
                        <path d="M237.5,75C237.5,116.422 203.922,150 162.5,150C121.078,150 87.5,116.422 87.5,75C87.5,33.578 121.078,0 162.5,0C203.922,0 237.5,33.578 237.5,75" style="fill:#389725;fill-rule:nonzero;"/>
                        <path d="M324.102,225C324.102,266.422 290.523,300 249.102,300C207.68,300 174.102,266.422 174.102,225C174.102,183.578 207.68,150 249.102,150C290.523,150 324.102,183.578 324.102,225" style="fill:#9457b1;fill-rule:nonzero;"/>
                    </g>
                </g>
            </g>
            <g transform="matrix(0.45226,0,0,0.457992,-19.4263,102.695)">
                <path d="M302.676,402.804C296.866,402.804 292.127,407.544 292.127,413.353L292.127,417.481L302.141,417.481L302.141,413.353C302.141,413.048 302.37,412.818 302.676,412.818L336.082,412.818C336.388,412.818 336.617,413.048 336.617,413.353L336.617,425.584C336.617,425.814 336.388,426.043 336.082,426.043L302.676,426.043C296.866,426.043 292.127,430.783 292.127,436.592L292.127,457.844L346.631,457.844L346.631,447.83L302.676,447.83C302.37,447.83 302.141,447.6 302.141,447.294L302.141,436.592C302.141,436.287 302.37,436.134 302.676,436.134L336.082,436.134C341.892,436.134 346.631,431.394 346.631,425.584L346.631,413.353C346.631,407.544 341.892,402.804 336.082,402.804L302.676,402.804Z" style="fill:#fff;fill-rule:nonzero;stroke:#fff;stroke-width:1.57px;"/>
                <path d="M366.124,402.804C360.314,402.804 355.575,407.773 355.575,413.583L355.575,446.989C355.575,452.798 360.314,457.844 366.124,457.844L399.53,457.844C405.34,457.844 410.079,452.798 410.079,446.989L410.079,413.583C410.079,407.773 405.34,402.804 399.53,402.804L366.124,402.804ZM395.555,413.048L365.589,438.198L365.589,413.583C365.589,413.277 365.818,413.048 366.124,413.048L395.555,413.048ZM370.099,447.524L400.065,422.374L400.065,446.989C400.065,447.294 399.836,447.524 399.53,447.524L370.099,447.524Z" style="fill:#fff;fill-rule:nonzero;stroke:#fff;stroke-width:1.57px;"/>
                <path d="M429.878,402.804C424.068,402.804 419.329,407.544 419.329,413.353L419.329,417.481L429.343,417.481L429.343,413.353C429.343,413.048 429.572,412.818 429.878,412.818L463.284,412.818C463.59,412.818 463.819,413.048 463.819,413.353L463.819,425.584C463.819,425.814 463.59,426.043 463.284,426.043L429.878,426.043C424.068,426.043 419.329,430.783 419.329,436.592L419.329,457.844L473.833,457.844L473.833,447.83L429.878,447.83C429.572,447.83 429.343,447.6 429.343,447.294L429.343,436.592C429.343,436.287 429.572,436.134 429.878,436.134L463.284,436.134C469.094,436.134 473.833,431.394 473.833,425.584L473.833,413.353C473.833,407.544 469.094,402.804 463.284,402.804L429.878,402.804Z" style="fill:#fff;fill-rule:nonzero;stroke:#fff;stroke-width:1.57px;"/>
                <path d="M493.326,402.804C487.517,402.804 482.777,407.544 482.777,413.353L482.777,417.481L492.791,417.481L492.791,413.353C492.791,413.048 493.021,412.818 493.326,412.818L526.732,412.818C527.038,412.818 527.267,413.048 527.267,413.353L527.267,425.584C527.267,425.814 527.038,426.043 526.732,426.043L493.326,426.043C487.517,426.043 482.777,430.783 482.777,436.592L482.777,457.844L537.281,457.844L537.281,447.83L493.326,447.83C493.021,447.83 492.791,447.6 492.791,447.294L492.791,436.592C492.791,436.287 493.021,436.134 493.326,436.134L526.732,436.134C532.542,436.134 537.281,431.394 537.281,425.584L537.281,413.353C537.281,407.544 532.542,402.804 526.732,402.804L493.326,402.804Z" style="fill:#fff;fill-rule:nonzero;stroke:#fff;stroke-width:1.57px;"/>
            </g>
        </g>
        <g transform="matrix(1,0,0,0.993443,-4,-3.88226)">
            <path d="M733.603,391.083C733.603,381.135 725.579,373.058 715.696,373.058L440.565,373.058C430.681,373.058 422.657,381.135 422.657,391.083L422.657,572.097C422.657,582.046 430.681,590.123 440.565,590.123L715.696,590.123C725.579,590.123 733.603,582.046 733.603,572.097L733.603,391.083Z" style="fill:none;stroke:#fff;stroke-width:3.51px;stroke-linecap:round;stroke-miterlimit:1.5;"/>
        </g>
    </g>
</svg>
