<?xml version="1.0" encoding="UTF-8" standalone="no"?>
<!DOCTYPE svg PUBLIC "-//W3C//DTD SVG 1.1//EN" "http://www.w3.org/Graphics/SVG/1.1/DTD/svg11.dtd">
<svg width="100%" height="100%" viewBox="0 0 240 130" version="1.1" xmlns="http://www.w3.org/2000/svg" xmlns:xlink="http://www.w3.org/1999/xlink" xml:space="preserve" xmlns:serif="http://www.serif.com/" style="fill-rule:evenodd;clip-rule:evenodd;stroke-linejoin:round;stroke-miterlimit:2;">
    <g transform="matrix(0.507508,0,0,0.507508,-410.208,-31.5981)">
        <g>
            <g transform="matrix(2.37443,0,0,1.97041,-1563.85,22.0345)">
                <path d="M1188.42,26.957L1007.56,26.957L1007.56,143.874L1048.06,143.874L1048.06,102.454L1105.2,102.454L1105.2,66.775L1188.42,66.775L1188.42,26.957Z" style="fill:none;stroke:#fff;stroke-width:1.81px;"/>
            </g>
            <g transform="matrix(0.559511,0,0,0.559511,353.152,-96.1425)">
                <g transform="matrix(131.688,0,0,131.688,863.468,420.99)">
                    <path d="M0.347,0.01C0.276,0.01 0.217,0 0.168,-0.019C0.119,-0.038 0.082,-0.064 0.057,-0.097C0.032,-0.129 0.019,-0.164 0.018,-0.203C0.018,-0.209 0.02,-0.214 0.025,-0.219C0.029,-0.223 0.034,-0.225 0.04,-0.225L0.23,-0.225C0.239,-0.225 0.247,-0.224 0.253,-0.222C0.258,-0.219 0.265,-0.215 0.273,-0.208C0.292,-0.193 0.317,-0.185 0.347,-0.185C0.37,-0.185 0.388,-0.188 0.402,-0.193C0.415,-0.198 0.422,-0.204 0.422,-0.213C0.422,-0.225 0.413,-0.234 0.395,-0.241C0.377,-0.247 0.343,-0.253 0.293,-0.26C0.121,-0.283 0.035,-0.356 0.035,-0.48C0.035,-0.525 0.048,-0.565 0.074,-0.6C0.099,-0.635 0.135,-0.662 0.181,-0.681C0.227,-0.7 0.28,-0.71 0.34,-0.71C0.403,-0.71 0.458,-0.699 0.505,-0.678C0.552,-0.657 0.589,-0.63 0.614,-0.598C0.639,-0.565 0.653,-0.534 0.654,-0.503C0.654,-0.497 0.652,-0.492 0.648,-0.488C0.643,-0.483 0.638,-0.481 0.633,-0.481L0.433,-0.481C0.424,-0.481 0.416,-0.482 0.411,-0.485C0.406,-0.487 0.4,-0.491 0.393,-0.497C0.379,-0.509 0.361,-0.515 0.34,-0.515C0.308,-0.515 0.292,-0.506 0.292,-0.487C0.292,-0.477 0.3,-0.469 0.316,-0.462C0.331,-0.455 0.36,-0.449 0.403,-0.444C0.47,-0.435 0.523,-0.422 0.564,-0.405C0.604,-0.388 0.633,-0.365 0.652,-0.336C0.67,-0.307 0.679,-0.27 0.679,-0.226C0.679,-0.179 0.665,-0.137 0.636,-0.102C0.607,-0.066 0.568,-0.038 0.518,-0.019C0.467,0 0.41,0.01 0.347,0.01Z" style="fill:#fff;fill-rule:nonzero;"/>
                </g>
                <g transform="matrix(131.688,0,0,131.688,955.255,420.99)">
                    <path d="M0.372,0.01C0.271,0.01 0.191,-0.012 0.132,-0.057C0.073,-0.101 0.041,-0.169 0.037,-0.261C0.036,-0.279 0.036,-0.308 0.036,-0.349C0.036,-0.39 0.036,-0.42 0.037,-0.439C0.041,-0.528 0.073,-0.596 0.134,-0.642C0.195,-0.687 0.274,-0.71 0.372,-0.71C0.432,-0.71 0.487,-0.701 0.538,-0.683C0.588,-0.665 0.629,-0.637 0.661,-0.599C0.692,-0.56 0.708,-0.512 0.709,-0.454C0.709,-0.448 0.707,-0.443 0.703,-0.439C0.698,-0.434 0.693,-0.432 0.687,-0.432L0.483,-0.432C0.472,-0.432 0.464,-0.434 0.46,-0.438C0.455,-0.442 0.45,-0.45 0.446,-0.461C0.439,-0.481 0.429,-0.495 0.417,-0.503C0.405,-0.511 0.39,-0.515 0.371,-0.515C0.348,-0.515 0.33,-0.509 0.317,-0.497C0.304,-0.484 0.298,-0.463 0.297,-0.434C0.296,-0.416 0.296,-0.388 0.296,-0.351C0.296,-0.314 0.296,-0.285 0.297,-0.266C0.298,-0.237 0.304,-0.216 0.317,-0.204C0.33,-0.191 0.348,-0.185 0.371,-0.185C0.409,-0.185 0.434,-0.203 0.446,-0.239C0.449,-0.25 0.454,-0.258 0.459,-0.262C0.464,-0.266 0.472,-0.268 0.483,-0.268L0.687,-0.268C0.693,-0.268 0.698,-0.266 0.703,-0.262C0.707,-0.257 0.709,-0.252 0.709,-0.246C0.708,-0.188 0.692,-0.14 0.661,-0.102C0.629,-0.063 0.588,-0.035 0.538,-0.017C0.487,0.001 0.432,0.01 0.372,0.01Z" style="fill:#fff;fill-rule:nonzero;"/>
                </g>
                <g transform="matrix(131.688,0,0,131.688,1051.78,420.99)">
                    <path d="M0.082,-0C0.075,-0 0.068,-0.003 0.063,-0.008C0.058,-0.013 0.055,-0.02 0.055,-0.027L0.055,-0.673C0.055,-0.68 0.058,-0.687 0.063,-0.692C0.068,-0.697 0.075,-0.7 0.082,-0.7L0.286,-0.7C0.293,-0.7 0.3,-0.697 0.305,-0.692C0.31,-0.687 0.313,-0.68 0.313,-0.673L0.313,-0.027C0.313,-0.02 0.31,-0.013 0.305,-0.008C0.3,-0.003 0.293,-0 0.286,-0L0.082,-0Z" style="fill:#fff;fill-rule:nonzero;"/>
                </g>
                <g transform="matrix(131.688,0,0,131.688,1100.24,420.99)">
                    <path d="M0.082,-0C0.075,-0 0.068,-0.003 0.063,-0.008C0.058,-0.013 0.055,-0.02 0.055,-0.027L0.055,-0.673C0.055,-0.68 0.058,-0.687 0.063,-0.692C0.068,-0.697 0.075,-0.7 0.082,-0.7L0.24,-0.7C0.259,-0.7 0.273,-0.691 0.283,-0.673L0.428,-0.433L0.573,-0.673C0.583,-0.691 0.597,-0.7 0.616,-0.7L0.774,-0.7C0.781,-0.7 0.788,-0.697 0.793,-0.692C0.798,-0.687 0.801,-0.68 0.801,-0.673L0.801,-0.027C0.801,-0.02 0.798,-0.013 0.793,-0.008C0.788,-0.003 0.781,-0 0.774,-0L0.593,-0C0.586,-0 0.579,-0.003 0.574,-0.008C0.569,-0.013 0.566,-0.02 0.566,-0.027L0.566,-0.301L0.5,-0.193C0.495,-0.186 0.49,-0.18 0.485,-0.175C0.479,-0.17 0.472,-0.168 0.463,-0.168L0.393,-0.168C0.384,-0.168 0.377,-0.17 0.372,-0.175C0.366,-0.18 0.361,-0.186 0.356,-0.193L0.29,-0.301L0.29,-0.027C0.29,-0.02 0.287,-0.013 0.282,-0.008C0.277,-0.003 0.27,-0 0.263,-0L0.082,-0Z" style="fill:#fff;fill-rule:nonzero;"/>
                </g>
                <g transform="matrix(131.688,0,0,131.688,1212.97,420.99)">
                    <path d="M0.082,-0C0.075,-0 0.068,-0.003 0.063,-0.008C0.058,-0.013 0.055,-0.02 0.055,-0.027L0.055,-0.673C0.055,-0.68 0.058,-0.687 0.063,-0.692C0.068,-0.697 0.075,-0.7 0.082,-0.7L0.282,-0.7C0.289,-0.7 0.296,-0.697 0.301,-0.692C0.306,-0.687 0.309,-0.68 0.309,-0.673L0.309,-0.205L0.586,-0.205C0.593,-0.205 0.6,-0.202 0.605,-0.197C0.61,-0.192 0.613,-0.185 0.613,-0.178L0.613,-0.027C0.613,-0.02 0.61,-0.013 0.605,-0.008C0.6,-0.003 0.593,-0 0.586,-0L0.082,-0Z" style="fill:#fff;fill-rule:nonzero;"/>
                </g>
                <g transform="matrix(131.688,0,0,131.688,1295.41,420.99)">
                    <path d="M0.372,0.01C0.271,0.01 0.191,-0.012 0.132,-0.057C0.073,-0.101 0.041,-0.169 0.037,-0.261C0.036,-0.279 0.036,-0.308 0.036,-0.349C0.036,-0.39 0.036,-0.42 0.037,-0.439C0.041,-0.528 0.073,-0.596 0.134,-0.642C0.195,-0.687 0.274,-0.71 0.372,-0.71C0.432,-0.71 0.487,-0.701 0.538,-0.683C0.588,-0.665 0.629,-0.637 0.661,-0.599C0.692,-0.56 0.708,-0.512 0.709,-0.454C0.709,-0.448 0.707,-0.443 0.703,-0.439C0.698,-0.434 0.693,-0.432 0.687,-0.432L0.483,-0.432C0.472,-0.432 0.464,-0.434 0.46,-0.438C0.455,-0.442 0.45,-0.45 0.446,-0.461C0.439,-0.481 0.429,-0.495 0.417,-0.503C0.405,-0.511 0.39,-0.515 0.371,-0.515C0.348,-0.515 0.33,-0.509 0.317,-0.497C0.304,-0.484 0.298,-0.463 0.297,-0.434C0.296,-0.416 0.296,-0.388 0.296,-0.351C0.296,-0.314 0.296,-0.285 0.297,-0.266C0.298,-0.237 0.304,-0.216 0.317,-0.204C0.33,-0.191 0.348,-0.185 0.371,-0.185C0.409,-0.185 0.434,-0.203 0.446,-0.239C0.449,-0.25 0.454,-0.258 0.459,-0.262C0.464,-0.266 0.472,-0.268 0.483,-0.268L0.687,-0.268C0.693,-0.268 0.698,-0.266 0.703,-0.262C0.707,-0.257 0.709,-0.252 0.709,-0.246C0.708,-0.188 0.692,-0.14 0.661,-0.102C0.629,-0.063 0.588,-0.035 0.538,-0.017C0.487,0.001 0.432,0.01 0.372,0.01Z" style="fill:#9457b1;fill-rule:nonzero;"/>
                </g>
                <g transform="matrix(131.688,0,0,131.688,1391.93,420.99)">
                    <path d="M0.371,0.01C0.271,0.01 0.191,-0.013 0.132,-0.059C0.073,-0.105 0.041,-0.172 0.037,-0.26C0.036,-0.278 0.036,-0.307 0.036,-0.347C0.036,-0.388 0.036,-0.417 0.037,-0.436C0.039,-0.493 0.054,-0.543 0.083,-0.584C0.111,-0.625 0.15,-0.657 0.199,-0.678C0.248,-0.699 0.306,-0.71 0.371,-0.71C0.436,-0.71 0.494,-0.699 0.543,-0.678C0.592,-0.657 0.631,-0.625 0.66,-0.584C0.688,-0.543 0.703,-0.493 0.705,-0.436C0.706,-0.399 0.707,-0.369 0.707,-0.347C0.707,-0.325 0.706,-0.296 0.705,-0.26C0.701,-0.172 0.669,-0.105 0.61,-0.059C0.551,-0.013 0.471,0.01 0.371,0.01ZM0.371,-0.185C0.394,-0.185 0.412,-0.192 0.425,-0.205C0.438,-0.218 0.444,-0.239 0.445,-0.266C0.446,-0.305 0.447,-0.333 0.447,-0.351C0.447,-0.37 0.446,-0.398 0.445,-0.434C0.444,-0.461 0.437,-0.482 0.424,-0.495C0.411,-0.508 0.393,-0.515 0.371,-0.515C0.349,-0.515 0.331,-0.508 0.318,-0.495C0.305,-0.482 0.298,-0.461 0.297,-0.434C0.296,-0.416 0.296,-0.388 0.296,-0.351C0.296,-0.314 0.296,-0.285 0.297,-0.266C0.298,-0.239 0.305,-0.218 0.318,-0.205C0.331,-0.192 0.348,-0.185 0.371,-0.185Z" style="fill:#9457b1;fill-rule:nonzero;"/>
                </g>
                <g transform="matrix(131.688,0,0,131.688,1489.65,420.99)">
                    <path d="M0.082,-0C0.075,-0 0.068,-0.003 0.063,-0.008C0.058,-0.013 0.055,-0.02 0.055,-0.027L0.055,-0.673C0.055,-0.68 0.058,-0.687 0.063,-0.692C0.068,-0.697 0.075,-0.7 0.082,-0.7L0.24,-0.7C0.259,-0.7 0.272,-0.692 0.281,-0.677L0.45,-0.4L0.45,-0.673C0.45,-0.68 0.453,-0.687 0.458,-0.692C0.463,-0.697 0.47,-0.7 0.477,-0.7L0.658,-0.7C0.665,-0.7 0.672,-0.697 0.677,-0.692C0.682,-0.687 0.685,-0.68 0.685,-0.673L0.685,-0.027C0.685,-0.02 0.682,-0.013 0.677,-0.008C0.672,-0.003 0.665,-0 0.658,-0L0.5,-0C0.489,-0 0.48,-0.002 0.474,-0.007C0.468,-0.012 0.463,-0.017 0.459,-0.023L0.29,-0.278L0.29,-0.027C0.29,-0.02 0.287,-0.013 0.282,-0.008C0.277,-0.003 0.27,-0 0.263,-0L0.082,-0Z" style="fill:#9457b1;fill-rule:nonzero;"/>
                </g>
                <g transform="matrix(131.688,0,0,131.688,863.468,545.635)">
                    <path d="M0.062,-0C0.055,-0 0.048,-0.003 0.043,-0.008C0.038,-0.013 0.035,-0.02 0.035,-0.027L0.035,-0.131C0.035,-0.155 0.043,-0.173 0.06,-0.185L0.071,-0.193L0.109,-0.22C0.184,-0.274 0.239,-0.315 0.275,-0.343C0.31,-0.37 0.338,-0.395 0.358,-0.418C0.378,-0.44 0.388,-0.46 0.388,-0.477C0.388,-0.49 0.386,-0.5 0.382,-0.507C0.377,-0.514 0.367,-0.517 0.352,-0.517C0.339,-0.517 0.329,-0.514 0.322,-0.509C0.315,-0.503 0.31,-0.497 0.308,-0.492C0.305,-0.487 0.302,-0.478 0.297,-0.466C0.294,-0.457 0.289,-0.451 0.282,-0.448C0.275,-0.445 0.267,-0.443 0.257,-0.443L0.069,-0.443C0.063,-0.443 0.058,-0.445 0.054,-0.45C0.049,-0.454 0.047,-0.459 0.047,-0.465C0.048,-0.514 0.061,-0.558 0.088,-0.596C0.115,-0.633 0.151,-0.662 0.197,-0.683C0.242,-0.704 0.294,-0.714 0.351,-0.714C0.443,-0.714 0.516,-0.694 0.57,-0.655C0.623,-0.615 0.65,-0.56 0.65,-0.49C0.65,-0.439 0.632,-0.392 0.597,-0.35C0.561,-0.307 0.507,-0.261 0.434,-0.211L0.427,-0.206L0.638,-0.206C0.645,-0.206 0.652,-0.203 0.657,-0.198C0.662,-0.193 0.665,-0.186 0.665,-0.179L0.665,-0.027C0.665,-0.02 0.662,-0.013 0.657,-0.008C0.652,-0.003 0.645,-0 0.638,-0L0.062,-0Z" style="fill:#fff;fill-rule:nonzero;"/>
                </g>
                <g transform="matrix(131.688,0,0,131.688,956.176,545.635)">
                    <path d="M0.358,0.01C0.261,0.009 0.186,-0.014 0.133,-0.061C0.08,-0.108 0.05,-0.169 0.044,-0.246C0.042,-0.273 0.041,-0.308 0.041,-0.351C0.041,-0.394 0.042,-0.43 0.044,-0.458C0.047,-0.507 0.062,-0.551 0.088,-0.589C0.113,-0.626 0.149,-0.656 0.196,-0.678C0.242,-0.699 0.296,-0.71 0.358,-0.71C0.42,-0.71 0.474,-0.699 0.521,-0.678C0.567,-0.656 0.603,-0.626 0.629,-0.589C0.654,-0.551 0.669,-0.507 0.672,-0.458C0.674,-0.43 0.675,-0.394 0.675,-0.351C0.675,-0.308 0.674,-0.273 0.672,-0.246C0.666,-0.169 0.636,-0.108 0.583,-0.061C0.53,-0.014 0.455,0.009 0.358,0.01ZM0.358,-0.186C0.391,-0.186 0.409,-0.208 0.412,-0.251C0.413,-0.27 0.414,-0.304 0.414,-0.352C0.414,-0.401 0.413,-0.434 0.412,-0.452C0.409,-0.495 0.391,-0.516 0.358,-0.517C0.325,-0.516 0.307,-0.495 0.304,-0.452C0.303,-0.416 0.302,-0.383 0.302,-0.352C0.302,-0.323 0.303,-0.29 0.304,-0.251C0.307,-0.208 0.325,-0.186 0.358,-0.186Z" style="fill:#fff;fill-rule:nonzero;"/>
                </g>
                <g transform="matrix(131.688,0,0,131.688,1050.73,545.635)">
                    <path d="M0.062,-0C0.055,-0 0.048,-0.003 0.043,-0.008C0.038,-0.013 0.035,-0.02 0.035,-0.027L0.035,-0.131C0.035,-0.155 0.043,-0.173 0.06,-0.185L0.071,-0.193L0.109,-0.22C0.184,-0.274 0.239,-0.315 0.275,-0.343C0.31,-0.37 0.338,-0.395 0.358,-0.418C0.378,-0.44 0.388,-0.46 0.388,-0.477C0.388,-0.49 0.386,-0.5 0.382,-0.507C0.377,-0.514 0.367,-0.517 0.352,-0.517C0.339,-0.517 0.329,-0.514 0.322,-0.509C0.315,-0.503 0.31,-0.497 0.308,-0.492C0.305,-0.487 0.302,-0.478 0.297,-0.466C0.294,-0.457 0.289,-0.451 0.282,-0.448C0.275,-0.445 0.267,-0.443 0.257,-0.443L0.069,-0.443C0.063,-0.443 0.058,-0.445 0.054,-0.45C0.049,-0.454 0.047,-0.459 0.047,-0.465C0.048,-0.514 0.061,-0.558 0.088,-0.596C0.115,-0.633 0.151,-0.662 0.197,-0.683C0.242,-0.704 0.294,-0.714 0.351,-0.714C0.443,-0.714 0.516,-0.694 0.57,-0.655C0.623,-0.615 0.65,-0.56 0.65,-0.49C0.65,-0.439 0.632,-0.392 0.597,-0.35C0.561,-0.307 0.507,-0.261 0.434,-0.211L0.427,-0.206L0.638,-0.206C0.645,-0.206 0.652,-0.203 0.657,-0.198C0.662,-0.193 0.665,-0.186 0.665,-0.179L0.665,-0.027C0.665,-0.02 0.662,-0.013 0.657,-0.008C0.652,-0.003 0.645,-0 0.638,-0L0.062,-0Z" style="fill:#fff;fill-rule:nonzero;"/>
                </g>
                <g transform="matrix(131.688,0,0,131.688,1143.44,545.635)">
                    <path d="M0.062,-0C0.055,-0 0.048,-0.003 0.043,-0.008C0.038,-0.013 0.035,-0.02 0.035,-0.027L0.035,-0.131C0.035,-0.155 0.043,-0.173 0.06,-0.185L0.071,-0.193L0.109,-0.22C0.184,-0.274 0.239,-0.315 0.275,-0.343C0.31,-0.37 0.338,-0.395 0.358,-0.418C0.378,-0.44 0.388,-0.46 0.388,-0.477C0.388,-0.49 0.386,-0.5 0.382,-0.507C0.377,-0.514 0.367,-0.517 0.352,-0.517C0.339,-0.517 0.329,-0.514 0.322,-0.509C0.315,-0.503 0.31,-0.497 0.308,-0.492C0.305,-0.487 0.302,-0.478 0.297,-0.466C0.294,-0.457 0.289,-0.451 0.282,-0.448C0.275,-0.445 0.267,-0.443 0.257,-0.443L0.069,-0.443C0.063,-0.443 0.058,-0.445 0.054,-0.45C0.049,-0.454 0.047,-0.459 0.047,-0.465C0.048,-0.514 0.061,-0.558 0.088,-0.596C0.115,-0.633 0.151,-0.662 0.197,-0.683C0.242,-0.704 0.294,-0.714 0.351,-0.714C0.443,-0.714 0.516,-0.694 0.57,-0.655C0.623,-0.615 0.65,-0.56 0.65,-0.49C0.65,-0.439 0.632,-0.392 0.597,-0.35C0.561,-0.307 0.507,-0.261 0.434,-0.211L0.427,-0.206L0.638,-0.206C0.645,-0.206 0.652,-0.203 0.657,-0.198C0.662,-0.193 0.665,-0.186 0.665,-0.179L0.665,-0.027C0.665,-0.02 0.662,-0.013 0.657,-0.008C0.652,-0.003 0.645,-0 0.638,-0L0.062,-0Z" style="fill:#fff;fill-rule:nonzero;"/>
                </g>
            </g>
            <g transform="matrix(0.992055,0,0,0.992055,6.967,2.06219)">
                <g transform="matrix(0.3418,0,0,0.3418,826.078,215.819)">
                    <path d="M198.234,236.105C211.734,230.23 226.484,224.73 237.234,214.23C246.859,204.73 253.109,191.855 254.859,178.48C257.359,158.855 250.484,138.605 238.234,123.105C225.984,107.605 208.484,96.605 189.734,90.355C170.984,84.105 150.984,82.105 131.234,82.48C125.984,82.605 120.609,82.855 115.359,81.605C110.234,80.355 105.234,77.23 103.109,72.355C101.234,68.105 101.859,63.23 103.109,58.855C108.484,40.23 126.984,26.23 146.234,26.23C160.734,26.23 174.609,33.355 185.609,42.855C196.609,52.355 205.234,64.23 214.109,75.73C225.609,90.73 237.734,105.355 246.984,121.855C256.234,138.355 262.484,157.105 261.109,175.98C260.109,191.105 253.609,206.355 242.109,216.48C229.234,227.98 215.109,232.98 198.234,236.105" style="fill:#ca3b33;fill-rule:nonzero;"/>
                </g>
                <g transform="matrix(0.3418,0,0,0.3418,826.078,215.819)">
                    <path d="M194.984,41.105C185.984,33.98 176.109,27.605 165.234,23.73C146.734,17.105 125.984,21.23 110.984,33.855C97.484,45.23 89.234,61.98 85.609,79.355C78.734,113.105 88.734,148.605 105.859,178.48C108.984,183.98 112.359,189.355 114.234,195.355C116.109,201.355 116.109,208.23 112.734,213.605C109.609,218.73 103.734,221.605 97.859,222.73C86.109,224.855 73.734,220.105 65.234,211.73C56.734,203.355 51.734,191.855 49.984,180.105C48.109,168.355 49.234,156.23 51.359,144.48C55.359,122.605 63.484,101.605 72.734,81.48C81.109,63.23 90.609,44.605 105.609,30.855C118.609,18.855 135.859,12.98 153.484,15.48C170.359,17.98 183.984,28.605 194.984,41.105" style="fill:#389725;fill-rule:nonzero;"/>
                </g>
                <g transform="matrix(0.3418,0,0,0.3418,826.078,215.819)">
                    <path d="M244.234,149.855C243.359,147.98 242.359,146.105 241.234,144.23C237.109,137.73 230.109,131.73 222.484,133.23C215.609,134.605 211.609,141.48 208.359,147.605C198.484,165.98 187.609,183.98 173.234,199.105C158.859,214.23 140.859,226.355 120.484,230.73C101.234,234.855 80.109,230.23 64.609,217.855C42.234,199.98 38.109,168.73 44.609,142.355C25.109,179.855 42.109,216.48 73.359,232.73C103.109,248.23 138.484,238.355 169.484,233.23C178.609,231.73 187.734,230.23 196.609,227.73C213.734,222.98 230.609,214.355 240.359,199.605C250.109,185.23 251.484,165.605 244.234,149.855" style="fill:#9457b1;fill-rule:nonzero;"/>
                </g>
            </g>
        </g>
    </g>
</svg>
