<?xml version="1.0" encoding="UTF-8" standalone="no"?>
<!DOCTYPE svg PUBLIC "-//W3C//DTD SVG 1.1//EN" "http://www.w3.org/Graphics/SVG/1.1/DTD/svg11.dtd">
<svg width="100%" height="100%" viewBox="0 0 250 150" version="1.1" xmlns="http://www.w3.org/2000/svg" xmlns:xlink="http://www.w3.org/1999/xlink" xml:space="preserve" xmlns:serif="http://www.serif.com/" style="fill-rule:evenodd;clip-rule:evenodd;stroke-linejoin:round;stroke-miterlimit:2;">
    <g transform="matrix(0.707299,0,0,0.707299,-578.232,-58.2784)">
        <g>
            <g transform="matrix(1.06355,0,0,0.849015,-76.6326,-189.818)">
                <path d="M887.207,389.976C882.372,389.976 878.279,389.137 874.927,387.459C871.575,385.781 869.055,383.539 867.367,380.733C865.68,377.927 864.79,374.846 864.699,371.491C864.699,370.97 864.848,370.522 865.144,370.146C865.44,369.77 865.794,369.582 866.204,369.582L879.202,369.582C879.841,369.582 880.354,369.683 880.742,369.885C881.129,370.088 881.597,370.478 882.144,371.057C883.467,372.388 885.154,373.053 887.207,373.053C888.757,373.053 890,372.836 890.935,372.402C891.87,371.968 892.337,371.375 892.337,370.623C892.337,369.582 891.722,368.786 890.49,368.236C889.259,367.687 886.933,367.123 883.512,366.544C871.746,364.577 865.862,358.213 865.862,347.452C865.862,343.575 866.74,340.118 868.496,337.081C870.252,334.043 872.703,331.686 875.85,330.008C878.997,328.33 882.623,327.491 886.728,327.491C891.015,327.491 894.777,328.417 898.016,330.268C901.254,332.12 903.739,334.448 905.472,337.254C907.205,340.06 908.118,342.794 908.209,345.456C908.209,345.976 908.061,346.425 907.764,346.801C907.468,347.177 907.137,347.365 906.772,347.365L893.09,347.365C892.451,347.365 891.95,347.264 891.585,347.061C891.22,346.859 890.81,346.497 890.353,345.976C889.396,344.935 888.187,344.414 886.728,344.414C884.539,344.414 883.444,345.224 883.444,346.844C883.444,347.712 883.98,348.435 885.052,349.014C886.123,349.592 888.119,350.113 891.038,350.576C895.598,351.328 899.258,352.456 902.018,353.96C904.777,355.465 906.784,357.475 908.038,359.992C909.292,362.509 909.919,365.676 909.919,369.495C909.919,373.603 908.939,377.204 906.977,380.299C905.016,383.395 902.314,385.781 898.871,387.459C895.427,389.137 891.539,389.976 887.207,389.976Z" style="fill:#fff;fill-rule:nonzero;"/>
                <path d="M964.785,389.976C957.898,389.976 952.425,388.052 948.366,384.205C944.307,380.357 942.141,374.441 941.867,366.457C941.822,364.895 941.799,362.35 941.799,358.82C941.799,355.233 941.822,352.63 941.867,351.01C942.141,343.257 944.353,337.399 948.503,333.436C952.653,329.473 958.081,327.491 964.785,327.491C968.89,327.491 972.664,328.272 976.107,329.834C979.55,331.397 982.355,333.841 984.522,337.168C986.688,340.494 987.794,344.675 987.84,349.708C987.84,350.229 987.691,350.677 987.395,351.053C987.098,351.429 986.745,351.617 986.334,351.617L972.379,351.617C971.649,351.617 971.113,351.444 970.771,351.097C970.429,350.749 970.121,350.084 969.847,349.101C969.346,347.365 968.684,346.15 967.863,345.456C967.042,344.761 965.994,344.414 964.717,344.414C963.12,344.414 961.889,344.949 961.022,346.02C960.156,347.09 959.7,348.898 959.654,351.444C959.608,353.006 959.586,355.407 959.586,358.647C959.586,361.887 959.608,364.346 959.654,366.023C959.7,368.569 960.156,370.377 961.022,371.447C961.889,372.518 963.12,373.053 964.717,373.053C967.316,373.053 969.026,371.491 969.847,368.367C970.075,367.383 970.36,366.718 970.702,366.371C971.045,366.023 971.603,365.85 972.379,365.85L986.334,365.85C986.745,365.85 987.098,366.038 987.395,366.414C987.691,366.79 987.84,367.238 987.84,367.759C987.794,372.793 986.688,376.973 984.522,380.299C982.355,383.626 979.55,386.071 976.107,387.633C972.664,389.195 968.89,389.976 964.785,389.976Z" style="fill:#fff;fill-rule:nonzero;"/>
                <path d="M1031.49,389.108C1030.98,389.108 1030.55,388.877 1030.19,388.414C1029.82,387.951 1029.64,387.401 1029.64,386.765L1029.64,330.702C1029.64,330.066 1029.82,329.516 1030.19,329.053C1030.55,328.591 1030.98,328.359 1031.49,328.359L1045.44,328.359C1045.94,328.359 1046.38,328.591 1046.74,329.053C1047.11,329.516 1047.29,330.066 1047.29,330.702L1047.29,386.765C1047.29,387.401 1047.11,387.951 1046.74,388.414C1046.38,388.877 1045.94,389.108 1045.44,389.108L1031.49,389.108Z" style="fill:#fff;fill-rule:nonzero;"/>
                <path d="M1099.9,389.108C1099.39,389.108 1098.96,388.877 1098.6,388.414C1098.23,387.951 1098.05,387.401 1098.05,386.765L1098.05,330.702C1098.05,330.066 1098.23,329.516 1098.6,329.053C1098.96,328.591 1099.39,328.359 1099.9,328.359L1110.71,328.359C1111.98,328.359 1112.96,329.14 1113.65,330.702L1123.57,351.53L1133.49,330.702C1134.17,329.14 1135.15,328.359 1136.43,328.359L1147.24,328.359C1147.74,328.359 1148.17,328.591 1148.54,329.053C1148.9,329.516 1149.09,330.066 1149.09,330.702L1149.09,386.765C1149.09,387.401 1148.9,387.951 1148.54,388.414C1148.17,388.877 1147.74,389.108 1147.24,389.108L1134.86,389.108C1134.35,389.108 1133.92,388.877 1133.56,388.414C1133.19,387.951 1133.01,387.401 1133.01,386.765L1133.01,362.986L1128.49,372.359C1128.17,372.995 1127.82,373.516 1127.43,373.921C1127.05,374.326 1126.56,374.528 1125.96,374.528L1121.17,374.528C1120.58,374.528 1120.09,374.326 1119.7,373.921C1119.32,373.516 1118.96,372.995 1118.64,372.359L1114.13,362.986L1114.13,386.765C1114.13,387.401 1113.94,387.951 1113.58,388.414C1113.21,388.877 1112.78,389.108 1112.28,389.108L1099.9,389.108Z" style="fill:#fff;fill-rule:nonzero;"/>
                <path d="M869.078,475.892C868.576,475.892 868.143,475.661 867.778,475.198C867.413,474.735 867.23,474.185 867.23,473.549L867.23,417.486C867.23,416.85 867.413,416.3 867.778,415.838C868.143,415.375 868.576,415.143 869.078,415.143L882.76,415.143C883.262,415.143 883.695,415.375 884.06,415.838C884.425,416.3 884.607,416.85 884.607,417.486L884.607,458.101L903.557,458.101C904.059,458.101 904.492,458.333 904.857,458.796C905.222,459.259 905.404,459.808 905.404,460.445L905.404,473.549C905.404,474.185 905.222,474.735 904.857,475.198C904.492,475.661 904.059,475.892 903.557,475.892L869.078,475.892Z" style="fill:#fff;fill-rule:nonzero;"/>
                <path d="M962.453,476.76C955.566,476.76 950.093,474.836 946.034,470.989C941.975,467.141 939.809,461.226 939.535,453.242C939.49,451.679 939.467,449.134 939.467,445.605C939.467,442.017 939.49,439.414 939.535,437.794C939.809,430.041 942.021,424.183 946.171,420.22C950.321,416.257 955.749,414.275 962.453,414.275C966.558,414.275 970.332,415.057 973.775,416.619C977.218,418.181 980.023,420.625 982.19,423.952C984.356,427.279 985.462,431.459 985.507,436.492C985.507,437.013 985.359,437.461 985.063,437.837C984.766,438.213 984.413,438.401 984.002,438.401L970.047,438.401C969.317,438.401 968.781,438.228 968.439,437.881C968.097,437.534 967.789,436.868 967.515,435.885C967.014,434.149 966.352,432.934 965.531,432.24C964.71,431.546 963.661,431.198 962.384,431.198C960.788,431.198 959.557,431.734 958.69,432.804C957.824,433.874 957.368,435.682 957.322,438.228C957.276,439.79 957.254,442.191 957.254,445.431C957.254,448.671 957.276,451.13 957.322,452.808C957.368,455.353 957.824,457.161 958.69,458.232C959.557,459.302 960.788,459.837 962.384,459.837C964.984,459.837 966.694,458.275 967.515,455.151C967.743,454.167 968.028,453.502 968.37,453.155C968.713,452.808 969.271,452.634 970.047,452.634L984.002,452.634C984.413,452.634 984.766,452.822 985.063,453.198C985.359,453.574 985.507,454.023 985.507,454.543C985.462,459.577 984.356,463.757 982.19,467.084C980.023,470.41 977.218,472.855 973.775,474.417C970.332,475.979 966.558,476.76 962.453,476.76Z" style="fill:#fff;fill-rule:nonzero;"/>
                <path d="M1105.91,475.892C1105.41,475.892 1104.98,475.661 1104.61,475.198C1104.25,474.735 1104.06,474.185 1104.06,473.549L1104.06,417.486C1104.06,416.85 1104.25,416.3 1104.61,415.838C1104.98,415.375 1105.41,415.143 1105.91,415.143L1116.72,415.143C1118,415.143 1118.93,415.809 1119.53,417.139L1131.09,441.179L1131.09,417.486C1131.09,416.85 1131.27,416.3 1131.63,415.838C1132,415.375 1132.43,415.143 1132.93,415.143L1145.32,415.143C1145.82,415.143 1146.25,415.375 1146.62,415.838C1146.98,416.3 1147.16,416.85 1147.16,417.486L1147.16,473.549C1147.16,474.185 1146.98,474.735 1146.62,475.198C1146.25,475.661 1145.82,475.892 1145.32,475.892L1134.51,475.892C1133.73,475.892 1133.14,475.69 1132.73,475.285C1132.32,474.88 1131.98,474.417 1131.7,473.896L1120.14,451.766L1120.14,473.549C1120.14,474.185 1119.96,474.735 1119.59,475.198C1119.23,475.661 1118.8,475.892 1118.29,475.892L1105.91,475.892Z" style="fill:#fff;fill-rule:nonzero;"/>
                <path d="M867.709,562.676C867.208,562.676 866.774,562.445 866.41,561.982C866.045,561.519 865.862,560.97 865.862,560.333L865.862,551.308C865.862,549.225 866.432,547.663 867.573,546.621L868.325,545.927L870.925,543.584C876.033,538.898 879.807,535.354 882.247,532.953C884.687,530.552 886.591,528.382 887.959,526.444C889.327,524.506 890.011,522.785 890.011,521.28C890.011,520.181 889.863,519.328 889.567,518.72C889.27,518.113 888.598,517.809 887.549,517.809C886.682,517.809 885.998,518.055 885.496,518.547C884.995,519.038 884.664,519.516 884.504,519.979C884.345,520.441 884.105,521.194 883.786,522.235C883.558,522.987 883.216,523.508 882.76,523.797C882.304,524.086 881.734,524.231 881.05,524.231L868.188,524.231C867.778,524.231 867.424,524.043 867.128,523.667C866.831,523.291 866.683,522.842 866.683,522.322C866.729,518.04 867.664,514.265 869.488,510.996C871.312,507.728 873.787,505.196 876.911,503.403C880.035,501.609 883.558,500.713 887.48,500.713C893.774,500.713 898.757,502.434 902.428,505.876C906.099,509.319 907.935,514.077 907.935,520.152C907.935,524.607 906.715,528.671 904.275,532.345C901.835,536.019 898.13,540.026 893.158,544.365L892.679,544.799L907.114,544.799C907.616,544.799 908.049,545.03 908.414,545.493C908.779,545.956 908.961,546.506 908.961,547.142L908.961,560.333C908.961,560.97 908.779,561.519 908.414,561.982C908.049,562.445 907.616,562.676 907.114,562.676L867.709,562.676Z" style="fill:#fff;fill-rule:nonzero;"/>
                <path d="M962.801,563.544C956.188,563.486 951.057,561.433 947.408,557.383C943.76,553.333 941.73,547.981 941.32,541.328C941.183,538.955 941.115,535.918 941.115,532.215C941.115,528.455 941.183,525.359 941.32,522.929C941.548,518.648 942.54,514.873 944.296,511.604C946.052,508.335 948.514,505.76 951.684,503.88C954.854,502 958.56,501.06 962.801,501.06C967.042,501.06 970.748,502 973.918,503.88C977.088,505.76 979.55,508.335 981.306,511.604C983.062,514.873 984.054,518.648 984.282,522.929C984.419,525.359 984.487,528.455 984.487,532.215C984.487,535.918 984.419,538.955 984.282,541.328C983.872,547.981 981.842,553.333 978.194,557.383C974.545,561.433 969.414,563.486 962.801,563.544ZM962.801,546.535C965.081,546.535 966.313,544.654 966.495,540.894C966.586,539.216 966.632,536.294 966.632,532.128C966.632,527.905 966.586,525.012 966.495,523.45C966.313,519.747 965.081,517.867 962.801,517.809C960.521,517.867 959.289,519.747 959.107,523.45C959.016,526.574 958.97,529.467 958.97,532.128C958.97,534.616 959.016,537.538 959.107,540.894C959.289,544.654 960.521,546.535 962.801,546.535Z" style="fill:#fff;fill-rule:nonzero;"/>
                <path d="M1022.87,562.676C1022.36,562.676 1021.93,562.445 1021.57,561.982C1021.2,561.519 1021.02,560.97 1021.02,560.333L1021.02,551.308C1021.02,549.225 1021.59,547.663 1022.73,546.621L1023.48,545.927L1026.08,543.584C1031.19,538.898 1034.96,535.354 1037.4,532.953C1039.84,530.552 1041.75,528.382 1043.12,526.444C1044.48,524.506 1045.17,522.785 1045.17,521.28C1045.17,520.181 1045.02,519.328 1044.72,518.72C1044.43,518.113 1043.75,517.809 1042.7,517.809C1041.84,517.809 1041.15,518.055 1040.65,518.547C1040.15,519.038 1039.82,519.516 1039.66,519.979C1039.5,520.441 1039.26,521.194 1038.94,522.235C1038.71,522.987 1038.37,523.508 1037.92,523.797C1037.46,524.086 1036.89,524.231 1036.21,524.231L1023.35,524.231C1022.93,524.231 1022.58,524.043 1022.28,523.667C1021.99,523.291 1021.84,522.842 1021.84,522.322C1021.89,518.04 1022.82,514.265 1024.64,510.996C1026.47,507.728 1028.94,505.196 1032.07,503.403C1035.19,501.609 1038.71,500.713 1042.64,500.713C1048.93,500.713 1053.91,502.434 1057.59,505.876C1061.26,509.319 1063.09,514.077 1063.09,520.152C1063.09,524.607 1061.87,528.671 1059.43,532.345C1056.99,536.019 1053.29,540.026 1048.32,544.365L1047.84,544.799L1062.27,544.799C1062.77,544.799 1063.21,545.03 1063.57,545.493C1063.94,545.956 1064.12,546.506 1064.12,547.142L1064.12,560.333C1064.12,560.97 1063.94,561.519 1063.57,561.982C1063.21,562.445 1062.77,562.676 1062.27,562.676L1022.87,562.676Z" style="fill:#fff;fill-rule:nonzero;"/>
                <path d="M1102.22,562.676C1101.72,562.676 1101.29,562.445 1100.92,561.982C1100.56,561.519 1100.38,560.97 1100.38,560.333L1100.38,551.308C1100.38,549.225 1100.95,547.663 1102.09,546.621L1102.84,545.927L1105.44,543.584C1110.55,538.898 1114.32,535.354 1116.76,532.953C1119.2,530.552 1121.11,528.382 1122.47,526.444C1123.84,524.506 1124.53,522.785 1124.53,521.28C1124.53,520.181 1124.38,519.328 1124.08,518.72C1123.78,518.113 1123.11,517.809 1122.06,517.809C1121.2,517.809 1120.51,518.055 1120.01,518.547C1119.51,519.038 1119.18,519.516 1119.02,519.979C1118.86,520.441 1118.62,521.194 1118.3,522.235C1118.07,522.987 1117.73,523.508 1117.27,523.797C1116.82,524.086 1116.25,524.231 1115.56,524.231L1102.7,524.231C1102.29,524.231 1101.94,524.043 1101.64,523.667C1101.35,523.291 1101.2,522.842 1101.2,522.322C1101.24,518.04 1102.18,514.265 1104,510.996C1105.83,507.728 1108.3,505.196 1111.42,503.403C1114.55,501.609 1118.07,500.713 1121.99,500.713C1128.29,500.713 1133.27,502.434 1136.94,505.876C1140.61,509.319 1142.45,514.077 1142.45,520.152C1142.45,524.607 1141.23,528.671 1138.79,532.345C1136.35,536.019 1132.64,540.026 1127.67,544.365L1127.19,544.799L1141.63,544.799C1142.13,544.799 1142.56,545.03 1142.93,545.493C1143.29,545.956 1143.48,546.506 1143.48,547.142L1143.48,560.333C1143.48,560.97 1143.29,561.519 1142.93,561.982C1142.56,562.445 1142.13,562.676 1141.63,562.676L1102.22,562.676Z" style="fill:#fff;fill-rule:nonzero;"/>
            </g>
            <g transform="matrix(1.01421,0,0,1.02707,785.633,3.71013)">
                <g transform="matrix(134.484,0,0,134.484,201.204,216.446)">
                    <path d="M0.441,-0.02C0.457,-0.027 0.472,-0.034 0.484,-0.041C0.496,-0.048 0.507,-0.056 0.517,-0.066C0.528,-0.077 0.537,-0.089 0.544,-0.101C0.551,-0.113 0.555,-0.124 0.557,-0.133C0.56,-0.147 0.561,-0.16 0.561,-0.172C0.561,-0.193 0.557,-0.213 0.55,-0.233C0.543,-0.253 0.532,-0.272 0.519,-0.288C0.504,-0.307 0.486,-0.323 0.466,-0.337C0.445,-0.351 0.423,-0.361 0.4,-0.369C0.362,-0.381 0.317,-0.387 0.265,-0.387L0.243,-0.387C0.232,-0.387 0.223,-0.388 0.218,-0.389C0.212,-0.39 0.207,-0.393 0.202,-0.397C0.197,-0.401 0.193,-0.407 0.188,-0.413C0.187,-0.415 0.186,-0.417 0.186,-0.419C0.185,-0.422 0.185,-0.424 0.185,-0.427C0.185,-0.433 0.186,-0.439 0.188,-0.446C0.192,-0.461 0.2,-0.474 0.211,-0.487C0.221,-0.499 0.234,-0.508 0.248,-0.515C0.263,-0.522 0.278,-0.525 0.293,-0.525C0.31,-0.525 0.327,-0.521 0.344,-0.514C0.361,-0.506 0.376,-0.496 0.39,-0.484C0.402,-0.473 0.414,-0.461 0.425,-0.449C0.436,-0.436 0.447,-0.421 0.46,-0.404L0.474,-0.386C0.503,-0.347 0.526,-0.315 0.54,-0.291C0.563,-0.25 0.575,-0.21 0.575,-0.17C0.575,-0.149 0.571,-0.129 0.563,-0.11C0.555,-0.09 0.543,-0.073 0.528,-0.059C0.505,-0.039 0.477,-0.025 0.443,-0.016L0.441,-0.02ZM0.025,-0.161C0.025,-0.186 0.03,-0.209 0.039,-0.23L0.042,-0.23C0.041,-0.218 0.04,-0.212 0.04,-0.21C0.039,-0.196 0.038,-0.187 0.038,-0.185C0.038,-0.159 0.043,-0.135 0.052,-0.113C0.061,-0.09 0.075,-0.072 0.094,-0.057C0.109,-0.045 0.125,-0.036 0.143,-0.03C0.161,-0.023 0.178,-0.02 0.196,-0.02C0.202,-0.02 0.209,-0.021 0.217,-0.022C0.224,-0.024 0.229,-0.025 0.231,-0.025C0.273,-0.033 0.315,-0.058 0.359,-0.102C0.373,-0.116 0.385,-0.13 0.395,-0.146C0.405,-0.161 0.418,-0.182 0.433,-0.207C0.435,-0.211 0.437,-0.215 0.439,-0.219C0.441,-0.222 0.443,-0.225 0.445,-0.228C0.452,-0.24 0.458,-0.249 0.464,-0.255C0.47,-0.261 0.477,-0.264 0.486,-0.264C0.499,-0.264 0.513,-0.255 0.526,-0.236C0.53,-0.23 0.533,-0.226 0.534,-0.223C0.541,-0.202 0.545,-0.184 0.545,-0.169C0.545,-0.144 0.538,-0.121 0.524,-0.101C0.512,-0.083 0.496,-0.068 0.478,-0.057C0.459,-0.045 0.439,-0.036 0.417,-0.031C0.388,-0.024 0.366,-0.02 0.351,-0.018C0.329,-0.015 0.315,-0.013 0.309,-0.012C0.285,-0.008 0.266,-0.005 0.251,-0.003C0.237,-0.001 0.222,-0 0.207,-0C0.17,-0 0.139,-0.006 0.115,-0.019C0.088,-0.033 0.066,-0.053 0.05,-0.079C0.033,-0.104 0.025,-0.131 0.025,-0.161ZM0.055,-0.179C0.055,-0.189 0.056,-0.201 0.058,-0.213C0.06,-0.225 0.061,-0.232 0.062,-0.235C0.066,-0.26 0.072,-0.285 0.081,-0.31C0.09,-0.335 0.101,-0.361 0.114,-0.389C0.127,-0.417 0.139,-0.442 0.152,-0.462C0.164,-0.482 0.178,-0.499 0.194,-0.514C0.208,-0.526 0.223,-0.536 0.24,-0.542C0.257,-0.549 0.274,-0.552 0.292,-0.552C0.3,-0.552 0.306,-0.552 0.311,-0.551C0.342,-0.547 0.372,-0.53 0.401,-0.502L0.399,-0.498C0.38,-0.514 0.36,-0.525 0.34,-0.532C0.326,-0.537 0.311,-0.539 0.296,-0.539C0.28,-0.539 0.265,-0.536 0.25,-0.531C0.234,-0.525 0.22,-0.517 0.207,-0.506C0.192,-0.494 0.18,-0.478 0.171,-0.46C0.161,-0.442 0.153,-0.42 0.146,-0.395C0.142,-0.381 0.14,-0.363 0.14,-0.341C0.14,-0.31 0.145,-0.278 0.155,-0.246C0.164,-0.214 0.178,-0.183 0.195,-0.153C0.196,-0.151 0.199,-0.146 0.204,-0.138C0.209,-0.129 0.213,-0.12 0.215,-0.112C0.217,-0.105 0.218,-0.098 0.218,-0.092C0.218,-0.082 0.216,-0.074 0.212,-0.067C0.205,-0.056 0.193,-0.049 0.176,-0.045C0.174,-0.045 0.172,-0.044 0.169,-0.043C0.166,-0.042 0.163,-0.042 0.161,-0.042C0.149,-0.042 0.137,-0.045 0.126,-0.05C0.114,-0.055 0.104,-0.062 0.095,-0.071C0.077,-0.089 0.065,-0.115 0.059,-0.148C0.056,-0.163 0.055,-0.173 0.055,-0.179Z" style="fill:#fff;fill-rule:nonzero;"/>
                </g>
            </g>
        </g>
    </g>
</svg>
