<?xml version="1.0" encoding="UTF-8"?>
<svg xmlns="http://www.w3.org/2000/svg" xmlns:xlink="http://www.w3.org/1999/xlink" width="500pt" height="500pt" viewBox="0 0 500 500" version="1.1">
<defs>
<clipPath id="clip1">
  <path d="M 121 169 L 439 169 L 439 357 L 121 357 Z M 121 169 "/>
</clipPath>
<clipPath id="clip2">
  <path d="M 324.515625 215.761719 C 323.191406 213.292969 322.5 210.535156 322.5 207.734375 L 322.5 93 C 322.5 83.609375 314.890625 76 305.5 76 L 254.5 76 C 245.109375 76 237.5 83.609375 237.5 93 L 237.5 207.734375 C 237.5 210.535156 236.808594 213.292969 235.484375 215.761719 L 123.40625 424.972656 C 120.585938 430.242188 120.738281 436.605469 123.808594 441.734375 C 126.878906 446.859375 132.414062 450 138.394531 450 L 421.605469 450 C 427.585938 450 433.121094 446.859375 436.191406 441.734375 C 439.261719 436.605469 439.414062 430.242188 436.59375 424.972656 L 324.515625 215.761719 "/>
</clipPath>
<clipPath id="clip3">
  <path d="M 121 263 L 439 263 L 439 450 L 121 450 Z M 121 263 "/>
</clipPath>
<clipPath id="clip4">
  <path d="M 324.515625 215.761719 C 323.191406 213.292969 322.5 210.535156 322.5 207.734375 L 322.5 93 C 322.5 83.609375 314.890625 76 305.5 76 L 254.5 76 C 245.109375 76 237.5 83.609375 237.5 93 L 237.5 207.734375 C 237.5 210.535156 236.808594 213.292969 235.484375 215.761719 L 123.40625 424.972656 C 120.585938 430.242188 120.738281 436.605469 123.808594 441.734375 C 126.878906 446.859375 132.414062 450 138.394531 450 L 421.605469 450 C 427.585938 450 433.121094 446.859375 436.191406 441.734375 C 439.261719 436.605469 439.414062 430.242188 436.59375 424.972656 L 324.515625 215.761719 "/>
</clipPath>
<clipPath id="clip5">
  <path d="M 121 356 L 439 356 L 439 450 L 121 450 Z M 121 356 "/>
</clipPath>
<clipPath id="clip6">
  <path d="M 324.515625 215.761719 C 323.191406 213.292969 322.5 210.535156 322.5 207.734375 L 322.5 93 C 322.5 83.609375 314.890625 76 305.5 76 L 254.5 76 C 245.109375 76 237.5 83.609375 237.5 93 L 237.5 207.734375 C 237.5 210.535156 236.808594 213.292969 235.484375 215.761719 L 123.40625 424.972656 C 120.585938 430.242188 120.738281 436.605469 123.808594 441.734375 C 126.878906 446.859375 132.414062 450 138.394531 450 L 421.605469 450 C 427.585938 450 433.121094 446.859375 436.191406 441.734375 C 439.261719 436.605469 439.414062 430.242188 436.59375 424.972656 L 324.515625 215.761719 "/>
</clipPath>
<clipPath id="clip7">
  <path d="M 228 227 L 242 227 L 242 242 L 228 242 Z M 228 227 "/>
</clipPath>
<clipPath id="clip8">
  <path d="M 324.515625 215.761719 C 323.191406 213.292969 322.5 210.535156 322.5 207.734375 L 322.5 93 C 322.5 83.609375 314.890625 76 305.5 76 L 254.5 76 C 245.109375 76 237.5 83.609375 237.5 93 L 237.5 207.734375 C 237.5 210.535156 236.808594 213.292969 235.484375 215.761719 L 123.40625 424.972656 C 120.585938 430.242188 120.738281 436.605469 123.808594 441.734375 C 126.878906 446.859375 132.414062 450 138.394531 450 L 421.605469 450 C 427.585938 450 433.121094 446.859375 436.191406 441.734375 C 439.261719 436.605469 439.414062 430.242188 436.59375 424.972656 L 324.515625 215.761719 "/>
</clipPath>
<clipPath id="clip9">
  <path d="M 241 164 L 255 164 L 255 178 L 241 178 Z M 241 164 "/>
</clipPath>
<clipPath id="clip10">
  <path d="M 324.515625 215.761719 C 323.191406 213.292969 322.5 210.535156 322.5 207.734375 L 322.5 93 C 322.5 83.609375 314.890625 76 305.5 76 L 254.5 76 C 245.109375 76 237.5 83.609375 237.5 93 L 237.5 207.734375 C 237.5 210.535156 236.808594 213.292969 235.484375 215.761719 L 123.40625 424.972656 C 120.585938 430.242188 120.738281 436.605469 123.808594 441.734375 C 126.878906 446.859375 132.414062 450 138.394531 450 L 421.605469 450 C 427.585938 450 433.121094 446.859375 436.191406 441.734375 C 439.261719 436.605469 439.414062 430.242188 436.59375 424.972656 L 324.515625 215.761719 "/>
</clipPath>
<clipPath id="clip11">
  <path d="M 271 202 L 285 202 L 285 216 L 271 216 Z M 271 202 "/>
</clipPath>
<clipPath id="clip12">
  <path d="M 324.515625 215.761719 C 323.191406 213.292969 322.5 210.535156 322.5 207.734375 L 322.5 93 C 322.5 83.609375 314.890625 76 305.5 76 L 254.5 76 C 245.109375 76 237.5 83.609375 237.5 93 L 237.5 207.734375 C 237.5 210.535156 236.808594 213.292969 235.484375 215.761719 L 123.40625 424.972656 C 120.585938 430.242188 120.738281 436.605469 123.808594 441.734375 C 126.878906 446.859375 132.414062 450 138.394531 450 L 421.605469 450 C 427.585938 450 433.121094 446.859375 436.191406 441.734375 C 439.261719 436.605469 439.414062 430.242188 436.59375 424.972656 L 324.515625 215.761719 "/>
</clipPath>
<clipPath id="clip13">
  <path d="M 350 349 L 364 349 L 364 364 L 350 364 Z M 350 349 "/>
</clipPath>
<clipPath id="clip14">
  <path d="M 324.515625 215.761719 C 323.191406 213.292969 322.5 210.535156 322.5 207.734375 L 322.5 93 C 322.5 83.609375 314.890625 76 305.5 76 L 254.5 76 C 245.109375 76 237.5 83.609375 237.5 93 L 237.5 207.734375 C 237.5 210.535156 236.808594 213.292969 235.484375 215.761719 L 123.40625 424.972656 C 120.585938 430.242188 120.738281 436.605469 123.808594 441.734375 C 126.878906 446.859375 132.414062 450 138.394531 450 L 421.605469 450 C 427.585938 450 433.121094 446.859375 436.191406 441.734375 C 439.261719 436.605469 439.414062 430.242188 436.59375 424.972656 L 324.515625 215.761719 "/>
</clipPath>
<clipPath id="clip15">
  <path d="M 230 347 L 245 347 L 245 361 L 230 361 Z M 230 347 "/>
</clipPath>
<clipPath id="clip16">
  <path d="M 324.515625 215.761719 C 323.191406 213.292969 322.5 210.535156 322.5 207.734375 L 322.5 93 C 322.5 83.609375 314.890625 76 305.5 76 L 254.5 76 C 245.109375 76 237.5 83.609375 237.5 93 L 237.5 207.734375 C 237.5 210.535156 236.808594 213.292969 235.484375 215.761719 L 123.40625 424.972656 C 120.585938 430.242188 120.738281 436.605469 123.808594 441.734375 C 126.878906 446.859375 132.414062 450 138.394531 450 L 421.605469 450 C 427.585938 450 433.121094 446.859375 436.191406 441.734375 C 439.261719 436.605469 439.414062 430.242188 436.59375 424.972656 L 324.515625 215.761719 "/>
</clipPath>
<clipPath id="clip17">
  <path d="M 282 244 L 297 244 L 297 259 L 282 259 Z M 282 244 "/>
</clipPath>
<clipPath id="clip18">
  <path d="M 324.515625 215.761719 C 323.191406 213.292969 322.5 210.535156 322.5 207.734375 L 322.5 93 C 322.5 83.609375 314.890625 76 305.5 76 L 254.5 76 C 245.109375 76 237.5 83.609375 237.5 93 L 237.5 207.734375 C 237.5 210.535156 236.808594 213.292969 235.484375 215.761719 L 123.40625 424.972656 C 120.585938 430.242188 120.738281 436.605469 123.808594 441.734375 C 126.878906 446.859375 132.414062 450 138.394531 450 L 421.605469 450 C 427.585938 450 433.121094 446.859375 436.191406 441.734375 C 439.261719 436.605469 439.414062 430.242188 436.59375 424.972656 L 324.515625 215.761719 "/>
</clipPath>
<clipPath id="clip19">
  <path d="M 260 307 L 275 307 L 275 321 L 260 321 Z M 260 307 "/>
</clipPath>
<clipPath id="clip20">
  <path d="M 324.515625 215.761719 C 323.191406 213.292969 322.5 210.535156 322.5 207.734375 L 322.5 93 C 322.5 83.609375 314.890625 76 305.5 76 L 254.5 76 C 245.109375 76 237.5 83.609375 237.5 93 L 237.5 207.734375 C 237.5 210.535156 236.808594 213.292969 235.484375 215.761719 L 123.40625 424.972656 C 120.585938 430.242188 120.738281 436.605469 123.808594 441.734375 C 126.878906 446.859375 132.414062 450 138.394531 450 L 421.605469 450 C 427.585938 450 433.121094 446.859375 436.191406 441.734375 C 439.261719 436.605469 439.414062 430.242188 436.59375 424.972656 L 324.515625 215.761719 "/>
</clipPath>
<clipPath id="clip21">
  <path d="M 236 201 L 250 201 L 250 216 L 236 216 Z M 236 201 "/>
</clipPath>
<clipPath id="clip22">
  <path d="M 324.515625 215.761719 C 323.191406 213.292969 322.5 210.535156 322.5 207.734375 L 322.5 93 C 322.5 83.609375 314.890625 76 305.5 76 L 254.5 76 C 245.109375 76 237.5 83.609375 237.5 93 L 237.5 207.734375 C 237.5 210.535156 236.808594 213.292969 235.484375 215.761719 L 123.40625 424.972656 C 120.585938 430.242188 120.738281 436.605469 123.808594 441.734375 C 126.878906 446.859375 132.414062 450 138.394531 450 L 421.605469 450 C 427.585938 450 433.121094 446.859375 436.191406 441.734375 C 439.261719 436.605469 439.414062 430.242188 436.59375 424.972656 L 324.515625 215.761719 "/>
</clipPath>
<clipPath id="clip23">
  <path d="M 230 166 L 245 166 L 245 181 L 230 181 Z M 230 166 "/>
</clipPath>
<clipPath id="clip24">
  <path d="M 324.515625 215.761719 C 323.191406 213.292969 322.5 210.535156 322.5 207.734375 L 322.5 93 C 322.5 83.609375 314.890625 76 305.5 76 L 254.5 76 C 245.109375 76 237.5 83.609375 237.5 93 L 237.5 207.734375 C 237.5 210.535156 236.808594 213.292969 235.484375 215.761719 L 123.40625 424.972656 C 120.585938 430.242188 120.738281 436.605469 123.808594 441.734375 C 126.878906 446.859375 132.414062 450 138.394531 450 L 421.605469 450 C 427.585938 450 433.121094 446.859375 436.191406 441.734375 C 439.261719 436.605469 439.414062 430.242188 436.59375 424.972656 L 324.515625 215.761719 "/>
</clipPath>
<clipPath id="clip25">
  <path d="M 237 323 L 251 323 L 251 338 L 237 338 Z M 237 323 "/>
</clipPath>
<clipPath id="clip26">
  <path d="M 324.515625 215.761719 C 323.191406 213.292969 322.5 210.535156 322.5 207.734375 L 322.5 93 C 322.5 83.609375 314.890625 76 305.5 76 L 254.5 76 C 245.109375 76 237.5 83.609375 237.5 93 L 237.5 207.734375 C 237.5 210.535156 236.808594 213.292969 235.484375 215.761719 L 123.40625 424.972656 C 120.585938 430.242188 120.738281 436.605469 123.808594 441.734375 C 126.878906 446.859375 132.414062 450 138.394531 450 L 421.605469 450 C 427.585938 450 433.121094 446.859375 436.191406 441.734375 C 439.261719 436.605469 439.414062 430.242188 436.59375 424.972656 L 324.515625 215.761719 "/>
</clipPath>
<clipPath id="clip27">
  <path d="M 201 282 L 215 282 L 215 297 L 201 297 Z M 201 282 "/>
</clipPath>
<clipPath id="clip28">
  <path d="M 324.515625 215.761719 C 323.191406 213.292969 322.5 210.535156 322.5 207.734375 L 322.5 93 C 322.5 83.609375 314.890625 76 305.5 76 L 254.5 76 C 245.109375 76 237.5 83.609375 237.5 93 L 237.5 207.734375 C 237.5 210.535156 236.808594 213.292969 235.484375 215.761719 L 123.40625 424.972656 C 120.585938 430.242188 120.738281 436.605469 123.808594 441.734375 C 126.878906 446.859375 132.414062 450 138.394531 450 L 421.605469 450 C 427.585938 450 433.121094 446.859375 436.191406 441.734375 C 439.261719 436.605469 439.414062 430.242188 436.59375 424.972656 L 324.515625 215.761719 "/>
</clipPath>
<clipPath id="clip29">
  <path d="M 336 214 L 351 214 L 351 229 L 336 229 Z M 336 214 "/>
</clipPath>
<clipPath id="clip30">
  <path d="M 324.515625 215.761719 C 323.191406 213.292969 322.5 210.535156 322.5 207.734375 L 322.5 93 C 322.5 83.609375 314.890625 76 305.5 76 L 254.5 76 C 245.109375 76 237.5 83.609375 237.5 93 L 237.5 207.734375 C 237.5 210.535156 236.808594 213.292969 235.484375 215.761719 L 123.40625 424.972656 C 120.585938 430.242188 120.738281 436.605469 123.808594 441.734375 C 126.878906 446.859375 132.414062 450 138.394531 450 L 421.605469 450 C 427.585938 450 433.121094 446.859375 436.191406 441.734375 C 439.261719 436.605469 439.414062 430.242188 436.59375 424.972656 L 324.515625 215.761719 "/>
</clipPath>
<clipPath id="clip31">
  <path d="M 315 283 L 330 283 L 330 297 L 315 297 Z M 315 283 "/>
</clipPath>
<clipPath id="clip32">
  <path d="M 324.515625 215.761719 C 323.191406 213.292969 322.5 210.535156 322.5 207.734375 L 322.5 93 C 322.5 83.609375 314.890625 76 305.5 76 L 254.5 76 C 245.109375 76 237.5 83.609375 237.5 93 L 237.5 207.734375 C 237.5 210.535156 236.808594 213.292969 235.484375 215.761719 L 123.40625 424.972656 C 120.585938 430.242188 120.738281 436.605469 123.808594 441.734375 C 126.878906 446.859375 132.414062 450 138.394531 450 L 421.605469 450 C 427.585938 450 433.121094 446.859375 436.191406 441.734375 C 439.261719 436.605469 439.414062 430.242188 436.59375 424.972656 L 324.515625 215.761719 "/>
</clipPath>
<clipPath id="clip33">
  <path d="M 201 321 L 216 321 L 216 335 L 201 335 Z M 201 321 "/>
</clipPath>
<clipPath id="clip34">
  <path d="M 324.515625 215.761719 C 323.191406 213.292969 322.5 210.535156 322.5 207.734375 L 322.5 93 C 322.5 83.609375 314.890625 76 305.5 76 L 254.5 76 C 245.109375 76 237.5 83.609375 237.5 93 L 237.5 207.734375 C 237.5 210.535156 236.808594 213.292969 235.484375 215.761719 L 123.40625 424.972656 C 120.585938 430.242188 120.738281 436.605469 123.808594 441.734375 C 126.878906 446.859375 132.414062 450 138.394531 450 L 421.605469 450 C 427.585938 450 433.121094 446.859375 436.191406 441.734375 C 439.261719 436.605469 439.414062 430.242188 436.59375 424.972656 L 324.515625 215.761719 "/>
</clipPath>
<clipPath id="clip35">
  <path d="M 202 266 L 217 266 L 217 280 L 202 280 Z M 202 266 "/>
</clipPath>
<clipPath id="clip36">
  <path d="M 324.515625 215.761719 C 323.191406 213.292969 322.5 210.535156 322.5 207.734375 L 322.5 93 C 322.5 83.609375 314.890625 76 305.5 76 L 254.5 76 C 245.109375 76 237.5 83.609375 237.5 93 L 237.5 207.734375 C 237.5 210.535156 236.808594 213.292969 235.484375 215.761719 L 123.40625 424.972656 C 120.585938 430.242188 120.738281 436.605469 123.808594 441.734375 C 126.878906 446.859375 132.414062 450 138.394531 450 L 421.605469 450 C 427.585938 450 433.121094 446.859375 436.191406 441.734375 C 439.261719 436.605469 439.414062 430.242188 436.59375 424.972656 L 324.515625 215.761719 "/>
</clipPath>
</defs>
<g id="surface588">
<path style=" stroke:none;fill-rule:nonzero;fill:rgb(98.039216%,92.156863%,84.313725%);fill-opacity:1;" d="M 490 250 L 489.925781 436.070312 L 489.703125 449.363281 L 489.328125 457.503906 L 488.796875 463.40625 L 488.105469 468.019531 L 487.246094 471.777344 L 486.203125 474.914062 L 484.96875 477.578125 L 483.515625 479.859375 L 481.824219 481.824219 L 479.859375 483.515625 L 477.578125 484.96875 L 474.914062 486.203125 L 471.777344 487.246094 L 468.019531 488.105469 L 463.40625 488.796875 L 457.503906 489.328125 L 449.363281 489.703125 L 436.070312 489.925781 L 255.738281 490 L 63.929688 489.925781 L 50.636719 489.703125 L 42.496094 489.328125 L 36.59375 488.796875 L 31.980469 488.105469 L 28.222656 487.246094 L 25.085938 486.203125 L 22.421875 484.96875 L 20.140625 483.515625 L 18.175781 481.824219 L 16.484375 479.859375 L 15.03125 477.578125 L 13.796875 474.914062 L 12.753906 471.777344 L 11.894531 468.019531 L 11.203125 463.40625 L 10.671875 457.503906 L 10.296875 449.363281 L 10.074219 436.070312 L 10 256.152344 L 10.074219 63.929688 L 10.296875 50.636719 L 10.671875 42.496094 L 11.203125 36.59375 L 11.894531 31.980469 L 12.753906 28.222656 L 13.796875 25.085938 L 15.03125 22.421875 L 16.484375 20.140625 L 18.175781 18.175781 L 20.140625 16.484375 L 22.421875 15.03125 L 25.085938 13.796875 L 28.222656 12.753906 L 31.980469 11.894531 L 36.59375 11.203125 L 42.496094 10.671875 L 50.636719 10.296875 L 63.929688 10.074219 L 243.59375 10 L 436.070312 10.074219 L 449.363281 10.296875 L 457.503906 10.671875 L 463.40625 11.203125 L 468.019531 11.894531 L 471.777344 12.753906 L 474.914062 13.796875 L 477.578125 15.03125 L 479.859375 16.484375 L 481.824219 18.175781 L 483.515625 20.140625 L 484.96875 22.421875 L 486.203125 25.085938 L 487.246094 28.222656 L 488.105469 31.980469 L 488.796875 36.59375 L 489.328125 42.496094 L 489.703125 50.636719 L 489.925781 63.929688 L 490 243.40625 Z M 490 250 "/>
<path style=" stroke:none;fill-rule:nonzero;fill:rgb(100%,73.333333%,100%);fill-opacity:1;" d="M 450 250 C 450 360.457031 360.457031 450 250 450 C 139.542969 450 50 360.457031 50 250 C 50 139.542969 139.542969 50 250 50 C 360.457031 50 450 139.542969 450 250 "/>
<path style="fill:none;stroke-width:0.5;stroke-linecap:butt;stroke-linejoin:miter;stroke:rgb(70.196078%,70.196078%,70.196078%);stroke-opacity:0.98;stroke-miterlimit:10;" d="M 47.574219 158 L 62.429688 158 L 62.429688 172.855469 L 47.574219 172.855469 Z M 47.574219 158 "/>
<path style=" stroke:none;fill-rule:nonzero;fill:rgb(79.6%,23.5%,20%);fill-opacity:0.98;" d="M 57.402344 165.429688 C 57.402344 168.628906 52.605469 168.628906 52.605469 165.429688 C 52.605469 162.230469 57.402344 162.230469 57.402344 165.429688 "/>
<path style="fill:none;stroke-width:0.5;stroke-linecap:butt;stroke-linejoin:miter;stroke:rgb(70.196078%,70.196078%,70.196078%);stroke-opacity:0.98;stroke-miterlimit:10;" d="M 62.433594 158 L 77.289062 158 L 77.289062 172.855469 L 62.433594 172.855469 Z M 62.433594 158 "/>
<path style=" stroke:none;fill-rule:nonzero;fill:rgb(58.4%,34.5%,69.8%);fill-opacity:0.98;" d="M 72.261719 165.429688 C 72.261719 168.628906 67.460938 168.628906 67.460938 165.429688 C 67.460938 162.230469 72.261719 162.230469 72.261719 165.429688 "/>
<path style="fill:none;stroke-width:0.5;stroke-linecap:butt;stroke-linejoin:miter;stroke:rgb(70.196078%,70.196078%,70.196078%);stroke-opacity:0.98;stroke-miterlimit:10;" d="M 77.289062 158 L 92.144531 158 L 92.144531 172.855469 L 77.289062 172.855469 Z M 77.289062 158 "/>
<path style=" stroke:none;fill-rule:nonzero;fill:rgb(22%,59.6%,14.9%);fill-opacity:0.98;" d="M 87.117188 165.429688 C 87.117188 168.628906 82.316406 168.628906 82.316406 165.429688 C 82.316406 162.230469 87.117188 162.230469 87.117188 165.429688 "/>
<path style="fill:none;stroke-width:0.5;stroke-linecap:butt;stroke-linejoin:miter;stroke:rgb(70.196078%,70.196078%,70.196078%);stroke-opacity:0.98;stroke-miterlimit:10;" d="M 92.148438 158 L 107.003906 158 L 107.003906 172.855469 L 92.148438 172.855469 Z M 92.148438 158 "/>
<path style=" stroke:none;fill-rule:nonzero;fill:rgb(79.6%,23.5%,20%);fill-opacity:0.98;" d="M 101.976562 165.429688 C 101.976562 168.628906 97.175781 168.628906 97.175781 165.429688 C 97.175781 162.230469 101.976562 162.230469 101.976562 165.429688 "/>
<path style="fill:none;stroke-width:0.5;stroke-linecap:butt;stroke-linejoin:miter;stroke:rgb(70.196078%,70.196078%,70.196078%);stroke-opacity:0.98;stroke-miterlimit:10;" d="M 107.003906 158 L 121.859375 158 L 121.859375 172.855469 L 107.003906 172.855469 Z M 107.003906 158 "/>
<path style=" stroke:none;fill-rule:nonzero;fill:rgb(58.4%,34.5%,69.8%);fill-opacity:0.98;" d="M 116.832031 165.429688 C 116.832031 168.628906 112.03125 168.628906 112.03125 165.429688 C 112.03125 162.230469 116.832031 162.230469 116.832031 165.429688 "/>
<path style="fill:none;stroke-width:0.5;stroke-linecap:butt;stroke-linejoin:miter;stroke:rgb(70.196078%,70.196078%,70.196078%);stroke-opacity:0.98;stroke-miterlimit:10;" d="M 121.859375 158 L 136.714844 158 L 136.714844 172.855469 L 121.859375 172.855469 Z M 121.859375 158 "/>
<path style=" stroke:none;fill-rule:nonzero;fill:rgb(22%,59.6%,14.9%);fill-opacity:0.98;" d="M 131.6875 165.429688 C 131.6875 168.628906 126.890625 168.628906 126.890625 165.429688 C 126.890625 162.230469 131.6875 162.230469 131.6875 165.429688 "/>
<path style="fill:none;stroke-width:0.5;stroke-linecap:butt;stroke-linejoin:miter;stroke:rgb(70.196078%,70.196078%,70.196078%);stroke-opacity:0.98;stroke-miterlimit:10;" d="M 32.71875 172.855469 L 47.574219 172.855469 L 47.574219 187.710938 L 32.71875 187.710938 Z M 32.71875 172.855469 "/>
<path style=" stroke:none;fill-rule:nonzero;fill:rgb(70.196078%,70.196078%,70.196078%);fill-opacity:0.98;" d="M 37.746094 178.6875 L 42.546875 178.6875 L 42.546875 181.886719 L 37.746094 181.886719 Z M 37.746094 178.6875 "/>
<path style="fill:none;stroke-width:0.5;stroke-linecap:butt;stroke-linejoin:miter;stroke:rgb(0%,0%,0%);stroke-opacity:0.98;stroke-miterlimit:10;" d="M 48.375 173.65625 L 61.632812 173.65625 L 61.632812 186.914062 L 48.375 186.914062 Z M 48.375 173.65625 "/>
<path style=" stroke:none;fill-rule:nonzero;fill:rgb(79.6%,23.5%,20%);fill-opacity:0.98;" d="M 49.976562 175.257812 L 60.035156 175.257812 L 60.035156 185.316406 L 49.976562 185.316406 Z M 49.976562 175.257812 "/>
<path style="fill:none;stroke-width:0.5;stroke-linecap:butt;stroke-linejoin:miter;stroke:rgb(0%,0%,0%);stroke-opacity:0.98;stroke-miterlimit:10;" d="M 63.230469 173.65625 L 76.488281 173.65625 L 76.488281 186.914062 L 63.230469 186.914062 Z M 63.230469 173.65625 "/>
<path style=" stroke:none;fill-rule:nonzero;fill:rgb(58.4%,34.5%,69.8%);fill-opacity:0.98;" d="M 64.832031 175.257812 L 74.890625 175.257812 L 74.890625 185.316406 L 64.832031 185.316406 Z M 64.832031 175.257812 "/>
<path style="fill:none;stroke-width:0.5;stroke-linecap:butt;stroke-linejoin:miter;stroke:rgb(0%,0%,0%);stroke-opacity:0.98;stroke-miterlimit:10;" d="M 78.089844 173.65625 L 91.347656 173.65625 L 91.347656 186.914062 L 78.089844 186.914062 Z M 78.089844 173.65625 "/>
<path style=" stroke:none;fill-rule:nonzero;fill:rgb(22%,59.6%,14.9%);fill-opacity:0.98;" d="M 79.6875 175.257812 L 89.746094 175.257812 L 89.746094 185.316406 L 79.6875 185.316406 Z M 79.6875 175.257812 "/>
<path style="fill:none;stroke-width:0.5;stroke-linecap:butt;stroke-linejoin:miter;stroke:rgb(0%,0%,0%);stroke-opacity:0.98;stroke-miterlimit:10;" d="M 92.945312 173.65625 L 106.203125 173.65625 L 106.203125 186.914062 L 92.945312 186.914062 Z M 92.945312 173.65625 "/>
<path style=" stroke:none;fill-rule:nonzero;fill:rgb(79.6%,23.5%,20%);fill-opacity:0.98;" d="M 94.546875 175.257812 L 104.605469 175.257812 L 104.605469 185.316406 L 94.546875 185.316406 Z M 94.546875 175.257812 "/>
<path style="fill:none;stroke-width:0.5;stroke-linecap:butt;stroke-linejoin:miter;stroke:rgb(0%,0%,0%);stroke-opacity:0.98;stroke-miterlimit:10;" d="M 107.804688 173.65625 L 121.0625 173.65625 L 121.0625 186.914062 L 107.804688 186.914062 Z M 107.804688 173.65625 "/>
<path style=" stroke:none;fill-rule:nonzero;fill:rgb(58.4%,34.5%,69.8%);fill-opacity:0.98;" d="M 109.402344 175.257812 L 119.460938 175.257812 L 119.460938 185.316406 L 109.402344 185.316406 Z M 109.402344 175.257812 "/>
<path style="fill:none;stroke-width:0.5;stroke-linecap:butt;stroke-linejoin:miter;stroke:rgb(0%,0%,0%);stroke-opacity:0.98;stroke-miterlimit:10;" d="M 122.660156 173.65625 L 135.917969 173.65625 L 135.917969 186.914062 L 122.660156 186.914062 Z M 122.660156 173.65625 "/>
<path style=" stroke:none;fill-rule:nonzero;fill:rgb(22%,59.6%,14.9%);fill-opacity:0.98;" d="M 124.261719 175.257812 L 134.320312 175.257812 L 134.320312 185.316406 L 124.261719 185.316406 Z M 124.261719 175.257812 "/>
<path style="fill:none;stroke-width:0.5;stroke-linecap:butt;stroke-linejoin:miter;stroke:rgb(70.196078%,70.196078%,70.196078%);stroke-opacity:0.98;stroke-miterlimit:10;" d="M 32.71875 187.714844 L 47.574219 187.714844 L 47.574219 202.570312 L 32.71875 202.570312 Z M 32.71875 187.714844 "/>
<path style=" stroke:none;fill-rule:nonzero;fill:rgb(70.196078%,70.196078%,70.196078%);fill-opacity:0.98;" d="M 37.746094 193.542969 L 42.546875 193.542969 L 42.546875 196.742188 L 37.746094 196.742188 Z M 37.746094 193.542969 "/>
<path style="fill:none;stroke-width:0.5;stroke-linecap:butt;stroke-linejoin:miter;stroke:rgb(0%,0%,0%);stroke-opacity:0.98;stroke-miterlimit:10;" d="M 48.375 188.515625 L 61.632812 188.515625 L 61.632812 201.773438 L 48.375 201.773438 Z M 48.375 188.515625 "/>
<path style=" stroke:none;fill-rule:nonzero;fill:rgb(79.6%,23.5%,20%);fill-opacity:0.98;" d="M 49.976562 190.113281 L 60.035156 190.113281 L 60.035156 200.171875 L 49.976562 200.171875 Z M 49.976562 190.113281 "/>
<path style="fill:none;stroke-width:0.5;stroke-linecap:butt;stroke-linejoin:miter;stroke:rgb(0%,0%,0%);stroke-opacity:0.98;stroke-miterlimit:10;" d="M 63.230469 188.515625 L 76.488281 188.515625 L 76.488281 201.773438 L 63.230469 201.773438 Z M 63.230469 188.515625 "/>
<path style=" stroke:none;fill-rule:nonzero;fill:rgb(58.4%,34.5%,69.8%);fill-opacity:0.98;" d="M 64.832031 190.113281 L 74.890625 190.113281 L 74.890625 200.171875 L 64.832031 200.171875 Z M 64.832031 190.113281 "/>
<path style="fill:none;stroke-width:0.5;stroke-linecap:butt;stroke-linejoin:miter;stroke:rgb(0%,0%,0%);stroke-opacity:0.98;stroke-miterlimit:10;" d="M 78.089844 188.515625 L 91.347656 188.515625 L 91.347656 201.773438 L 78.089844 201.773438 Z M 78.089844 188.515625 "/>
<path style=" stroke:none;fill-rule:nonzero;fill:rgb(22%,59.6%,14.9%);fill-opacity:0.98;" d="M 79.6875 190.113281 L 89.746094 190.113281 L 89.746094 200.171875 L 79.6875 200.171875 Z M 79.6875 190.113281 "/>
<path style="fill:none;stroke-width:0.5;stroke-linecap:butt;stroke-linejoin:miter;stroke:rgb(0%,0%,0%);stroke-opacity:0.98;stroke-miterlimit:10;" d="M 92.945312 188.515625 L 106.203125 188.515625 L 106.203125 201.773438 L 92.945312 201.773438 Z M 92.945312 188.515625 "/>
<path style=" stroke:none;fill-rule:nonzero;fill:rgb(79.6%,23.5%,20%);fill-opacity:0.98;" d="M 94.546875 190.113281 L 104.605469 190.113281 L 104.605469 200.171875 L 94.546875 200.171875 Z M 94.546875 190.113281 "/>
<path style="fill:none;stroke-width:0.5;stroke-linecap:butt;stroke-linejoin:miter;stroke:rgb(0%,0%,0%);stroke-opacity:0.98;stroke-miterlimit:10;" d="M 107.804688 188.515625 L 121.0625 188.515625 L 121.0625 201.773438 L 107.804688 201.773438 Z M 107.804688 188.515625 "/>
<path style=" stroke:none;fill-rule:nonzero;fill:rgb(58.4%,34.5%,69.8%);fill-opacity:0.98;" d="M 109.402344 190.113281 L 119.460938 190.113281 L 119.460938 200.171875 L 109.402344 200.171875 Z M 109.402344 190.113281 "/>
<path style="fill:none;stroke-width:0.5;stroke-linecap:butt;stroke-linejoin:miter;stroke:rgb(0%,0%,0%);stroke-opacity:0.98;stroke-miterlimit:10;" d="M 122.660156 188.515625 L 135.917969 188.515625 L 135.917969 201.773438 L 122.660156 201.773438 Z M 122.660156 188.515625 "/>
<path style=" stroke:none;fill-rule:nonzero;fill:rgb(22%,59.6%,14.9%);fill-opacity:0.98;" d="M 124.261719 190.113281 L 134.320312 190.113281 L 134.320312 200.171875 L 124.261719 200.171875 Z M 124.261719 190.113281 "/>
<path style="fill:none;stroke-width:0.5;stroke-linecap:butt;stroke-linejoin:miter;stroke:rgb(70.196078%,70.196078%,70.196078%);stroke-opacity:0.98;stroke-miterlimit:10;" d="M 32.71875 202.570312 L 47.574219 202.570312 L 47.574219 217.425781 L 32.71875 217.425781 Z M 32.71875 202.570312 "/>
<path style=" stroke:none;fill-rule:nonzero;fill:rgb(70.196078%,70.196078%,70.196078%);fill-opacity:0.98;" d="M 37.746094 208.398438 L 42.546875 208.398438 L 42.546875 211.597656 L 37.746094 211.597656 Z M 37.746094 208.398438 "/>
<path style="fill:none;stroke-width:0.5;stroke-linecap:butt;stroke-linejoin:miter;stroke:rgb(0%,0%,0%);stroke-opacity:0.98;stroke-miterlimit:10;" d="M 48.375 203.371094 L 61.632812 203.371094 L 61.632812 216.628906 L 48.375 216.628906 Z M 48.375 203.371094 "/>
<path style=" stroke:none;fill-rule:nonzero;fill:rgb(79.6%,23.5%,20%);fill-opacity:0.98;" d="M 49.976562 204.972656 L 60.035156 204.972656 L 60.035156 215.03125 L 49.976562 215.03125 Z M 49.976562 204.972656 "/>
<path style="fill:none;stroke-width:0.5;stroke-linecap:butt;stroke-linejoin:miter;stroke:rgb(0%,0%,0%);stroke-opacity:0.98;stroke-miterlimit:10;" d="M 63.230469 203.371094 L 76.488281 203.371094 L 76.488281 216.628906 L 63.230469 216.628906 Z M 63.230469 203.371094 "/>
<path style=" stroke:none;fill-rule:nonzero;fill:rgb(58.4%,34.5%,69.8%);fill-opacity:0.98;" d="M 64.832031 204.972656 L 74.890625 204.972656 L 74.890625 215.03125 L 64.832031 215.03125 Z M 64.832031 204.972656 "/>
<path style="fill:none;stroke-width:0.5;stroke-linecap:butt;stroke-linejoin:miter;stroke:rgb(0%,0%,0%);stroke-opacity:0.98;stroke-miterlimit:10;" d="M 78.089844 203.371094 L 91.347656 203.371094 L 91.347656 216.628906 L 78.089844 216.628906 Z M 78.089844 203.371094 "/>
<path style=" stroke:none;fill-rule:nonzero;fill:rgb(22%,59.6%,14.9%);fill-opacity:0.98;" d="M 79.6875 204.972656 L 89.746094 204.972656 L 89.746094 215.03125 L 79.6875 215.03125 Z M 79.6875 204.972656 "/>
<path style="fill:none;stroke-width:0.5;stroke-linecap:butt;stroke-linejoin:miter;stroke:rgb(0%,0%,0%);stroke-opacity:0.98;stroke-miterlimit:10;" d="M 92.945312 203.371094 L 106.203125 203.371094 L 106.203125 216.628906 L 92.945312 216.628906 Z M 92.945312 203.371094 "/>
<path style=" stroke:none;fill-rule:nonzero;fill:rgb(79.6%,23.5%,20%);fill-opacity:0.98;" d="M 94.546875 204.972656 L 104.605469 204.972656 L 104.605469 215.03125 L 94.546875 215.03125 Z M 94.546875 204.972656 "/>
<path style="fill:none;stroke-width:0.5;stroke-linecap:butt;stroke-linejoin:miter;stroke:rgb(0%,0%,0%);stroke-opacity:0.98;stroke-miterlimit:10;" d="M 107.804688 203.371094 L 121.0625 203.371094 L 121.0625 216.628906 L 107.804688 216.628906 Z M 107.804688 203.371094 "/>
<path style=" stroke:none;fill-rule:nonzero;fill:rgb(58.4%,34.5%,69.8%);fill-opacity:0.98;" d="M 109.402344 204.972656 L 119.460938 204.972656 L 119.460938 215.03125 L 109.402344 215.03125 Z M 109.402344 204.972656 "/>
<path style="fill:none;stroke-width:0.5;stroke-linecap:butt;stroke-linejoin:miter;stroke:rgb(0%,0%,0%);stroke-opacity:0.98;stroke-miterlimit:10;" d="M 122.660156 203.371094 L 135.917969 203.371094 L 135.917969 216.628906 L 122.660156 216.628906 Z M 122.660156 203.371094 "/>
<path style=" stroke:none;fill-rule:nonzero;fill:rgb(22%,59.6%,14.9%);fill-opacity:0.98;" d="M 124.261719 204.972656 L 134.320312 204.972656 L 134.320312 215.03125 L 124.261719 215.03125 Z M 124.261719 204.972656 "/>
<path style="fill:none;stroke-width:0.5;stroke-linecap:butt;stroke-linejoin:miter;stroke:rgb(70.196078%,70.196078%,70.196078%);stroke-opacity:0.98;stroke-miterlimit:10;" d="M 32.71875 217.429688 L 47.574219 217.429688 L 47.574219 232.285156 L 32.71875 232.285156 Z M 32.71875 217.429688 "/>
<path style=" stroke:none;fill-rule:nonzero;fill:rgb(70.196078%,70.196078%,70.196078%);fill-opacity:0.98;" d="M 37.746094 223.257812 L 42.546875 223.257812 L 42.546875 226.457031 L 37.746094 226.457031 Z M 37.746094 223.257812 "/>
<path style="fill:none;stroke-width:0.5;stroke-linecap:butt;stroke-linejoin:miter;stroke:rgb(0%,0%,0%);stroke-opacity:0.98;stroke-miterlimit:10;" d="M 48.375 218.230469 L 61.632812 218.230469 L 61.632812 231.488281 L 48.375 231.488281 Z M 48.375 218.230469 "/>
<path style=" stroke:none;fill-rule:nonzero;fill:rgb(79.6%,23.5%,20%);fill-opacity:0.98;" d="M 49.976562 219.828125 L 60.035156 219.828125 L 60.035156 229.886719 L 49.976562 229.886719 Z M 49.976562 219.828125 "/>
<path style="fill:none;stroke-width:0.5;stroke-linecap:butt;stroke-linejoin:miter;stroke:rgb(0%,0%,0%);stroke-opacity:0.98;stroke-miterlimit:10;" d="M 63.230469 218.230469 L 76.488281 218.230469 L 76.488281 231.488281 L 63.230469 231.488281 Z M 63.230469 218.230469 "/>
<path style=" stroke:none;fill-rule:nonzero;fill:rgb(58.4%,34.5%,69.8%);fill-opacity:0.98;" d="M 64.832031 219.828125 L 74.890625 219.828125 L 74.890625 229.886719 L 64.832031 229.886719 Z M 64.832031 219.828125 "/>
<path style="fill:none;stroke-width:0.5;stroke-linecap:butt;stroke-linejoin:miter;stroke:rgb(0%,0%,0%);stroke-opacity:0.98;stroke-miterlimit:10;" d="M 78.089844 218.230469 L 91.347656 218.230469 L 91.347656 231.488281 L 78.089844 231.488281 Z M 78.089844 218.230469 "/>
<path style=" stroke:none;fill-rule:nonzero;fill:rgb(22%,59.6%,14.9%);fill-opacity:0.98;" d="M 79.6875 219.828125 L 89.746094 219.828125 L 89.746094 229.886719 L 79.6875 229.886719 Z M 79.6875 219.828125 "/>
<path style="fill:none;stroke-width:0.5;stroke-linecap:butt;stroke-linejoin:miter;stroke:rgb(0%,0%,0%);stroke-opacity:0.98;stroke-miterlimit:10;" d="M 92.945312 218.230469 L 106.203125 218.230469 L 106.203125 231.488281 L 92.945312 231.488281 Z M 92.945312 218.230469 "/>
<path style=" stroke:none;fill-rule:nonzero;fill:rgb(79.6%,23.5%,20%);fill-opacity:0.98;" d="M 94.546875 219.828125 L 104.605469 219.828125 L 104.605469 229.886719 L 94.546875 229.886719 Z M 94.546875 219.828125 "/>
<path style="fill:none;stroke-width:0.5;stroke-linecap:butt;stroke-linejoin:miter;stroke:rgb(0%,0%,0%);stroke-opacity:0.98;stroke-miterlimit:10;" d="M 107.804688 218.230469 L 121.0625 218.230469 L 121.0625 231.488281 L 107.804688 231.488281 Z M 107.804688 218.230469 "/>
<path style=" stroke:none;fill-rule:nonzero;fill:rgb(58.4%,34.5%,69.8%);fill-opacity:0.98;" d="M 109.402344 219.828125 L 119.460938 219.828125 L 119.460938 229.886719 L 109.402344 229.886719 Z M 109.402344 219.828125 "/>
<path style="fill:none;stroke-width:0.5;stroke-linecap:butt;stroke-linejoin:miter;stroke:rgb(0%,0%,0%);stroke-opacity:0.98;stroke-miterlimit:10;" d="M 122.660156 218.230469 L 135.917969 218.230469 L 135.917969 231.488281 L 122.660156 231.488281 Z M 122.660156 218.230469 "/>
<path style=" stroke:none;fill-rule:nonzero;fill:rgb(22%,59.6%,14.9%);fill-opacity:0.98;" d="M 124.261719 219.828125 L 134.320312 219.828125 L 134.320312 229.886719 L 124.261719 229.886719 Z M 124.261719 219.828125 "/>
<path style="fill:none;stroke-width:0.5;stroke-linecap:butt;stroke-linejoin:miter;stroke:rgb(70.196078%,70.196078%,70.196078%);stroke-opacity:0.98;stroke-miterlimit:10;" d="M 32.71875 232.285156 L 47.574219 232.285156 L 47.574219 247.140625 L 32.71875 247.140625 Z M 32.71875 232.285156 "/>
<path style=" stroke:none;fill-rule:nonzero;fill:rgb(70.196078%,70.196078%,70.196078%);fill-opacity:0.98;" d="M 37.746094 238.113281 L 42.546875 238.113281 L 42.546875 241.3125 L 37.746094 241.3125 Z M 37.746094 238.113281 "/>
<path style="fill:none;stroke-width:0.5;stroke-linecap:butt;stroke-linejoin:miter;stroke:rgb(0%,0%,0%);stroke-opacity:0.98;stroke-miterlimit:10;" d="M 48.375 233.085938 L 61.632812 233.085938 L 61.632812 246.34375 L 48.375 246.34375 Z M 48.375 233.085938 "/>
<path style=" stroke:none;fill-rule:nonzero;fill:rgb(79.6%,23.5%,20%);fill-opacity:0.98;" d="M 49.976562 234.6875 L 60.035156 234.6875 L 60.035156 244.746094 L 49.976562 244.746094 Z M 49.976562 234.6875 "/>
<path style="fill:none;stroke-width:0.5;stroke-linecap:butt;stroke-linejoin:miter;stroke:rgb(0%,0%,0%);stroke-opacity:0.98;stroke-miterlimit:10;" d="M 63.230469 233.085938 L 76.488281 233.085938 L 76.488281 246.34375 L 63.230469 246.34375 Z M 63.230469 233.085938 "/>
<path style=" stroke:none;fill-rule:nonzero;fill:rgb(58.4%,34.5%,69.8%);fill-opacity:0.98;" d="M 64.832031 234.6875 L 74.890625 234.6875 L 74.890625 244.746094 L 64.832031 244.746094 Z M 64.832031 234.6875 "/>
<path style="fill:none;stroke-width:0.5;stroke-linecap:butt;stroke-linejoin:miter;stroke:rgb(0%,0%,0%);stroke-opacity:0.98;stroke-miterlimit:10;" d="M 78.089844 233.085938 L 91.347656 233.085938 L 91.347656 246.34375 L 78.089844 246.34375 Z M 78.089844 233.085938 "/>
<path style=" stroke:none;fill-rule:nonzero;fill:rgb(22%,59.6%,14.9%);fill-opacity:0.98;" d="M 79.6875 234.6875 L 89.746094 234.6875 L 89.746094 244.746094 L 79.6875 244.746094 Z M 79.6875 234.6875 "/>
<path style="fill:none;stroke-width:0.5;stroke-linecap:butt;stroke-linejoin:miter;stroke:rgb(0%,0%,0%);stroke-opacity:0.98;stroke-miterlimit:10;" d="M 92.945312 233.085938 L 106.203125 233.085938 L 106.203125 246.34375 L 92.945312 246.34375 Z M 92.945312 233.085938 "/>
<path style=" stroke:none;fill-rule:nonzero;fill:rgb(79.6%,23.5%,20%);fill-opacity:0.98;" d="M 94.546875 234.6875 L 104.605469 234.6875 L 104.605469 244.746094 L 94.546875 244.746094 Z M 94.546875 234.6875 "/>
<path style="fill:none;stroke-width:0.5;stroke-linecap:butt;stroke-linejoin:miter;stroke:rgb(0%,0%,0%);stroke-opacity:0.98;stroke-miterlimit:10;" d="M 107.804688 233.085938 L 121.0625 233.085938 L 121.0625 246.34375 L 107.804688 246.34375 Z M 107.804688 233.085938 "/>
<path style=" stroke:none;fill-rule:nonzero;fill:rgb(58.4%,34.5%,69.8%);fill-opacity:0.98;" d="M 109.402344 234.6875 L 119.460938 234.6875 L 119.460938 244.746094 L 109.402344 244.746094 Z M 109.402344 234.6875 "/>
<path style="fill:none;stroke-width:0.5;stroke-linecap:butt;stroke-linejoin:miter;stroke:rgb(0%,0%,0%);stroke-opacity:0.98;stroke-miterlimit:10;" d="M 122.660156 233.085938 L 135.917969 233.085938 L 135.917969 246.34375 L 122.660156 246.34375 Z M 122.660156 233.085938 "/>
<path style=" stroke:none;fill-rule:nonzero;fill:rgb(22%,59.6%,14.9%);fill-opacity:0.98;" d="M 124.261719 234.6875 L 134.320312 234.6875 L 134.320312 244.746094 L 124.261719 244.746094 Z M 124.261719 234.6875 "/>
<path style="fill:none;stroke-width:0.5;stroke-linecap:butt;stroke-linejoin:miter;stroke:rgb(70.196078%,70.196078%,70.196078%);stroke-opacity:0.98;stroke-miterlimit:10;" d="M 32.71875 247.144531 L 47.574219 247.144531 L 47.574219 262 L 32.71875 262 Z M 32.71875 247.144531 "/>
<path style=" stroke:none;fill-rule:nonzero;fill:rgb(70.196078%,70.196078%,70.196078%);fill-opacity:0.98;" d="M 37.746094 252.972656 L 42.546875 252.972656 L 42.546875 256.171875 L 37.746094 256.171875 Z M 37.746094 252.972656 "/>
<path style="fill:none;stroke-width:0.5;stroke-linecap:butt;stroke-linejoin:miter;stroke:rgb(0%,0%,0%);stroke-opacity:0.98;stroke-miterlimit:10;" d="M 48.375 247.941406 L 61.632812 247.941406 L 61.632812 261.199219 L 48.375 261.199219 Z M 48.375 247.941406 "/>
<path style=" stroke:none;fill-rule:nonzero;fill:rgb(79.6%,23.5%,20%);fill-opacity:0.98;" d="M 49.976562 249.542969 L 60.035156 249.542969 L 60.035156 259.601562 L 49.976562 259.601562 Z M 49.976562 249.542969 "/>
<path style="fill:none;stroke-width:0.5;stroke-linecap:butt;stroke-linejoin:miter;stroke:rgb(0%,0%,0%);stroke-opacity:0.98;stroke-miterlimit:10;" d="M 63.230469 247.941406 L 76.488281 247.941406 L 76.488281 261.199219 L 63.230469 261.199219 Z M 63.230469 247.941406 "/>
<path style=" stroke:none;fill-rule:nonzero;fill:rgb(58.4%,34.5%,69.8%);fill-opacity:0.98;" d="M 64.832031 249.542969 L 74.890625 249.542969 L 74.890625 259.601562 L 64.832031 259.601562 Z M 64.832031 249.542969 "/>
<path style="fill:none;stroke-width:0.5;stroke-linecap:butt;stroke-linejoin:miter;stroke:rgb(0%,0%,0%);stroke-opacity:0.98;stroke-miterlimit:10;" d="M 78.089844 247.941406 L 91.347656 247.941406 L 91.347656 261.199219 L 78.089844 261.199219 Z M 78.089844 247.941406 "/>
<path style=" stroke:none;fill-rule:nonzero;fill:rgb(22%,59.6%,14.9%);fill-opacity:0.98;" d="M 79.6875 249.542969 L 89.746094 249.542969 L 89.746094 259.601562 L 79.6875 259.601562 Z M 79.6875 249.542969 "/>
<path style="fill:none;stroke-width:0.5;stroke-linecap:butt;stroke-linejoin:miter;stroke:rgb(0%,0%,0%);stroke-opacity:0.98;stroke-miterlimit:10;" d="M 92.945312 247.941406 L 106.203125 247.941406 L 106.203125 261.199219 L 92.945312 261.199219 Z M 92.945312 247.941406 "/>
<path style=" stroke:none;fill-rule:nonzero;fill:rgb(79.6%,23.5%,20%);fill-opacity:0.98;" d="M 94.546875 249.542969 L 104.605469 249.542969 L 104.605469 259.601562 L 94.546875 259.601562 Z M 94.546875 249.542969 "/>
<path style="fill:none;stroke-width:0.5;stroke-linecap:butt;stroke-linejoin:miter;stroke:rgb(0%,0%,0%);stroke-opacity:0.98;stroke-miterlimit:10;" d="M 107.804688 247.941406 L 121.0625 247.941406 L 121.0625 261.199219 L 107.804688 261.199219 Z M 107.804688 247.941406 "/>
<path style=" stroke:none;fill-rule:nonzero;fill:rgb(58.4%,34.5%,69.8%);fill-opacity:0.98;" d="M 109.402344 249.542969 L 119.460938 249.542969 L 119.460938 259.601562 L 109.402344 259.601562 Z M 109.402344 249.542969 "/>
<path style="fill:none;stroke-width:0.5;stroke-linecap:butt;stroke-linejoin:miter;stroke:rgb(0%,0%,0%);stroke-opacity:0.98;stroke-miterlimit:10;" d="M 122.660156 247.941406 L 135.917969 247.941406 L 135.917969 261.199219 L 122.660156 261.199219 Z M 122.660156 247.941406 "/>
<path style=" stroke:none;fill-rule:nonzero;fill:rgb(22%,59.6%,14.9%);fill-opacity:0.98;" d="M 124.261719 249.542969 L 134.320312 249.542969 L 134.320312 259.601562 L 124.261719 259.601562 Z M 124.261719 249.542969 "/>
<path style="fill:none;stroke-width:0.5;stroke-linecap:butt;stroke-linejoin:miter;stroke:rgb(70.196078%,70.196078%,70.196078%);stroke-opacity:0.98;stroke-miterlimit:10;" d="M 116.855469 38 L 131.710938 38 L 131.710938 52.855469 L 116.855469 52.855469 Z M 116.855469 38 "/>
<path style=" stroke:none;fill-rule:nonzero;fill:rgb(79.6%,23.5%,20%);fill-opacity:0.98;" d="M 126.6875 45.429688 C 126.6875 48.628906 121.886719 48.628906 121.886719 45.429688 C 121.886719 42.230469 126.6875 42.230469 126.6875 45.429688 "/>
<path style="fill:none;stroke-width:0.5;stroke-linecap:butt;stroke-linejoin:miter;stroke:rgb(70.196078%,70.196078%,70.196078%);stroke-opacity:0.98;stroke-miterlimit:10;" d="M 131.714844 38 L 146.570312 38 L 146.570312 52.855469 L 131.714844 52.855469 Z M 131.714844 38 "/>
<path style=" stroke:none;fill-rule:nonzero;fill:rgb(58.4%,34.5%,69.8%);fill-opacity:0.98;" d="M 141.542969 45.429688 C 141.542969 48.628906 136.742188 48.628906 136.742188 45.429688 C 136.742188 42.230469 141.542969 42.230469 141.542969 45.429688 "/>
<path style="fill:none;stroke-width:0.5;stroke-linecap:butt;stroke-linejoin:miter;stroke:rgb(70.196078%,70.196078%,70.196078%);stroke-opacity:0.98;stroke-miterlimit:10;" d="M 146.570312 38 L 161.425781 38 L 161.425781 52.855469 L 146.570312 52.855469 Z M 146.570312 38 "/>
<path style=" stroke:none;fill-rule:nonzero;fill:rgb(22%,59.6%,14.9%);fill-opacity:0.98;" d="M 156.398438 45.429688 C 156.398438 48.628906 151.601562 48.628906 151.601562 45.429688 C 151.601562 42.230469 156.398438 42.230469 156.398438 45.429688 "/>
<path style="fill:none;stroke-width:0.5;stroke-linecap:butt;stroke-linejoin:miter;stroke:rgb(70.196078%,70.196078%,70.196078%);stroke-opacity:0.98;stroke-miterlimit:10;" d="M 161.429688 38 L 176.285156 38 L 176.285156 52.855469 L 161.429688 52.855469 Z M 161.429688 38 "/>
<path style=" stroke:none;fill-rule:nonzero;fill:rgb(79.6%,23.5%,20%);fill-opacity:0.98;" d="M 171.257812 45.429688 C 171.257812 48.628906 166.457031 48.628906 166.457031 45.429688 C 166.457031 42.230469 171.257812 42.230469 171.257812 45.429688 "/>
<path style="fill:none;stroke-width:0.5;stroke-linecap:butt;stroke-linejoin:miter;stroke:rgb(70.196078%,70.196078%,70.196078%);stroke-opacity:0.98;stroke-miterlimit:10;" d="M 176.285156 38 L 191.140625 38 L 191.140625 52.855469 L 176.285156 52.855469 Z M 176.285156 38 "/>
<path style=" stroke:none;fill-rule:nonzero;fill:rgb(58.4%,34.5%,69.8%);fill-opacity:0.98;" d="M 186.113281 45.429688 C 186.113281 48.628906 181.3125 48.628906 181.3125 45.429688 C 181.3125 42.230469 186.113281 42.230469 186.113281 45.429688 "/>
<path style="fill:none;stroke-width:0.5;stroke-linecap:butt;stroke-linejoin:miter;stroke:rgb(70.196078%,70.196078%,70.196078%);stroke-opacity:0.98;stroke-miterlimit:10;" d="M 191.144531 38 L 206 38 L 206 52.855469 L 191.144531 52.855469 Z M 191.144531 38 "/>
<path style=" stroke:none;fill-rule:nonzero;fill:rgb(22%,59.6%,14.9%);fill-opacity:0.98;" d="M 200.972656 45.429688 C 200.972656 48.628906 196.171875 48.628906 196.171875 45.429688 C 196.171875 42.230469 200.972656 42.230469 200.972656 45.429688 "/>
<path style="fill:none;stroke-width:0.5;stroke-linecap:butt;stroke-linejoin:miter;stroke:rgb(70.196078%,70.196078%,70.196078%);stroke-opacity:0.98;stroke-miterlimit:10;" d="M 102 52.855469 L 116.855469 52.855469 L 116.855469 67.710938 L 102 67.710938 Z M 102 52.855469 "/>
<path style=" stroke:none;fill-rule:nonzero;fill:rgb(70.196078%,70.196078%,70.196078%);fill-opacity:0.98;" d="M 107.027344 58.6875 L 111.828125 58.6875 L 111.828125 61.886719 L 107.027344 61.886719 Z M 107.027344 58.6875 "/>
<path style="fill:none;stroke-width:0.5;stroke-linecap:butt;stroke-linejoin:miter;stroke:rgb(0%,0%,0%);stroke-opacity:0.98;stroke-miterlimit:10;" d="M 117.65625 53.65625 L 130.914062 53.65625 L 130.914062 66.914062 L 117.65625 66.914062 Z M 117.65625 53.65625 "/>
<path style=" stroke:none;fill-rule:nonzero;fill:rgb(79.6%,23.5%,20%);fill-opacity:0.98;" d="M 119.257812 55.257812 L 129.316406 55.257812 L 129.316406 65.316406 L 119.257812 65.316406 Z M 119.257812 55.257812 "/>
<path style="fill:none;stroke-width:0.5;stroke-linecap:butt;stroke-linejoin:miter;stroke:rgb(0%,0%,0%);stroke-opacity:0.98;stroke-miterlimit:10;" d="M 132.515625 53.65625 L 145.773438 53.65625 L 145.773438 66.914062 L 132.515625 66.914062 Z M 132.515625 53.65625 "/>
<path style=" stroke:none;fill-rule:nonzero;fill:rgb(58.4%,34.5%,69.8%);fill-opacity:0.98;" d="M 134.113281 55.257812 L 144.171875 55.257812 L 144.171875 65.316406 L 134.113281 65.316406 Z M 134.113281 55.257812 "/>
<path style="fill:none;stroke-width:0.5;stroke-linecap:butt;stroke-linejoin:miter;stroke:rgb(0%,0%,0%);stroke-opacity:0.98;stroke-miterlimit:10;" d="M 147.371094 53.65625 L 160.628906 53.65625 L 160.628906 66.914062 L 147.371094 66.914062 Z M 147.371094 53.65625 "/>
<path style=" stroke:none;fill-rule:nonzero;fill:rgb(22%,59.6%,14.9%);fill-opacity:0.98;" d="M 148.972656 55.257812 L 159.03125 55.257812 L 159.03125 65.316406 L 148.972656 65.316406 Z M 148.972656 55.257812 "/>
<path style="fill:none;stroke-width:0.5;stroke-linecap:butt;stroke-linejoin:miter;stroke:rgb(0%,0%,0%);stroke-opacity:0.98;stroke-miterlimit:10;" d="M 162.230469 53.65625 L 175.488281 53.65625 L 175.488281 66.914062 L 162.230469 66.914062 Z M 162.230469 53.65625 "/>
<path style=" stroke:none;fill-rule:nonzero;fill:rgb(79.6%,23.5%,20%);fill-opacity:0.98;" d="M 163.828125 55.257812 L 173.886719 55.257812 L 173.886719 65.316406 L 163.828125 65.316406 Z M 163.828125 55.257812 "/>
<path style="fill:none;stroke-width:0.5;stroke-linecap:butt;stroke-linejoin:miter;stroke:rgb(0%,0%,0%);stroke-opacity:0.98;stroke-miterlimit:10;" d="M 177.085938 53.65625 L 190.34375 53.65625 L 190.34375 66.914062 L 177.085938 66.914062 Z M 177.085938 53.65625 "/>
<path style=" stroke:none;fill-rule:nonzero;fill:rgb(58.4%,34.5%,69.8%);fill-opacity:0.98;" d="M 178.6875 55.257812 L 188.746094 55.257812 L 188.746094 65.316406 L 178.6875 65.316406 Z M 178.6875 55.257812 "/>
<path style="fill:none;stroke-width:0.5;stroke-linecap:butt;stroke-linejoin:miter;stroke:rgb(0%,0%,0%);stroke-opacity:0.98;stroke-miterlimit:10;" d="M 191.941406 53.65625 L 205.199219 53.65625 L 205.199219 66.914062 L 191.941406 66.914062 Z M 191.941406 53.65625 "/>
<path style=" stroke:none;fill-rule:nonzero;fill:rgb(22%,59.6%,14.9%);fill-opacity:0.98;" d="M 193.542969 55.257812 L 203.601562 55.257812 L 203.601562 65.316406 L 193.542969 65.316406 Z M 193.542969 55.257812 "/>
<path style="fill:none;stroke-width:0.5;stroke-linecap:butt;stroke-linejoin:miter;stroke:rgb(70.196078%,70.196078%,70.196078%);stroke-opacity:0.98;stroke-miterlimit:10;" d="M 102 67.714844 L 116.855469 67.714844 L 116.855469 82.570312 L 102 82.570312 Z M 102 67.714844 "/>
<path style=" stroke:none;fill-rule:nonzero;fill:rgb(70.196078%,70.196078%,70.196078%);fill-opacity:0.98;" d="M 107.027344 73.542969 L 111.828125 73.542969 L 111.828125 76.742188 L 107.027344 76.742188 Z M 107.027344 73.542969 "/>
<path style="fill:none;stroke-width:0.5;stroke-linecap:butt;stroke-linejoin:miter;stroke:rgb(0%,0%,0%);stroke-opacity:0.98;stroke-miterlimit:10;" d="M 117.65625 68.515625 L 130.914062 68.515625 L 130.914062 81.773438 L 117.65625 81.773438 Z M 117.65625 68.515625 "/>
<path style=" stroke:none;fill-rule:nonzero;fill:rgb(79.6%,23.5%,20%);fill-opacity:0.98;" d="M 119.257812 70.113281 L 129.316406 70.113281 L 129.316406 80.171875 L 119.257812 80.171875 Z M 119.257812 70.113281 "/>
<path style="fill:none;stroke-width:0.5;stroke-linecap:butt;stroke-linejoin:miter;stroke:rgb(0%,0%,0%);stroke-opacity:0.98;stroke-miterlimit:10;" d="M 132.515625 68.515625 L 145.773438 68.515625 L 145.773438 81.773438 L 132.515625 81.773438 Z M 132.515625 68.515625 "/>
<path style=" stroke:none;fill-rule:nonzero;fill:rgb(58.4%,34.5%,69.8%);fill-opacity:0.98;" d="M 134.113281 70.113281 L 144.171875 70.113281 L 144.171875 80.171875 L 134.113281 80.171875 Z M 134.113281 70.113281 "/>
<path style="fill:none;stroke-width:0.5;stroke-linecap:butt;stroke-linejoin:miter;stroke:rgb(0%,0%,0%);stroke-opacity:0.98;stroke-miterlimit:10;" d="M 147.371094 68.515625 L 160.628906 68.515625 L 160.628906 81.773438 L 147.371094 81.773438 Z M 147.371094 68.515625 "/>
<path style=" stroke:none;fill-rule:nonzero;fill:rgb(22%,59.6%,14.9%);fill-opacity:0.98;" d="M 148.972656 70.113281 L 159.03125 70.113281 L 159.03125 80.171875 L 148.972656 80.171875 Z M 148.972656 70.113281 "/>
<path style="fill:none;stroke-width:0.5;stroke-linecap:butt;stroke-linejoin:miter;stroke:rgb(0%,0%,0%);stroke-opacity:0.98;stroke-miterlimit:10;" d="M 162.230469 68.515625 L 175.488281 68.515625 L 175.488281 81.773438 L 162.230469 81.773438 Z M 162.230469 68.515625 "/>
<path style=" stroke:none;fill-rule:nonzero;fill:rgb(79.6%,23.5%,20%);fill-opacity:0.98;" d="M 163.828125 70.113281 L 173.886719 70.113281 L 173.886719 80.171875 L 163.828125 80.171875 Z M 163.828125 70.113281 "/>
<path style="fill:none;stroke-width:0.5;stroke-linecap:butt;stroke-linejoin:miter;stroke:rgb(0%,0%,0%);stroke-opacity:0.98;stroke-miterlimit:10;" d="M 177.085938 68.515625 L 190.34375 68.515625 L 190.34375 81.773438 L 177.085938 81.773438 Z M 177.085938 68.515625 "/>
<path style=" stroke:none;fill-rule:nonzero;fill:rgb(58.4%,34.5%,69.8%);fill-opacity:0.98;" d="M 178.6875 70.113281 L 188.746094 70.113281 L 188.746094 80.171875 L 178.6875 80.171875 Z M 178.6875 70.113281 "/>
<path style="fill:none;stroke-width:0.5;stroke-linecap:butt;stroke-linejoin:miter;stroke:rgb(0%,0%,0%);stroke-opacity:0.98;stroke-miterlimit:10;" d="M 191.941406 68.515625 L 205.199219 68.515625 L 205.199219 81.773438 L 191.941406 81.773438 Z M 191.941406 68.515625 "/>
<path style=" stroke:none;fill-rule:nonzero;fill:rgb(22%,59.6%,14.9%);fill-opacity:0.98;" d="M 193.542969 70.113281 L 203.601562 70.113281 L 203.601562 80.171875 L 193.542969 80.171875 Z M 193.542969 70.113281 "/>
<path style="fill:none;stroke-width:0.5;stroke-linecap:butt;stroke-linejoin:miter;stroke:rgb(70.196078%,70.196078%,70.196078%);stroke-opacity:0.98;stroke-miterlimit:10;" d="M 102 82.570312 L 116.855469 82.570312 L 116.855469 97.425781 L 102 97.425781 Z M 102 82.570312 "/>
<path style=" stroke:none;fill-rule:nonzero;fill:rgb(70.196078%,70.196078%,70.196078%);fill-opacity:0.98;" d="M 107.027344 88.398438 L 111.828125 88.398438 L 111.828125 91.597656 L 107.027344 91.597656 Z M 107.027344 88.398438 "/>
<path style="fill:none;stroke-width:0.5;stroke-linecap:butt;stroke-linejoin:miter;stroke:rgb(0%,0%,0%);stroke-opacity:0.98;stroke-miterlimit:10;" d="M 117.65625 83.371094 L 130.914062 83.371094 L 130.914062 96.628906 L 117.65625 96.628906 Z M 117.65625 83.371094 "/>
<path style=" stroke:none;fill-rule:nonzero;fill:rgb(79.6%,23.5%,20%);fill-opacity:0.98;" d="M 119.257812 84.972656 L 129.316406 84.972656 L 129.316406 95.03125 L 119.257812 95.03125 Z M 119.257812 84.972656 "/>
<path style="fill:none;stroke-width:0.5;stroke-linecap:butt;stroke-linejoin:miter;stroke:rgb(0%,0%,0%);stroke-opacity:0.98;stroke-miterlimit:10;" d="M 132.515625 83.371094 L 145.773438 83.371094 L 145.773438 96.628906 L 132.515625 96.628906 Z M 132.515625 83.371094 "/>
<path style=" stroke:none;fill-rule:nonzero;fill:rgb(58.4%,34.5%,69.8%);fill-opacity:0.98;" d="M 134.113281 84.972656 L 144.171875 84.972656 L 144.171875 95.03125 L 134.113281 95.03125 Z M 134.113281 84.972656 "/>
<path style="fill:none;stroke-width:0.5;stroke-linecap:butt;stroke-linejoin:miter;stroke:rgb(0%,0%,0%);stroke-opacity:0.98;stroke-miterlimit:10;" d="M 147.371094 83.371094 L 160.628906 83.371094 L 160.628906 96.628906 L 147.371094 96.628906 Z M 147.371094 83.371094 "/>
<path style=" stroke:none;fill-rule:nonzero;fill:rgb(22%,59.6%,14.9%);fill-opacity:0.98;" d="M 148.972656 84.972656 L 159.03125 84.972656 L 159.03125 95.03125 L 148.972656 95.03125 Z M 148.972656 84.972656 "/>
<path style="fill:none;stroke-width:0.5;stroke-linecap:butt;stroke-linejoin:miter;stroke:rgb(0%,0%,0%);stroke-opacity:0.98;stroke-miterlimit:10;" d="M 162.230469 83.371094 L 175.488281 83.371094 L 175.488281 96.628906 L 162.230469 96.628906 Z M 162.230469 83.371094 "/>
<path style=" stroke:none;fill-rule:nonzero;fill:rgb(79.6%,23.5%,20%);fill-opacity:0.98;" d="M 163.828125 84.972656 L 173.886719 84.972656 L 173.886719 95.03125 L 163.828125 95.03125 Z M 163.828125 84.972656 "/>
<path style="fill:none;stroke-width:0.5;stroke-linecap:butt;stroke-linejoin:miter;stroke:rgb(0%,0%,0%);stroke-opacity:0.98;stroke-miterlimit:10;" d="M 177.085938 83.371094 L 190.34375 83.371094 L 190.34375 96.628906 L 177.085938 96.628906 Z M 177.085938 83.371094 "/>
<path style=" stroke:none;fill-rule:nonzero;fill:rgb(58.4%,34.5%,69.8%);fill-opacity:0.98;" d="M 178.6875 84.972656 L 188.746094 84.972656 L 188.746094 95.03125 L 178.6875 95.03125 Z M 178.6875 84.972656 "/>
<path style="fill:none;stroke-width:0.5;stroke-linecap:butt;stroke-linejoin:miter;stroke:rgb(0%,0%,0%);stroke-opacity:0.98;stroke-miterlimit:10;" d="M 191.941406 83.371094 L 205.199219 83.371094 L 205.199219 96.628906 L 191.941406 96.628906 Z M 191.941406 83.371094 "/>
<path style=" stroke:none;fill-rule:nonzero;fill:rgb(22%,59.6%,14.9%);fill-opacity:0.98;" d="M 193.542969 84.972656 L 203.601562 84.972656 L 203.601562 95.03125 L 193.542969 95.03125 Z M 193.542969 84.972656 "/>
<path style="fill:none;stroke-width:0.5;stroke-linecap:butt;stroke-linejoin:miter;stroke:rgb(70.196078%,70.196078%,70.196078%);stroke-opacity:0.98;stroke-miterlimit:10;" d="M 102 97.429688 L 116.855469 97.429688 L 116.855469 112.285156 L 102 112.285156 Z M 102 97.429688 "/>
<path style=" stroke:none;fill-rule:nonzero;fill:rgb(70.196078%,70.196078%,70.196078%);fill-opacity:0.98;" d="M 107.027344 103.257812 L 111.828125 103.257812 L 111.828125 106.457031 L 107.027344 106.457031 Z M 107.027344 103.257812 "/>
<path style="fill:none;stroke-width:0.5;stroke-linecap:butt;stroke-linejoin:miter;stroke:rgb(0%,0%,0%);stroke-opacity:0.98;stroke-miterlimit:10;" d="M 117.65625 98.230469 L 130.914062 98.230469 L 130.914062 111.488281 L 117.65625 111.488281 Z M 117.65625 98.230469 "/>
<path style=" stroke:none;fill-rule:nonzero;fill:rgb(79.6%,23.5%,20%);fill-opacity:0.98;" d="M 119.257812 99.828125 L 129.316406 99.828125 L 129.316406 109.886719 L 119.257812 109.886719 Z M 119.257812 99.828125 "/>
<path style="fill:none;stroke-width:0.5;stroke-linecap:butt;stroke-linejoin:miter;stroke:rgb(0%,0%,0%);stroke-opacity:0.98;stroke-miterlimit:10;" d="M 132.515625 98.230469 L 145.773438 98.230469 L 145.773438 111.488281 L 132.515625 111.488281 Z M 132.515625 98.230469 "/>
<path style=" stroke:none;fill-rule:nonzero;fill:rgb(58.4%,34.5%,69.8%);fill-opacity:0.98;" d="M 134.113281 99.828125 L 144.171875 99.828125 L 144.171875 109.886719 L 134.113281 109.886719 Z M 134.113281 99.828125 "/>
<path style="fill:none;stroke-width:0.5;stroke-linecap:butt;stroke-linejoin:miter;stroke:rgb(0%,0%,0%);stroke-opacity:0.98;stroke-miterlimit:10;" d="M 147.371094 98.230469 L 160.628906 98.230469 L 160.628906 111.488281 L 147.371094 111.488281 Z M 147.371094 98.230469 "/>
<path style=" stroke:none;fill-rule:nonzero;fill:rgb(22%,59.6%,14.9%);fill-opacity:0.98;" d="M 148.972656 99.828125 L 159.03125 99.828125 L 159.03125 109.886719 L 148.972656 109.886719 Z M 148.972656 99.828125 "/>
<path style="fill:none;stroke-width:0.5;stroke-linecap:butt;stroke-linejoin:miter;stroke:rgb(0%,0%,0%);stroke-opacity:0.98;stroke-miterlimit:10;" d="M 162.230469 98.230469 L 175.488281 98.230469 L 175.488281 111.488281 L 162.230469 111.488281 Z M 162.230469 98.230469 "/>
<path style=" stroke:none;fill-rule:nonzero;fill:rgb(79.6%,23.5%,20%);fill-opacity:0.98;" d="M 163.828125 99.828125 L 173.886719 99.828125 L 173.886719 109.886719 L 163.828125 109.886719 Z M 163.828125 99.828125 "/>
<path style="fill:none;stroke-width:0.5;stroke-linecap:butt;stroke-linejoin:miter;stroke:rgb(0%,0%,0%);stroke-opacity:0.98;stroke-miterlimit:10;" d="M 177.085938 98.230469 L 190.34375 98.230469 L 190.34375 111.488281 L 177.085938 111.488281 Z M 177.085938 98.230469 "/>
<path style=" stroke:none;fill-rule:nonzero;fill:rgb(58.4%,34.5%,69.8%);fill-opacity:0.98;" d="M 178.6875 99.828125 L 188.746094 99.828125 L 188.746094 109.886719 L 178.6875 109.886719 Z M 178.6875 99.828125 "/>
<path style="fill:none;stroke-width:0.5;stroke-linecap:butt;stroke-linejoin:miter;stroke:rgb(0%,0%,0%);stroke-opacity:0.98;stroke-miterlimit:10;" d="M 191.941406 98.230469 L 205.199219 98.230469 L 205.199219 111.488281 L 191.941406 111.488281 Z M 191.941406 98.230469 "/>
<path style=" stroke:none;fill-rule:nonzero;fill:rgb(22%,59.6%,14.9%);fill-opacity:0.98;" d="M 193.542969 99.828125 L 203.601562 99.828125 L 203.601562 109.886719 L 193.542969 109.886719 Z M 193.542969 99.828125 "/>
<path style="fill:none;stroke-width:0.5;stroke-linecap:butt;stroke-linejoin:miter;stroke:rgb(70.196078%,70.196078%,70.196078%);stroke-opacity:0.98;stroke-miterlimit:10;" d="M 102 112.285156 L 116.855469 112.285156 L 116.855469 127.140625 L 102 127.140625 Z M 102 112.285156 "/>
<path style=" stroke:none;fill-rule:nonzero;fill:rgb(70.196078%,70.196078%,70.196078%);fill-opacity:0.98;" d="M 107.027344 118.113281 L 111.828125 118.113281 L 111.828125 121.3125 L 107.027344 121.3125 Z M 107.027344 118.113281 "/>
<path style="fill:none;stroke-width:0.5;stroke-linecap:butt;stroke-linejoin:miter;stroke:rgb(0%,0%,0%);stroke-opacity:0.98;stroke-miterlimit:10;" d="M 117.65625 113.085938 L 130.914062 113.085938 L 130.914062 126.34375 L 117.65625 126.34375 Z M 117.65625 113.085938 "/>
<path style=" stroke:none;fill-rule:nonzero;fill:rgb(79.6%,23.5%,20%);fill-opacity:0.98;" d="M 119.257812 114.6875 L 129.316406 114.6875 L 129.316406 124.746094 L 119.257812 124.746094 Z M 119.257812 114.6875 "/>
<path style="fill:none;stroke-width:0.5;stroke-linecap:butt;stroke-linejoin:miter;stroke:rgb(0%,0%,0%);stroke-opacity:0.98;stroke-miterlimit:10;" d="M 132.515625 113.085938 L 145.773438 113.085938 L 145.773438 126.34375 L 132.515625 126.34375 Z M 132.515625 113.085938 "/>
<path style=" stroke:none;fill-rule:nonzero;fill:rgb(58.4%,34.5%,69.8%);fill-opacity:0.98;" d="M 134.113281 114.6875 L 144.171875 114.6875 L 144.171875 124.746094 L 134.113281 124.746094 Z M 134.113281 114.6875 "/>
<path style="fill:none;stroke-width:0.5;stroke-linecap:butt;stroke-linejoin:miter;stroke:rgb(0%,0%,0%);stroke-opacity:0.98;stroke-miterlimit:10;" d="M 147.371094 113.085938 L 160.628906 113.085938 L 160.628906 126.34375 L 147.371094 126.34375 Z M 147.371094 113.085938 "/>
<path style=" stroke:none;fill-rule:nonzero;fill:rgb(22%,59.6%,14.9%);fill-opacity:0.98;" d="M 148.972656 114.6875 L 159.03125 114.6875 L 159.03125 124.746094 L 148.972656 124.746094 Z M 148.972656 114.6875 "/>
<path style="fill:none;stroke-width:0.5;stroke-linecap:butt;stroke-linejoin:miter;stroke:rgb(0%,0%,0%);stroke-opacity:0.98;stroke-miterlimit:10;" d="M 162.230469 113.085938 L 175.488281 113.085938 L 175.488281 126.34375 L 162.230469 126.34375 Z M 162.230469 113.085938 "/>
<path style=" stroke:none;fill-rule:nonzero;fill:rgb(79.6%,23.5%,20%);fill-opacity:0.98;" d="M 163.828125 114.6875 L 173.886719 114.6875 L 173.886719 124.746094 L 163.828125 124.746094 Z M 163.828125 114.6875 "/>
<path style="fill:none;stroke-width:0.5;stroke-linecap:butt;stroke-linejoin:miter;stroke:rgb(0%,0%,0%);stroke-opacity:0.98;stroke-miterlimit:10;" d="M 177.085938 113.085938 L 190.34375 113.085938 L 190.34375 126.34375 L 177.085938 126.34375 Z M 177.085938 113.085938 "/>
<path style=" stroke:none;fill-rule:nonzero;fill:rgb(58.4%,34.5%,69.8%);fill-opacity:0.98;" d="M 178.6875 114.6875 L 188.746094 114.6875 L 188.746094 124.746094 L 178.6875 124.746094 Z M 178.6875 114.6875 "/>
<path style="fill:none;stroke-width:0.5;stroke-linecap:butt;stroke-linejoin:miter;stroke:rgb(0%,0%,0%);stroke-opacity:0.98;stroke-miterlimit:10;" d="M 191.941406 113.085938 L 205.199219 113.085938 L 205.199219 126.34375 L 191.941406 126.34375 Z M 191.941406 113.085938 "/>
<path style=" stroke:none;fill-rule:nonzero;fill:rgb(22%,59.6%,14.9%);fill-opacity:0.98;" d="M 193.542969 114.6875 L 203.601562 114.6875 L 203.601562 124.746094 L 193.542969 124.746094 Z M 193.542969 114.6875 "/>
<path style="fill:none;stroke-width:0.5;stroke-linecap:butt;stroke-linejoin:miter;stroke:rgb(70.196078%,70.196078%,70.196078%);stroke-opacity:0.98;stroke-miterlimit:10;" d="M 102 127.144531 L 116.855469 127.144531 L 116.855469 142 L 102 142 Z M 102 127.144531 "/>
<path style=" stroke:none;fill-rule:nonzero;fill:rgb(70.196078%,70.196078%,70.196078%);fill-opacity:0.98;" d="M 107.027344 132.972656 L 111.828125 132.972656 L 111.828125 136.171875 L 107.027344 136.171875 Z M 107.027344 132.972656 "/>
<path style="fill:none;stroke-width:0.5;stroke-linecap:butt;stroke-linejoin:miter;stroke:rgb(0%,0%,0%);stroke-opacity:0.98;stroke-miterlimit:10;" d="M 117.65625 127.941406 L 130.914062 127.941406 L 130.914062 141.199219 L 117.65625 141.199219 Z M 117.65625 127.941406 "/>
<path style=" stroke:none;fill-rule:nonzero;fill:rgb(79.6%,23.5%,20%);fill-opacity:0.98;" d="M 119.257812 129.542969 L 129.316406 129.542969 L 129.316406 139.601562 L 119.257812 139.601562 Z M 119.257812 129.542969 "/>
<path style="fill:none;stroke-width:0.5;stroke-linecap:butt;stroke-linejoin:miter;stroke:rgb(0%,0%,0%);stroke-opacity:0.98;stroke-miterlimit:10;" d="M 132.515625 127.941406 L 145.773438 127.941406 L 145.773438 141.199219 L 132.515625 141.199219 Z M 132.515625 127.941406 "/>
<path style=" stroke:none;fill-rule:nonzero;fill:rgb(58.4%,34.5%,69.8%);fill-opacity:0.98;" d="M 134.113281 129.542969 L 144.171875 129.542969 L 144.171875 139.601562 L 134.113281 139.601562 Z M 134.113281 129.542969 "/>
<path style="fill:none;stroke-width:0.5;stroke-linecap:butt;stroke-linejoin:miter;stroke:rgb(0%,0%,0%);stroke-opacity:0.98;stroke-miterlimit:10;" d="M 147.371094 127.941406 L 160.628906 127.941406 L 160.628906 141.199219 L 147.371094 141.199219 Z M 147.371094 127.941406 "/>
<path style=" stroke:none;fill-rule:nonzero;fill:rgb(22%,59.6%,14.9%);fill-opacity:0.98;" d="M 148.972656 129.542969 L 159.03125 129.542969 L 159.03125 139.601562 L 148.972656 139.601562 Z M 148.972656 129.542969 "/>
<path style="fill:none;stroke-width:0.5;stroke-linecap:butt;stroke-linejoin:miter;stroke:rgb(0%,0%,0%);stroke-opacity:0.98;stroke-miterlimit:10;" d="M 162.230469 127.941406 L 175.488281 127.941406 L 175.488281 141.199219 L 162.230469 141.199219 Z M 162.230469 127.941406 "/>
<path style=" stroke:none;fill-rule:nonzero;fill:rgb(79.6%,23.5%,20%);fill-opacity:0.98;" d="M 163.828125 129.542969 L 173.886719 129.542969 L 173.886719 139.601562 L 163.828125 139.601562 Z M 163.828125 129.542969 "/>
<path style="fill:none;stroke-width:0.5;stroke-linecap:butt;stroke-linejoin:miter;stroke:rgb(0%,0%,0%);stroke-opacity:0.98;stroke-miterlimit:10;" d="M 177.085938 127.941406 L 190.34375 127.941406 L 190.34375 141.199219 L 177.085938 141.199219 Z M 177.085938 127.941406 "/>
<path style=" stroke:none;fill-rule:nonzero;fill:rgb(58.4%,34.5%,69.8%);fill-opacity:0.98;" d="M 178.6875 129.542969 L 188.746094 129.542969 L 188.746094 139.601562 L 178.6875 139.601562 Z M 178.6875 129.542969 "/>
<path style="fill:none;stroke-width:0.5;stroke-linecap:butt;stroke-linejoin:miter;stroke:rgb(0%,0%,0%);stroke-opacity:0.98;stroke-miterlimit:10;" d="M 191.941406 127.941406 L 205.199219 127.941406 L 205.199219 141.199219 L 191.941406 141.199219 Z M 191.941406 127.941406 "/>
<path style=" stroke:none;fill-rule:nonzero;fill:rgb(22%,59.6%,14.9%);fill-opacity:0.98;" d="M 193.542969 129.542969 L 203.601562 129.542969 L 203.601562 139.601562 L 193.542969 139.601562 Z M 193.542969 129.542969 "/>
<path style="fill:none;stroke-width:0.5;stroke-linecap:butt;stroke-linejoin:miter;stroke:rgb(70.196078%,70.196078%,70.196078%);stroke-opacity:0.98;stroke-miterlimit:10;" d="M 186.140625 158 L 200.996094 158 L 200.996094 172.855469 L 186.140625 172.855469 Z M 186.140625 158 "/>
<path style=" stroke:none;fill-rule:nonzero;fill:rgb(79.6%,23.5%,20%);fill-opacity:0.98;" d="M 195.96875 165.429688 C 195.96875 168.628906 191.167969 168.628906 191.167969 165.429688 C 191.167969 162.230469 195.96875 162.230469 195.96875 165.429688 "/>
<path style="fill:none;stroke-width:0.5;stroke-linecap:butt;stroke-linejoin:miter;stroke:rgb(70.196078%,70.196078%,70.196078%);stroke-opacity:0.98;stroke-miterlimit:10;" d="M 200.996094 158 L 215.851562 158 L 215.851562 172.855469 L 200.996094 172.855469 Z M 200.996094 158 "/>
<path style=" stroke:none;fill-rule:nonzero;fill:rgb(58.4%,34.5%,69.8%);fill-opacity:0.98;" d="M 210.824219 165.429688 C 210.824219 168.628906 206.023438 168.628906 206.023438 165.429688 C 206.023438 162.230469 210.824219 162.230469 210.824219 165.429688 "/>
<path style="fill:none;stroke-width:0.5;stroke-linecap:butt;stroke-linejoin:miter;stroke:rgb(70.196078%,70.196078%,70.196078%);stroke-opacity:0.98;stroke-miterlimit:10;" d="M 215.851562 158 L 230.707031 158 L 230.707031 172.855469 L 215.851562 172.855469 Z M 215.851562 158 "/>
<path style=" stroke:none;fill-rule:nonzero;fill:rgb(22%,59.6%,14.9%);fill-opacity:0.98;" d="M 225.683594 165.429688 C 225.683594 168.628906 220.882812 168.628906 220.882812 165.429688 C 220.882812 162.230469 225.683594 162.230469 225.683594 165.429688 "/>
<path style="fill:none;stroke-width:0.5;stroke-linecap:butt;stroke-linejoin:miter;stroke:rgb(70.196078%,70.196078%,70.196078%);stroke-opacity:0.98;stroke-miterlimit:10;" d="M 230.710938 158 L 245.566406 158 L 245.566406 172.855469 L 230.710938 172.855469 Z M 230.710938 158 "/>
<path style=" stroke:none;fill-rule:nonzero;fill:rgb(79.6%,23.5%,20%);fill-opacity:0.98;" d="M 240.539062 165.429688 C 240.539062 168.628906 235.738281 168.628906 235.738281 165.429688 C 235.738281 162.230469 240.539062 162.230469 240.539062 165.429688 "/>
<path style="fill:none;stroke-width:0.5;stroke-linecap:butt;stroke-linejoin:miter;stroke:rgb(70.196078%,70.196078%,70.196078%);stroke-opacity:0.98;stroke-miterlimit:10;" d="M 245.566406 158 L 260.421875 158 L 260.421875 172.855469 L 245.566406 172.855469 Z M 245.566406 158 "/>
<path style=" stroke:none;fill-rule:nonzero;fill:rgb(58.4%,34.5%,69.8%);fill-opacity:0.98;" d="M 255.394531 165.429688 C 255.394531 168.628906 250.597656 168.628906 250.597656 165.429688 C 250.597656 162.230469 255.394531 162.230469 255.394531 165.429688 "/>
<path style="fill:none;stroke-width:0.5;stroke-linecap:butt;stroke-linejoin:miter;stroke:rgb(70.196078%,70.196078%,70.196078%);stroke-opacity:0.98;stroke-miterlimit:10;" d="M 260.425781 158 L 275.28125 158 L 275.28125 172.855469 L 260.425781 172.855469 Z M 260.425781 158 "/>
<path style=" stroke:none;fill-rule:nonzero;fill:rgb(22%,59.6%,14.9%);fill-opacity:0.98;" d="M 270.253906 165.429688 C 270.253906 168.628906 265.453125 168.628906 265.453125 165.429688 C 265.453125 162.230469 270.253906 162.230469 270.253906 165.429688 "/>
<path style="fill:none;stroke-width:0.5;stroke-linecap:butt;stroke-linejoin:miter;stroke:rgb(70.196078%,70.196078%,70.196078%);stroke-opacity:0.98;stroke-miterlimit:10;" d="M 171.28125 172.855469 L 186.136719 172.855469 L 186.136719 187.710938 L 171.28125 187.710938 Z M 171.28125 172.855469 "/>
<path style=" stroke:none;fill-rule:nonzero;fill:rgb(70.196078%,70.196078%,70.196078%);fill-opacity:0.98;" d="M 176.3125 178.6875 L 181.113281 178.6875 L 181.113281 181.886719 L 176.3125 181.886719 Z M 176.3125 178.6875 "/>
<path style="fill:none;stroke-width:0.5;stroke-linecap:butt;stroke-linejoin:miter;stroke:rgb(0%,0%,0%);stroke-opacity:0.98;stroke-miterlimit:10;" d="M 186.9375 173.65625 L 200.195312 173.65625 L 200.195312 186.914062 L 186.9375 186.914062 Z M 186.9375 173.65625 "/>
<path style=" stroke:none;fill-rule:nonzero;fill:rgb(79.6%,23.5%,20%);fill-opacity:0.98;" d="M 188.539062 175.257812 L 198.597656 175.257812 L 198.597656 185.316406 L 188.539062 185.316406 Z M 188.539062 175.257812 "/>
<path style="fill:none;stroke-width:0.5;stroke-linecap:butt;stroke-linejoin:miter;stroke:rgb(0%,0%,0%);stroke-opacity:0.98;stroke-miterlimit:10;" d="M 201.796875 173.65625 L 215.054688 173.65625 L 215.054688 186.914062 L 201.796875 186.914062 Z M 201.796875 173.65625 "/>
<path style=" stroke:none;fill-rule:nonzero;fill:rgb(58.4%,34.5%,69.8%);fill-opacity:0.98;" d="M 203.394531 175.257812 L 213.453125 175.257812 L 213.453125 185.316406 L 203.394531 185.316406 Z M 203.394531 175.257812 "/>
<path style="fill:none;stroke-width:0.5;stroke-linecap:butt;stroke-linejoin:miter;stroke:rgb(0%,0%,0%);stroke-opacity:0.98;stroke-miterlimit:10;" d="M 216.652344 173.65625 L 229.910156 173.65625 L 229.910156 186.914062 L 216.652344 186.914062 Z M 216.652344 173.65625 "/>
<path style=" stroke:none;fill-rule:nonzero;fill:rgb(22%,59.6%,14.9%);fill-opacity:0.98;" d="M 218.253906 175.257812 L 228.3125 175.257812 L 228.3125 185.316406 L 218.253906 185.316406 Z M 218.253906 175.257812 "/>
<path style="fill:none;stroke-width:0.5;stroke-linecap:butt;stroke-linejoin:miter;stroke:rgb(0%,0%,0%);stroke-opacity:0.98;stroke-miterlimit:10;" d="M 231.511719 173.65625 L 244.769531 173.65625 L 244.769531 186.914062 L 231.511719 186.914062 Z M 231.511719 173.65625 "/>
<path style=" stroke:none;fill-rule:nonzero;fill:rgb(79.6%,23.5%,20%);fill-opacity:0.98;" d="M 233.109375 175.257812 L 243.167969 175.257812 L 243.167969 185.316406 L 233.109375 185.316406 Z M 233.109375 175.257812 "/>
<path style="fill:none;stroke-width:0.5;stroke-linecap:butt;stroke-linejoin:miter;stroke:rgb(0%,0%,0%);stroke-opacity:0.98;stroke-miterlimit:10;" d="M 246.367188 173.65625 L 259.625 173.65625 L 259.625 186.914062 L 246.367188 186.914062 Z M 246.367188 173.65625 "/>
<path style=" stroke:none;fill-rule:nonzero;fill:rgb(58.4%,34.5%,69.8%);fill-opacity:0.98;" d="M 247.96875 175.257812 L 258.027344 175.257812 L 258.027344 185.316406 L 247.96875 185.316406 Z M 247.96875 175.257812 "/>
<path style="fill:none;stroke-width:0.5;stroke-linecap:butt;stroke-linejoin:miter;stroke:rgb(0%,0%,0%);stroke-opacity:0.98;stroke-miterlimit:10;" d="M 261.226562 173.65625 L 274.484375 173.65625 L 274.484375 186.914062 L 261.226562 186.914062 Z M 261.226562 173.65625 "/>
<path style=" stroke:none;fill-rule:nonzero;fill:rgb(22%,59.6%,14.9%);fill-opacity:0.98;" d="M 262.824219 175.257812 L 272.882812 175.257812 L 272.882812 185.316406 L 262.824219 185.316406 Z M 262.824219 175.257812 "/>
<path style="fill:none;stroke-width:0.5;stroke-linecap:butt;stroke-linejoin:miter;stroke:rgb(70.196078%,70.196078%,70.196078%);stroke-opacity:0.98;stroke-miterlimit:10;" d="M 171.28125 187.714844 L 186.136719 187.714844 L 186.136719 202.570312 L 171.28125 202.570312 Z M 171.28125 187.714844 "/>
<path style=" stroke:none;fill-rule:nonzero;fill:rgb(70.196078%,70.196078%,70.196078%);fill-opacity:0.98;" d="M 176.3125 193.542969 L 181.113281 193.542969 L 181.113281 196.742188 L 176.3125 196.742188 Z M 176.3125 193.542969 "/>
<path style="fill:none;stroke-width:0.5;stroke-linecap:butt;stroke-linejoin:miter;stroke:rgb(0%,0%,0%);stroke-opacity:0.98;stroke-miterlimit:10;" d="M 186.9375 188.515625 L 200.195312 188.515625 L 200.195312 201.773438 L 186.9375 201.773438 Z M 186.9375 188.515625 "/>
<path style=" stroke:none;fill-rule:nonzero;fill:rgb(79.6%,23.5%,20%);fill-opacity:0.98;" d="M 188.539062 190.113281 L 198.597656 190.113281 L 198.597656 200.171875 L 188.539062 200.171875 Z M 188.539062 190.113281 "/>
<path style="fill:none;stroke-width:0.5;stroke-linecap:butt;stroke-linejoin:miter;stroke:rgb(0%,0%,0%);stroke-opacity:0.98;stroke-miterlimit:10;" d="M 201.796875 188.515625 L 215.054688 188.515625 L 215.054688 201.773438 L 201.796875 201.773438 Z M 201.796875 188.515625 "/>
<path style=" stroke:none;fill-rule:nonzero;fill:rgb(58.4%,34.5%,69.8%);fill-opacity:0.98;" d="M 203.394531 190.113281 L 213.453125 190.113281 L 213.453125 200.171875 L 203.394531 200.171875 Z M 203.394531 190.113281 "/>
<path style="fill:none;stroke-width:0.5;stroke-linecap:butt;stroke-linejoin:miter;stroke:rgb(0%,0%,0%);stroke-opacity:0.98;stroke-miterlimit:10;" d="M 216.652344 188.515625 L 229.910156 188.515625 L 229.910156 201.773438 L 216.652344 201.773438 Z M 216.652344 188.515625 "/>
<path style=" stroke:none;fill-rule:nonzero;fill:rgb(22%,59.6%,14.9%);fill-opacity:0.98;" d="M 218.253906 190.113281 L 228.3125 190.113281 L 228.3125 200.171875 L 218.253906 200.171875 Z M 218.253906 190.113281 "/>
<path style="fill:none;stroke-width:0.5;stroke-linecap:butt;stroke-linejoin:miter;stroke:rgb(0%,0%,0%);stroke-opacity:0.98;stroke-miterlimit:10;" d="M 231.511719 188.515625 L 244.769531 188.515625 L 244.769531 201.773438 L 231.511719 201.773438 Z M 231.511719 188.515625 "/>
<path style=" stroke:none;fill-rule:nonzero;fill:rgb(79.6%,23.5%,20%);fill-opacity:0.98;" d="M 233.109375 190.113281 L 243.167969 190.113281 L 243.167969 200.171875 L 233.109375 200.171875 Z M 233.109375 190.113281 "/>
<path style="fill:none;stroke-width:0.5;stroke-linecap:butt;stroke-linejoin:miter;stroke:rgb(0%,0%,0%);stroke-opacity:0.98;stroke-miterlimit:10;" d="M 246.367188 188.515625 L 259.625 188.515625 L 259.625 201.773438 L 246.367188 201.773438 Z M 246.367188 188.515625 "/>
<path style=" stroke:none;fill-rule:nonzero;fill:rgb(58.4%,34.5%,69.8%);fill-opacity:0.98;" d="M 247.96875 190.113281 L 258.027344 190.113281 L 258.027344 200.171875 L 247.96875 200.171875 Z M 247.96875 190.113281 "/>
<path style="fill:none;stroke-width:0.5;stroke-linecap:butt;stroke-linejoin:miter;stroke:rgb(0%,0%,0%);stroke-opacity:0.98;stroke-miterlimit:10;" d="M 261.226562 188.515625 L 274.484375 188.515625 L 274.484375 201.773438 L 261.226562 201.773438 Z M 261.226562 188.515625 "/>
<path style=" stroke:none;fill-rule:nonzero;fill:rgb(22%,59.6%,14.9%);fill-opacity:0.98;" d="M 262.824219 190.113281 L 272.882812 190.113281 L 272.882812 200.171875 L 262.824219 200.171875 Z M 262.824219 190.113281 "/>
<path style="fill:none;stroke-width:0.5;stroke-linecap:butt;stroke-linejoin:miter;stroke:rgb(70.196078%,70.196078%,70.196078%);stroke-opacity:0.98;stroke-miterlimit:10;" d="M 171.28125 202.570312 L 186.136719 202.570312 L 186.136719 217.425781 L 171.28125 217.425781 Z M 171.28125 202.570312 "/>
<path style=" stroke:none;fill-rule:nonzero;fill:rgb(70.196078%,70.196078%,70.196078%);fill-opacity:0.98;" d="M 176.3125 208.398438 L 181.113281 208.398438 L 181.113281 211.597656 L 176.3125 211.597656 Z M 176.3125 208.398438 "/>
<path style="fill:none;stroke-width:0.5;stroke-linecap:butt;stroke-linejoin:miter;stroke:rgb(0%,0%,0%);stroke-opacity:0.98;stroke-miterlimit:10;" d="M 186.9375 203.371094 L 200.195312 203.371094 L 200.195312 216.628906 L 186.9375 216.628906 Z M 186.9375 203.371094 "/>
<path style=" stroke:none;fill-rule:nonzero;fill:rgb(79.6%,23.5%,20%);fill-opacity:0.98;" d="M 188.539062 204.972656 L 198.597656 204.972656 L 198.597656 215.03125 L 188.539062 215.03125 Z M 188.539062 204.972656 "/>
<path style="fill:none;stroke-width:0.5;stroke-linecap:butt;stroke-linejoin:miter;stroke:rgb(0%,0%,0%);stroke-opacity:0.98;stroke-miterlimit:10;" d="M 201.796875 203.371094 L 215.054688 203.371094 L 215.054688 216.628906 L 201.796875 216.628906 Z M 201.796875 203.371094 "/>
<path style=" stroke:none;fill-rule:nonzero;fill:rgb(58.4%,34.5%,69.8%);fill-opacity:0.98;" d="M 203.394531 204.972656 L 213.453125 204.972656 L 213.453125 215.03125 L 203.394531 215.03125 Z M 203.394531 204.972656 "/>
<path style="fill:none;stroke-width:0.5;stroke-linecap:butt;stroke-linejoin:miter;stroke:rgb(0%,0%,0%);stroke-opacity:0.98;stroke-miterlimit:10;" d="M 216.652344 203.371094 L 229.910156 203.371094 L 229.910156 216.628906 L 216.652344 216.628906 Z M 216.652344 203.371094 "/>
<path style=" stroke:none;fill-rule:nonzero;fill:rgb(22%,59.6%,14.9%);fill-opacity:0.98;" d="M 218.253906 204.972656 L 228.3125 204.972656 L 228.3125 215.03125 L 218.253906 215.03125 Z M 218.253906 204.972656 "/>
<path style="fill:none;stroke-width:0.5;stroke-linecap:butt;stroke-linejoin:miter;stroke:rgb(0%,0%,0%);stroke-opacity:0.98;stroke-miterlimit:10;" d="M 231.511719 203.371094 L 244.769531 203.371094 L 244.769531 216.628906 L 231.511719 216.628906 Z M 231.511719 203.371094 "/>
<path style=" stroke:none;fill-rule:nonzero;fill:rgb(79.6%,23.5%,20%);fill-opacity:0.98;" d="M 233.109375 204.972656 L 243.167969 204.972656 L 243.167969 215.03125 L 233.109375 215.03125 Z M 233.109375 204.972656 "/>
<path style="fill:none;stroke-width:0.5;stroke-linecap:butt;stroke-linejoin:miter;stroke:rgb(0%,0%,0%);stroke-opacity:0.98;stroke-miterlimit:10;" d="M 246.367188 203.371094 L 259.625 203.371094 L 259.625 216.628906 L 246.367188 216.628906 Z M 246.367188 203.371094 "/>
<path style=" stroke:none;fill-rule:nonzero;fill:rgb(58.4%,34.5%,69.8%);fill-opacity:0.98;" d="M 247.96875 204.972656 L 258.027344 204.972656 L 258.027344 215.03125 L 247.96875 215.03125 Z M 247.96875 204.972656 "/>
<path style="fill:none;stroke-width:0.5;stroke-linecap:butt;stroke-linejoin:miter;stroke:rgb(0%,0%,0%);stroke-opacity:0.98;stroke-miterlimit:10;" d="M 261.226562 203.371094 L 274.484375 203.371094 L 274.484375 216.628906 L 261.226562 216.628906 Z M 261.226562 203.371094 "/>
<path style=" stroke:none;fill-rule:nonzero;fill:rgb(22%,59.6%,14.9%);fill-opacity:0.98;" d="M 262.824219 204.972656 L 272.882812 204.972656 L 272.882812 215.03125 L 262.824219 215.03125 Z M 262.824219 204.972656 "/>
<path style="fill:none;stroke-width:0.5;stroke-linecap:butt;stroke-linejoin:miter;stroke:rgb(70.196078%,70.196078%,70.196078%);stroke-opacity:0.98;stroke-miterlimit:10;" d="M 171.28125 217.429688 L 186.136719 217.429688 L 186.136719 232.285156 L 171.28125 232.285156 Z M 171.28125 217.429688 "/>
<path style=" stroke:none;fill-rule:nonzero;fill:rgb(70.196078%,70.196078%,70.196078%);fill-opacity:0.98;" d="M 176.3125 223.257812 L 181.113281 223.257812 L 181.113281 226.457031 L 176.3125 226.457031 Z M 176.3125 223.257812 "/>
<path style="fill:none;stroke-width:0.5;stroke-linecap:butt;stroke-linejoin:miter;stroke:rgb(0%,0%,0%);stroke-opacity:0.98;stroke-miterlimit:10;" d="M 186.9375 218.230469 L 200.195312 218.230469 L 200.195312 231.488281 L 186.9375 231.488281 Z M 186.9375 218.230469 "/>
<path style=" stroke:none;fill-rule:nonzero;fill:rgb(79.6%,23.5%,20%);fill-opacity:0.98;" d="M 188.539062 219.828125 L 198.597656 219.828125 L 198.597656 229.886719 L 188.539062 229.886719 Z M 188.539062 219.828125 "/>
<path style="fill:none;stroke-width:0.5;stroke-linecap:butt;stroke-linejoin:miter;stroke:rgb(0%,0%,0%);stroke-opacity:0.98;stroke-miterlimit:10;" d="M 201.796875 218.230469 L 215.054688 218.230469 L 215.054688 231.488281 L 201.796875 231.488281 Z M 201.796875 218.230469 "/>
<path style=" stroke:none;fill-rule:nonzero;fill:rgb(58.4%,34.5%,69.8%);fill-opacity:0.98;" d="M 203.394531 219.828125 L 213.453125 219.828125 L 213.453125 229.886719 L 203.394531 229.886719 Z M 203.394531 219.828125 "/>
<path style="fill:none;stroke-width:0.5;stroke-linecap:butt;stroke-linejoin:miter;stroke:rgb(0%,0%,0%);stroke-opacity:0.98;stroke-miterlimit:10;" d="M 216.652344 218.230469 L 229.910156 218.230469 L 229.910156 231.488281 L 216.652344 231.488281 Z M 216.652344 218.230469 "/>
<path style=" stroke:none;fill-rule:nonzero;fill:rgb(22%,59.6%,14.9%);fill-opacity:0.98;" d="M 218.253906 219.828125 L 228.3125 219.828125 L 228.3125 229.886719 L 218.253906 229.886719 Z M 218.253906 219.828125 "/>
<path style="fill:none;stroke-width:0.5;stroke-linecap:butt;stroke-linejoin:miter;stroke:rgb(0%,0%,0%);stroke-opacity:0.98;stroke-miterlimit:10;" d="M 231.511719 218.230469 L 244.769531 218.230469 L 244.769531 231.488281 L 231.511719 231.488281 Z M 231.511719 218.230469 "/>
<path style=" stroke:none;fill-rule:nonzero;fill:rgb(79.6%,23.5%,20%);fill-opacity:0.98;" d="M 233.109375 219.828125 L 243.167969 219.828125 L 243.167969 229.886719 L 233.109375 229.886719 Z M 233.109375 219.828125 "/>
<path style="fill:none;stroke-width:0.5;stroke-linecap:butt;stroke-linejoin:miter;stroke:rgb(0%,0%,0%);stroke-opacity:0.98;stroke-miterlimit:10;" d="M 246.367188 218.230469 L 259.625 218.230469 L 259.625 231.488281 L 246.367188 231.488281 Z M 246.367188 218.230469 "/>
<path style=" stroke:none;fill-rule:nonzero;fill:rgb(58.4%,34.5%,69.8%);fill-opacity:0.98;" d="M 247.96875 219.828125 L 258.027344 219.828125 L 258.027344 229.886719 L 247.96875 229.886719 Z M 247.96875 219.828125 "/>
<path style="fill:none;stroke-width:0.5;stroke-linecap:butt;stroke-linejoin:miter;stroke:rgb(0%,0%,0%);stroke-opacity:0.98;stroke-miterlimit:10;" d="M 261.226562 218.230469 L 274.484375 218.230469 L 274.484375 231.488281 L 261.226562 231.488281 Z M 261.226562 218.230469 "/>
<path style=" stroke:none;fill-rule:nonzero;fill:rgb(22%,59.6%,14.9%);fill-opacity:0.98;" d="M 262.824219 219.828125 L 272.882812 219.828125 L 272.882812 229.886719 L 262.824219 229.886719 Z M 262.824219 219.828125 "/>
<path style="fill:none;stroke-width:0.5;stroke-linecap:butt;stroke-linejoin:miter;stroke:rgb(70.196078%,70.196078%,70.196078%);stroke-opacity:0.98;stroke-miterlimit:10;" d="M 171.28125 232.285156 L 186.136719 232.285156 L 186.136719 247.140625 L 171.28125 247.140625 Z M 171.28125 232.285156 "/>
<path style=" stroke:none;fill-rule:nonzero;fill:rgb(70.196078%,70.196078%,70.196078%);fill-opacity:0.98;" d="M 176.3125 238.113281 L 181.113281 238.113281 L 181.113281 241.3125 L 176.3125 241.3125 Z M 176.3125 238.113281 "/>
<path style="fill:none;stroke-width:0.5;stroke-linecap:butt;stroke-linejoin:miter;stroke:rgb(0%,0%,0%);stroke-opacity:0.98;stroke-miterlimit:10;" d="M 186.9375 233.085938 L 200.195312 233.085938 L 200.195312 246.34375 L 186.9375 246.34375 Z M 186.9375 233.085938 "/>
<path style=" stroke:none;fill-rule:nonzero;fill:rgb(79.6%,23.5%,20%);fill-opacity:0.98;" d="M 188.539062 234.6875 L 198.597656 234.6875 L 198.597656 244.746094 L 188.539062 244.746094 Z M 188.539062 234.6875 "/>
<path style="fill:none;stroke-width:0.5;stroke-linecap:butt;stroke-linejoin:miter;stroke:rgb(0%,0%,0%);stroke-opacity:0.98;stroke-miterlimit:10;" d="M 201.796875 233.085938 L 215.054688 233.085938 L 215.054688 246.34375 L 201.796875 246.34375 Z M 201.796875 233.085938 "/>
<path style=" stroke:none;fill-rule:nonzero;fill:rgb(58.4%,34.5%,69.8%);fill-opacity:0.98;" d="M 203.394531 234.6875 L 213.453125 234.6875 L 213.453125 244.746094 L 203.394531 244.746094 Z M 203.394531 234.6875 "/>
<path style="fill:none;stroke-width:0.5;stroke-linecap:butt;stroke-linejoin:miter;stroke:rgb(0%,0%,0%);stroke-opacity:0.98;stroke-miterlimit:10;" d="M 216.652344 233.085938 L 229.910156 233.085938 L 229.910156 246.34375 L 216.652344 246.34375 Z M 216.652344 233.085938 "/>
<path style=" stroke:none;fill-rule:nonzero;fill:rgb(22%,59.6%,14.9%);fill-opacity:0.98;" d="M 218.253906 234.6875 L 228.3125 234.6875 L 228.3125 244.746094 L 218.253906 244.746094 Z M 218.253906 234.6875 "/>
<path style="fill:none;stroke-width:0.5;stroke-linecap:butt;stroke-linejoin:miter;stroke:rgb(0%,0%,0%);stroke-opacity:0.98;stroke-miterlimit:10;" d="M 231.511719 233.085938 L 244.769531 233.085938 L 244.769531 246.34375 L 231.511719 246.34375 Z M 231.511719 233.085938 "/>
<path style=" stroke:none;fill-rule:nonzero;fill:rgb(79.6%,23.5%,20%);fill-opacity:0.98;" d="M 233.109375 234.6875 L 243.167969 234.6875 L 243.167969 244.746094 L 233.109375 244.746094 Z M 233.109375 234.6875 "/>
<path style="fill:none;stroke-width:0.5;stroke-linecap:butt;stroke-linejoin:miter;stroke:rgb(0%,0%,0%);stroke-opacity:0.98;stroke-miterlimit:10;" d="M 246.367188 233.085938 L 259.625 233.085938 L 259.625 246.34375 L 246.367188 246.34375 Z M 246.367188 233.085938 "/>
<path style=" stroke:none;fill-rule:nonzero;fill:rgb(58.4%,34.5%,69.8%);fill-opacity:0.98;" d="M 247.96875 234.6875 L 258.027344 234.6875 L 258.027344 244.746094 L 247.96875 244.746094 Z M 247.96875 234.6875 "/>
<path style="fill:none;stroke-width:0.5;stroke-linecap:butt;stroke-linejoin:miter;stroke:rgb(0%,0%,0%);stroke-opacity:0.98;stroke-miterlimit:10;" d="M 261.226562 233.085938 L 274.484375 233.085938 L 274.484375 246.34375 L 261.226562 246.34375 Z M 261.226562 233.085938 "/>
<path style=" stroke:none;fill-rule:nonzero;fill:rgb(22%,59.6%,14.9%);fill-opacity:0.98;" d="M 262.824219 234.6875 L 272.882812 234.6875 L 272.882812 244.746094 L 262.824219 244.746094 Z M 262.824219 234.6875 "/>
<path style="fill:none;stroke-width:0.5;stroke-linecap:butt;stroke-linejoin:miter;stroke:rgb(70.196078%,70.196078%,70.196078%);stroke-opacity:0.98;stroke-miterlimit:10;" d="M 171.28125 247.144531 L 186.136719 247.144531 L 186.136719 262 L 171.28125 262 Z M 171.28125 247.144531 "/>
<path style=" stroke:none;fill-rule:nonzero;fill:rgb(70.196078%,70.196078%,70.196078%);fill-opacity:0.98;" d="M 176.3125 252.972656 L 181.113281 252.972656 L 181.113281 256.171875 L 176.3125 256.171875 Z M 176.3125 252.972656 "/>
<path style="fill:none;stroke-width:0.5;stroke-linecap:butt;stroke-linejoin:miter;stroke:rgb(0%,0%,0%);stroke-opacity:0.98;stroke-miterlimit:10;" d="M 186.9375 247.941406 L 200.195312 247.941406 L 200.195312 261.199219 L 186.9375 261.199219 Z M 186.9375 247.941406 "/>
<path style=" stroke:none;fill-rule:nonzero;fill:rgb(79.6%,23.5%,20%);fill-opacity:0.98;" d="M 188.539062 249.542969 L 198.597656 249.542969 L 198.597656 259.601562 L 188.539062 259.601562 Z M 188.539062 249.542969 "/>
<path style="fill:none;stroke-width:0.5;stroke-linecap:butt;stroke-linejoin:miter;stroke:rgb(0%,0%,0%);stroke-opacity:0.98;stroke-miterlimit:10;" d="M 201.796875 247.941406 L 215.054688 247.941406 L 215.054688 261.199219 L 201.796875 261.199219 Z M 201.796875 247.941406 "/>
<path style=" stroke:none;fill-rule:nonzero;fill:rgb(58.4%,34.5%,69.8%);fill-opacity:0.98;" d="M 203.394531 249.542969 L 213.453125 249.542969 L 213.453125 259.601562 L 203.394531 259.601562 Z M 203.394531 249.542969 "/>
<path style="fill:none;stroke-width:0.5;stroke-linecap:butt;stroke-linejoin:miter;stroke:rgb(0%,0%,0%);stroke-opacity:0.98;stroke-miterlimit:10;" d="M 216.652344 247.941406 L 229.910156 247.941406 L 229.910156 261.199219 L 216.652344 261.199219 Z M 216.652344 247.941406 "/>
<path style=" stroke:none;fill-rule:nonzero;fill:rgb(22%,59.6%,14.9%);fill-opacity:0.98;" d="M 218.253906 249.542969 L 228.3125 249.542969 L 228.3125 259.601562 L 218.253906 259.601562 Z M 218.253906 249.542969 "/>
<path style="fill:none;stroke-width:0.5;stroke-linecap:butt;stroke-linejoin:miter;stroke:rgb(0%,0%,0%);stroke-opacity:0.98;stroke-miterlimit:10;" d="M 231.511719 247.941406 L 244.769531 247.941406 L 244.769531 261.199219 L 231.511719 261.199219 Z M 231.511719 247.941406 "/>
<path style=" stroke:none;fill-rule:nonzero;fill:rgb(79.6%,23.5%,20%);fill-opacity:0.98;" d="M 233.109375 249.542969 L 243.167969 249.542969 L 243.167969 259.601562 L 233.109375 259.601562 Z M 233.109375 249.542969 "/>
<path style="fill:none;stroke-width:0.5;stroke-linecap:butt;stroke-linejoin:miter;stroke:rgb(0%,0%,0%);stroke-opacity:0.98;stroke-miterlimit:10;" d="M 246.367188 247.941406 L 259.625 247.941406 L 259.625 261.199219 L 246.367188 261.199219 Z M 246.367188 247.941406 "/>
<path style=" stroke:none;fill-rule:nonzero;fill:rgb(58.4%,34.5%,69.8%);fill-opacity:0.98;" d="M 247.96875 249.542969 L 258.027344 249.542969 L 258.027344 259.601562 L 247.96875 259.601562 Z M 247.96875 249.542969 "/>
<path style="fill:none;stroke-width:0.5;stroke-linecap:butt;stroke-linejoin:miter;stroke:rgb(0%,0%,0%);stroke-opacity:0.98;stroke-miterlimit:10;" d="M 261.226562 247.941406 L 274.484375 247.941406 L 274.484375 261.199219 L 261.226562 261.199219 Z M 261.226562 247.941406 "/>
<path style=" stroke:none;fill-rule:nonzero;fill:rgb(22%,59.6%,14.9%);fill-opacity:0.98;" d="M 262.824219 249.542969 L 272.882812 249.542969 L 272.882812 259.601562 L 262.824219 259.601562 Z M 262.824219 249.542969 "/>
<g clip-path="url(#clip1)" clip-rule="nonzero">
<g clip-path="url(#clip2)" clip-rule="nonzero">
<path style=" stroke:none;fill-rule:nonzero;fill:rgb(22%,59.6%,14.9%);fill-opacity:0.9;" d="M 110 169.5 L 450 169.5 L 450 356.5 L 110 356.5 Z M 110 169.5 "/>
</g>
</g>
<g clip-path="url(#clip3)" clip-rule="nonzero">
<g clip-path="url(#clip4)" clip-rule="nonzero">
<path style=" stroke:none;fill-rule:nonzero;fill:rgb(79.6%,23.5%,20%);fill-opacity:0.9;" d="M 110 263 L 450 263 L 450 450 L 110 450 Z M 110 263 "/>
</g>
</g>
<g clip-path="url(#clip5)" clip-rule="nonzero">
<g clip-path="url(#clip6)" clip-rule="nonzero">
<path style=" stroke:none;fill-rule:nonzero;fill:rgb(58.4%,34.5%,69.8%);fill-opacity:0.9;" d="M 110 356.5 L 450 356.5 L 450 543.5 L 110 543.5 Z M 110 356.5 "/>
</g>
</g>
<g clip-path="url(#clip7)" clip-rule="nonzero">
<g clip-path="url(#clip8)" clip-rule="nonzero">
<path style=" stroke:none;fill-rule:nonzero;fill:rgb(100%,100%,100%);fill-opacity:0.3;" d="M 241.925781 234.296875 C 241.925781 238.054688 238.882812 241.097656 235.125 241.097656 C 231.371094 241.097656 228.324219 238.054688 228.324219 234.296875 C 228.324219 230.542969 231.371094 227.5 235.125 227.5 C 238.882812 227.5 241.925781 230.542969 241.925781 234.296875 "/>
</g>
</g>
<g clip-path="url(#clip9)" clip-rule="nonzero">
<g clip-path="url(#clip10)" clip-rule="nonzero">
<path style=" stroke:none;fill-rule:nonzero;fill:rgb(100%,100%,100%);fill-opacity:0.3;" d="M 254.960938 170.980469 C 254.960938 174.734375 251.914062 177.777344 248.160156 177.777344 C 244.40625 177.777344 241.359375 174.734375 241.359375 170.980469 C 241.359375 167.222656 244.40625 164.179688 248.160156 164.179688 C 251.914062 164.179688 254.960938 167.222656 254.960938 170.980469 "/>
</g>
</g>
<g clip-path="url(#clip11)" clip-rule="nonzero">
<g clip-path="url(#clip12)" clip-rule="nonzero">
<path style=" stroke:none;fill-rule:nonzero;fill:rgb(100%,100%,100%);fill-opacity:0.3;" d="M 284.863281 208.949219 C 284.863281 212.707031 281.820312 215.75 278.0625 215.75 C 274.308594 215.75 271.265625 212.707031 271.265625 208.949219 C 271.265625 205.195312 274.308594 202.152344 278.0625 202.152344 C 281.820312 202.152344 284.863281 205.195312 284.863281 208.949219 "/>
</g>
</g>
<g clip-path="url(#clip13)" clip-rule="nonzero">
<g clip-path="url(#clip14)" clip-rule="nonzero">
<path style=" stroke:none;fill-rule:nonzero;fill:rgb(100%,100%,100%);fill-opacity:0.3;" d="M 363.625 356.480469 C 363.625 360.238281 360.582031 363.28125 356.824219 363.28125 C 353.070312 363.28125 350.027344 360.238281 350.027344 356.480469 C 350.027344 352.726562 353.070312 349.683594 356.824219 349.683594 C 360.582031 349.683594 363.625 352.726562 363.625 356.480469 "/>
</g>
</g>
<g clip-path="url(#clip15)" clip-rule="nonzero">
<g clip-path="url(#clip16)" clip-rule="nonzero">
<path style=" stroke:none;fill-rule:nonzero;fill:rgb(100%,100%,100%);fill-opacity:0.3;" d="M 244.582031 354.007812 C 244.582031 357.761719 241.539062 360.804688 237.78125 360.804688 C 234.027344 360.804688 230.984375 357.761719 230.984375 354.007812 C 230.984375 350.25 234.027344 347.207031 237.78125 347.207031 C 241.539062 347.207031 244.582031 350.25 244.582031 354.007812 "/>
</g>
</g>
<g clip-path="url(#clip17)" clip-rule="nonzero">
<g clip-path="url(#clip18)" clip-rule="nonzero">
<path style=" stroke:none;fill-rule:nonzero;fill:rgb(100%,100%,100%);fill-opacity:0.3;" d="M 296.277344 251.238281 C 296.277344 254.996094 293.234375 258.039062 289.476562 258.039062 C 285.722656 258.039062 282.675781 254.996094 282.675781 251.238281 C 282.675781 247.484375 285.722656 244.4375 289.476562 244.4375 C 293.234375 244.4375 296.277344 247.484375 296.277344 251.238281 "/>
</g>
</g>
<g clip-path="url(#clip19)" clip-rule="nonzero">
<g clip-path="url(#clip20)" clip-rule="nonzero">
<path style=" stroke:none;fill-rule:nonzero;fill:rgb(100%,100%,100%);fill-opacity:0.3;" d="M 274.003906 314.09375 C 274.003906 317.847656 270.957031 320.894531 267.203125 320.894531 C 263.445312 320.894531 260.402344 317.847656 260.402344 314.09375 C 260.402344 310.335938 263.445312 307.292969 267.203125 307.292969 C 270.957031 307.292969 274.003906 310.335938 274.003906 314.09375 "/>
</g>
</g>
<g clip-path="url(#clip21)" clip-rule="nonzero">
<g clip-path="url(#clip22)" clip-rule="nonzero">
<path style=" stroke:none;fill-rule:nonzero;fill:rgb(100%,100%,100%);fill-opacity:0.3;" d="M 249.601562 208.671875 C 249.601562 212.425781 246.558594 215.472656 242.800781 215.472656 C 239.046875 215.472656 236.003906 212.425781 236.003906 208.671875 C 236.003906 204.914062 239.046875 201.871094 242.800781 201.871094 C 246.558594 201.871094 249.601562 204.914062 249.601562 208.671875 "/>
</g>
</g>
<g clip-path="url(#clip23)" clip-rule="nonzero">
<g clip-path="url(#clip24)" clip-rule="nonzero">
<path style=" stroke:none;fill-rule:nonzero;fill:rgb(100%,100%,100%);fill-opacity:0.3;" d="M 244.535156 173.308594 C 244.535156 177.066406 241.488281 180.109375 237.734375 180.109375 C 233.980469 180.109375 230.933594 177.066406 230.933594 173.308594 C 230.933594 169.554688 233.980469 166.511719 237.734375 166.511719 C 241.488281 166.511719 244.535156 169.554688 244.535156 173.308594 "/>
</g>
</g>
<g clip-path="url(#clip25)" clip-rule="nonzero">
<g clip-path="url(#clip26)" clip-rule="nonzero">
<path style=" stroke:none;fill-rule:nonzero;fill:rgb(100%,100%,100%);fill-opacity:0.3;" d="M 250.710938 330.230469 C 250.710938 333.984375 247.664062 337.027344 243.910156 337.027344 C 240.152344 337.027344 237.109375 333.984375 237.109375 330.230469 C 237.109375 326.472656 240.152344 323.429688 243.910156 323.429688 C 247.664062 323.429688 250.710938 326.472656 250.710938 330.230469 "/>
</g>
</g>
<g clip-path="url(#clip27)" clip-rule="nonzero">
<g clip-path="url(#clip28)" clip-rule="nonzero">
<path style=" stroke:none;fill-rule:nonzero;fill:rgb(100%,100%,100%);fill-opacity:0.3;" d="M 214.882812 289.253906 C 214.882812 293.007812 211.835938 296.054688 208.082031 296.054688 C 204.324219 296.054688 201.28125 293.007812 201.28125 289.253906 C 201.28125 285.5 204.324219 282.453125 208.082031 282.453125 C 211.835938 282.453125 214.882812 285.5 214.882812 289.253906 "/>
</g>
</g>
<g clip-path="url(#clip29)" clip-rule="nonzero">
<g clip-path="url(#clip30)" clip-rule="nonzero">
<path style=" stroke:none;fill-rule:nonzero;fill:rgb(100%,100%,100%);fill-opacity:0.3;" d="M 350.300781 221.59375 C 350.300781 225.351562 347.257812 228.394531 343.503906 228.394531 C 339.746094 228.394531 336.703125 225.351562 336.703125 221.59375 C 336.703125 217.839844 339.746094 214.792969 343.503906 214.792969 C 347.257812 214.792969 350.300781 217.839844 350.300781 221.59375 "/>
</g>
</g>
<g clip-path="url(#clip31)" clip-rule="nonzero">
<g clip-path="url(#clip32)" clip-rule="nonzero">
<path style=" stroke:none;fill-rule:nonzero;fill:rgb(100%,100%,100%);fill-opacity:0.3;" d="M 329.523438 290.09375 C 329.523438 293.847656 326.480469 296.894531 322.722656 296.894531 C 318.96875 296.894531 315.921875 293.847656 315.921875 290.09375 C 315.921875 286.335938 318.96875 283.292969 322.722656 283.292969 C 326.480469 283.292969 329.523438 286.335938 329.523438 290.09375 "/>
</g>
</g>
<g clip-path="url(#clip33)" clip-rule="nonzero">
<g clip-path="url(#clip34)" clip-rule="nonzero">
<path style=" stroke:none;fill-rule:nonzero;fill:rgb(100%,100%,100%);fill-opacity:0.3;" d="M 215.03125 328.109375 C 215.03125 331.867188 211.984375 334.910156 208.230469 334.910156 C 204.476562 334.910156 201.429688 331.867188 201.429688 328.109375 C 201.429688 324.355469 204.476562 321.3125 208.230469 321.3125 C 211.984375 321.3125 215.03125 324.355469 215.03125 328.109375 "/>
</g>
</g>
<g clip-path="url(#clip35)" clip-rule="nonzero">
<g clip-path="url(#clip36)" clip-rule="nonzero">
<path style=" stroke:none;fill-rule:nonzero;fill:rgb(100%,100%,100%);fill-opacity:0.3;" d="M 216.359375 272.949219 C 216.359375 276.703125 213.3125 279.75 209.558594 279.75 C 205.800781 279.75 202.757812 276.703125 202.757812 272.949219 C 202.757812 269.195312 205.800781 266.148438 209.558594 266.148438 C 213.3125 266.148438 216.359375 269.195312 216.359375 272.949219 "/>
</g>
</g>
<path style="fill:none;stroke-width:20;stroke-linecap:butt;stroke-linejoin:miter;stroke:rgb(0%,0%,0%);stroke-opacity:1;stroke-miterlimit:10;" d="M 324.515625 215.761719 C 323.191406 213.292969 322.5 210.535156 322.5 207.734375 L 322.5 93 C 322.5 83.609375 314.890625 76 305.5 76 L 254.5 76 C 245.109375 76 237.5 83.609375 237.5 93 L 237.5 207.734375 C 237.5 210.535156 236.808594 213.292969 235.484375 215.761719 L 123.40625 424.972656 C 120.585938 430.242188 120.738281 436.605469 123.808594 441.734375 C 126.878906 446.859375 132.414062 450 138.394531 450 L 421.605469 450 C 427.585938 450 433.121094 446.859375 436.191406 441.734375 C 439.261719 436.605469 439.414062 430.242188 436.59375 424.972656 L 324.515625 215.761719 "/>
</g>
</svg>
