<svg xmlns="http://www.w3.org/2000/svg" width="500pt" height="500pt" viewBox="0 0 500 500">
  <path style="stroke:none;fill-rule:nonzero;fill:#32cd32;fill-opacity:1" d="m386.4 293.6-2.3-4.9-2.6-4.5-2.9-4.3-3.1-4-3.4-3.6-3.6-3.4-4-3.1-4.1-2.8-4.3-2.5-4.4-2.1-4.5-1.9-4.5-1.5-4.6-1.1-4.6-.8-4.7-.5-4.8-.2-5 .2-5 .6-4.8 1.1-4.8 1.5-4.8 2-4.7 2.2-4.7 2.8-4.6 3.2v-19.6l4-3 4.1-3.8 4.1-4.2 4.2-4.8 4-5.2 3.3-5.3 2.8-5.4 2.3-5.5h134.4l.4 13.6.6 15.7.2 11.9-.2 12-.6 16.8-.4 14.4"/>
  <path style="stroke:none;fill-rule:nonzero;fill:#cb3c33;fill-opacity:1" d="m213.2 450-14.2-.4-13.3-.5-12.4-.7-11.5-.8-10.7-1-9.8-1.1-8.9-1.3-8-1.4-7.4-1.7-7-2-6.4-2.3-6-2.7-5.6-3-5.1-3.4-4.7-3.7-4.2-4-3.8-4.5-3.6-5-3.2-5.6-2.9-6.1-2.6-6.7-2.3-7.2-2-7.8-1.6-8.3h74l4.6 4.1 4.8 3.7 5.3 3.1 5.5 2.7 3 1.1 3 1 3.3.8 3.4.7 3.7.5 3.7.4 4 .2 4.1.1 5-.2 4.5-.4 4.2-.8 3.7-1 3.7-1.4 4.1-1.9 4.6-2.3 5-2.8"/>
  <path style="stroke:none;fill-rule:nonzero;fill:#4063d8;fill-opacity:1" d="m113.6 342.8 2.4 5.8 2.7 5.4 3 5 3.5 4.6H57.6"/>
  <path style="stroke:none;fill-rule:nonzero;fill:#7fff00;fill-opacity:1" d="m54.8 359.6-1.5-12.7-1.1-14.3-.9-16-.5-17.8h62.8l-1.6 4.6-1.1 5.1-.7 5.5-.2 6 .1 4.7.5 4.5.7 4.3 1.1 4.1"/>
  <path style="stroke:none;fill-rule:nonzero;fill:#cb3c33;fill-opacity:1" d="m177.6 382.4-6.7-.2-6.1-.7-5.5-1.1-2.5-.8-2.4-.8-4.5-2-4.4-2.3-4.2-2.7-4.1-3h76v2l-5.7 3.1-5 2.6-4.3 2-3.6 1.5-3.5 1-4 .8-4.5.4"/>
  <path style="stroke:none;fill-rule:nonzero;fill:#32cd32;fill-opacity:1" d="m131.6 363.6-1.7-1.9-1.7-2-1.7-2.5-1.7-2.7-3.4-6.3-3.4-7.4 95.2-40.8v63.6"/>
  <path style="stroke:none;fill-rule:nonzero;fill:#90ee90;fill-opacity:1" d="M223.2 368.8H278L218.4 448v-74.8"/>
  <path style="stroke:none;fill-rule:nonzero;fill:#9558b2;fill-opacity:1" d="M280.4 373.6V450h-57.2"/>
  <path style="stroke:none;fill-rule:nonzero;fill:#cb3c33;fill-opacity:1" d="m116.8 336-.9-4.4-.6-4.2-.4-4.2-.1-4 .2-6 .8-5.3.6-2.5.6-2.3.9-2.2.9-2.1H204"/>
  <path style="stroke:none;fill-rule:nonzero;fill:#4063d8;fill-opacity:1" d="m50.8 293.6-.1-11.6-.3-8.4L50 250l.4-22.8.3-7.5.1-10.5h136l1.5 5.3 2 5.2 2.6 5.1 3.1 5 3.6 4.7 4.1 4.3 4.5 4 5 3.6v16.4l-4.2-2.4-4.2-2.2-4.4-1.7-4.4-1.5-4.6-1.1-4.6-.9-4.8-.4-4.8-.2-5.2.2-5.2.6-5 1-4.9 1.3-4.7 1.7-4.7 2.2-4.5 2.5-4.4 2.9-4.2 3.2-3.8 3.2-3.4 3.5-3 3.5-2.8 3.7-2.3 3.7-2 4-1.5 4"/>
  <path style="stroke:none;fill-rule:nonzero;fill:#40e0d0;fill-opacity:1" d="m120.8 293.6 1.6-3.5 2-3.5 2.2-3.3 2.6-3.2 2.8-3.1 3.2-3 3.4-2.8 3.8-2.8 4-2.5 4-2.2 4.3-1.9 4.3-1.5 4.5-1.2 4.5-.8 4.8-.5 4.8-.2 4.8.2 4.8.5 4.6.9 4.5 1.2 4.4 1.6 4.3 1.9 4.1 2.3 4.1 2.6v24.8"/>
  <path style="stroke:none;fill-rule:nonzero;fill:#cb3c33;fill-opacity:1" d="m218.4 302.4 20.8 21.6-.5 5-1.1 5.4-1.7 5.5-2.3 5.7-2.8 5.5-3 4.9-1.6 2.2-1.8 2-1.7 2-1.9 1.8-2.4 3.2"/>
  <path style="stroke:none;fill-rule:nonzero;fill:#389826;fill-opacity:1" d="m227.6 363.6 2.9-3.7 2.6-4 2.5-4.1 2.2-4.4 2-4.5 1.5-4.4 1.3-4.3 1-4.2 3.6 4.6 3.7 4.5 3.8 4.4 4 4.3 4.1 4.1 4.3 4 4.4 4 4.5 3.7"/>
  <path style="stroke:none;fill-rule:nonzero;fill:#cb3c33;fill-opacity:1" d="M221.6 298.8h13.6l1.6 4.4 1.2 4.6.8 4.6.4 4.8M264.8 347.2l-5.3-5.6-5.2-6-5-6.4-4.9-6.8-.3-6.4-.7-6.1-1.3-5.7-1.7-5.4H262l-1.7 5-.9 3.8-.5 3.6-.1 4.4v4.8l.4 4.5.4 4.3.7 4.1.8 3.8 1 3.6 1.3 3.4M228 284l3.3 5.6 1.9 4h-12.4"/>
  <path style="stroke:none;fill-rule:nonzero;fill:#9558b2;fill-opacity:1" d="m218.4 273.2 6.4 6.8-6.4 8.8"/>
  <path style="stroke:none;fill-rule:nonzero;fill:#ff69b4;fill-opacity:1" d="m280.4 359.6-4.3-5-3.6-4.7-2.9-4.6-2.2-4.5-.9-2.3-.8-2.6-.6-2.8-.5-3-.8-6.8-.2-7.7.1-4.2.5-3.8 1-4 1.6-4.8h13.6"/>
  <path style="stroke:none;fill-rule:nonzero;fill:#9558b2;fill-opacity:1" d="m328.4 382.4-4.8-.2-4.8-.7-4.9-1-4.8-1.5-4.9-2-4.8-2.3-5-2.7-4.8-3.2h74.8l-4 3.2-4.1 2.7-4.3 2.4-4.4 1.9-4.6 1.5-4.7 1-4.9.7"/>
  <path style="stroke:none;fill-rule:nonzero;fill:#9558b2;fill-opacity:1" d="m285.6 371.6 4.4 3 4.6 3 5 2.6 5.4 2.4 2.8 1 2.8 1 2.8.8 3 .6 5.9 1 6.1.2h3l3.1-.3 3-.4 3-.5 3-.7 2.8-.8 2.9-1 2.8-1.1 2.8-1.3 2.6-1.4 2.6-1.5 2.5-1.6 2.4-1.8 2.3-1.9 2.3-2 2.1-2.1h72l-1.7 8.3-2 7.8-2.2 7.2-2.6 6.7-3 6.1-3.1 5.6-3.6 5-3.8 4.5-4.2 4-4.7 3.7-5.2 3.4-5.6 3-6 2.7-6.5 2.3-7 2-7.4 1.7-8 1.4-9 1.3-10 1.1-10.7 1-11.6.8-12.5.7-13.3.5-14.3.4"/>
  <path style="stroke:none;fill-rule:nonzero;fill:#7fffd4;fill-opacity:1" d="m201.2 142.8-2.4 2.5-2.2 2.6-2 2.7-2 2.8-1.6 2.8-1.5 3-1.4 3-1.1 3-1.8 6.2-1.4 6.1-.7 6-.3 6.1.1 3.8.5 3.7.7 3.7 1.1 3.6H56.4"/>
  <path style="stroke:none;fill-rule:nonzero;fill:#ff69b4;fill-opacity:1" d="m50.8 201.2.6-19.7.9-17.3 1.3-15 .7-6.7.9-6.1H204"/>
  <path style="stroke:none;fill-rule:nonzero;fill:#9558b2;fill-opacity:1" d="m228 276.4-4.2-4.7-5.4-5.3v-17.2l6.6 2.5 6.7 1.9 6.7 1.3 3.4.4 3.4.3"/>
  <path style="stroke:none;fill-rule:nonzero;fill:#ff0;fill-opacity:1" d="m213.2 240.4-3.9-3.1-3.5-3.5-3.3-3.6-2.9-4-2.6-4.1-2.1-4.3-1.7-4.2-1.2-4.4h21.2"/>
  <path style="stroke:none;fill-rule:nonzero;fill:gold;fill-opacity:1" d="m238.4 293.6-1.7-3.7-1.7-3.5-1.9-3.3-1.9-3.1 20-24.4 4.1-.1 4-.3 3.9-.5 3.7-.7 3.6-1 3.4-1 3.3-1.3 3.2-1.5V270l-6.5 6.4-2.3 2.6-1.8 2.2-1.5 2.3-1.6 2.8-1.5 3.4-1.6 3.9"/>
  <path style="stroke:none;fill-rule:nonzero;fill:#9558b2;fill-opacity:1" d="m268.8 293.6 2.6-5.3 2.4-3.9 1.2-1.7 1.5-1.7 3.9-3.8v16.4"/>
  <path style="stroke:none;fill-rule:nonzero;fill:#389826;fill-opacity:1" d="m388 328.8-.6 5-1.2 4.7-1.5 4.6-2.1 4.4-2.5 4.3-3 4-3.5 4-4 3.8H296M285.6 298.8h98l1.5 3.7 1.5 3.9 1.1 3.7.7 3.1.3 2.4.1 2.5-.1 2.5-.3 2.6-102.8 39.2M248.8 250.8l-4-.2-4-.4-4-.6-3.8-.8-3.8-1-3.7-1.2-3.6-1.4-3.5-1.6v-34.4H278"/>
  <path style="stroke:none;fill-rule:nonzero;fill:orange;fill-opacity:1" d="m190.8 204.4-1.2-3-.9-3.2-.5-3.3-.2-3.3v-3.7l.4-3.7.4-3.6.6-3.7.9-3.6 1-3.6 1.1-3.5 1.4-3.6 1.6-3.5 1.8-3.3 2-3.3 2.3-3 2.6-3 2.8-2.8 3-2.7 3.3-2.6v66"/>
  <path style="stroke:none;fill-rule:nonzero;fill:#cb3c33;fill-opacity:1" d="M280.4 214.4V244l-2.6 1.3-2.8 1.2-2.9 1-3.1 1-3.3.8-3.5.6-3.6.5-3.8.4"/>
  <path style="stroke:none;fill-rule:nonzero;fill:#4063d8;fill-opacity:1" d="m56 131.2 1.7-8.3 2-7.8 2.2-7.2 2.5-6.7 3-6.1 3.1-5.6 3.5-5 3.8-4.5 4.2-4 4.6-3.7 5.1-3.4 5.5-3 6-2.7 6.5-2.3 7-2 7.3-1.7 8-1.4 9-1.3 9.8-1.1 10.7-1 11.6-.8 12.5-.7 13.3-.5 14.3-.4v81.2"/>
  <path style="stroke:none;fill-rule:nonzero;fill:#cb3c33;fill-opacity:1" d="m285.6 272.8 3.7-3 4-2.9 4.1-2.6 4.4-2.3 2.3-1 2.5-1 2.5-.7 2.7-.6 2.9-.5 3-.3 6.3-.3 4.4.1 4.3.5 4.2.7 4.2 1 4 1.3 4 1.6 4 1.8 3.9 2.2 3.7 2.4 3.6 2.7 3.3 3 3.1 3.2 3 3.5 2.7 3.7 2.5 4 2.3 4.3h-95.6"/>
  <path style="stroke:none;fill-rule:nonzero;fill:#9558b2;fill-opacity:1" d="M285.6 209.2h23.6l-1.8 4.5-2.3 4.5-2.7 4.3-3.2 4.3-3.4 4-3.4 3.6-3.4 3.2-3.4 2.8"/>
  <path style="stroke:none;fill-rule:nonzero;fill:#4063d8;fill-opacity:1" d="m218.4 140 58.8 64.4h-58.8"/>
  <path style="stroke:none;fill-rule:nonzero;fill:#ff83fa;fill-opacity:1" d="m376.4 363.6 3.7-4 3.2-4.2 2.8-4.3 2.3-4.5 1.9-4.7 1.4-4.9 1-5 .5-5.2 55.6-24.8-.7 18.8-1 16.6-1.2 14.2-1.5 12"/>
  <path style="stroke:none;fill-rule:nonzero;fill:#cb3c33;fill-opacity:1" d="M221.6 136.4h58.8v64"/>
  <path style="stroke:none;fill-rule:nonzero;fill:#9558b2;fill-opacity:1" d="m312.4 199.2-1.6 5.2h-16"/>
  <path style="stroke:none;fill-rule:nonzero;fill:#cb3c33;fill-opacity:1" d="m393.6 317.2-.1-3.7-.3-2.3-.9-3.5-1-3.2-1.2-3-1.3-2.7H444l-50.4 22"/>
  <path style="stroke:none;fill-rule:nonzero;fill:#ff69b4;fill-opacity:1" d="m224.8 131.2 2.8-1.3 2.7-1.1 2.7-1 2.6-.6 2.7-.5 3-.4 3.2-.2 3.5-.1h3.6l3.4.3 3.4.4 3.3.6 3.2.7 3.1 1 3 1 3 1.2"/>
  <path style="stroke:none;fill-rule:nonzero;fill:orange;fill-opacity:1" d="m285.6 138.4 2.7 1.8 2.7 2 2.5 2.2 2.5 2.3 2.3 2.6 2.3 2.8 2.1 3 2.1 3.1 1.9 3.3 1.6 3.5 1.4 3.7 1.1 3.8.9 4 .6 4.2.4 4.4.1 4.5v4.4l-27.2 9.6"/>
  <path style="stroke:none;fill-rule:nonzero;fill:#32cd32;fill-opacity:1" d="M218.4 50h57.2l-57.2 76.4"/>
  <path style="stroke:none;fill-rule:nonzero;fill:#cb3c33;fill-opacity:1" d="m280.4 129.2-3.7-1.9-3.8-1.6-3.9-1.4-4-1.1-4.2-.9-4.3-.6-4.4-.4-4.5-.1h-3l-3 .3-3 .4-2.9.5-2.8.7-2.8.8-2.7 1-2.6 1.1 55.6-74"/>
  <path style="stroke:none;fill-rule:nonzero;fill:#ff0;fill-opacity:1" d="m317.6 189.6-.1-4.5-.4-4.4-.6-4.2-.8-4-1-3.9-1.4-3.7-1.5-3.5-1.8-3.4-2-3.2-2-3.1-2.2-3-2.3-2.7-2.4-2.6-2.5-2.5-2.7-2.3-2.7-2.2H444L317.6 192"/>
  <path style="stroke:none;fill-rule:nonzero;fill:#ff8247;fill-opacity:1" d="m316 204.4.8-2.6.8-4.6 127.6-56 1.3 13.4 1 15 .8 16.6.5 18.2"/>
  <path style="stroke:none;fill-rule:nonzero;fill:#389826;fill-opacity:1" d="m285.6 50 14.3.4 13.3.5 12.5.7 11.6.8 10.8 1 9.8 1.1 9 1.3 8.1 1.4 7.4 1.7 7 2 6.5 2.3 6 2.7 5.6 3 5.2 3.4 4.7 3.7 4.2 4 3.8 4.5 3.6 5 3.2 5.6 2.9 6.1 2.6 6.7 2.3 7.2 2 7.8 1.6 8.3h-158"/>
</svg>
