<?xml version="1.0" encoding="UTF-8" standalone="no"?>
<!DOCTYPE svg PUBLIC "-//W3C//DTD SVG 1.1//EN" "http://www.w3.org/Graphics/SVG/1.1/DTD/svg11.dtd">
<svg width="100%" height="100%" viewBox="0 0 474 198" version="1.1" xmlns="http://www.w3.org/2000/svg" xmlns:xlink="http://www.w3.org/1999/xlink" xml:space="preserve" xmlns:serif="http://www.serif.com/" style="fill-rule:evenodd;clip-rule:evenodd;stroke-linejoin:round;stroke-miterlimit:2;">
    <g transform="matrix(1,0,0,1,2.12354,-98.1548)">
        <path d="M243.21,172.251C243.21,175.564 242.831,178.238 242.076,180.272C241.317,182.311 240.24,183.895 238.844,185.019C237.449,186.143 235.774,186.899 233.82,187.281C231.87,187.658 229.698,187.852 227.308,187.852C224.076,187.852 221.603,187.354 219.884,186.358C218.17,185.367 217.311,184.174 217.311,182.783C217.311,181.624 217.791,180.646 218.75,179.852C219.71,179.058 220.997,178.659 222.61,178.659C223.823,178.659 224.791,178.985 225.515,179.629C226.239,180.272 226.837,180.912 227.308,181.543C227.844,182.238 228.302,182.701 228.669,182.933C229.039,183.165 229.375,183.281 229.681,183.281C230.317,183.281 230.806,182.907 231.146,182.161C231.482,181.418 231.648,179.968 231.648,177.817L231.648,136.977L243.21,133.848L243.21,172.251ZM259.675,134.942L259.675,161.221C259.675,161.951 259.819,162.637 260.107,163.285C260.391,163.929 260.787,164.487 261.293,164.951C261.799,165.414 262.384,165.783 263.06,166.066C263.731,166.35 264.456,166.487 265.232,166.487C266.104,166.487 267.099,166.006 268.311,165.174C270.226,163.852 271.39,162.942 271.39,161.869L271.39,134.942L282.901,134.942L282.901,172.251L271.39,172.251L271.39,168.775C269.877,170.032 268.259,171.041 266.545,171.805C264.826,172.564 263.16,172.946 261.546,172.946C259.662,172.946 257.909,172.641 256.295,172.028C254.677,171.414 253.264,170.577 252.056,169.517C250.843,168.461 249.892,167.217 249.199,165.792C248.51,164.367 248.165,162.843 248.165,161.221L248.165,134.942L259.675,134.942ZM299.043,172.251L287.585,172.251L287.585,119.938L299.043,116.809L299.043,172.251ZM303.832,136.977L315.342,133.848L315.342,172.251L303.832,172.251L303.832,136.977ZM339.392,152.976C338.284,153.44 337.163,153.976 336.034,154.59C334.908,155.204 333.879,155.873 332.954,156.603C332.03,157.328 331.279,158.109 330.708,158.938C330.137,159.766 329.849,160.624 329.849,161.521C329.849,162.217 329.945,162.886 330.128,163.534C330.311,164.178 330.573,164.732 330.913,165.195C331.249,165.659 331.62,166.032 332.021,166.315C332.427,166.594 332.863,166.736 333.334,166.736C334.276,166.736 335.227,166.453 336.186,165.89C337.146,165.328 338.214,164.616 339.392,163.757L339.392,152.976ZM350.955,172.251L339.392,172.251L339.392,169.268C338.755,169.8 338.132,170.29 337.525,170.736C336.919,171.182 336.239,171.573 335.48,171.903C334.725,172.234 333.875,172.491 332.928,172.676C331.986,172.856 330.878,172.946 329.6,172.946C327.847,172.946 326.272,172.697 324.877,172.204C323.481,171.706 322.295,171.028 321.318,170.165C320.341,169.302 319.595,168.285 319.071,167.109C318.552,165.933 318.291,164.65 318.291,163.26C318.291,161.835 318.565,160.543 319.124,159.384C319.678,158.225 320.437,157.182 321.396,156.255C322.356,155.328 323.472,154.5 324.75,153.77C326.028,153.041 327.402,152.371 328.868,151.758C330.329,151.144 331.855,150.582 333.434,150.071C335.017,149.556 336.583,149.067 338.132,148.603L339.392,148.307L339.392,144.629C339.392,142.247 338.93,140.556 338.005,139.56C337.08,138.569 335.842,138.071 334.293,138.071C332.475,138.071 331.214,138.504 330.507,139.363C329.801,140.225 329.448,141.268 329.448,142.492C329.448,143.187 329.369,143.869 329.221,144.53C329.068,145.191 328.806,145.77 328.436,146.268C328.069,146.766 327.537,147.165 326.848,147.461C326.159,147.758 325.291,147.908 324.249,147.908C322.63,147.908 321.318,147.453 320.31,146.543C319.298,145.629 318.797,144.479 318.797,143.088C318.797,141.796 319.241,140.599 320.131,139.487C321.025,138.376 322.225,137.423 323.743,136.633C325.256,135.835 327.005,135.208 328.994,134.745C330.979,134.281 333.081,134.05 335.301,134.05C338.031,134.05 340.378,134.29 342.349,134.766C344.316,135.247 345.939,135.934 347.217,136.831C348.499,137.723 349.441,138.801 350.043,140.058C350.654,141.316 350.955,142.728 350.955,144.281L350.955,172.251Z" style="fill-rule:nonzero;"/>
    </g>
    <g transform="matrix(0,-1,-1,0,420.196,263.758)">
        <path d="M237.662,172.594C233.413,172.594 229.971,176.092 229.971,180.41C229.971,184.723 233.413,188.226 237.662,188.226C241.911,188.226 245.353,184.723 245.353,180.41C245.353,176.092 241.911,172.594 237.662,172.594" style="fill:rgb(64,98,215);fill-rule:nonzero;"/>
    </g>
    <g transform="matrix(0,-1,-1,0,518.089,329.643)">
        <path d="M319.551,188.598C315.306,188.598 311.86,192.096 311.86,196.414C311.86,200.732 315.306,204.23 319.551,204.23C323.8,204.23 327.242,200.732 327.242,196.414C327.242,192.096 323.8,188.598 319.551,188.598" style="fill:rgb(56,151,37);fill-rule:nonzero;"/>
    </g>
    <g transform="matrix(0,-1,-1,0,511.476,355.038)">
        <path d="M328.942,172.594C324.693,172.594 321.251,176.097 321.251,180.41C321.251,184.728 324.693,188.226 328.942,188.226C333.191,188.226 336.633,184.728 336.633,180.41C336.633,176.097 333.191,172.594 328.942,172.594" style="fill:rgb(148,87,177);fill-rule:nonzero;"/>
    </g>
    <g transform="matrix(0,-1,-1,0,492.695,336.257)">
        <path d="M310.161,172.594C305.912,172.594 302.47,176.092 302.47,180.41C302.47,184.728 305.912,188.226 310.161,188.226C314.41,188.226 317.852,184.728 317.852,180.41C317.852,176.092 314.41,172.594 310.161,172.594" style="fill:rgb(202,59,51);fill-rule:nonzero;"/>
    </g>
    <g transform="matrix(1,0,0,1,2.12354,-95.5978)">
        <path d="M413.521,170.065C409.748,170.065 406.281,169.279 403.127,167.713C399.969,166.146 397.466,163.936 395.612,161.086C393.758,158.237 392.829,154.988 392.829,151.34C392.829,147.82 393.676,144.601 395.368,141.687C397.06,138.777 399.468,136.456 402.591,134.726C405.714,132.996 409.255,132.134 413.224,132.134C416.805,132.134 420.172,132.889 423.326,134.391C426.483,135.898 429.035,138.056 430.989,140.872C432.939,143.692 433.916,146.988 433.916,150.764C433.916,154.284 433.069,157.52 431.377,160.464C429.685,163.408 427.277,165.743 424.154,167.472C421.031,169.202 417.485,170.065 413.521,170.065ZM373.704,170.065C370.254,170.065 367.083,169.232 364.187,167.567C361.291,165.902 359.014,163.679 357.357,160.893C355.699,158.108 354.866,155.116 354.866,151.915C354.866,148.589 355.73,145.387 357.452,142.314C359.18,139.241 361.552,136.777 364.579,134.919C367.602,133.061 370.969,132.134 374.681,132.134C377.088,132.134 379.426,132.533 381.703,133.335C383.98,134.134 385.838,135.19 387.268,136.503C388.699,137.816 389.414,139.241 389.414,140.777C389.414,142.25 388.782,143.434 387.513,144.331C386.243,145.228 384.765,145.674 383.072,145.674C381.576,145.674 380.307,145.292 379.265,144.524C378.222,143.756 377.673,142.73 377.607,141.451C377.542,139.786 377.315,138.567 376.923,137.799C376.534,137.031 375.523,136.649 373.9,136.649C371.492,136.649 369.586,137.623 368.191,139.576C366.791,141.529 366.093,144.202 366.093,147.597C366.093,151.503 366.904,155.039 368.531,158.206C370.158,161.374 372.565,162.957 375.754,162.957C378.03,162.957 379.98,162.129 381.607,160.464C383.234,158.799 384.73,156.494 386.095,153.55L391.464,154.988C390.164,159.726 387.966,163.425 384.878,166.082C381.786,168.739 378.061,170.065 373.704,170.065ZM414.69,165.743C417.163,165.743 418.951,164.575 420.059,162.241C421.162,159.902 421.716,156.94 421.716,153.357C421.716,148.747 420.87,144.795 419.178,141.498C417.485,138.202 415.244,136.55 412.443,136.55C409.97,136.55 408.104,137.786 406.834,140.25C405.565,142.713 404.933,145.704 404.933,149.228C404.933,153.451 405.809,157.262 407.567,160.653C409.325,164.048 411.698,165.743 414.69,165.743ZM436.746,132.709L448.161,132.709L448.161,135.687C451.611,133.254 455.383,132.039 459.483,132.039C463.583,132.039 466.558,133.078 468.411,135.159C470.265,137.241 471.194,139.975 471.194,143.37L471.194,169.777L459.972,169.777L459.972,144.425C459.972,142.632 459.645,141.211 458.995,140.151C458.345,139.095 457.368,138.567 456.068,138.567C454.049,138.567 451.414,139.915 448.161,142.601L448.161,169.777L436.746,169.777L436.746,132.709Z" style="fill-rule:nonzero;"/>
    </g>
    <g transform="matrix(1,0,0,1,2.12354,0.738248)">
        <g transform="matrix(111.3,0,0,109.519,245.821,147.63)">
            <path d="M0.445,-0.212L0.445,-0L0.017,-0L0.017,-0.212L0.217,-0.381C0.224,-0.387 0.229,-0.393 0.232,-0.398C0.235,-0.403 0.236,-0.408 0.236,-0.414C0.236,-0.42 0.234,-0.424 0.23,-0.428C0.226,-0.431 0.22,-0.432 0.212,-0.432C0.187,-0.432 0.159,-0.431 0.129,-0.428C0.098,-0.424 0.07,-0.42 0.044,-0.415L0.044,-0.612C0.069,-0.619 0.102,-0.625 0.144,-0.63C0.185,-0.635 0.225,-0.637 0.264,-0.637C0.323,-0.637 0.37,-0.622 0.404,-0.593C0.437,-0.563 0.454,-0.522 0.454,-0.471C0.454,-0.434 0.449,-0.404 0.439,-0.379C0.429,-0.354 0.412,-0.331 0.388,-0.31L0.277,-0.212L0.445,-0.212Z" style="fill-rule:nonzero;"/>
        </g>
        <g transform="matrix(111.3,0,0,109.519,297.464,147.63)">
            <path d="M0.506,-0.074C0.487,-0.044 0.46,-0.022 0.426,-0.009C0.391,0.005 0.345,0.012 0.287,0.012C0.226,0.012 0.178,0.006 0.143,-0.007C0.108,-0.02 0.082,-0.041 0.063,-0.07C0.047,-0.094 0.035,-0.125 0.029,-0.164C0.022,-0.203 0.018,-0.252 0.018,-0.313C0.018,-0.431 0.038,-0.515 0.077,-0.564C0.116,-0.612 0.186,-0.637 0.287,-0.637C0.348,-0.637 0.396,-0.631 0.431,-0.618C0.466,-0.605 0.492,-0.585 0.511,-0.556C0.526,-0.532 0.538,-0.501 0.545,-0.462C0.552,-0.423 0.555,-0.374 0.555,-0.313C0.555,-0.257 0.551,-0.209 0.543,-0.17C0.535,-0.131 0.523,-0.099 0.506,-0.074ZM0.325,-0.313C0.325,-0.365 0.323,-0.398 0.319,-0.412C0.314,-0.425 0.304,-0.432 0.287,-0.432C0.27,-0.432 0.259,-0.425 0.255,-0.412C0.25,-0.398 0.248,-0.365 0.248,-0.313C0.248,-0.264 0.25,-0.233 0.255,-0.22C0.26,-0.207 0.27,-0.2 0.287,-0.2C0.304,-0.2 0.314,-0.207 0.319,-0.22C0.323,-0.233 0.325,-0.264 0.325,-0.313Z" style="fill-rule:nonzero;"/>
        </g>
        <g transform="matrix(111.3,0,0,109.519,360.349,147.63)">
            <path d="M0.445,-0.212L0.445,-0L0.017,-0L0.017,-0.212L0.217,-0.381C0.224,-0.387 0.229,-0.393 0.232,-0.398C0.235,-0.403 0.236,-0.408 0.236,-0.414C0.236,-0.42 0.234,-0.424 0.23,-0.428C0.226,-0.431 0.22,-0.432 0.212,-0.432C0.187,-0.432 0.159,-0.431 0.129,-0.428C0.098,-0.424 0.07,-0.42 0.044,-0.415L0.044,-0.612C0.069,-0.619 0.102,-0.625 0.144,-0.63C0.185,-0.635 0.225,-0.637 0.264,-0.637C0.323,-0.637 0.37,-0.622 0.404,-0.593C0.437,-0.563 0.454,-0.522 0.454,-0.471C0.454,-0.434 0.449,-0.404 0.439,-0.379C0.429,-0.354 0.412,-0.331 0.388,-0.31L0.277,-0.212L0.445,-0.212Z" style="fill-rule:nonzero;"/>
        </g>
        <g transform="matrix(111.3,0,0,109.519,411.992,147.63)">
            <path d="M0.524,-0.315L0.524,-0.117L0.474,-0.117L0.474,-0L0.247,-0L0.247,-0.117L0.017,-0.117L0.017,-0.315L0.083,-0.627L0.293,-0.627L0.239,-0.315L0.265,-0.315L0.3,-0.517L0.474,-0.517L0.474,-0.315L0.524,-0.315Z" style="fill-rule:nonzero;"/>
        </g>
    </g>
    <g transform="matrix(1,0,0,1,2.12354,0.738248)">
        <g transform="matrix(58.2756,0,0,57.3433,216.145,189.658)">
            <path d="M0.474,-0.197L0.474,-0L0.026,-0L0.026,-0.627L0.465,-0.627L0.465,-0.434L0.253,-0.434L0.253,-0.407L0.428,-0.407L0.428,-0.224L0.253,-0.224L0.253,-0.197L0.474,-0.197Z" style="fill-rule:nonzero;"/>
        </g>
        <g transform="matrix(58.2756,0,0,57.3433,244.7,189.658)">
            <path d="M0.241,-0.517L0.021,-0.517L0.021,-0.665L0.241,-0.665L0.241,-0.517ZM0.241,-0L0.021,-0L0.021,-0.494L0.241,-0.494L0.241,-0Z" style="fill-rule:nonzero;"/>
        </g>
        <g transform="matrix(58.2756,0,0,57.3433,259.852,189.658)">
            <path d="M0.241,-0L0.021,-0L0.021,-0.494L0.211,-0.494L0.219,-0.441L0.222,-0.441C0.239,-0.462 0.26,-0.478 0.283,-0.489C0.306,-0.499 0.332,-0.504 0.363,-0.504C0.41,-0.504 0.445,-0.49 0.47,-0.463C0.494,-0.436 0.506,-0.395 0.506,-0.342L0.506,-0L0.286,-0L0.286,-0.282C0.286,-0.291 0.284,-0.297 0.281,-0.301C0.278,-0.304 0.273,-0.306 0.266,-0.306C0.261,-0.306 0.257,-0.306 0.253,-0.305C0.248,-0.304 0.244,-0.303 0.241,-0.302L0.241,-0Z" style="fill-rule:nonzero;"/>
        </g>
        <g transform="matrix(58.2756,0,0,57.3433,290.33,189.658)">
            <path d="M0.306,-0.665L0.526,-0.665L0.526,-0L0.331,-0L0.32,-0.046L0.316,-0.046C0.3,-0.026 0.281,-0.011 0.26,-0.002C0.238,0.007 0.212,0.012 0.183,0.012C0.122,0.012 0.079,-0.008 0.052,-0.048C0.025,-0.087 0.012,-0.153 0.012,-0.246C0.012,-0.335 0.029,-0.4 0.062,-0.442C0.095,-0.483 0.147,-0.504 0.218,-0.504C0.235,-0.504 0.251,-0.503 0.266,-0.501C0.281,-0.499 0.294,-0.496 0.306,-0.493L0.306,-0.665ZM0.268,-0.306C0.254,-0.306 0.245,-0.302 0.24,-0.293C0.235,-0.284 0.232,-0.268 0.232,-0.247C0.232,-0.226 0.235,-0.212 0.24,-0.204C0.245,-0.196 0.254,-0.192 0.268,-0.192C0.274,-0.192 0.28,-0.193 0.287,-0.194C0.293,-0.195 0.299,-0.198 0.306,-0.201L0.306,-0.302C0.301,-0.303 0.295,-0.304 0.289,-0.305C0.283,-0.306 0.276,-0.306 0.268,-0.306Z" style="fill-rule:nonzero;"/>
        </g>
        <g transform="matrix(58.2756,0,0,57.3433,322.09,189.658)">
            <path d="M0.241,-0L0.021,-0L0.021,-0.665L0.241,-0.665L0.241,-0.46C0.257,-0.475 0.275,-0.486 0.295,-0.493C0.315,-0.5 0.338,-0.504 0.363,-0.504C0.41,-0.504 0.445,-0.49 0.47,-0.463C0.494,-0.436 0.506,-0.395 0.506,-0.342L0.506,-0L0.286,-0L0.286,-0.282C0.286,-0.291 0.284,-0.297 0.281,-0.301C0.278,-0.304 0.272,-0.306 0.265,-0.306C0.26,-0.306 0.256,-0.306 0.252,-0.305C0.248,-0.304 0.244,-0.303 0.241,-0.302L0.241,-0Z" style="fill-rule:nonzero;"/>
        </g>
        <g transform="matrix(58.2756,0,0,57.3433,352.568,189.658)">
            <path d="M0.53,-0.246C0.53,-0.154 0.51,-0.088 0.47,-0.048C0.429,-0.008 0.363,0.012 0.27,0.012C0.18,0.012 0.114,-0.009 0.073,-0.05C0.032,-0.091 0.011,-0.157 0.011,-0.246C0.011,-0.338 0.031,-0.404 0.071,-0.444C0.111,-0.484 0.177,-0.504 0.27,-0.504C0.361,-0.504 0.427,-0.483 0.468,-0.442C0.509,-0.401 0.53,-0.335 0.53,-0.246ZM0.231,-0.249C0.231,-0.227 0.234,-0.212 0.239,-0.204C0.244,-0.196 0.255,-0.192 0.27,-0.192C0.285,-0.192 0.296,-0.196 0.302,-0.204C0.307,-0.212 0.31,-0.227 0.31,-0.249C0.31,-0.271 0.307,-0.286 0.302,-0.294C0.296,-0.302 0.285,-0.306 0.27,-0.306C0.255,-0.306 0.244,-0.302 0.239,-0.294C0.234,-0.286 0.231,-0.271 0.231,-0.249Z" style="fill-rule:nonzero;"/>
        </g>
        <g transform="matrix(58.2756,0,0,57.3433,382.373,189.658)">
            <path d="M0.309,-0.494L0.548,-0.494L0.398,-0L0.146,-0L-0.006,-0.494L0.236,-0.494L0.273,-0.199L0.309,-0.494Z" style="fill-rule:nonzero;"/>
        </g>
        <g transform="matrix(58.2756,0,0,57.3433,412.352,189.658)">
            <path d="M0.459,-0.181L0.459,-0.021C0.436,-0.012 0.404,-0.004 0.365,0.003C0.325,0.009 0.284,0.012 0.242,0.012C0.161,0.012 0.102,-0.008 0.066,-0.049C0.029,-0.089 0.011,-0.154 0.011,-0.244C0.011,-0.333 0.031,-0.398 0.071,-0.441C0.11,-0.483 0.171,-0.504 0.254,-0.504C0.333,-0.504 0.39,-0.489 0.426,-0.458C0.462,-0.427 0.48,-0.377 0.48,-0.308C0.48,-0.284 0.48,-0.264 0.479,-0.249C0.478,-0.233 0.477,-0.216 0.475,-0.199L0.226,-0.199C0.227,-0.187 0.231,-0.179 0.239,-0.175C0.246,-0.17 0.259,-0.168 0.277,-0.168C0.309,-0.168 0.342,-0.169 0.376,-0.172C0.41,-0.175 0.438,-0.178 0.459,-0.181ZM0.288,-0.319C0.287,-0.329 0.284,-0.336 0.279,-0.339C0.274,-0.342 0.267,-0.344 0.257,-0.344C0.246,-0.344 0.239,-0.341 0.234,-0.334C0.229,-0.327 0.226,-0.315 0.226,-0.296L0.289,-0.296L0.289,-0.308C0.289,-0.311 0.289,-0.315 0.288,-0.319Z" style="fill-rule:nonzero;"/>
        </g>
        <g transform="matrix(58.2756,0,0,57.3433,440.907,189.658)">
            <path d="M0.241,-0L0.021,-0L0.021,-0.494L0.211,-0.494L0.219,-0.441L0.222,-0.441C0.239,-0.462 0.26,-0.478 0.283,-0.489C0.306,-0.499 0.332,-0.504 0.363,-0.504C0.41,-0.504 0.445,-0.49 0.47,-0.463C0.494,-0.436 0.506,-0.395 0.506,-0.342L0.506,-0L0.286,-0L0.286,-0.282C0.286,-0.291 0.284,-0.297 0.281,-0.301C0.278,-0.304 0.273,-0.306 0.266,-0.306C0.261,-0.306 0.257,-0.306 0.253,-0.305C0.248,-0.304 0.244,-0.303 0.241,-0.302L0.241,-0Z" style="fill-rule:nonzero;"/>
        </g>
    </g>
    <g transform="matrix(1,0,0,1,2.12354,0.738248)">
        <clipPath id="_clip1">
            <path d="M203.406,98.02L203.249,125.475L202.778,136.789L201.992,145.379L200.885,152.509L199.459,158.656L197.703,164.064L195.614,168.871L193.18,173.169L190.389,177.012L187.225,180.444L183.663,183.494L179.677,186.184L175.217,188.529L170.23,190.543L164.618,192.235L158.24,193.61L150.842,194.676L141.929,195.434L130.19,195.888L101.703,196.039L73.216,195.888L61.477,195.434L52.564,194.676L45.167,193.61L38.788,192.235L33.177,190.543L28.189,188.529L23.729,186.184L19.743,183.494L16.181,180.444L13.017,177.012L10.226,173.169L7.793,168.871L5.703,164.064L3.947,158.656L2.521,152.509L1.414,145.379L0.628,136.789L0.157,125.475L0,98.02L0.157,70.565L0.628,59.25L1.414,50.66L2.521,43.531L3.947,37.383L5.703,31.975L7.793,27.168L10.226,22.87L13.017,19.028L16.181,15.595L19.743,12.545L23.729,9.856L28.189,7.51L33.177,5.496L38.788,3.804L45.167,2.429L52.564,1.363L61.477,0.605L73.216,0.151L101.703,0L130.19,0.151L141.929,0.605L150.842,1.363L158.24,2.429L164.618,3.804L170.23,5.496L175.217,7.51L179.677,9.856L183.663,12.545L187.225,15.595L190.389,19.028L193.18,22.87L195.614,27.168L197.703,31.975L199.459,37.383L200.885,43.531L201.992,50.66L202.778,59.25L203.249,70.565L203.406,98.02Z" clip-rule="nonzero"/>
        </clipPath>
        <g clip-path="url(#_clip1)">
            <g>
                <g>
                    <g>
                        <clipPath id="_clip2">
                            <rect x="-1.774" y="-1.787" width="206.954" height="199.612" clip-rule="nonzero"/>
                        </clipPath>
                        <g clip-path="url(#_clip2)">
                            <g transform="matrix(0.174792,0,0,0.174792,-1.77396,-157.452)">
                                <path d="M1180,1136L1180,896.572L688.831,896.572L688.831,1136" style="fill:rgb(56,151,37);fill-rule:nonzero;"/>
                            </g>
                            <g transform="matrix(0.174792,0,0,0.174792,-1.77396,156.136)">
                                <path d="M487.172,232.373L487.172,9.327L477.08,15.894L470.322,20.11L463.88,23.955L457.656,27.43L451.588,30.56L445.583,33.339L439.569,35.789L433.47,37.907L427.223,39.704L420.742,41.192L413.964,42.382L406.808,43.279L399.212,43.909L391.085,44.272L382.338,44.392L369.481,44.114L357.322,43.306L345.833,41.988L334.984,40.195L324.736,37.95L315.065,35.287L305.928,32.23L297.306,28.813L289.148,25.065L281.438,21.014L274.134,16.694L267.205,12.141L255.431,6.137L0,6.137L-2,232.373" style="fill:rgb(56,151,37);fill-rule:nonzero;"/>
                            </g>
                            <g transform="matrix(0.174792,0,0,0.174792,-1.77396,100.207)">
                                <path d="M250.924,319.888L234.927,303.938L231.273,299.544L227.709,294.968L224.242,290.23L220.888,285.364L217.652,280.39L214.544,275.335L208.788,265.152L203.683,254.995L199.339,245.121L197.463,240.321L196.847,238.593L12.78,319.888" style="fill:rgb(149,40,204);fill-rule:nonzero;"/>
                            </g>
                            <g transform="matrix(0.174792,0,0,0.174792,-1.77396,78.9575)">
                                <path d="M195.159,354.454L194.324,350.821L193.088,344.305L192.043,337.569L191.189,330.678L190.526,323.698L190.054,316.696L189.769,309.743L189.676,302.879L189.953,293.751L190.756,284.545L192.031,275.397L193.735,266.419L195.818,257.724L198.239,249.414L200.95,241.611L202.19,238.593L-2,238.593L0,441.461" style="fill:rgb(40,204,95);fill-rule:nonzero;"/>
                            </g>
                            <g transform="matrix(0.174792,0,0,0.174792,-1.77396,122.241)">
                                <path d="M391.572,232.253L399.984,231.898L407.678,231.291L414.76,230.425L421.315,229.289L427.457,227.878L433.283,226.174L438.906,224.168L444.424,221.838L449.946,219.175L455.562,216.153L461.368,212.775L473.995,204.825L481.019,200.203L267.497,200.054L277.324,205.586L284.379,209.76L291.815,213.664L299.677,217.281L308.003,220.574L316.828,223.53L326.187,226.108L336.123,228.284L346.668,230.023L357.868,231.31L369.746,232.102L382.361,232.373" style="fill:rgb(40,204,204);fill-rule:nonzero;"/>
                            </g>
                            <g transform="matrix(0.174792,0,0,0.174792,-1.77396,79.352)">
                                <path d="M487.172,237.824L202.424,355.729L203.079,357.581L204.877,362.18L209.112,371.799L214.084,381.693L219.715,391.652L222.729,396.553L225.88,401.395L229.14,406.129L232.506,410.728L235.953,415.157L239.482,419.397L243.066,423.405L261.42,438.655L487.172,439.973" style="fill:rgb(40,204,78);fill-rule:nonzero;"/>
                            </g>
                            <g transform="matrix(0.174792,0,0,0.174792,-1.77396,157.16)">
                                <path d="M682.841,226.516L682.841,6.137L496.582,226.516" style="fill:rgb(148,87,177);fill-rule:nonzero;"/>
                            </g>
                            <g transform="matrix(0.174792,0,0,0.174792,-1.77396,155.342)">
                                <path d="M679.421,11.335L493.162,11.335L493.162,231.714" style="fill:rgb(157,204,40);fill-rule:nonzero;"/>
                            </g>
                            <g transform="matrix(0.174792,0,0,0.174792,-1.77396,63.3603)">
                                <path d="M475.232,327.826L208.659,327.826L206.557,332.931L203.948,340.441L201.613,348.464L199.592,356.889L197.943,365.588L196.707,374.443L195.935,383.331L195.666,392.158L195.759,398.814L196.036,405.612L196.5,412.452L197.147,419.27L197.978,425.99L198.992,432.541L200.189,438.848L200.79,441.461" style="fill:rgb(202,59,51);fill-rule:nonzero;"/>
                            </g>
                            <g transform="matrix(0.174792,0,0,0.174792,-1.77396,-0.427468)">
                                <path d="M204.385,686.825L204.888,685.078L206.362,680.923L208.152,676.614L210.254,672.181L212.645,667.629L215.335,662.983L218.311,658.253L221.567,653.465L225.092,648.634L228.883,643.783L232.935,638.925L237.248,634.091L241.798,629.287L246.591,624.545L251.614,619.876L256.871,615.308L262.342,610.848L268.027,606.535L273.92,602.373L280.015,598.396L286.301,594.612L292.779,591.049L299.435,587.725L306.267,584.661L313.263,581.878L320.427,579.401L327.739,577.24L335.207,575.432L342.803,573.986L350.54,572.927L358.398,572.278L366.361,572.058L380.162,572.305L392.894,573.032L404.624,574.191L415.423,575.749L425.332,577.658L434.418,579.884L442.732,582.384L450.336,585.124L457.278,588.054L463.618,591.138L469.405,594.326L474.701,597.58L479.556,600.846L484.037,604.096L487.172,606.527L487.172,550.906L480.789,546.759L473.368,541.383L466.329,535.718L459.684,529.785L453.429,523.598L447.571,517.186L442.104,510.566L437.046,503.76L432.39,496.784L428.139,489.665L424.298,482.419L420.874,475.068L417.86,467.633L415.271,460.131L413.098,452.583L411.905,447.397L-2,447.397L-2,686.825" style="fill:rgb(40,57,204);fill-rule:nonzero;"/>
                            </g>
                            <g transform="matrix(0.174792,0,0,0.174792,-1.77396,22.4093)">
                                <path d="M487.172,556.174L487.172,483.416L480.418,478.176L476.101,475.049L471.441,471.907L466.372,468.792L460.842,465.751L454.782,462.806L448.137,460L440.837,457.368L432.827,454.96L424.037,452.804L414.416,450.949L403.899,449.43L392.426,448.301L379.936,447.59L366.392,447.343L358.733,447.556L351.203,448.182L343.778,449.194L336.486,450.585L329.307,452.325L322.268,454.4L315.369,456.785L308.623,459.474L302.017,462.431L295.579,465.646L289.312,469.094L283.221,472.761L277.305,476.622L271.584,480.661L266.062,484.85L260.747,489.179L255.638,493.623L250.756,498.16L246.096,502.771L241.678,507.436L237.489,512.131L233.562,516.842L229.889,521.538L226.481,526.214L223.334,530.833L220.475,535.378L217.901,539.83L215.62,544.166L213.635,548.359L211.962,552.39L210.597,556.228L210.613,556.174" style="fill:rgb(40,204,165);fill-rule:nonzero;"/>
                            </g>
                            <g transform="matrix(0.174792,0,0,0.174792,-1.77396,79.5647)">
                                <path d="M492.07,436.839L495.65,434.029L499.179,431.034L502.662,427.877L506.078,424.553L509.432,421.082L512.719,417.469L515.924,413.739L522.121,405.875L527.963,397.612L533.41,389.009L538.433,380.155L542.996,371.111L547.059,361.967L550.588,352.793L553.552,343.676L555.915,334.667L556.851,330.265L557.635,325.913L558.247,321.623L558.692,317.426L558.961,313.318L559.023,310.454L493.162,239.741L493.162,436.047" style="fill:rgb(100,204,40);fill-rule:nonzero;"/>
                            </g>
                            <g transform="matrix(0.174792,0,0,0.174792,-1.77396,93.2969)">
                                <path d="M678.984,360.367L564.873,238.156L564.943,235.018L564.658,239.366L564.19,243.787L563.555,248.286L562.732,252.838L561.749,257.464L559.308,266.774L556.243,276.201L552.605,285.661L548.416,295.076L543.729,304.374L538.558,313.484L532.954,322.334L526.941,330.844L520.565,338.933L517.227,342.817L513.823,346.562L510.336,350.164L506.78,353.627L503.149,356.916L499.456,360.05L495.697,362.999L499.324,360.367" style="fill:rgb(56,151,37);fill-rule:nonzero;"/>
                            </g>
                            <g transform="matrix(0.174792,0,0,0.174792,-1.77396,55.1134)">
                                <path d="M558.86,439.111L558.279,429.322L557.284,419.776L555.849,410.4L553.958,401.117L551.579,391.857L548.693,382.543L545.963,375.007L497.007,375.007L558.906,441.461" style="fill:rgb(204,40,182);fill-rule:nonzero;"/>
                            </g>
                            <g transform="matrix(0.174792,0,0,0.174792,-1.77396,78.8365)">
                                <path d="M677.92,441.461L672.297,434.524L666.755,427.196L661.35,419.482L656.117,411.378L651.106,402.883L646.356,393.987L641.918,384.692L637.831,374.995L634.15,364.897L630.91,354.385L628.164,343.49L626.979,337.855L625.941,332.143L625.044,326.319L624.307,320.402L623.715,314.373L623.29,308.247L623.028,302.014L622.943,295.683L623.048,286.392L623.414,277.863L624.12,269.94L625.236,262.485L626.838,255.409L627.852,251.907L629.014,248.483L630.329,245.082L631.826,241.662L633.043,239.285L552.328,239.285L554.379,244.943L557.35,254.528L559.799,264.074L561.753,273.643L563.227,283.304L564.253,293.121L564.849,303.158L565.017,312.302L582.839,331.389" style="fill:rgb(40,48,204);fill-rule:nonzero;"/>
                            </g>
                            <g transform="matrix(0.174792,0,0,0.174792,-1.77396,35.5515)">
                                <path d="M543.6,480.986L542.91,479.316L540.25,473.794L537.349,468.433L534.284,463.243L527.873,453.303L523.884,447.397L496.446,480.986" style="fill:rgb(204,163,40);fill-rule:nonzero;"/>
                            </g>
                            <g transform="matrix(0.174792,0,0,0.174792,-1.77396,28.5471)">
                                <path d="M520.292,482.427L517.356,478.647L513.144,473.534L509.034,468.839L504.974,464.491L500.915,460.417L496.808,456.549L492.601,452.812L493.162,453.287L493.162,515.644" style="fill:rgb(204,40,171);fill-rule:nonzero;"/>
                            </g>
                            <g transform="matrix(0.174792,0,0,0.174792,-1.77396,78.2373)">
                                <path d="M682.841,242.713L639.723,242.713L638.814,244.414L637.27,247.648L635.886,250.891L634.665,254.168L633.581,257.473L632.649,260.804L631.132,267.73L630.071,274.93L629.396,282.516L629.038,290.555L628.932,299.103L629.018,305.279L629.272,311.351L629.681,317.314L630.258,323.181L630.98,328.935L631.853,334.597L632.859,340.155L634.006,345.596L636.681,356.228L639.836,366.446L643.416,376.267L647.393,385.708L651.714,394.756L656.339,403.42L661.225,411.706L666.334,419.617L671.614,427.146L677.031,434.311L682.529,441.102L682.841,441.461" style="fill:rgb(204,40,138);fill-rule:nonzero;"/>
                            </g>
                            <g transform="matrix(0.174792,0,0,0.174792,-1.77396,155.652)">
                                <path d="M1180,235.142L1180,6.137L931.43,6.137L921.527,11.691L913.759,16.68L905.527,21.321L896.881,25.623L887.865,29.561L878.526,33.136L868.909,36.328L859.059,39.134L849.025,41.534L838.847,43.532L828.575,45.097L818.253,46.237L807.93,46.925L797.651,47.161L787.98,46.976L778.683,46.431L769.741,45.53L761.154,44.309L752.91,42.755L745.017,40.908L737.456,38.763L730.234,36.348L723.331,33.662L716.76,30.736L710.501,27.571L704.558,24.193L698.919,20.603L693.593,16.835L688.554,12.889L688.831,13.128L688.831,235.142" style="fill:rgb(139,52,205);fill-rule:nonzero;"/>
                            </g>
                            <g transform="matrix(0.174792,0,0,0.174792,-1.77396,121.757)">
                                <path d="M807.657,234.914L817.722,234.241L827.787,233.132L837.809,231.598L847.738,229.654L857.53,227.308L867.131,224.572L876.498,221.465L885.58,217.99L894.331,214.168L902.704,210.006L910.647,205.519C913.734,203.542 917.169,203.004 923.887,200.054L693.351,203.076L692.384,202.238L697.188,206.006L702.281,209.604L707.67,213.032L713.356,216.263L719.35,219.296L725.655,222.106L732.285,224.684L739.242,227.014L746.53,229.082L754.158,230.867L762.137,232.367L770.466,233.557L779.159,234.427L788.214,234.956L797.643,235.142" style="fill:rgb(202,59,51);fill-rule:nonzero;"/>
                            </g>
                            <g transform="matrix(0.174792,0,0,0.174792,-1.77396,-79.1985)">
                                <path d="M475.15,694.242L-2,694.242L-2,890.636" style="fill:rgb(204,40,84);fill-rule:nonzero;"/>
                            </g>
                            <g transform="matrix(0.174792,0,0,0.174792,-1.77396,-79.1578)">
                                <path d="M409.753,891.884L408.793,889.673L406.528,883.714L404.722,877.743L403.357,871.366L402.386,864.181L401.758,855.775L401.419,845.704L401.318,833.468L401.54,827.296L402.246,820.274L403.47,812.533L405.268,804.158L407.678,795.238L410.755,785.874L414.533,776.17L416.717,771.184L419.088,766.172L421.658,761.113L424.443,756.027L427.437,750.921L430.655,745.812L434.09,740.707L437.768,735.625L441.679,730.573L445.832,725.569L450.235,720.614L454.895,715.729L459.816,710.925L465.003,706.218L470.462,701.607L476.206,697.12L482.228,692.761L463.607,705.186L10.023,891.884" style="fill:rgb(48,190,157);fill-rule:nonzero;"/>
                            </g>
                            <g transform="matrix(0.174792,0,0,0.174792,-1.77396,10.6559)">
                                <path d="M581.556,514.465L579.481,514.427L571.362,513.959L563.621,513.209L556.243,512.2L549.2,510.952L542.485,509.495L536.07,507.849L529.944,506.036L524.079,504.084L518.459,502.017L513.066,499.856L507.876,497.627L498.068,493.082L493.162,490.674L493.162,547.841L496.547,550.701L500.872,554.546L505.111,558.539L509.303,562.743L513.495,567.23L517.73,572.065L522.051,577.317L524.242,580.139" style="fill:rgb(56,151,37);fill-rule:nonzero;"/>
                            </g>
                            <g transform="matrix(0.174792,0,0,0.174792,-1.77396,-25.4259)">
                                <path d="M487.172,590.415L418.051,590.415L418.901,594.125L420.987,601.371L423.475,608.579L426.373,615.737L429.672,622.809L433.373,629.793L437.467,636.649L441.96,643.377L446.838,649.943L452.111,656.332L457.765,662.519L463.809,668.49L470.228,674.222L477.025,679.702L484.197,684.892L487.172,686.825" style="fill:rgb(204,165,40);fill-rule:nonzero;"/>
                            </g>
                            <g transform="matrix(0.174792,0,0,0.174792,-1.77396,18.29)">
                                <path d="M635.901,579.741L640.491,568.518L644.925,558.381L646.996,554.095L649.055,550.21L651.172,546.605L653.414,543.188L655.848,539.845L658.542,536.464L664.891,529.244L673.076,520.541L682.841,510.295L682.841,447.397L682.315,447.702L677.015,450.512L671.505,453.163L665.811,455.652L659.939,457.971L653.918,460.123L647.74,462.095L641.439,463.884L635.016,465.48L628.496,466.887L621.882,468.093L615.198,469.09L608.448,469.874L601.662,470.446L594.838,470.794L589.39,470.887L527.869,541.383L532.888,548.804L539.393,558.898L542.575,564.282L545.593,569.866L548.385,575.66L550.078,579.741" style="fill:rgb(204,135,40);fill-rule:nonzero;"/>
                            </g>
                            <g transform="matrix(0.174792,0,0,0.174792,-1.77396,30.7946)">
                                <path d="M682.841,508.201L682.841,447.397L677.444,453.059L669.345,461.677L663.152,468.719L660.629,471.884L658.359,475.003L656.273,478.18L654.296,481.546L652.354,485.213L650.377,489.306L646.013,499.273L642.363,508.201" style="fill:rgb(141,40,204);fill-rule:nonzero;"/>
                            </g>
                            <g transform="matrix(0.174792,0,0,0.174792,-1.77396,78.8615)">
                                <path d="M988.227,317.345L986.332,277.855L986.152,273.364L985.661,269.844L984.858,266.597L983.731,263.061L982.28,258.752L980.552,253.237L978.583,246.072L976.961,239.142L688.831,239.142L688.831,441.461" style="fill:rgb(56,151,37);fill-rule:nonzero;"/>
                            </g>
                            <g transform="matrix(0.174792,0,0,0.174792,-1.77396,93.8171)">
                                <path d="M926.547,355.899L941.462,339.056L945.752,333.279L949.924,327.319L953.972,321.178L957.876,314.852L961.635,308.343L965.223,301.654L968.647,294.778L971.879,287.725L974.917,280.486L977.745,273.066L980.357,265.46L982.732,257.673L984.869,249.704L986.749,241.549L987.322,238.593L703.034,356.448" style="fill:rgb(40,155,204);fill-rule:nonzero;"/>
                            </g>
                            <g transform="matrix(0.174792,0,0,0.174792,-1.77396,-20.4925)">
                                <path d="M679.881,562.191L493.162,562.191L493.162,662.253L500.665,665.936L510.332,670.419L515.382,672.587L520.627,674.686L526.075,676.691L531.753,678.581L537.677,680.332L543.881,681.924L550.37,683.335L557.179,684.537L564.323,685.515L571.83,686.241L579.715,686.693L586.516,686.825" style="fill:rgb(40,204,130);fill-rule:nonzero;"/>
                            </g>
                            <g transform="matrix(0.174792,0,0,0.174792,-1.77396,-78.4836)">
                                <path d="M487.172,888.027L487.172,692.761L485.667,693.766L479.825,697.994L474.261,702.342L468.973,706.813L463.942,711.374L459.177,716.031L454.657,720.761L450.395,725.561L446.366,730.411L442.58,735.308L439.019,740.228L435.685,745.178L432.569,750.125L429.668,755.076L426.969,760.007L424.478,764.912L422.177,769.77L420.079,774.562L416.401,784.003L413.426,793.066L411.094,801.685L409.366,809.75L408.189,817.174L407.522,823.841L407.307,829.696L407.409,841.723L407.74,851.602L408.345,859.714L409.261,866.496L410.532,872.417L412.205,877.955L414.354,883.598L416.269,888.027" style="fill:rgb(204,122,40);fill-rule:nonzero;"/>
                            </g>
                            <g transform="matrix(0.174792,0,0,0.174792,-1.77396,-157.452)">
                                <path d="M487.172,1136L487.172,896.572L-2,896.572L-2,1136" style="fill:rgb(148,87,177);fill-rule:nonzero;"/>
                            </g>
                            <g transform="matrix(0.174792,0,0,0.174792,-1.77396,-19.4557)">
                                <path d="M594.635,680.804L601.257,680.471L607.847,679.915L614.402,679.154L620.891,678.18L627.318,677.012L633.651,675.644L639.887,674.095L646.001,672.359L651.983,670.45L657.817,668.367L663.495,666.126L668.986,663.722L674.293,661.171L679.39,658.469L682.841,656.464L682.841,562.269L594.034,680.815" style="fill:rgb(116,204,40);fill-rule:nonzero;"/>
                            </g>
                            <g transform="matrix(0.174792,0,0,0.174792,-1.77396,22.0539)">
                                <path d="M974.73,558.207L973.506,555.482L970.21,548.835L966.681,542.381L962.949,536.132L959.003,530.075L954.865,524.228L950.544,518.574L946.048,513.136L941.376,507.896L936.556,502.86L931.58,498.033L926.472,493.422L921.227,489.017L915.865,484.823L910.394,480.847L904.821,477.086L899.151,473.542L893.403,470.215L887.581,467.107L881.696,464.224L875.757,461.558L869.771,459.123L863.758,456.912L857.717,454.93L851.653,453.175L845.589,451.648L839.529,450.354L833.485,449.295L827.456,448.464L821.47,447.873L815.519,447.517L809.615,447.397L803.274,447.475L797.183,447.706L791.326,448.085L785.71,448.607L780.313,449.252L775.138,450.029L770.17,450.922L765.424,451.927L756.42,454.242L748.133,456.928L740.455,459.919L733.33,463.169L726.673,466.628L720.422,470.249L714.499,473.975L708.844,477.759L698.03,485.303L692.746,488.947L688.831,491.529L688.831,558.207" style="fill:rgb(202,59,51);fill-rule:nonzero;"/>
                            </g>
                            <g transform="matrix(0.174792,0,0,0.174792,-1.77396,-25.4308)">
                                <path d="M689.135,686.628L694.298,682.825L699.68,678.435L705.225,673.515L710.852,668.085L716.515,662.203L722.134,655.892L727.656,649.206L733.014,642.172L738.15,634.845L742.993,627.243L747.494,619.428L751.584,611.421L755.207,603.282L758.307,595.011L759.629,590.883L759.754,590.443L688.831,590.443L688.831,686.825" style="fill:rgb(148,87,177);fill-rule:nonzero;"/>
                            </g>
                            <g transform="matrix(0.174792,0,0,0.174792,-1.77396,-79.7185)">
                                <path d="M682.841,697.217L497.152,697.217L682.841,890.636" style="fill:rgb(202,59,51);fill-rule:nonzero;"/>
                            </g>
                            <g transform="matrix(0.174792,0,0,0.174792,-1.77396,-78.1608)">
                                <path d="M678.852,886.18L493.162,692.761L493.162,886.18" style="fill:rgb(40,95,204);fill-rule:nonzero;"/>
                            </g>
                            <g transform="matrix(0.174792,0,0,0.174792,-1.77396,79.1358)">
                                <path d="M1180,439.892L1180,239.142L993.963,319.807L992.614,326.763L990.688,335.119L988.496,343.289L986.059,351.27L983.383,359.061L980.486,366.667L977.37,374.083L974.059,381.314L970.558,388.352L966.876,395.204L963.031,401.867L959.034,408.34L954.893,414.628L950.626,420.727L946.235,426.636L934.277,439.892" style="fill:rgb(255,119,171);fill-rule:nonzero;"/>
                            </g>
                            <g transform="matrix(0.174792,0,0,0.174792,-1.77396,-48.5633)">
                                <path d="M761.895,716.85L762.367,715.957L763.502,712.854L764.555,709.078L765.514,704.869L767.218,695.903L767.799,692.761L702.472,716.85" style="fill:rgb(56,151,37);fill-rule:nonzero;"/>
                            </g>
                            <g transform="matrix(0.174792,0,0,0.174792,-1.77396,56.7124)">
                                <path d="M1168.68,365.859L983.13,365.859L992.267,403.888L993.452,411.977L994.057,418.342L994.283,423.571L994.314,428.178L994.314,441.461" style="fill:rgb(202,59,51);fill-rule:nonzero;"/>
                            </g>
                            <g transform="matrix(0.174792,0,0,0.174792,-1.77396,-0.427468)">
                                <path d="M1180,686.825L1180,447.397L765.974,447.397L765.37,449.538L763.97,453.897L760.76,462.469L756.997,470.918L752.774,479.196L748.125,487.258L743.142,495.076L737.865,502.612L732.367,509.832L726.697,516.695L720.929,523.169L715.111,529.213L709.312,534.806L703.58,539.895L697.987,544.456L692.575,548.444L688.831,550.898L688.831,613.016L689.377,612.657L694.599,609.059L705.444,601.492L711.215,597.623L717.302,593.797L723.772,590.052L730.686,586.462L738.107,583.072L746.105,579.957L754.735,577.163L764.044,574.763L769.008,573.712L774.155,572.788L779.502,571.988L785.071,571.32L790.85,570.782L796.871,570.396L803.126,570.156L809.638,570.079L815.761,570.199L821.946,570.57L828.166,571.184L834.421,572.046L840.684,573.144L846.962,574.485L853.229,576.065L859.495,577.882L865.739,579.926L871.955,582.214L878.128,584.726L884.262,587.478L890.326,590.446L896.335,593.654L902.263,597.082L908.105,600.742L913.849,604.618L919.492,608.719L925.017,613.036L930.426,617.58L935.691,622.338L940.823,627.312L945.799,632.502L950.611,637.905L955.247,643.521L959.709,649.345L963.971,655.378L968.042,661.627L971.891,668.069L975.53,674.724L978.934,681.58L981.285,686.825" style="fill:rgb(106,204,40);fill-rule:nonzero;"/>
                            </g>
                            <g transform="matrix(0.174792,0,0,0.174792,-1.77396,-78.8425)">
                                <path d="M768.793,859.289L769.086,853.214L769.156,845.399L768.91,837.736L768.376,830.238L767.546,822.887L766.458,815.703L765.104,808.677L763.513,801.821L761.68,795.123L759.629,788.596L757.367,782.234L754.918,776.055L752.278,770.037L749.471,764.201L746.503,758.54L743.399,753.067L740.154,747.769L736.789,742.655L733.314,737.732L729.754,732.998L726.104,728.449L722.388,724.101L718.617,719.942L714.807,715.993L710.954,712.232L707.093,708.684L703.229,705.334L699.372,702.203L695.531,699.274L691.732,696.561L687.981,694.064L688.831,694.586L688.831,888.777" style="fill:rgb(249,139,4);fill-rule:nonzero;"/>
                            </g>
                            <g transform="matrix(0.174792,0,0,0.174792,-1.77396,-158.426)">
                                <path d="M679.651,902.145L493.162,902.145L493.162,1136" style="fill:rgb(68,204,40);fill-rule:nonzero;"/>
                            </g>
                            <g transform="matrix(0.174792,0,0,0.174792,-1.77396,-156.838)">
                                <path d="M500.86,1126.52L512.005,1120.95L517.414,1118.43L522.784,1116.12L528.177,1114.01L533.66,1112.11L539.291,1110.41L545.141,1108.93L551.251,1107.67L557.697,1106.64L564.53,1105.83L571.818,1105.25L579.617,1104.9L588.013,1104.79L595.544,1104.95L602.941,1105.42L610.179,1106.18L617.257,1107.21L624.163,1108.48L630.898,1109.99L637.449,1111.69L643.817,1113.58L649.987,1115.64L655.965,1117.84L661.736,1120.16L667.301,1122.59L672.644,1125.09L677.791,1127.67L682.841,1130.43L682.841,898.632L501.297,1126.29" style="fill:rgb(202,59,51);fill-rule:nonzero;"/>
                            </g>
                            <g transform="matrix(0.174792,0,0,0.174792,-1.77396,-119.332)">
                                <path d="M674.215,917.913L674.991,918.338L670.015,915.845L664.813,913.411L659.404,911.049L653.797,908.796L647.99,906.659L642,904.665L635.827,902.825L629.478,901.175L622.954,899.718L616.274,898.489L609.43,897.492L602.434,896.757L595.286,896.301L587.99,896.147L579.797,896.259L572.193,896.603L565.122,897.159L558.532,897.944L552.343,898.933L546.49,900.139L540.906,901.554L535.524,903.173L530.267,904.997L525.077,907.034L519.879,909.268L514.626,911.71L503.605,917.217L502.272,917.913" style="fill:rgb(76,51,202);fill-rule:nonzero;"/>
                            </g>
                            <g transform="matrix(0.174792,0,0,0.174792,-1.77396,-84.7384)">
                                <path d="M1168.21,725.936L696.303,725.936L694.735,724.97L702.312,730.323L709.975,736.433L717.622,743.285L721.436,747.003L725.211,750.899L728.931,754.968L732.609,759.227L736.208,763.656L739.733,768.263L743.165,773.043L746.503,778.002L749.724,783.123L752.824,788.421L755.784,793.882L758.6,799.513L761.252,805.295L763.739,811.254L766.04,817.368L768.154,823.644L770.057,830.072L771.745,836.657L773.204,843.393L774.428,850.284L775.392,857.314L776.101,864.495L776.534,871.822L776.682,879.27L776.651,883.529L776.421,887.517L775.778,891.602L776.222,889.998" style="fill:rgb(201,204,40);fill-rule:nonzero;"/>
                            </g>
                            <g transform="matrix(0.174792,0,0,0.174792,-1.77396,-78.4121)">
                                <path d="M1179,886.624L1180,691.25L774.347,861.036L773.106,867.753L771.379,876.843L770.365,881.291L769.211,885.43L767.858,889.129" style="fill:rgb(202,59,51);fill-rule:nonzero;"/>
                            </g>
                        </g>
                    </g>
                </g>
            </g>
        </g>
    </g>
</svg>
