<?xml version="1.0" encoding="UTF-8" standalone="no"?>
<!DOCTYPE svg PUBLIC "-//W3C//DTD SVG 1.1//EN" "http://www.w3.org/Graphics/SVG/1.1/DTD/svg11.dtd">
<svg width="100%" height="100%" viewBox="0 0 474 198" version="1.1" xmlns="http://www.w3.org/2000/svg" xmlns:xlink="http://www.w3.org/1999/xlink" xml:space="preserve" xmlns:serif="http://www.serif.com/" style="fill-rule:evenodd;clip-rule:evenodd;stroke-miterlimit:10;">
    <g transform="matrix(1,0,0,1,-4,1)">
        <g transform="matrix(1,0,0,1,2.12354,-98.1548)">
            <path d="M243.21,172.251C243.21,175.564 242.831,178.238 242.076,180.272C241.317,182.311 240.24,183.895 238.844,185.019C237.449,186.143 235.774,186.899 233.82,187.281C231.87,187.658 229.698,187.852 227.308,187.852C224.076,187.852 221.603,187.354 219.884,186.358C218.17,185.367 217.311,184.174 217.311,182.783C217.311,181.624 217.791,180.646 218.75,179.852C219.71,179.058 220.997,178.659 222.61,178.659C223.823,178.659 224.791,178.985 225.515,179.629C226.239,180.272 226.837,180.912 227.308,181.543C227.844,182.238 228.302,182.701 228.669,182.933C229.039,183.165 229.375,183.281 229.681,183.281C230.317,183.281 230.806,182.907 231.146,182.161C231.482,181.418 231.648,179.968 231.648,177.817L231.648,136.977L243.21,133.848L243.21,172.251ZM259.675,134.942L259.675,161.221C259.675,161.951 259.819,162.637 260.107,163.285C260.391,163.929 260.787,164.487 261.293,164.951C261.799,165.414 262.384,165.783 263.06,166.066C263.731,166.35 264.456,166.487 265.232,166.487C266.104,166.487 267.099,166.006 268.311,165.174C270.226,163.852 271.39,162.942 271.39,161.869L271.39,134.942L282.901,134.942L282.901,172.251L271.39,172.251L271.39,168.775C269.877,170.032 268.259,171.041 266.545,171.805C264.826,172.564 263.16,172.946 261.546,172.946C259.662,172.946 257.909,172.641 256.295,172.028C254.677,171.414 253.264,170.577 252.056,169.517C250.843,168.461 249.892,167.217 249.199,165.792C248.51,164.367 248.165,162.843 248.165,161.221L248.165,134.942L259.675,134.942ZM299.043,172.251L287.585,172.251L287.585,119.938L299.043,116.809L299.043,172.251ZM303.832,136.977L315.342,133.848L315.342,172.251L303.832,172.251L303.832,136.977ZM339.392,152.976C338.284,153.44 337.163,153.976 336.034,154.59C334.908,155.204 333.879,155.873 332.954,156.603C332.03,157.328 331.279,158.109 330.708,158.938C330.137,159.766 329.849,160.624 329.849,161.521C329.849,162.217 329.945,162.886 330.128,163.534C330.311,164.178 330.573,164.732 330.913,165.195C331.249,165.659 331.62,166.032 332.021,166.315C332.427,166.594 332.863,166.736 333.334,166.736C334.276,166.736 335.227,166.453 336.186,165.89C337.146,165.328 338.214,164.616 339.392,163.757L339.392,152.976ZM350.955,172.251L339.392,172.251L339.392,169.268C338.755,169.8 338.132,170.29 337.525,170.736C336.919,171.182 336.239,171.573 335.48,171.903C334.725,172.234 333.875,172.491 332.928,172.676C331.986,172.856 330.878,172.946 329.6,172.946C327.847,172.946 326.272,172.697 324.877,172.204C323.481,171.706 322.295,171.028 321.318,170.165C320.341,169.302 319.595,168.285 319.071,167.109C318.552,165.933 318.291,164.65 318.291,163.26C318.291,161.835 318.565,160.543 319.124,159.384C319.678,158.225 320.437,157.182 321.396,156.255C322.356,155.328 323.472,154.5 324.75,153.77C326.028,153.041 327.402,152.371 328.868,151.758C330.329,151.144 331.855,150.582 333.434,150.071C335.017,149.556 336.583,149.067 338.132,148.603L339.392,148.307L339.392,144.629C339.392,142.247 338.93,140.556 338.005,139.56C337.08,138.569 335.842,138.071 334.293,138.071C332.475,138.071 331.214,138.504 330.507,139.363C329.801,140.225 329.448,141.268 329.448,142.492C329.448,143.187 329.369,143.869 329.221,144.53C329.068,145.191 328.806,145.77 328.436,146.268C328.069,146.766 327.537,147.165 326.848,147.461C326.159,147.758 325.291,147.908 324.249,147.908C322.63,147.908 321.318,147.453 320.31,146.543C319.298,145.629 318.797,144.479 318.797,143.088C318.797,141.796 319.241,140.599 320.131,139.487C321.025,138.376 322.225,137.423 323.743,136.633C325.256,135.835 327.005,135.208 328.994,134.745C330.979,134.281 333.081,134.05 335.301,134.05C338.031,134.05 340.378,134.29 342.349,134.766C344.316,135.247 345.939,135.934 347.217,136.831C348.499,137.723 349.441,138.801 350.043,140.058C350.654,141.316 350.955,142.728 350.955,144.281L350.955,172.251Z" style="fill:rgb(246,246,246);fill-rule:nonzero;"/>
        </g>
        <g transform="matrix(0,-1,-1,0,420.196,263.758)">
            <path d="M237.662,172.594C233.413,172.594 229.971,176.092 229.971,180.41C229.971,184.723 233.413,188.226 237.662,188.226C241.911,188.226 245.353,184.723 245.353,180.41C245.353,176.092 241.911,172.594 237.662,172.594" style="fill:rgb(64,98,215);fill-rule:nonzero;"/>
        </g>
        <g transform="matrix(0,-1,-1,0,518.089,329.643)">
            <path d="M319.551,188.598C315.306,188.598 311.86,192.096 311.86,196.414C311.86,200.732 315.306,204.23 319.551,204.23C323.8,204.23 327.242,200.732 327.242,196.414C327.242,192.096 323.8,188.598 319.551,188.598" style="fill:rgb(56,151,37);fill-rule:nonzero;"/>
        </g>
        <g transform="matrix(0,-1,-1,0,511.476,355.038)">
            <path d="M328.942,172.594C324.693,172.594 321.251,176.097 321.251,180.41C321.251,184.728 324.693,188.226 328.942,188.226C333.191,188.226 336.633,184.728 336.633,180.41C336.633,176.097 333.191,172.594 328.942,172.594" style="fill:rgb(148,87,177);fill-rule:nonzero;"/>
        </g>
        <g transform="matrix(0,-1,-1,0,492.695,336.257)">
            <path d="M310.161,172.594C305.912,172.594 302.47,176.092 302.47,180.41C302.47,184.728 305.912,188.226 310.161,188.226C314.41,188.226 317.852,184.728 317.852,180.41C317.852,176.092 314.41,172.594 310.161,172.594" style="fill:rgb(202,59,51);fill-rule:nonzero;"/>
        </g>
        <g transform="matrix(1,0,0,1,2.12354,-95.5978)">
            <path d="M413.521,170.065C409.748,170.065 406.281,169.279 403.127,167.713C399.969,166.146 397.466,163.936 395.612,161.086C393.758,158.237 392.829,154.988 392.829,151.34C392.829,147.82 393.676,144.601 395.368,141.687C397.06,138.777 399.468,136.456 402.591,134.726C405.714,132.996 409.255,132.134 413.224,132.134C416.805,132.134 420.172,132.889 423.326,134.391C426.483,135.898 429.035,138.056 430.989,140.872C432.939,143.692 433.916,146.988 433.916,150.764C433.916,154.284 433.069,157.52 431.377,160.464C429.685,163.408 427.277,165.743 424.154,167.472C421.031,169.202 417.485,170.065 413.521,170.065ZM373.704,170.065C370.254,170.065 367.083,169.232 364.187,167.567C361.291,165.902 359.014,163.679 357.357,160.893C355.699,158.108 354.866,155.116 354.866,151.915C354.866,148.589 355.73,145.387 357.452,142.314C359.18,139.241 361.552,136.777 364.579,134.919C367.602,133.061 370.969,132.134 374.681,132.134C377.088,132.134 379.426,132.533 381.703,133.335C383.98,134.134 385.838,135.19 387.268,136.503C388.699,137.816 389.414,139.241 389.414,140.777C389.414,142.25 388.782,143.434 387.513,144.331C386.243,145.228 384.765,145.674 383.072,145.674C381.576,145.674 380.307,145.292 379.265,144.524C378.222,143.756 377.673,142.73 377.607,141.451C377.542,139.786 377.315,138.567 376.923,137.799C376.534,137.031 375.523,136.649 373.9,136.649C371.492,136.649 369.586,137.623 368.191,139.576C366.791,141.529 366.093,144.202 366.093,147.597C366.093,151.503 366.904,155.039 368.531,158.206C370.158,161.374 372.565,162.957 375.754,162.957C378.03,162.957 379.98,162.129 381.607,160.464C383.234,158.799 384.73,156.494 386.095,153.55L391.464,154.988C390.164,159.726 387.966,163.425 384.878,166.082C381.786,168.739 378.061,170.065 373.704,170.065ZM414.69,165.743C417.163,165.743 418.951,164.575 420.059,162.241C421.162,159.902 421.716,156.94 421.716,153.357C421.716,148.747 420.87,144.795 419.178,141.498C417.485,138.202 415.244,136.55 412.443,136.55C409.97,136.55 408.104,137.786 406.834,140.25C405.565,142.713 404.933,145.704 404.933,149.228C404.933,153.451 405.809,157.262 407.567,160.653C409.325,164.048 411.698,165.743 414.69,165.743ZM436.746,132.709L448.161,132.709L448.161,135.687C451.611,133.254 455.383,132.039 459.483,132.039C463.583,132.039 466.558,133.078 468.411,135.159C470.265,137.241 471.194,139.975 471.194,143.37L471.194,169.777L459.972,169.777L459.972,144.425C459.972,142.632 459.645,141.211 458.995,140.151C458.345,139.095 457.368,138.567 456.068,138.567C454.049,138.567 451.414,139.915 448.161,142.601L448.161,169.777L436.746,169.777L436.746,132.709Z" style="fill:rgb(246,246,246);fill-rule:nonzero;"/>
        </g>
        <g transform="matrix(1,0,0,1,2.12354,0.738248)">
            <g transform="matrix(111.3,0,0,109.519,245.821,147.63)">
                <path d="M0.445,-0L0.017,-0L0.017,-0.212L0.217,-0.381C0.224,-0.386 0.229,-0.392 0.232,-0.397C0.235,-0.402 0.236,-0.407 0.236,-0.414C0.236,-0.419 0.234,-0.423 0.231,-0.427C0.228,-0.43 0.221,-0.432 0.212,-0.432C0.197,-0.432 0.182,-0.432 0.167,-0.431C0.152,-0.43 0.137,-0.428 0.122,-0.427C0.107,-0.425 0.092,-0.423 0.079,-0.421C0.066,-0.419 0.054,-0.417 0.044,-0.415L0.044,-0.612C0.065,-0.618 0.096,-0.624 0.137,-0.629C0.177,-0.634 0.219,-0.637 0.264,-0.637C0.327,-0.637 0.375,-0.622 0.407,-0.591C0.438,-0.56 0.454,-0.52 0.454,-0.471C0.454,-0.431 0.448,-0.399 0.437,-0.375C0.426,-0.351 0.409,-0.329 0.388,-0.31L0.277,-0.212L0.445,-0.212L0.445,-0Z" style="fill:rgb(246,246,246);fill-rule:nonzero;"/>
            </g>
            <g transform="matrix(111.3,0,0,109.519,295.238,147.63)">
                <path d="M0.287,-0.432C0.276,-0.432 0.267,-0.429 0.262,-0.424C0.256,-0.419 0.252,-0.408 0.251,-0.391C0.249,-0.374 0.248,-0.348 0.248,-0.313C0.248,-0.288 0.249,-0.269 0.25,-0.254C0.251,-0.239 0.252,-0.227 0.255,-0.22C0.258,-0.212 0.262,-0.207 0.267,-0.204C0.272,-0.201 0.278,-0.2 0.287,-0.2C0.298,-0.2 0.307,-0.203 0.312,-0.208C0.317,-0.213 0.321,-0.224 0.323,-0.24C0.324,-0.256 0.325,-0.28 0.325,-0.313C0.325,-0.339 0.325,-0.36 0.324,-0.376C0.323,-0.391 0.321,-0.403 0.318,-0.412C0.315,-0.42 0.312,-0.425 0.307,-0.428C0.302,-0.431 0.295,-0.432 0.287,-0.432ZM0.287,0.012C0.235,0.012 0.192,0.007 0.157,-0.003C0.122,-0.013 0.095,-0.03 0.075,-0.054C0.054,-0.078 0.04,-0.111 0.031,-0.154C0.022,-0.196 0.018,-0.249 0.018,-0.313C0.018,-0.379 0.024,-0.433 0.035,-0.475C0.046,-0.517 0.062,-0.55 0.085,-0.574C0.108,-0.597 0.136,-0.614 0.17,-0.623C0.203,-0.632 0.242,-0.637 0.287,-0.637C0.339,-0.637 0.382,-0.632 0.417,-0.622C0.452,-0.612 0.479,-0.595 0.5,-0.571C0.52,-0.547 0.534,-0.514 0.543,-0.472C0.551,-0.43 0.555,-0.377 0.555,-0.313C0.555,-0.247 0.55,-0.193 0.539,-0.151C0.528,-0.108 0.511,-0.075 0.489,-0.052C0.467,-0.028 0.439,-0.011 0.406,-0.002C0.372,0.007 0.332,0.012 0.287,0.012Z" style="fill:rgb(246,246,246);fill-rule:nonzero;"/>
            </g>
            <g transform="matrix(111.3,0,0,109.519,356.915,147.63)">
                <path d="M0.445,-0L0.017,-0L0.017,-0.212L0.217,-0.381C0.224,-0.386 0.229,-0.392 0.232,-0.397C0.235,-0.402 0.236,-0.407 0.236,-0.414C0.236,-0.419 0.234,-0.423 0.231,-0.427C0.228,-0.43 0.221,-0.432 0.212,-0.432C0.197,-0.432 0.182,-0.432 0.167,-0.431C0.152,-0.43 0.137,-0.428 0.122,-0.427C0.107,-0.425 0.092,-0.423 0.079,-0.421C0.066,-0.419 0.054,-0.417 0.044,-0.415L0.044,-0.612C0.065,-0.618 0.096,-0.624 0.137,-0.629C0.177,-0.634 0.219,-0.637 0.264,-0.637C0.327,-0.637 0.375,-0.622 0.407,-0.591C0.438,-0.56 0.454,-0.52 0.454,-0.471C0.454,-0.431 0.448,-0.399 0.437,-0.375C0.426,-0.351 0.409,-0.329 0.388,-0.31L0.277,-0.212L0.445,-0.212L0.445,-0Z" style="fill:rgb(246,246,246);fill-rule:nonzero;"/>
            </g>
            <g transform="matrix(111.3,0,0,109.519,406.332,147.63)">
                <path d="M0.524,-0.117L0.474,-0.117L0.474,-0L0.247,-0L0.247,-0.117L0.017,-0.117L0.017,-0.315L0.083,-0.627L0.293,-0.627L0.239,-0.315L0.265,-0.315L0.3,-0.517L0.474,-0.517L0.474,-0.315L0.524,-0.315L0.524,-0.117Z" style="fill:rgb(246,246,246);fill-rule:nonzero;"/>
            </g>
        </g>
        <g transform="matrix(1,0,0,1,2.12354,0.738248)">
            <g transform="matrix(57.3433,0,0,57.3433,216.145,189.658)">
                <path d="M0.48,-0L0.048,-0L0.048,-0.627L0.471,-0.627L0.471,-0.487L0.203,-0.487L0.203,-0.383L0.434,-0.383L0.434,-0.253L0.203,-0.253L0.203,-0.145L0.48,-0.145L0.48,-0Z" style="fill:rgb(246,246,246);fill-rule:nonzero;"/>
            </g>
            <g transform="matrix(57.3433,0,0,57.3433,246.136,189.658)">
                <path d="M0.043,-0L0.043,-0.494L0.193,-0.494L0.193,-0L0.043,-0ZM0.039,-0.548L0.039,-0.665L0.197,-0.665L0.197,-0.548L0.039,-0.548Z" style="fill:rgb(246,246,246);fill-rule:nonzero;"/>
            </g>
            <g transform="matrix(57.3433,0,0,57.3433,258.407,189.658)">
                <path d="M0.043,-0L0.043,-0.494L0.173,-0.494L0.179,-0.442L0.193,-0.442L0.193,-0L0.043,-0ZM0.165,-0.326L0.165,-0.423C0.19,-0.454 0.217,-0.475 0.245,-0.487C0.272,-0.498 0.305,-0.504 0.342,-0.504C0.397,-0.504 0.439,-0.491 0.468,-0.464C0.497,-0.437 0.512,-0.397 0.512,-0.342L0.512,-0L0.362,-0L0.362,-0.322C0.362,-0.338 0.356,-0.35 0.343,-0.358C0.33,-0.365 0.312,-0.369 0.289,-0.369C0.259,-0.369 0.233,-0.364 0.211,-0.355C0.189,-0.345 0.174,-0.335 0.165,-0.326Z" style="fill:rgb(246,246,246);fill-rule:nonzero;"/>
            </g>
            <g transform="matrix(57.3433,0,0,57.3433,290.175,189.658)">
                <path d="M0.498,-0.665L0.498,-0L0.365,-0L0.357,-0.046L0.348,-0.046L0.348,-0.665L0.498,-0.665ZM0.382,-0.165L0.402,-0.125C0.384,-0.078 0.358,-0.043 0.325,-0.022C0.291,-0.001 0.251,0.01 0.206,0.01C0.163,0.01 0.128,0.002 0.101,-0.016C0.074,-0.033 0.055,-0.06 0.043,-0.098C0.031,-0.135 0.025,-0.185 0.025,-0.247C0.025,-0.309 0.033,-0.359 0.05,-0.397C0.066,-0.434 0.09,-0.462 0.124,-0.479C0.157,-0.496 0.198,-0.504 0.248,-0.504C0.272,-0.504 0.295,-0.502 0.316,-0.499C0.337,-0.495 0.356,-0.489 0.371,-0.481C0.386,-0.473 0.397,-0.462 0.403,-0.448L0.372,-0.343C0.363,-0.349 0.351,-0.355 0.337,-0.361C0.323,-0.366 0.3,-0.369 0.269,-0.369C0.243,-0.369 0.223,-0.366 0.21,-0.36C0.196,-0.354 0.187,-0.342 0.182,-0.325C0.177,-0.308 0.175,-0.282 0.175,-0.247C0.175,-0.212 0.177,-0.187 0.182,-0.17C0.187,-0.153 0.195,-0.142 0.208,-0.137C0.22,-0.132 0.237,-0.129 0.26,-0.129C0.285,-0.129 0.305,-0.131 0.322,-0.136C0.338,-0.14 0.351,-0.145 0.361,-0.151C0.371,-0.157 0.378,-0.162 0.382,-0.165Z" style="fill:rgb(246,246,246);fill-rule:nonzero;"/>
            </g>
            <g transform="matrix(57.3433,0,0,57.3433,321.198,189.658)">
                <path d="M0.043,-0L0.043,-0.665L0.193,-0.665L0.193,-0L0.043,-0ZM0.165,-0.343L0.165,-0.441C0.185,-0.454 0.211,-0.468 0.244,-0.483C0.276,-0.497 0.31,-0.504 0.345,-0.504C0.401,-0.504 0.443,-0.491 0.471,-0.464C0.498,-0.437 0.512,-0.397 0.512,-0.342L0.512,-0L0.362,-0L0.362,-0.322C0.362,-0.338 0.357,-0.35 0.348,-0.358C0.339,-0.365 0.322,-0.369 0.299,-0.369C0.279,-0.369 0.26,-0.367 0.241,-0.364C0.222,-0.361 0.206,-0.357 0.193,-0.353C0.179,-0.349 0.17,-0.346 0.165,-0.343Z" style="fill:rgb(246,246,246);fill-rule:nonzero;"/>
            </g>
            <g transform="matrix(57.3433,0,0,57.3433,352.909,189.658)">
                <path d="M0.269,0.01C0.21,0.01 0.163,0.002 0.128,-0.016C0.092,-0.033 0.066,-0.06 0.05,-0.098C0.033,-0.135 0.025,-0.185 0.025,-0.247C0.025,-0.309 0.033,-0.359 0.05,-0.397C0.066,-0.434 0.092,-0.462 0.128,-0.479C0.163,-0.496 0.21,-0.504 0.269,-0.504C0.328,-0.504 0.375,-0.496 0.411,-0.479C0.446,-0.462 0.472,-0.434 0.489,-0.397C0.505,-0.359 0.513,-0.309 0.513,-0.247C0.513,-0.185 0.505,-0.135 0.489,-0.098C0.472,-0.06 0.446,-0.033 0.411,-0.016C0.375,0.002 0.328,0.01 0.269,0.01ZM0.269,-0.129C0.296,-0.129 0.316,-0.132 0.329,-0.138C0.342,-0.143 0.351,-0.155 0.356,-0.172C0.361,-0.189 0.363,-0.214 0.363,-0.249C0.363,-0.284 0.361,-0.31 0.356,-0.327C0.351,-0.343 0.342,-0.355 0.329,-0.361C0.316,-0.366 0.296,-0.369 0.269,-0.369C0.243,-0.369 0.223,-0.366 0.21,-0.361C0.196,-0.355 0.187,-0.343 0.182,-0.327C0.177,-0.31 0.175,-0.284 0.175,-0.249C0.175,-0.214 0.177,-0.189 0.182,-0.172C0.187,-0.155 0.196,-0.143 0.21,-0.138C0.223,-0.132 0.243,-0.129 0.269,-0.129Z" style="fill:rgb(246,246,246);fill-rule:nonzero;"/>
            </g>
            <g transform="matrix(57.3433,0,0,57.3433,383.53,189.658)">
                <path d="M0.513,-0.494L0.343,-0L0.171,-0L0,-0.494L0.165,-0.494L0.258,-0.136L0.35,-0.494L0.513,-0.494Z" style="fill:rgb(246,246,246);fill-rule:nonzero;"/>
            </g>
            <g transform="matrix(57.3433,0,0,57.3433,411.284,189.658)">
                <path d="M0.258,-0.376C0.225,-0.376 0.204,-0.371 0.193,-0.36C0.182,-0.349 0.176,-0.327 0.176,-0.295L0.337,-0.295L0.337,-0.317C0.336,-0.342 0.33,-0.358 0.319,-0.365C0.308,-0.372 0.288,-0.376 0.258,-0.376ZM0.452,-0.027C0.438,-0.018 0.413,-0.009 0.376,-0.002C0.339,0.006 0.298,0.01 0.251,0.01C0.198,0.01 0.154,0.001 0.121,-0.017C0.088,-0.034 0.063,-0.062 0.048,-0.1C0.033,-0.137 0.025,-0.186 0.025,-0.247C0.025,-0.336 0.044,-0.401 0.081,-0.442C0.118,-0.483 0.177,-0.504 0.258,-0.504C0.313,-0.504 0.356,-0.497 0.387,-0.483C0.418,-0.468 0.44,-0.446 0.454,-0.415C0.467,-0.384 0.473,-0.344 0.473,-0.293C0.473,-0.272 0.473,-0.255 0.472,-0.242C0.471,-0.229 0.47,-0.215 0.468,-0.198L0.176,-0.198C0.177,-0.178 0.18,-0.163 0.187,-0.153C0.194,-0.142 0.204,-0.135 0.219,-0.131C0.233,-0.127 0.252,-0.125 0.275,-0.125C0.314,-0.125 0.35,-0.128 0.383,-0.133C0.416,-0.138 0.439,-0.142 0.452,-0.146L0.452,-0.027Z" style="fill:rgb(246,246,246);fill-rule:nonzero;"/>
            </g>
            <g transform="matrix(57.3433,0,0,57.3433,439.841,189.658)">
                <path d="M0.043,-0L0.043,-0.494L0.173,-0.494L0.179,-0.442L0.193,-0.442L0.193,-0L0.043,-0ZM0.165,-0.326L0.165,-0.423C0.19,-0.454 0.217,-0.475 0.245,-0.487C0.272,-0.498 0.305,-0.504 0.342,-0.504C0.397,-0.504 0.439,-0.491 0.468,-0.464C0.497,-0.437 0.512,-0.397 0.512,-0.342L0.512,-0L0.362,-0L0.362,-0.322C0.362,-0.338 0.356,-0.35 0.343,-0.358C0.33,-0.365 0.312,-0.369 0.289,-0.369C0.259,-0.369 0.233,-0.364 0.211,-0.355C0.189,-0.345 0.174,-0.335 0.165,-0.326Z" style="fill:rgb(246,246,246);fill-rule:nonzero;"/>
            </g>
        </g>
    </g>
    <g transform="matrix(0.478,0,0,0.478,106.781,98.5978)">
        <g transform="matrix(1,0,0,1,-250,-250)">
            <g id="surface791">
                <path d="M386.398,293.602L384.063,288.742L381.473,284.184L378.613,279.914L375.496,275.945L372.109,272.262L368.473,268.883L364.563,265.793L360.398,263L356.063,260.512L351.672,258.355L347.215,256.535L342.699,255.047L338.113,253.887L333.473,253.059L328.766,252.563L324,252.398L319.02,252.609L314.094,253.246L309.219,254.309L304.398,255.797L299.621,257.707L294.898,260.043L290.223,262.809L285.602,266L285.602,246.398L289.621,243.309L293.695,239.648L297.82,235.41L302,230.602L305.922,225.434L309.301,220.148L312.121,214.734L314.398,209.199L448.801,209.199L449.199,222.801L449.797,238.496L450,250.398L449.797,262.395L449.199,279.199L448.801,293.602" style="fill:rgb(49,205,49);fill-rule:nonzero;stroke:rgb(49,205,49);stroke-width:1px;"/>
                <path d="M213.199,450L199.031,449.617L185.746,449.094L173.332,448.418L161.797,447.598L151.129,446.617L141.344,445.496L132.434,444.223L124.398,442.801L117.02,441.129L110.094,439.121L103.621,436.773L97.598,434.098L92.02,431.074L86.895,427.719L82.219,424.023L78,420L74.152,415.52L70.621,410.496L67.398,404.918L64.496,398.797L61.902,392.121L59.621,384.898L57.652,377.121L56,368.801L130,368.801L134.559,372.945L139.449,376.598L144.656,379.742L150.199,382.398L153.129,383.516L156.234,384.492L159.504,385.316L162.949,385.996L166.555,386.516L170.332,386.895L174.281,387.121L178.398,387.199L183.379,387.047L187.945,386.594L192.082,385.844L195.801,384.801L199.512,383.371L203.648,381.496L208.207,379.168L213.199,376.398" style="fill:rgb(202,59,51);fill-rule:nonzero;stroke:rgb(202,59,51);stroke-width:1px;"/>
                <path d="M113.602,342.801L115.969,348.594L118.695,353.996L121.766,358.996L125.199,363.602L57.602,363.602" style="fill:rgb(64,98,215);fill-rule:nonzero;stroke:rgb(64,98,215);stroke-width:1px;"/>
                <path d="M54.801,359.602L53.348,346.949L52.199,332.598L51.344,316.547L50.801,298.801L113.602,298.801L112.02,303.422L110.895,308.496L110.223,314.023L110,320L110.145,324.695L110.598,329.199L111.344,333.496L112.398,337.602" style="fill:rgb(127,254,0);fill-rule:nonzero;stroke:rgb(127,254,0);stroke-width:1px;"/>
                <path d="M177.602,382.398L170.895,382.168L164.797,381.496L159.293,380.371L156.77,379.641L154.398,378.801L149.871,376.82L145.496,374.496L141.273,371.824L137.199,368.801L213.199,368.801L213.199,370.801L207.531,373.922L202.547,376.496L198.234,378.52L194.602,380L191.059,381.047L187.047,381.797L182.559,382.246" style="fill:rgb(56,151,37);fill-rule:nonzero;stroke:rgb(56,151,37);stroke-width:1px;"/>
                <path d="M131.602,363.602L129.895,361.75L128.195,359.617L126.496,357.195L124.797,354.496L121.398,348.219L118,340.801L213.199,300L213.199,363.602" style="fill:rgb(49,205,49);fill-rule:nonzero;stroke:rgb(49,205,49);stroke-width:1px;"/>
                <path d="M223.199,368.801L278,368.801L218.398,448L218.398,373.199" style="fill:rgb(143,237,143);fill-rule:nonzero;stroke:rgb(143,237,143);stroke-width:1px;"/>
                <path d="M280.398,373.602L280.398,450L223.199,450" style="fill:rgb(148,87,177);fill-rule:nonzero;stroke:rgb(148,87,177);stroke-width:1px;"/>
                <path d="M116.801,336L115.922,331.648L115.297,327.398L114.922,323.246L114.801,319.199L115.047,313.27L115.797,307.895L116.355,305.41L117.047,303.07L117.859,300.863L118.801,298.801L204,298.801" style="fill:rgb(202,59,51);fill-rule:nonzero;stroke:rgb(202,59,51);stroke-width:1px;"/>
                <path d="M50.801,293.602L50.699,281.996L50.398,273.602L50,250L50.398,227.199L50.699,219.699L50.801,209.199L186.801,209.199L188.27,214.531L190.293,219.746L192.867,224.832L196,229.801L199.621,234.512L203.695,238.848L208.219,242.809L213.199,246.398L213.199,262.801L209.043,260.355L204.797,258.246L200.441,256.453L195.996,254.996L191.441,253.855L186.797,253.047L182.043,252.555L177.199,252.398L171.957,252.59L166.836,253.172L161.832,254.137L156.949,255.496L152.18,257.238L147.535,259.375L143.008,261.891L138.602,264.801L134.43,267.961L130.633,271.246L127.203,274.656L124.145,278.199L121.449,281.859L119.129,285.648L117.176,289.559L115.602,293.602" style="fill:rgb(64,98,215);fill-rule:nonzero;stroke:rgb(64,98,215);stroke-width:1px;"/>
                <path d="M120.801,293.602L122.445,290.051L124.398,286.625L126.641,283.301L129.195,280.098L132.043,277L135.195,274.023L138.641,271.152L142.398,268.398L146.355,265.863L150.445,263.668L154.66,261.813L159,260.297L163.461,259.113L168.047,258.273L172.758,257.766L177.602,257.602L182.441,257.77L187.172,258.297L191.789,259.168L196.301,260.398L200.691,261.969L204.973,263.895L209.141,266.168L213.199,268.801L213.199,293.602" style="fill:rgb(63,223,207);fill-rule:nonzero;stroke:rgb(63,223,207);stroke-width:1px;"/>
                <path d="M218.398,302.398L239.199,324L238.695,329.094L237.598,334.398L235.895,339.898L233.602,345.602L230.848,351.094L227.797,355.996L226.156,358.215L224.445,360.293L222.656,362.219L220.801,364L218.398,367.199" style="fill:rgb(202,59,51);fill-rule:nonzero;stroke:rgb(202,59,51);stroke-width:1px;"/>
                <path d="M227.602,363.602L230.484,359.883L233.148,355.945L235.582,351.781L237.801,347.398L239.734,342.934L241.348,338.547L242.637,334.234L243.602,330L247.164,334.633L250.871,339.145L254.711,343.531L258.695,347.797L262.809,351.93L267.07,355.945L271.465,359.832L276,363.602" style="fill:rgb(56,151,37);fill-rule:nonzero;stroke:rgb(56,151,37);stroke-width:1px;"/>
                <path d="M221.602,298.801L235.199,298.801L236.793,303.25L237.996,307.801L238.793,312.449L239.199,317.199" style="fill:rgb(148,87,177);fill-rule:nonzero;stroke:rgb(148,87,177);stroke-width:1px;"/>
                <path d="M264.801,347.199L259.473,341.598L254.297,335.598L249.27,329.195L244.398,322.398L244.145,315.965L243.395,309.895L242.145,304.168L240.398,298.801L262,298.801L260.348,303.797L259.398,307.602L258.945,311.199L258.801,315.602L258.895,320.375L259.176,324.922L259.645,329.223L260.301,333.297L261.145,337.125L262.176,340.723L263.395,344.074" style="fill:rgb(148,87,177);fill-rule:nonzero;stroke:rgb(148,87,177);stroke-width:1px;"/>
                <path d="M228,284L231.297,289.594L233.199,293.602L220.801,293.602" style="fill:rgb(148,87,177);fill-rule:nonzero;stroke:rgb(148,87,177);stroke-width:1px;"/>
                <path d="M218.398,273.199L224.801,280L218.398,288.801" style="fill:rgb(202,59,51);fill-rule:nonzero;stroke:rgb(202,59,51);stroke-width:1px;"/>
                <path d="M280.398,359.602L276.133,354.672L272.547,349.898L269.629,345.273L267.398,340.801L266.508,338.477L265.734,335.922L265.078,333.125L264.551,330.098L263.836,323.32L263.602,315.602L263.746,311.398L264.199,307.602L265.148,303.594L266.801,298.801L280.398,298.801" style="fill:rgb(254,105,179);fill-rule:nonzero;stroke:rgb(254,105,179);stroke-width:1px;"/>
                <path d="M328.398,382.398L323.586,382.18L318.766,381.547L313.934,380.48L309.098,378.996L304.238,377.078L299.371,374.746L294.492,371.98L289.602,368.801L364.398,368.801L360.418,371.98L356.297,374.746L352.02,377.078L347.598,378.996L343.02,380.48L338.297,381.547L333.418,382.18" style="fill:rgb(56,151,37);fill-rule:nonzero;stroke:rgb(56,151,37);stroke-width:1px;"/>
                <path d="M285.602,371.602L289.961,374.684L294.648,377.547L299.656,380.184L305,382.602L307.766,383.672L310.582,384.609L313.438,385.395L316.344,386.047L322.281,386.91L328.398,387.199L331.477,387.121L334.52,386.895L337.527,386.516L340.5,385.996L343.426,385.32L346.32,384.496L349.176,383.52L352,382.398L354.75,381.129L357.422,379.742L360,378.23L362.496,376.598L364.898,374.832L367.219,372.945L369.453,370.934L371.602,368.801L443.602,368.801L441.941,377.121L439.973,384.898L437.688,392.121L435.098,398.797L432.188,404.918L428.973,410.496L425.438,415.52L421.602,420L417.367,424.023L412.684,427.719L407.539,431.074L401.945,434.098L395.891,436.773L389.383,439.121L382.414,441.129L375,442.801L366.906,444.223L357.934,445.496L348.078,446.617L337.348,447.598L325.73,448.418L313.234,449.094L299.855,449.617L285.602,450" style="fill:rgb(148,87,177);fill-rule:nonzero;stroke:rgb(148,87,177);stroke-width:1px;"/>
                <path d="M201.199,142.801L198.785,145.332L196.559,147.945L194.508,150.633L192.645,153.398L190.957,156.234L189.457,159.145L188.137,162.133L187,165.199L185.156,171.367L183.848,177.496L183.059,183.57L182.801,189.602L182.945,193.371L183.398,197.098L184.145,200.77L185.199,204.398L56.398,204.398" style="fill:rgb(127,254,212);fill-rule:nonzero;stroke:rgb(127,254,212);stroke-width:1px;"/>
                <path d="M50.801,201.199L51.371,181.547L52.297,164.195L53.57,149.148L54.336,142.484L55.199,136.398L204,136.398" style="fill:rgb(254,105,179);fill-rule:nonzero;stroke:rgb(254,105,179);stroke-width:1px;"/>
                <path d="M228,276.398L223.797,271.695L218.398,266.398L218.398,249.199L225.02,251.695L231.695,253.598L238.422,254.895L241.801,255.32L245.199,255.602" style="fill:rgb(148,87,177);fill-rule:nonzero;stroke:rgb(148,87,177);stroke-width:1px;"/>
                <path d="M213.199,240.398L209.344,237.258L205.797,233.848L202.543,230.16L199.602,226.199L197.023,222.055L194.895,217.848L193.219,213.559L192,209.199L213.199,209.199" style="fill:rgb(254,254,0);fill-rule:nonzero;stroke:rgb(254,254,0);stroke-width:1px;"/>
                <path d="M238.398,293.602L236.746,289.895L234.996,286.398L233.145,283.098L231.199,280L251.199,255.602L255.324,255.496L259.32,255.195L263.176,254.695L266.898,253.996L270.477,253.09L273.922,251.992L277.227,250.695L280.398,249.199L280.398,270L273.949,276.398L271.586,278.996L269.801,281.199L268.281,283.469L266.746,286.297L265.184,289.672L263.602,293.602" style="fill:rgb(254,214,0);fill-rule:nonzero;stroke:rgb(254,214,0);stroke-width:1px;"/>
                <path d="M268.801,293.602L271.449,288.297L273.801,284.398L275.031,282.746L276.543,280.996L280.398,277.199L280.398,293.602" style="fill:rgb(148,87,177);fill-rule:nonzero;stroke:rgb(148,87,177);stroke-width:1px;"/>
                <path d="M388,328.801L387.355,333.715L386.242,338.473L384.652,343.066L382.598,347.5L380.055,351.766L377.043,355.875L373.555,359.816L369.602,363.602L296,363.602" style="fill:rgb(56,151,37);fill-rule:nonzero;stroke:rgb(56,151,37);stroke-width:1px;"/>
                <path d="M285.602,298.801L383.602,298.801L385.148,302.496L386.602,306.398L387.746,310.098L388.398,313.199L388.695,315.621L388.797,318.098L388.695,320.621L388.398,323.199L285.602,362.398" style="fill:rgb(56,151,37);fill-rule:nonzero;stroke:rgb(56,151,37);stroke-width:1px;"/>
                <path d="M248.801,250.801L244.734,250.598L240.746,250.195L236.832,249.594L233,248.797L229.234,247.793L225.547,246.594L221.934,245.195L218.398,243.602L218.398,209.199L278,209.199" style="fill:rgb(56,151,37);fill-rule:nonzero;stroke:rgb(56,151,37);stroke-width:1px;"/>
                <path d="M190.801,204.398L189.57,201.344L188.695,198.199L188.168,194.945L188,191.602L188.086,187.902L188.355,184.234L188.805,180.578L189.445,176.945L190.258,173.324L191.258,169.734L192.434,166.152L193.801,162.602L195.367,159.113L197.184,155.758L199.242,152.531L201.547,149.445L204.09,146.484L206.883,143.656L209.914,140.957L213.199,138.398L213.199,204.398" style="fill:rgb(254,164,0);fill-rule:nonzero;stroke:rgb(254,164,0);stroke-width:1px;"/>
                <path d="M280.398,214.398L280.398,244L277.805,245.328L275.043,246.523L272.105,247.578L268.996,248.5L265.707,249.277L262.246,249.922L258.605,250.426L254.801,250.801" style="fill:rgb(56,151,37);fill-rule:nonzero;stroke:rgb(56,151,37);stroke-width:1px;"/>
                <path d="M56,131.199L57.652,122.871L59.609,115.094L61.871,107.867L64.449,101.195L67.32,95.066L70.508,89.492L74,84.469L77.801,80L81.973,75.965L86.605,72.27L91.695,68.914L97.246,65.898L103.246,63.211L109.707,60.871L116.625,58.863L124,57.199L132.039,55.77L140.973,54.496L150.785,53.367L161.496,52.398L173.086,51.57L185.57,50.895L198.938,50.371L213.199,50L213.199,131.199" style="fill:rgb(64,98,215);fill-rule:nonzero;stroke:rgb(64,98,215);stroke-width:1px;"/>
                <path d="M285.602,272.801L289.309,269.723L293.25,266.898L297.41,264.32L301.801,262L304.113,260.961L306.559,260.07L309.133,259.309L311.848,258.695L314.684,258.211L317.656,257.871L324,257.602L328.359,257.742L332.66,258.176L336.891,258.891L341.051,259.898L345.141,261.188L349.16,262.77L353.109,264.641L357,266.801L360.742,269.227L364.281,271.922L367.617,274.875L370.746,278.098L373.664,281.578L376.383,285.32L378.891,289.328L381.199,293.602L285.602,293.602" style="fill:rgb(202,59,51);fill-rule:nonzero;stroke:rgb(202,59,51);stroke-width:1px;"/>
                <path d="M285.602,209.199L309.199,209.199L307.371,213.746L305.098,218.199L302.367,222.547L299.199,226.801L295.797,230.797L292.398,234.395L289,237.594L285.602,240.398" style="fill:rgb(148,87,177);fill-rule:nonzero;stroke:rgb(148,87,177);stroke-width:1px;"/>
                <path d="M218.398,140L277.199,204.398L218.398,204.398" style="fill:rgb(64,98,215);fill-rule:nonzero;stroke:rgb(64,98,215);stroke-width:1px;"/>
                <path d="M376.398,363.602L380.066,359.609L383.297,355.445L386.066,351.105L388.395,346.598L390.266,341.906L391.695,337.047L392.668,332.008L393.199,326.801L448.801,302L448.07,320.844L447.098,337.398L445.871,351.648L444.398,363.602" style="fill:rgb(254,130,250);fill-rule:nonzero;stroke:rgb(254,130,250);stroke-width:1px;"/>
                <path d="M221.602,136.398L280.398,136.398L280.398,200.398" style="fill:rgb(202,59,51);fill-rule:nonzero;stroke:rgb(202,59,51);stroke-width:1px;"/>
                <path d="M312.398,199.199L310.801,204.398L294.801,204.398" style="fill:rgb(202,59,51);fill-rule:nonzero;stroke:rgb(202,59,51);stroke-width:1px;"/>
                <path d="M393.602,317.199L393.496,313.496L393.199,311.199L392.32,307.719L391.297,304.496L390.121,301.52L388.801,298.801L444,298.801L393.602,320.801" style="fill:rgb(56,151,37);fill-rule:nonzero;stroke:rgb(56,151,37);stroke-width:1px;"/>
                <path d="M224.801,131.199L227.57,129.895L230.297,128.797L232.969,127.895L235.602,127.199L238.32,126.668L241.297,126.297L244.52,126.07L248,126L251.551,126.074L255.02,126.32L258.402,126.723L261.699,127.297L264.902,128.023L268.023,128.918L271.055,129.973L274,131.199" style="fill:rgb(254,105,179);fill-rule:nonzero;stroke:rgb(254,105,179);stroke-width:1px;"/>
                <path d="M285.602,138.398L288.344,140.191L290.992,142.184L293.539,144.367L295.996,146.75L298.344,149.316L300.594,152.082L302.742,155.043L304.801,158.199L306.672,161.527L308.297,165.031L309.668,168.703L310.797,172.547L311.672,176.555L312.297,180.73L312.672,185.078L312.801,189.602L312.801,194L285.602,203.602" style="fill:rgb(254,164,0);fill-rule:nonzero;stroke:rgb(254,164,0);stroke-width:1px;"/>
                <path d="M218.398,50L275.602,50L218.398,126.398" style="fill:rgb(49,205,49);fill-rule:nonzero;stroke:rgb(49,205,49);stroke-width:1px;"/>
                <path d="M280.398,129.199L276.73,127.316L272.945,125.695L269.031,124.316L264.996,123.195L260.828,122.316L256.547,121.695L252.133,121.32L247.602,121.199L244.523,121.27L241.52,121.496L238.57,121.867L235.695,122.398L232.875,123.07L230.121,123.895L227.426,124.871L224.801,126L280.398,52" style="fill:rgb(202,59,51);fill-rule:nonzero;stroke:rgb(202,59,51);stroke-width:1px;"/>
                <path d="M317.602,189.602L317.477,185.078L317.121,180.719L316.523,176.523L315.695,172.496L314.621,168.621L313.32,164.918L311.773,161.375L310,158L308.039,154.77L305.969,151.695L303.789,148.77L301.5,145.996L299.09,143.367L296.57,140.895L293.941,138.57L291.199,136.398L444,136.398L317.602,192" style="fill:rgb(254,254,0);fill-rule:nonzero;stroke:rgb(254,254,0);stroke-width:1px;"/>
                <path d="M316,204.398L316.797,201.797L317.602,197.199L445.199,141.199L446.473,154.594L447.496,169.594L448.27,186.195L448.801,204.398" style="fill:rgb(254,129,70);fill-rule:nonzero;stroke:rgb(254,129,70);stroke-width:1px;"/>
                <path d="M285.602,50L299.855,50.371L313.234,50.895L325.73,51.57L337.348,52.398L348.078,53.367L357.934,54.496L366.906,55.77L375,57.199L382.414,58.863L389.383,60.871L395.891,63.211L401.945,65.898L407.539,68.914L412.684,72.27L417.367,75.965L421.602,80L425.438,84.469L428.973,89.492L432.188,95.066L435.098,101.195L437.688,107.867L439.973,115.094L441.941,122.871L443.602,131.199L285.602,131.199" style="fill:rgb(56,151,37);fill-rule:nonzero;stroke:rgb(56,151,37);stroke-width:1px;"/>
            </g>
        </g>
    </g>
</svg>
