<?xml version="1.0" encoding="UTF-8"?>
<svg xmlns="http://www.w3.org/2000/svg" xmlns:xlink="http://www.w3.org/1999/xlink" width="500pt" height="500pt" viewBox="0 0 500 500" version="1.1">
<g id="surface284">
<path style=" stroke:none;fill-rule:nonzero;fill:rgb(19.607843%,80.392157%,19.607843%);fill-opacity:1;" d="M 386.398438 293.601562 L 384.0625 288.742188 L 381.472656 284.183594 L 378.613281 279.914062 L 375.496094 275.945312 L 372.109375 272.261719 L 368.472656 268.882812 L 364.5625 265.792969 L 360.398438 263 L 356.0625 260.511719 L 351.671875 258.355469 L 347.214844 256.535156 L 342.699219 255.046875 L 338.113281 253.886719 L 333.472656 253.058594 L 328.765625 252.5625 L 324 252.398438 L 319.019531 252.609375 L 314.09375 253.246094 L 309.21875 254.308594 L 304.398438 255.796875 L 299.621094 257.707031 L 294.898438 260.042969 L 290.222656 262.808594 L 285.601562 266 L 285.601562 246.398438 L 289.621094 243.308594 L 293.695312 239.648438 L 297.820312 235.410156 L 302 230.601562 L 305.921875 225.433594 L 309.300781 220.148438 L 312.121094 214.734375 L 314.398438 209.199219 L 448.800781 209.199219 L 449.199219 222.800781 L 449.796875 238.496094 L 450 250.398438 L 449.796875 262.394531 L 449.199219 279.199219 L 448.800781 293.601562 "/>
<path style="fill:none;stroke-width:0.5;stroke-linecap:butt;stroke-linejoin:miter;stroke:rgb(0%,0%,0%);stroke-opacity:1;stroke-miterlimit:10;" d="M 386.398438 293.601562 L 384.0625 288.742188 L 381.472656 284.183594 L 378.613281 279.914062 L 375.496094 275.945312 L 372.109375 272.261719 L 368.472656 268.882812 L 364.5625 265.792969 L 360.398438 263 L 356.0625 260.511719 L 351.671875 258.355469 L 347.214844 256.535156 L 342.699219 255.046875 L 338.113281 253.886719 L 333.472656 253.058594 L 328.765625 252.5625 L 324 252.398438 L 319.019531 252.609375 L 314.09375 253.246094 L 309.21875 254.308594 L 304.398438 255.796875 L 299.621094 257.707031 L 294.898438 260.042969 L 290.222656 262.808594 L 285.601562 266 L 285.601562 246.398438 L 289.621094 243.308594 L 293.695312 239.648438 L 297.820312 235.410156 L 302 230.601562 L 305.921875 225.433594 L 309.300781 220.148438 L 312.121094 214.734375 L 314.398438 209.199219 L 448.800781 209.199219 L 449.199219 222.800781 L 449.796875 238.496094 L 450 250.398438 L 449.796875 262.394531 L 449.199219 279.199219 L 448.800781 293.601562 Z M 386.398438 293.601562 "/>
<path style=" stroke:none;fill-rule:nonzero;fill:rgb(79.6%,23.5%,20%);fill-opacity:1;" d="M 213.199219 450 L 199.03125 449.617188 L 185.746094 449.09375 L 173.332031 448.417969 L 161.796875 447.597656 L 151.128906 446.617188 L 141.34375 445.496094 L 132.433594 444.222656 L 124.398438 442.800781 L 117.019531 441.128906 L 110.09375 439.121094 L 103.621094 436.773438 L 97.597656 434.097656 L 92.019531 431.074219 L 86.894531 427.71875 L 82.21875 424.023438 L 78 420 L 74.152344 415.519531 L 70.621094 410.496094 L 67.398438 404.917969 L 64.496094 398.796875 L 61.902344 392.121094 L 59.621094 384.898438 L 57.652344 377.121094 L 56 368.800781 L 130 368.800781 L 134.558594 372.945312 L 139.449219 376.597656 L 144.65625 379.742188 L 150.199219 382.398438 L 153.128906 383.515625 L 156.234375 384.492188 L 159.503906 385.316406 L 162.949219 385.996094 L 166.554688 386.515625 L 170.332031 386.894531 L 174.28125 387.121094 L 178.398438 387.199219 L 183.378906 387.046875 L 187.945312 386.59375 L 192.082031 385.84375 L 195.800781 384.800781 L 199.511719 383.371094 L 203.648438 381.496094 L 208.207031 379.167969 L 213.199219 376.398438 "/>
<path style="fill:none;stroke-width:0.5;stroke-linecap:butt;stroke-linejoin:miter;stroke:rgb(0%,0%,0%);stroke-opacity:1;stroke-miterlimit:10;" d="M 213.199219 450 L 199.03125 449.617188 L 185.746094 449.09375 L 173.332031 448.417969 L 161.796875 447.597656 L 151.128906 446.617188 L 141.34375 445.496094 L 132.433594 444.222656 L 124.398438 442.800781 L 117.019531 441.128906 L 110.09375 439.121094 L 103.621094 436.773438 L 97.597656 434.097656 L 92.019531 431.074219 L 86.894531 427.71875 L 82.21875 424.023438 L 78 420 L 74.152344 415.519531 L 70.621094 410.496094 L 67.398438 404.917969 L 64.496094 398.796875 L 61.902344 392.121094 L 59.621094 384.898438 L 57.652344 377.121094 L 56 368.800781 L 130 368.800781 L 134.558594 372.945312 L 139.449219 376.597656 L 144.65625 379.742188 L 150.199219 382.398438 L 153.128906 383.515625 L 156.234375 384.492188 L 159.503906 385.316406 L 162.949219 385.996094 L 166.554688 386.515625 L 170.332031 386.894531 L 174.28125 387.121094 L 178.398438 387.199219 L 183.378906 387.046875 L 187.945312 386.59375 L 192.082031 385.84375 L 195.800781 384.800781 L 199.511719 383.371094 L 203.648438 381.496094 L 208.207031 379.167969 L 213.199219 376.398438 Z M 213.199219 450 "/>
<path style=" stroke:none;fill-rule:nonzero;fill:rgb(25.1%,38.8%,84.7%);fill-opacity:1;" d="M 113.601562 342.800781 L 115.96875 348.59375 L 118.695312 353.996094 L 121.765625 358.996094 L 125.199219 363.601562 L 57.601562 363.601562 "/>
<path style="fill:none;stroke-width:0.5;stroke-linecap:butt;stroke-linejoin:miter;stroke:rgb(0%,0%,0%);stroke-opacity:1;stroke-miterlimit:10;" d="M 113.601562 342.800781 L 115.96875 348.59375 L 118.695312 353.996094 L 121.765625 358.996094 L 125.199219 363.601562 L 57.601562 363.601562 Z M 113.601562 342.800781 "/>
<path style=" stroke:none;fill-rule:nonzero;fill:rgb(49.803922%,100%,0%);fill-opacity:1;" d="M 54.800781 359.601562 L 53.347656 346.949219 L 52.199219 332.597656 L 51.34375 316.546875 L 50.800781 298.800781 L 113.601562 298.800781 L 112.019531 303.421875 L 110.894531 308.496094 L 110.222656 314.023438 L 110 320 L 110.144531 324.695312 L 110.597656 329.199219 L 111.34375 333.496094 L 112.398438 337.601562 "/>
<path style="fill:none;stroke-width:0.5;stroke-linecap:butt;stroke-linejoin:miter;stroke:rgb(0%,0%,0%);stroke-opacity:1;stroke-miterlimit:10;" d="M 54.800781 359.601562 L 53.347656 346.949219 L 52.199219 332.597656 L 51.34375 316.546875 L 50.800781 298.800781 L 113.601562 298.800781 L 112.019531 303.421875 L 110.894531 308.496094 L 110.222656 314.023438 L 110 320 L 110.144531 324.695312 L 110.597656 329.199219 L 111.34375 333.496094 L 112.398438 337.601562 Z M 54.800781 359.601562 "/>
<path style=" stroke:none;fill-rule:nonzero;fill:rgb(58.4%,34.5%,69.8%);fill-opacity:1;" d="M 177.601562 382.398438 L 170.894531 382.167969 L 164.796875 381.496094 L 159.292969 380.371094 L 156.769531 379.640625 L 154.398438 378.800781 L 149.871094 376.820312 L 145.496094 374.496094 L 141.273438 371.824219 L 137.199219 368.800781 L 213.199219 368.800781 L 213.199219 370.800781 L 207.53125 373.921875 L 202.546875 376.496094 L 198.234375 378.519531 L 194.601562 380 L 191.058594 381.046875 L 187.046875 381.796875 L 182.558594 382.246094 "/>
<path style="fill:none;stroke-width:0.5;stroke-linecap:butt;stroke-linejoin:miter;stroke:rgb(0%,0%,0%);stroke-opacity:1;stroke-miterlimit:10;" d="M 177.601562 382.398438 L 170.894531 382.167969 L 164.796875 381.496094 L 159.292969 380.371094 L 156.769531 379.640625 L 154.398438 378.800781 L 149.871094 376.820312 L 145.496094 374.496094 L 141.273438 371.824219 L 137.199219 368.800781 L 213.199219 368.800781 L 213.199219 370.800781 L 207.53125 373.921875 L 202.546875 376.496094 L 198.234375 378.519531 L 194.601562 380 L 191.058594 381.046875 L 187.046875 381.796875 L 182.558594 382.246094 Z M 177.601562 382.398438 "/>
<path style=" stroke:none;fill-rule:nonzero;fill:rgb(19.607843%,80.392157%,19.607843%);fill-opacity:1;" d="M 131.601562 363.601562 L 129.894531 361.75 L 128.195312 359.617188 L 126.496094 357.195312 L 124.796875 354.496094 L 121.398438 348.21875 L 118 340.800781 L 213.199219 300 L 213.199219 363.601562 "/>
<path style="fill:none;stroke-width:0.5;stroke-linecap:butt;stroke-linejoin:miter;stroke:rgb(0%,0%,0%);stroke-opacity:1;stroke-miterlimit:10;" d="M 131.601562 363.601562 L 129.894531 361.75 L 128.195312 359.617188 L 126.496094 357.195312 L 124.796875 354.496094 L 121.398438 348.21875 L 118 340.800781 L 213.199219 300 L 213.199219 363.601562 Z M 131.601562 363.601562 "/>
<path style=" stroke:none;fill-rule:nonzero;fill:rgb(56.470588%,93.333333%,56.470588%);fill-opacity:1;" d="M 223.199219 368.800781 L 278 368.800781 L 218.398438 448 L 218.398438 373.199219 "/>
<path style="fill:none;stroke-width:0.5;stroke-linecap:butt;stroke-linejoin:miter;stroke:rgb(0%,0%,0%);stroke-opacity:1;stroke-miterlimit:10;" d="M 223.199219 368.800781 L 278 368.800781 L 218.398438 448 L 218.398438 373.199219 Z M 223.199219 368.800781 "/>
<path style=" stroke:none;fill-rule:nonzero;fill:rgb(79.6%,23.5%,20%);fill-opacity:1;" d="M 280.398438 373.601562 L 280.398438 450 L 223.199219 450 "/>
<path style="fill:none;stroke-width:0.5;stroke-linecap:butt;stroke-linejoin:miter;stroke:rgb(0%,0%,0%);stroke-opacity:1;stroke-miterlimit:10;" d="M 280.398438 373.601562 L 280.398438 450 L 223.199219 450 Z M 280.398438 373.601562 "/>
<path style=" stroke:none;fill-rule:nonzero;fill:rgb(79.6%,23.5%,20%);fill-opacity:1;" d="M 116.800781 336 L 115.921875 331.648438 L 115.296875 327.398438 L 114.921875 323.246094 L 114.800781 319.199219 L 115.046875 313.269531 L 115.796875 307.894531 L 116.355469 305.410156 L 117.046875 303.070312 L 117.859375 300.863281 L 118.800781 298.800781 L 204 298.800781 "/>
<path style="fill:none;stroke-width:0.5;stroke-linecap:butt;stroke-linejoin:miter;stroke:rgb(0%,0%,0%);stroke-opacity:1;stroke-miterlimit:10;" d="M 116.800781 336 L 115.921875 331.648438 L 115.296875 327.398438 L 114.921875 323.246094 L 114.800781 319.199219 L 115.046875 313.269531 L 115.796875 307.894531 L 116.355469 305.410156 L 117.046875 303.070312 L 117.859375 300.863281 L 118.800781 298.800781 L 204 298.800781 Z M 116.800781 336 "/>
<path style=" stroke:none;fill-rule:nonzero;fill:rgb(25.1%,38.8%,84.7%);fill-opacity:1;" d="M 50.800781 293.601562 L 50.699219 281.996094 L 50.398438 273.601562 L 50 250 L 50.398438 227.199219 L 50.699219 219.699219 L 50.800781 209.199219 L 186.800781 209.199219 L 188.269531 214.53125 L 190.292969 219.746094 L 192.867188 224.832031 L 196 229.800781 L 199.621094 234.511719 L 203.695312 238.847656 L 208.21875 242.808594 L 213.199219 246.398438 L 213.199219 262.800781 L 209.042969 260.355469 L 204.796875 258.246094 L 200.441406 256.453125 L 195.996094 254.996094 L 191.441406 253.855469 L 186.796875 253.046875 L 182.042969 252.554688 L 177.199219 252.398438 L 171.957031 252.589844 L 166.835938 253.171875 L 161.832031 254.136719 L 156.949219 255.496094 L 152.179688 257.238281 L 147.535156 259.375 L 143.007812 261.890625 L 138.601562 264.800781 L 134.429688 267.960938 L 130.632812 271.246094 L 127.203125 274.65625 L 124.144531 278.199219 L 121.449219 281.859375 L 119.128906 285.648438 L 117.175781 289.558594 L 115.601562 293.601562 "/>
<path style="fill:none;stroke-width:0.5;stroke-linecap:butt;stroke-linejoin:miter;stroke:rgb(0%,0%,0%);stroke-opacity:1;stroke-miterlimit:10;" d="M 50.800781 293.601562 L 50.699219 281.996094 L 50.398438 273.601562 L 50 250 L 50.398438 227.199219 L 50.699219 219.699219 L 50.800781 209.199219 L 186.800781 209.199219 L 188.269531 214.53125 L 190.292969 219.746094 L 192.867188 224.832031 L 196 229.800781 L 199.621094 234.511719 L 203.695312 238.847656 L 208.21875 242.808594 L 213.199219 246.398438 L 213.199219 262.800781 L 209.042969 260.355469 L 204.796875 258.246094 L 200.441406 256.453125 L 195.996094 254.996094 L 191.441406 253.855469 L 186.796875 253.046875 L 182.042969 252.554688 L 177.199219 252.398438 L 171.957031 252.589844 L 166.835938 253.171875 L 161.832031 254.136719 L 156.949219 255.496094 L 152.179688 257.238281 L 147.535156 259.375 L 143.007812 261.890625 L 138.601562 264.800781 L 134.429688 267.960938 L 130.632812 271.246094 L 127.203125 274.65625 L 124.144531 278.199219 L 121.449219 281.859375 L 119.128906 285.648438 L 117.175781 289.558594 L 115.601562 293.601562 Z M 50.800781 293.601562 "/>
<path style=" stroke:none;fill-rule:nonzero;fill:rgb(25.098039%,87.843137%,81.568627%);fill-opacity:1;" d="M 120.800781 293.601562 L 122.445312 290.050781 L 124.398438 286.625 L 126.640625 283.300781 L 129.195312 280.097656 L 132.042969 277 L 135.195312 274.023438 L 138.640625 271.152344 L 142.398438 268.398438 L 146.355469 265.863281 L 150.445312 263.667969 L 154.660156 261.8125 L 159 260.296875 L 163.460938 259.113281 L 168.046875 258.273438 L 172.757812 257.765625 L 177.601562 257.601562 L 182.441406 257.769531 L 187.171875 258.296875 L 191.789062 259.167969 L 196.300781 260.398438 L 200.691406 261.96875 L 204.972656 263.894531 L 209.140625 266.167969 L 213.199219 268.800781 L 213.199219 293.601562 "/>
<path style="fill:none;stroke-width:0.5;stroke-linecap:butt;stroke-linejoin:miter;stroke:rgb(0%,0%,0%);stroke-opacity:1;stroke-miterlimit:10;" d="M 120.800781 293.601562 L 122.445312 290.050781 L 124.398438 286.625 L 126.640625 283.300781 L 129.195312 280.097656 L 132.042969 277 L 135.195312 274.023438 L 138.640625 271.152344 L 142.398438 268.398438 L 146.355469 265.863281 L 150.445312 263.667969 L 154.660156 261.8125 L 159 260.296875 L 163.460938 259.113281 L 168.046875 258.273438 L 172.757812 257.765625 L 177.601562 257.601562 L 182.441406 257.769531 L 187.171875 258.296875 L 191.789062 259.167969 L 196.300781 260.398438 L 200.691406 261.96875 L 204.972656 263.894531 L 209.140625 266.167969 L 213.199219 268.800781 L 213.199219 293.601562 Z M 120.800781 293.601562 "/>
<path style=" stroke:none;fill-rule:nonzero;fill:rgb(79.6%,23.5%,20%);fill-opacity:1;" d="M 218.398438 302.398438 L 239.199219 324 L 238.695312 329.09375 L 237.597656 334.398438 L 235.894531 339.898438 L 233.601562 345.601562 L 230.847656 351.09375 L 227.796875 355.996094 L 226.15625 358.214844 L 224.445312 360.292969 L 222.65625 362.21875 L 220.800781 364 L 218.398438 367.199219 "/>
<path style="fill:none;stroke-width:0.5;stroke-linecap:butt;stroke-linejoin:miter;stroke:rgb(0%,0%,0%);stroke-opacity:1;stroke-miterlimit:10;" d="M 218.398438 302.398438 L 239.199219 324 L 238.695312 329.09375 L 237.597656 334.398438 L 235.894531 339.898438 L 233.601562 345.601562 L 230.847656 351.09375 L 227.796875 355.996094 L 226.15625 358.214844 L 224.445312 360.292969 L 222.65625 362.21875 L 220.800781 364 L 218.398438 367.199219 Z M 218.398438 302.398438 "/>
<path style=" stroke:none;fill-rule:nonzero;fill:rgb(22%,59.6%,14.9%);fill-opacity:1;" d="M 227.601562 363.601562 L 230.484375 359.882812 L 233.148438 355.945312 L 235.582031 351.78125 L 237.800781 347.398438 L 239.734375 342.933594 L 241.347656 338.546875 L 242.636719 334.234375 L 243.601562 330 L 247.164062 334.632812 L 250.871094 339.144531 L 254.710938 343.53125 L 258.695312 347.796875 L 262.808594 351.929688 L 267.070312 355.945312 L 271.464844 359.832031 L 276 363.601562 "/>
<path style="fill:none;stroke-width:0.5;stroke-linecap:butt;stroke-linejoin:miter;stroke:rgb(0%,0%,0%);stroke-opacity:1;stroke-miterlimit:10;" d="M 227.601562 363.601562 L 230.484375 359.882812 L 233.148438 355.945312 L 235.582031 351.78125 L 237.800781 347.398438 L 239.734375 342.933594 L 241.347656 338.546875 L 242.636719 334.234375 L 243.601562 330 L 247.164062 334.632812 L 250.871094 339.144531 L 254.710938 343.53125 L 258.695312 347.796875 L 262.808594 351.929688 L 267.070312 355.945312 L 271.464844 359.832031 L 276 363.601562 Z M 227.601562 363.601562 "/>
<path style=" stroke:none;fill-rule:nonzero;fill:rgb(22%,59.6%,14.9%);fill-opacity:1;" d="M 221.601562 298.800781 L 235.199219 298.800781 L 236.792969 303.25 L 237.996094 307.800781 L 238.792969 312.449219 L 239.199219 317.199219 "/>
<path style="fill:none;stroke-width:0.5;stroke-linecap:butt;stroke-linejoin:miter;stroke:rgb(0%,0%,0%);stroke-opacity:1;stroke-miterlimit:10;" d="M 221.601562 298.800781 L 235.199219 298.800781 L 236.792969 303.25 L 237.996094 307.800781 L 238.792969 312.449219 L 239.199219 317.199219 Z M 221.601562 298.800781 "/>
<path style=" stroke:none;fill-rule:nonzero;fill:rgb(79.6%,23.5%,20%);fill-opacity:1;" d="M 264.800781 347.199219 L 259.472656 341.597656 L 254.296875 335.597656 L 249.269531 329.195312 L 244.398438 322.398438 L 244.144531 315.964844 L 243.394531 309.894531 L 242.144531 304.167969 L 240.398438 298.800781 L 262 298.800781 L 260.347656 303.796875 L 259.398438 307.601562 L 258.945312 311.199219 L 258.800781 315.601562 L 258.894531 320.375 L 259.175781 324.921875 L 259.644531 329.222656 L 260.300781 333.296875 L 261.144531 337.125 L 262.175781 340.722656 L 263.394531 344.074219 "/>
<path style="fill:none;stroke-width:0.5;stroke-linecap:butt;stroke-linejoin:miter;stroke:rgb(0%,0%,0%);stroke-opacity:1;stroke-miterlimit:10;" d="M 264.800781 347.199219 L 259.472656 341.597656 L 254.296875 335.597656 L 249.269531 329.195312 L 244.398438 322.398438 L 244.144531 315.964844 L 243.394531 309.894531 L 242.144531 304.167969 L 240.398438 298.800781 L 262 298.800781 L 260.347656 303.796875 L 259.398438 307.601562 L 258.945312 311.199219 L 258.800781 315.601562 L 258.894531 320.375 L 259.175781 324.921875 L 259.644531 329.222656 L 260.300781 333.296875 L 261.144531 337.125 L 262.175781 340.722656 L 263.394531 344.074219 Z M 264.800781 347.199219 "/>
<path style=" stroke:none;fill-rule:nonzero;fill:rgb(58.4%,34.5%,69.8%);fill-opacity:1;" d="M 228 284 L 231.296875 289.59375 L 233.199219 293.601562 L 220.800781 293.601562 "/>
<path style="fill:none;stroke-width:0.5;stroke-linecap:butt;stroke-linejoin:miter;stroke:rgb(0%,0%,0%);stroke-opacity:1;stroke-miterlimit:10;" d="M 228 284 L 231.296875 289.59375 L 233.199219 293.601562 L 220.800781 293.601562 Z M 228 284 "/>
<path style=" stroke:none;fill-rule:nonzero;fill:rgb(58.4%,34.5%,69.8%);fill-opacity:1;" d="M 218.398438 273.199219 L 224.800781 280 L 218.398438 288.800781 "/>
<path style="fill:none;stroke-width:0.5;stroke-linecap:butt;stroke-linejoin:miter;stroke:rgb(0%,0%,0%);stroke-opacity:1;stroke-miterlimit:10;" d="M 218.398438 273.199219 L 224.800781 280 L 218.398438 288.800781 Z M 218.398438 273.199219 "/>
<path style=" stroke:none;fill-rule:nonzero;fill:rgb(100%,41.176471%,70.588235%);fill-opacity:1;" d="M 280.398438 359.601562 L 276.132812 354.671875 L 272.546875 349.898438 L 269.628906 345.273438 L 267.398438 340.800781 L 266.507812 338.476562 L 265.734375 335.921875 L 265.078125 333.125 L 264.550781 330.097656 L 263.835938 323.320312 L 263.601562 315.601562 L 263.746094 311.398438 L 264.199219 307.601562 L 265.148438 303.59375 L 266.800781 298.800781 L 280.398438 298.800781 "/>
<path style="fill:none;stroke-width:0.5;stroke-linecap:butt;stroke-linejoin:miter;stroke:rgb(0%,0%,0%);stroke-opacity:1;stroke-miterlimit:10;" d="M 280.398438 359.601562 L 276.132812 354.671875 L 272.546875 349.898438 L 269.628906 345.273438 L 267.398438 340.800781 L 266.507812 338.476562 L 265.734375 335.921875 L 265.078125 333.125 L 264.550781 330.097656 L 263.835938 323.320312 L 263.601562 315.601562 L 263.746094 311.398438 L 264.199219 307.601562 L 265.148438 303.59375 L 266.800781 298.800781 L 280.398438 298.800781 Z M 280.398438 359.601562 "/>
<path style=" stroke:none;fill-rule:nonzero;fill:rgb(58.4%,34.5%,69.8%);fill-opacity:1;" d="M 328.398438 382.398438 L 323.585938 382.179688 L 318.765625 381.546875 L 313.933594 380.480469 L 309.097656 378.996094 L 304.238281 377.078125 L 299.371094 374.746094 L 294.492188 371.980469 L 289.601562 368.800781 L 364.398438 368.800781 L 360.417969 371.980469 L 356.296875 374.746094 L 352.019531 377.078125 L 347.597656 378.996094 L 343.019531 380.480469 L 338.296875 381.546875 L 333.417969 382.179688 "/>
<path style="fill:none;stroke-width:0.5;stroke-linecap:butt;stroke-linejoin:miter;stroke:rgb(0%,0%,0%);stroke-opacity:1;stroke-miterlimit:10;" d="M 328.398438 382.398438 L 323.585938 382.179688 L 318.765625 381.546875 L 313.933594 380.480469 L 309.097656 378.996094 L 304.238281 377.078125 L 299.371094 374.746094 L 294.492188 371.980469 L 289.601562 368.800781 L 364.398438 368.800781 L 360.417969 371.980469 L 356.296875 374.746094 L 352.019531 377.078125 L 347.597656 378.996094 L 343.019531 380.480469 L 338.296875 381.546875 L 333.417969 382.179688 Z M 328.398438 382.398438 "/>
<path style=" stroke:none;fill-rule:nonzero;fill:rgb(58.4%,34.5%,69.8%);fill-opacity:1;" d="M 285.601562 371.601562 L 289.960938 374.683594 L 294.648438 377.546875 L 299.65625 380.183594 L 305 382.601562 L 307.765625 383.671875 L 310.582031 384.609375 L 313.4375 385.394531 L 316.34375 386.046875 L 322.28125 386.910156 L 328.398438 387.199219 L 331.476562 387.121094 L 334.519531 386.894531 L 337.527344 386.515625 L 340.5 385.996094 L 343.425781 385.320312 L 346.320312 384.496094 L 349.175781 383.519531 L 352 382.398438 L 354.75 381.128906 L 357.421875 379.742188 L 360 378.230469 L 362.496094 376.597656 L 364.898438 374.832031 L 367.21875 372.945312 L 369.453125 370.933594 L 371.601562 368.800781 L 443.601562 368.800781 L 441.941406 377.121094 L 439.972656 384.898438 L 437.6875 392.121094 L 435.097656 398.796875 L 432.1875 404.917969 L 428.972656 410.496094 L 425.4375 415.519531 L 421.601562 420 L 417.367188 424.023438 L 412.683594 427.71875 L 407.539062 431.074219 L 401.945312 434.097656 L 395.890625 436.773438 L 389.382812 439.121094 L 382.414062 441.128906 L 375 442.800781 L 366.90625 444.222656 L 357.933594 445.496094 L 348.078125 446.617188 L 337.347656 447.597656 L 325.730469 448.417969 L 313.234375 449.09375 L 299.855469 449.617188 L 285.601562 450 "/>
<path style="fill:none;stroke-width:0.5;stroke-linecap:butt;stroke-linejoin:miter;stroke:rgb(0%,0%,0%);stroke-opacity:1;stroke-miterlimit:10;" d="M 285.601562 371.601562 L 289.960938 374.683594 L 294.648438 377.546875 L 299.65625 380.183594 L 305 382.601562 L 307.765625 383.671875 L 310.582031 384.609375 L 313.4375 385.394531 L 316.34375 386.046875 L 322.28125 386.910156 L 328.398438 387.199219 L 331.476562 387.121094 L 334.519531 386.894531 L 337.527344 386.515625 L 340.5 385.996094 L 343.425781 385.320312 L 346.320312 384.496094 L 349.175781 383.519531 L 352 382.398438 L 354.75 381.128906 L 357.421875 379.742188 L 360 378.230469 L 362.496094 376.597656 L 364.898438 374.832031 L 367.21875 372.945312 L 369.453125 370.933594 L 371.601562 368.800781 L 443.601562 368.800781 L 441.941406 377.121094 L 439.972656 384.898438 L 437.6875 392.121094 L 435.097656 398.796875 L 432.1875 404.917969 L 428.972656 410.496094 L 425.4375 415.519531 L 421.601562 420 L 417.367188 424.023438 L 412.683594 427.71875 L 407.539062 431.074219 L 401.945312 434.097656 L 395.890625 436.773438 L 389.382812 439.121094 L 382.414062 441.128906 L 375 442.800781 L 366.90625 444.222656 L 357.933594 445.496094 L 348.078125 446.617188 L 337.347656 447.597656 L 325.730469 448.417969 L 313.234375 449.09375 L 299.855469 449.617188 L 285.601562 450 Z M 285.601562 371.601562 "/>
<path style=" stroke:none;fill-rule:nonzero;fill:rgb(49.803922%,100%,83.137255%);fill-opacity:1;" d="M 201.199219 142.800781 L 198.785156 145.332031 L 196.558594 147.945312 L 194.507812 150.632812 L 192.644531 153.398438 L 190.957031 156.234375 L 189.457031 159.144531 L 188.136719 162.132812 L 187 165.199219 L 185.15625 171.367188 L 183.847656 177.496094 L 183.058594 183.570312 L 182.800781 189.601562 L 182.945312 193.371094 L 183.398438 197.097656 L 184.144531 200.769531 L 185.199219 204.398438 L 56.398438 204.398438 "/>
<path style="fill:none;stroke-width:0.5;stroke-linecap:butt;stroke-linejoin:miter;stroke:rgb(0%,0%,0%);stroke-opacity:1;stroke-miterlimit:10;" d="M 201.199219 142.800781 L 198.785156 145.332031 L 196.558594 147.945312 L 194.507812 150.632812 L 192.644531 153.398438 L 190.957031 156.234375 L 189.457031 159.144531 L 188.136719 162.132812 L 187 165.199219 L 185.15625 171.367188 L 183.847656 177.496094 L 183.058594 183.570312 L 182.800781 189.601562 L 182.945312 193.371094 L 183.398438 197.097656 L 184.144531 200.769531 L 185.199219 204.398438 L 56.398438 204.398438 Z M 201.199219 142.800781 "/>
<path style=" stroke:none;fill-rule:nonzero;fill:rgb(100%,41.176471%,70.588235%);fill-opacity:1;" d="M 50.800781 201.199219 L 51.371094 181.546875 L 52.296875 164.195312 L 53.570312 149.148438 L 54.335938 142.484375 L 55.199219 136.398438 L 204 136.398438 "/>
<path style="fill:none;stroke-width:0.5;stroke-linecap:butt;stroke-linejoin:miter;stroke:rgb(0%,0%,0%);stroke-opacity:1;stroke-miterlimit:10;" d="M 50.800781 201.199219 L 51.371094 181.546875 L 52.296875 164.195312 L 53.570312 149.148438 L 54.335938 142.484375 L 55.199219 136.398438 L 204 136.398438 Z M 50.800781 201.199219 "/>
<path style=" stroke:none;fill-rule:nonzero;fill:rgb(79.6%,23.5%,20%);fill-opacity:1;" d="M 228 276.398438 L 223.796875 271.695312 L 218.398438 266.398438 L 218.398438 249.199219 L 225.019531 251.695312 L 231.695312 253.597656 L 238.421875 254.894531 L 241.800781 255.320312 L 245.199219 255.601562 "/>
<path style="fill:none;stroke-width:0.5;stroke-linecap:butt;stroke-linejoin:miter;stroke:rgb(0%,0%,0%);stroke-opacity:1;stroke-miterlimit:10;" d="M 228 276.398438 L 223.796875 271.695312 L 218.398438 266.398438 L 218.398438 249.199219 L 225.019531 251.695312 L 231.695312 253.597656 L 238.421875 254.894531 L 241.800781 255.320312 L 245.199219 255.601562 Z M 228 276.398438 "/>
<path style=" stroke:none;fill-rule:nonzero;fill:rgb(100%,100%,0%);fill-opacity:1;" d="M 213.199219 240.398438 L 209.34375 237.257812 L 205.796875 233.847656 L 202.542969 230.160156 L 199.601562 226.199219 L 197.023438 222.054688 L 194.894531 217.847656 L 193.21875 213.558594 L 192 209.199219 L 213.199219 209.199219 "/>
<path style="fill:none;stroke-width:0.5;stroke-linecap:butt;stroke-linejoin:miter;stroke:rgb(0%,0%,0%);stroke-opacity:1;stroke-miterlimit:10;" d="M 213.199219 240.398438 L 209.34375 237.257812 L 205.796875 233.847656 L 202.542969 230.160156 L 199.601562 226.199219 L 197.023438 222.054688 L 194.894531 217.847656 L 193.21875 213.558594 L 192 209.199219 L 213.199219 209.199219 Z M 213.199219 240.398438 "/>
<path style=" stroke:none;fill-rule:nonzero;fill:rgb(100%,84.313725%,0%);fill-opacity:1;" d="M 238.398438 293.601562 L 236.746094 289.894531 L 234.996094 286.398438 L 233.144531 283.097656 L 231.199219 280 L 251.199219 255.601562 L 255.324219 255.496094 L 259.320312 255.195312 L 263.175781 254.695312 L 266.898438 253.996094 L 270.476562 253.089844 L 273.921875 251.992188 L 277.226562 250.695312 L 280.398438 249.199219 L 280.398438 270 L 273.949219 276.398438 L 271.585938 278.996094 L 269.800781 281.199219 L 268.28125 283.46875 L 266.746094 286.296875 L 265.183594 289.671875 L 263.601562 293.601562 "/>
<path style="fill:none;stroke-width:0.5;stroke-linecap:butt;stroke-linejoin:miter;stroke:rgb(0%,0%,0%);stroke-opacity:1;stroke-miterlimit:10;" d="M 238.398438 293.601562 L 236.746094 289.894531 L 234.996094 286.398438 L 233.144531 283.097656 L 231.199219 280 L 251.199219 255.601562 L 255.324219 255.496094 L 259.320312 255.195312 L 263.175781 254.695312 L 266.898438 253.996094 L 270.476562 253.089844 L 273.921875 251.992188 L 277.226562 250.695312 L 280.398438 249.199219 L 280.398438 270 L 273.949219 276.398438 L 271.585938 278.996094 L 269.800781 281.199219 L 268.28125 283.46875 L 266.746094 286.296875 L 265.183594 289.671875 L 263.601562 293.601562 Z M 238.398438 293.601562 "/>
<path style=" stroke:none;fill-rule:nonzero;fill:rgb(22%,59.6%,14.9%);fill-opacity:1;" d="M 268.800781 293.601562 L 271.449219 288.296875 L 273.800781 284.398438 L 275.03125 282.746094 L 276.542969 280.996094 L 280.398438 277.199219 L 280.398438 293.601562 "/>
<path style="fill:none;stroke-width:0.5;stroke-linecap:butt;stroke-linejoin:miter;stroke:rgb(0%,0%,0%);stroke-opacity:1;stroke-miterlimit:10;" d="M 268.800781 293.601562 L 271.449219 288.296875 L 273.800781 284.398438 L 275.03125 282.746094 L 276.542969 280.996094 L 280.398438 277.199219 L 280.398438 293.601562 Z M 268.800781 293.601562 "/>
<path style=" stroke:none;fill-rule:nonzero;fill:rgb(58.4%,34.5%,69.8%);fill-opacity:1;" d="M 388 328.800781 L 387.355469 333.714844 L 386.242188 338.472656 L 384.652344 343.066406 L 382.597656 347.5 L 380.054688 351.765625 L 377.042969 355.875 L 373.554688 359.816406 L 369.601562 363.601562 L 296 363.601562 "/>
<path style="fill:none;stroke-width:0.5;stroke-linecap:butt;stroke-linejoin:miter;stroke:rgb(0%,0%,0%);stroke-opacity:1;stroke-miterlimit:10;" d="M 388 328.800781 L 387.355469 333.714844 L 386.242188 338.472656 L 384.652344 343.066406 L 382.597656 347.5 L 380.054688 351.765625 L 377.042969 355.875 L 373.554688 359.816406 L 369.601562 363.601562 L 296 363.601562 Z M 388 328.800781 "/>
<path style=" stroke:none;fill-rule:nonzero;fill:rgb(22%,59.6%,14.9%);fill-opacity:1;" d="M 285.601562 298.800781 L 383.601562 298.800781 L 385.148438 302.496094 L 386.601562 306.398438 L 387.746094 310.097656 L 388.398438 313.199219 L 388.695312 315.621094 L 388.796875 318.097656 L 388.695312 320.621094 L 388.398438 323.199219 L 285.601562 362.398438 "/>
<path style="fill:none;stroke-width:0.5;stroke-linecap:butt;stroke-linejoin:miter;stroke:rgb(0%,0%,0%);stroke-opacity:1;stroke-miterlimit:10;" d="M 285.601562 298.800781 L 383.601562 298.800781 L 385.148438 302.496094 L 386.601562 306.398438 L 387.746094 310.097656 L 388.398438 313.199219 L 388.695312 315.621094 L 388.796875 318.097656 L 388.695312 320.621094 L 388.398438 323.199219 L 285.601562 362.398438 Z M 285.601562 298.800781 "/>
<path style=" stroke:none;fill-rule:nonzero;fill:rgb(22%,59.6%,14.9%);fill-opacity:1;" d="M 248.800781 250.800781 L 244.734375 250.597656 L 240.746094 250.195312 L 236.832031 249.59375 L 233 248.796875 L 229.234375 247.792969 L 225.546875 246.59375 L 221.933594 245.195312 L 218.398438 243.601562 L 218.398438 209.199219 L 278 209.199219 "/>
<path style="fill:none;stroke-width:0.5;stroke-linecap:butt;stroke-linejoin:miter;stroke:rgb(0%,0%,0%);stroke-opacity:1;stroke-miterlimit:10;" d="M 248.800781 250.800781 L 244.734375 250.597656 L 240.746094 250.195312 L 236.832031 249.59375 L 233 248.796875 L 229.234375 247.792969 L 225.546875 246.59375 L 221.933594 245.195312 L 218.398438 243.601562 L 218.398438 209.199219 L 278 209.199219 Z M 248.800781 250.800781 "/>
<path style=" stroke:none;fill-rule:nonzero;fill:rgb(100%,64.705882%,0%);fill-opacity:1;" d="M 190.800781 204.398438 L 189.570312 201.34375 L 188.695312 198.199219 L 188.167969 194.945312 L 188 191.601562 L 188.085938 187.902344 L 188.355469 184.234375 L 188.804688 180.578125 L 189.445312 176.945312 L 190.257812 173.324219 L 191.257812 169.734375 L 192.433594 166.152344 L 193.800781 162.601562 L 195.367188 159.113281 L 197.183594 155.757812 L 199.242188 152.53125 L 201.546875 149.445312 L 204.089844 146.484375 L 206.882812 143.65625 L 209.914062 140.957031 L 213.199219 138.398438 L 213.199219 204.398438 "/>
<path style="fill:none;stroke-width:0.5;stroke-linecap:butt;stroke-linejoin:miter;stroke:rgb(0%,0%,0%);stroke-opacity:1;stroke-miterlimit:10;" d="M 190.800781 204.398438 L 189.570312 201.34375 L 188.695312 198.199219 L 188.167969 194.945312 L 188 191.601562 L 188.085938 187.902344 L 188.355469 184.234375 L 188.804688 180.578125 L 189.445312 176.945312 L 190.257812 173.324219 L 191.257812 169.734375 L 192.433594 166.152344 L 193.800781 162.601562 L 195.367188 159.113281 L 197.183594 155.757812 L 199.242188 152.53125 L 201.546875 149.445312 L 204.089844 146.484375 L 206.882812 143.65625 L 209.914062 140.957031 L 213.199219 138.398438 L 213.199219 204.398438 Z M 190.800781 204.398438 "/>
<path style=" stroke:none;fill-rule:nonzero;fill:rgb(79.6%,23.5%,20%);fill-opacity:1;" d="M 280.398438 214.398438 L 280.398438 244 L 277.804688 245.328125 L 275.042969 246.523438 L 272.105469 247.578125 L 268.996094 248.5 L 265.707031 249.277344 L 262.246094 249.921875 L 258.605469 250.425781 L 254.800781 250.800781 "/>
<path style="fill:none;stroke-width:0.5;stroke-linecap:butt;stroke-linejoin:miter;stroke:rgb(0%,0%,0%);stroke-opacity:1;stroke-miterlimit:10;" d="M 280.398438 214.398438 L 280.398438 244 L 277.804688 245.328125 L 275.042969 246.523438 L 272.105469 247.578125 L 268.996094 248.5 L 265.707031 249.277344 L 262.246094 249.921875 L 258.605469 250.425781 L 254.800781 250.800781 Z M 280.398438 214.398438 "/>
<path style=" stroke:none;fill-rule:nonzero;fill:rgb(25.1%,38.8%,84.7%);fill-opacity:1;" d="M 56 131.199219 L 57.652344 122.871094 L 59.609375 115.09375 L 61.871094 107.867188 L 64.449219 101.195312 L 67.320312 95.066406 L 70.507812 89.492188 L 74 84.46875 L 77.800781 80 L 81.972656 75.964844 L 86.605469 72.269531 L 91.695312 68.914062 L 97.246094 65.898438 L 103.246094 63.210938 L 109.707031 60.871094 L 116.625 58.863281 L 124 57.199219 L 132.039062 55.769531 L 140.972656 54.496094 L 150.785156 53.367188 L 161.496094 52.398438 L 173.085938 51.570312 L 185.570312 50.894531 L 198.9375 50.371094 L 213.199219 50 L 213.199219 131.199219 "/>
<path style="fill:none;stroke-width:0.5;stroke-linecap:butt;stroke-linejoin:miter;stroke:rgb(0%,0%,0%);stroke-opacity:1;stroke-miterlimit:10;" d="M 56 131.199219 L 57.652344 122.871094 L 59.609375 115.09375 L 61.871094 107.867188 L 64.449219 101.195312 L 67.320312 95.066406 L 70.507812 89.492188 L 74 84.46875 L 77.800781 80 L 81.972656 75.964844 L 86.605469 72.269531 L 91.695312 68.914062 L 97.246094 65.898438 L 103.246094 63.210938 L 109.707031 60.871094 L 116.625 58.863281 L 124 57.199219 L 132.039062 55.769531 L 140.972656 54.496094 L 150.785156 53.367188 L 161.496094 52.398438 L 173.085938 51.570312 L 185.570312 50.894531 L 198.9375 50.371094 L 213.199219 50 L 213.199219 131.199219 Z M 56 131.199219 "/>
<path style=" stroke:none;fill-rule:nonzero;fill:rgb(79.6%,23.5%,20%);fill-opacity:1;" d="M 285.601562 272.800781 L 289.308594 269.722656 L 293.25 266.898438 L 297.410156 264.320312 L 301.800781 262 L 304.113281 260.960938 L 306.558594 260.070312 L 309.132812 259.308594 L 311.847656 258.695312 L 314.683594 258.210938 L 317.65625 257.871094 L 324 257.601562 L 328.359375 257.742188 L 332.660156 258.175781 L 336.890625 258.890625 L 341.050781 259.898438 L 345.140625 261.1875 L 349.160156 262.769531 L 353.109375 264.640625 L 357 266.800781 L 360.742188 269.226562 L 364.28125 271.921875 L 367.617188 274.875 L 370.746094 278.097656 L 373.664062 281.578125 L 376.382812 285.320312 L 378.890625 289.328125 L 381.199219 293.601562 L 285.601562 293.601562 "/>
<path style="fill:none;stroke-width:0.5;stroke-linecap:butt;stroke-linejoin:miter;stroke:rgb(0%,0%,0%);stroke-opacity:1;stroke-miterlimit:10;" d="M 285.601562 272.800781 L 289.308594 269.722656 L 293.25 266.898438 L 297.410156 264.320312 L 301.800781 262 L 304.113281 260.960938 L 306.558594 260.070312 L 309.132812 259.308594 L 311.847656 258.695312 L 314.683594 258.210938 L 317.65625 257.871094 L 324 257.601562 L 328.359375 257.742188 L 332.660156 258.175781 L 336.890625 258.890625 L 341.050781 259.898438 L 345.140625 261.1875 L 349.160156 262.769531 L 353.109375 264.640625 L 357 266.800781 L 360.742188 269.226562 L 364.28125 271.921875 L 367.617188 274.875 L 370.746094 278.097656 L 373.664062 281.578125 L 376.382812 285.320312 L 378.890625 289.328125 L 381.199219 293.601562 L 285.601562 293.601562 Z M 285.601562 272.800781 "/>
<path style=" stroke:none;fill-rule:nonzero;fill:rgb(22%,59.6%,14.9%);fill-opacity:1;" d="M 285.601562 209.199219 L 309.199219 209.199219 L 307.371094 213.746094 L 305.097656 218.199219 L 302.367188 222.546875 L 299.199219 226.800781 L 295.796875 230.796875 L 292.398438 234.394531 L 289 237.59375 L 285.601562 240.398438 "/>
<path style="fill:none;stroke-width:0.5;stroke-linecap:butt;stroke-linejoin:miter;stroke:rgb(0%,0%,0%);stroke-opacity:1;stroke-miterlimit:10;" d="M 285.601562 209.199219 L 309.199219 209.199219 L 307.371094 213.746094 L 305.097656 218.199219 L 302.367188 222.546875 L 299.199219 226.800781 L 295.796875 230.796875 L 292.398438 234.394531 L 289 237.59375 L 285.601562 240.398438 Z M 285.601562 209.199219 "/>
<path style=" stroke:none;fill-rule:nonzero;fill:rgb(25.1%,38.8%,84.7%);fill-opacity:1;" d="M 218.398438 140 L 277.199219 204.398438 L 218.398438 204.398438 "/>
<path style="fill:none;stroke-width:0.5;stroke-linecap:butt;stroke-linejoin:miter;stroke:rgb(0%,0%,0%);stroke-opacity:1;stroke-miterlimit:10;" d="M 218.398438 140 L 277.199219 204.398438 L 218.398438 204.398438 Z M 218.398438 140 "/>
<path style=" stroke:none;fill-rule:nonzero;fill:rgb(100%,51.372549%,98.039216%);fill-opacity:1;" d="M 376.398438 363.601562 L 380.066406 359.609375 L 383.296875 355.445312 L 386.066406 351.105469 L 388.394531 346.597656 L 390.265625 341.90625 L 391.695312 337.046875 L 392.667969 332.007812 L 393.199219 326.800781 L 448.800781 302 L 448.070312 320.84375 L 447.097656 337.398438 L 445.871094 351.648438 L 444.398438 363.601562 "/>
<path style="fill:none;stroke-width:0.5;stroke-linecap:butt;stroke-linejoin:miter;stroke:rgb(0%,0%,0%);stroke-opacity:1;stroke-miterlimit:10;" d="M 376.398438 363.601562 L 380.066406 359.609375 L 383.296875 355.445312 L 386.066406 351.105469 L 388.394531 346.597656 L 390.265625 341.90625 L 391.695312 337.046875 L 392.667969 332.007812 L 393.199219 326.800781 L 448.800781 302 L 448.070312 320.84375 L 447.097656 337.398438 L 445.871094 351.648438 L 444.398438 363.601562 Z M 376.398438 363.601562 "/>
<path style=" stroke:none;fill-rule:nonzero;fill:rgb(79.6%,23.5%,20%);fill-opacity:1;" d="M 221.601562 136.398438 L 280.398438 136.398438 L 280.398438 200.398438 "/>
<path style="fill:none;stroke-width:0.5;stroke-linecap:butt;stroke-linejoin:miter;stroke:rgb(0%,0%,0%);stroke-opacity:1;stroke-miterlimit:10;" d="M 221.601562 136.398438 L 280.398438 136.398438 L 280.398438 200.398438 Z M 221.601562 136.398438 "/>
<path style=" stroke:none;fill-rule:nonzero;fill:rgb(58.4%,34.5%,69.8%);fill-opacity:1;" d="M 312.398438 199.199219 L 310.800781 204.398438 L 294.800781 204.398438 "/>
<path style="fill:none;stroke-width:0.5;stroke-linecap:butt;stroke-linejoin:miter;stroke:rgb(0%,0%,0%);stroke-opacity:1;stroke-miterlimit:10;" d="M 312.398438 199.199219 L 310.800781 204.398438 L 294.800781 204.398438 Z M 312.398438 199.199219 "/>
<path style=" stroke:none;fill-rule:nonzero;fill:rgb(22%,59.6%,14.9%);fill-opacity:1;" d="M 393.601562 317.199219 L 393.496094 313.496094 L 393.199219 311.199219 L 392.320312 307.71875 L 391.296875 304.496094 L 390.121094 301.519531 L 388.800781 298.800781 L 444 298.800781 L 393.601562 320.800781 "/>
<path style="fill:none;stroke-width:0.5;stroke-linecap:butt;stroke-linejoin:miter;stroke:rgb(0%,0%,0%);stroke-opacity:1;stroke-miterlimit:10;" d="M 393.601562 317.199219 L 393.496094 313.496094 L 393.199219 311.199219 L 392.320312 307.71875 L 391.296875 304.496094 L 390.121094 301.519531 L 388.800781 298.800781 L 444 298.800781 L 393.601562 320.800781 Z M 393.601562 317.199219 "/>
<path style=" stroke:none;fill-rule:nonzero;fill:rgb(100%,41.176471%,70.588235%);fill-opacity:1;" d="M 224.800781 131.199219 L 227.570312 129.894531 L 230.296875 128.796875 L 232.96875 127.894531 L 235.601562 127.199219 L 238.320312 126.667969 L 241.296875 126.296875 L 244.519531 126.070312 L 248 126 L 251.550781 126.074219 L 255.019531 126.320312 L 258.402344 126.722656 L 261.699219 127.296875 L 264.902344 128.023438 L 268.023438 128.917969 L 271.054688 129.972656 L 274 131.199219 "/>
<path style="fill:none;stroke-width:0.5;stroke-linecap:butt;stroke-linejoin:miter;stroke:rgb(0%,0%,0%);stroke-opacity:1;stroke-miterlimit:10;" d="M 224.800781 131.199219 L 227.570312 129.894531 L 230.296875 128.796875 L 232.96875 127.894531 L 235.601562 127.199219 L 238.320312 126.667969 L 241.296875 126.296875 L 244.519531 126.070312 L 248 126 L 251.550781 126.074219 L 255.019531 126.320312 L 258.402344 126.722656 L 261.699219 127.296875 L 264.902344 128.023438 L 268.023438 128.917969 L 271.054688 129.972656 L 274 131.199219 Z M 224.800781 131.199219 "/>
<path style=" stroke:none;fill-rule:nonzero;fill:rgb(100%,64.705882%,0%);fill-opacity:1;" d="M 285.601562 138.398438 L 288.34375 140.191406 L 290.992188 142.183594 L 293.539062 144.367188 L 295.996094 146.75 L 298.34375 149.316406 L 300.59375 152.082031 L 302.742188 155.042969 L 304.800781 158.199219 L 306.671875 161.527344 L 308.296875 165.03125 L 309.667969 168.703125 L 310.796875 172.546875 L 311.671875 176.554688 L 312.296875 180.730469 L 312.671875 185.078125 L 312.800781 189.601562 L 312.800781 194 L 285.601562 203.601562 "/>
<path style="fill:none;stroke-width:0.5;stroke-linecap:butt;stroke-linejoin:miter;stroke:rgb(0%,0%,0%);stroke-opacity:1;stroke-miterlimit:10;" d="M 285.601562 138.398438 L 288.34375 140.191406 L 290.992188 142.183594 L 293.539062 144.367188 L 295.996094 146.75 L 298.34375 149.316406 L 300.59375 152.082031 L 302.742188 155.042969 L 304.800781 158.199219 L 306.671875 161.527344 L 308.296875 165.03125 L 309.667969 168.703125 L 310.796875 172.546875 L 311.671875 176.554688 L 312.296875 180.730469 L 312.671875 185.078125 L 312.800781 189.601562 L 312.800781 194 L 285.601562 203.601562 Z M 285.601562 138.398438 "/>
<path style=" stroke:none;fill-rule:nonzero;fill:rgb(19.607843%,80.392157%,19.607843%);fill-opacity:1;" d="M 218.398438 50 L 275.601562 50 L 218.398438 126.398438 "/>
<path style="fill:none;stroke-width:0.5;stroke-linecap:butt;stroke-linejoin:miter;stroke:rgb(0%,0%,0%);stroke-opacity:1;stroke-miterlimit:10;" d="M 218.398438 50 L 275.601562 50 L 218.398438 126.398438 Z M 218.398438 50 "/>
<path style=" stroke:none;fill-rule:nonzero;fill:rgb(79.6%,23.5%,20%);fill-opacity:1;" d="M 280.398438 129.199219 L 276.730469 127.316406 L 272.945312 125.695312 L 269.03125 124.316406 L 264.996094 123.195312 L 260.828125 122.316406 L 256.546875 121.695312 L 252.132812 121.320312 L 247.601562 121.199219 L 244.523438 121.269531 L 241.519531 121.496094 L 238.570312 121.867188 L 235.695312 122.398438 L 232.875 123.070312 L 230.121094 123.894531 L 227.425781 124.871094 L 224.800781 126 L 280.398438 52 "/>
<path style="fill:none;stroke-width:0.5;stroke-linecap:butt;stroke-linejoin:miter;stroke:rgb(0%,0%,0%);stroke-opacity:1;stroke-miterlimit:10;" d="M 280.398438 129.199219 L 276.730469 127.316406 L 272.945312 125.695312 L 269.03125 124.316406 L 264.996094 123.195312 L 260.828125 122.316406 L 256.546875 121.695312 L 252.132812 121.320312 L 247.601562 121.199219 L 244.523438 121.269531 L 241.519531 121.496094 L 238.570312 121.867188 L 235.695312 122.398438 L 232.875 123.070312 L 230.121094 123.894531 L 227.425781 124.871094 L 224.800781 126 L 280.398438 52 Z M 280.398438 129.199219 "/>
<path style=" stroke:none;fill-rule:nonzero;fill:rgb(100%,100%,0%);fill-opacity:1;" d="M 317.601562 189.601562 L 317.476562 185.078125 L 317.121094 180.71875 L 316.523438 176.523438 L 315.695312 172.496094 L 314.621094 168.621094 L 313.320312 164.917969 L 311.773438 161.375 L 310 158 L 308.039062 154.769531 L 305.96875 151.695312 L 303.789062 148.769531 L 301.5 145.996094 L 299.089844 143.367188 L 296.570312 140.894531 L 293.941406 138.570312 L 291.199219 136.398438 L 444 136.398438 L 317.601562 192 "/>
<path style="fill:none;stroke-width:0.5;stroke-linecap:butt;stroke-linejoin:miter;stroke:rgb(0%,0%,0%);stroke-opacity:1;stroke-miterlimit:10;" d="M 317.601562 189.601562 L 317.476562 185.078125 L 317.121094 180.71875 L 316.523438 176.523438 L 315.695312 172.496094 L 314.621094 168.621094 L 313.320312 164.917969 L 311.773438 161.375 L 310 158 L 308.039062 154.769531 L 305.96875 151.695312 L 303.789062 148.769531 L 301.5 145.996094 L 299.089844 143.367188 L 296.570312 140.894531 L 293.941406 138.570312 L 291.199219 136.398438 L 444 136.398438 L 317.601562 192 Z M 317.601562 189.601562 "/>
<path style=" stroke:none;fill-rule:nonzero;fill:rgb(100%,50.980392%,27.843137%);fill-opacity:1;" d="M 316 204.398438 L 316.796875 201.796875 L 317.601562 197.199219 L 445.199219 141.199219 L 446.472656 154.59375 L 447.496094 169.59375 L 448.269531 186.195312 L 448.800781 204.398438 "/>
<path style="fill:none;stroke-width:0.5;stroke-linecap:butt;stroke-linejoin:miter;stroke:rgb(0%,0%,0%);stroke-opacity:1;stroke-miterlimit:10;" d="M 316 204.398438 L 316.796875 201.796875 L 317.601562 197.199219 L 445.199219 141.199219 L 446.472656 154.59375 L 447.496094 169.59375 L 448.269531 186.195312 L 448.800781 204.398438 Z M 316 204.398438 "/>
<path style=" stroke:none;fill-rule:nonzero;fill:rgb(22%,59.6%,14.9%);fill-opacity:1;" d="M 285.601562 50 L 299.855469 50.371094 L 313.234375 50.894531 L 325.730469 51.570312 L 337.347656 52.398438 L 348.078125 53.367188 L 357.933594 54.496094 L 366.90625 55.769531 L 375 57.199219 L 382.414062 58.863281 L 389.382812 60.871094 L 395.890625 63.210938 L 401.945312 65.898438 L 407.539062 68.914062 L 412.683594 72.269531 L 417.367188 75.964844 L 421.601562 80 L 425.4375 84.46875 L 428.972656 89.492188 L 432.1875 95.066406 L 435.097656 101.195312 L 437.6875 107.867188 L 439.972656 115.09375 L 441.941406 122.871094 L 443.601562 131.199219 L 285.601562 131.199219 "/>
<path style="fill:none;stroke-width:0.5;stroke-linecap:butt;stroke-linejoin:miter;stroke:rgb(0%,0%,0%);stroke-opacity:1;stroke-miterlimit:10;" d="M 285.601562 50 L 299.855469 50.371094 L 313.234375 50.894531 L 325.730469 51.570312 L 337.347656 52.398438 L 348.078125 53.367188 L 357.933594 54.496094 L 366.90625 55.769531 L 375 57.199219 L 382.414062 58.863281 L 389.382812 60.871094 L 395.890625 63.210938 L 401.945312 65.898438 L 407.539062 68.914062 L 412.683594 72.269531 L 417.367188 75.964844 L 421.601562 80 L 425.4375 84.46875 L 428.972656 89.492188 L 432.1875 95.066406 L 435.097656 101.195312 L 437.6875 107.867188 L 439.972656 115.09375 L 441.941406 122.871094 L 443.601562 131.199219 L 285.601562 131.199219 Z M 285.601562 50 "/>
<path style="fill:none;stroke-width:0.5;stroke-linecap:butt;stroke-linejoin:miter;stroke:rgb(0%,0%,0%);stroke-opacity:1;stroke-miterlimit:10;" d="M 450 450 Z M 450 450 "/>
</g>
</svg>
