<svg viewBox="0 0 155 195" xmlns="http://www.w3.org/2000/svg" xml:space="preserve" fill-rule="evenodd" clip-rule="evenodd" stroke-linejoin="round" stroke-miterlimit="2"><path d="M29.315 130.313a4.435 4.435 0 0 1-5.76-2.468 4.435 4.435 0 0 1 2.468-5.761L136.808 77.77a4.435 4.435 0 0 1 5.76 2.468A4.435 4.435 0 0 1 140.1 86L29.315 130.313Z" fill="#010101"/><path d="M13.076 186.94a4.432 4.432 0 0 1-6.266 0 4.432 4.432 0 0 1 0-6.266l128.51-128.51a4.432 4.432 0 0 1 6.267 0 4.432 4.432 0 0 1 0 6.265L13.077 186.94Z" fill="#010101"/><path d="M97.463 166.081c0 10.404-8.43 18.834-18.833 18.834-10.404 0-18.834-8.43-18.834-18.834s8.43-18.833 18.834-18.833 18.833 8.43 18.833 18.833" fill="#ca3b33" fill-rule="nonzero"/><path d="M141.777 121.767c0 10.404-8.43 18.834-18.833 18.834-10.404 0-18.834-8.43-18.834-18.834s8.43-18.833 18.834-18.833 18.833 8.43 18.833 18.833" fill="#389725" fill-rule="nonzero"/><path d="M141.777 166.081c0 10.404-8.43 18.834-18.833 18.834-10.404 0-18.834-8.43-18.834-18.834s8.43-18.833 18.834-18.833 18.833 8.43 18.833 18.833" fill="#9457b1" fill-rule="nonzero"/><path d="M22.081 6.399h7.689v25.718c0 2.318.176 4.63-.392 6.904a11.572 11.572 0 0 1-4.655 6.805 11.94 11.94 0 0 1-5.468 2.053c-6.334.71-12.26-3.482-13.67-9.674l7.465-1.898a5.082 5.082 0 0 0 3.117 3.657 4.822 4.822 0 0 0 2.212.27 4.28 4.28 0 0 0 1.932-.696c1.67-1.158 1.77-3.205 1.77-5.007V6.399Zm15.956 0h7.547v14.297c0 2.768.189 4.706.574 5.78a5.073 5.073 0 0 0 1.843 2.517 5.304 5.304 0 0 0 3.137.908 5.53 5.53 0 0 0 3.158-.882 5.202 5.202 0 0 0 1.93-2.606c.306-.853.458-2.678.458-5.478V6.415h7.496v12.563c0 5.17-.418 8.718-1.206 10.623a11.56 11.56 0 0 1-4.425 5.344c-1.955 1.245-4.435 1.868-7.44 1.868-3.27 0-5.908-.726-7.918-2.176a11.573 11.573 0 0 1-4.257-6.075c-.568-1.801-.874-5.068-.874-9.8l-.023-12.363Zm69.216 40.033h7.592V6.392h-8.682L93.567 23.607 80.97 6.392h-8.742v40.04h7.59V17.314l12.826 17.452h1.494l13.115-17.397v29.063Zm14.512-40.033h8.117c4.422 0 7.589.4 9.503 1.2a9.625 9.625 0 0 1 4.598 3.928 12.088 12.088 0 0 1 1.684 6.484 10.912 10.912 0 0 1-2.202 6.971 11.359 11.359 0 0 1-5.973 3.911c-1.473.398-4.16.599-8.061.599v16.97h-7.666V6.398Zm7.666 15.66h2.41a13.55 13.55 0 0 0 3.998-.41 3.495 3.495 0 0 0 1.76-1.35c.445-.673.67-1.469.647-2.274a3.663 3.663 0 0 0-1.81-3.376c-.856-.523-2.48-.768-4.854-.768h-2.151v8.178ZM10.415 58.074h2.761c2.292 0 2.55.339 2.55 3.39 0 3.052-.258 3.39-2.55 3.39h-2.76l-.017-3.39.016-3.39Zm-3.39 9.687h6.506c4.601 0 5.748-1.26 5.748-6.297s-1.147-6.296-5.748-6.296H7.025V67.76ZM20.57 55.168V67.76h10.365v-2.906h-6.974v-2.1h6.296v-2.744H23.96v-1.937h6.942v-2.906H20.57ZM44.932 55.168h-3.568l-3.067 9.364H38.2l-2.825-9.364h-3.713l3.794 12.593h5.36l4.116-12.593ZM64.112 67.76v-2.905h-4.908l3.503-3.003c1.308-1.13 1.098-1.84 1.147-3.649.097-2.583-.92-3.229-5.102-3.229-4.02 0-5.182.872-5.182 4.36h3.551c0-1.438.162-1.615 1.615-1.615 1.647 0 1.824.129 1.824 1.097 0 .695-.258 1.098-1.324 1.986l-5.57 4.698v2.26h10.446ZM70.796 57.557c1.808 0 2.002.388 2.002 3.907 0 3.52-.194 3.907-2.002 3.907-1.808 0-2.002-.387-2.002-3.907s.194-3.907 2.002-3.907Zm-5.553 3.907c0 5.199 1.114 6.49 5.553 6.49 4.44 0 5.554-1.291 5.554-6.49 0-5.198-1.114-6.49-5.554-6.49s-5.553 1.292-5.553 6.49ZM87.86 67.76v-2.905h-4.907l3.503-3.003c1.308-1.13 1.098-1.84 1.147-3.649.096-2.583-.92-3.229-5.102-3.229-4.02 0-5.183.872-5.183 4.36h3.552c0-1.438.162-1.615 1.615-1.615 1.646 0 1.824.129 1.824 1.097 0 .695-.258 1.098-1.324 1.986l-5.57 4.698v2.26h10.446ZM95.45 67.76h3.067V65.55h1.42v-2.745h-1.42v-7.83H96.53v.016h-.484l-7.379 8.508-.08.049v2.002h6.861v2.212Zm-3.294-4.956 3.293-3.81v3.81h-3.293Z" fill="#010101" fill-rule="nonzero"/><path d="M43.7 80.534a1.25 1.25 0 0 1-2.39-.733l10.815-35.21a1.25 1.25 0 1 1 2.39.734l-10.816 35.21Z" fill="#010101"/></svg>