<svg viewBox="0 0 674 280" xmlns="http://www.w3.org/2000/svg" xml:space="preserve" fill-rule="evenodd" clip-rule="evenodd" stroke-linecap="round" stroke-linejoin="round" stroke-miterlimit="1.5">
  <path d="M6 246.38v-63.41l58.9 29.97v63.76L6 246.38Zm0-72.42v-64.45l58.9 30.66v63.6L6 173.95Z" fill="#599ab4" stroke="#000" stroke-width=".53"/>
  <path d="m8.95 101.36 60.64-29.8 59.77 31.19-59.95 30.32-60.46-31.7ZM74.44 2.78l58.9 29.1V95.3L73.58 64.28l.87-61.5Z" fill="#e29451" stroke="#000" stroke-width=".53"/>
  <path d="m73.57 140.7 59.78-31.2v65.15l-59.78 29.8V140.7Z" fill="#6b7b82" stroke="#000" stroke-width=".53"/>
  <g fill-rule="nonzero">
    <path d="M155.92 206.3c0 2.1 1.81 3.9 3.92 3.9 2.1 0 3.9-1.8 3.9-3.9v-35.96h28.44c21.96 0 41.07-11.43 41.07-33.55v-.3c0-20.3-15.95-32.19-39.12-32.19h-34.3c-2.1 0-3.9 1.8-3.9 3.91v98.08Zm7.83-43.18v-51.6h29.78c18.96 0 31.9 8.73 31.9 25.42v.3c0 15.65-13.24 25.88-32.8 25.88h-28.88Zm101.85 71c10.97 0 18.8-5.71 25.56-21.8L322.3 138c.3-.75.46-1.2.46-1.96 0-2.1-1.66-3.76-3.77-3.76-1.95 0-3 1.2-3.6 2.7l-26.78 66.5-30.7-66.19c-.74-1.65-1.65-3-3.9-3a3.76 3.76 0 0 0-3.91 3.75c0 .75.3 1.5.6 2.26l34.3 70.85-.45 1.06c-4.97 11.43-10.08 17-18.5 17-4.67 0-7.38-.6-9.79-1.5-.9-.31-1.65-.61-2.4-.61a3.4 3.4 0 0 0-3.46 3.46c0 1.65.9 2.7 2.1 3.16a35.6 35.6 0 0 0 13.1 2.4Z" fill="#599ab4"/>
    <path d="M346.37 205.7c0 2.1 1.8 3.9 3.91 3.9h31.14c33.1 0 55.97-23.01 55.97-52.65v-.3c0-29.63-22.87-52.35-55.97-52.35h-31.14c-2.1 0-3.9 1.8-3.9 3.91v97.48Zm7.83-3.32v-90.86h27.22c29.34 0 47.84 20.46 47.84 45.43v.3c0 25.13-18.5 45.13-47.84 45.13H354.2Zm131.48 9.02c14.59 0 24.06-7.21 29.33-14.58v9.63c0 2.25 1.5 3.76 3.61 3.76 2.1 0 3.61-1.5 3.61-3.76v-44.68c0-9.48-2.7-16.55-7.82-21.67-5.57-5.56-13.84-8.42-24.22-8.42-9.78 0-17.45 2.26-25.27 5.72-.76.3-2.11 1.5-2.11 3.3a3.6 3.6 0 0 0 3.46 3.47 3.8 3.8 0 0 0 1.65-.46 49.6 49.6 0 0 1 21.82-5.11c15.8 0 25.27 7.97 25.27 23.47v3.3a92.3 92.3 0 0 0-25.42-3.3c-19.86 0-33.55 9.02-33.55 24.97v.3c0 15.95 15.34 24.07 29.64 24.07Zm.45-6.91c-11.74 0-22.27-6.47-22.27-17.6v-.3c0-10.68 9.03-17.9 25.28-17.9 10.98 0 19.55 1.8 26.02 3.46v8.72c0 14-13.39 23.62-29.03 23.62Zm87.4 6.47c4.36 0 7.82-.9 10.83-1.96 1.5-.6 2.4-1.65 2.4-3.16 0-1.8-1.65-3.3-3.3-3.3-1.06 0-3.46 1.5-8.73 1.5-8.87 0-15.34-3.91-15.34-14.9v-49.49h24.07c1.8 0 3.46-1.5 3.46-3.3a3.6 3.6 0 0 0-3.46-3.47h-24.07v-21.36c0-2.1-1.66-3.76-3.76-3.76-2.1 0-3.61 1.66-3.61 3.76v21.36h-8.28c-1.8 0-3.46 1.5-3.46 3.31a3.6 3.6 0 0 0 3.46 3.46h8.28v50.25c0 14.59 9.62 21.06 21.5 21.06Zm57.92.44c14.59 0 24.07-7.21 29.33-14.58v9.63c0 2.25 1.5 3.76 3.61 3.76 2.1 0 3.61-1.5 3.61-3.76v-44.68c0-9.48-2.7-16.55-7.82-21.67-5.57-5.56-13.84-8.42-24.22-8.42-9.78 0-17.45 2.26-25.27 5.72-.76.3-2.11 1.5-2.11 3.3a3.6 3.6 0 0 0 3.46 3.47 3.8 3.8 0 0 0 1.65-.46 49.6 49.6 0 0 1 21.82-5.11c15.8 0 25.27 7.97 25.27 23.47v3.3a92.3 92.3 0 0 0-25.42-3.3c-19.86 0-33.55 9.02-33.55 24.97v.3c0 15.95 15.34 24.07 29.64 24.07Zm.45-6.91c-11.74 0-22.27-6.47-22.27-17.6v-.3c0-10.68 9.03-17.9 25.28-17.9 10.98 0 19.55 1.8 26.02 3.46v8.72c0 14-13.39 23.62-29.03 23.62Z" fill="#e29451"/>
  </g>
</svg>
