<?xml version="1.0" encoding="UTF-8" standalone="no"?>
<!DOCTYPE svg PUBLIC "-//W3C//DTD SVG 1.1//EN" "http://www.w3.org/Graphics/SVG/1.1/DTD/svg11.dtd">
<svg width="100%" height="100%" viewBox="0 0 380 512" version="1.1" xmlns="http://www.w3.org/2000/svg" xmlns:xlink="http://www.w3.org/1999/xlink" xml:space="preserve" xmlns:serif="http://www.serif.com/" style="fill-rule:evenodd;clip-rule:evenodd;stroke-linejoin:round;stroke-miterlimit:2;">
    <path d="M28.346,488.164C25.823,488.164 23.765,490.189 23.765,492.712L23.765,494.571C23.765,497.127 25.823,499.152 28.346,499.152L41.26,499.152L41.26,486.405C41.26,483.882 39.201,481.824 36.679,481.824L22.172,481.824C19.649,481.824 17.591,483.882 17.591,486.405L17.591,501.144C17.591,503.667 19.649,505.725 22.172,505.725L41.26,505.725L41.26,501.377L22.172,501.377C22.039,501.377 21.939,501.277 21.939,501.144L21.939,486.405C21.939,486.272 22.039,486.173 22.172,486.173L36.679,486.173C36.811,486.173 36.911,486.272 36.911,486.405L36.911,495.434L35.085,495.434L35.085,492.712C35.085,490.189 33.06,488.164 30.537,488.164L28.346,488.164ZM27.384,495.434C27.251,495.434 27.151,495.335 27.151,495.202L27.151,491.75C27.151,491.65 27.251,491.55 27.384,491.55L31.5,491.55C31.599,491.55 31.699,491.65 31.699,491.75L31.699,495.434L27.384,495.434Z" style="fill:rgb(246,246,246);fill-rule:nonzero;"/>
    <path d="M325.056,459.02L294.793,459.02L294.793,444.27L308.935,432.511C309.43,432.164 309.783,431.746 309.995,431.398C310.207,431.05 310.278,430.702 310.278,430.215C310.278,429.868 310.137,429.589 309.924,429.311C309.712,429.102 309.217,428.963 308.581,428.963C307.52,428.963 306.46,428.963 305.399,429.033C304.339,429.102 303.278,429.241 302.217,429.311C301.157,429.45 300.096,429.589 299.177,429.728C298.258,429.868 297.409,430.007 296.702,430.146L296.702,416.439C298.187,416.022 300.379,415.605 303.278,415.257C306.106,414.909 309.076,414.7 312.258,414.7C316.712,414.7 320.106,415.744 322.369,417.901C324.561,420.057 325.692,422.84 325.692,426.25C325.692,429.033 325.268,431.259 324.49,432.929C323.712,434.599 322.51,436.129 321.025,437.451L313.177,444.27L325.056,444.27L325.056,459.02Z" style="fill:rgb(246,246,246);fill-rule:nonzero;"/>
    <path d="M345.278,428.963C344.5,428.963 343.864,429.172 343.51,429.52C343.086,429.868 342.803,430.633 342.732,431.816C342.591,432.998 342.52,434.807 342.52,437.243C342.52,438.982 342.591,440.304 342.662,441.347C342.732,442.391 342.803,443.226 343.015,443.713C343.227,444.27 343.51,444.618 343.864,444.826C344.217,445.035 344.642,445.105 345.278,445.105C346.056,445.105 346.692,444.896 347.046,444.548C347.399,444.2 347.682,443.435 347.823,442.322C347.894,441.208 347.965,439.539 347.965,437.243C347.965,435.434 347.965,433.972 347.894,432.859C347.823,431.816 347.682,430.981 347.47,430.355C347.258,429.798 347.046,429.45 346.692,429.241C346.338,429.033 345.844,428.963 345.278,428.963ZM345.278,459.855C341.601,459.855 338.561,459.507 336.086,458.811C333.611,458.115 331.702,456.932 330.288,455.263C328.803,453.593 327.813,451.297 327.177,448.305C326.541,445.383 326.258,441.695 326.258,437.243C326.258,432.651 326.682,428.893 327.46,425.971C328.237,423.049 329.369,420.753 330.995,419.083C332.621,417.483 334.601,416.3 337.005,415.674C339.338,415.048 342.096,414.7 345.278,414.7C348.955,414.7 351.995,415.048 354.47,415.744C356.945,416.439 358.854,417.622 360.338,419.292C361.753,420.962 362.743,423.258 363.379,426.18C363.945,429.102 364.227,432.79 364.227,437.243C364.227,441.835 363.874,445.592 363.096,448.514C362.318,451.506 361.116,453.802 359.561,455.402C358.005,457.072 356.025,458.254 353.692,458.881C351.288,459.507 348.46,459.855 345.278,459.855Z" style="fill:rgb(246,246,246);fill-rule:nonzero;"/>
    <path d="M325.27,507.389L295.007,507.389L295.007,492.639L309.148,480.881C309.643,480.533 309.997,480.115 310.209,479.768C310.421,479.42 310.492,479.072 310.492,478.585C310.492,478.237 310.35,477.959 310.138,477.68C309.926,477.472 309.431,477.332 308.795,477.332C307.734,477.332 306.674,477.332 305.613,477.402C304.552,477.472 303.492,477.611 302.431,477.68C301.371,477.819 300.31,477.959 299.391,478.098C298.472,478.237 297.623,478.376 296.916,478.515L296.916,464.809C298.401,464.391 300.593,463.974 303.492,463.626C306.32,463.278 309.29,463.069 312.472,463.069C316.926,463.069 320.32,464.113 322.583,466.27C324.775,468.427 325.906,471.21 325.906,474.619C325.906,477.402 325.482,479.628 324.704,481.298C323.926,482.968 322.724,484.499 321.239,485.821L313.391,492.639L325.27,492.639L325.27,507.389Z" style="fill:rgb(246,246,246);fill-rule:nonzero;"/>
    <path d="M362.249,499.249L358.714,499.249L358.714,507.389L342.663,507.389L342.663,499.249L326.401,499.249L326.401,485.473L331.067,463.765L345.916,463.765L342.098,485.473L343.936,485.473L346.411,471.418L358.714,471.418L358.714,485.473L362.249,485.473L362.249,499.249Z" style="fill:rgb(246,246,246);fill-rule:nonzero;"/>
    <path d="M43.81,457.176C43.81,460.604 43.417,463.371 42.636,465.475C41.851,467.585 40.737,469.224 39.292,470.387C37.849,471.55 36.115,472.332 34.094,472.728C32.076,473.118 29.828,473.318 27.356,473.318C24.011,473.318 21.452,472.803 19.674,471.773C17.9,470.747 17.011,469.513 17.011,468.073C17.011,466.874 17.508,465.862 18.5,465.041C19.494,464.219 20.825,463.806 22.494,463.806C23.75,463.806 24.751,464.144 25.5,464.81C26.249,465.475 26.868,466.137 27.356,466.79C27.91,467.509 28.384,467.989 28.764,468.229C29.147,468.469 29.494,468.589 29.811,468.589C30.469,468.589 30.975,468.202 31.327,467.43C31.674,466.661 31.846,465.161 31.846,462.935L31.846,420.677L43.81,417.439L43.81,457.176ZM60.846,418.571L60.846,445.763C60.846,446.518 60.995,447.228 61.293,447.898C61.587,448.565 61.997,449.142 62.52,449.622C63.044,450.101 63.649,450.483 64.349,450.776C65.043,451.07 65.793,451.212 66.596,451.212C67.498,451.212 68.528,450.714 69.782,449.853C71.764,448.485 72.968,447.544 72.968,446.433L72.968,418.571L84.879,418.571L84.879,457.176L72.968,457.176L72.968,453.579C71.402,454.88 69.728,455.924 67.955,456.714C66.176,457.5 64.452,457.895 62.782,457.895C60.833,457.895 59.019,457.579 57.349,456.945C55.675,456.31 54.213,455.444 52.963,454.347C51.708,453.254 50.724,451.967 50.007,450.492C49.294,449.018 48.937,447.441 48.937,445.763L48.937,418.571L60.846,418.571ZM101.581,457.176L89.725,457.176L89.725,403.046L101.581,399.809L101.581,457.176ZM106.536,420.677L118.446,417.439L118.446,457.176L106.536,457.176L106.536,420.677ZM143.331,437.232C142.185,437.712 141.025,438.266 139.856,438.902C138.691,439.537 137.627,440.229 136.669,440.984C135.713,441.735 134.936,442.543 134.346,443.401C133.755,444.257 133.457,445.145 133.457,446.073C133.457,446.793 133.556,447.486 133.745,448.156C133.935,448.822 134.206,449.396 134.558,449.875C134.905,450.355 135.289,450.741 135.704,451.034C136.124,451.322 136.575,451.469 137.063,451.469C138.037,451.469 139.021,451.176 140.014,450.594C141.007,450.012 142.112,449.276 143.331,448.387L143.331,437.232ZM155.295,457.176L143.331,457.176L143.331,454.089C142.672,454.64 142.027,455.147 141.399,455.608C140.772,456.07 140.069,456.474 139.283,456.816C138.502,457.158 137.622,457.424 136.643,457.616C135.668,457.802 134.521,457.895 133.199,457.895C131.385,457.895 129.755,457.637 128.312,457.127C126.868,456.612 125.64,455.91 124.629,455.017C123.619,454.124 122.847,453.072 122.304,451.855C121.767,450.638 121.497,449.311 121.497,447.873C121.497,446.398 121.781,445.061 122.359,443.862C122.933,442.663 123.718,441.584 124.71,440.624C125.704,439.665 126.858,438.808 128.181,438.053C129.503,437.299 130.925,436.606 132.442,435.971C133.953,435.336 135.532,434.754 137.166,434.226C138.804,433.693 140.424,433.187 142.027,432.707L143.331,432.4L143.331,428.595C143.331,426.13 142.853,424.38 141.896,423.35C140.939,422.324 139.658,421.809 138.055,421.809C136.174,421.809 134.869,422.257 134.138,423.146C133.407,424.038 133.042,425.117 133.042,426.384C133.042,427.103 132.96,427.808 132.807,428.492C132.649,429.176 132.377,429.775 131.995,430.291C131.615,430.806 131.064,431.219 130.351,431.525C129.639,431.832 128.74,431.988 127.662,431.988C125.987,431.988 124.629,431.517 123.586,430.575C122.539,429.629 122.021,428.44 122.021,427C122.021,425.663 122.48,424.425 123.401,423.274C124.326,422.125 125.568,421.139 127.139,420.321C128.704,419.495 130.514,418.847 132.572,418.368C134.626,417.887 136.801,417.648 139.098,417.648C141.923,417.648 144.351,417.897 146.391,418.389C148.426,418.887 150.105,419.598 151.428,420.526C152.754,421.449 153.729,422.564 154.352,423.865C154.984,425.167 155.295,426.628 155.295,428.235L155.295,457.176Z" style="fill:rgb(246,246,246);fill-rule:nonzero;"/>
    <path d="M46.157,407.509C46.157,411.906 42.537,415.467 38.069,415.467C33.607,415.467 29.982,411.906 29.982,407.509C29.982,403.112 33.607,399.551 38.069,399.551C42.537,399.551 46.157,403.112 46.157,407.509" style="fill:rgb(64,98,215);fill-rule:nonzero;"/>
    <path d="M130.889,390.949C130.889,395.342 127.27,398.907 122.802,398.907C118.334,398.907 114.714,395.342 114.714,390.949C114.714,386.553 118.334,382.991 122.802,382.991C127.27,382.991 130.889,386.553 130.889,390.949" style="fill:rgb(56,151,37);fill-rule:nonzero;"/>
    <path d="M140.606,407.509C140.606,411.906 136.981,415.467 132.519,415.467C128.051,415.467 124.431,411.906 124.431,407.509C124.431,403.112 128.051,399.551 132.519,399.551C136.981,399.551 140.606,403.112 140.606,407.509" style="fill:rgb(148,87,177);fill-rule:nonzero;"/>
    <path d="M121.173,407.509C121.173,411.906 117.554,415.467 113.086,415.467C108.618,415.467 104.998,411.906 104.998,407.509C104.998,403.112 108.618,399.551 113.086,399.551C117.554,399.551 121.173,403.112 121.173,407.509" style="fill:rgb(202,59,51);fill-rule:nonzero;"/>
    <path d="M220.034,457.56C216.13,457.56 212.542,456.746 209.279,455.126C206.011,453.505 203.421,451.218 201.503,448.269C199.585,445.321 198.623,441.959 198.623,438.185C198.623,434.542 199.5,431.212 201.25,428.196C203.001,425.185 205.493,422.784 208.724,420.994C211.956,419.204 215.62,418.312 219.726,418.312C223.432,418.312 226.916,419.093 230.179,420.647C233.446,422.206 236.086,424.439 238.108,427.353C240.126,430.271 241.137,433.681 241.137,437.589C241.137,441.231 240.26,444.579 238.51,447.625C236.759,450.671 234.267,453.088 231.036,454.877C227.804,456.667 224.135,457.56 220.034,457.56ZM178.834,457.56C175.265,457.56 171.983,456.698 168.987,454.975C165.99,453.252 163.634,450.952 161.92,448.069C160.204,445.187 159.342,442.092 159.342,438.779C159.342,435.338 160.236,432.025 162.018,428.845C163.806,425.665 166.26,423.116 169.392,421.193C172.52,419.271 176.004,418.312 179.845,418.312C182.336,418.312 184.755,418.725 187.111,419.554C189.467,420.381 191.39,421.474 192.869,422.832C194.35,424.191 195.09,425.665 195.09,427.255C195.09,428.779 194.436,430.004 193.123,430.932C191.809,431.86 190.279,432.322 188.528,432.322C186.98,432.322 185.667,431.927 184.588,431.132C183.509,430.337 182.941,429.276 182.873,427.952C182.806,426.229 182.571,424.968 182.165,424.173C181.763,423.379 180.716,422.983 179.037,422.983C176.546,422.983 174.573,423.991 173.13,426.012C171.681,428.033 170.959,430.799 170.959,434.312C170.959,438.353 171.798,442.012 173.482,445.289C175.165,448.567 177.656,450.205 180.955,450.205C183.31,450.205 185.328,449.348 187.012,447.625C188.695,445.902 190.243,443.517 191.656,440.471L197.211,441.959C195.866,446.862 193.591,450.689 190.396,453.438C187.197,456.188 183.343,457.56 178.834,457.56ZM221.243,453.088C223.802,453.088 225.652,451.879 226.799,449.464C227.94,447.044 228.513,443.979 228.513,440.272C228.513,435.501 227.638,431.412 225.887,428.001C224.135,424.59 221.817,422.881 218.918,422.881C216.359,422.881 214.429,424.16 213.115,426.709C211.802,429.258 211.148,432.353 211.148,435.999C211.148,440.369 212.054,444.312 213.873,447.821C215.692,451.334 218.147,453.088 221.243,453.088ZM244.065,418.907L255.876,418.907L255.876,421.988C259.446,419.471 263.349,418.213 267.592,418.213C271.834,418.213 274.912,419.288 276.829,421.442C278.748,423.596 279.709,426.425 279.709,429.938L279.709,457.262L268.097,457.262L268.097,431.029C268.097,429.174 267.759,427.704 267.087,426.607C266.414,425.514 265.403,424.968 264.058,424.968C261.969,424.968 259.242,426.363 255.876,429.142L255.876,457.262L244.065,457.262L244.065,418.907Z" style="fill:rgb(246,246,246);fill-rule:nonzero;"/>
    <path d="M72.912,505.551L50.197,505.551L50.197,472.584L72.439,472.584L72.439,479.945L58.347,479.945L58.347,485.413L70.493,485.413L70.493,492.249L58.347,492.249L58.347,497.927L72.912,497.927L72.912,505.551Z" style="fill:rgb(246,246,246);fill-rule:nonzero;"/>
    <path d="M77.434,505.551L77.434,479.577L85.321,479.577L85.321,505.551L77.434,505.551ZM77.224,476.738L77.224,470.586L85.531,470.586L85.531,476.738L77.224,476.738Z" style="fill:rgb(246,246,246);fill-rule:nonzero;"/>
    <path d="M88.686,505.551L88.686,479.577L95.521,479.577L95.837,482.311L96.573,482.311L96.573,505.551L88.686,505.551ZM95.101,488.41L95.101,483.31C96.415,481.68 97.835,480.576 99.307,479.945C100.727,479.367 102.462,479.051 104.407,479.051C107.299,479.051 109.507,479.735 111.032,481.154C112.557,482.574 113.346,484.677 113.346,487.569L113.346,505.551L105.459,505.551L105.459,488.621C105.459,487.779 105.143,487.148 104.46,486.728C103.776,486.36 102.83,486.149 101.62,486.149C100.043,486.149 98.676,486.412 97.519,486.886C96.362,487.411 95.574,487.937 95.101,488.41Z" style="fill:rgb(246,246,246);fill-rule:nonzero;"/>
    <path d="M141.739,470.586L141.739,505.551L134.746,505.551L134.325,503.133L133.852,503.133L133.852,470.586L141.739,470.586ZM135.64,496.876L136.691,498.979C135.745,501.45 134.378,503.291 132.643,504.395C130.855,505.499 128.752,506.077 126.386,506.077C124.125,506.077 122.284,505.657 120.865,504.71C119.445,503.816 118.446,502.397 117.815,500.399C117.184,498.453 116.869,495.824 116.869,492.564C116.869,489.304 117.289,486.675 118.183,484.677C119.024,482.732 120.286,481.259 122.074,480.366C123.809,479.472 125.965,479.051 128.594,479.051C129.856,479.051 131.065,479.156 132.169,479.314C133.274,479.524 134.273,479.84 135.061,480.26C135.85,480.681 136.428,481.259 136.744,481.996L135.114,487.516C134.641,487.201 134.01,486.886 133.274,486.57C132.537,486.307 131.328,486.149 129.698,486.149C128.331,486.149 127.279,486.307 126.596,486.623C125.86,486.938 125.387,487.569 125.124,488.463C124.861,489.357 124.756,490.724 124.756,492.564C124.756,494.404 124.861,495.719 125.124,496.613C125.387,497.507 125.807,498.085 126.491,498.348C127.122,498.611 128.016,498.769 129.225,498.769C130.539,498.769 131.591,498.663 132.485,498.401C133.326,498.19 134.01,497.927 134.535,497.612C135.061,497.296 135.429,497.033 135.64,496.876Z" style="fill:rgb(246,246,246);fill-rule:nonzero;"/>
    <path d="M146.261,505.551L146.261,470.586L154.148,470.586L154.148,505.551L146.261,505.551ZM152.676,487.516L152.676,482.364C153.727,481.68 155.095,480.944 156.83,480.155C158.512,479.419 160.3,479.051 162.14,479.051C165.085,479.051 167.293,479.735 168.765,481.154C170.185,482.574 170.921,484.677 170.921,487.569L170.921,505.551L163.034,505.551L163.034,488.621C163.034,487.779 162.771,487.148 162.298,486.728C161.825,486.36 160.931,486.149 159.722,486.149C158.67,486.149 157.671,486.255 156.672,486.412C155.673,486.57 154.832,486.78 154.148,486.991C153.412,487.201 152.939,487.359 152.676,487.516Z" style="fill:rgb(246,246,246);fill-rule:nonzero;"/>
    <path d="M187.221,506.077C184.119,506.077 181.648,505.657 179.807,504.71C177.914,503.816 176.547,502.397 175.706,500.399C174.812,498.453 174.392,495.824 174.392,492.564C174.392,489.304 174.812,486.675 175.706,484.677C176.547,482.732 177.914,481.259 179.807,480.366C181.648,479.472 184.119,479.051 187.221,479.051C190.323,479.051 192.795,479.472 194.687,480.366C196.528,481.259 197.895,482.732 198.789,484.677C199.63,486.675 200.051,489.304 200.051,492.564C200.051,495.824 199.63,498.453 198.789,500.399C197.895,502.397 196.528,503.816 194.687,504.71C192.795,505.657 190.323,506.077 187.221,506.077ZM187.221,498.769C188.641,498.769 189.692,498.611 190.376,498.295C191.059,498.032 191.533,497.402 191.796,496.508C192.058,495.614 192.164,494.299 192.164,492.459C192.164,490.619 192.058,489.252 191.796,488.358C191.533,487.516 191.059,486.886 190.376,486.57C189.692,486.307 188.641,486.149 187.221,486.149C185.854,486.149 184.802,486.307 184.119,486.57C183.383,486.886 182.91,487.516 182.647,488.358C182.384,489.252 182.279,490.619 182.279,492.459C182.279,494.299 182.384,495.614 182.647,496.508C182.91,497.402 183.383,498.032 184.119,498.295C184.802,498.611 185.854,498.769 187.221,498.769Z" style="fill:rgb(246,246,246);fill-rule:nonzero;"/>
    <path d="M228.128,479.577L219.19,505.551L210.146,505.551L201.155,479.577L209.83,479.577L214.72,498.401L219.558,479.577L228.128,479.577Z" style="fill:rgb(246,246,246);fill-rule:nonzero;"/>
    <path d="M240.169,485.781C238.434,485.781 237.33,486.044 236.751,486.623C236.173,487.201 235.857,488.358 235.857,490.04L244.323,490.04L244.323,488.884C244.27,487.569 243.955,486.728 243.376,486.36C242.798,485.992 241.746,485.781 240.169,485.781ZM250.369,504.132C249.633,504.605 248.319,505.078 246.373,505.446C244.428,505.867 242.272,506.077 239.801,506.077C237.014,506.077 234.701,505.604 232.965,504.658C231.23,503.764 229.916,502.291 229.127,500.293C228.338,498.348 227.918,495.772 227.918,492.564C227.918,487.885 228.917,484.467 230.862,482.311C232.808,480.155 235.91,479.051 240.169,479.051C243.061,479.051 245.322,479.419 246.952,480.155C248.582,480.944 249.738,482.101 250.475,483.731C251.158,485.361 251.474,487.464 251.474,490.145C251.474,491.25 251.474,492.144 251.421,492.827C251.368,493.511 251.316,494.247 251.211,495.141L235.857,495.141C235.91,496.192 236.068,496.981 236.436,497.507C236.804,498.085 237.33,498.453 238.118,498.663C238.854,498.874 239.853,498.979 241.063,498.979C243.113,498.979 245.006,498.821 246.741,498.558C248.476,498.295 249.686,498.085 250.369,497.875L250.369,504.132Z" style="fill:rgb(246,246,246);fill-rule:nonzero;"/>
    <path d="M255.049,505.551L255.049,479.577L261.884,479.577L262.2,482.311L262.936,482.311L262.936,505.551L255.049,505.551ZM261.464,488.41L261.464,483.31C262.778,481.68 264.198,480.576 265.67,479.945C267.09,479.367 268.825,479.051 270.77,479.051C273.662,479.051 275.871,479.735 277.396,481.154C278.92,482.574 279.709,484.677 279.709,487.569L279.709,505.551L271.822,505.551L271.822,488.621C271.822,487.779 271.507,487.148 270.823,486.728C270.14,486.36 269.193,486.149 267.984,486.149C266.406,486.149 265.039,486.412 263.882,486.886C262.726,487.411 261.937,487.937 261.464,488.41Z" style="fill:rgb(246,246,246);fill-rule:nonzero;"/>
    <path d="M317.649,231.831L315.419,227.282L312.963,223.009L310.269,219.009L307.346,215.284L304.182,211.828L300.792,208.653L297.162,205.745L293.305,203.116L289.288,200.773L285.205,198.745L281.054,197.026L276.838,195.623L272.55,194.529L268.197,193.75L263.772,193.283L259.285,193.131L256.514,193.185L253.829,193.354L251.227,193.631L248.712,194.026L246.27,194.529L243.921,195.147L241.65,195.876L239.467,196.72L235.242,198.638L231.156,200.815L227.204,203.241L223.395,205.926L223.395,187.511L227.157,184.719L230.96,181.344L234.805,177.384L238.688,172.843L242.33,167.963L243.963,165.493L245.473,163.01L246.847,160.5L248.105,157.976L249.229,155.43L250.234,152.87L376.01,152.87L376.946,174.948L377.178,183.824L377.259,191.258L377.178,198.938L376.946,208.266L376.01,231.831L317.649,231.831Z" style="fill:rgb(238,48,38);fill-rule:nonzero;"/>
    <path d="M155.668,378.204L142.347,377.889L129.858,377.431L118.196,376.819L107.37,376.057L97.367,375.142L88.194,374.077L79.85,372.858L72.339,371.493L65.446,369.89L58.976,367.978L52.922,365.754L50.05,364.526L47.29,363.224L44.626,361.835L42.075,360.372L39.622,358.829L37.281,357.211L35.039,355.511L32.907,353.738L30.877,351.886L28.959,349.959L27.121,347.919L25.355,345.76L23.663,343.468L22.048,341.053L20.505,338.502L19.033,335.832L17.636,333.025L16.315,330.099L15.064,327.036L13.886,323.852L11.751,317.099L9.907,309.829L8.358,302.053L77.644,302.053L79.782,304.025L81.994,305.889L84.269,307.646L86.618,309.305L89.026,310.849L91.512,312.288L94.06,313.617L96.683,314.848L99.407,315.939L102.294,316.894L105.336,317.697L108.538,318.357L111.892,318.865L115.407,319.234L119.073,319.451L122.9,319.528L127.42,319.389L131.636,318.978L135.538,318.294L139.129,317.346L142.733,316.017L146.694,314.224L151.003,311.958L155.668,309.231L155.668,378.204Z" style="fill:rgb(141,89,187);fill-rule:nonzero;"/>
    <path d="M62.351,277.709L64.551,283.148L65.782,285.735L67.109,288.241L68.515,290.65L70.014,292.978L71.599,295.217L73.276,297.37L9.919,297.37L62.351,277.709Z" style="fill:rgb(238,48,38);fill-rule:nonzero;"/>
    <path d="M7.109,293.626L6.434,288.426L5.822,282.678L4.769,269.514L3.949,254.123L3.366,236.511L62.351,236.511L61.542,238.593L60.846,240.799L60.258,243.116L59.776,245.557L59.401,248.111L59.134,250.784L58.92,256.484L59.053,261.144L59.464,265.455L60.148,269.413L61.105,273.026L7.109,293.626Z" style="fill:rgb(66,92,222);fill-rule:nonzero;"/>
    <path d="M122.276,314.848L115.99,314.643L113.052,314.384L110.257,314.027L107.593,313.563L105.068,313.001L102.677,312.335L100.427,311.571L96.154,309.743L92.077,307.548L88.197,304.985L84.512,302.053L155.668,302.053L155.668,303.923L150.485,306.927L145.873,309.383L141.826,311.295L138.347,312.663L134.94,313.614L131.131,314.298L126.905,314.708L122.276,314.848Z" style="fill:rgb(238,48,38);fill-rule:nonzero;"/>
    <path d="M79.205,297.37L77.703,295.734L76.178,293.799L74.623,291.56L73.038,289.02L71.42,286.175L69.779,283.032L66.41,275.836L155.668,237.76L155.668,297.37L79.205,297.37Z" style="fill:rgb(141,89,187);fill-rule:nonzero;"/>
    <path d="M165.032,302.053L216.217,302.053L160.351,376.331L160.351,306.421L165.032,302.053Z" style="fill:rgb(52,176,69);fill-rule:nonzero;"/>
    <path d="M218.4,306.733L218.4,378.204L165.032,378.204L218.4,306.733Z" style="fill:rgb(238,48,38);fill-rule:nonzero;"/>
    <path d="M65.161,271.468L64.34,266.743L63.754,262.571L63.404,258.94L63.288,255.863L63.344,253.166L63.52,250.552L63.811,248.016L64.224,245.56L64.748,243.178L65.393,240.876L66.154,238.652L67.034,236.511L146.932,236.511L65.161,271.468Z" style="fill:rgb(52,176,69);fill-rule:nonzero;"/>
    <path d="M3.366,231.831L3.286,221.138L3.054,213.416L2.741,190.946L3.054,169.412L3.286,162.465L3.366,152.87L130.703,152.87L131.384,155.424L132.183,157.949L133.096,160.438L134.131,162.894L135.279,165.311L136.549,167.702L137.934,170.057L139.439,172.376L141.056,174.624L142.793,176.774L144.642,178.817L146.614,180.761L148.698,182.599L150.905,184.338L153.227,185.974L155.668,187.511L155.668,202.804L151.657,200.529L147.589,198.567L143.462,196.904L139.281,195.549L135.035,194.487L130.735,193.732L126.376,193.277L121.964,193.131L118.624,193.214L115.336,193.479L112.092,193.916L108.892,194.532L105.731,195.317L102.618,196.286L99.546,197.428L96.525,198.748L93.573,200.196L90.739,201.754L88.015,203.413L85.404,205.18L82.904,207.044L80.519,209.016L78.244,211.085L76.086,213.262L74.052,215.495L72.178,217.755L70.46,220.035L68.905,222.349L67.495,224.68L66.249,227.038L65.155,229.42L64.224,231.831L3.366,231.831Z" style="fill:rgb(52,176,69);fill-rule:nonzero;"/>
    <path d="M68.908,231.831L70.448,228.453L72.276,225.194L74.385,222.051L76.784,219.03L79.457,216.122L82.419,213.336L85.66,210.663L89.193,208.112L92.915,205.768L96.757,203.741L100.715,202.022L104.795,200.618L108.984,199.524L113.299,198.745L117.726,198.278L122.276,198.124L126.754,198.284L131.149,198.766L135.454,199.569L139.674,200.696L143.804,202.141L147.845,203.916L151.797,206.006L155.668,208.424L155.668,231.831L68.908,231.831Z" style="fill:rgb(238,48,38);fill-rule:nonzero;"/>
    <path d="M160.351,239.946L180.012,260.231L179.786,262.589L179.435,265.003L178.948,267.465L178.332,269.981L176.703,275.146L174.55,280.516L173.301,283.168L171.984,285.681L170.589,288.045L169.126,290.266L167.583,292.336L165.974,294.266L164.288,296.044L162.537,297.682L160.351,300.804L160.351,239.946Z" style="fill:rgb(52,176,69);fill-rule:nonzero;"/>
    <path d="M169.09,297.37L171.799,293.846L174.315,290.15L176.634,286.279L178.763,282.235L180.616,278.105L182.117,274.001L183.268,269.916L184.071,265.848L187.27,270.094L190.642,274.251L194.175,278.322L197.877,282.309L201.742,286.204L205.777,290.013L209.976,293.733L214.344,297.37L169.09,297.37Z" style="fill:rgb(66,92,222);fill-rule:nonzero;"/>
    <path d="M163.471,236.511L176.268,236.511L177.553,240.294L178.606,244.468L179.423,249.03L180.012,253.99L163.471,236.511Z" style="fill:rgb(66,92,222);fill-rule:nonzero;"/>
    <path d="M203.732,282.077L198.326,276.163L193.354,270.293L188.808,264.459L184.695,258.67L184.633,255.453L184.457,252.366L184.166,249.404L183.759,246.574L183.229,243.865L182.584,241.287L181.823,238.834L180.949,236.511L201.237,236.511L199.676,241.311L198.739,245.093L198.269,248.563L198.115,252.428L198.198,256.642L198.463,260.716L198.9,264.638L199.518,268.42L200.303,272.051L201.273,275.538L202.411,278.878L203.732,282.077Z" style="fill:rgb(141,89,187);fill-rule:nonzero;"/>
    <path d="M169.403,222.78L172.676,228.471L174.395,231.831L162.537,231.831L169.403,222.78Z" style="fill:rgb(238,48,38);fill-rule:nonzero;"/>
    <path d="M160.351,212.792L166.28,219.033L160.351,227.148L160.351,212.792Z" style="fill:rgb(52,176,69);fill-rule:nonzero;"/>
    <path d="M218.4,293.626L214.484,289.008L211.18,284.533L208.477,280.192L207.353,278.069L206.384,275.99L205.542,273.808L204.814,271.414L204.195,268.795L203.69,265.964L203.294,262.904L203.018,259.63L202.848,256.136L202.795,252.428L202.911,248.447L203.265,245.25L204.082,241.659L205.605,236.511L218.4,236.511L218.4,293.626Z" style="fill:rgb(52,176,69);fill-rule:nonzero;"/>
    <path d="M263.344,314.848L258.61,314.646L253.939,314.045L249.324,313.043L244.772,311.649L240.273,309.847L235.836,307.649L231.456,305.047L227.139,302.053L297.049,302.053L293.379,305.047L289.555,307.649L285.574,309.847L281.444,311.649L277.15,313.043L272.702,314.045L268.099,314.646L263.344,314.848Z" style="fill:rgb(238,48,38);fill-rule:nonzero;"/>
    <path d="M223.395,304.86L227.448,307.724L231.816,310.4L236.496,312.877L241.495,315.16L244.088,316.183L246.719,317.069L249.393,317.819L252.104,318.434L254.852,318.91L257.644,319.252L260.472,319.457L263.344,319.528L266.136,319.451L268.919,319.234L271.676,318.865L274.42,318.357L277.138,317.697L279.841,316.894L282.523,315.939L285.19,314.848L287.798,313.617L290.335,312.288L292.791,310.849L295.172,309.305L297.471,307.646L299.698,305.889L301.842,304.025L303.914,302.053L371.329,302.053L369.774,309.9L367.931,317.227L365.793,324.021L364.615,327.221L363.366,330.295L362.037,333.23L360.643,336.037L359.171,338.71L357.631,341.256L356.01,343.664L354.324,345.945L352.558,348.092L350.729,350.114L348.802,352.023L346.768,353.857L344.628,355.615L342.388,357.301L340.033,358.9L337.58,360.432L335.02,361.88L332.353,363.259L326.697,365.775L320.617,367.987L314.114,369.89L307.191,371.493L299.633,372.858L291.241,374.077L282.018,375.142L271.964,376.057L261.069,376.819L249.345,377.431L236.785,377.889L223.395,378.204L223.395,304.86Z" style="fill:rgb(66,92,222);fill-rule:nonzero;"/>
    <path d="M144.434,90.45L142.174,92.895L140.081,95.401L138.151,97.965L136.394,100.59L134.797,103.272L133.37,106.014L132.109,108.812L131.015,111.672L130.06,114.551L129.237,117.423L128.538,120.284L127.967,123.141L127.521,125.981L127.206,128.814L127.018,131.639L126.956,134.455L127.111,137.884L127.58,141.318L128.36,144.752L129.454,148.187L8.671,148.187L144.434,90.45Z" style="fill:rgb(141,89,187);fill-rule:nonzero;"/>
    <path d="M3.366,145.38L3.987,125.889L4.415,117.209L4.924,109.252L5.507,102L6.17,95.461L6.91,89.633L7.734,84.521L146.932,84.521L3.366,145.38Z" style="fill:rgb(66,92,222);fill-rule:nonzero;"/>
    <path d="M169.403,215.602L168.014,213.844L166.043,211.698L163.488,209.161L160.351,206.238L160.351,190.321L163.542,191.502L166.726,192.563L169.899,193.491L173.069,194.3L176.221,194.972L179.367,195.525L182.504,195.947L185.632,196.25L169.403,215.602Z" style="fill:rgb(66,92,222);fill-rule:nonzero;"/>
    <path d="M155.668,181.894L151.93,179.081L150.185,177.559L148.529,175.962L145.454,172.528L142.719,168.787L140.346,164.862L138.383,160.904L136.831,156.902L135.695,152.87L155.668,152.87L155.668,181.894Z" style="fill:rgb(66,92,222);fill-rule:nonzero;"/>
    <path d="M179.075,231.831L177.609,228.453L176.031,225.197L174.333,222.054L172.522,219.033L191.249,196.25L195.082,196.155L198.793,195.876L202.376,195.409L205.837,194.764L209.164,193.928L212.37,192.911L215.447,191.707L218.4,190.321L218.4,209.67L215.218,212.78L212.545,215.56L210.38,218.007L208.727,220.127L207.3,222.319L205.837,225.001L204.332,228.171L202.795,231.831L179.075,231.831Z" style="fill:rgb(141,89,187);fill-rule:nonzero;"/>
    <path d="M207.478,231.831L209.896,226.836L211.043,224.805L212.158,223.092L213.366,221.507L214.811,219.89L216.488,218.23L218.4,216.538L218.4,231.831L207.478,231.831Z" style="fill:rgb(238,48,38);fill-rule:nonzero;"/>
    <path d="M319.207,264.599L318.526,269.27L317.432,273.781L315.913,278.125L313.98,282.309L311.622,286.317L308.85,290.168L305.654,293.849L302.044,297.37L233.068,297.37L319.207,264.599Z" style="fill:rgb(52,176,69);fill-rule:nonzero;"/>
    <path d="M223.395,236.511L315.151,236.511L316.632,240.255L317.961,244.002L318.972,247.433L319.519,250.243L319.751,251.804L319.832,254.614L319.751,257.576L319.519,259.607L223.395,296.121L223.395,236.511Z" style="fill:rgb(141,89,187);fill-rule:nonzero;"/>
    <path d="M188.751,191.57L184.889,191.395L181.118,191.041L177.434,190.497L173.845,189.771L170.336,188.855L166.92,187.761L163.589,186.479L160.351,185.016L160.351,152.87L216.217,152.87L188.751,191.57Z" style="fill:rgb(238,48,38);fill-rule:nonzero;"/>
    <path d="M134.446,148.187L133.352,145.454L132.573,142.567L132.103,139.525L131.949,136.328L132.032,132.826L132.287,129.362L132.713,125.921L133.313,122.517L134.078,119.133L135.02,115.785L136.129,112.46L137.411,109.175L138.886,105.945L140.598,102.832L142.534,99.823L144.705,96.924L147.095,94.126L149.724,91.441L152.579,88.863L155.668,86.392L155.668,148.187L134.446,148.187Z" style="fill:rgb(52,176,69);fill-rule:nonzero;"/>
    <path d="M218.4,157.55L218.4,185.329L216.039,186.583L213.5,187.704L210.773,188.689L207.865,189.539L204.763,190.25L201.484,190.827L198.017,191.264L194.368,191.57L218.4,157.55Z" style="fill:rgb(141,89,187);fill-rule:nonzero;"/>
    <path d="M8.358,79.838L9.902,71.982L11.739,64.661L13.862,57.861L15.031,54.659L16.277,51.593L17.588,48.652L18.974,45.845L20.428,43.169L21.962,40.63L23.559,38.215L25.236,35.934L26.981,33.788L28.801,31.775L30.701,29.86L32.717,28.025L34.84,26.265L37.07,24.585L39.402,22.976L41.846,21.451L44.397,19.997L47.055,18.626L49.821,17.326L52.693,16.107L58.759,13.895L65.253,11.992L72.184,10.398L79.731,9.027L88.107,7.811L97.304,6.744L107.331,5.831L118.175,5.067L129.846,4.454L142.344,3.993L155.668,3.687L155.668,79.838L8.358,79.838Z" style="fill:rgb(238,48,38);fill-rule:nonzero;"/>
    <path d="M223.395,212.167L227.365,208.87L231.486,206.018L233.6,204.754L235.753,203.604L237.939,202.56L240.169,201.632L242.426,200.806L244.727,200.092L247.058,199.488L249.431,198.998L254.284,198.341L259.285,198.124L263.386,198.257L267.424,198.659L271.399,199.328L275.318,200.267L279.166,201.472L282.954,202.95L286.677,204.689L290.34,206.705L293.864,208.971L297.194,211.489L300.32,214.255L303.251,217.276L305.975,220.538L308.506,224.052L310.834,227.817L312.966,231.831L223.395,231.831L223.395,212.167Z" style="fill:rgb(66,92,222);fill-rule:nonzero;"/>
    <path d="M223.395,152.87L245.554,152.87L243.66,157.048L241.418,161.175L238.822,165.243L235.878,169.254L232.756,173.027L229.634,176.39L226.512,179.343L223.395,181.894L223.395,152.87Z" style="fill:rgb(238,48,38);fill-rule:nonzero;"/>
    <path d="M160.351,87.953L215.593,148.187L160.351,148.187L160.351,87.953Z" style="fill:rgb(141,89,187);fill-rule:nonzero;"/>
    <path d="M308.286,297.37L311.741,293.614L314.78,289.698L317.396,285.616L319.597,281.372L321.375,276.957L322.737,272.381L323.679,267.635L324.203,262.729L376.01,239.634L375.4,256.464L374.523,271.7L373.372,285.333L371.954,297.37L308.286,297.37Z" style="fill:rgb(141,89,187);fill-rule:nonzero;"/>
    <path d="M163.471,84.521L218.4,84.521L218.4,144.443L163.471,84.521Z" style="fill:rgb(238,48,38);fill-rule:nonzero;"/>
    <path d="M248.364,143.507L246.803,148.187L231.822,148.187L248.364,143.507Z" style="fill:rgb(52,176,69);fill-rule:nonzero;"/>
    <path d="M324.515,253.99L324.435,250.398L324.203,248.373L323.105,244.703L322.017,241.504L320.92,238.771L319.832,236.511L371.642,236.511L324.515,257.109L324.515,253.99Z" style="fill:rgb(52,176,69);fill-rule:nonzero;"/>
    <path d="M166.28,79.838L168.9,78.536L171.466,77.456L173.973,76.588L176.423,75.937L178.965,75.455L181.766,75.116L184.817,74.911L188.127,74.846L191.439,74.92L194.677,75.155L197.835,75.541L200.919,76.091L203.919,76.79L206.848,77.653L209.696,78.664L212.471,79.838L166.28,79.838Z" style="fill:rgb(141,89,187);fill-rule:nonzero;"/>
    <path d="M223.395,86.392L225.923,88.11L228.367,90.007L230.722,92.071L232.991,94.31L235.167,96.713L237.261,99.294L239.265,102.038L241.183,104.961L242.934,108.048L244.457,111.31L245.741,114.738L246.8,118.342L247.614,122.109L248.203,126.055L248.551,130.167L248.673,134.455L248.673,138.514L223.395,147.562L223.395,86.392Z" style="fill:rgb(52,176,69);fill-rule:nonzero;"/>
    <path d="M160.351,3.687L214.032,3.687L160.351,75.158L160.351,3.687Z" style="fill:rgb(66,92,222);fill-rule:nonzero;"/>
    <path d="M218.4,77.965L215.12,76.207L211.686,74.685L208.097,73.398L204.353,72.345L200.452,71.524L196.396,70.941L192.183,70.591L187.814,70.475L184.746,70.54L181.784,70.745L178.93,71.084L176.188,71.566L173.548,72.175L171.017,72.931L168.591,73.817L166.28,74.846L218.4,5.56L218.4,77.965Z" style="fill:rgb(141,89,187);fill-rule:nonzero;"/>
    <path d="M253.356,134.455L253.24,130.236L252.904,126.162L252.339,122.237L251.557,118.461L250.546,114.824L249.312,111.336L247.855,107.997L246.178,104.807L244.329,101.756L242.39,98.854L240.35,96.097L238.215,93.492L235.979,91.027L233.651,88.711L231.222,86.543L228.7,84.521L371.642,84.521L253.356,136.641L253.356,134.455Z" style="fill:rgb(238,48,38);fill-rule:nonzero;"/>
    <path d="M251.795,148.187L252.806,144.83L253.356,141.633L372.891,89.202L374.015,101.078L374.916,114.869L375.576,130.569L376.01,148.187L251.795,148.187Z" style="fill:rgb(141,89,187);fill-rule:nonzero;"/>
    <path d="M223.395,3.687L236.714,3.993L249.217,4.454L260.903,5.067L271.768,5.831L281.813,6.744L291.039,7.811L299.445,9.027L307.037,10.398L313.995,11.992L320.533,13.904L326.635,16.128L329.525,17.356L332.317,18.667L334.993,20.047L337.563,21.51L340.025,23.05L342.38,24.671L344.628,26.366L346.768,28.144L348.802,29.996L350.729,31.932L352.558,33.963L354.324,36.125L356.01,38.414L357.631,40.832L359.171,43.374L360.643,46.05L362.037,48.851L363.366,51.786L365.793,58.025L367.931,64.783L369.774,72.053L371.329,79.838L223.395,79.838L223.395,3.687Z" style="fill:rgb(52,176,69);fill-rule:nonzero;"/>
</svg>
