<?xml version="1.0" encoding="UTF-8" standalone="no"?>
<!DOCTYPE svg PUBLIC "-//W3C//DTD SVG 1.1//EN" "http://www.w3.org/Graphics/SVG/1.1/DTD/svg11.dtd">
<svg width="100%" height="100%" viewBox="0 0 1824 387" version="1.1" xmlns="http://www.w3.org/2000/svg" xmlns:xlink="http://www.w3.org/1999/xlink" xml:space="preserve" xmlns:serif="http://www.serif.com/" style="fill-rule:evenodd;clip-rule:evenodd;stroke-linejoin:round;stroke-miterlimit:2;">
    <g transform="matrix(0.476343,0,0,0.476343,-270.396,8.81991e-05)">
        <path d="M864.79,0.53C859.21,0.18 853.67,0 848.16,0C771.35,-0.09 701.76,32.63 641.13,97.43C586.01,156.35 567.48,203.76 567.65,261.02C567.73,291.65 573.17,325.09 581.22,364.62C596.35,438.95 640.47,510.7 702.28,561.51C749.6,600.4 802.37,620.26 857.98,620.63C886.8,620.82 916.38,615.78 946.37,605.43C1043.18,572.01 1135.79,476.35 1171.57,372.79C1182.9,340.02 1188.4,308.12 1188.28,277.77C1187.99,203.59 1154.11,138.58 1089.36,92.09C1010.81,35.67 935.26,4.88 864.79,0.53" style="fill:rgb(0,40,75);fill-rule:nonzero;"/>
    </g>
    <g transform="matrix(0.476343,0,0,0.476343,-270.396,8.81991e-05)">
        <path d="M754.26,311.31L732.97,311.31L732.95,311.91C732.78,316.05 730.32,352.26 697.92,352.26C668.96,352.26 654.27,326.31 654.24,275.12C654.27,223.93 668.96,197.98 697.92,197.98C730.88,197.98 732.88,236.68 732.95,238.32L732.97,238.92L754.26,238.92C756.22,238.92 758.14,238.11 759.51,236.71C760.82,235.36 761.5,233.62 761.41,231.8C760.97,221.76 755.81,171.66 697.62,171.66C695.639,171.66 693.698,171.723 691.796,171.85C648.55,174.728 625.75,210.248 625.75,275.01C625.75,342.62 650.6,378.57 697.62,378.57C753.63,378.57 760.59,332.81 761.4,318.79C761.54,316.86 760.88,315 759.52,313.57C758.16,312.13 756.23,311.31 754.27,311.31" style="fill:white;fill-rule:nonzero;"/>
    </g>
    <g transform="matrix(0.476343,0,0,0.476343,-270.396,8.81991e-05)">
        <path d="M1085.03,262.82L1066.7,254.83C1049.06,247.08 1042.81,239.55 1042.81,226.02C1042.81,208.39 1055.72,196.54 1074.91,196.54C1086.26,196.54 1095.57,198.86 1106.94,210.45L1107.56,211.08L1117.35,202.13C1123.01,196.87 1121.38,192.13 1119.01,189.09C1109.46,177.83 1094.14,171.65 1075.84,171.65C1040.56,171.65 1014.95,194.67 1014.95,226.38C1014.95,258.09 1034.6,270.6 1055.83,280.04L1074.54,288.39C1093.34,296.82 1102.3,304.01 1102.3,322.09C1102.3,346.77 1080.01,353.35 1066.83,353.35C1055.5,353.35 1042.88,350.92 1027.38,333.36L1026.77,332.67L1016.58,341.62C1011.33,346.24 1011.29,350.19 1016.4,356.76C1030.43,374.8 1051,378.59 1065.79,378.59C1097.77,378.59 1130.15,358.95 1130.15,321.41C1130.15,288.92 1112.11,274.49 1085.02,262.83" style="fill:white;fill-rule:nonzero;"/>
    </g>
    <g transform="matrix(0.476343,0,0,0.476343,-270.396,8.81991e-05)">
        <path d="M904.25,230.86C904.25,198.92 878.37,171.85 846.41,171.85C831.38,171.85 817.69,177.58 807.41,186.98L807.41,176L788.17,176C782.37,176 780.16,179.78 780.16,184.13L780.16,370.53C780.16,375.78 783.36,378.58 788.08,378.58L807.33,378.58L807.33,231.99C807.33,212.73 822.95,197.12 842.21,197.12C861.47,197.12 877.08,212.73 877.08,231.99L877.08,378.61L896.2,378.61C901.5,378.61 904.25,375.66 904.25,370.59L904.25,230.86Z" style="fill:white;fill-rule:nonzero;"/>
    </g>
    <g transform="matrix(0.476343,0,0,0.476343,-270.396,8.81991e-05)">
        <path d="M1014.6,185.79C1015.61,184.54 1016.23,182.98 1016.23,181.26C1016.23,178.05 1014.14,175.35 1011.26,174.38C1005.69,172.52 999.76,171.49 993.6,171.49C978.57,171.49 964.88,177.22 954.6,186.62L954.6,175.64L935.36,175.64C929.56,175.64 927.34,179.42 927.34,183.77L927.34,370.17C927.34,375.42 930.55,378.22 935.27,378.22L954.51,378.22L954.51,231.63C954.51,212.37 970.13,196.76 989.39,196.76C994.44,196.76 999.22,197.85 1003.54,199.78L1014.66,185.83L1014.6,185.79Z" style="fill:white;fill-rule:nonzero;"/>
    </g>
    <g transform="matrix(0.775985,0,0,0.77172,-20.3777,-588.373)">
        <path d="M505.695,1081.72L579.695,1081.72L579.695,988.724L597.695,988.724C599.695,988.724 605.695,988.724 606.695,989.724C609.695,992.724 635.695,1048.72 653.695,1080.72L733.695,1080.72C702.695,1023.72 696.695,1010.72 675.695,974.724C679.695,971.724 682.695,969.724 685.695,967.724C706.695,953.724 718.695,924.724 718.695,894.724C718.695,844.724 685.695,807.724 612.695,807.724L505.695,807.724L505.695,863.724L615.695,863.724C635.695,863.724 649.695,879.724 649.695,898.724C649.695,918.724 632.695,932.724 611.695,932.724C605.695,932.724 601.695,932.724 505.695,931.724L505.695,1081.72Z" style="fill:rgb(222,111,31);fill-rule:nonzero;"/>
    </g>
    <g transform="matrix(1.00526,0,0,1,-48.9488,-638.365)">
        <path d="M698.623,720L627,720L627,673.328L817,673.328L817,720L754.33,720L754.33,779.054L698.623,779.054L698.623,720ZM754.33,825.821L754.33,886.779L698.623,886.779L698.623,825.821L754.33,825.821Z" style="fill:rgb(222,111,31);"/>
    </g>
    <g transform="matrix(1,0,0,1,-44.6488,-531.809)">
        <g transform="matrix(86.5549,0,0,86.5549,926,636)">
            <path d="M0.444,-0.342C0.465,-0.335 0.486,-0.319 0.506,-0.296C0.526,-0.272 0.546,-0.24 0.566,-0.199L0.666,-0L0.56,-0L0.467,-0.187C0.443,-0.236 0.419,-0.268 0.397,-0.284C0.374,-0.3 0.343,-0.308 0.304,-0.308L0.197,-0.308L0.197,-0L0.098,-0L0.098,-0.729L0.321,-0.729C0.404,-0.729 0.466,-0.712 0.507,-0.677C0.548,-0.642 0.569,-0.589 0.569,-0.519C0.569,-0.473 0.558,-0.435 0.537,-0.405C0.516,-0.375 0.485,-0.354 0.444,-0.342ZM0.197,-0.648L0.197,-0.389L0.321,-0.389C0.368,-0.389 0.404,-0.4 0.428,-0.422C0.453,-0.444 0.465,-0.476 0.465,-0.519C0.465,-0.562 0.453,-0.594 0.428,-0.615C0.404,-0.637 0.368,-0.648 0.321,-0.648L0.197,-0.648Z" style="fill-rule:nonzero;"/>
        </g>
        <g transform="matrix(86.5549,0,0,86.5549,985.801,636)">
            <path d="M0.562,-0.296L0.562,-0.252L0.149,-0.252C0.153,-0.19 0.171,-0.143 0.205,-0.111C0.238,-0.078 0.285,-0.062 0.344,-0.062C0.379,-0.062 0.412,-0.066 0.445,-0.075C0.477,-0.083 0.509,-0.096 0.541,-0.113L0.541,-0.028C0.509,-0.014 0.476,-0.004 0.442,0.003C0.408,0.011 0.374,0.014 0.339,0.014C0.252,0.014 0.183,-0.011 0.132,-0.062C0.081,-0.113 0.055,-0.181 0.055,-0.268C0.055,-0.358 0.079,-0.429 0.128,-0.481C0.176,-0.534 0.241,-0.56 0.323,-0.56C0.397,-0.56 0.455,-0.536 0.498,-0.489C0.541,-0.442 0.562,-0.377 0.562,-0.296ZM0.472,-0.322C0.472,-0.371 0.458,-0.411 0.431,-0.44C0.404,-0.469 0.368,-0.484 0.324,-0.484C0.274,-0.484 0.234,-0.47 0.204,-0.441C0.174,-0.413 0.156,-0.373 0.152,-0.322L0.472,-0.322ZM0.386,-0.8L0.483,-0.8L0.324,-0.616L0.249,-0.616L0.386,-0.8Z" style="fill-rule:nonzero;"/>
        </g>
        <g transform="matrix(86.5549,0,0,86.5549,1042.6,636)">
            <path d="M0.443,-0.531L0.443,-0.446C0.417,-0.459 0.391,-0.469 0.364,-0.475C0.336,-0.482 0.308,-0.485 0.279,-0.485C0.234,-0.485 0.201,-0.478 0.178,-0.464C0.156,-0.451 0.145,-0.43 0.145,-0.403C0.145,-0.382 0.153,-0.366 0.169,-0.354C0.185,-0.342 0.217,-0.331 0.265,-0.32L0.296,-0.313C0.36,-0.299 0.405,-0.28 0.432,-0.255C0.459,-0.23 0.472,-0.195 0.472,-0.151C0.472,-0.1 0.452,-0.06 0.412,-0.03C0.372,-0.001 0.316,0.014 0.246,0.014C0.217,0.014 0.186,0.011 0.155,0.006C0.123,-0 0.089,-0.009 0.054,-0.02L0.054,-0.113C0.087,-0.096 0.12,-0.083 0.152,-0.074C0.185,-0.065 0.216,-0.061 0.248,-0.061C0.29,-0.061 0.323,-0.068 0.346,-0.083C0.368,-0.097 0.38,-0.118 0.38,-0.144C0.38,-0.168 0.372,-0.187 0.355,-0.2C0.339,-0.213 0.303,-0.226 0.247,-0.238L0.216,-0.245C0.16,-0.257 0.12,-0.275 0.095,-0.299C0.07,-0.323 0.058,-0.357 0.058,-0.399C0.058,-0.45 0.076,-0.49 0.113,-0.518C0.149,-0.546 0.201,-0.56 0.268,-0.56C0.301,-0.56 0.333,-0.558 0.362,-0.553C0.391,-0.548 0.418,-0.541 0.443,-0.531Z" style="fill-rule:nonzero;"/>
        </g>
        <g transform="matrix(86.5549,0,0,86.5549,1091.24,636)">
            <path d="M0.562,-0.296L0.562,-0.252L0.149,-0.252C0.153,-0.19 0.171,-0.143 0.205,-0.111C0.238,-0.078 0.285,-0.062 0.344,-0.062C0.379,-0.062 0.412,-0.066 0.445,-0.075C0.477,-0.083 0.509,-0.096 0.541,-0.113L0.541,-0.028C0.509,-0.014 0.476,-0.004 0.442,0.003C0.408,0.011 0.374,0.014 0.339,0.014C0.252,0.014 0.183,-0.011 0.132,-0.062C0.081,-0.113 0.055,-0.181 0.055,-0.268C0.055,-0.358 0.079,-0.429 0.128,-0.481C0.176,-0.534 0.241,-0.56 0.323,-0.56C0.397,-0.56 0.455,-0.536 0.498,-0.489C0.541,-0.442 0.562,-0.377 0.562,-0.296ZM0.472,-0.322C0.472,-0.371 0.458,-0.411 0.431,-0.44C0.404,-0.469 0.368,-0.484 0.324,-0.484C0.274,-0.484 0.234,-0.47 0.204,-0.441C0.174,-0.413 0.156,-0.373 0.152,-0.322L0.472,-0.322Z" style="fill-rule:nonzero;"/>
        </g>
        <g transform="matrix(86.5549,0,0,86.5549,1148.05,636)">
            <path d="M0.343,-0.275C0.27,-0.275 0.22,-0.267 0.192,-0.25C0.164,-0.233 0.15,-0.205 0.15,-0.165C0.15,-0.133 0.16,-0.108 0.181,-0.089C0.202,-0.07 0.231,-0.061 0.267,-0.061C0.317,-0.061 0.357,-0.079 0.387,-0.114C0.417,-0.149 0.432,-0.196 0.432,-0.255L0.432,-0.275L0.343,-0.275ZM0.522,-0.312L0.522,-0L0.432,-0L0.432,-0.083C0.412,-0.05 0.386,-0.025 0.355,-0.01C0.325,0.006 0.287,0.014 0.243,0.014C0.187,0.014 0.143,-0.002 0.11,-0.033C0.077,-0.064 0.06,-0.106 0.06,-0.159C0.06,-0.221 0.081,-0.267 0.122,-0.298C0.163,-0.33 0.224,-0.345 0.306,-0.345L0.432,-0.345L0.432,-0.354C0.432,-0.395 0.419,-0.427 0.391,-0.45C0.364,-0.473 0.326,-0.484 0.277,-0.484C0.246,-0.484 0.215,-0.48 0.186,-0.473C0.156,-0.465 0.127,-0.454 0.1,-0.439L0.1,-0.522C0.133,-0.535 0.165,-0.544 0.196,-0.551C0.227,-0.557 0.257,-0.56 0.286,-0.56C0.365,-0.56 0.424,-0.54 0.463,-0.499C0.502,-0.458 0.522,-0.395 0.522,-0.312Z" style="fill-rule:nonzero;"/>
        </g>
        <g transform="matrix(86.5549,0,0,86.5549,1204.63,636)">
            <path d="M0.085,-0.216L0.085,-0.547L0.175,-0.547L0.175,-0.219C0.175,-0.167 0.185,-0.129 0.205,-0.103C0.225,-0.077 0.256,-0.064 0.296,-0.064C0.344,-0.064 0.383,-0.079 0.411,-0.11C0.439,-0.141 0.453,-0.183 0.453,-0.237L0.453,-0.547L0.543,-0.547L0.543,-0L0.453,-0L0.453,-0.084C0.431,-0.051 0.406,-0.026 0.377,-0.01C0.348,0.006 0.315,0.014 0.277,0.014C0.214,0.014 0.166,-0.005 0.134,-0.044C0.101,-0.083 0.085,-0.141 0.085,-0.216Z" style="fill-rule:nonzero;"/>
        </g>
    </g>
    <g transform="matrix(1,0,0,1,-44.6488,-430.151)">
        <g transform="matrix(86.5549,0,0,86.5549,926,636)">
            <path d="M0.183,-0.702L0.183,-0.547L0.368,-0.547L0.368,-0.477L0.183,-0.477L0.183,-0.18C0.183,-0.136 0.189,-0.107 0.201,-0.094C0.214,-0.082 0.238,-0.075 0.276,-0.075L0.368,-0.075L0.368,-0L0.276,-0C0.207,-0 0.159,-0.013 0.132,-0.039C0.106,-0.065 0.093,-0.112 0.093,-0.18L0.093,-0.477L0.027,-0.477L0.027,-0.547L0.093,-0.547L0.093,-0.702L0.183,-0.702Z" style="fill-rule:nonzero;"/>
        </g>
        <g transform="matrix(86.5549,0,0,86.5549,963.486,636)">
            <path d="M0.549,-0.33L0.549,-0L0.459,-0L0.459,-0.327C0.459,-0.379 0.449,-0.418 0.429,-0.443C0.409,-0.469 0.378,-0.482 0.338,-0.482C0.289,-0.482 0.251,-0.466 0.223,-0.436C0.195,-0.405 0.181,-0.362 0.181,-0.309L0.181,-0L0.091,-0L0.091,-0.76L0.181,-0.76L0.181,-0.462C0.203,-0.495 0.228,-0.519 0.257,-0.536C0.286,-0.552 0.32,-0.56 0.358,-0.56C0.421,-0.56 0.468,-0.541 0.5,-0.502C0.533,-0.463 0.549,-0.406 0.549,-0.33Z" style="fill-rule:nonzero;"/>
        </g>
        <g transform="matrix(86.5549,0,0,86.5549,1021.89,636)">
            <path d="M0.562,-0.296L0.562,-0.252L0.149,-0.252C0.153,-0.19 0.171,-0.143 0.205,-0.111C0.238,-0.078 0.285,-0.062 0.344,-0.062C0.379,-0.062 0.412,-0.066 0.445,-0.075C0.477,-0.083 0.509,-0.096 0.541,-0.113L0.541,-0.028C0.509,-0.014 0.476,-0.004 0.442,0.003C0.408,0.011 0.374,0.014 0.339,0.014C0.252,0.014 0.183,-0.011 0.132,-0.062C0.081,-0.113 0.055,-0.181 0.055,-0.268C0.055,-0.358 0.079,-0.429 0.128,-0.481C0.176,-0.534 0.241,-0.56 0.323,-0.56C0.397,-0.56 0.455,-0.536 0.498,-0.489C0.541,-0.442 0.562,-0.377 0.562,-0.296ZM0.472,-0.322C0.472,-0.371 0.458,-0.411 0.431,-0.44C0.404,-0.469 0.368,-0.484 0.324,-0.484C0.274,-0.484 0.234,-0.47 0.204,-0.441C0.174,-0.413 0.156,-0.373 0.152,-0.322L0.472,-0.322ZM0.386,-0.8L0.483,-0.8L0.324,-0.616L0.249,-0.616L0.386,-0.8Z" style="fill-rule:nonzero;"/>
        </g>
        <g transform="matrix(86.5549,0,0,86.5549,1078.69,636)">
            <path d="M0.52,-0.442C0.542,-0.482 0.569,-0.512 0.601,-0.531C0.632,-0.55 0.669,-0.56 0.711,-0.56C0.768,-0.56 0.812,-0.54 0.843,-0.5C0.874,-0.46 0.889,-0.404 0.889,-0.33L0.889,-0L0.799,-0L0.799,-0.327C0.799,-0.38 0.79,-0.418 0.771,-0.444C0.752,-0.469 0.724,-0.482 0.686,-0.482C0.639,-0.482 0.603,-0.466 0.576,-0.436C0.549,-0.405 0.535,-0.362 0.535,-0.309L0.535,-0L0.445,-0L0.445,-0.327C0.445,-0.38 0.436,-0.419 0.417,-0.444C0.398,-0.469 0.37,-0.482 0.331,-0.482C0.285,-0.482 0.249,-0.466 0.222,-0.435C0.195,-0.404 0.181,-0.362 0.181,-0.309L0.181,-0L0.091,-0L0.091,-0.547L0.181,-0.547L0.181,-0.462C0.202,-0.495 0.226,-0.52 0.255,-0.536C0.284,-0.552 0.318,-0.56 0.357,-0.56C0.397,-0.56 0.43,-0.55 0.458,-0.53C0.486,-0.51 0.507,-0.48 0.52,-0.442Z" style="fill-rule:nonzero;"/>
        </g>
        <g transform="matrix(86.5549,0,0,86.5549,1166.56,636)">
            <path d="M0.343,-0.275C0.27,-0.275 0.22,-0.267 0.192,-0.25C0.164,-0.233 0.15,-0.205 0.15,-0.165C0.15,-0.133 0.16,-0.108 0.181,-0.089C0.202,-0.07 0.231,-0.061 0.267,-0.061C0.317,-0.061 0.357,-0.079 0.387,-0.114C0.417,-0.149 0.432,-0.196 0.432,-0.255L0.432,-0.275L0.343,-0.275ZM0.522,-0.312L0.522,-0L0.432,-0L0.432,-0.083C0.412,-0.05 0.386,-0.025 0.355,-0.01C0.325,0.006 0.287,0.014 0.243,0.014C0.187,0.014 0.143,-0.002 0.11,-0.033C0.077,-0.064 0.06,-0.106 0.06,-0.159C0.06,-0.221 0.081,-0.267 0.122,-0.298C0.163,-0.33 0.224,-0.345 0.306,-0.345L0.432,-0.345L0.432,-0.354C0.432,-0.395 0.419,-0.427 0.391,-0.45C0.364,-0.473 0.326,-0.484 0.277,-0.484C0.246,-0.484 0.215,-0.48 0.186,-0.473C0.156,-0.465 0.127,-0.454 0.1,-0.439L0.1,-0.522C0.133,-0.535 0.165,-0.544 0.196,-0.551C0.227,-0.557 0.257,-0.56 0.286,-0.56C0.365,-0.56 0.424,-0.54 0.463,-0.499C0.502,-0.458 0.522,-0.395 0.522,-0.312Z" style="fill-rule:nonzero;"/>
        </g>
        <g transform="matrix(86.5549,0,0,86.5549,1223.15,636)">
            <path d="M0.183,-0.702L0.183,-0.547L0.368,-0.547L0.368,-0.477L0.183,-0.477L0.183,-0.18C0.183,-0.136 0.189,-0.107 0.201,-0.094C0.214,-0.082 0.238,-0.075 0.276,-0.075L0.368,-0.075L0.368,-0L0.276,-0C0.207,-0 0.159,-0.013 0.132,-0.039C0.106,-0.065 0.093,-0.112 0.093,-0.18L0.093,-0.477L0.027,-0.477L0.027,-0.547L0.093,-0.547L0.093,-0.702L0.183,-0.702Z" style="fill-rule:nonzero;"/>
        </g>
        <g transform="matrix(86.5549,0,0,86.5549,1260.63,636)">
            <path d="M0.094,-0.547L0.184,-0.547L0.184,-0L0.094,-0L0.094,-0.547ZM0.094,-0.76L0.184,-0.76L0.184,-0.646L0.094,-0.646L0.094,-0.76Z" style="fill-rule:nonzero;"/>
        </g>
        <g transform="matrix(86.5549,0,0,86.5549,1288.23,636)">
            <path d="M0.148,-0.273C0.148,-0.207 0.162,-0.155 0.189,-0.117C0.216,-0.08 0.253,-0.061 0.301,-0.061C0.348,-0.061 0.386,-0.08 0.413,-0.117C0.44,-0.155 0.454,-0.207 0.454,-0.273C0.454,-0.339 0.44,-0.391 0.413,-0.428C0.386,-0.466 0.348,-0.485 0.301,-0.485C0.253,-0.485 0.216,-0.466 0.189,-0.428C0.162,-0.391 0.148,-0.339 0.148,-0.273ZM0.454,-0.082C0.435,-0.049 0.411,-0.025 0.383,-0.01C0.354,0.006 0.319,0.014 0.279,0.014C0.213,0.014 0.159,-0.012 0.117,-0.065C0.076,-0.118 0.055,-0.187 0.055,-0.273C0.055,-0.359 0.076,-0.428 0.117,-0.481C0.159,-0.534 0.213,-0.56 0.279,-0.56C0.319,-0.56 0.354,-0.552 0.383,-0.536C0.411,-0.521 0.435,-0.496 0.454,-0.464L0.454,-0.547L0.544,-0.547L0.544,0.208L0.454,0.208L0.454,-0.082Z" style="fill-rule:nonzero;"/>
        </g>
        <g transform="matrix(86.5549,0,0,86.5549,1346.72,636)">
            <path d="M0.085,-0.216L0.085,-0.547L0.175,-0.547L0.175,-0.219C0.175,-0.167 0.185,-0.129 0.205,-0.103C0.225,-0.077 0.256,-0.064 0.296,-0.064C0.344,-0.064 0.383,-0.079 0.411,-0.11C0.439,-0.141 0.453,-0.183 0.453,-0.237L0.453,-0.547L0.543,-0.547L0.543,-0L0.453,-0L0.453,-0.084C0.431,-0.051 0.406,-0.026 0.377,-0.01C0.348,0.006 0.315,0.014 0.277,0.014C0.214,0.014 0.166,-0.005 0.134,-0.044C0.101,-0.083 0.085,-0.141 0.085,-0.216Z" style="fill-rule:nonzero;"/>
        </g>
        <g transform="matrix(86.5549,0,0,86.5549,1405.12,636)">
            <path d="M0.562,-0.296L0.562,-0.252L0.149,-0.252C0.153,-0.19 0.171,-0.143 0.205,-0.111C0.238,-0.078 0.285,-0.062 0.344,-0.062C0.379,-0.062 0.412,-0.066 0.445,-0.075C0.477,-0.083 0.509,-0.096 0.541,-0.113L0.541,-0.028C0.509,-0.014 0.476,-0.004 0.442,0.003C0.408,0.011 0.374,0.014 0.339,0.014C0.252,0.014 0.183,-0.011 0.132,-0.062C0.081,-0.113 0.055,-0.181 0.055,-0.268C0.055,-0.358 0.079,-0.429 0.128,-0.481C0.176,-0.534 0.241,-0.56 0.323,-0.56C0.397,-0.56 0.455,-0.536 0.498,-0.489C0.541,-0.442 0.562,-0.377 0.562,-0.296ZM0.472,-0.322C0.472,-0.371 0.458,-0.411 0.431,-0.44C0.404,-0.469 0.368,-0.484 0.324,-0.484C0.274,-0.484 0.234,-0.47 0.204,-0.441C0.174,-0.413 0.156,-0.373 0.152,-0.322L0.472,-0.322Z" style="fill-rule:nonzero;"/>
        </g>
    </g>
    <g transform="matrix(1.09549,0,0,1.09549,-93.4764,-749.353)">
        <g transform="matrix(86.5549,0,0,86.5549,416.682,1018)">
            <path d="M0.005,-0.729L0.677,-0.729L0.677,-0.587L0.435,-0.587L0.435,-0L0.247,-0L0.247,-0.587L0.005,-0.587L0.005,-0.729Z" style="fill:rgb(222,111,31);fill-rule:nonzero;"/>
        </g>
        <g transform="matrix(86.5549,0,0,86.5549,467.604,1018)">
            <path d="M0.63,-0.275L0.63,-0.225L0.221,-0.225C0.225,-0.184 0.24,-0.153 0.266,-0.133C0.291,-0.112 0.326,-0.102 0.372,-0.102C0.409,-0.102 0.447,-0.108 0.485,-0.118C0.524,-0.129 0.563,-0.146 0.604,-0.168L0.604,-0.033C0.563,-0.018 0.521,-0.006 0.48,0.002C0.439,0.01 0.397,0.014 0.356,0.014C0.257,0.014 0.18,-0.011 0.125,-0.061C0.07,-0.112 0.043,-0.182 0.043,-0.273C0.043,-0.362 0.07,-0.432 0.124,-0.483C0.178,-0.535 0.252,-0.56 0.346,-0.56C0.432,-0.56 0.501,-0.534 0.552,-0.482C0.604,-0.431 0.63,-0.361 0.63,-0.275ZM0.45,-0.333C0.45,-0.366 0.441,-0.393 0.421,-0.413C0.402,-0.434 0.376,-0.444 0.345,-0.444C0.311,-0.444 0.284,-0.434 0.263,-0.415C0.242,-0.396 0.228,-0.369 0.223,-0.333L0.45,-0.333Z" style="fill:rgb(222,111,31);fill-rule:nonzero;"/>
        </g>
        <g transform="matrix(86.5549,0,0,86.5549,529.683,1018)">
            <path d="M0.49,-0.398C0.475,-0.405 0.46,-0.41 0.445,-0.414C0.429,-0.417 0.414,-0.419 0.399,-0.419C0.354,-0.419 0.319,-0.405 0.295,-0.376C0.271,-0.347 0.259,-0.306 0.259,-0.252L0.259,-0L0.084,-0L0.084,-0.547L0.259,-0.547L0.259,-0.457C0.281,-0.493 0.307,-0.519 0.336,-0.535C0.365,-0.552 0.4,-0.56 0.441,-0.56C0.447,-0.56 0.453,-0.56 0.46,-0.559C0.467,-0.559 0.477,-0.558 0.49,-0.556L0.49,-0.398Z" style="fill:rgb(222,111,31);fill-rule:nonzero;"/>
        </g>
        <g transform="matrix(86.5549,0,0,86.5549,575.745,1018)">
            <path d="M0.49,-0.398C0.475,-0.405 0.46,-0.41 0.445,-0.414C0.429,-0.417 0.414,-0.419 0.399,-0.419C0.354,-0.419 0.319,-0.405 0.295,-0.376C0.271,-0.347 0.259,-0.306 0.259,-0.252L0.259,-0L0.084,-0L0.084,-0.547L0.259,-0.547L0.259,-0.457C0.281,-0.493 0.307,-0.519 0.336,-0.535C0.365,-0.552 0.4,-0.56 0.441,-0.56C0.447,-0.56 0.453,-0.56 0.46,-0.559C0.467,-0.559 0.477,-0.558 0.49,-0.556L0.49,-0.398Z" style="fill:rgb(222,111,31);fill-rule:nonzero;"/>
        </g>
        <g transform="matrix(86.5549,0,0,86.5549,621.806,1018)">
            <path d="M0.63,-0.275L0.63,-0.225L0.221,-0.225C0.225,-0.184 0.24,-0.153 0.266,-0.133C0.291,-0.112 0.326,-0.102 0.372,-0.102C0.409,-0.102 0.447,-0.108 0.485,-0.118C0.524,-0.129 0.563,-0.146 0.604,-0.168L0.604,-0.033C0.563,-0.018 0.521,-0.006 0.48,0.002C0.439,0.01 0.397,0.014 0.356,0.014C0.257,0.014 0.18,-0.011 0.125,-0.061C0.07,-0.112 0.043,-0.182 0.043,-0.273C0.043,-0.362 0.07,-0.432 0.124,-0.483C0.178,-0.535 0.252,-0.56 0.346,-0.56C0.432,-0.56 0.501,-0.534 0.552,-0.482C0.604,-0.431 0.63,-0.361 0.63,-0.275ZM0.45,-0.333C0.45,-0.366 0.441,-0.393 0.421,-0.413C0.402,-0.434 0.376,-0.444 0.345,-0.444C0.311,-0.444 0.284,-0.434 0.263,-0.415C0.242,-0.396 0.228,-0.369 0.223,-0.333L0.45,-0.333Z" style="fill:rgb(222,111,31);fill-rule:nonzero;"/>
        </g>
        <g transform="matrix(86.5549,0,0,86.5549,717.394,1018)">
            <path d="M0.39,-0.484L0.59,-0.264C0.607,-0.287 0.62,-0.313 0.629,-0.341C0.638,-0.369 0.643,-0.401 0.645,-0.437L0.797,-0.437C0.792,-0.378 0.781,-0.325 0.762,-0.279C0.744,-0.233 0.719,-0.192 0.687,-0.157L0.83,-0L0.623,-0L0.575,-0.053C0.541,-0.03 0.505,-0.014 0.467,-0.002C0.43,0.009 0.389,0.014 0.347,0.014C0.262,0.014 0.192,-0.008 0.139,-0.053C0.087,-0.099 0.06,-0.157 0.06,-0.228C0.06,-0.276 0.072,-0.318 0.095,-0.354C0.118,-0.391 0.156,-0.426 0.209,-0.461C0.195,-0.478 0.185,-0.495 0.179,-0.513C0.172,-0.53 0.169,-0.548 0.169,-0.567C0.169,-0.62 0.19,-0.662 0.231,-0.694C0.272,-0.726 0.327,-0.742 0.396,-0.742C0.426,-0.742 0.456,-0.74 0.489,-0.735C0.521,-0.73 0.554,-0.723 0.589,-0.714L0.589,-0.578C0.558,-0.594 0.529,-0.605 0.502,-0.613C0.475,-0.62 0.448,-0.624 0.422,-0.624C0.397,-0.624 0.377,-0.619 0.364,-0.61C0.35,-0.6 0.343,-0.586 0.343,-0.569C0.343,-0.558 0.347,-0.545 0.355,-0.531C0.363,-0.517 0.375,-0.501 0.39,-0.484ZM0.293,-0.363C0.272,-0.347 0.256,-0.33 0.245,-0.311C0.234,-0.291 0.229,-0.27 0.229,-0.247C0.229,-0.21 0.243,-0.178 0.271,-0.151C0.298,-0.125 0.331,-0.112 0.37,-0.112C0.392,-0.112 0.412,-0.115 0.431,-0.122C0.45,-0.128 0.468,-0.139 0.484,-0.152L0.293,-0.363Z" style="fill:rgb(222,111,31);fill-rule:nonzero;"/>
        </g>
        <g transform="matrix(86.5549,0,0,86.5549,829.761,1018)">
            <path d="M0.092,-0.729L0.599,-0.729L0.599,-0.587L0.28,-0.587L0.28,-0.451L0.58,-0.451L0.58,-0.309L0.28,-0.309L0.28,-0.142L0.61,-0.142L0.61,-0L0.092,-0L0.092,-0.729ZM0.363,-0.927L0.501,-0.927L0.362,-0.798L0.266,-0.798L0.363,-0.927Z" style="fill:rgb(222,111,31);fill-rule:nonzero;"/>
        </g>
        <g transform="matrix(86.5549,0,0,86.5549,892.263,1018)">
            <path d="M0.634,-0.333L0.634,-0L0.458,-0L0.458,-0.255C0.458,-0.302 0.457,-0.335 0.455,-0.353C0.453,-0.37 0.449,-0.384 0.444,-0.392C0.437,-0.403 0.428,-0.412 0.416,-0.419C0.404,-0.425 0.391,-0.428 0.376,-0.428C0.34,-0.428 0.311,-0.414 0.29,-0.386C0.269,-0.358 0.259,-0.319 0.259,-0.269L0.259,-0L0.084,-0L0.084,-0.547L0.259,-0.547L0.259,-0.467C0.285,-0.499 0.313,-0.522 0.343,-0.537C0.372,-0.552 0.405,-0.56 0.441,-0.56C0.504,-0.56 0.552,-0.541 0.585,-0.502C0.617,-0.463 0.634,-0.407 0.634,-0.333Z" style="fill:rgb(222,111,31);fill-rule:nonzero;"/>
        </g>
        <g transform="matrix(86.5549,0,0,86.5549,957.258,1018)">
            <path d="M0.63,-0.275L0.63,-0.225L0.221,-0.225C0.225,-0.184 0.24,-0.153 0.266,-0.133C0.291,-0.112 0.326,-0.102 0.372,-0.102C0.409,-0.102 0.447,-0.108 0.485,-0.118C0.524,-0.129 0.563,-0.146 0.604,-0.168L0.604,-0.033C0.563,-0.018 0.521,-0.006 0.48,0.002C0.439,0.01 0.397,0.014 0.356,0.014C0.257,0.014 0.18,-0.011 0.125,-0.061C0.07,-0.112 0.043,-0.182 0.043,-0.273C0.043,-0.362 0.07,-0.432 0.124,-0.483C0.178,-0.535 0.252,-0.56 0.346,-0.56C0.432,-0.56 0.501,-0.534 0.552,-0.482C0.604,-0.431 0.63,-0.361 0.63,-0.275ZM0.45,-0.333C0.45,-0.366 0.441,-0.393 0.421,-0.413C0.402,-0.434 0.376,-0.444 0.345,-0.444C0.311,-0.444 0.284,-0.434 0.263,-0.415C0.242,-0.396 0.228,-0.369 0.223,-0.333L0.45,-0.333Z" style="fill:rgb(222,111,31);fill-rule:nonzero;"/>
        </g>
        <g transform="matrix(86.5549,0,0,86.5549,1019.34,1018)">
            <path d="M0.49,-0.398C0.475,-0.405 0.46,-0.41 0.445,-0.414C0.429,-0.417 0.414,-0.419 0.399,-0.419C0.354,-0.419 0.319,-0.405 0.295,-0.376C0.271,-0.347 0.259,-0.306 0.259,-0.252L0.259,-0L0.084,-0L0.084,-0.547L0.259,-0.547L0.259,-0.457C0.281,-0.493 0.307,-0.519 0.336,-0.535C0.365,-0.552 0.4,-0.56 0.441,-0.56C0.447,-0.56 0.453,-0.56 0.46,-0.559C0.467,-0.559 0.477,-0.558 0.49,-0.556L0.49,-0.398Z" style="fill:rgb(222,111,31);fill-rule:nonzero;"/>
        </g>
        <g transform="matrix(86.5549,0,0,86.5549,1065.4,1018)">
            <path d="M0.456,-0.093C0.432,-0.061 0.405,-0.037 0.376,-0.022C0.347,-0.007 0.314,-0 0.276,-0C0.209,-0 0.154,-0.026 0.11,-0.079C0.067,-0.131 0.045,-0.198 0.045,-0.28C0.045,-0.361 0.067,-0.428 0.11,-0.481C0.154,-0.533 0.209,-0.559 0.276,-0.559C0.314,-0.559 0.347,-0.552 0.376,-0.537C0.405,-0.522 0.432,-0.498 0.456,-0.466L0.456,-0.547L0.632,-0.547L0.632,-0.055C0.632,0.033 0.604,0.1 0.549,0.146C0.493,0.193 0.413,0.216 0.307,0.216C0.273,0.216 0.24,0.213 0.208,0.208C0.176,0.203 0.144,0.195 0.112,0.184L0.112,0.048C0.142,0.065 0.172,0.079 0.202,0.087C0.231,0.096 0.26,0.1 0.29,0.1C0.347,0.1 0.389,0.088 0.416,0.063C0.443,0.037 0.456,-0.002 0.456,-0.055L0.456,-0.093ZM0.341,-0.433C0.305,-0.433 0.277,-0.42 0.256,-0.393C0.236,-0.366 0.226,-0.329 0.226,-0.28C0.226,-0.23 0.236,-0.192 0.255,-0.166C0.275,-0.14 0.303,-0.127 0.341,-0.127C0.377,-0.127 0.406,-0.14 0.426,-0.167C0.446,-0.194 0.456,-0.231 0.456,-0.28C0.456,-0.329 0.446,-0.366 0.426,-0.393C0.406,-0.42 0.377,-0.433 0.341,-0.433Z" style="fill:rgb(222,111,31);fill-rule:nonzero;"/>
        </g>
        <g transform="matrix(86.5549,0,0,86.5549,1130.73,1018)">
            <path d="M0.084,-0.547L0.259,-0.547L0.259,-0L0.084,-0L0.084,-0.547ZM0.084,-0.76L0.259,-0.76L0.259,-0.617L0.084,-0.617L0.084,-0.76Z" style="fill:rgb(222,111,31);fill-rule:nonzero;"/>
        </g>
        <g transform="matrix(86.5549,0,0,86.5549,1163.78,1018)">
            <path d="M0.63,-0.275L0.63,-0.225L0.221,-0.225C0.225,-0.184 0.24,-0.153 0.266,-0.133C0.291,-0.112 0.326,-0.102 0.372,-0.102C0.409,-0.102 0.447,-0.108 0.485,-0.118C0.524,-0.129 0.563,-0.146 0.604,-0.168L0.604,-0.033C0.563,-0.018 0.521,-0.006 0.48,0.002C0.439,0.01 0.397,0.014 0.356,0.014C0.257,0.014 0.18,-0.011 0.125,-0.061C0.07,-0.112 0.043,-0.182 0.043,-0.273C0.043,-0.362 0.07,-0.432 0.124,-0.483C0.178,-0.535 0.252,-0.56 0.346,-0.56C0.432,-0.56 0.501,-0.534 0.552,-0.482C0.604,-0.431 0.63,-0.361 0.63,-0.275ZM0.45,-0.333C0.45,-0.366 0.441,-0.393 0.421,-0.413C0.402,-0.434 0.376,-0.444 0.345,-0.444C0.311,-0.444 0.284,-0.434 0.263,-0.415C0.242,-0.396 0.228,-0.369 0.223,-0.333L0.45,-0.333Z" style="fill:rgb(222,111,31);fill-rule:nonzero;"/>
        </g>
        <g transform="matrix(86.5549,0,0,86.5549,1225.86,1018)">
            <path d="M0.511,-0.53L0.511,-0.397C0.474,-0.413 0.438,-0.424 0.403,-0.432C0.368,-0.44 0.335,-0.444 0.304,-0.444C0.271,-0.444 0.246,-0.44 0.23,-0.431C0.214,-0.423 0.206,-0.41 0.206,-0.393C0.206,-0.379 0.212,-0.368 0.224,-0.361C0.237,-0.353 0.258,-0.348 0.29,-0.344L0.321,-0.34C0.41,-0.328 0.471,-0.31 0.501,-0.284C0.532,-0.258 0.548,-0.217 0.548,-0.161C0.548,-0.103 0.526,-0.059 0.483,-0.03C0.44,-0 0.376,0.014 0.291,0.014C0.255,0.014 0.218,0.011 0.179,0.006C0.14,-0 0.101,-0.009 0.06,-0.02L0.06,-0.153C0.095,-0.136 0.131,-0.123 0.167,-0.115C0.204,-0.106 0.241,-0.102 0.279,-0.102C0.313,-0.102 0.339,-0.107 0.356,-0.116C0.373,-0.126 0.382,-0.14 0.382,-0.158C0.382,-0.174 0.376,-0.185 0.364,-0.193C0.352,-0.201 0.328,-0.207 0.293,-0.211L0.262,-0.215C0.184,-0.225 0.13,-0.243 0.099,-0.269C0.067,-0.295 0.052,-0.335 0.052,-0.389C0.052,-0.447 0.072,-0.49 0.111,-0.518C0.151,-0.546 0.212,-0.56 0.294,-0.56C0.326,-0.56 0.36,-0.558 0.396,-0.553C0.431,-0.548 0.47,-0.54 0.511,-0.53Z" style="fill:rgb(222,111,31);fill-rule:nonzero;"/>
        </g>
    </g>
    <g transform="matrix(0.254569,0,0,0.247127,1500.97,47.4976)">
        <path d="M346,1340C516,1334 593,1232 618,1232C645,1232 719,1336 891,1340C1149,1346 1265,1130 1265,952C1265,830 1232,758 1185,666C1232,574 1265,502 1265,380C1265,202 1149,-14 891,-8C719,-4 645,100 618,100C593,100 516,-2 346,-8C92,-17 -29,222 -29,380C-29,496 -4,574 54,666C-4,758 -29,836 -29,952C-29,1110 92,1349 346,1340ZM342,1295C129,1295 28,1111 15,952C6,844 67,758 92,666C67,574 6,488 15,380C28,221 129,37 342,37C488,37 569,141 618,151C674,141 761,37 894,37C1107,37 1221,221 1221,380C1221,505 1183,574 1145,666C1183,758 1221,827 1221,952C1221,1111 1107,1295 894,1295C761,1295 674,1191 618,1181C569,1191 488,1295 342,1295Z" style="fill-rule:nonzero;"/>
    </g>
    <g transform="matrix(0.302979,0,0,0.287219,1488.39,-155.358)">
        <path d="M338,1108C291,1106 238,1086 178,1056C184,1026 204,992 235,974C256,962 244.694,951.037 268.694,954.037L260.197,907.963C282.197,885.963 312,873 334,870C365,865 423,864 434,865C444,866 421,876 414,883C407,890 398,902 391,913C371,943 354.798,961 356.798,978C359.798,1002 387,1018 414,1037L500,1063C419,1087 392,1110 338,1108Z" style="fill:rgb(124,182,169);fill-rule:nonzero;"/>
    </g>
    <g transform="matrix(0.2551,0,0,0.253632,1499.65,-149.75)">
        <path d="M326,1258C366,1261 567,1203 577,1175C583,1158 585,1098 585,1068C585,998 554,930 536,885L508,905C489,905 418,859 387,830C368,852 346,874 322,879C291,885 269,859 244,845L201,912L171,895C139,948 123,987 119,1033C116,1064 118,1105 133,1146L138,1190C146,1206 296,1256 326,1258ZM161,1131C156,1090 146,1068 150,1033C154,999 169,968 184,943C217,965 243,1009 256,1047C240,1051 223,1057 207,1069C190,1082 174,1113 161,1131ZM338,1225C338,1225 238,1203 178,1173C184,1143 204,1109 235,1091C256,1079 281,1075 305,1078L280,1018C302,996 312,990 334,987C365,982 423,981 434,982C444,983 421,993 414,1000C407,1007 398,1019 391,1030C371,1060 368,1078 370,1095C373,1119 387,1135 414,1154L500,1180C419,1204 338,1225 338,1225ZM269,991L224,936L254,891C274,897 304,917 326,912C343,908 369,885 391,872L488,933L465,954C424,951 386,951 359,953C320,956 295,964 269,991ZM549,1148C526,1152 499,1150 485,1146C481,1145 450,1133 431,1129L398,1087C405,1071 419,1041 426,1031C431,1024 433,1025 450,1013C482,990 499,966 522,939C538,977 549,998 553,1054C555,1080 556,1111 549,1148Z" style="fill:rgb(84,161,142);fill-rule:nonzero;"/>
    </g>
    <g transform="matrix(0.305027,0,0,0.301617,1453.1,-166.07)">
        <path d="M927,1104C856,1104 804,1066 739,1010L816,873L852,906L873,869C905,879 934,898 954,925C969,907 987,883 1008,872C1025,863 1025.61,867.315 1042.61,871.315L1117.61,1050.63C1049.61,1083.63 989,1104 927,1104Z" style="fill:rgb(174,155,98);fill-rule:nonzero;"/>
    </g>
    <g transform="matrix(0.25575,0,0,0.259057,1497.42,-153.168)">
        <path d="M917,1244C1025,1252 1123,1208 1179,1179L1086,966L927,831L843,969L807,936L699,1131C729,1170 800,1235 917,1244ZM927,1220C856,1220 804,1182 739,1126L816,989L852,1022L873,985C905,995 934,1014 954,1041C969,1023 987,999 1008,988C1025,979 1042,980 1059,984L1134,1160C1066,1193 989,1220 927,1220ZM952,994C932,977 915,962 891,954C906,929 922,906 935,878L1024,953C992,953 973,972 952,994Z" style="fill:rgb(141,113,28);fill-rule:nonzero;"/>
    </g>
    <g transform="matrix(0.286501,0,0,0.25891,1480.09,47.3013)">
        <path d="M622.01,809.862C559.01,809.862 503,764 444,723C451,714 535.019,566.138 561.019,539.138C581.019,519.138 629.577,481.275 692.577,481.275C756.577,481.275 789.548,538.587 789.548,564.587C757.548,556.587 758.019,555.587 723.019,555.587C666.019,555.587 620,589 620,634C620,703 742.49,735.138 792.49,747.138C750.49,774.138 675.01,809.862 622.01,809.862Z" style="fill:rgb(101,84,249);fill-rule:nonzero;"/>
    </g>
    <path d="M1654.55,261.975C1670.66,261.975 1709.03,246.097 1723.1,236.52C1684.73,233.495 1663.5,221.145 1663.5,210.812C1663.5,202.999 1674.76,195.438 1688.31,195.438C1696.75,195.438 1702.38,198.21 1709.29,199.722L1710.31,190.649C1710.31,179.055 1700.33,167.714 1679.87,166.957C1660.43,166.201 1641.76,175.779 1634.08,185.104C1627.43,193.169 1606.71,226.942 1600.32,234.755C1605.69,240.3 1635.36,261.975 1654.55,261.975Z" style="fill:rgb(2,2,245);fill-rule:nonzero;"/>
    <path d="M1656.34,254.414C1640.22,254.414 1625.9,243.829 1610.81,233.495C1612.6,231.227 1635.87,194.934 1642.53,188.129C1647.64,183.088 1663.24,174.519 1679.36,174.519C1695.73,174.519 1703.66,184.096 1703.66,190.649C1695.47,188.633 1692.92,188.381 1683.96,188.381C1669.38,188.381 1655.83,199.722 1655.83,211.064C1655.83,228.454 1686.27,237.528 1699.06,240.552C1688.31,247.357 1669.89,254.414 1656.34,254.414Z" style="fill:rgb(101,84,249);fill-rule:nonzero;"/>
    <path d="M1621.04,240.3L1628.46,227.698C1637.92,211.568 1642.78,204.007 1646.36,199.974C1652.5,192.917 1666.57,183.088 1682.68,183.088C1694.96,183.088 1700.08,187.877 1702.38,189.389L1703.15,188.633C1699.31,184.6 1694.45,180.82 1681.15,180.82C1661.45,180.82 1649.43,188.633 1638.43,202.999C1635.63,206.649 1633.05,210.535 1630.64,214.445C1625.56,222.684 1621.27,231.033 1617.46,237.528L1621.04,240.3Z" style="fill:rgb(207,207,255);fill-rule:nonzero;"/>
    <g transform="matrix(0.254278,0,0,0.254278,1498.16,209.16)">
        <path d="M954,594C966,594 976,585 976,572L978,362L1067,481C1068,484 1079,488 1084,487L1117,480C1122,479 1127,472 1127,465C1127,458 1125,456 1118,450C1111,444 1025,351 979,301L1048,122C1050,118 1050,107 1047,102C1044,97 1024,74 1016,74C1008,74 1000,81 999,88C998,95 959,223 941,289L750,317C733,320 726,346 727,361C728,376 747,376 753,375L934,329L935,569C935,585 946,594 954,594Z" style="fill:rgb(110,151,41);fill-rule:nonzero;"/>
    </g>
    <g transform="matrix(0.255611,0,0,0.253519,1498.71,209.791)">
        <path d="M187,549C190,543 333,404 337,396C341,388 332,379 328,374C324,369 317,371 313,374L403,252C406,248 403,246 399,243C396,240 389,235 386,233L427,172C434,162 431,155 425,153C417,150 375,128 368,125C365,123 355,123 350,131L251,285C243,297 247,304 258,304L275,304L212,401C204,413 208,421 217,425L231,432L173,527C170,533 169,539 175,542L187,549ZM268,392L257,391L314,297C321,285 320,281 311,280L290,277L366,155L398,172L340,250C337,254 338,259 343,261L353,265L268,392Z" style="fill:rgb(233,198,55);fill-rule:nonzero;"/>
    </g>
</svg>
