<svg xmlns="http://www.w3.org/2000/svg" xmlns:xlink="http://www.w3.org/1999/xlink" width="500" viewBox="0 0 375 374.999991" height="500" preserveAspectRatio="xMidYMid meet"><defs><g></g><clipPath id="e289ce7a38"><path d="M 53.695312 18.714844 L 261 18.714844 L 261 225 L 53.695312 225 Z M 53.695312 18.714844 " clip-rule="nonzero"></path></clipPath><clipPath id="3668e20f22"><path d="M 103 130 L 309.445312 130 L 309.445312 274.464844 L 103 274.464844 Z M 103 130 " clip-rule="nonzero"></path></clipPath></defs><g fill="#ffffff" fill-opacity="1"><g transform="translate(37.812204, 329.527702)"><g><path d="M 17.28125 0.402344 C 23.238281 0.402344 28.398438 -2.953125 30.953125 -7.863281 L 25.242188 -10.820312 C 23.789062 -7.964844 20.835938 -6.058594 17.28125 -6.058594 C 12.222656 -6.058594 8.363281 -9.96875 8.363281 -15.027344 C 8.363281 -20.085938 12.222656 -23.992188 17.28125 -23.992188 C 20.835938 -23.992188 23.789062 -22.085938 25.242188 -19.234375 L 30.953125 -22.1875 C 28.398438 -27.097656 23.238281 -30.453125 17.28125 -30.453125 C 8.765625 -30.453125 1.851562 -23.539062 1.851562 -15.027344 C 1.851562 -6.511719 8.765625 0.402344 17.28125 0.402344 Z M 17.28125 0.402344 "></path></g></g></g><g fill="#ffffff" fill-opacity="1"><g transform="translate(75.109558, 329.527702)"><g><path d="M 17.28125 0.402344 C 25.84375 0.402344 32.707031 -6.511719 32.707031 -15.027344 C 32.707031 -23.539062 25.84375 -30.453125 17.28125 -30.453125 C 8.765625 -30.453125 1.851562 -23.539062 1.851562 -15.027344 C 1.851562 -6.511719 8.765625 0.402344 17.28125 0.402344 Z M 17.28125 -6.058594 C 12.222656 -6.058594 8.363281 -9.96875 8.363281 -15.027344 C 8.363281 -20.085938 12.222656 -23.992188 17.28125 -23.992188 C 22.386719 -23.992188 26.246094 -20.085938 26.246094 -15.027344 C 26.246094 -9.96875 22.386719 -6.058594 17.28125 -6.058594 Z M 17.28125 -6.058594 "></path></g></g></g><g fill="#ffffff" fill-opacity="1"><g transform="translate(114.760385, 329.527702)"><g><path d="M 2.953125 0 L 12.871094 0 C 21.136719 0 27.898438 -6.710938 27.898438 -15.027344 C 27.898438 -23.339844 21.136719 -30.050781 12.871094 -30.050781 L 2.953125 -30.050781 Z M 9.566406 -5.859375 L 9.566406 -24.191406 L 12.820312 -24.191406 C 17.578125 -24.191406 21.285156 -20.234375 21.285156 -15.027344 C 21.285156 -9.816406 17.578125 -5.859375 12.820312 -5.859375 Z M 9.566406 -5.859375 "></path></g></g></g><g fill="#ffffff" fill-opacity="1"><g transform="translate(149.554034, 329.527702)"><g><path d="M 21.285156 -24.242188 L 21.285156 -30.050781 L 3.207031 -30.050781 L 3.207031 0 L 21.285156 0 L 21.285156 -5.808594 L 9.816406 -5.808594 L 9.816406 -12.121094 L 19.632812 -12.121094 L 19.632812 -17.929688 L 9.816406 -17.929688 L 9.816406 -24.242188 Z M 21.285156 -24.242188 "></path></g></g></g><g fill="#ffffff" fill-opacity="1"><g transform="translate(51.428485, 352.785887)"><g><path d="M 7.886719 -9.390625 L 7.886719 -1.675781 L 2.082031 -9.390625 L 1.140625 -9.390625 L 1.140625 0 L 2.144531 0 L 2.144531 -7.714844 L 7.933594 0 L 8.875 0 L 8.875 -9.390625 Z M 7.886719 -9.390625 "></path></g></g></g><g fill="#ffffff" fill-opacity="1"><g transform="translate(64.326786, 352.785887)"><g><path d="M 6.355469 -8.417969 L 6.355469 -9.390625 L 1.21875 -9.390625 L 1.21875 0 L 6.355469 0 L 6.355469 -0.96875 L 2.222656 -0.96875 L 2.222656 -4.210938 L 5.820312 -4.210938 L 5.820312 -5.179688 L 2.222656 -5.179688 L 2.222656 -8.417969 Z M 6.355469 -8.417969 "></path></g></g></g><g fill="#ffffff" fill-opacity="1"><g transform="translate(74.504923, 352.785887)"><g><path d="M 7.511719 0 L 4.304688 -4.757812 L 7.433594 -9.390625 L 6.226562 -9.390625 L 3.753906 -5.585938 L 1.300781 -9.390625 L 0.09375 -9.390625 L 3.207031 -4.757812 L 0.015625 0 L 1.234375 0 L 3.753906 -3.929688 L 6.292969 0 Z M 7.511719 0 "></path></g></g></g><g fill="#ffffff" fill-opacity="1"><g transform="translate(84.917548, 352.785887)"><g><path d="M 6.339844 -9.390625 L 0.140625 -9.390625 L 0.140625 -8.386719 L 2.738281 -8.386719 L 2.738281 0 L 3.738281 0 L 3.738281 -8.386719 L 6.339844 -8.386719 Z M 6.339844 -9.390625 "></path></g></g></g><g fill="#ffffff" fill-opacity="1"><g transform="translate(94.28276, 352.785887)"><g></g></g></g><g fill="#ffffff" fill-opacity="1"><g transform="translate(100.943443, 352.785887)"><g><path d="M 5.617188 -4.976562 L 5.617188 -4.039062 L 9.390625 -4.039062 C 9.09375 -2.222656 7.527344 -0.875 5.632812 -0.875 C 3.519531 -0.875 1.816406 -2.566406 1.816406 -4.695312 C 1.816406 -6.824219 3.519531 -8.511719 5.632812 -8.511719 C 7.058594 -8.511719 8.308594 -7.746094 8.953125 -6.589844 L 9.8125 -7.074219 C 9 -8.527344 7.433594 -9.515625 5.632812 -9.515625 C 2.957031 -9.515625 0.8125 -7.355469 0.8125 -4.695312 C 0.8125 -2.035156 2.957031 0.125 5.632812 0.125 C 8.292969 0.125 10.453125 -2.035156 10.453125 -4.695312 L 10.453125 -4.976562 Z M 5.617188 -4.976562 "></path></g></g></g><g fill="#ffffff" fill-opacity="1"><g transform="translate(115.076758, 352.785887)"><g><path d="M 6.355469 -8.417969 L 6.355469 -9.390625 L 1.21875 -9.390625 L 1.21875 0 L 6.355469 0 L 6.355469 -0.96875 L 2.222656 -0.96875 L 2.222656 -4.210938 L 5.820312 -4.210938 L 5.820312 -5.179688 L 2.222656 -5.179688 L 2.222656 -8.417969 Z M 6.355469 -8.417969 "></path></g></g></g><g fill="#ffffff" fill-opacity="1"><g transform="translate(125.254897, 352.785887)"><g><path d="M 7.886719 -9.390625 L 7.886719 -1.675781 L 2.082031 -9.390625 L 1.140625 -9.390625 L 1.140625 0 L 2.144531 0 L 2.144531 -7.714844 L 7.933594 0 L 8.875 0 L 8.875 -9.390625 Z M 7.886719 -9.390625 "></path></g></g></g><g fill="#ffffff" fill-opacity="1"><g transform="translate(138.1532, 352.785887)"><g><path d="M 6.355469 -8.417969 L 6.355469 -9.390625 L 1.21875 -9.390625 L 1.21875 0 L 6.355469 0 L 6.355469 -0.96875 L 2.222656 -0.96875 L 2.222656 -4.210938 L 5.820312 -4.210938 L 5.820312 -5.179688 L 2.222656 -5.179688 L 2.222656 -8.417969 Z M 6.355469 -8.417969 "></path></g></g></g><g fill="#ffffff" fill-opacity="1"><g transform="translate(148.331338, 352.785887)"><g><path d="M 4.945312 -4.289062 C 6.179688 -4.460938 7.121094 -5.492188 7.121094 -6.761719 C 7.121094 -8.230469 5.945312 -9.390625 4.507812 -9.390625 L 1.140625 -9.390625 L 1.140625 0 L 2.144531 0 L 2.144531 -4.242188 L 3.914062 -4.242188 L 6.574219 0 L 7.714844 0 Z M 2.144531 -5.195312 L 2.144531 -8.386719 L 4.445312 -8.386719 C 5.382812 -8.386719 6.117188 -7.730469 6.117188 -6.792969 C 6.117188 -5.835938 5.398438 -5.195312 4.445312 -5.195312 Z M 2.144531 -5.195312 "></path></g></g></g><g fill="#ffffff" fill-opacity="1"><g transform="translate(159.072262, 352.785887)"><g><path d="M 6.808594 0 L 7.902344 0 L 4.507812 -9.390625 L 3.394531 -9.390625 L 0 0 L 1.09375 0 L 1.863281 -2.191406 L 6.039062 -2.191406 Z M 2.191406 -3.144531 L 3.960938 -8.199219 L 5.710938 -3.144531 Z M 2.191406 -3.144531 "></path></g></g></g><g fill="#ffffff" fill-opacity="1"><g transform="translate(169.860095, 352.785887)"><g><path d="M 6.339844 -9.390625 L 0.140625 -9.390625 L 0.140625 -8.386719 L 2.738281 -8.386719 L 2.738281 0 L 3.738281 0 L 3.738281 -8.386719 L 6.339844 -8.386719 Z M 6.339844 -9.390625 "></path></g></g></g><g fill="#ffffff" fill-opacity="1"><g transform="translate(179.225299, 352.785887)"><g><path d="M 1.21875 0 L 2.222656 0 L 2.222656 -9.390625 L 1.21875 -9.390625 Z M 1.21875 0 "></path></g></g></g><g fill="#ffffff" fill-opacity="1"><g transform="translate(185.542044, 352.785887)"><g><path d="M 5.585938 0.125 C 8.261719 0.125 10.40625 -2.035156 10.40625 -4.695312 C 10.40625 -7.355469 8.261719 -9.515625 5.585938 -9.515625 C 2.925781 -9.515625 0.765625 -7.355469 0.765625 -4.695312 C 0.765625 -2.035156 2.925781 0.125 5.585938 0.125 Z M 5.585938 -0.875 C 3.472656 -0.875 1.769531 -2.566406 1.769531 -4.695312 C 1.769531 -6.824219 3.472656 -8.511719 5.585938 -8.511719 C 7.714844 -8.511719 9.40625 -6.824219 9.40625 -4.695312 C 9.40625 -2.566406 7.714844 -0.875 5.585938 -0.875 Z M 5.585938 -0.875 "></path></g></g></g><g fill="#ffffff" fill-opacity="1"><g transform="translate(199.61282, 352.785887)"><g><path d="M 7.886719 -9.390625 L 7.886719 -1.675781 L 2.082031 -9.390625 L 1.140625 -9.390625 L 1.140625 0 L 2.144531 0 L 2.144531 -7.714844 L 7.933594 0 L 8.875 0 L 8.875 -9.390625 Z M 7.886719 -9.390625 "></path></g></g></g><g fill="#ffffff" fill-opacity="1"><g transform="translate(212.511116, 352.785887)"><g></g></g></g><g fill="#ffffff" fill-opacity="1"><g transform="translate(219.171793, 352.785887)"><g><path d="M 1.140625 0 L 3.707031 0 C 6.292969 0 8.402344 -2.097656 8.402344 -4.695312 C 8.402344 -7.292969 6.292969 -9.390625 3.707031 -9.390625 L 1.140625 -9.390625 Z M 2.128906 -1 L 2.128906 -8.386719 L 3.691406 -8.386719 C 5.773438 -8.386719 7.402344 -6.808594 7.402344 -4.695312 C 7.402344 -2.582031 5.773438 -1 3.691406 -1 Z M 2.128906 -1 "></path></g></g></g><g fill="#ffffff" fill-opacity="1"><g transform="translate(231.225903, 352.785887)"><g><path d="M 6.355469 -8.417969 L 6.355469 -9.390625 L 1.21875 -9.390625 L 1.21875 0 L 6.355469 0 L 6.355469 -0.96875 L 2.222656 -0.96875 L 2.222656 -4.210938 L 5.820312 -4.210938 L 5.820312 -5.179688 L 2.222656 -5.179688 L 2.222656 -8.417969 Z M 6.355469 -8.417969 "></path></g></g></g><g fill="#ffffff" fill-opacity="1"><g transform="translate(241.404035, 352.785887)"><g><path d="M 6.808594 -9.390625 L 3.960938 -1.285156 L 1.109375 -9.390625 L 0 -9.390625 L 3.394531 0 L 4.507812 0 L 7.902344 -9.390625 Z M 6.808594 -9.390625 "></path></g></g></g><g fill="#ffffff" fill-opacity="1"><g transform="translate(252.19186, 352.785887)"><g></g></g></g><g fill="#ffffff" fill-opacity="1"><g transform="translate(258.852537, 352.785887)"><g><path d="M 6.339844 -9.390625 L 0.140625 -9.390625 L 0.140625 -8.386719 L 2.738281 -8.386719 L 2.738281 0 L 3.738281 0 L 3.738281 -8.386719 L 6.339844 -8.386719 Z M 6.339844 -9.390625 "></path></g></g></g><g fill="#ffffff" fill-opacity="1"><g transform="translate(268.217742, 352.785887)"><g><path d="M 5.585938 0.125 C 8.261719 0.125 10.40625 -2.035156 10.40625 -4.695312 C 10.40625 -7.355469 8.261719 -9.515625 5.585938 -9.515625 C 2.925781 -9.515625 0.765625 -7.355469 0.765625 -4.695312 C 0.765625 -2.035156 2.925781 0.125 5.585938 0.125 Z M 5.585938 -0.875 C 3.472656 -0.875 1.769531 -2.566406 1.769531 -4.695312 C 1.769531 -6.824219 3.472656 -8.511719 5.585938 -8.511719 C 7.714844 -8.511719 9.40625 -6.824219 9.40625 -4.695312 C 9.40625 -2.566406 7.714844 -0.875 5.585938 -0.875 Z M 5.585938 -0.875 "></path></g></g></g><g fill="#ffffff" fill-opacity="1"><g transform="translate(282.288517, 352.785887)"><g><path d="M 5.585938 0.125 C 8.261719 0.125 10.40625 -2.035156 10.40625 -4.695312 C 10.40625 -7.355469 8.261719 -9.515625 5.585938 -9.515625 C 2.925781 -9.515625 0.765625 -7.355469 0.765625 -4.695312 C 0.765625 -2.035156 2.925781 0.125 5.585938 0.125 Z M 5.585938 -0.875 C 3.472656 -0.875 1.769531 -2.566406 1.769531 -4.695312 C 1.769531 -6.824219 3.472656 -8.511719 5.585938 -8.511719 C 7.714844 -8.511719 9.40625 -6.824219 9.40625 -4.695312 C 9.40625 -2.566406 7.714844 -0.875 5.585938 -0.875 Z M 5.585938 -0.875 "></path></g></g></g><g fill="#ffffff" fill-opacity="1"><g transform="translate(296.359293, 352.785887)"><g><path d="M 2.144531 -1 L 2.144531 -9.390625 L 1.140625 -9.390625 L 1.140625 0 L 5.632812 0 L 5.632812 -1 Z M 2.144531 -1 "></path></g></g></g><g fill="#ffffff" fill-opacity="1"><g transform="translate(305.021013, 352.785887)"><g><path d="M 3.503906 0.125 C 5.101562 0.125 6.402344 -0.828125 6.402344 -2.472656 C 6.402344 -5.664062 1.832031 -4.882812 1.832031 -7.121094 C 1.832031 -8.058594 2.597656 -8.511719 3.472656 -8.511719 C 4.195312 -8.511719 4.789062 -8.214844 5.164062 -7.683594 L 5.945312 -8.339844 C 5.429688 -9 4.523438 -9.515625 3.441406 -9.515625 C 2.003906 -9.515625 0.828125 -8.574219 0.828125 -7.042969 C 0.828125 -4.023438 5.398438 -4.773438 5.398438 -2.441406 C 5.398438 -1.441406 4.570312 -0.875 3.519531 -0.875 C 2.457031 -0.875 1.691406 -1.457031 1.363281 -2.316406 L 0.453125 -1.785156 C 0.9375 -0.625 2.113281 0.125 3.503906 0.125 Z M 3.503906 0.125 "></path></g></g></g><g clip-path="url(#e289ce7a38)"><path fill="#ffffff" d="M 86.105469 146.589844 C 86.105469 93.949219 128.929688 51.121094 181.570312 51.121094 C 202.214844 51.121094 221.355469 57.710938 236.988281 68.894531 L 260.171875 45.710938 C 251.367188 38.832031 241.71875 33.15625 231.351562 28.773438 C 215.574219 22.101562 198.828125 18.714844 181.570312 18.714844 C 164.316406 18.714844 147.570312 22.101562 131.792969 28.773438 C 116.5625 35.210938 102.890625 44.433594 91.152344 56.171875 C 79.414062 67.910156 70.195312 81.582031 63.753906 96.808594 C 57.082031 112.585938 53.699219 129.332031 53.699219 146.589844 C 53.699219 163.84375 57.082031 180.589844 63.753906 196.367188 C 68.082031 206.597656 73.660156 216.121094 80.417969 224.832031 L 103.613281 201.636719 C 92.589844 186.066406 86.105469 167.074219 86.105469 146.589844 " fill-opacity="1" fill-rule="nonzero"></path></g><g clip-path="url(#3668e20f22)"><path fill="#4bc8f1" d="M 308.460938 130.636719 L 293.242188 130.636719 L 293.242188 130.386719 L 220.6875 130.386719 L 188.28125 162.789062 L 275.660156 162.789062 C 267.945312 207.742188 228.691406 242.054688 181.570312 242.054688 C 161.089844 242.054688 142.09375 235.574219 126.527344 224.546875 L 103.328125 247.746094 C 112.039062 254.496094 121.566406 260.078125 131.792969 264.402344 C 147.570312 271.074219 164.316406 274.460938 181.570312 274.460938 C 198.828125 274.460938 215.574219 271.074219 231.351562 264.402344 C 246.578125 257.964844 260.25 248.746094 271.988281 237.007812 C 283.726562 225.269531 292.945312 211.59375 299.386719 196.367188 C 306.058594 180.589844 309.445312 163.84375 309.445312 146.589844 C 309.445312 141.21875 309.113281 135.894531 308.460938 130.636719 " fill-opacity="1" fill-rule="nonzero"></path></g><path fill="#ffffff" d="M 188.050781 220.511719 C 144.839844 220.511719 109.808594 185.480469 109.808594 142.265625 C 109.808594 116.484375 122.28125 93.617188 141.519531 79.359375 C 118.648438 93.015625 103.328125 118.011719 103.328125 146.589844 C 103.328125 189.800781 138.359375 224.832031 181.570312 224.832031 C 199 224.832031 215.097656 219.132812 228.105469 209.496094 C 216.390625 216.488281 202.691406 220.511719 188.050781 220.511719 " fill-opacity="1" fill-rule="nonzero"></path><g fill="#4bc8f1" fill-opacity="1"><g transform="translate(175.932226, 329.527702)"><g><path d="M 17.28125 -16.476562 L 17.28125 -11.320312 L 25.542969 -11.320312 C 24.140625 -8.164062 21.035156 -6.058594 17.328125 -6.058594 C 12.269531 -6.058594 8.363281 -9.96875 8.363281 -15.027344 C 8.363281 -20.085938 12.269531 -23.992188 17.328125 -23.992188 C 20.886719 -23.992188 23.789062 -22.085938 25.292969 -19.234375 L 31.003906 -22.1875 C 28.398438 -27.097656 23.238281 -30.453125 17.328125 -30.453125 C 8.765625 -30.453125 1.902344 -23.539062 1.902344 -15.027344 C 1.902344 -6.511719 8.765625 0.402344 17.328125 0.402344 C 25.84375 0.402344 32.753906 -6.511719 32.753906 -15.027344 L 32.753906 -16.476562 Z M 17.28125 -16.476562 "></path></g></g></g><g fill="#4bc8f1" fill-opacity="1"><g transform="translate(215.633125, 329.527702)"><g><path d="M 9.566406 -5.859375 L 9.566406 -30.050781 L 2.953125 -30.050781 L 2.953125 0 L 19.535156 0 L 19.535156 -5.859375 Z M 9.566406 -5.859375 "></path></g></g></g><g fill="#4bc8f1" fill-opacity="1"><g transform="translate(240.311813, 329.527702)"><g><path d="M 21.335938 0 L 28.398438 0 L 17.578125 -30.050781 L 10.167969 -30.050781 L -0.652344 0 L 6.410156 0 L 8.265625 -5.660156 L 19.484375 -5.660156 Z M 10.015625 -11.167969 L 13.875 -23.089844 L 17.730469 -11.167969 Z M 10.015625 -11.167969 "></path></g></g></g><g fill="#4bc8f1" fill-opacity="1"><g transform="translate(273.102503, 329.527702)"><g><path d="M 12.222656 0.402344 C 17.832031 0.402344 22.589844 -2.90625 22.589844 -8.515625 C 22.589844 -19.632812 8.765625 -16.878906 8.765625 -22.085938 C 8.765625 -23.789062 10.066406 -24.59375 11.667969 -24.59375 C 13.371094 -24.59375 15.074219 -23.640625 16.578125 -21.988281 L 20.984375 -26.195312 C 18.78125 -28.75 15.425781 -30.453125 11.71875 -30.453125 C 6.960938 -30.453125 2.105469 -27.597656 2.105469 -21.585938 C 2.105469 -11.371094 15.976562 -13.824219 15.976562 -8.566406 C 15.976562 -6.910156 14.574219 -5.808594 12.269531 -5.808594 C 9.515625 -5.808594 7.363281 -7.363281 6.261719 -9.714844 L 0.800781 -6.3125 C 2.753906 -2.554688 6.960938 0.402344 12.222656 0.402344 Z M 12.222656 0.402344 "></path></g></g></g><g fill="#4bc8f1" fill-opacity="1"><g transform="translate(301.887264, 329.527702)"><g><path d="M 12.222656 0.402344 C 17.832031 0.402344 22.589844 -2.90625 22.589844 -8.515625 C 22.589844 -19.632812 8.765625 -16.878906 8.765625 -22.085938 C 8.765625 -23.789062 10.066406 -24.59375 11.667969 -24.59375 C 13.371094 -24.59375 15.074219 -23.640625 16.578125 -21.988281 L 20.984375 -26.195312 C 18.78125 -28.75 15.425781 -30.453125 11.71875 -30.453125 C 6.960938 -30.453125 2.105469 -27.597656 2.105469 -21.585938 C 2.105469 -11.371094 15.976562 -13.824219 15.976562 -8.566406 C 15.976562 -6.910156 14.574219 -5.808594 12.269531 -5.808594 C 9.515625 -5.808594 7.363281 -7.363281 6.261719 -9.714844 L 0.800781 -6.3125 C 2.753906 -2.554688 6.960938 0.402344 12.222656 0.402344 Z M 12.222656 0.402344 "></path></g></g></g></svg>