<?xml version="1.0" encoding="UTF-8" standalone="no"?>
<!DOCTYPE svg PUBLIC "-//W3C//DTD SVG 1.1//EN" "http://www.w3.org/Graphics/SVG/1.1/DTD/svg11.dtd">
<svg width="100%" height="100%" viewBox="0 0 1200 250" version="1.1" xmlns="http://www.w3.org/2000/svg" xmlns:xlink="http://www.w3.org/1999/xlink" xml:space="preserve" xmlns:serif="http://www.serif.com/" style="fill-rule:evenodd;clip-rule:evenodd;stroke-linejoin:round;stroke-miterlimit:2;">
    <g>
        <g>
            <g>
                <path d="M310.872,154.353c19.503,0 36.396,-10.984 44.76,-27.058l-18.697,-9.681c-4.757,9.347 -14.424,15.587 -26.063,15.587c-16.559,-0 -29.196,-12.801 -29.196,-29.36c-0,-16.563 12.637,-29.35 29.196,-29.35c11.639,-0 21.306,6.24 26.063,15.577l18.697,-9.671c-8.364,-16.075 -25.257,-27.059 -44.76,-27.059c-27.877,0 -50.512,22.636 -50.512,50.503c-0,27.877 22.635,50.512 50.512,50.512Z" style="fill-rule:nonzero;"/>
            </g>
        </g>
    </g>
    <g>
        <g>
            <g>
                <path d="M432.978,154.353c28.034,0 50.503,-22.635 50.503,-50.512c-0,-27.867 -22.469,-50.503 -50.503,-50.503c-27.877,0 -50.512,22.636 -50.512,50.503c-0,27.877 22.635,50.512 50.512,50.512Zm0,-21.152c-16.559,-0 -29.196,-12.801 -29.196,-29.36c-0,-16.563 12.637,-29.35 29.196,-29.35c16.716,-0 29.35,12.787 29.35,29.35c0,16.559 -12.634,29.36 -29.35,29.36Z" style="fill-rule:nonzero;"/>
            </g>
        </g>
    </g>
    <g>
        <g>
            <g>
                <path d="M515.882,153.037l32.47,-0c27.062,-0 49.196,-21.971 49.196,-49.196c0,-27.216 -22.134,-49.187 -49.196,-49.187l-32.47,0l0,98.383Zm21.65,-19.182l0,-60.016l10.653,0c15.577,0 27.713,12.955 27.713,30.002c0,17.06 -12.136,30.014 -27.713,30.014l-10.653,0Z" style="fill-rule:nonzero;"/>
            </g>
        </g>
    </g>
    <g>
        <g>
            <g>
                <path d="M689.807,73.672l-0,-19.018l-59.185,0l-0,98.383l59.185,-0l-0,-19.018l-37.548,0l-0,-20.664l32.139,-0l0,-19.018l-32.139,-0l-0,-20.665l37.548,0Z" style="fill-rule:nonzero;"/>
            </g>
        </g>
    </g>
    <g>
        <g>
            <g>
                <path d="M324.695,198.436l0,25.258l-19.004,-25.258l-3.081,0l-0,30.745l3.287,0l-0,-25.258l18.952,25.258l3.081,0l-0,-30.745l-3.235,0Z" style="fill-rule:nonzero;"/>
            </g>
        </g>
    </g>
    <g>
        <g>
            <g>
                <path d="M361.907,201.622l-0,-3.186l-16.815,0l0,30.745l16.815,0l-0,-3.172l-13.528,-0l0,-10.614l11.776,-0l0,-3.172l-11.776,-0l0,-10.601l13.528,-0Z" style="fill-rule:nonzero;"/>
            </g>
        </g>
    </g>
    <g>
        <g>
            <g>
                <path d="M399.017,229.181l-10.5,-15.577l10.244,-15.168l-3.951,0l-8.096,12.457l-8.031,-12.457l-3.952,0l10.192,15.168l-10.447,15.577l3.987,0l8.251,-12.866l8.312,12.866l3.991,0Z" style="fill-rule:nonzero;"/>
            </g>
        </g>
    </g>
    <g>
        <g>
            <g>
                <path d="M429.268,198.436l-20.294,0l-0,3.287l8.502,0l-0,27.458l3.274,0l-0,-27.458l8.518,0l0,-3.287Z" style="fill-rule:nonzero;"/>
            </g>
        </g>
    </g>
    <g>
        <g>
            <g>
                <path d="M479.368,212.887l0,3.071l12.356,0c-0.973,5.945 -6.103,10.359 -12.304,10.359c-6.917,-0 -12.496,-5.537 -12.496,-12.507c0,-6.97 5.579,-12.496 12.496,-12.496c4.669,0 8.761,2.508 10.87,6.292l2.815,-1.584c-2.662,-4.757 -7.788,-7.995 -13.685,-7.995c-8.76,0 -15.78,7.075 -15.78,15.783c0,8.709 7.02,15.78 15.78,15.78c8.709,0 15.78,-7.071 15.78,-15.78l0,-0.923l-15.832,0Z" style="fill-rule:nonzero;"/>
            </g>
        </g>
    </g>
    <g>
        <g>
            <g>
                <path d="M528.056,201.622l0,-3.186l-16.814,0l-0,30.745l16.814,0l0,-3.172l-13.527,-0l-0,-10.614l11.776,-0l-0,-3.172l-11.776,-0l-0,-10.601l13.527,-0Z" style="fill-rule:nonzero;"/>
            </g>
        </g>
    </g>
    <g>
        <g>
            <g>
                <path d="M566.394,198.436l-0,25.258l-19.005,-25.258l-3.081,0l0,30.745l3.287,0l0,-25.258l18.953,25.258l3.08,0l0,-30.745l-3.234,0Z" style="fill-rule:nonzero;"/>
            </g>
        </g>
    </g>
    <g>
        <g>
            <g>
                <path d="M603.604,201.622l-0,-3.186l-16.815,0l0,30.745l16.815,0l-0,-3.172l-13.528,-0l0,-10.614l11.776,-0l0,-3.172l-11.776,-0l0,-10.601l13.528,-0Z" style="fill-rule:nonzero;"/>
            </g>
        </g>
    </g>
    <g>
        <g>
            <g>
                <path d="M632.31,215.14c4.043,-0.563 7.124,-3.939 7.124,-8.097c-0,-4.806 -3.851,-8.607 -8.555,-8.607l-11.023,0l-0,30.745l3.287,0l-0,-13.888l5.791,0l8.709,13.888l3.735,0l-9.068,-14.041Zm-9.167,-2.966l-0,-10.451l7.53,0c3.071,0 5.474,2.151 5.474,5.219c-0,3.133 -2.354,5.232 -5.474,5.232l-7.53,-0Z" style="fill-rule:nonzero;"/>
            </g>
        </g>
    </g>
    <g>
        <g>
            <g>
                <path d="M673.576,229.181l3.578,0l-11.111,-30.745l-3.644,0l-11.115,30.745l3.582,0l2.517,-7.173l13.672,0l2.521,7.173Zm-15.119,-10.296l5.795,-16.546l5.729,16.546l-11.524,-0Z" style="fill-rule:nonzero;"/>
            </g>
        </g>
    </g>
    <g>
        <g>
            <g>
                <path d="M707.359,198.436l-20.295,0l0,3.287l8.502,0l0,27.458l3.274,0l0,-27.458l8.519,0l-0,-3.287Z" style="fill-rule:nonzero;"/>
            </g>
        </g>
    </g>
    <g>
        <g>
            <g>
                <rect x="721.254" y="198.436" width="3.287" height="30.745"/>
            </g>
        </g>
    </g>
    <g>
        <g>
            <g>
                <path d="M756.23,229.59c8.761,0 15.78,-7.071 15.78,-15.78c0,-8.708 -7.019,-15.783 -15.78,-15.783c-8.708,0 -15.78,7.075 -15.78,15.783c0,8.709 7.072,15.78 15.78,15.78Zm0,-3.273c-6.918,-0 -12.493,-5.537 -12.493,-12.507c0,-6.97 5.575,-12.496 12.493,-12.496c6.97,0 12.506,5.526 12.506,12.496c0,6.97 -5.536,12.507 -12.506,12.507Z" style="fill-rule:nonzero;"/>
            </g>
        </g>
    </g>
    <g>
        <g>
            <g>
                <path d="M809.829,198.436l-0,25.258l-19.005,-25.258l-3.081,0l0,30.745l3.287,0l0,-25.258l18.953,25.258l3.08,0l0,-30.745l-3.234,0Z" style="fill-rule:nonzero;"/>
            </g>
        </g>
    </g>
    <g>
        <g>
            <g>
                <path d="M851.778,229.181l8.4,0c8.467,0 15.371,-6.868 15.371,-15.371c0,-8.505 -6.904,-15.374 -15.371,-15.374l-8.4,0l-0,30.745Zm3.234,-3.274l0,-24.184l5.114,0c6.816,0 12.149,5.167 12.149,12.087c0,6.918 -5.333,12.097 -12.149,12.097l-5.114,0Z" style="fill-rule:nonzero;"/>
            </g>
        </g>
    </g>
    <g>
        <g>
            <g>
                <path d="M908.311,201.622l-0,-3.186l-16.815,0l0,30.745l16.815,0l-0,-3.172l-13.528,-0l0,-10.614l11.776,-0l0,-3.172l-11.776,-0l0,-10.601l13.528,-0Z" style="fill-rule:nonzero;"/>
            </g>
        </g>
    </g>
    <g>
        <g>
            <g>
                <path d="M943.119,198.436l-9.324,26.538l-9.337,-26.538l-3.631,0l11.115,30.745l3.644,0l11.111,-30.745l-3.578,0Z" style="fill-rule:nonzero;"/>
            </g>
        </g>
    </g>
    <g>
        <g>
            <g>
                <path d="M998.708,198.436l-20.294,0l-0,3.287l8.502,0l0,27.458l3.274,0l-0,-27.458l8.518,0l0,-3.287Z" style="fill-rule:nonzero;"/>
            </g>
        </g>
    </g>
    <g>
        <g>
            <g>
                <path d="M1026.9,229.59c8.761,0 15.78,-7.071 15.78,-15.78c0,-8.708 -7.019,-15.783 -15.78,-15.783c-8.708,0 -15.779,7.075 -15.779,15.783c-0,8.709 7.071,15.78 15.779,15.78Zm0,-3.273c-6.917,-0 -12.493,-5.537 -12.493,-12.507c0,-6.97 5.576,-12.496 12.493,-12.496c6.97,0 12.507,5.526 12.507,12.496c-0,6.97 -5.537,12.507 -12.507,12.507Z" style="fill-rule:nonzero;"/>
            </g>
        </g>
    </g>
    <g>
        <g>
            <g>
                <path d="M1072.97,229.59c8.761,0 15.78,-7.071 15.78,-15.78c0,-8.708 -7.019,-15.783 -15.78,-15.783c-8.708,0 -15.78,7.075 -15.78,15.783c0,8.709 7.072,15.78 15.78,15.78Zm0,-3.273c-6.918,-0 -12.493,-5.537 -12.493,-12.507c0,-6.97 5.575,-12.496 12.493,-12.496c6.97,0 12.506,5.526 12.506,12.496c0,6.97 -5.536,12.507 -12.506,12.507Z" style="fill-rule:nonzero;"/>
            </g>
        </g>
    </g>
    <g>
        <g>
            <g>
                <path d="M1107.77,225.907l0,-27.471l-3.286,0l-0,30.745l14.706,0l-0,-3.274l-11.42,0Z" style="fill-rule:nonzero;"/>
            </g>
        </g>
    </g>
    <g>
        <g>
            <g>
                <path d="M1140.57,229.59c5.232,0 9.488,-3.12 9.488,-8.505c-0,-10.447 -14.962,-7.89 -14.962,-15.217c0,-3.071 2.508,-4.554 5.372,-4.554c2.364,0 4.309,0.972 5.537,2.711l2.556,-2.148c-1.686,-2.16 -4.655,-3.85 -8.197,-3.85c-4.705,0 -8.555,3.084 -8.555,8.096c0,9.887 14.962,7.432 14.962,15.067c-0,3.274 -2.711,5.127 -6.149,5.127c-3.48,-0 -5.988,-1.906 -7.061,-4.718l-2.98,1.738c1.588,3.798 5.435,6.253 9.989,6.253Z" style="fill-rule:nonzero;"/>
            </g>
        </g>
    </g>
    <g>
        <g>
            <clipPath id="_clip1">
                <rect x="2.797" y="9.685" width="187.72" height="186.796"/>
            </clipPath>
            <g clip-path="url(#_clip1)">
                <path d="M32.145,125.478c-0,-47.667 38.779,-86.449 86.446,-86.449c18.694,-0 36.026,5.967 50.182,16.095l20.994,-20.994c-7.974,-6.229 -16.71,-11.369 -26.098,-15.338c-14.287,-6.04 -29.451,-9.107 -45.078,-9.107c-15.624,-0 -30.788,3.067 -45.075,9.107c-13.791,5.83 -26.171,14.182 -36.801,24.811c-10.629,10.629 -18.977,23.009 -24.81,36.798c-6.041,14.286 -9.105,29.45 -9.105,45.077c0,15.624 3.064,30.788 9.105,45.075c3.919,9.264 8.97,17.887 15.09,25.775l21.004,-21.003c-9.982,-14.1 -15.854,-31.298 -15.854,-49.847" style="fill-rule:nonzero;stroke:#fff;stroke-width:0.68px;"/>
            </g>
        </g>
    </g>
    <g>
        <path d="M233.493,111.033l-13.781,-0l0,-0.227l-65.699,0l-29.346,29.341l79.124,0c-6.986,40.706 -42.531,71.777 -85.2,71.777c-18.546,0 -35.747,-5.868 -49.843,-15.854l-21.008,21.008c7.888,6.112 16.515,11.167 25.776,15.082c14.287,6.042 29.451,9.109 45.075,9.109c15.627,-0 30.791,-3.067 45.078,-9.109c13.788,-5.829 26.168,-14.177 36.797,-24.806c10.63,-10.629 18.977,-23.013 24.811,-36.801c6.041,-14.287 9.107,-29.451 9.107,-45.075c0,-4.863 -0.3,-9.684 -0.891,-14.445" style="fill:#4bc8f1;fill-rule:nonzero;"/>
    </g>
    <g>
        <path d="M124.459,192.417c-39.128,-0 -70.85,-31.723 -70.85,-70.854c0,-23.346 11.294,-44.053 28.715,-56.964c-18.936,11.307 -32.157,31.198 -34.282,54.304c-0.199,2.166 -0.302,4.359 -0.302,6.575c0,39.129 31.722,70.85 70.851,70.85c15.783,0 30.36,-5.16 42.138,-13.887c-10.607,6.332 -23.013,9.976 -36.27,9.976" style="fill-rule:nonzero;stroke:#fff;stroke-width:0.68px;"/>
    </g>
    <g>
        <g>
            <g>
                <path d="M763.057,99.094l-0,16.883l27.048,-0c-4.59,10.332 -14.758,17.224 -26.894,17.224c-16.559,-0 -29.35,-12.801 -29.35,-29.36c-0,-16.563 12.791,-29.35 29.35,-29.35c11.651,-0 21.152,6.24 26.076,15.577l18.697,-9.671c-8.532,-16.075 -25.425,-27.059 -44.773,-27.059c-28.031,0 -50.503,22.636 -50.503,50.503c0,27.877 22.472,50.512 50.503,50.512c27.88,0 50.502,-22.635 50.502,-50.512l0,-4.747l-50.656,-0Z" style="fill:#4bc8f1;fill-rule:nonzero;"/>
            </g>
        </g>
    </g>
    <g>
        <g>
            <g>
                <path d="M867.775,133.855l0,-79.201l-21.65,0l0,98.383l54.287,-0l0,-19.182l-32.637,0Z" style="fill:#4bc8f1;fill-rule:nonzero;"/>
            </g>
        </g>
    </g>
    <g>
        <g>
            <g>
                <path d="M987.103,153.037l23.12,-0l-35.423,-98.383l-24.259,0l-35.423,98.383l23.12,-0l6.076,-18.53l36.726,-0l6.063,18.53Zm-37.06,-36.562l12.634,-39.031l12.621,39.031l-25.255,-0Z" style="fill:#4bc8f1;fill-rule:nonzero;"/>
            </g>
        </g>
    </g>
    <g>
        <g>
            <g>
                <path d="M1064.62,154.353c18.363,0 33.94,-10.83 33.94,-29.196c0,-36.396 -45.258,-27.379 -45.258,-44.426c0,-5.576 4.256,-8.211 9.501,-8.211c5.575,-0 11.151,3.12 16.075,8.532l14.424,-13.774c-7.212,-8.364 -18.196,-13.94 -30.332,-13.94c-15.577,0 -31.475,9.347 -31.475,29.03c0,33.442 45.415,25.411 45.415,42.625c0,5.422 -4.593,9.026 -12.136,9.026c-9.016,0 -16.065,-5.087 -19.669,-12.788l-17.879,11.138c6.394,12.303 20.167,21.984 37.394,21.984Z" style="fill:#4bc8f1;fill-rule:nonzero;"/>
            </g>
        </g>
    </g>
    <g>
        <g>
            <g>
                <path d="M1158.86,154.353c18.363,0 33.94,-10.83 33.94,-29.196c-0,-36.396 -45.258,-27.379 -45.258,-44.426c-0,-5.576 4.256,-8.211 9.501,-8.211c5.575,-0 11.15,3.12 16.074,8.532l14.425,-13.774c-7.213,-8.364 -18.196,-13.94 -30.332,-13.94c-15.577,0 -31.475,9.347 -31.475,29.03c-0,33.442 45.415,25.411 45.415,42.625c-0,5.422 -4.594,9.026 -12.137,9.026c-9.016,0 -16.064,-5.087 -19.669,-12.788l-17.878,11.138c6.393,12.303 20.167,21.984 37.394,21.984Z" style="fill:#4bc8f1;fill-rule:nonzero;"/>
            </g>
        </g>
    </g>
</svg>
