<?xml version="1.0" encoding="UTF-8" standalone="no"?>
<!DOCTYPE svg PUBLIC "-//W3C//DTD SVG 1.1//EN" "http://www.w3.org/Graphics/SVG/1.1/DTD/svg11.dtd">
<svg width="100%" height="100%" viewBox="0 0 500 500" version="1.1" xmlns="http://www.w3.org/2000/svg" xmlns:xlink="http://www.w3.org/1999/xlink" xml:space="preserve" xmlns:serif="http://www.serif.com/" style="fill-rule:evenodd;clip-rule:evenodd;stroke-linejoin:round;stroke-miterlimit:2;">
    <g transform="matrix(1.33333,0,0,1.33333,50.4163,439.37)">
        <g>
            <g>
                <path d="M17.281,0.402C23.238,0.402 28.398,-2.953 30.953,-7.863L25.242,-10.82C23.789,-7.965 20.836,-6.059 17.281,-6.059C12.223,-6.059 8.363,-9.969 8.363,-15.027C8.363,-20.086 12.223,-23.992 17.281,-23.992C20.836,-23.992 23.789,-22.086 25.242,-19.234L30.953,-22.188C28.398,-27.098 23.238,-30.453 17.281,-30.453C8.766,-30.453 1.852,-23.539 1.852,-15.027C1.852,-6.512 8.766,0.402 17.281,0.402Z" style="fill-rule:nonzero;"/>
            </g>
        </g>
    </g>
    <g transform="matrix(1.33333,0,0,1.33333,100.146,439.37)">
        <g>
            <g>
                <path d="M17.281,0.402C25.844,0.402 32.707,-6.512 32.707,-15.027C32.707,-23.539 25.844,-30.453 17.281,-30.453C8.766,-30.453 1.852,-23.539 1.852,-15.027C1.852,-6.512 8.766,0.402 17.281,0.402ZM17.281,-6.059C12.223,-6.059 8.363,-9.969 8.363,-15.027C8.363,-20.086 12.223,-23.992 17.281,-23.992C22.387,-23.992 26.246,-20.086 26.246,-15.027C26.246,-9.969 22.387,-6.059 17.281,-6.059Z" style="fill-rule:nonzero;"/>
            </g>
        </g>
    </g>
    <g transform="matrix(1.33333,0,0,1.33333,153.014,439.37)">
        <g>
            <g>
                <path d="M2.953,0L12.871,0C21.137,0 27.898,-6.711 27.898,-15.027C27.898,-23.34 21.137,-30.051 12.871,-30.051L2.953,-30.051L2.953,0ZM9.566,-5.859L9.566,-24.191L12.82,-24.191C17.578,-24.191 21.285,-20.234 21.285,-15.027C21.285,-9.816 17.578,-5.859 12.82,-5.859L9.566,-5.859Z" style="fill-rule:nonzero;"/>
            </g>
        </g>
    </g>
    <g transform="matrix(1.33333,0,0,1.33333,199.405,439.37)">
        <g>
            <g>
                <path d="M21.285,-24.242L21.285,-30.051L3.207,-30.051L3.207,0L21.285,0L21.285,-5.809L9.816,-5.809L9.816,-12.121L19.633,-12.121L19.633,-17.93L9.816,-17.93L9.816,-24.242L21.285,-24.242Z" style="fill-rule:nonzero;"/>
            </g>
        </g>
    </g>
    <g transform="matrix(1.33333,0,0,1.33333,68.5713,470.381)">
        <g>
            <g>
                <path d="M7.887,-9.391L7.887,-1.676L2.082,-9.391L1.141,-9.391L1.141,0L2.145,0L2.145,-7.715L7.934,0L8.875,0L8.875,-9.391L7.887,-9.391Z" style="fill-rule:nonzero;"/>
            </g>
        </g>
    </g>
    <g transform="matrix(1.33333,0,0,1.33333,85.769,470.381)">
        <g>
            <g>
                <path d="M6.355,-8.418L6.355,-9.391L1.219,-9.391L1.219,0L6.355,0L6.355,-0.969L2.223,-0.969L2.223,-4.211L5.82,-4.211L5.82,-5.18L2.223,-5.18L2.223,-8.418L6.355,-8.418Z" style="fill-rule:nonzero;"/>
            </g>
        </g>
    </g>
    <g transform="matrix(1.33333,0,0,1.33333,99.3399,470.381)">
        <g>
            <g>
                <path d="M7.512,0L4.305,-4.758L7.434,-9.391L6.227,-9.391L3.754,-5.586L1.301,-9.391L0.094,-9.391L3.207,-4.758L0.016,0L1.234,0L3.754,-3.93L6.293,0L7.512,0Z" style="fill-rule:nonzero;"/>
            </g>
        </g>
    </g>
    <g transform="matrix(1.33333,0,0,1.33333,113.223,470.381)">
        <g>
            <g>
                <path d="M6.34,-9.391L0.141,-9.391L0.141,-8.387L2.738,-8.387L2.738,0L3.738,0L3.738,-8.387L6.34,-8.387L6.34,-9.391Z" style="fill-rule:nonzero;"/>
            </g>
        </g>
    </g>
    <g transform="matrix(1.33333,0,0,1.33333,134.591,470.381)">
        <g>
            <g>
                <path d="M5.617,-4.977L5.617,-4.039L9.391,-4.039C9.094,-2.223 7.527,-0.875 5.633,-0.875C3.52,-0.875 1.816,-2.566 1.816,-4.695C1.816,-6.824 3.52,-8.512 5.633,-8.512C7.059,-8.512 8.309,-7.746 8.953,-6.59L9.813,-7.074C9,-8.527 7.434,-9.516 5.633,-9.516C2.957,-9.516 0.813,-7.355 0.813,-4.695C0.813,-2.035 2.957,0.125 5.633,0.125C8.293,0.125 10.453,-2.035 10.453,-4.695L10.453,-4.977L5.617,-4.977Z" style="fill-rule:nonzero;"/>
            </g>
        </g>
    </g>
    <g transform="matrix(1.33333,0,0,1.33333,153.436,470.381)">
        <g>
            <g>
                <path d="M6.355,-8.418L6.355,-9.391L1.219,-9.391L1.219,0L6.355,0L6.355,-0.969L2.223,-0.969L2.223,-4.211L5.82,-4.211L5.82,-5.18L2.223,-5.18L2.223,-8.418L6.355,-8.418Z" style="fill-rule:nonzero;"/>
            </g>
        </g>
    </g>
    <g transform="matrix(1.33333,0,0,1.33333,167.007,470.381)">
        <g>
            <g>
                <path d="M7.887,-9.391L7.887,-1.676L2.082,-9.391L1.141,-9.391L1.141,0L2.145,0L2.145,-7.715L7.934,0L8.875,0L8.875,-9.391L7.887,-9.391Z" style="fill-rule:nonzero;"/>
            </g>
        </g>
    </g>
    <g transform="matrix(1.33333,0,0,1.33333,184.204,470.381)">
        <g>
            <g>
                <path d="M6.355,-8.418L6.355,-9.391L1.219,-9.391L1.219,0L6.355,0L6.355,-0.969L2.223,-0.969L2.223,-4.211L5.82,-4.211L5.82,-5.18L2.223,-5.18L2.223,-8.418L6.355,-8.418Z" style="fill-rule:nonzero;"/>
            </g>
        </g>
    </g>
    <g transform="matrix(1.33333,0,0,1.33333,197.775,470.381)">
        <g>
            <g>
                <path d="M4.945,-4.289C6.18,-4.461 7.121,-5.492 7.121,-6.762C7.121,-8.23 5.945,-9.391 4.508,-9.391L1.141,-9.391L1.141,0L2.145,0L2.145,-4.242L3.914,-4.242L6.574,0L7.715,0L4.945,-4.289ZM2.145,-5.195L2.145,-8.387L4.445,-8.387C5.383,-8.387 6.117,-7.73 6.117,-6.793C6.117,-5.836 5.398,-5.195 4.445,-5.195L2.145,-5.195Z" style="fill-rule:nonzero;"/>
            </g>
        </g>
    </g>
    <g transform="matrix(1.33333,0,0,1.33333,212.096,470.381)">
        <g>
            <g>
                <path d="M6.809,0L7.902,0L4.508,-9.391L3.395,-9.391L0,0L1.094,0L1.863,-2.191L6.039,-2.191L6.809,0ZM2.191,-3.145L3.961,-8.199L5.711,-3.145L2.191,-3.145Z" style="fill-rule:nonzero;"/>
            </g>
        </g>
    </g>
    <g transform="matrix(1.33333,0,0,1.33333,226.48,470.381)">
        <g>
            <g>
                <path d="M6.34,-9.391L0.141,-9.391L0.141,-8.387L2.738,-8.387L2.738,0L3.738,0L3.738,-8.387L6.34,-8.387L6.34,-9.391Z" style="fill-rule:nonzero;"/>
            </g>
        </g>
    </g>
    <g transform="matrix(1.33333,0,0,1.33333,238.967,470.381)">
        <g>
            <g>
                <rect x="1.219" y="-9.391" width="1.004" height="9.391" style="fill-rule:nonzero;"/>
            </g>
        </g>
    </g>
    <g transform="matrix(1.33333,0,0,1.33333,247.389,470.381)">
        <g>
            <g>
                <path d="M5.586,0.125C8.262,0.125 10.406,-2.035 10.406,-4.695C10.406,-7.355 8.262,-9.516 5.586,-9.516C2.926,-9.516 0.766,-7.355 0.766,-4.695C0.766,-2.035 2.926,0.125 5.586,0.125ZM5.586,-0.875C3.473,-0.875 1.77,-2.566 1.77,-4.695C1.77,-6.824 3.473,-8.512 5.586,-8.512C7.715,-8.512 9.406,-6.824 9.406,-4.695C9.406,-2.566 7.715,-0.875 5.586,-0.875Z" style="fill-rule:nonzero;"/>
            </g>
        </g>
    </g>
    <g transform="matrix(1.33333,0,0,1.33333,266.15,470.381)">
        <g>
            <g>
                <path d="M7.887,-9.391L7.887,-1.676L2.082,-9.391L1.141,-9.391L1.141,0L2.145,0L2.145,-7.715L7.934,0L8.875,0L8.875,-9.391L7.887,-9.391Z" style="fill-rule:nonzero;"/>
            </g>
        </g>
    </g>
    <g transform="matrix(1.33333,0,0,1.33333,292.229,470.381)">
        <g>
            <g>
                <path d="M1.141,0L3.707,0C6.293,0 8.402,-2.098 8.402,-4.695C8.402,-7.293 6.293,-9.391 3.707,-9.391L1.141,-9.391L1.141,0ZM2.129,-1L2.129,-8.387L3.691,-8.387C5.773,-8.387 7.402,-6.809 7.402,-4.695C7.402,-2.582 5.773,-1 3.691,-1L2.129,-1Z" style="fill-rule:nonzero;"/>
            </g>
        </g>
    </g>
    <g transform="matrix(1.33333,0,0,1.33333,308.301,470.381)">
        <g>
            <g>
                <path d="M6.355,-8.418L6.355,-9.391L1.219,-9.391L1.219,0L6.355,0L6.355,-0.969L2.223,-0.969L2.223,-4.211L5.82,-4.211L5.82,-5.18L2.223,-5.18L2.223,-8.418L6.355,-8.418Z" style="fill-rule:nonzero;"/>
            </g>
        </g>
    </g>
    <g transform="matrix(1.33333,0,0,1.33333,321.872,470.381)">
        <g>
            <g>
                <path d="M6.809,-9.391L3.961,-1.285L1.109,-9.391L0,-9.391L3.395,0L4.508,0L7.902,-9.391L6.809,-9.391Z" style="fill-rule:nonzero;"/>
            </g>
        </g>
    </g>
    <g transform="matrix(1.33333,0,0,1.33333,345.137,470.381)">
        <g>
            <g>
                <path d="M6.34,-9.391L0.141,-9.391L0.141,-8.387L2.738,-8.387L2.738,0L3.738,0L3.738,-8.387L6.34,-8.387L6.34,-9.391Z" style="fill-rule:nonzero;"/>
            </g>
        </g>
    </g>
    <g transform="matrix(1.33333,0,0,1.33333,357.624,470.381)">
        <g>
            <g>
                <path d="M5.586,0.125C8.262,0.125 10.406,-2.035 10.406,-4.695C10.406,-7.355 8.262,-9.516 5.586,-9.516C2.926,-9.516 0.766,-7.355 0.766,-4.695C0.766,-2.035 2.926,0.125 5.586,0.125ZM5.586,-0.875C3.473,-0.875 1.77,-2.566 1.77,-4.695C1.77,-6.824 3.473,-8.512 5.586,-8.512C7.715,-8.512 9.406,-6.824 9.406,-4.695C9.406,-2.566 7.715,-0.875 5.586,-0.875Z" style="fill-rule:nonzero;"/>
            </g>
        </g>
    </g>
    <g transform="matrix(1.33333,0,0,1.33333,376.385,470.381)">
        <g>
            <g>
                <path d="M5.586,0.125C8.262,0.125 10.406,-2.035 10.406,-4.695C10.406,-7.355 8.262,-9.516 5.586,-9.516C2.926,-9.516 0.766,-7.355 0.766,-4.695C0.766,-2.035 2.926,0.125 5.586,0.125ZM5.586,-0.875C3.473,-0.875 1.77,-2.566 1.77,-4.695C1.77,-6.824 3.473,-8.512 5.586,-8.512C7.715,-8.512 9.406,-6.824 9.406,-4.695C9.406,-2.566 7.715,-0.875 5.586,-0.875Z" style="fill-rule:nonzero;"/>
            </g>
        </g>
    </g>
    <g transform="matrix(1.33333,0,0,1.33333,395.146,470.381)">
        <g>
            <g>
                <path d="M2.145,-1L2.145,-9.391L1.141,-9.391L1.141,0L5.633,0L5.633,-1L2.145,-1Z" style="fill-rule:nonzero;"/>
            </g>
        </g>
    </g>
    <g transform="matrix(1.33333,0,0,1.33333,406.695,470.381)">
        <g>
            <g>
                <path d="M3.504,0.125C5.102,0.125 6.402,-0.828 6.402,-2.473C6.402,-5.664 1.832,-4.883 1.832,-7.121C1.832,-8.059 2.598,-8.512 3.473,-8.512C4.195,-8.512 4.789,-8.215 5.164,-7.684L5.945,-8.34C5.43,-9 4.523,-9.516 3.441,-9.516C2.004,-9.516 0.828,-8.574 0.828,-7.043C0.828,-4.023 5.398,-4.773 5.398,-2.441C5.398,-1.441 4.57,-0.875 3.52,-0.875C2.457,-0.875 1.691,-1.457 1.363,-2.316L0.453,-1.785C0.938,-0.625 2.113,0.125 3.504,0.125Z" style="fill-rule:nonzero;"/>
            </g>
        </g>
    </g>
    <g transform="matrix(1.33333,0,0,1.33333,0,6e-06)">
        <clipPath id="_clip1">
            <rect x="53.695" y="18.715" width="207.305" height="206.285"/>
        </clipPath>
        <g clip-path="url(#_clip1)">
            <path d="M86.105,146.59C86.105,93.949 128.93,51.121 181.57,51.121C202.215,51.121 221.355,57.711 236.988,68.895L260.172,45.711C251.367,38.832 241.719,33.156 231.352,28.773C215.574,22.102 198.828,18.715 181.57,18.715C164.316,18.715 147.57,22.102 131.793,28.773C116.563,35.211 102.891,44.434 91.152,56.172C79.414,67.91 70.195,81.582 63.754,96.809C57.082,112.586 53.699,129.332 53.699,146.59C53.699,163.844 57.082,180.59 63.754,196.367C68.082,206.598 73.66,216.121 80.418,224.832L103.613,201.637C92.59,186.066 86.105,167.074 86.105,146.59" style="fill-rule:nonzero;stroke:white;stroke-width:0.75px;"/>
        </g>
    </g>
    <g transform="matrix(1.33333,0,0,1.33333,0,6e-06)">
        <path d="M308.461,130.637L293.242,130.637L293.242,130.387L220.688,130.387L188.281,162.789L275.66,162.789C267.945,207.742 228.691,242.055 181.57,242.055C161.09,242.055 142.094,235.574 126.527,224.547L103.328,247.746C112.039,254.496 121.566,260.078 131.793,264.402C147.57,271.074 164.316,274.461 181.57,274.461C198.828,274.461 215.574,271.074 231.352,264.402C246.578,257.965 260.25,248.746 271.988,237.008C283.727,225.27 292.945,211.594 299.387,196.367C306.059,180.59 309.445,163.844 309.445,146.59C309.445,141.219 309.113,135.895 308.461,130.637" style="fill:rgb(75,200,241);fill-rule:nonzero;"/>
    </g>
    <g transform="matrix(1.33333,0,0,1.33333,0,6e-06)">
        <path d="M188.051,220.512C144.84,220.512 109.809,185.48 109.809,142.266C109.809,116.484 122.281,93.617 141.52,79.359C120.608,91.846 106.008,113.812 103.661,139.329C103.441,141.72 103.328,144.142 103.328,146.59C103.328,189.801 138.359,224.832 181.57,224.832C199,224.832 215.098,219.133 228.105,209.496C216.391,216.488 202.691,220.512 188.051,220.512" style="fill-rule:nonzero;stroke:white;stroke-width:0.75px;"/>
    </g>
    <g transform="matrix(1.33333,0,0,1.33333,234.576,439.37)">
        <g>
            <g>
                <path d="M17.281,-16.477L17.281,-11.32L25.543,-11.32C24.141,-8.164 21.035,-6.059 17.328,-6.059C12.27,-6.059 8.363,-9.969 8.363,-15.027C8.363,-20.086 12.27,-23.992 17.328,-23.992C20.887,-23.992 23.789,-22.086 25.293,-19.234L31.004,-22.188C28.398,-27.098 23.238,-30.453 17.328,-30.453C8.766,-30.453 1.902,-23.539 1.902,-15.027C1.902,-6.512 8.766,0.402 17.328,0.402C25.844,0.402 32.754,-6.512 32.754,-15.027L32.754,-16.477L17.281,-16.477Z" style="fill:rgb(75,200,241);fill-rule:nonzero;"/>
            </g>
        </g>
    </g>
    <g transform="matrix(1.33333,0,0,1.33333,287.511,439.37)">
        <g>
            <g>
                <path d="M9.566,-5.859L9.566,-30.051L2.953,-30.051L2.953,0L19.535,0L19.535,-5.859L9.566,-5.859Z" style="fill:rgb(75,200,241);fill-rule:nonzero;"/>
            </g>
        </g>
    </g>
    <g transform="matrix(1.33333,0,0,1.33333,320.416,439.37)">
        <g>
            <g>
                <path d="M21.336,0L28.398,0L17.578,-30.051L10.168,-30.051L-0.652,0L6.41,0L8.266,-5.66L19.484,-5.66L21.336,0ZM10.016,-11.168L13.875,-23.09L17.73,-11.168L10.016,-11.168Z" style="fill:rgb(75,200,241);fill-rule:nonzero;"/>
            </g>
        </g>
    </g>
    <g transform="matrix(1.33333,0,0,1.33333,364.137,439.37)">
        <g>
            <g>
                <path d="M12.223,0.402C17.832,0.402 22.59,-2.906 22.59,-8.516C22.59,-19.633 8.766,-16.879 8.766,-22.086C8.766,-23.789 10.066,-24.594 11.668,-24.594C13.371,-24.594 15.074,-23.641 16.578,-21.988L20.984,-26.195C18.781,-28.75 15.426,-30.453 11.719,-30.453C6.961,-30.453 2.105,-27.598 2.105,-21.586C2.105,-11.371 15.977,-13.824 15.977,-8.566C15.977,-6.91 14.574,-5.809 12.27,-5.809C9.516,-5.809 7.363,-7.363 6.262,-9.715L0.801,-6.313C2.754,-2.555 6.961,0.402 12.223,0.402Z" style="fill:rgb(75,200,241);fill-rule:nonzero;"/>
            </g>
        </g>
    </g>
    <g transform="matrix(1.33333,0,0,1.33333,402.516,439.37)">
        <g>
            <g>
                <path d="M12.223,0.402C17.832,0.402 22.59,-2.906 22.59,-8.516C22.59,-19.633 8.766,-16.879 8.766,-22.086C8.766,-23.789 10.066,-24.594 11.668,-24.594C13.371,-24.594 15.074,-23.641 16.578,-21.988L20.984,-26.195C18.781,-28.75 15.426,-30.453 11.719,-30.453C6.961,-30.453 2.105,-27.598 2.105,-21.586C2.105,-11.371 15.977,-13.824 15.977,-8.566C15.977,-6.91 14.574,-5.809 12.27,-5.809C9.516,-5.809 7.363,-7.363 6.262,-9.715L0.801,-6.313C2.754,-2.555 6.961,0.402 12.223,0.402Z" style="fill:rgb(75,200,241);fill-rule:nonzero;"/>
            </g>
        </g>
    </g>
</svg>
