<?xml version="1.0" encoding="UTF-8" standalone="no"?>
<!DOCTYPE svg PUBLIC "-//W3C//DTD SVG 1.1//EN" "http://www.w3.org/Graphics/SVG/1.1/DTD/svg11.dtd">
<svg width="100%" height="100%" viewBox="0 0 1920 620" version="1.1" xmlns="http://www.w3.org/2000/svg" xmlns:xlink="http://www.w3.org/1999/xlink" xml:space="preserve" xmlns:serif="http://www.serif.com/" style="fill-rule:evenodd;clip-rule:evenodd;stroke-linejoin:round;stroke-miterlimit:2;">
    <g transform="matrix(-2.95301,-2.93953,-2.93953,2.95301,1220.76,301.371)">
        <rect x="66.428" y="-27.427" width="3.722" height="197.338" style="fill:rgb(0,86,148);"/>
    </g>
    <g transform="matrix(4.16667,0,0,4.16667,63.8527,129.716)">
        <path d="M0,13.592L19.795,13.592L19.795,1.379L0,1.379L0,-17.04L23.439,-17.04L23.439,-29.253L-13.691,-29.253L-13.691,42.845L23.833,42.845L23.833,30.632L0,30.632L0,13.592Z" style="fill:rgb(0,86,148);fill-rule:nonzero;"/>
    </g>
    <g transform="matrix(4.16667,0,0,4.16667,549.321,214.04)">
        <path d="M0,-27.604C0,-39.506 -8.601,-49.407 -23.103,-49.407L-48.63,-49.407L-48.63,-37.002L-35.529,-37.002L-35.529,-37.005L-24.002,-37.005C-23.976,-37.005 -23.951,-37.002 -23.925,-37.002L-23.755,-37.002L-23.755,-36.995C-17.797,-36.889 -13.902,-33.028 -13.902,-27.604C-13.902,-22.18 -17.797,-18.319 -23.755,-18.213L-23.755,-18.209L-23.849,-18.209C-23.901,-18.209 -23.95,-18.203 -24.002,-18.203L-35.063,-18.203L-35.063,-6.601L-27.103,-6.601L-13.202,21.803L2.901,21.803L-13.002,-8.901C-6.1,-11.402 0,-17.602 0,-27.604" style="fill:rgb(0,173,233);fill-rule:nonzero;"/>
    </g>
    <g transform="matrix(4.16667,0,0,4.16667,346.589,181.975)">
        <path d="M0,-10.507L0,6.172C0,14.248 -4.826,19.074 -12.212,19.074C-19.6,19.074 -24.327,14.248 -24.327,6.172L-24.327,-41.795L-38.018,-41.795L-38.018,6.664C-38.018,21.537 -26.593,31.288 -12.212,31.288C2.167,31.288 13.592,21.537 13.592,6.664L13.592,-10.507L0,-10.507Z" style="fill:rgb(0,86,148);fill-rule:nonzero;"/>
    </g>
    <g transform="matrix(4.16667,0,0,4.16667,707.995,75.2425)">
        <path d="M0,40.005C-2.001,42.306 -5.1,43.806 -8.901,43.806C-12.702,43.806 -15.902,42.306 -17.903,40.005C-20.603,37.004 -21.303,33.705 -21.303,20.002C-21.303,6.3 -20.603,3 -17.903,-0.001C-15.902,-2.301 -12.702,-3.801 -8.901,-3.801C-5.1,-3.801 -2.001,-2.301 0,-0.001C2.7,3 3.501,6.3 3.501,20.002C3.501,33.705 2.7,37.004 0,40.005M10.301,-8.402C5.3,-13.403 -0.8,-16.202 -8.901,-16.202C-17.002,-16.202 -23.204,-13.403 -28.204,-8.402C-35.406,-1.201 -35.206,7.7 -35.206,20.002C-35.206,32.304 -35.406,41.205 -28.204,48.406C-23.204,53.407 -17.002,56.207 -8.901,56.207C-0.8,56.207 5.3,53.407 10.301,48.406C17.502,41.205 17.402,32.304 17.402,20.002C17.402,7.7 17.502,-1.201 10.301,-8.402" style="fill:rgb(0,173,233);fill-rule:nonzero;"/>
    </g>
    <g transform="matrix(4.16667,0,0,4.16667,900.696,549.091)">
        <path d="M0,15.035L1.33,15.035L-2.302,8.088C-0.19,7.729 1.161,6.293 1.161,4.033C1.161,1.415 -0.696,0 -3.146,0L-8.869,0L-8.869,15.035L-7.728,15.035L-7.728,8.109L-3.59,8.109L0,15.035ZM0.021,4.055C0.021,6.146 -1.351,7.095 -3.294,7.095L-7.728,7.095L-7.728,1.014L-3.294,1.014C-1.351,1.014 0.021,1.964 0.021,4.055M5.216,15.035L14.338,15.035L14.338,14.021L6.356,14.021L6.356,7.962L13.155,7.962L13.155,6.948L6.356,6.948L6.356,1.014L14.338,1.014L14.338,0L5.216,0L5.216,15.035ZM26.88,11.002C26.88,9.799 26.395,8.764 25.571,8.088C24.959,7.56 24.305,7.285 22.89,7.095L21.263,6.842C20.419,6.694 19.553,6.356 19.025,5.913C18.497,5.469 18.244,4.814 18.244,3.949C18.244,2.028 19.532,0.845 21.728,0.845C23.503,0.845 24.494,1.394 25.381,2.239L26.121,1.5C24.833,0.38 23.65,-0.127 21.791,-0.127C18.898,-0.127 17.124,1.458 17.124,3.991C17.124,5.174 17.527,6.103 18.308,6.757C18.962,7.328 19.848,7.686 20.989,7.856L22.742,8.13C23.987,8.299 24.347,8.489 24.916,8.932C25.487,9.418 25.741,10.136 25.741,11.044C25.741,13.007 24.262,14.148 21.876,14.148C20.081,14.148 18.962,13.726 17.61,12.375L16.808,13.177C18.181,14.549 19.595,15.162 21.813,15.162C24.959,15.162 26.88,13.557 26.88,11.002M30.66,15.035L39.783,15.035L39.783,14.021L31.8,14.021L31.8,7.962L38.599,7.962L38.599,6.948L31.8,6.948L31.8,1.014L39.783,1.014L39.783,0L30.66,0L30.66,15.035ZM52.346,15.035L53.57,15.035L48.039,0L47.025,0L41.493,15.035L42.717,15.035L44.026,11.382L51.037,11.382L52.346,15.035ZM47.532,1.521L50.678,10.368L44.386,10.368L47.532,1.521ZM65.29,15.035L66.621,15.035L62.989,8.088C65.1,7.729 66.451,6.293 66.451,4.033C66.451,1.415 64.593,0 62.144,0L56.421,0L56.421,15.035L57.562,15.035L57.562,8.109L61.701,8.109L65.29,15.035ZM65.312,4.055C65.312,6.146 63.939,7.095 61.996,7.095L57.562,7.095L57.562,1.014L61.996,1.014C63.939,1.014 65.312,1.964 65.312,4.055M80.177,10.769L79.058,10.769C78.615,12.86 77.094,14.148 75.066,14.148C73.99,14.148 72.976,13.747 72.217,12.986C71.139,11.91 71.055,10.727 71.055,7.517C71.055,4.309 71.139,3.125 72.217,2.048C72.976,1.288 73.99,0.887 75.066,0.887C77.094,0.887 78.572,2.175 79.016,4.266L80.177,4.266C79.67,1.562 77.769,-0.127 75.066,-0.127C73.63,-0.127 72.3,0.423 71.309,1.415C69.936,2.788 69.915,4.118 69.915,7.517C69.915,10.896 69.936,12.248 71.309,13.62C72.3,14.613 73.63,15.162 75.066,15.162C77.728,15.162 79.67,13.472 80.177,10.769M93.29,15.035L94.43,15.035L94.43,0L93.29,0L93.29,6.948L85.456,6.948L85.456,0L84.316,0L84.316,15.035L85.456,15.035L85.456,7.962L93.29,7.962L93.29,15.035ZM113.709,11.002C113.709,9.799 113.223,8.764 112.399,8.088C111.787,7.56 111.132,7.285 109.717,7.095L108.092,6.842C107.247,6.694 106.382,6.356 105.854,5.913C105.326,5.469 105.073,4.814 105.073,3.949C105.073,2.028 106.361,0.845 108.557,0.845C110.33,0.845 111.323,1.394 112.21,2.239L112.948,1.5C111.66,0.38 110.478,-0.127 108.62,-0.127C105.727,-0.127 103.953,1.458 103.953,3.991C103.953,5.174 104.354,6.103 105.135,6.757C105.79,7.328 106.677,7.686 107.818,7.856L109.57,8.13C110.816,8.299 111.175,8.489 111.745,8.932C112.315,9.418 112.568,10.136 112.568,11.044C112.568,13.007 111.09,14.148 108.705,14.148C106.91,14.148 105.79,13.726 104.439,12.375L103.637,13.177C105.009,14.549 106.424,15.162 108.641,15.162C111.787,15.162 113.709,13.557 113.709,11.002M127.202,7.517C127.202,4.118 127.181,2.788 125.808,1.415C124.815,0.423 123.485,-0.127 122.049,-0.127C120.613,-0.127 119.283,0.423 118.291,1.415C116.919,2.788 116.898,4.118 116.898,7.517C116.898,10.896 116.919,12.248 118.291,13.62C119.283,14.613 120.613,15.162 122.049,15.162C123.485,15.162 124.815,14.613 125.808,13.62C127.181,12.248 127.202,10.896 127.202,7.517M126.062,7.517C126.062,10.727 125.977,11.91 124.9,12.986C124.14,13.747 123.126,14.148 122.049,14.148C120.973,14.148 119.959,13.747 119.199,12.986C118.122,11.91 118.037,10.727 118.037,7.517C118.037,4.309 118.122,3.125 119.199,2.048C119.959,1.288 120.973,0.887 122.049,0.887C123.126,0.887 124.14,1.288 124.9,2.048C125.977,3.125 126.062,4.309 126.062,7.517M141.139,10.769L140.019,10.769C139.576,12.86 138.055,14.148 136.028,14.148C134.951,14.148 133.937,13.747 133.178,12.986C132.1,11.91 132.017,10.727 132.017,7.517C132.017,4.309 132.1,3.125 133.178,2.048C133.937,1.288 134.951,0.887 136.028,0.887C138.055,0.887 139.533,2.175 139.977,4.266L141.139,4.266C140.632,1.562 138.731,-0.127 136.028,-0.127C134.592,-0.127 133.262,0.423 132.27,1.415C130.897,2.788 130.876,4.118 130.876,7.517C130.876,10.896 130.897,12.248 132.27,13.62C133.262,14.613 134.592,15.162 136.028,15.162C138.689,15.162 140.632,13.472 141.139,10.769M145.277,15.035L146.418,15.035L146.418,0L145.277,0L145.277,15.035ZM151.273,15.035L160.396,15.035L160.396,14.021L152.414,14.021L152.414,7.962L159.214,7.962L159.214,6.948L152.414,6.948L152.414,1.014L160.396,1.014L160.396,0L151.273,0L151.273,15.035ZM168.039,1.014L172.538,1.014L172.538,0L162.423,0L162.423,1.014L166.899,1.014L166.899,15.035L168.039,15.035L168.039,1.014ZM175.705,15.035L176.846,15.035L176.846,0L175.705,0L175.705,15.035ZM181.702,15.035L190.823,15.035L190.823,14.021L182.842,14.021L182.842,7.962L189.641,7.962L189.641,6.948L182.842,6.948L182.842,1.014L190.823,1.014L190.823,0L181.702,0L181.702,15.035ZM203.366,11.002C203.366,9.799 202.88,8.764 202.057,8.088C201.444,7.56 200.79,7.285 199.376,7.095L197.749,6.842C196.905,6.694 196.039,6.356 195.511,5.913C194.983,5.469 194.73,4.814 194.73,3.949C194.73,2.028 196.018,0.845 198.214,0.845C199.987,0.845 200.98,1.394 201.867,2.239L202.606,1.5C201.317,0.38 200.135,-0.127 198.277,-0.127C195.384,-0.127 193.61,1.458 193.61,3.991C193.61,5.174 194.011,6.103 194.793,6.757C195.447,7.328 196.334,7.686 197.475,7.856L199.227,8.13C200.473,8.299 200.833,8.489 201.402,8.932C201.972,9.418 202.225,10.136 202.225,11.044C202.225,13.007 200.748,14.148 198.362,14.148C196.567,14.148 195.447,13.726 194.096,12.375L193.294,13.177C194.666,14.549 196.081,15.162 198.298,15.162C201.444,15.162 203.366,13.557 203.366,11.002" style="fill:rgb(0,86,148);fill-rule:nonzero;"/>
    </g>
    <g transform="matrix(4.16667,0,0,4.16667,863.743,455.242)">
        <path d="M0,15.035L9.122,15.035L9.122,14.021L1.141,14.021L1.141,7.962L7.94,7.962L7.94,6.948L1.141,6.948L1.141,1.014L9.122,1.014L9.122,0L0,0L0,15.035ZM22.932,10.157L22.932,0L21.791,0L21.791,10.009C21.791,12.502 20.208,14.148 17.78,14.148C15.351,14.148 13.768,12.502 13.768,10.009L13.768,0L12.627,0L12.627,10.157C12.627,13.092 14.76,15.162 17.78,15.162C20.799,15.162 22.932,13.092 22.932,10.157M36.446,15.035L37.776,15.035L34.144,8.088C36.255,7.729 37.608,6.293 37.608,4.033C37.608,1.415 35.75,0 33.3,0L27.578,0L27.578,15.035L28.717,15.035L28.717,8.109L32.856,8.109L36.446,15.035ZM36.467,4.055C36.467,6.146 35.095,7.095 33.152,7.095L28.717,7.095L28.717,1.014L33.152,1.014C35.095,1.014 36.467,1.964 36.467,4.055M51.375,7.517C51.375,4.118 51.353,2.788 49.981,1.415C48.989,0.423 47.658,-0.127 46.223,-0.127C44.787,-0.127 43.457,0.423 42.464,1.415C41.092,2.788 41.07,4.118 41.07,7.517C41.07,10.896 41.092,12.248 42.464,13.62C43.457,14.613 44.787,15.162 46.223,15.162C47.658,15.162 48.989,14.613 49.981,13.62C51.353,12.248 51.375,10.896 51.375,7.517M50.235,7.517C50.235,10.727 50.15,11.91 49.073,12.986C48.313,13.747 47.299,14.148 46.223,14.148C45.146,14.148 44.132,13.747 43.372,12.986C42.295,11.91 42.21,10.727 42.21,7.517C42.21,4.307 42.295,3.125 43.372,2.048C44.132,1.288 45.146,0.887 46.223,0.887C47.299,0.887 48.313,1.288 49.073,2.048C50.15,3.125 50.235,4.307 50.235,7.517M65.692,4.33C65.692,1.562 63.749,0 61.152,0L55.64,0L55.64,15.035L56.78,15.035L56.78,8.658L61.152,8.658C63.749,8.658 65.692,7.074 65.692,4.33M64.551,4.33C64.551,6.588 63.116,7.644 61.025,7.644L56.78,7.644L56.78,1.014L61.025,1.014C63.116,1.014 64.551,2.069 64.551,4.33M69.175,15.035L78.297,15.035L78.297,14.021L70.316,14.021L70.316,7.962L77.115,7.962L77.115,6.948L70.316,6.948L70.316,1.014L78.297,1.014L78.297,0L69.175,0L69.175,15.035ZM90.862,15.035L92.086,15.035L86.554,0L85.54,0L80.007,15.035L81.233,15.035L82.542,11.382L89.553,11.382L90.862,15.035ZM86.047,1.521L89.193,10.368L82.901,10.368L86.047,1.521ZM104.756,15.035L105.896,15.035L105.896,0L104.756,0L104.756,13.029L96.077,0L94.937,0L94.937,15.035L96.077,15.035L96.077,1.964L104.756,15.035ZM126.062,7.517C126.062,4.118 126.041,2.788 124.668,1.415C123.676,0.423 122.346,-0.127 120.91,-0.127C119.474,-0.127 118.143,0.423 117.151,1.415C115.778,2.788 115.757,4.118 115.757,7.517C115.757,10.896 115.778,12.248 117.151,13.62C118.143,14.613 119.474,15.162 120.91,15.162C122.346,15.162 123.676,14.613 124.668,13.62C126.041,12.248 126.062,10.896 126.062,7.517M124.921,7.517C124.921,10.727 124.837,11.91 123.761,12.986C123,13.747 121.987,14.148 120.91,14.148C119.832,14.148 118.819,13.747 118.059,12.986C116.981,11.91 116.898,10.727 116.898,7.517C116.898,4.307 116.981,3.125 118.059,2.048C118.819,1.288 119.832,0.887 120.91,0.887C121.987,0.887 123,1.288 123.761,2.048C124.837,3.125 124.921,4.307 124.921,7.517M140.378,4.33C140.378,1.562 138.435,0 135.838,0L130.327,0L130.327,15.035L131.468,15.035L131.468,8.658L135.838,8.658C138.435,8.658 140.378,7.074 140.378,4.33M139.238,4.33C139.238,6.588 137.802,7.644 135.711,7.644L131.468,7.644L131.468,1.014L135.711,1.014C137.802,1.014 139.238,2.069 139.238,4.33M143.863,15.035L152.985,15.035L152.985,14.021L145.003,14.021L145.003,7.962L151.802,7.962L151.802,6.948L145.003,6.948L145.003,1.014L152.985,1.014L152.985,0L143.863,0L143.863,15.035ZM165.57,15.035L166.9,15.035L163.268,8.088C165.379,7.729 166.731,6.293 166.731,4.033C166.731,1.415 164.872,0 162.423,0L156.7,0L156.7,15.035L157.841,15.035L157.841,8.109L161.98,8.109L165.57,15.035ZM165.591,4.055C165.591,6.146 164.218,7.095 162.275,7.095L157.841,7.095L157.841,1.014L162.275,1.014C164.218,1.014 165.591,1.964 165.591,4.055M179.633,15.035L180.857,15.035L175.326,0L174.312,0L168.779,15.035L170.004,15.035L171.313,11.382L178.324,11.382L179.633,15.035ZM174.819,1.521L177.965,10.368L171.673,10.368L174.819,1.521ZM186.367,1.014L190.865,1.014L190.865,0L180.75,0L180.75,1.014L185.228,1.014L185.228,15.035L186.367,15.035L186.367,1.014ZM194.032,15.035L195.173,15.035L195.173,0L194.032,0L194.032,15.035ZM209.743,7.517C209.743,4.118 209.721,2.788 208.349,1.415C207.356,0.423 206.026,-0.127 204.59,-0.127C203.154,-0.127 201.824,0.423 200.831,1.415C199.458,2.788 199.437,4.118 199.437,7.517C199.437,10.896 199.458,12.248 200.831,13.62C201.824,14.613 203.154,15.162 204.59,15.162C206.026,15.162 207.356,14.613 208.349,13.62C209.721,12.248 209.743,10.896 209.743,7.517M208.602,7.517C208.602,10.727 208.518,11.91 207.441,12.986C206.681,13.747 205.667,14.148 204.59,14.148C203.514,14.148 202.5,13.747 201.739,12.986C200.663,11.91 200.578,10.727 200.578,7.517C200.578,4.307 200.663,3.125 201.739,2.048C202.5,1.288 203.514,0.887 204.59,0.887C205.667,0.887 206.681,1.288 207.441,2.048C208.518,3.125 208.602,4.307 208.602,7.517M223.827,15.035L224.968,15.035L224.968,0L223.827,0L223.827,13.029L215.148,0L214.007,0L214.007,15.035L215.148,15.035L215.148,1.964L223.827,15.035ZM238.671,15.035L239.896,15.035L234.364,0L233.35,0L227.817,15.035L229.043,15.035L230.352,11.382L237.362,11.382L238.671,15.035ZM233.857,1.521L237.003,10.368L230.711,10.368L233.857,1.521ZM242.746,15.035L251.868,15.035L251.868,14.021L243.887,14.021L243.887,0L242.746,0L242.746,15.035Z" style="fill:rgb(0,86,148);fill-rule:nonzero;"/>
    </g>
    <g transform="matrix(4.16667,0,0,4.16667,880.108,419.813)">
        <path d="M0,-13.007L4.498,-13.007L4.498,-14.021L-5.617,-14.021L-5.617,-13.007L-1.141,-13.007L-1.141,1.014L0,1.014L0,-13.007ZM16.64,1.014L17.779,1.014L17.779,-14.021L16.64,-14.021L16.64,-7.073L8.805,-7.073L8.805,-14.021L7.665,-14.021L7.665,1.014L8.805,1.014L8.805,-6.06L16.64,-6.06L16.64,1.014ZM22.636,1.014L31.758,1.014L31.758,0.001L23.776,0.001L23.776,-6.06L30.576,-6.06L30.576,-7.073L23.776,-7.073L23.776,-13.007L31.758,-13.007L31.758,-14.021L22.636,-14.021L22.636,1.014ZM49.917,1.014L51.142,1.014L45.61,-14.021L44.596,-14.021L39.064,1.014L40.289,1.014L41.598,-2.639L48.608,-2.639L49.917,1.014ZM45.103,-12.5L48.249,-3.652L41.957,-3.652L45.103,-12.5ZM62.819,-3.019C62.819,-4.222 62.333,-5.257 61.51,-5.934C60.897,-6.461 60.243,-6.736 58.828,-6.925L57.203,-7.179C56.357,-7.326 55.492,-7.665 54.964,-8.108C54.437,-8.552 54.183,-9.206 54.183,-10.071C54.183,-11.993 55.471,-13.176 57.666,-13.176C59.441,-13.176 60.433,-12.627 61.321,-11.783L62.059,-12.521C60.771,-13.641 59.588,-14.148 57.73,-14.148C54.838,-14.148 53.064,-12.564 53.064,-10.03C53.064,-8.847 53.465,-7.918 54.246,-7.264C54.901,-6.693 55.788,-6.335 56.928,-6.165L58.68,-5.891C59.927,-5.722 60.286,-5.532 60.855,-5.088C61.425,-4.602 61.679,-3.885 61.679,-2.977C61.679,-1.013 60.201,0.127 57.815,0.127C56.02,0.127 54.901,-0.295 53.55,-1.647L52.747,-0.844C54.119,0.528 55.534,1.141 57.751,1.141C60.897,1.141 62.819,-0.465 62.819,-3.019M75.297,-3.019C75.297,-4.222 74.811,-5.257 73.987,-5.934C73.375,-6.461 72.72,-6.736 71.305,-6.925L69.68,-7.179C68.835,-7.326 67.97,-7.665 67.442,-8.108C66.914,-8.552 66.661,-9.206 66.661,-10.071C66.661,-11.993 67.948,-13.176 70.144,-13.176C71.918,-13.176 72.911,-12.627 73.797,-11.783L74.536,-12.521C73.248,-13.641 72.066,-14.148 70.208,-14.148C67.315,-14.148 65.541,-12.564 65.541,-10.03C65.541,-8.847 65.942,-7.918 66.723,-7.264C67.378,-6.693 68.265,-6.335 69.405,-6.165L71.158,-5.891C72.404,-5.722 72.763,-5.532 73.333,-5.088C73.903,-4.602 74.156,-3.885 74.156,-2.977C74.156,-1.013 72.678,0.127 70.293,0.127C68.497,0.127 67.378,-0.295 66.027,-1.647L65.225,-0.844C66.597,0.528 68.011,1.141 70.229,1.141C73.375,1.141 75.297,-0.465 75.297,-3.019M88.79,-6.503C88.79,-9.903 88.768,-11.233 87.396,-12.606C86.403,-13.599 85.073,-14.148 83.637,-14.148C82.201,-14.148 80.871,-13.599 79.878,-12.606C78.507,-11.233 78.484,-9.903 78.484,-6.503C78.484,-3.125 78.507,-1.774 79.878,-0.401C80.871,0.592 82.201,1.141 83.637,1.141C85.073,1.141 86.403,0.592 87.396,-0.401C88.768,-1.774 88.79,-3.125 88.79,-6.503M87.649,-6.503C87.649,-3.293 87.565,-2.111 86.488,-1.034C85.728,-0.274 84.714,0.127 83.637,0.127C82.561,0.127 81.547,-0.274 80.786,-1.034C79.71,-2.111 79.625,-3.293 79.625,-6.503C79.625,-9.713 79.71,-10.896 80.786,-11.972C81.547,-12.733 82.561,-13.134 83.637,-13.134C84.714,-13.134 85.728,-12.733 86.488,-11.972C87.565,-10.896 87.649,-9.713 87.649,-6.503M102.726,-3.251L101.607,-3.251C101.164,-1.161 99.643,0.127 97.616,0.127C96.539,0.127 95.525,-0.274 94.765,-1.034C93.688,-2.111 93.603,-3.293 93.603,-6.503C93.603,-9.713 93.688,-10.896 94.765,-11.972C95.525,-12.733 96.539,-13.134 97.616,-13.134C99.643,-13.134 101.121,-11.846 101.565,-9.755L102.726,-9.755C102.22,-12.458 100.319,-14.148 97.616,-14.148C96.18,-14.148 94.85,-13.599 93.857,-12.606C92.485,-11.233 92.464,-9.903 92.464,-6.503C92.464,-3.125 92.485,-1.774 93.857,-0.401C94.85,0.592 96.18,1.141 97.616,1.141C100.277,1.141 102.22,-0.548 102.726,-3.251M106.864,1.014L108.005,1.014L108.005,-14.021L106.864,-14.021L106.864,1.014ZM121.709,1.014L122.934,1.014L117.401,-14.021L116.387,-14.021L110.856,1.014L112.08,1.014L113.389,-2.639L120.4,-2.639L121.709,1.014ZM116.894,-12.5L120.04,-3.652L113.748,-3.652L116.894,-12.5ZM128.444,-13.007L132.941,-13.007L132.941,-14.021L122.827,-14.021L122.827,-13.007L127.303,-13.007L127.303,1.014L128.444,1.014L128.444,-13.007ZM136.109,1.014L137.25,1.014L137.25,-14.021L136.109,-14.021L136.109,1.014ZM151.818,-6.503C151.818,-9.903 151.798,-11.233 150.424,-12.606C149.433,-13.599 148.102,-14.148 146.666,-14.148C145.23,-14.148 143.9,-13.599 142.908,-12.606C141.535,-11.233 141.514,-9.903 141.514,-6.503C141.514,-3.125 141.535,-1.774 142.908,-0.401C143.9,0.592 145.23,1.141 146.666,1.141C148.102,1.141 149.433,0.592 150.424,-0.401C151.798,-1.774 151.818,-3.125 151.818,-6.503M150.678,-6.503C150.678,-3.293 150.594,-2.111 149.516,-1.034C148.757,-0.274 147.743,0.127 146.666,0.127C145.589,0.127 144.575,-0.274 143.816,-1.034C142.738,-2.111 142.655,-3.293 142.655,-6.503C142.655,-9.713 142.738,-10.896 143.816,-11.972C144.575,-12.733 145.589,-13.134 146.666,-13.134C147.743,-13.134 148.757,-12.733 149.516,-11.972C150.594,-10.896 150.678,-9.713 150.678,-6.503M165.903,1.014L167.043,1.014L167.043,-14.021L165.903,-14.021L165.903,-0.992L157.225,-14.021L156.084,-14.021L156.084,1.014L157.225,1.014L157.225,-12.057L165.903,1.014ZM187.209,-6.503C187.209,-9.903 187.188,-11.233 185.815,-12.606C184.823,-13.599 183.492,-14.148 182.056,-14.148C180.62,-14.148 179.29,-13.599 178.297,-12.606C176.925,-11.233 176.904,-9.903 176.904,-6.503C176.904,-3.125 176.925,-1.774 178.297,-0.401C179.29,0.592 180.62,1.141 182.056,1.141C183.492,1.141 184.823,0.592 185.815,-0.401C187.188,-1.774 187.209,-3.125 187.209,-6.503M186.068,-6.503C186.068,-3.293 185.983,-2.111 184.907,-1.034C184.147,-0.274 183.134,0.127 182.056,0.127C180.98,0.127 179.966,-0.274 179.205,-1.034C178.129,-2.111 178.044,-3.293 178.044,-6.503C178.044,-9.713 178.129,-10.896 179.205,-11.972C179.966,-12.733 180.98,-13.134 182.056,-13.134C183.134,-13.134 184.147,-12.733 184.907,-11.972C185.983,-10.896 186.068,-9.713 186.068,-6.503M192.614,-13.007L200.597,-13.007L200.597,-14.021L191.475,-14.021L191.475,1.014L192.614,1.014L192.614,-5.807L199.414,-5.807L199.414,-6.819L192.614,-6.819L192.614,-13.007Z" style="fill:rgb(0,86,148);fill-rule:nonzero;"/>
    </g>
</svg>
