<svg version="1.1" id="Layer_1" xmlns="http://www.w3.org/2000/svg" xmlns:xlink="http://www.w3.org/1999/xlink" x="0px" y="0px" width="100%" viewBox="0 0 1091 327" enable-background="new 0 0 1091 327" xml:space="preserve">
<path fill="#FFFEFE" opacity="1.000000" stroke="none" d="
M1092.000000,51.000000 
	C1092.000000,143.252487 1092.000000,235.504990 1092.000000,328.000000 
	C1017.979309,328.000000 943.958313,328.000000 869.690063,327.718933 
	C876.020996,325.870514 882.014038,322.610413 882.630554,315.565796 
	C883.535339,305.226593 882.863586,294.749481 882.863586,284.198059 
	C878.762085,284.198059 875.067688,284.198059 870.997864,284.198059 
	C870.997864,292.713959 871.014099,300.839905 870.992615,308.965790 
	C870.976379,315.089691 868.752380,317.215118 862.498047,317.168365 
	C856.657898,317.124695 854.764771,315.108276 854.728027,308.816803 
	C854.700806,304.159058 854.721313,299.501068 854.721008,294.843170 
	C854.720703,291.278625 854.721008,287.714081 854.721008,284.045288 
	C850.192627,284.045288 846.583374,284.045288 842.757141,284.045288 
	C842.757141,294.195618 842.543823,304.115753 842.835266,314.021027 
	C843.016846,320.191406 847.042114,323.889252 852.465942,326.194489 
	C853.962769,326.830627 855.487854,327.399994 857.000000,328.000000 
	C845.645752,328.000000 834.291565,328.000000 822.664917,327.704346 
	C833.070557,323.923553 835.967041,319.973969 835.981689,308.853149 
	C835.986511,305.188324 836.064087,301.520172 835.937683,297.859436 
	C835.723206,291.649994 832.880188,287.035980 827.129883,284.490387 
	C819.592468,281.153625 811.936218,281.135010 804.348633,284.285400 
	C799.574524,286.267578 796.079163,289.837860 795.659607,295.019501 
	C795.125916,301.611603 795.030151,308.319153 795.610535,314.900696 
	C796.299194,322.710175 802.805786,325.382080 809.000000,328.000000 
	C782.312439,328.000000 755.624878,328.000000 728.679626,327.717102 
	C743.082520,322.747467 744.561523,314.788849 742.279297,299.372986 
	C735.283325,300.533325 728.293762,301.692596 720.733948,302.946442 
	C721.361694,306.361877 721.883545,309.200897 722.461182,312.343811 
	C725.293518,312.343811 727.653931,312.343811 730.455383,312.343811 
	C728.117676,317.467773 724.161682,317.671143 720.174866,316.924438 
	C716.335693,316.205353 714.091431,313.671356 714.128235,309.517975 
	C714.147461,307.351929 714.122742,305.185547 714.127502,303.019318 
	C714.146484,294.395905 717.934021,291.952148 726.625122,293.415894 
	C731.199524,294.186310 736.110291,292.959991 741.490662,292.592896 
	C736.371704,284.545807 727.437805,280.705292 719.063477,282.314819 
	C711.026367,283.859528 703.830627,287.579376 702.779602,296.258484 
	C701.635193,305.708893 699.277405,316.148834 708.808411,323.484924 
	C710.369080,324.686218 712.258118,325.463196 714.003967,326.420685 
	C714.993713,326.963501 716.000732,327.474609 717.000000,328.000000 
	C673.312439,328.000000 629.624878,328.000000 585.648071,327.680695 
	C587.695190,326.531586 590.122375,325.892609 592.349060,324.832581 
	C597.120972,322.560760 599.825378,318.629913 599.737671,313.351501 
	C599.656738,308.483978 596.480591,305.400238 592.217102,303.708557 
	C588.378479,302.185486 584.312805,301.244415 580.386353,299.929840 
	C577.862610,299.084930 575.409729,298.028595 572.925049,297.067078 
	C580.424500,291.272675 588.084656,294.031433 596.105713,294.742889 
	C596.700989,291.686310 597.283447,288.695465 597.942200,285.312866 
	C589.102112,282.515350 580.465759,281.844635 571.784119,284.278381 
	C564.836060,286.226135 561.142029,290.639587 560.965820,296.365509 
	C560.793457,301.965240 563.844299,305.608459 571.208252,308.130707 
	C575.282593,309.526184 579.528137,310.424377 583.592590,311.844147 
	C584.935120,312.313080 585.952393,313.712952 587.118408,314.687134 
	C585.822205,315.527985 584.611206,316.863403 583.211670,317.104523 
	C580.477844,317.575531 577.600525,317.775330 574.852051,317.467316 
	C570.793640,317.012512 566.795837,316.016418 562.792297,315.254639 
	C560.268616,324.529907 560.269775,324.526093 569.300659,327.334747 
	C569.576050,327.420441 569.768738,327.772278 570.000000,328.000000 
	C547.979126,328.000000 525.958191,328.000000 503.711365,327.729492 
	C507.729675,325.821381 511.973938,324.183777 516.767151,322.334320 
	C514.504639,318.837830 512.909302,316.372406 511.345917,313.956329 
	C503.940277,315.409332 496.540070,321.042664 489.219452,312.067261 
	C498.372040,310.601410 506.560211,309.378326 514.700806,307.894043 
	C515.969482,307.662750 517.828369,306.408020 518.049133,305.343445 
	C520.425903,293.880585 514.877869,285.571716 503.211914,282.698151 
	C489.181763,279.242279 477.808228,288.016571 477.800964,302.302643 
	C477.799622,304.968719 477.933319,307.642456 477.778137,310.299438 
	C477.323517,318.083252 481.633972,322.689575 488.028473,325.919708 
	C489.627838,326.727600 491.339783,327.312592 493.000000,328.000000 
	C467.312439,328.000000 441.624878,328.000000 415.666748,327.705841 
	C421.839691,325.639618 427.895142,322.571899 428.444458,315.377014 
	C429.234375,305.031128 428.646088,294.580048 428.646088,284.265930 
	C424.563141,284.265930 420.859833,284.265930 416.876892,284.265930 
	C416.876892,292.535492 416.888275,300.343628 416.873444,308.151672 
	C416.860443,315.014771 414.918243,317.110260 408.579590,317.164185 
	C402.259888,317.217957 400.162109,315.028839 400.127258,308.304901 
	C400.108276,304.644562 400.123230,300.983978 400.123108,297.323517 
	C400.122955,292.906372 400.123077,288.489258 400.123077,284.199280 
	C395.678741,284.199280 392.112732,284.199280 388.206909,284.199280 
	C388.206909,294.209503 387.838196,303.846100 388.318512,313.440186 
	C388.735626,321.772247 395.064301,325.364319 402.000000,328.000000 
	C390.645782,328.000000 379.291534,328.000000 367.664093,327.694336 
	C371.405304,325.711548 375.419769,324.034454 379.881653,322.170410 
	C377.671936,318.715332 376.094147,316.248322 374.620728,313.944550 
	C367.059540,315.451874 359.672485,321.000427 352.385834,312.085236 
	C360.547607,310.765228 367.742493,309.688751 374.903137,308.419006 
	C382.149078,307.134155 382.134216,307.050415 381.772614,299.685089 
	C381.253082,289.104279 372.417389,281.810425 360.438171,282.073456 
	C348.863098,282.327637 340.980560,289.649902 340.909393,300.230957 
	C340.887054,303.556030 340.999146,306.884583 340.886719,310.205994 
	C340.619995,318.085022 344.842682,322.902588 351.526031,326.081940 
	C352.990143,326.778442 354.507263,327.363586 356.000000,328.000000 
	C237.763824,328.000000 119.527664,328.000000 1.000000,328.000000 
	C1.000000,268.979431 1.000000,209.958374 1.336745,150.683167 
	C6.050754,184.121277 20.669249,212.480698 45.880329,235.380783 
	C45.804657,233.327652 45.379459,231.422089 44.726658,229.597992 
	C39.985794,216.350845 36.900051,202.801163 36.747211,188.649292 
	C36.558334,171.160370 36.052216,153.673233 36.015121,136.184616 
	C35.886459,75.517609 87.996490,29.038759 148.136627,36.975491 
	C187.318146,42.146297 214.937195,63.991180 228.710785,100.852249 
	C242.348206,137.348846 235.615204,171.568680 210.027786,201.008575 
	C203.790909,208.184479 200.922180,214.708115 201.542160,223.856644 
	C202.165298,233.051865 201.679199,242.322266 201.679199,252.337540 
	C203.634918,251.262085 204.782959,250.676788 205.886642,250.017242 
	C251.328629,222.862473 277.113556,167.703003 268.794617,115.459778 
	C260.089752,60.793125 220.526825,17.842260 166.755508,4.735660 
	C161.197052,3.380802 155.586426,2.240079 150.000000,0.999999 
	C464.000000,1.000000 778.000000,1.000000 1092.000000,1.000000 
	C1092.000000,9.403561 1092.000000,17.733114 1091.539795,26.629408 
	C1062.840210,27.196148 1034.600952,27.196148 1006.378296,27.196148 
	C1006.378296,35.463875 1006.378296,43.012794 1006.378296,51.011700 
	C1016.330750,51.011700 1025.909790,51.011700 1036.057129,51.011700 
	C1036.057129,75.160728 1036.057129,98.854553 1036.057129,122.568092 
	C1045.046753,122.568092 1053.447876,122.568092 1062.462524,122.568092 
	C1062.462524,98.547501 1062.462524,74.853889 1062.462524,51.000000 
	C1072.721436,51.000000 1082.360718,51.000000 1092.000000,51.000000 
M177.972183,237.530106 
	C177.972183,233.783081 177.972183,230.036072 177.972183,227.121414 
	C166.765045,229.642456 156.061386,232.629807 145.159744,234.393311 
	C113.142876,239.572540 93.266914,215.171448 94.518913,191.074234 
	C95.399460,174.126282 94.651276,157.095505 94.720558,140.102081 
	C94.734764,136.616638 94.744751,133.048828 95.446716,129.662003 
	C99.662941,109.319641 117.236313,96.046051 138.385757,97.005638 
	C157.872131,97.889771 174.019287,113.536751 176.254257,133.701126 
	C177.227509,142.481964 176.040863,144.526703 167.997894,147.717300 
	C152.848206,153.727127 137.670410,159.667160 122.566711,165.790161 
	C121.171150,166.355911 119.245842,168.005295 119.219772,169.187958 
	C118.967163,180.646774 119.068077,192.113403 119.068077,204.044617 
	C120.905045,203.457657 122.316353,203.089645 123.665756,202.563034 
	C142.566025,195.186996 161.299286,187.346390 180.392654,180.511261 
	C203.208099,172.343704 215.717072,152.750137 210.510468,125.209824 
	C202.454468,82.597725 165.615677,56.649525 122.538567,63.033436 
	C89.260658,67.965134 61.230770,98.366959 60.061363,131.945480 
	C59.296467,153.908905 59.083366,175.952759 60.033470,197.899536 
	C61.278328,226.654877 75.479385,248.188644 100.862419,261.572906 
	C125.230034,274.421814 150.554550,270.924408 175.704178,263.684967 
	C176.772034,263.377563 177.823700,260.970062 177.870819,259.508270 
	C178.096100,252.518127 177.972046,245.516724 177.972183,237.530106 
M337.892700,53.642151 
	C337.594574,64.605911 337.327484,75.570618 336.990295,86.533180 
	C336.584076,99.738190 342.543335,109.622177 353.185638,116.777412 
	C366.276581,125.578995 380.748749,126.890823 395.807983,123.527451 
	C405.414276,121.381958 414.333923,117.637550 422.303955,111.343948 
	C418.486420,105.193550 414.917938,99.444435 411.777344,94.384628 
	C402.154541,96.926407 393.286560,99.661842 384.241333,101.546608 
	C375.337158,103.401985 366.152954,98.008430 363.648346,89.718803 
	C384.653351,86.378860 405.571381,83.052750 426.936859,79.655495 
	C426.936859,73.944427 426.852203,68.481544 426.953583,63.022106 
	C427.205292,49.468472 421.383392,38.884605 409.907135,32.321121 
	C403.290771,28.537090 395.578064,25.790358 388.045746,24.656441 
	C367.438934,21.554285 343.735840,32.381454 337.892700,53.642151 
M642.247009,103.101173 
	C645.047852,106.582123 647.401184,110.581284 650.727661,113.453484 
	C664.439575,125.293083 680.525513,127.218964 697.628784,123.501289 
	C707.235474,121.413124 716.087341,117.543396 724.045959,111.312088 
	C720.061096,105.111664 716.331116,99.307892 713.203613,94.441498 
	C703.426819,97.001602 694.702026,99.652603 685.811523,101.510925 
	C676.970581,103.358894 668.170410,98.252556 665.077454,89.777199 
	C686.244629,86.401955 707.292847,83.045685 728.457520,79.670837 
	C728.457520,72.170143 728.768188,65.189613 728.380493,58.248081 
	C727.871521,49.134079 723.415466,41.847870 716.658447,35.876862 
	C700.427612,21.533983 672.915405,20.053135 654.815674,32.665947 
	C644.311523,39.985764 638.311707,49.692863 638.791504,62.967922 
	C639.091980,71.280968 638.491882,79.634834 638.984131,87.929535 
	C639.273010,92.798134 640.911438,97.586655 642.247009,103.101173 
M865.998352,87.399200 
	C869.636658,88.559280 873.404846,89.433067 876.858398,91.000275 
	C878.584900,91.783707 881.001221,93.989784 880.842529,95.272446 
	C880.622559,97.050331 878.472473,99.699219 876.798950,99.994812 
	C869.668945,101.254105 862.326172,102.866386 855.218628,102.315834 
	C845.534546,101.565697 835.994019,98.962486 826.005737,97.081093 
	C824.859863,103.439133 823.571716,110.586319 822.257874,117.876411 
	C823.583130,118.461044 824.602661,118.976898 825.667297,119.370445 
	C839.669128,124.546310 854.182678,126.059059 868.937439,124.717972 
	C879.135620,123.791031 888.967468,121.243797 897.310425,114.792450 
	C912.647644,102.932793 911.326355,82.435524 894.405334,73.199310 
	C889.492615,70.517746 884.041809,68.696243 878.671814,67.007866 
	C870.590576,64.467049 862.294800,62.600143 854.246277,59.969479 
	C852.228394,59.309963 850.805237,56.831017 849.108765,55.188286 
	C850.922241,53.685600 852.668152,52.087833 854.582703,50.727348 
	C855.341614,50.188042 856.470093,49.978096 857.438538,49.954346 
	C866.061340,49.742886 874.698303,49.262344 883.305542,49.571751 
	C888.865356,49.771610 894.382446,51.161125 900.230408,52.065742 
	C901.489746,44.832573 902.679504,37.999363 903.926697,30.835716 
	C888.474243,26.032221 872.954102,24.383184 857.340881,26.736261 
	C849.941589,27.851410 842.460632,30.452608 835.791748,33.886108 
	C826.911133,38.458282 822.208557,46.638660 822.353699,56.823807 
	C822.500305,67.107208 828.263062,74.237801 837.339966,77.972374 
	C846.363464,81.684990 855.899536,84.151726 865.998352,87.399200 
M531.255371,62.500046 
	C531.255371,50.907230 531.255371,39.314415 531.255371,27.530130 
	C522.132019,27.530130 513.717041,27.530130 504.679382,27.530130 
	C504.679382,29.583313 504.679382,31.361614 504.679352,33.139915 
	C504.678955,50.797882 504.727478,68.456047 504.656281,86.113724 
	C504.623535,94.234352 502.008759,98.738556 494.819885,100.290176 
	C489.473846,101.444054 483.564270,101.554085 478.182739,100.587135 
	C471.159088,99.325142 468.087036,94.406296 468.076294,87.142937 
	C468.049713,69.151840 468.067108,51.160683 468.066803,33.169548 
	C468.066772,31.382166 468.066803,29.594784 468.066803,27.531271 
	C459.146088,27.531271 450.743958,27.531271 442.161499,27.531271 
	C441.999603,28.568569 441.768555,29.359333 441.768463,30.150127 
	C441.765839,50.639645 441.517944,71.134148 441.896576,91.616982 
	C442.161224,105.932877 449.793396,115.730415 462.895325,120.997314 
	C475.798584,126.184319 489.213593,126.523071 502.622070,123.306038 
	C522.303406,118.583977 531.241211,107.046555 531.254333,86.988480 
	C531.259521,79.159004 531.255493,71.329529 531.255371,62.500046 
M930.827820,79.292908 
	C924.469177,93.635254 918.110474,107.977600 911.493713,122.902000 
	C918.309021,122.902000 924.189148,122.369202 929.928467,123.040718 
	C936.670410,123.829552 940.645752,121.629608 942.176941,114.997383 
	C942.991577,111.468979 945.360291,110.636749 948.842102,110.730408 
	C957.826965,110.972084 966.852234,111.253265 975.803833,110.656326 
	C981.802063,110.256332 985.045959,112.080750 986.513245,117.906113 
	C986.963867,119.695435 988.762451,122.443741 990.058838,122.510178 
	C998.283569,122.931664 1006.540466,122.724327 1015.131897,122.724327 
	C1014.892334,121.417053 1014.896423,120.746231 1014.648560,120.187065 
	C1001.311584,90.095741 987.971375,60.005756 974.527771,29.962078 
	C974.021301,28.830263 972.509216,27.415924 971.433105,27.387924 
	C963.187439,27.173386 954.933777,27.270105 945.539307,27.270105 
	C950.441284,33.437504 949.122498,38.683620 946.336914,44.430706 
	C940.902283,55.643166 936.132874,67.178078 930.827820,79.292908 
M573.453735,88.499878 
	C573.453735,99.890091 573.453735,111.280304 573.453735,122.551697 
	C582.883240,122.551697 591.301270,122.551697 600.118042,122.551697 
	C600.118042,98.604355 600.118042,75.003929 600.118042,50.752945 
	C610.223633,50.752945 619.936829,50.752945 629.669678,50.752945 
	C629.669678,42.663666 629.669678,35.233685 629.669678,27.602369 
	C601.016541,27.602369 572.635315,27.602369 544.363770,27.602369 
	C544.363770,35.520187 544.363770,43.073097 544.363770,51.091682 
	C554.221558,51.091682 563.651672,51.091682 573.454407,51.091682 
	C573.454407,63.547504 573.454407,75.523682 573.453735,88.499878 
M695.963196,203.482300 
	C699.785400,192.297882 703.607605,181.113449 707.879089,168.614243 
	C708.975769,171.602982 709.565002,173.110107 710.084961,174.640762 
	C717.681519,197.003708 725.323059,219.351700 732.791748,241.757294 
	C733.761292,244.665878 734.847717,246.206406 738.233643,246.005493 
	C741.345093,245.820847 743.638977,245.946777 744.989990,242.048904 
	C755.175842,212.661102 765.669678,183.380096 776.042053,154.056824 
	C776.551514,152.616577 776.826233,151.093323 777.235657,149.510452 
	C766.475525,148.497116 766.474731,148.496841 763.306824,157.739090 
	C755.864380,179.451996 748.427979,201.166992 740.969727,222.874435 
	C740.469727,224.329834 739.807739,225.729584 738.833679,228.097000 
	C737.912354,225.464951 737.350647,223.938904 736.841919,222.395416 
	C729.240601,199.333252 721.578918,176.290497 714.127930,153.179840 
	C713.090759,149.962860 711.749146,148.736984 708.257935,148.822769 
	C705.000122,148.902802 703.198242,149.535324 702.175842,152.952866 
	C699.316284,162.510941 696.077698,171.955994 692.964172,181.437592 
	C687.911560,196.824081 682.839417,212.204163 677.490723,228.451935 
	C676.659424,226.330261 676.138611,225.130508 675.713623,223.897720 
	C667.583191,200.311981 659.500610,176.709564 651.259705,153.162537 
	C650.716003,151.609024 649.158264,149.601517 647.766785,149.321152 
	C644.827393,148.728882 641.685608,149.140854 638.601013,149.140854 
	C638.685181,150.191864 638.642212,150.540009 638.746826,150.835983 
	C649.606262,181.572998 660.527832,212.288254 671.279907,243.062744 
	C672.579834,246.783356 675.272766,245.611206 677.729065,245.937378 
	C680.526550,246.308884 681.875061,245.193054 682.760071,242.513000 
	C686.984070,229.721985 691.394043,216.992401 695.963196,203.482300 
M742.796204,63.499977 
	C742.796204,83.206902 742.796204,102.913826 742.796204,122.675026 
	C765.247437,122.675026 786.830627,122.675026 808.778198,122.675026 
	C810.127136,114.956314 811.447754,107.399727 812.893127,99.129128 
	C797.936523,99.129128 783.732727,99.129128 769.096313,99.129128 
	C769.096313,74.962372 769.096313,51.398914 769.096313,27.672367 
	C760.130554,27.672367 751.624146,27.672367 742.796021,27.672367 
	C742.796021,39.564156 742.796021,51.032063 742.796204,63.499977 
M951.864563,181.060715 
	C955.708496,164.693085 947.580566,152.088928 930.405151,150.214783 
	C917.234436,148.777618 903.837341,149.405182 890.540405,149.142380 
	C887.443726,149.081192 884.344788,149.133347 881.339355,149.133347 
	C881.339355,181.524506 881.339355,213.204956 881.339355,245.075592 
	C895.397644,245.075592 909.041321,245.081528 922.684998,245.069458 
	C924.848267,245.067535 927.109192,245.375626 929.155823,244.863937 
	C934.754456,243.464172 940.596680,242.398361 945.732239,239.930405 
	C954.477661,235.727631 958.304077,228.098175 958.181824,218.356400 
	C958.063904,208.962006 953.263855,202.784378 945.304077,198.612335 
	C943.275330,197.549011 941.155579,196.659302 940.340820,196.279175 
	C944.046082,191.513474 947.817749,186.662323 951.864563,181.060715 
M337.121368,202.177338 
	C340.504700,226.958099 355.428741,242.721161 378.931915,246.338440 
	C398.033203,249.278244 417.355377,240.432907 427.350189,224.173508 
	C438.038574,206.785767 437.443420,183.794098 425.885498,167.592773 
	C414.670532,151.872177 394.775696,144.345337 375.613373,148.573257 
	C351.160034,153.968552 336.428650,174.103470 337.121368,202.177338 
M480.344086,170.151215 
	C476.223907,164.918549 471.638428,159.978577 468.111969,154.372437 
	C464.445099,148.543106 459.705322,148.435242 454.034241,149.654114 
	C454.034241,181.450073 454.034241,213.018753 454.034241,244.668457 
	C457.541656,244.668457 460.739990,244.668457 464.239868,244.668457 
	C464.239868,218.858002 464.239868,193.450333 464.239868,167.016006 
	C465.896545,168.946808 466.964294,170.104935 467.937195,171.337952 
	C485.985840,194.212555 504.165436,216.986542 521.944763,240.068741 
	C525.563782,244.767090 529.290161,246.054260 534.502686,244.583023 
	C534.502686,212.721405 534.502686,181.036652 534.502686,149.580505 
	C530.825012,149.580505 527.595886,149.580505 523.802368,149.580505 
	C523.802368,174.810638 523.802368,199.600266 523.802368,225.388580 
	C508.991852,206.557297 494.893982,188.632126 480.344086,170.151215 
M799.622925,149.134064 
	C797.538269,149.134064 795.453552,149.134064 793.425537,149.134064 
	C793.425537,181.533585 793.425537,213.118469 793.425537,244.686081 
	C816.821167,244.686081 839.880920,244.686081 862.799805,244.686081 
	C862.799805,241.370255 862.799805,238.448059 862.799805,234.940704 
	C843.065186,234.940704 823.682556,234.940704 804.415039,234.940704 
	C804.415039,223.590942 804.415039,212.850845 804.415039,201.641296 
	C821.867981,201.641296 838.950317,201.641296 856.278564,201.641296 
	C856.278564,198.238388 856.278564,195.316360 856.278564,191.780670 
	C838.790955,191.780670 821.570129,191.780670 804.376221,191.780670 
	C804.376221,180.588181 804.376221,170.013290 804.376221,158.864563 
	C823.924866,158.864563 843.144104,158.864563 862.350342,158.864563 
	C862.350342,155.361191 862.350342,152.451584 862.350342,149.134155 
	C841.532898,149.134155 821.064636,149.134155 799.622925,149.134064 
M575.594910,191.883453 
	C573.485413,191.883453 571.375916,191.883453 569.114929,191.883453 
	C569.114929,180.693390 569.114929,170.129471 569.114929,158.905640 
	C588.588562,158.905640 607.776855,158.905640 626.781372,158.905640 
	C626.781372,155.318115 626.781372,152.407852 626.781372,149.481415 
	C603.683228,149.481415 580.965820,149.481415 558.311890,149.481415 
	C558.311890,181.516006 558.311890,213.201309 558.311890,244.805725 
	C581.663330,244.805725 604.585327,244.805725 627.588135,244.805725 
	C627.588135,241.493271 627.588135,238.464508 627.588135,234.879425 
	C607.820679,234.879425 588.440918,234.879425 569.228027,234.879425 
	C569.228027,223.582748 569.228027,212.857254 569.228027,201.607941 
	C586.687683,201.607941 603.743652,201.607941 620.735840,201.607941 
	C620.735840,198.137543 620.735840,195.208801 620.735840,191.883362 
	C605.815491,191.883362 591.195618,191.883362 575.594910,191.883453 
M761.913635,324.216370 
	C761.913635,320.603638 761.913635,316.990936 761.913635,313.501617 
	C770.823547,312.059601 770.828735,312.057251 774.092590,319.230408 
	C774.849731,320.894440 775.279846,322.799500 776.373230,324.190521 
	C777.334412,325.413544 778.930847,326.649536 780.392700,326.858368 
	C783.287537,327.271912 786.283142,326.980499 789.929749,326.980499 
	C788.050842,322.609833 786.232605,318.896332 784.905212,315.014954 
	C784.434937,313.639771 784.557129,311.269226 785.442871,310.356934 
	C789.856628,305.810699 790.494141,300.356934 789.758301,294.585266 
	C789.037537,288.932373 785.648071,284.340912 781.201050,284.165588 
	C770.958801,283.761749 760.689819,284.037476 750.224487,284.037476 
	C750.224487,298.475433 750.224487,312.505707 750.224487,327.850372 
	C754.488831,326.858185 758.183777,325.998474 761.913635,324.216370 
M889.908264,308.499451 
	C889.908264,314.576019 889.908264,320.652588 889.908264,326.631775 
	C894.348694,326.631775 897.926819,326.631775 901.920471,326.631775 
	C901.920471,324.153656 901.920471,322.021454 901.920471,319.889252 
	C901.920471,317.645569 901.920471,315.401917 901.920471,312.884918 
	C907.096069,312.884918 911.417603,312.755341 915.728271,312.916565 
	C921.588318,313.135773 926.225159,311.360657 928.656006,305.643524 
	C931.311462,299.398193 930.220764,290.734192 926.128906,286.861603 
	C924.851135,285.652283 923.071594,284.237335 921.492493,284.201385 
	C911.097839,283.964752 900.695190,284.079285 889.908081,284.079285 
	C889.908081,292.234955 889.908081,299.867310 889.908264,308.499451 
M613.582520,299.053009 
	C609.597046,308.100037 605.611511,317.147095 601.103699,327.379852 
	C606.170227,326.879913 612.497437,327.704681 613.359619,325.907501 
	C616.329102,319.718231 621.086914,321.330170 625.593933,321.238068 
	C629.709961,321.153992 634.491089,319.871185 636.017395,325.892273 
	C636.138916,326.371704 637.345703,326.836823 638.062500,326.859772 
	C641.289734,326.963318 644.522217,326.904938 648.660339,326.904938 
	C642.245117,312.502869 636.283936,299.046112 630.201416,285.644409 
	C629.825073,284.815247 628.524353,283.969513 627.599670,283.904907 
	C624.499878,283.688354 621.375549,283.822693 619.557556,283.822693 
	C617.424744,289.303436 615.662659,293.831482 613.582520,299.053009 
M677.469727,294.123138 
	C679.228088,294.045715 680.986450,293.968262 682.698975,293.892853 
	C682.698975,290.286774 682.698975,287.232208 682.698975,284.090759 
	C669.750854,284.090759 657.197876,284.090759 644.348938,284.090759 
	C644.348938,287.433167 644.348938,290.487610 644.348938,294.123108 
	C647.039612,294.123108 649.521179,294.384491 651.926758,294.068451 
	C656.864075,293.419830 658.128174,295.514923 657.938904,300.210663 
	C657.586792,308.948944 657.837891,317.711517 657.837891,326.566284 
	C662.149780,326.566284 665.832336,326.566284 670.072144,326.566284 
	C670.072144,315.617493 670.072144,305.078064 670.072144,294.123352 
	C672.596069,294.123352 674.559265,294.123352 677.469727,294.123138 
M460.055725,309.502686 
	C460.055725,304.564728 460.055725,299.626770 460.055725,294.091370 
	C464.824768,294.091370 469.050446,294.091370 473.463379,294.091370 
	C473.463379,290.423737 473.463379,287.372314 473.463379,284.249512 
	C460.450989,284.249512 447.786530,284.249512 435.262970,284.249512 
	C435.262970,287.746521 435.262970,290.791351 435.262970,294.269470 
	C439.643250,294.269470 443.569916,294.269470 448.163269,294.269470 
	C448.163269,305.380432 448.163269,316.059967 448.163269,326.658447 
	C452.436310,326.658447 456.021454,326.658447 460.055786,326.658447 
	C460.055786,321.064789 460.055786,315.782532 460.055725,309.502686 
M543.475708,326.983673 
	C547.106750,326.983673 550.737793,326.983673 554.755493,326.983673 
	C555.304138,323.275238 555.790955,319.984924 556.386963,315.956360 
	C549.374023,315.956360 543.313171,315.956360 536.715210,315.956360 
	C536.715210,304.943756 536.715210,294.542053 536.715210,284.138977 
	C532.555664,284.138977 528.972900,284.138977 525.240601,284.138977 
	C525.240601,298.508148 525.240601,312.536560 525.240601,326.983673 
	C531.227051,326.983673 536.856201,326.983673 543.475708,326.983673 
z"></path>
<path fill="#FA515D" opacity="1.000000" stroke="none" d="
M149.531342,0.999999 
	C155.586426,2.240079 161.197052,3.380802 166.755508,4.735660 
	C220.526825,17.842260 260.089752,60.793125 268.794617,115.459778 
	C277.113556,167.703003 251.328629,222.862473 205.886642,250.017242 
	C204.782959,250.676788 203.634918,251.262085 201.679199,252.337540 
	C201.679199,242.322266 202.165298,233.051865 201.542160,223.856644 
	C200.922180,214.708115 203.790909,208.184479 210.027786,201.008575 
	C235.615204,171.568680 242.348206,137.348846 228.710785,100.852249 
	C214.937195,63.991180 187.318146,42.146297 148.136627,36.975491 
	C87.996490,29.038759 35.886459,75.517609 36.015121,136.184616 
	C36.052216,153.673233 36.558334,171.160370 36.747211,188.649292 
	C36.900051,202.801163 39.985794,216.350845 44.726658,229.597992 
	C45.379459,231.422089 45.804657,233.327652 45.880329,235.380783 
	C20.669249,212.480698 6.050754,184.121277 1.336745,150.214508 
	C1.000000,140.645767 1.000000,131.291550 1.334929,121.250214 
	C9.973032,61.937378 49.213192,17.911942 105.209938,4.417051 
	C110.128777,3.231640 115.069466,2.136870 120.000000,1.000000 
	C129.687561,1.000000 139.375122,1.000000 149.531342,0.999999 
z"></path>
<path fill="#FA525E" opacity="1.000000" stroke="none" d="
M1092.000000,50.531364 
	C1082.360718,51.000000 1072.721436,51.000000 1062.462524,51.000000 
	C1062.462524,74.853889 1062.462524,98.547501 1062.462524,122.568092 
	C1053.447876,122.568092 1045.046753,122.568092 1036.057129,122.568092 
	C1036.057129,98.854553 1036.057129,75.160728 1036.057129,51.011700 
	C1025.909790,51.011700 1016.330750,51.011700 1006.378296,51.011700 
	C1006.378296,43.012794 1006.378296,35.463875 1006.378296,27.196148 
	C1034.600952,27.196148 1062.840210,27.196148 1091.539795,27.098074 
	C1092.000000,34.687576 1092.000000,42.375153 1092.000000,50.531364 
z"></path>
<path fill="#FFFEFE" opacity="1.000000" stroke="none" d="
M119.531342,1.000000 
	C115.069466,2.136870 110.128777,3.231640 105.209938,4.417051 
	C49.213192,17.911942 9.973032,61.937378 1.334929,120.781555 
	C1.000000,81.073341 1.000000,41.146679 1.000000,1.000000 
	C40.353954,1.000000 79.708321,1.000000 119.531342,1.000000 
z"></path>
<path fill="#999999" opacity="1.000000" stroke="none" d="
M356.458069,328.000000 
	C354.507263,327.363586 352.990143,326.778442 351.526031,326.081940 
	C344.842682,322.902588 340.619995,318.085022 340.886719,310.205994 
	C340.999146,306.884583 340.887054,303.556030 340.909393,300.230957 
	C340.980560,289.649902 348.863098,282.327637 360.438171,282.073456 
	C372.417389,281.810425 381.253082,289.104279 381.772614,299.685089 
	C382.134216,307.050415 382.149078,307.134155 374.903137,308.419006 
	C367.742493,309.688751 360.547607,310.765228 352.385834,312.085236 
	C359.672485,321.000427 367.059540,315.451874 374.620728,313.944550 
	C376.094147,316.248322 377.671936,318.715332 379.881653,322.170410 
	C375.419769,324.034454 371.405304,325.711548 367.195435,327.694336 
	C363.638702,328.000000 360.277435,328.000000 356.458069,328.000000 
M365.148529,299.879486 
	C366.479614,299.432526 367.810730,298.985535 369.178345,298.526306 
	C366.899841,293.393188 362.557831,291.500793 357.633026,293.340759 
	C353.949860,294.716827 351.893463,297.136597 353.442078,301.595795 
	C357.156250,301.035797 360.735352,300.496155 365.148529,299.879486 
z"></path>
<path fill="#999999" opacity="1.000000" stroke="none" d="
M493.454102,328.000000 
	C491.339783,327.312592 489.627838,326.727600 488.028473,325.919708 
	C481.633972,322.689575 477.323517,318.083252 477.778137,310.299438 
	C477.933319,307.642456 477.799622,304.968719 477.800964,302.302643 
	C477.808228,288.016571 489.181763,279.242279 503.211914,282.698151 
	C514.877869,285.571716 520.425903,293.880585 518.049133,305.343445 
	C517.828369,306.408020 515.969482,307.662750 514.700806,307.894043 
	C506.560211,309.378326 498.372040,310.601410 489.219452,312.067261 
	C496.540070,321.042664 503.940277,315.409332 511.345917,313.956329 
	C512.909302,316.372406 514.504639,318.837830 516.767151,322.334320 
	C511.973938,324.183777 507.729675,325.821381 503.242706,327.729492 
	C499.969391,328.000000 496.938812,328.000000 493.454102,328.000000 
M503.709045,299.520660 
	C504.393158,298.646240 505.791840,297.611969 505.638153,296.924927 
	C504.957489,293.881958 498.887207,291.809357 494.786346,293.247589 
	C491.042084,294.560822 488.618866,296.901642 489.914612,301.640656 
	C494.433441,300.980225 498.677917,300.359863 503.709045,299.520660 
z"></path>
<path fill="#999999" opacity="1.000000" stroke="none" d="
M809.463196,328.000000 
	C802.805786,325.382080 796.299194,322.710175 795.610535,314.900696 
	C795.030151,308.319153 795.125916,301.611603 795.659607,295.019501 
	C796.079163,289.837860 799.574524,286.267578 804.348633,284.285400 
	C811.936218,281.135010 819.592468,281.153625 827.129883,284.490387 
	C832.880188,287.035980 835.723206,291.649994 835.937683,297.859436 
	C836.064087,301.520172 835.986511,305.188324 835.981689,308.853149 
	C835.967041,319.973969 833.070557,323.923553 822.196289,327.704346 
	C817.975464,328.000000 813.950928,328.000000 809.463196,328.000000 
M808.064514,314.158356 
	C811.188599,318.120239 815.516663,317.829590 819.428772,316.471924 
	C821.286560,315.827209 823.308411,313.141602 823.632324,311.120392 
	C824.281921,307.067139 824.130981,302.804230 823.728638,298.684723 
	C823.247559,293.759552 819.421204,292.921844 815.296021,292.906342 
	C811.290222,292.891296 807.595581,293.939575 807.279419,298.526123 
	C806.940002,303.450256 807.518555,308.437683 808.064514,314.158356 
z"></path>
<path fill="#999999" opacity="1.000000" stroke="none" d="
M717.458069,328.000000 
	C716.000732,327.474609 714.993713,326.963501 714.003967,326.420685 
	C712.258118,325.463196 710.369080,324.686218 708.808411,323.484924 
	C699.277405,316.148834 701.635193,305.708893 702.779602,296.258484 
	C703.830627,287.579376 711.026367,283.859528 719.063477,282.314819 
	C727.437805,280.705292 736.371704,284.545807 741.490662,292.592896 
	C736.110291,292.959991 731.199524,294.186310 726.625122,293.415894 
	C717.934021,291.952148 714.146484,294.395905 714.127502,303.019318 
	C714.122742,305.185547 714.147461,307.351929 714.128235,309.517975 
	C714.091431,313.671356 716.335693,316.205353 720.174866,316.924438 
	C724.161682,317.671143 728.117676,317.467773 730.455383,312.343811 
	C727.653931,312.343811 725.293518,312.343811 722.461182,312.343811 
	C721.883545,309.200897 721.361694,306.361877 720.733948,302.946442 
	C728.293762,301.692596 735.283325,300.533325 742.279297,299.372986 
	C744.561523,314.788849 743.082520,322.747467 728.210938,327.717102 
	C724.638733,328.000000 721.277405,328.000000 717.458069,328.000000 
z"></path>
<path fill="#989898" opacity="1.000000" stroke="none" d="
M857.460632,328.000000 
	C855.487854,327.399994 853.962769,326.830627 852.465942,326.194489 
	C847.042114,323.889252 843.016846,320.191406 842.835266,314.021027 
	C842.543823,304.115753 842.757141,294.195618 842.757141,284.045288 
	C846.583374,284.045288 850.192627,284.045288 854.721008,284.045288 
	C854.721008,287.714081 854.720703,291.278625 854.721008,294.843170 
	C854.721313,299.501068 854.700806,304.159058 854.728027,308.816803 
	C854.764771,315.108276 856.657898,317.124695 862.498047,317.168365 
	C868.752380,317.215118 870.976379,315.089691 870.992615,308.965790 
	C871.014099,300.839905 870.997864,292.713959 870.997864,284.198059 
	C875.067688,284.198059 878.762085,284.198059 882.863586,284.198059 
	C882.863586,294.749481 883.535339,305.226593 882.630554,315.565796 
	C882.014038,322.610413 876.020996,325.870514 869.221436,327.718933 
	C865.307068,328.000000 861.614197,328.000000 857.460632,328.000000 
z"></path>
<path fill="#999999" opacity="1.000000" stroke="none" d="
M570.466125,328.000000 
	C569.768738,327.772278 569.576050,327.420441 569.300659,327.334747 
	C560.269775,324.526093 560.268616,324.529907 562.792297,315.254639 
	C566.795837,316.016418 570.793640,317.012512 574.852051,317.467316 
	C577.600525,317.775330 580.477844,317.575531 583.211670,317.104523 
	C584.611206,316.863403 585.822205,315.527985 587.118408,314.687134 
	C585.952393,313.712952 584.935120,312.313080 583.592590,311.844147 
	C579.528137,310.424377 575.282593,309.526184 571.208252,308.130707 
	C563.844299,305.608459 560.793457,301.965240 560.965820,296.365509 
	C561.142029,290.639587 564.836060,286.226135 571.784119,284.278381 
	C580.465759,281.844635 589.102112,282.515350 597.942200,285.312866 
	C597.283447,288.695465 596.700989,291.686310 596.105713,294.742889 
	C588.084656,294.031433 580.424500,291.272675 572.925049,297.067078 
	C575.409729,298.028595 577.862610,299.084930 580.386353,299.929840 
	C584.312805,301.244415 588.378479,302.185486 592.217102,303.708557 
	C596.480591,305.400238 599.656738,308.483978 599.737671,313.351501 
	C599.825378,318.629913 597.120972,322.560760 592.349060,324.832581 
	C590.122375,325.892609 587.695190,326.531586 585.179443,327.680695 
	C580.310730,328.000000 575.621521,328.000000 570.466125,328.000000 
z"></path>
<path fill="#999999" opacity="1.000000" stroke="none" d="
M402.463196,328.000000 
	C395.064301,325.364319 388.735626,321.772247 388.318512,313.440186 
	C387.838196,303.846100 388.206909,294.209503 388.206909,284.199280 
	C392.112732,284.199280 395.678741,284.199280 400.123077,284.199280 
	C400.123077,288.489258 400.122955,292.906372 400.123108,297.323517 
	C400.123230,300.983978 400.108276,304.644562 400.127258,308.304901 
	C400.162109,315.028839 402.259888,317.217957 408.579590,317.164185 
	C414.918243,317.110260 416.860443,315.014771 416.873444,308.151672 
	C416.888275,300.343628 416.876892,292.535492 416.876892,284.265930 
	C420.859833,284.265930 424.563141,284.265930 428.646088,284.265930 
	C428.646088,294.580048 429.234375,305.031128 428.444458,315.377014 
	C427.895142,322.571899 421.839691,325.639618 415.198120,327.705841 
	C410.975464,328.000000 406.950897,328.000000 402.463196,328.000000 
z"></path>
<path fill="#FA515D" opacity="1.000000" stroke="none" d="
M177.972168,238.024719 
	C177.972046,245.516724 178.096100,252.518127 177.870819,259.508270 
	C177.823700,260.970062 176.772034,263.377563 175.704178,263.684967 
	C150.554550,270.924408 125.230034,274.421814 100.862419,261.572906 
	C75.479385,248.188644 61.278328,226.654877 60.033470,197.899536 
	C59.083366,175.952759 59.296467,153.908905 60.061363,131.945480 
	C61.230770,98.366959 89.260658,67.965134 122.538567,63.033436 
	C165.615677,56.649525 202.454468,82.597725 210.510468,125.209824 
	C215.717072,152.750137 203.208099,172.343704 180.392654,180.511261 
	C161.299286,187.346390 142.566025,195.186996 123.665756,202.563034 
	C122.316353,203.089645 120.905045,203.457657 119.068077,204.044617 
	C119.068077,192.113403 118.967163,180.646774 119.219772,169.187958 
	C119.245842,168.005295 121.171150,166.355911 122.566711,165.790161 
	C137.670410,159.667160 152.848206,153.727127 167.997894,147.717300 
	C176.040863,144.526703 177.227509,142.481964 176.254257,133.701126 
	C174.019287,113.536751 157.872131,97.889771 138.385757,97.005638 
	C117.236313,96.046051 99.662941,109.319641 95.446716,129.662003 
	C94.744751,133.048828 94.734764,136.616638 94.720558,140.102081 
	C94.651276,157.095505 95.399460,174.126282 94.518913,191.074234 
	C93.266914,215.171448 113.142876,239.572540 145.159744,234.393311 
	C156.061386,232.629807 166.765045,229.642456 177.972183,227.121414 
	C177.972183,230.036072 177.972183,233.783081 177.972168,238.024719 
z"></path>
<path fill="#FA525E" opacity="1.000000" stroke="none" d="
M337.962646,53.231964 
	C343.735840,32.381454 367.438934,21.554285 388.045746,24.656441 
	C395.578064,25.790358 403.290771,28.537090 409.907135,32.321121 
	C421.383392,38.884605 427.205292,49.468472 426.953583,63.022106 
	C426.852203,68.481544 426.936859,73.944427 426.936859,79.655495 
	C405.571381,83.052750 384.653351,86.378860 363.648346,89.718803 
	C366.152954,98.008430 375.337158,103.401985 384.241333,101.546608 
	C393.286560,99.661842 402.154541,96.926407 411.777344,94.384628 
	C414.917938,99.444435 418.486420,105.193550 422.303955,111.343948 
	C414.333923,117.637550 405.414276,121.381958 395.807983,123.527451 
	C380.748749,126.890823 366.276581,125.578995 353.185638,116.777412 
	C342.543335,109.622177 336.584076,99.738190 336.990295,86.533180 
	C337.327484,75.570618 337.594574,64.605911 337.962646,53.231964 
M366.695129,53.255962 
	C362.861481,57.220623 362.371887,61.858192 363.741516,67.372307 
	C375.936981,65.401680 387.859802,63.475113 399.709381,61.560375 
	C399.885651,56.989101 398.835938,54.819000 395.254211,51.942322 
	C387.082672,45.379326 376.549622,45.683704 366.695129,53.255962 
z"></path>
<path fill="#FA525E" opacity="1.000000" stroke="none" d="
M642.094971,102.756180 
	C640.911438,97.586655 639.273010,92.798134 638.984131,87.929535 
	C638.491882,79.634834 639.091980,71.280968 638.791504,62.967922 
	C638.311707,49.692863 644.311523,39.985764 654.815674,32.665947 
	C672.915405,20.053135 700.427612,21.533983 716.658447,35.876862 
	C723.415466,41.847870 727.871521,49.134079 728.380493,58.248081 
	C728.768188,65.189613 728.457520,72.170143 728.457520,79.670837 
	C707.292847,83.045685 686.244629,86.401955 665.077454,89.777199 
	C668.170410,98.252556 676.970581,103.358894 685.811523,101.510925 
	C694.702026,99.652603 703.426819,97.001602 713.203613,94.441498 
	C716.331116,99.307892 720.061096,105.111664 724.045959,111.312088 
	C716.087341,117.543396 707.235474,121.413124 697.628784,123.501289 
	C680.525513,127.218964 664.439575,125.293083 650.727661,113.453484 
	C647.401184,110.581284 645.047852,106.582123 642.094971,102.756180 
M688.391174,47.921753 
	C673.541321,44.952381 662.820923,53.860031 665.655823,67.322021 
	C677.680481,65.380653 689.724915,63.436100 702.257019,61.412819 
	C700.851746,53.418972 695.579712,50.192928 688.391174,47.921753 
z"></path>
<path fill="#FA525E" opacity="1.000000" stroke="none" d="
M865.604614,87.282013 
	C855.899536,84.151726 846.363464,81.684990 837.339966,77.972374 
	C828.263062,74.237801 822.500305,67.107208 822.353699,56.823807 
	C822.208557,46.638660 826.911133,38.458282 835.791748,33.886108 
	C842.460632,30.452608 849.941589,27.851410 857.340881,26.736261 
	C872.954102,24.383184 888.474243,26.032221 903.926697,30.835716 
	C902.679504,37.999363 901.489746,44.832573 900.230408,52.065742 
	C894.382446,51.161125 888.865356,49.771610 883.305542,49.571751 
	C874.698303,49.262344 866.061340,49.742886 857.438538,49.954346 
	C856.470093,49.978096 855.341614,50.188042 854.582703,50.727348 
	C852.668152,52.087833 850.922241,53.685600 849.108765,55.188271 
	C850.805237,56.831017 852.228394,59.309963 854.246277,59.969479 
	C862.294800,62.600143 870.590576,64.467049 878.671814,67.007866 
	C884.041809,68.696243 889.492615,70.517746 894.405334,73.199310 
	C911.326355,82.435524 912.647644,102.932793 897.310425,114.792450 
	C888.967468,121.243797 879.135620,123.791031 868.937439,124.717972 
	C854.182678,126.059059 839.669128,124.546310 825.667297,119.370445 
	C824.602661,118.976898 823.583130,118.461044 822.257874,117.876411 
	C823.571716,110.586319 824.859863,103.439133 826.005737,97.081093 
	C835.994019,98.962486 845.534546,101.565697 855.218628,102.315834 
	C862.326172,102.866386 869.668945,101.254105 876.798950,99.994812 
	C878.472473,99.699219 880.622559,97.050331 880.842529,95.272446 
	C881.001221,93.989784 878.584900,91.783707 876.858398,91.000275 
	C873.404846,89.433067 869.636658,88.559280 865.604614,87.282013 
z"></path>
<path fill="#FA515D" opacity="1.000000" stroke="none" d="
M531.255493,63.000050 
	C531.255493,71.329529 531.259521,79.159004 531.254333,86.988480 
	C531.241211,107.046555 522.303406,118.583977 502.622070,123.306038 
	C489.213593,126.523071 475.798584,126.184319 462.895325,120.997314 
	C449.793396,115.730415 442.161224,105.932877 441.896576,91.616982 
	C441.517944,71.134148 441.765839,50.639645 441.768463,30.150127 
	C441.768555,29.359333 441.999603,28.568569 442.161499,27.531271 
	C450.743958,27.531271 459.146088,27.531271 468.066803,27.531271 
	C468.066803,29.594784 468.066772,31.382166 468.066803,33.169548 
	C468.067108,51.160683 468.049713,69.151840 468.076294,87.142937 
	C468.087036,94.406296 471.159088,99.325142 478.182739,100.587135 
	C483.564270,101.554085 489.473846,101.444054 494.819885,100.290176 
	C502.008759,98.738556 504.623535,94.234352 504.656281,86.113724 
	C504.727478,68.456047 504.678955,50.797882 504.679352,33.139915 
	C504.679382,31.361614 504.679382,29.583313 504.679382,27.530130 
	C513.717041,27.530130 522.132019,27.530130 531.255371,27.530130 
	C531.255371,39.314415 531.255371,50.907230 531.255493,63.000050 
z"></path>
<path fill="#FA525E" opacity="1.000000" stroke="none" d="
M930.957886,78.936188 
	C936.132874,67.178078 940.902283,55.643166 946.336914,44.430706 
	C949.122498,38.683620 950.441284,33.437504 945.539307,27.270105 
	C954.933777,27.270105 963.187439,27.173386 971.433105,27.387924 
	C972.509216,27.415924 974.021301,28.830263 974.527771,29.962078 
	C987.971375,60.005756 1001.311584,90.095741 1014.648560,120.187065 
	C1014.896423,120.746231 1014.892334,121.417053 1015.131897,122.724327 
	C1006.540466,122.724327 998.283569,122.931664 990.058838,122.510178 
	C988.762451,122.443741 986.963867,119.695435 986.513245,117.906113 
	C985.045959,112.080750 981.802063,110.256332 975.803833,110.656326 
	C966.852234,111.253265 957.826965,110.972084 948.842102,110.730408 
	C945.360291,110.636749 942.991577,111.468979 942.176941,114.997383 
	C940.645752,121.629608 936.670410,123.829552 929.928467,123.040718 
	C924.189148,122.369202 918.309021,122.902000 911.493713,122.902000 
	C918.110474,107.977600 924.469177,93.635254 930.957886,78.936188 
M968.124329,77.322823 
	C966.666870,74.104393 965.209473,70.885963 963.392761,66.874199 
	C959.726868,75.241829 956.451172,82.718651 953.124451,90.312073 
	C960.431763,90.312073 966.951965,90.312073 973.916626,90.312073 
	C971.939026,85.869606 970.189819,81.940376 968.124329,77.322823 
z"></path>
<path fill="#FA525E" opacity="1.000000" stroke="none" d="
M573.454102,87.999863 
	C573.454407,75.523682 573.454407,63.547504 573.454407,51.091682 
	C563.651672,51.091682 554.221558,51.091682 544.363770,51.091682 
	C544.363770,43.073097 544.363770,35.520187 544.363770,27.602369 
	C572.635315,27.602369 601.016541,27.602369 629.669678,27.602369 
	C629.669678,35.233685 629.669678,42.663666 629.669678,50.752945 
	C619.936829,50.752945 610.223633,50.752945 600.118042,50.752945 
	C600.118042,75.003929 600.118042,98.604355 600.118042,122.551697 
	C591.301270,122.551697 582.883240,122.551697 573.453735,122.551697 
	C573.453735,111.280304 573.453735,99.890091 573.454102,87.999863 
z"></path>
<path fill="#FA5460" opacity="1.000000" stroke="none" d="
M695.850586,203.861633 
	C691.394043,216.992401 686.984070,229.721985 682.760071,242.513000 
	C681.875061,245.193054 680.526550,246.308884 677.729065,245.937378 
	C675.272766,245.611206 672.579834,246.783356 671.279907,243.062744 
	C660.527832,212.288254 649.606262,181.572998 638.746826,150.835983 
	C638.642212,150.540009 638.685181,150.191864 638.601013,149.140854 
	C641.685608,149.140854 644.827393,148.728882 647.766785,149.321152 
	C649.158264,149.601517 650.716003,151.609024 651.259705,153.162537 
	C659.500610,176.709564 667.583191,200.311981 675.713623,223.897720 
	C676.138611,225.130508 676.659424,226.330261 677.490723,228.451935 
	C682.839417,212.204163 687.911560,196.824081 692.964172,181.437592 
	C696.077698,171.955994 699.316284,162.510941 702.175842,152.952866 
	C703.198242,149.535324 705.000122,148.902802 708.257935,148.822769 
	C711.749146,148.736984 713.090759,149.962860 714.127930,153.179840 
	C721.578918,176.290497 729.240601,199.333252 736.841919,222.395416 
	C737.350647,223.938904 737.912354,225.464951 738.833679,228.097000 
	C739.807739,225.729584 740.469727,224.329834 740.969727,222.874435 
	C748.427979,201.166992 755.864380,179.451996 763.306824,157.739090 
	C766.474731,148.496841 766.475525,148.497116 777.235657,149.510452 
	C776.826233,151.093323 776.551514,152.616577 776.042053,154.056824 
	C765.669678,183.380096 755.175842,212.661102 744.989990,242.048904 
	C743.638977,245.946777 741.345093,245.820847 738.233643,246.005493 
	C734.847717,246.206406 733.761292,244.665878 732.791748,241.757294 
	C725.323059,219.351700 717.681519,197.003708 710.084961,174.640762 
	C709.565002,173.110107 708.975769,171.602982 707.879089,168.614243 
	C703.607605,181.113449 699.785400,192.297882 695.850586,203.861633 
z"></path>
<path fill="#FA525E" opacity="1.000000" stroke="none" d="
M742.796143,62.999977 
	C742.796021,51.032063 742.796021,39.564156 742.796021,27.672367 
	C751.624146,27.672367 760.130554,27.672367 769.096313,27.672367 
	C769.096313,51.398914 769.096313,74.962372 769.096313,99.129128 
	C783.732727,99.129128 797.936523,99.129128 812.893127,99.129128 
	C811.447754,107.399727 810.127136,114.956314 808.778198,122.675026 
	C786.830627,122.675026 765.247437,122.675026 742.796204,122.675026 
	C742.796204,102.913826 742.796204,83.206902 742.796143,62.999977 
z"></path>
<path fill="#FA5460" opacity="1.000000" stroke="none" d="
M951.727051,181.435944 
	C947.817749,186.662323 944.046082,191.513474 940.340820,196.279175 
	C941.155579,196.659302 943.275330,197.549011 945.304077,198.612335 
	C953.263855,202.784378 958.063904,208.962006 958.181824,218.356400 
	C958.304077,228.098175 954.477661,235.727631 945.732239,239.930405 
	C940.596680,242.398361 934.754456,243.464172 929.155823,244.863937 
	C927.109192,245.375626 924.848267,245.067535 922.684998,245.069458 
	C909.041321,245.081528 895.397644,245.075592 881.339355,245.075592 
	C881.339355,213.204956 881.339355,181.524506 881.339355,149.133347 
	C884.344788,149.133347 887.443726,149.081192 890.540405,149.142380 
	C903.837341,149.405182 917.234436,148.777618 930.405151,150.214783 
	C947.580566,152.088928 955.708496,164.693085 951.727051,181.435944 
M925.309875,201.823624 
	C914.241577,201.823624 903.173279,201.823624 892.227539,201.823624 
	C892.227539,213.386337 892.227539,224.131668 892.227539,234.946564 
	C905.052612,234.946564 917.525696,235.175613 929.980042,234.793457 
	C933.298218,234.691635 936.784790,233.136337 939.797668,231.512756 
	C945.513062,228.432785 947.571838,223.192276 947.186340,216.813766 
	C946.823608,210.812332 943.662659,206.699738 938.311096,204.660553 
	C934.491455,203.205154 930.285217,202.764664 925.309875,201.823624 
M900.545166,192.018875 
	C907.028625,192.018692 913.523743,192.253769 919.991089,191.930771 
	C923.915222,191.734772 927.972473,191.181610 931.659485,189.897629 
	C939.006165,187.339172 942.512024,181.322968 941.963135,173.544952 
	C941.500061,166.982819 937.032532,161.011353 929.806763,160.288635 
	C917.351074,159.042786 904.768799,159.062103 892.252258,158.551025 
	C892.252258,170.358047 892.252258,181.051331 892.252258,192.018875 
	C894.944519,192.018875 897.253540,192.018875 900.545166,192.018875 
z"></path>
<path fill="#FA5460" opacity="1.000000" stroke="none" d="
M337.096954,201.714142 
	C336.428650,174.103470 351.160034,153.968552 375.613373,148.573257 
	C394.775696,144.345337 414.670532,151.872177 425.885498,167.592773 
	C437.443420,183.794098 438.038574,206.785767 427.350189,224.173508 
	C417.355377,240.432907 398.033203,249.278244 378.931915,246.338440 
	C355.428741,242.721161 340.504700,226.958099 337.096954,201.714142 
M349.626587,207.599503 
	C355.889679,231.205811 380.204010,243.266235 401.621063,233.389816 
	C417.484009,226.074677 425.530548,209.793839 423.009918,190.113083 
	C421.011688,174.510803 408.158813,160.972305 392.707642,158.194321 
	C376.100616,155.208527 360.257843,163.143845 352.746063,178.122437 
	C348.146667,187.293762 347.498810,196.892456 349.626587,207.599503 
z"></path>
<path fill="#FA535F" opacity="1.000000" stroke="none" d="
M480.570129,170.429077 
	C494.893982,188.632126 508.991852,206.557297 523.802368,225.388580 
	C523.802368,199.600266 523.802368,174.810638 523.802368,149.580505 
	C527.595886,149.580505 530.825012,149.580505 534.502686,149.580505 
	C534.502686,181.036652 534.502686,212.721405 534.502686,244.583023 
	C529.290161,246.054260 525.563782,244.767090 521.944763,240.068741 
	C504.165436,216.986542 485.985840,194.212555 467.937195,171.337952 
	C466.964294,170.104935 465.896545,168.946808 464.239868,167.016006 
	C464.239868,193.450333 464.239868,218.858002 464.239868,244.668457 
	C460.739990,244.668457 457.541656,244.668457 454.034241,244.668457 
	C454.034241,213.018753 454.034241,181.450073 454.034241,149.654114 
	C459.705322,148.435242 464.445099,148.543106 468.111969,154.372437 
	C471.638428,159.978577 476.223907,164.918549 480.570129,170.429077 
z"></path>
<path fill="#FA5460" opacity="1.000000" stroke="none" d="
M800.109619,149.134109 
	C821.064636,149.134155 841.532898,149.134155 862.350342,149.134155 
	C862.350342,152.451584 862.350342,155.361191 862.350342,158.864563 
	C843.144104,158.864563 823.924866,158.864563 804.376221,158.864563 
	C804.376221,170.013290 804.376221,180.588181 804.376221,191.780670 
	C821.570129,191.780670 838.790955,191.780670 856.278564,191.780670 
	C856.278564,195.316360 856.278564,198.238388 856.278564,201.641296 
	C838.950317,201.641296 821.867981,201.641296 804.415039,201.641296 
	C804.415039,212.850845 804.415039,223.590942 804.415039,234.940704 
	C823.682556,234.940704 843.065186,234.940704 862.799805,234.940704 
	C862.799805,238.448059 862.799805,241.370255 862.799805,244.686081 
	C839.880920,244.686081 816.821167,244.686081 793.425537,244.686081 
	C793.425537,213.118469 793.425537,181.533585 793.425537,149.134064 
	C795.453552,149.134064 797.538269,149.134064 800.109619,149.134109 
z"></path>
<path fill="#FA5460" opacity="1.000000" stroke="none" d="
M576.085327,191.883408 
	C591.195618,191.883362 605.815491,191.883362 620.735840,191.883362 
	C620.735840,195.208801 620.735840,198.137543 620.735840,201.607941 
	C603.743652,201.607941 586.687683,201.607941 569.228027,201.607941 
	C569.228027,212.857254 569.228027,223.582748 569.228027,234.879425 
	C588.440918,234.879425 607.820679,234.879425 627.588135,234.879425 
	C627.588135,238.464508 627.588135,241.493271 627.588135,244.805725 
	C604.585327,244.805725 581.663330,244.805725 558.311890,244.805725 
	C558.311890,213.201309 558.311890,181.516006 558.311890,149.481415 
	C580.965820,149.481415 603.683228,149.481415 626.781372,149.481415 
	C626.781372,152.407852 626.781372,155.318115 626.781372,158.905640 
	C607.776855,158.905640 588.588562,158.905640 569.114929,158.905640 
	C569.114929,170.129471 569.114929,180.693390 569.114929,191.883453 
	C571.375916,191.883453 573.485413,191.883453 576.085327,191.883408 
z"></path>
<path fill="#989898" opacity="1.000000" stroke="none" d="
M761.896179,324.677551 
	C758.183777,325.998474 754.488831,326.858185 750.224487,327.850372 
	C750.224487,312.505707 750.224487,298.475433 750.224487,284.037476 
	C760.689819,284.037476 770.958801,283.761749 781.201050,284.165588 
	C785.648071,284.340912 789.037537,288.932373 789.758301,294.585266 
	C790.494141,300.356934 789.856628,305.810699 785.442871,310.356934 
	C784.557129,311.269226 784.434937,313.639771 784.905212,315.014954 
	C786.232605,318.896332 788.050842,322.609833 789.929749,326.980499 
	C786.283142,326.980499 783.287537,327.271912 780.392700,326.858368 
	C778.930847,326.649536 777.334412,325.413544 776.373230,324.190521 
	C775.279846,322.799500 774.849731,320.894440 774.092590,319.230408 
	C770.828735,312.057251 770.823547,312.059601 761.913635,313.501617 
	C761.913635,316.990936 761.913635,320.603638 761.896179,324.677551 
M763.800354,301.975342 
	C767.465210,301.982880 771.192017,302.382568 774.766663,301.818237 
	C776.348633,301.568481 777.622437,299.366791 779.036072,298.051178 
	C777.762878,296.763611 776.600037,294.529633 775.195740,294.365814 
	C770.975708,293.873505 766.661438,294.188416 761.518127,294.188416 
	C762.055115,297.190643 762.469727,299.508545 763.800354,301.975342 
z"></path>
<path fill="#989898" opacity="1.000000" stroke="none" d="
M889.908203,307.999542 
	C889.908081,299.867310 889.908081,292.234955 889.908081,284.079285 
	C900.695190,284.079285 911.097839,283.964752 921.492493,284.201385 
	C923.071594,284.237335 924.851135,285.652283 926.128906,286.861603 
	C930.220764,290.734192 931.311462,299.398193 928.656006,305.643524 
	C926.225159,311.360657 921.588318,313.135773 915.728271,312.916565 
	C911.417603,312.755341 907.096069,312.884918 901.920471,312.884918 
	C901.920471,315.401917 901.920471,317.645569 901.920471,319.889252 
	C901.920471,322.021454 901.920471,324.153656 901.920471,326.631775 
	C897.926819,326.631775 894.348694,326.631775 889.908264,326.631775 
	C889.908264,320.652588 889.908264,314.576019 889.908203,307.999542 
M917.326904,294.894501 
	C912.328552,294.574493 907.330200,294.254486 902.229431,293.927917 
	C902.229431,297.096039 902.229431,299.322479 902.229431,302.004791 
	C906.468628,302.004791 910.405640,302.129761 914.331238,301.971497 
	C918.715759,301.794739 919.686829,299.920227 917.326904,294.894501 
z"></path>
<path fill="#999999" opacity="1.000000" stroke="none" d="
M613.741577,298.706268 
	C615.662659,293.831482 617.424744,289.303436 619.557556,283.822693 
	C621.375549,283.822693 624.499878,283.688354 627.599670,283.904907 
	C628.524353,283.969513 629.825073,284.815247 630.201416,285.644409 
	C636.283936,299.046112 642.245117,312.502869 648.660339,326.904938 
	C644.522217,326.904938 641.289734,326.963318 638.062500,326.859772 
	C637.345703,326.836823 636.138916,326.371704 636.017395,325.892273 
	C634.491089,319.871185 629.709961,321.153992 625.593933,321.238068 
	C621.086914,321.330170 616.329102,319.718231 613.359619,325.907501 
	C612.497437,327.704681 606.170227,326.879913 601.103699,327.379852 
	C605.611511,317.147095 609.597046,308.100037 613.741577,298.706268 
M627.916931,312.011017 
	C627.228271,308.933289 626.539612,305.855560 625.850891,302.777832 
	C625.284912,302.850067 624.718872,302.922333 624.152832,302.994598 
	C623.014648,305.801849 621.876526,308.609100 620.458862,312.105713 
	C623.193359,312.105713 625.135986,312.105713 627.916931,312.011017 
z"></path>
<path fill="#999999" opacity="1.000000" stroke="none" d="
M676.996094,294.123230 
	C674.559265,294.123352 672.596069,294.123352 670.072144,294.123352 
	C670.072144,305.078064 670.072144,315.617493 670.072144,326.566284 
	C665.832336,326.566284 662.149780,326.566284 657.837891,326.566284 
	C657.837891,317.711517 657.586792,308.948944 657.938904,300.210663 
	C658.128174,295.514923 656.864075,293.419830 651.926758,294.068451 
	C649.521179,294.384491 647.039612,294.123108 644.348938,294.123108 
	C644.348938,290.487610 644.348938,287.433167 644.348938,284.090759 
	C657.197876,284.090759 669.750854,284.090759 682.698975,284.090759 
	C682.698975,287.232208 682.698975,290.286774 682.698975,293.892853 
	C680.986450,293.968262 679.228088,294.045715 676.996094,294.123230 
z"></path>
<path fill="#989898" opacity="1.000000" stroke="none" d="
M460.055756,310.001465 
	C460.055786,315.782532 460.055786,321.064789 460.055786,326.658447 
	C456.021454,326.658447 452.436310,326.658447 448.163269,326.658447 
	C448.163269,316.059967 448.163269,305.380432 448.163269,294.269470 
	C443.569916,294.269470 439.643250,294.269470 435.262970,294.269470 
	C435.262970,290.791351 435.262970,287.746521 435.262970,284.249512 
	C447.786530,284.249512 460.450989,284.249512 473.463379,284.249512 
	C473.463379,287.372314 473.463379,290.423737 473.463379,294.091370 
	C469.050446,294.091370 464.824768,294.091370 460.055725,294.091370 
	C460.055725,299.626770 460.055725,304.564728 460.055756,310.001465 
z"></path>
<path fill="#999999" opacity="1.000000" stroke="none" d="
M542.980530,326.983673 
	C536.856201,326.983673 531.227051,326.983673 525.240601,326.983673 
	C525.240601,312.536560 525.240601,298.508148 525.240601,284.138977 
	C528.972900,284.138977 532.555664,284.138977 536.715210,284.138977 
	C536.715210,294.542053 536.715210,304.943756 536.715210,315.956360 
	C543.313171,315.956360 549.374023,315.956360 556.386963,315.956360 
	C555.790955,319.984924 555.304138,323.275238 554.755493,326.983673 
	C550.737793,326.983673 547.106750,326.983673 542.980530,326.983673 
z"></path>
<path fill="#FBFBFB" opacity="1.000000" stroke="none" d="
M364.731506,299.917999 
	C360.735352,300.496155 357.156250,301.035797 353.442078,301.595795 
	C351.893463,297.136597 353.949860,294.716827 357.633026,293.340759 
	C362.557831,291.500793 366.899841,293.393188 369.178345,298.526306 
	C367.810730,298.985535 366.479614,299.432526 364.731506,299.917999 
z"></path>
<path fill="#FBFBFB" opacity="1.000000" stroke="none" d="
M503.315735,299.630096 
	C498.677917,300.359863 494.433441,300.980225 489.914612,301.640656 
	C488.618866,296.901642 491.042084,294.560822 494.786346,293.247589 
	C498.887207,291.809357 504.957489,293.881958 505.638153,296.924927 
	C505.791840,297.611969 504.393158,298.646240 503.315735,299.630096 
z"></path>
<path fill="#FBFBFB" opacity="1.000000" stroke="none" d="
M807.880493,313.777924 
	C807.518555,308.437683 806.940002,303.450256 807.279419,298.526123 
	C807.595581,293.939575 811.290222,292.891296 815.296021,292.906342 
	C819.421204,292.921844 823.247559,293.759552 823.728638,298.684723 
	C824.130981,302.804230 824.281921,307.067139 823.632324,311.120392 
	C823.308411,313.141602 821.286560,315.827209 819.428772,316.471924 
	C815.516663,317.829590 811.188599,318.120239 807.880493,313.777924 
z"></path>
<path fill="#FFFBFB" opacity="1.000000" stroke="none" d="
M366.963257,53.004028 
	C376.549622,45.683704 387.082672,45.379326 395.254211,51.942322 
	C398.835938,54.819000 399.885651,56.989101 399.709381,61.560375 
	C387.859802,63.475113 375.936981,65.401680 363.741516,67.372307 
	C362.371887,61.858192 362.861481,57.220623 366.963257,53.004028 
z"></path>
<path fill="#FFFBFB" opacity="1.000000" stroke="none" d="
M688.789551,47.986572 
	C695.579712,50.192928 700.851746,53.418972 702.257019,61.412819 
	C689.724915,63.436100 677.680481,65.380653 665.655823,67.322021 
	C662.820923,53.860031 673.541321,44.952381 688.789551,47.986572 
z"></path>
<path fill="#FFF4F5" opacity="1.000000" stroke="none" d="
M968.282471,77.666977 
	C970.189819,81.940376 971.939026,85.869606 973.916626,90.312073 
	C966.951965,90.312073 960.431763,90.312073 953.124451,90.312073 
	C956.451172,82.718651 959.726868,75.241829 963.392761,66.874199 
	C965.209473,70.885963 966.666870,74.104393 968.282471,77.666977 
z"></path>
<path fill="#FFFEFE" opacity="1.000000" stroke="none" d="
M925.780640,201.847473 
	C930.285217,202.764664 934.491455,203.205154 938.311096,204.660553 
	C943.662659,206.699738 946.823608,210.812332 947.186340,216.813766 
	C947.571838,223.192276 945.513062,228.432785 939.797668,231.512756 
	C936.784790,233.136337 933.298218,234.691635 929.980042,234.793457 
	C917.525696,235.175613 905.052612,234.946564 892.227539,234.946564 
	C892.227539,224.131668 892.227539,213.386337 892.227539,201.823624 
	C903.173279,201.823624 914.241577,201.823624 925.780640,201.847473 
z"></path>
<path fill="#FFFEFE" opacity="1.000000" stroke="none" d="
M900.053894,192.018875 
	C897.253540,192.018875 894.944519,192.018875 892.252258,192.018875 
	C892.252258,181.051331 892.252258,170.358047 892.252258,158.551025 
	C904.768799,159.062103 917.351074,159.042786 929.806763,160.288635 
	C937.032532,161.011353 941.500061,166.982819 941.963135,173.544952 
	C942.512024,181.322968 939.006165,187.339172 931.659485,189.897629 
	C927.972473,191.181610 923.915222,191.734772 919.991089,191.930771 
	C913.523743,192.253769 907.028625,192.018692 900.053894,192.018875 
z"></path>
<path fill="#FFFEFE" opacity="1.000000" stroke="none" d="
M349.487854,207.203247 
	C347.498810,196.892456 348.146667,187.293762 352.746063,178.122437 
	C360.257843,163.143845 376.100616,155.208527 392.707642,158.194321 
	C408.158813,160.972305 421.011688,174.510803 423.009918,190.113083 
	C425.530548,209.793839 417.484009,226.074677 401.621063,233.389816 
	C380.204010,243.266235 355.889679,231.205811 349.487854,207.203247 
z"></path>
<path fill="#FBFBFB" opacity="1.000000" stroke="none" d="
M763.342346,301.900879 
	C762.469727,299.508545 762.055115,297.190643 761.518127,294.188416 
	C766.661438,294.188416 770.975708,293.873505 775.195740,294.365814 
	C776.600037,294.529633 777.762878,296.763611 779.036133,298.051208 
	C777.622437,299.366791 776.348633,301.568481 774.766663,301.818237 
	C771.192017,302.382568 767.465210,301.982880 763.342346,301.900879 
z"></path>
<path fill="#FBFBFB" opacity="1.000000" stroke="none" d="
M917.654480,295.152832 
	C919.686829,299.920227 918.715759,301.794739 914.331238,301.971497 
	C910.405640,302.129761 906.468628,302.004791 902.229431,302.004791 
	C902.229431,299.322479 902.229431,297.096039 902.229431,293.927917 
	C907.330200,294.254486 912.328552,294.574493 917.654480,295.152832 
z"></path>
<path fill="#FBFBFB" opacity="1.000000" stroke="none" d="
M627.497803,312.058350 
	C625.135986,312.105713 623.193359,312.105713 620.458862,312.105713 
	C621.876526,308.609100 623.014648,305.801849 624.152832,302.994598 
	C624.718872,302.922333 625.284912,302.850067 625.850891,302.777832 
	C626.539612,305.855560 627.228271,308.933289 627.497803,312.058350 
z"></path>
</svg>