<?xml version="1.0" encoding="UTF-8" standalone="no"?>
<!DOCTYPE svg PUBLIC "-//W3C//DTD SVG 1.1//EN" "http://www.w3.org/Graphics/SVG/1.1/DTD/svg11.dtd">
<svg width="100%" height="100%" viewBox="0 0 2000 370" version="1.1" xmlns="http://www.w3.org/2000/svg" xmlns:xlink="http://www.w3.org/1999/xlink" xml:space="preserve" xmlns:serif="http://www.serif.com/" style="fill-rule:evenodd;clip-rule:evenodd;stroke-linejoin:round;stroke-miterlimit:2;">
    <g transform="matrix(1,0,0,1,-16,-74)">
        <path d="M330,414C387,383 423,328 423,261C423,158 341,83 239,83C136,83 54,155 54,262C54,308 70,347 98,377L98,260C98,186 156,127 239,127C322,127 379,186 379,260C379,301 360,338 330,362L330,414ZM228,435C255,435 272,435 293,428L293,382L287,384C275,388 255,391 238,391C195,391 178,371 178,342L178,256C178,224 209,206 238,206C275,206 298,234 298,252C298,258 295,265 293,266C289,268 283,269 275,270L202,280L202,323L299,308C331,303 343,280 343,256C343,221 316,162 239,162C178,162 134,201 134,253L134,344C134,398 185,435 228,435ZM620,360C654,360 686,348 709,324L680,292C668,302 640,311 620,311C597,311 589,299 585,283L707,264L707,235C707,191 670,159 618,159C562,159 530,196 530,231L530,279C530,332 568,360 620,360ZM585,244C585,233 586,223 591,217C597,209 607,205 617,205C625,205 637,208 644,214C648,218 652,224 652,232L652,234L585,244ZM821,359C866,359 910,337 910,273L910,161L856,161L856,272C856,295 843,310 821,310C799,310 787,295 787,273L787,161L731,161L731,272C731,329 769,359 821,359ZM982,356L1037,356L1037,206L1083,206L1083,161L936,161L936,206L982,206L982,356ZM1308,356L1431,356L1431,312L1363,312L1363,162L1308,162L1308,356ZM1538,359C1594,359 1631,335 1631,295C1631,273 1619,258 1595,247C1569,235 1540,232 1533,231C1525,230 1513,226 1513,218C1513,208 1533,206 1545,206C1566,206 1577,212 1603,219L1619,174C1598,166 1572,158 1541,158C1486,158 1459,184 1459,217C1459,251 1488,268 1530,279C1553,285 1577,288 1577,297C1577,303 1568,311 1541,311C1509,311 1490,301 1474,294L1457,339C1479,349 1503,359 1538,359ZM1699,357L1706,332L1776,334L1784,357L1844,357L1772,163L1710,163L1640,357L1699,357ZM1715,295L1741,210L1765,295L1715,295ZM1877,356L1932,356L1932,206L1978,206L1978,161L1830,161L1830,206L1877,206L1877,356ZM1190,360C1226,360 1258,346 1281,324L1252,292C1237,303 1214,312 1194,312C1170,312 1159,299 1155,283L1279,264L1279,235C1279,191 1243,159 1191,159C1135,159 1101,196 1101,231L1101,280C1101,330 1137,360 1190,360ZM1155,244C1155,233 1156,220 1166,213C1174,207 1179,205 1189,205C1211,205 1220,216 1223,232L1223,234L1155,244Z" style="fill:rgb(4,13,115);fill-rule:nonzero;"/>
    </g>
</svg>
