<?xml version="1.0" encoding="UTF-8" standalone="no"?>
<!DOCTYPE svg PUBLIC "-//W3C//DTD SVG 1.1//EN" "http://www.w3.org/Graphics/SVG/1.1/DTD/svg11.dtd">
<svg width="100%" height="100%" viewBox="0 0 633 140" version="1.1" xmlns="http://www.w3.org/2000/svg" xmlns:xlink="http://www.w3.org/1999/xlink" xml:space="preserve" xmlns:serif="http://www.serif.com/" style="fill-rule:evenodd;clip-rule:evenodd;stroke-linejoin:round;stroke-miterlimit:2;">
    <g transform="matrix(0.229765,0,0,0.229765,-1.29765,7.16188)">
        <g transform="matrix(0.566485,0,0,0.566485,-285.451,4.12429)">
            <path d="M864.79,0.53C859.21,0.18 853.67,0 848.16,0C771.35,-0.09 701.76,32.63 641.13,97.43C586.01,156.35 567.48,203.76 567.65,261.02C567.73,291.65 573.17,325.09 581.22,364.62C596.35,438.95 640.47,510.7 702.28,561.51C749.6,600.4 802.37,620.26 857.98,620.63C886.8,620.82 916.38,615.78 946.37,605.43C1043.18,572.01 1135.79,476.35 1171.57,372.79C1182.9,340.02 1188.4,308.12 1188.28,277.77C1187.99,203.59 1154.11,138.58 1089.36,92.09C1010.81,35.67 935.26,4.88 864.79,0.53" style="fill:rgb(0,40,75);fill-rule:nonzero;"/>
        </g>
        <g transform="matrix(0.566485,0,0,0.566485,-285.451,4.12429)">
            <path d="M754.26,311.31L732.97,311.31L732.95,311.91C732.78,316.05 730.32,352.26 697.92,352.26C668.96,352.26 654.27,326.31 654.24,275.12C654.27,223.93 668.96,197.98 697.92,197.98C730.88,197.98 732.88,236.68 732.95,238.32L732.97,238.92L754.26,238.92C756.22,238.92 758.14,238.11 759.51,236.71C760.82,235.36 761.5,233.62 761.41,231.8C760.97,221.76 755.81,171.66 697.62,171.66C695.639,171.66 693.698,171.723 691.796,171.85C648.55,174.728 625.75,210.248 625.75,275.01C625.75,342.62 650.6,378.57 697.62,378.57C753.63,378.57 760.59,332.81 761.4,318.79C761.54,316.86 760.88,315 759.52,313.57C758.16,312.13 756.23,311.31 754.27,311.31" style="fill:white;fill-rule:nonzero;"/>
        </g>
        <g transform="matrix(0.566485,0,0,0.566485,-285.451,4.12429)">
            <path d="M1085.03,262.82L1066.7,254.83C1049.06,247.08 1042.81,239.55 1042.81,226.02C1042.81,208.39 1055.72,196.54 1074.91,196.54C1086.26,196.54 1095.57,198.86 1106.94,210.45L1107.56,211.08L1117.35,202.13C1123.01,196.87 1121.38,192.13 1119.01,189.09C1109.46,177.83 1094.14,171.65 1075.84,171.65C1040.56,171.65 1014.95,194.67 1014.95,226.38C1014.95,258.09 1034.6,270.6 1055.83,280.04L1074.54,288.39C1093.34,296.82 1102.3,304.01 1102.3,322.09C1102.3,346.77 1080.01,353.35 1066.83,353.35C1055.5,353.35 1042.88,350.92 1027.38,333.36L1026.77,332.67L1016.58,341.62C1011.33,346.24 1011.29,350.19 1016.4,356.76C1030.43,374.8 1051,378.59 1065.79,378.59C1097.77,378.59 1130.15,358.95 1130.15,321.41C1130.15,288.92 1112.11,274.49 1085.02,262.83" style="fill:white;fill-rule:nonzero;"/>
        </g>
        <g transform="matrix(0.566485,0,0,0.566485,-285.451,4.12429)">
            <path d="M904.25,230.86C904.25,198.92 878.37,171.85 846.41,171.85C831.38,171.85 817.69,177.58 807.41,186.98L807.41,176L788.17,176C782.37,176 780.16,179.78 780.16,184.13L780.16,370.53C780.16,375.78 783.36,378.58 788.08,378.58L807.33,378.58L807.33,231.99C807.33,212.73 822.95,197.12 842.21,197.12C861.47,197.12 877.08,212.73 877.08,231.99L877.08,378.61L896.2,378.61C901.5,378.61 904.25,375.66 904.25,370.59L904.25,230.86Z" style="fill:white;fill-rule:nonzero;"/>
        </g>
        <g transform="matrix(0.566485,0,0,0.566485,-285.451,4.12429)">
            <path d="M1014.6,185.79C1015.61,184.54 1016.23,182.98 1016.23,181.26C1016.23,178.05 1014.14,175.35 1011.26,174.38C1005.69,172.52 999.76,171.49 993.6,171.49C978.57,171.49 964.88,177.22 954.6,186.62L954.6,175.64L935.36,175.64C929.56,175.64 927.34,179.42 927.34,183.77L927.34,370.17C927.34,375.42 930.55,378.22 935.27,378.22L954.51,378.22L954.51,231.63C954.51,212.37 970.13,196.76 989.39,196.76C994.44,196.76 999.22,197.85 1003.54,199.78L1014.66,185.83L1014.6,185.79Z" style="fill:white;fill-rule:nonzero;"/>
        </g>
    </g>
    <g transform="matrix(0.217964,0,0,0.216766,-4.89084,7.86347)">
        <path d="M596,341C632,341 669,329 688,306L688,281L619,281C577,281 545,262 545,199C545,153 562,119 602,119C614,119 630,122 643,135C659,119 676,99 682,92C665,75 644,57 599,57C529,57 471,106 471,201C471,288 519,341 596,341ZM612,236L712,236L712,177L612,177L612,236ZM789,337L860,337C941,337 1000,310 1000,203C1000,105 948,62 871,62L790,62L790,223L860,222L862,119C906,119 927,140 927,198C927,281 908,281 855,281L789,281L789,337ZM1078,337L1152,337L1152,244L1170,244C1172,244 1178,244 1179,245C1182,248 1208,304 1226,336L1306,336C1275,279 1269,266 1248,230C1252,227 1255,225 1258,223C1279,209 1291,180 1291,150C1291,100 1258,63 1185,63L1078,63L1078,119L1188,119C1208,119 1222,135 1222,154C1222,174 1205,188 1184,188C1178,188 1174,188 1078,187L1078,337Z" style="fill:rgb(93,196,225);fill-rule:nonzero;"/>
    </g>
    <g transform="matrix(0.586333,0,0,0.586333,121.369,17.8748)">
        <g transform="matrix(49.7369,0,0,49.7369,298,47.3898)">
            <path d="M0.388,0.013C0.487,0.013 0.568,-0.023 0.615,-0.072L0.615,-0.38L0.375,-0.38L0.375,-0.303L0.53,-0.303L0.53,-0.111C0.501,-0.084 0.45,-0.068 0.398,-0.068C0.24,-0.068 0.153,-0.184 0.153,-0.369C0.153,-0.552 0.249,-0.666 0.396,-0.666C0.471,-0.666 0.518,-0.635 0.555,-0.596L0.605,-0.656C0.563,-0.701 0.496,-0.747 0.394,-0.747C0.2,-0.747 0.058,-0.603 0.058,-0.366C0.058,-0.128 0.196,0.013 0.388,0.013Z" style="fill-rule:nonzero;"/>
        </g>
        <g transform="matrix(49.7369,0,0,49.7369,336.248,47.3898)">
            <path d="M0.092,-0L0.183,-0L0.183,-0.349C0.219,-0.442 0.275,-0.474 0.32,-0.474C0.342,-0.474 0.355,-0.472 0.373,-0.465L0.39,-0.545C0.373,-0.554 0.356,-0.557 0.332,-0.557C0.271,-0.557 0.216,-0.513 0.178,-0.444L0.175,-0.444L0.167,-0.543L0.092,-0.543L0.092,-0Z" style="fill-rule:nonzero;"/>
        </g>
        <g transform="matrix(49.7369,0,0,49.7369,358.977,47.3898)">
            <path d="M0.303,0.013C0.436,0.013 0.555,-0.091 0.555,-0.271C0.555,-0.452 0.436,-0.557 0.303,-0.557C0.17,-0.557 0.051,-0.452 0.051,-0.271C0.051,-0.091 0.17,0.013 0.303,0.013ZM0.303,-0.063C0.209,-0.063 0.146,-0.146 0.146,-0.271C0.146,-0.396 0.209,-0.481 0.303,-0.481C0.397,-0.481 0.461,-0.396 0.461,-0.271C0.461,-0.146 0.397,-0.063 0.303,-0.063Z" style="fill-rule:nonzero;"/>
        </g>
        <g transform="matrix(49.7369,0,0,49.7369,393.097,47.3898)">
            <path d="M0.25,0.013C0.325,0.013 0.379,-0.026 0.43,-0.085L0.433,-0.085L0.44,-0L0.516,-0L0.516,-0.543L0.425,-0.543L0.425,-0.158C0.373,-0.093 0.334,-0.066 0.278,-0.066C0.206,-0.066 0.176,-0.109 0.176,-0.21L0.176,-0.543L0.085,-0.543L0.085,-0.199C0.085,-0.061 0.136,0.013 0.25,0.013Z" style="fill-rule:nonzero;"/>
        </g>
        <g transform="matrix(49.7369,0,0,49.7369,427.266,47.3898)">
            <path d="M0.092,0.229L0.183,0.229L0.183,0.045L0.181,-0.05C0.23,-0.01 0.282,0.013 0.331,0.013C0.456,0.013 0.567,-0.094 0.567,-0.28C0.567,-0.447 0.491,-0.557 0.351,-0.557C0.288,-0.557 0.227,-0.521 0.178,-0.481L0.175,-0.481L0.167,-0.543L0.092,-0.543L0.092,0.229ZM0.316,-0.063C0.28,-0.063 0.232,-0.078 0.183,-0.12L0.183,-0.405C0.236,-0.454 0.283,-0.48 0.329,-0.48C0.432,-0.48 0.472,-0.399 0.472,-0.279C0.472,-0.144 0.406,-0.063 0.316,-0.063Z" style="fill-rule:nonzero;"/>
        </g>
        <g transform="matrix(49.7369,0,0,49.7369,462.082,47.3898)">
            <path d="M0.311,0.013C0.385,0.013 0.443,-0.012 0.491,-0.043L0.458,-0.103C0.418,-0.076 0.375,-0.06 0.322,-0.06C0.219,-0.06 0.148,-0.134 0.142,-0.25L0.508,-0.25C0.51,-0.263 0.512,-0.282 0.512,-0.302C0.512,-0.457 0.434,-0.557 0.296,-0.557C0.17,-0.557 0.051,-0.447 0.051,-0.271C0.051,-0.092 0.167,0.013 0.311,0.013ZM0.141,-0.316C0.152,-0.422 0.22,-0.484 0.297,-0.484C0.382,-0.484 0.432,-0.425 0.432,-0.316L0.141,-0.316Z" style="fill-rule:nonzero;"/>
        </g>
        <g transform="matrix(49.7369,0,0,49.7369,493.615,47.3898)">
            <path d="M0.092,-0L0.183,-0L0.183,-0.394C0.233,-0.45 0.279,-0.477 0.32,-0.477C0.389,-0.477 0.421,-0.434 0.421,-0.332L0.421,-0L0.512,-0L0.512,-0.394C0.563,-0.45 0.607,-0.477 0.649,-0.477C0.718,-0.477 0.75,-0.434 0.75,-0.332L0.75,-0L0.841,-0L0.841,-0.344C0.841,-0.483 0.788,-0.557 0.676,-0.557C0.61,-0.557 0.553,-0.514 0.497,-0.453C0.475,-0.517 0.43,-0.557 0.347,-0.557C0.282,-0.557 0.225,-0.516 0.178,-0.464L0.175,-0.464L0.167,-0.543L0.092,-0.543L0.092,-0Z" style="fill-rule:nonzero;"/>
        </g>
        <g transform="matrix(49.7369,0,0,49.7369,543.651,47.3898)">
            <path d="M0.311,0.013C0.385,0.013 0.443,-0.012 0.491,-0.043L0.458,-0.103C0.418,-0.076 0.375,-0.06 0.322,-0.06C0.219,-0.06 0.148,-0.134 0.142,-0.25L0.508,-0.25C0.51,-0.263 0.512,-0.282 0.512,-0.302C0.512,-0.457 0.434,-0.557 0.296,-0.557C0.17,-0.557 0.051,-0.447 0.051,-0.271C0.051,-0.092 0.167,0.013 0.311,0.013ZM0.141,-0.316C0.152,-0.422 0.22,-0.484 0.297,-0.484C0.382,-0.484 0.432,-0.425 0.432,-0.316L0.141,-0.316Z" style="fill-rule:nonzero;"/>
        </g>
        <g transform="matrix(49.7369,0,0,49.7369,575.184,47.3898)">
            <path d="M0.092,-0L0.183,-0L0.183,-0.394C0.238,-0.449 0.276,-0.477 0.332,-0.477C0.404,-0.477 0.435,-0.434 0.435,-0.332L0.435,-0L0.526,-0L0.526,-0.344C0.526,-0.483 0.474,-0.557 0.36,-0.557C0.286,-0.557 0.23,-0.516 0.178,-0.465L0.175,-0.465L0.167,-0.543L0.092,-0.543L0.092,-0Z" style="fill-rule:nonzero;"/>
        </g>
        <g transform="matrix(49.7369,0,0,49.7369,609.552,47.3898)">
            <path d="M0.263,0.013C0.296,0.013 0.332,0.003 0.363,-0.007L0.345,-0.075C0.327,-0.068 0.302,-0.061 0.283,-0.061C0.22,-0.061 0.199,-0.099 0.199,-0.166L0.199,-0.469L0.346,-0.469L0.346,-0.543L0.199,-0.543L0.199,-0.696L0.123,-0.696L0.112,-0.543L0.027,-0.538L0.027,-0.469L0.108,-0.469L0.108,-0.168C0.108,-0.06 0.147,0.013 0.263,0.013Z" style="fill-rule:nonzero;"/>
        </g>
        <g transform="matrix(49.7369,0,0,49.7369,298,102.108)">
            <path d="M0.277,0.013C0.342,0.013 0.399,-0.022 0.442,-0.064L0.445,-0.064L0.453,-0L0.527,-0L0.527,-0.796L0.437,-0.796L0.437,-0.587L0.441,-0.493C0.393,-0.533 0.352,-0.557 0.288,-0.557C0.164,-0.557 0.053,-0.447 0.053,-0.271C0.053,-0.09 0.141,0.013 0.277,0.013ZM0.297,-0.063C0.201,-0.063 0.147,-0.141 0.147,-0.272C0.147,-0.396 0.216,-0.48 0.304,-0.48C0.349,-0.48 0.39,-0.464 0.437,-0.423L0.437,-0.138C0.391,-0.088 0.347,-0.063 0.297,-0.063Z" style="fill-rule:nonzero;"/>
        </g>
        <g transform="matrix(49.7369,0,0,49.7369,332.816,102.108)">
            <path d="M0.311,0.013C0.385,0.013 0.443,-0.012 0.491,-0.043L0.458,-0.103C0.418,-0.076 0.375,-0.06 0.322,-0.06C0.219,-0.06 0.148,-0.134 0.142,-0.25L0.508,-0.25C0.51,-0.263 0.512,-0.282 0.512,-0.302C0.512,-0.457 0.434,-0.557 0.296,-0.557C0.17,-0.557 0.051,-0.447 0.051,-0.271C0.051,-0.092 0.167,0.013 0.311,0.013ZM0.141,-0.316C0.152,-0.422 0.22,-0.484 0.297,-0.484C0.382,-0.484 0.432,-0.425 0.432,-0.316L0.141,-0.316Z" style="fill-rule:nonzero;"/>
        </g>
        <g transform="matrix(49.7369,0,0,49.7369,379.469,102.108)">
            <path d="M0.092,-0L0.183,-0L0.183,-0.349C0.219,-0.442 0.275,-0.474 0.32,-0.474C0.342,-0.474 0.355,-0.472 0.373,-0.465L0.39,-0.545C0.373,-0.554 0.356,-0.557 0.332,-0.557C0.271,-0.557 0.216,-0.513 0.178,-0.444L0.175,-0.444L0.167,-0.543L0.092,-0.543L0.092,-0Z" style="fill-rule:nonzero;"/>
        </g>
        <g transform="matrix(49.7369,0,0,49.7369,402.199,102.108)">
            <path d="M0.311,0.013C0.385,0.013 0.443,-0.012 0.491,-0.043L0.458,-0.103C0.418,-0.076 0.375,-0.06 0.322,-0.06C0.219,-0.06 0.148,-0.134 0.142,-0.25L0.508,-0.25C0.51,-0.263 0.512,-0.282 0.512,-0.302C0.512,-0.457 0.434,-0.557 0.296,-0.557C0.17,-0.557 0.051,-0.447 0.051,-0.271C0.051,-0.092 0.167,0.013 0.311,0.013ZM0.141,-0.316C0.152,-0.422 0.22,-0.484 0.297,-0.484C0.382,-0.484 0.432,-0.425 0.432,-0.316L0.141,-0.316Z" style="fill-rule:nonzero;"/>
        </g>
        <g transform="matrix(49.7369,0,0,49.7369,433.732,102.108)">
            <path d="M0.306,0.013C0.371,0.013 0.433,-0.012 0.482,-0.056L0.442,-0.117C0.408,-0.086 0.364,-0.063 0.314,-0.063C0.214,-0.063 0.146,-0.146 0.146,-0.271C0.146,-0.396 0.218,-0.481 0.317,-0.481C0.36,-0.481 0.393,-0.461 0.425,-0.433L0.472,-0.493C0.433,-0.527 0.384,-0.557 0.313,-0.557C0.174,-0.557 0.051,-0.452 0.051,-0.271C0.051,-0.091 0.162,0.013 0.306,0.013Z" style="fill-rule:nonzero;"/>
        </g>
        <g transform="matrix(49.7369,0,0,49.7369,463.027,102.108)">
            <path d="M0.092,-0L0.183,-0L0.183,-0.394C0.238,-0.449 0.276,-0.477 0.332,-0.477C0.404,-0.477 0.435,-0.434 0.435,-0.332L0.435,-0L0.526,-0L0.526,-0.344C0.526,-0.483 0.474,-0.557 0.36,-0.557C0.286,-0.557 0.23,-0.516 0.18,-0.466L0.183,-0.578L0.183,-0.796L0.092,-0.796L0.092,-0Z" style="fill-rule:nonzero;"/>
        </g>
        <g transform="matrix(49.7369,0,0,49.7369,497.196,102.108)">
            <path d="M0.311,0.013C0.385,0.013 0.443,-0.012 0.491,-0.043L0.458,-0.103C0.418,-0.076 0.375,-0.06 0.322,-0.06C0.219,-0.06 0.148,-0.134 0.142,-0.25L0.508,-0.25C0.51,-0.263 0.512,-0.282 0.512,-0.302C0.512,-0.457 0.434,-0.557 0.296,-0.557C0.17,-0.557 0.051,-0.447 0.051,-0.271C0.051,-0.092 0.167,0.013 0.311,0.013ZM0.141,-0.316C0.152,-0.422 0.22,-0.484 0.297,-0.484C0.382,-0.484 0.432,-0.425 0.432,-0.316L0.141,-0.316Z" style="fill-rule:nonzero;"/>
        </g>
        <g transform="matrix(49.7369,0,0,49.7369,528.73,102.108)">
            <path d="M0.092,-0L0.183,-0L0.183,-0.349C0.219,-0.442 0.275,-0.474 0.32,-0.474C0.342,-0.474 0.355,-0.472 0.373,-0.465L0.39,-0.545C0.373,-0.554 0.356,-0.557 0.332,-0.557C0.271,-0.557 0.216,-0.513 0.178,-0.444L0.175,-0.444L0.167,-0.543L0.092,-0.543L0.092,-0Z" style="fill-rule:nonzero;"/>
        </g>
        <g transform="matrix(49.7369,0,0,49.7369,551.459,102.108)">
            <path d="M0.306,0.013C0.371,0.013 0.433,-0.012 0.482,-0.056L0.442,-0.117C0.408,-0.086 0.364,-0.063 0.314,-0.063C0.214,-0.063 0.146,-0.146 0.146,-0.271C0.146,-0.396 0.218,-0.481 0.317,-0.481C0.36,-0.481 0.393,-0.461 0.425,-0.433L0.472,-0.493C0.433,-0.527 0.384,-0.557 0.313,-0.557C0.174,-0.557 0.051,-0.452 0.051,-0.271C0.051,-0.091 0.162,0.013 0.306,0.013Z" style="fill-rule:nonzero;"/>
        </g>
        <g transform="matrix(49.7369,0,0,49.7369,580.754,102.108)">
            <path d="M0.092,-0L0.183,-0L0.183,-0.394C0.238,-0.449 0.276,-0.477 0.332,-0.477C0.404,-0.477 0.435,-0.434 0.435,-0.332L0.435,-0L0.526,-0L0.526,-0.344C0.526,-0.483 0.474,-0.557 0.36,-0.557C0.286,-0.557 0.23,-0.516 0.18,-0.466L0.183,-0.578L0.183,-0.796L0.092,-0.796L0.092,-0Z" style="fill-rule:nonzero;"/>
        </g>
        <g transform="matrix(49.7369,0,0,49.7369,614.924,102.108)">
            <path d="M0.311,0.013C0.385,0.013 0.443,-0.012 0.491,-0.043L0.458,-0.103C0.418,-0.076 0.375,-0.06 0.322,-0.06C0.219,-0.06 0.148,-0.134 0.142,-0.25L0.508,-0.25C0.51,-0.263 0.512,-0.282 0.512,-0.302C0.512,-0.457 0.434,-0.557 0.296,-0.557C0.17,-0.557 0.051,-0.447 0.051,-0.271C0.051,-0.092 0.167,0.013 0.311,0.013ZM0.141,-0.316C0.152,-0.422 0.22,-0.484 0.297,-0.484C0.382,-0.484 0.432,-0.425 0.432,-0.316L0.141,-0.316Z" style="fill-rule:nonzero;"/>
        </g>
    </g>
    <g transform="matrix(1.07607,0,0,1.07607,-8.54696,-169.452)">
        <g transform="matrix(27.6382,0,0,27.6382,102,265.197)">
            <path d="M0.086,-0L0.265,-0L0.265,-0.262L0.351,-0.262L0.488,-0L0.688,-0L0.522,-0.295C0.599,-0.331 0.65,-0.401 0.65,-0.51C0.65,-0.69 0.518,-0.745 0.359,-0.745L0.086,-0.745L0.086,-0ZM0.265,-0.403L0.265,-0.603L0.345,-0.603C0.43,-0.603 0.476,-0.58 0.476,-0.51C0.476,-0.44 0.43,-0.403 0.345,-0.403L0.265,-0.403Z" style="fill:rgb(93,196,225);fill-rule:nonzero;"/>
        </g>
        <g transform="matrix(27.6382,0,0,27.6382,123.033,265.197)">
            <path d="M0.393,0.014C0.596,0.014 0.734,-0.132 0.734,-0.376C0.734,-0.619 0.596,-0.758 0.393,-0.758C0.19,-0.758 0.052,-0.62 0.052,-0.376C0.052,-0.132 0.19,0.014 0.393,0.014ZM0.393,-0.14C0.295,-0.14 0.235,-0.232 0.235,-0.376C0.235,-0.52 0.295,-0.605 0.393,-0.605C0.491,-0.605 0.552,-0.52 0.552,-0.376C0.552,-0.232 0.491,-0.14 0.393,-0.14Z" style="fill:rgb(93,196,225);fill-rule:nonzero;"/>
        </g>
        <g transform="matrix(27.6382,0,0,27.6382,146.221,265.197)">
            <path d="M0.086,-0L0.31,-0C0.527,-0 0.677,-0.117 0.677,-0.376C0.677,-0.635 0.527,-0.745 0.3,-0.745L0.086,-0.745L0.086,-0ZM0.265,-0.144L0.265,-0.602L0.289,-0.602C0.409,-0.602 0.494,-0.553 0.494,-0.376C0.494,-0.199 0.409,-0.144 0.289,-0.144L0.265,-0.144Z" style="fill:rgb(93,196,225);fill-rule:nonzero;"/>
        </g>
    </g>
    <g transform="matrix(0.984174,0,0,0.984174,2.80417,-145.505)">
        <g transform="matrix(26.7042,0,0,26.7042,175,264.775)">
            <path d="M0.343,-0.288L0.176,-0.288L0.176,-0L0.082,-0L0.082,-0.711L0.317,-0.711C0.397,-0.711 0.459,-0.693 0.502,-0.656C0.545,-0.62 0.567,-0.567 0.567,-0.497C0.567,-0.453 0.555,-0.414 0.531,-0.381C0.507,-0.348 0.474,-0.324 0.431,-0.308L0.598,-0.006L0.598,-0L0.498,-0L0.343,-0.288ZM0.176,-0.364L0.32,-0.364C0.367,-0.364 0.404,-0.376 0.431,-0.4C0.459,-0.424 0.473,-0.457 0.473,-0.497C0.473,-0.541 0.46,-0.575 0.433,-0.598C0.407,-0.622 0.369,-0.633 0.32,-0.634L0.176,-0.634L0.176,-0.364Z" style="fill:rgb(93,196,225);fill-rule:nonzero;"/>
        </g>
        <g transform="matrix(26.7042,0,0,26.7042,192.137,264.775)">
            <path d="M0.288,0.01C0.216,0.01 0.158,-0.014 0.113,-0.061C0.068,-0.108 0.045,-0.171 0.045,-0.25L0.045,-0.266C0.045,-0.319 0.055,-0.365 0.075,-0.406C0.095,-0.448 0.123,-0.48 0.159,-0.503C0.195,-0.526 0.234,-0.538 0.276,-0.538C0.345,-0.538 0.398,-0.515 0.437,-0.47C0.475,-0.425 0.494,-0.36 0.494,-0.276L0.494,-0.238L0.136,-0.238C0.137,-0.186 0.152,-0.144 0.181,-0.112C0.211,-0.08 0.248,-0.064 0.292,-0.064C0.324,-0.064 0.351,-0.07 0.374,-0.083C0.396,-0.097 0.415,-0.114 0.432,-0.135L0.487,-0.092C0.443,-0.024 0.376,0.01 0.288,0.01ZM0.276,-0.464C0.24,-0.464 0.209,-0.451 0.185,-0.424C0.16,-0.398 0.145,-0.36 0.139,-0.313L0.403,-0.313L0.403,-0.319C0.401,-0.365 0.388,-0.401 0.366,-0.426C0.344,-0.451 0.314,-0.464 0.276,-0.464Z" style="fill:rgb(93,196,225);fill-rule:nonzero;"/>
        </g>
        <g transform="matrix(26.7042,0,0,26.7042,206.979,264.775)">
            <path d="M0.28,-0.064C0.313,-0.064 0.341,-0.074 0.365,-0.093C0.389,-0.113 0.402,-0.137 0.405,-0.167L0.49,-0.167C0.489,-0.136 0.478,-0.107 0.459,-0.08C0.44,-0.053 0.414,-0.031 0.382,-0.015C0.35,0.002 0.316,0.01 0.28,0.01C0.208,0.01 0.151,-0.014 0.109,-0.062C0.066,-0.11 0.045,-0.176 0.045,-0.259L0.045,-0.274C0.045,-0.326 0.054,-0.372 0.073,-0.412C0.092,-0.452 0.119,-0.483 0.155,-0.505C0.19,-0.527 0.232,-0.538 0.28,-0.538C0.339,-0.538 0.388,-0.52 0.427,-0.485C0.467,-0.449 0.488,-0.403 0.49,-0.347L0.405,-0.347C0.402,-0.381 0.389,-0.409 0.366,-0.431C0.343,-0.453 0.314,-0.464 0.28,-0.464C0.234,-0.464 0.198,-0.447 0.173,-0.414C0.148,-0.381 0.135,-0.333 0.135,-0.271L0.135,-0.254C0.135,-0.193 0.148,-0.146 0.173,-0.113C0.198,-0.08 0.234,-0.064 0.28,-0.064Z" style="fill:rgb(93,196,225);fill-rule:nonzero;"/>
        </g>
        <g transform="matrix(26.7042,0,0,26.7042,221.651,264.775)">
            <path d="M0.159,-0.464C0.199,-0.514 0.251,-0.538 0.315,-0.538C0.427,-0.538 0.483,-0.475 0.484,-0.349L0.484,-0L0.394,-0L0.394,-0.35C0.393,-0.388 0.385,-0.416 0.367,-0.434C0.35,-0.452 0.324,-0.461 0.288,-0.461C0.258,-0.461 0.233,-0.454 0.21,-0.438C0.188,-0.422 0.171,-0.402 0.159,-0.376L0.159,-0L0.068,-0L0.068,-0.75L0.159,-0.75L0.159,-0.464Z" style="fill:rgb(93,196,225);fill-rule:nonzero;"/>
        </g>
        <g transform="matrix(26.7042,0,0,26.7042,237.053,264.775)">
            <path d="M0.288,0.01C0.216,0.01 0.158,-0.014 0.113,-0.061C0.068,-0.108 0.045,-0.171 0.045,-0.25L0.045,-0.266C0.045,-0.319 0.055,-0.365 0.075,-0.406C0.095,-0.448 0.123,-0.48 0.159,-0.503C0.195,-0.526 0.234,-0.538 0.276,-0.538C0.345,-0.538 0.398,-0.515 0.437,-0.47C0.475,-0.425 0.494,-0.36 0.494,-0.276L0.494,-0.238L0.136,-0.238C0.137,-0.186 0.152,-0.144 0.181,-0.112C0.211,-0.08 0.248,-0.064 0.292,-0.064C0.324,-0.064 0.351,-0.07 0.374,-0.083C0.396,-0.097 0.415,-0.114 0.432,-0.135L0.487,-0.092C0.443,-0.024 0.376,0.01 0.288,0.01ZM0.276,-0.464C0.24,-0.464 0.209,-0.451 0.185,-0.424C0.16,-0.398 0.145,-0.36 0.139,-0.313L0.403,-0.313L0.403,-0.319C0.401,-0.365 0.388,-0.401 0.366,-0.426C0.344,-0.451 0.314,-0.464 0.276,-0.464Z" style="fill:rgb(93,196,225);fill-rule:nonzero;"/>
        </g>
        <g transform="matrix(26.7042,0,0,26.7042,251.895,264.775)">
            <path d="M0.324,-0.447C0.31,-0.45 0.295,-0.451 0.279,-0.451C0.22,-0.451 0.18,-0.425 0.159,-0.375L0.159,-0L0.068,-0L0.068,-0.528L0.156,-0.528L0.158,-0.467C0.187,-0.514 0.229,-0.538 0.284,-0.538C0.301,-0.538 0.315,-0.536 0.324,-0.531L0.324,-0.447Z" style="fill:rgb(93,196,225);fill-rule:nonzero;"/>
        </g>
        <g transform="matrix(26.7042,0,0,26.7042,261.378,264.775)">
            <path d="M0.28,-0.064C0.313,-0.064 0.341,-0.074 0.365,-0.093C0.389,-0.113 0.402,-0.137 0.405,-0.167L0.49,-0.167C0.489,-0.136 0.478,-0.107 0.459,-0.08C0.44,-0.053 0.414,-0.031 0.382,-0.015C0.35,0.002 0.316,0.01 0.28,0.01C0.208,0.01 0.151,-0.014 0.109,-0.062C0.066,-0.11 0.045,-0.176 0.045,-0.259L0.045,-0.274C0.045,-0.326 0.054,-0.372 0.073,-0.412C0.092,-0.452 0.119,-0.483 0.155,-0.505C0.19,-0.527 0.232,-0.538 0.28,-0.538C0.339,-0.538 0.388,-0.52 0.427,-0.485C0.467,-0.449 0.488,-0.403 0.49,-0.347L0.405,-0.347C0.402,-0.381 0.389,-0.409 0.366,-0.431C0.343,-0.453 0.314,-0.464 0.28,-0.464C0.234,-0.464 0.198,-0.447 0.173,-0.414C0.148,-0.381 0.135,-0.333 0.135,-0.271L0.135,-0.254C0.135,-0.193 0.148,-0.146 0.173,-0.113C0.198,-0.08 0.234,-0.064 0.28,-0.064Z" style="fill:rgb(93,196,225);fill-rule:nonzero;"/>
        </g>
        <g transform="matrix(26.7042,0,0,26.7042,276.05,264.775)">
            <path d="M0.159,-0.464C0.199,-0.514 0.251,-0.538 0.315,-0.538C0.427,-0.538 0.483,-0.475 0.484,-0.349L0.484,-0L0.394,-0L0.394,-0.35C0.393,-0.388 0.385,-0.416 0.367,-0.434C0.35,-0.452 0.324,-0.461 0.288,-0.461C0.258,-0.461 0.233,-0.454 0.21,-0.438C0.188,-0.422 0.171,-0.402 0.159,-0.376L0.159,-0L0.068,-0L0.068,-0.75L0.159,-0.75L0.159,-0.464Z" style="fill:rgb(93,196,225);fill-rule:nonzero;"/>
        </g>
        <g transform="matrix(26.7042,0,0,26.7042,291.453,264.775)">
            <path d="M0.288,0.01C0.216,0.01 0.158,-0.014 0.113,-0.061C0.068,-0.108 0.045,-0.171 0.045,-0.25L0.045,-0.266C0.045,-0.319 0.055,-0.365 0.075,-0.406C0.095,-0.448 0.123,-0.48 0.159,-0.503C0.195,-0.526 0.234,-0.538 0.276,-0.538C0.345,-0.538 0.398,-0.515 0.437,-0.47C0.475,-0.425 0.494,-0.36 0.494,-0.276L0.494,-0.238L0.136,-0.238C0.137,-0.186 0.152,-0.144 0.181,-0.112C0.211,-0.08 0.248,-0.064 0.292,-0.064C0.324,-0.064 0.351,-0.07 0.374,-0.083C0.396,-0.097 0.415,-0.114 0.432,-0.135L0.487,-0.092C0.443,-0.024 0.376,0.01 0.288,0.01ZM0.276,-0.464C0.24,-0.464 0.209,-0.451 0.185,-0.424C0.16,-0.398 0.145,-0.36 0.139,-0.313L0.403,-0.313L0.403,-0.319C0.401,-0.365 0.388,-0.401 0.366,-0.426C0.344,-0.451 0.314,-0.464 0.276,-0.464Z" style="fill:rgb(93,196,225);fill-rule:nonzero;"/>
        </g>
        <g transform="matrix(26.7042,0,0,26.7042,313.6,264.775)">
            <path d="M0.629,-0.333C0.629,-0.263 0.618,-0.202 0.594,-0.15C0.571,-0.098 0.538,-0.059 0.495,-0.031C0.452,-0.004 0.402,0.01 0.344,0.01C0.288,0.01 0.239,-0.004 0.195,-0.031C0.152,-0.059 0.118,-0.098 0.094,-0.149C0.071,-0.2 0.058,-0.259 0.058,-0.326L0.058,-0.377C0.058,-0.446 0.069,-0.506 0.093,-0.559C0.117,-0.611 0.151,-0.651 0.194,-0.679C0.238,-0.707 0.287,-0.721 0.343,-0.721C0.4,-0.721 0.45,-0.707 0.494,-0.679C0.537,-0.652 0.571,-0.612 0.594,-0.56C0.618,-0.508 0.629,-0.447 0.629,-0.377L0.629,-0.333ZM0.536,-0.378C0.536,-0.463 0.519,-0.527 0.485,-0.573C0.451,-0.618 0.404,-0.64 0.343,-0.64C0.284,-0.64 0.237,-0.618 0.203,-0.573C0.169,-0.527 0.152,-0.465 0.151,-0.385L0.151,-0.333C0.151,-0.251 0.168,-0.187 0.202,-0.14C0.237,-0.093 0.284,-0.07 0.344,-0.07C0.405,-0.07 0.452,-0.092 0.485,-0.136C0.518,-0.18 0.535,-0.243 0.536,-0.326L0.536,-0.378Z" style="fill:rgb(93,196,225);fill-rule:nonzero;"/>
        </g>
        <g transform="matrix(26.7042,0,0,26.7042,332.653,264.775)">
            <path d="M0.515,-0.258C0.515,-0.178 0.496,-0.113 0.459,-0.064C0.423,-0.015 0.373,0.01 0.31,0.01C0.246,0.01 0.195,-0.011 0.159,-0.051L0.159,0.203L0.068,0.203L0.068,-0.528L0.151,-0.528L0.155,-0.47C0.192,-0.515 0.243,-0.538 0.309,-0.538C0.372,-0.538 0.422,-0.514 0.459,-0.466C0.496,-0.418 0.515,-0.352 0.515,-0.267L0.515,-0.258ZM0.424,-0.269C0.424,-0.328 0.412,-0.375 0.386,-0.41C0.361,-0.444 0.326,-0.461 0.282,-0.461C0.227,-0.461 0.186,-0.437 0.159,-0.389L0.159,-0.136C0.186,-0.088 0.227,-0.064 0.283,-0.064C0.326,-0.064 0.36,-0.081 0.386,-0.115C0.412,-0.15 0.424,-0.201 0.424,-0.269Z" style="fill:rgb(93,196,225);fill-rule:nonzero;"/>
        </g>
        <g transform="matrix(26.7042,0,0,26.7042,348.329,264.775)">
            <path d="M0.288,0.01C0.216,0.01 0.158,-0.014 0.113,-0.061C0.068,-0.108 0.045,-0.171 0.045,-0.25L0.045,-0.266C0.045,-0.319 0.055,-0.365 0.075,-0.406C0.095,-0.448 0.123,-0.48 0.159,-0.503C0.195,-0.526 0.234,-0.538 0.276,-0.538C0.345,-0.538 0.398,-0.515 0.437,-0.47C0.475,-0.425 0.494,-0.36 0.494,-0.276L0.494,-0.238L0.136,-0.238C0.137,-0.186 0.152,-0.144 0.181,-0.112C0.211,-0.08 0.248,-0.064 0.292,-0.064C0.324,-0.064 0.351,-0.07 0.374,-0.083C0.396,-0.097 0.415,-0.114 0.432,-0.135L0.487,-0.092C0.443,-0.024 0.376,0.01 0.288,0.01ZM0.276,-0.464C0.24,-0.464 0.209,-0.451 0.185,-0.424C0.16,-0.398 0.145,-0.36 0.139,-0.313L0.403,-0.313L0.403,-0.319C0.401,-0.365 0.388,-0.401 0.366,-0.426C0.344,-0.451 0.314,-0.464 0.276,-0.464ZM0.32,-0.75L0.43,-0.75L0.299,-0.606L0.226,-0.606L0.32,-0.75Z" style="fill:rgb(93,196,225);fill-rule:nonzero;"/>
        </g>
        <g transform="matrix(26.7042,0,0,26.7042,363.171,264.775)">
            <path d="M0.324,-0.447C0.31,-0.45 0.295,-0.451 0.279,-0.451C0.22,-0.451 0.18,-0.425 0.159,-0.375L0.159,-0L0.068,-0L0.068,-0.528L0.156,-0.528L0.158,-0.467C0.187,-0.514 0.229,-0.538 0.284,-0.538C0.301,-0.538 0.315,-0.536 0.324,-0.531L0.324,-0.447Z" style="fill:rgb(93,196,225);fill-rule:nonzero;"/>
        </g>
        <g transform="matrix(26.7042,0,0,26.7042,372.38,264.775)">
            <path d="M0.395,-0C0.389,-0.01 0.385,-0.029 0.382,-0.056C0.34,-0.012 0.29,0.01 0.231,0.01C0.179,0.01 0.137,-0.005 0.103,-0.034C0.07,-0.064 0.053,-0.101 0.053,-0.146C0.053,-0.201 0.074,-0.244 0.116,-0.275C0.158,-0.305 0.217,-0.32 0.292,-0.32L0.38,-0.32L0.38,-0.362C0.38,-0.393 0.371,-0.419 0.352,-0.437C0.333,-0.456 0.305,-0.465 0.269,-0.465C0.236,-0.465 0.209,-0.457 0.188,-0.441C0.166,-0.425 0.155,-0.405 0.155,-0.382L0.064,-0.382C0.064,-0.408 0.073,-0.434 0.092,-0.458C0.111,-0.483 0.136,-0.502 0.168,-0.517C0.2,-0.531 0.236,-0.538 0.274,-0.538C0.335,-0.538 0.382,-0.523 0.417,-0.492C0.451,-0.462 0.469,-0.42 0.471,-0.367L0.471,-0.124C0.471,-0.075 0.477,-0.036 0.489,-0.008L0.489,-0L0.395,-0ZM0.245,-0.069C0.273,-0.069 0.3,-0.076 0.325,-0.091C0.351,-0.105 0.369,-0.125 0.38,-0.148L0.38,-0.256L0.31,-0.256C0.199,-0.256 0.144,-0.224 0.144,-0.159C0.144,-0.131 0.153,-0.109 0.172,-0.093C0.191,-0.077 0.215,-0.069 0.245,-0.069Z" style="fill:rgb(93,196,225);fill-rule:nonzero;"/>
        </g>
        <g transform="matrix(26.7042,0,0,26.7042,387.6,264.775)">
            <path d="M0.191,-0.656L0.191,-0.528L0.29,-0.528L0.29,-0.458L0.191,-0.458L0.191,-0.131C0.191,-0.11 0.195,-0.094 0.204,-0.083C0.213,-0.073 0.228,-0.067 0.249,-0.067C0.259,-0.067 0.274,-0.069 0.292,-0.073L0.292,-0C0.268,0.007 0.245,0.01 0.223,0.01C0.182,0.01 0.152,-0.002 0.131,-0.027C0.111,-0.051 0.101,-0.086 0.101,-0.131L0.101,-0.458L0.004,-0.458L0.004,-0.528L0.101,-0.528L0.101,-0.656L0.191,-0.656Z" style="fill:rgb(93,196,225);fill-rule:nonzero;"/>
        </g>
        <g transform="matrix(26.7042,0,0,26.7042,397.018,264.775)">
            <path d="M0.167,-0L0.076,-0L0.076,-0.528L0.167,-0.528L0.167,-0ZM0.069,-0.668C0.069,-0.683 0.073,-0.695 0.082,-0.706C0.091,-0.716 0.104,-0.721 0.122,-0.721C0.14,-0.721 0.153,-0.716 0.162,-0.706C0.171,-0.695 0.176,-0.683 0.176,-0.668C0.176,-0.654 0.171,-0.642 0.162,-0.632C0.153,-0.622 0.14,-0.617 0.122,-0.617C0.104,-0.617 0.091,-0.622 0.082,-0.632C0.073,-0.642 0.069,-0.654 0.069,-0.668Z" style="fill:rgb(93,196,225);fill-rule:nonzero;"/>
        </g>
        <g transform="matrix(26.7042,0,0,26.7042,404.192,264.775)">
            <path d="M0.044,-0.269C0.044,-0.321 0.055,-0.367 0.075,-0.409C0.095,-0.45 0.124,-0.482 0.16,-0.504C0.196,-0.527 0.238,-0.538 0.284,-0.538C0.356,-0.538 0.414,-0.513 0.459,-0.463C0.503,-0.414 0.525,-0.347 0.525,-0.265L0.525,-0.258C0.525,-0.207 0.516,-0.161 0.496,-0.12C0.476,-0.079 0.448,-0.047 0.411,-0.024C0.375,-0.002 0.333,0.01 0.285,0.01C0.214,0.01 0.156,-0.015 0.111,-0.065C0.067,-0.115 0.044,-0.181 0.044,-0.263L0.044,-0.269ZM0.135,-0.258C0.135,-0.2 0.149,-0.153 0.176,-0.117C0.203,-0.082 0.24,-0.064 0.285,-0.064C0.331,-0.064 0.368,-0.082 0.395,-0.118C0.422,-0.154 0.435,-0.204 0.435,-0.269C0.435,-0.327 0.421,-0.374 0.394,-0.41C0.366,-0.446 0.33,-0.464 0.284,-0.464C0.24,-0.464 0.204,-0.446 0.176,-0.411C0.149,-0.375 0.135,-0.324 0.135,-0.258Z" style="fill:rgb(93,196,225);fill-rule:nonzero;"/>
        </g>
        <g transform="matrix(26.7042,0,0,26.7042,420.117,264.775)">
            <path d="M0.154,-0.528L0.157,-0.462C0.197,-0.513 0.25,-0.538 0.315,-0.538C0.427,-0.538 0.483,-0.475 0.484,-0.349L0.484,-0L0.394,-0L0.394,-0.35C0.393,-0.388 0.385,-0.416 0.367,-0.434C0.35,-0.452 0.324,-0.461 0.288,-0.461C0.258,-0.461 0.233,-0.454 0.21,-0.438C0.188,-0.422 0.171,-0.402 0.159,-0.376L0.159,-0L0.068,-0L0.068,-0.528L0.154,-0.528Z" style="fill:rgb(93,196,225);fill-rule:nonzero;"/>
        </g>
        <g transform="matrix(26.7042,0,0,26.7042,435.545,264.775)">
            <path d="M0.154,-0.528L0.157,-0.462C0.197,-0.513 0.25,-0.538 0.315,-0.538C0.427,-0.538 0.483,-0.475 0.484,-0.349L0.484,-0L0.394,-0L0.394,-0.35C0.393,-0.388 0.385,-0.416 0.367,-0.434C0.35,-0.452 0.324,-0.461 0.288,-0.461C0.258,-0.461 0.233,-0.454 0.21,-0.438C0.188,-0.422 0.171,-0.402 0.159,-0.376L0.159,-0L0.068,-0L0.068,-0.528L0.154,-0.528Z" style="fill:rgb(93,196,225);fill-rule:nonzero;"/>
        </g>
        <g transform="matrix(26.7042,0,0,26.7042,450.974,264.775)">
            <path d="M0.288,0.01C0.216,0.01 0.158,-0.014 0.113,-0.061C0.068,-0.108 0.045,-0.171 0.045,-0.25L0.045,-0.266C0.045,-0.319 0.055,-0.365 0.075,-0.406C0.095,-0.448 0.123,-0.48 0.159,-0.503C0.195,-0.526 0.234,-0.538 0.276,-0.538C0.345,-0.538 0.398,-0.515 0.437,-0.47C0.475,-0.425 0.494,-0.36 0.494,-0.276L0.494,-0.238L0.136,-0.238C0.137,-0.186 0.152,-0.144 0.181,-0.112C0.211,-0.08 0.248,-0.064 0.292,-0.064C0.324,-0.064 0.351,-0.07 0.374,-0.083C0.396,-0.097 0.415,-0.114 0.432,-0.135L0.487,-0.092C0.443,-0.024 0.376,0.01 0.288,0.01ZM0.276,-0.464C0.24,-0.464 0.209,-0.451 0.185,-0.424C0.16,-0.398 0.145,-0.36 0.139,-0.313L0.403,-0.313L0.403,-0.319C0.401,-0.365 0.388,-0.401 0.366,-0.426C0.344,-0.451 0.314,-0.464 0.276,-0.464Z" style="fill:rgb(93,196,225);fill-rule:nonzero;"/>
        </g>
        <g transform="matrix(26.7042,0,0,26.7042,465.815,264.775)">
            <rect x="0.076" y="-0.75" width="0.09" height="0.75" style="fill:rgb(93,196,225);"/>
        </g>
        <g transform="matrix(26.7042,0,0,26.7042,472.99,264.775)">
            <rect x="0.076" y="-0.75" width="0.09" height="0.75" style="fill:rgb(93,196,225);"/>
        </g>
        <g transform="matrix(26.7042,0,0,26.7042,480.165,264.775)">
            <path d="M0.288,0.01C0.216,0.01 0.158,-0.014 0.113,-0.061C0.068,-0.108 0.045,-0.171 0.045,-0.25L0.045,-0.266C0.045,-0.319 0.055,-0.365 0.075,-0.406C0.095,-0.448 0.123,-0.48 0.159,-0.503C0.195,-0.526 0.234,-0.538 0.276,-0.538C0.345,-0.538 0.398,-0.515 0.437,-0.47C0.475,-0.425 0.494,-0.36 0.494,-0.276L0.494,-0.238L0.136,-0.238C0.137,-0.186 0.152,-0.144 0.181,-0.112C0.211,-0.08 0.248,-0.064 0.292,-0.064C0.324,-0.064 0.351,-0.07 0.374,-0.083C0.396,-0.097 0.415,-0.114 0.432,-0.135L0.487,-0.092C0.443,-0.024 0.376,0.01 0.288,0.01ZM0.276,-0.464C0.24,-0.464 0.209,-0.451 0.185,-0.424C0.16,-0.398 0.145,-0.36 0.139,-0.313L0.403,-0.313L0.403,-0.319C0.401,-0.365 0.388,-0.401 0.366,-0.426C0.344,-0.451 0.314,-0.464 0.276,-0.464Z" style="fill:rgb(93,196,225);fill-rule:nonzero;"/>
        </g>
        <g transform="matrix(26.7042,0,0,26.7042,499.642,264.775)">
            <path d="M0.288,0.01C0.216,0.01 0.158,-0.014 0.113,-0.061C0.068,-0.108 0.045,-0.171 0.045,-0.25L0.045,-0.266C0.045,-0.319 0.055,-0.365 0.075,-0.406C0.095,-0.448 0.123,-0.48 0.159,-0.503C0.195,-0.526 0.234,-0.538 0.276,-0.538C0.345,-0.538 0.398,-0.515 0.437,-0.47C0.475,-0.425 0.494,-0.36 0.494,-0.276L0.494,-0.238L0.136,-0.238C0.137,-0.186 0.152,-0.144 0.181,-0.112C0.211,-0.08 0.248,-0.064 0.292,-0.064C0.324,-0.064 0.351,-0.07 0.374,-0.083C0.396,-0.097 0.415,-0.114 0.432,-0.135L0.487,-0.092C0.443,-0.024 0.376,0.01 0.288,0.01ZM0.276,-0.464C0.24,-0.464 0.209,-0.451 0.185,-0.424C0.16,-0.398 0.145,-0.36 0.139,-0.313L0.403,-0.313L0.403,-0.319C0.401,-0.365 0.388,-0.401 0.366,-0.426C0.344,-0.451 0.314,-0.464 0.276,-0.464Z" style="fill:rgb(93,196,225);fill-rule:nonzero;"/>
        </g>
        <g transform="matrix(26.7042,0,0,26.7042,514.483,264.775)">
            <path d="M0.191,-0.656L0.191,-0.528L0.29,-0.528L0.29,-0.458L0.191,-0.458L0.191,-0.131C0.191,-0.11 0.195,-0.094 0.204,-0.083C0.213,-0.073 0.228,-0.067 0.249,-0.067C0.259,-0.067 0.274,-0.069 0.292,-0.073L0.292,-0C0.268,0.007 0.245,0.01 0.223,0.01C0.182,0.01 0.152,-0.002 0.131,-0.027C0.111,-0.051 0.101,-0.086 0.101,-0.131L0.101,-0.458L0.004,-0.458L0.004,-0.528L0.101,-0.528L0.101,-0.656L0.191,-0.656Z" style="fill:rgb(93,196,225);fill-rule:nonzero;"/>
        </g>
        <g transform="matrix(26.7042,0,0,26.7042,531.206,264.775)">
            <path d="M0.083,-0L0.083,-0.711L0.283,-0.711C0.345,-0.711 0.4,-0.697 0.447,-0.67C0.495,-0.643 0.531,-0.604 0.557,-0.553C0.583,-0.503 0.596,-0.445 0.597,-0.379L0.597,-0.334C0.597,-0.267 0.584,-0.208 0.558,-0.158C0.532,-0.107 0.495,-0.069 0.447,-0.042C0.399,-0.014 0.343,-0.001 0.279,-0L0.083,-0ZM0.176,-0.634L0.176,-0.077L0.275,-0.077C0.347,-0.077 0.403,-0.099 0.444,-0.144C0.484,-0.189 0.504,-0.253 0.504,-0.336L0.504,-0.377C0.504,-0.458 0.485,-0.521 0.447,-0.566C0.409,-0.61 0.355,-0.633 0.286,-0.634L0.176,-0.634Z" style="fill:rgb(93,196,225);fill-rule:nonzero;"/>
        </g>
        <g transform="matrix(26.7042,0,0,26.7042,549.412,264.775)">
            <path d="M0.288,0.01C0.216,0.01 0.158,-0.014 0.113,-0.061C0.068,-0.108 0.045,-0.171 0.045,-0.25L0.045,-0.266C0.045,-0.319 0.055,-0.365 0.075,-0.406C0.095,-0.448 0.123,-0.48 0.159,-0.503C0.195,-0.526 0.234,-0.538 0.276,-0.538C0.345,-0.538 0.398,-0.515 0.437,-0.47C0.475,-0.425 0.494,-0.36 0.494,-0.276L0.494,-0.238L0.136,-0.238C0.137,-0.186 0.152,-0.144 0.181,-0.112C0.211,-0.08 0.248,-0.064 0.292,-0.064C0.324,-0.064 0.351,-0.07 0.374,-0.083C0.396,-0.097 0.415,-0.114 0.432,-0.135L0.487,-0.092C0.443,-0.024 0.376,0.01 0.288,0.01ZM0.276,-0.464C0.24,-0.464 0.209,-0.451 0.185,-0.424C0.16,-0.398 0.145,-0.36 0.139,-0.313L0.403,-0.313L0.403,-0.319C0.401,-0.365 0.388,-0.401 0.366,-0.426C0.344,-0.451 0.314,-0.464 0.276,-0.464ZM0.32,-0.75L0.43,-0.75L0.299,-0.606L0.226,-0.606L0.32,-0.75Z" style="fill:rgb(93,196,225);fill-rule:nonzero;"/>
        </g>
        <g transform="matrix(26.7042,0,0,26.7042,564.254,264.775)">
            <path d="M0.28,-0.064C0.313,-0.064 0.341,-0.074 0.365,-0.093C0.389,-0.113 0.402,-0.137 0.405,-0.167L0.49,-0.167C0.489,-0.136 0.478,-0.107 0.459,-0.08C0.44,-0.053 0.414,-0.031 0.382,-0.015C0.35,0.002 0.316,0.01 0.28,0.01C0.208,0.01 0.151,-0.014 0.109,-0.062C0.066,-0.11 0.045,-0.176 0.045,-0.259L0.045,-0.274C0.045,-0.326 0.054,-0.372 0.073,-0.412C0.092,-0.452 0.119,-0.483 0.155,-0.505C0.19,-0.527 0.232,-0.538 0.28,-0.538C0.339,-0.538 0.388,-0.52 0.427,-0.485C0.467,-0.449 0.488,-0.403 0.49,-0.347L0.405,-0.347C0.402,-0.381 0.389,-0.409 0.366,-0.431C0.343,-0.453 0.314,-0.464 0.28,-0.464C0.234,-0.464 0.198,-0.447 0.173,-0.414C0.148,-0.381 0.135,-0.333 0.135,-0.271L0.135,-0.254C0.135,-0.193 0.148,-0.146 0.173,-0.113C0.198,-0.08 0.234,-0.064 0.28,-0.064Z" style="fill:rgb(93,196,225);fill-rule:nonzero;"/>
        </g>
        <g transform="matrix(26.7042,0,0,26.7042,578.926,264.775)">
            <path d="M0.167,-0L0.076,-0L0.076,-0.528L0.167,-0.528L0.167,-0ZM0.069,-0.668C0.069,-0.683 0.073,-0.695 0.082,-0.706C0.091,-0.716 0.104,-0.721 0.122,-0.721C0.14,-0.721 0.153,-0.716 0.162,-0.706C0.171,-0.695 0.176,-0.683 0.176,-0.668C0.176,-0.654 0.171,-0.642 0.162,-0.632C0.153,-0.622 0.14,-0.617 0.122,-0.617C0.104,-0.617 0.091,-0.622 0.082,-0.632C0.073,-0.642 0.069,-0.654 0.069,-0.668Z" style="fill:rgb(93,196,225);fill-rule:nonzero;"/>
        </g>
        <g transform="matrix(26.7042,0,0,26.7042,586.101,264.775)">
            <path d="M0.376,-0.14C0.376,-0.165 0.367,-0.184 0.348,-0.197C0.33,-0.211 0.298,-0.222 0.252,-0.232C0.206,-0.242 0.17,-0.253 0.143,-0.267C0.116,-0.281 0.097,-0.297 0.084,-0.316C0.071,-0.335 0.064,-0.357 0.064,-0.383C0.064,-0.427 0.083,-0.463 0.119,-0.493C0.156,-0.523 0.203,-0.538 0.26,-0.538C0.32,-0.538 0.368,-0.523 0.406,-0.492C0.443,-0.461 0.461,-0.421 0.461,-0.373L0.371,-0.373C0.371,-0.398 0.36,-0.419 0.339,-0.437C0.318,-0.455 0.292,-0.464 0.26,-0.464C0.227,-0.464 0.201,-0.457 0.183,-0.442C0.164,-0.428 0.155,-0.409 0.155,-0.386C0.155,-0.364 0.163,-0.348 0.181,-0.337C0.198,-0.326 0.229,-0.315 0.274,-0.305C0.319,-0.295 0.356,-0.283 0.384,-0.269C0.412,-0.255 0.433,-0.238 0.446,-0.219C0.46,-0.199 0.466,-0.175 0.466,-0.146C0.466,-0.099 0.447,-0.061 0.41,-0.033C0.372,-0.004 0.323,0.01 0.263,0.01C0.22,0.01 0.183,0.002 0.15,-0.013C0.118,-0.028 0.092,-0.049 0.074,-0.075C0.056,-0.102 0.046,-0.131 0.046,-0.163L0.137,-0.163C0.138,-0.132 0.15,-0.108 0.173,-0.091C0.196,-0.073 0.226,-0.064 0.263,-0.064C0.297,-0.064 0.324,-0.071 0.345,-0.085C0.366,-0.099 0.376,-0.117 0.376,-0.14Z" style="fill:rgb(93,196,225);fill-rule:nonzero;"/>
        </g>
        <g transform="matrix(26.7042,0,0,26.7042,600.565,264.775)">
            <path d="M0.167,-0L0.076,-0L0.076,-0.528L0.167,-0.528L0.167,-0ZM0.069,-0.668C0.069,-0.683 0.073,-0.695 0.082,-0.706C0.091,-0.716 0.104,-0.721 0.122,-0.721C0.14,-0.721 0.153,-0.716 0.162,-0.706C0.171,-0.695 0.176,-0.683 0.176,-0.668C0.176,-0.654 0.171,-0.642 0.162,-0.632C0.153,-0.622 0.14,-0.617 0.122,-0.617C0.104,-0.617 0.091,-0.622 0.082,-0.632C0.073,-0.642 0.069,-0.654 0.069,-0.668Z" style="fill:rgb(93,196,225);fill-rule:nonzero;"/>
        </g>
        <g transform="matrix(26.7042,0,0,26.7042,607.739,264.775)">
            <path d="M0.044,-0.269C0.044,-0.321 0.055,-0.367 0.075,-0.409C0.095,-0.45 0.124,-0.482 0.16,-0.504C0.196,-0.527 0.238,-0.538 0.284,-0.538C0.356,-0.538 0.414,-0.513 0.459,-0.463C0.503,-0.414 0.525,-0.347 0.525,-0.265L0.525,-0.258C0.525,-0.207 0.516,-0.161 0.496,-0.12C0.476,-0.079 0.448,-0.047 0.411,-0.024C0.375,-0.002 0.333,0.01 0.285,0.01C0.214,0.01 0.156,-0.015 0.111,-0.065C0.067,-0.115 0.044,-0.181 0.044,-0.263L0.044,-0.269ZM0.135,-0.258C0.135,-0.2 0.149,-0.153 0.176,-0.117C0.203,-0.082 0.24,-0.064 0.285,-0.064C0.331,-0.064 0.368,-0.082 0.395,-0.118C0.422,-0.154 0.435,-0.204 0.435,-0.269C0.435,-0.327 0.421,-0.374 0.394,-0.41C0.366,-0.446 0.33,-0.464 0.284,-0.464C0.24,-0.464 0.204,-0.446 0.176,-0.411C0.149,-0.375 0.135,-0.324 0.135,-0.258Z" style="fill:rgb(93,196,225);fill-rule:nonzero;"/>
        </g>
        <g transform="matrix(26.7042,0,0,26.7042,623.663,264.775)">
            <path d="M0.154,-0.528L0.157,-0.462C0.197,-0.513 0.25,-0.538 0.315,-0.538C0.427,-0.538 0.483,-0.475 0.484,-0.349L0.484,-0L0.394,-0L0.394,-0.35C0.393,-0.388 0.385,-0.416 0.367,-0.434C0.35,-0.452 0.324,-0.461 0.288,-0.461C0.258,-0.461 0.233,-0.454 0.21,-0.438C0.188,-0.422 0.171,-0.402 0.159,-0.376L0.159,-0L0.068,-0L0.068,-0.528L0.154,-0.528Z" style="fill:rgb(93,196,225);fill-rule:nonzero;"/>
        </g>
    </g>
</svg>
