<?xml version="1.0" encoding="UTF-8" standalone="no"?>
<!DOCTYPE svg PUBLIC "-//W3C//DTD SVG 1.1//EN" "http://www.w3.org/Graphics/SVG/1.1/DTD/svg11.dtd">
<svg width="100%" height="100%" viewBox="0 0 1800 1500" version="1.1" xmlns="http://www.w3.org/2000/svg" xmlns:xlink="http://www.w3.org/1999/xlink" xml:space="preserve" xmlns:serif="http://www.serif.com/" style="fill-rule:evenodd;clip-rule:evenodd;stroke-linecap:round;stroke-linejoin:round;stroke-miterlimit:1.5;">
    <g transform="matrix(1.71033,0,0,1.71033,-1653.09,-459.589)">
        <g transform="matrix(99.7852,0,0,99.7852,1499,1104)">
            <path d="M0.412,0.012C0.547,0.012 0.627,-0.036 0.699,-0.113L0.601,-0.212C0.546,-0.162 0.497,-0.13 0.417,-0.13C0.297,-0.13 0.214,-0.23 0.214,-0.35L0.214,-0.352C0.214,-0.472 0.299,-0.57 0.417,-0.57C0.487,-0.57 0.542,-0.54 0.596,-0.491L0.694,-0.604C0.629,-0.668 0.55,-0.712 0.418,-0.712C0.203,-0.712 0.053,-0.549 0.053,-0.35L0.053,-0.348C0.053,-0.147 0.206,0.012 0.412,0.012Z" style="fill-rule:nonzero;"/>
        </g>
        <g transform="matrix(99.7852,0,0,99.7852,1581.72,1104)">
            <path d="M0.605,-0L0.766,-0L0.466,-0.705L0.324,-0.705L0.024,-0L0.181,-0L0.245,-0.157L0.541,-0.157L0.605,-0ZM0.486,-0.293L0.3,-0.293L0.393,-0.52L0.486,-0.293Z" style="fill-rule:nonzero;"/>
        </g>
        <g transform="matrix(99.7852,0,0,99.7852,1669.63,1104)">
            <path d="M0.587,-0.14L0.238,-0.14L0.238,-0.7L0.084,-0.7L0.084,-0L0.587,-0L0.587,-0.14Z" style="fill-rule:nonzero;"/>
        </g>
        <g transform="matrix(99.7852,0,0,99.7852,1736.49,1104)">
            <path d="M0.412,0.012C0.547,0.012 0.627,-0.036 0.699,-0.113L0.601,-0.212C0.546,-0.162 0.497,-0.13 0.417,-0.13C0.297,-0.13 0.214,-0.23 0.214,-0.35L0.214,-0.352C0.214,-0.472 0.299,-0.57 0.417,-0.57C0.487,-0.57 0.542,-0.54 0.596,-0.491L0.694,-0.604C0.629,-0.668 0.55,-0.712 0.418,-0.712C0.203,-0.712 0.053,-0.549 0.053,-0.35L0.053,-0.348C0.053,-0.147 0.206,0.012 0.412,0.012Z" style="fill-rule:nonzero;"/>
        </g>
        <g transform="matrix(99.7852,0,0,99.7852,1819.21,1104)">
            <path d="M0.376,0.011C0.564,0.011 0.683,-0.093 0.683,-0.305L0.683,-0.7L0.529,-0.7L0.529,-0.299C0.529,-0.188 0.472,-0.131 0.378,-0.131C0.284,-0.131 0.227,-0.19 0.227,-0.304L0.227,-0.7L0.073,-0.7L0.073,-0.3C0.073,-0.094 0.188,0.011 0.376,0.011Z" style="fill-rule:nonzero;"/>
        </g>
        <g transform="matrix(99.7852,0,0,99.7852,1903.73,1104)">
            <path d="M0.587,-0.14L0.238,-0.14L0.238,-0.7L0.084,-0.7L0.084,-0L0.587,-0L0.587,-0.14Z" style="fill-rule:nonzero;"/>
        </g>
    </g>
    <g transform="matrix(1.98543,0,0,1.98543,-1824.67,-763.26)">
        <g transform="matrix(84.6771,0,0,84.6771,952,1104)">
            <path d="M0.424,0.012C0.542,0.012 0.64,-0.037 0.705,-0.095L0.705,-0.374L0.416,-0.374L0.416,-0.303L0.629,-0.303L0.629,-0.129C0.581,-0.09 0.507,-0.059 0.427,-0.059C0.257,-0.059 0.15,-0.183 0.15,-0.35L0.15,-0.352C0.15,-0.508 0.261,-0.639 0.416,-0.639C0.515,-0.639 0.575,-0.606 0.629,-0.559L0.68,-0.619C0.61,-0.678 0.537,-0.712 0.419,-0.712C0.209,-0.712 0.068,-0.542 0.068,-0.35L0.068,-0.348C0.068,-0.148 0.204,0.012 0.424,0.012Z" style="fill-rule:nonzero;"/>
        </g>
        <g transform="matrix(84.6771,0,0,84.6771,1026.09,1104)">
            <path d="M0.099,-0.7L0.099,-0L0.178,-0L0.178,-0.272L0.378,-0.272L0.581,-0L0.678,-0L0.463,-0.286C0.573,-0.306 0.653,-0.374 0.653,-0.49L0.653,-0.492C0.653,-0.547 0.633,-0.596 0.599,-0.63C0.555,-0.674 0.486,-0.7 0.4,-0.7L0.099,-0.7ZM0.178,-0.343L0.178,-0.627L0.394,-0.627C0.507,-0.627 0.573,-0.575 0.573,-0.489L0.573,-0.487C0.573,-0.397 0.498,-0.343 0.393,-0.343L0.178,-0.343Z" style="fill-rule:nonzero;"/>
        </g>
        <g transform="matrix(84.6771,0,0,84.6771,1095.02,1104)">
            <path d="M0.424,0.012C0.637,0.012 0.782,-0.157 0.782,-0.35C0.783,-0.351 0.783,-0.351 0.782,-0.352C0.782,-0.545 0.639,-0.712 0.426,-0.712C0.213,-0.712 0.068,-0.543 0.068,-0.35L0.068,-0.348C0.068,-0.155 0.211,0.012 0.424,0.012ZM0.426,-0.061C0.266,-0.061 0.15,-0.191 0.15,-0.35L0.15,-0.352C0.15,-0.511 0.264,-0.639 0.424,-0.639C0.584,-0.639 0.7,-0.509 0.7,-0.35L0.7,-0.348C0.7,-0.189 0.586,-0.061 0.426,-0.061Z" style="fill-rule:nonzero;"/>
        </g>
        <g transform="matrix(84.6771,0,0,84.6771,1174.7,1104)">
            <path d="M0.379,0.011C0.554,0.011 0.671,-0.095 0.671,-0.299L0.671,-0.7L0.592,-0.7L0.592,-0.293C0.592,-0.14 0.51,-0.062 0.381,-0.062C0.247,-0.062 0.167,-0.147 0.167,-0.298L0.167,-0.7L0.088,-0.7L0.088,-0.293C0.088,-0.095 0.206,0.011 0.379,0.011Z" style="fill-rule:nonzero;"/>
        </g>
        <g transform="matrix(84.6771,0,0,84.6771,1246.68,1104)">
            <path d="M0.099,-0.7L0.099,-0L0.178,-0L0.178,-0.247L0.348,-0.247C0.497,-0.247 0.623,-0.325 0.623,-0.476L0.623,-0.478C0.623,-0.616 0.519,-0.7 0.361,-0.7L0.099,-0.7ZM0.178,-0.319L0.178,-0.627L0.355,-0.627C0.468,-0.627 0.543,-0.575 0.543,-0.475L0.543,-0.473C0.543,-0.381 0.467,-0.319 0.351,-0.319L0.178,-0.319Z" style="fill-rule:nonzero;"/>
        </g>
        <g transform="matrix(84.6771,0,0,84.6771,1310.95,1104)">
            <path d="M0.178,-0.628L0.605,-0.628L0.605,-0.7L0.099,-0.7L0.099,-0L0.61,-0L0.61,-0.072L0.178,-0.072L0.178,-0.317L0.56,-0.317L0.56,-0.389L0.178,-0.389L0.178,-0.628Z" style="fill-rule:nonzero;"/>
        </g>
    </g>
    <g transform="matrix(1.68482,0,0,1.68482,59.7225,57.5385)">
        <path d="M606,7L498,195L284,195L392,7L606,7Z" style="fill:rgb(181,179,180);"/>
    </g>
    <g transform="matrix(1.68482,0,0,1.68482,-215.903,529.145)">
        <path d="M551.704,101.515L538.594,101.515L492.459,7L606,7L551.704,101.515Z" style="fill:rgb(185,183,185);"/>
    </g>
    <g transform="matrix(0.842411,-1.4591,1.4591,0.842411,822.127,1408.85)">
        <path d="M609.36,9.679L500.453,197.048L283.547,194.215L391.547,8.416L609.36,9.679Z" style="fill:rgb(238,238,240);"/>
    </g>
    <g transform="matrix(1.68482,0,0,1.68482,-215.903,529.145)">
        <path d="M497,195L605,383.43L391,383.43L284,195L497,195Z" style="fill:rgb(234,234,236);"/>
    </g>
    <g transform="matrix(0.842411,-1.4591,1.4591,0.842411,281.172,1425.27)">
        <path d="M610.045,6.866L498,195L283.547,194.215L392.779,6.55L610.045,6.866Z" style="fill:url(#_Linear1);"/>
    </g>
    <g transform="matrix(1.68482,0,0,1.68482,328.579,516.099)">
        <path d="M497,195L602.906,381.43L375,381.43L284,195L497,195Z" style="fill:rgb(236,236,238);"/>
    </g>
    <g transform="matrix(1.68482,0,0,1.68482,328.579,516.099)">
        <path d="M606,7L498,195L284,195L392,7L606,7Z" style="fill:rgb(181,179,180);"/>
    </g>
    <g transform="matrix(0.842411,-1.4591,1.4591,0.842411,553.27,950.294)">
        <path d="M609.36,9.679L500.453,197.048L283.547,194.215L391.547,8.416L609.36,9.679Z" style="fill:rgb(237,237,240);"/>
    </g>
    <g transform="matrix(1.68482,0,0,1.68482,59.7225,57.5385)">
        <path d="M328.865,286.915L284,195L497,195L602.906,381.43L491,381.43L442.406,286.915L328.865,286.915Z" style="fill:rgb(234,234,236);stroke:rgb(236,236,238);stroke-width:0.59px;"/>
    </g>
    <g transform="matrix(1.68482,0,0,1.68482,-215.903,529.145)">
        <path d="M551.704,101.515L498,195L284,195L392,7L492.459,7L538.594,101.515L551.704,101.515Z" style="fill:rgb(185,183,185);"/>
    </g>
    <defs>
        <linearGradient id="_Linear1" x1="0" y1="0" x2="1" y2="0" gradientUnits="userSpaceOnUse" gradientTransform="matrix(326.498,0,0,188.45,283.547,100.775)"><stop offset="0" style="stop-color:white;stop-opacity:1"/><stop offset="1" style="stop-color:rgb(222,219,221);stop-opacity:1"/></linearGradient>
    </defs>
</svg>
