<?xml version="1.0" encoding="UTF-8"?><svg id="Calque_2" xmlns="http://www.w3.org/2000/svg" role="img" aria-label="INRIA (aller à l'accueil)" viewBox="0 0 237.03 82.52"><defs><style>.cls-1{fill:#9d9d9c;}.cls-1,.cls-2,.cls-3,.cls-4,.cls-5{stroke-width:0px;}.cls-2{fill:#000;}.cls-3{fill:#e1000f;}.cls-4{fill:#fff;}.cls-5{fill:#000091;}</style></defs><g id="Calque_2-2"><rect class="cls-4" x="77.25" y="-77.25" width="82.52" height="237.03" transform="translate(159.77 -77.25) rotate(90)"/><path class="cls-2" d="M10.78,26.9h2.48c1.78,0,2.88.92,2.88,2.42,0,.97-.47,1.7-1.3,2.1l2.55,3.59h-1.97l-2.15-3.28h-.85v3.28h-1.64v-8.11ZM12.43,28.31v2.03h.93c.69,0,1.1-.37,1.1-1.03,0-.61-.41-1-1.1-1h-.93Z"/><path class="cls-2" d="M18.42,26.9h4.73v1.4h-3.08v1.88h2.62v1.4h-2.62v2.03h3.08v1.4h-4.73v-8.11ZM20.02,26.21l1.31-1.56h1.69l-1.51,1.56h-1.49Z"/><path class="cls-2" d="M25.05,26.9h2.68c1.78,0,2.87.92,2.87,2.42s-1.09,2.41-2.87,2.41h-1.03v3.28h-1.64v-8.11ZM26.7,28.31v2.03h1.1c.69,0,1.11-.37,1.11-1.03,0-.61-.42-1-1.11-1h-1.1Z"/><path class="cls-2" d="M36.74,26.9h1.64v4.93c0,2.13-1.25,3.41-3.29,3.41s-3.28-1.27-3.28-3.41v-4.93h1.64v5.07c0,1.09.61,1.73,1.64,1.73s1.63-.64,1.63-1.73v-5.07Z"/><path class="cls-2" d="M40.42,26.9h2.3c1.69,0,2.71.83,2.71,2.2,0,.65-.3,1.22-.86,1.6.86.38,1.33,1.08,1.33,1.92,0,1.48-1.15,2.39-3.01,2.39h-2.48v-8.11ZM42.07,28.31v1.77h.69c.63,0,.98-.31.98-.89,0-.54-.36-.88-.98-.88h-.69ZM42.07,31.49v2.12h.93c.76,0,1.23-.41,1.23-1.08s-.46-1.04-1.23-1.04h-.93Z"/><path class="cls-2" d="M47.59,26.9h1.64v6.61h3.08v1.49h-4.73v-8.11Z"/><path class="cls-2" d="M53.77,26.9h1.64v8.11h-1.64v-8.11Z"/><path class="cls-2" d="M66.19,35.58c.17,0,.41-.02.58-.09v1.39c-.27.1-.5.15-.86.15-.9,0-1.74-.37-2.54-1.07l-.96-.86c-.35.09-.72.14-1.11.14-2.56,0-4.31-1.97-4.31-4.29s1.75-4.29,4.31-4.29,4.3,1.97,4.3,4.29c0,1.36-.6,2.59-1.6,3.38l.49.46c.63.57,1.18.78,1.7.78ZM63.9,30.96c0-1.55-1.09-2.75-2.61-2.75s-2.62,1.19-2.62,2.75,1.09,2.75,2.62,2.75,2.61-1.19,2.61-2.75Z"/><path class="cls-2" d="M71.95,26.9h1.64v4.93c0,2.13-1.25,3.41-3.29,3.41s-3.28-1.27-3.28-3.41v-4.93h1.64v5.07c0,1.09.61,1.73,1.64,1.73s1.63-.64,1.63-1.73v-5.07Z"/><path class="cls-2" d="M75.64,26.9h4.73v1.4h-3.08v1.88h2.62v1.4h-2.62v2.03h3.08v1.4h-4.73v-8.11Z"/><path class="cls-2" d="M10.78,38.6h4.73v1.4h-3.08v1.88h2.62v1.4h-2.62v3.43h-1.64v-8.11Z"/><path class="cls-2" d="M16.96,38.6h2.48c1.78,0,2.88.92,2.88,2.42,0,.97-.47,1.7-1.3,2.1l2.55,3.59h-1.97l-2.15-3.28h-.85v3.28h-1.64v-8.11ZM18.6,40v2.03h.93c.69,0,1.1-.37,1.1-1.03,0-.61-.41-1-1.1-1h-.93Z"/><path class="cls-2" d="M26.99,38.6h2.15l3.07,8.11h-1.75l-.78-2.11h-3.24l-.78,2.11h-1.75l3.07-8.11ZM29.18,43.19l-1.11-3.05-1.11,3.05h2.22Z"/><path class="cls-2" d="M33.46,38.6h2.11l3.63,5.8v-5.8h1.64v8.11h-2.11l-3.63-5.83v5.83h-1.64v-8.11Z"/><path class="cls-2" d="M48.85,44.28l1.3,1c-.63.86-1.6,1.46-2.78,1.61l-1.01,1.68h-1.46l1.02-1.7c-2.11-.37-3.5-2.15-3.5-4.22,0-2.32,1.75-4.29,4.31-4.29,1.47,0,2.68.66,3.42,1.64l-1.3,1.01c-.46-.66-1.19-1.11-2.12-1.11-1.53,0-2.62,1.19-2.62,2.75s1.09,2.75,2.62,2.75c.93,0,1.66-.45,2.12-1.11Z"/><path class="cls-2" d="M53.56,38.6h2.15l3.07,8.11h-1.75l-.78-2.11h-3.24l-.78,2.11h-1.75l3.07-8.11ZM55.75,43.19l-1.11-3.05-1.11,3.05h2.22Z"/><path class="cls-2" d="M60.03,38.6h1.64v8.11h-1.64v-8.11Z"/><path class="cls-2" d="M64.41,44.48c.49.63,1.14,1,1.8,1s1.04-.35,1.04-.94c0-1.45-3.71-1.12-3.71-3.82,0-1.29,1.05-2.35,2.59-2.35,1.22,0,2.15.54,2.84,1.37l-1.2,1.08c-.47-.61-1.01-1.01-1.62-1.01-.57,0-.94.37-.94.85,0,1.45,3.71,1.11,3.71,3.86-.02,1.51-1.2,2.43-2.69,2.43-1.37,0-2.29-.5-3.01-1.36l1.19-1.1Z"/><path class="cls-2" d="M70.64,38.6h4.73v1.4h-3.08v1.88h2.62v1.4h-2.62v2.03h3.08v1.4h-4.73v-8.11Z"/><path class="cls-2" d="M37.17,69.09c.22,0,.41.17.31.59l-1.02.24c.18-.48.48-.83.71-.83M37.73,70.74h-.2c-.26.3-.53.54-.8.54s-.42-.17-.42-.54c0-.15.02-.31.05-.45l1.65-.54c.32-.76-.07-1.09-.52-1.09-.78,0-1.66,1.3-1.66,2.44,0,.51.24.79.62.79.45,0,.91-.43,1.29-1.15M37.4,68.35l1.16-1.08v-.12h-.62l-.71,1.21h.18ZM33.85,69.11h.55l-.87,2.37c-.08.2.03.4.24.4.49,0,1.29-.49,1.57-1.15h-.15c-.22.23-.64.54-1,.61l.8-2.23h.81l.1-.34h-.79l.3-.86h-.32l-.56.86-.67.1v.24ZM33.11,69c.07-.22-.08-.34-.2-.34-.48,0-1.04.43-1.27,1.03h.15c.15-.22.42-.46.66-.51l-.91,2.37c-.08.22.08.34.2.34.45,0,.98-.43,1.21-1.03h-.15c-.15.22-.42.46-.66.51l.97-2.37ZM33.28,67.81c.21,0,.39-.17.39-.39s-.18-.39-.39-.39-.39.18-.39.39.17.39.39.39M28.04,71.45c-.12.27,0,.44.27.44.16,0,.23-.04.3-.21l.63-1.67c.29-.36.89-.74,1.13-.74.17,0,.15.14.04.36l-.97,1.86c-.1.18.03.4.24.4.48,0,1.04-.43,1.27-1.03h-.15c-.15.22-.42.46-.66.51l.83-1.68c.11-.21.16-.42.16-.58,0-.27-.15-.45-.44-.45-.41,0-.83.46-1.32,1.03v-.44c0-.32-.1-.59-.39-.59-.18,0-.35.15-.51.37v.06c.31-.02.45.45.23.93l-.64,1.43ZM28.03,69.38c.11-.39.05-.73-.24-.73-.35,0-.44.27-.8,1.03v-.44c0-.32-.1-.59-.39-.59-.33,0-.64.52-.87,1.03h.15c.16-.23.31-.37.43-.37.14,0,.22.22,0,.71l-.64,1.43c-.12.27,0,.44.27.44.16,0,.23-.04.3-.21l.63-1.67c.18-.22.34-.41.54-.62h.62ZM24.38,69.09c.22,0,.41.17.31.59l-1.02.24c.18-.48.48-.83.71-.83M24.94,70.74h-.2c-.26.3-.53.54-.8.54s-.42-.17-.42-.54c0-.15.02-.31.05-.45l1.65-.54c.32-.76-.07-1.09-.52-1.09-.78,0-1.66,1.3-1.66,2.44,0,.51.24.79.62.79.45,0,.91-.43,1.29-1.15M21.06,69.11h.55l-.87,2.37c-.08.2.03.4.24.4.49,0,1.29-.49,1.57-1.15h-.15c-.22.23-.64.54-1,.61l.8-2.23h.81l.1-.34h-.79l.3-.86h-.32l-.56.86-.67.1v.24ZM18.06,70.96c0-.73.81-1.72,1.27-1.72.1,0,.2.01.28.04l-.48,1.27c-.27.33-.7.74-.89.74-.11,0-.18-.1-.18-.32M20.56,68.51l-.25-.02-.28.27h-.06c-1.36,0-2.53,1.52-2.53,2.63,0,.31.19.49.49.49.35,0,.7-.5,1.08-1.03l-.02.19c-.05.55.12.84.4.84.33,0,.64-.52.87-1.03h-.15c-.16.23-.31.37-.43.37-.12,0-.21-.23,0-.71l.87-2ZM17.67,69.38c.11-.39.05-.73-.24-.73-.35,0-.44.27-.8,1.03v-.44c0-.32-.1-.59-.39-.59-.33,0-.64.52-.87,1.03h.15c.16-.23.31-.37.43-.37.14,0,.22.22,0,.71l-.64,1.43c-.12.27,0,.44.27.44.16,0,.23-.04.3-.21l.63-1.67c.18-.22.34-.41.54-.62h.62ZM13.12,71.77l.06-.18c-.79-.15-.89-.15-.58-1.01l.32-.89h.87c.39,0,.4.16.34.59h.23l.52-1.43h-.23c-.2.34-.35.59-.78.59h-.86l.46-1.25c.14-.4.23-.48.76-.48h.38c.55,0,.62.15.62.71h.22l.18-.97h-3.28l-.06.18c.64.13.7.19.4,1.01l-.71,1.95c-.3.81-.42.88-1.15,1.01l-.05.18h2.34Z"/><path class="cls-2" d="M29.21,61.66c.22,0,.41.17.31.59l-1.02.24c.18-.48.48-.83.71-.83M29.77,63.31h-.2c-.26.3-.53.54-.8.54s-.42-.17-.42-.54c0-.15.02-.31.05-.45l1.65-.54c.32-.76-.07-1.09-.52-1.09-.78,0-1.66,1.3-1.66,2.44,0,.51.24.79.62.79.45,0,.91-.43,1.29-1.15M29.44,60.92l1.16-1.08v-.12h-.62l-.71,1.21h.18ZM25.89,61.68h.55l-.87,2.37c-.08.2.03.4.24.4.49,0,1.29-.49,1.57-1.15h-.15c-.22.23-.64.54-1,.61l.8-2.23h.81l.1-.34h-.79l.3-.86h-.32l-.56.86-.67.1v.24ZM25.15,61.57c.07-.22-.08-.34-.2-.34-.48,0-1.04.43-1.27,1.03h.15c.15-.22.42-.46.66-.51l-.91,2.37c-.08.22.08.34.2.34.45,0,.98-.43,1.21-1.03h-.15c-.15.22-.42.46-.66.51l.97-2.37ZM25.32,60.38c.21,0,.39-.17.39-.39s-.18-.39-.39-.39-.39.18-.39.39.17.39.39.39M22.16,63.93l1.66-4.35-.05-.07-1.04.12v.12l.2.15c.18.14.12.28-.04.72l-1.3,3.41c-.1.18.03.4.24.4.48,0,.98-.43,1.21-1.03h-.15c-.15.22-.48.46-.72.51M19.01,63.53c0-.73.81-1.72,1.27-1.72.1,0,.2.01.28.04l-.48,1.27c-.27.33-.7.74-.89.74-.11,0-.18-.1-.18-.32M21.51,61.08l-.25-.02-.28.27h-.06c-1.36,0-2.53,1.52-2.53,2.63,0,.31.19.49.49.49.35,0,.7-.5,1.08-1.03l-.02.19c-.05.55.12.84.4.84.33,0,.64-.52.87-1.03h-.15c-.16.23-.31.37-.43.37-.12,0-.21-.23,0-.71l.87-2ZM15.46,65.03c0-.32.3-.51.74-.68.14.07.36.15.64.24.45.15.62.21.62.34,0,.29-.49.51-1.17.51-.56,0-.84-.12-.84-.42M16.69,63.11c-.2,0-.27-.17-.27-.36,0-.53.29-1.31.73-1.31.2,0,.27.17.27.36,0,.53-.29,1.31-.73,1.31M17.98,64.74c0-.38-.34-.52-.89-.68-.48-.14-.69-.18-.69-.34,0-.12.1-.27.3-.38.78-.04,1.28-.74,1.28-1.33,0-.12-.02-.23-.07-.33h.66l.1-.34h-1.05c-.12-.08-.27-.12-.42-.12-.83,0-1.36.73-1.36,1.31,0,.45.29.73.63.79-.39.17-.6.37-.6.61,0,.14.05.23.16.32-.89.26-1.24.56-1.24.98s.54.58,1.18.58c1.09,0,2-.59,2-1.08M13.82,62.2c.39,0,.4.16.34.59h.23l.52-1.43h-.23c-.2.34-.35.59-.78.59h-.86l.43-1.19c.14-.4.23-.48.76-.48h.38c.55,0,.62.15.62.7h.22l.18-.97h-3.28l-.06.18c.64.13.7.19.4,1.01l-.71,1.95c-.3.81-.42.88-1.15,1.01l-.05.18h3.65l.65-1.03h-.25c-.42.39-.94.77-1.67.77-.97,0-.88-.04-.56-.93l.34-.95h.87ZM14.3,59.7l1.16-.8v-.12h-.7l-.64.92h.18Z"/><path class="cls-2" d="M28.82,54.23c.22,0,.41.17.31.59l-1.02.24c.18-.48.48-.83.71-.83M29.39,55.88h-.2c-.26.3-.53.54-.8.54s-.42-.17-.42-.54c0-.15.02-.31.05-.45l1.65-.54c.32-.76-.07-1.09-.52-1.09-.78,0-1.66,1.3-1.66,2.44,0,.51.24.79.62.79.45,0,.91-.43,1.29-1.15M29.06,53.49l1.16-1.08v-.12h-.62l-.71,1.21h.18ZM25.65,54.25h.43l-.87,2.37c-.08.2.03.4.24.4.49,0,1.29-.49,1.57-1.15h-.15c-.22.23-.64.54-1,.61l.8-2.23h.81l.1-.34h-.79l.3-.86h-.32l-.56.86-.56.1v.24ZM25.22,54.51c.11-.39.05-.73-.24-.73-.35,0-.44.27-.8,1.03v-.44c0-.32-.1-.59-.39-.59-.33,0-.64.52-.87,1.03h.15c.16-.23.31-.37.43-.37.14,0,.22.22,0,.71l-.64,1.43c-.12.27,0,.44.27.44.16,0,.23-.04.3-.21l.63-1.67c.18-.22.34-.41.54-.62h.62ZM21.57,54.23c.22,0,.41.17.31.59l-1.02.24c.18-.48.48-.83.71-.83M22.14,55.88h-.2c-.26.3-.53.54-.8.54s-.42-.17-.42-.54c0-.15.02-.31.05-.45l1.65-.54c.32-.76-.07-1.09-.52-1.09-.78,0-1.66,1.3-1.66,2.44,0,.51.24.79.62.79.45,0,.91-.43,1.29-1.15M18.1,56.54c-.16,0-.39-.15-.39-.28,0-.04.07-.23.16-.46l.27-.71c.29-.34.72-.7.96-.7.15,0,.26.1.26.32,0,.65-.61,1.83-1.26,1.83M19.98,54.45c0-.48-.18-.66-.51-.66-.42,0-.81.44-1.2.97l.99-2.61-.05-.07-1.04.12v.12l.2.15c.18.14.12.29-.04.72l-1.07,2.76c-.08.2-.17.44-.17.51,0,.29.39.55.74.55.81,0,2.16-1.46,2.16-2.57M16.74,54.13c.07-.22-.08-.34-.2-.34-.48,0-1.04.43-1.27,1.03h.15c.15-.22.42-.46.66-.51l-.91,2.37c-.08.22.08.34.2.34.45,0,.98-.43,1.21-1.03h-.15c-.15.22-.42.46-.66.51l.97-2.37ZM16.91,52.95c.21,0,.39-.17.39-.39s-.18-.39-.39-.39-.39.18-.39.39.17.39.39.39M14.51,52.56h-2.16l-.06.18c.64.13.7.19.4,1.01l-.7,1.95c-.3.81-.42.88-1.15,1.01l-.05.18h3.29l.71-1.27h-.25c-.4.45-.88,1-1.61,1-.55,0-.62-.1-.32-.93l.7-1.95c.29-.81.42-.88,1.15-1.01l.05-.18Z"/><path class="cls-5" d="M23,20.25c.12-.12.23-.24.35-.36h0c.22-.24.43-.48.68-.69.08-.07.15-.13.22-.18.02-.02.02-.06.04-.08-.1.04-.16.12-.26.16-.02,0-.04-.02-.02-.04.07-.05.14-.11.22-.16,0,0,0,0-.01,0-.02,0-.02-.02-.02-.04-.26-.04-.47.14-.65.31-.04.02-.08-.02-.1-.02-.31.1-.53.37-.83.49v-.04c-.12.04-.24.11-.37.14-.18.04-.35.02-.51.02-.25.02-.49.08-.74.13,0,0-.01,0-.02,0-.13.04-.26.09-.38.15,0,0,0,0-.01,0-.01.01-.02.02-.03.04-.04.05-.08.09-.14.12-.13.06-.23.17-.34.26,0,0-.02,0-.03.01-.11.1-.22.21-.33.31,0,0-.04.01-.06,0,0,0,0,0,0,0,0,0,0-.01.01-.02.02-.03.03-.06.05-.09.02-.03.04-.06.06-.09.03-.04.06-.08.09-.12,0-.01,0-.02,0-.03,0,0-.02-.01-.03-.01.1-.1.22-.18.34-.25,0,0,0,0,0,0-.01,0-.03,0-.02-.02.01-.02.02-.04.04-.06,0,0,0-.01,0-.02,0,0-.01-.01-.02-.02-.03.02-.07.04-.1.07-.05.04-.09.13-.16.13,0,0-.02,0-.03,0,0,0-.02,0-.02,0,0,0,0,0,0,0,0,0,0,0,0,0,0,0,0,0,0,0,0,0,0-.01,0-.02,0,0,0-.01,0-.02,0,0,0,0,0-.01,0,0,0-.02.01-.03,0,0,0-.01.01-.02,0-.02.02-.03.03-.04,0,0,0-.01.01-.02,0-.01.01-.02.02-.04.01-.02,0-.03-.02-.04.04-.05.08-.09.14-.12h0c.08-.04.16-.09.23-.13.01,0,.02-.02.03-.03-.12.04-.22.09-.32.16,0,0-.03.01-.03.02,0,0-.02,0-.05-.02,0,0,0,0,0-.01.02-.04.08-.06.12-.1.02,0,.04,0,.04.02.65-.51,1.55-.39,2.3-.65.06-.04.12-.08.18-.12.1-.04.18-.14.31-.2.16-.12.28-.26.35-.47,0-.02-.02-.04-.02-.04-.26.28-.57.51-.9.67-.43.22-.9.18-1.34.24.02-.04.06-.04.1-.04,0-.06.04-.08.08-.12h.06s.02-.04.04-.04c.04,0,.1-.02.08-.02-.06-.08-.18.06-.28,0,.04-.04.02-.1.06-.12h.08s.04-.08.04-.08c.31-.18.59-.33.87-.49-.06,0-.1.06-.16.02.04,0,0-.06.04-.06.22-.06.41-.18.63-.26-.08,0-.14.06-.22,0,.04-.02.06-.06.12-.06v-.06s.02-.02.04-.02c-.02,0-.04-.02-.04-.02.02-.04.08-.02.12-.06-.02,0-.06,0-.06-.02.06-.08.16-.1.26-.12-.02-.04-.08,0-.08-.04,0-.02.02-.02.04-.02h-.04s-.02-.06-.02-.08c.12-.14.12-.33.18-.49-.02,0-.04,0-.04-.02-.2.22-.53.31-.83.39h-.1c-.1.04-.24.04-.35-.02-.08-.04-.12-.1-.2-.16-.16-.1-.33-.18-.51-.24-.51-.16-1.04-.24-1.57-.22.22-.12.47-.13.71-.2.35-.1.67-.22,1.04-.2-.06-.02-.14,0-.2,0-.28-.02-.57.06-.87.12-.2.04-.39.12-.59.16-.12.04-.18.16-.33.14v-.06c.2-.24.45-.49.77-.51.37-.06.71,0,1.08.04.26.02.51.08.77.14.1,0,.12.16.2.18.12.04.24,0,.37.08,0-.04-.02-.08,0-.12.08-.08.18.02.26-.02.16-.1-.14-.28-.22-.43,0-.02.02-.04.02-.04.16.14.28.31.49.41.1.04.35.1.31-.02-.1-.22-.31-.41-.47-.61v-.08s-.04-.02-.06-.04v-.08c-.08-.04-.06-.12-.1-.18-.06-.1-.02-.24-.06-.37s-.06-.22-.08-.35c-.06-.35-.14-.65-.18-.98-.04-.39.22-.69.41-1.04.14-.24.31-.49.57-.65.06-.24.22-.45.39-.65.16-.2.43-.32.63-.41.28-.13.54-.21.54-.21h-13.96v10.77h9.89c.39-.28.77-.41,1.31-.68.26-.13.84-.39,1.04-.59ZM19.87,18.79s-.12.02-.1-.02c.02-.1.16-.1.24-.14.04-.02.1-.06.14-.04.04.06.1.04.14.08-.12.12-.28.06-.43.12ZM16.75,18.35s-.02-.02-.02-.04c.26-.35.47-.67.65-1.04.26-.14.48-.35.69-.57.35-.37.71-.69,1.14-.9.16-.06.37-.04.53.02-.06.08-.16.06-.24.12-.02,0-.04,0-.06-.02.02-.02.02-.04.02-.06-.2.22-.49.33-.65.59-.12.2-.2.47-.47.53-.08.02.02-.06-.02-.04-.63.39-1.08.85-1.57,1.4ZM18.44,17s-.04.04-.06.08c-.02.04-.04.06-.08.08-.02,0-.04,0-.04-.02.02-.08.08-.16.16-.18.02,0,.02.02.02.04ZM19.39,20.05s-.03.04-.05.06c.03,0,.04.02.03.03-.05.04-.09.09-.15.11,0,0-.02,0-.03,0-.02.02-.05.05-.08.07-.02.02-.14,0-.1-.02.05-.05.1-.1.15-.14.03-.03.06-.05.08-.08.01-.02.03-.03.04-.05.02-.01.12-.02.11.02ZM19.02,19.88s0,0,0,0c-.08.05-.15.11-.23.15-.09.05-.18.09-.27.13,0,0,0,0,0,0,0,0-.02-.02-.03,0-.08.04-.14.1-.2.16,0,0-.02.02-.03.03,0,0,0,0,0,0,0,0,0,0,0,0,0,0-.02.02-.03.03,0,0,0,0,0,0,0,0,0,0,0,0-.01.01-.03.03-.04.05-.01.01-.01.02-.03.03-.01,0-.05,0-.04-.02,0,0,0,0,0,0-.01,0-.02.01-.04.02-.01,0-.02.01-.03.02,0,0,0,0-.01,0,0,0-.01,0-.01,0-.02.02-.05.04-.07.06-.04.04-.08.08-.12.13,0,0,0,0,0,0,0,0,0,0,0,0,0,0,0,0,0,0,0,0,0,0,0,0,0,0,0,0,0,0,0,0,0,.01-.01.02,0,0,0,0,0,0,0,0,0,0-.02,0,0,0,0,0,0-.01,0,0,0,0,0,0,0-.01-.01-.02-.02-.03,0,0,0,0,0,0,0,0,0,0,0-.01.02-.02.04-.05.06-.07,0,0,0,0,0,0,0,0,.01-.02.02-.03.01-.01.02-.03.03-.04,0,0,0-.01.01-.02.02-.03.04-.06.06-.09,0,0,0,0,0,0,0,0,0,0,0-.01,0-.01.02-.03.03-.04,0-.01.02-.03.02-.04,0,0,0,0,0,0,0,0,0,0,0,0,0,0,0,0,0,0,0-.02.01-.03.02-.05,0,0,0,0,0,0,0,0,0,0,0-.01,0,0,0-.01,0-.02h0s0,0,0,0c0,0,0-.02,0-.03,0,0,0,0,0-.01.02-.04.05-.07.08-.11,0,0,0,0,0,0-.03.02-.05.04-.08.07-.02.02-.06-.01-.04-.03.02-.01.03-.03.05-.04,0,0,0,0,0,0,.03-.03.07-.08.1-.1.02-.02.04-.03.06-.05,0,0,0,0,0,0,.01-.02.03-.04.05-.05,0,0,0,0,0,0,.19-.19.52-.18.78-.3.1-.04.22.02.33,0,.06,0,.12,0,.18.04-.18.1-.35.21-.52.32ZM19.44,18.47s.06,0,.08-.04h-.16s-.02-.02-.02-.04c-.1.02-.22.06-.33.08-.14.04-.26.14-.43.18-.22.08-.41.26-.65.35-.02,0-.02-.02-.02-.04.02-.06.1-.08.14-.14,0-.02,0-.04-.02-.04.16-.22.39-.35.59-.53v-.06c.06-.08.16-.12.2-.22.02-.06.1-.14.2-.18-.02-.02-.06-.02-.06-.06-.08,0-.16.04-.24-.02.04-.04.08-.06.13-.07-.02,0-.03-.01-.05-.03-.02-.04.04-.09.1-.1.08-.02.18-.02.24-.08-.14-.02-.31.04-.45-.04.1-.26.26-.49.51-.61.02,0,.06,0,.06.02,0,.1-.06.18-.16.2.16.04.33.04.49.12-.02.04-.06.02-.08.02.1.06.22.02.33.1-.06.06-.12,0-.18,0,.63.18,1.3.33,1.83.73-.45.22-.92.33-1.4.43-.06,0-.1,0-.16-.02,0,.02,0,.06-.02.06-.08,0-.14,0-.2.04-.08.04-.2.06-.26,0Z"/><path class="cls-3" d="M40.36,10.76h-11.58s.02,0,.11.05c.09.05.22.12.29.16.15.08.29.18.39.33.04.06.1.18.06.26-.04.1-.06.26-.16.31-.12.06-.28.06-.43.04-.08,0-.16-.02-.24-.04.31.12.59.26.79.55.02.04.1.06.18.06.02,0,.02.04.02.06-.04.04-.08.06-.06.12h.06c.1-.04.08-.24.22-.18.1.06.14.2.08.31-.08.08-.16.14-.24.2-.02.04-.02.1,0,.14.06.08.08.16.1.24.06.14.08.31.14.45.08.31.16.61.14.92,0,.16-.08.31-.02.47.04.16.14.28.22.43.08.12.16.2.22.33.12.2.35.41.24.65-.06.14-.28.12-.43.2-.12.1-.02.26.04.37.1.18-.12.31-.26.37.04.06.12.04.14.08.02.1.12.16.06.26-.08.12-.33.18-.2.37.08.14.03.3-.02.45-.06.18-.22.26-.37.31-.12.04-.26.04-.39.02-.04-.02-.08-.04-.12-.04-.35-.04-.69-.14-1.04-.14-.1.02-.2.04-.28.08-.09.07-.17.14-.25.22,0,0,0,0,0,0-.02.02-.03.03-.04.05,0,.01-.02.02-.03.03,0,0-.01.01-.02.02-.06.07-.11.15-.16.23,0,0,0,.01,0,.02,0,0-.01.02-.02.03-.07.12-.12.25-.15.37-.14.47-.08.87.02.96.03.03.67.23,1.12.43.21.09.36.17.48.24h11.37v-10.77Z"/><path class="cls-1" d="M29.47,14.68c.08.02.2.02.2.06-.04.16-.28.2-.41.37h-.06c-.06.04-.04.14-.1.14-.06-.02-.12,0-.18.02.08.08.18.14.31.12.02,0,.06.04.06.08,0,0,.02,0,.04-.02.02,0,.04,0,.04.02v.08c-.06.08-.16.04-.24.06.16.04.33.04.47,0,.12-.04,0-.24.08-.35-.04,0,0-.06-.04-.06.04-.04.08-.1.12-.12.04,0,.1-.02.12-.06,0-.04-.08-.06-.06-.1.12-.08.22-.2.18-.33-.02-.06-.18-.06-.28-.1-.1-.04-.22,0-.35.02-.1,0-.2.06-.31.08-.14.04-.26.12-.39.2.14-.06.28-.08.45-.12.12,0,.23-.03.35,0Z"/><path class="cls-3" d="M126.7,18.48c1.64-.99,3.32-2.3,4.83-3.84,1.18-1.2-4.02-.66-5.27.4-1.34,1.15-2.73,2.42-4,3.9-.74.86,2.81.51,4.43-.47ZM221.78,45.45c.92.55.88-2.34-.98-3.49-6.66-4.15-24.88,3.08-31.79,3.91-1.3.16-1.77-.17-1.46-1.05.59-1.69,2.9-4.81,3.36-5.88.44-1.02.38-4.55-4.83-4.55-4.26,0-8.16,1.98-10.91,4.47-2.62,2.23-7.68,6.64-10.8,6.64s6.23-9.76,6.75-10.25c1.41-1.32-3.03-.99-4.89.43-.74.57-3.72,3.75-5.58,6.83-5.38,3.72-10.73,4.58-8.19,1.49,1.35-1.65,3.65-3.85,5.22-5.6,2.2-2.44,1.8-4.05-3.06-4.05-6.5,0-7.19.57-10.86,4.86-.68.8-.33,2.8.37,2.11,4.4-4.36,4.3-4,10.13-4-.94,1-2.61,1.99-5.44,5.58-2.52,3.21-.87,5.8,2.71,5.8,1.98,0,4.94-.93,7.65-2.84-.32,1.67.35,2.87,2.9,2.87,2.96,0,6.33-1.76,9.13-3.72-.35,2.12.74,3.72,3.87,3.72,2.41,0,5.21-.95,8.11-3.46-.02,1.92,1.34,3.44,3.86,3.44,6.14,0,27.34-7.7,34.72-3.25ZM176.75,45.96c-4.03,0,4.04-9.2,9.29-9.2,3.14,0-5.4,9.2-9.29,9.2ZM173.55,31.73c1.63-.98,4.71-3.37,6.22-4.9,1.18-1.2-4.02-.66-5.27.4-1.35,1.15-3.59,3.21-4.85,4.7-.74.87,2.28.78,3.9-.2ZM141.77,41.53c-1.58,1.54-5.03,4.12-8.04,4.12-2.23,0,2.21-4,4.41-7.22,2.1-3.08.38-4-1.35-4-4.3,0-8.49,3.01-11.33,5.14.86-1.15,2.2-2.63,3.62-4.51.79-1.05-3.95-.67-5.16.92-.39.5-.81,1.07-1.27,1.68-4.11,4.94-10.32,8.27-13.37,8.27-1.7,0-2.32-1.17-1.26-3.38,2.55-5.33,11.33-15.46,16.1-19.89,2.17-2.03-4.34-1.2-5.84.3-6.61,6.65-13.27,14.08-15.14,19.86-1.04,3.2-.08,6.07,3.89,6.07,3.26,0,6.87-1.61,9.94-3.53-.75,1.03-1.44,1.96-2,2.71-.87,1.17,3.52.74,4.45-.44,3.47-4.44,11.81-9.9,14.13-9.9,2.11,0-5.16,5.45-5.1,8.79.08,4.38,10.24,1.7,13.68-2.81.54-.7.12-2.64-.37-2.17Z"/></g></svg>
