<?xml version="1.0" encoding="UTF-8" standalone="no"?>
<!DOCTYPE svg PUBLIC "-//W3C//DTD SVG 1.1//EN" "http://www.w3.org/Graphics/SVG/1.1/DTD/svg11.dtd">
<svg width="100%" height="100%" viewBox="0 0 305 48" version="1.1" xmlns="http://www.w3.org/2000/svg" xmlns:xlink="http://www.w3.org/1999/xlink" xml:space="preserve" xmlns:serif="http://www.serif.com/" style="fill-rule:evenodd;clip-rule:evenodd;stroke-linejoin:round;stroke-miterlimit:2;">
    <g transform="matrix(1.52124,0,0,1.52124,0,0.0121094)">
        <g id="g858">
            <g id="Group_218" transform="matrix(1,0,0,1,1.86338,0.799353)">
                <g id="Group_217">
                    <g id="Path_63" transform="matrix(1,0,0,1,309.205,-282.075)">
                        <path d="M-294.329,297.3C-298.362,296.981 -301.942,300.037 -302.261,304.07C-302.579,308.102 -299.524,311.681 -295.492,312C-295.298,312.015 -295.104,312.023 -294.91,312.023C-291.084,312.023 -287.861,309.045 -287.559,305.231C-287.241,301.199 -290.297,297.619 -294.329,297.3ZM-295.139,307.539C-296.722,307.412 -297.921,306.006 -297.798,304.423C-297.671,302.839 -296.266,301.64 -294.682,301.763C-293.098,301.89 -291.898,303.296 -292.022,304.88C-292.152,306.462 -293.557,307.658 -295.139,307.534L-295.139,307.539Z" style="fill:rgb(149,88,178);fill-rule:nonzero;"/>
                    </g>
                    <g id="Ellipse_33" transform="matrix(1,0,0,1,0,11.226)">
                        <circle cx="2.897" cy="2.897" r="2.897" style="fill:rgb(203,60,51);"/>
                    </g>
                    <g id="Ellipse_34" transform="matrix(1,0,0,1,44.611,11.226)">
                        <circle cx="2.897" cy="2.897" r="2.897" style="fill:rgb(203,60,51);"/>
                    </g>
                    <g transform="matrix(1,0,0,1,309.205,-282.075)">
                        <g id="Group_216">
                            <g id="Group_215">
                                <path id="Path_64" d="M-277.07,282.1C-277.295,282.086 -277.52,282.078 -277.745,282.078C-283.269,282.078 -287.903,286.425 -288.257,291.938C-288.271,292.163 -288.279,292.388 -288.279,292.614C-288.279,298.138 -283.932,302.772 -278.419,303.125C-272.652,303.495 -267.602,299.054 -267.232,293.287C-266.862,287.52 -271.303,282.47 -277.07,282.1ZM-272.226,292.967C-272.411,295.861 -274.844,298.143 -277.745,298.143C-277.863,298.143 -277.981,298.14 -278.099,298.132C-280.993,297.947 -283.275,295.514 -283.275,292.613C-283.275,292.495 -283.272,292.377 -283.264,292.259C-283.079,289.365 -280.646,287.083 -277.745,287.083C-277.627,287.083 -277.509,287.086 -277.391,287.094C-274.364,287.288 -272.033,289.937 -272.226,292.964L-272.226,292.967Z" style="fill:rgb(64,99,216);fill-rule:nonzero;"/>
                            </g>
                        </g>
                    </g>
                    <g id="Ellipse_35" transform="matrix(1,0,0,1,6.713,1.574)">
                        <circle cx="5.53" cy="5.53" r="5.53" style="fill:rgb(63,152,46);"/>
                    </g>
                </g>
            </g>
            <g id="Group_220" transform="matrix(1,0,0,1,54.7194,0.745353)">
                <g>
                    <g transform="matrix(1,0,0,1,253.349,-282.021)">
                        <path d="M-244.11,283.463C-243.473,283.237 -242.796,283.145 -242.122,283.19C-241.448,283.163 -240.775,283.255 -240.134,283.463L-240.134,303.806C-240.134,309.106 -243.174,311.64 -247.656,311.64C-249.61,311.617 -251.541,311.22 -253.346,310.471C-253.424,309.369 -253.043,308.283 -252.294,307.471C-251.081,307.911 -249.803,308.147 -248.513,308.171C-246.019,308.171 -244.113,307.119 -244.113,303.923L-244.11,283.463Z" style="fill:rgb(19,19,19);"/>
                    </g>
                    <g transform="matrix(1,0,0,1,253.349,-282.021)">
                        <path d="M-234.445,291.023C-233.816,290.818 -233.157,290.726 -232.496,290.751C-231.835,290.72 -231.175,290.812 -230.548,291.023L-230.548,305.053C-230.548,307.236 -229.418,308.483 -226.924,308.483C-225.131,308.452 -223.472,307.511 -222.524,305.989L-222.524,291.023C-221.895,290.823 -221.236,290.731 -220.576,290.751C-219.915,290.714 -219.253,290.806 -218.627,291.023L-218.627,310.977C-219.253,311.194 -219.915,311.287 -220.576,311.25C-221.236,311.27 -221.895,311.177 -222.524,310.977L-222.524,309.185C-224.031,310.825 -226.184,311.723 -228.409,311.64C-232.309,311.64 -234.45,309.263 -234.45,305.755L-234.445,291.023Z" style="fill:rgb(19,19,19);"/>
                    </g>
                    <g transform="matrix(1,0,0,1,253.349,-282.021)">
                        <path d="M-208.919,310.977C-209.547,311.183 -210.207,311.275 -210.868,311.25C-211.529,311.287 -212.191,311.194 -212.816,310.977L-212.816,282.293C-212.191,282.076 -211.529,281.984 -210.868,282.021C-210.207,281.996 -209.548,282.088 -208.919,282.293L-208.919,310.977Z" style="fill:rgb(19,19,19);"/>
                    </g>
                    <g transform="matrix(1,0,0,1,253.349,-282.021)">
                        <path d="M-199.059,286.814C-199.715,287.018 -200.4,287.111 -201.086,287.087C-201.772,287.122 -202.459,287.029 -203.112,286.814L-203.112,283.151C-202.459,282.936 -201.772,282.843 -201.086,282.878C-200.4,282.854 -199.715,282.947 -199.059,283.151L-199.059,286.814ZM-199.137,310.977C-199.765,311.183 -200.425,311.275 -201.086,311.25C-201.747,311.287 -202.409,311.194 -203.035,310.977L-203.035,291.023C-202.409,290.806 -201.747,290.714 -201.086,290.751C-200.425,290.726 -199.766,290.818 -199.137,291.023L-199.137,310.977Z" style="fill:rgb(19,19,19);"/>
                    </g>
                    <g transform="matrix(1,0,0,1,253.349,-282.021)">
                        <path d="M-186.277,290.361C-180.626,290.361 -178.833,292.894 -178.833,297.922L-178.833,310.977C-179.308,311.196 -179.831,311.29 -180.353,311.25C-180.886,311.264 -181.416,311.171 -181.912,310.977L-182.497,308.483C-183.51,310.549 -185.653,311.64 -188.615,311.64C-192.278,311.64 -194.656,309.497 -194.656,305.132C-194.656,300.883 -192.045,299.013 -187.173,299.013C-185.689,299.012 -184.206,299.09 -182.73,299.247L-182.73,297.8C-182.73,295.15 -183.744,293.63 -186.744,293.63C-188.526,293.666 -190.291,293.995 -191.966,294.604C-192.357,294.293 -192.666,293.892 -192.866,293.435C-193.079,292.917 -193.159,292.355 -193.1,291.798C-190.95,290.851 -188.626,290.361 -186.277,290.361ZM-186.666,301.661C-189.278,301.661 -190.642,302.674 -190.642,305.13C-190.642,307.663 -189.356,308.637 -187.251,308.637C-184.172,308.637 -182.73,306.026 -182.73,303.259L-182.73,301.9C-183.627,301.819 -185.186,301.663 -186.666,301.663L-186.666,301.661Z" style="fill:rgb(19,19,19);"/>
                    </g>
                    <g transform="matrix(1,0,0,1,253.349,-282.021)">
                        <path d="M-157.243,283.463C-156.6,283.261 -155.928,283.168 -155.255,283.19C-154.582,283.168 -153.91,283.261 -153.267,283.463L-153.267,310.977C-153.895,311.183 -154.555,311.275 -155.216,311.25C-155.903,311.297 -156.593,311.205 -157.243,310.977L-157.243,298.584L-168.935,298.584L-168.935,310.977C-169.578,311.179 -170.25,311.272 -170.923,311.25C-171.597,311.289 -172.272,311.196 -172.91,310.977L-172.91,283.463C-172.282,283.257 -171.622,283.165 -170.961,283.19C-170.275,283.166 -169.59,283.259 -168.935,283.463L-168.935,295.155L-157.243,295.155L-157.243,283.463Z" style="fill:rgb(19,19,19);"/>
                    </g>
                    <g transform="matrix(1,0,0,1,253.349,-282.021)">
                        <path d="M-147.345,291.023C-146.717,290.818 -146.057,290.726 -145.397,290.751C-144.736,290.72 -144.075,290.812 -143.447,291.023L-143.447,305.053C-143.447,307.236 -142.317,308.483 -139.823,308.483C-138.03,308.452 -136.371,307.511 -135.423,305.989L-135.423,291.023C-134.793,290.823 -134.134,290.731 -133.474,290.751C-132.813,290.714 -132.151,290.807 -131.526,291.023L-131.526,310.977C-132.151,311.194 -132.813,311.287 -133.474,311.25C-134.134,311.27 -134.793,311.177 -135.423,310.977L-135.423,309.185C-136.93,310.825 -139.083,311.723 -141.309,311.64C-145.209,311.64 -147.349,309.263 -147.349,305.755L-147.345,291.023Z" style="fill:rgb(19,19,19);"/>
                    </g>
                    <g transform="matrix(1,0,0,1,253.349,-282.021)">
                        <path d="M-121.936,292.894C-120.845,291.294 -119.091,290.361 -116.324,290.361C-111.881,290.361 -108.997,293.05 -108.997,301C-108.997,308.95 -111.881,311.64 -116.324,311.64C-119.091,311.64 -120.845,310.705 -121.936,309.107L-121.936,310.977C-122.577,311.185 -123.25,311.277 -123.924,311.25C-124.572,311.279 -125.219,311.186 -125.833,310.977L-125.833,282.293C-125.219,282.084 -124.572,281.992 -123.924,282.021C-123.251,281.994 -122.577,282.086 -121.936,282.293L-121.936,292.894ZM-117.688,293.557C-120.416,293.557 -121.936,295.817 -121.936,298.467L-121.936,303.456C-121.936,306.145 -120.416,308.444 -117.688,308.444C-114.57,308.444 -113.011,306.807 -113.011,301C-113.011,295.193 -114.57,293.557 -117.688,293.557Z" style="fill:rgb(19,19,19);"/>
                    </g>
                </g>
            </g>
        </g>
    </g>
</svg>
