<?xml version="1.0" encoding="UTF-8" standalone="no"?>
<!DOCTYPE svg PUBLIC "-//W3C//DTD SVG 1.1//EN" "http://www.w3.org/Graphics/SVG/1.1/DTD/svg11.dtd">
<svg width="100%" height="100%" viewBox="0 0 1772 532" version="1.1" xmlns="http://www.w3.org/2000/svg" xmlns:xlink="http://www.w3.org/1999/xlink" xml:space="preserve" xmlns:serif="http://www.serif.com/" style="fill-rule:evenodd;clip-rule:evenodd;stroke-linecap:round;stroke-linejoin:round;stroke-miterlimit:1.5;">
    <g transform="matrix(7.83766,0,0,7.83766,-2691.11,-3441.17)">
        <g transform="matrix(50,0,0,50,350.681,490.004)">
            <path d="M0.076,-0.026L0.076,-0.706C0.076,-0.723 0.087,-0.731 0.109,-0.731C0.128,-0.731 0.145,-0.716 0.161,-0.685L0.431,-0.153L0.431,-0.707C0.431,-0.723 0.442,-0.731 0.464,-0.731C0.486,-0.731 0.497,-0.723 0.497,-0.707L0.497,-0.026C0.497,-0.018 0.494,-0.012 0.487,-0.007C0.48,-0.002 0.473,0 0.464,0C0.447,0 0.433,-0.013 0.42,-0.038L0.142,-0.579L0.142,-0.026C0.142,-0.018 0.139,-0.012 0.132,-0.007C0.125,-0.002 0.118,0 0.109,0C0.1,0 0.092,-0.002 0.086,-0.007C0.079,-0.012 0.076,-0.018 0.076,-0.026Z" style="fill:rgb(213,79,58);fill-rule:nonzero;"/>
        </g>
        <g transform="matrix(50,0,0,50,375.581,490.004)">
            <path d="M0.073,-0.208L0.073,-0.707C0.073,-0.723 0.084,-0.731 0.106,-0.731C0.128,-0.731 0.139,-0.723 0.139,-0.707L0.139,-0.208C0.139,-0.157 0.152,-0.119 0.177,-0.094C0.202,-0.068 0.237,-0.055 0.283,-0.055C0.329,-0.055 0.365,-0.068 0.39,-0.094C0.415,-0.119 0.427,-0.157 0.427,-0.208L0.427,-0.707C0.427,-0.723 0.438,-0.731 0.46,-0.731C0.482,-0.731 0.493,-0.723 0.493,-0.707L0.493,-0.208C0.493,-0.134 0.474,-0.08 0.436,-0.046C0.397,-0.011 0.346,0.006 0.283,0.006C0.22,0.006 0.169,-0.011 0.131,-0.046C0.092,-0.08 0.073,-0.134 0.073,-0.208Z" style="fill:rgb(213,79,58);fill-rule:nonzero;"/>
        </g>
        <g transform="matrix(50,0,0,50,400.131,490.004)">
            <path d="M0.076,-0.026L0.076,-0.699C0.076,-0.72 0.087,-0.731 0.109,-0.731C0.128,-0.731 0.146,-0.716 0.162,-0.685L0.334,-0.353L0.506,-0.685C0.522,-0.716 0.54,-0.731 0.559,-0.731C0.581,-0.731 0.592,-0.72 0.592,-0.699L0.592,-0.026C0.592,-0.018 0.589,-0.012 0.583,-0.007C0.576,-0.002 0.568,0 0.559,0C0.55,0 0.543,-0.002 0.536,-0.007C0.529,-0.012 0.526,-0.018 0.526,-0.026L0.526,-0.588L0.36,-0.274C0.353,-0.26 0.344,-0.253 0.333,-0.253C0.323,-0.253 0.314,-0.26 0.307,-0.274L0.142,-0.591L0.142,-0.026C0.142,-0.018 0.139,-0.012 0.132,-0.007C0.125,-0.002 0.118,0 0.109,0C0.1,0 0.092,-0.002 0.086,-0.007C0.079,-0.012 0.076,-0.018 0.076,-0.026Z" style="fill:rgb(213,79,58);fill-rule:nonzero;"/>
        </g>
    </g>
    <g transform="matrix(4.04266,0,0,7.83766,-730.354,-3441.17)">
        <g transform="matrix(1.93874,0,0,1,-329.198,0)">
            <g transform="matrix(50,0,0,50,350.681,489.854)">
                <path d="M0.071,-0.029L0.071,-0.701C0.071,-0.71 0.075,-0.718 0.083,-0.723C0.09,-0.728 0.099,-0.731 0.109,-0.731L0.461,-0.731C0.47,-0.731 0.478,-0.727 0.483,-0.72C0.488,-0.713 0.49,-0.704 0.49,-0.694C0.49,-0.683 0.488,-0.673 0.483,-0.666C0.478,-0.659 0.47,-0.655 0.461,-0.655L0.155,-0.655L0.155,-0.401L0.311,-0.401C0.32,-0.401 0.328,-0.398 0.333,-0.391C0.338,-0.384 0.34,-0.375 0.34,-0.365C0.34,-0.356 0.338,-0.349 0.333,-0.342C0.328,-0.335 0.32,-0.331 0.311,-0.331L0.155,-0.331L0.155,-0.029C0.155,-0.02 0.151,-0.012 0.143,-0.008C0.134,-0.003 0.124,0 0.113,0C0.102,0 0.092,-0.003 0.084,-0.008C0.075,-0.012 0.071,-0.02 0.071,-0.029Z" style="fill:rgb(19,124,137);fill-rule:nonzero;"/>
            </g>
        </g>
        <g transform="matrix(1.93874,0,0,1,-436.303,0)">
            <g transform="matrix(50,0,0,50,464.775,489.854)">
                <path d="M0.064,-0.212L0.064,-0.513C0.064,-0.588 0.084,-0.643 0.124,-0.678C0.163,-0.713 0.215,-0.731 0.279,-0.731C0.344,-0.731 0.397,-0.715 0.436,-0.682C0.475,-0.649 0.495,-0.607 0.495,-0.557C0.495,-0.539 0.492,-0.527 0.485,-0.521C0.478,-0.514 0.468,-0.511 0.453,-0.511C0.426,-0.511 0.412,-0.521 0.411,-0.54C0.407,-0.617 0.364,-0.655 0.281,-0.655C0.192,-0.655 0.148,-0.608 0.148,-0.513L0.148,-0.212C0.148,-0.117 0.193,-0.07 0.284,-0.07C0.31,-0.07 0.332,-0.074 0.349,-0.081C0.366,-0.088 0.379,-0.099 0.388,-0.113C0.396,-0.127 0.401,-0.139 0.404,-0.149C0.407,-0.159 0.409,-0.172 0.411,-0.189C0.413,-0.208 0.427,-0.218 0.453,-0.218C0.468,-0.218 0.478,-0.215 0.485,-0.208C0.492,-0.201 0.495,-0.189 0.495,-0.171C0.495,-0.12 0.475,-0.078 0.436,-0.045C0.396,-0.011 0.343,0.006 0.278,0.006C0.215,0.006 0.163,-0.012 0.124,-0.047C0.084,-0.082 0.064,-0.137 0.064,-0.212Z" style="fill:rgb(19,124,137);fill-rule:nonzero;"/>
            </g>
            <g transform="matrix(50,0,0,50,489.325,489.854)">
                <path d="M0.068,-0.212L0.068,-0.702C0.068,-0.711 0.072,-0.719 0.081,-0.724C0.089,-0.729 0.099,-0.731 0.11,-0.731C0.121,-0.731 0.131,-0.729 0.14,-0.724C0.148,-0.719 0.152,-0.711 0.152,-0.702L0.152,-0.212C0.152,-0.117 0.197,-0.07 0.286,-0.07C0.329,-0.07 0.363,-0.082 0.386,-0.106C0.409,-0.129 0.421,-0.165 0.421,-0.212L0.421,-0.702C0.421,-0.721 0.435,-0.731 0.463,-0.731C0.474,-0.731 0.484,-0.729 0.493,-0.724C0.501,-0.719 0.505,-0.711 0.505,-0.702L0.505,-0.212C0.505,-0.137 0.485,-0.082 0.445,-0.047C0.405,-0.012 0.352,0.006 0.286,0.006C0.22,0.006 0.167,-0.012 0.128,-0.047C0.088,-0.082 0.068,-0.137 0.068,-0.212Z" style="fill:rgb(19,124,137);fill-rule:nonzero;"/>
            </g>
        </g>
        <g transform="matrix(1.93874,0,0,1,-529.485,0)">
            <g transform="matrix(50,0,0,50,564.039,489.854)">
                <path d="M0.033,-0.105C0.033,-0.116 0.037,-0.126 0.045,-0.136C0.052,-0.146 0.061,-0.151 0.07,-0.151C0.076,-0.151 0.084,-0.147 0.093,-0.139C0.102,-0.13 0.112,-0.121 0.122,-0.111C0.132,-0.1 0.148,-0.091 0.169,-0.083C0.19,-0.074 0.214,-0.07 0.241,-0.07C0.284,-0.07 0.318,-0.081 0.343,-0.102C0.368,-0.123 0.38,-0.153 0.38,-0.194C0.38,-0.231 0.369,-0.261 0.346,-0.284C0.323,-0.307 0.296,-0.324 0.264,-0.336C0.232,-0.348 0.2,-0.361 0.168,-0.375C0.135,-0.388 0.108,-0.409 0.085,-0.438C0.062,-0.466 0.051,-0.502 0.051,-0.547C0.051,-0.582 0.058,-0.612 0.071,-0.638C0.084,-0.663 0.102,-0.683 0.125,-0.696C0.147,-0.708 0.17,-0.718 0.194,-0.724C0.218,-0.73 0.244,-0.733 0.271,-0.733C0.312,-0.733 0.352,-0.727 0.39,-0.716C0.427,-0.704 0.446,-0.688 0.446,-0.667C0.446,-0.658 0.443,-0.648 0.436,-0.637C0.429,-0.626 0.421,-0.621 0.41,-0.621C0.407,-0.621 0.392,-0.627 0.364,-0.64C0.336,-0.653 0.305,-0.659 0.271,-0.659C0.23,-0.659 0.198,-0.651 0.173,-0.634C0.148,-0.617 0.135,-0.591 0.135,-0.555C0.135,-0.524 0.146,-0.5 0.169,-0.481C0.192,-0.462 0.219,-0.446 0.252,-0.435C0.284,-0.424 0.316,-0.411 0.348,-0.396C0.38,-0.381 0.407,-0.358 0.43,-0.326C0.453,-0.293 0.464,-0.252 0.464,-0.202C0.464,-0.133 0.444,-0.08 0.404,-0.045C0.364,-0.01 0.311,0.008 0.245,0.008C0.186,0.008 0.135,-0.005 0.095,-0.03C0.054,-0.055 0.033,-0.08 0.033,-0.105Z" style="fill:rgb(19,124,137);fill-rule:nonzero;"/>
            </g>
        </g>
    </g>
    <g transform="matrix(0.4995,0,0,0.4995,89.6367,-291.333)">
        <circle cx="1831.13" cy="1089.2" r="273.535" style="fill:none;stroke:rgb(19,124,137);stroke-width:50.05px;"/>
    </g>
    <g transform="matrix(0.563336,0,0,0.556025,-94.9737,-79.463)">
        <g transform="matrix(355.67,0,0,355.67,1802.6,728.205)">
            <path d="M0.06,-0.014L0.06,-0.733C0.06,-0.744 0.065,-0.752 0.075,-0.759C0.084,-0.765 0.095,-0.768 0.108,-0.768L0.275,-0.768C0.286,-0.768 0.294,-0.763 0.301,-0.754C0.307,-0.745 0.31,-0.734 0.31,-0.722C0.31,-0.709 0.307,-0.697 0.3,-0.688C0.293,-0.679 0.285,-0.674 0.275,-0.674L0.166,-0.674L0.166,-0.073L0.275,-0.073C0.285,-0.073 0.293,-0.068 0.3,-0.059C0.307,-0.05 0.31,-0.038 0.31,-0.025C0.31,-0.013 0.307,-0.002 0.301,0.007C0.294,0.016 0.286,0.021 0.275,0.021L0.108,0.021C0.095,0.021 0.084,0.018 0.075,0.012C0.065,0.005 0.06,-0.003 0.06,-0.014Z" style="fill:rgb(213,79,58);fill-rule:nonzero;"/>
        </g>
        <g transform="matrix(355.67,0,0,355.67,1990.39,728.205)">
            <path d="M0.018,-0.025C0.018,-0.038 0.021,-0.05 0.028,-0.059C0.034,-0.068 0.042,-0.073 0.052,-0.073L0.161,-0.073L0.161,-0.674L0.052,-0.674C0.042,-0.674 0.034,-0.679 0.028,-0.688C0.021,-0.697 0.018,-0.709 0.018,-0.722C0.018,-0.734 0.021,-0.745 0.027,-0.754C0.033,-0.763 0.041,-0.768 0.052,-0.768L0.22,-0.768C0.233,-0.768 0.244,-0.765 0.253,-0.759C0.262,-0.752 0.267,-0.744 0.267,-0.733L0.267,-0.014C0.267,-0.003 0.262,0.005 0.253,0.012C0.244,0.018 0.233,0.021 0.22,0.021L0.052,0.021C0.041,0.021 0.033,0.016 0.027,0.007C0.021,-0.002 0.018,-0.013 0.018,-0.025Z" style="fill:rgb(213,79,58);fill-rule:nonzero;"/>
        </g>
    </g>
</svg>
