<?xml version="1.0" encoding="UTF-8" standalone="no"?>
<!DOCTYPE svg PUBLIC "-//W3C//DTD SVG 1.1//EN" "http://www.w3.org/Graphics/SVG/1.1/DTD/svg11.dtd">
<svg width="100%" height="100%" viewBox="0 0 183 48" version="1.1" xmlns="http://www.w3.org/2000/svg" xmlns:xlink="http://www.w3.org/1999/xlink" xml:space="preserve" xmlns:serif="http://www.serif.com/" style="fill-rule:evenodd;clip-rule:evenodd;stroke-linejoin:round;stroke-miterlimit:2;">
    <g transform="matrix(0.986458,0,0,0.986458,1.235,0.325005)">
        <path d="M59.815,12.204L67.009,12.204C68.301,12.204 69.434,12.386 70.392,12.757C71.351,13.121 72.142,13.637 72.766,14.299C73.391,14.961 73.848,15.746 74.131,16.648C74.443,17.558 74.596,18.547 74.596,19.623C74.596,20.7 74.443,21.667 74.131,22.598C73.841,23.508 73.391,24.301 72.766,24.984C72.164,25.668 71.387,26.206 70.428,26.599C69.47,26.992 68.33,27.188 67.009,27.188L62.798,27.188L62.798,36.113L59.815,36.113L59.815,12.204ZM66.755,24.984C68.461,24.984 69.659,24.591 70.349,23.806C71.046,22.999 71.394,21.675 71.394,19.842L71.394,19.398C71.394,17.609 71.031,16.372 70.312,15.688C69.594,14.975 68.381,14.626 66.682,14.626L62.798,14.626L62.798,24.984L66.755,24.984Z" style="fill-rule:nonzero;"/>
    </g>
    <g transform="matrix(0.986458,0,0,0.986458,1.235,0.325005)">
        <path d="M88.738,16.94L91.512,16.94L91.512,36.113L89.929,36.113L88.811,33.837L87.228,35.75C86.822,35.946 86.313,36.113 85.718,36.266C85.123,36.441 84.426,36.521 83.635,36.521C82.146,36.521 80.934,36.055 80.004,35.124C79.09,34.171 78.64,32.615 78.64,30.462L78.64,16.947L81.406,16.947L81.406,30.905C81.406,32.2 81.667,33.095 82.197,33.589C82.749,34.077 83.453,34.324 84.317,34.324C85.297,34.324 86.117,34.186 86.763,33.917C87.431,33.626 88.092,33.218 88.738,32.702L88.738,16.94Z" style="fill-rule:nonzero;"/>
    </g>
    <g transform="matrix(0.986458,0,0,0.986458,1.235,0.325005)">
        <path d="M111.178,17.42C111.541,17.224 112.006,17.042 112.579,16.867C113.153,16.671 113.814,16.576 114.561,16.576C116.093,16.576 117.298,17.042 118.155,17.973C119.041,18.904 119.484,20.446 119.484,22.599L119.484,36.114L116.718,36.114L116.718,22.155C116.718,20.904 116.463,20.046 115.963,19.587C115.483,19.122 114.786,18.889 113.879,18.889C112.971,18.889 112.238,19.049 111.614,19.369C111.019,19.66 110.38,20.053 109.704,20.548L109.704,36.121L106.938,36.121L106.938,22.163C106.938,20.911 106.677,20.053 106.147,19.595C105.617,19.129 104.935,18.897 104.1,18.897C103.265,18.897 102.481,19.042 101.835,19.34C101.21,19.609 100.564,19.988 99.889,20.482L99.889,36.128L97.123,36.128L97.123,16.954L98.706,16.954L99.787,19.304L101.406,17.427C101.791,17.231 102.256,17.049 102.808,16.874C103.381,16.678 104.056,16.583 104.819,16.583C105.516,16.583 106.111,16.656 106.619,16.802C107.149,16.947 107.635,17.158 108.093,17.427L109.385,19.449L111.186,17.427L111.178,17.42Z" style="fill-rule:nonzero;"/>
    </g>
    <g transform="matrix(0.986458,0,0,0.986458,1.235,0.325005)">
        <path d="M133.743,22.78C133.743,22.242 133.692,21.74 133.598,21.275C133.503,20.809 133.336,20.416 133.097,20.096C132.879,19.754 132.559,19.485 132.124,19.289C131.717,19.092 131.187,18.998 130.541,18.998C129.626,18.998 128.733,19.122 127.841,19.362C126.977,19.58 126.055,19.863 125.067,20.205L124.639,18.001C125.503,17.609 126.41,17.281 127.376,17.012C128.334,16.721 129.423,16.568 130.65,16.568C132.734,16.568 134.222,17.143 135.108,18.292C136.022,19.42 136.473,21.245 136.473,23.762L136.473,33.131C136.473,33.669 136.567,34.04 136.763,34.229C136.952,34.404 137.264,34.484 137.699,34.484L138.418,34.484L138.491,35.99C138.324,36.113 138.084,36.222 137.772,36.317C137.46,36.441 137.09,36.499 136.654,36.499C136.153,36.499 135.645,36.404 135.144,36.208L133.888,34.149L132.233,36.026C131.87,36.2 131.427,36.331 130.904,36.433C130.403,36.557 129.837,36.615 129.213,36.615C128.472,36.615 127.761,36.521 127.093,36.324C126.447,36.128 125.873,35.822 125.365,35.408C124.886,34.964 124.501,34.404 124.211,33.72C123.92,33.007 123.782,32.142 123.782,31.109C123.782,30.156 123.913,29.334 124.174,28.65C124.436,27.937 124.835,27.355 125.358,26.89C125.909,26.424 126.606,26.061 127.441,25.792C128.305,25.522 129.314,25.326 130.461,25.202L133.736,24.911L133.736,22.78L133.743,22.78ZM133.743,26.672L130.65,26.999C129.162,27.174 128.095,27.537 127.448,28.097C126.802,28.636 126.476,29.567 126.476,30.891L126.476,31.145C126.476,32.345 126.752,33.204 127.303,33.713C127.877,34.229 128.741,34.484 129.895,34.484C130.904,34.484 131.696,34.302 132.269,33.931C132.872,33.567 133.358,33.145 133.743,32.68L133.743,26.657L133.743,26.672Z" style="fill-rule:nonzero;"/>
    </g>
    <g transform="matrix(0.986458,0,0,0.986458,1.235,0.325005)">
        <path d="M146.418,36.63C145.17,36.63 144.102,36.491 143.217,36.222C142.353,35.975 141.649,35.706 141.097,35.415L141.489,33.284C142.113,33.553 142.817,33.807 143.609,34.055C144.422,34.302 145.3,34.418 146.237,34.418C147.391,34.418 148.284,34.186 148.938,33.72C149.584,33.233 149.91,32.374 149.91,31.152C149.91,30.592 149.852,30.127 149.729,29.756C149.605,29.392 149.395,29.079 149.083,28.839C148.771,28.57 148.342,28.337 147.79,28.141C147.239,27.923 146.52,27.69 145.634,27.443C144.959,27.246 144.342,27.028 143.761,26.781C143.209,26.512 142.73,26.17 142.324,25.755C141.939,25.341 141.627,24.839 141.387,24.25C141.169,23.639 141.061,22.904 141.061,22.046C141.061,20.212 141.591,18.838 142.643,17.929C143.725,17.019 145.162,16.568 146.963,16.568C148.066,16.568 149.025,16.677 149.838,16.896C150.68,17.114 151.37,17.376 151.921,17.667L151.486,19.762C151.123,19.638 150.782,19.529 150.44,19.434C150.128,19.311 149.801,19.216 149.468,19.143C149.134,19.071 148.763,19.005 148.349,18.961C147.965,18.911 147.536,18.889 147.057,18.889C145.932,18.889 145.075,19.1 144.502,19.514C143.928,19.907 143.638,20.7 143.638,21.9C143.638,22.438 143.71,22.882 143.856,23.224C144.001,23.566 144.219,23.864 144.502,24.104C144.814,24.322 145.22,24.519 145.721,24.693C146.222,24.868 146.839,25.05 147.558,25.246C148.4,25.493 149.126,25.763 149.751,26.053C150.375,26.344 150.89,26.715 151.297,27.152C151.704,27.596 152.016,28.134 152.234,28.767C152.451,29.407 152.56,30.163 152.56,31.043C152.56,32.658 152.045,33.996 151.014,35.044C150.005,36.099 148.473,36.622 146.411,36.622L146.418,36.63Z" style="fill-rule:nonzero;"/>
    </g>
    <g transform="matrix(0.986458,0,0,0.986458,1.235,0.325005)">
        <path d="M158.774,36.113L154.811,36.113L162.433,12.204L166.753,12.204L174.238,36.113L169.454,36.113L168.27,31.924L160.03,31.924L158.774,36.113ZM165.134,20.976L164.307,16.459L163.297,20.976L160.923,28.839L167.399,28.839L165.134,20.976Z" style="fill-rule:nonzero;"/>
    </g>
    <g transform="matrix(0.986458,0,0,0.986458,1.235,0.325005)">
        <rect x="177.904" y="12.204" width="4.567" height="23.909" style="fill-rule:nonzero;"/>
    </g>
    <g transform="matrix(0.986458,0,0,0.986458,1.235,0.325005)">
        <path d="M21.7,20.701C21.7,14.62 16.836,9.688 10.846,9.688C9.039,9.688 7.325,10.14 5.83,10.94C5.822,10.94 5.808,10.947 5.793,10.954C2.497,12.714 0.218,16.14 0.015,20.126C0.007,20.316 0,20.505 0,20.694C0,20.883 0.007,21.072 0.015,21.261C0.203,25.167 2.425,28.549 5.619,30.332C5.685,30.368 5.75,30.404 5.822,30.441C7.325,31.234 9.031,31.692 10.854,31.692C16.85,31.692 21.707,26.76 21.707,20.687L21.7,20.701Z" style="fill-rule:nonzero;"/>
    </g>
    <g transform="matrix(0.986458,0,0,0.986458,1.235,0.325005)">
        <path d="M47.531,27.793C46.703,32.478 44.38,36.907 41.237,40.261C36.619,45.17 30.107,48 23.414,48C20.677,48 16.299,47.222 15.275,43.563C14.898,42.232 14.557,39.359 16.894,37.271C19.653,34.805 23.479,34.391 26.063,32.987C32.227,29.626 33.803,23.967 33.759,20.287C33.708,15.471 31.588,12.06 29.193,9.834C25.294,6.226 19.892,5.288 14.876,6.59C13.141,7.041 11.261,7.783 8.654,9.463C8.56,9.521 8.473,9.587 8.357,9.587C8.117,9.587 7.921,9.391 7.921,9.15C7.921,9.085 7.935,9.012 7.972,8.954C12.117,3.04 18.963,0 25.207,0C35.661,0 41.992,6.845 44.424,10.642C47.466,15.391 48.576,21.872 47.531,27.801L47.531,27.793Z" style="fill-rule:nonzero;"/>
    </g>
</svg>
