<?xml version="1.0" encoding="UTF-8" standalone="no"?>
<!DOCTYPE svg PUBLIC "-//W3C//DTD SVG 1.1//EN" "http://www.w3.org/Graphics/SVG/1.1/DTD/svg11.dtd">
<svg width="100%" height="100%" viewBox="0 0 787 150" version="1.1" xmlns="http://www.w3.org/2000/svg" xmlns:xlink="http://www.w3.org/1999/xlink" xml:space="preserve" xmlns:serif="http://www.serif.com/" style="fill-rule:evenodd;clip-rule:evenodd;stroke-linejoin:round;stroke-miterlimit:2;">
    <g transform="matrix(0.396998,0,0,0.396998,3.06004,-13.8949)">
        <path d="M504,405C604,405 687,322 687,220C687,118 604,35 504,35C403,35 320,118 320,220C320,322 403,405 504,405ZM20,402L72,402L72,92L152,92C198,92 219,133 219,157C219,189 200,220 130,226L244,402L304,402L206,250C272,224 274,171 274,149C274,106 252,43 152,43L20,43L20,402ZM504,353C433,353 375,293 375,220C375,147 433,87 504,87C574,87 632,147 632,220C632,293 574,353 504,353ZM693,400L749,400L874,133L998,400L1055,400L881,38L865,38L693,400ZM873,302L909,243L838,243L873,302ZM1093,401L1219,401C1276,401 1405,369 1405,213C1405,74 1276,44 1219,44L1093,44L1093,401ZM1147,351L1147,93L1203,93C1259,93 1350,115 1351,213C1351,333 1259,351 1203,351L1147,351ZM1458,403L1682,403L1682,351L1458,351L1458,403ZM1458,248L1682,248L1682,196L1458,196L1458,248ZM1458,92L1682,92L1682,40L1458,40L1458,92ZM1745,401L1797,401L1797,249L1936,249L1936,197L1797,197L1797,190C1797,141 1800,95 1858,95L1952,95L1952,44L1859,44C1770,43 1743,83 1745,190L1745,401Z" style="fill-rule:nonzero;"/>
    </g>
</svg>
