<?xml version="1.0" encoding="UTF-8" standalone="no"?>
<!DOCTYPE svg PUBLIC "-//W3C//DTD SVG 1.1//EN" "http://www.w3.org/Graphics/SVG/1.1/DTD/svg11.dtd">
<svg width="100%" height="100%" viewBox="0 0 2363 1100" version="1.1" xmlns="http://www.w3.org/2000/svg" xmlns:xlink="http://www.w3.org/1999/xlink" xml:space="preserve" xmlns:serif="http://www.serif.com/" style="fill-rule:evenodd;clip-rule:evenodd;stroke-linejoin:round;stroke-miterlimit:2;">
    <g id="surface1">
    </g>
    <g id="surface11" serif:id="surface1" transform="matrix(4.15943,0,0,4.15943,2.30035,300)">
        <g transform="matrix(0.231316,0,0,0.240417,9.04199,-69.2947)">
            <path d="M880.324,752.653C849.495,751.315 825.976,746.723 805.677,738.862C785.438,731.024 770.894,717.059 757.027,701.035C757.027,701.035 740.58,675.606 759.004,661.046C780.139,644.344 794.008,662.283 794.008,662.283C804.062,668.226 812.823,676.198 826.02,683.866C842.851,693.645 861.146,697.035 877.786,697.035C917.37,697.035 936.742,682.952 946.295,674.786C955.847,666.62 956.085,649.619 956.576,640.389C957.929,614.924 933.196,600.345 898.004,600.598C892.179,601.61 831.283,595.438 822.594,592.032C790.862,579.593 764.931,561.062 763.616,516.143C761.831,455.211 811.167,422.861 894.071,422.924C918.584,422.943 928.66,428.53 947.465,434.942C976.108,444.709 981.306,470.49 972.638,480.555C946.553,510.845 930.445,477.542 880.442,477.543C842.803,477.544 820.236,496.013 821.512,513.446C822.405,525.657 831.292,533.862 838.379,539.717C845.467,545.572 911.983,546.206 911.983,546.206C951.634,548.053 987.205,570.612 998.872,587.789C1013.66,609.563 1013.73,629.92 1014.94,656.039C1017.06,701.994 957.039,755.984 880.324,752.653Z" style="fill:rgb(1,78,108);fill-rule:nonzero;"/>
        </g>
        <g transform="matrix(0.231316,0,0,0.240417,9.04199,-69.2947)">
            <path d="M1078.74,720.684C1078.74,720.684 1078.73,454.511 1078.72,450.97C1078.69,441.086 1088.2,424.985 1105.74,424.97C1112.83,424.964 1113.72,425.562 1116.11,426.434C1122.8,428.866 1127.86,433.471 1127.86,433.471L1218.87,573.983C1218.87,573.983 1221.64,579.156 1225.96,579.091C1230.28,579.026 1232.31,573.227 1232.31,573.227L1313.04,444.189C1317.52,437.452 1323.75,424.798 1342.7,424.798C1358.54,424.798 1371.79,436.704 1371.8,457.988L1371.8,719.006C1371.8,746.286 1360.52,752.227 1342.62,752.227C1324.71,752.227 1315.84,744.888 1315.84,719.659L1314.48,561.158C1314.38,560.636 1311.06,558.848 1308.68,562.013C1295.52,579.527 1274.66,610.532 1262.47,628.145C1254.04,640.328 1243.07,664.145 1227.13,664.145C1208.08,664.145 1202.19,651.292 1188.68,631.145C1188.2,630.434 1150,575.976 1139.86,561.754C1138.39,559.703 1137.06,559.979 1136.52,560.53C1135.96,561.094 1135.51,564.137 1135.51,564.137L1136.37,721.106C1136.37,741.963 1122.44,752.245 1104.92,752.227C1089.28,752.21 1078.78,742.639 1078.74,720.684Z" style="fill:rgb(10,73,127);"/>
        </g>
        <g transform="matrix(0.262971,0,0,0.22581,-43.2988,-57.6017)">
            <path d="M1510.47,726.043C1507.96,738.806 1497.91,748.36 1485.91,748.36C1472.02,748.36 1460.75,735.575 1460.75,719.827C1460.75,713.331 1462.66,707.339 1465.89,702.541L1559.67,436.008C1560.19,415.276 1574.81,398.631 1592.74,398.631C1609.74,398.631 1623.77,413.614 1625.61,432.855L1723.93,712.907L1723.52,713.055C1723.99,715.226 1724.24,717.494 1724.24,719.827C1724.24,735.575 1712.96,748.36 1699.08,748.36C1685.97,748.36 1675.19,736.973 1674.02,722.455L1642.73,645.536L1544.55,643.407L1512.5,726.748L1510.47,726.043Z" style="fill:rgb(9,116,162);"/>
        </g>
        <g transform="matrix(0.231316,0,0,0.240417,9.04199,-69.2947)">
            <path d="M1813.77,480.784C1801.14,478.055 1791.7,467.194 1791.7,454.227C1791.7,441.26 1801.14,430.398 1813.77,427.669L1813.77,426.471L1907.31,426.471L1907.31,427.498C1920.37,429.912 1930.24,440.968 1930.24,454.227C1930.24,467.485 1920.37,478.542 1907.31,480.956L1907.31,481.467C1895.04,479.57 1888.59,484.925 1889.26,499.146L1889.26,682.11C1890.47,690.435 1896.12,693.893 1907.31,693.523C1920.37,695.937 1929.2,707.994 1929.2,721.252C1929.2,734.51 1920.37,745.567 1907.31,747.981L1907.31,749.106L1813.77,749.106L1813.77,747.809C1801.14,745.08 1791.7,734.219 1791.7,721.252C1791.7,708.285 1801.14,696.424 1813.77,693.694C1828.13,691.436 1831.37,687.078 1832.4,681.11L1832.4,498.264C1834.42,486.897 1829.75,480.226 1813.77,481.467L1813.77,480.784Z" style="fill:rgb(0,145,200);"/>
        </g>
        <g transform="matrix(0.240417,0,0,0.240417,-0.793461,-70.2019)">
            <path d="M748,304C748,304 889.172,192.032 1181.25,135C1498.72,73.01 2100,18 2100,18L2050,185C1602.11,191.648 1225.26,213.937 748,304Z" style="fill:rgb(1,78,108);"/>
        </g>
        <g transform="matrix(0.240417,0,0,0.240417,-0.793461,-70.2019)">
            <path d="M32,424.698L22.574,243.308C156.213,124.208 330.605,80.51 426,87C479.047,90.609 508.992,131.712 509,178C509.018,278.882 471.343,378.96 440,443C435.589,443.415 485.11,219.194 365,219C225.621,218.775 92.247,341.3 32,424.698Z" style="fill:rgb(9,116,162);"/>
        </g>
        <g transform="matrix(0.240417,0,0,0.240417,-0.793461,-70.2019)">
            <path d="M440,443C441.442,466.81 384.034,698.318 486,695C505.292,694.372 509.005,695 509.005,695C512.081,694.735 478.412,853.705 420,854C361.588,854.295 341,802.413 341,744C341,632.468 440,443 440,443Z" style="fill:rgb(1,78,108);"/>
        </g>
        <g transform="matrix(0.240417,0,0,0.240417,-0.793461,-70.2019)">
            <path d="M748,304C748,304 651.651,334.5 606,370C532.651,427.039 533.934,578.942 509.199,692C509.199,692 545.994,680.338 567,637C588.006,593.662 606.137,516.297 650,443.001C685.977,382.883 748,304 748,304Z" style="fill:rgb(9,116,162);"/>
        </g>
        <g transform="matrix(0.306012,0,0,0.306012,-58.1448,-132.392)">
            <g transform="matrix(108.027,0,0,108.027,774,910)">
                <path d="M0.01,-0.085C0.075,-0.024 0.151,0.006 0.233,0.006C0.351,0.006 0.443,-0.051 0.443,-0.15C0.443,-0.231 0.401,-0.295 0.296,-0.302L0.212,-0.308C0.161,-0.312 0.145,-0.334 0.145,-0.356C0.145,-0.391 0.167,-0.417 0.232,-0.417C0.287,-0.417 0.328,-0.398 0.368,-0.37L0.431,-0.444C0.381,-0.486 0.321,-0.513 0.232,-0.513C0.125,-0.513 0.043,-0.46 0.043,-0.357C0.043,-0.27 0.105,-0.22 0.189,-0.213L0.279,-0.205C0.314,-0.202 0.341,-0.191 0.341,-0.155C0.341,-0.112 0.299,-0.09 0.241,-0.09C0.173,-0.09 0.125,-0.112 0.081,-0.155L0.01,-0.085Z" style="fill-rule:nonzero;"/>
            </g>
            <g transform="matrix(108.027,0,0,108.027,826.825,910)">
                <path d="M0.041,-0.254C0.041,-0.144 0.057,-0.102 0.096,-0.059C0.124,-0.028 0.171,0.006 0.25,0.006C0.329,0.006 0.376,-0.028 0.404,-0.059C0.443,-0.102 0.459,-0.144 0.459,-0.254C0.459,-0.363 0.443,-0.405 0.404,-0.448C0.376,-0.479 0.329,-0.513 0.25,-0.513C0.171,-0.513 0.124,-0.479 0.096,-0.448C0.057,-0.405 0.041,-0.363 0.041,-0.254ZM0.357,-0.253C0.357,-0.18 0.351,-0.16 0.332,-0.133C0.317,-0.112 0.285,-0.096 0.25,-0.096C0.215,-0.096 0.183,-0.112 0.168,-0.133C0.149,-0.16 0.143,-0.18 0.143,-0.254C0.143,-0.327 0.149,-0.347 0.168,-0.374C0.183,-0.395 0.215,-0.411 0.25,-0.411C0.285,-0.411 0.317,-0.395 0.332,-0.374C0.351,-0.347 0.357,-0.327 0.357,-0.253Z" style="fill-rule:nonzero;"/>
            </g>
            <g transform="matrix(108.027,0,0,108.027,881.811,910)">
                <path d="M0.364,-0.149C0.339,-0.118 0.303,-0.096 0.261,-0.096C0.178,-0.096 0.129,-0.143 0.129,-0.253C0.129,-0.364 0.178,-0.411 0.261,-0.411C0.303,-0.411 0.339,-0.389 0.364,-0.358L0.439,-0.425C0.395,-0.476 0.334,-0.513 0.257,-0.513C0.14,-0.513 0.027,-0.439 0.027,-0.253C0.027,-0.068 0.14,0.006 0.257,0.006C0.334,0.006 0.395,-0.031 0.439,-0.082L0.364,-0.149Z" style="fill-rule:nonzero;"/>
            </g>
            <g transform="matrix(108.027,0,0,108.027,930.747,910)">
                <path d="M0.069,-0L0.171,-0L0.171,-0.507L0.069,-0.507L0.069,-0ZM0.069,-0.61L0.171,-0.61L0.171,-0.712L0.069,-0.712L0.069,-0.61Z" style="fill-rule:nonzero;"/>
            </g>
            <g transform="matrix(108.027,0,0,108.027,957.645,910)">
                <path d="M0.459,-0.215L0.459,-0.299C0.459,-0.43 0.362,-0.513 0.25,-0.513C0.152,-0.513 0.041,-0.449 0.041,-0.252C0.041,-0.044 0.162,0.006 0.266,0.006C0.334,0.006 0.399,-0.018 0.449,-0.076L0.375,-0.139C0.345,-0.108 0.303,-0.09 0.264,-0.09C0.194,-0.09 0.143,-0.132 0.143,-0.215L0.459,-0.215ZM0.143,-0.299C0.145,-0.376 0.19,-0.417 0.25,-0.417C0.31,-0.417 0.354,-0.376 0.357,-0.299L0.143,-0.299ZM0.173,-0.572L0.257,-0.572L0.399,-0.718L0.265,-0.718L0.173,-0.572Z" style="fill-rule:nonzero;"/>
            </g>
            <g transform="matrix(108.027,0,0,108.027,1012.63,910)">
                <path d="M0.072,-0.507L0.021,-0.507L0.021,-0.429L0.072,-0.429L0.072,-0.125C0.072,-0.045 0.124,-0 0.195,-0L0.248,-0L0.248,-0.096L0.21,-0.096C0.185,-0.096 0.174,-0.106 0.174,-0.134L0.174,-0.429L0.248,-0.429L0.248,-0.507L0.174,-0.507L0.174,-0.661L0.072,-0.661L0.072,-0.507Z" style="fill-rule:nonzero;"/>
            </g>
            <g transform="matrix(108.027,0,0,108.027,1043.63,910)">
                <path d="M0.459,-0.215L0.459,-0.299C0.459,-0.43 0.362,-0.513 0.25,-0.513C0.152,-0.513 0.041,-0.449 0.041,-0.252C0.041,-0.044 0.162,0.006 0.266,0.006C0.334,0.006 0.399,-0.018 0.449,-0.076L0.375,-0.139C0.345,-0.108 0.303,-0.09 0.264,-0.09C0.194,-0.09 0.143,-0.132 0.143,-0.215L0.459,-0.215ZM0.143,-0.299C0.145,-0.376 0.19,-0.417 0.25,-0.417C0.31,-0.417 0.354,-0.376 0.357,-0.299L0.143,-0.299ZM0.173,-0.572L0.257,-0.572L0.399,-0.718L0.265,-0.718L0.173,-0.572Z" style="fill-rule:nonzero;"/>
            </g>
            <g transform="matrix(108.027,0,0,108.027,1125.52,910)">
                <path d="M0.369,-0L0.471,-0L0.471,-0.712L0.369,-0.712L0.369,-0.453C0.331,-0.489 0.29,-0.513 0.238,-0.513C0.176,-0.513 0.131,-0.485 0.102,-0.447C0.074,-0.411 0.066,-0.378 0.066,-0.254C0.066,-0.129 0.074,-0.096 0.102,-0.06C0.131,-0.022 0.176,0.006 0.238,0.006C0.29,0.006 0.337,-0.018 0.369,-0.053L0.369,-0ZM0.269,-0.411C0.364,-0.411 0.369,-0.327 0.369,-0.254C0.369,-0.18 0.364,-0.096 0.269,-0.096C0.173,-0.096 0.168,-0.175 0.168,-0.254C0.168,-0.332 0.173,-0.411 0.269,-0.411Z" style="fill-rule:nonzero;"/>
            </g>
            <g transform="matrix(108.027,0,0,108.027,1182.56,910)">
                <path d="M0.459,-0.215L0.459,-0.299C0.459,-0.43 0.362,-0.513 0.25,-0.513C0.152,-0.513 0.041,-0.449 0.041,-0.252C0.041,-0.044 0.162,0.006 0.266,0.006C0.334,0.006 0.399,-0.018 0.449,-0.076L0.375,-0.139C0.345,-0.108 0.303,-0.09 0.264,-0.09C0.194,-0.09 0.143,-0.132 0.143,-0.215L0.459,-0.215ZM0.143,-0.299C0.145,-0.376 0.19,-0.417 0.25,-0.417C0.31,-0.417 0.354,-0.376 0.357,-0.299L0.143,-0.299Z" style="fill-rule:nonzero;"/>
            </g>
            <g transform="matrix(108.027,0,0,108.027,1264.44,910)">
                <path d="M0.072,-0L0.174,-0L0.174,-0.302C0.174,-0.371 0.217,-0.411 0.275,-0.411C0.332,-0.411 0.375,-0.371 0.375,-0.302L0.375,-0L0.477,-0L0.477,-0.302C0.477,-0.371 0.52,-0.411 0.578,-0.411C0.635,-0.411 0.678,-0.371 0.678,-0.302L0.678,-0L0.78,-0L0.78,-0.337C0.78,-0.452 0.69,-0.513 0.611,-0.513C0.542,-0.513 0.493,-0.493 0.451,-0.447C0.415,-0.484 0.379,-0.513 0.308,-0.513C0.254,-0.513 0.208,-0.493 0.176,-0.453L0.174,-0.453L0.174,-0.507L0.072,-0.507L0.072,-0Z" style="fill-rule:nonzero;"/>
            </g>
            <g transform="matrix(108.027,0,0,108.027,1357.56,910)">
                <path d="M0.332,-0L0.434,-0L0.434,-0.346C0.434,-0.471 0.348,-0.513 0.223,-0.513C0.147,-0.513 0.091,-0.493 0.052,-0.439L0.132,-0.378C0.15,-0.407 0.175,-0.417 0.228,-0.417C0.301,-0.417 0.332,-0.4 0.332,-0.352L0.332,-0.299L0.191,-0.299C0.082,-0.299 0.026,-0.23 0.026,-0.149C0.026,-0.061 0.092,0.006 0.205,0.006C0.274,0.006 0.309,-0.01 0.33,-0.045L0.332,-0.045L0.332,-0ZM0.332,-0.178C0.332,-0.099 0.303,-0.09 0.218,-0.09C0.149,-0.09 0.122,-0.12 0.122,-0.154C0.122,-0.191 0.15,-0.215 0.21,-0.215L0.332,-0.215L0.332,-0.178Z" style="fill-rule:nonzero;"/>
            </g>
            <g transform="matrix(108.027,0,0,108.027,1412.65,910)">
                <path d="M0.072,-0.507L0.021,-0.507L0.021,-0.429L0.072,-0.429L0.072,-0.125C0.072,-0.045 0.124,-0 0.195,-0L0.248,-0L0.248,-0.096L0.21,-0.096C0.185,-0.096 0.174,-0.106 0.174,-0.134L0.174,-0.429L0.248,-0.429L0.248,-0.507L0.174,-0.507L0.174,-0.661L0.072,-0.661L0.072,-0.507Z" style="fill-rule:nonzero;"/>
            </g>
            <g transform="matrix(108.027,0,0,108.027,1443.77,910)">
                <path d="M0.066,-0L0.168,-0L0.168,-0.302C0.168,-0.371 0.211,-0.411 0.269,-0.411C0.326,-0.411 0.369,-0.371 0.369,-0.302L0.369,-0L0.471,-0L0.471,-0.337C0.471,-0.452 0.381,-0.513 0.302,-0.513C0.248,-0.513 0.202,-0.493 0.17,-0.453L0.168,-0.453L0.168,-0.712L0.066,-0.712L0.066,-0Z" style="fill-rule:nonzero;"/>
            </g>
            <g transform="matrix(108.027,0,0,108.027,1502.86,910)">
                <path d="M0.459,-0.215L0.459,-0.299C0.459,-0.43 0.362,-0.513 0.25,-0.513C0.152,-0.513 0.041,-0.449 0.041,-0.252C0.041,-0.044 0.162,0.006 0.266,0.006C0.334,0.006 0.399,-0.018 0.449,-0.076L0.375,-0.139C0.345,-0.108 0.303,-0.09 0.264,-0.09C0.194,-0.09 0.143,-0.132 0.143,-0.215L0.459,-0.215ZM0.143,-0.299C0.145,-0.376 0.19,-0.417 0.25,-0.417C0.31,-0.417 0.354,-0.376 0.357,-0.299L0.143,-0.299ZM0.173,-0.572L0.257,-0.572L0.399,-0.718L0.265,-0.718L0.173,-0.572Z" style="fill-rule:nonzero;"/>
            </g>
            <g transform="matrix(108.027,0,0,108.027,1557.95,910)">
                <path d="M0.072,-0L0.174,-0L0.174,-0.302C0.174,-0.371 0.217,-0.411 0.275,-0.411C0.332,-0.411 0.375,-0.371 0.375,-0.302L0.375,-0L0.477,-0L0.477,-0.302C0.477,-0.371 0.52,-0.411 0.578,-0.411C0.635,-0.411 0.678,-0.371 0.678,-0.302L0.678,-0L0.78,-0L0.78,-0.337C0.78,-0.452 0.69,-0.513 0.611,-0.513C0.542,-0.513 0.493,-0.493 0.451,-0.447C0.415,-0.484 0.379,-0.513 0.308,-0.513C0.254,-0.513 0.208,-0.493 0.176,-0.453L0.174,-0.453L0.174,-0.507L0.072,-0.507L0.072,-0Z" style="fill-rule:nonzero;"/>
            </g>
            <g transform="matrix(108.027,0,0,108.027,1651.07,910)">
                <path d="M0.332,-0L0.434,-0L0.434,-0.346C0.434,-0.471 0.348,-0.513 0.223,-0.513C0.147,-0.513 0.091,-0.493 0.052,-0.439L0.132,-0.378C0.15,-0.407 0.175,-0.417 0.228,-0.417C0.301,-0.417 0.332,-0.4 0.332,-0.352L0.332,-0.299L0.191,-0.299C0.082,-0.299 0.026,-0.23 0.026,-0.149C0.026,-0.061 0.092,0.006 0.205,0.006C0.274,0.006 0.309,-0.01 0.33,-0.045L0.332,-0.045L0.332,-0ZM0.332,-0.178C0.332,-0.099 0.303,-0.09 0.218,-0.09C0.149,-0.09 0.122,-0.12 0.122,-0.154C0.122,-0.191 0.15,-0.215 0.21,-0.215L0.332,-0.215L0.332,-0.178Z" style="fill-rule:nonzero;"/>
            </g>
            <g transform="matrix(108.027,0,0,108.027,1706.16,910)">
                <path d="M0.072,-0.507L0.021,-0.507L0.021,-0.429L0.072,-0.429L0.072,-0.125C0.072,-0.045 0.124,-0 0.195,-0L0.248,-0L0.248,-0.096L0.21,-0.096C0.185,-0.096 0.174,-0.106 0.174,-0.134L0.174,-0.429L0.248,-0.429L0.248,-0.507L0.174,-0.507L0.174,-0.661L0.072,-0.661L0.072,-0.507Z" style="fill-rule:nonzero;"/>
            </g>
            <g transform="matrix(108.027,0,0,108.027,1737.27,910)">
                <path d="M0.069,-0L0.171,-0L0.171,-0.507L0.069,-0.507L0.069,-0ZM0.069,-0.61L0.171,-0.61L0.171,-0.712L0.069,-0.712L0.069,-0.61Z" style="fill-rule:nonzero;"/>
            </g>
            <g transform="matrix(108.027,0,0,108.027,1764.28,910)">
                <path d="M0.351,0.205L0.453,0.205L0.453,-0.507L0.351,-0.507L0.351,-0.454C0.319,-0.489 0.272,-0.513 0.22,-0.513C0.158,-0.513 0.113,-0.485 0.084,-0.447C0.056,-0.411 0.048,-0.378 0.048,-0.253C0.048,-0.129 0.056,-0.096 0.084,-0.06C0.113,-0.022 0.158,0.006 0.22,0.006C0.272,0.006 0.313,-0.018 0.351,-0.054L0.351,0.205ZM0.251,-0.096C0.155,-0.096 0.15,-0.175 0.15,-0.253C0.15,-0.332 0.155,-0.411 0.251,-0.411C0.346,-0.411 0.351,-0.327 0.351,-0.253C0.351,-0.18 0.346,-0.096 0.251,-0.096Z" style="fill-rule:nonzero;"/>
            </g>
            <g transform="matrix(108.027,0,0,108.027,1821.43,910)">
                <path d="M0.066,-0.17C0.066,-0.055 0.156,0.006 0.236,0.006C0.289,0.006 0.335,-0.014 0.367,-0.054L0.369,-0.054L0.369,-0L0.471,-0L0.471,-0.507L0.369,-0.507L0.369,-0.205C0.369,-0.136 0.326,-0.096 0.269,-0.096C0.211,-0.096 0.168,-0.136 0.168,-0.205L0.168,-0.507L0.066,-0.507L0.066,-0.17Z" style="fill-rule:nonzero;"/>
            </g>
            <g transform="matrix(108.027,0,0,108.027,1880.52,910)">
                <path d="M0.459,-0.215L0.459,-0.299C0.459,-0.43 0.362,-0.513 0.25,-0.513C0.152,-0.513 0.041,-0.449 0.041,-0.252C0.041,-0.044 0.162,0.006 0.266,0.006C0.334,0.006 0.399,-0.018 0.449,-0.076L0.375,-0.139C0.345,-0.108 0.303,-0.09 0.264,-0.09C0.194,-0.09 0.143,-0.132 0.143,-0.215L0.459,-0.215ZM0.143,-0.299C0.145,-0.376 0.19,-0.417 0.25,-0.417C0.31,-0.417 0.354,-0.376 0.357,-0.299L0.143,-0.299Z" style="fill-rule:nonzero;"/>
            </g>
            <g transform="matrix(108.027,0,0,108.027,1935.61,910)">
                <path d="M0.01,-0.085C0.075,-0.024 0.151,0.006 0.233,0.006C0.351,0.006 0.443,-0.051 0.443,-0.15C0.443,-0.231 0.401,-0.295 0.296,-0.302L0.212,-0.308C0.161,-0.312 0.145,-0.334 0.145,-0.356C0.145,-0.391 0.167,-0.417 0.232,-0.417C0.287,-0.417 0.328,-0.398 0.368,-0.37L0.431,-0.444C0.381,-0.486 0.321,-0.513 0.232,-0.513C0.125,-0.513 0.043,-0.46 0.043,-0.357C0.043,-0.27 0.105,-0.22 0.189,-0.213L0.279,-0.205C0.314,-0.202 0.341,-0.191 0.341,-0.155C0.341,-0.112 0.299,-0.09 0.241,-0.09C0.173,-0.09 0.125,-0.112 0.081,-0.155L0.01,-0.085Z" style="fill-rule:nonzero;"/>
            </g>
        </g>
        <g transform="matrix(0.311369,0,0,0.311369,-62.835,-100.792)">
            <g transform="matrix(108.027,0,0,108.027,774,910)">
                <path d="M0.332,-0L0.434,-0L0.434,-0.346C0.434,-0.471 0.348,-0.513 0.223,-0.513C0.147,-0.513 0.091,-0.493 0.052,-0.439L0.132,-0.378C0.15,-0.407 0.175,-0.417 0.228,-0.417C0.301,-0.417 0.332,-0.4 0.332,-0.352L0.332,-0.299L0.191,-0.299C0.082,-0.299 0.026,-0.23 0.026,-0.149C0.026,-0.061 0.092,0.006 0.205,0.006C0.274,0.006 0.309,-0.01 0.33,-0.045L0.332,-0.045L0.332,-0ZM0.332,-0.178C0.332,-0.099 0.303,-0.09 0.218,-0.09C0.149,-0.09 0.122,-0.12 0.122,-0.154C0.122,-0.191 0.15,-0.215 0.21,-0.215L0.332,-0.215L0.332,-0.178Z" style="fill-rule:nonzero;"/>
            </g>
            <g transform="matrix(108.027,0,0,108.027,828.986,910)">
                <path d="M0.066,0.205L0.168,0.205L0.168,-0.054C0.206,-0.018 0.247,0.006 0.299,0.006C0.361,0.006 0.406,-0.022 0.435,-0.06C0.463,-0.096 0.471,-0.129 0.471,-0.253C0.471,-0.378 0.463,-0.411 0.435,-0.447C0.406,-0.485 0.361,-0.513 0.299,-0.513C0.247,-0.513 0.2,-0.489 0.168,-0.454L0.168,-0.507L0.066,-0.507L0.066,0.205ZM0.268,-0.096C0.173,-0.096 0.168,-0.18 0.168,-0.253C0.168,-0.327 0.173,-0.411 0.268,-0.411C0.364,-0.411 0.369,-0.332 0.369,-0.253C0.369,-0.175 0.364,-0.096 0.268,-0.096Z" style="fill-rule:nonzero;"/>
            </g>
            <g transform="matrix(108.027,0,0,108.027,886.024,910)">
                <path d="M0.066,0.205L0.168,0.205L0.168,-0.054C0.206,-0.018 0.247,0.006 0.299,0.006C0.361,0.006 0.406,-0.022 0.435,-0.06C0.463,-0.096 0.471,-0.129 0.471,-0.253C0.471,-0.378 0.463,-0.411 0.435,-0.447C0.406,-0.485 0.361,-0.513 0.299,-0.513C0.247,-0.513 0.2,-0.489 0.168,-0.454L0.168,-0.507L0.066,-0.507L0.066,0.205ZM0.268,-0.096C0.173,-0.096 0.168,-0.18 0.168,-0.253C0.168,-0.327 0.173,-0.411 0.268,-0.411C0.364,-0.411 0.369,-0.332 0.369,-0.253C0.369,-0.175 0.364,-0.096 0.268,-0.096Z" style="fill-rule:nonzero;"/>
            </g>
            <g transform="matrix(108.027,0,0,108.027,943.062,910)">
                <path d="M0.066,-0.123C0.066,-0.032 0.122,-0 0.196,-0L0.241,-0L0.241,-0.096L0.206,-0.096C0.181,-0.096 0.168,-0.108 0.168,-0.131L0.168,-0.712L0.066,-0.712L0.066,-0.123Z" style="fill-rule:nonzero;"/>
            </g>
            <g transform="matrix(108.027,0,0,108.027,971.905,910)">
                <path d="M0.069,-0L0.171,-0L0.171,-0.507L0.069,-0.507L0.069,-0ZM0.069,-0.61L0.171,-0.61L0.171,-0.712L0.069,-0.712L0.069,-0.61Z" style="fill-rule:nonzero;"/>
            </g>
            <g transform="matrix(108.027,0,0,108.027,998.803,910)">
                <path d="M0.351,0.205L0.453,0.205L0.453,-0.507L0.351,-0.507L0.351,-0.454C0.319,-0.489 0.272,-0.513 0.22,-0.513C0.158,-0.513 0.113,-0.485 0.084,-0.447C0.056,-0.411 0.048,-0.378 0.048,-0.253C0.048,-0.129 0.056,-0.096 0.084,-0.06C0.113,-0.022 0.158,0.006 0.22,0.006C0.272,0.006 0.313,-0.018 0.351,-0.054L0.351,0.205ZM0.251,-0.096C0.155,-0.096 0.15,-0.175 0.15,-0.253C0.15,-0.332 0.155,-0.411 0.251,-0.411C0.346,-0.411 0.351,-0.327 0.351,-0.253C0.351,-0.18 0.346,-0.096 0.251,-0.096Z" style="fill-rule:nonzero;"/>
            </g>
            <g transform="matrix(108.027,0,0,108.027,1055.84,910)">
                <path d="M0.066,-0.17C0.066,-0.055 0.156,0.006 0.236,0.006C0.289,0.006 0.335,-0.014 0.367,-0.054L0.369,-0.054L0.369,-0L0.471,-0L0.471,-0.507L0.369,-0.507L0.369,-0.205C0.369,-0.136 0.326,-0.096 0.269,-0.096C0.211,-0.096 0.168,-0.136 0.168,-0.205L0.168,-0.507L0.066,-0.507L0.066,-0.17Z" style="fill-rule:nonzero;"/>
            </g>
            <g transform="matrix(108.027,0,0,108.027,1114.82,910)">
                <path d="M0.459,-0.215L0.459,-0.299C0.459,-0.43 0.362,-0.513 0.25,-0.513C0.152,-0.513 0.041,-0.449 0.041,-0.252C0.041,-0.044 0.162,0.006 0.266,0.006C0.334,0.006 0.399,-0.018 0.449,-0.076L0.375,-0.139C0.345,-0.108 0.303,-0.09 0.264,-0.09C0.194,-0.09 0.143,-0.132 0.143,-0.215L0.459,-0.215ZM0.143,-0.299C0.145,-0.376 0.19,-0.417 0.25,-0.417C0.31,-0.417 0.354,-0.376 0.357,-0.299L0.143,-0.299Z" style="fill-rule:nonzero;"/>
            </g>
            <g transform="matrix(108.027,0,0,108.027,1169.81,910)">
                <path d="M0.459,-0.215L0.459,-0.299C0.459,-0.43 0.362,-0.513 0.25,-0.513C0.152,-0.513 0.041,-0.449 0.041,-0.252C0.041,-0.044 0.162,0.006 0.266,0.006C0.334,0.006 0.399,-0.018 0.449,-0.076L0.375,-0.139C0.345,-0.108 0.303,-0.09 0.264,-0.09C0.194,-0.09 0.143,-0.132 0.143,-0.215L0.459,-0.215ZM0.143,-0.299C0.145,-0.376 0.19,-0.417 0.25,-0.417C0.31,-0.417 0.354,-0.376 0.357,-0.299L0.143,-0.299Z" style="fill-rule:nonzero;"/>
            </g>
            <g transform="matrix(108.027,0,0,108.027,1224.8,910)">
                <path d="M0.01,-0.085C0.075,-0.024 0.151,0.006 0.233,0.006C0.351,0.006 0.443,-0.051 0.443,-0.15C0.443,-0.231 0.401,-0.295 0.296,-0.302L0.212,-0.308C0.161,-0.312 0.145,-0.334 0.145,-0.356C0.145,-0.391 0.167,-0.417 0.232,-0.417C0.287,-0.417 0.328,-0.398 0.368,-0.37L0.431,-0.444C0.381,-0.486 0.321,-0.513 0.232,-0.513C0.125,-0.513 0.043,-0.46 0.043,-0.357C0.043,-0.27 0.105,-0.22 0.189,-0.213L0.279,-0.205C0.314,-0.202 0.341,-0.191 0.341,-0.155C0.341,-0.112 0.299,-0.09 0.241,-0.09C0.173,-0.09 0.125,-0.112 0.081,-0.155L0.01,-0.085Z" style="fill-rule:nonzero;"/>
            </g>
            <g transform="matrix(108.027,0,0,108.027,1304.52,910)">
                <path d="M0.459,-0.215L0.459,-0.299C0.459,-0.43 0.362,-0.513 0.25,-0.513C0.152,-0.513 0.041,-0.449 0.041,-0.252C0.041,-0.044 0.162,0.006 0.266,0.006C0.334,0.006 0.399,-0.018 0.449,-0.076L0.375,-0.139C0.345,-0.108 0.303,-0.09 0.264,-0.09C0.194,-0.09 0.143,-0.132 0.143,-0.215L0.459,-0.215ZM0.143,-0.299C0.145,-0.376 0.19,-0.417 0.25,-0.417C0.31,-0.417 0.354,-0.376 0.357,-0.299L0.143,-0.299Z" style="fill-rule:nonzero;"/>
            </g>
            <g transform="matrix(108.027,0,0,108.027,1359.5,910)">
                <path d="M0.072,-0.507L0.021,-0.507L0.021,-0.429L0.072,-0.429L0.072,-0.125C0.072,-0.045 0.124,-0 0.195,-0L0.248,-0L0.248,-0.096L0.21,-0.096C0.185,-0.096 0.174,-0.106 0.174,-0.134L0.174,-0.429L0.248,-0.429L0.248,-0.507L0.174,-0.507L0.174,-0.661L0.072,-0.661L0.072,-0.507Z" style="fill-rule:nonzero;"/>
            </g>
            <g transform="matrix(108.027,0,0,108.027,1417.41,910)">
                <path d="M0.069,-0L0.171,-0L0.171,-0.507L0.069,-0.507L0.069,-0ZM0.069,-0.61L0.171,-0.61L0.171,-0.712L0.069,-0.712L0.069,-0.61Z" style="fill-rule:nonzero;"/>
            </g>
            <g transform="matrix(108.027,0,0,108.027,1444.31,910)">
                <path d="M0.066,-0L0.168,-0L0.168,-0.302C0.168,-0.371 0.211,-0.411 0.269,-0.411C0.326,-0.411 0.369,-0.371 0.369,-0.302L0.369,-0L0.471,-0L0.471,-0.337C0.471,-0.452 0.381,-0.513 0.302,-0.513C0.248,-0.513 0.202,-0.493 0.17,-0.453L0.168,-0.453L0.168,-0.507L0.066,-0.507L0.066,-0Z" style="fill-rule:nonzero;"/>
            </g>
            <g transform="matrix(108.027,0,0,108.027,1503.29,910)">
                <path d="M0.369,-0L0.471,-0L0.471,-0.712L0.369,-0.712L0.369,-0.453C0.331,-0.489 0.29,-0.513 0.238,-0.513C0.176,-0.513 0.131,-0.485 0.102,-0.447C0.074,-0.411 0.066,-0.378 0.066,-0.254C0.066,-0.129 0.074,-0.096 0.102,-0.06C0.131,-0.022 0.176,0.006 0.238,0.006C0.29,0.006 0.337,-0.018 0.369,-0.053L0.369,-0ZM0.269,-0.411C0.364,-0.411 0.369,-0.327 0.369,-0.254C0.369,-0.18 0.364,-0.096 0.269,-0.096C0.173,-0.096 0.168,-0.175 0.168,-0.254C0.168,-0.332 0.173,-0.411 0.269,-0.411Z" style="fill-rule:nonzero;"/>
            </g>
            <g transform="matrix(108.027,0,0,108.027,1560.33,910)">
                <path d="M0.066,-0.17C0.066,-0.055 0.156,0.006 0.236,0.006C0.289,0.006 0.335,-0.014 0.367,-0.054L0.369,-0.054L0.369,-0L0.471,-0L0.471,-0.507L0.369,-0.507L0.369,-0.205C0.369,-0.136 0.326,-0.096 0.269,-0.096C0.211,-0.096 0.168,-0.136 0.168,-0.205L0.168,-0.507L0.066,-0.507L0.066,-0.17Z" style="fill-rule:nonzero;"/>
            </g>
            <g transform="matrix(108.027,0,0,108.027,1619.31,910)">
                <path d="M0.01,-0.085C0.075,-0.024 0.151,0.006 0.233,0.006C0.351,0.006 0.443,-0.051 0.443,-0.15C0.443,-0.231 0.401,-0.295 0.296,-0.302L0.212,-0.308C0.161,-0.312 0.145,-0.334 0.145,-0.356C0.145,-0.391 0.167,-0.417 0.232,-0.417C0.287,-0.417 0.328,-0.398 0.368,-0.37L0.431,-0.444C0.381,-0.486 0.321,-0.513 0.232,-0.513C0.125,-0.513 0.043,-0.46 0.043,-0.357C0.043,-0.27 0.105,-0.22 0.189,-0.213L0.279,-0.205C0.314,-0.202 0.341,-0.191 0.341,-0.155C0.341,-0.112 0.299,-0.09 0.241,-0.09C0.173,-0.09 0.125,-0.112 0.081,-0.155L0.01,-0.085Z" style="fill-rule:nonzero;"/>
            </g>
            <g transform="matrix(108.027,0,0,108.027,1672.13,910)">
                <path d="M0.072,-0.507L0.021,-0.507L0.021,-0.429L0.072,-0.429L0.072,-0.125C0.072,-0.045 0.124,-0 0.195,-0L0.248,-0L0.248,-0.096L0.21,-0.096C0.185,-0.096 0.174,-0.106 0.174,-0.134L0.174,-0.429L0.248,-0.429L0.248,-0.507L0.174,-0.507L0.174,-0.661L0.072,-0.661L0.072,-0.507Z" style="fill-rule:nonzero;"/>
            </g>
            <g transform="matrix(108.027,0,0,108.027,1703.14,910)">
                <path d="M0.066,-0L0.168,-0L0.168,-0.305C0.168,-0.379 0.217,-0.411 0.267,-0.411C0.293,-0.411 0.31,-0.404 0.334,-0.386L0.408,-0.474C0.377,-0.498 0.343,-0.513 0.302,-0.513C0.248,-0.513 0.202,-0.493 0.17,-0.453L0.168,-0.453L0.168,-0.507L0.066,-0.507L0.066,-0Z" style="fill-rule:nonzero;"/>
            </g>
            <g transform="matrix(108.027,0,0,108.027,1746.13,910)">
                <path d="M0.069,-0L0.171,-0L0.171,-0.507L0.069,-0.507L0.069,-0ZM0.069,-0.61L0.171,-0.61L0.171,-0.712L0.069,-0.712L0.069,-0.61Z" style="fill-rule:nonzero;"/>
            </g>
            <g transform="matrix(108.027,0,0,108.027,1773.03,910)">
                <path d="M0.459,-0.215L0.459,-0.299C0.459,-0.43 0.362,-0.513 0.25,-0.513C0.152,-0.513 0.041,-0.449 0.041,-0.252C0.041,-0.044 0.162,0.006 0.266,0.006C0.334,0.006 0.399,-0.018 0.449,-0.076L0.375,-0.139C0.345,-0.108 0.303,-0.09 0.264,-0.09C0.194,-0.09 0.143,-0.132 0.143,-0.215L0.459,-0.215ZM0.143,-0.299C0.145,-0.376 0.19,-0.417 0.25,-0.417C0.31,-0.417 0.354,-0.376 0.357,-0.299L0.143,-0.299Z" style="fill-rule:nonzero;"/>
            </g>
            <g transform="matrix(108.027,0,0,108.027,1828.02,910)">
                <path d="M0.066,-0.123C0.066,-0.032 0.122,-0 0.196,-0L0.241,-0L0.241,-0.096L0.206,-0.096C0.181,-0.096 0.168,-0.108 0.168,-0.131L0.168,-0.712L0.066,-0.712L0.066,-0.123Z" style="fill-rule:nonzero;"/>
            </g>
            <g transform="matrix(108.027,0,0,108.027,1856.86,910)">
                <path d="M0.066,-0.123C0.066,-0.032 0.122,-0 0.196,-0L0.241,-0L0.241,-0.096L0.206,-0.096C0.181,-0.096 0.168,-0.108 0.168,-0.131L0.168,-0.712L0.066,-0.712L0.066,-0.123Z" style="fill-rule:nonzero;"/>
            </g>
            <g transform="matrix(108.027,0,0,108.027,1885.7,910)">
                <path d="M0.459,-0.215L0.459,-0.299C0.459,-0.43 0.362,-0.513 0.25,-0.513C0.152,-0.513 0.041,-0.449 0.041,-0.252C0.041,-0.044 0.162,0.006 0.266,0.006C0.334,0.006 0.399,-0.018 0.449,-0.076L0.375,-0.139C0.345,-0.108 0.303,-0.09 0.264,-0.09C0.194,-0.09 0.143,-0.132 0.143,-0.215L0.459,-0.215ZM0.143,-0.299C0.145,-0.376 0.19,-0.417 0.25,-0.417C0.31,-0.417 0.354,-0.376 0.357,-0.299L0.143,-0.299Z" style="fill-rule:nonzero;"/>
            </g>
            <g transform="matrix(108.027,0,0,108.027,1940.69,910)">
                <path d="M0.01,-0.085C0.075,-0.024 0.151,0.006 0.233,0.006C0.351,0.006 0.443,-0.051 0.443,-0.15C0.443,-0.231 0.401,-0.295 0.296,-0.302L0.212,-0.308C0.161,-0.312 0.145,-0.334 0.145,-0.356C0.145,-0.391 0.167,-0.417 0.232,-0.417C0.287,-0.417 0.328,-0.398 0.368,-0.37L0.431,-0.444C0.381,-0.486 0.321,-0.513 0.232,-0.513C0.125,-0.513 0.043,-0.46 0.043,-0.357C0.043,-0.27 0.105,-0.22 0.189,-0.213L0.279,-0.205C0.314,-0.202 0.341,-0.191 0.341,-0.155C0.341,-0.112 0.299,-0.09 0.241,-0.09C0.173,-0.09 0.125,-0.112 0.081,-0.155L0.01,-0.085Z" style="fill-rule:nonzero;"/>
            </g>
        </g>
    </g>
</svg>
