<?xml version="1.0" encoding="UTF-8" standalone="no"?>
<!DOCTYPE svg PUBLIC "-//W3C//DTD SVG 1.1//EN" "http://www.w3.org/Graphics/SVG/1.1/DTD/svg11.dtd">
<svg width="100%" height="100%" viewBox="0 0 690 115" version="1.1" xmlns="http://www.w3.org/2000/svg" xmlns:xlink="http://www.w3.org/1999/xlink" xml:space="preserve" xmlns:serif="http://www.serif.com/" style="fill-rule:evenodd;clip-rule:evenodd;stroke-linejoin:round;stroke-miterlimit:2;">
    <g transform="matrix(1,0,0,1,-83.123,-83.21)">
        <path d="M283.68,118.38L283.68,124.77L269.06,124.77L269.06,166.15L261.22,166.15L261.22,124.77L246.59,124.77L246.59,118.38L283.68,118.38Z" style="fill-rule:nonzero;stroke:white;stroke-width:1px;"/>
        <path d="M382.79,129.51C385.15,130.75 387.01,132.58 388.36,135.01C389.71,137.44 390.39,140.37 390.39,143.81L390.39,166.15L382.62,166.15L382.62,144.98C382.62,141.59 381.77,138.99 380.08,137.18C378.39,135.37 376.07,134.47 373.14,134.47C370.2,134.47 367.88,135.37 366.16,137.18C364.44,138.99 363.58,141.59 363.58,144.98L363.58,166.15L355.81,166.15L355.81,144.98C355.81,141.59 354.96,138.99 353.27,137.18C351.57,135.37 349.26,134.47 346.32,134.47C343.39,134.47 341.06,135.37 339.34,137.18C337.62,138.99 336.76,141.59 336.76,144.98L336.76,166.15L328.92,166.15L328.92,128.28L336.76,128.28L336.76,132.61C338.04,131.05 339.67,129.84 341.64,128.97C343.61,128.1 345.72,127.66 347.97,127.66C350.99,127.66 353.7,128.3 356.08,129.58C358.46,130.87 360.3,132.72 361.58,135.15C362.72,132.86 364.51,131.04 366.94,129.69C369.37,128.34 371.98,127.66 374.78,127.66C377.76,127.66 380.43,128.28 382.79,129.51Z" style="fill-rule:nonzero;stroke:white;stroke-width:1px;"/>
        <path d="M413.88,129.44C416.17,128.25 418.76,127.65 421.65,127.65C424.95,127.65 427.97,128.47 430.69,130.09C433.42,131.72 435.56,134 437.12,136.93C438.68,139.87 439.46,143.23 439.46,147.04C439.46,150.84 438.68,154.25 437.12,157.25C435.56,160.25 433.42,162.59 430.69,164.26C427.96,165.93 424.95,166.77 421.65,166.77C418.76,166.77 416.2,166.18 413.95,165.02C411.7,163.85 409.87,162.39 408.45,160.65L408.45,184.16L400.61,184.16L400.61,128.28L408.45,128.28L408.45,133.85C409.77,132.1 411.58,130.64 413.88,129.44ZM429.86,140.27C428.78,138.37 427.36,136.93 425.6,135.94C423.84,134.95 421.94,134.46 419.93,134.46C417.96,134.46 416.09,134.97 414.33,135.97C412.56,136.98 411.14,138.44 410.07,140.37C408.99,142.29 408.45,144.56 408.45,147.18C408.45,149.79 408.99,152.07 410.07,154.02C411.15,155.97 412.57,157.44 414.33,158.45C416.09,159.46 417.96,159.96 419.93,159.96C421.95,159.96 423.84,159.45 425.6,158.41C427.36,157.38 428.78,155.88 429.86,153.91C430.94,151.94 431.48,149.65 431.48,147.04C431.48,144.43 430.94,142.17 429.86,140.27Z" style="fill-rule:nonzero;stroke:white;stroke-width:1px;"/>
        <rect x="448.2" y="115.28" width="7.84" height="50.87" style="fill-rule:nonzero;stroke:white;stroke-width:1px;"/>
        <path d="M580.54,136.94C582.12,134.01 584.28,131.73 587,130.1C589.73,128.47 592.74,127.66 596.04,127.66C599.02,127.66 601.62,128.25 603.84,129.41C606.06,130.58 607.84,132.04 609.17,133.78L609.17,128.28L617.08,128.28L617.08,166.15L609.17,166.15L609.17,160.51C607.84,162.3 606.03,163.79 603.74,164.98C601.45,166.17 598.84,166.77 595.91,166.77C592.65,166.77 589.68,165.93 586.97,164.26C584.26,162.59 582.12,160.25 580.54,157.25C578.96,154.25 578.17,150.85 578.17,147.04C578.17,143.24 578.96,139.87 580.54,136.94ZM607.55,140.37C606.47,138.45 605.07,136.98 603.32,135.97C601.57,134.96 599.7,134.46 597.68,134.46C595.66,134.46 593.78,134.95 592.04,135.94C590.3,136.92 588.89,138.37 587.81,140.27C586.73,142.17 586.19,144.43 586.19,147.04C586.19,149.65 586.73,151.94 587.81,153.91C588.89,155.88 590.31,157.38 592.07,158.41C593.83,159.44 595.7,159.96 597.67,159.96C599.69,159.96 601.56,159.46 603.31,158.45C605.05,157.44 606.46,155.97 607.54,154.02C608.62,152.07 609.16,149.79 609.16,147.18C609.17,144.57 608.63,142.3 607.55,140.37Z" style="fill-rule:nonzero;stroke:white;stroke-width:1px;"/>
        <path d="M640.57,129.44C642.86,128.25 645.45,127.65 648.34,127.65C651.64,127.65 654.66,128.47 657.38,130.09C660.11,131.72 662.25,134 663.81,136.93C665.37,139.87 666.15,143.23 666.15,147.04C666.15,150.84 665.37,154.25 663.81,157.25C662.25,160.25 660.11,162.59 657.38,164.26C654.65,165.93 651.64,166.77 648.34,166.77C645.45,166.77 642.89,166.18 640.64,165.02C638.39,163.85 636.56,162.39 635.14,160.65L635.14,184.16L627.3,184.16L627.3,128.28L635.14,128.28L635.14,133.85C636.46,132.1 638.27,130.64 640.57,129.44ZM656.55,140.27C655.47,138.37 654.05,136.93 652.29,135.94C650.53,134.95 648.63,134.46 646.62,134.46C644.65,134.46 642.78,134.97 641.02,135.97C639.25,136.98 637.83,138.44 636.76,140.37C635.68,142.29 635.14,144.56 635.14,147.18C635.14,149.79 635.68,152.07 636.76,154.02C637.84,155.97 639.26,157.44 641.02,158.45C642.78,159.46 644.65,159.96 646.62,159.96C648.64,159.96 650.53,159.45 652.29,158.41C654.05,157.38 655.47,155.88 656.55,153.91C657.63,151.94 658.17,149.65 658.17,147.04C658.16,144.43 657.62,142.17 656.55,140.27Z" style="fill-rule:nonzero;stroke:white;stroke-width:1px;"/>
        <path d="M675.3,121.82C674.34,120.86 673.86,119.67 673.86,118.25C673.86,116.83 674.34,115.64 675.3,114.68C676.26,113.72 677.45,113.23 678.87,113.23C680.24,113.23 681.42,113.71 682.38,114.68C683.34,115.64 683.82,116.83 683.82,118.25C683.82,119.67 683.34,120.86 682.38,121.82C681.42,122.78 680.25,123.26 678.87,123.26C677.45,123.26 676.26,122.78 675.3,121.82ZM682.73,128.28L682.73,166.15L674.89,166.15L674.89,128.28L682.73,128.28Z" style="fill-rule:nonzero;stroke:white;stroke-width:1px;"/>
        <path d="M703.16,134.67L703.16,155.64C703.16,157.06 703.49,158.08 704.16,158.7C704.82,159.32 705.96,159.63 707.56,159.63L712.37,159.63L712.37,166.16L706.18,166.16C702.65,166.16 699.95,165.33 698.07,163.68C696.19,162.03 695.25,159.35 695.25,155.64L695.25,134.67L690.78,134.67L690.78,128.28L695.25,128.28L695.25,118.86L703.16,118.86L703.16,128.28L712.37,128.28L712.37,134.67L703.16,134.67Z" style="fill-rule:nonzero;stroke:white;stroke-width:1px;"/>
        <path d="M718.96,136.94C720.54,134.01 722.7,131.73 725.42,130.1C728.15,128.47 731.16,127.66 734.46,127.66C737.44,127.66 740.04,128.25 742.26,129.41C744.48,130.58 746.26,132.04 747.59,133.78L747.59,128.28L755.5,128.28L755.5,166.15L747.59,166.15L747.59,160.51C746.26,162.3 744.45,163.79 742.16,164.98C739.87,166.17 737.26,166.77 734.33,166.77C731.07,166.77 728.1,165.93 725.39,164.26C722.68,162.59 720.54,160.25 718.96,157.25C717.38,154.25 716.59,150.85 716.59,147.04C716.59,143.24 717.38,139.87 718.96,136.94ZM745.97,140.37C744.89,138.45 743.49,136.98 741.74,135.97C739.99,134.96 738.12,134.46 736.1,134.46C734.08,134.46 732.2,134.95 730.46,135.94C728.72,136.92 727.31,138.37 726.23,140.27C725.15,142.17 724.61,144.43 724.61,147.04C724.61,149.65 725.15,151.94 726.23,153.91C727.31,155.88 728.73,157.38 730.49,158.41C732.25,159.44 734.12,159.96 736.09,159.96C738.11,159.96 739.98,159.46 741.73,158.45C743.47,157.44 744.88,155.97 745.96,154.02C747.04,152.07 747.58,149.79 747.58,147.18C747.59,144.57 747.05,142.3 745.97,140.37Z" style="fill-rule:nonzero;stroke:white;stroke-width:1px;"/>
        <rect x="764.97" y="115.28" width="7.84" height="50.87" style="fill-rule:nonzero;stroke:white;stroke-width:1px;"/>
        <path d="M320.4,149.34L289.93,149.34C290.55,156.23 295.39,160.04 301.65,160.04C306.15,160.04 309.9,158.13 311.67,154.45L319.65,154.45C316.72,162.83 309.56,166.78 301.58,166.78C290.2,166.78 282.09,158.6 282.09,147.29C282.09,135.98 290.13,127.66 301.45,127.66C313.52,127.66 321.16,137 320.4,149.34ZM290.34,143.07L312.15,143.07C310.99,137.96 307.11,134.35 301.45,134.35C295.59,134.34 291.64,138.02 290.34,143.07Z" style="fill-rule:nonzero;stroke:white;stroke-width:1px;"/>
        <path d="M503.09,149.34L472.62,149.34C473.23,156.23 478.08,160.04 484.34,160.04C488.84,160.04 492.59,158.13 494.36,154.45L502.34,154.45C499.41,162.83 492.25,166.78 484.27,166.78C472.89,166.78 464.78,158.6 464.78,147.29C464.78,135.98 472.82,127.66 484.14,127.66C496.21,127.66 503.84,137 503.09,149.34ZM473.03,143.07L494.84,143.07C493.68,137.96 489.8,134.35 484.14,134.35C478.28,134.34 474.33,138.02 473.03,143.07Z" style="fill-rule:nonzero;stroke:white;stroke-width:1px;"/>
        <path d="M524.05,142.27C524.05,128.26 534.41,117.76 548.49,117.76C559.46,117.76 568.2,124.4 571.17,134.21L562.97,134.21C560.47,128.66 555.12,125.07 548.42,125.07C538.74,125.07 531.76,132.38 531.76,142.26C531.76,152.15 538.73,159.45 548.42,159.45C555.12,159.45 560.47,155.86 562.97,150.31L571.17,150.31C568.19,160.13 559.46,166.76 548.49,166.76C534.41,166.77 524.05,156.28 524.05,142.27Z" style="fill-rule:nonzero;stroke:white;stroke-width:1px;"/>
        <path d="M233.66,84.83C233.255,83.853 232.298,83.212 231.24,83.21L122.08,83.21C121.39,83.21 120.72,83.49 120.23,83.98L83.89,120.31C83.14,121.06 82.92,122.19 83.32,123.17C83.73,124.15 84.68,124.79 85.74,124.79L137.63,124.79L137.63,194.84C137.63,195.9 138.27,196.86 139.25,197.26C139.57,197.39 139.91,197.46 140.25,197.46C140.93,197.46 141.6,197.2 142.1,196.69L178.48,160.32C178.97,159.83 179.25,159.16 179.25,158.47L179.25,124.79L194.91,124.79C195.6,124.79 196.27,124.51 196.76,124.02L233.1,87.69C233.84,86.94 234.07,85.81 233.66,84.83ZM174.01,119.55L143.08,119.55C144.36,103.06 157.53,89.88 174.01,88.59L174.01,119.55ZM123.16,88.45L157.23,88.45C146.29,94.78 138.72,106.25 137.83,119.55L92.07,119.55L123.16,88.45ZM142.87,141.48C148.66,151.57 158.82,158.8 170.76,160.63L142.87,188.52L142.87,141.48ZM174.01,155.75C157.52,154.46 144.36,141.28 143.08,124.79L174.01,124.79L174.01,155.75ZM193.82,119.55L179.25,119.55L179.25,88.45L224.92,88.45L193.82,119.55Z" style="fill:rgb(0,120,255);fill-rule:nonzero;"/>
    </g>
</svg>
