<svg preserveAspectRatio="xMidYMid meet" data-bbox="83.123 83.21 689.687 114.25" viewBox="83.123 83.21 689.687 114.25" xmlns="http://www.w3.org/2000/svg" data-type="color" role="presentation" aria-hidden="true">
    <g>
        <path d="M283.68 118.38v6.39h-14.62v41.38h-7.84v-41.38h-14.63v-6.39h37.09z" fill="#ffffff" data-color="1"></path>
        <path d="M382.79 129.51c2.36 1.24 4.22 3.07 5.57 5.5 1.35 2.43 2.03 5.36 2.03 8.8v22.34h-7.77v-21.17c0-3.39-.85-5.99-2.54-7.8s-4.01-2.71-6.94-2.71c-2.94 0-5.26.9-6.98 2.71-1.72 1.81-2.58 4.41-2.58 7.8v21.17h-7.77v-21.17c0-3.39-.85-5.99-2.54-7.8-1.7-1.81-4.01-2.71-6.95-2.71-2.93 0-5.26.9-6.98 2.71-1.72 1.81-2.58 4.41-2.58 7.8v21.17h-7.84v-37.87h7.84v4.33c1.28-1.56 2.91-2.77 4.88-3.64 1.97-.87 4.08-1.31 6.33-1.31 3.02 0 5.73.64 8.11 1.92 2.38 1.29 4.22 3.14 5.5 5.57 1.14-2.29 2.93-4.11 5.36-5.46 2.43-1.35 5.04-2.03 7.84-2.03 2.98 0 5.65.62 8.01 1.85z" fill="#ffffff" data-color="1"></path>
        <path d="M413.88 129.44c2.29-1.19 4.88-1.79 7.77-1.79 3.3 0 6.32.82 9.04 2.44 2.73 1.63 4.87 3.91 6.43 6.84 1.56 2.94 2.34 6.3 2.34 10.11 0 3.8-.78 7.21-2.34 10.21-1.56 3-3.7 5.34-6.43 7.01-2.73 1.67-5.74 2.51-9.04 2.51-2.89 0-5.45-.59-7.7-1.75-2.25-1.17-4.08-2.63-5.5-4.37v23.51h-7.84v-55.88h7.84v5.57c1.32-1.75 3.13-3.21 5.43-4.41zm15.98 10.83c-1.08-1.9-2.5-3.34-4.26-4.33-1.76-.99-3.66-1.48-5.67-1.48-1.97 0-3.84.51-5.6 1.51-1.77 1.01-3.19 2.47-4.26 4.4-1.08 1.92-1.62 4.19-1.62 6.81 0 2.61.54 4.89 1.62 6.84 1.08 1.95 2.5 3.42 4.26 4.43 1.76 1.01 3.63 1.51 5.6 1.51 2.02 0 3.91-.51 5.67-1.55 1.76-1.03 3.18-2.53 4.26-4.5 1.08-1.97 1.62-4.26 1.62-6.87 0-2.61-.54-4.87-1.62-6.77z" fill="#ffffff" data-color="1"></path>
        <path d="M456.04 115.28v50.87h-7.84v-50.87h7.84z" fill="#ffffff" data-color="1"></path>
        <path d="M580.54 136.94c1.58-2.93 3.74-5.21 6.46-6.84 2.73-1.63 5.74-2.44 9.04-2.44 2.98 0 5.58.59 7.8 1.75 2.22 1.17 4 2.63 5.33 4.37v-5.5h7.91v37.87h-7.91v-5.64c-1.33 1.79-3.14 3.28-5.43 4.47-2.29 1.19-4.9 1.79-7.83 1.79-3.26 0-6.23-.84-8.94-2.51-2.71-1.67-4.85-4.01-6.43-7.01s-2.37-6.4-2.37-10.21c0-3.8.79-7.17 2.37-10.1zm27.01 3.43c-1.08-1.92-2.48-3.39-4.23-4.4-1.75-1.01-3.62-1.51-5.64-1.51s-3.9.49-5.64 1.48c-1.74.98-3.15 2.43-4.23 4.33-1.08 1.9-1.62 4.16-1.62 6.77 0 2.61.54 4.9 1.62 6.87s2.5 3.47 4.26 4.5c1.76 1.03 3.63 1.55 5.6 1.55 2.02 0 3.89-.5 5.64-1.51 1.74-1.01 3.15-2.48 4.23-4.43 1.08-1.95 1.62-4.23 1.62-6.84.01-2.61-.53-4.88-1.61-6.81z" fill="#ffffff" data-color="1"></path>
        <path d="M640.57 129.44c2.29-1.19 4.88-1.79 7.77-1.79 3.3 0 6.32.82 9.04 2.44 2.73 1.63 4.87 3.91 6.43 6.84 1.56 2.94 2.34 6.3 2.34 10.11 0 3.8-.78 7.21-2.34 10.21-1.56 3-3.7 5.34-6.43 7.01-2.73 1.67-5.74 2.51-9.04 2.51-2.89 0-5.45-.59-7.7-1.75-2.25-1.17-4.08-2.63-5.5-4.37v23.51h-7.84v-55.88h7.84v5.57c1.32-1.75 3.13-3.21 5.43-4.41zm15.98 10.83c-1.08-1.9-2.5-3.34-4.26-4.33-1.76-.99-3.66-1.48-5.67-1.48-1.97 0-3.84.51-5.6 1.51-1.77 1.01-3.19 2.47-4.26 4.4-1.08 1.92-1.62 4.19-1.62 6.81 0 2.61.54 4.89 1.62 6.84 1.08 1.95 2.5 3.42 4.26 4.43 1.76 1.01 3.63 1.51 5.6 1.51 2.02 0 3.91-.51 5.67-1.55 1.76-1.03 3.18-2.53 4.26-4.5 1.08-1.97 1.62-4.26 1.62-6.87-.01-2.61-.55-4.87-1.62-6.77z" fill="#ffffff" data-color="1"></path>
        <path d="M675.3 121.82c-.96-.96-1.44-2.15-1.44-3.57s.48-2.61 1.44-3.57 2.15-1.45 3.57-1.45c1.37 0 2.55.48 3.51 1.45.96.96 1.44 2.15 1.44 3.57s-.48 2.61-1.44 3.57-2.13 1.44-3.51 1.44c-1.42 0-2.61-.48-3.57-1.44zm7.43 6.46v37.87h-7.84v-37.87h7.84z" fill="#ffffff" data-color="1"></path>
        <path d="M703.16 134.67v20.97c0 1.42.33 2.44 1 3.06.66.62 1.8.93 3.4.93h4.81v6.53h-6.19c-3.53 0-6.23-.83-8.11-2.48-1.88-1.65-2.82-4.33-2.82-8.04v-20.97h-4.47v-6.39h4.47v-9.42h7.91v9.42h9.21v6.39h-9.21z" fill="#ffffff" data-color="1"></path>
        <path d="M718.96 136.94c1.58-2.93 3.74-5.21 6.46-6.84 2.73-1.63 5.74-2.44 9.04-2.44 2.98 0 5.58.59 7.8 1.75 2.22 1.17 4 2.63 5.33 4.37v-5.5h7.91v37.87h-7.91v-5.64c-1.33 1.79-3.14 3.28-5.43 4.47-2.29 1.19-4.9 1.79-7.83 1.79-3.26 0-6.23-.84-8.94-2.51-2.71-1.67-4.85-4.01-6.43-7.01s-2.37-6.4-2.37-10.21c0-3.8.79-7.17 2.37-10.1zm27.01 3.43c-1.08-1.92-2.48-3.39-4.23-4.4-1.75-1.01-3.62-1.51-5.64-1.51s-3.9.49-5.64 1.48c-1.74.98-3.15 2.43-4.23 4.33-1.08 1.9-1.62 4.16-1.62 6.77 0 2.61.54 4.9 1.62 6.87s2.5 3.47 4.26 4.5c1.76 1.03 3.63 1.55 5.6 1.55 2.02 0 3.89-.5 5.64-1.51 1.74-1.01 3.15-2.48 4.23-4.43 1.08-1.95 1.62-4.23 1.62-6.84.01-2.61-.53-4.88-1.61-6.81z" fill="#ffffff" data-color="1"></path>
        <path d="M772.81 115.28v50.87h-7.84v-50.87h7.84z" fill="#ffffff" data-color="1"></path>
        <path d="M320.4 149.34h-30.47c.62 6.89 5.46 10.7 11.72 10.7 4.5 0 8.25-1.91 10.02-5.59h7.98c-2.93 8.38-10.09 12.33-18.07 12.33-11.38 0-19.49-8.18-19.49-19.49 0-11.31 8.04-19.63 19.36-19.63 12.07 0 19.71 9.34 18.95 21.68zm-30.06-6.27h21.81c-1.16-5.11-5.04-8.72-10.7-8.72-5.86-.01-9.81 3.67-11.11 8.72z" fill="#ffffff" data-color="1"></path>
        <path d="M503.09 149.34h-30.47c.61 6.89 5.46 10.7 11.72 10.7 4.5 0 8.25-1.91 10.02-5.59h7.98c-2.93 8.38-10.09 12.33-18.07 12.33-11.38 0-19.49-8.18-19.49-19.49 0-11.31 8.04-19.63 19.36-19.63 12.07 0 19.7 9.34 18.95 21.68zm-30.06-6.27h21.81c-1.16-5.11-5.04-8.72-10.7-8.72-5.86-.01-9.81 3.67-11.11 8.72z" fill="#ffffff" data-color="1"></path>
        <path d="M524.05 142.27c0-14.01 10.36-24.51 24.44-24.51 10.97 0 19.71 6.64 22.68 16.45h-8.2c-2.5-5.55-7.85-9.14-14.55-9.14-9.68 0-16.66 7.31-16.66 17.19 0 9.89 6.97 17.19 16.66 17.19 6.7 0 12.05-3.59 14.55-9.14h8.2c-2.98 9.82-11.71 16.45-22.68 16.45-14.08.01-24.44-10.48-24.44-24.49z" fill="#ffffff" data-color="1"></path>
        <path d="M233.66 84.83a2.624 2.624 0 0 0-2.42-1.62H122.08c-.69 0-1.36.28-1.85.77l-36.34 36.33c-.75.75-.97 1.88-.57 2.86.41.98 1.36 1.62 2.42 1.62h51.89v70.05c0 1.06.64 2.02 1.62 2.42.32.13.66.2 1 .2.68 0 1.35-.26 1.85-.77l36.38-36.37c.49-.49.77-1.16.77-1.85v-33.68h15.66c.69 0 1.36-.28 1.85-.77l36.34-36.33c.74-.75.97-1.88.56-2.86zm-59.65 34.72h-30.93c1.28-16.49 14.45-29.67 30.93-30.96v30.96zm-50.85-31.1h34.07c-10.94 6.33-18.51 17.8-19.4 31.1H92.07l31.09-31.1zm19.71 53.03c5.79 10.09 15.95 17.32 27.89 19.15l-27.89 27.89v-47.04zm31.14 14.27c-16.49-1.29-29.65-14.47-30.93-30.96h30.93v30.96zm19.81-36.2h-14.57v-31.1h45.67l-31.1 31.1z" fill="#0078ff" data-color="2"></path>
    </g>
</svg>