<?xml version="1.0" encoding="UTF-8" standalone="no"?>
<!DOCTYPE svg PUBLIC "-//W3C//DTD SVG 1.1//EN" "http://www.w3.org/Graphics/SVG/1.1/DTD/svg11.dtd">
<svg width="100%" height="100%" viewBox="0 0 1551 916" version="1.1" xmlns="http://www.w3.org/2000/svg" xmlns:xlink="http://www.w3.org/1999/xlink" xml:space="preserve" xmlns:serif="http://www.serif.com/" style="fill-rule:evenodd;clip-rule:evenodd;stroke-linejoin:round;stroke-miterlimit:2;">
    <g transform="matrix(0.973565,0,0,0.973565,5.08156,-9.16602)">
        <path d="M829,943C877,943 909,901 909,846L909,256L783,256L783,776L449,534L449,693L758,914C765,919 793,943 829,943ZM150,28L150,175L25,175C25,103 57,28 150,28Z" style="fill:rgb(234,56,164);fill-rule:nonzero;"/>
    </g>
    <g transform="matrix(1.00409,0,0,1.00409,14.7853,39.0127)">
        <g transform="matrix(170.667,0,0,170.667,245,105)">
            <path d="M0.023,-0.53L0.233,-0.53L0.233,-0L0.427,-0L0.427,-0.53L0.637,-0.53L0.637,-0.7L0.023,-0.7L0.023,-0.53Z" style="fill-rule:nonzero;"/>
        </g>
        <g transform="matrix(170.667,0,0,170.667,390.067,105)">
            <path d="M0.414,0.014C0.63,0.014 0.792,-0.149 0.792,-0.35L0.792,-0.352C0.792,-0.553 0.632,-0.714 0.416,-0.714C0.2,-0.714 0.038,-0.551 0.038,-0.35L0.038,-0.348C0.038,-0.147 0.198,0.014 0.414,0.014ZM0.416,-0.161C0.31,-0.161 0.237,-0.249 0.237,-0.35L0.237,-0.352C0.237,-0.453 0.308,-0.539 0.414,-0.539C0.521,-0.539 0.594,-0.451 0.594,-0.35L0.594,-0.348C0.594,-0.247 0.523,-0.161 0.416,-0.161Z" style="fill-rule:nonzero;"/>
        </g>
        <g transform="matrix(170.667,0,0,170.667,569.437,105)">
            <path d="M0.377,0.013C0.576,0.013 0.705,-0.086 0.705,-0.312L0.705,-0.7L0.508,-0.7L0.508,-0.306C0.508,-0.208 0.457,-0.162 0.379,-0.162C0.301,-0.162 0.25,-0.21 0.25,-0.311L0.25,-0.7L0.053,-0.7L0.053,-0.307C0.053,-0.088 0.178,0.013 0.377,0.013Z" style="fill-rule:nonzero;"/>
        </g>
        <g transform="matrix(170.667,0,0,170.667,736.349,105)">
            <path d="M0.256,-0.7L0.062,-0.7L0.062,-0L0.595,-0L0.595,-0.17L0.256,-0.17L0.256,-0.7Z" style="fill-rule:nonzero;"/>
        </g>
        <g transform="matrix(170.667,0,0,170.667,872.2,105)">
            <path d="M0.414,0.014C0.63,0.014 0.792,-0.149 0.792,-0.35L0.792,-0.352C0.792,-0.553 0.632,-0.714 0.416,-0.714C0.2,-0.714 0.038,-0.551 0.038,-0.35L0.038,-0.348C0.038,-0.147 0.198,0.014 0.414,0.014ZM0.416,-0.161C0.31,-0.161 0.237,-0.249 0.237,-0.35L0.237,-0.352C0.237,-0.453 0.308,-0.539 0.414,-0.539C0.521,-0.539 0.594,-0.451 0.594,-0.35L0.594,-0.348C0.594,-0.247 0.523,-0.161 0.416,-0.161Z" style="fill-rule:nonzero;"/>
        </g>
        <g transform="matrix(170.667,0,0,170.667,1051.57,105)">
            <path d="M0.377,0.013C0.576,0.013 0.705,-0.086 0.705,-0.312L0.705,-0.7L0.508,-0.7L0.508,-0.306C0.508,-0.208 0.457,-0.162 0.379,-0.162C0.301,-0.162 0.25,-0.21 0.25,-0.311L0.25,-0.7L0.053,-0.7L0.053,-0.307C0.053,-0.088 0.178,0.013 0.377,0.013Z" style="fill-rule:nonzero;"/>
        </g>
        <g transform="matrix(170.667,0,0,170.667,1218.48,105)">
            <path d="M0.337,0.012C0.507,0.012 0.62,-0.073 0.62,-0.216L0.62,-0.218C0.62,-0.349 0.52,-0.401 0.359,-0.436C0.262,-0.458 0.238,-0.472 0.238,-0.504L0.238,-0.506C0.238,-0.531 0.261,-0.551 0.308,-0.551C0.37,-0.551 0.44,-0.527 0.504,-0.482L0.601,-0.619C0.525,-0.68 0.432,-0.712 0.313,-0.712C0.145,-0.712 0.042,-0.618 0.042,-0.488L0.042,-0.486C0.042,-0.342 0.157,-0.3 0.306,-0.266C0.401,-0.244 0.424,-0.228 0.424,-0.199L0.424,-0.197C0.424,-0.167 0.396,-0.149 0.344,-0.149C0.263,-0.149 0.186,-0.178 0.117,-0.233L0.009,-0.104C0.095,-0.027 0.213,0.012 0.337,0.012Z" style="fill-rule:nonzero;"/>
        </g>
        <g transform="matrix(170.667,0,0,170.667,1367.3,105)">
            <path d="M0.625,-0.7L0.062,-0.7L0.062,-0L0.63,-0L0.63,-0.165L0.254,-0.165L0.254,-0.276L0.59,-0.276L0.59,-0.429L0.254,-0.429L0.254,-0.535L0.625,-0.535L0.625,-0.7Z" style="fill-rule:nonzero;"/>
        </g>
    </g>
    <g transform="matrix(0.973565,0,0,0.973565,5.08156,-8.19246)">
        <path d="M1043,935L1173,935L1173,377C1173,375 1175,373 1177,373L1356,373C1390,373 1441,414 1441,481C1441,548 1392,590 1355,590L1228,590L1228,713L1355,713C1473,713 1573,627 1573,483C1573,347 1478,248 1356,249L1159,250C1085,250 1043,288 1043,362L1043,935ZM22,935L152,935L152,247L22,247L22,935ZM273,935L399,935L399,413L737,666L737,508L422,272C402,257 375,249 353,249C308,249 273,284 273,326L273,935Z" style="fill-rule:nonzero;"/>
    </g>
</svg>
