<?xml version="1.0" encoding="UTF-8" standalone="no"?>
<!DOCTYPE svg PUBLIC "-//W3C//DTD SVG 1.1//EN" "http://www.w3.org/Graphics/SVG/1.1/DTD/svg11.dtd">
<svg width="100%" height="100%" viewBox="0 0 1900 318" version="1.1" xmlns="http://www.w3.org/2000/svg" xmlns:xlink="http://www.w3.org/1999/xlink" xml:space="preserve" xmlns:serif="http://www.serif.com/" style="fill-rule:evenodd;clip-rule:evenodd;stroke-linecap:round;stroke-linejoin:round;stroke-miterlimit:1.5;">
    <g transform="matrix(1,0,0,1,-999.543,-2568.77)">
        <g>
            <g id="MIT" transform="matrix(0.767154,0,0,0.767154,2203.61,2506.86)">
                <g transform="matrix(1,0,0,1,-0.280435,0)">
                    <rect x="664.53" y="88.387" width="205.117" height="83.587" style="fill:rgb(194,192,191);stroke:rgb(194,192,191);stroke-width:1.3px;"/>
                </g>
                <g transform="matrix(0.414397,0,0,1,244.466,0)">
                    <rect x="664.53" y="88.387" width="205.117" height="83.587" style="fill:rgb(194,192,191);stroke:rgb(194,192,191);stroke-width:1.7px;"/>
                </g>
                <g transform="matrix(1.00924,0,0,1,-14.5432,0)">
                    <rect x="112.896" y="88.387" width="84.222" height="398.861" style="fill:rgb(194,192,191);stroke:rgb(194,192,191);stroke-width:1.3px;"/>
                </g>
                <g transform="matrix(1.00924,0,0,1,265.781,0)">
                    <rect x="112.896" y="88.387" width="84.222" height="398.861" style="fill:rgb(194,192,191);stroke:rgb(194,192,191);stroke-width:1.3px;"/>
                </g>
                <g transform="matrix(1.04378,0,0,1,-24.0571,0)">
                    <rect x="252.561" y="88.387" width="81.435" height="273.096" style="fill:rgb(194,192,191);stroke:rgb(194,192,191);stroke-width:1.28px;"/>
                </g>
                <g transform="matrix(1.04378,0,0,0.955709,260.478,141.776)">
                    <rect x="252.561" y="88.387" width="81.435" height="273.096" style="fill:white;"/>
                </g>
                <g transform="matrix(1.04378,0,0,0.955709,400.632,141.776)">
                    <rect x="252.561" y="88.387" width="81.435" height="273.096" style="fill:white;"/>
                </g>
            </g>
            <g transform="matrix(2.50996,0,0,2.50996,200.777,2107.89)">
                <g transform="matrix(41.4371,0,0,41.4371,329.55,216.345)">
                    <path d="M0.268,-0.733L0.13,-0.733L0.001,-0L0.139,-0L0.268,-0.733Z" style="fill:rgb(211,211,211);fill-rule:nonzero;"/>
                </g>
                <g transform="matrix(41.4371,0,0,41.4371,340.738,216.345)">
                    <path d="M0.521,-0.733L0.387,-0.733L0.323,-0.375L0.202,-0.735L0.13,-0.733L0.001,-0L0.135,-0L0.201,-0.371L0.32,0.002L0.391,-0L0.521,-0.733Z" style="fill:rgb(211,211,211);fill-rule:nonzero;"/>
                </g>
                <g transform="matrix(41.4371,0,0,41.4371,362.368,216.345)">
                    <path d="M0.456,-0.733L0.104,-0.733L0.082,-0.604L0.189,-0.604L0.082,-0L0.22,-0L0.327,-0.604L0.434,-0.604L0.456,-0.733Z" style="fill:rgb(211,211,211);fill-rule:nonzero;"/>
                </g>
                <g transform="matrix(41.4371,0,0,41.4371,380.269,216.345)">
                    <path d="M0.471,-0.542C0.471,-0.653 0.398,-0.74 0.254,-0.74C0.199,-0.74 0.157,-0.731 0.129,-0.725L0.001,-0L0.139,-0L0.185,-0.263C0.196,-0.262 0.199,-0.262 0.211,-0.262L0.224,-0.262L0.243,-0L0.386,-0L0.35,-0.304C0.427,-0.356 0.471,-0.451 0.471,-0.542ZM0.332,-0.532C0.332,-0.449 0.284,-0.375 0.212,-0.375C0.209,-0.375 0.205,-0.376 0.205,-0.376L0.247,-0.612C0.247,-0.612 0.253,-0.614 0.262,-0.614C0.305,-0.614 0.332,-0.583 0.332,-0.532Z" style="fill:rgb(211,211,211);fill-rule:nonzero;"/>
                </g>
                <g transform="matrix(41.4371,0,0,41.4371,400.656,216.345)">
                    <path d="M0.489,-0.491C0.489,-0.648 0.429,-0.744 0.311,-0.744C0.11,-0.744 0.032,-0.442 0.032,-0.242C0.032,-0.085 0.092,0.011 0.209,0.011C0.411,0.011 0.489,-0.291 0.489,-0.491ZM0.352,-0.523C0.352,-0.435 0.311,-0.11 0.217,-0.11C0.187,-0.11 0.169,-0.141 0.169,-0.21C0.169,-0.297 0.21,-0.623 0.304,-0.623C0.334,-0.623 0.352,-0.591 0.352,-0.523Z" style="fill:rgb(211,211,211);fill-rule:nonzero;"/>
                </g>
                <g transform="matrix(41.4371,0,0,41.4371,422.245,216.345)">
                    <path d="M0.126,0.007C0.367,0.007 0.482,-0.237 0.482,-0.451C0.482,-0.544 0.453,-0.621 0.401,-0.673C0.36,-0.714 0.299,-0.74 0.226,-0.74C0.194,-0.74 0.153,-0.734 0.129,-0.727L0.003,-0.008C0.035,0.001 0.076,0.007 0.126,0.007ZM0.298,-0.588C0.327,-0.559 0.34,-0.508 0.34,-0.449C0.34,-0.291 0.26,-0.135 0.16,-0.12L0.247,-0.612C0.264,-0.61 0.283,-0.604 0.298,-0.588Z" style="fill:rgb(211,211,211);fill-rule:nonzero;"/>
                </g>
                <g transform="matrix(41.4371,0,0,41.4371,443.502,216.345)">
                    <path d="M0.512,-0.733L0.374,-0.733L0.28,-0.195C0.272,-0.151 0.258,-0.114 0.215,-0.114C0.177,-0.114 0.168,-0.138 0.168,-0.16C0.168,-0.175 0.171,-0.188 0.172,-0.196L0.266,-0.733L0.128,-0.733L0.035,-0.201C0.032,-0.183 0.03,-0.16 0.03,-0.146C0.03,-0.035 0.107,0.011 0.203,0.011C0.318,0.011 0.394,-0.055 0.42,-0.204L0.512,-0.733Z" style="fill:rgb(211,211,211);fill-rule:nonzero;"/>
                </g>
                <g transform="matrix(41.4371,0,0,41.4371,464.718,216.345)">
                    <path d="M0.469,-0.699C0.429,-0.732 0.385,-0.744 0.341,-0.744C0.172,-0.744 0.038,-0.524 0.038,-0.268C0.038,-0.096 0.12,0.011 0.242,0.011C0.266,0.011 0.307,0.006 0.354,-0.024L0.324,-0.139C0.306,-0.127 0.287,-0.119 0.266,-0.119C0.211,-0.119 0.179,-0.174 0.179,-0.271C0.179,-0.45 0.258,-0.614 0.342,-0.614C0.369,-0.614 0.387,-0.599 0.402,-0.584L0.469,-0.699Z" style="fill:rgb(211,211,211);fill-rule:nonzero;"/>
                </g>
                <g transform="matrix(41.4371,0,0,41.4371,482.867,216.345)">
                    <path d="M0.456,-0.733L0.104,-0.733L0.082,-0.604L0.189,-0.604L0.082,-0L0.22,-0L0.327,-0.604L0.434,-0.604L0.456,-0.733Z" style="fill:rgb(211,211,211);fill-rule:nonzero;"/>
                </g>
                <g transform="matrix(41.4371,0,0,41.4371,500.768,216.345)">
                    <path d="M0.268,-0.733L0.13,-0.733L0.001,-0L0.139,-0L0.268,-0.733Z" style="fill:rgb(211,211,211);fill-rule:nonzero;"/>
                </g>
                <g transform="matrix(41.4371,0,0,41.4371,511.956,216.345)">
                    <path d="M0.489,-0.491C0.489,-0.648 0.429,-0.744 0.311,-0.744C0.11,-0.744 0.032,-0.442 0.032,-0.242C0.032,-0.085 0.092,0.011 0.209,0.011C0.411,0.011 0.489,-0.291 0.489,-0.491ZM0.352,-0.523C0.352,-0.435 0.311,-0.11 0.217,-0.11C0.187,-0.11 0.169,-0.141 0.169,-0.21C0.169,-0.297 0.21,-0.623 0.304,-0.623C0.334,-0.623 0.352,-0.591 0.352,-0.523Z" style="fill:rgb(211,211,211);fill-rule:nonzero;"/>
                </g>
                <g transform="matrix(41.4371,0,0,41.4371,533.545,216.345)">
                    <path d="M0.521,-0.733L0.387,-0.733L0.323,-0.375L0.202,-0.735L0.13,-0.733L0.001,-0L0.135,-0L0.201,-0.371L0.32,0.002L0.391,-0L0.521,-0.733Z" style="fill:rgb(211,211,211);fill-rule:nonzero;"/>
                </g>
                <g transform="matrix(41.4371,0,0,41.4371,562.965,216.345)">
                    <path d="M0.456,-0.733L0.104,-0.733L0.082,-0.604L0.189,-0.604L0.082,-0L0.22,-0L0.327,-0.604L0.434,-0.604L0.456,-0.733Z" style="fill:rgb(211,211,211);fill-rule:nonzero;"/>
                </g>
                <g transform="matrix(41.4371,0,0,41.4371,580.286,216.345)">
                    <path d="M0.489,-0.491C0.489,-0.648 0.429,-0.744 0.311,-0.744C0.11,-0.744 0.032,-0.442 0.032,-0.242C0.032,-0.085 0.092,0.011 0.209,0.011C0.411,0.011 0.489,-0.291 0.489,-0.491ZM0.352,-0.523C0.352,-0.435 0.311,-0.11 0.217,-0.11C0.187,-0.11 0.169,-0.141 0.169,-0.21C0.169,-0.297 0.21,-0.623 0.304,-0.623C0.334,-0.623 0.352,-0.591 0.352,-0.523Z" style="fill:rgb(211,211,211);fill-rule:nonzero;"/>
                </g>
                <g transform="matrix(42.7938,0,0,42.7938,346.116,261.982)">
                    <path d="M0.469,-0.699C0.429,-0.732 0.385,-0.744 0.341,-0.744C0.172,-0.744 0.038,-0.524 0.038,-0.268C0.038,-0.096 0.12,0.011 0.242,0.011C0.266,0.011 0.307,0.006 0.354,-0.024L0.324,-0.139C0.306,-0.127 0.287,-0.119 0.266,-0.119C0.211,-0.119 0.179,-0.174 0.179,-0.271C0.179,-0.45 0.258,-0.614 0.342,-0.614C0.369,-0.614 0.387,-0.599 0.402,-0.584L0.469,-0.699Z" style="fill:rgb(211,211,211);fill-rule:nonzero;"/>
                </g>
                <g transform="matrix(42.7938,0,0,42.7938,363.918,261.982)">
                    <path d="M0.489,-0.491C0.489,-0.648 0.429,-0.744 0.311,-0.744C0.11,-0.744 0.032,-0.442 0.032,-0.242C0.032,-0.085 0.092,0.011 0.209,0.011C0.411,0.011 0.489,-0.291 0.489,-0.491ZM0.352,-0.523C0.352,-0.435 0.311,-0.11 0.217,-0.11C0.187,-0.11 0.169,-0.141 0.169,-0.21C0.169,-0.297 0.21,-0.623 0.304,-0.623C0.334,-0.623 0.352,-0.591 0.352,-0.523Z" style="fill:rgb(211,211,211);fill-rule:nonzero;"/>
                </g>
                <g transform="matrix(42.7938,0,0,42.7938,386.214,261.982)">
                    <path d="M0.582,-0.733L0.507,-0.735L0.305,-0.369L0.211,-0.735L0.139,-0.733L-0.004,-0L0.128,-0L0.199,-0.363L0.251,-0.129L0.278,-0.129L0.409,-0.363L0.351,-0L0.484,-0L0.582,-0.733Z" style="fill:rgb(211,211,211);fill-rule:nonzero;"/>
                </g>
                <g transform="matrix(42.7938,0,0,42.7938,412.061,261.982)">
                    <path d="M0.466,-0.528C0.466,-0.645 0.39,-0.74 0.243,-0.74C0.202,-0.74 0.157,-0.732 0.129,-0.725L0.001,-0L0.139,-0L0.181,-0.238C0.187,-0.237 0.201,-0.237 0.207,-0.237C0.368,-0.237 0.466,-0.382 0.466,-0.528ZM0.326,-0.522C0.326,-0.43 0.279,-0.358 0.216,-0.358C0.209,-0.358 0.206,-0.359 0.203,-0.36L0.247,-0.612C0.25,-0.613 0.257,-0.614 0.261,-0.614C0.298,-0.614 0.326,-0.577 0.326,-0.522Z" style="fill:rgb(211,211,211);fill-rule:nonzero;"/>
                </g>
                <g transform="matrix(42.7938,0,0,42.7938,432.602,261.982)">
                    <path d="M0.512,-0.733L0.374,-0.733L0.28,-0.195C0.272,-0.151 0.258,-0.114 0.215,-0.114C0.177,-0.114 0.168,-0.138 0.168,-0.16C0.168,-0.175 0.171,-0.188 0.172,-0.196L0.266,-0.733L0.128,-0.733L0.035,-0.201C0.032,-0.183 0.03,-0.16 0.03,-0.146C0.03,-0.035 0.107,0.011 0.203,0.011C0.318,0.011 0.394,-0.055 0.42,-0.204L0.512,-0.733Z" style="fill:rgb(211,211,211);fill-rule:nonzero;"/>
                </g>
                <g transform="matrix(42.7938,0,0,42.7938,454.512,261.982)">
                    <path d="M0.456,-0.733L0.104,-0.733L0.082,-0.604L0.189,-0.604L0.082,-0L0.22,-0L0.327,-0.604L0.434,-0.604L0.456,-0.733Z" style="fill:rgb(211,211,211);fill-rule:nonzero;"/>
                </g>
                <g transform="matrix(42.7938,0,0,42.7938,470.475,261.982)">
                    <path d="M0.405,-0L0.369,-0.735L0.258,-0.735L-0.037,-0L0.096,-0L0.143,-0.122L0.265,-0.122L0.27,-0L0.405,-0ZM0.263,-0.244L0.189,-0.244L0.263,-0.458L0.263,-0.244Z" style="fill:rgb(211,211,211);fill-rule:nonzero;"/>
                </g>
                <g transform="matrix(42.7938,0,0,42.7938,489.047,261.982)">
                    <path d="M0.456,-0.733L0.104,-0.733L0.082,-0.604L0.189,-0.604L0.082,-0L0.22,-0L0.327,-0.604L0.434,-0.604L0.456,-0.733Z" style="fill:rgb(211,211,211);fill-rule:nonzero;"/>
                </g>
                <g transform="matrix(42.7938,0,0,42.7938,507.534,261.982)">
                    <path d="M0.268,-0.733L0.13,-0.733L0.001,-0L0.139,-0L0.268,-0.733Z" style="fill:rgb(211,211,211);fill-rule:nonzero;"/>
                </g>
                <g transform="matrix(42.7938,0,0,42.7938,519.088,261.982)">
                    <path d="M0.489,-0.491C0.489,-0.648 0.429,-0.744 0.311,-0.744C0.11,-0.744 0.032,-0.442 0.032,-0.242C0.032,-0.085 0.092,0.011 0.209,0.011C0.411,0.011 0.489,-0.291 0.489,-0.491ZM0.352,-0.523C0.352,-0.435 0.311,-0.11 0.217,-0.11C0.187,-0.11 0.169,-0.141 0.169,-0.21C0.169,-0.297 0.21,-0.623 0.304,-0.623C0.334,-0.623 0.352,-0.591 0.352,-0.523Z" style="fill:rgb(211,211,211);fill-rule:nonzero;"/>
                </g>
                <g transform="matrix(42.7938,0,0,42.7938,541.384,261.982)">
                    <path d="M0.521,-0.733L0.387,-0.733L0.323,-0.375L0.202,-0.735L0.13,-0.733L0.001,-0L0.135,-0L0.201,-0.371L0.32,0.002L0.391,-0L0.521,-0.733Z" style="fill:rgb(211,211,211);fill-rule:nonzero;"/>
                </g>
                <g transform="matrix(42.7938,0,0,42.7938,563.722,261.982)">
                    <path d="M0.405,-0L0.369,-0.735L0.258,-0.735L-0.037,-0L0.096,-0L0.143,-0.122L0.265,-0.122L0.27,-0L0.405,-0ZM0.263,-0.244L0.189,-0.244L0.263,-0.458L0.263,-0.244Z" style="fill:rgb(211,211,211);fill-rule:nonzero;"/>
                </g>
                <g transform="matrix(42.7938,0,0,42.7938,585.034,261.982)">
                    <path d="M0.314,-0.127L0.162,-0.127L0.269,-0.733L0.131,-0.733L0.002,-0L0.292,-0L0.314,-0.127Z" style="fill:rgb(211,211,211);fill-rule:nonzero;"/>
                </g>
                <g transform="matrix(41.4371,0,0,41.4371,456.141,307.62)">
                    <path d="M0.456,-0.733L0.104,-0.733L0.082,-0.604L0.189,-0.604L0.082,-0L0.22,-0L0.327,-0.604L0.434,-0.604L0.456,-0.733Z" style="fill:rgb(211,211,211);fill-rule:nonzero;"/>
                </g>
                <g transform="matrix(41.4371,0,0,41.4371,474.041,307.62)">
                    <path d="M0.521,-0.733L0.383,-0.733L0.331,-0.435L0.217,-0.435L0.269,-0.733L0.131,-0.733L0.002,-0L0.14,-0L0.194,-0.307L0.308,-0.307L0.254,-0L0.392,-0L0.521,-0.733Z" style="fill:rgb(211,211,211);fill-rule:nonzero;"/>
                </g>
                <g transform="matrix(41.4371,0,0,41.4371,495.672,307.62)">
                    <path d="M0.268,-0.733L0.13,-0.733L0.001,-0L0.139,-0L0.268,-0.733Z" style="fill:rgb(211,211,211);fill-rule:nonzero;"/>
                </g>
                <g transform="matrix(41.4371,0,0,41.4371,506.86,307.62)">
                    <path d="M0.521,-0.733L0.387,-0.733L0.323,-0.375L0.202,-0.735L0.13,-0.733L0.001,-0L0.135,-0L0.201,-0.371L0.32,0.002L0.391,-0L0.521,-0.733Z" style="fill:rgb(211,211,211);fill-rule:nonzero;"/>
                </g>
                <g transform="matrix(41.4371,0,0,41.4371,528.49,307.62)">
                    <path d="M0.529,-0.733L0.38,-0.733L0.21,-0.406L0.268,-0.733L0.13,-0.733L0.001,-0L0.139,-0L0.2,-0.349L0.259,-0L0.405,-0L0.324,-0.372L0.529,-0.733Z" style="fill:rgb(211,211,211);fill-rule:nonzero;"/>
                </g>
                <g transform="matrix(41.4371,0,0,41.4371,548.835,307.62)">
                    <path d="M0.268,-0.733L0.13,-0.733L0.001,-0L0.139,-0L0.268,-0.733Z" style="fill:rgb(211,211,211);fill-rule:nonzero;"/>
                </g>
                <g transform="matrix(41.4371,0,0,41.4371,560.023,307.62)">
                    <path d="M0.521,-0.733L0.387,-0.733L0.323,-0.375L0.202,-0.735L0.13,-0.733L0.001,-0L0.135,-0L0.201,-0.371L0.32,0.002L0.391,-0L0.521,-0.733Z" style="fill:rgb(211,211,211);fill-rule:nonzero;"/>
                </g>
                <g transform="matrix(41.4371,0,0,41.4371,581.653,307.62)">
                    <path d="M0.448,-0.428L0.26,-0.428L0.238,-0.303L0.3,-0.303L0.264,-0.112C0.259,-0.11 0.256,-0.109 0.251,-0.109C0.206,-0.109 0.177,-0.156 0.177,-0.254C0.177,-0.398 0.233,-0.614 0.337,-0.614C0.37,-0.614 0.399,-0.593 0.422,-0.569L0.481,-0.686C0.444,-0.719 0.396,-0.744 0.34,-0.744C0.145,-0.744 0.037,-0.487 0.037,-0.263C0.037,-0.081 0.119,0.011 0.234,0.011C0.284,0.011 0.33,-0.005 0.376,-0.036L0.448,-0.428Z" style="fill:rgb(211,211,211);fill-rule:nonzero;"/>
                </g>
            </g>
            <g transform="matrix(0.550536,0,0,0.550536,966.145,934.098)">
                <circle cx="1482.04" cy="3065.28" r="85.324" style="fill:rgb(202,59,51);"/>
            </g>
            <g transform="matrix(0.865691,0,0,0.844045,103.66,416.185)">
                <rect x="1938.8" y="2557.31" width="173.2" height="111.307" style="fill:rgb(202,59,51);"/>
            </g>
            <g transform="matrix(0.865691,0,0,0.844045,103.66,522.205)">
                <rect x="1938.8" y="2557.31" width="173.2" height="111.307" style="fill:rgb(148,87,177);"/>
            </g>
            <g transform="matrix(0.865691,0,0,0.844045,103.66,628.225)">
                <rect x="1938.8" y="2557.31" width="173.2" height="111.307" style="fill:rgb(56,151,37);"/>
            </g>
            <g transform="matrix(0.550536,0,0,0.550536,1116.08,934.098)">
                <circle cx="1482.04" cy="3065.28" r="85.324" style="fill:rgb(202,59,51);"/>
            </g>
            <g transform="matrix(0.550536,0,0,0.550536,966.145,1040.12)">
                <circle cx="1482.04" cy="3065.28" r="85.324" style="fill:rgb(148,87,177);"/>
            </g>
            <g transform="matrix(0.550536,0,0,0.550536,1116.08,1040.12)">
                <circle cx="1482.04" cy="3065.28" r="85.324" style="fill:rgb(148,87,177);"/>
            </g>
            <g transform="matrix(0.550536,0,0,0.550536,966.145,1146.14)">
                <circle cx="1482.04" cy="3065.28" r="85.324" style="fill:rgb(56,151,37);"/>
            </g>
            <g transform="matrix(0.550536,0,0,0.550536,1116.08,1146.14)">
                <circle cx="1482.04" cy="3065.28" r="85.324" style="fill:rgb(56,151,37);"/>
            </g>
        </g>
    </g>
</svg>
