<?xml version="1.0" encoding="UTF-8" standalone="no"?>
<!DOCTYPE svg PUBLIC "-//W3C//DTD SVG 1.1//EN" "http://www.w3.org/Graphics/SVG/1.1/DTD/svg11.dtd">
<svg width="100%" height="100%" viewBox="0 0 2160 335" version="1.1" xmlns="http://www.w3.org/2000/svg" xmlns:xlink="http://www.w3.org/1999/xlink" xml:space="preserve" xmlns:serif="http://www.serif.com/" style="fill-rule:evenodd;clip-rule:evenodd;stroke-linecap:round;stroke-linejoin:round;stroke-miterlimit:1.5;">
    <g transform="matrix(1,0,0,1,-716.752,-116.856)">
        <g id="MIT" transform="matrix(0.767154,0,0,0.767154,2203.61,51.6338)">
            <g transform="matrix(1,0,0,1,-0.280435,0)">
                <rect x="664.53" y="88.387" width="205.117" height="83.587" style="fill:rgb(194,192,191);stroke:rgb(194,192,191);stroke-width:1.3px;"/>
            </g>
            <g transform="matrix(0.414397,0,0,1,244.466,0)">
                <rect x="664.53" y="88.387" width="205.117" height="83.587" style="fill:rgb(194,192,191);stroke:rgb(194,192,191);stroke-width:1.7px;"/>
            </g>
            <g transform="matrix(1.00924,0,0,1,-14.5432,0)">
                <rect x="112.896" y="88.387" width="84.222" height="398.861" style="fill:rgb(194,192,191);stroke:rgb(194,192,191);stroke-width:1.3px;"/>
            </g>
            <g transform="matrix(1.00924,0,0,1,265.781,0)">
                <rect x="112.896" y="88.387" width="84.222" height="398.861" style="fill:rgb(194,192,191);stroke:rgb(194,192,191);stroke-width:1.3px;"/>
            </g>
            <g transform="matrix(1.04378,0,0,1,-24.0571,0)">
                <rect x="252.561" y="88.387" width="81.435" height="273.096" style="fill:rgb(194,192,191);stroke:rgb(194,192,191);stroke-width:1.28px;"/>
            </g>
            <g transform="matrix(1.04378,0,0,0.955709,260.478,141.776)">
                <rect x="252.561" y="88.387" width="81.435" height="273.096" style="fill:white;"/>
            </g>
            <g transform="matrix(1.04378,0,0,0.955709,400.632,141.776)">
                <rect x="252.561" y="88.387" width="81.435" height="273.096" style="fill:white;"/>
            </g>
        </g>
        <g transform="matrix(2.54768,0,0,2.54768,301.342,-354.355)">
            <g transform="matrix(42.2647,0,0,42.2647,325.118,215.557)">
                <rect x="0.05" y="-0.66" width="0.233" height="0.66" style="fill:rgb(211,211,211);fill-rule:nonzero;"/>
            </g>
            <g transform="matrix(42.2647,0,0,42.2647,340.248,215.557)">
                <path d="M0.425,-0.51C0.339,-0.51 0.28,-0.467 0.251,-0.391L0.246,-0.5L0.039,-0.5L0.039,-0L0.269,-0L0.269,-0.264C0.269,-0.318 0.283,-0.34 0.316,-0.34C0.34,-0.34 0.352,-0.327 0.352,-0.285L0.352,-0L0.582,-0L0.582,-0.342C0.582,-0.449 0.524,-0.51 0.425,-0.51Z" style="fill:rgb(211,211,211);fill-rule:nonzero;"/>
            </g>
            <g transform="matrix(42.2647,0,0,42.2647,367.509,215.557)">
                <path d="M0.433,-0.154C0.415,-0.145 0.397,-0.141 0.37,-0.141C0.329,-0.141 0.31,-0.158 0.31,-0.204L0.31,-0.345L0.436,-0.345L0.436,-0.5L0.31,-0.5L0.31,-0.67L0.08,-0.606L0.08,-0.5L0.003,-0.5L0.003,-0.345L0.08,-0.345L0.08,-0.168C0.08,-0.038 0.154,0.01 0.294,0.01C0.344,0.01 0.409,-0.003 0.443,-0.024L0.433,-0.154Z" style="fill:rgb(211,211,211);fill-rule:nonzero;"/>
            </g>
            <g transform="matrix(42.2647,0,0,42.2647,387.543,215.557)">
                <path d="M0.039,-0L0.269,-0L0.269,-0.24C0.269,-0.295 0.308,-0.323 0.368,-0.323C0.395,-0.323 0.419,-0.318 0.431,-0.313L0.45,-0.498C0.443,-0.503 0.428,-0.51 0.398,-0.51C0.319,-0.51 0.273,-0.457 0.251,-0.375L0.246,-0.5L0.039,-0.5L0.039,-0Z" style="fill:rgb(211,211,211);fill-rule:nonzero;"/>
            </g>
            <g transform="matrix(42.2647,0,0,42.2647,407.365,215.557)">
                <path d="M0.299,-0.51C0.132,-0.51 0.02,-0.415 0.02,-0.25C0.02,-0.085 0.132,0.01 0.299,0.01C0.466,0.01 0.578,-0.085 0.578,-0.25C0.578,-0.415 0.466,-0.51 0.299,-0.51ZM0.299,-0.355C0.33,-0.355 0.347,-0.334 0.347,-0.25C0.347,-0.166 0.33,-0.145 0.299,-0.145C0.268,-0.145 0.251,-0.166 0.251,-0.25C0.251,-0.334 0.268,-0.355 0.299,-0.355Z" style="fill:rgb(211,211,211);fill-rule:nonzero;"/>
            </g>
            <g transform="matrix(42.2647,0,0,42.2647,433.696,215.557)">
                <path d="M0.358,-0.7L0.358,-0.417C0.333,-0.473 0.287,-0.51 0.217,-0.51C0.095,-0.51 0.025,-0.414 0.025,-0.247C0.025,-0.084 0.093,0.01 0.216,0.01C0.292,0.01 0.346,-0.033 0.374,-0.099L0.381,-0L0.588,-0L0.588,-0.7L0.358,-0.7ZM0.309,-0.151C0.277,-0.151 0.257,-0.171 0.257,-0.25C0.257,-0.329 0.277,-0.348 0.309,-0.348C0.343,-0.348 0.358,-0.314 0.358,-0.25C0.358,-0.181 0.34,-0.151 0.309,-0.151Z" style="fill:rgb(211,211,211);fill-rule:nonzero;"/>
            </g>
            <g transform="matrix(42.2647,0,0,42.2647,461.252,215.557)">
                <path d="M0.2,0.01C0.282,0.01 0.34,-0.029 0.369,-0.106L0.374,-0L0.581,-0L0.581,-0.5L0.351,-0.5L0.351,-0.235C0.351,-0.183 0.336,-0.16 0.306,-0.16C0.28,-0.16 0.268,-0.176 0.268,-0.215L0.268,-0.5L0.038,-0.5L0.038,-0.162C0.038,-0.04 0.096,0.01 0.2,0.01Z" style="fill:rgb(211,211,211);fill-rule:nonzero;"/>
            </g>
            <g transform="matrix(42.2647,0,0,42.2647,488.513,215.557)">
                <path d="M0.297,-0.51C0.131,-0.51 0.02,-0.416 0.02,-0.25C0.02,-0.084 0.128,0.01 0.309,0.01C0.461,0.01 0.556,-0.063 0.559,-0.147L0.353,-0.211C0.35,-0.168 0.337,-0.145 0.308,-0.145C0.275,-0.145 0.251,-0.161 0.251,-0.247C0.251,-0.33 0.267,-0.355 0.307,-0.355C0.335,-0.355 0.351,-0.331 0.349,-0.278L0.561,-0.34C0.559,-0.421 0.481,-0.51 0.297,-0.51Z" style="fill:rgb(211,211,211);fill-rule:nonzero;"/>
            </g>
            <g transform="matrix(42.2647,0,0,42.2647,513.703,215.557)">
                <path d="M0.433,-0.154C0.415,-0.145 0.397,-0.141 0.37,-0.141C0.329,-0.141 0.31,-0.158 0.31,-0.204L0.31,-0.345L0.436,-0.345L0.436,-0.5L0.31,-0.5L0.31,-0.67L0.08,-0.606L0.08,-0.5L0.003,-0.5L0.003,-0.345L0.08,-0.345L0.08,-0.168C0.08,-0.038 0.154,0.01 0.294,0.01C0.344,0.01 0.409,-0.003 0.443,-0.024L0.433,-0.154Z" style="fill:rgb(211,211,211);fill-rule:nonzero;"/>
            </g>
            <g transform="matrix(42.2647,0,0,42.2647,533.736,215.557)">
                <path d="M0.154,-0.532C0.245,-0.532 0.279,-0.558 0.279,-0.628C0.279,-0.698 0.245,-0.724 0.154,-0.724C0.063,-0.724 0.029,-0.698 0.029,-0.628C0.029,-0.558 0.063,-0.532 0.154,-0.532ZM0.269,-0.5L0.039,-0.5L0.039,-0L0.269,-0L0.269,-0.5Z" style="fill:rgb(211,211,211);fill-rule:nonzero;"/>
            </g>
            <g transform="matrix(42.2647,0,0,42.2647,547.81,215.557)">
                <path d="M0.299,-0.51C0.132,-0.51 0.02,-0.415 0.02,-0.25C0.02,-0.085 0.132,0.01 0.299,0.01C0.466,0.01 0.578,-0.085 0.578,-0.25C0.578,-0.415 0.466,-0.51 0.299,-0.51ZM0.299,-0.355C0.33,-0.355 0.347,-0.334 0.347,-0.25C0.347,-0.166 0.33,-0.145 0.299,-0.145C0.268,-0.145 0.251,-0.166 0.251,-0.25C0.251,-0.334 0.268,-0.355 0.299,-0.355Z" style="fill:rgb(211,211,211);fill-rule:nonzero;"/>
            </g>
            <g transform="matrix(42.2647,0,0,42.2647,574.141,215.557)">
                <path d="M0.425,-0.51C0.339,-0.51 0.28,-0.467 0.251,-0.391L0.246,-0.5L0.039,-0.5L0.039,-0L0.269,-0L0.269,-0.264C0.269,-0.318 0.283,-0.34 0.316,-0.34C0.34,-0.34 0.352,-0.327 0.352,-0.285L0.352,-0L0.582,-0L0.582,-0.342C0.582,-0.449 0.524,-0.51 0.425,-0.51Z" style="fill:rgb(211,211,211);fill-rule:nonzero;"/>
            </g>
            <g transform="matrix(42.2647,0,0,42.2647,613.025,215.557)">
                <path d="M0.433,-0.154C0.415,-0.145 0.397,-0.141 0.37,-0.141C0.329,-0.141 0.31,-0.158 0.31,-0.204L0.31,-0.345L0.436,-0.345L0.436,-0.5L0.31,-0.5L0.31,-0.67L0.08,-0.606L0.08,-0.5L0.003,-0.5L0.003,-0.345L0.08,-0.345L0.08,-0.168C0.08,-0.038 0.154,0.01 0.294,0.01C0.344,0.01 0.409,-0.003 0.443,-0.024L0.433,-0.154Z" style="fill:rgb(211,211,211);fill-rule:nonzero;"/>
            </g>
            <g transform="matrix(42.2647,0,0,42.2647,633.058,215.557)">
                <path d="M0.299,-0.51C0.132,-0.51 0.02,-0.415 0.02,-0.25C0.02,-0.085 0.132,0.01 0.299,0.01C0.466,0.01 0.578,-0.085 0.578,-0.25C0.578,-0.415 0.466,-0.51 0.299,-0.51ZM0.299,-0.355C0.33,-0.355 0.347,-0.334 0.347,-0.25C0.347,-0.166 0.33,-0.145 0.299,-0.145C0.268,-0.145 0.251,-0.166 0.251,-0.25C0.251,-0.334 0.268,-0.355 0.299,-0.355Z" style="fill:rgb(211,211,211);fill-rule:nonzero;"/>
            </g>
            <g transform="matrix(43.5854,0,0,43.5854,325.118,261.329)">
                <path d="M0.67,-0.202L0.464,-0.255C0.456,-0.192 0.424,-0.165 0.376,-0.165C0.296,-0.165 0.267,-0.217 0.267,-0.33C0.267,-0.444 0.302,-0.495 0.371,-0.495C0.42,-0.495 0.454,-0.478 0.465,-0.392L0.665,-0.47C0.637,-0.611 0.51,-0.67 0.365,-0.67C0.156,-0.67 0.029,-0.546 0.029,-0.33C0.029,-0.114 0.156,0.01 0.365,0.01C0.516,0.01 0.633,-0.047 0.67,-0.202Z" style="fill:rgb(211,211,211);fill-rule:nonzero;"/>
            </g>
            <g transform="matrix(43.5854,0,0,43.5854,355.715,261.329)">
                <path d="M0.299,-0.51C0.132,-0.51 0.02,-0.415 0.02,-0.25C0.02,-0.085 0.132,0.01 0.299,0.01C0.466,0.01 0.578,-0.085 0.578,-0.25C0.578,-0.415 0.466,-0.51 0.299,-0.51ZM0.299,-0.355C0.33,-0.355 0.347,-0.334 0.347,-0.25C0.347,-0.166 0.33,-0.145 0.299,-0.145C0.268,-0.145 0.251,-0.166 0.251,-0.25C0.251,-0.334 0.268,-0.355 0.299,-0.355Z" style="fill:rgb(211,211,211);fill-rule:nonzero;"/>
            </g>
            <g transform="matrix(43.5854,0,0,43.5854,382.868,261.329)">
                <path d="M0.039,-0L0.269,-0L0.269,-0.262C0.269,-0.316 0.284,-0.34 0.317,-0.34C0.341,-0.34 0.352,-0.327 0.352,-0.282L0.352,-0L0.582,-0L0.582,-0.262C0.582,-0.316 0.597,-0.34 0.63,-0.34C0.654,-0.34 0.665,-0.327 0.665,-0.282L0.665,-0L0.891,-0L0.895,-0.342C0.896,-0.449 0.837,-0.51 0.738,-0.51C0.66,-0.51 0.604,-0.474 0.573,-0.41C0.552,-0.474 0.501,-0.51 0.425,-0.51C0.339,-0.51 0.28,-0.467 0.251,-0.391L0.246,-0.5L0.039,-0.5L0.039,-0Z" style="fill:rgb(211,211,211);fill-rule:nonzero;"/>
            </g>
            <g transform="matrix(43.5854,0,0,43.5854,424.623,261.329)">
                <path d="M0.411,-0.51C0.335,-0.51 0.281,-0.466 0.253,-0.4L0.248,-0.5L0.039,-0.5L0.039,0.21L0.269,0.21L0.269,-0.083C0.294,-0.027 0.34,0.01 0.41,0.01C0.532,0.01 0.602,-0.086 0.602,-0.253C0.602,-0.416 0.534,-0.51 0.411,-0.51ZM0.318,-0.152C0.284,-0.152 0.269,-0.186 0.269,-0.25C0.269,-0.319 0.287,-0.349 0.318,-0.349C0.35,-0.349 0.37,-0.329 0.37,-0.25C0.37,-0.171 0.35,-0.152 0.318,-0.152Z" style="fill:rgb(211,211,211);fill-rule:nonzero;"/>
            </g>
            <g transform="matrix(43.5854,0,0,43.5854,453.041,261.329)">
                <path d="M0.2,0.01C0.282,0.01 0.34,-0.029 0.369,-0.106L0.374,-0L0.581,-0L0.581,-0.5L0.351,-0.5L0.351,-0.235C0.351,-0.183 0.336,-0.16 0.306,-0.16C0.28,-0.16 0.268,-0.176 0.268,-0.215L0.268,-0.5L0.038,-0.5L0.038,-0.162C0.038,-0.04 0.096,0.01 0.2,0.01Z" style="fill:rgb(211,211,211);fill-rule:nonzero;"/>
            </g>
            <g transform="matrix(43.5854,0,0,43.5854,481.154,261.329)">
                <path d="M0.433,-0.154C0.415,-0.145 0.397,-0.141 0.37,-0.141C0.329,-0.141 0.31,-0.158 0.31,-0.204L0.31,-0.345L0.436,-0.345L0.436,-0.5L0.31,-0.5L0.31,-0.67L0.08,-0.606L0.08,-0.5L0.003,-0.5L0.003,-0.345L0.08,-0.345L0.08,-0.168C0.08,-0.038 0.154,0.01 0.294,0.01C0.344,0.01 0.409,-0.003 0.443,-0.024L0.433,-0.154Z" style="fill:rgb(211,211,211);fill-rule:nonzero;"/>
            </g>
            <g transform="matrix(43.5854,0,0,43.5854,502.423,261.329)">
                <path d="M0.577,-0.123C0.55,-0.123 0.538,-0.137 0.538,-0.164L0.538,-0.319C0.538,-0.433 0.456,-0.51 0.283,-0.51C0.118,-0.51 0.031,-0.44 0.022,-0.329L0.216,-0.301C0.219,-0.349 0.239,-0.361 0.267,-0.361C0.296,-0.361 0.31,-0.343 0.31,-0.312L0.31,-0.293L0.152,-0.26C0.064,-0.242 0.016,-0.196 0.016,-0.123C0.016,-0.04 0.074,0.01 0.18,0.01C0.254,0.01 0.314,-0.023 0.341,-0.071C0.36,-0.016 0.418,0.01 0.495,0.01C0.53,0.01 0.559,0.004 0.584,-0.008L0.594,-0.126C0.59,-0.124 0.584,-0.123 0.577,-0.123ZM0.27,-0.121C0.246,-0.121 0.232,-0.136 0.232,-0.157C0.232,-0.18 0.243,-0.195 0.271,-0.202L0.31,-0.211L0.31,-0.167C0.31,-0.137 0.292,-0.121 0.27,-0.121Z" style="fill:rgb(211,211,211);fill-rule:nonzero;"/>
            </g>
            <g transform="matrix(43.5854,0,0,43.5854,528.269,261.329)">
                <path d="M0.433,-0.154C0.415,-0.145 0.397,-0.141 0.37,-0.141C0.329,-0.141 0.31,-0.158 0.31,-0.204L0.31,-0.345L0.436,-0.345L0.436,-0.5L0.31,-0.5L0.31,-0.67L0.08,-0.606L0.08,-0.5L0.003,-0.5L0.003,-0.345L0.08,-0.345L0.08,-0.168C0.08,-0.038 0.154,0.01 0.294,0.01C0.344,0.01 0.409,-0.003 0.443,-0.024L0.433,-0.154Z" style="fill:rgb(211,211,211);fill-rule:nonzero;"/>
            </g>
            <g transform="matrix(43.5854,0,0,43.5854,548.929,261.329)">
                <path d="M0.154,-0.532C0.245,-0.532 0.279,-0.558 0.279,-0.628C0.279,-0.698 0.245,-0.724 0.154,-0.724C0.063,-0.724 0.029,-0.698 0.029,-0.628C0.029,-0.558 0.063,-0.532 0.154,-0.532ZM0.269,-0.5L0.039,-0.5L0.039,-0L0.269,-0L0.269,-0.5Z" style="fill:rgb(211,211,211);fill-rule:nonzero;"/>
            </g>
            <g transform="matrix(43.5854,0,0,43.5854,563.443,261.329)">
                <path d="M0.299,-0.51C0.132,-0.51 0.02,-0.415 0.02,-0.25C0.02,-0.085 0.132,0.01 0.299,0.01C0.466,0.01 0.578,-0.085 0.578,-0.25C0.578,-0.415 0.466,-0.51 0.299,-0.51ZM0.299,-0.355C0.33,-0.355 0.347,-0.334 0.347,-0.25C0.347,-0.166 0.33,-0.145 0.299,-0.145C0.268,-0.145 0.251,-0.166 0.251,-0.25C0.251,-0.334 0.268,-0.355 0.299,-0.355Z" style="fill:rgb(211,211,211);fill-rule:nonzero;"/>
            </g>
            <g transform="matrix(43.5854,0,0,43.5854,590.597,261.329)">
                <path d="M0.425,-0.51C0.339,-0.51 0.28,-0.467 0.251,-0.391L0.246,-0.5L0.039,-0.5L0.039,-0L0.269,-0L0.269,-0.264C0.269,-0.318 0.283,-0.34 0.316,-0.34C0.34,-0.34 0.352,-0.327 0.352,-0.285L0.352,-0L0.582,-0L0.582,-0.342C0.582,-0.449 0.524,-0.51 0.425,-0.51Z" style="fill:rgb(211,211,211);fill-rule:nonzero;"/>
            </g>
            <g transform="matrix(43.5854,0,0,43.5854,618.709,261.329)">
                <path d="M0.577,-0.123C0.55,-0.123 0.538,-0.137 0.538,-0.164L0.538,-0.319C0.538,-0.433 0.456,-0.51 0.283,-0.51C0.118,-0.51 0.031,-0.44 0.022,-0.329L0.216,-0.301C0.219,-0.349 0.239,-0.361 0.267,-0.361C0.296,-0.361 0.31,-0.343 0.31,-0.312L0.31,-0.293L0.152,-0.26C0.064,-0.242 0.016,-0.196 0.016,-0.123C0.016,-0.04 0.074,0.01 0.18,0.01C0.254,0.01 0.314,-0.023 0.341,-0.071C0.36,-0.016 0.418,0.01 0.495,0.01C0.53,0.01 0.559,0.004 0.584,-0.008L0.594,-0.126C0.59,-0.124 0.584,-0.123 0.577,-0.123ZM0.27,-0.121C0.246,-0.121 0.232,-0.136 0.232,-0.157C0.232,-0.18 0.243,-0.195 0.271,-0.202L0.31,-0.211L0.31,-0.167C0.31,-0.137 0.292,-0.121 0.27,-0.121Z" style="fill:rgb(211,211,211);fill-rule:nonzero;"/>
            </g>
            <g transform="matrix(43.5854,0,0,43.5854,645.427,261.329)">
                <path d="M0.269,-0.7L0.039,-0.7L0.039,-0.164C0.039,-0.039 0.088,0.01 0.212,0.01C0.257,0.01 0.311,-0.003 0.336,-0.022L0.346,-0.146C0.335,-0.143 0.325,-0.141 0.31,-0.141C0.279,-0.141 0.269,-0.159 0.269,-0.199L0.269,-0.7Z" style="fill:rgb(211,211,211);fill-rule:nonzero;"/>
            </g>
            <g transform="matrix(42.2647,0,0,42.2647,325.118,307.102)">
                <path d="M0.666,-0.66L0.02,-0.66L0.02,-0.489L0.227,-0.489L0.227,-0L0.46,-0L0.46,-0.489L0.666,-0.489L0.666,-0.66Z" style="fill:rgb(211,211,211);fill-rule:nonzero;"/>
            </g>
            <g transform="matrix(42.2647,0,0,42.2647,355.168,307.102)">
                <path d="M0.039,-0L0.269,-0L0.269,-0.262C0.269,-0.316 0.284,-0.341 0.317,-0.341C0.341,-0.341 0.352,-0.327 0.352,-0.282L0.352,-0L0.582,-0L0.582,-0.342C0.582,-0.449 0.524,-0.51 0.425,-0.51C0.349,-0.51 0.296,-0.47 0.269,-0.398L0.269,-0.7L0.039,-0.7L0.039,-0Z" style="fill:rgb(211,211,211);fill-rule:nonzero;"/>
            </g>
            <g transform="matrix(42.2647,0,0,42.2647,382.429,307.102)">
                <path d="M0.154,-0.532C0.245,-0.532 0.279,-0.558 0.279,-0.628C0.279,-0.698 0.245,-0.724 0.154,-0.724C0.063,-0.724 0.029,-0.698 0.029,-0.628C0.029,-0.558 0.063,-0.532 0.154,-0.532ZM0.269,-0.5L0.039,-0.5L0.039,-0L0.269,-0L0.269,-0.5Z" style="fill:rgb(211,211,211);fill-rule:nonzero;"/>
            </g>
            <g transform="matrix(42.2647,0,0,42.2647,396.503,307.102)">
                <path d="M0.425,-0.51C0.339,-0.51 0.28,-0.467 0.251,-0.391L0.246,-0.5L0.039,-0.5L0.039,-0L0.269,-0L0.269,-0.264C0.269,-0.318 0.283,-0.34 0.316,-0.34C0.34,-0.34 0.352,-0.327 0.352,-0.285L0.352,-0L0.582,-0L0.582,-0.342C0.582,-0.449 0.524,-0.51 0.425,-0.51Z" style="fill:rgb(211,211,211);fill-rule:nonzero;"/>
            </g>
            <g transform="matrix(42.2647,0,0,42.2647,423.763,307.102)">
                <path d="M0.423,-0L0.673,-0L0.484,-0.304L0.662,-0.5L0.415,-0.5L0.269,-0.323L0.269,-0.7L0.039,-0.7L0.039,-0L0.269,-0L0.269,-0.097L0.333,-0.175L0.423,-0Z" style="fill:rgb(211,211,211);fill-rule:nonzero;"/>
            </g>
            <g transform="matrix(42.2647,0,0,42.2647,452.63,307.102)">
                <path d="M0.154,-0.532C0.245,-0.532 0.279,-0.558 0.279,-0.628C0.279,-0.698 0.245,-0.724 0.154,-0.724C0.063,-0.724 0.029,-0.698 0.029,-0.628C0.029,-0.558 0.063,-0.532 0.154,-0.532ZM0.269,-0.5L0.039,-0.5L0.039,-0L0.269,-0L0.269,-0.5Z" style="fill:rgb(211,211,211);fill-rule:nonzero;"/>
            </g>
            <g transform="matrix(42.2647,0,0,42.2647,466.704,307.102)">
                <path d="M0.425,-0.51C0.339,-0.51 0.28,-0.467 0.251,-0.391L0.246,-0.5L0.039,-0.5L0.039,-0L0.269,-0L0.269,-0.264C0.269,-0.318 0.283,-0.34 0.316,-0.34C0.34,-0.34 0.352,-0.327 0.352,-0.285L0.352,-0L0.582,-0L0.582,-0.342C0.582,-0.449 0.524,-0.51 0.425,-0.51Z" style="fill:rgb(211,211,211);fill-rule:nonzero;"/>
            </g>
            <g transform="matrix(42.2647,0,0,42.2647,493.965,307.102)">
                <path d="M0.381,-0.142L0.213,-0.142C0.183,-0.142 0.172,-0.15 0.172,-0.163C0.172,-0.171 0.176,-0.176 0.186,-0.18C0.218,-0.173 0.256,-0.17 0.299,-0.17C0.474,-0.17 0.565,-0.225 0.565,-0.339C0.565,-0.407 0.533,-0.455 0.47,-0.482C0.482,-0.512 0.516,-0.535 0.577,-0.52L0.565,-0.662C0.449,-0.675 0.406,-0.587 0.398,-0.503C0.369,-0.508 0.336,-0.51 0.299,-0.51C0.124,-0.51 0.033,-0.454 0.033,-0.339C0.033,-0.277 0.06,-0.232 0.113,-0.205C0.063,-0.188 0.03,-0.152 0.03,-0.101C0.03,-0.048 0.055,-0.009 0.115,0.011C0.043,0.021 0.013,0.05 0.013,0.095C0.013,0.175 0.086,0.215 0.282,0.215C0.472,0.215 0.58,0.155 0.58,0.014C0.58,-0.09 0.51,-0.142 0.381,-0.142ZM0.299,-0.391C0.326,-0.391 0.341,-0.376 0.341,-0.34C0.341,-0.304 0.326,-0.289 0.299,-0.289C0.272,-0.289 0.257,-0.304 0.257,-0.34C0.257,-0.376 0.272,-0.391 0.299,-0.391ZM0.285,0.076C0.217,0.076 0.176,0.068 0.176,0.051C0.176,0.042 0.182,0.034 0.196,0.034L0.391,0.034C0.405,0.034 0.41,0.039 0.41,0.047C0.41,0.068 0.368,0.076 0.285,0.076Z" style="fill:rgb(211,211,211);fill-rule:nonzero;"/>
            </g>
        </g>
        <g transform="matrix(1.10055,0,0,1.10055,901.297,283.918)">
            <g transform="matrix(1,0,0,1,-162.5,-150)">
                <g id="surface91">
                    <path d="M150.898,225C150.898,266.422 117.32,300 75.898,300C34.477,300 0.898,266.422 0.898,225C0.898,183.578 34.477,150 75.898,150C117.32,150 150.898,183.578 150.898,225" style="fill:rgb(202,59,51);fill-rule:nonzero;"/>
                    <path d="M237.5,75C237.5,116.422 203.922,150 162.5,150C121.078,150 87.5,116.422 87.5,75C87.5,33.578 121.078,0 162.5,0C203.922,0 237.5,33.578 237.5,75" style="fill:rgb(56,151,37);fill-rule:nonzero;"/>
                    <path d="M324.102,225C324.102,266.422 290.523,300 249.102,300C207.68,300 174.102,266.422 174.102,225C174.102,183.578 207.68,150 249.102,150C290.523,150 324.102,183.578 324.102,225" style="fill:rgb(148,87,177);fill-rule:nonzero;"/>
                </g>
            </g>
        </g>
    </g>
</svg>
