<?xml version="1.0" encoding="UTF-8" standalone="no"?>
<!DOCTYPE svg PUBLIC "-//W3C//DTD SVG 1.1//EN" "http://www.w3.org/Graphics/SVG/1.1/DTD/svg11.dtd">
<svg width="100%" height="100%" viewBox="0 0 2000 347" version="1.1" xmlns="http://www.w3.org/2000/svg" xmlns:xlink="http://www.w3.org/1999/xlink" xml:space="preserve" xmlns:serif="http://www.serif.com/" style="fill-rule:evenodd;clip-rule:evenodd;stroke-linecap:round;stroke-linejoin:round;stroke-miterlimit:1.5;">
    <g transform="matrix(1,0,0,1,-886.172,-877.113)">
        <g id="MIT" transform="matrix(0.767154,0,0,0.767154,2203.61,821.346)">
            <g transform="matrix(1,0,0,1,-0.280435,0)">
                <rect x="664.53" y="88.387" width="205.117" height="83.587" style="fill:rgb(194,192,191);stroke:rgb(194,192,191);stroke-width:1.3px;"/>
            </g>
            <g transform="matrix(0.414397,0,0,1,244.466,0)">
                <rect x="664.53" y="88.387" width="205.117" height="83.587" style="fill:rgb(194,192,191);stroke:rgb(194,192,191);stroke-width:1.7px;"/>
            </g>
            <g transform="matrix(1.00924,0,0,1,-14.5432,0)">
                <rect x="112.896" y="88.387" width="84.222" height="398.861" style="fill:rgb(194,192,191);stroke:rgb(194,192,191);stroke-width:1.3px;"/>
            </g>
            <g transform="matrix(1.00924,0,0,1,265.781,0)">
                <rect x="112.896" y="88.387" width="84.222" height="398.861" style="fill:rgb(194,192,191);stroke:rgb(194,192,191);stroke-width:1.3px;"/>
            </g>
            <g transform="matrix(1.04378,0,0,1,-24.0571,0)">
                <rect x="252.561" y="88.387" width="81.435" height="273.096" style="fill:rgb(194,192,191);stroke:rgb(194,192,191);stroke-width:1.28px;"/>
            </g>
            <g transform="matrix(1.04378,0,0,0.955709,260.478,141.776)">
                <rect x="252.561" y="88.387" width="81.435" height="273.096" style="fill:white;"/>
            </g>
            <g transform="matrix(1.04378,0,0,0.955709,400.632,141.776)">
                <rect x="252.561" y="88.387" width="81.435" height="273.096" style="fill:white;"/>
            </g>
        </g>
        <g transform="matrix(2.54768,0,0,2.54768,518.066,405.937)">
            <g transform="matrix(48.4063,0,0,48.4063,325.118,221.453)">
                <path d="M0.268,-0.733L0.13,-0.733L0.001,-0L0.139,-0L0.268,-0.733Z" style="fill:rgb(211,211,211);fill-rule:nonzero;"/>
            </g>
            <g transform="matrix(48.4063,0,0,48.4063,337.171,221.453)">
                <path d="M0.39,-0.399C0.39,-0.452 0.361,-0.484 0.309,-0.484C0.259,-0.484 0.222,-0.457 0.184,-0.41L0.195,-0.473L0.076,-0.473L-0.007,-0L0.117,-0L0.179,-0.352C0.197,-0.365 0.215,-0.375 0.234,-0.375C0.252,-0.375 0.259,-0.365 0.259,-0.353C0.259,-0.35 0.259,-0.344 0.257,-0.334L0.198,-0L0.322,-0L0.387,-0.367C0.389,-0.378 0.39,-0.389 0.39,-0.399Z" style="fill:rgb(211,211,211);fill-rule:nonzero;"/>
            </g>
            <g transform="matrix(48.4063,0,0,48.4063,357.889,221.453)">
                <path d="M0.293,-0.473L0.219,-0.473L0.244,-0.61L0.114,-0.543L0.101,-0.475L0.046,-0.449L0.03,-0.366L0.081,-0.366L0.034,-0.111C0.032,-0.102 0.03,-0.08 0.03,-0.075C0.03,-0.017 0.061,0.007 0.126,0.007C0.139,0.007 0.177,0.002 0.203,-0.006L0.21,-0.108C0.203,-0.106 0.189,-0.103 0.179,-0.103C0.162,-0.103 0.156,-0.112 0.156,-0.124C0.156,-0.135 0.16,-0.156 0.161,-0.163L0.199,-0.366L0.273,-0.366L0.293,-0.473Z" style="fill:rgb(211,211,211);fill-rule:nonzero;"/>
            </g>
            <g transform="matrix(48.4063,0,0,48.4063,372.169,221.453)">
                <path d="M0.309,-0.484C0.272,-0.484 0.227,-0.466 0.18,-0.391L0.194,-0.473L0.075,-0.473L-0.008,-0L0.116,-0L0.174,-0.329C0.18,-0.336 0.195,-0.346 0.22,-0.346C0.235,-0.346 0.254,-0.342 0.274,-0.333L0.309,-0.484Z" style="fill:rgb(211,211,211);fill-rule:nonzero;"/>
            </g>
            <g transform="matrix(48.4063,0,0,48.4063,386.497,221.453)">
                <path d="M0.247,-0.313C0.247,-0.253 0.227,-0.141 0.192,-0.106C0.185,-0.099 0.176,-0.094 0.167,-0.094C0.142,-0.094 0.131,-0.117 0.131,-0.16C0.131,-0.22 0.151,-0.332 0.186,-0.367C0.193,-0.374 0.202,-0.379 0.211,-0.379C0.236,-0.379 0.247,-0.356 0.247,-0.313ZM0.365,-0.298C0.365,-0.414 0.312,-0.484 0.218,-0.484C0.171,-0.484 0.134,-0.465 0.103,-0.434C0.042,-0.373 0.013,-0.265 0.013,-0.175C0.013,-0.059 0.066,0.011 0.16,0.011C0.207,0.011 0.244,-0.008 0.275,-0.039C0.336,-0.1 0.365,-0.208 0.365,-0.298Z" style="fill:rgb(211,211,211);fill-rule:nonzero;"/>
            </g>
            <g transform="matrix(48.4063,0,0,48.4063,406.489,221.453)">
                <path d="M0.446,-0.733L0.322,-0.733L0.269,-0.439C0.25,-0.463 0.225,-0.48 0.191,-0.48C0.075,-0.48 0.013,-0.306 0.013,-0.152C0.013,-0.056 0.051,0.007 0.114,0.007C0.133,0.007 0.169,0.002 0.208,-0.044L0.2,-0L0.316,-0L0.446,-0.733ZM0.256,-0.367L0.211,-0.11C0.197,-0.103 0.184,-0.097 0.171,-0.097C0.157,-0.097 0.135,-0.103 0.135,-0.15C0.135,-0.216 0.16,-0.38 0.222,-0.38C0.237,-0.38 0.246,-0.375 0.256,-0.367Z" style="fill:rgb(211,211,211);fill-rule:nonzero;"/>
            </g>
            <g transform="matrix(48.4063,0,0,48.4063,427.11,221.453)">
                <path d="M0.402,-0.473L0.278,-0.473L0.216,-0.121C0.198,-0.108 0.18,-0.098 0.161,-0.098C0.143,-0.098 0.136,-0.108 0.136,-0.12C0.136,-0.123 0.136,-0.129 0.138,-0.139L0.197,-0.473L0.073,-0.473L0.008,-0.106C0.006,-0.095 0.005,-0.084 0.005,-0.074C0.005,-0.021 0.034,0.011 0.086,0.011C0.136,0.011 0.173,-0.016 0.211,-0.063L0.2,-0L0.319,-0L0.402,-0.473Z" style="fill:rgb(211,211,211);fill-rule:nonzero;"/>
            </g>
            <g transform="matrix(48.4063,0,0,48.4063,447.876,221.453)">
                <path d="M0.33,-0.449C0.31,-0.467 0.27,-0.484 0.228,-0.484C0.094,-0.484 0.015,-0.323 0.015,-0.173C0.015,-0.065 0.065,0.011 0.16,0.011C0.198,0.011 0.234,-0.004 0.258,-0.02L0.235,-0.113C0.22,-0.102 0.201,-0.099 0.193,-0.099C0.155,-0.099 0.135,-0.127 0.135,-0.182C0.135,-0.272 0.171,-0.374 0.23,-0.374C0.248,-0.374 0.262,-0.367 0.276,-0.354L0.33,-0.449Z" style="fill:rgb(211,211,211);fill-rule:nonzero;"/>
            </g>
            <g transform="matrix(48.4063,0,0,48.4063,464.431,221.453)">
                <path d="M0.293,-0.473L0.219,-0.473L0.244,-0.61L0.114,-0.543L0.101,-0.475L0.046,-0.449L0.03,-0.366L0.081,-0.366L0.034,-0.111C0.032,-0.102 0.03,-0.08 0.03,-0.075C0.03,-0.017 0.061,0.007 0.126,0.007C0.139,0.007 0.177,0.002 0.203,-0.006L0.21,-0.108C0.203,-0.106 0.189,-0.103 0.179,-0.103C0.162,-0.103 0.156,-0.112 0.156,-0.124C0.156,-0.135 0.16,-0.156 0.161,-0.163L0.199,-0.366L0.273,-0.366L0.293,-0.473Z" style="fill:rgb(211,211,211);fill-rule:nonzero;"/>
            </g>
            <g transform="matrix(48.4063,0,0,48.4063,478.711,221.453)">
                <path d="M0.236,-0.619C0.236,-0.655 0.212,-0.688 0.169,-0.688C0.123,-0.688 0.087,-0.65 0.087,-0.599C0.087,-0.563 0.111,-0.53 0.154,-0.53C0.2,-0.53 0.236,-0.568 0.236,-0.619ZM0.2,-0.473L0.076,-0.473L-0.007,-0L0.117,-0L0.2,-0.473Z" style="fill:rgb(211,211,211);fill-rule:nonzero;"/>
            </g>
            <g transform="matrix(48.4063,0,0,48.4063,489.651,221.453)">
                <path d="M0.247,-0.313C0.247,-0.253 0.227,-0.141 0.192,-0.106C0.185,-0.099 0.176,-0.094 0.167,-0.094C0.142,-0.094 0.131,-0.117 0.131,-0.16C0.131,-0.22 0.151,-0.332 0.186,-0.367C0.193,-0.374 0.202,-0.379 0.211,-0.379C0.236,-0.379 0.247,-0.356 0.247,-0.313ZM0.365,-0.298C0.365,-0.414 0.312,-0.484 0.218,-0.484C0.171,-0.484 0.134,-0.465 0.103,-0.434C0.042,-0.373 0.013,-0.265 0.013,-0.175C0.013,-0.059 0.066,0.011 0.16,0.011C0.207,0.011 0.244,-0.008 0.275,-0.039C0.336,-0.1 0.365,-0.208 0.365,-0.298Z" style="fill:rgb(211,211,211);fill-rule:nonzero;"/>
            </g>
            <g transform="matrix(48.4063,0,0,48.4063,509.643,221.453)">
                <path d="M0.39,-0.399C0.39,-0.452 0.361,-0.484 0.309,-0.484C0.259,-0.484 0.222,-0.457 0.184,-0.41L0.195,-0.473L0.076,-0.473L-0.007,-0L0.117,-0L0.179,-0.352C0.197,-0.365 0.215,-0.375 0.234,-0.375C0.252,-0.375 0.259,-0.365 0.259,-0.353C0.259,-0.35 0.259,-0.344 0.257,-0.334L0.198,-0L0.322,-0L0.387,-0.367C0.389,-0.378 0.39,-0.389 0.39,-0.399Z" style="fill:rgb(211,211,211);fill-rule:nonzero;"/>
            </g>
            <g transform="matrix(48.4063,0,0,48.4063,538.88,221.453)">
                <path d="M0.293,-0.473L0.219,-0.473L0.244,-0.61L0.114,-0.543L0.101,-0.475L0.046,-0.449L0.03,-0.366L0.081,-0.366L0.034,-0.111C0.032,-0.102 0.03,-0.08 0.03,-0.075C0.03,-0.017 0.061,0.007 0.126,0.007C0.139,0.007 0.177,0.002 0.203,-0.006L0.21,-0.108C0.203,-0.106 0.189,-0.103 0.179,-0.103C0.162,-0.103 0.156,-0.112 0.156,-0.124C0.156,-0.135 0.16,-0.156 0.161,-0.163L0.199,-0.366L0.273,-0.366L0.293,-0.473Z" style="fill:rgb(211,211,211);fill-rule:nonzero;"/>
            </g>
            <g transform="matrix(48.4063,0,0,48.4063,552.821,221.453)">
                <path d="M0.247,-0.313C0.247,-0.253 0.227,-0.141 0.192,-0.106C0.185,-0.099 0.176,-0.094 0.167,-0.094C0.142,-0.094 0.131,-0.117 0.131,-0.16C0.131,-0.22 0.151,-0.332 0.186,-0.367C0.193,-0.374 0.202,-0.379 0.211,-0.379C0.236,-0.379 0.247,-0.356 0.247,-0.313ZM0.365,-0.298C0.365,-0.414 0.312,-0.484 0.218,-0.484C0.171,-0.484 0.134,-0.465 0.103,-0.434C0.042,-0.373 0.013,-0.265 0.013,-0.175C0.013,-0.059 0.066,0.011 0.16,0.011C0.207,0.011 0.244,-0.008 0.275,-0.039C0.336,-0.1 0.365,-0.208 0.365,-0.298Z" style="fill:rgb(211,211,211);fill-rule:nonzero;"/>
            </g>
            <g transform="matrix(49.7271,0,0,49.7271,325.118,265.881)">
                <path d="M0.469,-0.699C0.429,-0.732 0.385,-0.744 0.341,-0.744C0.172,-0.744 0.038,-0.524 0.038,-0.268C0.038,-0.096 0.12,0.011 0.242,0.011C0.266,0.011 0.307,0.006 0.354,-0.024L0.324,-0.139C0.306,-0.127 0.287,-0.119 0.266,-0.119C0.211,-0.119 0.179,-0.174 0.179,-0.271C0.179,-0.45 0.258,-0.614 0.342,-0.614C0.369,-0.614 0.387,-0.599 0.402,-0.584L0.469,-0.699Z" style="fill:rgb(211,211,211);fill-rule:nonzero;"/>
            </g>
            <g transform="matrix(49.7271,0,0,49.7271,345.655,265.881)">
                <path d="M0.247,-0.313C0.247,-0.253 0.227,-0.141 0.192,-0.106C0.185,-0.099 0.176,-0.094 0.167,-0.094C0.142,-0.094 0.131,-0.117 0.131,-0.16C0.131,-0.22 0.151,-0.332 0.186,-0.367C0.193,-0.374 0.202,-0.379 0.211,-0.379C0.236,-0.379 0.247,-0.356 0.247,-0.313ZM0.365,-0.298C0.365,-0.414 0.312,-0.484 0.218,-0.484C0.171,-0.484 0.134,-0.465 0.103,-0.434C0.042,-0.373 0.013,-0.265 0.013,-0.175C0.013,-0.059 0.066,0.011 0.16,0.011C0.207,0.011 0.244,-0.008 0.275,-0.039C0.336,-0.1 0.365,-0.208 0.365,-0.298Z" style="fill:rgb(211,211,211);fill-rule:nonzero;"/>
            </g>
            <g transform="matrix(49.7271,0,0,49.7271,366.192,265.881)">
                <path d="M0.585,-0.399C0.585,-0.452 0.558,-0.484 0.506,-0.484C0.457,-0.484 0.423,-0.458 0.384,-0.41C0.38,-0.456 0.353,-0.484 0.306,-0.484C0.256,-0.484 0.222,-0.457 0.184,-0.41L0.195,-0.473L0.076,-0.473L-0.007,-0L0.117,-0L0.179,-0.352C0.197,-0.365 0.212,-0.375 0.231,-0.375C0.248,-0.375 0.255,-0.365 0.255,-0.353C0.255,-0.35 0.255,-0.344 0.253,-0.334L0.194,-0L0.316,-0L0.378,-0.351C0.391,-0.361 0.41,-0.375 0.431,-0.375C0.449,-0.375 0.454,-0.365 0.454,-0.353C0.454,-0.35 0.454,-0.344 0.452,-0.334L0.393,-0L0.517,-0L0.582,-0.367C0.584,-0.378 0.585,-0.389 0.585,-0.399Z" style="fill:rgb(211,211,211);fill-rule:nonzero;"/>
            </g>
            <g transform="matrix(49.7271,0,0,49.7271,397.172,265.881)">
                <path d="M0.378,-0.332C0.378,-0.433 0.332,-0.48 0.277,-0.48C0.25,-0.48 0.222,-0.472 0.183,-0.427L0.191,-0.473L0.076,-0.473L-0.041,0.187L0.083,0.187L0.122,-0.031C0.142,-0.01 0.167,0.007 0.202,0.007C0.317,0.007 0.378,-0.181 0.378,-0.332ZM0.255,-0.324C0.255,-0.257 0.232,-0.092 0.17,-0.092C0.155,-0.092 0.145,-0.097 0.135,-0.105L0.18,-0.363C0.194,-0.37 0.207,-0.376 0.22,-0.376C0.234,-0.376 0.255,-0.37 0.255,-0.324Z" style="fill:rgb(211,211,211);fill-rule:nonzero;"/>
            </g>
            <g transform="matrix(49.7271,0,0,49.7271,418.157,265.881)">
                <path d="M0.402,-0.473L0.278,-0.473L0.216,-0.121C0.198,-0.108 0.18,-0.098 0.161,-0.098C0.143,-0.098 0.136,-0.108 0.136,-0.12C0.136,-0.123 0.136,-0.129 0.138,-0.139L0.197,-0.473L0.073,-0.473L0.008,-0.106C0.006,-0.095 0.005,-0.084 0.005,-0.074C0.005,-0.021 0.034,0.011 0.086,0.011C0.136,0.011 0.173,-0.016 0.211,-0.063L0.2,-0L0.319,-0L0.402,-0.473Z" style="fill:rgb(211,211,211);fill-rule:nonzero;"/>
            </g>
            <g transform="matrix(49.7271,0,0,49.7271,439.49,265.881)">
                <path d="M0.293,-0.473L0.219,-0.473L0.244,-0.61L0.114,-0.543L0.101,-0.475L0.046,-0.449L0.03,-0.366L0.081,-0.366L0.034,-0.111C0.032,-0.102 0.03,-0.08 0.03,-0.075C0.03,-0.017 0.061,0.007 0.126,0.007C0.139,0.007 0.177,0.002 0.203,-0.006L0.21,-0.108C0.203,-0.106 0.189,-0.103 0.179,-0.103C0.162,-0.103 0.156,-0.112 0.156,-0.124C0.156,-0.135 0.16,-0.156 0.161,-0.163L0.199,-0.366L0.273,-0.366L0.293,-0.473Z" style="fill:rgb(211,211,211);fill-rule:nonzero;"/>
            </g>
            <g transform="matrix(49.7271,0,0,49.7271,454.159,265.881)">
                <path d="M0.343,-0.367C0.343,-0.446 0.285,-0.484 0.199,-0.484C0.165,-0.484 0.114,-0.472 0.084,-0.46L0.082,-0.358C0.089,-0.361 0.126,-0.374 0.155,-0.374C0.193,-0.374 0.217,-0.358 0.217,-0.329L0.215,-0.309L0.209,-0.272C0.19,-0.285 0.166,-0.3 0.132,-0.3C0.05,-0.3 -0.007,-0.212 -0.007,-0.116C-0.007,-0.041 0.03,0.007 0.083,0.007C0.125,0.007 0.152,-0.018 0.174,-0.047L0.166,-0L0.282,-0L0.34,-0.333C0.342,-0.345 0.343,-0.356 0.343,-0.367ZM0.198,-0.209L0.177,-0.095C0.168,-0.091 0.159,-0.088 0.147,-0.088C0.13,-0.088 0.114,-0.1 0.114,-0.134C0.114,-0.182 0.136,-0.223 0.165,-0.223C0.181,-0.223 0.193,-0.214 0.198,-0.209Z" style="fill:rgb(211,211,211);fill-rule:nonzero;"/>
            </g>
            <g transform="matrix(49.7271,0,0,49.7271,473.354,265.881)">
                <path d="M0.293,-0.473L0.219,-0.473L0.244,-0.61L0.114,-0.543L0.101,-0.475L0.046,-0.449L0.03,-0.366L0.081,-0.366L0.034,-0.111C0.032,-0.102 0.03,-0.08 0.03,-0.075C0.03,-0.017 0.061,0.007 0.126,0.007C0.139,0.007 0.177,0.002 0.203,-0.006L0.21,-0.108C0.203,-0.106 0.189,-0.103 0.179,-0.103C0.162,-0.103 0.156,-0.112 0.156,-0.124C0.156,-0.135 0.16,-0.156 0.161,-0.163L0.199,-0.366L0.273,-0.366L0.293,-0.473Z" style="fill:rgb(211,211,211);fill-rule:nonzero;"/>
            </g>
            <g transform="matrix(49.7271,0,0,49.7271,488.024,265.881)">
                <path d="M0.236,-0.619C0.236,-0.655 0.212,-0.688 0.169,-0.688C0.123,-0.688 0.087,-0.65 0.087,-0.599C0.087,-0.563 0.111,-0.53 0.154,-0.53C0.2,-0.53 0.236,-0.568 0.236,-0.619ZM0.2,-0.473L0.076,-0.473L-0.007,-0L0.117,-0L0.2,-0.473Z" style="fill:rgb(211,211,211);fill-rule:nonzero;"/>
            </g>
            <g transform="matrix(49.7271,0,0,49.7271,499.262,265.881)">
                <path d="M0.247,-0.313C0.247,-0.253 0.227,-0.141 0.192,-0.106C0.185,-0.099 0.176,-0.094 0.167,-0.094C0.142,-0.094 0.131,-0.117 0.131,-0.16C0.131,-0.22 0.151,-0.332 0.186,-0.367C0.193,-0.374 0.202,-0.379 0.211,-0.379C0.236,-0.379 0.247,-0.356 0.247,-0.313ZM0.365,-0.298C0.365,-0.414 0.312,-0.484 0.218,-0.484C0.171,-0.484 0.134,-0.465 0.103,-0.434C0.042,-0.373 0.013,-0.265 0.013,-0.175C0.013,-0.059 0.066,0.011 0.16,0.011C0.207,0.011 0.244,-0.008 0.275,-0.039C0.336,-0.1 0.365,-0.208 0.365,-0.298Z" style="fill:rgb(211,211,211);fill-rule:nonzero;"/>
            </g>
            <g transform="matrix(49.7271,0,0,49.7271,519.799,265.881)">
                <path d="M0.39,-0.399C0.39,-0.452 0.361,-0.484 0.309,-0.484C0.259,-0.484 0.222,-0.457 0.184,-0.41L0.195,-0.473L0.076,-0.473L-0.007,-0L0.117,-0L0.179,-0.352C0.197,-0.365 0.215,-0.375 0.234,-0.375C0.252,-0.375 0.259,-0.365 0.259,-0.353C0.259,-0.35 0.259,-0.344 0.257,-0.334L0.198,-0L0.322,-0L0.387,-0.367C0.389,-0.378 0.39,-0.389 0.39,-0.399Z" style="fill:rgb(211,211,211);fill-rule:nonzero;"/>
            </g>
            <g transform="matrix(49.7271,0,0,49.7271,541.082,265.881)">
                <path d="M0.343,-0.367C0.343,-0.446 0.285,-0.484 0.199,-0.484C0.165,-0.484 0.114,-0.472 0.084,-0.46L0.082,-0.358C0.089,-0.361 0.126,-0.374 0.155,-0.374C0.193,-0.374 0.217,-0.358 0.217,-0.329L0.215,-0.309L0.209,-0.272C0.19,-0.285 0.166,-0.3 0.132,-0.3C0.05,-0.3 -0.007,-0.212 -0.007,-0.116C-0.007,-0.041 0.03,0.007 0.083,0.007C0.125,0.007 0.152,-0.018 0.174,-0.047L0.166,-0L0.282,-0L0.34,-0.333C0.342,-0.345 0.343,-0.356 0.343,-0.367ZM0.198,-0.209L0.177,-0.095C0.168,-0.091 0.159,-0.088 0.147,-0.088C0.13,-0.088 0.114,-0.1 0.114,-0.134C0.114,-0.182 0.136,-0.223 0.165,-0.223C0.181,-0.223 0.193,-0.214 0.198,-0.209Z" style="fill:rgb(211,211,211);fill-rule:nonzero;"/>
            </g>
            <g transform="matrix(49.7271,0,0,49.7271,560.426,265.881)">
                <path d="M0.246,-0.733L0.122,-0.733L-0.008,-0L0.116,-0L0.246,-0.733Z" style="fill:rgb(211,211,211);fill-rule:nonzero;"/>
            </g>
            <g transform="matrix(48.4063,0,0,48.4063,325.118,310.309)">
                <path d="M0.456,-0.733L0.104,-0.733L0.082,-0.604L0.189,-0.604L0.082,-0L0.22,-0L0.327,-0.604L0.434,-0.604L0.456,-0.733Z" style="fill:rgb(211,211,211);fill-rule:nonzero;"/>
            </g>
            <g transform="matrix(48.4063,0,0,48.4063,345.448,310.309)">
                <path d="M0.39,-0.399C0.39,-0.452 0.361,-0.484 0.309,-0.484C0.259,-0.484 0.227,-0.457 0.189,-0.41L0.246,-0.733L0.122,-0.733L-0.007,-0L0.117,-0L0.179,-0.352C0.197,-0.365 0.215,-0.375 0.234,-0.375C0.252,-0.375 0.259,-0.365 0.259,-0.353C0.259,-0.35 0.259,-0.344 0.257,-0.334L0.198,-0L0.322,-0L0.387,-0.367C0.389,-0.378 0.39,-0.389 0.39,-0.399Z" style="fill:rgb(211,211,211);fill-rule:nonzero;"/>
            </g>
            <g transform="matrix(48.4063,0,0,48.4063,366.166,310.309)">
                <path d="M0.236,-0.619C0.236,-0.655 0.212,-0.688 0.169,-0.688C0.123,-0.688 0.087,-0.65 0.087,-0.599C0.087,-0.563 0.111,-0.53 0.154,-0.53C0.2,-0.53 0.236,-0.568 0.236,-0.619ZM0.2,-0.473L0.076,-0.473L-0.007,-0L0.117,-0L0.2,-0.473Z" style="fill:rgb(211,211,211);fill-rule:nonzero;"/>
            </g>
            <g transform="matrix(48.4063,0,0,48.4063,377.106,310.309)">
                <path d="M0.39,-0.399C0.39,-0.452 0.361,-0.484 0.309,-0.484C0.259,-0.484 0.222,-0.457 0.184,-0.41L0.195,-0.473L0.076,-0.473L-0.007,-0L0.117,-0L0.179,-0.352C0.197,-0.365 0.215,-0.375 0.234,-0.375C0.252,-0.375 0.259,-0.365 0.259,-0.353C0.259,-0.35 0.259,-0.344 0.257,-0.334L0.198,-0L0.322,-0L0.387,-0.367C0.389,-0.378 0.39,-0.389 0.39,-0.399Z" style="fill:rgb(211,211,211);fill-rule:nonzero;"/>
            </g>
            <g transform="matrix(48.4063,0,0,48.4063,397.824,310.309)">
                <path d="M0.404,-0.473L0.272,-0.473L0.162,-0.271L0.243,-0.733L0.121,-0.733L-0.008,-0L0.114,-0L0.153,-0.222L0.193,-0L0.318,-0L0.26,-0.244L0.404,-0.473Z" style="fill:rgb(211,211,211);fill-rule:nonzero;"/>
            </g>
            <g transform="matrix(48.4063,0,0,48.4063,417.09,310.309)">
                <path d="M0.236,-0.619C0.236,-0.655 0.212,-0.688 0.169,-0.688C0.123,-0.688 0.087,-0.65 0.087,-0.599C0.087,-0.563 0.111,-0.53 0.154,-0.53C0.2,-0.53 0.236,-0.568 0.236,-0.619ZM0.2,-0.473L0.076,-0.473L-0.007,-0L0.117,-0L0.2,-0.473Z" style="fill:rgb(211,211,211);fill-rule:nonzero;"/>
            </g>
            <g transform="matrix(48.4063,0,0,48.4063,428.03,310.309)">
                <path d="M0.39,-0.399C0.39,-0.452 0.361,-0.484 0.309,-0.484C0.259,-0.484 0.222,-0.457 0.184,-0.41L0.195,-0.473L0.076,-0.473L-0.007,-0L0.117,-0L0.179,-0.352C0.197,-0.365 0.215,-0.375 0.234,-0.375C0.252,-0.375 0.259,-0.365 0.259,-0.353C0.259,-0.35 0.259,-0.344 0.257,-0.334L0.198,-0L0.322,-0L0.387,-0.367C0.389,-0.378 0.39,-0.389 0.39,-0.399Z" style="fill:rgb(211,211,211);fill-rule:nonzero;"/>
            </g>
            <g transform="matrix(48.4063,0,0,48.4063,448.747,310.309)">
                <path d="M0.396,-0.473L0.279,-0.473L0.272,-0.432C0.252,-0.46 0.226,-0.48 0.189,-0.48C0.073,-0.48 0.011,-0.306 0.011,-0.152C0.011,-0.056 0.049,0.007 0.112,0.007C0.129,0.007 0.16,0.003 0.195,-0.032L0.182,0.041C0.176,0.079 0.157,0.093 0.123,0.093C0.096,0.093 0.063,0.083 0.041,0.076L0.021,0.173C0.055,0.184 0.1,0.197 0.142,0.197C0.232,0.197 0.284,0.167 0.304,0.055L0.396,-0.473ZM0.254,-0.367L0.209,-0.11C0.195,-0.103 0.182,-0.097 0.169,-0.097C0.155,-0.097 0.133,-0.103 0.133,-0.15C0.133,-0.216 0.158,-0.38 0.22,-0.38C0.235,-0.38 0.244,-0.375 0.254,-0.367Z" style="fill:rgb(211,211,211);fill-rule:nonzero;"/>
            </g>
        </g>
        <g transform="matrix(1.10055,0,0,1.10055,1080.14,1048.14)">
            <g transform="matrix(1,0,0,1,-162.5,-150)">
                <g id="surface91">
                    <path d="M150.898,225C150.898,266.422 117.32,300 75.898,300C34.477,300 0.898,266.422 0.898,225C0.898,183.578 34.477,150 75.898,150C117.32,150 150.898,183.578 150.898,225" style="fill:rgb(202,59,51);fill-rule:nonzero;"/>
                    <path d="M237.5,75C237.5,116.422 203.922,150 162.5,150C121.078,150 87.5,116.422 87.5,75C87.5,33.578 121.078,0 162.5,0C203.922,0 237.5,33.578 237.5,75" style="fill:rgb(56,151,37);fill-rule:nonzero;"/>
                    <path d="M324.102,225C324.102,266.422 290.523,300 249.102,300C207.68,300 174.102,266.422 174.102,225C174.102,183.578 207.68,150 249.102,150C290.523,150 324.102,183.578 324.102,225" style="fill:rgb(148,87,177);fill-rule:nonzero;"/>
                </g>
            </g>
        </g>
    </g>
</svg>
