<?xml version="1.0" encoding="UTF-8"?>
<svg xmlns="http://www.w3.org/2000/svg" xmlns:xlink="http://www.w3.org/1999/xlink" width="500pt" height="500pt" viewBox="0 0 500 500" version="1.1">
<defs>
<radialGradient id="radial0" gradientUnits="userSpaceOnUse" cx="0" cy="-288" fx="0" fy="-312" r="312" gradientTransform="matrix(1,0,0,1,250,485)">
<stop offset="0" style="stop-color:rgb(94.117647%,100%,100%);stop-opacity:1;"/>
<stop offset="1" style="stop-color:rgb(14.629301%,47.683326%,73.351993%);stop-opacity:1;"/>
</radialGradient>
</defs>
<g id="surface194">
<path style=" stroke:none;fill-rule:nonzero;fill:url(#radial0);" d="M 250 485 L 231.199219 484.261719 L 212.6875 482.046875 L 194.746094 478.367188 L 177.652344 473.253906 L 161.652344 466.730469 L 146.980469 458.839844 L 133.839844 449.632812 L 122.402344 439.164062 L 112.804688 427.496094 L 105.148438 414.707031 L 99.488281 400.867188 L 95.855469 386.070312 L 94.222656 370.398438 L 94.539062 353.957031 L 96.707031 336.84375 L 100.605469 319.164062 L 106.078125 301.027344 L 112.9375 282.542969 L 120.984375 263.832031 L 130 245 L 139.757812 226.167969 L 150.019531 207.457031 L 160.554688 188.972656 L 171.140625 170.835938 L 181.5625 153.15625 L 191.621094 136.042969 L 201.144531 119.601562 L 209.980469 103.929688 L 218.011719 89.132812 L 225.148438 75.292969 L 231.328125 62.503906 L 236.527344 50.835938 L 240.761719 40.367188 L 244.0625 31.160156 L 246.503906 23.269531 L 248.183594 16.746094 L 249.226562 11.632812 L 249.769531 7.953125 L 249.972656 5.738281 L 250 5 L 250.027344 5.738281 L 250.230469 7.953125 L 250.773438 11.632812 L 251.816406 16.746094 L 253.496094 23.269531 L 255.9375 31.160156 L 259.238281 40.367188 L 263.472656 50.835938 L 268.671875 62.503906 L 274.851562 75.292969 L 281.988281 89.132812 L 290.019531 103.929688 L 298.855469 119.601562 L 308.378906 136.042969 L 318.4375 153.15625 L 328.859375 170.835938 L 339.445312 188.972656 L 349.980469 207.457031 L 360.242188 226.167969 L 370 245 L 379.015625 263.832031 L 387.0625 282.542969 L 393.921875 301.027344 L 399.394531 319.164062 L 403.292969 336.84375 L 405.460938 353.957031 L 405.777344 370.398438 L 404.144531 386.070312 L 400.511719 400.867188 L 394.851562 414.707031 L 387.195312 427.496094 L 377.597656 439.164062 L 366.160156 449.632812 L 353.019531 458.839844 L 338.347656 466.730469 L 322.347656 473.253906 L 305.253906 478.367188 L 287.3125 482.046875 L 268.800781 484.261719 L 250 485 "/>
<path style="fill:none;stroke-width:3;stroke-linecap:butt;stroke-linejoin:bevel;stroke:rgb(22%,59.6%,14.9%);stroke-opacity:1;stroke-miterlimit:10;" d="M 250 206.363281 L 263.789062 215.453125 L 250 224.542969 L 236.210938 215.453125 L 222.421875 224.542969 L 208.632812 233.636719 L 222.421875 242.726562 L 236.210938 233.636719 L 250 242.726562 L 236.210938 251.816406 L 250 260.910156 L 263.789062 251.816406 L 277.578125 242.726562 L 263.789062 233.636719 L 277.578125 224.542969 L 291.367188 233.636719 L 305.15625 242.726562 L 291.367188 251.816406 L 305.15625 260.910156 L 318.945312 251.816406 L 332.730469 260.910156 L 346.519531 270 L 332.730469 279.089844 L 318.945312 270 L 305.15625 279.089844 L 318.945312 288.183594 L 305.15625 297.273438 L 291.367188 288.183594 L 277.578125 279.089844 L 291.367188 270 L 277.578125 260.910156 L 250 279.089844 L 236.210938 288.183594 L 250 297.273438 L 263.789062 288.183594 L 291.367188 306.363281 L 277.578125 315.457031 L 263.789062 306.363281 L 250 315.457031 L 263.789062 324.546875 L 250 333.636719 L 222.421875 315.457031 L 236.210938 306.363281 L 222.421875 297.273438 L 208.632812 306.363281 L 181.054688 288.183594 L 194.84375 279.089844 L 208.632812 288.183594 L 222.421875 279.089844 L 236.210938 270 L 222.421875 260.910156 L 208.632812 270 L 194.84375 260.910156 L 208.632812 251.816406 L 194.84375 242.726562 L 181.054688 251.816406 L 167.269531 260.910156 L 181.054688 270 L 167.269531 279.089844 L 153.480469 270 "/>
<path style=" stroke:none;fill-rule:nonzero;fill:rgb(22%,59.6%,14.9%);fill-opacity:1;" d="M 254 206.363281 C 254 211.695312 246 211.695312 246 206.363281 C 246 201.027344 254 201.027344 254 206.363281 "/>
<path style=" stroke:none;fill-rule:nonzero;fill:rgb(22%,59.6%,14.9%);fill-opacity:1;" d="M 267.789062 215.453125 C 267.789062 220.785156 259.789062 220.785156 259.789062 215.453125 C 259.789062 210.121094 267.789062 210.121094 267.789062 215.453125 "/>
<path style=" stroke:none;fill-rule:nonzero;fill:rgb(22%,59.6%,14.9%);fill-opacity:1;" d="M 254 224.542969 C 254 229.878906 246 229.878906 246 224.542969 C 246 219.210938 254 219.210938 254 224.542969 "/>
<path style=" stroke:none;fill-rule:nonzero;fill:rgb(22%,59.6%,14.9%);fill-opacity:1;" d="M 240.210938 215.453125 C 240.210938 220.785156 232.210938 220.785156 232.210938 215.453125 C 232.210938 210.121094 240.210938 210.121094 240.210938 215.453125 "/>
<path style=" stroke:none;fill-rule:nonzero;fill:rgb(22%,59.6%,14.9%);fill-opacity:1;" d="M 226.421875 224.542969 C 226.421875 229.878906 218.421875 229.878906 218.421875 224.542969 C 218.421875 219.210938 226.421875 219.210938 226.421875 224.542969 "/>
<path style=" stroke:none;fill-rule:nonzero;fill:rgb(22%,59.6%,14.9%);fill-opacity:1;" d="M 212.632812 233.636719 C 212.632812 238.96875 204.632812 238.96875 204.632812 233.636719 C 204.632812 228.300781 212.632812 228.300781 212.632812 233.636719 "/>
<path style=" stroke:none;fill-rule:nonzero;fill:rgb(22%,59.6%,14.9%);fill-opacity:1;" d="M 226.421875 242.726562 C 226.421875 248.058594 218.421875 248.058594 218.421875 242.726562 C 218.421875 237.394531 226.421875 237.394531 226.421875 242.726562 "/>
<path style=" stroke:none;fill-rule:nonzero;fill:rgb(22%,59.6%,14.9%);fill-opacity:1;" d="M 240.210938 233.636719 C 240.210938 238.96875 232.210938 238.96875 232.210938 233.636719 C 232.210938 228.300781 240.210938 228.300781 240.210938 233.636719 "/>
<path style=" stroke:none;fill-rule:nonzero;fill:rgb(22%,59.6%,14.9%);fill-opacity:1;" d="M 254 242.726562 C 254 248.058594 246 248.058594 246 242.726562 C 246 237.394531 254 237.394531 254 242.726562 "/>
<path style=" stroke:none;fill-rule:nonzero;fill:rgb(22%,59.6%,14.9%);fill-opacity:1;" d="M 240.210938 251.816406 C 240.210938 257.152344 232.210938 257.152344 232.210938 251.816406 C 232.210938 246.484375 240.210938 246.484375 240.210938 251.816406 "/>
<path style=" stroke:none;fill-rule:nonzero;fill:rgb(22%,59.6%,14.9%);fill-opacity:1;" d="M 254 260.910156 C 254 266.242188 246 266.242188 246 260.910156 C 246 255.574219 254 255.574219 254 260.910156 "/>
<path style=" stroke:none;fill-rule:nonzero;fill:rgb(22%,59.6%,14.9%);fill-opacity:1;" d="M 267.789062 251.816406 C 267.789062 257.152344 259.789062 257.152344 259.789062 251.816406 C 259.789062 246.484375 267.789062 246.484375 267.789062 251.816406 "/>
<path style=" stroke:none;fill-rule:nonzero;fill:rgb(22%,59.6%,14.9%);fill-opacity:1;" d="M 281.578125 242.726562 C 281.578125 248.058594 273.578125 248.058594 273.578125 242.726562 C 273.578125 237.394531 281.578125 237.394531 281.578125 242.726562 "/>
<path style=" stroke:none;fill-rule:nonzero;fill:rgb(22%,59.6%,14.9%);fill-opacity:1;" d="M 267.789062 233.636719 C 267.789062 238.96875 259.789062 238.96875 259.789062 233.636719 C 259.789062 228.300781 267.789062 228.300781 267.789062 233.636719 "/>
<path style=" stroke:none;fill-rule:nonzero;fill:rgb(22%,59.6%,14.9%);fill-opacity:1;" d="M 281.578125 224.542969 C 281.578125 229.878906 273.578125 229.878906 273.578125 224.542969 C 273.578125 219.210938 281.578125 219.210938 281.578125 224.542969 "/>
<path style=" stroke:none;fill-rule:nonzero;fill:rgb(22%,59.6%,14.9%);fill-opacity:1;" d="M 295.367188 233.636719 C 295.367188 238.96875 287.367188 238.96875 287.367188 233.636719 C 287.367188 228.300781 295.367188 228.300781 295.367188 233.636719 "/>
<path style=" stroke:none;fill-rule:nonzero;fill:rgb(22%,59.6%,14.9%);fill-opacity:1;" d="M 309.15625 242.726562 C 309.15625 248.058594 301.15625 248.058594 301.15625 242.726562 C 301.15625 237.394531 309.15625 237.394531 309.15625 242.726562 "/>
<path style=" stroke:none;fill-rule:nonzero;fill:rgb(22%,59.6%,14.9%);fill-opacity:1;" d="M 295.367188 251.816406 C 295.367188 257.152344 287.367188 257.152344 287.367188 251.816406 C 287.367188 246.484375 295.367188 246.484375 295.367188 251.816406 "/>
<path style=" stroke:none;fill-rule:nonzero;fill:rgb(22%,59.6%,14.9%);fill-opacity:1;" d="M 309.15625 260.910156 C 309.15625 266.242188 301.15625 266.242188 301.15625 260.910156 C 301.15625 255.574219 309.15625 255.574219 309.15625 260.910156 "/>
<path style=" stroke:none;fill-rule:nonzero;fill:rgb(22%,59.6%,14.9%);fill-opacity:1;" d="M 322.945312 251.816406 C 322.945312 257.152344 314.945312 257.152344 314.945312 251.816406 C 314.945312 246.484375 322.945312 246.484375 322.945312 251.816406 "/>
<path style=" stroke:none;fill-rule:nonzero;fill:rgb(22%,59.6%,14.9%);fill-opacity:1;" d="M 336.730469 260.910156 C 336.730469 266.242188 328.730469 266.242188 328.730469 260.910156 C 328.730469 255.574219 336.730469 255.574219 336.730469 260.910156 "/>
<path style=" stroke:none;fill-rule:nonzero;fill:rgb(22%,59.6%,14.9%);fill-opacity:1;" d="M 350.519531 270 C 350.519531 275.332031 342.519531 275.332031 342.519531 270 C 342.519531 264.667969 350.519531 264.667969 350.519531 270 "/>
<path style=" stroke:none;fill-rule:nonzero;fill:rgb(22%,59.6%,14.9%);fill-opacity:1;" d="M 336.730469 279.089844 C 336.730469 284.425781 328.730469 284.425781 328.730469 279.089844 C 328.730469 273.757812 336.730469 273.757812 336.730469 279.089844 "/>
<path style=" stroke:none;fill-rule:nonzero;fill:rgb(22%,59.6%,14.9%);fill-opacity:1;" d="M 322.945312 270 C 322.945312 275.332031 314.945312 275.332031 314.945312 270 C 314.945312 264.667969 322.945312 264.667969 322.945312 270 "/>
<path style=" stroke:none;fill-rule:nonzero;fill:rgb(22%,59.6%,14.9%);fill-opacity:1;" d="M 309.15625 279.089844 C 309.15625 284.425781 301.15625 284.425781 301.15625 279.089844 C 301.15625 273.757812 309.15625 273.757812 309.15625 279.089844 "/>
<path style=" stroke:none;fill-rule:nonzero;fill:rgb(22%,59.6%,14.9%);fill-opacity:1;" d="M 322.945312 288.183594 C 322.945312 293.515625 314.945312 293.515625 314.945312 288.183594 C 314.945312 282.847656 322.945312 282.847656 322.945312 288.183594 "/>
<path style=" stroke:none;fill-rule:nonzero;fill:rgb(22%,59.6%,14.9%);fill-opacity:1;" d="M 309.15625 297.273438 C 309.15625 302.605469 301.15625 302.605469 301.15625 297.273438 C 301.15625 291.941406 309.15625 291.941406 309.15625 297.273438 "/>
<path style=" stroke:none;fill-rule:nonzero;fill:rgb(22%,59.6%,14.9%);fill-opacity:1;" d="M 295.367188 288.183594 C 295.367188 293.515625 287.367188 293.515625 287.367188 288.183594 C 287.367188 282.847656 295.367188 282.847656 295.367188 288.183594 "/>
<path style=" stroke:none;fill-rule:nonzero;fill:rgb(22%,59.6%,14.9%);fill-opacity:1;" d="M 281.578125 279.089844 C 281.578125 284.425781 273.578125 284.425781 273.578125 279.089844 C 273.578125 273.757812 281.578125 273.757812 281.578125 279.089844 "/>
<path style=" stroke:none;fill-rule:nonzero;fill:rgb(22%,59.6%,14.9%);fill-opacity:1;" d="M 295.367188 270 C 295.367188 275.332031 287.367188 275.332031 287.367188 270 C 287.367188 264.667969 295.367188 264.667969 295.367188 270 "/>
<path style=" stroke:none;fill-rule:nonzero;fill:rgb(22%,59.6%,14.9%);fill-opacity:1;" d="M 281.578125 260.910156 C 281.578125 266.242188 273.578125 266.242188 273.578125 260.910156 C 273.578125 255.574219 281.578125 255.574219 281.578125 260.910156 "/>
<path style=" stroke:none;fill-rule:nonzero;fill:rgb(22%,59.6%,14.9%);fill-opacity:1;" d="M 267.789062 270 C 267.789062 275.332031 259.789062 275.332031 259.789062 270 C 259.789062 264.667969 267.789062 264.667969 267.789062 270 "/>
<path style=" stroke:none;fill-rule:nonzero;fill:rgb(22%,59.6%,14.9%);fill-opacity:1;" d="M 254 279.089844 C 254 284.425781 246 284.425781 246 279.089844 C 246 273.757812 254 273.757812 254 279.089844 "/>
<path style=" stroke:none;fill-rule:nonzero;fill:rgb(22%,59.6%,14.9%);fill-opacity:1;" d="M 240.210938 288.183594 C 240.210938 293.515625 232.210938 293.515625 232.210938 288.183594 C 232.210938 282.847656 240.210938 282.847656 240.210938 288.183594 "/>
<path style=" stroke:none;fill-rule:nonzero;fill:rgb(22%,59.6%,14.9%);fill-opacity:1;" d="M 254 297.273438 C 254 302.605469 246 302.605469 246 297.273438 C 246 291.941406 254 291.941406 254 297.273438 "/>
<path style=" stroke:none;fill-rule:nonzero;fill:rgb(22%,59.6%,14.9%);fill-opacity:1;" d="M 267.789062 288.183594 C 267.789062 293.515625 259.789062 293.515625 259.789062 288.183594 C 259.789062 282.847656 267.789062 282.847656 267.789062 288.183594 "/>
<path style=" stroke:none;fill-rule:nonzero;fill:rgb(22%,59.6%,14.9%);fill-opacity:1;" d="M 281.578125 297.273438 C 281.578125 302.605469 273.578125 302.605469 273.578125 297.273438 C 273.578125 291.941406 281.578125 291.941406 281.578125 297.273438 "/>
<path style=" stroke:none;fill-rule:nonzero;fill:rgb(22%,59.6%,14.9%);fill-opacity:1;" d="M 295.367188 306.363281 C 295.367188 311.699219 287.367188 311.699219 287.367188 306.363281 C 287.367188 301.03125 295.367188 301.03125 295.367188 306.363281 "/>
<path style=" stroke:none;fill-rule:nonzero;fill:rgb(22%,59.6%,14.9%);fill-opacity:1;" d="M 281.578125 315.457031 C 281.578125 320.789062 273.578125 320.789062 273.578125 315.457031 C 273.578125 310.121094 281.578125 310.121094 281.578125 315.457031 "/>
<path style=" stroke:none;fill-rule:nonzero;fill:rgb(22%,59.6%,14.9%);fill-opacity:1;" d="M 267.789062 306.363281 C 267.789062 311.699219 259.789062 311.699219 259.789062 306.363281 C 259.789062 301.03125 267.789062 301.03125 267.789062 306.363281 "/>
<path style=" stroke:none;fill-rule:nonzero;fill:rgb(22%,59.6%,14.9%);fill-opacity:1;" d="M 254 315.457031 C 254 320.789062 246 320.789062 246 315.457031 C 246 310.121094 254 310.121094 254 315.457031 "/>
<path style=" stroke:none;fill-rule:nonzero;fill:rgb(22%,59.6%,14.9%);fill-opacity:1;" d="M 267.789062 324.546875 C 267.789062 329.878906 259.789062 329.878906 259.789062 324.546875 C 259.789062 319.214844 267.789062 319.214844 267.789062 324.546875 "/>
<path style=" stroke:none;fill-rule:nonzero;fill:rgb(22%,59.6%,14.9%);fill-opacity:1;" d="M 254 333.636719 C 254 338.972656 246 338.972656 246 333.636719 C 246 328.304688 254 328.304688 254 333.636719 "/>
<path style=" stroke:none;fill-rule:nonzero;fill:rgb(22%,59.6%,14.9%);fill-opacity:1;" d="M 240.210938 324.546875 C 240.210938 329.878906 232.210938 329.878906 232.210938 324.546875 C 232.210938 319.214844 240.210938 319.214844 240.210938 324.546875 "/>
<path style=" stroke:none;fill-rule:nonzero;fill:rgb(22%,59.6%,14.9%);fill-opacity:1;" d="M 226.421875 315.457031 C 226.421875 320.789062 218.421875 320.789062 218.421875 315.457031 C 218.421875 310.121094 226.421875 310.121094 226.421875 315.457031 "/>
<path style=" stroke:none;fill-rule:nonzero;fill:rgb(22%,59.6%,14.9%);fill-opacity:1;" d="M 240.210938 306.363281 C 240.210938 311.699219 232.210938 311.699219 232.210938 306.363281 C 232.210938 301.03125 240.210938 301.03125 240.210938 306.363281 "/>
<path style=" stroke:none;fill-rule:nonzero;fill:rgb(22%,59.6%,14.9%);fill-opacity:1;" d="M 226.421875 297.273438 C 226.421875 302.605469 218.421875 302.605469 218.421875 297.273438 C 218.421875 291.941406 226.421875 291.941406 226.421875 297.273438 "/>
<path style=" stroke:none;fill-rule:nonzero;fill:rgb(22%,59.6%,14.9%);fill-opacity:1;" d="M 212.632812 306.363281 C 212.632812 311.699219 204.632812 311.699219 204.632812 306.363281 C 204.632812 301.03125 212.632812 301.03125 212.632812 306.363281 "/>
<path style=" stroke:none;fill-rule:nonzero;fill:rgb(22%,59.6%,14.9%);fill-opacity:1;" d="M 198.84375 297.273438 C 198.84375 302.605469 190.84375 302.605469 190.84375 297.273438 C 190.84375 291.941406 198.84375 291.941406 198.84375 297.273438 "/>
<path style=" stroke:none;fill-rule:nonzero;fill:rgb(22%,59.6%,14.9%);fill-opacity:1;" d="M 185.054688 288.183594 C 185.054688 293.515625 177.054688 293.515625 177.054688 288.183594 C 177.054688 282.847656 185.054688 282.847656 185.054688 288.183594 "/>
<path style=" stroke:none;fill-rule:nonzero;fill:rgb(22%,59.6%,14.9%);fill-opacity:1;" d="M 198.84375 279.089844 C 198.84375 284.425781 190.84375 284.425781 190.84375 279.089844 C 190.84375 273.757812 198.84375 273.757812 198.84375 279.089844 "/>
<path style=" stroke:none;fill-rule:nonzero;fill:rgb(22%,59.6%,14.9%);fill-opacity:1;" d="M 212.632812 288.183594 C 212.632812 293.515625 204.632812 293.515625 204.632812 288.183594 C 204.632812 282.847656 212.632812 282.847656 212.632812 288.183594 "/>
<path style=" stroke:none;fill-rule:nonzero;fill:rgb(22%,59.6%,14.9%);fill-opacity:1;" d="M 226.421875 279.089844 C 226.421875 284.425781 218.421875 284.425781 218.421875 279.089844 C 218.421875 273.757812 226.421875 273.757812 226.421875 279.089844 "/>
<path style=" stroke:none;fill-rule:nonzero;fill:rgb(22%,59.6%,14.9%);fill-opacity:1;" d="M 240.210938 270 C 240.210938 275.332031 232.210938 275.332031 232.210938 270 C 232.210938 264.667969 240.210938 264.667969 240.210938 270 "/>
<path style=" stroke:none;fill-rule:nonzero;fill:rgb(22%,59.6%,14.9%);fill-opacity:1;" d="M 226.421875 260.910156 C 226.421875 266.242188 218.421875 266.242188 218.421875 260.910156 C 218.421875 255.574219 226.421875 255.574219 226.421875 260.910156 "/>
<path style=" stroke:none;fill-rule:nonzero;fill:rgb(22%,59.6%,14.9%);fill-opacity:1;" d="M 212.632812 270 C 212.632812 275.332031 204.632812 275.332031 204.632812 270 C 204.632812 264.667969 212.632812 264.667969 212.632812 270 "/>
<path style=" stroke:none;fill-rule:nonzero;fill:rgb(22%,59.6%,14.9%);fill-opacity:1;" d="M 198.84375 260.910156 C 198.84375 266.242188 190.84375 266.242188 190.84375 260.910156 C 190.84375 255.574219 198.84375 255.574219 198.84375 260.910156 "/>
<path style=" stroke:none;fill-rule:nonzero;fill:rgb(22%,59.6%,14.9%);fill-opacity:1;" d="M 212.632812 251.816406 C 212.632812 257.152344 204.632812 257.152344 204.632812 251.816406 C 204.632812 246.484375 212.632812 246.484375 212.632812 251.816406 "/>
<path style=" stroke:none;fill-rule:nonzero;fill:rgb(22%,59.6%,14.9%);fill-opacity:1;" d="M 198.84375 242.726562 C 198.84375 248.058594 190.84375 248.058594 190.84375 242.726562 C 190.84375 237.394531 198.84375 237.394531 198.84375 242.726562 "/>
<path style=" stroke:none;fill-rule:nonzero;fill:rgb(22%,59.6%,14.9%);fill-opacity:1;" d="M 185.054688 251.816406 C 185.054688 257.152344 177.054688 257.152344 177.054688 251.816406 C 177.054688 246.484375 185.054688 246.484375 185.054688 251.816406 "/>
<path style=" stroke:none;fill-rule:nonzero;fill:rgb(22%,59.6%,14.9%);fill-opacity:1;" d="M 171.269531 260.910156 C 171.269531 266.242188 163.269531 266.242188 163.269531 260.910156 C 163.269531 255.574219 171.269531 255.574219 171.269531 260.910156 "/>
<path style=" stroke:none;fill-rule:nonzero;fill:rgb(22%,59.6%,14.9%);fill-opacity:1;" d="M 185.054688 270 C 185.054688 275.332031 177.054688 275.332031 177.054688 270 C 177.054688 264.667969 185.054688 264.667969 185.054688 270 "/>
<path style=" stroke:none;fill-rule:nonzero;fill:rgb(22%,59.6%,14.9%);fill-opacity:1;" d="M 171.269531 279.089844 C 171.269531 284.425781 163.269531 284.425781 163.269531 279.089844 C 163.269531 273.757812 171.269531 273.757812 171.269531 279.089844 "/>
<path style=" stroke:none;fill-rule:nonzero;fill:rgb(22%,59.6%,14.9%);fill-opacity:1;" d="M 157.480469 270 C 157.480469 275.332031 149.480469 275.332031 149.480469 270 C 149.480469 264.667969 157.480469 264.667969 157.480469 270 "/>
<path style="fill:none;stroke-width:3;stroke-linecap:butt;stroke-linejoin:bevel;stroke:rgb(58.4%,34.5%,69.8%);stroke-opacity:1;stroke-miterlimit:10;" d="M 353.261719 411.820312 L 339.472656 420.910156 L 339.472656 402.726562 L 353.261719 393.636719 L 353.261719 357.273438 L 339.472656 366.363281 L 339.472656 384.546875 L 325.683594 393.636719 L 325.683594 375.453125 L 311.894531 384.546875 L 311.894531 420.910156 L 325.683594 411.820312 L 325.683594 430 L 311.894531 439.09375 L 298.105469 448.183594 L 298.105469 430 L 284.316406 439.09375 L 284.316406 457.273438 L 270.527344 466.367188 L 256.738281 475.457031 L 256.738281 457.273438 L 270.527344 448.183594 L 270.527344 430 L 256.738281 439.09375 L 256.738281 420.910156 L 270.527344 411.820312 L 284.316406 402.726562 L 284.316406 420.910156 L 298.105469 411.820312 L 298.105469 357.273438 L 284.316406 366.363281 L 284.316406 384.546875 L 256.738281 402.726562 L 256.738281 384.546875 L 270.527344 375.453125 L 270.527344 357.273438 L 256.738281 366.363281 L 256.738281 348.179688 L 284.316406 330 L 284.316406 348.179688 L 298.105469 339.089844 L 298.105469 320.90625 L 325.683594 302.726562 L 325.683594 320.90625 L 311.894531 330 L 311.894531 366.363281 L 325.683594 357.273438 L 325.683594 339.089844 L 339.472656 330 L 339.472656 348.179688 L 353.261719 339.089844 L 353.261719 302.726562 L 339.472656 311.816406 L 339.472656 293.632812 L 353.261719 284.542969 "/>
<path style=" stroke:none;fill-rule:nonzero;fill:rgb(58.4%,34.5%,69.8%);fill-opacity:1;" d="M 357.261719 411.820312 C 357.261719 417.152344 349.261719 417.152344 349.261719 411.820312 C 349.261719 406.484375 357.261719 406.484375 357.261719 411.820312 "/>
<path style=" stroke:none;fill-rule:nonzero;fill:rgb(58.4%,34.5%,69.8%);fill-opacity:1;" d="M 343.472656 420.910156 C 343.472656 426.242188 335.472656 426.242188 335.472656 420.910156 C 335.472656 415.578125 343.472656 415.578125 343.472656 420.910156 "/>
<path style=" stroke:none;fill-rule:nonzero;fill:rgb(58.4%,34.5%,69.8%);fill-opacity:1;" d="M 343.472656 402.726562 C 343.472656 408.0625 335.472656 408.0625 335.472656 402.726562 C 335.472656 397.394531 343.472656 397.394531 343.472656 402.726562 "/>
<path style=" stroke:none;fill-rule:nonzero;fill:rgb(58.4%,34.5%,69.8%);fill-opacity:1;" d="M 357.261719 393.636719 C 357.261719 398.96875 349.261719 398.96875 349.261719 393.636719 C 349.261719 388.304688 357.261719 388.304688 357.261719 393.636719 "/>
<path style=" stroke:none;fill-rule:nonzero;fill:rgb(58.4%,34.5%,69.8%);fill-opacity:1;" d="M 357.261719 375.453125 C 357.261719 380.789062 349.261719 380.789062 349.261719 375.453125 C 349.261719 370.121094 357.261719 370.121094 357.261719 375.453125 "/>
<path style=" stroke:none;fill-rule:nonzero;fill:rgb(58.4%,34.5%,69.8%);fill-opacity:1;" d="M 357.261719 357.273438 C 357.261719 362.605469 349.261719 362.605469 349.261719 357.273438 C 349.261719 351.9375 357.261719 351.9375 357.261719 357.273438 "/>
<path style=" stroke:none;fill-rule:nonzero;fill:rgb(58.4%,34.5%,69.8%);fill-opacity:1;" d="M 343.472656 366.363281 C 343.472656 371.695312 335.472656 371.695312 335.472656 366.363281 C 335.472656 361.03125 343.472656 361.03125 343.472656 366.363281 "/>
<path style=" stroke:none;fill-rule:nonzero;fill:rgb(58.4%,34.5%,69.8%);fill-opacity:1;" d="M 343.472656 384.546875 C 343.472656 389.878906 335.472656 389.878906 335.472656 384.546875 C 335.472656 379.210938 343.472656 379.210938 343.472656 384.546875 "/>
<path style=" stroke:none;fill-rule:nonzero;fill:rgb(58.4%,34.5%,69.8%);fill-opacity:1;" d="M 329.683594 393.636719 C 329.683594 398.96875 321.683594 398.96875 321.683594 393.636719 C 321.683594 388.304688 329.683594 388.304688 329.683594 393.636719 "/>
<path style=" stroke:none;fill-rule:nonzero;fill:rgb(58.4%,34.5%,69.8%);fill-opacity:1;" d="M 329.683594 375.453125 C 329.683594 380.789062 321.683594 380.789062 321.683594 375.453125 C 321.683594 370.121094 329.683594 370.121094 329.683594 375.453125 "/>
<path style=" stroke:none;fill-rule:nonzero;fill:rgb(58.4%,34.5%,69.8%);fill-opacity:1;" d="M 315.894531 384.546875 C 315.894531 389.878906 307.894531 389.878906 307.894531 384.546875 C 307.894531 379.210938 315.894531 379.210938 315.894531 384.546875 "/>
<path style=" stroke:none;fill-rule:nonzero;fill:rgb(58.4%,34.5%,69.8%);fill-opacity:1;" d="M 315.894531 402.726562 C 315.894531 408.0625 307.894531 408.0625 307.894531 402.726562 C 307.894531 397.394531 315.894531 397.394531 315.894531 402.726562 "/>
<path style=" stroke:none;fill-rule:nonzero;fill:rgb(58.4%,34.5%,69.8%);fill-opacity:1;" d="M 315.894531 420.910156 C 315.894531 426.242188 307.894531 426.242188 307.894531 420.910156 C 307.894531 415.578125 315.894531 415.578125 315.894531 420.910156 "/>
<path style=" stroke:none;fill-rule:nonzero;fill:rgb(58.4%,34.5%,69.8%);fill-opacity:1;" d="M 329.683594 411.820312 C 329.683594 417.152344 321.683594 417.152344 321.683594 411.820312 C 321.683594 406.484375 329.683594 406.484375 329.683594 411.820312 "/>
<path style=" stroke:none;fill-rule:nonzero;fill:rgb(58.4%,34.5%,69.8%);fill-opacity:1;" d="M 329.683594 430 C 329.683594 435.335938 321.683594 435.335938 321.683594 430 C 321.683594 424.667969 329.683594 424.667969 329.683594 430 "/>
<path style=" stroke:none;fill-rule:nonzero;fill:rgb(58.4%,34.5%,69.8%);fill-opacity:1;" d="M 315.894531 439.09375 C 315.894531 444.425781 307.894531 444.425781 307.894531 439.09375 C 307.894531 433.757812 315.894531 433.757812 315.894531 439.09375 "/>
<path style=" stroke:none;fill-rule:nonzero;fill:rgb(58.4%,34.5%,69.8%);fill-opacity:1;" d="M 302.105469 448.183594 C 302.105469 453.515625 294.105469 453.515625 294.105469 448.183594 C 294.105469 442.851562 302.105469 442.851562 302.105469 448.183594 "/>
<path style=" stroke:none;fill-rule:nonzero;fill:rgb(58.4%,34.5%,69.8%);fill-opacity:1;" d="M 302.105469 430 C 302.105469 435.335938 294.105469 435.335938 294.105469 430 C 294.105469 424.667969 302.105469 424.667969 302.105469 430 "/>
<path style=" stroke:none;fill-rule:nonzero;fill:rgb(58.4%,34.5%,69.8%);fill-opacity:1;" d="M 288.316406 439.09375 C 288.316406 444.425781 280.316406 444.425781 280.316406 439.09375 C 280.316406 433.757812 288.316406 433.757812 288.316406 439.09375 "/>
<path style=" stroke:none;fill-rule:nonzero;fill:rgb(58.4%,34.5%,69.8%);fill-opacity:1;" d="M 288.316406 457.273438 C 288.316406 462.609375 280.316406 462.609375 280.316406 457.273438 C 280.316406 451.941406 288.316406 451.941406 288.316406 457.273438 "/>
<path style=" stroke:none;fill-rule:nonzero;fill:rgb(58.4%,34.5%,69.8%);fill-opacity:1;" d="M 274.527344 466.367188 C 274.527344 471.699219 266.527344 471.699219 266.527344 466.367188 C 266.527344 461.03125 274.527344 461.03125 274.527344 466.367188 "/>
<path style=" stroke:none;fill-rule:nonzero;fill:rgb(58.4%,34.5%,69.8%);fill-opacity:1;" d="M 260.738281 475.457031 C 260.738281 480.789062 252.738281 480.789062 252.738281 475.457031 C 252.738281 470.125 260.738281 470.125 260.738281 475.457031 "/>
<path style=" stroke:none;fill-rule:nonzero;fill:rgb(58.4%,34.5%,69.8%);fill-opacity:1;" d="M 260.738281 457.273438 C 260.738281 462.609375 252.738281 462.609375 252.738281 457.273438 C 252.738281 451.941406 260.738281 451.941406 260.738281 457.273438 "/>
<path style=" stroke:none;fill-rule:nonzero;fill:rgb(58.4%,34.5%,69.8%);fill-opacity:1;" d="M 274.527344 448.183594 C 274.527344 453.515625 266.527344 453.515625 266.527344 448.183594 C 266.527344 442.851562 274.527344 442.851562 274.527344 448.183594 "/>
<path style=" stroke:none;fill-rule:nonzero;fill:rgb(58.4%,34.5%,69.8%);fill-opacity:1;" d="M 274.527344 430 C 274.527344 435.335938 266.527344 435.335938 266.527344 430 C 266.527344 424.667969 274.527344 424.667969 274.527344 430 "/>
<path style=" stroke:none;fill-rule:nonzero;fill:rgb(58.4%,34.5%,69.8%);fill-opacity:1;" d="M 260.738281 439.09375 C 260.738281 444.425781 252.738281 444.425781 252.738281 439.09375 C 252.738281 433.757812 260.738281 433.757812 260.738281 439.09375 "/>
<path style=" stroke:none;fill-rule:nonzero;fill:rgb(58.4%,34.5%,69.8%);fill-opacity:1;" d="M 260.738281 420.910156 C 260.738281 426.242188 252.738281 426.242188 252.738281 420.910156 C 252.738281 415.578125 260.738281 415.578125 260.738281 420.910156 "/>
<path style=" stroke:none;fill-rule:nonzero;fill:rgb(58.4%,34.5%,69.8%);fill-opacity:1;" d="M 274.527344 411.820312 C 274.527344 417.152344 266.527344 417.152344 266.527344 411.820312 C 266.527344 406.484375 274.527344 406.484375 274.527344 411.820312 "/>
<path style=" stroke:none;fill-rule:nonzero;fill:rgb(58.4%,34.5%,69.8%);fill-opacity:1;" d="M 288.316406 402.726562 C 288.316406 408.0625 280.316406 408.0625 280.316406 402.726562 C 280.316406 397.394531 288.316406 397.394531 288.316406 402.726562 "/>
<path style=" stroke:none;fill-rule:nonzero;fill:rgb(58.4%,34.5%,69.8%);fill-opacity:1;" d="M 288.316406 420.910156 C 288.316406 426.242188 280.316406 426.242188 280.316406 420.910156 C 280.316406 415.578125 288.316406 415.578125 288.316406 420.910156 "/>
<path style=" stroke:none;fill-rule:nonzero;fill:rgb(58.4%,34.5%,69.8%);fill-opacity:1;" d="M 302.105469 411.820312 C 302.105469 417.152344 294.105469 417.152344 294.105469 411.820312 C 294.105469 406.484375 302.105469 406.484375 302.105469 411.820312 "/>
<path style=" stroke:none;fill-rule:nonzero;fill:rgb(58.4%,34.5%,69.8%);fill-opacity:1;" d="M 302.105469 393.636719 C 302.105469 398.96875 294.105469 398.96875 294.105469 393.636719 C 294.105469 388.304688 302.105469 388.304688 302.105469 393.636719 "/>
<path style=" stroke:none;fill-rule:nonzero;fill:rgb(58.4%,34.5%,69.8%);fill-opacity:1;" d="M 302.105469 375.453125 C 302.105469 380.789062 294.105469 380.789062 294.105469 375.453125 C 294.105469 370.121094 302.105469 370.121094 302.105469 375.453125 "/>
<path style=" stroke:none;fill-rule:nonzero;fill:rgb(58.4%,34.5%,69.8%);fill-opacity:1;" d="M 302.105469 357.273438 C 302.105469 362.605469 294.105469 362.605469 294.105469 357.273438 C 294.105469 351.9375 302.105469 351.9375 302.105469 357.273438 "/>
<path style=" stroke:none;fill-rule:nonzero;fill:rgb(58.4%,34.5%,69.8%);fill-opacity:1;" d="M 288.316406 366.363281 C 288.316406 371.695312 280.316406 371.695312 280.316406 366.363281 C 280.316406 361.03125 288.316406 361.03125 288.316406 366.363281 "/>
<path style=" stroke:none;fill-rule:nonzero;fill:rgb(58.4%,34.5%,69.8%);fill-opacity:1;" d="M 288.316406 384.546875 C 288.316406 389.878906 280.316406 389.878906 280.316406 384.546875 C 280.316406 379.210938 288.316406 379.210938 288.316406 384.546875 "/>
<path style=" stroke:none;fill-rule:nonzero;fill:rgb(58.4%,34.5%,69.8%);fill-opacity:1;" d="M 274.527344 393.636719 C 274.527344 398.96875 266.527344 398.96875 266.527344 393.636719 C 266.527344 388.304688 274.527344 388.304688 274.527344 393.636719 "/>
<path style=" stroke:none;fill-rule:nonzero;fill:rgb(58.4%,34.5%,69.8%);fill-opacity:1;" d="M 260.738281 402.726562 C 260.738281 408.0625 252.738281 408.0625 252.738281 402.726562 C 252.738281 397.394531 260.738281 397.394531 260.738281 402.726562 "/>
<path style=" stroke:none;fill-rule:nonzero;fill:rgb(58.4%,34.5%,69.8%);fill-opacity:1;" d="M 260.738281 384.546875 C 260.738281 389.878906 252.738281 389.878906 252.738281 384.546875 C 252.738281 379.210938 260.738281 379.210938 260.738281 384.546875 "/>
<path style=" stroke:none;fill-rule:nonzero;fill:rgb(58.4%,34.5%,69.8%);fill-opacity:1;" d="M 274.527344 375.453125 C 274.527344 380.789062 266.527344 380.789062 266.527344 375.453125 C 266.527344 370.121094 274.527344 370.121094 274.527344 375.453125 "/>
<path style=" stroke:none;fill-rule:nonzero;fill:rgb(58.4%,34.5%,69.8%);fill-opacity:1;" d="M 274.527344 357.273438 C 274.527344 362.605469 266.527344 362.605469 266.527344 357.273438 C 266.527344 351.9375 274.527344 351.9375 274.527344 357.273438 "/>
<path style=" stroke:none;fill-rule:nonzero;fill:rgb(58.4%,34.5%,69.8%);fill-opacity:1;" d="M 260.738281 366.363281 C 260.738281 371.695312 252.738281 371.695312 252.738281 366.363281 C 252.738281 361.03125 260.738281 361.03125 260.738281 366.363281 "/>
<path style=" stroke:none;fill-rule:nonzero;fill:rgb(58.4%,34.5%,69.8%);fill-opacity:1;" d="M 260.738281 348.179688 C 260.738281 353.515625 252.738281 353.515625 252.738281 348.179688 C 252.738281 342.847656 260.738281 342.847656 260.738281 348.179688 "/>
<path style=" stroke:none;fill-rule:nonzero;fill:rgb(58.4%,34.5%,69.8%);fill-opacity:1;" d="M 274.527344 339.089844 C 274.527344 344.421875 266.527344 344.421875 266.527344 339.089844 C 266.527344 333.757812 274.527344 333.757812 274.527344 339.089844 "/>
<path style=" stroke:none;fill-rule:nonzero;fill:rgb(58.4%,34.5%,69.8%);fill-opacity:1;" d="M 288.316406 330 C 288.316406 335.332031 280.316406 335.332031 280.316406 330 C 280.316406 324.664062 288.316406 324.664062 288.316406 330 "/>
<path style=" stroke:none;fill-rule:nonzero;fill:rgb(58.4%,34.5%,69.8%);fill-opacity:1;" d="M 288.316406 348.179688 C 288.316406 353.515625 280.316406 353.515625 280.316406 348.179688 C 280.316406 342.847656 288.316406 342.847656 288.316406 348.179688 "/>
<path style=" stroke:none;fill-rule:nonzero;fill:rgb(58.4%,34.5%,69.8%);fill-opacity:1;" d="M 302.105469 339.089844 C 302.105469 344.421875 294.105469 344.421875 294.105469 339.089844 C 294.105469 333.757812 302.105469 333.757812 302.105469 339.089844 "/>
<path style=" stroke:none;fill-rule:nonzero;fill:rgb(58.4%,34.5%,69.8%);fill-opacity:1;" d="M 302.105469 320.90625 C 302.105469 326.242188 294.105469 326.242188 294.105469 320.90625 C 294.105469 315.574219 302.105469 315.574219 302.105469 320.90625 "/>
<path style=" stroke:none;fill-rule:nonzero;fill:rgb(58.4%,34.5%,69.8%);fill-opacity:1;" d="M 315.894531 311.816406 C 315.894531 317.148438 307.894531 317.148438 307.894531 311.816406 C 307.894531 306.484375 315.894531 306.484375 315.894531 311.816406 "/>
<path style=" stroke:none;fill-rule:nonzero;fill:rgb(58.4%,34.5%,69.8%);fill-opacity:1;" d="M 329.683594 302.726562 C 329.683594 308.058594 321.683594 308.058594 321.683594 302.726562 C 321.683594 297.390625 329.683594 297.390625 329.683594 302.726562 "/>
<path style=" stroke:none;fill-rule:nonzero;fill:rgb(58.4%,34.5%,69.8%);fill-opacity:1;" d="M 329.683594 320.90625 C 329.683594 326.242188 321.683594 326.242188 321.683594 320.90625 C 321.683594 315.574219 329.683594 315.574219 329.683594 320.90625 "/>
<path style=" stroke:none;fill-rule:nonzero;fill:rgb(58.4%,34.5%,69.8%);fill-opacity:1;" d="M 315.894531 330 C 315.894531 335.332031 307.894531 335.332031 307.894531 330 C 307.894531 324.664062 315.894531 324.664062 315.894531 330 "/>
<path style=" stroke:none;fill-rule:nonzero;fill:rgb(58.4%,34.5%,69.8%);fill-opacity:1;" d="M 315.894531 348.179688 C 315.894531 353.515625 307.894531 353.515625 307.894531 348.179688 C 307.894531 342.847656 315.894531 342.847656 315.894531 348.179688 "/>
<path style=" stroke:none;fill-rule:nonzero;fill:rgb(58.4%,34.5%,69.8%);fill-opacity:1;" d="M 315.894531 366.363281 C 315.894531 371.695312 307.894531 371.695312 307.894531 366.363281 C 307.894531 361.03125 315.894531 361.03125 315.894531 366.363281 "/>
<path style=" stroke:none;fill-rule:nonzero;fill:rgb(58.4%,34.5%,69.8%);fill-opacity:1;" d="M 329.683594 357.273438 C 329.683594 362.605469 321.683594 362.605469 321.683594 357.273438 C 321.683594 351.9375 329.683594 351.9375 329.683594 357.273438 "/>
<path style=" stroke:none;fill-rule:nonzero;fill:rgb(58.4%,34.5%,69.8%);fill-opacity:1;" d="M 329.683594 339.089844 C 329.683594 344.421875 321.683594 344.421875 321.683594 339.089844 C 321.683594 333.757812 329.683594 333.757812 329.683594 339.089844 "/>
<path style=" stroke:none;fill-rule:nonzero;fill:rgb(58.4%,34.5%,69.8%);fill-opacity:1;" d="M 343.472656 330 C 343.472656 335.332031 335.472656 335.332031 335.472656 330 C 335.472656 324.664062 343.472656 324.664062 343.472656 330 "/>
<path style=" stroke:none;fill-rule:nonzero;fill:rgb(58.4%,34.5%,69.8%);fill-opacity:1;" d="M 343.472656 348.179688 C 343.472656 353.515625 335.472656 353.515625 335.472656 348.179688 C 335.472656 342.847656 343.472656 342.847656 343.472656 348.179688 "/>
<path style=" stroke:none;fill-rule:nonzero;fill:rgb(58.4%,34.5%,69.8%);fill-opacity:1;" d="M 357.261719 339.089844 C 357.261719 344.421875 349.261719 344.421875 349.261719 339.089844 C 349.261719 333.757812 357.261719 333.757812 357.261719 339.089844 "/>
<path style=" stroke:none;fill-rule:nonzero;fill:rgb(58.4%,34.5%,69.8%);fill-opacity:1;" d="M 357.261719 320.90625 C 357.261719 326.242188 349.261719 326.242188 349.261719 320.90625 C 349.261719 315.574219 357.261719 315.574219 357.261719 320.90625 "/>
<path style=" stroke:none;fill-rule:nonzero;fill:rgb(58.4%,34.5%,69.8%);fill-opacity:1;" d="M 357.261719 302.726562 C 357.261719 308.058594 349.261719 308.058594 349.261719 302.726562 C 349.261719 297.390625 357.261719 297.390625 357.261719 302.726562 "/>
<path style=" stroke:none;fill-rule:nonzero;fill:rgb(58.4%,34.5%,69.8%);fill-opacity:1;" d="M 343.472656 311.816406 C 343.472656 317.148438 335.472656 317.148438 335.472656 311.816406 C 335.472656 306.484375 343.472656 306.484375 343.472656 311.816406 "/>
<path style=" stroke:none;fill-rule:nonzero;fill:rgb(58.4%,34.5%,69.8%);fill-opacity:1;" d="M 343.472656 293.632812 C 343.472656 298.96875 335.472656 298.96875 335.472656 293.632812 C 335.472656 288.300781 343.472656 288.300781 343.472656 293.632812 "/>
<path style=" stroke:none;fill-rule:nonzero;fill:rgb(58.4%,34.5%,69.8%);fill-opacity:1;" d="M 357.261719 284.542969 C 357.261719 289.875 349.261719 289.875 349.261719 284.542969 C 349.261719 279.210938 357.261719 279.210938 357.261719 284.542969 "/>
<path style="fill:none;stroke-width:3;stroke-linecap:butt;stroke-linejoin:bevel;stroke:rgb(79.6%,23.5%,20%);stroke-opacity:1;stroke-miterlimit:10;" d="M 146.738281 411.820312 L 160.527344 420.910156 L 160.527344 402.726562 L 146.738281 393.636719 L 146.738281 357.273438 L 160.527344 366.363281 L 160.527344 384.546875 L 174.316406 393.636719 L 174.316406 375.453125 L 188.105469 384.546875 L 188.105469 420.910156 L 174.316406 411.820312 L 174.316406 430 L 188.105469 439.09375 L 201.894531 448.183594 L 201.894531 430 L 215.683594 439.09375 L 215.683594 457.273438 L 229.472656 466.367188 L 243.261719 475.457031 L 243.261719 457.273438 L 229.472656 448.183594 L 229.472656 430 L 243.261719 439.09375 L 243.261719 420.910156 L 229.472656 411.820312 L 215.683594 402.726562 L 215.683594 420.910156 L 201.894531 411.820312 L 201.894531 357.273438 L 215.683594 366.363281 L 215.683594 384.546875 L 243.261719 402.726562 L 243.261719 384.546875 L 229.472656 375.453125 L 229.472656 357.273438 L 243.261719 366.363281 L 243.261719 348.179688 L 215.683594 330 L 215.683594 348.179688 L 201.894531 339.089844 L 201.894531 320.90625 L 174.316406 302.726562 L 174.316406 320.90625 L 188.105469 330 L 188.105469 366.363281 L 174.316406 357.273438 L 174.316406 339.089844 L 160.527344 330 L 160.527344 348.179688 L 146.738281 339.089844 L 146.738281 302.726562 L 160.527344 311.816406 L 160.527344 293.632812 L 146.738281 284.542969 "/>
<path style=" stroke:none;fill-rule:nonzero;fill:rgb(79.6%,23.5%,20%);fill-opacity:1;" d="M 150.738281 411.820312 C 150.738281 417.152344 142.738281 417.152344 142.738281 411.820312 C 142.738281 406.484375 150.738281 406.484375 150.738281 411.820312 "/>
<path style=" stroke:none;fill-rule:nonzero;fill:rgb(79.6%,23.5%,20%);fill-opacity:1;" d="M 164.527344 420.910156 C 164.527344 426.242188 156.527344 426.242188 156.527344 420.910156 C 156.527344 415.578125 164.527344 415.578125 164.527344 420.910156 "/>
<path style=" stroke:none;fill-rule:nonzero;fill:rgb(79.6%,23.5%,20%);fill-opacity:1;" d="M 164.527344 402.726562 C 164.527344 408.0625 156.527344 408.0625 156.527344 402.726562 C 156.527344 397.394531 164.527344 397.394531 164.527344 402.726562 "/>
<path style=" stroke:none;fill-rule:nonzero;fill:rgb(79.6%,23.5%,20%);fill-opacity:1;" d="M 150.738281 393.636719 C 150.738281 398.96875 142.738281 398.96875 142.738281 393.636719 C 142.738281 388.304688 150.738281 388.304688 150.738281 393.636719 "/>
<path style=" stroke:none;fill-rule:nonzero;fill:rgb(79.6%,23.5%,20%);fill-opacity:1;" d="M 150.738281 375.453125 C 150.738281 380.789062 142.738281 380.789062 142.738281 375.453125 C 142.738281 370.121094 150.738281 370.121094 150.738281 375.453125 "/>
<path style=" stroke:none;fill-rule:nonzero;fill:rgb(79.6%,23.5%,20%);fill-opacity:1;" d="M 150.738281 357.273438 C 150.738281 362.605469 142.738281 362.605469 142.738281 357.273438 C 142.738281 351.9375 150.738281 351.9375 150.738281 357.273438 "/>
<path style=" stroke:none;fill-rule:nonzero;fill:rgb(79.6%,23.5%,20%);fill-opacity:1;" d="M 164.527344 366.363281 C 164.527344 371.695312 156.527344 371.695312 156.527344 366.363281 C 156.527344 361.03125 164.527344 361.03125 164.527344 366.363281 "/>
<path style=" stroke:none;fill-rule:nonzero;fill:rgb(79.6%,23.5%,20%);fill-opacity:1;" d="M 164.527344 384.546875 C 164.527344 389.878906 156.527344 389.878906 156.527344 384.546875 C 156.527344 379.210938 164.527344 379.210938 164.527344 384.546875 "/>
<path style=" stroke:none;fill-rule:nonzero;fill:rgb(79.6%,23.5%,20%);fill-opacity:1;" d="M 178.316406 393.636719 C 178.316406 398.96875 170.316406 398.96875 170.316406 393.636719 C 170.316406 388.304688 178.316406 388.304688 178.316406 393.636719 "/>
<path style=" stroke:none;fill-rule:nonzero;fill:rgb(79.6%,23.5%,20%);fill-opacity:1;" d="M 178.316406 375.453125 C 178.316406 380.789062 170.316406 380.789062 170.316406 375.453125 C 170.316406 370.121094 178.316406 370.121094 178.316406 375.453125 "/>
<path style=" stroke:none;fill-rule:nonzero;fill:rgb(79.6%,23.5%,20%);fill-opacity:1;" d="M 192.105469 384.546875 C 192.105469 389.878906 184.105469 389.878906 184.105469 384.546875 C 184.105469 379.210938 192.105469 379.210938 192.105469 384.546875 "/>
<path style=" stroke:none;fill-rule:nonzero;fill:rgb(79.6%,23.5%,20%);fill-opacity:1;" d="M 192.105469 402.726562 C 192.105469 408.0625 184.105469 408.0625 184.105469 402.726562 C 184.105469 397.394531 192.105469 397.394531 192.105469 402.726562 "/>
<path style=" stroke:none;fill-rule:nonzero;fill:rgb(79.6%,23.5%,20%);fill-opacity:1;" d="M 192.105469 420.910156 C 192.105469 426.242188 184.105469 426.242188 184.105469 420.910156 C 184.105469 415.578125 192.105469 415.578125 192.105469 420.910156 "/>
<path style=" stroke:none;fill-rule:nonzero;fill:rgb(79.6%,23.5%,20%);fill-opacity:1;" d="M 178.316406 411.820312 C 178.316406 417.152344 170.316406 417.152344 170.316406 411.820312 C 170.316406 406.484375 178.316406 406.484375 178.316406 411.820312 "/>
<path style=" stroke:none;fill-rule:nonzero;fill:rgb(79.6%,23.5%,20%);fill-opacity:1;" d="M 178.316406 430 C 178.316406 435.335938 170.316406 435.335938 170.316406 430 C 170.316406 424.667969 178.316406 424.667969 178.316406 430 "/>
<path style=" stroke:none;fill-rule:nonzero;fill:rgb(79.6%,23.5%,20%);fill-opacity:1;" d="M 192.105469 439.09375 C 192.105469 444.425781 184.105469 444.425781 184.105469 439.09375 C 184.105469 433.757812 192.105469 433.757812 192.105469 439.09375 "/>
<path style=" stroke:none;fill-rule:nonzero;fill:rgb(79.6%,23.5%,20%);fill-opacity:1;" d="M 205.894531 448.183594 C 205.894531 453.515625 197.894531 453.515625 197.894531 448.183594 C 197.894531 442.851562 205.894531 442.851562 205.894531 448.183594 "/>
<path style=" stroke:none;fill-rule:nonzero;fill:rgb(79.6%,23.5%,20%);fill-opacity:1;" d="M 205.894531 430 C 205.894531 435.335938 197.894531 435.335938 197.894531 430 C 197.894531 424.667969 205.894531 424.667969 205.894531 430 "/>
<path style=" stroke:none;fill-rule:nonzero;fill:rgb(79.6%,23.5%,20%);fill-opacity:1;" d="M 219.683594 439.09375 C 219.683594 444.425781 211.683594 444.425781 211.683594 439.09375 C 211.683594 433.757812 219.683594 433.757812 219.683594 439.09375 "/>
<path style=" stroke:none;fill-rule:nonzero;fill:rgb(79.6%,23.5%,20%);fill-opacity:1;" d="M 219.683594 457.273438 C 219.683594 462.609375 211.683594 462.609375 211.683594 457.273438 C 211.683594 451.941406 219.683594 451.941406 219.683594 457.273438 "/>
<path style=" stroke:none;fill-rule:nonzero;fill:rgb(79.6%,23.5%,20%);fill-opacity:1;" d="M 233.472656 466.367188 C 233.472656 471.699219 225.472656 471.699219 225.472656 466.367188 C 225.472656 461.03125 233.472656 461.03125 233.472656 466.367188 "/>
<path style=" stroke:none;fill-rule:nonzero;fill:rgb(79.6%,23.5%,20%);fill-opacity:1;" d="M 247.261719 475.457031 C 247.261719 480.789062 239.261719 480.789062 239.261719 475.457031 C 239.261719 470.125 247.261719 470.125 247.261719 475.457031 "/>
<path style=" stroke:none;fill-rule:nonzero;fill:rgb(79.6%,23.5%,20%);fill-opacity:1;" d="M 247.261719 457.273438 C 247.261719 462.609375 239.261719 462.609375 239.261719 457.273438 C 239.261719 451.941406 247.261719 451.941406 247.261719 457.273438 "/>
<path style=" stroke:none;fill-rule:nonzero;fill:rgb(79.6%,23.5%,20%);fill-opacity:1;" d="M 233.472656 448.183594 C 233.472656 453.515625 225.472656 453.515625 225.472656 448.183594 C 225.472656 442.851562 233.472656 442.851562 233.472656 448.183594 "/>
<path style=" stroke:none;fill-rule:nonzero;fill:rgb(79.6%,23.5%,20%);fill-opacity:1;" d="M 233.472656 430 C 233.472656 435.335938 225.472656 435.335938 225.472656 430 C 225.472656 424.667969 233.472656 424.667969 233.472656 430 "/>
<path style=" stroke:none;fill-rule:nonzero;fill:rgb(79.6%,23.5%,20%);fill-opacity:1;" d="M 247.261719 439.09375 C 247.261719 444.425781 239.261719 444.425781 239.261719 439.09375 C 239.261719 433.757812 247.261719 433.757812 247.261719 439.09375 "/>
<path style=" stroke:none;fill-rule:nonzero;fill:rgb(79.6%,23.5%,20%);fill-opacity:1;" d="M 247.261719 420.910156 C 247.261719 426.242188 239.261719 426.242188 239.261719 420.910156 C 239.261719 415.578125 247.261719 415.578125 247.261719 420.910156 "/>
<path style=" stroke:none;fill-rule:nonzero;fill:rgb(79.6%,23.5%,20%);fill-opacity:1;" d="M 233.472656 411.820312 C 233.472656 417.152344 225.472656 417.152344 225.472656 411.820312 C 225.472656 406.484375 233.472656 406.484375 233.472656 411.820312 "/>
<path style=" stroke:none;fill-rule:nonzero;fill:rgb(79.6%,23.5%,20%);fill-opacity:1;" d="M 219.683594 402.726562 C 219.683594 408.0625 211.683594 408.0625 211.683594 402.726562 C 211.683594 397.394531 219.683594 397.394531 219.683594 402.726562 "/>
<path style=" stroke:none;fill-rule:nonzero;fill:rgb(79.6%,23.5%,20%);fill-opacity:1;" d="M 219.683594 420.910156 C 219.683594 426.242188 211.683594 426.242188 211.683594 420.910156 C 211.683594 415.578125 219.683594 415.578125 219.683594 420.910156 "/>
<path style=" stroke:none;fill-rule:nonzero;fill:rgb(79.6%,23.5%,20%);fill-opacity:1;" d="M 205.894531 411.820312 C 205.894531 417.152344 197.894531 417.152344 197.894531 411.820312 C 197.894531 406.484375 205.894531 406.484375 205.894531 411.820312 "/>
<path style=" stroke:none;fill-rule:nonzero;fill:rgb(79.6%,23.5%,20%);fill-opacity:1;" d="M 205.894531 393.636719 C 205.894531 398.96875 197.894531 398.96875 197.894531 393.636719 C 197.894531 388.304688 205.894531 388.304688 205.894531 393.636719 "/>
<path style=" stroke:none;fill-rule:nonzero;fill:rgb(79.6%,23.5%,20%);fill-opacity:1;" d="M 205.894531 375.453125 C 205.894531 380.789062 197.894531 380.789062 197.894531 375.453125 C 197.894531 370.121094 205.894531 370.121094 205.894531 375.453125 "/>
<path style=" stroke:none;fill-rule:nonzero;fill:rgb(79.6%,23.5%,20%);fill-opacity:1;" d="M 205.894531 357.273438 C 205.894531 362.605469 197.894531 362.605469 197.894531 357.273438 C 197.894531 351.9375 205.894531 351.9375 205.894531 357.273438 "/>
<path style=" stroke:none;fill-rule:nonzero;fill:rgb(79.6%,23.5%,20%);fill-opacity:1;" d="M 219.683594 366.363281 C 219.683594 371.695312 211.683594 371.695312 211.683594 366.363281 C 211.683594 361.03125 219.683594 361.03125 219.683594 366.363281 "/>
<path style=" stroke:none;fill-rule:nonzero;fill:rgb(79.6%,23.5%,20%);fill-opacity:1;" d="M 219.683594 384.546875 C 219.683594 389.878906 211.683594 389.878906 211.683594 384.546875 C 211.683594 379.210938 219.683594 379.210938 219.683594 384.546875 "/>
<path style=" stroke:none;fill-rule:nonzero;fill:rgb(79.6%,23.5%,20%);fill-opacity:1;" d="M 233.472656 393.636719 C 233.472656 398.96875 225.472656 398.96875 225.472656 393.636719 C 225.472656 388.304688 233.472656 388.304688 233.472656 393.636719 "/>
<path style=" stroke:none;fill-rule:nonzero;fill:rgb(79.6%,23.5%,20%);fill-opacity:1;" d="M 247.261719 402.726562 C 247.261719 408.0625 239.261719 408.0625 239.261719 402.726562 C 239.261719 397.394531 247.261719 397.394531 247.261719 402.726562 "/>
<path style=" stroke:none;fill-rule:nonzero;fill:rgb(79.6%,23.5%,20%);fill-opacity:1;" d="M 247.261719 384.546875 C 247.261719 389.878906 239.261719 389.878906 239.261719 384.546875 C 239.261719 379.210938 247.261719 379.210938 247.261719 384.546875 "/>
<path style=" stroke:none;fill-rule:nonzero;fill:rgb(79.6%,23.5%,20%);fill-opacity:1;" d="M 233.472656 375.453125 C 233.472656 380.789062 225.472656 380.789062 225.472656 375.453125 C 225.472656 370.121094 233.472656 370.121094 233.472656 375.453125 "/>
<path style=" stroke:none;fill-rule:nonzero;fill:rgb(79.6%,23.5%,20%);fill-opacity:1;" d="M 233.472656 357.273438 C 233.472656 362.605469 225.472656 362.605469 225.472656 357.273438 C 225.472656 351.9375 233.472656 351.9375 233.472656 357.273438 "/>
<path style=" stroke:none;fill-rule:nonzero;fill:rgb(79.6%,23.5%,20%);fill-opacity:1;" d="M 247.261719 366.363281 C 247.261719 371.695312 239.261719 371.695312 239.261719 366.363281 C 239.261719 361.03125 247.261719 361.03125 247.261719 366.363281 "/>
<path style=" stroke:none;fill-rule:nonzero;fill:rgb(79.6%,23.5%,20%);fill-opacity:1;" d="M 247.261719 348.179688 C 247.261719 353.515625 239.261719 353.515625 239.261719 348.179688 C 239.261719 342.847656 247.261719 342.847656 247.261719 348.179688 "/>
<path style=" stroke:none;fill-rule:nonzero;fill:rgb(79.6%,23.5%,20%);fill-opacity:1;" d="M 233.472656 339.089844 C 233.472656 344.421875 225.472656 344.421875 225.472656 339.089844 C 225.472656 333.757812 233.472656 333.757812 233.472656 339.089844 "/>
<path style=" stroke:none;fill-rule:nonzero;fill:rgb(79.6%,23.5%,20%);fill-opacity:1;" d="M 219.683594 330 C 219.683594 335.332031 211.683594 335.332031 211.683594 330 C 211.683594 324.664062 219.683594 324.664062 219.683594 330 "/>
<path style=" stroke:none;fill-rule:nonzero;fill:rgb(79.6%,23.5%,20%);fill-opacity:1;" d="M 219.683594 348.179688 C 219.683594 353.515625 211.683594 353.515625 211.683594 348.179688 C 211.683594 342.847656 219.683594 342.847656 219.683594 348.179688 "/>
<path style=" stroke:none;fill-rule:nonzero;fill:rgb(79.6%,23.5%,20%);fill-opacity:1;" d="M 205.894531 339.089844 C 205.894531 344.421875 197.894531 344.421875 197.894531 339.089844 C 197.894531 333.757812 205.894531 333.757812 205.894531 339.089844 "/>
<path style=" stroke:none;fill-rule:nonzero;fill:rgb(79.6%,23.5%,20%);fill-opacity:1;" d="M 205.894531 320.90625 C 205.894531 326.242188 197.894531 326.242188 197.894531 320.90625 C 197.894531 315.574219 205.894531 315.574219 205.894531 320.90625 "/>
<path style=" stroke:none;fill-rule:nonzero;fill:rgb(79.6%,23.5%,20%);fill-opacity:1;" d="M 192.105469 311.816406 C 192.105469 317.148438 184.105469 317.148438 184.105469 311.816406 C 184.105469 306.484375 192.105469 306.484375 192.105469 311.816406 "/>
<path style=" stroke:none;fill-rule:nonzero;fill:rgb(79.6%,23.5%,20%);fill-opacity:1;" d="M 178.316406 302.726562 C 178.316406 308.058594 170.316406 308.058594 170.316406 302.726562 C 170.316406 297.390625 178.316406 297.390625 178.316406 302.726562 "/>
<path style=" stroke:none;fill-rule:nonzero;fill:rgb(79.6%,23.5%,20%);fill-opacity:1;" d="M 178.316406 320.90625 C 178.316406 326.242188 170.316406 326.242188 170.316406 320.90625 C 170.316406 315.574219 178.316406 315.574219 178.316406 320.90625 "/>
<path style=" stroke:none;fill-rule:nonzero;fill:rgb(79.6%,23.5%,20%);fill-opacity:1;" d="M 192.105469 330 C 192.105469 335.332031 184.105469 335.332031 184.105469 330 C 184.105469 324.664062 192.105469 324.664062 192.105469 330 "/>
<path style=" stroke:none;fill-rule:nonzero;fill:rgb(79.6%,23.5%,20%);fill-opacity:1;" d="M 192.105469 348.179688 C 192.105469 353.515625 184.105469 353.515625 184.105469 348.179688 C 184.105469 342.847656 192.105469 342.847656 192.105469 348.179688 "/>
<path style=" stroke:none;fill-rule:nonzero;fill:rgb(79.6%,23.5%,20%);fill-opacity:1;" d="M 192.105469 366.363281 C 192.105469 371.695312 184.105469 371.695312 184.105469 366.363281 C 184.105469 361.03125 192.105469 361.03125 192.105469 366.363281 "/>
<path style=" stroke:none;fill-rule:nonzero;fill:rgb(79.6%,23.5%,20%);fill-opacity:1;" d="M 178.316406 357.273438 C 178.316406 362.605469 170.316406 362.605469 170.316406 357.273438 C 170.316406 351.9375 178.316406 351.9375 178.316406 357.273438 "/>
<path style=" stroke:none;fill-rule:nonzero;fill:rgb(79.6%,23.5%,20%);fill-opacity:1;" d="M 178.316406 339.089844 C 178.316406 344.421875 170.316406 344.421875 170.316406 339.089844 C 170.316406 333.757812 178.316406 333.757812 178.316406 339.089844 "/>
<path style=" stroke:none;fill-rule:nonzero;fill:rgb(79.6%,23.5%,20%);fill-opacity:1;" d="M 164.527344 330 C 164.527344 335.332031 156.527344 335.332031 156.527344 330 C 156.527344 324.664062 164.527344 324.664062 164.527344 330 "/>
<path style=" stroke:none;fill-rule:nonzero;fill:rgb(79.6%,23.5%,20%);fill-opacity:1;" d="M 164.527344 348.179688 C 164.527344 353.515625 156.527344 353.515625 156.527344 348.179688 C 156.527344 342.847656 164.527344 342.847656 164.527344 348.179688 "/>
<path style=" stroke:none;fill-rule:nonzero;fill:rgb(79.6%,23.5%,20%);fill-opacity:1;" d="M 150.738281 339.089844 C 150.738281 344.421875 142.738281 344.421875 142.738281 339.089844 C 142.738281 333.757812 150.738281 333.757812 150.738281 339.089844 "/>
<path style=" stroke:none;fill-rule:nonzero;fill:rgb(79.6%,23.5%,20%);fill-opacity:1;" d="M 150.738281 320.90625 C 150.738281 326.242188 142.738281 326.242188 142.738281 320.90625 C 142.738281 315.574219 150.738281 315.574219 150.738281 320.90625 "/>
<path style=" stroke:none;fill-rule:nonzero;fill:rgb(79.6%,23.5%,20%);fill-opacity:1;" d="M 150.738281 302.726562 C 150.738281 308.058594 142.738281 308.058594 142.738281 302.726562 C 142.738281 297.390625 150.738281 297.390625 150.738281 302.726562 "/>
<path style=" stroke:none;fill-rule:nonzero;fill:rgb(79.6%,23.5%,20%);fill-opacity:1;" d="M 164.527344 311.816406 C 164.527344 317.148438 156.527344 317.148438 156.527344 311.816406 C 156.527344 306.484375 164.527344 306.484375 164.527344 311.816406 "/>
<path style=" stroke:none;fill-rule:nonzero;fill:rgb(79.6%,23.5%,20%);fill-opacity:1;" d="M 164.527344 293.632812 C 164.527344 298.96875 156.527344 298.96875 156.527344 293.632812 C 156.527344 288.300781 164.527344 288.300781 164.527344 293.632812 "/>
<path style=" stroke:none;fill-rule:nonzero;fill:rgb(79.6%,23.5%,20%);fill-opacity:1;" d="M 150.738281 284.542969 C 150.738281 289.875 142.738281 289.875 142.738281 284.542969 C 142.738281 279.210938 150.738281 279.210938 150.738281 284.542969 "/>
</g>
</svg>
