<?xml version="1.0" encoding="UTF-8" standalone="no"?>
<!DOCTYPE svg PUBLIC "-//W3C//DTD SVG 1.1//EN" "http://www.w3.org/Graphics/SVG/1.1/DTD/svg11.dtd">
<svg width="100%" height="100%" viewBox="0 0 517 324" version="1.1" xmlns="http://www.w3.org/2000/svg" xmlns:xlink="http://www.w3.org/1999/xlink" xml:space="preserve" xmlns:serif="http://www.serif.com/" style="fill-rule:evenodd;clip-rule:evenodd;stroke-linejoin:round;stroke-miterlimit:2;">
    <g transform="matrix(1.53079,0,0,1.53079,-331.189,-51.7487)">
        <g transform="matrix(1,0,0,1,-295.648,-246.343)">
            <g transform="matrix(0.551553,0,0,0.551553,600.248,335.303)">
                <g transform="matrix(1,0,0,1,-160,-100)">
                    <g id="surface1">
                        <path d="M67.871,164.313C67.871,171.848 67.023,177.934 65.328,182.566C63.633,187.203 61.223,190.801 58.094,193.363C54.969,195.926 51.219,197.641 46.848,198.508C42.477,199.371 37.613,199.805 32.266,199.805C25.027,199.805 19.488,198.676 15.648,196.414C11.805,194.152 9.883,191.441 9.883,188.273C9.883,185.637 10.953,183.414 13.102,181.605C15.25,179.797 18.133,178.895 21.75,178.895C24.465,178.895 26.633,179.629 28.25,181.098C29.871,182.566 31.211,184.02 32.266,185.449C33.469,187.031 34.488,188.086 35.316,188.613C36.145,189.141 36.898,189.406 37.578,189.406C39.008,189.406 40.102,188.559 40.855,186.863C41.609,185.168 41.984,181.871 41.984,176.973L41.984,84.051L67.871,76.93L67.871,164.313M104.738,79.414L104.738,139.215C104.738,140.875 105.059,142.438 105.699,143.906C106.34,145.375 107.227,146.641 108.355,147.695C109.488,148.75 110.805,149.598 112.313,150.238C113.82,150.879 115.441,151.199 117.176,151.199C119.133,151.199 121.359,150.102 124.07,148.203C128.363,145.195 130.965,143.129 130.965,140.684L130.965,79.414L156.738,79.414L156.738,164.313L130.965,164.313L130.965,156.398C127.574,159.262 123.957,161.559 120.113,163.293C116.27,165.027 112.539,165.895 108.922,165.895C104.703,165.895 100.781,165.195 97.164,163.801C93.547,162.406 90.383,160.504 87.672,158.094C84.957,155.684 82.828,152.855 81.281,149.613C79.738,146.375 78.965,142.906 78.965,139.215L78.965,79.414L104.738,79.414M192.883,164.313L167.223,164.313L167.223,45.277L192.883,38.156L192.883,164.313M203.602,84.051L229.375,76.93L229.375,164.313L203.602,164.313L203.602,84.051M283.227,120.449C280.738,121.508 278.23,122.73 275.707,124.125C273.184,125.52 270.883,127.047 268.813,128.703C266.738,130.359 265.063,132.133 263.781,134.016C262.5,135.898 261.859,137.859 261.859,139.895C261.859,141.477 262.066,143.004 262.48,144.473C262.895,145.941 263.48,147.203 264.234,148.258C264.988,149.313 265.816,150.16 266.723,150.801C267.625,151.441 268.605,151.762 269.66,151.762C271.77,151.762 273.898,151.121 276.047,149.84C278.195,148.559 280.586,146.941 283.227,144.98L283.227,120.449M309.109,164.313L283.227,164.313L283.227,157.527C281.793,158.734 280.398,159.848 279.043,160.863C277.688,161.879 276.16,162.766 274.465,163.52C272.77,164.273 270.867,164.855 268.754,165.273C266.645,165.688 264.156,165.895 261.297,165.895C257.375,165.895 253.852,165.328 250.727,164.199C247.598,163.066 244.941,161.523 242.758,159.563C240.57,157.605 238.895,155.285 237.727,152.609C236.559,149.938 235.973,147.016 235.973,143.852C235.973,140.609 236.594,137.672 237.84,135.031C239.082,132.395 240.777,130.023 242.926,127.91C245.074,125.801 247.578,123.918 250.441,122.258C253.305,120.602 256.379,119.074 259.656,117.68C262.934,116.285 266.344,115.008 269.887,113.84C273.426,112.672 276.934,111.559 280.398,110.504L283.227,109.824L283.227,101.461C283.227,96.035 282.188,92.191 280.117,89.93C278.043,87.668 275.273,86.539 271.809,86.539C267.738,86.539 264.91,87.52 263.328,89.477C261.746,91.438 260.953,93.809 260.953,96.598C260.953,98.18 260.785,99.727 260.445,101.234C260.109,102.742 259.523,104.059 258.695,105.191C257.867,106.32 256.68,107.227 255.133,107.902C253.59,108.582 251.648,108.922 249.313,108.922C245.695,108.922 242.758,107.883 240.496,105.813C238.234,103.738 237.105,101.121 237.105,97.953C237.105,95.016 238.102,92.285 240.098,89.762C242.098,87.234 244.789,85.066 248.184,83.262C251.574,81.449 255.492,80.02 259.938,78.965C264.383,77.91 269.094,77.383 274.066,77.383C280.172,77.383 285.43,77.93 289.84,79.02C294.246,80.113 297.883,81.676 300.746,83.711C303.609,85.746 305.719,88.195 307.074,91.059C308.434,93.922 309.109,97.129 309.109,100.668L309.109,164.313" style="fill:rgb(16,11,19);fill-rule:nonzero;"/>
                        <path d="M235.273,55.09C235.273,64.758 227.438,72.59 217.773,72.59C208.105,72.59 200.273,64.758 200.273,55.09C200.273,45.426 208.105,37.59 217.773,37.59C227.438,37.59 235.273,45.426 235.273,55.09" style="fill:rgb(202,59,51);fill-rule:nonzero;"/>
                        <path d="M72.953,55.09C72.953,64.758 65.117,72.59 55.453,72.59C45.789,72.59 37.953,64.758 37.953,55.09C37.953,45.426 45.789,37.59 55.453,37.59C65.117,37.59 72.953,45.426 72.953,55.09" style="fill:rgb(64,98,215);fill-rule:nonzero;"/>
                        <path d="M277.32,55.09C277.32,64.758 269.484,72.59 259.82,72.59C250.156,72.59 242.32,64.758 242.32,55.09C242.32,45.426 250.156,37.59 259.82,37.59C269.484,37.59 277.32,45.426 277.32,55.09" style="fill:rgb(148,87,177);fill-rule:nonzero;"/>
                        <path d="M256.301,18.672C256.301,28.336 248.465,36.172 238.801,36.172C229.133,36.172 221.301,28.336 221.301,18.672C221.301,9.008 229.133,1.172 238.801,1.172C248.465,1.172 256.301,9.008 256.301,18.672" style="fill:rgb(56,151,37);fill-rule:nonzero;"/>
                    </g>
                </g>
            </g>
            <g transform="matrix(243.958,0,0,243.958,688.385,370.907)">
                <path d="M0.422,-0L0.422,-0.193L0.48,-0.193L0.48,-0.178C0.498,-0.19 0.517,-0.197 0.538,-0.197C0.559,-0.197 0.574,-0.191 0.584,-0.18C0.593,-0.169 0.598,-0.155 0.598,-0.138L0.598,-0L0.541,-0L0.541,-0.132C0.541,-0.141 0.539,-0.149 0.536,-0.154C0.532,-0.16 0.527,-0.163 0.521,-0.163C0.51,-0.163 0.497,-0.156 0.48,-0.142L0.48,-0L0.422,-0ZM0.099,0.002C0.081,0.002 0.065,-0.003 0.05,-0.012C0.035,-0.02 0.023,-0.032 0.015,-0.046C0.006,-0.061 0.002,-0.076 0.002,-0.093C0.002,-0.11 0.006,-0.127 0.015,-0.143C0.024,-0.159 0.036,-0.172 0.052,-0.182C0.067,-0.191 0.085,-0.196 0.104,-0.196C0.116,-0.196 0.128,-0.194 0.14,-0.19C0.151,-0.186 0.161,-0.18 0.168,-0.173C0.175,-0.166 0.179,-0.159 0.179,-0.151C0.179,-0.143 0.176,-0.137 0.169,-0.133C0.163,-0.128 0.155,-0.126 0.147,-0.126C0.139,-0.126 0.132,-0.128 0.127,-0.132C0.122,-0.136 0.119,-0.141 0.119,-0.148C0.118,-0.156 0.117,-0.163 0.115,-0.167C0.113,-0.171 0.108,-0.173 0.1,-0.173C0.087,-0.173 0.077,-0.167 0.07,-0.157C0.063,-0.147 0.06,-0.133 0.06,-0.116C0.06,-0.095 0.064,-0.077 0.072,-0.06C0.08,-0.044 0.093,-0.036 0.109,-0.036C0.121,-0.036 0.131,-0.04 0.139,-0.049C0.147,-0.057 0.155,-0.069 0.162,-0.085L0.19,-0.077C0.183,-0.052 0.172,-0.033 0.156,-0.019C0.14,-0.005 0.121,0.002 0.099,0.002ZM0.303,0.002C0.283,0.002 0.265,-0.003 0.249,-0.011C0.233,-0.019 0.22,-0.03 0.211,-0.045C0.201,-0.06 0.197,-0.077 0.197,-0.096C0.197,-0.114 0.201,-0.131 0.21,-0.146C0.218,-0.161 0.231,-0.173 0.247,-0.183C0.263,-0.192 0.281,-0.196 0.301,-0.196C0.319,-0.196 0.337,-0.192 0.353,-0.184C0.369,-0.176 0.382,-0.165 0.392,-0.151C0.402,-0.136 0.407,-0.119 0.407,-0.099C0.407,-0.081 0.403,-0.064 0.394,-0.049C0.385,-0.033 0.373,-0.021 0.357,-0.012C0.341,-0.003 0.323,0.002 0.303,0.002ZM0.309,-0.021C0.321,-0.021 0.33,-0.027 0.336,-0.039C0.342,-0.051 0.345,-0.067 0.345,-0.086C0.345,-0.11 0.34,-0.13 0.332,-0.147C0.323,-0.164 0.311,-0.173 0.297,-0.173C0.284,-0.173 0.275,-0.167 0.268,-0.154C0.262,-0.141 0.259,-0.125 0.259,-0.107C0.259,-0.085 0.263,-0.065 0.272,-0.048C0.281,-0.03 0.293,-0.021 0.309,-0.021Z" style="fill:rgb(148,87,177);fill-rule:nonzero;"/>
            </g>
        </g>
        <g transform="matrix(0.870364,0,0,0.70116,-315.652,-120.062)">
            <g transform="matrix(178.891,0,0,178.891,615.941,517.391)">
                <path d="M0.446,0.013C0.427,0.013 0.409,0.01 0.395,0.003C0.38,-0.004 0.367,-0.012 0.356,-0.022C0.345,-0.031 0.332,-0.044 0.319,-0.059C0.308,-0.072 0.298,-0.082 0.29,-0.089C0.282,-0.096 0.273,-0.102 0.263,-0.108C0.253,-0.113 0.242,-0.115 0.23,-0.115C0.217,-0.115 0.208,-0.11 0.202,-0.1C0.195,-0.09 0.191,-0.077 0.19,-0.06C0.189,-0.043 0.189,-0.023 0.191,-0L0.034,-0C0.031,-0.061 0.04,-0.112 0.059,-0.153C0.078,-0.194 0.102,-0.226 0.13,-0.249C0.157,-0.272 0.193,-0.296 0.237,-0.322C0.266,-0.339 0.289,-0.353 0.305,-0.365C0.321,-0.376 0.334,-0.39 0.345,-0.406C0.356,-0.422 0.361,-0.441 0.361,-0.462C0.361,-0.474 0.359,-0.484 0.354,-0.493C0.349,-0.501 0.341,-0.507 0.332,-0.512C0.323,-0.517 0.312,-0.519 0.299,-0.519C0.284,-0.519 0.27,-0.515 0.258,-0.507C0.245,-0.499 0.235,-0.487 0.227,-0.471C0.219,-0.454 0.214,-0.433 0.213,-0.408L0.042,-0.458C0.05,-0.507 0.068,-0.547 0.095,-0.577C0.122,-0.607 0.153,-0.628 0.189,-0.641C0.225,-0.654 0.262,-0.66 0.299,-0.66C0.356,-0.66 0.404,-0.65 0.441,-0.63C0.478,-0.609 0.505,-0.583 0.523,-0.552C0.54,-0.521 0.548,-0.488 0.548,-0.453C0.548,-0.411 0.539,-0.377 0.52,-0.35C0.501,-0.323 0.478,-0.303 0.451,-0.289C0.424,-0.275 0.389,-0.26 0.346,-0.245C0.331,-0.24 0.315,-0.234 0.3,-0.228C0.284,-0.221 0.27,-0.215 0.258,-0.209C0.246,-0.202 0.236,-0.195 0.227,-0.187L0.233,-0.174C0.252,-0.181 0.269,-0.187 0.286,-0.191C0.302,-0.194 0.32,-0.196 0.34,-0.196C0.356,-0.196 0.371,-0.195 0.386,-0.194C0.401,-0.192 0.414,-0.19 0.426,-0.188C0.435,-0.187 0.445,-0.185 0.455,-0.184C0.464,-0.183 0.473,-0.182 0.481,-0.182C0.499,-0.182 0.515,-0.183 0.528,-0.185C0.541,-0.186 0.553,-0.189 0.564,-0.194L0.565,-0.194C0.569,-0.15 0.568,-0.113 0.562,-0.082C0.556,-0.051 0.544,-0.028 0.525,-0.012C0.506,0.005 0.48,0.013 0.446,0.013Z" style="fill:rgb(24,13,30);fill-rule:nonzero;"/>
            </g>
            <g transform="matrix(178.891,0,0,178.891,716.478,517.391)">
                <path d="M0.327,0.018C0.267,0.018 0.216,0.003 0.173,-0.026C0.13,-0.055 0.097,-0.096 0.074,-0.148C0.051,-0.2 0.04,-0.259 0.04,-0.324C0.04,-0.387 0.052,-0.445 0.077,-0.497C0.102,-0.548 0.136,-0.589 0.18,-0.619C0.224,-0.648 0.274,-0.663 0.33,-0.663C0.389,-0.663 0.441,-0.648 0.484,-0.619C0.527,-0.59 0.56,-0.549 0.583,-0.498C0.606,-0.447 0.617,-0.388 0.617,-0.323C0.617,-0.259 0.605,-0.201 0.58,-0.15C0.555,-0.098 0.521,-0.057 0.477,-0.027C0.432,0.003 0.382,0.018 0.327,0.018ZM0.327,-0.126C0.352,-0.126 0.373,-0.135 0.388,-0.153C0.403,-0.171 0.413,-0.195 0.42,-0.224C0.426,-0.253 0.429,-0.286 0.429,-0.323C0.429,-0.362 0.426,-0.395 0.421,-0.424C0.416,-0.453 0.406,-0.476 0.391,-0.493C0.376,-0.51 0.356,-0.519 0.33,-0.519C0.305,-0.519 0.285,-0.51 0.27,-0.493C0.255,-0.475 0.245,-0.452 0.239,-0.423C0.232,-0.394 0.229,-0.361 0.229,-0.324C0.229,-0.285 0.232,-0.251 0.237,-0.222C0.242,-0.193 0.252,-0.17 0.267,-0.153C0.281,-0.135 0.301,-0.126 0.327,-0.126Z" style="fill:rgb(24,13,30);fill-rule:nonzero;"/>
            </g>
            <g transform="matrix(178.891,0,0,178.891,823.991,517.391)">
                <path d="M0.446,0.013C0.427,0.013 0.409,0.01 0.395,0.003C0.38,-0.004 0.367,-0.012 0.356,-0.022C0.345,-0.031 0.332,-0.044 0.319,-0.059C0.308,-0.072 0.298,-0.082 0.29,-0.089C0.282,-0.096 0.273,-0.102 0.263,-0.108C0.253,-0.113 0.242,-0.115 0.23,-0.115C0.217,-0.115 0.208,-0.11 0.202,-0.1C0.195,-0.09 0.191,-0.077 0.19,-0.06C0.189,-0.043 0.189,-0.023 0.191,-0L0.034,-0C0.031,-0.061 0.04,-0.112 0.059,-0.153C0.078,-0.194 0.102,-0.226 0.13,-0.249C0.157,-0.272 0.193,-0.296 0.237,-0.322C0.266,-0.339 0.289,-0.353 0.305,-0.365C0.321,-0.376 0.334,-0.39 0.345,-0.406C0.356,-0.422 0.361,-0.441 0.361,-0.462C0.361,-0.474 0.359,-0.484 0.354,-0.493C0.349,-0.501 0.341,-0.507 0.332,-0.512C0.323,-0.517 0.312,-0.519 0.299,-0.519C0.284,-0.519 0.27,-0.515 0.258,-0.507C0.245,-0.499 0.235,-0.487 0.227,-0.471C0.219,-0.454 0.214,-0.433 0.213,-0.408L0.042,-0.458C0.05,-0.507 0.068,-0.547 0.095,-0.577C0.122,-0.607 0.153,-0.628 0.189,-0.641C0.225,-0.654 0.262,-0.66 0.299,-0.66C0.356,-0.66 0.404,-0.65 0.441,-0.63C0.478,-0.609 0.505,-0.583 0.523,-0.552C0.54,-0.521 0.548,-0.488 0.548,-0.453C0.548,-0.411 0.539,-0.377 0.52,-0.35C0.501,-0.323 0.478,-0.303 0.451,-0.289C0.424,-0.275 0.389,-0.26 0.346,-0.245C0.331,-0.24 0.315,-0.234 0.3,-0.228C0.284,-0.221 0.27,-0.215 0.258,-0.209C0.246,-0.202 0.236,-0.195 0.227,-0.187L0.233,-0.174C0.252,-0.181 0.269,-0.187 0.286,-0.191C0.302,-0.194 0.32,-0.196 0.34,-0.196C0.356,-0.196 0.371,-0.195 0.386,-0.194C0.401,-0.192 0.414,-0.19 0.426,-0.188C0.435,-0.187 0.445,-0.185 0.455,-0.184C0.464,-0.183 0.473,-0.182 0.481,-0.182C0.499,-0.182 0.515,-0.183 0.528,-0.185C0.541,-0.186 0.553,-0.189 0.564,-0.194L0.565,-0.194C0.569,-0.15 0.568,-0.113 0.562,-0.082C0.556,-0.051 0.544,-0.028 0.525,-0.012C0.506,0.005 0.48,0.013 0.446,0.013Z" style="fill:rgb(24,13,30);fill-rule:nonzero;"/>
            </g>
            <g transform="matrix(178.891,0,0,178.891,928.106,517.391)">
                <path d="M0.397,-0L0.034,-0L0.034,-0.103C0.071,-0.106 0.096,-0.108 0.108,-0.11C0.12,-0.112 0.128,-0.115 0.131,-0.12C0.134,-0.125 0.135,-0.133 0.135,-0.146L0.135,-0.498C0.112,-0.5 0.092,-0.502 0.075,-0.505C0.057,-0.507 0.04,-0.51 0.023,-0.514L0.023,-0.629C0.058,-0.627 0.092,-0.627 0.127,-0.63C0.162,-0.633 0.194,-0.637 0.225,-0.644C0.256,-0.65 0.285,-0.657 0.313,-0.665L0.313,-0.146C0.313,-0.133 0.314,-0.125 0.317,-0.12C0.319,-0.115 0.325,-0.112 0.335,-0.11C0.345,-0.108 0.366,-0.106 0.397,-0.103L0.397,-0Z" style="fill:rgb(24,13,30);fill-rule:nonzero;"/>
            </g>
        </g>
        <g transform="matrix(0.913705,0,0,0.913705,-347.695,-42.4286)">
            <g transform="matrix(22.4052,0,0,22.4052,664.757,207.909)">
                <path d="M0.07,-0.407L0.07,-0L0.162,-0C0.182,-0 0.182,-0.02 0.182,-0.02L0.182,-0.407L0.233,-0.407C0.252,-0.407 0.254,-0.413 0.254,-0.5L0.182,-0.5L0.182,-0.569C0.182,-0.625 0.215,-0.638 0.265,-0.638C0.282,-0.638 0.308,-0.637 0.333,-0.625C0.34,-0.644 0.344,-0.668 0.344,-0.686C0.344,-0.721 0.306,-0.738 0.244,-0.738C0.163,-0.738 0.07,-0.712 0.07,-0.557L0.07,-0.5L0.037,-0.5C0.01,-0.5 0.01,-0.494 0.01,-0.407L0.07,-0.407Z" style="fill:rgb(24,13,30);fill-rule:nonzero;"/>
            </g>
            <g transform="matrix(22.4052,0,0,22.4052,670.403,207.909)">
                <path d="M0.033,-0C0.147,-0 0.147,-0 0.147,-0.02L0.148,-0.387C0.161,-0.398 0.179,-0.403 0.191,-0.403C0.201,-0.403 0.214,-0.402 0.228,-0.395C0.237,-0.42 0.239,-0.447 0.239,-0.46C0.239,-0.494 0.226,-0.51 0.172,-0.51C0.116,-0.51 0.068,-0.489 0.033,-0.465L0.033,-0Z" style="fill:rgb(24,13,30);fill-rule:nonzero;"/>
            </g>
            <g transform="matrix(22.4052,0,0,22.4052,675.534,207.909)">
                <path d="M0.198,-0.51C0.104,-0.51 0.022,-0.468 0.022,-0.226C0.022,-0.036 0.086,0.01 0.177,0.01C0.255,0.01 0.319,-0.012 0.319,-0.052C0.319,-0.075 0.316,-0.107 0.31,-0.127C0.275,-0.11 0.24,-0.099 0.204,-0.099C0.156,-0.099 0.142,-0.127 0.139,-0.19C0.188,-0.191 0.263,-0.195 0.312,-0.205C0.322,-0.244 0.326,-0.299 0.326,-0.347C0.326,-0.463 0.278,-0.51 0.198,-0.51ZM0.183,-0.413C0.208,-0.413 0.217,-0.403 0.217,-0.339C0.217,-0.323 0.216,-0.299 0.212,-0.287C0.197,-0.28 0.166,-0.278 0.138,-0.278C0.141,-0.369 0.152,-0.413 0.183,-0.413Z" style="fill:rgb(24,13,30);fill-rule:nonzero;"/>
            </g>
            <g transform="matrix(22.4052,0,0,22.4052,683.062,207.909)">
                <path d="M0.198,-0.51C0.104,-0.51 0.022,-0.468 0.022,-0.226C0.022,-0.036 0.086,0.01 0.177,0.01C0.255,0.01 0.319,-0.012 0.319,-0.052C0.319,-0.075 0.316,-0.107 0.31,-0.127C0.275,-0.11 0.24,-0.099 0.204,-0.099C0.156,-0.099 0.142,-0.127 0.139,-0.19C0.188,-0.191 0.263,-0.195 0.312,-0.205C0.322,-0.244 0.326,-0.299 0.326,-0.347C0.326,-0.463 0.278,-0.51 0.198,-0.51ZM0.183,-0.413C0.208,-0.413 0.217,-0.403 0.217,-0.339C0.217,-0.323 0.216,-0.299 0.212,-0.287C0.197,-0.28 0.166,-0.278 0.138,-0.278C0.141,-0.369 0.152,-0.413 0.183,-0.413Z" style="fill:rgb(24,13,30);fill-rule:nonzero;"/>
            </g>
            <g transform="matrix(22.4052,0,0,22.4052,695.855,207.909)">
                <path d="M0.601,-0.614L0.601,-0.467L0.429,-0.597L0.429,-0.02L0.601,-0.124L0.601,0.02L0.3,0.204L0.3,-0.825L0.601,-0.614Z" style="fill:rgb(24,13,30);fill-rule:nonzero;"/>
            </g>
            <g transform="matrix(22.4052,0,0,22.4052,709.298,207.909)">
                <path d="M0.001,-0.467L0.001,-0.614L0.483,-0.275L0.001,0.02L0.001,-0.124L0.253,-0.276L0.001,-0.467Z" style="fill:rgb(24,13,30);fill-rule:nonzero;"/>
            </g>
            <g transform="matrix(22.4052,0,0,22.4052,727.782,207.909)">
                <path d="M0.095,-0.045C0.101,-0.017 0.113,0.005 0.142,0.005C0.163,0.005 0.2,0.004 0.223,-0L0.323,-0.5C0.208,-0.5 0.208,-0.5 0.205,-0.478L0.191,-0.356C0.181,-0.27 0.172,-0.117 0.172,-0.117L0.17,-0.117C0.17,-0.117 0.161,-0.27 0.15,-0.356L0.132,-0.5C0.004,-0.5 0.003,-0.5 0.01,-0.467L0.095,-0.045Z" style="fill:rgb(24,13,30);fill-rule:nonzero;"/>
            </g>
            <g transform="matrix(22.4052,0,0,22.4052,735.176,207.909)">
                <path d="M0.147,-0.5C0.055,-0.5 0.033,-0.5 0.033,-0.451L0.033,-0C0.146,-0 0.147,-0 0.147,-0.02L0.147,-0.5ZM0.038,-0.646C0.038,-0.583 0.059,-0.565 0.092,-0.565C0.131,-0.565 0.152,-0.597 0.152,-0.651C0.152,-0.705 0.14,-0.724 0.099,-0.724C0.057,-0.724 0.038,-0.692 0.038,-0.646Z" style="fill:rgb(24,13,30);fill-rule:nonzero;"/>
            </g>
            <g transform="matrix(22.4052,0,0,22.4052,739.209,207.909)">
                <path d="M0.033,-0C0.147,-0 0.147,-0 0.147,-0.02L0.148,-0.387C0.161,-0.398 0.179,-0.403 0.191,-0.403C0.201,-0.403 0.214,-0.402 0.228,-0.395C0.237,-0.42 0.239,-0.447 0.239,-0.46C0.239,-0.494 0.226,-0.51 0.172,-0.51C0.116,-0.51 0.068,-0.489 0.033,-0.465L0.033,-0Z" style="fill:rgb(24,13,30);fill-rule:nonzero;"/>
            </g>
            <g transform="matrix(22.4052,0,0,22.4052,744.788,207.909)">
                <path d="M0.069,-0.131C0.069,-0.042 0.085,0.01 0.173,0.01C0.211,0.01 0.264,0.004 0.264,-0.044C0.264,-0.066 0.26,-0.084 0.257,-0.098C0.238,-0.089 0.223,-0.085 0.205,-0.085C0.181,-0.085 0.181,-0.11 0.181,-0.133L0.181,-0.405L0.241,-0.405C0.262,-0.405 0.263,-0.414 0.263,-0.5L0.181,-0.5L0.181,-0.68C0.091,-0.68 0.069,-0.68 0.069,-0.645L0.069,-0.5L0.032,-0.5C0.01,-0.5 0.009,-0.49 0.009,-0.405L0.069,-0.405L0.069,-0.131Z" style="fill:rgb(24,13,30);fill-rule:nonzero;"/>
            </g>
            <g transform="matrix(22.4052,0,0,22.4052,750.927,207.909)">
                <path d="M0.328,-0.5C0.214,-0.5 0.216,-0.5 0.216,-0.48L0.216,-0.099C0.205,-0.089 0.191,-0.086 0.178,-0.086C0.15,-0.086 0.145,-0.102 0.145,-0.133L0.145,-0.5C0.028,-0.5 0.029,-0.5 0.029,-0.48L0.029,-0.14C0.029,-0.046 0.06,0.01 0.18,0.01C0.24,0.01 0.296,-0.009 0.328,-0.028L0.328,-0.5Z" style="fill:rgb(24,13,30);fill-rule:nonzero;"/>
            </g>
            <g transform="matrix(22.4052,0,0,22.4052,759.015,207.909)">
                <path d="M0.022,-0.446C0.022,-0.43 0.025,-0.404 0.037,-0.381C0.07,-0.393 0.12,-0.402 0.157,-0.402C0.188,-0.402 0.199,-0.391 0.199,-0.365L0.199,-0.296C0.181,-0.308 0.15,-0.311 0.135,-0.311C0.076,-0.311 0.02,-0.283 0.02,-0.146C0.02,-0.007 0.088,0.01 0.162,0.01C0.222,0.01 0.272,-0.002 0.306,-0.022C0.311,-0.096 0.311,-0.226 0.311,-0.341L0.311,-0.388C0.311,-0.478 0.277,-0.51 0.185,-0.51C0.105,-0.51 0.05,-0.492 0.036,-0.481C0.027,-0.474 0.022,-0.458 0.022,-0.446ZM0.199,-0.221C0.199,-0.179 0.199,-0.114 0.197,-0.092C0.191,-0.085 0.179,-0.082 0.17,-0.082C0.145,-0.082 0.138,-0.101 0.138,-0.149C0.138,-0.213 0.151,-0.229 0.173,-0.229C0.181,-0.229 0.192,-0.227 0.199,-0.221Z" style="fill:rgb(24,13,30);fill-rule:nonzero;"/>
            </g>
            <g transform="matrix(22.4052,0,0,22.4052,766.588,207.909)">
                <path d="M0.145,-0.735C0.054,-0.735 0.033,-0.735 0.033,-0.686L0.033,-0C0.145,-0 0.145,-0 0.145,-0.02L0.145,-0.735Z" style="fill:rgb(24,13,30);fill-rule:nonzero;"/>
            </g>
            <g transform="matrix(22.4052,0,0,22.4052,780.659,207.909)">
                <path d="M0.601,-0.614L0.601,-0.467L0.429,-0.597L0.429,-0.02L0.601,-0.124L0.601,0.02L0.3,0.204L0.3,-0.825L0.601,-0.614Z" style="fill:rgb(24,13,30);fill-rule:nonzero;"/>
            </g>
            <g transform="matrix(22.4052,0,0,22.4052,794.102,207.909)">
                <path d="M0.001,-0.467L0.001,-0.614L0.483,-0.275L0.001,0.02L0.001,-0.124L0.253,-0.276L0.001,-0.467Z" style="fill:rgb(24,13,30);fill-rule:nonzero;"/>
            </g>
            <g transform="matrix(22.4052,0,0,22.4052,812.586,207.909)">
                <path d="M0.015,-0.251C0.015,-0.027 0.065,0.01 0.173,0.01C0.281,0.01 0.337,-0.062 0.337,-0.255C0.337,-0.457 0.288,-0.51 0.181,-0.51C0.075,-0.51 0.015,-0.432 0.015,-0.251ZM0.138,-0.252C0.138,-0.394 0.155,-0.414 0.177,-0.414C0.206,-0.414 0.214,-0.396 0.214,-0.252C0.214,-0.098 0.195,-0.083 0.176,-0.083C0.151,-0.083 0.138,-0.096 0.138,-0.252Z" style="fill:rgb(24,13,30);fill-rule:nonzero;"/>
            </g>
            <g transform="matrix(22.4052,0,0,22.4052,820.45,207.909)">
                <path d="M0.033,-0C0.143,-0 0.145,-0 0.145,-0.02L0.145,-0.402C0.156,-0.41 0.17,-0.414 0.183,-0.414C0.211,-0.414 0.216,-0.398 0.216,-0.346L0.216,-0C0.329,-0 0.332,-0 0.332,-0.02L0.332,-0.381C0.332,-0.481 0.289,-0.51 0.188,-0.51C0.138,-0.51 0.064,-0.492 0.033,-0.477L0.033,-0Z" style="fill:rgb(24,13,30);fill-rule:nonzero;"/>
            </g>
            <g transform="matrix(22.4052,0,0,22.4052,828.539,207.909)">
                <path d="M0.145,-0.735C0.054,-0.735 0.033,-0.735 0.033,-0.686L0.033,-0C0.145,-0 0.145,-0 0.145,-0.02L0.145,-0.735Z" style="fill:rgb(24,13,30);fill-rule:nonzero;"/>
            </g>
            <g transform="matrix(22.4052,0,0,22.4052,832.527,207.909)">
                <path d="M0.147,-0.5C0.055,-0.5 0.033,-0.5 0.033,-0.451L0.033,-0C0.146,-0 0.147,-0 0.147,-0.02L0.147,-0.5ZM0.038,-0.646C0.038,-0.583 0.059,-0.565 0.092,-0.565C0.131,-0.565 0.152,-0.597 0.152,-0.651C0.152,-0.705 0.14,-0.724 0.099,-0.724C0.057,-0.724 0.038,-0.692 0.038,-0.646Z" style="fill:rgb(24,13,30);fill-rule:nonzero;"/>
            </g>
            <g transform="matrix(22.4052,0,0,22.4052,836.56,207.909)">
                <path d="M0.033,-0C0.143,-0 0.145,-0 0.145,-0.02L0.145,-0.402C0.156,-0.41 0.17,-0.414 0.183,-0.414C0.211,-0.414 0.216,-0.398 0.216,-0.346L0.216,-0C0.329,-0 0.332,-0 0.332,-0.02L0.332,-0.381C0.332,-0.481 0.289,-0.51 0.188,-0.51C0.138,-0.51 0.064,-0.492 0.033,-0.477L0.033,-0Z" style="fill:rgb(24,13,30);fill-rule:nonzero;"/>
            </g>
            <g transform="matrix(22.4052,0,0,22.4052,844.648,207.909)">
                <path d="M0.198,-0.51C0.104,-0.51 0.022,-0.468 0.022,-0.226C0.022,-0.036 0.086,0.01 0.177,0.01C0.255,0.01 0.319,-0.012 0.319,-0.052C0.319,-0.075 0.316,-0.107 0.31,-0.127C0.275,-0.11 0.24,-0.099 0.204,-0.099C0.156,-0.099 0.142,-0.127 0.139,-0.19C0.188,-0.191 0.263,-0.195 0.312,-0.205C0.322,-0.244 0.326,-0.299 0.326,-0.347C0.326,-0.463 0.278,-0.51 0.198,-0.51ZM0.183,-0.413C0.208,-0.413 0.217,-0.403 0.217,-0.339C0.217,-0.323 0.216,-0.299 0.212,-0.287C0.197,-0.28 0.166,-0.278 0.138,-0.278C0.141,-0.369 0.152,-0.413 0.183,-0.413Z" style="fill:rgb(24,13,30);fill-rule:nonzero;"/>
            </g>
            <g transform="matrix(22.4052,0,0,22.4052,862.483,207.909)">
                <path d="M0.601,-0.614L0.601,-0.467L0.429,-0.597L0.429,-0.02L0.601,-0.124L0.601,0.02L0.3,0.204L0.3,-0.825L0.601,-0.614Z" style="fill:rgb(24,13,30);fill-rule:nonzero;"/>
            </g>
            <g transform="matrix(22.4052,0,0,22.4052,875.926,207.909)">
                <path d="M0.001,-0.467L0.001,-0.614L0.483,-0.275L0.001,0.02L0.001,-0.124L0.253,-0.276L0.001,-0.467Z" style="fill:rgb(24,13,30);fill-rule:nonzero;"/>
            </g>
            <g transform="matrix(22.4052,0,0,22.4052,894.41,207.909)">
                <path d="M0.198,-0.51C0.104,-0.51 0.022,-0.468 0.022,-0.226C0.022,-0.036 0.086,0.01 0.177,0.01C0.255,0.01 0.319,-0.012 0.319,-0.052C0.319,-0.075 0.316,-0.107 0.31,-0.127C0.275,-0.11 0.24,-0.099 0.204,-0.099C0.156,-0.099 0.142,-0.127 0.139,-0.19C0.188,-0.191 0.263,-0.195 0.312,-0.205C0.322,-0.244 0.326,-0.299 0.326,-0.347C0.326,-0.463 0.278,-0.51 0.198,-0.51ZM0.183,-0.413C0.208,-0.413 0.217,-0.403 0.217,-0.339C0.217,-0.323 0.216,-0.299 0.212,-0.287C0.197,-0.28 0.166,-0.278 0.138,-0.278C0.141,-0.369 0.152,-0.413 0.183,-0.413Z" style="fill:rgb(24,13,30);fill-rule:nonzero;"/>
            </g>
            <g transform="matrix(22.4052,0,0,22.4052,902.162,207.909)">
                <path d="M0.095,-0.045C0.101,-0.017 0.113,0.005 0.142,0.005C0.163,0.005 0.2,0.004 0.223,-0L0.323,-0.5C0.208,-0.5 0.208,-0.5 0.205,-0.478L0.191,-0.356C0.181,-0.27 0.172,-0.117 0.172,-0.117L0.17,-0.117C0.17,-0.117 0.161,-0.27 0.15,-0.356L0.132,-0.5C0.004,-0.5 0.003,-0.5 0.01,-0.467L0.095,-0.045Z" style="fill:rgb(24,13,30);fill-rule:nonzero;"/>
            </g>
            <g transform="matrix(22.4052,0,0,22.4052,909.018,207.909)">
                <path d="M0.198,-0.51C0.104,-0.51 0.022,-0.468 0.022,-0.226C0.022,-0.036 0.086,0.01 0.177,0.01C0.255,0.01 0.319,-0.012 0.319,-0.052C0.319,-0.075 0.316,-0.107 0.31,-0.127C0.275,-0.11 0.24,-0.099 0.204,-0.099C0.156,-0.099 0.142,-0.127 0.139,-0.19C0.188,-0.191 0.263,-0.195 0.312,-0.205C0.322,-0.244 0.326,-0.299 0.326,-0.347C0.326,-0.463 0.278,-0.51 0.198,-0.51ZM0.183,-0.413C0.208,-0.413 0.217,-0.403 0.217,-0.339C0.217,-0.323 0.216,-0.299 0.212,-0.287C0.197,-0.28 0.166,-0.278 0.138,-0.278C0.141,-0.369 0.152,-0.413 0.183,-0.413Z" style="fill:rgb(24,13,30);fill-rule:nonzero;"/>
            </g>
            <g transform="matrix(22.4052,0,0,22.4052,916.77,207.909)">
                <path d="M0.033,-0C0.147,-0 0.147,-0 0.147,-0.02L0.148,-0.387C0.161,-0.398 0.179,-0.403 0.191,-0.403C0.201,-0.403 0.214,-0.402 0.228,-0.395C0.237,-0.42 0.239,-0.447 0.239,-0.46C0.239,-0.494 0.226,-0.51 0.172,-0.51C0.116,-0.51 0.068,-0.489 0.033,-0.465L0.033,-0Z" style="fill:rgb(24,13,30);fill-rule:nonzero;"/>
            </g>
            <g transform="matrix(22.4052,0,0,22.4052,922.349,207.909)">
                <path d="M0.121,0.016C0.114,0.081 0.095,0.099 0.071,0.099C0.042,0.099 0.015,0.091 0.003,0.082C-0.006,0.097 -0.011,0.123 -0.011,0.143C-0.011,0.171 0.007,0.193 0.081,0.193C0.162,0.193 0.195,0.154 0.223,0.023L0.335,-0.5C0.222,-0.5 0.22,-0.5 0.216,-0.469L0.197,-0.327C0.185,-0.243 0.177,-0.137 0.176,-0.127C0.174,-0.142 0.165,-0.246 0.151,-0.327L0.122,-0.5C0.005,-0.5 0.005,-0.5 0.012,-0.471L0.121,0.016Z" style="fill:rgb(24,13,30);fill-rule:nonzero;"/>
            </g>
            <g transform="matrix(22.4052,0,0,22.4052,929.967,207.909)">
                <path d="M0.006,-0.479C0.006,-0.479 0.066,-0.163 0.093,-0.044C0.099,-0.017 0.112,0.005 0.139,0.005C0.179,0.005 0.236,-0 0.236,-0L0.254,-0.111C0.26,-0.15 0.265,-0.205 0.268,-0.257C0.27,-0.205 0.275,-0.15 0.281,-0.111L0.291,-0.045C0.297,-0.008 0.325,0.005 0.348,0.005C0.4,0.005 0.421,-0 0.421,-0C0.428,-0 0.521,-0.5 0.521,-0.5C0.42,-0.5 0.416,-0.5 0.413,-0.478L0.398,-0.36C0.389,-0.292 0.383,-0.192 0.38,-0.122L0.372,-0.122C0.372,-0.122 0.367,-0.224 0.36,-0.267L0.326,-0.49L0.252,-0.49C0.222,-0.49 0.219,-0.487 0.216,-0.468L0.189,-0.267C0.182,-0.218 0.18,-0.151 0.178,-0.122L0.17,-0.122C0.17,-0.122 0.162,-0.263 0.149,-0.36L0.13,-0.5C0.013,-0.5 0.003,-0.5 0.006,-0.479Z" style="fill:rgb(24,13,30);fill-rule:nonzero;"/>
            </g>
            <g transform="matrix(22.4052,0,0,22.4052,941.752,207.909)">
                <path d="M0.033,-0C0.145,-0 0.145,-0 0.145,-0.02L0.145,-0.395C0.159,-0.404 0.172,-0.407 0.184,-0.407C0.214,-0.407 0.216,-0.376 0.216,-0.346L0.216,-0C0.325,-0 0.332,-0 0.332,-0.02L0.332,-0.381C0.332,-0.466 0.317,-0.51 0.24,-0.51C0.207,-0.51 0.168,-0.498 0.145,-0.475L0.145,-0.735C0.053,-0.735 0.033,-0.735 0.033,-0.686L0.033,-0Z" style="fill:rgb(24,13,30);fill-rule:nonzero;"/>
            </g>
            <g transform="matrix(22.4052,0,0,22.4052,949.841,207.909)">
                <path d="M0.198,-0.51C0.104,-0.51 0.022,-0.468 0.022,-0.226C0.022,-0.036 0.086,0.01 0.177,0.01C0.255,0.01 0.319,-0.012 0.319,-0.052C0.319,-0.075 0.316,-0.107 0.31,-0.127C0.275,-0.11 0.24,-0.099 0.204,-0.099C0.156,-0.099 0.142,-0.127 0.139,-0.19C0.188,-0.191 0.263,-0.195 0.312,-0.205C0.322,-0.244 0.326,-0.299 0.326,-0.347C0.326,-0.463 0.278,-0.51 0.198,-0.51ZM0.183,-0.413C0.208,-0.413 0.217,-0.403 0.217,-0.339C0.217,-0.323 0.216,-0.299 0.212,-0.287C0.197,-0.28 0.166,-0.278 0.138,-0.278C0.141,-0.369 0.152,-0.413 0.183,-0.413Z" style="fill:rgb(24,13,30);fill-rule:nonzero;"/>
            </g>
            <g transform="matrix(22.4052,0,0,22.4052,957.593,207.909)">
                <path d="M0.033,-0C0.147,-0 0.147,-0 0.147,-0.02L0.148,-0.387C0.161,-0.398 0.179,-0.403 0.191,-0.403C0.201,-0.403 0.214,-0.402 0.228,-0.395C0.237,-0.42 0.239,-0.447 0.239,-0.46C0.239,-0.494 0.226,-0.51 0.172,-0.51C0.116,-0.51 0.068,-0.489 0.033,-0.465L0.033,-0Z" style="fill:rgb(24,13,30);fill-rule:nonzero;"/>
            </g>
            <g transform="matrix(22.4052,0,0,22.4052,962.724,207.909)">
                <path d="M0.198,-0.51C0.104,-0.51 0.022,-0.468 0.022,-0.226C0.022,-0.036 0.086,0.01 0.177,0.01C0.255,0.01 0.319,-0.012 0.319,-0.052C0.319,-0.075 0.316,-0.107 0.31,-0.127C0.275,-0.11 0.24,-0.099 0.204,-0.099C0.156,-0.099 0.142,-0.127 0.139,-0.19C0.188,-0.191 0.263,-0.195 0.312,-0.205C0.322,-0.244 0.326,-0.299 0.326,-0.347C0.326,-0.463 0.278,-0.51 0.198,-0.51ZM0.183,-0.413C0.208,-0.413 0.217,-0.403 0.217,-0.339C0.217,-0.323 0.216,-0.299 0.212,-0.287C0.197,-0.28 0.166,-0.278 0.138,-0.278C0.141,-0.369 0.152,-0.413 0.183,-0.413Z" style="fill:rgb(24,13,30);fill-rule:nonzero;"/>
            </g>
        </g>
    </g>
</svg>
