<?xml version="1.0" encoding="UTF-8"?>
<svg xmlns="http://www.w3.org/2000/svg" xmlns:xlink="http://www.w3.org/1999/xlink" width="500pt" height="500pt" viewBox="0 0 500 500" version="1.1">
<g id="surface1167818">
<path style=" stroke:none;fill-rule:nonzero;fill:rgb(10%,3%,3%);fill-opacity:1;" d="M 33.492188 375 L 33.492188 125 L 250 0 L 466.507812 125 L 466.507812 375 L 250 500 Z M 33.492188 375 "/>
<path style=" stroke:none;fill-rule:nonzero;fill:rgb(22%,59.6%,14.9%);fill-opacity:1;" d="M 327.175781 407.769531 L 343.617188 400.691406 L 351.871094 396.984375 L 360.023438 393.039062 L 367.964844 388.738281 L 371.824219 386.429688 L 375.601562 384 L 379.273438 381.425781 L 382.835938 378.707031 L 386.269531 375.820312 L 389.574219 372.769531 L 392.390625 369.851562 L 395.085938 366.820312 L 397.648438 363.671875 L 400.082031 360.421875 L 402.367188 357.066406 L 404.523438 353.625 L 406.527344 350.09375 L 408.398438 346.488281 L 410.109375 342.800781 L 411.675781 339.054688 L 413.089844 335.246094 L 414.347656 331.390625 L 415.445312 327.480469 L 416.386719 323.539062 L 417.160156 319.5625 L 417.777344 315.566406 L 418.351562 309.664062 L 418.585938 303.757812 L 418.480469 297.847656 L 418.0625 291.960938 L 417.324219 286.09375 L 416.28125 280.269531 L 414.941406 274.496094 L 413.324219 268.792969 L 411.421875 263.160156 L 409.257812 257.617188 L 406.832031 252.175781 L 404.160156 246.855469 L 401.242188 241.65625 L 398.105469 236.605469 L 394.742188 231.699219 L 391.175781 226.96875 L 387.398438 222.398438 L 383.4375 218.003906 L 379.296875 213.773438 L 374.996094 209.71875 L 370.527344 205.832031 L 365.914062 202.121094 L 361.15625 198.578125 L 356.273438 195.214844 L 351.257812 192.015625 L 346.136719 188.996094 L 340.910156 186.148438 L 335.597656 183.480469 L 330.191406 180.980469 L 324.714844 178.667969 L 319.171875 176.527344 L 313.574219 174.566406 L 307.925781 172.765625 L 302.234375 171.125 L 296.5 169.632812 L 290.734375 168.289062 L 279.101562 166.019531 L 267.371094 164.289062 L 255.5625 163.046875 L 243.707031 162.273438 L 231.835938 161.921875 L 219.976562 161.96875 L 213.640625 162.109375 L 207.273438 162.089844 L 200.902344 161.652344 L 197.726562 161.203125 L 194.574219 160.566406 L 191.511719 159.675781 L 188.527344 158.503906 L 185.660156 157.058594 L 182.972656 155.339844 L 180.5 153.34375 L 178.316406 151.085938 L 176.453125 148.558594 L 174.976562 145.769531 L 174.03125 143.171875 L 173.429688 140.503906 L 173.128906 137.78125 L 173.101562 135.039062 L 173.304688 132.28125 L 173.710938 129.535156 L 174.976562 124.167969 L 176.824219 118.664062 L 179.144531 113.363281 L 181.890625 108.277344 L 185.050781 103.433594 L 188.578125 98.84375 L 192.460938 94.546875 L 196.65625 90.554688 L 201.148438 86.890625 L 205.890625 83.566406 L 210.867188 80.621094 L 216.046875 78.0625 L 221.40625 75.929688 L 226.898438 74.226562 L 232.515625 72.984375 L 238.214844 72.222656 L 243.976562 71.96875 L 248.308594 72.097656 L 252.617188 72.484375 L 256.886719 73.117188 L 261.125 73.984375 L 265.3125 75.070312 L 269.457031 76.371094 L 273.539062 77.871094 L 277.570312 79.566406 L 281.523438 81.429688 L 285.414062 83.464844 L 289.226562 85.652344 L 292.964844 87.996094 L 296.609375 90.460938 L 300.164062 93.054688 L 306.976562 98.566406 L 313.398438 104.429688 L 319.523438 110.609375 L 325.386719 117.035156 L 331.046875 123.667969 L 336.539062 130.441406 L 341.929688 137.320312 L 352.574219 151.167969 L 366.46875 169.109375 L 373.394531 178.097656 L 380.222656 187.164062 L 386.875 196.335938 L 393.296875 205.667969 L 399.414062 215.199219 L 405.175781 224.96875 L 410.480469 235.023438 L 412.9375 240.167969 L 415.253906 245.386719 L 417.410156 250.660156 L 419.402344 256 L 421.21875 261.390625 L 422.847656 266.839844 L 424.269531 272.320312 L 425.488281 277.847656 L 426.480469 283.410156 L 427.25 289.003906 L 427.769531 294.617188 L 428.039062 300.253906 L 428.042969 305.902344 L 427.777344 311.566406 L 427.367188 316.101562 L 426.761719 320.632812 L 425.949219 325.140625 L 424.9375 329.621094 L 423.714844 334.050781 L 422.300781 338.429688 L 420.683594 342.734375 L 418.875 346.964844 L 416.859375 351.089844 L 414.652344 355.117188 L 412.246094 359.027344 L 409.65625 362.808594 L 406.867188 366.441406 L 403.890625 369.921875 L 400.726562 373.230469 L 397.375 376.367188 L 393.480469 379.691406 L 389.542969 382.789062 L 385.550781 385.660156 L 381.507812 388.328125 L 377.394531 390.789062 L 373.222656 393.066406 L 368.980469 395.160156 L 364.671875 397.09375 L 360.277344 398.859375 L 355.8125 400.484375 L 346.632812 403.339844 L 337.09375 405.738281 L 327.175781 407.769531 "/>
<path style=" stroke:none;fill-rule:nonzero;fill:rgb(58.4%,34.5%,69.8%);fill-opacity:1;" d="M 400.777344 269.769531 L 398.523438 265.269531 L 395.976562 260.769531 L 393.289062 256.925781 L 390.214844 253.289062 L 386.789062 249.988281 L 384.960938 248.503906 L 383.070312 247.164062 L 381.101562 245.960938 L 379.082031 244.933594 L 377 244.082031 L 374.875 243.4375 L 372.699219 243 L 370.492188 242.804688 L 368.246094 242.851562 L 365.976562 243.167969 L 363.964844 243.675781 L 362.054688 244.378906 L 360.242188 245.257812 L 358.53125 246.304688 L 356.898438 247.492188 L 355.355469 248.824219 L 352.496094 251.816406 L 349.902344 255.160156 L 347.546875 258.742188 L 345.382812 262.449219 L 343.375 266.167969 L 337.359375 277.152344 L 331.15625 288.039062 L 324.707031 298.769531 L 317.972656 309.3125 L 310.890625 319.605469 L 303.433594 329.613281 L 295.542969 339.277344 L 291.417969 343.96875 L 287.175781 348.566406 L 282.792969 353.042969 L 278.277344 357.398438 L 273.632812 361.617188 L 268.867188 365.695312 L 263.964844 369.609375 L 258.949219 373.363281 L 253.816406 376.933594 L 248.570312 380.316406 L 243.203125 383.492188 L 237.734375 386.457031 L 232.152344 389.199219 L 226.476562 391.707031 L 220.691406 393.964844 L 214.8125 395.972656 L 208.835938 397.707031 L 202.777344 399.167969 L 196.964844 400.234375 L 191.105469 400.984375 L 185.207031 401.40625 L 179.292969 401.515625 L 173.375 401.296875 L 167.480469 400.765625 L 161.621094 399.917969 L 155.820312 398.765625 L 150.078125 397.292969 L 144.429688 395.523438 L 138.886719 393.441406 L 133.472656 391.0625 L 128.1875 388.378906 L 123.066406 385.402344 L 118.121094 382.128906 L 113.375 378.566406 L 110.101562 375.816406 L 106.996094 372.953125 L 104.054688 369.976562 L 101.289062 366.890625 L 98.675781 363.695312 L 96.226562 360.40625 L 93.933594 357.023438 L 91.804688 353.558594 L 89.816406 350 L 87.984375 346.371094 L 86.300781 342.667969 L 84.765625 338.898438 L 83.371094 335.0625 L 82.125 331.179688 L 80.046875 323.265625 L 78.5 315.183594 L 77.484375 306.988281 L 76.96875 298.714844 L 76.949219 290.417969 L 77.390625 282.125 L 78.292969 273.894531 L 79.621094 265.757812 L 81.375 257.769531 L 78.613281 263.386719 L 76.195312 268.992188 L 74.101562 274.574219 L 72.335938 280.140625 L 70.878906 285.664062 L 69.738281 291.160156 L 68.898438 296.609375 L 68.363281 302.015625 L 68.105469 307.359375 L 68.140625 312.648438 L 68.445312 317.871094 L 69.03125 323.027344 L 69.867188 328.101562 L 70.96875 333.097656 L 72.320312 338 L 73.921875 342.816406 L 75.75 347.519531 L 77.816406 352.128906 L 80.105469 356.621094 L 82.613281 361.003906 L 85.332031 365.257812 L 88.257812 369.386719 L 91.382812 373.378906 L 94.703125 377.238281 L 98.199219 380.941406 L 101.882812 384.503906 L 105.738281 387.902344 L 109.761719 391.144531 L 113.9375 394.214844 L 118.273438 397.113281 L 122.75 399.832031 L 127.375 402.367188 L 131.859375 404.570312 L 136.394531 406.546875 L 140.976562 408.304688 L 145.613281 409.851562 L 150.277344 411.191406 L 154.984375 412.34375 L 159.726562 413.308594 L 164.507812 414.105469 L 169.308594 414.722656 L 174.136719 415.1875 L 183.871094 415.675781 L 193.671875 415.636719 L 203.523438 415.140625 L 213.386719 414.253906 L 223.261719 413.054688 L 233.101562 411.605469 L 242.90625 409.984375 L 262.269531 406.5 L 281.175781 403.167969 L 292.117188 401.339844 L 303.023438 399.363281 L 313.851562 397.089844 L 324.574219 394.367188 L 329.699219 392.863281 L 334.804688 391.214844 L 339.863281 389.40625 L 344.875 387.445312 L 349.804688 385.308594 L 354.648438 383.003906 L 359.382812 380.523438 L 364 377.863281 L 368.472656 375.003906 L 372.792969 371.964844 L 376.9375 368.722656 L 380.90625 365.28125 L 384.660156 361.625 L 388.207031 357.757812 L 391.511719 353.671875 L 394.574219 349.367188 L 397.335938 344.957031 L 399.792969 340.371094 L 401.929688 335.632812 L 403.753906 330.765625 L 405.257812 325.785156 L 406.445312 320.714844 L 407.316406 315.574219 L 407.871094 310.390625 L 408.101562 305.171875 L 408.015625 299.957031 L 407.613281 294.753906 L 406.890625 289.597656 L 405.84375 284.496094 L 404.476562 279.476562 L 402.785156 274.558594 L 400.777344 269.769531 "/>
<path style=" stroke:none;fill-rule:nonzero;fill:rgb(79.6%,23.5%,20%);fill-opacity:1;" d="M 321.976562 95.769531 L 316.503906 91.550781 L 310.902344 87.480469 L 305.167969 83.589844 L 299.296875 79.914062 L 293.277344 76.476562 L 287.125 73.316406 L 280.820312 70.46875 L 274.375 67.96875 L 268.78125 66.175781 L 263.125 64.785156 L 257.421875 63.789062 L 251.695312 63.183594 L 245.953125 62.953125 L 240.226562 63.105469 L 234.523438 63.621094 L 228.875 64.515625 L 223.28125 65.757812 L 217.777344 67.363281 L 212.375 69.316406 L 207.097656 71.621094 L 201.953125 74.257812 L 196.976562 77.234375 L 192.175781 80.535156 L 187.574219 84.167969 L 183.617188 87.671875 L 179.859375 91.375 L 176.296875 95.25 L 172.929688 99.304688 L 169.75 103.507812 L 166.761719 107.863281 L 163.960938 112.347656 L 161.347656 116.964844 L 158.910156 121.683594 L 156.667969 126.507812 L 154.605469 131.417969 L 152.726562 136.417969 L 151.019531 141.476562 L 149.496094 146.597656 L 148.144531 151.765625 L 146.976562 156.96875 L 146.019531 162.035156 L 145.226562 167.121094 L 144.578125 172.214844 L 144.085938 177.324219 L 143.53125 187.554688 L 143.542969 197.804688 L 144.089844 208.046875 L 145.164062 218.273438 L 146.730469 228.457031 L 148.773438 238.589844 L 151.261719 248.640625 L 154.179688 258.609375 L 157.5 268.46875 L 161.203125 278.210938 L 165.261719 287.804688 L 169.660156 297.238281 L 174.371094 306.496094 L 179.375 315.566406 L 183.152344 322.144531 L 186.824219 328.765625 L 188.53125 332.117188 L 190.117188 335.53125 L 191.542969 339.003906 L 192.777344 342.566406 L 193.753906 346.21875 L 194.425781 349.96875 L 194.753906 353.75 L 194.726562 357.539062 L 194.292969 361.273438 L 193.445312 364.921875 L 192.144531 368.433594 L 190.375 371.769531 L 188.296875 374.671875 L 185.863281 377.25 L 183.117188 379.507812 L 180.121094 381.464844 L 176.910156 383.113281 L 173.550781 384.476562 L 170.082031 385.554688 L 166.574219 386.367188 L 163.035156 386.871094 L 159.488281 387.128906 L 155.933594 387.144531 L 152.394531 386.929688 L 148.867188 386.480469 L 145.378906 385.820312 L 141.921875 384.941406 L 138.523438 383.867188 L 135.175781 382.582031 L 131.90625 381.117188 L 128.714844 379.464844 L 125.621094 377.648438 L 122.625 375.65625 L 119.746094 373.507812 L 116.988281 371.207031 L 114.375 368.769531 L 111.882812 366.195312 L 109.53125 363.515625 L 107.304688 360.726562 L 105.214844 357.847656 L 103.246094 354.871094 L 101.410156 351.820312 L 98.125 345.492188 L 95.335938 338.902344 L 93.054688 332.117188 L 91.265625 325.1875 L 89.976562 318.167969 L 89.066406 311.085938 L 88.574219 303.96875 L 88.453125 296.820312 L 88.675781 289.664062 L 89.191406 282.5 L 89.972656 275.355469 L 90.976562 268.238281 L 92.175781 261.167969 L 93.445312 254.617188 L 94.871094 248.105469 L 98.132812 235.175781 L 101.898438 222.375 L 106.121094 209.714844 L 110.730469 197.175781 L 115.679688 184.773438 L 120.910156 172.5 L 126.375 160.367188 L 131.492188 149.398438 L 136.867188 138.480469 L 142.574219 127.703125 L 148.699219 117.164062 L 151.9375 112.007812 L 155.3125 106.957031 L 158.832031 102.011719 L 162.511719 97.195312 L 166.351562 92.503906 L 170.371094 87.964844 L 174.574219 83.578125 L 178.976562 79.367188 L 182.949219 75.875 L 187.078125 72.628906 L 191.34375 69.617188 L 195.75 66.859375 L 200.273438 64.339844 L 204.910156 62.085938 L 209.652344 60.09375 L 214.496094 58.367188 L 219.417969 56.90625 L 224.421875 55.726562 L 229.492188 54.828125 L 234.628906 54.222656 L 239.808594 53.902344 L 245.035156 53.886719 L 250.289062 54.171875 L 255.574219 54.769531 L 260.570312 55.667969 L 265.453125 56.859375 L 270.210938 58.320312 L 274.859375 60.050781 L 279.382812 62.019531 L 283.800781 64.226562 L 288.101562 66.644531 L 292.296875 69.269531 L 296.371094 72.078125 L 300.34375 75.0625 L 304.207031 78.199219 L 307.96875 81.488281 L 311.617188 84.898438 L 315.171875 88.429688 L 321.976562 95.769531 "/>
<path style=" stroke:none;fill-rule:nonzero;fill:rgb(100%,100%,100%);fill-opacity:1;" d="M 231.574219 455.460938 C 231.574219 456.96875 231.40625 458.1875 231.066406 459.113281 C 230.726562 460.039062 230.246094 460.761719 229.617188 461.273438 C 228.992188 461.785156 228.242188 462.128906 227.371094 462.300781 C 226.496094 462.472656 225.523438 462.5625 224.453125 462.5625 C 223.003906 462.5625 221.898438 462.335938 221.128906 461.882812 C 220.359375 461.429688 219.976562 460.886719 219.976562 460.253906 C 219.976562 459.726562 220.191406 459.28125 220.621094 458.921875 C 221.050781 458.558594 221.625 458.378906 222.351562 458.378906 C 222.894531 458.378906 223.328125 458.527344 223.648438 458.820312 C 223.972656 459.113281 224.242188 459.402344 224.453125 459.691406 C 224.695312 460.007812 224.898438 460.21875 225.0625 460.324219 C 225.230469 460.429688 225.378906 460.480469 225.515625 460.480469 C 225.800781 460.480469 226.019531 460.3125 226.171875 459.972656 C 226.320312 459.632812 226.398438 458.972656 226.398438 457.996094 L 226.398438 439.410156 L 231.574219 437.984375 Z M 238.949219 438.484375 L 238.949219 450.441406 C 238.949219 450.773438 239.011719 451.085938 239.140625 451.382812 C 239.269531 451.675781 239.445312 451.929688 239.671875 452.140625 C 239.898438 452.351562 240.160156 452.519531 240.460938 452.648438 C 240.765625 452.777344 241.089844 452.839844 241.433594 452.839844 C 241.828125 452.839844 242.273438 452.621094 242.8125 452.242188 C 243.671875 451.640625 244.191406 451.226562 244.191406 450.738281 C 244.191406 450.621094 244.191406 438.484375 244.191406 438.484375 L 249.347656 438.484375 L 249.347656 455.460938 L 244.191406 455.460938 L 244.191406 453.878906 C 243.515625 454.453125 242.792969 454.910156 242.023438 455.257812 C 241.253906 455.605469 240.507812 455.777344 239.785156 455.777344 C 238.941406 455.777344 238.15625 455.640625 237.433594 455.359375 C 236.710938 455.082031 236.078125 454.699219 235.535156 454.21875 C 234.992188 453.738281 234.566406 453.171875 234.257812 452.523438 C 233.949219 451.875 233.792969 451.179688 233.792969 450.441406 L 233.792969 438.484375 Z M 256.578125 455.460938 L 251.445312 455.460938 L 251.445312 431.65625 L 256.578125 430.230469 Z M 258.71875 439.410156 L 263.875 437.984375 L 263.875 455.460938 L 258.71875 455.460938 Z M 274.644531 446.691406 C 274.148438 446.902344 273.644531 447.144531 273.140625 447.425781 C 272.636719 447.703125 272.175781 448.007812 271.761719 448.339844 C 271.347656 448.671875 271.011719 449.027344 270.757812 449.402344 C 270.5 449.78125 270.371094 450.171875 270.371094 450.578125 C 270.371094 450.894531 270.414062 451.199219 270.496094 451.496094 C 270.578125 451.789062 270.695312 452.039062 270.847656 452.25 C 270.996094 452.460938 271.164062 452.632812 271.34375 452.761719 C 271.523438 452.886719 271.722656 452.953125 271.933594 452.953125 C 272.355469 452.953125 272.78125 452.824219 273.210938 452.566406 C 273.640625 452.3125 274.117188 451.988281 274.644531 451.597656 Z M 279.820312 455.460938 L 274.644531 455.460938 L 274.644531 454.105469 C 274.359375 454.347656 274.078125 454.570312 273.808594 454.773438 C 273.539062 454.976562 273.230469 455.152344 272.894531 455.304688 C 272.554688 455.453125 272.171875 455.570312 271.75 455.65625 C 271.328125 455.738281 270.832031 455.777344 270.257812 455.777344 C 269.476562 455.777344 268.769531 455.664062 268.144531 455.441406 C 267.519531 455.214844 266.988281 454.90625 266.550781 454.511719 C 266.113281 454.121094 265.777344 453.65625 265.546875 453.121094 C 265.3125 452.585938 265.195312 452.003906 265.195312 451.371094 C 265.195312 450.722656 265.320312 450.132812 265.566406 449.605469 C 265.816406 449.078125 266.15625 448.605469 266.585938 448.183594 C 267.015625 447.761719 267.515625 447.382812 268.089844 447.050781 C 268.660156 446.71875 269.277344 446.414062 269.929688 446.136719 C 270.585938 445.855469 271.269531 445.601562 271.976562 445.367188 C 272.683594 445.132812 273.386719 444.910156 274.078125 444.699219 L 274.644531 444.566406 L 274.644531 442.890625 C 274.644531 441.808594 274.4375 441.039062 274.023438 440.585938 C 273.609375 440.132812 273.054688 439.90625 272.363281 439.90625 C 271.546875 439.90625 270.980469 440.105469 270.664062 440.496094 C 270.347656 440.886719 270.191406 441.363281 270.191406 441.917969 C 270.191406 442.234375 270.15625 442.546875 270.089844 442.847656 C 270.023438 443.148438 269.90625 443.410156 269.738281 443.636719 C 269.574219 443.863281 269.335938 444.046875 269.027344 444.179688 C 268.71875 444.316406 268.328125 444.382812 267.863281 444.382812 C 267.140625 444.382812 266.550781 444.175781 266.097656 443.761719 C 265.648438 443.347656 265.421875 442.824219 265.421875 442.191406 C 265.421875 441.601562 265.621094 441.058594 266.019531 440.550781 C 266.417969 440.046875 266.957031 439.613281 267.636719 439.253906 C 268.316406 438.890625 269.097656 438.605469 269.988281 438.394531 C 270.875 438.183594 271.820312 438.078125 272.8125 438.078125 C 274.035156 438.078125 275.085938 438.1875 275.96875 438.402344 C 276.847656 438.621094 277.578125 438.933594 278.148438 439.34375 C 278.722656 439.75 279.144531 440.238281 279.414062 440.8125 C 279.6875 441.382812 279.820312 442.027344 279.820312 442.734375 Z M 279.820312 455.460938 "/>
<path style=" stroke:none;fill-rule:nonzero;fill:rgb(100%,100%,100%);fill-opacity:1;" d="M 265.054688 433.617188 C 265.054688 438.285156 258.054688 438.285156 258.054688 433.617188 C 258.054688 428.953125 265.054688 428.953125 265.054688 433.617188 "/>
<path style=" stroke:none;fill-rule:nonzero;fill:rgb(100%,100%,100%);fill-opacity:1;" d="M 232.589844 433.617188 C 232.589844 438.285156 225.589844 438.285156 225.589844 433.617188 C 225.589844 428.953125 232.589844 428.953125 232.589844 433.617188 "/>
<path style=" stroke:none;fill-rule:nonzero;fill:rgb(100%,100%,100%);fill-opacity:1;" d="M 273.464844 433.617188 C 273.464844 438.285156 266.464844 438.285156 266.464844 433.617188 C 266.464844 428.953125 273.464844 428.953125 273.464844 433.617188 "/>
<path style=" stroke:none;fill-rule:nonzero;fill:rgb(100%,100%,100%);fill-opacity:1;" d="M 269.261719 426.335938 C 269.261719 431 262.261719 431 262.261719 426.335938 C 262.261719 421.667969 269.261719 421.667969 269.261719 426.335938 "/>
</g>
</svg>
