<?xml version="1.0" encoding="UTF-8"?>
<svg xmlns="http://www.w3.org/2000/svg" xmlns:xlink="http://www.w3.org/1999/xlink" width="500pt" height="500pt" viewBox="0 0 500 500" version="1.1">
<g id="surface200">
<path style=" stroke:none;fill-rule:nonzero;fill:rgb(100%,100%,100%);fill-opacity:1;" d="M 33.492188 375 L 33.492188 125 L 250 0 L 466.507812 125 L 466.507812 375 L 250 500 Z M 33.492188 375 "/>
<path style=" stroke:none;fill-rule:nonzero;fill:rgb(0%,0%,0%);fill-opacity:1;" d="M 133.445312 318.773438 C 133.445312 327.816406 132.429688 335.117188 130.394531 340.679688 C 128.359375 346.242188 125.464844 350.558594 121.710938 353.632812 C 117.960938 356.710938 113.460938 358.765625 108.214844 359.808594 C 102.972656 360.847656 97.136719 361.367188 90.71875 361.367188 C 82.035156 361.367188 75.386719 360.011719 70.777344 357.296875 C 66.164062 354.585938 63.855469 351.328125 63.855469 347.53125 C 63.855469 344.367188 65.144531 341.699219 67.722656 339.527344 C 70.300781 337.355469 73.761719 336.273438 78.101562 336.273438 C 81.355469 336.273438 83.957031 337.152344 85.902344 338.917969 C 87.847656 340.679688 89.449219 342.421875 90.71875 344.140625 C 92.164062 346.039062 93.382812 347.304688 94.378906 347.9375 C 95.375 348.570312 96.277344 348.886719 97.09375 348.886719 C 98.8125 348.886719 100.121094 347.871094 101.027344 345.835938 C 101.929688 343.800781 102.382812 339.84375 102.382812 333.964844 L 102.382812 222.460938 L 133.445312 213.914062 L 133.445312 318.773438 M 177.6875 216.898438 L 177.6875 288.65625 C 177.6875 290.648438 178.070312 292.523438 178.839844 294.289062 C 179.609375 296.050781 180.671875 297.566406 182.027344 298.832031 C 183.382812 300.097656 184.96875 301.113281 186.777344 301.882812 C 188.585938 302.652344 190.527344 303.039062 192.609375 303.039062 C 194.960938 303.039062 197.632812 301.722656 200.882812 299.441406 C 206.035156 295.832031 209.15625 293.351562 209.15625 290.421875 C 209.15625 289.71875 209.15625 216.898438 209.15625 216.898438 L 240.085938 216.898438 L 240.085938 318.773438 L 209.15625 318.773438 L 209.15625 309.277344 C 205.089844 312.714844 200.746094 315.472656 196.136719 317.550781 C 191.523438 319.632812 187.046875 320.671875 182.707031 320.671875 C 177.640625 320.671875 172.941406 319.835938 168.597656 318.164062 C 164.257812 316.488281 160.460938 314.207031 157.203125 311.3125 C 153.949219 308.417969 151.394531 305.027344 149.539062 301.136719 C 147.6875 297.25 146.757812 293.089844 146.757812 288.65625 L 146.757812 216.898438 L 177.6875 216.898438 M 283.457031 318.773438 L 252.664062 318.773438 L 252.664062 175.933594 L 283.457031 167.386719 L 283.457031 318.773438 M 296.324219 222.460938 L 327.25 213.914062 L 327.25 318.773438 L 296.324219 318.773438 L 296.324219 222.460938 M 391.871094 266.140625 C 388.886719 267.40625 385.878906 268.878906 382.847656 270.546875 C 379.820312 272.222656 377.0625 274.054688 374.574219 276.042969 C 372.089844 278.03125 370.074219 280.160156 368.539062 282.417969 C 367 284.679688 366.230469 287.03125 366.230469 289.472656 C 366.230469 291.371094 366.480469 293.203125 366.976562 294.964844 C 367.476562 296.730469 368.175781 298.246094 369.082031 299.511719 C 369.984375 300.777344 370.980469 301.792969 372.066406 302.5625 C 373.148438 303.332031 374.324219 303.714844 375.59375 303.714844 C 378.125 303.714844 380.679688 302.949219 383.257812 301.410156 C 385.832031 299.871094 388.703125 297.929688 391.871094 295.578125 L 391.871094 266.140625 M 422.933594 318.773438 L 391.871094 318.773438 L 391.871094 310.632812 C 390.152344 312.082031 388.480469 313.414062 386.851562 314.636719 C 385.222656 315.855469 383.390625 316.917969 381.355469 317.824219 C 379.320312 318.726562 377.039062 319.429688 374.507812 319.925781 C 371.972656 320.421875 368.988281 320.671875 365.554688 320.671875 C 360.851562 320.671875 356.625 319.992188 352.871094 318.636719 C 349.117188 317.28125 345.929688 315.425781 343.308594 313.074219 C 340.683594 310.726562 338.671875 307.945312 337.269531 304.734375 C 335.871094 301.523438 335.167969 298.019531 335.167969 294.21875 C 335.167969 290.332031 335.914062 286.804688 337.40625 283.640625 C 338.898438 280.476562 340.933594 277.625 343.511719 275.09375 C 346.085938 272.5625 349.09375 270.300781 352.53125 268.3125 C 355.96875 266.320312 359.652344 264.488281 363.585938 262.816406 C 367.519531 261.144531 371.613281 259.605469 375.863281 258.207031 C 380.113281 256.804688 384.320312 255.46875 388.480469 254.203125 L 391.871094 253.390625 L 391.871094 243.351562 C 391.871094 236.839844 390.625 232.226562 388.140625 229.515625 C 385.652344 226.800781 382.328125 225.445312 378.167969 225.445312 C 373.285156 225.445312 369.894531 226.621094 367.996094 228.972656 C 366.097656 231.324219 365.144531 234.171875 365.144531 237.519531 C 365.144531 239.417969 364.941406 241.269531 364.535156 243.078125 C 364.128906 244.890625 363.425781 246.472656 362.433594 247.828125 C 361.4375 249.183594 360.015625 250.269531 358.160156 251.082031 C 356.308594 251.898438 353.980469 252.304688 351.175781 252.304688 C 346.835938 252.304688 343.308594 251.0625 340.59375 248.574219 C 337.878906 246.085938 336.523438 242.945312 336.523438 239.144531 C 336.523438 235.621094 337.722656 232.339844 340.117188 229.3125 C 342.515625 226.28125 345.746094 223.679688 349.820312 221.511719 C 353.886719 219.339844 358.589844 217.621094 363.925781 216.355469 C 369.261719 215.089844 374.914062 214.457031 380.882812 214.457031 C 388.207031 214.457031 394.515625 215.113281 399.804688 216.425781 C 405.09375 217.738281 409.460938 219.613281 412.894531 222.054688 C 416.332031 224.496094 418.863281 227.433594 420.492188 230.871094 C 422.121094 234.308594 422.933594 238.152344 422.933594 242.402344 L 422.933594 318.773438 "/>
<path style=" stroke:none;fill-rule:nonzero;fill:rgb(79.6%,23.5%,20%);fill-opacity:1;" d="M 334.328125 187.710938 C 334.328125 199.308594 324.925781 208.710938 313.328125 208.710938 C 301.726562 208.710938 292.328125 199.308594 292.328125 187.710938 C 292.328125 176.109375 301.726562 166.710938 313.328125 166.710938 C 324.925781 166.710938 334.328125 176.109375 334.328125 187.710938 "/>
<path style=" stroke:none;fill-rule:nonzero;fill:rgb(25.1%,38.8%,84.7%);fill-opacity:1;" d="M 139.542969 187.710938 C 139.542969 199.308594 130.144531 208.710938 118.542969 208.710938 C 106.945312 208.710938 97.542969 199.308594 97.542969 187.710938 C 97.542969 176.109375 106.945312 166.710938 118.542969 166.710938 C 130.144531 166.710938 139.542969 176.109375 139.542969 187.710938 "/>
<path style=" stroke:none;fill-rule:nonzero;fill:rgb(58.4%,34.5%,69.8%);fill-opacity:1;" d="M 384.785156 187.710938 C 384.785156 199.308594 375.382812 208.710938 363.785156 208.710938 C 352.1875 208.710938 342.785156 199.308594 342.785156 187.710938 C 342.785156 176.109375 352.1875 166.710938 363.785156 166.710938 C 375.382812 166.710938 384.785156 176.109375 384.785156 187.710938 "/>
<path style=" stroke:none;fill-rule:nonzero;fill:rgb(22%,59.6%,14.9%);fill-opacity:1;" d="M 359.558594 144.007812 C 359.558594 155.605469 350.15625 165.007812 338.558594 165.007812 C 326.960938 165.007812 317.558594 155.605469 317.558594 144.007812 C 317.558594 132.410156 326.960938 123.007812 338.558594 123.007812 C 350.15625 123.007812 359.558594 132.410156 359.558594 144.007812 "/>
<path style=" stroke:none;fill-rule:nonzero;fill:rgb(79.6%,23.5%,20%);fill-opacity:1;" d="M 248.257812 427.5 C 248.257812 433.714844 243.222656 438.75 237.007812 438.75 C 230.796875 438.75 225.757812 433.714844 225.757812 427.5 C 225.757812 421.285156 230.796875 416.25 237.007812 416.25 C 243.222656 416.25 248.257812 421.285156 248.257812 427.5 "/>
<path style=" stroke:none;fill-rule:nonzero;fill:rgb(22%,59.6%,14.9%);fill-opacity:1;" d="M 261.25 405 C 261.25 411.214844 256.214844 416.25 250 416.25 C 243.785156 416.25 238.75 411.214844 238.75 405 C 238.75 398.785156 243.785156 393.75 250 393.75 C 256.214844 393.75 261.25 398.785156 261.25 405 "/>
<path style=" stroke:none;fill-rule:nonzero;fill:rgb(58.4%,34.5%,69.8%);fill-opacity:1;" d="M 274.242188 427.5 C 274.242188 433.714844 269.203125 438.75 262.992188 438.75 C 256.777344 438.75 251.742188 433.714844 251.742188 427.5 C 251.742188 421.285156 256.777344 416.25 262.992188 416.25 C 269.203125 416.25 274.242188 421.285156 274.242188 427.5 "/>
</g>
</svg>
