<?xml version="1.0" encoding="UTF-8"?>
<svg xmlns="http://www.w3.org/2000/svg" xmlns:xlink="http://www.w3.org/1999/xlink" width="500pt" height="500pt" viewBox="0 0 500 500" version="1.1">
<defs>
<clipPath id="clip1">
  <path d="M 62.105469 151.199219 L 250 151.199219 L 250 408.425781 L 62.105469 408.425781 Z M 62.105469 151.199219 "/>
</clipPath>
<clipPath id="clip2">
  <path d="M 429.53125 358.851562 L 426.066406 364.136719 L 421.972656 369.066406 L 417.261719 373.644531 L 411.929688 377.882812 L 405.996094 381.792969 L 399.46875 385.378906 L 392.363281 388.65625 L 384.707031 391.632812 L 376.515625 394.328125 L 367.820312 396.746094 L 358.652344 398.90625 L 349.042969 400.8125 L 339.023438 402.484375 L 328.640625 403.929688 L 317.933594 405.160156 L 306.941406 406.183594 L 295.707031 407.011719 L 284.285156 407.640625 L 272.71875 408.085938 L 261.050781 408.34375 L 249.34375 408.425781 L 237.636719 408.324219 L 225.980469 408.042969 L 214.425781 407.578125 L 203.019531 406.925781 L 191.816406 406.082031 L 180.855469 405.03125 L 170.175781 403.777344 L 159.835938 402.308594 L 149.859375 400.609375 L 140.296875 398.675781 L 131.179688 396.488281 L 122.542969 394.039062 L 114.40625 391.3125 L 106.8125 388.304688 L 99.769531 384.992188 L 93.308594 381.371094 L 87.441406 377.425781 L 82.179688 373.152344 L 77.535156 368.53125 L 73.515625 363.5625 L 70.117188 358.238281 L 67.34375 352.554688 L 65.191406 346.503906 L 63.652344 340.089844 L 62.710938 333.316406 L 62.359375 326.183594 L 62.582031 318.695312 L 63.355469 310.871094 L 64.664062 302.710938 L 66.484375 294.238281 L 68.792969 285.464844 L 71.554688 276.417969 L 74.753906 267.113281 L 78.355469 257.574219 L 82.339844 247.839844 L 86.664062 237.929688 L 91.308594 227.886719 L 96.242188 217.738281 L 101.433594 207.527344 L 106.855469 197.28125 L 112.484375 187.054688 L 118.289062 176.878906 L 124.246094 166.804688 L 130.328125 156.871094 L 136.519531 147.121094 L 142.796875 137.597656 L 149.140625 128.351562 L 155.535156 119.414062 L 161.957031 110.839844 L 168.40625 102.664062 L 174.867188 94.925781 L 181.320312 87.671875 L 187.773438 80.925781 L 194.214844 74.734375 L 200.636719 69.117188 L 207.039062 64.113281 L 213.425781 59.746094 L 219.792969 56.035156 L 226.136719 53 L 232.472656 50.660156 L 238.792969 49.027344 L 245.105469 48.109375 L 251.414062 47.910156 L 257.722656 48.433594 L 264.042969 49.671875 L 270.367188 51.621094 L 276.707031 54.277344 L 283.0625 57.617188 L 289.4375 61.625 L 295.828125 66.28125 L 302.242188 71.5625 L 308.671875 77.4375 L 315.117188 83.882812 L 321.574219 90.859375 L 328.03125 98.339844 L 334.484375 106.277344 L 340.925781 114.636719 L 347.339844 123.378906 L 353.710938 132.460938 L 360.027344 141.835938 L 366.265625 151.464844 L 372.410156 161.304688 L 378.441406 171.308594 L 384.332031 181.433594 L 390.0625 191.636719 L 395.601562 201.875 L 400.925781 212.109375 L 406.003906 222.300781 L 410.808594 232.40625 L 415.316406 242.390625 L 419.488281 252.230469 L 423.304688 261.878906 L 426.730469 271.3125 L 429.742188 280.507812 L 432.304688 289.4375 L 434.394531 298.074219 L 435.988281 306.410156 L 437.058594 314.421875 L 437.585938 322.09375 L 437.554688 329.425781 L 436.941406 336.398438 L 435.734375 343.011719 L 433.921875 349.261719 L 431.488281 355.148438 M 408.609375 346.503906 L 409.496094 344.828125 L 410.984375 341.222656 L 412.085938 337.433594 L 412.867188 333.148438 L 413.292969 328.304688 L 413.316406 322.878906 L 412.902344 316.867188 L 412.023438 310.300781 L 410.667969 303.210938 L 408.835938 295.636719 L 406.539062 287.628906 L 403.789062 279.226562 L 400.613281 270.480469 L 397.035156 261.433594 L 393.082031 252.125 L 388.792969 242.609375 L 384.1875 232.925781 L 379.296875 223.121094 L 374.164062 213.246094 L 368.808594 203.351562 L 363.265625 193.476562 L 357.5625 183.675781 L 351.726562 174 L 345.789062 164.496094 L 339.777344 155.214844 L 333.714844 146.207031 L 327.621094 137.523438 L 321.527344 129.222656 L 315.457031 121.339844 L 309.433594 113.929688 L 303.480469 107.039062 L 297.625 100.707031 L 291.898438 94.984375 L 286.332031 89.894531 L 280.957031 85.472656 L 275.816406 81.726562 L 270.941406 78.660156 L 266.359375 76.253906 L 262.089844 74.464844 L 258.109375 73.238281 L 254.378906 72.507812 L 250.792969 72.207031 L 247.242188 72.320312 L 243.585938 72.851562 L 239.730469 73.851562 L 235.59375 75.378906 L 231.148438 77.5 L 226.40625 80.265625 L 221.378906 83.707031 L 216.105469 87.828125 L 210.621094 92.621094 L 204.960938 98.066406 L 199.160156 104.128906 L 193.246094 110.773438 L 187.25 117.957031 L 181.199219 125.628906 L 175.113281 133.753906 L 169.015625 142.273438 L 162.933594 151.136719 L 156.894531 160.304688 L 150.921875 169.710938 L 145.039062 179.316406 L 139.273438 189.070312 L 133.65625 198.917969 L 128.210938 208.8125 L 122.972656 218.703125 L 117.972656 228.542969 L 113.238281 238.285156 L 108.796875 247.882812 L 104.691406 257.289062 L 100.945312 266.457031 L 97.582031 275.347656 L 94.640625 283.90625 L 92.136719 292.097656 L 90.09375 299.871094 L 88.523438 307.183594 L 87.433594 313.988281 L 86.8125 320.253906 L 86.644531 325.945312 L 86.894531 331.050781 L 87.523438 335.578125 L 88.484375 339.582031 L 89.75 343.132812 L 91.320312 346.355469 L 93.234375 349.359375 L 95.574219 352.246094 L 98.429688 355.085938 L 101.894531 357.902344 L 106.03125 360.683594 L 110.882812 363.402344 L 116.453125 366.023438 L 122.738281 368.511719 L 129.707031 370.847656 L 137.320312 373.003906 L 145.535156 374.976562 L 154.304688 376.753906 L 163.578125 378.332031 L 173.304688 379.714844 L 183.421875 380.902344 L 193.882812 381.902344 L 204.628906 382.710938 L 215.609375 383.339844 L 226.761719 383.789062 L 238.03125 384.0625 L 249.363281 384.160156 L 260.699219 384.082031 L 271.980469 383.828125 L 283.148438 383.398438 L 294.152344 382.792969 L 304.929688 382 L 315.421875 381.023438 L 325.585938 379.855469 L 335.351562 378.496094 L 344.679688 376.941406 L 353.507812 375.183594 L 361.785156 373.234375 L 369.46875 371.097656 L 376.515625 368.78125 L 382.875 366.308594 L 388.53125 363.699219 L 393.460938 360.988281 L 397.675781 358.21875 L 401.210938 355.402344 L 404.128906 352.566406 L 406.523438 349.683594 "/>
</clipPath>
<clipPath id="clip3">
  <path d="M 62.105469 131.09375 L 270 131.09375 L 270 408.425781 L 62.105469 408.425781 Z M 62.105469 131.09375 "/>
</clipPath>
<clipPath id="clip4">
  <path d="M 429.53125 358.851562 L 426.066406 364.136719 L 421.972656 369.066406 L 417.261719 373.644531 L 411.929688 377.882812 L 405.996094 381.792969 L 399.46875 385.378906 L 392.363281 388.65625 L 384.707031 391.632812 L 376.515625 394.328125 L 367.820312 396.746094 L 358.652344 398.90625 L 349.042969 400.8125 L 339.023438 402.484375 L 328.640625 403.929688 L 317.933594 405.160156 L 306.941406 406.183594 L 295.707031 407.011719 L 284.285156 407.640625 L 272.71875 408.085938 L 261.050781 408.34375 L 249.34375 408.425781 L 237.636719 408.324219 L 225.980469 408.042969 L 214.425781 407.578125 L 203.019531 406.925781 L 191.816406 406.082031 L 180.855469 405.03125 L 170.175781 403.777344 L 159.835938 402.308594 L 149.859375 400.609375 L 140.296875 398.675781 L 131.179688 396.488281 L 122.542969 394.039062 L 114.40625 391.3125 L 106.8125 388.304688 L 99.769531 384.992188 L 93.308594 381.371094 L 87.441406 377.425781 L 82.179688 373.152344 L 77.535156 368.53125 L 73.515625 363.5625 L 70.117188 358.238281 L 67.34375 352.554688 L 65.191406 346.503906 L 63.652344 340.089844 L 62.710938 333.316406 L 62.359375 326.183594 L 62.582031 318.695312 L 63.355469 310.871094 L 64.664062 302.710938 L 66.484375 294.238281 L 68.792969 285.464844 L 71.554688 276.417969 L 74.753906 267.113281 L 78.355469 257.574219 L 82.339844 247.839844 L 86.664062 237.929688 L 91.308594 227.886719 L 96.242188 217.738281 L 101.433594 207.527344 L 106.855469 197.28125 L 112.484375 187.054688 L 118.289062 176.878906 L 124.246094 166.804688 L 130.328125 156.871094 L 136.519531 147.121094 L 142.796875 137.597656 L 149.140625 128.351562 L 155.535156 119.414062 L 161.957031 110.839844 L 168.40625 102.664062 L 174.867188 94.925781 L 181.320312 87.671875 L 187.773438 80.925781 L 194.214844 74.734375 L 200.636719 69.117188 L 207.039062 64.113281 L 213.425781 59.746094 L 219.792969 56.035156 L 226.136719 53 L 232.472656 50.660156 L 238.792969 49.027344 L 245.105469 48.109375 L 251.414062 47.910156 L 257.722656 48.433594 L 264.042969 49.671875 L 270.367188 51.621094 L 276.707031 54.277344 L 283.0625 57.617188 L 289.4375 61.625 L 295.828125 66.28125 L 302.242188 71.5625 L 308.671875 77.4375 L 315.117188 83.882812 L 321.574219 90.859375 L 328.03125 98.339844 L 334.484375 106.277344 L 340.925781 114.636719 L 347.339844 123.378906 L 353.710938 132.460938 L 360.027344 141.835938 L 366.265625 151.464844 L 372.410156 161.304688 L 378.441406 171.308594 L 384.332031 181.433594 L 390.0625 191.636719 L 395.601562 201.875 L 400.925781 212.109375 L 406.003906 222.300781 L 410.808594 232.40625 L 415.316406 242.390625 L 419.488281 252.230469 L 423.304688 261.878906 L 426.730469 271.3125 L 429.742188 280.507812 L 432.304688 289.4375 L 434.394531 298.074219 L 435.988281 306.410156 L 437.058594 314.421875 L 437.585938 322.09375 L 437.554688 329.425781 L 436.941406 336.398438 L 435.734375 343.011719 L 433.921875 349.261719 L 431.488281 355.148438 M 408.609375 346.503906 L 409.496094 344.828125 L 410.984375 341.222656 L 412.085938 337.433594 L 412.867188 333.148438 L 413.292969 328.304688 L 413.316406 322.878906 L 412.902344 316.867188 L 412.023438 310.300781 L 410.667969 303.210938 L 408.835938 295.636719 L 406.539062 287.628906 L 403.789062 279.226562 L 400.613281 270.480469 L 397.035156 261.433594 L 393.082031 252.125 L 388.792969 242.609375 L 384.1875 232.925781 L 379.296875 223.121094 L 374.164062 213.246094 L 368.808594 203.351562 L 363.265625 193.476562 L 357.5625 183.675781 L 351.726562 174 L 345.789062 164.496094 L 339.777344 155.214844 L 333.714844 146.207031 L 327.621094 137.523438 L 321.527344 129.222656 L 315.457031 121.339844 L 309.433594 113.929688 L 303.480469 107.039062 L 297.625 100.707031 L 291.898438 94.984375 L 286.332031 89.894531 L 280.957031 85.472656 L 275.816406 81.726562 L 270.941406 78.660156 L 266.359375 76.253906 L 262.089844 74.464844 L 258.109375 73.238281 L 254.378906 72.507812 L 250.792969 72.207031 L 247.242188 72.320312 L 243.585938 72.851562 L 239.730469 73.851562 L 235.59375 75.378906 L 231.148438 77.5 L 226.40625 80.265625 L 221.378906 83.707031 L 216.105469 87.828125 L 210.621094 92.621094 L 204.960938 98.066406 L 199.160156 104.128906 L 193.246094 110.773438 L 187.25 117.957031 L 181.199219 125.628906 L 175.113281 133.753906 L 169.015625 142.273438 L 162.933594 151.136719 L 156.894531 160.304688 L 150.921875 169.710938 L 145.039062 179.316406 L 139.273438 189.070312 L 133.65625 198.917969 L 128.210938 208.8125 L 122.972656 218.703125 L 117.972656 228.542969 L 113.238281 238.285156 L 108.796875 247.882812 L 104.691406 257.289062 L 100.945312 266.457031 L 97.582031 275.347656 L 94.640625 283.90625 L 92.136719 292.097656 L 90.09375 299.871094 L 88.523438 307.183594 L 87.433594 313.988281 L 86.8125 320.253906 L 86.644531 325.945312 L 86.894531 331.050781 L 87.523438 335.578125 L 88.484375 339.582031 L 89.75 343.132812 L 91.320312 346.355469 L 93.234375 349.359375 L 95.574219 352.246094 L 98.429688 355.085938 L 101.894531 357.902344 L 106.03125 360.683594 L 110.882812 363.402344 L 116.453125 366.023438 L 122.738281 368.511719 L 129.707031 370.847656 L 137.320312 373.003906 L 145.535156 374.976562 L 154.304688 376.753906 L 163.578125 378.332031 L 173.304688 379.714844 L 183.421875 380.902344 L 193.882812 381.902344 L 204.628906 382.710938 L 215.609375 383.339844 L 226.761719 383.789062 L 238.03125 384.0625 L 249.363281 384.160156 L 260.699219 384.082031 L 271.980469 383.828125 L 283.148438 383.398438 L 294.152344 382.792969 L 304.929688 382 L 315.421875 381.023438 L 325.585938 379.855469 L 335.351562 378.496094 L 344.679688 376.941406 L 353.507812 375.183594 L 361.785156 373.234375 L 369.46875 371.097656 L 376.515625 368.78125 L 382.875 366.308594 L 388.53125 363.699219 L 393.460938 360.988281 L 397.675781 358.21875 L 401.210938 355.402344 L 404.128906 352.566406 L 406.523438 349.683594 "/>
</clipPath>
<clipPath id="clip5">
  <path d="M 69.734375 47.894531 L 430.265625 47.894531 L 430.265625 203.199219 L 69.734375 203.199219 Z M 69.734375 47.894531 "/>
</clipPath>
<clipPath id="clip6">
  <path d="M 429.53125 358.851562 L 426.066406 364.136719 L 421.972656 369.066406 L 417.261719 373.644531 L 411.929688 377.882812 L 405.996094 381.792969 L 399.46875 385.378906 L 392.363281 388.65625 L 384.707031 391.632812 L 376.515625 394.328125 L 367.820312 396.746094 L 358.652344 398.90625 L 349.042969 400.8125 L 339.023438 402.484375 L 328.640625 403.929688 L 317.933594 405.160156 L 306.941406 406.183594 L 295.707031 407.011719 L 284.285156 407.640625 L 272.71875 408.085938 L 261.050781 408.34375 L 249.34375 408.425781 L 237.636719 408.324219 L 225.980469 408.042969 L 214.425781 407.578125 L 203.019531 406.925781 L 191.816406 406.082031 L 180.855469 405.03125 L 170.175781 403.777344 L 159.835938 402.308594 L 149.859375 400.609375 L 140.296875 398.675781 L 131.179688 396.488281 L 122.542969 394.039062 L 114.40625 391.3125 L 106.8125 388.304688 L 99.769531 384.992188 L 93.308594 381.371094 L 87.441406 377.425781 L 82.179688 373.152344 L 77.535156 368.53125 L 73.515625 363.5625 L 70.117188 358.238281 L 67.34375 352.554688 L 65.191406 346.503906 L 63.652344 340.089844 L 62.710938 333.316406 L 62.359375 326.183594 L 62.582031 318.695312 L 63.355469 310.871094 L 64.664062 302.710938 L 66.484375 294.238281 L 68.792969 285.464844 L 71.554688 276.417969 L 74.753906 267.113281 L 78.355469 257.574219 L 82.339844 247.839844 L 86.664062 237.929688 L 91.308594 227.886719 L 96.242188 217.738281 L 101.433594 207.527344 L 106.855469 197.28125 L 112.484375 187.054688 L 118.289062 176.878906 L 124.246094 166.804688 L 130.328125 156.871094 L 136.519531 147.121094 L 142.796875 137.597656 L 149.140625 128.351562 L 155.535156 119.414062 L 161.957031 110.839844 L 168.40625 102.664062 L 174.867188 94.925781 L 181.320312 87.671875 L 187.773438 80.925781 L 194.214844 74.734375 L 200.636719 69.117188 L 207.039062 64.113281 L 213.425781 59.746094 L 219.792969 56.035156 L 226.136719 53 L 232.472656 50.660156 L 238.792969 49.027344 L 245.105469 48.109375 L 251.414062 47.910156 L 257.722656 48.433594 L 264.042969 49.671875 L 270.367188 51.621094 L 276.707031 54.277344 L 283.0625 57.617188 L 289.4375 61.625 L 295.828125 66.28125 L 302.242188 71.5625 L 308.671875 77.4375 L 315.117188 83.882812 L 321.574219 90.859375 L 328.03125 98.339844 L 334.484375 106.277344 L 340.925781 114.636719 L 347.339844 123.378906 L 353.710938 132.460938 L 360.027344 141.835938 L 366.265625 151.464844 L 372.410156 161.304688 L 378.441406 171.308594 L 384.332031 181.433594 L 390.0625 191.636719 L 395.601562 201.875 L 400.925781 212.109375 L 406.003906 222.300781 L 410.808594 232.40625 L 415.316406 242.390625 L 419.488281 252.230469 L 423.304688 261.878906 L 426.730469 271.3125 L 429.742188 280.507812 L 432.304688 289.4375 L 434.394531 298.074219 L 435.988281 306.410156 L 437.058594 314.421875 L 437.585938 322.09375 L 437.554688 329.425781 L 436.941406 336.398438 L 435.734375 343.011719 L 433.921875 349.261719 L 431.488281 355.148438 M 408.609375 346.503906 L 409.496094 344.828125 L 410.984375 341.222656 L 412.085938 337.433594 L 412.867188 333.148438 L 413.292969 328.304688 L 413.316406 322.878906 L 412.902344 316.867188 L 412.023438 310.300781 L 410.667969 303.210938 L 408.835938 295.636719 L 406.539062 287.628906 L 403.789062 279.226562 L 400.613281 270.480469 L 397.035156 261.433594 L 393.082031 252.125 L 388.792969 242.609375 L 384.1875 232.925781 L 379.296875 223.121094 L 374.164062 213.246094 L 368.808594 203.351562 L 363.265625 193.476562 L 357.5625 183.675781 L 351.726562 174 L 345.789062 164.496094 L 339.777344 155.214844 L 333.714844 146.207031 L 327.621094 137.523438 L 321.527344 129.222656 L 315.457031 121.339844 L 309.433594 113.929688 L 303.480469 107.039062 L 297.625 100.707031 L 291.898438 94.984375 L 286.332031 89.894531 L 280.957031 85.472656 L 275.816406 81.726562 L 270.941406 78.660156 L 266.359375 76.253906 L 262.089844 74.464844 L 258.109375 73.238281 L 254.378906 72.507812 L 250.792969 72.207031 L 247.242188 72.320312 L 243.585938 72.851562 L 239.730469 73.851562 L 235.59375 75.378906 L 231.148438 77.5 L 226.40625 80.265625 L 221.378906 83.707031 L 216.105469 87.828125 L 210.621094 92.621094 L 204.960938 98.066406 L 199.160156 104.128906 L 193.246094 110.773438 L 187.25 117.957031 L 181.199219 125.628906 L 175.113281 133.753906 L 169.015625 142.273438 L 162.933594 151.136719 L 156.894531 160.304688 L 150.921875 169.710938 L 145.039062 179.316406 L 139.273438 189.070312 L 133.65625 198.917969 L 128.210938 208.8125 L 122.972656 218.703125 L 117.972656 228.542969 L 113.238281 238.285156 L 108.796875 247.882812 L 104.691406 257.289062 L 100.945312 266.457031 L 97.582031 275.347656 L 94.640625 283.90625 L 92.136719 292.097656 L 90.09375 299.871094 L 88.523438 307.183594 L 87.433594 313.988281 L 86.8125 320.253906 L 86.644531 325.945312 L 86.894531 331.050781 L 87.523438 335.578125 L 88.484375 339.582031 L 89.75 343.132812 L 91.320312 346.355469 L 93.234375 349.359375 L 95.574219 352.246094 L 98.429688 355.085938 L 101.894531 357.902344 L 106.03125 360.683594 L 110.882812 363.402344 L 116.453125 366.023438 L 122.738281 368.511719 L 129.707031 370.847656 L 137.320312 373.003906 L 145.535156 374.976562 L 154.304688 376.753906 L 163.578125 378.332031 L 173.304688 379.714844 L 183.421875 380.902344 L 193.882812 381.902344 L 204.628906 382.710938 L 215.609375 383.339844 L 226.761719 383.789062 L 238.03125 384.0625 L 249.363281 384.160156 L 260.699219 384.082031 L 271.980469 383.828125 L 283.148438 383.398438 L 294.152344 382.792969 L 304.929688 382 L 315.421875 381.023438 L 325.585938 379.855469 L 335.351562 378.496094 L 344.679688 376.941406 L 353.507812 375.183594 L 361.785156 373.234375 L 369.46875 371.097656 L 376.515625 368.78125 L 382.875 366.308594 L 388.53125 363.699219 L 393.460938 360.988281 L 397.675781 358.21875 L 401.210938 355.402344 L 404.128906 352.566406 L 406.523438 349.683594 "/>
</clipPath>
<clipPath id="clip7">
  <path d="M 62.105469 47.894531 L 437.894531 47.894531 L 437.894531 223 L 62.105469 223 Z M 62.105469 47.894531 "/>
</clipPath>
<clipPath id="clip8">
  <path d="M 429.53125 358.851562 L 426.066406 364.136719 L 421.972656 369.066406 L 417.261719 373.644531 L 411.929688 377.882812 L 405.996094 381.792969 L 399.46875 385.378906 L 392.363281 388.65625 L 384.707031 391.632812 L 376.515625 394.328125 L 367.820312 396.746094 L 358.652344 398.90625 L 349.042969 400.8125 L 339.023438 402.484375 L 328.640625 403.929688 L 317.933594 405.160156 L 306.941406 406.183594 L 295.707031 407.011719 L 284.285156 407.640625 L 272.71875 408.085938 L 261.050781 408.34375 L 249.34375 408.425781 L 237.636719 408.324219 L 225.980469 408.042969 L 214.425781 407.578125 L 203.019531 406.925781 L 191.816406 406.082031 L 180.855469 405.03125 L 170.175781 403.777344 L 159.835938 402.308594 L 149.859375 400.609375 L 140.296875 398.675781 L 131.179688 396.488281 L 122.542969 394.039062 L 114.40625 391.3125 L 106.8125 388.304688 L 99.769531 384.992188 L 93.308594 381.371094 L 87.441406 377.425781 L 82.179688 373.152344 L 77.535156 368.53125 L 73.515625 363.5625 L 70.117188 358.238281 L 67.34375 352.554688 L 65.191406 346.503906 L 63.652344 340.089844 L 62.710938 333.316406 L 62.359375 326.183594 L 62.582031 318.695312 L 63.355469 310.871094 L 64.664062 302.710938 L 66.484375 294.238281 L 68.792969 285.464844 L 71.554688 276.417969 L 74.753906 267.113281 L 78.355469 257.574219 L 82.339844 247.839844 L 86.664062 237.929688 L 91.308594 227.886719 L 96.242188 217.738281 L 101.433594 207.527344 L 106.855469 197.28125 L 112.484375 187.054688 L 118.289062 176.878906 L 124.246094 166.804688 L 130.328125 156.871094 L 136.519531 147.121094 L 142.796875 137.597656 L 149.140625 128.351562 L 155.535156 119.414062 L 161.957031 110.839844 L 168.40625 102.664062 L 174.867188 94.925781 L 181.320312 87.671875 L 187.773438 80.925781 L 194.214844 74.734375 L 200.636719 69.117188 L 207.039062 64.113281 L 213.425781 59.746094 L 219.792969 56.035156 L 226.136719 53 L 232.472656 50.660156 L 238.792969 49.027344 L 245.105469 48.109375 L 251.414062 47.910156 L 257.722656 48.433594 L 264.042969 49.671875 L 270.367188 51.621094 L 276.707031 54.277344 L 283.0625 57.617188 L 289.4375 61.625 L 295.828125 66.28125 L 302.242188 71.5625 L 308.671875 77.4375 L 315.117188 83.882812 L 321.574219 90.859375 L 328.03125 98.339844 L 334.484375 106.277344 L 340.925781 114.636719 L 347.339844 123.378906 L 353.710938 132.460938 L 360.027344 141.835938 L 366.265625 151.464844 L 372.410156 161.304688 L 378.441406 171.308594 L 384.332031 181.433594 L 390.0625 191.636719 L 395.601562 201.875 L 400.925781 212.109375 L 406.003906 222.300781 L 410.808594 232.40625 L 415.316406 242.390625 L 419.488281 252.230469 L 423.304688 261.878906 L 426.730469 271.3125 L 429.742188 280.507812 L 432.304688 289.4375 L 434.394531 298.074219 L 435.988281 306.410156 L 437.058594 314.421875 L 437.585938 322.09375 L 437.554688 329.425781 L 436.941406 336.398438 L 435.734375 343.011719 L 433.921875 349.261719 L 431.488281 355.148438 M 408.609375 346.503906 L 409.496094 344.828125 L 410.984375 341.222656 L 412.085938 337.433594 L 412.867188 333.148438 L 413.292969 328.304688 L 413.316406 322.878906 L 412.902344 316.867188 L 412.023438 310.300781 L 410.667969 303.210938 L 408.835938 295.636719 L 406.539062 287.628906 L 403.789062 279.226562 L 400.613281 270.480469 L 397.035156 261.433594 L 393.082031 252.125 L 388.792969 242.609375 L 384.1875 232.925781 L 379.296875 223.121094 L 374.164062 213.246094 L 368.808594 203.351562 L 363.265625 193.476562 L 357.5625 183.675781 L 351.726562 174 L 345.789062 164.496094 L 339.777344 155.214844 L 333.714844 146.207031 L 327.621094 137.523438 L 321.527344 129.222656 L 315.457031 121.339844 L 309.433594 113.929688 L 303.480469 107.039062 L 297.625 100.707031 L 291.898438 94.984375 L 286.332031 89.894531 L 280.957031 85.472656 L 275.816406 81.726562 L 270.941406 78.660156 L 266.359375 76.253906 L 262.089844 74.464844 L 258.109375 73.238281 L 254.378906 72.507812 L 250.792969 72.207031 L 247.242188 72.320312 L 243.585938 72.851562 L 239.730469 73.851562 L 235.59375 75.378906 L 231.148438 77.5 L 226.40625 80.265625 L 221.378906 83.707031 L 216.105469 87.828125 L 210.621094 92.621094 L 204.960938 98.066406 L 199.160156 104.128906 L 193.246094 110.773438 L 187.25 117.957031 L 181.199219 125.628906 L 175.113281 133.753906 L 169.015625 142.273438 L 162.933594 151.136719 L 156.894531 160.304688 L 150.921875 169.710938 L 145.039062 179.316406 L 139.273438 189.070312 L 133.65625 198.917969 L 128.210938 208.8125 L 122.972656 218.703125 L 117.972656 228.542969 L 113.238281 238.285156 L 108.796875 247.882812 L 104.691406 257.289062 L 100.945312 266.457031 L 97.582031 275.347656 L 94.640625 283.90625 L 92.136719 292.097656 L 90.09375 299.871094 L 88.523438 307.183594 L 87.433594 313.988281 L 86.8125 320.253906 L 86.644531 325.945312 L 86.894531 331.050781 L 87.523438 335.578125 L 88.484375 339.582031 L 89.75 343.132812 L 91.320312 346.355469 L 93.234375 349.359375 L 95.574219 352.246094 L 98.429688 355.085938 L 101.894531 357.902344 L 106.03125 360.683594 L 110.882812 363.402344 L 116.453125 366.023438 L 122.738281 368.511719 L 129.707031 370.847656 L 137.320312 373.003906 L 145.535156 374.976562 L 154.304688 376.753906 L 163.578125 378.332031 L 173.304688 379.714844 L 183.421875 380.902344 L 193.882812 381.902344 L 204.628906 382.710938 L 215.609375 383.339844 L 226.761719 383.789062 L 238.03125 384.0625 L 249.363281 384.160156 L 260.699219 384.082031 L 271.980469 383.828125 L 283.148438 383.398438 L 294.152344 382.792969 L 304.929688 382 L 315.421875 381.023438 L 325.585938 379.855469 L 335.351562 378.496094 L 344.679688 376.941406 L 353.507812 375.183594 L 361.785156 373.234375 L 369.46875 371.097656 L 376.515625 368.78125 L 382.875 366.308594 L 388.53125 363.699219 L 393.460938 360.988281 L 397.675781 358.21875 L 401.210938 355.402344 L 404.128906 352.566406 L 406.523438 349.683594 "/>
</clipPath>
<clipPath id="clip9">
  <path d="M 250 151.199219 L 437.894531 151.199219 L 437.894531 408.425781 L 250 408.425781 Z M 250 151.199219 "/>
</clipPath>
<clipPath id="clip10">
  <path d="M 429.53125 358.851562 L 426.066406 364.136719 L 421.972656 369.066406 L 417.261719 373.644531 L 411.929688 377.882812 L 405.996094 381.792969 L 399.46875 385.378906 L 392.363281 388.65625 L 384.707031 391.632812 L 376.515625 394.328125 L 367.820312 396.746094 L 358.652344 398.90625 L 349.042969 400.8125 L 339.023438 402.484375 L 328.640625 403.929688 L 317.933594 405.160156 L 306.941406 406.183594 L 295.707031 407.011719 L 284.285156 407.640625 L 272.71875 408.085938 L 261.050781 408.34375 L 249.34375 408.425781 L 237.636719 408.324219 L 225.980469 408.042969 L 214.425781 407.578125 L 203.019531 406.925781 L 191.816406 406.082031 L 180.855469 405.03125 L 170.175781 403.777344 L 159.835938 402.308594 L 149.859375 400.609375 L 140.296875 398.675781 L 131.179688 396.488281 L 122.542969 394.039062 L 114.40625 391.3125 L 106.8125 388.304688 L 99.769531 384.992188 L 93.308594 381.371094 L 87.441406 377.425781 L 82.179688 373.152344 L 77.535156 368.53125 L 73.515625 363.5625 L 70.117188 358.238281 L 67.34375 352.554688 L 65.191406 346.503906 L 63.652344 340.089844 L 62.710938 333.316406 L 62.359375 326.183594 L 62.582031 318.695312 L 63.355469 310.871094 L 64.664062 302.710938 L 66.484375 294.238281 L 68.792969 285.464844 L 71.554688 276.417969 L 74.753906 267.113281 L 78.355469 257.574219 L 82.339844 247.839844 L 86.664062 237.929688 L 91.308594 227.886719 L 96.242188 217.738281 L 101.433594 207.527344 L 106.855469 197.28125 L 112.484375 187.054688 L 118.289062 176.878906 L 124.246094 166.804688 L 130.328125 156.871094 L 136.519531 147.121094 L 142.796875 137.597656 L 149.140625 128.351562 L 155.535156 119.414062 L 161.957031 110.839844 L 168.40625 102.664062 L 174.867188 94.925781 L 181.320312 87.671875 L 187.773438 80.925781 L 194.214844 74.734375 L 200.636719 69.117188 L 207.039062 64.113281 L 213.425781 59.746094 L 219.792969 56.035156 L 226.136719 53 L 232.472656 50.660156 L 238.792969 49.027344 L 245.105469 48.109375 L 251.414062 47.910156 L 257.722656 48.433594 L 264.042969 49.671875 L 270.367188 51.621094 L 276.707031 54.277344 L 283.0625 57.617188 L 289.4375 61.625 L 295.828125 66.28125 L 302.242188 71.5625 L 308.671875 77.4375 L 315.117188 83.882812 L 321.574219 90.859375 L 328.03125 98.339844 L 334.484375 106.277344 L 340.925781 114.636719 L 347.339844 123.378906 L 353.710938 132.460938 L 360.027344 141.835938 L 366.265625 151.464844 L 372.410156 161.304688 L 378.441406 171.308594 L 384.332031 181.433594 L 390.0625 191.636719 L 395.601562 201.875 L 400.925781 212.109375 L 406.003906 222.300781 L 410.808594 232.40625 L 415.316406 242.390625 L 419.488281 252.230469 L 423.304688 261.878906 L 426.730469 271.3125 L 429.742188 280.507812 L 432.304688 289.4375 L 434.394531 298.074219 L 435.988281 306.410156 L 437.058594 314.421875 L 437.585938 322.09375 L 437.554688 329.425781 L 436.941406 336.398438 L 435.734375 343.011719 L 433.921875 349.261719 L 431.488281 355.148438 M 408.609375 346.503906 L 409.496094 344.828125 L 410.984375 341.222656 L 412.085938 337.433594 L 412.867188 333.148438 L 413.292969 328.304688 L 413.316406 322.878906 L 412.902344 316.867188 L 412.023438 310.300781 L 410.667969 303.210938 L 408.835938 295.636719 L 406.539062 287.628906 L 403.789062 279.226562 L 400.613281 270.480469 L 397.035156 261.433594 L 393.082031 252.125 L 388.792969 242.609375 L 384.1875 232.925781 L 379.296875 223.121094 L 374.164062 213.246094 L 368.808594 203.351562 L 363.265625 193.476562 L 357.5625 183.675781 L 351.726562 174 L 345.789062 164.496094 L 339.777344 155.214844 L 333.714844 146.207031 L 327.621094 137.523438 L 321.527344 129.222656 L 315.457031 121.339844 L 309.433594 113.929688 L 303.480469 107.039062 L 297.625 100.707031 L 291.898438 94.984375 L 286.332031 89.894531 L 280.957031 85.472656 L 275.816406 81.726562 L 270.941406 78.660156 L 266.359375 76.253906 L 262.089844 74.464844 L 258.109375 73.238281 L 254.378906 72.507812 L 250.792969 72.207031 L 247.242188 72.320312 L 243.585938 72.851562 L 239.730469 73.851562 L 235.59375 75.378906 L 231.148438 77.5 L 226.40625 80.265625 L 221.378906 83.707031 L 216.105469 87.828125 L 210.621094 92.621094 L 204.960938 98.066406 L 199.160156 104.128906 L 193.246094 110.773438 L 187.25 117.957031 L 181.199219 125.628906 L 175.113281 133.753906 L 169.015625 142.273438 L 162.933594 151.136719 L 156.894531 160.304688 L 150.921875 169.710938 L 145.039062 179.316406 L 139.273438 189.070312 L 133.65625 198.917969 L 128.210938 208.8125 L 122.972656 218.703125 L 117.972656 228.542969 L 113.238281 238.285156 L 108.796875 247.882812 L 104.691406 257.289062 L 100.945312 266.457031 L 97.582031 275.347656 L 94.640625 283.90625 L 92.136719 292.097656 L 90.09375 299.871094 L 88.523438 307.183594 L 87.433594 313.988281 L 86.8125 320.253906 L 86.644531 325.945312 L 86.894531 331.050781 L 87.523438 335.578125 L 88.484375 339.582031 L 89.75 343.132812 L 91.320312 346.355469 L 93.234375 349.359375 L 95.574219 352.246094 L 98.429688 355.085938 L 101.894531 357.902344 L 106.03125 360.683594 L 110.882812 363.402344 L 116.453125 366.023438 L 122.738281 368.511719 L 129.707031 370.847656 L 137.320312 373.003906 L 145.535156 374.976562 L 154.304688 376.753906 L 163.578125 378.332031 L 173.304688 379.714844 L 183.421875 380.902344 L 193.882812 381.902344 L 204.628906 382.710938 L 215.609375 383.339844 L 226.761719 383.789062 L 238.03125 384.0625 L 249.363281 384.160156 L 260.699219 384.082031 L 271.980469 383.828125 L 283.148438 383.398438 L 294.152344 382.792969 L 304.929688 382 L 315.421875 381.023438 L 325.585938 379.855469 L 335.351562 378.496094 L 344.679688 376.941406 L 353.507812 375.183594 L 361.785156 373.234375 L 369.46875 371.097656 L 376.515625 368.78125 L 382.875 366.308594 L 388.53125 363.699219 L 393.460938 360.988281 L 397.675781 358.21875 L 401.210938 355.402344 L 404.128906 352.566406 L 406.523438 349.683594 "/>
</clipPath>
<clipPath id="clip11">
  <path d="M 230 131.09375 L 437.894531 131.09375 L 437.894531 408.425781 L 230 408.425781 Z M 230 131.09375 "/>
</clipPath>
<clipPath id="clip12">
  <path d="M 429.53125 358.851562 L 426.066406 364.136719 L 421.972656 369.066406 L 417.261719 373.644531 L 411.929688 377.882812 L 405.996094 381.792969 L 399.46875 385.378906 L 392.363281 388.65625 L 384.707031 391.632812 L 376.515625 394.328125 L 367.820312 396.746094 L 358.652344 398.90625 L 349.042969 400.8125 L 339.023438 402.484375 L 328.640625 403.929688 L 317.933594 405.160156 L 306.941406 406.183594 L 295.707031 407.011719 L 284.285156 407.640625 L 272.71875 408.085938 L 261.050781 408.34375 L 249.34375 408.425781 L 237.636719 408.324219 L 225.980469 408.042969 L 214.425781 407.578125 L 203.019531 406.925781 L 191.816406 406.082031 L 180.855469 405.03125 L 170.175781 403.777344 L 159.835938 402.308594 L 149.859375 400.609375 L 140.296875 398.675781 L 131.179688 396.488281 L 122.542969 394.039062 L 114.40625 391.3125 L 106.8125 388.304688 L 99.769531 384.992188 L 93.308594 381.371094 L 87.441406 377.425781 L 82.179688 373.152344 L 77.535156 368.53125 L 73.515625 363.5625 L 70.117188 358.238281 L 67.34375 352.554688 L 65.191406 346.503906 L 63.652344 340.089844 L 62.710938 333.316406 L 62.359375 326.183594 L 62.582031 318.695312 L 63.355469 310.871094 L 64.664062 302.710938 L 66.484375 294.238281 L 68.792969 285.464844 L 71.554688 276.417969 L 74.753906 267.113281 L 78.355469 257.574219 L 82.339844 247.839844 L 86.664062 237.929688 L 91.308594 227.886719 L 96.242188 217.738281 L 101.433594 207.527344 L 106.855469 197.28125 L 112.484375 187.054688 L 118.289062 176.878906 L 124.246094 166.804688 L 130.328125 156.871094 L 136.519531 147.121094 L 142.796875 137.597656 L 149.140625 128.351562 L 155.535156 119.414062 L 161.957031 110.839844 L 168.40625 102.664062 L 174.867188 94.925781 L 181.320312 87.671875 L 187.773438 80.925781 L 194.214844 74.734375 L 200.636719 69.117188 L 207.039062 64.113281 L 213.425781 59.746094 L 219.792969 56.035156 L 226.136719 53 L 232.472656 50.660156 L 238.792969 49.027344 L 245.105469 48.109375 L 251.414062 47.910156 L 257.722656 48.433594 L 264.042969 49.671875 L 270.367188 51.621094 L 276.707031 54.277344 L 283.0625 57.617188 L 289.4375 61.625 L 295.828125 66.28125 L 302.242188 71.5625 L 308.671875 77.4375 L 315.117188 83.882812 L 321.574219 90.859375 L 328.03125 98.339844 L 334.484375 106.277344 L 340.925781 114.636719 L 347.339844 123.378906 L 353.710938 132.460938 L 360.027344 141.835938 L 366.265625 151.464844 L 372.410156 161.304688 L 378.441406 171.308594 L 384.332031 181.433594 L 390.0625 191.636719 L 395.601562 201.875 L 400.925781 212.109375 L 406.003906 222.300781 L 410.808594 232.40625 L 415.316406 242.390625 L 419.488281 252.230469 L 423.304688 261.878906 L 426.730469 271.3125 L 429.742188 280.507812 L 432.304688 289.4375 L 434.394531 298.074219 L 435.988281 306.410156 L 437.058594 314.421875 L 437.585938 322.09375 L 437.554688 329.425781 L 436.941406 336.398438 L 435.734375 343.011719 L 433.921875 349.261719 L 431.488281 355.148438 M 408.609375 346.503906 L 409.496094 344.828125 L 410.984375 341.222656 L 412.085938 337.433594 L 412.867188 333.148438 L 413.292969 328.304688 L 413.316406 322.878906 L 412.902344 316.867188 L 412.023438 310.300781 L 410.667969 303.210938 L 408.835938 295.636719 L 406.539062 287.628906 L 403.789062 279.226562 L 400.613281 270.480469 L 397.035156 261.433594 L 393.082031 252.125 L 388.792969 242.609375 L 384.1875 232.925781 L 379.296875 223.121094 L 374.164062 213.246094 L 368.808594 203.351562 L 363.265625 193.476562 L 357.5625 183.675781 L 351.726562 174 L 345.789062 164.496094 L 339.777344 155.214844 L 333.714844 146.207031 L 327.621094 137.523438 L 321.527344 129.222656 L 315.457031 121.339844 L 309.433594 113.929688 L 303.480469 107.039062 L 297.625 100.707031 L 291.898438 94.984375 L 286.332031 89.894531 L 280.957031 85.472656 L 275.816406 81.726562 L 270.941406 78.660156 L 266.359375 76.253906 L 262.089844 74.464844 L 258.109375 73.238281 L 254.378906 72.507812 L 250.792969 72.207031 L 247.242188 72.320312 L 243.585938 72.851562 L 239.730469 73.851562 L 235.59375 75.378906 L 231.148438 77.5 L 226.40625 80.265625 L 221.378906 83.707031 L 216.105469 87.828125 L 210.621094 92.621094 L 204.960938 98.066406 L 199.160156 104.128906 L 193.246094 110.773438 L 187.25 117.957031 L 181.199219 125.628906 L 175.113281 133.753906 L 169.015625 142.273438 L 162.933594 151.136719 L 156.894531 160.304688 L 150.921875 169.710938 L 145.039062 179.316406 L 139.273438 189.070312 L 133.65625 198.917969 L 128.210938 208.8125 L 122.972656 218.703125 L 117.972656 228.542969 L 113.238281 238.285156 L 108.796875 247.882812 L 104.691406 257.289062 L 100.945312 266.457031 L 97.582031 275.347656 L 94.640625 283.90625 L 92.136719 292.097656 L 90.09375 299.871094 L 88.523438 307.183594 L 87.433594 313.988281 L 86.8125 320.253906 L 86.644531 325.945312 L 86.894531 331.050781 L 87.523438 335.578125 L 88.484375 339.582031 L 89.75 343.132812 L 91.320312 346.355469 L 93.234375 349.359375 L 95.574219 352.246094 L 98.429688 355.085938 L 101.894531 357.902344 L 106.03125 360.683594 L 110.882812 363.402344 L 116.453125 366.023438 L 122.738281 368.511719 L 129.707031 370.847656 L 137.320312 373.003906 L 145.535156 374.976562 L 154.304688 376.753906 L 163.578125 378.332031 L 173.304688 379.714844 L 183.421875 380.902344 L 193.882812 381.902344 L 204.628906 382.710938 L 215.609375 383.339844 L 226.761719 383.789062 L 238.03125 384.0625 L 249.363281 384.160156 L 260.699219 384.082031 L 271.980469 383.828125 L 283.148438 383.398438 L 294.152344 382.792969 L 304.929688 382 L 315.421875 381.023438 L 325.585938 379.855469 L 335.351562 378.496094 L 344.679688 376.941406 L 353.507812 375.183594 L 361.785156 373.234375 L 369.46875 371.097656 L 376.515625 368.78125 L 382.875 366.308594 L 388.53125 363.699219 L 393.460938 360.988281 L 397.675781 358.21875 L 401.210938 355.402344 L 404.128906 352.566406 L 406.523438 349.683594 "/>
</clipPath>
</defs>
<g id="surface1167903">
<path style=" stroke:none;fill-rule:nonzero;fill:rgb(0%,0%,0%);fill-opacity:1;" d="M 33.492188 375 L 33.492188 125 L 250 0 L 466.507812 125 L 466.507812 375 L 250 500 Z M 33.492188 375 "/>
<g clip-path="url(#clip1)" clip-rule="nonzero">
<g clip-path="url(#clip2)" clip-rule="nonzero">
<path style=" stroke:none;fill-rule:nonzero;fill:rgb(79.607843%,23.529412%,20%);fill-opacity:1;" d="M 250 359.199219 L 250 463.199219 C 175.6875 463.199219 107.023438 423.554688 69.867188 359.199219 C 32.710938 294.84375 32.710938 215.554688 69.867188 151.199219 L 159.933594 203.199219 C 141.355469 235.378906 141.355469 275.023438 159.933594 307.199219 C 178.511719 339.378906 212.84375 359.199219 250 359.199219 Z M 250 359.199219 "/>
</g>
</g>
<g clip-path="url(#clip3)" clip-rule="nonzero">
<g clip-path="url(#clip4)" clip-rule="nonzero">
<path style="fill:none;stroke-width:2;stroke-linecap:butt;stroke-linejoin:miter;stroke:rgb(79.607843%,23.529412%,20%);stroke-opacity:1;stroke-miterlimit:10;" d="M 300 479.998873 L 300 629.998873 C 192.81851 629.998873 93.783804 572.819261 40.193059 479.998873 C -13.397686 387.178486 -13.397686 272.819261 40.193059 179.998873 L 170.096529 254.998873 C 143.301157 301.411884 143.301157 358.591496 170.096529 404.998873 C 196.891902 451.411884 246.409255 479.998873 300 479.998873 Z M 300 479.998873 " transform="matrix(0.693333,0,0,0.693333,42,26.4)"/>
</g>
</g>
<g clip-path="url(#clip5)" clip-rule="nonzero">
<g clip-path="url(#clip6)" clip-rule="nonzero">
<path style=" stroke:none;fill-rule:nonzero;fill:rgb(21.960784%,59.607843%,14.901961%);fill-opacity:1;" d="M 159.933594 203.199219 L 69.863281 151.199219 C 107.023438 86.84375 175.6875 47.199219 250 47.199219 C 324.3125 47.199219 392.976562 86.84375 430.132812 151.199219 L 340.066406 203.199219 C 321.488281 171.023438 287.15625 151.199219 250 151.199219 C 212.84375 151.199219 178.511719 171.023438 159.933594 203.199219 Z M 159.933594 203.199219 "/>
</g>
</g>
<g clip-path="url(#clip7)" clip-rule="nonzero">
<g clip-path="url(#clip8)" clip-rule="nonzero">
<path style="fill:none;stroke-width:2;stroke-linecap:butt;stroke-linejoin:miter;stroke:rgb(21.960784%,59.607843%,14.901961%);stroke-opacity:1;stroke-miterlimit:10;" d="M 170.096529 254.998873 L 40.187425 179.998873 C 93.783804 87.178486 192.81851 29.998873 300 29.998873 C 407.18149 29.998873 506.216196 87.178486 559.806941 179.998873 L 429.903471 254.998873 C 403.108098 208.591496 353.590745 179.998873 300 179.998873 C 246.409255 179.998873 196.891902 208.591496 170.096529 254.998873 Z M 170.096529 254.998873 " transform="matrix(0.693333,0,0,0.693333,42,26.4)"/>
</g>
</g>
<g clip-path="url(#clip9)" clip-rule="nonzero">
<g clip-path="url(#clip10)" clip-rule="nonzero">
<path style=" stroke:none;fill-rule:nonzero;fill:rgb(58.431373%,34.509804%,69.803922%);fill-opacity:1;" d="M 340.066406 203.199219 L 430.132812 151.199219 C 467.289062 215.554688 467.289062 294.84375 430.132812 359.199219 C 392.976562 423.554688 324.3125 463.199219 250 463.199219 L 250 359.199219 C 287.15625 359.199219 321.488281 339.378906 340.066406 307.199219 C 358.644531 275.023438 358.644531 235.378906 340.066406 203.199219 Z M 340.066406 203.199219 "/>
</g>
</g>
<g clip-path="url(#clip11)" clip-rule="nonzero">
<g clip-path="url(#clip12)" clip-rule="nonzero">
<path style="fill:none;stroke-width:2;stroke-linecap:butt;stroke-linejoin:miter;stroke:rgb(58.431373%,34.509804%,69.803922%);stroke-opacity:1;stroke-miterlimit:10;" d="M 429.903471 254.998873 L 559.806941 179.998873 C 613.397686 272.819261 613.397686 387.178486 559.806941 479.998873 C 506.216196 572.819261 407.18149 629.998873 300 629.998873 L 300 479.998873 C 353.590745 479.998873 403.108098 451.411884 429.903471 404.998873 C 456.698843 358.591496 456.698843 301.411884 429.903471 254.998873 Z M 429.903471 254.998873 " transform="matrix(0.693333,0,0,0.693333,42,26.4)"/>
</g>
</g>
<path style=" stroke:none;fill-rule:nonzero;fill:rgb(100%,100%,100%);fill-opacity:1;" d="M 237.171875 252.339844 C 236.480469 249.449219 236.015625 245.695312 235.785156 241.074219 L 235.09375 232.058594 C 233.707031 219.351562 230.414062 209.84375 225.214844 203.546875 C 220.011719 197.25 213.371094 194.101562 205.28125 194.101562 C 200.308594 194.101562 195.777344 195.226562 191.671875 197.480469 C 187.570312 199.734375 184.363281 202.824219 182.054688 206.753906 C 179.742188 210.683594 178.585938 215.015625 178.585938 219.753906 C 178.585938 221.832031 178.875 224.203125 179.453125 226.859375 L 175.464844 228.074219 C 171.191406 221.71875 168.535156 215.59375 167.492188 209.699219 C 167.261719 208.660156 167.148438 207.042969 167.148438 204.847656 C 167.148438 199.417969 168.589844 194.332031 171.480469 189.59375 C 174.371094 184.855469 178.414062 181.042969 183.613281 178.152344 C 188.8125 175.261719 194.707031 173.820312 201.292969 173.820312 C 208.804688 173.820312 215.738281 175.726562 222.09375 179.539062 C 228.449219 183.351562 233.648438 188.609375 237.691406 195.3125 C 241.738281 202.015625 244.164062 209.527344 244.972656 217.847656 C 245.203125 220.390625 245.320312 222.238281 245.320312 223.394531 C 245.320312 227.898438 244.800781 231.886719 243.761719 235.351562 C 242.71875 238.820312 241.101562 243.152344 238.90625 248.351562 Z M 185.691406 339.351562 C 176.679688 339.351562 169.023438 336.957031 162.726562 332.160156 C 156.429688 327.363281 153.28125 320.402344 153.28125 311.273438 C 153.28125 304.457031 155.214844 298.589844 159.085938 293.679688 C 162.957031 288.769531 168.648438 285.792969 176.160156 284.753906 C 174.890625 288.105469 174.253906 291.398438 174.253906 294.632812 C 174.253906 299.488281 175.726562 303.269531 178.671875 305.988281 C 181.621094 308.703125 185.171875 310.058594 189.332031 310.058594 C 196.730469 310.058594 204.183594 306.042969 211.691406 298.011719 C 219.203125 289.984375 225.761719 281.027344 231.367188 271.148438 C 236.96875 261.265625 241.042969 253.207031 243.585938 246.964844 C 244.28125 245.351562 244.917969 243.671875 245.492188 241.941406 C 249.421875 231.191406 253.726562 221.167969 258.40625 211.867188 C 263.085938 202.5625 269.414062 193.984375 277.386719 186.125 C 285.359375 178.269531 294.546875 174.339844 304.945312 174.339844 C 312.804688 174.339844 319.449219 176.765625 324.878906 181.621094 C 330.308594 186.472656 333.027344 193.695312 333.027344 203.285156 C 333.027344 210.683594 331.261719 217.035156 327.738281 222.351562 C 324.214844 227.667969 318.871094 231.308594 311.707031 233.273438 C 312.976562 230.382812 313.613281 227.148438 313.613281 223.566406 C 313.613281 218.597656 312.371094 214.238281 309.886719 210.480469 C 307.402344 206.722656 304.253906 204.847656 300.441406 204.847656 C 294.664062 204.847656 288.597656 208.921875 282.238281 217.066406 C 275.882812 225.214844 270.25 234.140625 265.339844 243.847656 C 260.429688 253.554688 256.816406 261.351562 254.507812 267.246094 C 250.691406 277.300781 246.445312 287.035156 241.765625 296.453125 C 237.085938 305.871094 229.863281 315.375 220.101562 324.964844 C 210.335938 334.558594 198.867188 339.351562 185.691406 339.351562 Z M 296.625 340.394531 C 289.117188 340.394531 282.183594 338.488281 275.828125 334.671875 C 269.46875 330.859375 264.269531 325.601562 260.226562 318.898438 C 256.183594 312.195312 253.757812 304.6875 252.945312 296.367188 C 252.714844 293.824219 252.601562 291.976562 252.601562 290.820312 C 252.601562 286.3125 253.121094 282.328125 254.160156 278.859375 C 255.199219 275.394531 256.816406 271.058594 259.011719 265.859375 L 260.746094 261.875 C 261.441406 264.761719 261.902344 268.515625 262.132812 273.140625 L 262.828125 282.152344 C 264.214844 294.863281 267.507812 304.371094 272.707031 310.667969 C 277.90625 316.964844 284.550781 320.113281 292.640625 320.113281 C 297.609375 320.113281 302.144531 318.988281 306.246094 316.734375 C 310.351562 314.480469 313.554688 311.390625 315.867188 307.460938 C 318.175781 303.53125 319.332031 299.195312 319.332031 294.460938 C 319.332031 292.378906 319.042969 290.011719 318.464844 287.351562 L 322.453125 286.140625 C 326.730469 292.496094 329.386719 298.621094 330.425781 304.511719 C 330.65625 305.554688 330.773438 307.171875 330.773438 309.367188 C 330.773438 314.796875 329.328125 319.882812 326.441406 324.621094 C 323.550781 329.355469 319.507812 333.171875 314.308594 336.058594 C 309.105469 338.949219 303.214844 340.394531 296.625 340.394531 Z M 296.625 340.394531 "/>
<path style=" stroke:none;fill-rule:nonzero;fill:rgb(100%,100%,100%);fill-opacity:1;" d="M 231.574219 455.460938 C 231.574219 456.96875 231.40625 458.1875 231.066406 459.113281 C 230.726562 460.039062 230.246094 460.761719 229.617188 461.273438 C 228.992188 461.785156 228.242188 462.128906 227.371094 462.300781 C 226.496094 462.472656 225.523438 462.5625 224.453125 462.5625 C 223.003906 462.5625 221.898438 462.335938 221.128906 461.882812 C 220.359375 461.429688 219.976562 460.886719 219.976562 460.253906 C 219.976562 459.726562 220.191406 459.28125 220.621094 458.921875 C 221.050781 458.558594 221.625 458.378906 222.351562 458.378906 C 222.894531 458.378906 223.328125 458.527344 223.648438 458.820312 C 223.972656 459.113281 224.242188 459.402344 224.453125 459.691406 C 224.695312 460.007812 224.898438 460.21875 225.0625 460.324219 C 225.230469 460.429688 225.378906 460.480469 225.515625 460.480469 C 225.800781 460.480469 226.019531 460.3125 226.171875 459.972656 C 226.320312 459.632812 226.398438 458.972656 226.398438 457.996094 L 226.398438 439.410156 L 231.574219 437.984375 Z M 238.949219 438.484375 L 238.949219 450.441406 C 238.949219 450.773438 239.011719 451.085938 239.140625 451.382812 C 239.269531 451.675781 239.445312 451.929688 239.671875 452.140625 C 239.898438 452.351562 240.160156 452.519531 240.460938 452.648438 C 240.765625 452.777344 241.089844 452.839844 241.433594 452.839844 C 241.828125 452.839844 242.273438 452.621094 242.8125 452.242188 C 243.671875 451.640625 244.191406 451.226562 244.191406 450.738281 C 244.191406 450.621094 244.191406 438.484375 244.191406 438.484375 L 249.347656 438.484375 L 249.347656 455.460938 L 244.191406 455.460938 L 244.191406 453.878906 C 243.515625 454.453125 242.792969 454.910156 242.023438 455.257812 C 241.253906 455.605469 240.507812 455.777344 239.785156 455.777344 C 238.941406 455.777344 238.15625 455.640625 237.433594 455.359375 C 236.710938 455.082031 236.078125 454.699219 235.535156 454.21875 C 234.992188 453.738281 234.566406 453.171875 234.257812 452.523438 C 233.949219 451.875 233.792969 451.179688 233.792969 450.441406 L 233.792969 438.484375 Z M 256.578125 455.460938 L 251.445312 455.460938 L 251.445312 431.65625 L 256.578125 430.230469 Z M 258.71875 439.410156 L 263.875 437.984375 L 263.875 455.460938 L 258.71875 455.460938 Z M 274.644531 446.691406 C 274.148438 446.902344 273.644531 447.144531 273.140625 447.425781 C 272.636719 447.703125 272.175781 448.007812 271.761719 448.339844 C 271.347656 448.671875 271.011719 449.027344 270.757812 449.402344 C 270.5 449.78125 270.371094 450.171875 270.371094 450.578125 C 270.371094 450.894531 270.414062 451.199219 270.496094 451.496094 C 270.578125 451.789062 270.695312 452.039062 270.847656 452.25 C 270.996094 452.460938 271.164062 452.632812 271.34375 452.761719 C 271.523438 452.886719 271.722656 452.953125 271.933594 452.953125 C 272.355469 452.953125 272.78125 452.824219 273.210938 452.566406 C 273.640625 452.3125 274.117188 451.988281 274.644531 451.597656 Z M 279.820312 455.460938 L 274.644531 455.460938 L 274.644531 454.105469 C 274.359375 454.347656 274.078125 454.570312 273.808594 454.773438 C 273.539062 454.976562 273.230469 455.152344 272.894531 455.304688 C 272.554688 455.453125 272.171875 455.570312 271.75 455.65625 C 271.328125 455.738281 270.832031 455.777344 270.257812 455.777344 C 269.476562 455.777344 268.769531 455.664062 268.144531 455.441406 C 267.519531 455.214844 266.988281 454.90625 266.550781 454.511719 C 266.113281 454.121094 265.777344 453.65625 265.546875 453.121094 C 265.3125 452.585938 265.195312 452.003906 265.195312 451.371094 C 265.195312 450.722656 265.320312 450.132812 265.566406 449.605469 C 265.816406 449.078125 266.15625 448.605469 266.585938 448.183594 C 267.015625 447.761719 267.515625 447.382812 268.089844 447.050781 C 268.660156 446.71875 269.277344 446.414062 269.929688 446.136719 C 270.585938 445.855469 271.269531 445.601562 271.976562 445.367188 C 272.683594 445.132812 273.386719 444.910156 274.078125 444.699219 L 274.644531 444.566406 L 274.644531 442.890625 C 274.644531 441.808594 274.4375 441.039062 274.023438 440.585938 C 273.609375 440.132812 273.054688 439.90625 272.363281 439.90625 C 271.546875 439.90625 270.980469 440.105469 270.664062 440.496094 C 270.347656 440.886719 270.191406 441.363281 270.191406 441.917969 C 270.191406 442.234375 270.15625 442.546875 270.089844 442.847656 C 270.023438 443.148438 269.90625 443.410156 269.738281 443.636719 C 269.574219 443.863281 269.335938 444.046875 269.027344 444.179688 C 268.71875 444.316406 268.328125 444.382812 267.863281 444.382812 C 267.140625 444.382812 266.550781 444.175781 266.097656 443.761719 C 265.648438 443.347656 265.421875 442.824219 265.421875 442.191406 C 265.421875 441.601562 265.621094 441.058594 266.019531 440.550781 C 266.417969 440.046875 266.957031 439.613281 267.636719 439.253906 C 268.316406 438.890625 269.097656 438.605469 269.988281 438.394531 C 270.875 438.183594 271.820312 438.078125 272.8125 438.078125 C 274.035156 438.078125 275.085938 438.1875 275.96875 438.402344 C 276.847656 438.621094 277.578125 438.933594 278.148438 439.34375 C 278.722656 439.75 279.144531 440.238281 279.414062 440.8125 C 279.6875 441.382812 279.820312 442.027344 279.820312 442.734375 Z M 279.820312 455.460938 "/>
<path style=" stroke:none;fill-rule:nonzero;fill:rgb(100%,100%,100%);fill-opacity:1;" d="M 265.054688 433.617188 C 265.054688 438.285156 258.054688 438.285156 258.054688 433.617188 C 258.054688 428.953125 265.054688 428.953125 265.054688 433.617188 "/>
<path style=" stroke:none;fill-rule:nonzero;fill:rgb(100%,100%,100%);fill-opacity:1;" d="M 232.589844 433.617188 C 232.589844 438.285156 225.589844 438.285156 225.589844 433.617188 C 225.589844 428.953125 232.589844 428.953125 232.589844 433.617188 "/>
<path style=" stroke:none;fill-rule:nonzero;fill:rgb(100%,100%,100%);fill-opacity:1;" d="M 273.464844 433.617188 C 273.464844 438.285156 266.464844 438.285156 266.464844 433.617188 C 266.464844 428.953125 273.464844 428.953125 273.464844 433.617188 "/>
<path style=" stroke:none;fill-rule:nonzero;fill:rgb(100%,100%,100%);fill-opacity:1;" d="M 269.261719 426.335938 C 269.261719 431 262.261719 431 262.261719 426.335938 C 262.261719 421.667969 269.261719 421.667969 269.261719 426.335938 "/>
</g>
</svg>
