<?xml version="1.0" encoding="UTF-8" standalone="no"?>
<!DOCTYPE svg PUBLIC "-//W3C//DTD SVG 1.1//EN" "http://www.w3.org/Graphics/SVG/1.1/DTD/svg11.dtd">
<svg width="100%" height="100%" viewBox="0 0 500 500" version="1.1" xmlns="http://www.w3.org/2000/svg" xmlns:xlink="http://www.w3.org/1999/xlink" xml:space="preserve" xmlns:serif="http://www.serif.com/" style="fill-rule:evenodd;clip-rule:evenodd;stroke-linejoin:round;stroke-miterlimit:2;">
    <g transform="matrix(0.821881,0,0,0.821881,250,250)">
        <g transform="matrix(1,0,0,1,-300,-300)">
            <g id="surface457">
                <path d="M214.867,68.406L224.223,54.938L234.449,43.426L245.461,33.805L257.184,26.012L269.539,19.98L282.441,15.645L295.816,12.934L309.586,11.789L323.664,12.141L337.977,13.922L352.441,17.066L366.98,21.512L381.516,27.191L395.965,34.039L410.25,41.988L424.289,50.969L438.008,60.922L451.324,71.777L464.16,83.473L476.43,95.941L488.063,109.113L498.977,122.926L509.086,137.313L518.32,152.207L526.594,167.543L533.828,183.258L539.949,199.281L544.871,215.547L548.516,231.996L550.805,248.555L551.66,265.164L549.406,248.043L546.293,231.242L542.352,214.805L537.613,198.77L532.109,183.18L525.863,168.078L518.906,153.5L511.27,139.488L502.977,126.09L494.066,113.34L484.563,101.277L474.492,89.949L463.887,79.395L452.777,69.652L441.188,60.77L429.156,52.777L416.703,45.727L403.863,39.652L390.664,34.598L377.133,30.605L363.301,27.711L349.199,25.961L334.852,25.395L320.293,26.055L305.551,27.98L290.652,31.211L275.629,35.789L260.508,41.758L245.324,49.156L230.098,58.023" style="fill:rgb(56,151,37);fill-opacity:0.5;fill-rule:nonzero;"/>
                <path d="M211.516,475.793L204.461,462.629L197.848,449.363L191.688,436.02L185.988,422.617L180.773,409.188L176.051,395.75L171.836,382.328L168.137,368.945L164.977,355.629L162.359,342.398L160.309,329.281L158.828,316.297L157.934,303.473L157.645,290.832L157.969,278.398L158.922,266.191L160.516,254.242L162.766,242.57L165.684,231.199L169.285,220.152L173.582,209.457L178.586,199.133L184.316,189.203L190.781,179.695L198,170.633L205.977,162.039L214.734,153.934L224.281,146.344L234.633,139.297L245.801,132.809L257.801,126.91L242.848,134.316L228.906,142.262L215.969,150.723L204.023,159.664L193.059,169.059L183.055,178.875L174.012,189.086L165.906,199.664L158.734,210.574L152.477,221.793L147.125,233.285L142.668,245.027L139.094,256.984L136.387,269.129L134.539,281.434L133.531,293.867L133.359,306.398L134.008,319L135.461,331.641L137.715,344.297L140.75,356.93L144.555,369.52L149.121,382.027L154.434,394.434L160.48,406.699L167.25,418.801L174.734,430.707L182.91,442.391L191.777,453.816L201.316,464.961" style="fill:rgb(202,59,51);fill-opacity:0.5;fill-rule:nonzero;"/>
                <path d="M539,332L530.754,348.227L522.07,363.73L512.969,378.516L503.457,392.57L493.559,405.891L483.285,418.473L472.656,430.309L461.688,441.398L450.391,451.734L438.785,461.313L426.887,470.129L414.711,478.176L402.273,485.449L389.594,491.945L376.684,497.656L363.559,502.582L350.234,506.711L336.734,510.047L323.066,512.578L309.25,514.301L295.297,515.211L281.23,515.301L267.063,514.574L252.809,513.016L238.488,510.625L224.113,507.398L209.699,503.328L195.266,498.41L180.828,492.641L166.402,486.016L152,478.527L167.648,490.164L183.906,500.563L200.691,509.734L217.91,517.699L235.488,524.465L253.332,530.051L271.363,534.477L289.496,537.75L307.641,539.891L325.719,540.918L343.641,540.844L361.32,539.68L378.68,537.449L395.629,534.16L412.086,529.836L427.961,524.484L443.176,518.125L457.641,510.777L471.273,502.449L483.988,493.16L495.699,482.926L506.324,471.762L515.773,459.684L523.969,446.707L530.82,432.844L536.246,418.117L540.16,402.535L542.477,386.117L543.113,368.879L541.98,350.836" style="fill:rgb(148,87,177);fill-opacity:0.5;fill-rule:nonzero;"/>
                <path d="M146.715,136.445L159.418,123.355L172.691,111.965L186.477,102.223L200.715,94.09L215.348,87.516L230.316,82.453L245.559,78.852L261.02,76.668L276.633,75.852L292.344,76.359L308.09,78.141L323.816,81.152L339.457,85.344L354.961,90.664L370.258,97.074L385.301,104.523L400.02,112.961L414.359,122.348L428.262,132.625L441.664,143.758L454.508,155.691L466.734,168.379L478.285,181.773L489.102,195.832L499.121,210.504L508.281,225.738L516.531,241.496L523.805,257.723L530.047,274.375L535.191,291.406L539.188,308.77L535.953,288.855L531.184,269.508L524.965,250.766L517.398,232.664L508.57,215.25L498.582,198.563L487.527,182.641L475.496,167.527L462.586,153.262L448.891,139.887L434.504,127.441L419.516,115.965L404.031,105.5L388.133,96.086L371.922,87.766L355.492,80.582L338.934,74.566L322.348,69.77L305.82,66.227L289.453,63.98L273.336,63.07L257.563,63.535L242.23,65.422L227.434,68.766L213.262,73.609L199.816,79.996L187.184,87.961L175.465,97.547L164.75,108.797L155.137,121.75" style="fill:rgb(56,151,37);fill-opacity:0.9;fill-rule:nonzero;"/>
                <path d="M210.391,501.848L194.012,495.027L178.766,487.301L164.637,478.727L151.609,469.352L139.668,459.238L128.805,448.434L118.996,437L110.23,424.988L102.492,412.449L95.77,399.445L90.043,386.027L85.301,372.254L81.523,358.172L78.703,343.844L76.82,329.316L75.863,314.656L75.813,299.906L76.652,285.129L78.375,270.375L80.961,255.699L84.395,241.156L88.66,226.805L93.746,212.699L99.637,198.891L106.316,185.434L113.766,172.387L121.98,159.801L130.934,147.73L140.621,136.234L151.02,125.367L162.117,115.18L149.637,128.203L137.992,141.828L127.199,155.984L117.258,170.609L108.191,185.641L99.996,201.004L92.695,216.641L86.289,232.48L80.793,248.461L76.215,264.512L72.566,280.57L69.859,296.574L68.098,312.449L67.297,328.137L67.469,343.566L68.617,358.672L70.758,373.391L73.898,387.656L78.047,401.402L83.219,414.566L89.422,427.074L96.668,438.867L104.961,449.875L114.316,460.035L124.746,469.277L136.258,477.543L148.859,484.762L162.563,490.863L177.379,495.793L193.32,499.473" style="fill:rgb(202,59,51);fill-opacity:0.9;fill-rule:nonzero;"/>
                <path d="M579,320L584.16,336.059L587.559,351.727L589.266,366.98L589.355,381.801L587.902,396.168L584.98,410.055L580.66,423.449L575.016,436.324L568.121,448.66L560.047,460.438L550.867,471.633L540.66,482.227L529.492,492.199L517.438,501.531L504.57,510.195L490.969,518.176L476.699,525.453L461.836,532L446.453,537.805L430.629,542.836L414.426,547.082L397.926,550.516L381.199,553.117L364.316,554.871L347.355,555.75L330.391,555.734L313.488,554.805L296.723,552.941L280.172,550.117L263.906,546.32L248,541.527L264.594,547.008L281.016,551.395L297.246,554.715L313.258,556.992L329.031,558.258L344.539,558.531L359.762,557.84L374.676,556.215L389.258,553.68L403.484,550.254L417.328,545.973L430.773,540.859L443.793,534.938L456.363,528.234L468.461,520.773L480.066,512.586L491.152,503.699L501.695,494.129L511.676,483.914L521.07,473.07L529.852,461.629L538,449.613L545.492,437.051L552.305,423.969L558.414,410.395L563.797,396.348L568.43,381.859L572.289,366.953L575.352,351.66L577.598,336" style="fill:rgb(148,87,177);fill-opacity:0.9;fill-rule:nonzero;"/>
                <path d="M177.047,93.914L186.672,79.957L197.191,68L208.52,57.973L220.578,49.816L233.285,43.461L246.563,38.844L260.324,35.898L274.488,34.555L288.98,34.754L303.715,36.43L318.613,39.512L333.59,43.938L348.566,49.645L363.461,56.563L378.195,64.629L392.684,73.773L406.848,83.938L420.605,95.055L433.879,107.055L446.582,119.875L458.633,133.449L469.957,147.715L480.469,162.602L490.086,178.047L498.73,193.988L506.32,210.355L512.773,227.082L518.008,244.105L521.945,261.363L524.5,278.781L525.598,296.305L521.648,279.105L516.719,261.98L510.863,244.996L504.129,228.211L496.57,211.699L488.238,195.523L479.184,179.746L469.453,164.441L459.102,149.672L448.18,135.504L436.738,122L424.824,109.23L412.496,97.262L399.797,86.16L386.785,75.988L373.504,66.813L360.012,58.703L346.352,51.723L332.582,45.938L318.746,41.414L304.902,38.223L291.098,36.426L277.387,36.086L263.813,37.277L250.434,40.059L237.297,44.5L224.453,50.668L211.957,58.625L199.855,68.441L188.203,80.184" style="fill:rgb(56,151,37);fill-opacity:0.9;fill-rule:nonzero;"/>
                <path d="M188.535,495.988L177.293,483.777L166.332,471.41L155.688,458.902L145.402,446.262L135.516,433.504L126.066,420.637L117.094,407.676L108.637,394.629L100.734,381.512L93.426,368.336L86.75,355.113L80.75,341.852L75.461,328.563L70.922,315.266L67.172,301.965L64.258,288.676L62.207,275.406L61.066,262.176L60.875,248.988L61.672,235.859L63.492,222.801L66.379,209.82L70.367,196.938L75.504,184.156L81.824,171.496L89.363,158.961L98.168,146.566L108.273,134.324L119.719,122.246L132.543,110.344L146.789,98.629L133.109,110.949L120.508,124.004L108.973,137.715L98.496,152.012L89.07,166.824L80.691,182.082L73.344,197.707L67.031,213.629L61.734,229.777L57.457,246.078L54.184,262.465L51.906,278.855L50.625,295.184L50.324,311.379L51.004,327.363L52.648,343.07L55.258,358.426L58.82,373.355L63.328,387.789L68.777,401.656L75.156,414.879L82.461,427.391L90.68,439.117L99.809,449.984L109.84,459.926L120.766,468.859L132.574,476.723L145.266,483.441L158.828,488.938L173.254,493.145" style="fill:rgb(202,59,51);fill-opacity:0.9;fill-rule:nonzero;"/>
                <path d="M514,340L518.754,353.117L521.633,365.867L522.715,378.234L522.09,390.199L519.848,401.746L516.066,412.852L510.84,423.504L504.25,433.684L496.379,443.367L487.32,452.543L477.152,461.191L465.969,469.293L453.852,476.832L440.883,483.789L427.156,490.145L412.75,495.883L397.758,500.984L382.258,505.43L366.34,509.207L350.094,512.293L333.598,514.668L316.941,516.32L300.211,517.227L283.492,517.371L266.871,516.734L250.434,515.301L234.266,513.051L218.453,509.965L203.078,506.031L188.234,501.223L174,495.527L187.867,500.391L202.406,504.57L217.527,508.066L233.141,510.879L249.156,513.02L265.488,514.48L282.039,515.273L298.73,515.395L315.461,514.848L332.152,513.641L348.707,511.77L365.039,509.246L381.055,506.063L396.672,502.227L411.801,497.746L426.344,492.613L440.219,486.84L453.332,480.426L465.598,473.375L476.926,465.688L487.227,457.367L496.406,448.414L504.383,438.84L511.059,428.637L516.352,417.816L520.168,406.375L522.422,394.32L523.02,381.652L521.875,368.375L518.898,354.488" style="fill:rgb(148,87,177);fill-opacity:0.9;fill-rule:nonzero;"/>
                <path d="M239.605,111.555L252.488,103.465L265.324,96.781L278.094,91.457L290.762,87.457L303.313,84.742L315.711,83.27L327.938,82.996L339.965,83.887L351.766,85.902L363.316,88.996L374.59,93.133L385.563,98.27L396.203,104.367L406.496,111.387L416.406,119.285L425.91,128.027L434.984,137.566L443.602,147.863L451.734,158.883L459.363,170.578L466.457,182.914L472.988,195.848L478.938,209.34L484.273,223.352L488.977,237.84L493.012,252.766L496.363,268.086L499,283.766L500.895,299.762L502.027,316.035L502.367,332.543L502.406,319.148L501.598,305.574L499.973,291.875L497.555,278.121L494.379,264.371L490.469,250.688L485.859,237.129L480.57,223.766L474.641,210.648L468.094,197.852L460.961,185.426L453.266,173.441L445.047,161.957L436.324,151.031L427.133,140.734L417.496,131.125L407.449,122.262L397.016,114.211L386.227,107.031L375.113,100.785L363.703,95.539L352.023,91.352L340.102,88.285L327.973,86.402L315.66,85.762L303.199,86.43L290.609,88.469L277.93,91.938L265.18,96.902L252.398,103.418" style="fill:rgb(56,151,37);fill-opacity:0.4;fill-rule:nonzero;"/>
                <path d="M241.766,472.188L228.719,470.855L216.398,468.301L204.797,464.582L193.914,459.758L183.75,453.891L174.301,447.043L165.566,439.273L157.547,430.645L150.238,421.211L143.637,411.039L137.742,400.188L132.555,388.719L128.07,376.688L124.293,364.164L121.211,351.199L118.832,337.859L117.152,324.203L116.164,310.293L115.871,296.188L116.273,281.945L117.363,267.633L119.145,253.305L121.613,239.023L124.77,224.852L128.609,210.852L133.129,197.078L138.332,183.594L144.215,170.461L150.773,157.738L158.012,145.488L165.922,133.77L158.41,145.441L151.352,157.656L144.77,170.355L138.684,183.469L133.117,196.945L128.094,210.715L123.633,224.719L119.758,238.898L116.488,253.191L113.844,267.539L111.852,281.871L110.531,296.137L109.902,310.27L109.988,324.207L110.809,337.891L112.387,351.258L114.746,364.25L117.906,376.801L121.891,388.852L126.719,400.344L132.414,411.211L138.996,421.398L146.484,430.836L154.91,439.469L164.285,447.238L174.637,454.074L185.98,459.922L198.348,464.719L211.75,468.402L226.215,470.91" style="fill:rgb(202,59,51);fill-opacity:0.4;fill-rule:nonzero;"/>
                <path d="M493,252L495.926,268.91L497.539,285.523L497.887,301.809L497.008,317.73L494.949,333.258L491.762,348.367L487.484,363.016L482.168,377.184L475.855,390.832L468.59,403.938L460.422,416.461L451.391,428.375L441.551,439.645L430.938,450.246L419.602,460.145L407.59,469.309L394.945,477.707L381.715,485.309L367.941,492.082L353.672,498L338.953,503.027L323.832,507.133L308.348,510.285L292.551,512.457L276.484,513.613L260.195,513.727L243.73,512.762L227.133,510.691L210.449,507.484L193.723,503.105L177,497.527L194.465,500.047L211.699,501.719L228.688,502.551L245.391,502.566L261.793,501.773L277.859,500.195L293.566,497.844L308.887,494.734L323.797,490.891L338.262,486.32L352.262,481.043L365.77,475.074L378.758,468.434L391.199,461.133L403.063,453.191L414.328,444.621L424.965,435.441L434.949,425.672L444.25,415.32L452.844,404.41L460.703,392.957L467.805,380.973L474.113,368.477L479.609,355.48L484.262,342.008L488.047,328.074L490.934,313.688L492.902,298.875L493.918,283.641L493.961,268.012" style="fill:rgb(148,87,177);fill-opacity:0.4;fill-rule:nonzero;"/>
                <path d="M235.801,130.145L243.188,121.477L251.211,114.016L259.816,107.73L268.941,102.59L278.527,98.566L288.512,95.625L298.836,93.738L309.445,92.871L320.277,92.996L331.273,94.082L342.371,96.098L353.512,99.016L364.637,102.797L375.691,107.418L386.609,112.844L397.332,119.043L407.801,125.988L417.961,133.648L427.746,141.992L437.102,150.984L445.965,160.602L454.277,170.809L461.98,181.574L469.016,192.867L475.32,204.66L480.84,216.918L485.508,229.613L489.27,242.711L492.066,256.188L493.836,270.004L494.52,284.133L491.949,271.086L488.707,258.387L484.824,246.055L480.332,234.109L475.254,222.574L469.621,211.469L463.469,200.809L456.82,190.617L449.711,180.91L442.164,171.707L434.215,163.031L425.887,154.902L417.219,147.336L408.23,140.359L398.957,133.98L389.426,128.23L379.668,123.121L369.711,118.676L359.59,114.91L349.328,111.852L338.957,109.512L328.512,107.914L318.012,107.078L307.492,107.023L296.984,107.766L286.516,109.332L276.117,111.738L265.816,115L255.645,119.145L245.629,124.184" style="fill:rgb(56,151,37);fill-opacity:0.4;fill-rule:nonzero;"/>
                <path d="M237.211,508.301L219.281,504.668L202.414,499.801L186.617,493.75L171.887,486.582L158.223,478.355L145.625,469.133L134.098,458.973L123.637,447.938L114.246,436.086L105.922,423.484L98.664,410.188L92.473,396.258L87.352,381.758L83.297,366.746L80.309,351.285L78.391,335.438L77.543,319.258L77.758,302.813L79.043,286.156L81.395,269.355L84.816,252.473L89.305,235.563L94.863,218.688L101.488,201.91L109.18,185.293L117.941,168.891L127.77,152.77L138.668,136.988L150.633,121.605L163.668,106.684L177.77,92.289L163.824,104.887L151.082,117.879L139.523,131.223L129.141,144.887L119.914,158.836L111.832,173.035L104.875,187.449L99.031,202.047L94.285,216.793L90.621,231.648L88.023,246.582L86.48,261.563L85.973,276.547L86.488,291.508L88.012,306.406L90.527,321.211L94.023,335.883L98.48,350.395L103.883,364.703L110.223,378.781L117.477,392.59L125.633,406.094L134.68,419.262L144.598,432.059L155.375,444.445L166.996,456.395L179.441,467.867L192.703,478.828L206.762,489.242L221.602,499.078" style="fill:rgb(202,59,51);fill-opacity:0.4;fill-rule:nonzero;"/>
                <path d="M551,250L554.203,264.32L556.105,278.539L556.746,292.609L556.172,306.496L554.426,320.156L551.555,333.555L547.605,346.648L542.617,359.398L536.641,371.766L529.715,383.711L521.891,395.195L513.211,406.172L503.715,416.609L493.453,426.465L482.469,435.699L470.809,444.273L458.516,452.145L445.633,459.277L432.203,465.629L418.281,471.16L403.902,475.832L389.113,479.602L373.961,482.438L358.488,484.289L342.742,485.125L326.766,484.902L310.605,483.582L294.301,481.125L277.906,477.488L261.457,472.637L245,466.527L260.156,472.48L275.656,477.305L291.422,481.023L307.387,483.672L323.48,485.27L339.625,485.852L355.754,485.441L371.793,484.066L387.672,481.754L403.316,478.535L418.656,474.434L433.621,469.477L448.137,463.699L462.133,457.121L475.535,449.77L488.277,441.68L500.285,432.875L511.484,423.379L521.805,413.227L531.176,402.441L539.523,391.051L546.777,379.086L552.867,366.57L557.715,353.531L561.258,340.004L563.418,326.004L564.129,311.57L563.313,296.727L560.898,281.496L556.82,265.91" style="fill:rgb(148,87,177);fill-opacity:0.4;fill-rule:nonzero;"/>
                <path d="M195.109,76.629L206.145,66.168L217.727,57.504L229.777,50.578L242.234,45.336L255.031,41.719L268.102,39.664L281.375,39.121L294.785,40.027L308.262,42.328L321.742,45.965L335.156,50.879L348.441,57.016L361.523,64.313L374.336,72.715L386.816,82.168L398.895,92.609L410.504,103.98L421.574,116.23L432.043,129.297L441.84,143.121L450.895,157.652L459.145,172.824L466.523,188.582L472.961,204.871L478.387,221.633L482.738,238.805L485.949,256.336L487.949,274.168L488.668,292.238L488.047,310.492L486.008,328.875L486.734,313.68L486.473,298.582L485.254,283.621L483.109,268.828L480.074,254.25L476.18,239.926L471.457,225.887L465.941,212.176L459.668,198.832L452.664,185.895L444.961,173.402L436.598,161.391L427.605,149.902L418.016,138.977L407.855,128.648L397.168,118.961L385.977,109.949L374.32,101.656L362.23,94.113L349.734,87.367L336.875,81.453L323.672,76.41L310.168,72.277L296.395,69.094L282.379,66.895L268.16,65.727L253.766,65.621L239.23,66.621L224.59,68.762L209.871,72.086" style="fill:rgb(56,151,37);fill-opacity:0.5;fill-rule:nonzero;"/>
                <path d="M189.168,499.086L175.465,495.41L163.02,490.383L151.813,484.082L141.805,476.598L132.977,468L125.297,458.379L118.738,447.816L113.27,436.387L108.863,424.172L105.496,411.262L103.133,397.727L101.75,383.656L101.32,369.129L101.809,354.227L103.195,339.031L105.445,323.621L108.535,308.078L112.434,292.488L117.113,276.926L122.543,261.477L128.699,246.223L135.555,231.242L143.078,216.621L151.238,202.434L160.012,188.77L169.367,175.703L179.281,163.316L189.723,151.695L200.66,140.918L212.066,131.066L223.918,122.223L211.367,129.832L199.273,138.277L187.68,147.508L176.605,157.461L166.09,168.086L156.16,179.324L146.848,191.125L138.184,203.434L130.195,216.188L122.922,229.34L116.391,242.832L110.629,256.609L105.672,270.617L101.551,284.797L98.293,299.098L95.934,313.461L94.5,327.832L94.027,342.16L94.539,356.383L96.074,370.453L98.664,384.309L102.332,397.898L107.113,411.168L113.039,424.055L120.141,436.516L128.449,448.484L137.996,459.91L148.809,470.742L160.922,480.918L174.367,490.383" style="fill:rgb(202,59,51);fill-opacity:0.5;fill-rule:nonzero;"/>
                <path d="M471,357L474.563,367.516L476.895,378.008L478.047,388.453L478.074,398.809L477.016,409.043L474.926,419.125L471.852,429.016L467.844,438.688L462.953,448.105L457.223,457.234L450.703,466.039L443.445,474.488L435.496,482.547L426.906,490.184L417.723,497.359L407.992,504.047L397.77,510.211L387.102,515.816L376.035,520.828L364.621,525.215L352.902,528.941L340.938,531.973L328.77,534.281L316.445,535.828L304.02,536.578L291.539,536.504L279.051,535.566L266.602,533.734L254.246,530.973L242.027,527.246L230,522.527L241.563,524.531L253.496,525.836L265.734,526.461L278.215,526.426L290.871,525.754L303.641,524.469L316.457,522.59L329.258,520.141L341.98,517.141L354.555,513.617L366.918,509.59L379.012,505.078L390.762,500.105L402.113,494.695L412.996,488.871L423.344,482.648L433.102,476.059L442.195,469.113L450.563,461.844L458.141,454.266L464.867,446.402L470.676,438.281L475.5,429.914L479.281,421.332L481.945,412.555L483.438,403.602L483.688,394.496L482.633,385.262L480.211,375.922L476.355,366.492" style="fill:rgb(148,87,177);fill-opacity:0.5;fill-rule:nonzero;"/>
                <path d="M225.492,78.004L235.996,70.012L246.82,63.316L257.922,57.875L269.25,53.645L280.766,50.59L292.41,48.664L304.148,47.832L315.93,48.047L327.703,49.273L339.43,51.465L351.059,54.586L362.543,58.594L373.84,63.449L384.898,69.109L395.676,75.531L406.121,82.68L416.195,90.512L425.844,98.984L435.023,108.059L443.688,117.695L451.793,127.852L459.285,138.484L466.129,149.555L472.266,161.027L477.656,172.852L482.254,184.996L486.012,197.414L488.879,210.066L490.816,222.91L491.77,235.91L491.699,249.02L490.895,236.66L489.316,224.676L486.992,213.078L483.949,201.879L480.207,191.078L475.801,180.691L470.75,170.723L465.086,161.18L458.832,152.07L452.016,143.406L444.664,135.191L436.801,127.438L428.457,120.148L419.652,113.336L410.418,107.008L400.777,101.168L390.758,95.828L380.387,90.996L369.691,86.68L358.695,82.887L347.426,79.625L335.91,76.902L324.172,74.727L312.242,73.105L300.141,72.051L287.898,71.566L275.543,71.664L263.098,72.348L250.59,73.625L238.047,75.508" style="fill:rgb(56,151,37);fill-opacity:0.7;fill-rule:nonzero;"/>
                <path d="M153.117,480.645L138.809,471.484L125.891,461.559L114.336,450.922L104.117,439.637L95.203,427.766L87.57,415.359L81.191,402.48L76.035,389.191L72.074,375.551L69.281,361.617L67.629,347.449L67.086,333.109L67.633,318.652L69.23,304.141L71.859,289.633L75.492,275.188L80.094,260.867L85.641,246.727L92.105,232.832L99.457,219.234L107.672,206L116.719,193.184L126.574,180.852L137.203,169.055L148.582,157.855L160.684,147.316L173.48,137.492L186.941,128.445L201.043,120.238L215.75,112.922L231.043,106.563L216.805,115.438L202.867,125.234L189.281,135.879L176.098,147.305L163.363,159.434L151.129,172.191L139.445,185.504L128.359,199.301L117.926,213.504L108.188,228.047L99.199,242.848L91.008,257.84L83.668,272.945L77.223,288.094L71.727,303.207L67.223,318.219L63.77,333.047L61.414,347.625L60.199,361.875L60.184,375.727L61.414,389.102L63.938,401.934L67.805,414.141L73.066,425.656L79.773,436.402L87.973,446.309L97.719,455.301L109.055,463.301L122.031,470.242L136.703,476.047" style="fill:rgb(202,59,51);fill-opacity:0.7;fill-rule:nonzero;"/>
                <path d="M481,268L482.891,281.707L483.832,294.984L483.852,307.828L482.988,320.23L481.27,332.184L478.73,343.68L475.406,354.707L471.324,365.266L466.523,375.34L461.035,384.926L454.891,394.012L448.121,402.598L440.762,410.672L432.848,418.223L424.41,425.246L415.48,431.738L406.094,437.684L396.281,443.078L386.078,447.914L375.512,452.184L364.621,455.879L353.438,458.992L341.992,461.512L330.32,463.438L318.453,464.758L306.422,465.465L294.266,465.551L282.012,465.008L269.691,463.828L257.344,462.004L245,459.527L258.352,463.766L271.805,466.941L285.313,469.102L298.816,470.273L312.277,470.5L325.637,469.82L338.844,468.266L351.855,465.883L364.621,462.703L377.082,458.766L389.199,454.109L400.914,448.77L412.18,442.785L422.945,436.195L433.16,429.039L442.777,421.348L451.746,413.168L460.012,404.531L467.531,395.477L474.246,386.043L480.113,376.266L485.082,366.184L489.098,355.836L492.113,345.262L494.078,334.496L494.941,323.574L494.656,312.539L493.168,301.426L490.43,290.273L486.391,279.121" style="fill:rgb(148,87,177);fill-opacity:0.7;fill-rule:nonzero;"/>
                <path d="M215.98,124.473L222.066,114.035L228.855,104.969L236.285,97.23L244.305,90.781L252.855,85.578L261.891,81.578L271.344,78.738L281.168,77.02L291.305,76.379L301.699,76.773L312.297,78.16L323.039,80.504L333.875,83.754L344.75,87.875L355.605,92.82L366.387,98.555L377.039,105.027L387.508,112.203L397.738,120.039L407.676,128.492L417.262,137.52L426.445,147.078L435.168,157.129L443.375,167.633L451.012,178.543L458.023,189.816L464.355,201.418L469.949,213.297L474.754,225.418L478.715,237.738L481.77,250.215L479.621,238.965L476.637,227.75L472.859,216.617L468.336,205.605L463.102,194.77L457.203,184.152L450.68,173.801L443.574,163.758L435.93,154.074L427.789,144.789L419.191,135.957L410.176,127.617L400.793,119.816L391.078,112.605L381.074,106.027L370.824,100.129L360.367,94.957L349.75,90.555L339.012,86.969L328.191,84.246L317.34,82.434L306.488,81.578L295.688,81.723L284.973,82.918L274.391,85.203L263.977,88.629L253.781,93.242L243.844,99.086L234.199,106.211L224.898,114.656" style="fill:rgb(56,151,37);fill-opacity:0.6;fill-rule:nonzero;"/>
                <path d="M233.398,459.695L222.559,450.219L212.328,440.539L202.715,430.672L193.727,420.621L185.367,410.406L177.652,400.039L170.582,389.527L164.172,378.887L158.422,368.125L153.344,357.258L148.945,346.297L145.234,335.254L142.219,324.145L139.906,312.973L138.301,301.754L137.418,290.504L137.258,279.23L137.832,267.949L139.148,256.668L141.215,245.402L144.035,234.16L147.625,222.961L151.984,211.809L157.125,200.719L163.055,189.707L169.781,178.777L177.313,167.949L185.652,157.23L194.813,146.633L204.801,136.172L215.625,125.855L205.297,134.695L195.516,144.156L186.297,154.191L177.66,164.746L169.625,175.77L162.207,187.211L155.43,199.02L149.313,211.148L143.871,223.539L139.121,236.141L135.09,248.91L131.789,261.789L129.242,274.727L127.461,287.676L126.473,300.586L126.293,313.398L126.941,326.07L128.434,338.543L130.793,350.773L134.035,362.703L138.18,374.289L143.242,385.469L149.25,396.203L156.215,406.434L164.156,416.109L173.094,425.184L183.051,433.602L194.039,441.313L206.082,448.266L219.195,454.41" style="fill:rgb(202,59,51);fill-opacity:0.6;fill-rule:nonzero;"/>
                <path d="M527,359L519.93,375.539L512.48,391.465L504.656,406.762L496.453,421.418L487.879,435.414L478.934,448.742L469.625,461.387L459.949,473.332L449.91,484.566L439.516,495.074L428.762,504.844L417.656,513.859L406.199,522.105L394.395,529.574L382.242,536.246L369.75,542.105L356.914,547.145L343.742,551.348L330.238,554.703L316.398,557.188L302.23,558.797L287.734,559.516L272.914,559.328L257.773,558.219L242.313,556.176L226.535,553.184L210.445,549.23L194.043,544.301L177.332,538.383L160.316,531.465L143,523.527L159.168,529.941L175.637,535.574L192.355,540.422L209.262,544.484L226.297,547.766L243.406,550.266L260.535,551.98L277.621,552.91L294.609,553.063L311.441,552.43L328.059,551.016L344.406,548.82L360.422,545.844L376.055,542.086L391.242,537.551L405.93,532.23L420.059,526.133L433.57,519.254L446.41,511.598L458.516,503.16L469.836,493.945L480.309,483.949L489.879,473.176L498.484,461.625L506.074,449.297L512.59,436.188L517.969,422.305L522.156,407.645L525.098,392.207L526.73,375.992" style="fill:rgb(148,87,177);fill-opacity:0.6;fill-rule:nonzero;"/>
                <path d="M234.418,78.539L249.313,74.98L263.996,72.188L278.453,70.148L292.668,68.852L306.629,68.277L320.316,68.418L333.719,69.254L346.816,70.777L359.598,72.977L372.043,75.828L384.145,79.328L395.879,83.457L407.234,88.207L418.195,93.559L428.746,99.5L438.875,106.02L448.559,113.102L457.789,120.734L466.551,128.902L474.824,137.594L482.594,146.793L489.848,156.492L496.57,166.668L502.746,177.316L508.355,188.418L513.387,199.961L517.828,211.934L521.656,224.316L524.863,237.102L527.43,250.277L529.34,263.824L527.641,248.848L525.078,234.18L521.68,219.844L517.488,205.875L512.539,192.301L506.863,179.152L500.504,166.461L493.488,154.258L485.855,142.574L477.645,131.438L468.887,120.883L459.621,110.934L449.883,101.629L439.707,92.992L429.125,85.063L418.184,77.859L406.906,71.422L395.336,65.777L383.508,60.957L371.457,56.992L359.219,53.914L346.832,51.75L334.324,50.531L321.742,50.293L309.113,51.059L296.477,52.863L283.867,55.738L271.32,59.715L258.871,64.816L246.559,71.082" style="fill:rgb(56,151,37);fill-opacity:0.8;fill-rule:nonzero;"/>
                <path d="M161.609,465.348L146.691,459.871L132.965,453.543L120.402,446.418L108.98,438.539L98.676,429.953L89.465,420.711L81.316,410.855L74.211,400.438L68.125,389.508L63.027,378.105L58.895,366.285L55.707,354.09L53.438,341.57L52.059,328.77L51.547,315.742L51.875,302.527L53.023,289.18L54.965,275.742L57.676,262.266L61.129,248.797L65.297,235.379L70.16,222.066L75.691,208.902L81.867,195.934L88.664,183.211L96.051,170.777L104.008,158.684L112.508,146.977L121.531,135.707L131.043,124.914L141.027,114.652L129.996,123.121L119.57,132.242L109.762,141.973L100.598,152.258L92.086,163.055L84.254,174.316L77.117,185.988L70.691,198.031L64.996,210.387L60.051,223.016L55.871,235.863L52.477,248.887L49.891,262.035L48.125,275.262L47.199,288.52L47.129,301.754L47.941,314.926L49.645,327.98L52.266,340.871L55.816,353.551L60.316,365.973L65.789,378.09L72.242,389.848L79.707,401.203L88.191,412.105L97.715,422.508L108.301,432.367L119.965,441.625L132.727,450.242L146.602,458.164" style="fill:rgb(202,59,51);fill-opacity:0.8;fill-rule:nonzero;"/>
                <path d="M575,276L569.766,293.164L563.641,309.82L556.66,325.945L548.852,341.508L540.25,356.484L530.887,370.84L520.793,384.551L510,397.59L498.539,409.922L486.438,421.527L473.734,432.375L460.457,442.434L446.637,451.676L432.305,460.078L417.496,467.605L402.238,474.234L386.563,479.938L370.504,484.684L354.09,488.441L337.355,491.191L320.328,492.898L303.043,493.539L285.527,493.078L267.82,491.496L249.945,488.758L231.938,484.84L213.828,479.707L195.648,473.34L177.43,465.707L159.203,456.777L141,446.527L159.734,458.375L178.484,468.738L197.215,477.645L215.895,485.133L234.492,491.234L252.965,495.988L271.285,499.422L289.414,501.574L307.32,502.477L324.965,502.164L342.32,500.676L359.348,498.039L376.016,494.293L392.285,489.473L408.129,483.605L423.504,476.734L438.379,468.887L452.723,460.098L466.5,450.406L479.672,439.844L492.211,428.445L504.074,416.246L515.238,403.277L525.656,389.574L535.305,375.172L544.141,360.105L552.137,344.41L559.254,328.117L565.461,311.262L570.723,293.875" style="fill:rgb(148,87,177);fill-opacity:0.8;fill-rule:nonzero;"/>
                <path d="M123.664,132.375L135.316,121.406L147.496,111.996L160.145,104.098L173.195,97.672L186.59,92.68L200.277,89.078L214.188,86.828L228.266,85.891L242.457,86.223L256.691,87.789L270.918,90.539L285.074,94.445L299.102,99.457L312.938,105.539L326.523,112.648L339.805,120.742L352.719,129.789L365.203,139.738L377.199,150.559L388.652,162.199L399.5,174.629L409.68,187.805L419.137,201.684L427.809,216.227L435.637,231.395L442.563,247.145L448.523,263.438L453.465,280.23L457.32,297.488L460.039,315.168L461.555,333.23L460.57,317.125L458.539,301.523L455.496,286.438L451.488,271.887L446.547,257.879L440.719,244.43L434.047,231.559L426.563,219.273L418.309,207.594L409.332,196.531L399.664,186.102L389.348,176.316L378.426,167.195L366.934,158.746L354.918,150.988L342.414,143.934L329.461,137.598L316.102,131.996L302.379,127.141L288.324,123.043L273.988,119.727L259.402,117.195L244.609,115.473L229.652,114.57L214.566,114.496L199.398,115.273L184.184,116.91L168.961,119.426L153.773,122.832L138.66,127.145" style="fill:rgb(56,151,37);fill-opacity:0.3;fill-rule:nonzero;"/>
                <path d="M184.25,424.563L172.926,423.242L162.574,420.777L153.172,417.242L144.695,412.691L137.121,407.191L130.434,400.805L124.605,393.602L119.621,385.637L115.453,376.984L112.078,367.695L109.484,357.844L107.641,347.492L106.527,336.699L106.125,325.531L106.41,314.055L107.363,302.328L108.961,290.418L111.184,278.391L114.008,266.305L117.41,254.227L121.371,242.223L125.867,230.352L130.879,218.68L136.383,207.273L142.359,196.191L148.789,185.5L155.645,175.262L162.906,165.539L170.551,156.402L178.559,147.91L186.91,140.125L175.637,147.336L165.039,155.191L155.125,163.641L145.902,172.629L137.375,182.105L129.551,192.012L122.441,202.301L116.051,212.918L110.387,223.805L105.453,234.914L101.266,246.188L97.82,257.578L95.137,269.027L93.211,280.48L92.059,291.891L91.684,303.199L92.09,314.355L93.293,325.301L95.293,335.992L98.098,346.367L101.715,356.375L106.156,365.965L111.426,375.078L117.527,383.668L124.473,391.676L132.27,399.051L140.922,405.742L150.438,411.691L160.828,416.844L172.094,421.156" style="fill:rgb(202,59,51);fill-opacity:0.3;fill-rule:nonzero;"/>
                <path d="M540,278L541.359,294.934L541.469,311.547L540.363,327.809L538.098,343.684L534.711,359.148L530.25,374.168L524.762,388.711L518.285,402.746L510.871,416.242L502.563,429.172L493.402,441.504L483.441,453.203L472.715,464.242L461.277,474.586L449.168,484.207L436.438,493.074L423.121,501.16L409.273,508.426L394.938,514.844L380.152,520.383L364.969,525.016L349.43,528.707L333.578,531.43L317.465,533.148L301.129,533.832L284.617,533.453L267.973,531.98L251.246,529.383L234.48,525.629L217.715,520.688L201,514.527L216.938,521.008L233.387,526.207L250.262,530.148L267.48,532.879L284.945,534.426L302.578,534.832L320.281,534.129L337.977,532.352L355.574,529.539L372.98,525.723L390.113,520.945L406.887,515.238L423.207,508.637L438.988,501.18L454.145,492.902L468.586,483.836L482.23,474.023L494.984,463.496L506.762,452.289L517.473,440.441L527.035,427.988L535.355,414.965L542.352,401.406L547.93,387.348L552.008,372.828L554.492,357.883L555.301,342.543L554.344,326.852L551.531,310.84L546.781,294.543" style="fill:rgb(148,87,177);fill-opacity:0.3;fill-rule:nonzero;"/>
                <path d="M194.195,114.207L205.91,100.207L217.992,88.363L230.402,78.605L243.09,70.859L256.012,65.051L269.121,61.109L282.371,58.961L295.715,58.535L309.109,59.762L322.504,62.563L335.855,66.871L349.113,72.613L362.234,79.719L375.176,88.109L387.887,97.719L400.32,108.469L412.434,120.293L424.18,133.117L435.512,146.871L446.383,161.477L456.746,176.867L466.559,192.969L475.77,209.707L484.336,227.012L492.211,244.813L499.348,263.035L505.699,281.605L511.223,300.453L515.871,319.504L519.594,338.691L522.348,357.934L522.023,341.203L520.578,324.281L518.059,307.254L514.504,290.199L509.965,273.199L504.488,256.332L498.113,239.684L490.887,223.328L482.859,207.352L474.066,191.828L464.563,176.848L454.391,162.48L443.594,148.816L432.219,135.93L420.309,123.902L407.914,112.816L395.074,102.75L381.84,93.789L368.25,86.008L354.352,79.492L340.195,74.316L325.824,70.566L311.277,68.32L296.609,67.664L281.855,68.668L267.07,71.422L252.293,76L237.574,82.488L222.953,90.965L208.48,101.512" style="fill:rgb(56,151,37);fill-opacity:0.9;fill-rule:nonzero;"/>
                <path d="M206.738,433.52L192.383,428.578L179.207,422.73L167.195,416.02L156.324,408.496L146.582,400.215L137.949,391.227L130.402,381.574L123.922,371.316L118.496,360.5L114.098,349.176L110.719,337.395L108.328,325.207L106.918,312.664L106.461,299.813L106.945,286.707L108.348,273.398L110.648,259.934L113.832,246.367L117.883,232.746L122.773,219.121L128.492,205.547L135.02,192.066L142.332,178.738L150.414,165.605L159.25,152.727L168.816,140.145L179.094,127.914L190.07,116.086L201.719,104.711L214.027,93.832L226.973,83.512L215.484,91.352L204.523,99.934L194.109,109.195L184.262,119.086L175,129.555L166.344,140.555L158.316,152.023L150.934,163.918L144.223,176.18L138.199,188.758L132.883,201.602L128.297,214.656L124.461,227.871L121.395,241.195L119.117,254.574L117.652,267.957L117.016,281.289L117.23,294.523L118.316,307.602L120.297,320.473L123.188,333.086L127.012,345.391L131.785,357.332L137.535,368.855L144.277,379.914L152.035,390.453L160.824,400.418L170.672,409.762L181.594,418.426L193.609,426.363" style="fill:rgb(202,59,51);fill-opacity:0.9;fill-rule:nonzero;"/>
                <path d="M515,339L518.902,354.703L521.172,370.043L521.867,384.984L521.047,399.508L518.773,413.586L515.105,427.191L510.105,440.297L503.832,452.875L496.348,464.906L487.711,476.355L477.98,487.199L467.219,497.414L455.488,506.973L442.844,515.844L429.352,524.008L415.066,531.434L400.055,538.098L384.371,543.973L368.078,549.035L351.234,553.25L333.906,556.602L316.148,559.055L298.02,560.586L279.586,561.172L260.906,560.785L242.035,559.395L223.043,556.98L203.98,553.512L184.914,548.965L165.898,543.313L147,536.527L161.902,542.418L176.863,547.379L191.859,551.418L206.863,554.551L221.844,556.785L236.777,558.133L251.633,558.605L266.391,558.219L281.016,556.984L295.484,554.91L309.77,552.012L323.844,548.297L337.68,543.785L351.25,538.48L364.527,532.398L377.488,525.547L390.098,517.945L402.336,509.602L414.168,500.523L425.578,490.73L436.527,480.23L446.996,469.039L456.957,457.16L466.375,444.613L475.234,431.406L483.5,417.551L491.145,403.063L498.145,387.953L504.473,372.23L510.102,355.91" style="fill:rgb(148,87,177);fill-opacity:0.9;fill-rule:nonzero;"/>
                <path d="M231.98,96.762L245.883,86.816L259.945,78.215L274.129,70.934L288.395,64.934L302.707,60.191L317.02,56.672L331.293,54.348L345.496,53.188L359.582,53.16L373.516,54.234L387.254,56.379L400.762,59.566L413.992,63.766L426.918,68.941L439.488,75.07L451.668,82.117L463.422,90.055L474.703,98.848L485.477,108.469L495.703,118.887L505.344,130.07L514.355,141.992L522.703,154.617L530.344,167.918L537.242,181.863L543.355,196.422L548.645,211.566L553.074,227.262L556.598,243.48L559.184,260.188L560.785,277.359L558.715,259.918L555.777,243.047L551.996,226.758L547.41,211.078L542.047,196.031L535.934,181.633L529.109,167.91L521.598,154.879L513.438,142.566L504.652,130.992L495.277,120.176L485.348,110.145L474.887,100.914L463.93,92.508L452.508,84.949L440.652,78.258L428.395,72.457L415.766,67.566L402.793,63.609L389.516,60.605L375.957,58.582L362.156,57.551L348.137,57.543L333.934,58.574L319.578,60.668L305.102,63.848L290.531,68.133L275.906,73.543L261.25,80.105L246.598,87.836" style="fill:rgb(56,151,37);fill-opacity:0.5;fill-rule:nonzero;"/>
                <path d="M176.262,552.73L155.77,543.785L137.031,533.813L120.008,522.871L104.672,511.023L90.984,498.324L78.914,484.828L68.434,470.598L59.5,455.688L52.09,440.16L46.168,424.07L41.699,407.477L38.652,390.438L36.996,373.012L36.691,355.254L37.711,337.227L40.023,318.984L43.59,300.586L48.383,282.09L54.363,263.555L61.508,245.039L69.773,226.598L79.133,208.293L89.555,190.18L101.004,172.316L113.445,154.762L126.848,137.574L141.18,120.809L156.41,104.531L172.5,88.789L189.422,73.648L207.141,59.164L188.883,69.41L171.645,80.977L155.441,93.758L140.285,107.66L126.191,122.59L113.168,138.449L101.234,155.137L90.402,172.559L80.688,190.617L72.098,209.215L64.648,228.258L58.355,247.645L53.234,267.281L49.293,287.07L46.547,306.914L45.012,326.715L44.699,346.375L45.621,365.801L47.793,384.895L51.23,403.559L55.941,421.695L61.945,439.207L69.254,455.996L77.875,471.969L87.832,487.027L99.129,501.074L111.785,514.012L125.816,525.742L141.227,536.168L158.039,545.199" style="fill:rgb(202,59,51);fill-opacity:0.5;fill-rule:nonzero;"/>
                <path d="M490,294L490.316,307.035L489.863,319.824L488.656,332.359L486.719,344.629L484.07,356.609L480.738,368.297L476.742,379.668L472.102,390.719L466.84,401.426L460.977,411.777L454.539,421.766L447.547,431.367L440.016,440.574L431.977,449.371L423.445,457.746L414.445,465.68L404.996,473.16L395.125,480.176L384.848,486.711L374.191,492.754L363.172,498.285L351.816,503.293L340.148,507.766L328.18,511.688L315.941,515.043L303.453,517.82L290.73,520.004L277.805,521.578L264.695,522.535L251.418,522.855L238,522.527L251.063,523.641L264.051,524.082L276.945,523.863L289.715,522.996L302.336,521.488L314.777,519.355L327.012,516.605L339.02,513.246L350.77,509.297L362.234,504.758L373.387,499.648L384.203,493.98L394.652,487.758L404.715,480.996L414.355,473.703L423.551,465.895L432.277,457.574L440.508,448.762L448.211,439.465L455.363,429.691L461.938,419.453L467.906,408.762L473.242,397.633L477.922,386.07L481.914,374.09L485.199,361.699L487.742,348.91L489.52,335.734L490.508,322.184L490.676,308.27" style="fill:rgb(148,87,177);fill-opacity:0.5;fill-rule:nonzero;"/>
                <path d="M178.73,132.992L193.59,123.164L208.574,115.027L223.641,108.52L238.746,103.578L253.848,100.152L268.902,98.18L283.875,97.602L298.715,98.355L313.383,100.391L327.836,103.641L342.035,108.051L355.93,113.559L369.488,120.109L382.66,127.641L395.406,136.094L407.684,145.414L419.449,155.539L430.66,166.414L441.277,177.973L451.254,190.16L460.551,202.922L469.125,216.191L476.934,229.918L483.934,244.035L490.082,258.484L495.34,273.215L499.664,288.16L503.012,303.262L505.336,318.465L506.598,333.711L506.758,348.934L505.906,330.371L503.813,311.961L500.543,293.773L496.152,275.871L490.707,258.313L484.27,241.168L476.895,224.496L468.648,208.367L459.59,192.84L449.777,177.98L439.281,163.848L428.152,150.512L416.461,138.035L404.258,126.48L391.613,115.914L378.586,106.395L365.238,97.988L351.625,90.762L337.813,84.773L323.863,80.094L309.836,76.781L295.789,74.898L281.789,74.516L267.895,75.695L254.168,78.496L240.668,82.984L227.457,89.227L214.598,97.285L202.148,107.223L190.172,119.102" style="fill:rgb(56,151,37);fill-opacity:0.4;fill-rule:nonzero;"/>
                <path d="M141.324,478.215L127.461,468.336L114.527,457.992L102.527,447.219L91.453,436.043L81.316,424.488L72.109,412.594L63.84,400.387L56.504,387.895L50.109,375.145L44.648,362.172L40.129,349.004L36.551,335.672L33.918,322.203L32.223,308.629L31.477,294.977L31.676,281.281L32.82,267.566L34.914,253.863L37.957,240.203L41.953,226.617L46.898,213.133L52.797,199.781L59.648,186.59L67.461,173.586L76.227,160.809L85.949,148.277L96.633,136.031L108.277,124.09L120.883,112.492L134.449,101.262L148.984,90.43L135.168,102.613L122.016,115.59L109.551,129.273L97.801,143.586L86.793,158.453L76.543,173.793L67.086,189.523L58.438,205.57L50.633,221.848L43.688,238.281L37.629,254.789L32.488,271.293L28.281,287.711L25.039,303.965L22.781,319.977L21.539,335.664L21.332,350.953L22.191,365.758L24.133,380L27.188,393.602L31.383,406.484L36.738,418.57L43.277,429.773L51.031,440.02L60.023,449.227L70.273,457.316L81.809,464.207L94.66,469.824L108.844,474.082L124.391,476.906" style="fill:rgb(202,59,51);fill-opacity:0.4;fill-rule:nonzero;"/>
                <path d="M513,318L510.52,333.465L507.156,348.379L502.953,362.738L497.934,376.531L492.141,389.75L485.605,402.387L478.363,414.438L470.445,425.887L461.887,436.73L452.723,446.961L442.988,456.566L432.719,465.543L421.941,473.883L410.699,481.574L399.02,488.613L386.941,494.984L374.5,500.688L361.723,505.715L348.648,510.051L335.313,513.691L321.746,516.629L307.984,518.855L294.063,520.363L280.012,521.141L265.871,521.184L251.672,520.48L237.449,519.027L223.234,516.813L209.066,513.828L194.977,510.07L181,505.527L196.902,510.262L212.973,514.254L229.164,517.496L245.414,519.996L261.68,521.758L277.898,522.781L294.023,523.07L309.996,522.629L325.766,521.461L341.277,519.57L356.48,516.957L371.32,513.625L385.738,509.582L399.691,504.82L413.117,499.355L425.965,493.184L438.18,486.309L449.711,478.73L460.508,470.461L470.508,461.496L479.668,451.84L487.926,441.496L495.23,430.473L501.535,418.762L506.777,406.379L510.906,393.316L513.871,379.586L515.617,365.184L516.086,350.117L515.234,334.387" style="fill:rgb(148,87,177);fill-opacity:0.4;fill-rule:nonzero;"/>
                <path d="M128.859,135.375L143.77,126.996L158.93,119.539L174.297,113L189.836,107.371L205.508,102.652L221.277,98.84L237.102,95.93L252.945,93.922L268.77,92.805L284.539,92.582L300.211,93.25L315.75,94.801L331.121,97.234L346.281,100.547L361.191,104.73L375.816,109.789L390.121,115.719L404.063,122.508L417.602,130.16L430.707,138.672L443.336,148.035L455.449,158.25L467.012,169.313L477.98,181.223L488.324,193.969L498.004,207.555L506.977,221.973L515.207,237.219L522.656,253.293L529.289,270.191L535.063,287.91L528.32,268.246L520.715,249.328L512.289,231.184L503.086,213.836L493.156,197.309L482.539,181.625L471.289,166.809L459.445,152.891L447.055,139.887L434.164,127.824L420.82,116.73L407.066,106.629L392.945,97.543L378.512,89.496L363.805,82.512L348.875,76.617L333.762,71.836L318.512,68.188L303.176,65.707L287.797,64.41L272.422,64.32L257.094,65.469L241.859,67.875L226.766,71.566L211.855,76.563L197.176,82.891L182.777,90.578L168.699,99.645L154.988,110.117L141.695,122.02" style="fill:rgb(56,151,37);fill-opacity:0.3;fill-rule:nonzero;"/>
                <path d="M226.625,525.961L210.813,513.07L195.91,499.98L181.93,486.699L168.867,473.238L156.734,459.602L145.531,445.801L135.266,431.844L125.941,417.742L117.566,403.5L110.141,389.129L103.672,374.637L98.168,360.035L93.629,345.332L90.059,330.531L87.469,315.648L85.859,300.688L85.234,285.66L85.605,270.574L86.969,255.441L89.336,240.262L92.711,225.055L97.094,209.824L102.496,194.578L108.918,179.328L116.367,164.082L124.848,148.848L134.363,133.633L144.922,118.449L156.527,103.301L169.18,88.203L182.891,73.164L169.277,89.164L156.648,105.66L145.004,122.594L134.352,139.895L124.684,157.512L116.012,175.383L108.332,193.441L101.648,211.629L95.961,229.891L91.273,248.156L87.582,266.371L84.898,284.473L83.215,302.398L82.539,320.094L82.871,337.488L84.211,354.527L86.563,371.152L89.926,387.297L94.305,402.898L99.699,417.906L106.113,432.25L113.547,445.871L122,458.711L131.48,470.707L141.98,481.801L153.512,491.93L166.07,501.031L179.66,509.043L194.281,515.914L209.934,521.57" style="fill:rgb(202,59,51);fill-opacity:0.3;fill-rule:nonzero;"/>
                <path d="M551,344L555.051,362.516L556.891,379.977L556.629,396.398L554.379,411.781L550.254,426.137L544.367,439.469L536.828,451.789L527.75,463.105L517.246,473.418L505.426,482.742L492.402,491.082L478.289,498.441L463.195,504.836L447.238,510.266L430.523,514.738L413.168,518.27L395.285,520.855L376.98,522.512L358.371,523.242L339.566,523.055L320.684,521.957L301.828,519.953L283.113,517.059L264.656,513.273L246.566,508.605L228.953,503.066L211.934,496.66L195.613,489.398L180.113,481.281L165.535,472.32L152,462.527L166.809,472.465L182.484,481.441L198.93,489.469L216.039,496.543L233.707,502.668L251.836,507.855L270.316,512.105L289.047,515.418L307.922,517.805L326.844,519.266L345.703,519.809L364.402,519.434L382.832,518.145L400.891,515.953L418.477,512.855L435.484,508.859L451.813,503.969L467.355,498.188L482.012,491.523L495.676,483.973L508.246,475.551L519.617,466.25L529.688,456.086L538.355,445.055L545.516,433.164L551.059,420.418L554.891,406.82L556.906,392.375L556.996,377.086L555.063,360.961" style="fill:rgb(148,87,177);fill-opacity:0.3;fill-rule:nonzero;"/>
                <path d="M147.055,115.855L159.707,108.582L172.52,102.406L185.461,97.301L198.5,93.25L211.602,90.23L224.738,88.215L237.875,87.191L250.98,87.129L264.023,88.012L276.973,89.816L289.797,92.516L302.461,96.094L314.934,100.527L327.188,105.793L339.184,111.871L350.898,118.738L362.293,126.371L373.34,134.75L384.004,143.855L394.254,153.656L404.059,164.141L413.391,175.281L422.211,187.059L430.488,199.449L438.195,212.43L445.297,225.98L451.766,240.082L457.563,254.707L462.66,269.836L467.023,285.445L470.625,301.516L469.887,284.43L468.137,267.844L465.41,251.777L461.746,236.262L457.184,221.316L451.762,206.973L445.516,193.25L438.484,180.18L430.703,167.777L422.215,156.078L413.051,145.098L403.258,134.867L392.867,125.41L381.914,116.75L370.445,108.914L358.492,101.926L346.094,95.813L333.293,90.594L320.117,86.301L306.613,82.957L292.816,80.582L278.766,79.207L264.496,78.855L250.047,79.551L235.457,81.32L220.762,84.184L206,88.176L191.211,93.313L176.434,99.621L161.699,107.129" style="fill:rgb(56,151,37);fill-opacity:0.9;fill-rule:nonzero;"/>
                <path d="M248.238,505.398L236.953,491.414L226.055,477.184L215.574,462.727L205.543,448.07L195.992,433.23L186.961,418.227L178.477,403.086L170.57,387.828L163.281,372.473L156.637,357.039L150.672,341.551L145.418,326.027L140.91,310.492L137.176,294.969L134.254,279.469L132.172,264.023L130.969,248.648L130.668,233.367L131.313,218.199L132.926,203.164L135.547,188.289L139.203,173.59L143.934,159.086L149.766,144.805L156.734,130.766L164.871,116.984L174.207,103.492L184.781,90.301L196.621,77.434L209.758,64.914L224.23,52.762L209.355,64.422L195.305,77.215L182.105,91.043L169.77,105.813L158.332,121.426L147.805,137.781L138.219,154.785L129.594,172.344L121.949,190.355L115.309,208.727L109.699,227.355L105.141,246.152L101.652,265.012L99.262,283.844L97.992,302.547L97.863,321.027L98.895,339.184L101.117,356.926L104.543,374.152L109.207,390.766L115.121,406.672L122.313,421.77L130.805,435.965L140.621,449.164L151.777,461.262L164.305,472.168L178.223,481.785L193.551,490.012L210.313,496.754L228.535,501.914" style="fill:rgb(202,59,51);fill-opacity:0.9;fill-rule:nonzero;"/>
                <path d="M524,292L519.258,307.746L513.988,323.359L508.207,338.793L501.914,354.008L495.121,368.957L487.832,383.598L480.055,397.883L471.801,411.77L463.07,425.215L453.875,438.176L444.223,450.602L434.121,462.453L423.57,473.688L412.586,484.258L401.172,494.117L389.336,503.227L377.082,511.543L364.422,519.012L351.363,525.602L337.91,531.258L324.066,535.945L309.848,539.613L295.258,542.219L280.301,543.719L264.984,544.066L249.32,543.219L233.316,541.137L216.973,537.77L200.301,533.074L183.309,527.008L166,519.527L181.617,525.141L197.91,529.781L214.789,533.457L232.152,536.18L249.902,537.965L267.938,538.816L286.16,538.754L304.473,537.785L322.781,535.922L340.977,533.172L358.969,529.555L376.66,525.078L393.945,519.75L410.73,513.59L426.918,506.602L442.402,498.797L457.094,490.195L470.891,480.801L483.695,470.629L495.406,459.688L505.926,447.992L515.16,435.551L523.004,422.379L529.363,408.484L534.137,393.879L537.23,378.578L538.539,362.59L537.973,345.926L535.422,328.598L530.801,310.621" style="fill:rgb(148,87,177);fill-opacity:0.9;fill-rule:nonzero;"/>
                <path d="M129.457,140.336L139.422,126.773L150.344,115.203L162.133,105.563L174.715,97.781L188.004,91.801L201.918,87.551L216.375,84.969L231.293,83.98L246.594,84.531L262.191,86.551L278.004,89.969L293.949,94.727L309.949,100.754L325.918,107.984L341.773,116.355L357.434,125.801L372.82,136.254L387.848,147.648L402.434,159.922L416.5,173.004L429.961,186.828L442.738,201.332L454.746,216.453L465.902,232.117L476.129,248.262L485.34,264.824L493.457,281.738L500.395,298.934L506.07,316.348L510.406,333.914L513.32,351.57L509.016,332.797L503.898,314.719L497.992,297.344L491.324,280.68L483.93,264.746L475.828,249.543L467.059,235.086L457.645,221.391L447.613,208.461L436.996,196.309L425.824,184.949L414.121,174.391L401.918,164.641L389.242,155.715L376.121,147.621L362.59,140.375L348.672,133.98L334.398,128.453L319.797,123.805L304.895,120.039L289.723,117.176L274.309,115.223L258.684,114.188L242.875,114.082L226.906,114.922L210.816,116.711L194.625,119.465L178.363,123.195L162.063,127.91L145.754,133.621" style="fill:rgb(56,151,37);fill-opacity:0.9;fill-rule:nonzero;"/>
                <path d="M134.492,476.383L118.754,469.98L104.629,462.434L92.086,453.824L81.078,444.234L71.559,433.742L63.496,422.426L56.84,410.371L51.555,397.656L47.594,384.355L44.918,370.555L43.484,356.328L43.254,341.766L44.18,326.938L46.223,311.926L49.34,296.816L53.492,281.684L58.637,266.605L64.727,251.668L71.727,236.949L79.594,222.527L88.285,208.48L97.758,194.895L107.973,181.844L118.883,169.414L130.453,157.68L142.637,146.723L155.395,136.625L168.684,127.461L182.461,119.316L196.688,112.273L211.32,106.402L196.91,113.77L182.848,122.141L169.172,131.449L155.934,141.621L143.18,152.582L130.957,164.262L119.309,176.582L108.289,189.477L97.938,202.871L88.301,216.688L79.434,230.859L71.375,245.313L64.172,259.973L57.879,274.766L52.531,289.625L48.184,304.469L44.883,319.23L42.672,333.84L41.598,348.215L41.707,362.289L43.051,375.992L45.672,389.246L49.617,401.977L54.938,414.117L61.672,425.594L69.875,436.328L79.586,446.254L90.859,455.293L103.734,463.379L118.266,470.434" style="fill:rgb(202,59,51);fill-opacity:0.9;fill-rule:nonzero;"/>
                <path d="M486,311L483.539,325.645L480.664,339.871L477.379,353.672L473.688,367.043L469.594,379.969L465.102,392.449L460.215,404.469L454.938,416.031L449.273,427.117L443.23,437.727L436.805,447.852L430.008,457.48L422.84,466.609L415.301,475.227L407.406,483.328L399.148,490.906L390.539,497.953L381.574,504.461L372.27,510.422L362.617,515.824L352.629,520.668L342.305,524.945L331.652,528.641L320.672,531.754L309.367,534.273L297.746,536.191L285.813,537.504L273.563,538.199L261.012,538.273L248.156,537.719L235,536.527L247.918,538.707L261.059,539.957L274.363,540.301L287.781,539.773L301.25,538.402L314.719,536.223L328.129,533.266L341.422,529.563L354.543,525.148L367.438,520.047L380.047,514.293L392.32,507.922L404.191,500.961L415.613,493.441L426.527,485.398L436.875,476.863L446.602,467.863L455.648,458.434L463.961,448.605L471.484,438.406L478.164,427.875L483.938,417.039L488.754,405.926L492.555,394.574L495.281,383.012L496.883,371.273L497.301,359.387L496.477,347.383L494.355,335.297L490.883,323.16" style="fill:rgb(148,87,177);fill-opacity:0.9;fill-rule:nonzero;"/>
                <path d="M142.027,102.563L156.852,91.867L171.816,82.855L186.887,75.469L202.031,69.66L217.215,65.375L232.402,62.563L247.563,61.168L262.66,61.141L277.66,62.43L292.531,64.98L307.238,68.738L321.746,73.66L336.02,79.684L350.027,86.762L363.734,94.84L377.109,103.867L390.113,113.789L402.715,124.559L414.883,136.117L426.578,148.418L437.77,161.406L448.422,175.027L458.5,189.234L467.977,203.969L476.809,219.184L484.969,234.824L492.422,250.84L499.129,267.176L505.063,283.781L510.184,300.602L514.465,317.59L508.934,298.48L502.637,279.793L495.613,261.57L487.887,243.848L479.504,226.664L470.488,210.066L460.883,194.094L450.719,178.781L440.027,164.176L428.848,150.313L417.215,137.23L405.16,124.977L392.719,113.59L379.926,103.105L366.813,93.57L353.422,85.02L339.777,77.496L325.922,71.039L311.887,65.688L297.707,61.488L283.418,58.473L269.051,56.688L254.645,56.172L240.23,56.965L225.84,59.105L211.516,62.641L197.289,67.602L183.191,74.035L169.258,81.98L155.527,91.477" style="fill:rgb(56,151,37);fill-opacity:0.3;fill-rule:nonzero;"/>
                <path d="M225.133,441.375L212.57,437.375L200.68,432.508L189.457,426.816L178.902,420.348L169.02,413.137L159.805,405.238L151.266,396.695L143.395,387.547L136.203,377.84L129.684,367.617L123.84,356.926L118.672,345.813L114.184,334.313L110.375,322.48L107.242,310.355L104.793,297.98L103.023,285.402L101.938,272.664L101.535,259.813L101.813,246.891L102.781,233.941L104.434,221.008L106.77,208.141L109.797,195.379L113.512,182.766L117.918,170.352L123.016,158.176L128.801,146.281L135.281,134.719L142.457,123.527L150.324,112.754L139.547,124.746L129.758,137.137L120.949,149.867L113.105,162.887L106.219,176.152L100.273,189.605L95.258,203.203L91.168,216.891L87.984,230.617L85.699,244.336L84.301,257.996L83.781,271.547L84.121,284.938L85.316,298.117L87.355,311.035L90.223,323.645L93.906,335.891L98.398,347.73L103.688,359.105L109.762,369.969L116.609,380.273L124.219,389.965L132.582,398.992L141.68,407.313L151.508,414.867L162.055,421.609L173.305,427.488L185.246,432.453L197.875,436.457L211.172,439.449" style="fill:rgb(202,59,51);fill-opacity:0.3;fill-rule:nonzero;"/>
                <path d="M479,297L485.461,308.414L490.414,319.734L493.914,330.934L496.016,341.988L496.766,352.871L496.227,363.563L494.449,374.035L491.488,384.266L487.395,394.227L482.227,403.898L476.039,413.25L468.883,422.258L460.813,430.898L451.883,439.148L442.148,446.984L431.66,454.375L420.477,461.305L408.648,467.742L396.234,473.66L383.285,479.043L369.852,483.859L355.996,488.086L341.766,491.699L327.215,494.672L312.402,496.984L297.379,498.605L282.199,499.516L266.918,499.688L251.586,499.094L236.266,497.715L221,495.527L234.504,500.07L247.797,503.742L260.863,506.555L273.688,508.527L286.262,509.664L298.566,509.992L310.59,509.52L322.316,508.262L333.738,506.234L344.836,503.449L355.594,499.926L366.004,495.68L376.051,490.723L385.723,485.07L395,478.738L403.871,471.738L412.328,464.09L420.348,455.805L427.922,446.898L435.039,437.387L441.68,427.281L447.832,416.602L453.484,405.359L458.621,393.57L463.23,381.254L467.293,368.414L470.805,355.078L473.742,341.25L476.098,326.953L477.855,312.199" style="fill:rgb(148,87,177);fill-opacity:0.3;fill-rule:nonzero;"/>
                <path d="M178.953,166.605L190.367,161.836L201.813,157.813L213.266,154.535L224.707,151.992L236.117,150.168L247.473,149.055L258.754,148.648L269.941,148.934L281.008,149.902L291.938,151.543L302.707,153.848L313.293,156.805L323.68,160.406L333.84,164.645L343.758,169.504L353.41,174.977L362.773,181.059L371.828,187.73L380.555,194.988L388.926,202.824L396.93,211.223L404.539,220.176L411.73,229.676L418.488,239.711L424.789,250.27L430.609,261.348L435.93,272.934L440.734,285.012L444.992,297.578L448.688,310.621L451.797,324.133L448.063,309.781L443.695,295.832L438.723,282.313L433.176,269.242L427.086,256.641L420.484,244.531L413.398,232.938L405.867,221.879L397.91,211.383L389.57,201.465L380.867,192.152L371.84,183.465L362.512,175.422L352.922,168.051L343.094,161.371L333.063,155.406L322.859,150.176L312.508,145.707L302.047,142.012L291.508,139.125L280.914,137.059L270.301,135.84L259.699,135.488L249.137,136.031L238.648,137.484L228.262,139.871L218.012,143.215L207.922,147.539L198.031,152.863L188.363,159.211" style="fill:rgb(56,151,37);fill-opacity:0.5;fill-rule:nonzero;"/>
                <path d="M144.813,454.262L127.98,450.98L112.785,446.391L99.184,440.563L87.125,433.574L76.57,425.504L67.469,416.43L59.777,406.422L53.449,395.563L48.441,383.926L44.703,371.59L42.195,358.633L40.867,345.129L40.672,331.156L41.566,316.789L43.508,302.105L46.445,287.188L50.336,272.102L55.133,256.934L60.793,241.754L67.266,226.641L74.508,211.676L82.477,196.93L91.121,182.48L100.402,168.41L110.27,154.785L120.676,141.691L131.578,129.203L142.93,117.395L154.688,106.344L166.805,96.129L179.23,86.824L167.52,95.043L156.293,104.012L145.578,113.668L135.395,123.969L125.766,134.859L116.711,146.285L108.262,158.195L100.434,170.539L93.25,183.262L86.738,196.316L80.918,209.645L75.809,223.199L71.438,236.93L67.828,250.777L65,264.691L62.98,278.625L61.785,292.523L61.445,306.336L61.977,320.008L63.402,333.488L65.75,346.723L69.043,359.664L73.297,372.258L78.539,384.453L84.793,396.195L92.078,407.438L100.422,418.121L109.844,428.195L120.367,437.613L132.016,446.32" style="fill:rgb(202,59,51);fill-opacity:0.5;fill-rule:nonzero;"/>
                <path d="M504,286L510.156,299.102L514.699,312.262L517.68,325.434L519.164,338.57L519.199,351.633L517.848,364.57L515.16,377.34L511.199,389.898L506.02,402.195L499.68,414.188L492.23,425.828L483.73,437.078L474.238,447.883L463.813,458.207L452.504,468L440.371,477.215L427.473,485.809L413.863,493.734L399.602,500.949L384.738,507.41L369.336,513.066L353.449,517.875L337.137,521.789L320.453,524.766L303.449,526.758L286.191,527.723L268.73,527.613L251.125,526.383L233.43,523.988L215.703,520.387L198,515.527L213.414,519.395L228.977,522.398L244.629,524.555L260.32,525.871L275.996,526.359L291.605,526.035L307.094,524.902L322.406,522.977L337.492,520.273L352.297,516.797L366.766,512.563L380.848,507.578L394.492,501.859L407.641,495.414L420.242,488.258L432.242,480.398L443.59,471.848L454.23,462.617L464.109,452.723L473.18,442.168L481.379,430.969L488.66,419.137L494.965,406.68L500.246,393.613L504.449,379.949L507.516,365.695L509.398,350.863L510.039,335.469L509.391,319.516L507.395,303.023" style="fill:rgb(148,87,177);fill-opacity:0.5;fill-rule:nonzero;"/>
                <path d="M186.332,125.832L202.59,119.621L218.527,114.344L234.133,109.988L249.395,106.551L264.309,104.012L278.859,102.367L293.035,101.605L306.832,101.715L320.238,102.684L333.246,104.508L345.84,107.168L358.016,110.66L369.758,114.973L381.063,120.094L391.914,126.016L402.309,132.727L412.23,140.215L421.676,148.473L430.629,157.484L439.086,167.246L447.031,177.746L454.461,188.969L461.359,200.91L467.719,213.559L473.531,226.902L478.785,240.93L483.473,255.633L487.582,270.996L491.102,287.02L494.023,303.684L496.34,320.98L493.605,305.906L490.031,290.863L485.66,275.902L480.523,261.086L474.66,246.473L468.105,232.117L460.898,218.078L453.07,204.414L444.664,191.18L435.707,178.434L426.246,166.234L416.313,154.641L405.941,143.711L395.172,133.5L384.039,124.066L372.582,115.465L360.836,107.758L348.832,101L336.613,95.25L324.215,90.566L311.672,87.008L299.02,84.625L286.297,83.484L273.539,83.637L260.785,85.145L248.066,88.063L235.426,92.449L222.895,98.359L210.508,105.855L198.309,114.992" style="fill:rgb(56,151,37);fill-opacity:0.8;fill-rule:nonzero;"/>
                <path d="M264.23,503.094L247.977,499.586L232.621,494.73L218.164,488.602L204.617,481.266L191.984,472.793L180.27,463.254L169.488,452.715L159.637,441.25L150.73,428.926L142.77,415.809L135.766,401.969L129.723,387.48L124.648,372.406L120.551,356.816L117.434,340.785L115.309,324.379L114.176,307.664L114.043,290.715L114.922,273.594L116.816,256.379L119.734,239.129L123.68,221.922L128.66,204.824L134.688,187.902L141.758,171.23L149.891,154.871L159.082,138.898L169.344,123.383L180.684,108.391L193.105,93.988L206.613,80.254L195.102,95.055L184.496,109.949L174.805,124.918L166.02,139.941L158.137,155.008L151.16,170.094L145.086,185.184L139.91,200.262L135.633,215.309L132.25,230.309L129.758,245.242L128.16,260.09L127.449,274.84L127.625,289.473L128.684,303.965L130.629,318.305L133.449,332.477L137.152,346.457L141.73,360.234L147.18,373.785L153.504,387.098L160.695,400.148L168.758,412.926L177.684,425.41L187.473,437.582L198.125,449.422L209.637,460.922L222.004,472.055L235.227,482.805L249.305,493.156" style="fill:rgb(202,59,51);fill-opacity:0.8;fill-rule:nonzero;"/>
                <path d="M579,287L585.23,306.277L589.082,324.672L590.668,342.18L590.09,358.793L587.465,374.512L582.895,389.324L576.488,403.227L568.359,416.215L558.613,428.277L547.359,439.414L534.707,449.617L520.762,458.879L505.637,467.199L489.434,474.563L472.27,480.973L454.246,486.418L435.477,490.895L416.07,494.398L396.129,496.918L375.766,498.453L355.094,498.996L334.211,498.539L313.234,497.078L292.273,494.605L271.43,491.117L250.816,486.609L230.543,481.07L210.715,474.5L191.441,466.891L172.836,458.234L155,448.527L172.949,460.945L191.598,471.895L210.836,481.402L230.574,489.5L250.699,496.215L271.117,501.578L291.727,505.629L312.422,508.387L333.102,509.887L353.668,510.164L374.016,509.242L394.043,507.156L413.652,503.938L432.742,499.613L451.207,494.215L468.945,487.773L485.859,480.324L501.844,471.891L516.797,462.508L530.621,452.207L543.215,441.02L554.473,428.969L564.293,416.094L572.578,402.422L579.227,387.984L584.133,372.813L587.195,356.938L588.316,340.387L587.391,323.191L584.32,305.387" style="fill:rgb(148,87,177);fill-opacity:0.8;fill-rule:nonzero;"/>
                <path d="M219.027,81.199L226.957,71.199L235.504,62.781L244.605,55.891L254.211,50.469L264.266,46.465L274.715,43.82L285.5,42.48L296.57,42.387L307.867,43.484L319.34,45.715L330.93,49.027L342.582,53.359L354.246,58.66L365.859,64.871L377.375,71.938L388.73,79.805L399.879,88.41L410.758,97.707L421.316,107.629L431.5,118.129L441.25,129.148L450.516,140.629L459.242,152.516L467.371,164.754L474.848,177.285L481.617,190.055L487.629,203.008L492.82,216.086L497.145,229.234L500.539,242.398L502.957,255.52L499.316,240.012L495.223,225.012L490.68,210.539L485.695,196.602L480.285,183.223L474.457,170.414L468.215,158.191L461.57,146.57L454.535,135.566L447.113,125.199L439.32,115.477L431.164,106.422L422.648,98.043L413.789,90.359L404.59,83.391L395.063,77.145L385.219,71.641L375.063,66.895L364.609,62.922L353.859,59.738L342.832,57.359L331.527,55.797L319.961,55.074L308.141,55.199L296.074,56.188L283.77,58.063L271.238,60.832L258.488,64.516L245.531,69.129L232.375,74.684" style="fill:rgb(56,151,37);fill-opacity:0.3;fill-rule:nonzero;"/>
                <path d="M174.598,457.848L162.828,451.129L151.766,443.801L141.414,435.898L131.773,427.449L122.848,418.492L114.637,409.055L107.152,399.176L100.387,388.879L94.352,378.203L89.047,367.184L84.473,355.844L80.637,344.223L77.539,332.355L75.184,320.266L73.574,307.996L72.715,295.57L72.605,283.027L73.25,270.395L74.656,257.711L76.816,245.004L79.746,232.309L83.441,219.656L87.902,207.078L93.141,194.613L99.152,182.285L105.941,170.133L113.516,158.188L121.875,146.48L131.02,135.043L140.957,123.914L151.688,113.117L142,123.133L132.906,133.406L124.418,143.926L116.543,154.668L109.297,165.613L102.688,176.742L96.723,188.035L91.418,199.477L86.777,211.043L82.816,222.715L79.547,234.473L76.973,246.301L75.105,258.172L73.961,270.074L73.547,281.988L73.871,293.887L74.945,305.758L76.781,317.578L79.391,329.328L82.777,340.992L86.957,352.547L91.941,363.973L97.738,375.254L104.355,386.367L111.809,397.293L120.102,408.012L129.25,418.508L139.266,428.758L150.156,438.746L161.93,448.449" style="fill:rgb(202,59,51);fill-opacity:0.3;fill-rule:nonzero;"/>
                <path d="M498,324L502.934,338.637L506.031,352.695L507.379,366.156L507.066,379.02L505.188,391.266L501.824,402.887L497.066,413.875L491.004,424.211L483.727,433.895L475.316,442.91L465.871,451.242L455.473,458.887L444.215,465.832L432.18,472.063L419.461,477.57L406.145,482.344L392.32,486.375L378.078,489.648L363.5,492.16L348.684,493.891L333.711,494.832L318.676,494.977L303.66,494.313L288.758,492.824L274.055,490.508L259.641,487.348L245.605,483.332L232.035,478.453L219.016,472.699L206.645,466.063L195,458.527L207.602,464.828L220.461,470.469L233.531,475.438L246.766,479.73L260.121,483.344L273.547,486.273L286.996,488.512L300.43,490.063L313.797,490.91L327.051,491.059L340.145,490.504L353.039,489.234L365.68,487.25L378.027,484.543L390.031,481.113L401.645,476.957L412.828,472.063L423.531,466.434L433.703,460.059L443.309,452.938L452.293,445.066L460.613,436.438L468.223,427.047L475.074,416.895L481.125,405.969L486.328,394.27L490.637,381.793L494.004,368.531L496.383,354.48L497.73,339.641" style="fill:rgb(148,87,177);fill-opacity:0.3;fill-rule:nonzero;"/>
                <path d="M169.527,166.938L184.488,162.699L199.406,158.754L214.262,155.137L229.035,151.875L243.707,148.992L258.262,146.523L272.676,144.496L286.934,142.938L301.016,141.879L314.902,141.348L328.578,141.375L342.02,141.988L355.211,143.219L368.129,145.09L380.762,147.637L393.086,150.883L405.086,154.863L416.738,159.602L428.027,165.133L438.938,171.48L449.441,178.676L459.527,186.746L469.176,195.727L478.363,205.637L487.078,216.516L495.293,228.383L502.996,241.273L510.168,255.215L516.785,270.234L522.836,286.367L528.293,303.633L523.07,285.926L516.633,268.824L509.059,252.355L500.434,236.551L490.84,221.441L480.359,207.051L469.07,193.414L457.059,180.555L444.406,168.508L431.191,157.297L417.5,146.953L403.414,137.508L389.012,128.984L374.379,121.418L359.594,114.836L344.742,109.266L329.906,104.734L315.164,101.273L300.598,98.914L286.293,97.684L272.332,97.609L258.793,98.723L245.758,101.051L233.313,104.625L221.535,109.473L210.512,115.625L200.32,123.105L191.043,131.949L182.766,142.184L175.563,153.836" style="fill:rgb(56,151,37);fill-opacity:0.5;fill-rule:nonzero;"/>
                <path d="M240.668,476.285L225.063,472.043L210.594,466.68L197.242,460.262L184.988,452.848L173.82,444.508L163.707,435.301L154.641,425.297L146.598,414.563L139.559,403.152L133.504,391.141L128.418,378.59L124.281,365.563L121.07,352.125L118.77,338.34L117.359,324.273L116.824,309.992L117.141,295.559L118.293,281.039L120.258,266.496L123.02,251.992L126.563,237.598L130.859,223.375L135.898,209.391L141.656,195.703L148.117,182.387L155.262,169.496L163.07,157.102L171.523,145.266L180.602,134.059L190.289,123.535L200.563,113.77L189.809,126.512L179.617,139.902L170.008,153.863L161.012,168.324L152.652,183.211L144.957,198.449L137.945,213.961L131.645,229.676L126.078,245.516L121.277,261.414L117.258,277.289L114.055,293.07L111.688,308.684L110.18,324.051L109.559,339.102L109.852,353.762L111.078,367.957L113.27,381.613L116.445,394.656L120.637,407.008L125.863,418.602L132.148,429.355L139.523,439.199L148.012,448.063L157.637,455.863L168.422,462.531L180.398,467.992L193.582,472.172L208.008,474.996L223.695,476.391" style="fill:rgb(202,59,51);fill-opacity:0.5;fill-rule:nonzero;"/>
                <path d="M537,312L545.152,325.863L551.273,339.637L555.441,353.293L557.73,366.789L558.223,380.09L556.996,393.164L554.129,405.977L549.699,418.488L543.789,430.664L536.473,442.473L527.836,453.875L517.949,464.84L506.895,475.328L494.754,485.305L481.602,494.734L467.516,503.582L452.578,511.813L436.867,519.395L420.461,526.285L403.438,532.457L385.875,537.867L367.855,542.488L349.457,546.277L330.754,549.203L311.828,551.23L292.758,552.32L273.621,552.445L254.5,551.559L235.469,549.637L216.609,546.637L198,542.527L215.781,548.926L233.707,554.02L251.719,557.848L269.754,560.453L287.754,561.871L305.648,562.145L323.375,561.313L340.879,559.41L358.094,556.48L374.953,552.566L391.398,547.699L407.371,541.926L422.801,535.281L437.629,527.809L451.789,519.543L465.227,510.527L477.871,500.801L489.668,490.398L500.547,479.367L510.449,467.742L519.313,455.563L527.07,442.867L533.668,429.699L539.035,416.098L543.113,402.098L545.84,387.742L547.152,373.066L546.984,358.117L545.281,342.93L541.973,327.543" style="fill:rgb(148,87,177);fill-opacity:0.5;fill-rule:nonzero;"/>
                <path d="M150.984,125.055L160.992,113.504L171.875,103.613L183.551,95.336L195.938,88.617L208.957,83.414L222.527,79.672L236.566,77.352L250.996,76.395L265.734,76.758L280.699,78.391L295.813,81.242L310.996,85.273L326.16,90.426L341.234,96.652L356.133,103.91L370.773,112.145L385.082,121.313L398.973,131.359L412.363,142.242L425.176,153.91L437.332,166.313L448.746,179.402L459.34,193.129L469.035,207.449L477.75,222.313L485.398,237.668L491.91,253.469L497.195,269.668L501.176,286.211L503.77,303.055L504.902,320.152L501.574,301.691L497.223,283.473L491.902,265.555L485.66,247.996L478.547,230.855L470.609,214.195L461.902,198.07L452.473,182.543L442.371,167.668L431.648,153.504L420.352,140.113L408.535,127.555L396.242,115.887L383.527,105.164L370.441,95.449L357.031,86.801L343.348,79.281L329.438,72.941L315.355,67.844L301.152,64.051L286.875,61.617L272.57,60.602L258.293,61.066L244.09,63.066L230.016,66.664L216.113,71.914L202.438,78.879L189.039,87.617L175.961,98.188L163.262,110.645" style="fill:rgb(56,151,37);fill-opacity:0.7;fill-rule:nonzero;"/>
                <path d="M143.125,493.34L133.371,480.988L124.305,468.445L115.938,455.727L108.277,442.855L101.336,429.855L95.121,416.742L89.641,403.547L84.906,390.285L80.93,376.977L77.715,363.648L75.277,350.316L73.617,337.008L72.754,323.742L72.691,310.535L73.441,297.418L75.012,284.406L77.41,271.523L80.648,258.793L84.738,246.23L89.684,233.863L95.5,221.707L102.191,209.793L109.766,198.133L118.242,186.754L127.621,175.676L137.914,164.918L149.129,154.508L161.281,144.461L174.375,134.801L188.422,125.551L203.43,116.734L189.301,124.199L176.09,132.305L163.789,141.016L152.379,150.297L141.855,160.121L132.207,170.445L123.418,181.242L115.484,192.473L108.391,204.109L102.125,216.113L96.68,228.449L92.043,241.09L88.207,253.996L85.156,267.137L82.879,280.477L81.367,293.98L80.613,307.613L80.598,321.348L81.316,335.145L82.758,348.969L84.91,362.793L87.762,376.578L91.301,390.289L95.52,403.898L100.406,417.363L105.949,430.66L112.137,443.746L118.961,456.59L126.406,469.16L134.465,481.422" style="fill:rgb(202,59,51);fill-opacity:0.7;fill-rule:nonzero;"/>
                <path d="M568,311L567.371,328.535L565.207,345.184L561.582,360.941L556.57,375.813L550.234,389.801L542.656,402.902L533.902,415.125L524.047,426.461L513.16,436.922L501.313,446.504L488.578,455.211L475.027,463.043L460.73,470L445.766,476.086L430.199,481.301L414.102,485.645L397.547,489.121L380.609,491.734L363.359,493.48L345.863,494.363L328.199,494.387L310.438,493.547L292.648,491.852L274.906,489.297L257.281,485.883L239.844,481.621L222.668,476.5L205.82,470.531L189.383,463.711L173.418,456.043L158,447.527L174.52,457.496L191.742,466.469L209.57,474.445L227.914,481.43L246.672,487.426L265.754,492.438L285.059,496.473L304.496,499.531L323.965,501.621L343.379,502.746L362.633,502.906L381.637,502.113L400.293,500.367L418.508,497.672L436.184,494.031L453.23,489.453L469.543,483.938L485.035,477.496L499.609,470.125L513.164,461.832L525.609,452.621L536.852,442.496L546.789,431.465L555.332,419.523L562.383,406.688L567.844,392.953L571.625,378.328L573.625,362.816L573.75,346.422L571.906,329.148" style="fill:rgb(148,87,177);fill-opacity:0.7;fill-rule:nonzero;"/>
                <path d="M165.152,90.512L175.238,75.906L186.066,63.512L197.566,53.25L209.68,45.047L222.344,38.816L235.492,34.488L249.063,31.977L262.996,31.207L277.223,32.098L291.684,34.574L306.316,38.559L321.059,43.965L335.84,50.727L350.605,58.754L365.289,67.977L379.828,78.309L394.156,89.68L408.215,102.004L421.941,115.207L435.266,129.211L448.133,143.938L460.473,159.305L472.227,175.238L483.332,191.656L493.723,208.48L503.336,225.637L512.113,243.039L519.984,260.617L526.891,278.289L532.766,295.977L537.551,313.598L533.414,295.379L528.656,277.754L523.293,260.742L517.332,244.352L510.781,228.605L503.652,213.508L495.953,199.082L487.695,185.336L478.887,172.289L469.539,159.949L459.66,148.34L449.258,137.465L438.344,127.348L426.926,118L415.016,109.43L402.621,101.66L389.754,94.703L376.422,88.57L362.633,83.277L348.398,78.836L333.73,75.266L318.633,72.582L303.121,70.793L287.203,69.914L270.883,69.965L254.176,70.953L237.094,72.898L219.637,75.813L201.824,79.707L183.66,84.602" style="fill:rgb(56,151,37);fill-opacity:0.5;fill-rule:nonzero;"/>
                <path d="M171.133,459.848L156.273,450.203L142.656,440.035L130.266,429.371L119.074,418.25L109.066,406.699L100.215,394.754L92.5,382.445L85.898,369.805L80.391,356.867L75.953,343.66L72.566,330.223L70.207,316.586L68.852,302.777L68.484,288.832L69.074,274.785L70.609,260.668L73.059,246.508L76.406,232.344L80.633,218.203L85.707,204.121L91.617,190.133L98.336,176.266L105.844,162.551L114.113,149.027L123.133,135.723L132.871,122.672L143.313,109.902L154.434,97.453L166.211,85.355L178.625,73.637L191.652,62.332L176.434,71.227L162.023,81.121L148.438,91.934L135.695,103.59L123.813,116.02L112.805,129.137L102.691,142.875L93.484,157.152L85.207,171.895L77.867,187.023L71.492,202.469L66.09,218.148L61.68,233.988L58.281,249.914L55.906,265.844L54.578,281.711L54.305,297.434L55.109,312.934L57.008,328.141L60.016,342.973L64.152,357.359L69.43,371.223L75.867,384.484L83.48,397.07L92.289,408.902L102.309,419.91L113.551,430.008L126.039,439.129L139.789,447.195L154.816,454.125" style="fill:rgb(202,59,51);fill-opacity:0.5;fill-rule:nonzero;"/>
                <path d="M570,282L572.371,301.641L573.324,320.574L572.91,338.797L571.184,356.293L568.195,373.055L563.996,389.074L558.637,404.344L552.172,418.855L544.652,432.594L536.129,445.555L526.652,457.727L516.277,469.098L505.055,479.668L493.031,489.418L480.27,498.348L466.809,506.441L452.711,513.691L438.023,520.09L422.797,525.625L407.086,530.293L390.941,534.078L374.41,536.973L357.555,538.973L340.418,540.063L323.051,540.238L305.512,539.488L287.852,537.801L270.117,535.172L252.359,531.59L234.641,527.043L217,521.527L235.23,525.949L253.211,529.43L270.926,531.98L288.348,533.613L305.457,534.348L322.23,534.191L338.648,533.16L354.691,531.27L370.336,528.531L385.559,524.957L400.34,520.566L414.656,515.371L428.488,509.383L441.816,502.617L454.613,495.086L466.863,486.805L478.539,477.789L489.625,468.051L500.098,457.605L509.93,446.461L519.109,434.641L527.609,422.148L535.406,409.004L542.484,395.223L548.816,380.813L554.387,365.793L559.168,350.176L563.141,333.973L566.285,317.199L568.578,299.871" style="fill:rgb(148,87,177);fill-opacity:0.5;fill-rule:nonzero;"/>
                <path d="M229.188,83.602L242.391,79.277L255.383,75.742L268.16,72.988L280.707,71.008L293.016,69.785L305.074,69.313L316.875,69.574L328.406,70.566L339.656,72.27L350.613,74.68L361.273,77.785L371.621,81.57L381.648,86.027L391.344,91.145L400.695,96.91L409.699,103.313L418.336,110.348L426.602,117.996L434.484,126.25L441.977,135.098L449.063,144.527L455.734,154.531L461.98,165.098L467.793,176.215L473.164,187.871L478.078,200.051L482.523,212.754L486.496,225.961L489.984,239.664L492.973,253.848L495.457,268.508L495.824,254.027L495.359,240.031L494.098,226.531L492.051,213.535L489.254,201.051L485.719,189.09L481.48,177.656L476.559,166.758L470.973,156.406L464.754,146.609L457.918,137.375L450.496,128.711L442.508,120.625L433.977,113.129L424.93,106.227L415.391,99.93L405.379,94.242L394.922,89.176L384.043,84.742L372.762,80.941L361.109,77.789L349.105,75.289L336.773,73.453L324.137,72.285L311.223,71.801L298.051,72L284.648,72.895L271.035,74.496L257.238,76.809L243.281,79.84" style="fill:rgb(56,151,37);fill-opacity:0.3;fill-rule:nonzero;"/>
                <path d="M229.152,508.336L209.758,502.758L191.793,495.727L175.23,487.328L160.055,477.652L146.246,466.785L133.789,454.813L122.668,441.832L112.855,427.918L104.34,413.168L97.102,397.668L91.121,381.504L86.383,364.766L82.867,347.535L80.555,329.91L79.426,311.973L79.469,293.809L80.656,275.508L82.977,257.16L86.41,238.852L90.938,220.672L96.543,202.703L103.203,185.043L110.906,167.77L119.629,150.977L129.352,134.746L140.063,119.176L151.738,104.344L164.363,90.344L177.914,77.262L192.379,65.184L207.738,54.199L193.582,67.891L180.344,82.199L168.027,97.07L156.645,112.445L146.199,128.27L136.703,144.48L128.156,161.027L120.578,177.848L113.965,194.883L108.328,212.082L103.68,229.383L100.02,246.727L97.363,264.059L95.711,281.32L95.074,298.453L95.461,315.402L96.879,332.109L99.336,348.516L102.836,364.563L107.387,380.195L113.004,395.355L119.684,409.988L127.445,424.031L136.285,437.43L146.219,450.129L157.25,462.063L169.387,473.184L182.637,483.426L197.012,492.738L212.512,501.063" style="fill:rgb(202,59,51);fill-opacity:0.3;fill-rule:nonzero;"/>
                <path d="M513,260L510.043,274.082L506.785,288.191L503.215,302.289L499.324,316.324L495.098,330.258L490.531,344.035L485.613,357.613L480.332,370.953L474.68,384L468.645,396.711L462.219,409.047L455.391,420.953L448.148,432.391L440.484,443.309L432.391,453.664L423.855,463.41L414.867,472.5L405.414,480.895L395.492,488.543L385.09,495.398L374.195,501.414L362.797,506.551L350.887,510.758L338.457,513.992L325.496,516.207L311.992,517.355L297.938,517.395L283.32,516.277L268.133,513.957L252.363,510.387L236,505.527L253.367,508.691L270.355,511.016L286.949,512.504L303.133,513.172L318.879,513.027L334.176,512.086L349,510.352L363.332,507.836L377.156,504.555L390.449,500.516L403.191,495.73L415.367,490.211L426.953,483.965L437.934,477.008L448.289,469.344L457.996,460.992L467.039,451.953L475.398,442.25L483.051,431.883L489.984,420.871L496.176,409.219L501.602,396.938L506.25,384.043L510.098,370.543L513.125,356.445L515.313,341.77L516.645,326.516L517.098,310.703L516.656,294.34L515.297,277.434" style="fill:rgb(148,87,177);fill-opacity:0.3;fill-rule:nonzero;"/>
                <path d="M206.543,154.82L219.727,147.594L232.84,141.184L245.867,135.586L258.801,130.789L271.621,126.789L284.324,123.578L296.891,121.148L309.313,119.496L321.574,118.613L333.664,118.492L345.57,119.129L357.281,120.516L368.781,122.641L380.059,125.504L391.102,129.098L401.898,133.41L412.434,138.438L422.699,144.176L432.68,150.617L442.363,157.75L451.734,165.574L460.785,174.078L469.504,183.258L477.871,193.105L485.879,203.617L493.516,214.777L500.766,226.59L507.621,239.043L514.063,252.129L520.086,265.844L525.668,280.18L522.879,266.613L519.223,253.406L514.738,240.586L509.469,228.184L503.445,216.223L496.711,204.738L489.301,193.754L481.254,183.301L472.605,173.406L463.395,164.098L453.656,155.406L443.434,147.359L432.758,139.984L421.672,133.309L410.207,127.367L398.41,122.184L386.313,117.785L373.953,114.203L361.367,111.465L348.598,109.598L335.676,108.633L322.645,108.598L309.539,109.523L296.395,111.43L283.254,114.355L270.152,118.324L257.129,123.367L244.215,129.508L231.457,136.777L218.887,145.207" style="fill:rgb(56,151,37);fill-opacity:0.9;fill-rule:nonzero;"/>
                <path d="M183.18,518.711L165.465,518.867L149.07,517.195L133.984,513.801L120.176,508.785L107.633,502.242L96.332,494.277L86.254,484.984L77.379,474.465L69.684,462.82L63.152,450.145L57.762,436.547L53.492,422.117L50.324,406.961L48.238,391.176L47.211,374.859L47.223,358.113L48.258,341.039L50.293,323.73L53.305,306.293L57.281,288.824L62.191,271.422L68.027,254.188L74.758,237.219L82.367,220.617L90.836,204.48L100.145,188.906L110.273,174L121.195,159.859L132.898,146.578L145.359,134.262L158.555,123.012L148.09,134.848L138.047,147.203L128.465,160.031L119.371,173.281L110.805,186.906L102.793,200.863L95.379,215.098L88.586,229.57L82.457,244.23L77.023,259.031L72.316,273.926L68.371,288.863L65.223,303.805L62.902,318.691L61.445,333.488L60.887,348.141L61.258,362.602L62.594,376.828L64.93,390.77L68.297,404.379L72.73,417.609L78.266,430.414L84.938,442.746L92.773,454.559L101.813,465.801L112.086,476.434L123.633,486.398L136.48,495.66L150.664,504.164L166.219,511.863" style="fill:rgb(202,59,51);fill-opacity:0.9;fill-rule:nonzero;"/>
                <path d="M542,257L538.176,274.609L533.805,291.664L528.887,308.16L523.434,324.086L517.449,339.43L510.949,354.184L503.938,368.336L496.418,381.879L488.406,394.805L479.906,407.098L470.926,418.754L461.477,429.758L451.563,440.105L441.191,449.781L430.375,458.781L419.117,467.094L407.43,474.707L395.316,481.613L382.793,487.801L369.855,493.262L356.523,497.984L342.801,501.961L328.691,505.184L314.207,507.637L299.359,509.313L284.148,510.203L268.59,510.297L252.688,509.59L236.449,508.063L219.883,505.711L203,502.527L219.758,504.824L236.422,506.301L252.957,506.969L269.34,506.844L285.539,505.938L301.52,504.266L317.254,501.848L332.711,498.691L347.859,494.816L362.672,490.234L377.117,484.961L391.164,479.008L404.781,472.398L417.941,465.141L430.609,457.25L442.762,448.738L454.359,439.629L465.379,429.93L475.789,419.656L485.555,408.824L494.652,397.449L503.047,385.543L510.707,373.121L517.605,360.203L523.715,346.797L528.996,332.922L533.426,318.59L536.973,303.816L539.602,288.617L541.289,273.008" style="fill:rgb(148,87,177);fill-opacity:0.9;fill-rule:nonzero;"/>
            </g>
        </g>
    </g>
    <g transform="matrix(0.255379,-2.56388e-17,2.56388e-17,0.255379,250,244.25)">
        <g transform="matrix(1,0,0,1,-400,-300)">
            <path d="M90.495,281.084C90.495,291.131 89.364,299.244 87.104,305.421C84.844,311.604 81.631,316.401 77.459,319.817C73.292,323.235 68.292,325.521 62.464,326.677C56.636,327.828 50.151,328.407 43.021,328.407C33.369,328.407 25.984,326.9 20.864,323.887C15.74,320.869 13.177,317.255 13.177,313.031C13.177,309.516 14.604,306.552 17.469,304.14C20.333,301.729 24.176,300.527 29,300.527C32.62,300.527 35.511,301.505 37.667,303.464C39.828,305.421 41.613,307.36 43.021,309.265C44.625,311.375 45.984,312.781 47.088,313.484C48.193,314.188 49.197,314.541 50.104,314.541C52.011,314.541 53.469,313.412 54.473,311.151C55.479,308.891 55.98,304.495 55.98,297.964L55.98,174.067L90.495,164.572L90.495,281.084ZM139.651,167.885L139.651,247.619C139.651,249.833 140.077,251.917 140.932,253.875C141.752,255.785 142.957,257.506 144.473,258.928C146.02,260.358 147.806,261.505 149.749,262.317C151.76,263.171 153.923,263.599 156.235,263.599C158.844,263.599 161.812,262.136 165.427,259.604C171.151,255.593 174.62,252.839 174.62,249.577L174.62,167.885L208.984,167.885L208.984,281.083L174.62,281.083L174.62,270.531C170.1,274.349 165.276,277.411 160.151,279.724C155.027,282.036 150.052,283.193 145.229,283.193C139.604,283.193 134.376,282.26 129.552,280.401C124.729,278.541 120.511,276.005 116.896,272.792C113.322,269.637 110.424,265.791 108.376,261.485C106.317,257.167 105.287,252.541 105.287,247.619L105.287,167.885L139.651,167.885ZM257.177,281.083L222.964,281.083L222.964,122.371L257.177,112.877L257.177,281.083ZM271.469,174.068L305.833,164.573L305.833,281.083L271.469,281.083L271.469,174.068ZM377.636,222.599C374.212,224.06 370.865,225.696 367.609,227.5C364.245,229.36 361.177,231.396 358.417,233.604C355.651,235.812 353.417,238.177 351.708,240.688C350,243.197 349.145,245.812 349.145,248.527C349.145,250.636 349.421,252.672 349.973,254.631C350.527,256.588 351.307,258.271 352.312,259.677C353.317,261.083 354.421,262.213 355.631,263.068C356.833,263.921 358.14,264.348 359.547,264.348C362.36,264.348 365.197,263.495 368.063,261.787C370.927,260.079 374.115,257.921 377.636,255.307L377.636,222.599ZM412.145,281.083L377.636,281.083L377.636,272.036C375.819,273.571 373.959,275.054 372.057,276.484C370.249,277.839 368.213,279.021 365.953,280.027C363.693,281.031 361.156,281.807 358.339,282.364C355.525,282.917 352.208,283.193 348.396,283.193C343.167,283.193 338.469,282.437 334.303,280.932C330.129,279.421 326.588,277.364 323.676,274.749C320.794,272.183 318.505,269.019 316.969,265.479C315.412,261.916 314.631,258.021 314.631,253.803C314.631,249.479 315.457,245.563 317.12,242.043C318.776,238.527 321.036,235.364 323.901,232.547C326.765,229.733 330.104,227.224 333.921,225.011C337.889,222.728 341.992,220.689 346.208,218.907C350.681,217.01 355.232,215.302 359.848,213.787C364.503,212.25 369.175,210.767 373.864,209.339L377.636,208.432L377.636,197.281C377.636,190.047 376.249,184.921 373.489,181.907C370.724,178.891 367.031,177.387 362.412,177.387C356.985,177.387 353.213,178.693 351.105,181.303C348.995,183.916 347.937,187.079 347.937,190.796C347.942,192.876 347.714,194.949 347.26,196.979C346.812,198.989 346.031,200.745 344.927,202.255C343.823,203.761 342.24,204.969 340.177,205.869C338.12,206.776 335.531,207.229 332.417,207.229C327.593,207.229 323.677,205.843 320.661,203.083C317.645,200.317 316.141,196.829 316.141,192.604C316.141,188.688 317.469,185.047 320.131,181.683C322.797,178.312 326.385,175.421 330.912,173.016C335.432,170.599 340.656,168.693 346.584,167.287C352.511,165.88 358.792,165.177 365.421,165.177C373.563,165.177 380.573,165.907 386.453,167.36C392.328,168.817 397.177,170.901 400.995,173.613C404.812,176.328 407.625,179.593 409.432,183.412C411.245,187.229 412.145,191.505 412.145,196.224L412.145,281.083Z" style="fill:white;fill-rule:nonzero;"/>
            <path d="M97.271,135.453C97.271,148.344 86.823,158.787 73.937,158.787C61.052,158.787 50.604,148.344 50.604,135.453C50.604,122.568 61.052,112.12 73.937,112.12C86.823,112.12 97.271,122.568 97.271,135.453" style="fill:rgb(64,99,216);fill-rule:nonzero;"/>
            <path d="M341.733,86.896C341.733,99.781 331.287,110.229 318.4,110.229C305.511,110.229 295.067,99.781 295.067,86.896C295.067,74.011 305.511,63.563 318.4,63.563C331.287,63.563 341.733,74.011 341.733,86.896" style="fill:rgb(56,152,38);fill-rule:nonzero;"/>
            <path d="M369.76,135.453C369.76,148.344 359.312,158.787 346.427,158.787C333.541,158.787 323.093,148.344 323.093,135.453C323.093,122.568 333.541,112.12 346.427,112.12C359.312,112.12 369.76,122.568 369.76,135.453" style="fill:rgb(149,88,178);fill-rule:nonzero;"/>
            <path d="M313.697,135.453C313.697,148.344 303.251,158.787 290.364,158.787C277.473,158.787 267.031,148.344 267.031,135.453C267.031,122.568 277.473,112.12 290.364,112.12C303.251,112.12 313.697,122.568 313.697,135.453" style="fill:rgb(203,60,51);fill-rule:nonzero;"/>
            <path d="M598.552,284.891C587.057,284.891 576.5,282.464 566.885,277.609C557.272,272.751 549.64,265.912 543.995,257.093C538.344,248.271 535.521,238.208 535.521,226.912C535.521,216.011 538.095,206.047 543.249,197.032C548.401,188.011 555.74,180.823 565.249,175.473C574.765,170.12 585.568,167.447 597.663,167.447C608.563,167.447 618.823,169.776 628.437,174.433C638.052,179.088 645.828,185.78 651.776,194.505C657.724,203.224 660.697,213.432 660.697,225.131C660.697,236.031 658.12,246.041 652.964,255.157C647.812,264.276 640.479,271.511 630.964,276.864C621.448,282.219 610.645,284.891 598.552,284.891ZM419.855,228.697C419.855,218.391 422.484,208.479 427.735,198.964C432.989,189.448 440.224,181.817 449.443,176.068C458.656,170.317 468.917,167.448 480.213,167.448C487.547,167.448 494.683,168.683 501.625,171.161C508.563,173.641 514.208,176.912 518.572,180.975C522.932,185.036 525.115,189.448 525.115,194.203C525.115,198.765 523.177,202.432 519.312,205.208C515.448,207.984 510.939,209.369 505.787,209.369C501.229,209.369 497.36,208.183 494.187,205.803C491.016,203.421 489.333,200.249 489.136,196.287C488.937,191.136 488.245,187.364 487.052,184.989C485.865,182.609 482.792,181.421 477.839,181.421C470.505,181.421 464.703,184.443 460.443,190.489C456.183,196.536 454.047,204.812 454.047,215.317C454.047,227.407 456.527,238.36 461.484,248.171C466.437,257.984 473.771,262.891 483.484,262.891C490.421,262.891 496.369,260.312 501.324,255.157C506.281,250.005 510.839,242.869 515.004,233.751L531.355,238.208C527.391,252.88 520.703,264.328 511.287,272.552C501.869,280.781 490.521,284.891 477.24,284.891C466.733,284.891 457.073,282.317 448.249,277.161C439.432,272.005 432.495,265.12 427.437,256.495C422.385,247.875 419.855,238.609 419.855,228.697ZM572.385,220.369C572.385,233.453 575.063,245.249 580.417,255.756C585.765,266.26 593.004,271.511 602.12,271.511C609.651,271.511 615.104,267.896 618.473,260.661C621.844,253.427 623.531,244.255 623.531,233.156C623.531,218.885 620.953,206.645 615.797,196.437C610.645,186.229 603.807,181.125 595.281,181.125C587.749,181.125 582.052,184.939 578.188,192.568C574.323,200.203 572.385,209.469 572.385,220.369ZM669.319,169.229L704.105,169.229L704.105,178.448C714.609,170.916 726.109,167.145 738.599,167.145C751.084,167.145 760.156,170.369 765.803,176.812C771.453,183.255 774.276,191.729 774.276,202.235L774.276,284L740.084,284L740.084,205.505C740.084,199.953 739.093,195.541 737.109,192.271C735.131,189 732.156,187.364 728.193,187.364C722.047,187.364 714.016,191.531 704.104,199.855L704.104,284L669.317,284L669.319,169.229ZM118.593,310.651C122.161,310.651 122.541,311.203 122.541,316.265C122.541,321.328 122.161,321.88 118.595,321.88C115.021,321.88 114.64,321.328 114.64,316.267C114.64,311.203 115.021,310.651 118.593,310.651ZM107.708,316.265C107.708,324.932 109.891,327.083 118.593,327.083C127.292,327.083 129.479,324.932 129.479,316.265C129.479,307.599 127.292,305.452 118.593,305.452C109.891,305.452 107.708,307.599 107.708,316.265ZM138.839,305.864L138.839,326.667L145.421,326.667L145.459,314.88C145.459,312.177 146.531,310.995 149.063,310.995C151.697,310.995 151.973,311.381 151.973,314.88L151.973,326.667L158.563,326.667L158.527,313.213C158.527,307.011 157.177,305.453 151.697,305.453C148.057,305.453 146.084,306.593 145.421,309.125L145.421,305.864L138.839,305.864ZM177.593,320.771C175.136,320.771 174.855,320.599 174.855,319.005L174.855,298.932L168.271,298.932L168.271,320.979C168.235,325.521 169.344,326.667 173.817,326.667L177.593,326.667L177.593,320.771ZM187.125,305.864L187.125,326.667L193.713,326.667L193.713,305.864L187.125,305.864ZM186.952,303.787L193.885,303.787L193.885,298.933L186.952,298.933L186.952,303.787ZM203.943,305.864L203.943,326.667L210.527,326.667L210.563,314.88C210.563,312.177 211.636,310.995 214.167,310.995C216.803,310.995 217.079,311.381 217.079,314.88L217.079,326.667L223.667,326.667L223.631,313.213C223.631,307.011 222.281,305.453 216.803,305.453C213.163,305.453 211.188,306.593 210.527,309.125L210.527,305.864L203.943,305.864ZM253.656,320.047L246.719,320.047C246.719,321.78 246.025,322.229 243.287,322.229C240.447,322.229 239.787,321.781 239.651,318.14L253.828,318.14L253.828,314.917C253.656,307.36 251.468,305.453 243.255,305.453C234.797,305.453 232.681,307.6 232.681,316.267C232.681,324.933 234.797,327.084 243.255,327.084C251.437,327.084 253.516,325.661 253.656,320.047ZM239.683,313.287C239.927,310.651 240.724,310.303 243.287,310.303C246.339,310.303 246.823,310.615 246.896,313.287L239.683,313.287ZM295.391,308.187L295.391,310.48C294.973,308.677 293.724,307.912 291.229,307.912C287.625,307.912 286.724,309.125 286.724,314.016C286.724,319.459 287.657,320.807 291.437,320.807C293.932,320.807 295.183,319.803 295.527,317.412L295.527,320.599L300.76,320.599C304.713,320.599 306.412,318.625 306.412,314.016C306.412,303.927 303.812,301.396 293.412,301.396C282.251,301.396 279.479,303.927 279.479,314.016C279.479,324.136 281.937,326.667 291.817,326.667L297.817,326.667L297.817,323.547L291.817,323.547C284.333,323.547 283.5,322.645 283.5,314.36C283.5,305.484 284.505,304.516 293.412,304.516C301.355,304.516 302.287,305.453 302.599,314.016C302.703,317.099 302.532,317.448 300.901,317.479L299.271,317.479L299.271,308.188L295.391,308.187ZM290.849,314.016C290.849,311.62 291.057,311.344 293.099,311.344C294.699,311.344 295.391,311.932 295.391,313.317L295.391,315.921C295.391,316.927 294.697,317.375 293.099,317.375C291.057,317.375 290.849,317.031 290.849,314.015L290.849,314.016ZM353.6,305.864L342.921,305.864L340.807,322.161L340.599,322.161L337.583,305.864L331.203,305.864L335.432,326.667L345.901,326.667L348.052,310.72L348.26,310.72L350.792,326.667L361.192,326.667L365.281,305.864L359.287,305.864L356.339,322.161L356.131,322.161L353.6,305.864ZM394.609,305.864L383.932,305.864L381.817,322.161L381.609,322.161L378.593,305.864L372.213,305.864L376.443,326.667L386.912,326.667L389.063,310.72L389.271,310.72L391.803,326.667L402.203,326.667L406.292,305.864L400.297,305.864L397.349,322.161L397.14,322.161L394.609,305.864ZM435.62,305.864L424.943,305.864L422.828,322.161L422.62,322.161L419.604,305.864L413.224,305.864L417.453,326.667L427.921,326.667L430.073,310.72L430.281,310.72L432.812,326.667L443.213,326.667L447.303,305.864L441.307,305.864L438.36,322.161L438.151,322.161L435.62,305.864ZM456.14,320.079L456.14,326.667L464.113,326.667L464.113,320.079L456.14,320.079ZM472.953,327.708L472.953,333.599L473.647,333.599C480.271,333.599 481.932,332.213 481.932,326.599L481.932,305.867L475.349,305.867L475.349,325.595C475.349,327.361 474.963,327.709 472.953,327.709L472.953,327.708ZM475.172,303.787L482.105,303.787L482.105,298.933L475.172,298.933L475.172,303.787ZM511.193,326.667L511.193,305.864L504.604,305.864L504.573,317.896C504.573,320.464 503.636,321.536 501.484,321.536C498.713,321.536 498.401,321.156 498.401,317.755L498.401,305.864L491.812,305.864L491.849,319.317C491.849,325.521 493.197,327.084 498.676,327.084C502.109,327.084 503.979,325.937 504.604,323.407L504.604,326.667L511.193,326.667ZM530.568,320.771C528.109,320.771 527.828,320.599 527.828,319.005L527.828,298.932L521.245,298.932L521.245,320.979C521.208,325.521 522.317,326.667 526.792,326.667L530.568,326.667L530.568,320.771ZM540.104,305.864L540.104,326.667L546.693,326.667L546.693,305.864L540.104,305.864ZM539.932,303.787L546.865,303.787L546.865,298.933L539.932,298.933L539.932,303.787ZM567.005,305.453C558.927,305.453 556.916,306.803 556.916,312.28L556.916,313.011L563.5,313.011C563.433,310.584 563.78,310.303 566.932,310.303C569.745,310.303 570.052,310.583 570.052,313.115L570.052,314.292L564.161,314.323C557.817,314.323 556.224,315.609 556.224,320.672C556.224,326.011 557.817,327.292 564.265,327.084C567.557,327.047 569.359,326.041 570.052,323.823L570.052,326.667L576.64,326.667L576.64,312.661C576.64,306.907 574.697,305.453 567.005,305.453ZM563.156,320.74C563.156,319.317 563.536,319.177 566.932,319.177L570.052,319.145L570.052,320.047C570.052,321.64 569.119,322.333 566.932,322.369C563.536,322.437 563.156,322.265 563.156,320.74ZM596.541,327.084C604.755,327.084 606.869,325.244 607.041,317.86L600.109,317.86C599.937,321.469 599.589,321.88 596.541,321.88C592.968,321.88 592.588,321.328 592.588,316.267C592.588,311.203 592.969,310.651 596.541,310.651C599.625,310.651 599.973,311.031 600.109,314.604L607.043,314.604C606.833,307.287 604.719,305.453 596.541,305.453C587.839,305.453 585.656,307.6 585.656,316.267C585.656,324.933 587.839,327.084 596.541,327.084ZM626.6,310.651C630.167,310.651 630.547,311.203 630.547,316.265C630.547,321.328 630.167,321.88 626.6,321.88C623.027,321.88 622.645,321.328 622.645,316.267C622.645,311.203 623.027,310.651 626.599,310.651L626.6,310.651ZM615.713,316.265C615.713,324.932 617.896,327.083 626.599,327.083C635.297,327.083 637.484,324.932 637.484,316.265C637.484,307.599 635.297,305.452 626.599,305.452C617.896,305.452 615.713,307.599 615.713,316.265ZM646.844,305.864L646.844,326.667L653.427,326.667L653.464,314.88C653.464,312.177 654.536,310.995 657.068,310.995C659.703,310.995 659.979,311.381 659.979,314.88L659.979,326.667L666.568,326.667L666.531,313.213C666.531,307.011 665.183,305.453 659.704,305.453C656.063,305.453 654.088,306.593 653.427,309.125L653.427,305.864L646.844,305.864ZM676.62,320.079L676.62,326.667L684.593,326.667L684.593,320.079L676.62,320.079ZM705.187,310.651C708.755,310.651 709.136,311.203 709.136,316.265C709.136,321.328 708.755,321.88 705.188,321.88C701.615,321.88 701.235,321.328 701.235,316.267C701.235,311.203 701.615,310.651 705.188,310.651L705.187,310.651ZM694.303,316.265C694.303,324.932 696.484,327.083 705.188,327.083C713.885,327.083 716.073,324.932 716.073,316.265C716.073,307.599 713.887,305.452 705.188,305.452C696.484,305.452 694.303,307.599 694.303,316.265ZM725.432,305.864L725.432,326.667L732.016,326.667L732.016,314.984C732.016,312.661 733.093,311.656 735.656,311.693L740.339,311.76L740.339,305.864L737.948,305.864C734.479,305.864 732.609,307.047 732.015,309.713L732.015,305.864L725.432,305.864ZM758.921,334.016C767.448,334.016 769.599,332.803 769.599,327.984L769.599,305.864L763.188,305.864L763.188,309.787C762.593,306.765 760.479,305.453 756.428,305.453C750.219,305.453 748.661,307.495 748.661,315.64C748.661,323.823 750.151,325.869 756.079,325.869C760.167,325.869 762.355,324.62 763.011,321.745L763.011,327.016C763.011,328.713 762.593,328.885 758.921,328.885C756.219,328.885 755.527,328.505 755.527,327.016L749.281,327.016C749.281,332.629 751.224,334.016 758.921,334.016ZM755.073,315.64C755.073,311.448 755.421,310.995 758.677,310.995C761.557,310.995 762.837,312.177 762.837,314.984L762.837,318.068C762.837,319.561 761.484,320.323 759.027,320.323C755.453,320.323 755.073,319.869 755.073,315.64ZM184.464,560L184.464,511.52L102.587,511.52L161.029,461.421C182.848,442.573 179.348,430.719 180.155,400.552C181.769,357.464 164.801,346.688 95.045,346.688C27.983,346.688 8.587,361.235 8.587,419.407L67.843,419.407C67.843,395.437 70.536,392.473 94.775,392.473C122.249,392.473 125.212,394.631 125.212,410.792C125.212,422.369 120.9,429.104 103.124,443.917L10.207,522.291L10.207,560L184.464,560ZM295.969,389.781C326.136,389.781 329.369,396.245 329.369,454.959C329.369,513.677 326.136,520.14 295.969,520.14C265.807,520.14 262.573,513.677 262.573,454.959C262.573,396.245 265.807,389.781 295.969,389.781ZM203.317,454.959C203.317,541.688 221.901,563.235 295.969,563.235C370.036,563.235 388.62,541.688 388.62,454.959C388.62,368.235 370.036,346.688 295.969,346.688C221.901,346.688 203.317,368.235 203.317,454.959ZM580.651,560L580.651,511.52L498.776,511.52L557.219,461.421C579.036,442.573 575.536,430.719 576.344,400.552C577.957,357.464 560.989,346.688 491.235,346.688C424.172,346.688 404.776,361.235 404.776,419.407L464.031,419.407C464.031,395.437 466.724,392.473 490.964,392.473C518.437,392.473 521.401,394.631 521.401,410.792C521.401,422.369 517.088,429.104 499.312,443.917L406.396,522.291L406.396,560L580.651,560ZM775.38,560L775.38,511.52L693.507,511.52L751.949,461.421C773.767,442.573 770.267,430.719 771.075,400.552C772.688,357.464 755.72,346.688 685.965,346.688C618.903,346.688 599.507,361.235 599.507,419.407L658.761,419.407C658.761,395.437 661.455,392.473 685.695,392.473C713.168,392.473 716.132,394.631 716.132,410.792C716.132,422.369 711.819,429.104 694.043,443.917L601.127,522.291L601.127,560L775.38,560Z" style="fill:white;fill-rule:nonzero;"/>
        </g>
    </g>
    <g transform="matrix(1,0,0,1,-16.2883,-25.9941)">
        <path d="M518.142,35.493C518.142,20.525 505.989,8.372 491.021,8.372L41.556,8.372C26.587,8.372 14.434,20.525 14.434,35.493L14.434,516.495C14.434,531.463 26.587,543.616 41.556,543.616L491.021,543.616C505.989,543.616 518.142,531.463 518.142,516.495L518.142,35.493Z" style="fill:none;"/>
    </g>
</svg>
