<?xml version="1.0" encoding="UTF-8" standalone="no"?>
<!DOCTYPE svg PUBLIC "-//W3C//DTD SVG 1.1//EN" "http://www.w3.org/Graphics/SVG/1.1/DTD/svg11.dtd">
<svg width="100%" height="100%" viewBox="0 0 720 320" version="1.1" xmlns="http://www.w3.org/2000/svg" xmlns:xlink="http://www.w3.org/1999/xlink" xml:space="preserve" xmlns:serif="http://www.serif.com/" style="fill-rule:evenodd;clip-rule:evenodd;stroke-linecap:round;stroke-linejoin:round;stroke-miterlimit:1.5;">
    <g transform="matrix(0.640555,0,0,0.640555,-96.6227,-128.917)">
        <path d="M217.981,232.921L256.528,232.921L298.579,340.792L259.118,340.792L253.481,324.946L219.2,324.946L213.867,340.792L175.473,340.792L217.981,232.921ZM236.721,270.554L227.884,297.217L245.406,297.217L236.721,270.554Z" style="fill:rgb(244,244,244);"/>
    </g>
    <g transform="matrix(0.640555,0,0,0.640555,-71.774,-128.917)">
        <path d="M318.995,232.921L355.562,232.921L355.562,309.71L391.366,309.71L391.366,340.792L318.995,340.792L318.995,232.921Z" style="fill:rgb(244,244,244);"/>
    </g>
    <g transform="matrix(0.640555,0,0,0.640555,-41.2647,-128.917)">
        <path d="M445.454,232.921L484.001,232.921L526.052,340.792L486.591,340.792L480.954,324.946L446.673,324.946L441.34,340.792L402.945,340.792L445.454,232.921ZM464.194,270.554L455.357,297.217L472.878,297.217L464.194,270.554Z" style="fill:rgb(244,244,244);"/>
    </g>
    <g transform="matrix(1,0,0,1,-161.409,-32.9308)">
        <rect x="166.347" y="37.495" width="100.533" height="100.533" style="fill:none;stroke:rgb(225,225,225);stroke-width:5.5px;"/>
    </g>
    <g transform="matrix(1,0,0,1,-161.409,168.136)">
        <rect x="166.347" y="37.495" width="100.533" height="100.533" style="fill:none;stroke:rgb(225,225,225);stroke-width:5.5px;"/>
    </g>
    <g transform="matrix(1,0,0,1,-161.409,67.6026)">
        <rect x="166.347" y="37.495" width="100.533" height="100.533" style="fill:none;stroke:rgb(225,225,225);stroke-width:5.5px;"/>
    </g>
    <g transform="matrix(1,0,0,1,-60.8752,-32.9308)">
        <rect x="166.347" y="37.495" width="100.533" height="100.533" style="fill:none;stroke:rgb(225,225,225);stroke-width:5.5px;"/>
    </g>
    <g transform="matrix(1,0,0,1,-60.8752,168.136)">
        <rect x="166.347" y="37.495" width="100.533" height="100.533" style="fill:none;stroke:rgb(225,225,225);stroke-width:5.5px;"/>
    </g>
    <g transform="matrix(1,0,0,1,-60.8752,67.6026)">
        <rect x="166.347" y="37.495" width="100.533" height="100.533" style="fill:none;stroke:rgb(225,225,225);stroke-width:5.5px;"/>
    </g>
    <g transform="matrix(1,0,0,1,39.6582,-32.9308)">
        <rect x="166.347" y="37.495" width="100.533" height="100.533" style="fill:none;stroke:rgb(225,225,225);stroke-width:5.5px;"/>
    </g>
    <g transform="matrix(1,0,0,1,39.6582,168.136)">
        <rect x="166.347" y="37.495" width="100.533" height="100.533" style="fill:none;stroke:rgb(225,225,225);stroke-width:5.5px;"/>
    </g>
    <g transform="matrix(1,0,0,1,39.6582,67.6026)">
        <rect x="166.347" y="37.495" width="100.533" height="100.533" style="fill:none;stroke:rgb(225,225,225);stroke-width:5.5px;"/>
    </g>
    <g transform="matrix(1,0,0,1,140.192,-32.9308)">
        <rect x="166.347" y="37.495" width="100.533" height="100.533" style="fill:none;stroke:rgb(225,225,225);stroke-width:5.5px;"/>
    </g>
    <g transform="matrix(1,0,0,1,140.192,168.136)">
        <rect x="166.347" y="37.495" width="100.533" height="100.533" style="fill:none;stroke:rgb(225,225,225);stroke-width:5.5px;"/>
    </g>
    <g transform="matrix(1,0,0,1,140.192,67.6026)">
        <rect x="166.347" y="37.495" width="100.533" height="100.533" style="fill:none;stroke:rgb(225,225,225);stroke-width:5.5px;"/>
    </g>
    <g transform="matrix(1,0,0,1,240.725,-32.9308)">
        <rect x="166.347" y="37.495" width="100.533" height="100.533" style="fill:none;stroke:rgb(225,225,225);stroke-width:5.5px;"/>
    </g>
    <g transform="matrix(1,0,0,1,240.725,168.136)">
        <rect x="166.347" y="37.495" width="100.533" height="100.533" style="fill:none;stroke:rgb(225,225,225);stroke-width:5.5px;"/>
    </g>
    <g transform="matrix(1,0,0,1,240.725,67.6026)">
        <rect x="166.347" y="37.495" width="100.533" height="100.533" style="fill:none;stroke:rgb(225,225,225);stroke-width:5.5px;"/>
    </g>
    <g transform="matrix(1,0,0,1,341.258,-32.9308)">
        <rect x="166.347" y="37.495" width="100.533" height="100.533" style="fill:none;stroke:rgb(225,225,225);stroke-width:5.5px;"/>
    </g>
    <g transform="matrix(1,0,0,1,341.258,168.136)">
        <rect x="166.347" y="37.495" width="100.533" height="100.533" style="fill:none;stroke:rgb(225,225,225);stroke-width:5.5px;"/>
    </g>
    <g transform="matrix(1,0,0,1,341.258,67.6026)">
        <rect x="166.347" y="37.495" width="100.533" height="100.533" style="fill:none;stroke:rgb(225,225,225);stroke-width:5.5px;"/>
    </g>
    <g transform="matrix(1,0,0,1,441.792,-32.9308)">
        <rect x="166.347" y="37.495" width="100.533" height="100.533" style="fill:none;stroke:rgb(225,225,225);stroke-width:5.5px;"/>
    </g>
    <g transform="matrix(1,0,0,1,441.792,168.136)">
        <rect x="166.347" y="37.495" width="100.533" height="100.533" style="fill:none;stroke:rgb(225,225,225);stroke-width:5.5px;"/>
    </g>
    <g transform="matrix(1,0,0,1,441.792,67.6026)">
        <rect x="166.347" y="37.495" width="100.533" height="100.533" style="fill:none;stroke:rgb(225,225,225);stroke-width:5.5px;"/>
    </g>
    <g transform="matrix(0.640555,0,0,0.640555,-25.3947,-128.917)">
        <path d="M546.468,232.921L582.577,232.921L613.354,287.618L613.963,287.618L612.44,232.921L646.873,232.921L646.873,340.792L609.85,340.792L579.987,289.294L579.378,289.294L580.901,340.792L546.468,340.792L546.468,232.921Z" style="fill:rgb(244,244,244);"/>
    </g>
    <g transform="matrix(0.640555,0,0,0.640555,-89.7911,-125.978)">
        <path d="M187.966,385.281L262.165,385.281L262.165,415.448L222.095,415.448L222.095,424.742L259.728,424.742L259.728,452.928L222.095,452.928L222.095,462.984L264.755,462.984L264.755,493.151L187.966,493.151L187.966,385.281Z" style="fill:rgb(244,244,244);"/>
    </g>
    <g transform="matrix(0.640555,0,0,0.640555,-65.2839,-125.978)">
        <path d="M292.637,493.151L292.637,385.281L332.86,385.281C341.392,385.281 349.543,386.119 357.314,387.795C365.084,389.471 371.94,392.365 377.882,396.479C383.824,400.593 388.573,406.052 392.128,412.858C395.683,419.663 397.461,428.246 397.461,438.606C397.461,448.053 395.759,456.229 392.356,463.136C388.954,470.043 384.408,475.706 378.72,480.124C373.032,484.543 366.481,487.819 359.066,489.952C351.651,492.085 343.932,493.151 335.907,493.151L292.637,493.151ZM327.528,416.057L327.528,462.07L334.231,462.07C342.763,462.07 349.315,460.216 353.886,456.509C358.457,452.801 360.742,446.732 360.742,438.302C360.742,431.293 358.457,425.834 353.886,421.923C349.315,418.013 343.221,416.057 335.603,416.057L327.528,416.057Z" style="fill:rgb(244,244,244);"/>
    </g>
    <g transform="matrix(0.640555,0,0,0.640555,-40.8744,-125.978)">
        <path d="M425.495,385.281L499.694,385.281L499.694,415.448L459.623,415.448L459.623,424.742L497.256,424.742L497.256,452.928L459.623,452.928L459.623,462.984L502.284,462.984L502.284,493.151L425.495,493.151L425.495,385.281Z" style="fill:rgb(244,244,244);"/>
    </g>
    <g transform="matrix(0.640555,0,0,0.640555,-5.97338,-125.978)">
        <path d="M530.166,385.281L566.732,385.281L566.732,462.07L602.536,462.07L602.536,493.151L530.166,493.151L530.166,385.281Z" style="fill:rgb(244,244,244);"/>
    </g>
    <g transform="matrix(0.640555,0,0,0.640555,13.8169,-125.978)">
        <path d="M658.757,432.207L660.433,493.151L626.609,493.151L626.609,385.281L673.993,385.281L693.495,443.33L694.257,443.33L711.169,385.281L760.076,385.281L760.076,493.151L724.881,493.151L725.948,432.512L725.033,432.36L704.922,493.151L679.326,493.151L659.519,432.207L658.757,432.207Z" style="fill:rgb(244,244,244);"/>
    </g>
    <g transform="matrix(0.640555,0,0,0.640555,18.4958,-125.978)">
        <path d="M823.001,385.281L861.547,385.281L903.599,493.151L864.138,493.151L858.5,477.306L824.219,477.306L818.887,493.151L780.492,493.151L823.001,385.281ZM841.741,422.913L832.904,449.576L850.425,449.576L841.741,422.913Z" style="fill:rgb(244,244,244);"/>
    </g>
    <g transform="matrix(0.640555,0,0,0.640555,34.3659,-125.978)">
        <path d="M924.015,385.281L960.124,385.281L990.901,439.978L991.51,439.978L989.987,385.281L1024.42,385.281L1024.42,493.151L987.396,493.151L957.534,441.654L956.925,441.654L958.448,493.151L924.015,493.151L924.015,385.281Z" style="fill:rgb(244,244,244);"/>
    </g>
    <g transform="matrix(0.640555,0,0,0.640555,-98.1354,-123.04)">
        <path d="M271.916,564.151L269.022,580.605C268.209,584.77 267.549,588.3 267.041,591.194C266.533,594.089 266.279,596.299 266.279,597.822C266.279,598.939 266.533,599.981 267.041,600.945C267.549,601.91 268.514,602.393 269.936,602.393C270.85,602.393 271.815,602.139 272.83,601.631C273.846,601.123 274.786,600.234 275.649,598.965C276.513,597.695 277.249,595.943 277.858,593.708C278.468,591.474 278.773,588.63 278.773,585.176C278.773,579.488 277.858,574.511 276.03,570.245C274.202,565.979 271.637,562.424 268.336,559.58C265.035,556.736 261.073,554.603 256.452,553.181C251.83,551.759 246.726,551.048 241.14,551.048C235.248,551.048 229.84,552.063 224.913,554.095C219.987,556.126 215.772,558.945 212.268,562.551C208.763,566.157 206.046,570.448 204.116,575.425C202.186,580.402 201.222,585.786 201.222,591.575C201.222,597.67 202.263,603.18 204.345,608.106C206.427,613.033 209.347,617.223 213.106,620.676C216.864,624.13 221.333,626.796 226.513,628.675C231.693,630.554 237.382,631.494 243.577,631.494C249.367,631.494 255.03,630.579 260.566,628.751C266.101,626.923 270.85,624.383 274.811,621.133L286.238,634.084C274.862,643.53 259.931,648.253 241.444,648.253C232.912,648.253 224.99,646.856 217.676,644.063C210.363,641.27 204.04,637.385 198.708,632.408C193.375,627.431 189.211,621.489 186.214,614.582C183.218,607.675 181.72,600.057 181.72,591.728C181.72,583.602 183.294,576.085 186.443,569.179C189.591,562.272 193.857,556.279 199.241,551.2C204.624,546.121 210.896,542.135 218.057,539.24C225.218,536.345 232.862,534.898 240.987,534.898C248.402,534.898 255.512,535.99 262.318,538.173C269.123,540.357 275.09,543.582 280.22,547.848C285.349,552.114 289.438,557.396 292.485,563.694C295.532,569.991 297.056,577.254 297.056,585.481C297.056,590.864 296.319,595.74 294.846,600.108C293.374,604.475 291.241,608.208 288.447,611.306C285.654,614.404 282.226,616.816 278.163,618.543C274.1,620.27 269.479,621.133 264.298,621.133C260.235,621.133 256.807,620.371 254.014,618.848C251.221,617.324 249.266,615.09 248.148,612.144L247.844,612.144C246.726,614.277 244.695,616.308 241.749,618.238C238.804,620.168 235.096,621.133 230.627,621.133C227.173,621.133 224.05,620.447 221.257,619.076C218.464,617.705 216.077,615.801 214.096,613.363C212.115,610.925 210.592,608.03 209.525,604.678C208.459,601.326 207.925,597.721 207.925,593.861C207.925,589.493 208.586,585.278 209.906,581.215C211.226,577.152 213.106,573.546 215.543,570.397C217.981,567.249 220.952,564.709 224.456,562.779C227.961,560.85 231.897,559.885 236.264,559.885C240.226,559.885 243.374,560.748 245.711,562.475C248.047,564.201 249.519,565.979 250.129,567.807L250.434,567.807L251.195,564.151L271.916,564.151ZM239.616,578.015C238.397,578.015 237.229,578.447 236.112,579.31C234.995,580.174 234.03,581.317 233.217,582.739C232.404,584.161 231.744,585.786 231.236,587.614C230.728,589.442 230.475,591.321 230.475,593.251C230.475,595.892 230.957,598.076 231.922,599.803C232.887,601.53 234.487,602.393 236.721,602.393C238.143,602.393 239.438,601.936 240.606,601.022C241.775,600.108 242.739,598.939 243.501,597.517C244.263,596.095 244.847,594.521 245.253,592.794C245.66,591.068 245.863,589.341 245.863,587.614C245.863,584.973 245.457,582.713 244.644,580.834C243.831,578.955 242.155,578.015 239.616,578.015Z" style="fill:rgb(244,244,244);"/>
    </g>
    <g transform="matrix(0.640555,0,0,0.640555,-78.6544,-124.015)">
        <path d="M376.283,571.464C380.955,571.464 385.5,572.251 389.919,573.826C394.337,575.4 398.273,577.711 401.727,580.758C405.18,583.805 407.948,587.563 410.03,592.032C412.112,596.502 413.154,601.631 413.154,607.421C413.154,614.226 411.884,620.194 409.345,625.323C406.805,630.452 403.352,634.744 398.984,638.197C394.616,641.651 389.589,644.241 383.901,645.968C378.212,647.694 372.22,648.558 365.922,648.558C359.625,648.558 353.632,647.72 347.944,646.044C342.256,644.368 337.228,641.854 332.86,638.502C328.492,635.15 325.039,630.91 322.5,625.78C319.96,620.651 318.691,614.632 318.691,607.725C318.691,600.92 320.037,594.546 322.728,588.604C325.42,582.662 328.543,577.203 332.098,572.226L356.781,537.64L400.812,537.64L375.978,569.788L374.607,571.464L376.283,571.464ZM365.922,596.756C362.672,596.756 360.005,597.797 357.923,599.879C355.841,601.961 354.8,604.526 354.8,607.573C354.8,610.722 355.841,613.363 357.923,615.496C360.005,617.629 362.672,618.695 365.922,618.695C369.376,618.695 372.143,617.629 374.226,615.496C376.308,613.363 377.349,610.722 377.349,607.573C377.349,604.526 376.308,601.961 374.226,599.879C372.143,597.797 369.376,596.756 365.922,596.756Z" style="fill:rgb(244,244,244);"/>
    </g>
    <g transform="matrix(0.640555,0,0,0.640555,-54.6352,-123.04)">
        <path d="M485.372,648.558C478.77,648.558 472.98,647.694 468.003,645.968C463.026,644.241 458.76,641.905 455.205,638.959C451.65,636.014 448.679,632.611 446.292,628.751C443.905,624.891 442.026,620.828 440.654,616.562C439.283,612.296 438.318,607.979 437.76,603.612C437.201,599.244 436.922,595.029 436.922,590.966C436.922,587.005 437.201,582.84 437.76,578.472C438.318,574.105 439.283,569.839 440.654,565.674C442.026,561.51 443.905,557.548 446.292,553.79C448.679,550.032 451.65,546.731 455.205,543.887C458.76,541.043 463.026,538.783 468.003,537.107C472.98,535.431 478.77,534.593 485.372,534.593C495.326,534.593 503.452,536.396 509.749,540.002C516.047,543.608 520.973,548.178 524.528,553.714C528.083,559.25 530.521,565.344 531.842,571.997C533.162,578.65 533.822,584.973 533.822,590.966C533.822,594.927 533.543,599.117 532.984,603.536C532.426,607.954 531.461,612.296 530.089,616.562C528.718,620.828 526.865,624.891 524.528,628.751C522.192,632.611 519.221,636.014 515.615,638.959C512.009,641.905 507.718,644.241 502.741,645.968C497.764,647.694 491.974,648.558 485.372,648.558ZM485.372,565.827C483.137,565.827 481.309,566.588 479.887,568.112C478.465,569.636 477.348,571.616 476.535,574.054C475.723,576.492 475.164,579.209 474.859,582.205C474.554,585.202 474.402,588.122 474.402,590.966C474.402,593.912 474.554,596.933 474.859,600.031C475.164,603.129 475.723,605.948 476.535,608.487C477.348,611.027 478.465,613.083 479.887,614.658C481.309,616.232 483.137,617.019 485.372,617.019C487.607,617.019 489.46,616.232 490.933,614.658C492.406,613.083 493.523,611.027 494.285,608.487C495.047,605.948 495.58,603.129 495.885,600.031C496.189,596.933 496.342,593.912 496.342,590.966C496.342,588.122 496.189,585.202 495.885,582.205C495.58,579.209 495.047,576.492 494.285,574.054C493.523,571.616 492.406,569.636 490.933,568.112C489.46,566.588 487.607,565.827 485.372,565.827Z" style="fill:rgb(244,244,244);"/>
    </g>
</svg>
