<?xml version="1.0" encoding="UTF-8" standalone="no"?>
<!DOCTYPE svg PUBLIC "-//W3C//DTD SVG 1.1//EN" "http://www.w3.org/Graphics/SVG/1.1/DTD/svg11.dtd">
<svg width="100%" height="100%" viewBox="0 0 245 245" version="1.1" xmlns="http://www.w3.org/2000/svg" xmlns:xlink="http://www.w3.org/1999/xlink" xml:space="preserve" xmlns:serif="http://www.serif.com/" style="fill-rule:evenodd;clip-rule:evenodd;stroke-linejoin:round;stroke-miterlimit:2;">
    <g transform="matrix(1,0,0,1,-336.709,-167.61)">
        <g transform="matrix(1.08144,0,0,1.08144,-37.3788,-23.6066)">
            <circle cx="458.948" cy="289.849" r="111.982" style="fill:#fff;"/>
        </g>
        <g transform="matrix(0.305597,0,0,0.305597,458.948,289.849)">
            <g transform="matrix(1,0,0,1,-400,-400)">
                <g transform="matrix(1.16963,0,0,1.16963,-67.8516,-67.8516)">
                    <path d="M554.14,527.437C558.702,521.922 566.933,521.013 572.588,525.401L658.885,588.095C661.739,590.26 663.603,593.487 664.052,597.041C664.501,600.596 663.499,604.185 661.276,606.995C627.849,649.185 584.695,682.658 535.516,704.541C532.242,705.999 528.515,706.078 525.183,704.76C521.853,703.437 519.192,700.829 517.803,697.527L478.531,598.353L478.541,598.349C475.683,591.74 478.588,584.052 485.104,580.989C511.781,568.447 535.358,550.158 554.14,527.437Z" style="fill:#389826;fill-rule:nonzero;"/>
                </g>
                <g transform="matrix(1.16963,0,0,1.16963,-67.8516,-67.8516)">
                    <path d="M449.797,593.703C456.729,591.921 463.921,596.023 465.917,602.896L498.885,704.339L498.88,704.339C499.918,707.768 499.529,711.475 497.803,714.615C496.079,717.756 493.16,720.072 489.709,721.036C437.867,735.522 383.279,737.237 330.629,726.036C324.494,724.732 320.069,719.266 320.069,712.994C320.069,711.969 320.187,710.946 320.421,709.948L346.948,606.631L346.953,606.631C348.515,599.645 355.439,595.101 362.469,596.448C391.424,601.979 421.247,601.041 449.797,593.703Z" style="fill:#4063d8;fill-rule:nonzero;"/>
                </g>
                <g transform="matrix(1.16963,0,0,1.16963,-67.8516,-67.8516)">
                    <path d="M326.427,585.979C333.084,588.609 336.494,596.157 334.067,602.891L301.115,704.339L301.109,704.339C299.933,707.722 297.44,710.492 294.197,712.016C290.956,713.54 287.233,713.698 283.875,712.453C233.418,693.7 188.248,663.001 152.24,622.989C149.84,620.33 148.615,616.81 148.844,613.235C149.067,609.658 150.724,606.319 153.437,603.979L235.624,535.984L235.631,535.989C241.031,531.229 249.24,531.615 254.167,536.864C274.339,558.36 299.016,575.133 326.427,585.979Z" style="fill:#cb3c33;fill-rule:nonzero;"/>
                </g>
                <g transform="matrix(1.16963,0,0,1.16963,-67.8516,-67.8516)">
                    <path d="M231.167,507.213C235.027,513.292 233.36,521.339 227.407,525.391L141.113,588.093L141.113,588.088C138.879,589.642 136.222,590.475 133.501,590.475C129.04,590.475 124.865,588.236 122.396,584.521C92.599,539.694 74.099,488.309 68.484,434.776C68.435,434.313 68.411,433.848 68.411,433.383C68.411,426.487 73.759,420.671 80.631,420.093L187.088,413.396L187.088,413.401C194.261,412.724 200.667,417.864 201.568,425.011C205.257,454.257 215.365,482.329 231.167,507.213Z" style="fill:#9558b2;fill-rule:nonzero;"/>
                </g>
                <g transform="matrix(1.16963,0,0,1.16963,-67.8516,-67.8516)">
                    <path d="M200.391,387.5C199.943,394.687 193.864,400.22 186.667,399.995L80,400L80,399.995C76.418,399.92 73.013,398.406 70.557,395.797C68.105,393.184 66.806,389.69 66.957,386.109C69.198,332.328 84.435,279.881 111.36,233.271C113.741,229.154 118.151,226.61 122.907,226.61C125.341,226.61 127.73,227.277 129.813,228.537L219.875,285.693L219.875,285.697C226.035,289.341 228.218,297.329 224.765,303.599C210.558,329.427 202.234,358.08 200.391,387.5Z" style="fill:#389826;fill-rule:nonzero;"/>
                </g>
                <g transform="matrix(1.16963,0,0,1.16963,-67.8516,-67.8516)">
                    <path d="M245.86,272.563C241.298,278.078 233.067,278.987 227.412,274.599L141.115,211.905C138.261,209.74 136.397,206.513 135.948,202.959C135.499,199.404 136.501,195.815 138.724,193.005C172.151,150.815 215.305,117.342 264.484,95.459C267.758,94.001 271.485,93.922 274.817,95.24C278.147,96.563 280.808,99.171 282.197,102.473L321.469,201.647L321.459,201.651C324.317,208.26 321.412,215.948 314.896,219.011C288.219,231.553 264.642,249.842 245.86,272.563Z" style="fill:#4063d8;fill-rule:nonzero;"/>
                </g>
                <g transform="matrix(1.16963,0,0,1.16963,-67.8516,-67.8516)">
                    <path d="M350.203,206.297C343.271,208.079 336.079,203.977 334.083,197.104L301.115,95.661L301.12,95.661C300.082,92.232 300.471,88.525 302.197,85.385C303.921,82.244 306.84,79.928 310.291,78.964C362.133,64.478 416.721,62.763 469.371,73.964C475.506,75.268 479.931,80.734 479.931,87.006C479.931,88.031 479.813,89.054 479.579,90.052L453.052,193.369L453.047,193.369C451.485,200.355 444.561,204.899 437.531,203.552C408.576,198.021 378.753,198.959 350.203,206.297Z" style="fill:#cb3c33;fill-rule:nonzero;"/>
                </g>
                <g transform="matrix(1.16963,0,0,1.16963,-67.8516,-67.8516)">
                    <path d="M473.573,214.021C466.916,211.391 463.506,203.843 465.933,197.109L498.885,95.661L498.891,95.661C500.067,92.278 502.56,89.508 505.803,87.984C509.044,86.46 512.767,86.302 516.125,87.547C566.582,106.3 611.752,136.999 647.76,177.011C650.16,179.67 651.385,183.19 651.156,186.765C650.933,190.342 649.276,193.681 646.563,196.021L564.376,264.016L564.369,264.011C558.969,268.771 550.76,268.385 545.833,263.136C525.661,241.64 500.984,224.867 473.573,214.021Z" style="fill:#9558b2;fill-rule:nonzero;"/>
                </g>
                <g transform="matrix(1.16963,0,0,1.16963,-67.8516,-67.8516)">
                    <path d="M568.833,292.787C564.973,286.708 566.64,278.661 572.593,274.609L658.887,211.907L658.887,211.912C661.121,210.358 663.778,209.525 666.499,209.525C670.96,209.525 675.135,211.764 677.604,215.479C707.401,260.306 725.901,311.691 731.516,365.224C731.565,365.687 731.589,366.152 731.589,366.617C731.589,373.513 726.241,379.329 719.369,379.907L612.912,386.604L612.912,386.599C605.739,387.276 599.333,382.136 598.432,374.989C594.743,345.743 584.635,317.671 568.833,292.787Z" style="fill:#389826;fill-rule:nonzero;"/>
                </g>
                <g transform="matrix(1.16963,0,0,1.16963,-67.8516,-67.8516)">
                    <path d="M599.609,412.5C600.057,405.313 606.136,399.78 613.333,400.005L720,400L720,400.005C723.582,400.08 726.987,401.594 729.443,404.203C731.895,406.816 733.194,410.31 733.043,413.891C730.802,467.672 715.565,520.119 688.64,566.729C686.259,570.846 681.849,573.39 677.093,573.39C674.659,573.39 672.27,572.723 670.187,571.463L580.125,514.307L580.125,514.303C573.965,510.659 571.782,502.671 575.235,496.401C589.442,470.573 597.766,441.92 599.609,412.5Z" style="fill:#4063d8;fill-rule:nonzero;"/>
                </g>
            </g>
        </g>
        <g transform="matrix(1.4491,0,0,1.4491,-186.902,-120.098)">
            <g transform="matrix(11,0,0,11,419.379,312.825)">
                <path d="M0.22,-0L0.41,-0L0.41,-0.78L0.23,-0.78C0.23,-0.678 0.208,-0.659 0.121,-0.659L0.03,-0.659L0.03,-0.519L0.22,-0.519L0.22,-0Z" style="fill:#030303;fill-rule:nonzero;"/>
            </g>
            <g transform="matrix(11,0,0,11,424.659,312.825)">
                <path d="M0.374,-0.632C0.486,-0.632 0.498,-0.608 0.498,-0.39C0.498,-0.172 0.486,-0.148 0.374,-0.148C0.262,-0.148 0.25,-0.172 0.25,-0.39C0.25,-0.608 0.262,-0.632 0.374,-0.632ZM0.03,-0.39C0.03,-0.068 0.099,0.012 0.374,0.012C0.649,0.012 0.718,-0.068 0.718,-0.39C0.718,-0.712 0.649,-0.792 0.374,-0.792C0.099,-0.792 0.03,-0.712 0.03,-0.39Z" style="fill:#030303;fill-rule:nonzero;"/>
            </g>
            <g transform="matrix(11,0,0,11,436.627,312.825)">
                <path d="M0.457,0.047L0.631,-0.6L0.445,-0.6L0.33,-0.156L0.324,-0.156L0.203,-0.6L0.005,-0.6L0.171,-0.02L0.291,-0.02L0.286,-0.003C0.275,0.036 0.265,0.04 0.189,0.04L0.076,0.04L0.076,0.2L0.213,0.2C0.373,0.2 0.424,0.169 0.457,0.047Z" style="fill:#030303;fill-rule:nonzero;"/>
            </g>
            <g transform="matrix(11,0,0,11,443.843,312.825)">
                <path d="M0.635,-0.191L0.435,-0.191C0.435,-0.141 0.415,-0.128 0.336,-0.128C0.254,-0.128 0.235,-0.141 0.231,-0.246L0.64,-0.246L0.64,-0.339C0.635,-0.557 0.572,-0.612 0.335,-0.612C0.091,-0.612 0.03,-0.55 0.03,-0.3C0.03,-0.05 0.091,0.012 0.335,0.012C0.571,0.012 0.631,-0.029 0.635,-0.191ZM0.232,-0.386C0.239,-0.462 0.262,-0.472 0.336,-0.472C0.424,-0.472 0.438,-0.463 0.44,-0.386L0.232,-0.386Z" style="fill:#030303;fill-rule:nonzero;"/>
            </g>
            <g transform="matrix(11,0,0,11,451.433,312.825)">
                <path d="M0.341,-0.612C0.108,-0.612 0.05,-0.573 0.05,-0.415L0.05,-0.394L0.24,-0.394C0.238,-0.464 0.248,-0.472 0.339,-0.472C0.42,-0.472 0.429,-0.464 0.429,-0.391L0.429,-0.357L0.259,-0.356C0.076,-0.356 0.03,-0.319 0.03,-0.173C0.03,-0.019 0.076,0.018 0.262,0.012C0.357,0.011 0.409,-0.018 0.429,-0.082L0.429,-0L0.619,-0L0.619,-0.404C0.619,-0.57 0.563,-0.612 0.341,-0.612ZM0.23,-0.171C0.23,-0.212 0.241,-0.216 0.339,-0.216L0.429,-0.217L0.429,-0.191C0.429,-0.145 0.402,-0.125 0.339,-0.124C0.241,-0.122 0.23,-0.127 0.23,-0.171Z" style="fill:#030303;fill-rule:nonzero;"/>
            </g>
            <g transform="matrix(11,0,0,11,458.902,312.825)">
                <path d="M0.05,-0.6L0.05,-0L0.24,-0L0.24,-0.337C0.24,-0.404 0.271,-0.433 0.345,-0.432L0.48,-0.43L0.48,-0.6L0.411,-0.6C0.311,-0.6 0.257,-0.566 0.24,-0.489L0.24,-0.6L0.05,-0.6Z" style="fill:#030303;fill-rule:nonzero;"/>
            </g>
            <g transform="matrix(11,0,0,11,464.622,312.825)">
                <path d="M0.22,-0.188L0.22,-0.201L0.03,-0.201L0.03,-0.188C0.03,-0.028 0.092,0.012 0.338,0.012C0.58,0.012 0.641,-0.022 0.641,-0.16C0.641,-0.293 0.578,-0.337 0.327,-0.378C0.261,-0.388 0.244,-0.397 0.244,-0.425C0.244,-0.467 0.253,-0.472 0.338,-0.472C0.426,-0.472 0.436,-0.466 0.436,-0.409L0.436,-0.391L0.626,-0.391L0.626,-0.409C0.626,-0.571 0.568,-0.612 0.338,-0.612C0.103,-0.612 0.044,-0.576 0.044,-0.431C0.044,-0.316 0.095,-0.278 0.299,-0.238C0.413,-0.217 0.441,-0.204 0.441,-0.174C0.441,-0.133 0.43,-0.128 0.333,-0.128C0.231,-0.128 0.22,-0.134 0.22,-0.188Z" style="fill:#030303;fill-rule:nonzero;"/>
            </g>
        </g>
        <g transform="matrix(0.393234,0,0,0.393234,458.448,276.854)">
            <g transform="matrix(1,0,0,1,-160,-100)">
                <g id="surface61">
                    <path d="M67.871,164.313C67.871,171.848 67.023,177.934 65.328,182.566C63.633,187.203 61.223,190.801 58.094,193.363C54.969,195.926 51.219,197.641 46.848,198.508C42.477,199.371 37.613,199.805 32.266,199.805C25.027,199.805 19.488,198.676 15.648,196.414C11.805,194.152 9.883,191.441 9.883,188.273C9.883,185.637 10.953,183.414 13.102,181.605C15.25,179.797 18.133,178.895 21.75,178.895C24.465,178.895 26.633,179.629 28.25,181.098C29.871,182.566 31.211,184.02 32.266,185.449C33.469,187.031 34.488,188.086 35.316,188.613C36.145,189.141 36.898,189.406 37.578,189.406C39.008,189.406 40.102,188.559 40.855,186.863C41.609,185.168 41.984,181.871 41.984,176.973L41.984,84.051L67.871,76.93L67.871,164.313M104.738,79.414L104.738,139.215C104.738,140.875 105.059,142.438 105.699,143.906C106.34,145.375 107.227,146.641 108.355,147.695C109.488,148.75 110.805,149.598 112.313,150.238C113.82,150.879 115.441,151.199 117.176,151.199C119.133,151.199 121.359,150.102 124.07,148.203C128.363,145.195 130.965,143.129 130.965,140.684L130.965,79.414L156.738,79.414L156.738,164.313L130.965,164.313L130.965,156.398C127.574,159.262 123.957,161.559 120.113,163.293C116.27,165.027 112.539,165.895 108.922,165.895C104.703,165.895 100.781,165.195 97.164,163.801C93.547,162.406 90.383,160.504 87.672,158.094C84.957,155.684 82.828,152.855 81.281,149.613C79.738,146.375 78.965,142.906 78.965,139.215L78.965,79.414L104.738,79.414M192.883,164.313L167.223,164.313L167.223,45.277L192.883,38.156L192.883,164.313M203.602,84.051L229.375,76.93L229.375,164.313L203.602,164.313L203.602,84.051M283.227,120.449C280.738,121.508 278.23,122.73 275.707,124.125C273.184,125.52 270.883,127.047 268.813,128.703C266.738,130.359 265.063,132.133 263.781,134.016C262.5,135.898 261.859,137.859 261.859,139.895C261.859,141.477 262.066,143.004 262.48,144.473C262.895,145.941 263.48,147.203 264.234,148.258C264.988,149.313 265.816,150.16 266.723,150.801C267.625,151.441 268.605,151.762 269.66,151.762C271.77,151.762 273.898,151.121 276.047,149.84C278.195,148.559 280.586,146.941 283.227,144.98L283.227,120.449M309.109,164.313L283.227,164.313L283.227,157.527C281.793,158.734 280.398,159.848 279.043,160.863C277.688,161.879 276.16,162.766 274.465,163.52C272.77,164.273 270.867,164.855 268.754,165.273C266.645,165.688 264.156,165.895 261.297,165.895C257.375,165.895 253.852,165.328 250.727,164.199C247.598,163.066 244.941,161.523 242.758,159.563C240.57,157.605 238.895,155.285 237.727,152.609C236.559,149.938 235.973,147.016 235.973,143.852C235.973,140.609 236.594,137.672 237.84,135.031C239.082,132.395 240.777,130.023 242.926,127.91C245.074,125.801 247.578,123.918 250.441,122.258C253.305,120.602 256.379,119.074 259.656,117.68C262.934,116.285 266.344,115.008 269.887,113.84C273.426,112.672 276.934,111.559 280.398,110.504L283.227,109.824L283.227,101.461C283.227,96.035 282.188,92.191 280.117,89.93C278.043,87.668 275.273,86.539 271.809,86.539C267.738,86.539 264.91,87.52 263.328,89.477C261.746,91.438 260.953,93.809 260.953,96.598C260.953,98.18 260.785,99.727 260.445,101.234C260.109,102.742 259.523,104.059 258.695,105.191C257.867,106.32 256.68,107.227 255.133,107.902C253.59,108.582 251.648,108.922 249.313,108.922C245.695,108.922 242.758,107.883 240.496,105.813C238.234,103.738 237.105,101.121 237.105,97.953C237.105,95.016 238.102,92.285 240.098,89.762C242.098,87.234 244.789,85.066 248.184,83.262C251.574,81.449 255.492,80.02 259.938,78.965C264.383,77.91 269.094,77.383 274.066,77.383C280.172,77.383 285.43,77.93 289.84,79.02C294.246,80.113 297.883,81.676 300.746,83.711C303.609,85.746 305.719,88.195 307.074,91.059C308.434,93.922 309.109,97.129 309.109,100.668L309.109,164.313" style="fill-rule:nonzero;"/>
                    <path d="M235.273,55.09C235.273,64.758 227.438,72.59 217.773,72.59C208.105,72.59 200.273,64.758 200.273,55.09C200.273,45.426 208.105,37.59 217.773,37.59C227.438,37.59 235.273,45.426 235.273,55.09" style="fill:#ca3b33;fill-rule:nonzero;"/>
                    <path d="M72.953,55.09C72.953,64.758 65.117,72.59 55.453,72.59C45.789,72.59 37.953,64.758 37.953,55.09C37.953,45.426 45.789,37.59 55.453,37.59C65.117,37.59 72.953,45.426 72.953,55.09" style="fill:#4062d7;fill-rule:nonzero;"/>
                    <path d="M277.32,55.09C277.32,64.758 269.484,72.59 259.82,72.59C250.156,72.59 242.32,64.758 242.32,55.09C242.32,45.426 250.156,37.59 259.82,37.59C269.484,37.59 277.32,45.426 277.32,55.09" style="fill:#9457b1;fill-rule:nonzero;"/>
                    <path d="M256.301,18.672C256.301,28.336 248.465,36.172 238.801,36.172C229.133,36.172 221.301,28.336 221.301,18.672C221.301,9.008 229.133,1.172 238.801,1.172C248.465,1.172 256.301,9.008 256.301,18.672" style="fill:#389725;fill-rule:nonzero;"/>
                </g>
            </g>
        </g>
    </g>
</svg>
