<?xml version="1.0" encoding="UTF-8" standalone="no"?>
<!DOCTYPE svg PUBLIC "-//W3C//DTD SVG 1.1//EN" "http://www.w3.org/Graphics/SVG/1.1/DTD/svg11.dtd">
<svg width="100%" height="100%" viewBox="0 0 155 195" version="1.1" xmlns="http://www.w3.org/2000/svg" xmlns:xlink="http://www.w3.org/1999/xlink" xml:space="preserve" xmlns:serif="http://www.serif.com/" style="fill-rule:evenodd;clip-rule:evenodd;stroke-linejoin:round;stroke-miterlimit:2;">
    <g id="surface181">
        <g transform="matrix(1.10785,0,0,1.10785,-5.56668,36.4627)">
            <path d="M31.486,84.714C29.436,85.534 27.106,84.535 26.286,82.486C25.466,80.436 26.465,78.106 28.514,77.286L128.514,37.286C130.564,36.466 132.894,37.465 133.714,39.514C134.534,41.564 133.535,43.894 131.486,44.714L31.486,84.714Z" style="fill:rgb(1,1,1);"/>
        </g>
        <g transform="matrix(1.10785,0,0,1.10785,-5.56668,36.4627)">
            <path d="M16.828,135.828C15.267,137.389 12.733,137.389 11.172,135.828C9.611,134.267 9.611,131.733 11.172,130.172L127.172,14.172C128.733,12.611 131.267,12.611 132.828,14.172C134.389,15.733 134.389,18.267 132.828,19.828L16.828,135.828Z" style="fill:rgb(1,1,1);"/>
        </g>
        <g transform="matrix(1.10785,0,0,1.10785,-5.56668,36.4627)">
            <path d="M93,117C93,126.391 85.391,134 76,134C66.609,134 59,126.391 59,117C59,107.609 66.609,100 76,100C85.391,100 93,107.609 93,117" style="fill:rgb(202,59,51);fill-rule:nonzero;"/>
        </g>
        <g transform="matrix(1.10785,0,0,1.10785,-5.56668,36.4627)">
            <path d="M133,77C133,86.391 125.391,94 116,94C106.609,94 99,86.391 99,77C99,67.609 106.609,60 116,60C125.391,60 133,67.609 133,77" style="fill:rgb(56,151,37);fill-rule:nonzero;"/>
        </g>
        <g transform="matrix(1.10785,0,0,1.10785,-5.56668,36.4627)">
            <path d="M133,117C133,126.391 125.391,134 116,134C106.609,134 99,126.391 99,117C99,107.609 106.609,100 116,100C125.391,100 133,107.609 133,117" style="fill:rgb(148,87,177);fill-rule:nonzero;"/>
        </g>
        <g transform="matrix(0.548127,0,0,0.54588,-75.1665,-26.6099)">
            <path d="M177.418,60.469L191.445,60.469L191.445,107.582C191.445,111.828 191.766,116.063 190.73,120.23C189.523,125.285 186.5,129.723 182.238,132.695C179.277,134.758 175.848,136.051 172.262,136.457C160.707,137.758 149.895,130.078 147.324,118.734L160.941,115.258C161.594,118.301 163.734,120.82 166.629,121.957C167.918,122.438 169.301,122.605 170.664,122.453C171.926,122.32 173.133,121.883 174.188,121.176C177.234,119.055 177.418,115.305 177.418,112.004L177.418,60.469ZM206.527,60.469L220.297,60.469L220.297,86.66C220.297,91.73 220.641,95.281 221.344,97.25C221.953,99.102 223.133,100.715 224.707,101.859C226.391,103.004 228.395,103.586 230.43,103.523C232.469,103.582 234.48,103.016 236.191,101.906C237.844,100.727 239.078,99.055 239.711,97.133C240.27,95.57 240.547,92.227 240.547,87.098L240.547,60.5L254.223,60.5L254.223,83.512C254.223,92.984 253.461,99.484 252.023,102.973C250.398,106.984 247.578,110.402 243.949,112.762C240.383,115.043 235.859,116.184 230.375,116.184C224.41,116.184 219.598,114.855 215.93,112.199C212.191,109.441 209.465,105.531 208.164,101.07C207.129,97.77 206.57,91.785 206.57,83.117L206.527,60.469ZM332.805,133.805L346.656,133.805L346.656,60.457L330.816,60.457L307.836,91.992L284.855,60.457L268.906,60.457L268.906,133.805L282.754,133.805L282.754,80.465L306.152,112.434L308.879,112.434L332.805,80.566L332.805,133.805ZM359.281,60.469L374.09,60.469C382.156,60.469 387.934,61.203 391.426,62.668C394.922,64.102 397.867,66.625 399.816,69.863C401.934,73.457 403,77.574 402.887,81.742C403.051,86.332 401.633,90.844 398.871,94.512C396.105,98.012 392.281,100.523 387.973,101.676C385.285,102.406 380.383,102.773 373.266,102.773L373.266,133.859L359.281,133.859L359.281,60.469ZM373.266,89.156L377.664,89.156C380.117,89.27 382.578,89.02 384.957,88.406C386.266,87.953 387.395,87.086 388.168,85.934C388.98,84.699 389.391,83.242 389.348,81.766C389.496,79.25 388.219,76.855 386.047,75.582C384.484,74.625 381.523,74.176 377.191,74.176L373.266,74.176L373.266,89.156Z" style="fill:rgb(1,1,1);fill-rule:nonzero;"/>
        </g>
        <g>
            <g transform="matrix(0.540815,0,0,0.540815,-39.8841,-115.242)">
                <g transform="matrix(29.8524,0,0,29.8524,84.7075,338.383)">
                    <path d="M0.26,-0.6L0.431,-0.6C0.573,-0.6 0.589,-0.579 0.589,-0.39C0.589,-0.201 0.573,-0.18 0.431,-0.18L0.26,-0.18L0.259,-0.39L0.26,-0.6ZM0.05,-0L0.453,-0C0.738,-0 0.809,-0.078 0.809,-0.39C0.809,-0.702 0.738,-0.78 0.453,-0.78L0.05,-0.78L0.05,-0Z" style="fill:rgb(1,1,1);fill-rule:nonzero;"/>
                </g>
                <g transform="matrix(29.8524,0,0,29.8524,109.754,338.383)">
                    <path d="M0.05,-0.78L0.05,-0L0.692,-0L0.692,-0.18L0.26,-0.18L0.26,-0.31L0.65,-0.31L0.65,-0.48L0.26,-0.48L0.26,-0.6L0.69,-0.6L0.69,-0.78L0.05,-0.78Z" style="fill:rgb(1,1,1);fill-rule:nonzero;"/>
                </g>
                <g transform="matrix(29.8524,0,0,29.8524,131.606,338.383)">
                    <path d="M0.827,-0.78L0.606,-0.78L0.416,-0.2L0.41,-0.2L0.235,-0.78L0.005,-0.78L0.24,-0L0.572,-0L0.827,-0.78Z" style="fill:rgb(1,1,1);fill-rule:nonzero;"/>
                </g>
                <g transform="matrix(29.8524,0,0,29.8524,171.369,338.383)">
                    <path d="M0.683,-0L0.683,-0.18L0.379,-0.18L0.596,-0.366C0.677,-0.436 0.664,-0.48 0.667,-0.592C0.673,-0.752 0.61,-0.792 0.351,-0.792C0.102,-0.792 0.03,-0.738 0.03,-0.522L0.25,-0.522C0.25,-0.611 0.26,-0.622 0.35,-0.622C0.452,-0.622 0.463,-0.614 0.463,-0.554C0.463,-0.511 0.447,-0.486 0.381,-0.431L0.036,-0.14L0.036,-0L0.683,-0Z" style="fill:rgb(1,1,1);fill-rule:nonzero;"/>
                </g>
                <g transform="matrix(29.8524,0,0,29.8524,192.952,338.383)">
                    <path d="M0.374,-0.632C0.486,-0.632 0.498,-0.608 0.498,-0.39C0.498,-0.172 0.486,-0.148 0.374,-0.148C0.262,-0.148 0.25,-0.172 0.25,-0.39C0.25,-0.608 0.262,-0.632 0.374,-0.632ZM0.03,-0.39C0.03,-0.068 0.099,0.012 0.374,0.012C0.649,0.012 0.718,-0.068 0.718,-0.39C0.718,-0.712 0.649,-0.792 0.374,-0.792C0.099,-0.792 0.03,-0.712 0.03,-0.39Z" style="fill:rgb(1,1,1);fill-rule:nonzero;"/>
                </g>
                <g transform="matrix(29.8524,0,0,29.8524,215.282,338.383)">
                    <path d="M0.683,-0L0.683,-0.18L0.379,-0.18L0.596,-0.366C0.677,-0.436 0.664,-0.48 0.667,-0.592C0.673,-0.752 0.61,-0.792 0.351,-0.792C0.102,-0.792 0.03,-0.738 0.03,-0.522L0.25,-0.522C0.25,-0.611 0.26,-0.622 0.35,-0.622C0.452,-0.622 0.463,-0.614 0.463,-0.554C0.463,-0.511 0.447,-0.486 0.381,-0.431L0.036,-0.14L0.036,-0L0.683,-0Z" style="fill:rgb(1,1,1);fill-rule:nonzero;"/>
                </g>
                <g transform="matrix(29.8524,0,0,29.8524,236.865,338.383)">
                    <path d="M0.37,-0.148C0.253,-0.148 0.24,-0.156 0.24,-0.228L0.04,-0.228C0.04,-0.036 0.107,0.012 0.376,0.012C0.654,0.012 0.724,-0.031 0.724,-0.202C0.724,-0.324 0.681,-0.385 0.585,-0.398C0.665,-0.412 0.7,-0.469 0.7,-0.582C0.7,-0.75 0.635,-0.792 0.376,-0.792C0.118,-0.792 0.054,-0.747 0.054,-0.567L0.244,-0.567C0.244,-0.625 0.265,-0.632 0.376,-0.632C0.489,-0.632 0.51,-0.62 0.51,-0.556C0.51,-0.49 0.489,-0.478 0.376,-0.478L0.249,-0.478L0.249,-0.318L0.37,-0.318C0.5,-0.318 0.524,-0.305 0.524,-0.234C0.524,-0.162 0.5,-0.148 0.37,-0.148Z" style="fill:rgb(1,1,1);fill-rule:nonzero;"/>
                </g>
            </g>
            <g transform="matrix(1.00036,0.107491,0.107491,1.00036,-37.138,-2.38108)">
                <path d="M72.742,75.069C72.466,75.758 71.718,76.209 71.073,76.076C70.428,75.943 70.129,75.276 70.405,74.587L85.169,37.803C85.445,37.114 86.193,36.663 86.838,36.796C87.483,36.929 87.782,37.597 87.506,38.286L72.742,75.069Z" style="fill:rgb(1,1,1);"/>
            </g>
        </g>
    </g>
</svg>
