<?xml version="1.0" encoding="UTF-8"?>
<svg xmlns="http://www.w3.org/2000/svg" xmlns:xlink="http://www.w3.org/1999/xlink" width="600pt" height="600pt" viewBox="0 0 600 600" version="1.1">
<g id="surface99">
<path style=" stroke:none;fill-rule:nonzero;fill:rgb(79.6%,23.5%,20%);fill-opacity:1;" d="M 425.980469 104.832031 C 406.195312 85.660156 384.140625 68.070312 359.101562 56.210938 C 316.507812 35.957031 265.972656 40.835938 227.125 67.390625 C 192.160156 91.320312 168.445312 129.34375 155.625 169.964844 C 131.125 248.910156 146.5 336.082031 180.234375 411.527344 C 186.378906 425.410156 193.148438 439.054688 196.191406 453.832031 C 199.230469 468.609375 197.582031 485.03125 188.234375 497.054688 C 179.542969 508.542969 164.828125 514.003906 150.527344 515.28125 C 121.960938 517.539062 93.546875 503.230469 75.253906 481.195312 C 56.964844 459.160156 47.777344 430.5 46.414062 402.019531 C 44.75 373.511719 50.34375 344.828125 58.230469 317.277344 C 73.027344 266 97.460938 217.796875 124.375 171.953125 C 148.746094 130.382812 175.894531 88.179688 215.007812 58.9375 C 248.925781 33.398438 291.527344 23.5 333.015625 33.695312 C 372.714844 43.707031 402.707031 72.34375 425.980469 104.832031 "/>
<path style=" stroke:none;fill-rule:nonzero;fill:rgb(22%,59.6%,14.9%);fill-opacity:1;" d="M 436.339844 559.1875 C 462.839844 551.640625 489.097656 541.332031 511.890625 525.578125 C 550.722656 498.820312 571.769531 452.613281 568.191406 405.691406 C 564.953125 363.449219 543.882812 323.898438 515.109375 292.484375 C 458.992188 231.792969 375.8125 201.523438 293.605469 193.015625 C 278.511719 191.394531 263.3125 190.4375 248.992188 185.679688 C 234.675781 180.925781 221.277344 171.289062 215.539062 157.179688 C 209.933594 143.910156 212.566406 128.4375 218.605469 115.414062 C 230.9375 89.542969 257.535156 72.089844 285.761719 67.265625 C 313.992188 62.445312 343.40625 68.820312 368.75 81.878906 C 394.269531 94.691406 416.316406 113.878906 436.230469 134.484375 C 473.242188 172.9375 502.769531 218.199219 529.015625 264.425781 C 552.832031 306.320312 575.808594 350.929688 581.570312 399.425781 C 586.730469 441.570312 574 483.414062 544.429688 514.246094 C 515.910156 543.621094 476.113281 555.277344 436.339844 559.1875 "/>
<path style=" stroke:none;fill-rule:nonzero;fill:rgb(58.4%,34.5%,69.8%);fill-opacity:1;" d="M 37.679688 340.980469 C 30.964844 367.703125 26.761719 395.59375 29.011719 423.210938 C 32.765625 470.222656 62.261719 511.550781 104.679688 531.914062 C 142.886719 550.230469 187.671875 551.757812 229.261719 542.546875 C 309.882812 524.296875 377.6875 467.394531 426.15625 400.457031 C 435.109375 388.195312 443.539062 375.507812 454.816406 365.484375 C 466.09375 355.464844 481.136719 348.679688 496.226562 350.765625 C 510.523438 352.546875 522.605469 362.5625 530.863281 374.304688 C 547.105469 397.917969 548.921875 429.679688 538.980469 456.535156 C 529.042969 483.394531 508.816406 505.679688 484.835938 521.101562 C 460.976562 536.796875 433.339844 546.292969 405.535156 553.238281 C 353.730469 566.066406 299.769531 569.007812 246.613281 568.621094 C 198.421875 568.300781 148.300781 565.890625 103.417969 546.636719 C 64.339844 530.03125 34.46875 498.085938 22.554688 457.058594 C 11.375 417.671875 21.179688 377.378906 37.679688 340.980469 "/>
<g style="fill:rgb(100%,100%,100%);fill-opacity:1;">
  <use xlink:href="#glyph0-1" x="208.584" y="303.6"/>
  <use xlink:href="#glyph0-2" x="250.288" y="303.6"/>
  <use xlink:href="#glyph0-3" x="285.492" y="303.6"/>
  <use xlink:href="#glyph0-4" x="301.092" y="303.6"/>
  <use xlink:href="#glyph0-5" x="357.876" y="303.6"/>
</g>
<g style="fill:rgb(100%,100%,100%);fill-opacity:1;">
  <use xlink:href="#glyph1-1" x="210.3" y="373.8"/>
</g>
<g style="fill:rgb(100%,100%,100%);fill-opacity:1;">
  <use xlink:href="#glyph2-1" x="216.5738" y="428.4"/>
  <use xlink:href="#glyph2-2" x="257.9294" y="428.4"/>
  <use xlink:href="#glyph2-1" x="300.715" y="428.4"/>
  <use xlink:href="#glyph2-1" x="342.0706" y="428.4"/>
</g>
</g>
</svg>
