<?xml version="1.0" encoding="UTF-8" standalone="no"?>
<!DOCTYPE svg PUBLIC "-//W3C//DTD SVG 1.1//EN" "http://www.w3.org/Graphics/SVG/1.1/DTD/svg11.dtd">
<svg width="100%" height="100%" viewBox="0 0 650 265" version="1.1" xmlns="http://www.w3.org/2000/svg" xmlns:xlink="http://www.w3.org/1999/xlink" xml:space="preserve" xmlns:serif="http://www.serif.com/" style="fill-rule:evenodd;clip-rule:evenodd;stroke-linejoin:round;stroke-miterlimit:2;">
    <g transform="matrix(1.94369,0,0,1.94369,-1793.62,-3330.54)">
        <g transform="matrix(48,0,0,48,926.724,1836.6)">
            <path d="M0.341,-0C0.331,-0 0.326,-0.005 0.325,-0.014L0.314,-0.089C0.314,-0.09 0.313,-0.092 0.312,-0.093C0.311,-0.094 0.309,-0.095 0.307,-0.095L0.219,-0.095C0.217,-0.095 0.215,-0.094 0.214,-0.093C0.213,-0.092 0.212,-0.09 0.212,-0.089L0.202,-0.014C0.201,-0.005 0.196,-0 0.186,-0L0.029,-0C0.018,-0 0.014,-0.005 0.016,-0.016L0.158,-0.687C0.16,-0.696 0.166,-0.7 0.175,-0.7L0.357,-0.7C0.366,-0.7 0.372,-0.696 0.374,-0.687L0.516,-0.016L0.516,-0.012C0.516,-0.004 0.511,-0 0.502,-0L0.341,-0ZM0.234,-0.245C0.234,-0.241 0.236,-0.239 0.239,-0.239L0.286,-0.239C0.291,-0.239 0.292,-0.241 0.291,-0.245L0.264,-0.425C0.263,-0.428 0.262,-0.429 0.261,-0.429C0.26,-0.429 0.259,-0.428 0.258,-0.425L0.234,-0.245Z" style="fill-rule:nonzero;"/>
        </g>
        <g transform="matrix(48,0,0,48,951.252,1836.6)">
            <path d="M0.252,-0.505C0.252,-0.51 0.253,-0.513 0.256,-0.516C0.259,-0.519 0.262,-0.52 0.267,-0.52L0.425,-0.52C0.43,-0.52 0.433,-0.519 0.436,-0.516C0.439,-0.513 0.44,-0.51 0.44,-0.505L0.44,-0.015C0.44,-0.01 0.439,-0.007 0.436,-0.004C0.433,-0.001 0.43,-0 0.425,-0L0.267,-0C0.262,-0 0.259,-0.001 0.256,-0.004C0.253,-0.007 0.252,-0.01 0.252,-0.015L0.252,-0.019C0.252,-0.022 0.251,-0.023 0.25,-0.024C0.249,-0.025 0.247,-0.024 0.245,-0.022C0.235,-0.01 0.223,-0.002 0.21,0.002C0.196,0.006 0.18,0.008 0.162,0.008C0.122,0.008 0.088,-0.004 0.061,-0.029C0.034,-0.054 0.02,-0.092 0.02,-0.144L0.02,-0.505C0.02,-0.51 0.021,-0.513 0.024,-0.516C0.027,-0.519 0.03,-0.52 0.035,-0.52L0.193,-0.52C0.198,-0.52 0.201,-0.519 0.204,-0.516C0.207,-0.513 0.208,-0.51 0.208,-0.505L0.208,-0.185C0.208,-0.164 0.215,-0.153 0.229,-0.153C0.244,-0.153 0.252,-0.164 0.252,-0.185L0.252,-0.505Z" style="fill-rule:nonzero;"/>
        </g>
        <g transform="matrix(48,0,0,48,973.428,1836.6)">
            <path d="M0.25,-0.505C0.25,-0.51 0.251,-0.513 0.254,-0.516C0.257,-0.519 0.26,-0.52 0.265,-0.52L0.423,-0.52C0.428,-0.52 0.431,-0.519 0.434,-0.516C0.437,-0.513 0.438,-0.51 0.438,-0.505L0.438,-0.034C0.438,0.016 0.431,0.059 0.417,0.094C0.402,0.129 0.376,0.158 0.337,0.179C0.298,0.2 0.244,0.21 0.174,0.21C0.148,0.21 0.128,0.209 0.113,0.208C0.103,0.208 0.098,0.203 0.098,0.193L0.098,0.06C0.098,0.049 0.103,0.045 0.114,0.046L0.139,0.047C0.176,0.047 0.203,0.042 0.219,0.032C0.234,0.021 0.244,0.006 0.248,-0.014C0.248,-0.016 0.246,-0.018 0.242,-0.019C0.237,-0.02 0.234,-0.02 0.232,-0.019C0.213,-0.001 0.188,0.008 0.155,0.008C0.107,0.008 0.072,-0.007 0.051,-0.038C0.029,-0.069 0.018,-0.113 0.018,-0.17L0.018,-0.35C0.018,-0.409 0.029,-0.454 0.051,-0.484C0.073,-0.513 0.108,-0.528 0.155,-0.528C0.194,-0.528 0.223,-0.513 0.243,-0.484C0.244,-0.481 0.246,-0.48 0.248,-0.481C0.249,-0.481 0.25,-0.482 0.25,-0.485L0.25,-0.505ZM0.227,-0.153C0.234,-0.153 0.239,-0.156 0.244,-0.162C0.248,-0.168 0.25,-0.176 0.25,-0.185L0.25,-0.335C0.25,-0.344 0.248,-0.352 0.244,-0.358C0.239,-0.364 0.234,-0.367 0.227,-0.367C0.22,-0.367 0.215,-0.364 0.212,-0.358C0.208,-0.352 0.206,-0.344 0.206,-0.335L0.206,-0.185C0.206,-0.176 0.208,-0.168 0.212,-0.162C0.215,-0.156 0.22,-0.153 0.227,-0.153Z" style="fill-rule:nonzero;"/>
        </g>
        <g transform="matrix(48,0,0,48,995.508,1836.6)">
            <path d="M0.252,-0.505C0.252,-0.51 0.253,-0.513 0.256,-0.516C0.259,-0.519 0.262,-0.52 0.267,-0.52L0.425,-0.52C0.43,-0.52 0.433,-0.519 0.436,-0.516C0.439,-0.513 0.44,-0.51 0.44,-0.505L0.44,-0.015C0.44,-0.01 0.439,-0.007 0.436,-0.004C0.433,-0.001 0.43,-0 0.425,-0L0.267,-0C0.262,-0 0.259,-0.001 0.256,-0.004C0.253,-0.007 0.252,-0.01 0.252,-0.015L0.252,-0.019C0.252,-0.022 0.251,-0.023 0.25,-0.024C0.249,-0.025 0.247,-0.024 0.245,-0.022C0.235,-0.01 0.223,-0.002 0.21,0.002C0.196,0.006 0.18,0.008 0.162,0.008C0.122,0.008 0.088,-0.004 0.061,-0.029C0.034,-0.054 0.02,-0.092 0.02,-0.144L0.02,-0.505C0.02,-0.51 0.021,-0.513 0.024,-0.516C0.027,-0.519 0.03,-0.52 0.035,-0.52L0.193,-0.52C0.198,-0.52 0.201,-0.519 0.204,-0.516C0.207,-0.513 0.208,-0.51 0.208,-0.505L0.208,-0.185C0.208,-0.164 0.215,-0.153 0.229,-0.153C0.244,-0.153 0.252,-0.164 0.252,-0.185L0.252,-0.505Z" style="fill-rule:nonzero;"/>
        </g>
        <g transform="matrix(48,0,0,48,1017.68,1836.6)">
            <path d="M0.223,0.008C0.159,0.008 0.108,-0.007 0.07,-0.037C0.031,-0.067 0.012,-0.107 0.012,-0.156L0.012,-0.159C0.012,-0.164 0.013,-0.167 0.016,-0.17C0.019,-0.173 0.022,-0.174 0.027,-0.174L0.177,-0.174C0.182,-0.174 0.185,-0.173 0.188,-0.171C0.191,-0.168 0.192,-0.165 0.192,-0.161C0.192,-0.151 0.195,-0.143 0.201,-0.138C0.207,-0.133 0.214,-0.13 0.221,-0.13C0.227,-0.13 0.232,-0.132 0.235,-0.136C0.238,-0.139 0.24,-0.144 0.24,-0.149C0.24,-0.159 0.235,-0.167 0.225,-0.172C0.215,-0.177 0.198,-0.182 0.175,-0.189C0.167,-0.191 0.158,-0.194 0.147,-0.197C0.112,-0.208 0.082,-0.227 0.057,-0.253C0.032,-0.278 0.019,-0.313 0.019,-0.358C0.019,-0.41 0.037,-0.451 0.073,-0.482C0.109,-0.513 0.156,-0.528 0.215,-0.528C0.276,-0.528 0.325,-0.511 0.362,-0.478C0.399,-0.445 0.417,-0.401 0.417,-0.346C0.417,-0.343 0.416,-0.341 0.413,-0.339C0.41,-0.337 0.407,-0.336 0.402,-0.336L0.257,-0.336C0.252,-0.336 0.249,-0.337 0.246,-0.34C0.243,-0.343 0.242,-0.346 0.242,-0.351L0.242,-0.357C0.242,-0.365 0.24,-0.371 0.236,-0.376C0.231,-0.381 0.226,-0.383 0.22,-0.383C0.213,-0.383 0.208,-0.38 0.205,-0.375C0.201,-0.37 0.199,-0.364 0.199,-0.357C0.199,-0.344 0.206,-0.333 0.219,-0.326C0.232,-0.319 0.248,-0.312 0.269,-0.306C0.317,-0.292 0.356,-0.274 0.385,-0.252C0.414,-0.23 0.429,-0.196 0.429,-0.151C0.429,-0.102 0.41,-0.063 0.373,-0.035C0.335,-0.006 0.285,0.008 0.223,0.008Z" style="fill-rule:nonzero;"/>
        </g>
        <g transform="matrix(48,0,0,48,1038.71,1836.6)">
            <path d="M0.295,-0.405C0.295,-0.4 0.294,-0.397 0.291,-0.394C0.288,-0.391 0.285,-0.39 0.28,-0.39L0.238,-0.39C0.234,-0.39 0.232,-0.388 0.232,-0.384L0.232,-0.192C0.232,-0.18 0.235,-0.172 0.24,-0.168C0.245,-0.163 0.253,-0.161 0.263,-0.162L0.265,-0.162C0.27,-0.162 0.273,-0.161 0.276,-0.158C0.279,-0.155 0.28,-0.152 0.28,-0.147L0.28,-0.015C0.28,-0.01 0.279,-0.007 0.276,-0.004C0.273,-0.001 0.27,-0 0.265,-0L0.217,-0C0.162,-0 0.12,-0.008 0.093,-0.024C0.066,-0.039 0.052,-0.07 0.052,-0.116L0.052,-0.384C0.052,-0.388 0.05,-0.39 0.046,-0.39L0.019,-0.39C0.014,-0.39 0.011,-0.391 0.008,-0.394C0.005,-0.397 0.004,-0.4 0.004,-0.405L0.004,-0.505C0.004,-0.51 0.005,-0.513 0.008,-0.516C0.011,-0.519 0.014,-0.52 0.019,-0.52L0.046,-0.52C0.05,-0.52 0.052,-0.522 0.052,-0.526L0.052,-0.633C0.052,-0.638 0.053,-0.641 0.056,-0.644C0.059,-0.647 0.062,-0.648 0.067,-0.648L0.217,-0.648C0.222,-0.648 0.225,-0.647 0.228,-0.644C0.231,-0.641 0.232,-0.638 0.232,-0.633L0.232,-0.526C0.232,-0.522 0.234,-0.52 0.238,-0.52L0.28,-0.52C0.285,-0.52 0.288,-0.519 0.291,-0.516C0.294,-0.513 0.295,-0.51 0.295,-0.505L0.295,-0.405Z" style="fill-rule:nonzero;"/>
        </g>
        <g transform="matrix(48,0,0,48,1063.04,1836.6)">
            <path d="M0.086,-0.697C0.092,-0.699 0.098,-0.7 0.104,-0.7L0.268,-0.7C0.273,-0.7 0.276,-0.699 0.279,-0.696C0.282,-0.693 0.283,-0.69 0.283,-0.685L0.283,-0.015C0.283,-0.01 0.282,-0.007 0.279,-0.004C0.276,-0.001 0.273,-0 0.268,-0L0.11,-0C0.105,-0 0.102,-0.001 0.099,-0.004C0.096,-0.007 0.095,-0.01 0.095,-0.015L0.095,-0.523C0.095,-0.527 0.093,-0.529 0.089,-0.529L0.023,-0.529C0.018,-0.529 0.015,-0.53 0.012,-0.533C0.009,-0.536 0.008,-0.539 0.008,-0.544L0.008,-0.66C0.008,-0.669 0.012,-0.674 0.02,-0.677L0.086,-0.697Z" style="fill-rule:nonzero;"/>
        </g>
        <g transform="matrix(48,0,0,48,1077.59,1836.6)">
            <path d="M0.229,0.012C0.187,0.012 0.15,0.003 0.118,-0.015C0.085,-0.033 0.06,-0.058 0.043,-0.092C0.025,-0.125 0.016,-0.163 0.016,-0.206L0.016,-0.494C0.016,-0.537 0.025,-0.576 0.043,-0.609C0.06,-0.642 0.085,-0.667 0.118,-0.685C0.15,-0.703 0.187,-0.712 0.229,-0.712C0.272,-0.712 0.309,-0.703 0.342,-0.685C0.374,-0.667 0.399,-0.642 0.417,-0.609C0.434,-0.576 0.443,-0.537 0.443,-0.494L0.443,-0.206C0.443,-0.163 0.434,-0.125 0.417,-0.092C0.399,-0.058 0.374,-0.033 0.342,-0.015C0.309,0.003 0.272,0.012 0.229,0.012ZM0.229,-0.149C0.237,-0.149 0.243,-0.153 0.248,-0.162C0.253,-0.17 0.255,-0.181 0.255,-0.195L0.255,-0.505C0.255,-0.519 0.253,-0.53 0.248,-0.539C0.243,-0.547 0.237,-0.551 0.229,-0.551C0.222,-0.551 0.216,-0.547 0.211,-0.539C0.206,-0.53 0.204,-0.519 0.204,-0.505L0.204,-0.195C0.204,-0.181 0.206,-0.17 0.211,-0.162C0.216,-0.153 0.222,-0.149 0.229,-0.149Z" style="fill-rule:nonzero;"/>
        </g>
        <g transform="matrix(48,0,0,48,1099.62,1836.6)">
            <path d="M0.033,-0.205C0.028,-0.205 0.025,-0.206 0.022,-0.209C0.019,-0.212 0.018,-0.215 0.018,-0.22L0.018,-0.35C0.018,-0.355 0.019,-0.358 0.022,-0.361C0.025,-0.364 0.028,-0.365 0.033,-0.365L0.31,-0.365C0.315,-0.365 0.318,-0.364 0.321,-0.361C0.324,-0.358 0.325,-0.355 0.325,-0.35L0.325,-0.22C0.325,-0.215 0.324,-0.212 0.321,-0.209C0.318,-0.206 0.315,-0.205 0.31,-0.205L0.033,-0.205Z" style="fill-rule:nonzero;"/>
        </g>
        <g transform="matrix(48,0,0,48,1116.08,1836.6)">
            <path d="M0.086,-0.697C0.092,-0.699 0.098,-0.7 0.104,-0.7L0.268,-0.7C0.273,-0.7 0.276,-0.699 0.279,-0.696C0.282,-0.693 0.283,-0.69 0.283,-0.685L0.283,-0.015C0.283,-0.01 0.282,-0.007 0.279,-0.004C0.276,-0.001 0.273,-0 0.268,-0L0.11,-0C0.105,-0 0.102,-0.001 0.099,-0.004C0.096,-0.007 0.095,-0.01 0.095,-0.015L0.095,-0.523C0.095,-0.527 0.093,-0.529 0.089,-0.529L0.023,-0.529C0.018,-0.529 0.015,-0.53 0.012,-0.533C0.009,-0.536 0.008,-0.539 0.008,-0.544L0.008,-0.66C0.008,-0.669 0.012,-0.674 0.02,-0.677L0.086,-0.697Z" style="fill-rule:nonzero;"/>
        </g>
        <g transform="matrix(48,0,0,48,1130.63,1836.6)">
            <path d="M0.291,-0.444C0.338,-0.444 0.376,-0.428 0.404,-0.395C0.431,-0.362 0.445,-0.317 0.445,-0.26L0.445,-0.171C0.445,-0.115 0.426,-0.071 0.387,-0.04C0.348,-0.008 0.296,0.008 0.231,0.008C0.171,0.008 0.123,-0.006 0.086,-0.035C0.049,-0.064 0.027,-0.107 0.02,-0.164L0.018,-0.189C0.018,-0.199 0.023,-0.204 0.033,-0.204L0.191,-0.204C0.201,-0.204 0.206,-0.2 0.207,-0.192C0.207,-0.186 0.207,-0.182 0.208,-0.18C0.211,-0.161 0.218,-0.152 0.231,-0.152C0.239,-0.152 0.245,-0.155 0.25,-0.161C0.255,-0.167 0.257,-0.175 0.257,-0.184L0.257,-0.25C0.257,-0.259 0.255,-0.267 0.25,-0.273C0.245,-0.279 0.239,-0.282 0.231,-0.282C0.22,-0.282 0.213,-0.278 0.208,-0.27C0.205,-0.265 0.203,-0.262 0.201,-0.26C0.199,-0.258 0.196,-0.257 0.192,-0.257L0.032,-0.257C0.027,-0.257 0.024,-0.258 0.021,-0.261C0.018,-0.264 0.017,-0.267 0.017,-0.272L0.017,-0.685C0.017,-0.69 0.018,-0.693 0.021,-0.696C0.024,-0.699 0.027,-0.7 0.032,-0.7L0.428,-0.7C0.433,-0.7 0.436,-0.699 0.439,-0.696C0.442,-0.693 0.443,-0.69 0.443,-0.685L0.443,-0.554C0.443,-0.549 0.442,-0.546 0.439,-0.543C0.436,-0.54 0.433,-0.539 0.428,-0.539L0.211,-0.539C0.207,-0.539 0.205,-0.537 0.205,-0.533L0.205,-0.419C0.205,-0.416 0.206,-0.415 0.207,-0.414C0.208,-0.413 0.21,-0.414 0.212,-0.415C0.223,-0.424 0.235,-0.432 0.249,-0.437C0.262,-0.442 0.276,-0.444 0.291,-0.444Z" style="fill-rule:nonzero;"/>
        </g>
        <g transform="matrix(48,0,0,48,1162.26,1836.6)">
            <path d="M0.249,-0.168C0.247,-0.167 0.246,-0.165 0.247,-0.164C0.248,-0.162 0.249,-0.161 0.252,-0.161L0.438,-0.161C0.443,-0.161 0.446,-0.16 0.449,-0.157C0.452,-0.154 0.453,-0.151 0.453,-0.146L0.453,-0.015C0.453,-0.01 0.452,-0.007 0.449,-0.004C0.446,-0.001 0.443,-0 0.438,-0L0.033,-0C0.028,-0 0.025,-0.001 0.022,-0.004C0.019,-0.007 0.018,-0.01 0.018,-0.015L0.018,-0.15C0.018,-0.157 0.02,-0.164 0.025,-0.169L0.086,-0.237C0.119,-0.274 0.145,-0.302 0.163,-0.323C0.18,-0.344 0.196,-0.364 0.21,-0.385C0.241,-0.43 0.257,-0.47 0.257,-0.505C0.257,-0.533 0.248,-0.547 0.231,-0.547C0.223,-0.547 0.217,-0.544 0.212,-0.538C0.207,-0.531 0.204,-0.523 0.204,-0.512L0.204,-0.47C0.204,-0.465 0.203,-0.462 0.2,-0.459C0.197,-0.456 0.194,-0.455 0.189,-0.455L0.029,-0.455C0.024,-0.455 0.021,-0.456 0.018,-0.459C0.015,-0.462 0.014,-0.465 0.014,-0.47L0.014,-0.52C0.017,-0.557 0.028,-0.59 0.048,-0.619C0.067,-0.647 0.094,-0.669 0.127,-0.685C0.16,-0.7 0.198,-0.708 0.24,-0.708C0.281,-0.708 0.317,-0.7 0.348,-0.683C0.379,-0.666 0.404,-0.642 0.421,-0.611C0.438,-0.58 0.447,-0.544 0.447,-0.504C0.447,-0.467 0.442,-0.434 0.431,-0.405C0.42,-0.376 0.403,-0.345 0.378,-0.312C0.356,-0.283 0.33,-0.253 0.301,-0.222C0.271,-0.191 0.254,-0.173 0.249,-0.168Z" style="fill-rule:nonzero;"/>
        </g>
        <g transform="matrix(48,0,0,48,1184.48,1836.6)">
            <path d="M0.229,0.012C0.187,0.012 0.15,0.003 0.118,-0.015C0.085,-0.033 0.06,-0.058 0.043,-0.092C0.025,-0.125 0.016,-0.163 0.016,-0.206L0.016,-0.494C0.016,-0.537 0.025,-0.576 0.043,-0.609C0.06,-0.642 0.085,-0.667 0.118,-0.685C0.15,-0.703 0.187,-0.712 0.229,-0.712C0.272,-0.712 0.309,-0.703 0.342,-0.685C0.374,-0.667 0.399,-0.642 0.417,-0.609C0.434,-0.576 0.443,-0.537 0.443,-0.494L0.443,-0.206C0.443,-0.163 0.434,-0.125 0.417,-0.092C0.399,-0.058 0.374,-0.033 0.342,-0.015C0.309,0.003 0.272,0.012 0.229,0.012ZM0.229,-0.149C0.237,-0.149 0.243,-0.153 0.248,-0.162C0.253,-0.17 0.255,-0.181 0.255,-0.195L0.255,-0.505C0.255,-0.519 0.253,-0.53 0.248,-0.539C0.243,-0.547 0.237,-0.551 0.229,-0.551C0.222,-0.551 0.216,-0.547 0.211,-0.539C0.206,-0.53 0.204,-0.519 0.204,-0.505L0.204,-0.195C0.204,-0.181 0.206,-0.17 0.211,-0.162C0.216,-0.153 0.222,-0.149 0.229,-0.149Z" style="fill-rule:nonzero;"/>
        </g>
        <g transform="matrix(48,0,0,48,1206.52,1836.6)">
            <path d="M0.249,-0.168C0.247,-0.167 0.246,-0.165 0.247,-0.164C0.248,-0.162 0.249,-0.161 0.252,-0.161L0.438,-0.161C0.443,-0.161 0.446,-0.16 0.449,-0.157C0.452,-0.154 0.453,-0.151 0.453,-0.146L0.453,-0.015C0.453,-0.01 0.452,-0.007 0.449,-0.004C0.446,-0.001 0.443,-0 0.438,-0L0.033,-0C0.028,-0 0.025,-0.001 0.022,-0.004C0.019,-0.007 0.018,-0.01 0.018,-0.015L0.018,-0.15C0.018,-0.157 0.02,-0.164 0.025,-0.169L0.086,-0.237C0.119,-0.274 0.145,-0.302 0.163,-0.323C0.18,-0.344 0.196,-0.364 0.21,-0.385C0.241,-0.43 0.257,-0.47 0.257,-0.505C0.257,-0.533 0.248,-0.547 0.231,-0.547C0.223,-0.547 0.217,-0.544 0.212,-0.538C0.207,-0.531 0.204,-0.523 0.204,-0.512L0.204,-0.47C0.204,-0.465 0.203,-0.462 0.2,-0.459C0.197,-0.456 0.194,-0.455 0.189,-0.455L0.029,-0.455C0.024,-0.455 0.021,-0.456 0.018,-0.459C0.015,-0.462 0.014,-0.465 0.014,-0.47L0.014,-0.52C0.017,-0.557 0.028,-0.59 0.048,-0.619C0.067,-0.647 0.094,-0.669 0.127,-0.685C0.16,-0.7 0.198,-0.708 0.24,-0.708C0.281,-0.708 0.317,-0.7 0.348,-0.683C0.379,-0.666 0.404,-0.642 0.421,-0.611C0.438,-0.58 0.447,-0.544 0.447,-0.504C0.447,-0.467 0.442,-0.434 0.431,-0.405C0.42,-0.376 0.403,-0.345 0.378,-0.312C0.356,-0.283 0.33,-0.253 0.301,-0.222C0.271,-0.191 0.254,-0.173 0.249,-0.168Z" style="fill-rule:nonzero;"/>
        </g>
        <g transform="matrix(48,0,0,48,1228.74,1836.6)">
            <path d="M0.292,-0.444C0.339,-0.444 0.377,-0.428 0.405,-0.395C0.432,-0.362 0.446,-0.317 0.446,-0.26L0.446,-0.171C0.446,-0.115 0.427,-0.071 0.388,-0.04C0.349,-0.008 0.297,0.008 0.232,0.008C0.171,0.008 0.122,-0.006 0.085,-0.035C0.047,-0.064 0.026,-0.107 0.021,-0.164C0.02,-0.18 0.019,-0.193 0.019,-0.204L0.017,-0.524C0.016,-0.581 0.035,-0.626 0.075,-0.659C0.114,-0.692 0.165,-0.708 0.229,-0.708C0.291,-0.708 0.341,-0.691 0.38,-0.658C0.418,-0.625 0.437,-0.58 0.437,-0.524L0.437,-0.485C0.437,-0.48 0.436,-0.477 0.433,-0.474C0.43,-0.471 0.427,-0.47 0.422,-0.47L0.264,-0.47C0.259,-0.47 0.256,-0.471 0.253,-0.474C0.25,-0.477 0.249,-0.48 0.249,-0.485L0.249,-0.511C0.249,-0.52 0.247,-0.528 0.243,-0.534C0.238,-0.54 0.234,-0.543 0.229,-0.543C0.222,-0.543 0.217,-0.54 0.213,-0.534C0.208,-0.528 0.206,-0.52 0.206,-0.511L0.206,-0.419C0.206,-0.416 0.207,-0.415 0.208,-0.414C0.209,-0.413 0.211,-0.414 0.213,-0.415C0.224,-0.424 0.236,-0.432 0.25,-0.437C0.263,-0.442 0.277,-0.444 0.292,-0.444ZM0.255,-0.28C0.255,-0.289 0.253,-0.297 0.249,-0.303C0.244,-0.309 0.238,-0.312 0.231,-0.312C0.224,-0.312 0.218,-0.309 0.213,-0.303C0.208,-0.297 0.206,-0.289 0.206,-0.28L0.206,-0.184C0.206,-0.175 0.208,-0.167 0.213,-0.161C0.218,-0.155 0.224,-0.152 0.231,-0.152C0.238,-0.152 0.244,-0.155 0.249,-0.161C0.253,-0.167 0.255,-0.175 0.255,-0.184L0.255,-0.28Z" style="fill-rule:nonzero;"/>
        </g>
    </g>
    <g transform="matrix(17.3895,0,0,17.3895,-14386.9,-30627.8)">
        <g transform="matrix(6.15935,0,0,6.15935,827.991,1769.54)">
            <path d="M0.356,-0.689C0.36,-0.696 0.366,-0.7 0.374,-0.7L0.53,-0.7C0.535,-0.7 0.538,-0.699 0.541,-0.696C0.544,-0.693 0.545,-0.69 0.545,-0.685L0.545,-0.015C0.545,-0.01 0.544,-0.007 0.541,-0.004C0.538,-0.001 0.535,-0 0.53,-0L0.372,-0C0.367,-0 0.364,-0.001 0.361,-0.004C0.358,-0.007 0.357,-0.01 0.357,-0.015L0.357,-0.422C0.357,-0.425 0.356,-0.426 0.355,-0.427C0.353,-0.428 0.351,-0.427 0.35,-0.424L0.293,-0.328L0.283,-0.31L0.282,-0.31L0.216,-0.424C0.215,-0.427 0.213,-0.428 0.212,-0.428C0.21,-0.427 0.209,-0.425 0.209,-0.422L0.209,-0.015C0.209,-0.01 0.208,-0.007 0.205,-0.004C0.202,-0.001 0.199,-0 0.194,-0L0.036,-0C0.031,-0 0.028,-0.001 0.025,-0.004C0.022,-0.007 0.021,-0.01 0.021,-0.015L0.021,-0.685C0.021,-0.69 0.022,-0.693 0.025,-0.696C0.028,-0.699 0.031,-0.7 0.036,-0.7L0.192,-0.7C0.201,-0.7 0.207,-0.696 0.21,-0.689L0.28,-0.561C0.281,-0.559 0.283,-0.558 0.285,-0.558C0.286,-0.557 0.287,-0.558 0.288,-0.561L0.356,-0.689Z" style="fill-rule:nonzero;"/>
        </g>
        <g transform="matrix(6.15935,0,0,6.15935,831.477,1769.54)">
            <path d="M0.232,-0.528C0.275,-0.528 0.313,-0.521 0.346,-0.507C0.379,-0.493 0.404,-0.473 0.422,-0.448C0.44,-0.423 0.449,-0.393 0.449,-0.36L0.449,-0.015C0.449,-0.01 0.448,-0.007 0.445,-0.004C0.442,-0.001 0.439,-0 0.434,-0L0.276,-0C0.271,-0 0.268,-0.001 0.265,-0.004C0.262,-0.007 0.261,-0.01 0.261,-0.015L0.261,-0.036C0.261,-0.039 0.26,-0.04 0.259,-0.041C0.258,-0.041 0.256,-0.04 0.254,-0.038C0.231,-0.007 0.196,0.008 0.148,0.008C0.057,0.008 0.012,-0.045 0.012,-0.151C0.012,-0.198 0.02,-0.232 0.037,-0.255C0.054,-0.278 0.076,-0.292 0.105,-0.299C0.134,-0.306 0.172,-0.309 0.221,-0.309L0.255,-0.309C0.259,-0.309 0.261,-0.311 0.261,-0.315L0.261,-0.337C0.261,-0.346 0.258,-0.353 0.253,-0.359C0.248,-0.364 0.241,-0.367 0.232,-0.367C0.221,-0.367 0.213,-0.361 0.208,-0.349C0.205,-0.34 0.199,-0.335 0.192,-0.335L0.032,-0.337C0.022,-0.337 0.017,-0.342 0.017,-0.351C0.02,-0.406 0.042,-0.45 0.081,-0.481C0.12,-0.512 0.17,-0.528 0.232,-0.528ZM0.229,-0.127C0.237,-0.127 0.244,-0.13 0.251,-0.135C0.258,-0.14 0.261,-0.146 0.261,-0.154L0.261,-0.181C0.261,-0.185 0.259,-0.187 0.255,-0.187L0.235,-0.187C0.226,-0.187 0.218,-0.184 0.213,-0.178C0.207,-0.171 0.204,-0.164 0.204,-0.155C0.204,-0.146 0.207,-0.14 0.212,-0.135C0.217,-0.13 0.222,-0.127 0.229,-0.127Z" style="fill-rule:nonzero;"/>
        </g>
        <g transform="matrix(6.15935,0,0,6.15935,834.353,1769.54)">
            <path d="M0.112,-0.555C0.085,-0.555 0.062,-0.564 0.045,-0.582C0.027,-0.599 0.018,-0.622 0.018,-0.649C0.018,-0.677 0.027,-0.7 0.045,-0.717C0.062,-0.734 0.085,-0.743 0.112,-0.743C0.139,-0.743 0.162,-0.734 0.18,-0.717C0.197,-0.7 0.206,-0.677 0.206,-0.649C0.206,-0.622 0.197,-0.6 0.18,-0.582C0.162,-0.564 0.139,-0.555 0.112,-0.555ZM0.035,-0C0.03,-0 0.027,-0.001 0.024,-0.004C0.021,-0.007 0.02,-0.01 0.02,-0.015L0.02,-0.505C0.02,-0.51 0.021,-0.513 0.024,-0.516C0.027,-0.519 0.03,-0.52 0.035,-0.52L0.193,-0.52C0.198,-0.52 0.201,-0.519 0.204,-0.516C0.207,-0.513 0.208,-0.51 0.208,-0.505L0.208,-0.015C0.208,-0.01 0.207,-0.007 0.204,-0.004C0.201,-0.001 0.198,-0 0.193,-0L0.035,-0Z" style="fill-rule:nonzero;"/>
        </g>
        <g transform="matrix(6.15935,0,0,6.15935,835.745,1769.54)">
            <path d="M0.3,-0.528C0.395,-0.528 0.442,-0.468 0.442,-0.348L0.442,-0.015C0.442,-0.01 0.441,-0.007 0.438,-0.004C0.435,-0.001 0.432,-0 0.427,-0L0.269,-0C0.264,-0 0.261,-0.001 0.258,-0.004C0.255,-0.007 0.254,-0.01 0.254,-0.015L0.254,-0.335C0.254,-0.356 0.247,-0.367 0.233,-0.367C0.218,-0.367 0.21,-0.356 0.21,-0.335L0.21,-0.015C0.21,-0.01 0.209,-0.007 0.206,-0.004C0.203,-0.001 0.2,-0 0.195,-0L0.037,-0C0.032,-0 0.029,-0.001 0.026,-0.004C0.023,-0.007 0.022,-0.01 0.022,-0.015L0.022,-0.505C0.022,-0.51 0.023,-0.513 0.026,-0.516C0.029,-0.519 0.032,-0.52 0.037,-0.52L0.195,-0.52C0.2,-0.52 0.203,-0.519 0.206,-0.516C0.209,-0.513 0.21,-0.51 0.21,-0.505L0.21,-0.49C0.21,-0.489 0.211,-0.488 0.212,-0.488C0.215,-0.488 0.219,-0.491 0.224,-0.497C0.243,-0.518 0.269,-0.528 0.3,-0.528Z" style="fill-rule:nonzero;"/>
        </g>
        <g transform="matrix(6.15935,0,0,6.15935,838.591,1769.54)">
            <path d="M0.023,-0C0.018,-0 0.015,-0.001 0.012,-0.004C0.009,-0.007 0.008,-0.01 0.008,-0.015L0.008,-0.16C0.008,-0.166 0.01,-0.172 0.014,-0.178L0.135,-0.343C0.136,-0.345 0.137,-0.347 0.136,-0.348C0.135,-0.349 0.134,-0.35 0.131,-0.35L0.03,-0.35C0.025,-0.35 0.022,-0.351 0.019,-0.354C0.016,-0.357 0.015,-0.36 0.015,-0.365L0.015,-0.505C0.015,-0.51 0.016,-0.513 0.019,-0.516C0.022,-0.519 0.025,-0.52 0.03,-0.52L0.349,-0.52C0.354,-0.52 0.357,-0.519 0.36,-0.516C0.363,-0.513 0.364,-0.51 0.364,-0.505L0.364,-0.36C0.364,-0.354 0.362,-0.348 0.358,-0.342L0.228,-0.177C0.227,-0.175 0.226,-0.173 0.227,-0.172C0.227,-0.171 0.228,-0.17 0.231,-0.17L0.358,-0.17C0.363,-0.17 0.366,-0.169 0.369,-0.166C0.372,-0.163 0.373,-0.16 0.373,-0.155L0.373,-0.015C0.373,-0.01 0.372,-0.007 0.369,-0.004C0.366,-0.001 0.363,-0 0.358,-0L0.023,-0Z" style="fill-rule:nonzero;"/>
        </g>
        <g transform="matrix(6.15935,0,0,6.15935,840.938,1769.54)">
            <path d="M0.039,0.111C0.029,0.111 0.024,0.106 0.025,0.096L0.04,-0.145C0.041,-0.15 0.042,-0.153 0.045,-0.156C0.048,-0.159 0.051,-0.16 0.056,-0.16L0.192,-0.16C0.203,-0.16 0.207,-0.154 0.205,-0.143L0.149,0.098C0.147,0.107 0.142,0.111 0.133,0.111L0.039,0.111Z" style="fill-rule:nonzero;"/>
        </g>
        <g transform="matrix(6.15935,0,0,6.15935,843.605,1769.54)">
            <path d="M0.239,0.008C0.173,0.008 0.12,-0.011 0.08,-0.048C0.04,-0.085 0.02,-0.134 0.02,-0.196L0.02,-0.505C0.02,-0.567 0.04,-0.616 0.08,-0.653C0.12,-0.69 0.173,-0.708 0.239,-0.708C0.282,-0.708 0.321,-0.7 0.354,-0.683C0.387,-0.666 0.412,-0.643 0.431,-0.612C0.449,-0.581 0.458,-0.544 0.458,-0.503L0.458,-0.47C0.458,-0.465 0.457,-0.462 0.454,-0.459C0.451,-0.456 0.448,-0.455 0.443,-0.455L0.285,-0.455C0.28,-0.455 0.277,-0.456 0.274,-0.459C0.271,-0.462 0.27,-0.465 0.27,-0.47L0.27,-0.505C0.27,-0.518 0.267,-0.528 0.262,-0.536C0.256,-0.543 0.248,-0.547 0.239,-0.547C0.23,-0.547 0.222,-0.543 0.217,-0.536C0.211,-0.528 0.208,-0.518 0.208,-0.505L0.208,-0.195C0.208,-0.182 0.211,-0.172 0.217,-0.165C0.222,-0.157 0.23,-0.153 0.239,-0.153C0.248,-0.153 0.256,-0.157 0.262,-0.165C0.267,-0.172 0.27,-0.182 0.27,-0.195L0.27,-0.244C0.27,-0.248 0.268,-0.25 0.264,-0.25L0.256,-0.25C0.251,-0.25 0.248,-0.251 0.245,-0.254C0.242,-0.257 0.241,-0.26 0.241,-0.265L0.241,-0.38C0.241,-0.385 0.242,-0.388 0.245,-0.391C0.248,-0.394 0.251,-0.395 0.256,-0.395L0.443,-0.395C0.448,-0.395 0.451,-0.394 0.454,-0.391C0.457,-0.388 0.458,-0.385 0.458,-0.38L0.458,-0.196C0.458,-0.155 0.449,-0.12 0.431,-0.089C0.412,-0.057 0.387,-0.034 0.354,-0.017C0.321,-0 0.282,0.008 0.239,0.008Z" style="fill-rule:nonzero;"/>
        </g>
        <g transform="matrix(6.15935,0,0,6.15935,846.549,1769.54)">
            <path d="M0.439,-0.228C0.439,-0.223 0.438,-0.22 0.435,-0.217C0.432,-0.214 0.429,-0.213 0.424,-0.213L0.212,-0.213C0.208,-0.213 0.206,-0.211 0.206,-0.207L0.206,-0.185C0.206,-0.176 0.208,-0.168 0.213,-0.162C0.217,-0.156 0.222,-0.153 0.229,-0.153C0.236,-0.153 0.241,-0.155 0.245,-0.16C0.248,-0.165 0.251,-0.171 0.252,-0.178C0.255,-0.187 0.261,-0.192 0.269,-0.191L0.422,-0.181C0.432,-0.18 0.437,-0.174 0.436,-0.165C0.433,-0.106 0.414,-0.063 0.381,-0.035C0.347,-0.006 0.296,0.008 0.229,0.008C0.162,0.008 0.111,-0.008 0.074,-0.039C0.037,-0.07 0.018,-0.113 0.018,-0.17L0.018,-0.35C0.018,-0.404 0.037,-0.447 0.074,-0.48C0.111,-0.512 0.163,-0.528 0.229,-0.528C0.295,-0.528 0.347,-0.512 0.384,-0.48C0.421,-0.447 0.439,-0.404 0.439,-0.35L0.439,-0.228ZM0.229,-0.367C0.222,-0.367 0.217,-0.364 0.213,-0.358C0.208,-0.352 0.206,-0.344 0.206,-0.335L0.206,-0.311C0.206,-0.307 0.208,-0.305 0.212,-0.305L0.245,-0.305C0.249,-0.305 0.251,-0.307 0.251,-0.311L0.251,-0.335C0.251,-0.344 0.249,-0.352 0.245,-0.358C0.241,-0.364 0.236,-0.367 0.229,-0.367Z" style="fill-rule:nonzero;"/>
        </g>
        <g transform="matrix(6.15935,0,0,6.15935,849.351,1769.54)">
            <path d="M0.293,-0.527C0.309,-0.527 0.323,-0.524 0.334,-0.517C0.34,-0.514 0.342,-0.507 0.341,-0.498L0.316,-0.341C0.315,-0.336 0.314,-0.332 0.311,-0.331C0.308,-0.33 0.304,-0.33 0.299,-0.331C0.292,-0.333 0.285,-0.334 0.276,-0.334C0.262,-0.334 0.25,-0.332 0.241,-0.327C0.232,-0.322 0.224,-0.315 0.219,-0.305C0.213,-0.294 0.21,-0.284 0.21,-0.273L0.21,-0.016C0.21,-0.011 0.209,-0.008 0.206,-0.005C0.203,-0.002 0.2,-0.001 0.195,-0.001L0.037,-0.001C0.032,-0.001 0.029,-0.002 0.026,-0.005C0.023,-0.008 0.022,-0.011 0.022,-0.016L0.022,-0.505C0.022,-0.51 0.023,-0.513 0.026,-0.516C0.029,-0.519 0.032,-0.52 0.037,-0.52L0.195,-0.52C0.2,-0.52 0.203,-0.519 0.206,-0.516C0.209,-0.513 0.21,-0.51 0.21,-0.505L0.21,-0.484C0.21,-0.481 0.211,-0.48 0.212,-0.479C0.213,-0.478 0.215,-0.479 0.216,-0.482C0.233,-0.512 0.258,-0.527 0.293,-0.527Z" style="fill-rule:nonzero;"/>
        </g>
        <g transform="matrix(6.15935,0,0,6.15935,851.482,1769.54)">
            <path d="M0.532,-0.528C0.627,-0.528 0.674,-0.468 0.674,-0.348L0.674,-0.015C0.674,-0.01 0.673,-0.007 0.67,-0.004C0.667,-0.001 0.664,-0 0.659,-0L0.501,-0C0.496,-0 0.493,-0.001 0.49,-0.004C0.487,-0.007 0.486,-0.01 0.486,-0.015L0.486,-0.335C0.486,-0.356 0.479,-0.367 0.465,-0.367C0.45,-0.367 0.442,-0.356 0.442,-0.335L0.442,-0.015C0.442,-0.01 0.441,-0.007 0.438,-0.004C0.435,-0.001 0.432,-0 0.427,-0L0.269,-0C0.264,-0 0.261,-0.001 0.258,-0.004C0.255,-0.007 0.254,-0.01 0.254,-0.015L0.254,-0.335C0.254,-0.356 0.247,-0.367 0.233,-0.367C0.218,-0.367 0.21,-0.356 0.21,-0.335L0.21,-0.015C0.21,-0.01 0.209,-0.007 0.206,-0.004C0.203,-0.001 0.2,-0 0.195,-0L0.037,-0C0.032,-0 0.029,-0.001 0.026,-0.004C0.023,-0.007 0.022,-0.01 0.022,-0.015L0.022,-0.505C0.022,-0.51 0.023,-0.513 0.026,-0.516C0.029,-0.519 0.032,-0.52 0.037,-0.52L0.195,-0.52C0.205,-0.52 0.21,-0.515 0.21,-0.506L0.21,-0.502C0.21,-0.499 0.211,-0.498 0.212,-0.497C0.213,-0.496 0.215,-0.497 0.217,-0.499C0.239,-0.518 0.267,-0.528 0.3,-0.528C0.353,-0.528 0.391,-0.509 0.414,-0.471C0.415,-0.47 0.416,-0.469 0.417,-0.469C0.42,-0.469 0.423,-0.472 0.427,-0.478C0.452,-0.511 0.487,-0.528 0.532,-0.528Z" style="fill-rule:nonzero;"/>
        </g>
        <g transform="matrix(6.15935,0,0,6.15935,855.757,1769.54)">
            <path d="M0.232,-0.528C0.275,-0.528 0.313,-0.521 0.346,-0.507C0.379,-0.493 0.404,-0.473 0.422,-0.448C0.44,-0.423 0.449,-0.393 0.449,-0.36L0.449,-0.015C0.449,-0.01 0.448,-0.007 0.445,-0.004C0.442,-0.001 0.439,-0 0.434,-0L0.276,-0C0.271,-0 0.268,-0.001 0.265,-0.004C0.262,-0.007 0.261,-0.01 0.261,-0.015L0.261,-0.036C0.261,-0.039 0.26,-0.04 0.259,-0.041C0.258,-0.041 0.256,-0.04 0.254,-0.038C0.231,-0.007 0.196,0.008 0.148,0.008C0.057,0.008 0.012,-0.045 0.012,-0.151C0.012,-0.198 0.02,-0.232 0.037,-0.255C0.054,-0.278 0.076,-0.292 0.105,-0.299C0.134,-0.306 0.172,-0.309 0.221,-0.309L0.255,-0.309C0.259,-0.309 0.261,-0.311 0.261,-0.315L0.261,-0.337C0.261,-0.346 0.258,-0.353 0.253,-0.359C0.248,-0.364 0.241,-0.367 0.232,-0.367C0.221,-0.367 0.213,-0.361 0.208,-0.349C0.205,-0.34 0.199,-0.335 0.192,-0.335L0.032,-0.337C0.022,-0.337 0.017,-0.342 0.017,-0.351C0.02,-0.406 0.042,-0.45 0.081,-0.481C0.12,-0.512 0.17,-0.528 0.232,-0.528ZM0.229,-0.127C0.237,-0.127 0.244,-0.13 0.251,-0.135C0.258,-0.14 0.261,-0.146 0.261,-0.154L0.261,-0.181C0.261,-0.185 0.259,-0.187 0.255,-0.187L0.235,-0.187C0.226,-0.187 0.218,-0.184 0.213,-0.178C0.207,-0.171 0.204,-0.164 0.204,-0.155C0.204,-0.146 0.207,-0.14 0.212,-0.135C0.217,-0.13 0.222,-0.127 0.229,-0.127Z" style="fill-rule:nonzero;"/>
        </g>
        <g transform="matrix(6.15935,0,0,6.15935,858.633,1769.54)">
            <path d="M0.3,-0.528C0.395,-0.528 0.442,-0.468 0.442,-0.348L0.442,-0.015C0.442,-0.01 0.441,-0.007 0.438,-0.004C0.435,-0.001 0.432,-0 0.427,-0L0.269,-0C0.264,-0 0.261,-0.001 0.258,-0.004C0.255,-0.007 0.254,-0.01 0.254,-0.015L0.254,-0.335C0.254,-0.356 0.247,-0.367 0.233,-0.367C0.218,-0.367 0.21,-0.356 0.21,-0.335L0.21,-0.015C0.21,-0.01 0.209,-0.007 0.206,-0.004C0.203,-0.001 0.2,-0 0.195,-0L0.037,-0C0.032,-0 0.029,-0.001 0.026,-0.004C0.023,-0.007 0.022,-0.01 0.022,-0.015L0.022,-0.505C0.022,-0.51 0.023,-0.513 0.026,-0.516C0.029,-0.519 0.032,-0.52 0.037,-0.52L0.195,-0.52C0.2,-0.52 0.203,-0.519 0.206,-0.516C0.209,-0.513 0.21,-0.51 0.21,-0.505L0.21,-0.49C0.21,-0.489 0.211,-0.488 0.212,-0.488C0.215,-0.488 0.219,-0.491 0.224,-0.497C0.243,-0.518 0.269,-0.528 0.3,-0.528Z" style="fill-rule:nonzero;"/>
        </g>
        <g transform="matrix(6.15935,0,0,6.15935,861.417,1769.54)">
            <path d="M0.034,0.199C0.03,0.199 0.028,0.194 0.028,0.184L0.028,0.06C0.028,0.05 0.031,0.045 0.037,0.045C0.072,0.045 0.097,0.043 0.113,0.039C0.128,0.034 0.136,0.025 0.136,0.01C0.136,0.006 0.136,0.003 0.135,-0L0.01,-0.503L0.01,-0.507C0.01,-0.516 0.014,-0.52 0.023,-0.52L0.193,-0.52C0.202,-0.52 0.207,-0.515 0.208,-0.506L0.227,-0.288C0.228,-0.289 0.229,-0.289 0.23,-0.289C0.231,-0.289 0.232,-0.289 0.233,-0.288L0.25,-0.506C0.251,-0.515 0.256,-0.52 0.265,-0.52L0.436,-0.518C0.441,-0.518 0.444,-0.517 0.447,-0.514C0.45,-0.51 0.45,-0.506 0.449,-0.501L0.323,0.002C0.308,0.053 0.292,0.092 0.275,0.119C0.258,0.146 0.231,0.166 0.195,0.179C0.159,0.192 0.107,0.199 0.04,0.199L0.034,0.199Z" style="fill-rule:nonzero;"/>
        </g>
    </g>
    <g transform="matrix(9.02091,0,0,9.02091,-7455.93,-15917.1)">
        <g transform="matrix(5.90271,0,0,5.90271,827.991,1769.54)">
            <path d="M0.225,0.008C0.182,0.008 0.145,-0 0.112,-0.017C0.079,-0.034 0.053,-0.057 0.035,-0.088C0.017,-0.118 0.008,-0.153 0.008,-0.192L0.008,-0.25C0.008,-0.255 0.009,-0.258 0.012,-0.261C0.015,-0.264 0.018,-0.265 0.023,-0.265L0.181,-0.265C0.186,-0.265 0.189,-0.264 0.192,-0.261C0.195,-0.258 0.196,-0.255 0.196,-0.25L0.196,-0.19C0.196,-0.179 0.199,-0.171 0.204,-0.164C0.209,-0.157 0.216,-0.153 0.225,-0.153C0.234,-0.153 0.242,-0.157 0.248,-0.164C0.253,-0.171 0.256,-0.179 0.256,-0.19L0.256,-0.685C0.256,-0.69 0.257,-0.693 0.26,-0.696C0.263,-0.699 0.266,-0.7 0.271,-0.7L0.429,-0.7C0.434,-0.7 0.437,-0.699 0.44,-0.696C0.443,-0.693 0.444,-0.69 0.444,-0.685L0.444,-0.192C0.444,-0.153 0.435,-0.118 0.417,-0.088C0.398,-0.057 0.373,-0.034 0.34,-0.017C0.307,-0 0.268,0.008 0.225,0.008Z" style="fill-rule:nonzero;"/>
        </g>
        <g transform="matrix(5.90271,0,0,5.90271,830.765,1769.54)">
            <path d="M0.231,0.008C0.163,0.008 0.111,-0.008 0.074,-0.039C0.037,-0.07 0.018,-0.113 0.018,-0.17L0.018,-0.35C0.018,-0.404 0.037,-0.447 0.075,-0.48C0.112,-0.512 0.164,-0.528 0.231,-0.528C0.298,-0.528 0.35,-0.512 0.387,-0.48C0.424,-0.447 0.443,-0.404 0.443,-0.35L0.443,-0.17C0.443,-0.113 0.425,-0.07 0.388,-0.039C0.351,-0.008 0.299,0.008 0.231,0.008ZM0.231,-0.153C0.238,-0.153 0.244,-0.156 0.249,-0.162C0.253,-0.168 0.255,-0.176 0.255,-0.185L0.255,-0.335C0.255,-0.344 0.253,-0.352 0.249,-0.358C0.244,-0.364 0.238,-0.367 0.231,-0.367C0.224,-0.367 0.218,-0.364 0.213,-0.358C0.208,-0.352 0.206,-0.344 0.206,-0.335L0.206,-0.185C0.206,-0.176 0.208,-0.168 0.213,-0.162C0.218,-0.156 0.224,-0.153 0.231,-0.153Z" style="fill-rule:nonzero;"/>
        </g>
        <g transform="matrix(5.90271,0,0,5.90271,833.486,1769.54)">
            <path d="M0.3,-0.528C0.395,-0.528 0.442,-0.468 0.442,-0.348L0.442,-0.015C0.442,-0.01 0.441,-0.007 0.438,-0.004C0.435,-0.001 0.432,-0 0.427,-0L0.269,-0C0.264,-0 0.261,-0.001 0.258,-0.004C0.255,-0.007 0.254,-0.01 0.254,-0.015L0.254,-0.335C0.254,-0.356 0.247,-0.367 0.233,-0.367C0.218,-0.367 0.21,-0.356 0.21,-0.335L0.21,-0.015C0.21,-0.01 0.209,-0.007 0.206,-0.004C0.203,-0.001 0.2,-0 0.195,-0L0.037,-0C0.032,-0 0.029,-0.001 0.026,-0.004C0.023,-0.007 0.022,-0.01 0.022,-0.015L0.022,-0.685C0.022,-0.69 0.023,-0.693 0.026,-0.696C0.029,-0.699 0.032,-0.7 0.037,-0.7L0.195,-0.7C0.2,-0.7 0.203,-0.699 0.206,-0.696C0.209,-0.693 0.21,-0.69 0.21,-0.685L0.21,-0.49C0.21,-0.489 0.211,-0.488 0.212,-0.488C0.215,-0.488 0.219,-0.491 0.224,-0.497C0.243,-0.518 0.269,-0.528 0.3,-0.528Z" style="fill-rule:nonzero;"/>
        </g>
        <g transform="matrix(5.90271,0,0,5.90271,836.213,1769.54)">
            <path d="M0.232,-0.528C0.275,-0.528 0.313,-0.521 0.346,-0.507C0.379,-0.493 0.404,-0.473 0.422,-0.448C0.44,-0.423 0.449,-0.393 0.449,-0.36L0.449,-0.015C0.449,-0.01 0.448,-0.007 0.445,-0.004C0.442,-0.001 0.439,-0 0.434,-0L0.276,-0C0.271,-0 0.268,-0.001 0.265,-0.004C0.262,-0.007 0.261,-0.01 0.261,-0.015L0.261,-0.036C0.261,-0.039 0.26,-0.04 0.259,-0.041C0.258,-0.041 0.256,-0.04 0.254,-0.038C0.231,-0.007 0.196,0.008 0.148,0.008C0.057,0.008 0.012,-0.045 0.012,-0.151C0.012,-0.198 0.02,-0.232 0.037,-0.255C0.054,-0.278 0.076,-0.292 0.105,-0.299C0.134,-0.306 0.172,-0.309 0.221,-0.309L0.255,-0.309C0.259,-0.309 0.261,-0.311 0.261,-0.315L0.261,-0.337C0.261,-0.346 0.258,-0.353 0.253,-0.359C0.248,-0.364 0.241,-0.367 0.232,-0.367C0.221,-0.367 0.213,-0.361 0.208,-0.349C0.205,-0.34 0.199,-0.335 0.192,-0.335L0.032,-0.337C0.022,-0.337 0.017,-0.342 0.017,-0.351C0.02,-0.406 0.042,-0.45 0.081,-0.481C0.12,-0.512 0.17,-0.528 0.232,-0.528ZM0.229,-0.127C0.237,-0.127 0.244,-0.13 0.251,-0.135C0.258,-0.14 0.261,-0.146 0.261,-0.154L0.261,-0.181C0.261,-0.185 0.259,-0.187 0.255,-0.187L0.235,-0.187C0.226,-0.187 0.218,-0.184 0.213,-0.178C0.207,-0.171 0.204,-0.164 0.204,-0.155C0.204,-0.146 0.207,-0.14 0.212,-0.135C0.217,-0.13 0.222,-0.127 0.229,-0.127Z" style="fill-rule:nonzero;"/>
        </g>
        <g transform="matrix(5.90271,0,0,5.90271,838.97,1769.54)">
            <path d="M0.3,-0.528C0.395,-0.528 0.442,-0.468 0.442,-0.348L0.442,-0.015C0.442,-0.01 0.441,-0.007 0.438,-0.004C0.435,-0.001 0.432,-0 0.427,-0L0.269,-0C0.264,-0 0.261,-0.001 0.258,-0.004C0.255,-0.007 0.254,-0.01 0.254,-0.015L0.254,-0.335C0.254,-0.356 0.247,-0.367 0.233,-0.367C0.218,-0.367 0.21,-0.356 0.21,-0.335L0.21,-0.015C0.21,-0.01 0.209,-0.007 0.206,-0.004C0.203,-0.001 0.2,-0 0.195,-0L0.037,-0C0.032,-0 0.029,-0.001 0.026,-0.004C0.023,-0.007 0.022,-0.01 0.022,-0.015L0.022,-0.505C0.022,-0.51 0.023,-0.513 0.026,-0.516C0.029,-0.519 0.032,-0.52 0.037,-0.52L0.195,-0.52C0.2,-0.52 0.203,-0.519 0.206,-0.516C0.209,-0.513 0.21,-0.51 0.21,-0.505L0.21,-0.49C0.21,-0.489 0.211,-0.488 0.212,-0.488C0.215,-0.488 0.219,-0.491 0.224,-0.497C0.243,-0.518 0.269,-0.528 0.3,-0.528Z" style="fill-rule:nonzero;"/>
        </g>
        <g transform="matrix(5.90271,0,0,5.90271,841.697,1769.54)">
            <path d="M0.3,-0.528C0.395,-0.528 0.442,-0.468 0.442,-0.348L0.442,-0.015C0.442,-0.01 0.441,-0.007 0.438,-0.004C0.435,-0.001 0.432,-0 0.427,-0L0.269,-0C0.264,-0 0.261,-0.001 0.258,-0.004C0.255,-0.007 0.254,-0.01 0.254,-0.015L0.254,-0.335C0.254,-0.356 0.247,-0.367 0.233,-0.367C0.218,-0.367 0.21,-0.356 0.21,-0.335L0.21,-0.015C0.21,-0.01 0.209,-0.007 0.206,-0.004C0.203,-0.001 0.2,-0 0.195,-0L0.037,-0C0.032,-0 0.029,-0.001 0.026,-0.004C0.023,-0.007 0.022,-0.01 0.022,-0.015L0.022,-0.505C0.022,-0.51 0.023,-0.513 0.026,-0.516C0.029,-0.519 0.032,-0.52 0.037,-0.52L0.195,-0.52C0.2,-0.52 0.203,-0.519 0.206,-0.516C0.209,-0.513 0.21,-0.51 0.21,-0.505L0.21,-0.49C0.21,-0.489 0.211,-0.488 0.212,-0.488C0.215,-0.488 0.219,-0.491 0.224,-0.497C0.243,-0.518 0.269,-0.528 0.3,-0.528Z" style="fill-rule:nonzero;"/>
        </g>
        <g transform="matrix(5.90271,0,0,5.90271,844.424,1769.54)">
            <path d="M0.439,-0.228C0.439,-0.223 0.438,-0.22 0.435,-0.217C0.432,-0.214 0.429,-0.213 0.424,-0.213L0.212,-0.213C0.208,-0.213 0.206,-0.211 0.206,-0.207L0.206,-0.185C0.206,-0.176 0.208,-0.168 0.213,-0.162C0.217,-0.156 0.222,-0.153 0.229,-0.153C0.236,-0.153 0.241,-0.155 0.245,-0.16C0.248,-0.165 0.251,-0.171 0.252,-0.178C0.255,-0.187 0.261,-0.192 0.269,-0.191L0.422,-0.181C0.432,-0.18 0.437,-0.174 0.436,-0.165C0.433,-0.106 0.414,-0.063 0.381,-0.035C0.347,-0.006 0.296,0.008 0.229,0.008C0.162,0.008 0.111,-0.008 0.074,-0.039C0.037,-0.07 0.018,-0.113 0.018,-0.17L0.018,-0.35C0.018,-0.404 0.037,-0.447 0.074,-0.48C0.111,-0.512 0.163,-0.528 0.229,-0.528C0.295,-0.528 0.347,-0.512 0.384,-0.48C0.421,-0.447 0.439,-0.404 0.439,-0.35L0.439,-0.228ZM0.229,-0.367C0.222,-0.367 0.217,-0.364 0.213,-0.358C0.208,-0.352 0.206,-0.344 0.206,-0.335L0.206,-0.311C0.206,-0.307 0.208,-0.305 0.212,-0.305L0.245,-0.305C0.249,-0.305 0.251,-0.307 0.251,-0.311L0.251,-0.335C0.251,-0.344 0.249,-0.352 0.245,-0.358C0.241,-0.364 0.236,-0.367 0.229,-0.367Z" style="fill-rule:nonzero;"/>
        </g>
        <g transform="matrix(5.90271,0,0,5.90271,847.11,1769.54)">
            <path d="M0.223,0.008C0.159,0.008 0.108,-0.007 0.07,-0.037C0.031,-0.067 0.012,-0.107 0.012,-0.156L0.012,-0.159C0.012,-0.164 0.013,-0.167 0.016,-0.17C0.019,-0.173 0.022,-0.174 0.027,-0.174L0.177,-0.174C0.182,-0.174 0.185,-0.173 0.188,-0.171C0.191,-0.168 0.192,-0.165 0.192,-0.161C0.192,-0.151 0.195,-0.143 0.201,-0.138C0.207,-0.133 0.214,-0.13 0.221,-0.13C0.227,-0.13 0.232,-0.132 0.235,-0.136C0.238,-0.139 0.24,-0.144 0.24,-0.149C0.24,-0.159 0.235,-0.167 0.225,-0.172C0.215,-0.177 0.198,-0.182 0.175,-0.189C0.167,-0.191 0.158,-0.194 0.147,-0.197C0.112,-0.208 0.082,-0.227 0.057,-0.253C0.032,-0.278 0.019,-0.313 0.019,-0.358C0.019,-0.41 0.037,-0.451 0.073,-0.482C0.109,-0.513 0.156,-0.528 0.215,-0.528C0.276,-0.528 0.325,-0.511 0.362,-0.478C0.399,-0.445 0.417,-0.401 0.417,-0.346C0.417,-0.343 0.416,-0.341 0.413,-0.339C0.41,-0.337 0.407,-0.336 0.402,-0.336L0.257,-0.336C0.252,-0.336 0.249,-0.337 0.246,-0.34C0.243,-0.343 0.242,-0.346 0.242,-0.351L0.242,-0.357C0.242,-0.365 0.24,-0.371 0.236,-0.376C0.231,-0.381 0.226,-0.383 0.22,-0.383C0.213,-0.383 0.208,-0.38 0.205,-0.375C0.201,-0.37 0.199,-0.364 0.199,-0.357C0.199,-0.344 0.206,-0.333 0.219,-0.326C0.232,-0.319 0.248,-0.312 0.269,-0.306C0.317,-0.292 0.356,-0.274 0.385,-0.252C0.414,-0.23 0.429,-0.196 0.429,-0.151C0.429,-0.102 0.41,-0.063 0.373,-0.035C0.335,-0.006 0.285,0.008 0.223,0.008Z" style="fill-rule:nonzero;"/>
        </g>
        <g transform="matrix(5.90271,0,0,5.90271,850.875,1769.54)">
            <path d="M0.239,0.008C0.173,0.008 0.12,-0.011 0.08,-0.048C0.04,-0.085 0.02,-0.134 0.02,-0.196L0.02,-0.505C0.02,-0.567 0.04,-0.616 0.08,-0.653C0.12,-0.69 0.173,-0.708 0.239,-0.708C0.282,-0.708 0.321,-0.7 0.354,-0.683C0.387,-0.666 0.412,-0.643 0.431,-0.612C0.449,-0.581 0.458,-0.544 0.458,-0.503L0.458,-0.47C0.458,-0.465 0.457,-0.462 0.454,-0.459C0.451,-0.456 0.448,-0.455 0.443,-0.455L0.285,-0.455C0.28,-0.455 0.277,-0.456 0.274,-0.459C0.271,-0.462 0.27,-0.465 0.27,-0.47L0.27,-0.505C0.27,-0.518 0.267,-0.528 0.262,-0.536C0.256,-0.543 0.248,-0.547 0.239,-0.547C0.23,-0.547 0.222,-0.543 0.217,-0.536C0.211,-0.528 0.208,-0.518 0.208,-0.505L0.208,-0.195C0.208,-0.182 0.211,-0.172 0.217,-0.165C0.222,-0.157 0.23,-0.153 0.239,-0.153C0.248,-0.153 0.256,-0.157 0.262,-0.165C0.267,-0.172 0.27,-0.182 0.27,-0.195L0.27,-0.244C0.27,-0.248 0.268,-0.25 0.264,-0.25L0.256,-0.25C0.251,-0.25 0.248,-0.251 0.245,-0.254C0.242,-0.257 0.241,-0.26 0.241,-0.265L0.241,-0.38C0.241,-0.385 0.242,-0.388 0.245,-0.391C0.248,-0.394 0.251,-0.395 0.256,-0.395L0.443,-0.395C0.448,-0.395 0.451,-0.394 0.454,-0.391C0.457,-0.388 0.458,-0.385 0.458,-0.38L0.458,-0.196C0.458,-0.155 0.449,-0.12 0.431,-0.089C0.412,-0.057 0.387,-0.034 0.354,-0.017C0.321,-0 0.282,0.008 0.239,0.008Z" style="fill-rule:nonzero;"/>
        </g>
        <g transform="matrix(5.90271,0,0,5.90271,853.697,1769.54)">
            <path d="M0.252,-0.505C0.252,-0.51 0.253,-0.513 0.256,-0.516C0.259,-0.519 0.262,-0.52 0.267,-0.52L0.425,-0.52C0.43,-0.52 0.433,-0.519 0.436,-0.516C0.439,-0.513 0.44,-0.51 0.44,-0.505L0.44,-0.015C0.44,-0.01 0.439,-0.007 0.436,-0.004C0.433,-0.001 0.43,-0 0.425,-0L0.267,-0C0.262,-0 0.259,-0.001 0.256,-0.004C0.253,-0.007 0.252,-0.01 0.252,-0.015L0.252,-0.019C0.252,-0.022 0.251,-0.023 0.25,-0.024C0.249,-0.025 0.247,-0.024 0.245,-0.022C0.235,-0.01 0.223,-0.002 0.21,0.002C0.196,0.006 0.18,0.008 0.162,0.008C0.122,0.008 0.088,-0.004 0.061,-0.029C0.034,-0.054 0.02,-0.092 0.02,-0.144L0.02,-0.505C0.02,-0.51 0.021,-0.513 0.024,-0.516C0.027,-0.519 0.03,-0.52 0.035,-0.52L0.193,-0.52C0.198,-0.52 0.201,-0.519 0.204,-0.516C0.207,-0.513 0.208,-0.51 0.208,-0.505L0.208,-0.185C0.208,-0.164 0.215,-0.153 0.229,-0.153C0.244,-0.153 0.252,-0.164 0.252,-0.185L0.252,-0.505Z" style="fill-rule:nonzero;"/>
        </g>
        <g transform="matrix(5.90271,0,0,5.90271,856.424,1769.54)">
            <path d="M0.295,-0.405C0.295,-0.4 0.294,-0.397 0.291,-0.394C0.288,-0.391 0.285,-0.39 0.28,-0.39L0.238,-0.39C0.234,-0.39 0.232,-0.388 0.232,-0.384L0.232,-0.192C0.232,-0.18 0.235,-0.172 0.24,-0.168C0.245,-0.163 0.253,-0.161 0.263,-0.162L0.265,-0.162C0.27,-0.162 0.273,-0.161 0.276,-0.158C0.279,-0.155 0.28,-0.152 0.28,-0.147L0.28,-0.015C0.28,-0.01 0.279,-0.007 0.276,-0.004C0.273,-0.001 0.27,-0 0.265,-0L0.217,-0C0.162,-0 0.12,-0.008 0.093,-0.024C0.066,-0.039 0.052,-0.07 0.052,-0.116L0.052,-0.384C0.052,-0.388 0.05,-0.39 0.046,-0.39L0.019,-0.39C0.014,-0.39 0.011,-0.391 0.008,-0.394C0.005,-0.397 0.004,-0.4 0.004,-0.405L0.004,-0.505C0.004,-0.51 0.005,-0.513 0.008,-0.516C0.011,-0.519 0.014,-0.52 0.019,-0.52L0.046,-0.52C0.05,-0.52 0.052,-0.522 0.052,-0.526L0.052,-0.633C0.052,-0.638 0.053,-0.641 0.056,-0.644C0.059,-0.647 0.062,-0.648 0.067,-0.648L0.217,-0.648C0.222,-0.648 0.225,-0.647 0.228,-0.644C0.231,-0.641 0.232,-0.638 0.232,-0.633L0.232,-0.526C0.232,-0.522 0.234,-0.52 0.238,-0.52L0.28,-0.52C0.285,-0.52 0.288,-0.519 0.291,-0.516C0.294,-0.513 0.295,-0.51 0.295,-0.505L0.295,-0.405Z" style="fill-rule:nonzero;"/>
        </g>
        <g transform="matrix(5.90271,0,0,5.90271,858.236,1769.54)">
            <path d="M0.439,-0.228C0.439,-0.223 0.438,-0.22 0.435,-0.217C0.432,-0.214 0.429,-0.213 0.424,-0.213L0.212,-0.213C0.208,-0.213 0.206,-0.211 0.206,-0.207L0.206,-0.185C0.206,-0.176 0.208,-0.168 0.213,-0.162C0.217,-0.156 0.222,-0.153 0.229,-0.153C0.236,-0.153 0.241,-0.155 0.245,-0.16C0.248,-0.165 0.251,-0.171 0.252,-0.178C0.255,-0.187 0.261,-0.192 0.269,-0.191L0.422,-0.181C0.432,-0.18 0.437,-0.174 0.436,-0.165C0.433,-0.106 0.414,-0.063 0.381,-0.035C0.347,-0.006 0.296,0.008 0.229,0.008C0.162,0.008 0.111,-0.008 0.074,-0.039C0.037,-0.07 0.018,-0.113 0.018,-0.17L0.018,-0.35C0.018,-0.404 0.037,-0.447 0.074,-0.48C0.111,-0.512 0.163,-0.528 0.229,-0.528C0.295,-0.528 0.347,-0.512 0.384,-0.48C0.421,-0.447 0.439,-0.404 0.439,-0.35L0.439,-0.228ZM0.229,-0.367C0.222,-0.367 0.217,-0.364 0.213,-0.358C0.208,-0.352 0.206,-0.344 0.206,-0.335L0.206,-0.311C0.206,-0.307 0.208,-0.305 0.212,-0.305L0.245,-0.305C0.249,-0.305 0.251,-0.307 0.251,-0.311L0.251,-0.335C0.251,-0.344 0.249,-0.352 0.245,-0.358C0.241,-0.364 0.236,-0.367 0.229,-0.367Z" style="fill-rule:nonzero;"/>
        </g>
        <g transform="matrix(5.90271,0,0,5.90271,860.922,1769.54)">
            <path d="M0.3,-0.528C0.395,-0.528 0.442,-0.468 0.442,-0.348L0.442,-0.015C0.442,-0.01 0.441,-0.007 0.438,-0.004C0.435,-0.001 0.432,-0 0.427,-0L0.269,-0C0.264,-0 0.261,-0.001 0.258,-0.004C0.255,-0.007 0.254,-0.01 0.254,-0.015L0.254,-0.335C0.254,-0.356 0.247,-0.367 0.233,-0.367C0.218,-0.367 0.21,-0.356 0.21,-0.335L0.21,-0.015C0.21,-0.01 0.209,-0.007 0.206,-0.004C0.203,-0.001 0.2,-0 0.195,-0L0.037,-0C0.032,-0 0.029,-0.001 0.026,-0.004C0.023,-0.007 0.022,-0.01 0.022,-0.015L0.022,-0.505C0.022,-0.51 0.023,-0.513 0.026,-0.516C0.029,-0.519 0.032,-0.52 0.037,-0.52L0.195,-0.52C0.2,-0.52 0.203,-0.519 0.206,-0.516C0.209,-0.513 0.21,-0.51 0.21,-0.505L0.21,-0.49C0.21,-0.489 0.211,-0.488 0.212,-0.488C0.215,-0.488 0.219,-0.491 0.224,-0.497C0.243,-0.518 0.269,-0.528 0.3,-0.528Z" style="fill-rule:nonzero;"/>
        </g>
        <g transform="matrix(5.90271,0,0,5.90271,863.649,1769.54)">
            <path d="M0.305,-0.528C0.352,-0.528 0.387,-0.513 0.409,-0.484C0.431,-0.454 0.442,-0.409 0.442,-0.35L0.442,-0.17C0.442,-0.113 0.431,-0.069 0.41,-0.038C0.388,-0.007 0.353,0.008 0.305,0.008C0.266,0.008 0.237,-0.007 0.217,-0.036C0.216,-0.039 0.214,-0.04 0.213,-0.04C0.211,-0.039 0.21,-0.038 0.21,-0.035L0.21,-0.015C0.21,-0.01 0.209,-0.007 0.206,-0.004C0.203,-0.001 0.2,-0 0.195,-0L0.037,-0C0.032,-0 0.029,-0.001 0.026,-0.004C0.023,-0.007 0.022,-0.01 0.022,-0.015L0.022,-0.685C0.022,-0.69 0.023,-0.693 0.026,-0.696C0.029,-0.699 0.032,-0.7 0.037,-0.7L0.195,-0.7C0.2,-0.7 0.203,-0.699 0.206,-0.696C0.209,-0.693 0.21,-0.69 0.21,-0.685L0.21,-0.485C0.21,-0.484 0.211,-0.483 0.212,-0.483C0.215,-0.483 0.219,-0.486 0.224,-0.493C0.243,-0.516 0.27,-0.528 0.305,-0.528ZM0.254,-0.335C0.254,-0.344 0.252,-0.352 0.249,-0.358C0.245,-0.364 0.24,-0.367 0.233,-0.367C0.226,-0.367 0.221,-0.364 0.217,-0.358C0.212,-0.352 0.21,-0.344 0.21,-0.335L0.21,-0.185C0.21,-0.176 0.212,-0.168 0.217,-0.162C0.221,-0.156 0.226,-0.153 0.233,-0.153C0.24,-0.153 0.245,-0.156 0.249,-0.162C0.252,-0.168 0.254,-0.176 0.254,-0.185L0.254,-0.335Z" style="fill-rule:nonzero;"/>
        </g>
        <g transform="matrix(5.90271,0,0,5.90271,866.364,1769.54)">
            <path d="M0.439,-0.228C0.439,-0.223 0.438,-0.22 0.435,-0.217C0.432,-0.214 0.429,-0.213 0.424,-0.213L0.212,-0.213C0.208,-0.213 0.206,-0.211 0.206,-0.207L0.206,-0.185C0.206,-0.176 0.208,-0.168 0.213,-0.162C0.217,-0.156 0.222,-0.153 0.229,-0.153C0.236,-0.153 0.241,-0.155 0.245,-0.16C0.248,-0.165 0.251,-0.171 0.252,-0.178C0.255,-0.187 0.261,-0.192 0.269,-0.191L0.422,-0.181C0.432,-0.18 0.437,-0.174 0.436,-0.165C0.433,-0.106 0.414,-0.063 0.381,-0.035C0.347,-0.006 0.296,0.008 0.229,0.008C0.162,0.008 0.111,-0.008 0.074,-0.039C0.037,-0.07 0.018,-0.113 0.018,-0.17L0.018,-0.35C0.018,-0.404 0.037,-0.447 0.074,-0.48C0.111,-0.512 0.163,-0.528 0.229,-0.528C0.295,-0.528 0.347,-0.512 0.384,-0.48C0.421,-0.447 0.439,-0.404 0.439,-0.35L0.439,-0.228ZM0.229,-0.367C0.222,-0.367 0.217,-0.364 0.213,-0.358C0.208,-0.352 0.206,-0.344 0.206,-0.335L0.206,-0.311C0.206,-0.307 0.208,-0.305 0.212,-0.305L0.245,-0.305C0.249,-0.305 0.251,-0.307 0.251,-0.311L0.251,-0.335C0.251,-0.344 0.249,-0.352 0.245,-0.358C0.241,-0.364 0.236,-0.367 0.229,-0.367Z" style="fill-rule:nonzero;"/>
        </g>
        <g transform="matrix(5.90271,0,0,5.90271,869.05,1769.54)">
            <path d="M0.293,-0.527C0.309,-0.527 0.323,-0.524 0.334,-0.517C0.34,-0.514 0.342,-0.507 0.341,-0.498L0.316,-0.341C0.315,-0.336 0.314,-0.332 0.311,-0.331C0.308,-0.33 0.304,-0.33 0.299,-0.331C0.292,-0.333 0.285,-0.334 0.276,-0.334C0.262,-0.334 0.25,-0.332 0.241,-0.327C0.232,-0.322 0.224,-0.315 0.219,-0.305C0.213,-0.294 0.21,-0.284 0.21,-0.273L0.21,-0.016C0.21,-0.011 0.209,-0.008 0.206,-0.005C0.203,-0.002 0.2,-0.001 0.195,-0.001L0.037,-0.001C0.032,-0.001 0.029,-0.002 0.026,-0.005C0.023,-0.008 0.022,-0.011 0.022,-0.016L0.022,-0.505C0.022,-0.51 0.023,-0.513 0.026,-0.516C0.029,-0.519 0.032,-0.52 0.037,-0.52L0.195,-0.52C0.2,-0.52 0.203,-0.519 0.206,-0.516C0.209,-0.513 0.21,-0.51 0.21,-0.505L0.21,-0.484C0.21,-0.481 0.211,-0.48 0.212,-0.479C0.213,-0.478 0.215,-0.479 0.216,-0.482C0.233,-0.512 0.258,-0.527 0.293,-0.527Z" style="fill-rule:nonzero;"/>
        </g>
        <g transform="matrix(5.90271,0,0,5.90271,870.992,1769.54)">
            <path d="M0.25,-0.505C0.25,-0.51 0.251,-0.513 0.254,-0.516C0.257,-0.519 0.26,-0.52 0.265,-0.52L0.423,-0.52C0.428,-0.52 0.431,-0.519 0.434,-0.516C0.437,-0.513 0.438,-0.51 0.438,-0.505L0.438,-0.034C0.438,0.016 0.431,0.059 0.417,0.094C0.402,0.129 0.376,0.158 0.337,0.179C0.298,0.2 0.244,0.21 0.174,0.21C0.148,0.21 0.128,0.209 0.113,0.208C0.103,0.208 0.098,0.203 0.098,0.193L0.098,0.06C0.098,0.049 0.103,0.045 0.114,0.046L0.139,0.047C0.176,0.047 0.203,0.042 0.219,0.032C0.234,0.021 0.244,0.006 0.248,-0.014C0.248,-0.016 0.246,-0.018 0.242,-0.019C0.237,-0.02 0.234,-0.02 0.232,-0.019C0.213,-0.001 0.188,0.008 0.155,0.008C0.107,0.008 0.072,-0.007 0.051,-0.038C0.029,-0.069 0.018,-0.113 0.018,-0.17L0.018,-0.35C0.018,-0.409 0.029,-0.454 0.051,-0.484C0.073,-0.513 0.108,-0.528 0.155,-0.528C0.194,-0.528 0.223,-0.513 0.243,-0.484C0.244,-0.481 0.246,-0.48 0.248,-0.481C0.249,-0.481 0.25,-0.482 0.25,-0.485L0.25,-0.505ZM0.227,-0.153C0.234,-0.153 0.239,-0.156 0.244,-0.162C0.248,-0.168 0.25,-0.176 0.25,-0.185L0.25,-0.335C0.25,-0.344 0.248,-0.352 0.244,-0.358C0.239,-0.364 0.234,-0.367 0.227,-0.367C0.22,-0.367 0.215,-0.364 0.212,-0.358C0.208,-0.352 0.206,-0.344 0.206,-0.335L0.206,-0.185C0.206,-0.176 0.208,-0.168 0.212,-0.162C0.215,-0.156 0.22,-0.153 0.227,-0.153Z" style="fill-rule:nonzero;"/>
        </g>
        <g transform="matrix(5.90271,0,0,5.90271,874.888,1769.54)">
            <path d="M0.241,0.008C0.198,0.008 0.16,-0.001 0.127,-0.019C0.094,-0.037 0.069,-0.062 0.051,-0.095C0.033,-0.128 0.024,-0.165 0.024,-0.208L0.024,-0.685C0.024,-0.69 0.025,-0.693 0.028,-0.696C0.031,-0.699 0.034,-0.7 0.039,-0.7L0.197,-0.7C0.202,-0.7 0.205,-0.699 0.208,-0.696C0.211,-0.693 0.212,-0.69 0.212,-0.685L0.212,-0.19C0.212,-0.179 0.215,-0.17 0.22,-0.163C0.225,-0.156 0.232,-0.153 0.241,-0.153C0.25,-0.153 0.257,-0.156 0.262,-0.163C0.267,-0.17 0.269,-0.179 0.269,-0.19L0.269,-0.685C0.269,-0.69 0.27,-0.693 0.273,-0.696C0.276,-0.699 0.279,-0.7 0.284,-0.7L0.442,-0.7C0.447,-0.7 0.45,-0.699 0.453,-0.696C0.456,-0.693 0.457,-0.69 0.457,-0.685L0.457,-0.208C0.457,-0.165 0.448,-0.128 0.43,-0.095C0.412,-0.062 0.387,-0.037 0.354,-0.019C0.321,-0.001 0.284,0.008 0.241,0.008Z" style="fill-rule:nonzero;"/>
        </g>
        <g transform="matrix(5.90271,0,0,5.90271,877.727,1769.54)">
            <path d="M0.3,-0.528C0.395,-0.528 0.442,-0.468 0.442,-0.348L0.442,-0.015C0.442,-0.01 0.441,-0.007 0.438,-0.004C0.435,-0.001 0.432,-0 0.427,-0L0.269,-0C0.264,-0 0.261,-0.001 0.258,-0.004C0.255,-0.007 0.254,-0.01 0.254,-0.015L0.254,-0.335C0.254,-0.356 0.247,-0.367 0.233,-0.367C0.218,-0.367 0.21,-0.356 0.21,-0.335L0.21,-0.015C0.21,-0.01 0.209,-0.007 0.206,-0.004C0.203,-0.001 0.2,-0 0.195,-0L0.037,-0C0.032,-0 0.029,-0.001 0.026,-0.004C0.023,-0.007 0.022,-0.01 0.022,-0.015L0.022,-0.505C0.022,-0.51 0.023,-0.513 0.026,-0.516C0.029,-0.519 0.032,-0.52 0.037,-0.52L0.195,-0.52C0.2,-0.52 0.203,-0.519 0.206,-0.516C0.209,-0.513 0.21,-0.51 0.21,-0.505L0.21,-0.49C0.21,-0.489 0.211,-0.488 0.212,-0.488C0.215,-0.488 0.219,-0.491 0.224,-0.497C0.243,-0.518 0.269,-0.528 0.3,-0.528Z" style="fill-rule:nonzero;"/>
        </g>
        <g transform="matrix(5.90271,0,0,5.90271,880.454,1769.54)">
            <path d="M0.112,-0.555C0.085,-0.555 0.062,-0.564 0.045,-0.582C0.027,-0.599 0.018,-0.622 0.018,-0.649C0.018,-0.677 0.027,-0.7 0.045,-0.717C0.062,-0.734 0.085,-0.743 0.112,-0.743C0.139,-0.743 0.162,-0.734 0.18,-0.717C0.197,-0.7 0.206,-0.677 0.206,-0.649C0.206,-0.622 0.197,-0.6 0.18,-0.582C0.162,-0.564 0.139,-0.555 0.112,-0.555ZM0.035,-0C0.03,-0 0.027,-0.001 0.024,-0.004C0.021,-0.007 0.02,-0.01 0.02,-0.015L0.02,-0.505C0.02,-0.51 0.021,-0.513 0.024,-0.516C0.027,-0.519 0.03,-0.52 0.035,-0.52L0.193,-0.52C0.198,-0.52 0.201,-0.519 0.204,-0.516C0.207,-0.513 0.208,-0.51 0.208,-0.505L0.208,-0.015C0.208,-0.01 0.207,-0.007 0.204,-0.004C0.201,-0.001 0.198,-0 0.193,-0L0.035,-0Z" style="fill-rule:nonzero;"/>
        </g>
        <g transform="matrix(5.90271,0,0,5.90271,881.788,1769.54)">
            <path d="M0.146,-0C0.137,-0 0.132,-0.004 0.13,-0.013L0.012,-0.503L0.012,-0.507C0.012,-0.516 0.016,-0.52 0.025,-0.52L0.198,-0.52C0.207,-0.52 0.212,-0.515 0.213,-0.506L0.234,-0.288C0.235,-0.287 0.236,-0.287 0.237,-0.287C0.238,-0.287 0.239,-0.287 0.24,-0.288L0.261,-0.506C0.262,-0.515 0.267,-0.52 0.276,-0.52L0.449,-0.518C0.454,-0.518 0.457,-0.517 0.46,-0.514C0.463,-0.51 0.463,-0.506 0.462,-0.501L0.344,-0.013C0.342,-0.004 0.337,-0 0.328,-0L0.146,-0Z" style="fill-rule:nonzero;"/>
        </g>
        <g transform="matrix(5.90271,0,0,5.90271,884.45,1769.54)">
            <path d="M0.439,-0.228C0.439,-0.223 0.438,-0.22 0.435,-0.217C0.432,-0.214 0.429,-0.213 0.424,-0.213L0.212,-0.213C0.208,-0.213 0.206,-0.211 0.206,-0.207L0.206,-0.185C0.206,-0.176 0.208,-0.168 0.213,-0.162C0.217,-0.156 0.222,-0.153 0.229,-0.153C0.236,-0.153 0.241,-0.155 0.245,-0.16C0.248,-0.165 0.251,-0.171 0.252,-0.178C0.255,-0.187 0.261,-0.192 0.269,-0.191L0.422,-0.181C0.432,-0.18 0.437,-0.174 0.436,-0.165C0.433,-0.106 0.414,-0.063 0.381,-0.035C0.347,-0.006 0.296,0.008 0.229,0.008C0.162,0.008 0.111,-0.008 0.074,-0.039C0.037,-0.07 0.018,-0.113 0.018,-0.17L0.018,-0.35C0.018,-0.404 0.037,-0.447 0.074,-0.48C0.111,-0.512 0.163,-0.528 0.229,-0.528C0.295,-0.528 0.347,-0.512 0.384,-0.48C0.421,-0.447 0.439,-0.404 0.439,-0.35L0.439,-0.228ZM0.229,-0.367C0.222,-0.367 0.217,-0.364 0.213,-0.358C0.208,-0.352 0.206,-0.344 0.206,-0.335L0.206,-0.311C0.206,-0.307 0.208,-0.305 0.212,-0.305L0.245,-0.305C0.249,-0.305 0.251,-0.307 0.251,-0.311L0.251,-0.335C0.251,-0.344 0.249,-0.352 0.245,-0.358C0.241,-0.364 0.236,-0.367 0.229,-0.367Z" style="fill-rule:nonzero;"/>
        </g>
        <g transform="matrix(5.90271,0,0,5.90271,887.136,1769.54)">
            <path d="M0.293,-0.527C0.309,-0.527 0.323,-0.524 0.334,-0.517C0.34,-0.514 0.342,-0.507 0.341,-0.498L0.316,-0.341C0.315,-0.336 0.314,-0.332 0.311,-0.331C0.308,-0.33 0.304,-0.33 0.299,-0.331C0.292,-0.333 0.285,-0.334 0.276,-0.334C0.262,-0.334 0.25,-0.332 0.241,-0.327C0.232,-0.322 0.224,-0.315 0.219,-0.305C0.213,-0.294 0.21,-0.284 0.21,-0.273L0.21,-0.016C0.21,-0.011 0.209,-0.008 0.206,-0.005C0.203,-0.002 0.2,-0.001 0.195,-0.001L0.037,-0.001C0.032,-0.001 0.029,-0.002 0.026,-0.005C0.023,-0.008 0.022,-0.011 0.022,-0.016L0.022,-0.505C0.022,-0.51 0.023,-0.513 0.026,-0.516C0.029,-0.519 0.032,-0.52 0.037,-0.52L0.195,-0.52C0.2,-0.52 0.203,-0.519 0.206,-0.516C0.209,-0.513 0.21,-0.51 0.21,-0.505L0.21,-0.484C0.21,-0.481 0.211,-0.48 0.212,-0.479C0.213,-0.478 0.215,-0.479 0.216,-0.482C0.233,-0.512 0.258,-0.527 0.293,-0.527Z" style="fill-rule:nonzero;"/>
        </g>
        <g transform="matrix(5.90271,0,0,5.90271,889.178,1769.54)">
            <path d="M0.223,0.008C0.159,0.008 0.108,-0.007 0.07,-0.037C0.031,-0.067 0.012,-0.107 0.012,-0.156L0.012,-0.159C0.012,-0.164 0.013,-0.167 0.016,-0.17C0.019,-0.173 0.022,-0.174 0.027,-0.174L0.177,-0.174C0.182,-0.174 0.185,-0.173 0.188,-0.171C0.191,-0.168 0.192,-0.165 0.192,-0.161C0.192,-0.151 0.195,-0.143 0.201,-0.138C0.207,-0.133 0.214,-0.13 0.221,-0.13C0.227,-0.13 0.232,-0.132 0.235,-0.136C0.238,-0.139 0.24,-0.144 0.24,-0.149C0.24,-0.159 0.235,-0.167 0.225,-0.172C0.215,-0.177 0.198,-0.182 0.175,-0.189C0.167,-0.191 0.158,-0.194 0.147,-0.197C0.112,-0.208 0.082,-0.227 0.057,-0.253C0.032,-0.278 0.019,-0.313 0.019,-0.358C0.019,-0.41 0.037,-0.451 0.073,-0.482C0.109,-0.513 0.156,-0.528 0.215,-0.528C0.276,-0.528 0.325,-0.511 0.362,-0.478C0.399,-0.445 0.417,-0.401 0.417,-0.346C0.417,-0.343 0.416,-0.341 0.413,-0.339C0.41,-0.337 0.407,-0.336 0.402,-0.336L0.257,-0.336C0.252,-0.336 0.249,-0.337 0.246,-0.34C0.243,-0.343 0.242,-0.346 0.242,-0.351L0.242,-0.357C0.242,-0.365 0.24,-0.371 0.236,-0.376C0.231,-0.381 0.226,-0.383 0.22,-0.383C0.213,-0.383 0.208,-0.38 0.205,-0.375C0.201,-0.37 0.199,-0.364 0.199,-0.357C0.199,-0.344 0.206,-0.333 0.219,-0.326C0.232,-0.319 0.248,-0.312 0.269,-0.306C0.317,-0.292 0.356,-0.274 0.385,-0.252C0.414,-0.23 0.429,-0.196 0.429,-0.151C0.429,-0.102 0.41,-0.063 0.373,-0.035C0.335,-0.006 0.285,0.008 0.223,0.008Z" style="fill-rule:nonzero;"/>
        </g>
        <g transform="matrix(5.90271,0,0,5.90271,891.764,1769.54)">
            <path d="M0.112,-0.555C0.085,-0.555 0.062,-0.564 0.045,-0.582C0.027,-0.599 0.018,-0.622 0.018,-0.649C0.018,-0.677 0.027,-0.7 0.045,-0.717C0.062,-0.734 0.085,-0.743 0.112,-0.743C0.139,-0.743 0.162,-0.734 0.18,-0.717C0.197,-0.7 0.206,-0.677 0.206,-0.649C0.206,-0.622 0.197,-0.6 0.18,-0.582C0.162,-0.564 0.139,-0.555 0.112,-0.555ZM0.035,-0C0.03,-0 0.027,-0.001 0.024,-0.004C0.021,-0.007 0.02,-0.01 0.02,-0.015L0.02,-0.505C0.02,-0.51 0.021,-0.513 0.024,-0.516C0.027,-0.519 0.03,-0.52 0.035,-0.52L0.193,-0.52C0.198,-0.52 0.201,-0.519 0.204,-0.516C0.207,-0.513 0.208,-0.51 0.208,-0.505L0.208,-0.015C0.208,-0.01 0.207,-0.007 0.204,-0.004C0.201,-0.001 0.198,-0 0.193,-0L0.035,-0Z" style="fill-rule:nonzero;"/>
        </g>
        <g transform="matrix(5.90271,0,0,5.90271,893.098,1769.54)">
            <path d="M0.295,-0.405C0.295,-0.4 0.294,-0.397 0.291,-0.394C0.288,-0.391 0.285,-0.39 0.28,-0.39L0.238,-0.39C0.234,-0.39 0.232,-0.388 0.232,-0.384L0.232,-0.192C0.232,-0.18 0.235,-0.172 0.24,-0.168C0.245,-0.163 0.253,-0.161 0.263,-0.162L0.265,-0.162C0.27,-0.162 0.273,-0.161 0.276,-0.158C0.279,-0.155 0.28,-0.152 0.28,-0.147L0.28,-0.015C0.28,-0.01 0.279,-0.007 0.276,-0.004C0.273,-0.001 0.27,-0 0.265,-0L0.217,-0C0.162,-0 0.12,-0.008 0.093,-0.024C0.066,-0.039 0.052,-0.07 0.052,-0.116L0.052,-0.384C0.052,-0.388 0.05,-0.39 0.046,-0.39L0.019,-0.39C0.014,-0.39 0.011,-0.391 0.008,-0.394C0.005,-0.397 0.004,-0.4 0.004,-0.405L0.004,-0.505C0.004,-0.51 0.005,-0.513 0.008,-0.516C0.011,-0.519 0.014,-0.52 0.019,-0.52L0.046,-0.52C0.05,-0.52 0.052,-0.522 0.052,-0.526L0.052,-0.633C0.052,-0.638 0.053,-0.641 0.056,-0.644C0.059,-0.647 0.062,-0.648 0.067,-0.648L0.217,-0.648C0.222,-0.648 0.225,-0.647 0.228,-0.644C0.231,-0.641 0.232,-0.638 0.232,-0.633L0.232,-0.526C0.232,-0.522 0.234,-0.52 0.238,-0.52L0.28,-0.52C0.285,-0.52 0.288,-0.519 0.291,-0.516C0.294,-0.513 0.295,-0.51 0.295,-0.505L0.295,-0.405Z" style="fill-rule:nonzero;"/>
        </g>
        <g transform="matrix(5.90271,0,0,5.90271,894.91,1769.54)">
            <path d="M0.034,0.199C0.03,0.199 0.028,0.194 0.028,0.184L0.028,0.06C0.028,0.05 0.031,0.045 0.037,0.045C0.072,0.045 0.097,0.043 0.113,0.039C0.128,0.034 0.136,0.025 0.136,0.01C0.136,0.006 0.136,0.003 0.135,-0L0.01,-0.503L0.01,-0.507C0.01,-0.516 0.014,-0.52 0.023,-0.52L0.193,-0.52C0.202,-0.52 0.207,-0.515 0.208,-0.506L0.227,-0.288C0.228,-0.289 0.229,-0.289 0.23,-0.289C0.231,-0.289 0.232,-0.289 0.233,-0.288L0.25,-0.506C0.251,-0.515 0.256,-0.52 0.265,-0.52L0.436,-0.518C0.441,-0.518 0.444,-0.517 0.447,-0.514C0.45,-0.51 0.45,-0.506 0.449,-0.501L0.323,0.002C0.308,0.053 0.292,0.092 0.275,0.119C0.258,0.146 0.231,0.166 0.195,0.179C0.159,0.192 0.107,0.199 0.04,0.199L0.034,0.199Z" style="fill-rule:nonzero;"/>
        </g>
    </g>
</svg>
