<?xml version="1.0" encoding="UTF-8" standalone="no"?>
<!DOCTYPE svg PUBLIC "-//W3C//DTD SVG 1.1//EN" "http://www.w3.org/Graphics/SVG/1.1/DTD/svg11.dtd">
<svg width="100%" height="100%" viewBox="0 0 264 268" version="1.1" xmlns="http://www.w3.org/2000/svg" xmlns:xlink="http://www.w3.org/1999/xlink" xml:space="preserve" xmlns:serif="http://www.serif.com/" style="fill-rule:evenodd;clip-rule:evenodd;stroke-linejoin:round;stroke-miterlimit:2;">
    <g transform="matrix(0.214446,0,0,0.214446,-82.7417,-23.7968)">
        <path d="M999,133.543L999,130C999.497,130.608 999.997,131.209 1000.5,131.803C1001,131.209 1001.5,130.608 1002,130L1002,133.543C1119.98,267.941 1409.27,33.064 1557,157C1721.5,294.584 1409.89,623.014 1586.39,734L1588,734C1587.73,734.166 1587.46,734.333 1587.19,734.5C1587.46,734.667 1587.73,734.834 1588,735L1586.39,735C1409.89,845.986 1721.5,1174.42 1557,1312C1409.27,1435.94 1119.98,1201.06 1002,1335.46L1002,1340C1001.36,1339.22 1000.72,1338.45 1000.08,1337.7C999.716,1338.13 999.357,1338.56 999,1339L999,1336.46C881.023,1202.06 591.732,1436.94 444,1313C279,1175 593,845 413,735C593,625 279,295 444,157C591.732,33.064 881.023,267.941 999,133.543Z" style="fill:rgb(15,14,88);"/>
    </g>
    <g transform="matrix(0.200424,0,0,0.200424,-68.7133,-13.491)">
        <path d="M999,133.543L999,130C999.497,130.608 999.997,131.209 1000.5,131.803C1001,131.209 1001.5,130.608 1002,130L1002,133.543C1119.98,267.941 1409.27,33.064 1557,157C1721.5,294.584 1409.89,623.014 1586.39,734L1588,734C1587.73,734.166 1587.46,734.333 1587.19,734.5C1587.46,734.667 1587.73,734.834 1588,735L1586.39,735C1409.89,845.986 1721.5,1174.42 1557,1312C1409.27,1435.94 1119.98,1201.06 1002,1335.46L1002,1340C1001.36,1339.22 1000.72,1338.45 1000.08,1337.7C999.716,1338.13 999.357,1338.56 999,1339L999,1336.46C881.023,1202.06 591.732,1436.94 444,1313C279,1175 593,845 413,735C593,625 279,295 444,157C591.732,33.064 881.023,267.941 999,133.543Z" style="fill:rgb(75,100,174);"/>
    </g>
    <g transform="matrix(0.186403,0,0,0.186403,-54.6848,-3.18525)">
        <path d="M999,133.543L999,130C999.497,130.608 999.997,131.209 1000.5,131.803C1001,131.209 1001.5,130.608 1002,130L1002,133.543C1119.98,267.941 1409.27,33.064 1557,157C1721.5,294.584 1409.89,623.014 1586.39,734L1588,734C1587.73,734.166 1587.46,734.333 1587.19,734.5C1587.46,734.667 1587.73,734.834 1588,735L1586.39,735C1409.89,845.986 1721.5,1174.42 1557,1312C1409.27,1435.94 1119.98,1201.06 1002,1335.46L1002,1340C1001.36,1339.22 1000.72,1338.45 1000.08,1337.7C999.716,1338.13 999.357,1338.56 999,1339L999,1336.46C881.023,1202.06 591.732,1436.94 444,1313C279,1175 593,845 413,735C593,625 279,295 444,157C591.732,33.064 881.023,267.941 999,133.543Z" style="fill:white;"/>
        <clipPath id="_clip1">
            <path d="M999,133.543L999,130C999.497,130.608 999.997,131.209 1000.5,131.803C1001,131.209 1001.5,130.608 1002,130L1002,133.543C1119.98,267.941 1409.27,33.064 1557,157C1721.5,294.584 1409.89,623.014 1586.39,734L1588,734C1587.73,734.166 1587.46,734.333 1587.19,734.5C1587.46,734.667 1587.73,734.834 1588,735L1586.39,735C1409.89,845.986 1721.5,1174.42 1557,1312C1409.27,1435.94 1119.98,1201.06 1002,1335.46L1002,1340C1001.36,1339.22 1000.72,1338.45 1000.08,1337.7C999.716,1338.13 999.357,1338.56 999,1339L999,1336.46C881.023,1202.06 591.732,1436.94 444,1313C279,1175 593,845 413,735C593,625 279,295 444,157C591.732,33.064 881.023,267.941 999,133.543Z"/>
        </clipPath>
        <g clip-path="url(#_clip1)">
            <g transform="matrix(5.36473,0,0,5.36473,293.369,17.088)">
                <path d="M225.122,255.78C221.589,252.404 218.156,248.515 214.997,244.04C202.659,226.565 194.109,199.903 201.641,159.3C205.743,137.19 206.139,110.903 198.735,91.39C195.586,83.09 191.036,76.074 184.288,71.813C177.627,67.606 168.953,66.314 157.983,68.391C118.433,75.877 110.391,70.199 103.08,64.152C97.872,59.843 93.144,54.346 67.369,53.371C49.191,52.683 36.581,47.937 27.452,41.215C22.658,37.684 18.794,33.561 15.62,29.045C21.482,22.524 26.5,17.868 30.906,14.198C33.162,18.005 36.045,21.462 39.906,24.306C46.335,29.041 55.36,31.902 68.163,32.386C96.54,33.46 106.102,39.502 112.53,44.655C114.989,46.625 116.531,48.756 119.585,49.985C124.857,52.105 133.591,51.635 154.077,47.757C171.405,44.477 184.98,47.412 195.501,54.057C205.936,60.647 213.498,71.103 218.369,83.94C227.006,106.701 227.073,137.34 222.289,163.131C216.187,196.026 222.157,217.77 232.152,231.928C235.799,237.093 239.931,241.21 244.057,244.476C237.864,248.036 229.891,252.493 225.122,255.78Z" style="fill:rgb(150,178,230);"/>
            </g>
        </g>
        <path d="M999,133.543L999,130C999.497,130.608 999.997,131.209 1000.5,131.803C1001,131.209 1001.5,130.608 1002,130L1002,133.543C1119.98,267.941 1409.27,33.064 1557,157C1721.5,294.584 1409.89,623.014 1586.39,734L1588,734C1587.73,734.166 1587.46,734.333 1587.19,734.5C1587.46,734.667 1587.73,734.834 1588,735L1586.39,735C1409.89,845.986 1721.5,1174.42 1557,1312C1409.27,1435.94 1119.98,1201.06 1002,1335.46L1002,1340C1001.36,1339.22 1000.72,1338.45 1000.08,1337.7C999.716,1338.13 999.357,1338.56 999,1339L999,1336.46C881.023,1202.06 591.732,1436.94 444,1313C279,1175 593,845 413,735C593,625 279,295 444,157C591.732,33.064 881.023,267.941 999,133.543Z" style="fill:none;stroke:rgb(26,50,230);stroke-width:5.36px;"/>
    </g>
    <g transform="matrix(0.244,0,0,0.244,131.811,133.758)">
        <g transform="matrix(1,0,0,1,-250,-400)">
            <g transform="matrix(1.21649,0,0,1.2581,-242.088,-73.7274)">
                <path d="M324.461,688.375L348.609,688.375L348.609,595.438L349.141,592.398L350.617,590.195L352.797,588.852L355.492,588.406L358.156,588.852L360.461,590.195L361.367,591.188L362.07,592.398L362.516,593.813L362.688,595.438L362.688,688.375L385.609,688.375L385.609,615.461L385.938,610.344L386.914,605.93L388.516,602.195L390.727,599.156L393.5,596.781L396.828,595.102L400.672,594.086L405.031,593.758L409.07,594.086L412.813,595.102L416.164,596.781L419.07,599.156L421.445,602.195L423.234,605.93L424.352,610.344L424.75,615.461L424.75,688.375L447.672,688.375L447.672,595.438L447.828,593.813L448.273,592.398L448.961,591.188L449.883,590.195L452.172,588.852L454.852,588.406L457.531,588.852L459.727,590.195L461.188,592.398L461.586,593.813L461.734,595.438L461.734,688.375L485.891,688.375L485.43,559.359L405.18,485.828L405.031,485.68L405.031,485.977L324.93,559.359L324.461,688.375Z" style="fill:rgb(63,98,215);fill-rule:nonzero;"/>
            </g>
            <g transform="matrix(1.21649,0,0,1.2581,-242.088,-73.7274)">
                <path d="M212.266,688.375L270.961,688.375L271.727,559.359L252.016,559.359L252.016,497.602L212.266,497.758L212.266,688.375Z" style="fill:rgb(202,59,51);fill-rule:nonzero;"/>
            </g>
            <g transform="matrix(1.21649,0,0,1.2581,-242.088,-73.7274)">
                <path d="M276.625,688.375L318.961,688.375L318.813,559.359L276.781,559.359L276.625,688.375Z" style="fill:rgb(148,87,177);fill-rule:nonzero;"/>
            </g>
            <g transform="matrix(1.21649,0,0,1.2581,-242.088,-73.7274)">
                <path d="M212.266,492.703L252.016,492.703L252.016,481.703L270.664,481.703L270.664,453.117L212.266,453.117L212.266,492.703Z" style="fill:rgb(149,88,178);fill-rule:nonzero;"/>
            </g>
            <g transform="matrix(1.21649,0,0,1.2581,-242.088,-73.7274)">
                <path d="M283.508,379.133L241.773,253.938L241.93,253.938L241.93,249.664L242.805,249.063L243.445,248.125L248.188,248.125L248.188,245.688L242.992,245.688L241.93,244.766L241.93,241.094L240.086,241.094L240.086,244.766L239.266,245.055L238.563,245.688L234.273,245.688L234.273,248.125L238.094,248.125L238.914,249.117L240.086,249.664L240.086,253.938L240.234,253.938L201.109,378.367L283.508,379.133Z" style="fill:rgb(148,87,177);fill-rule:nonzero;"/>
            </g>
            <g transform="matrix(1.21649,0,0,1.2581,-242.088,-73.7274)">
                <rect x="361.609" y="427.734" width="87.141" height="53.055" style="fill:rgb(63,98,215);"/>
            </g>
            <g transform="matrix(1.21649,0,0,1.2581,-242.088,-73.7274)">
                <path d="M539.398,688.375L598.094,688.375L598.094,497.758L558.344,497.602L558.344,559.359L538.633,559.359L539.398,688.375Z" style="fill:rgb(63,98,215);fill-rule:nonzero;"/>
            </g>
            <g transform="matrix(1.21649,0,0,1.2581,-242.088,-73.7274)">
                <path d="M400.906,72.492L400.75,72.492L306.883,366.297L357.031,357.273L400.906,72.492Z" style="fill:rgb(55,151,38);fill-rule:nonzero;"/>
            </g>
            <g transform="matrix(1.21649,0,0,1.2581,-242.088,-73.7274)">
                <path d="M409.609,72.492L409.453,72.492L453.328,357.273L503.461,366.297L409.609,72.492Z" style="fill:rgb(63,98,215);fill-rule:nonzero;"/>
            </g>
            <g transform="matrix(1.21649,0,0,1.2581,-242.088,-73.7274)">
                <path d="M322.023,555.07L397.844,486.133L257.813,486.133L258.117,554.773L322.023,555.07Z" style="fill:rgb(55,151,38);fill-rule:nonzero;"/>
            </g>
            <g transform="matrix(1.21649,0,0,1.2581,-242.088,-73.7274)">
                <path d="M488.336,555.07L552.227,554.773L552.547,486.133L412.516,486.133L488.336,555.07Z" style="fill:rgb(202,59,51);fill-rule:nonzero;"/>
            </g>
            <g transform="matrix(1.21649,0,0,1.2581,-242.088,-73.7274)">
                <path d="M313.766,432.031L357.031,424.219L357.031,362.008L307.813,370.117L313.766,379.75L313.766,432.031Z" style="fill:rgb(63,98,215);fill-rule:nonzero;"/>
            </g>
            <g transform="matrix(1.21649,0,0,1.2581,-242.088,-73.7274)">
                <path d="M235.508,373.328L235.508,358.336L243.148,345.813L250.477,358.336L250.477,373.328L235.508,373.328Z" style="fill:rgb(56,151,37);fill-rule:nonzero;"/>
            </g>
            <g transform="matrix(1.21649,0,0,1.2581,-242.088,-73.7274)">
                <path d="M496.586,432.031L496.586,379.75L502.555,370.117L453.328,362.008L453.328,424.219L496.586,432.031Z" style="fill:rgb(55,151,38);fill-rule:nonzero;"/>
            </g>
            <g transform="matrix(1.21649,0,0,1.2581,-242.088,-73.7274)">
                <path d="M539.242,448.688L598.094,448.219L598.094,398.398L608.336,382.336L528.234,382.336L539.086,400.688L539.242,448.688Z" style="fill:rgb(55,151,38);fill-rule:nonzero;"/>
            </g>
            <g transform="matrix(1.21649,0,0,1.2581,-242.088,-73.7274)">
                <path d="M313.766,482.313L357.031,482.313L357.031,427.734L313.766,436.305L313.766,482.313Z" style="fill:rgb(202,60,51);fill-rule:nonzero;"/>
            </g>
            <g transform="matrix(1.21649,0,0,1.2581,-242.088,-73.7274)">
                <path d="M491.398,688.375L533.734,688.375L533.578,559.359L491.547,559.359L491.398,688.375Z" style="fill:rgb(56,151,37);fill-rule:nonzero;"/>
            </g>
            <g transform="matrix(1,0,0,1,-2.84217e-14,1)">
                <rect x="232" y="780" width="35.724" height="11" style="fill:rgb(56,151,37);"/>
            </g>
            <g transform="matrix(1.21649,0,0,1.2581,-242.088,-73.7274)">
                <path d="M453.328,482.313L496.586,482.313L496.586,436.305L453.328,427.734L453.328,482.313Z" style="fill:rgb(202,60,51);fill-rule:nonzero;"/>
            </g>
            <g transform="matrix(1.21649,0,0,1.2581,-242.088,-73.7274)">
                <path d="M558.344,492.703L598.094,492.703L598.094,453.117L539.695,453.117L539.695,481.703L558.344,481.703L558.344,492.703Z" style="fill:rgb(148,87,177);fill-rule:nonzero;"/>
            </g>
            <g transform="matrix(1.21649,0,0,1.2581,-242.088,-73.7274)">
                <path d="M526.852,379.133L609.25,378.367L570.117,253.938L570.273,249.664L571.43,249.117L572.258,248.125L576.07,248.125L576.07,245.688L571.797,245.688L571.086,245.055L570.273,244.766L570.273,241.094L568.438,241.094L568.438,244.766L567.367,245.688L562.164,245.688L562.164,248.125L566.914,248.125L567.555,249.063L568.438,249.664L568.438,253.938L526.852,379.133Z" style="fill:rgb(202,60,51);fill-rule:nonzero;"/>
            </g>
            <g transform="matrix(1.21649,0,0,1.2581,-242.088,-73.7274)">
                <path d="M407.008,72.492L406.242,72.492L406.057,69.524L407.475,68.737L408.261,67.336L410.968,67.336L410.968,65.633L408.434,65.633L407.63,64.077L406.057,63.272L406.057,61.24L404.37,61.24L404.37,63.445L402.944,64.215L402.166,65.633L399.459,65.633L399.459,67.336L402.339,67.336L403.03,68.651L404.37,69.36L404.403,72.492L403.336,72.492L362.688,357.273L447.672,357.273L407.008,72.492Z" style="fill:rgb(202,60,51);fill-rule:nonzero;"/>
            </g>
            <g transform="matrix(1.21649,0,0,1.2581,-242.088,-73.7274)">
                <rect x="230.914" y="639.609" width="6.266" height="20.188" style="fill:rgb(36,102,234);"/>
            </g>
            <g transform="matrix(1.21649,0,0,1.2581,-242.088,-73.7274)">
                <rect x="230.914" y="595.734" width="6.266" height="20.188" style="fill:rgb(56,151,37);"/>
            </g>
            <g transform="matrix(1.21649,0,0,1.2581,-242.088,-73.7274)">
                <rect x="230.914" y="554.773" width="6.266" height="20.172" style="fill:rgb(148,87,177);"/>
            </g>
            <g transform="matrix(1.21649,0,0,1.2581,-242.088,-73.7274)">
                <rect x="230.914" y="514.422" width="6.266" height="20.164" style="fill:rgb(36,102,234);"/>
            </g>
            <g transform="matrix(1.21649,0,0,1.2581,-242.088,-73.7274)">
                <path d="M391.273,568.828L391.273,533.063L391.492,530.836L392.172,528.703L393.289,526.711L394.836,524.945L396.797,523.438L399.188,522.297L401.984,521.555L405.18,521.305L408.352,521.555L411.141,522.297L413.523,523.438L415.508,524.945L417.047,526.711L418.172,528.703L418.852,530.836L419.086,533.063L419.086,568.828L391.273,568.828Z" style="fill:rgb(202,60,51);fill-rule:nonzero;"/>
            </g>
            <g transform="matrix(1.21649,0,0,1.2581,-242.088,-73.7274)">
                <rect x="573.18" y="639.609" width="6.258" height="20.188" style="fill:rgb(56,151,37);"/>
            </g>
            <g transform="matrix(1.21649,0,0,1.2581,-242.088,-73.7274)">
                <rect x="573.18" y="595.734" width="6.258" height="20.188" style="fill:rgb(148,87,177);"/>
            </g>
            <g transform="matrix(1.21649,0,0,1.2581,-242.088,-73.7274)">
                <rect x="573.18" y="554.773" width="6.258" height="20.172" style="fill:rgb(202,59,51);"/>
            </g>
            <g transform="matrix(1.21649,0,0,1.2581,-242.088,-73.7274)">
                <rect x="573.18" y="514.422" width="6.258" height="20.164" style="fill:rgb(56,151,37);"/>
            </g>
            <g transform="matrix(1.21649,0,0,1.2581,-242.088,-73.7274)">
                <path d="M271.117,448.688L271.273,400.688L282.117,382.336L202.023,382.336L212.266,398.398L212.266,448.219L271.117,448.688Z" style="fill:rgb(202,60,51);fill-rule:nonzero;"/>
            </g>
            <g transform="matrix(1.21649,0,0,1.2581,-242.088,-73.7274)">
                <path d="M229.688,445.328L229.688,395.641L229.922,393.922L230.617,392.266L231.719,390.719L233.203,389.336L234.977,388.156L237.031,387.258L239.305,386.68L241.773,386.477L244.453,386.633L246.906,387.117L249.07,387.867L250.922,388.883L252.406,390.094L253.523,391.5L254.211,393.047L254.453,394.727L254.453,445.328L229.688,445.328Z" style="fill:rgb(148,87,177);fill-rule:nonzero;"/>
            </g>
            <g transform="matrix(1.21649,0,0,1.2581,-242.088,-73.7274)">
                <path d="M235.047,440.43L249.109,440.43L249.109,397.938L248.938,396.586L248.492,395.352L246.891,393.266L244.594,391.867L241.93,391.359L239.227,391.867L237.047,393.266L235.578,395.352L235.047,397.938L235.047,440.43Z" style="fill:rgb(36,102,234);fill-rule:nonzero;"/>
            </g>
            <g transform="matrix(1.21649,0,0,1.2581,-242.088,-73.7274)">
                <path d="M238.414,370.883L247.57,370.883L247.57,359.875L242.992,351.156L238.414,359.875L238.414,370.883Z" style="fill:rgb(36,102,234);fill-rule:nonzero;"/>
            </g>
            <g transform="matrix(1.21649,0,0,1.2581,-242.088,-73.7274)">
                <path d="M324.625,423.008L324.625,387.234L324.906,385.234L325.734,383.117L327.039,380.992L328.766,378.992L330.828,377.219L333.195,375.813L335.781,374.875L338.539,374.547L340.656,374.734L342.672,375.273L344.508,376.102L346.133,377.195L347.477,378.461L348.5,379.883L349.148,381.391L349.391,382.945L349.391,418.727L324.625,423.008Z" style="fill:rgb(202,60,51);fill-rule:nonzero;"/>
            </g>
            <g transform="matrix(1.21649,0,0,1.2581,-242.088,-73.7274)">
                <path d="M329.969,417.961L344.031,415.516L344.031,385.242L343.547,383.023L342.25,381.289L340.344,380.148L338.063,379.75L336.438,379.914L334.922,380.422L332.352,382.227L330.602,384.766L330.125,386.203L329.969,387.695L329.969,417.961Z" style="fill:rgb(56,151,37);fill-rule:nonzero;"/>
            </g>
            <g transform="matrix(1.21649,0,0,1.2581,-242.088,-73.7274)">
                <rect x="361.609" y="362.008" width="87.141" height="61.914" style="fill:rgb(148,87,177);"/>
            </g>
            <g transform="matrix(1.21649,0,0,1.2581,-242.088,-73.7274)">
                <path d="M555.906,445.328L555.906,394.727L556.133,393.047L556.828,391.5L557.93,390.094L559.43,388.883L561.266,387.867L563.438,387.117L565.883,386.633L568.586,386.477L571.031,386.68L573.305,387.258L575.352,388.156L577.148,389.336L578.609,390.719L579.727,392.266L580.422,393.922L580.672,395.641L580.672,445.328L555.906,445.328Z" style="fill:rgb(202,60,51);fill-rule:nonzero;"/>
            </g>
            <g transform="matrix(1.21649,0,0,1.2581,-242.088,-73.7274)">
                <path d="M396.922,351.766L396.922,336.789L405.18,326.242L413.43,336.789L413.43,351.766L396.922,351.766Z" style="fill:rgb(56,151,37);fill-rule:nonzero;"/>
            </g>
            <g transform="matrix(1.21649,0,0,1.2581,-242.088,-73.7274)">
                <path d="M399.523,349.328L410.836,349.328L410.836,338.477L405.18,331.594L399.523,338.477L399.523,349.328Z" style="fill:rgb(36,102,234);fill-rule:nonzero;"/>
            </g>
            <g transform="matrix(1.21649,0,0,1.2581,-242.088,-73.7274)">
                <path d="M561.25,440.43L575.313,440.43L575.313,397.938L574.766,395.352L573.305,393.266L571.117,391.867L568.438,391.359L565.758,391.867L563.461,393.266L561.852,395.352L561.406,396.586L561.25,397.938L561.25,440.43Z" style="fill:rgb(36,102,234);fill-rule:nonzero;"/>
            </g>
            <g transform="matrix(1.21649,0,0,1.2581,-242.088,-73.7274)">
                <path d="M562.789,370.883L571.945,370.883L571.945,359.875L567.367,351.156L562.789,359.875L562.789,370.883Z" style="fill:rgb(202,60,51);fill-rule:nonzero;"/>
            </g>
            <g transform="matrix(1.21649,0,0,1.2581,-242.088,-73.7274)">
                <path d="M485.734,423.008L460.969,418.727L460.969,382.945L461.195,381.391L461.844,379.883L462.859,378.461L464.211,377.195L465.82,376.102L467.672,375.273L469.68,374.734L471.82,374.547L474.555,374.875L477.141,375.813L479.5,377.219L481.578,378.992L483.297,380.992L484.609,383.117L485.438,385.234L485.734,387.234L485.734,423.008Z" style="fill:rgb(202,60,51);fill-rule:nonzero;"/>
            </g>
            <g transform="matrix(1.21649,0,0,1.2581,-242.088,-73.7274)">
                <path d="M480.391,417.961L480.391,387.695L480.219,386.203L479.742,384.766L477.992,382.227L475.414,380.422L473.898,379.914L472.281,379.75L469.984,380.148L468.094,381.289L466.797,383.023L466.328,385.242L466.328,415.516L480.391,417.961Z" style="fill:rgb(148,87,177);fill-rule:nonzero;"/>
            </g>
            <g transform="matrix(1.21649,0,0,1.2581,-242.088,-73.7274)">
                <path d="M559.883,373.328L559.883,358.336L567.211,345.813L574.852,358.336L574.852,373.328L559.883,373.328Z" style="fill:rgb(202,60,51);fill-rule:nonzero;"/>
            </g>
            <g transform="matrix(1.21649,0,0,1.2581,-242.088,-73.7274)">
                <path d="M479.164,354.977L466.633,352.688L466.633,337.703L472.891,327.93L479.164,340L479.164,354.977Z" style="fill:rgb(202,60,51);fill-rule:nonzero;"/>
            </g>
            <g transform="matrix(1.21649,0,0,1.2581,-242.088,-73.7274)">
                <path d="M476.57,351.93L476.57,341.219L472.891,333.578L469.219,339.844L469.219,350.695L476.57,351.93Z" style="fill:rgb(148,87,177);fill-rule:nonzero;"/>
            </g>
            <g transform="matrix(1.21649,0,0,1.2581,-242.088,-73.7274)">
                <path d="M331.188,354.977L331.188,340L337.453,327.93L343.727,337.703L343.727,352.688L331.188,354.977Z" style="fill:rgb(202,60,51);fill-rule:nonzero;"/>
            </g>
            <g transform="matrix(1.21649,0,0,1.2581,-242.088,-73.7274)">
                <path d="M333.789,351.93L341.125,350.695L341.125,339.844L337.453,333.578L333.789,341.219L333.789,351.93Z" style="fill:rgb(36,102,234);fill-rule:nonzero;"/>
            </g>
        </g>
    </g>
</svg>
