<svg xmlns="http://www.w3.org/2000/svg" xml:space="preserve" fill-rule="evenodd" stroke-linejoin="round" stroke-miterlimit="2" clip-rule="evenodd" viewBox="0 0 315 684">
  <clipPath id="a">
    <rect width="309.8" height="148.2" x=".8" y="1"/>
  </clipPath>
  <g fill-rule="nonzero" clip-path="url(#a)">
    <path fill="#fefefe" d="M36 91.6q0 6-1.3 9.8-1.4 3.7-3.9 5.8a14 14 0 0 1-6 2.8q-3.5.7-8 .7-5.7 0-8.9-1.8-3-1.9-3-4.4 0-2.1 1.7-3.6a7 7 0 0 1 4.6-1.5 5 5 0 0 1 3.5 1.2q1.3 1.2 2.2 2.4t1.6 1.7l1.2.4q1.2 0 1.8-1.4t.6-5.3v-50l14-4zm20-45.8V78a6 6 0 0 0 1.9 4.6 7 7 0 0 0 4.7 1.9q1.5 0 3.7-1.6 3.7-2.2 3.8-4v-33h13.8v45.7H70.1v-4.3a25 25 0 0 1-5.9 3.7q-3 1.5-6 1.4a17 17 0 0 1-11.5-4.2 14 14 0 0 1-3.4-4.6Q42 81 42 78V45.8zm47.4 45.8H89.6V27.4l13.8-3.8zm5.8-43.3 13.9-3.8v47h-13.9zM152.1 68a44 44 0 0 0-7.8 4.5q-1.6 1.3-2.7 2.8-1 1.5-1 3.2 0 1.3.3 2.5a6 6 0 0 0 2.3 3.4q.7.5 1.6.5 1.7 0 3.4-1l3.9-2.6zm14 23.7h-14V88l-2.3 1.8a13 13 0 0 1-5.5 2.4 21 21 0 0 1-9.7-.6 13 13 0 0 1-4.3-2.5 11 11 0 0 1-3.7-8.5q0-2.6 1-4.7t2.8-3.8q1.7-1.8 4-3a45 45 0 0 1 10.5-4.6l5.7-1.8 1.5-.4v-4.5q0-4.5-1.7-6.2a6 6 0 0 0-4.5-1.8q-3.2 0-4.5 1.5a6 6 0 0 0-1.3 3.9q0 1.3-.3 2.5t-1 2.1-1.8 1.5q-1.4.5-3.2.5-3 0-4.7-1.7a6 6 0 0 1-1.8-4.2q0-2.4 1.6-4.4 1.5-2 4.3-3.5t6.4-2.3 7.6-.9q4.9 0 8.5 1 3.5.8 5.8 2.4 2.4 1.7 3.4 4 1.2 2.3 1.1 5.2z"/>
    <path fill="#4062d7" d="M38.8 32.7a9.4 9.4 0 1 1-18.9 0 9.4 9.4 0 0 1 18.9 0"/>
    <path fill="#389725" d="M137.6 13.1a9.4 9.4 0 1 1-18.9 0 9.4 9.4 0 0 1 18.9 0"/>
    <path fill="#9457b1" d="M149 32.7a9.4 9.4 0 1 1-19 0 9.4 9.4 0 0 1 19 0"/>
    <path fill="#ca3b33" d="M126.3 32.7a9.4 9.4 0 1 1-18.9 0 9.4 9.4 0 0 1 18.9 0"/>
    <path fill="#fefefe" d="M241.5 92q-6.8 0-12.5-2.9t-9-8a23 23 0 0 1-.3-23.8q3-5.4 8.6-8.6t12.9-3.2q6.5 0 12.2 2.8t9.2 8a24 24 0 0 1 .5 24q-3 5.4-8.7 8.5-5.6 3.2-12.9 3.2m-48 0q-6.3 0-11.5-3a23 23 0 0 1-11.2-19.2q0-6.1 3-11.8 3.2-5.7 8.7-9 5.4-3.5 12.2-3.5 4.3 0 8.4 1.5t6.8 3.9 2.5 5.2q0 2.7-2.2 4.4a9 9 0 0 1-5.4 1.6q-2.7 0-4.6-1.4-2-1.5-2-3.8-.1-3-.8-4.4t-3.7-1.4a8 8 0 0 0-6.9 3.5 17 17 0 0 0-2.5 9.9q0 7.2 3 13t8.7 5.8q4 0 7-3 3-3.1 5.4-8.5l6.5 1.7a27 27 0 0 1-8 13.6 20 20 0 0 1-13.4 5m49.4-5.3q4.5 0 6.5-4.3t2-10.9q0-8.4-3-14.5t-8.2-6q-4.5 0-6.7 4.5-2.4 4.5-2.3 11 0 7.8 3.1 14 3.2 6.2 8.6 6.2m26.6-40.5h13.8V50a23 23 0 0 1 13.7-4.5q7.4 0 10.7 3.8 3.4 4 3.4 10v32.5h-13.5V60.6q0-3.3-1.2-5.3-1.2-1.9-3.5-1.9-3.7 0-9.6 5v33.3h-13.8zM58.6 107l.2-.5.5-.2h8.2q.4 0 .6.2l.2.6v22.6q0 7.3-4.3 10.5-4.2 3.1-10.7 3.1-2.9 0-5.5-.4-.6-.2-.6-.9l.3-7q0-.9 1-.6 2 .6 4 .6 2.5 0 4-1 1.8-1 2-3.2v-.3l-.4.1a7 7 0 0 1-5 1.7q-8.3 0-10.6-6.7-.8-2.7-.9-6.1 0-3.8 1.1-6.5a11 11 0 0 1 4-5.2 10 10 0 0 1 6-1.9 7 7 0 0 1 5.5 2.2h.2l.2-.1zm-.6 16q.6-1.3.6-3.5 0-2-.6-3.4a3 3 0 0 0-3-1.9q-1.7 0-2.7 1.8a7 7 0 0 0-.8 3.6 7 7 0 0 0 .6 3.4 3 3 0 0 0 3 1.8q2.1 0 3-1.8m14.4 10.2q-.5 0-.6-.2-.2-.2-.2-.6V97.8q0-.4.2-.6l.6-.2h8.1q.4 0 .6.2.3.2.2.6v34.6q0 .4-.2.6-.2.3-.6.2zm25 .4q-4.9 0-8.2-2.6a12 12 0 0 1-4.5-7.2q-.6-1.8-.5-4 0-2.6.6-4.7 1.3-4.2 4.6-6.8 3.3-2.4 8-2.4 5 0 8.2 2.4 3.3 2.6 4.5 6.7a17 17 0 0 1 .2 8.5 13 13 0 0 1-4.4 7.4 13 13 0 0 1-8.5 2.7m0-8.3q1.4 0 2.2-1 1-.8 1.1-2.3.3-1 .3-2.3l-.3-2.4q-.7-3-3.3-3t-3.2 3q-.3.8-.3 2.4 0 1.2.2 2.3.7 3.3 3.3 3.3m42.1-12.3q1.2 3 1.2 6.7 0 3-.8 5.7-1.1 3.8-3.9 6a10 10 0 0 1-6.2 2.2q-4.1 0-6-2.8l-.2-.1-.1.2v1.5q0 .4-.3.6-.2.3-.5.2h-8.2q-.4 0-.6-.2l-.2-.6V97.8q0-.4.2-.6l.6-.2h8.2q.3 0 .5.2t.3.6v10.5h.3q1.7-2.4 5.5-2.4t6.4 2 3.8 5.1m-9.8 10.6q.8-1.5.8-3.8 0-2.4-.8-3.9a3 3 0 0 0-2.7-1.7q-1.8 0-2.7 1.6a8 8 0 0 0-.8 4 8 8 0 0 0 .7 3.7q1 1.8 2.8 1.8a3 3 0 0 0 2.7-1.7m25.5-17.7q3.5 0 6.5 1.2t4.6 3.3a7 7 0 0 1 1.7 4.4v17.6q0 .4-.2.6-.2.3-.6.2h-8.1q-.4 0-.6-.2l-.2-.6v-2l-.3.1a5 5 0 0 1-2.4 2.3q-1.6.9-4 .8-4.4 0-6.7-2a7 7 0 0 1-2.5-5.6q0-3.9 2.8-6a13 13 0 0 1 8-2.2h4.8q.3 0 .3-.2v-1q0-1-.8-1.7t-2.1-.7q-1 0-1.7.3t-1 .9l-.4.4q-.2.2-.5.1l-8.3-1q-.8 0-.8-.6.3-2.4 1.9-4.3t4.4-3q2.9-1 6.2-1.1m-.7 21q1.6 0 2.8-.9a3 3 0 0 0 1-2.4v-.6q0-.3-.3-.3h-2.5q-3.3 0-3.3 2.1 0 1 .6 1.5t1.7.6m17.7 6.3-.6-.2-.2-.6V97.8q0-.4.2-.6l.6-.2h8.2l.6.2.2.6v34.6q0 .4-.2.6-.3.3-.6.2zm36.1-8.6q-.2 0-.1.2h12.5q.3 0 .5.3t.2.6v6.7q0 .4-.2.6-.2.3-.5.2h-24.9q-.3 0-.5-.2t-.2-.6v-6.3q0-.6.4-1l4.7-4.4 3-3 3.4-3.4q4.7-4.5 4.7-6.5 0-1.3-1-2.1t-2.4-.8-2.4.8q-1 .9-1 2.2v1l-.1.6-.6.2h-8.3q-.3 0-.5-.2t-.2-.6v-2.6q.2-3 2-5.2 1.8-2.1 4.7-3.3 2.8-1.2 6.4-1.2 4 0 7 1.4 3 1.5 4.6 4t1.6 5.6q0 2-1 4.1t-3 4.4a93 93 0 0 1-6.6 6.4zm29.5 9.2q-6.2 0-9.7-3.4a12 12 0 0 1-3.6-9.4v-11.8q0-5.9 3.6-9.2 3.5-3.4 9.7-3.4 6 0 9.7 3.4 3.6 3.3 3.6 9.2V121q0 5.9-3.6 9.4a13 13 0 0 1-9.7 3.4m0-8.3q1.6 0 2.6-1 1-1.1 1-3V109q0-1.8-1-3-1-1-2.6-1t-2.6 1q-1 1.2-1 3v12.6q0 1.9 1 3 1 1 2.6 1m29.9-1q-.2 0-.1.2h12.5q.3 0 .5.3t.3.6v6.7q0 .4-.3.6-.2.3-.5.2h-24.8q-.5 0-.6-.2-.2-.2-.2-.6v-6.3q0-.6.4-1a90 90 0 0 0 7.6-7.4l3.5-3.4q4.7-4.5 4.7-6.5 0-1.3-1-2.1t-2.3-.8-2.5.8q-.9.9-.9 2.2v1q0 .4-.2.6l-.6.2H255q-.3 0-.5-.2t-.2-.6v-2.6q.2-3 2-5.2 1.7-2.1 4.7-3.3 2.9-1.2 6.5-1.2 4 0 7 1.4 3 1.5 4.5 4 1.6 2.5 1.6 5.6 0 2-1 4.1t-3 4.4a93 93 0 0 1-6.6 6.4zm41.2-8.4q1 2 1 5.1t-1 5.1a11 11 0 0 1-4.7 5.2q-3.2 1.9-7.4 2-4.2 0-7.3-2a11 11 0 0 1-4.7-5.2q-1-2.3-1-5V106a8 8 0 0 1 1.6-5q1.5-2.1 4.5-3.3 2.8-1.2 6.6-1.2 3.6 0 6.5 1.2 2.7 1.2 4.4 3.3 1.5 2.2 1.5 5v1.8q0 .4-.2.6l-.5.2H300q-.4 0-.6-.2l-.2-.6v-.3q0-1.2-.8-1.9-.8-.8-2-.8a3 3 0 0 0-2 .8q-.9.7-.9 1.9v3.3l.1.2h.2a8 8 0 0 1 4.8-1.3q3.3 0 6 1.6t4.3 4.8m-9.5 7.7q.7-1 .7-2.4a4 4 0 0 0-.7-2.5q-.9-1-2.5-1.1-1.7 0-2.7 1.1-.6 1-.6 2.4 0 1.5.6 2.5.9 1.3 2.6 1.3 1.6 0 2.6-1.3"/>
  </g>
  <path fill="#fff" d="M27.2 634.5h9l3.4 12.8h.3l.6-3.2 2.7-9.6h9l4 24.4h-8.5l-1.2-13.4h-.2l-.2 1.3-.4 1.2-3.5 10.9h-5.1l-3.2-10.3-.6-3h-.2l-.3 2.9-1 10.4h-8.5zm74.4 22.1h-.2l-1.2 1a6 6 0 0 1-2.5 1.4q-.7.3-1.6.2a6 6 0 0 1-3-.8 8 8 0 0 1-2.3-2q-1-1.3-1.4-2.9a11 11 0 0 1 1.4-9.3q1-1.2 2.3-2 1.4-.9 3.3-.9 1.6 0 2.8.6t2.2 1.9h.2l-.3-2h8.2v17h-8.2zm-4.4-6.4q0 1 .5 1.8.5.7 1.6.7t1.7-.8.6-1.8-.7-1.6-1.6-.6a2 2 0 0 0-1.6.7q-.5.6-.5 1.6m60.8-19.8a5 5 0 0 1 3.2 1.1q1.3 1 1.3 3a4 4 0 0 1-1.4 3q-.6.5-1.4.7a6 6 0 0 1-3.5 0q-.8-.2-1.4-.7a4 4 0 0 1-1.4-3q0-2 1.3-3t3.3-1m-4.2 11.3h8.3V659h-8.3zm61.1 2.7h.2l2.3-2.3 1.4-.6q.8-.3 1.8-.3 1.6 0 2.7.6t1.9 1.5a6 6 0 0 1 1 2.2l.3 2.7v10.6h-8.3v-9.2l-.2-.8q0-.3-.4-.6l-.8-.2q-.5 0-.8.2t-.4.6l-.2.8v9.2h-8.3v-17.2h8.1zm64.9 5.7-1.8 2.2v.2l1.7-.2h4.8v6.5h-18v-1.2l5-7.7 1.7-2-2 .2h-4v-6.5H285v1z"/>
  <path fill="#fdfdfd" d="M65.2 674.6H14.3v-63h50.9zm-4-59H18.3v55h42.9zm63.4 59H73.7v-63h51zm-4-59H77.7v55h43zm62.8 59h-50.9v-63h50.9zm-4-59h-42.9v55h42.9zm62.8 59h-50.8v-63h50.8zm-4-59h-42.8v55h42.8zm62.8 59h-50.8v-63h50.9zm-4-59h-42.8v55h42.9z"/>
  <rect width="24.5" height="9.5" x="145.4" y="589.6" fill="#389725"/>
  <path fill="#476cdb" d="M97.6 599.1h18V531l.3-2.2 1.1-1.6 1.7-1 2-.3 2 .4 1.7 1 .7.7.5.8.3 1 .1 1.2v68.2h17.1v-53.5l.2-3.7.7-3.3 1.2-2.7 1.6-2.2 2.1-1.7 2.5-1.3 2.9-.7 3.1-.2 3 .2 2.8.7 2.6 1.3 2.1 1.7 1.7 2.2 1.4 2.7.9 3.3.3 3.8V599h17v-69.3l.4-1 .5-1 .7-.7 1.7-1 2-.3 2 .4 1.6 1 1.1 1.5.3 1V599h18.1l-.4-94.6-59.5-54h-.2v.2l-59.4 53.8z"/>
  <path fill="#ca3b33" d="M14.3 599.1h43.6l.5-94.6H43.8v-45.3l-29.5.2z"/>
  <path fill="#8d4baf" d="M62 599.1h31.6l-.2-94.6H62.2z"/>
  <path fill="#9558b2" d="M14.3 455.6h29.5v-8h13.9v-21H14.3z"/>
  <path fill="#8d4baf" d="m67.2 372.3-31-91.7v-3l.8-.5.4-.7H41v-1.8h-4l-.7-.7v-2.7h-1.5v2.7l-.6.3-.5.4h-3.2v1.8h2.9l.6.7.8.4v3.1h.1L6 372z"/>
  <rect width="64.7" height="38.9" x="125.2" y="408" fill="#476cdb"/>
  <path fill="#476cdb" d="M257.3 599.1h43.6V459.4l-29.6-.2v45.3h-14.6z"/>
  <path fill="#419c2e" d="M154.5 147.5h-.2L84.5 363l37.3-6.6z"/>
  <path fill="#476cdb" d="m160.9 147.5 32.5 208.9 37.3 6.6z"/>
  <path fill="#419c2e" d="m95.8 501.3 56.3-50.5h-104l.2 50.4z"/>
  <path fill="#ca3b33" d="m219.3 501.3 47.6-.1.1-50.4H163z"/>
  <path fill="#476cdb" d="m89.7 411.1 32-5.7v-45.6l-36.5 6 4.5 7z"/>
  <path fill="#389725" d="M31.5 368v-11l5.7-9 5.5 9v11z"/>
  <path fill="#419c2e" d="M225.5 411.1v-38.3l4.5-7-36.7-6v45.6zm31.6 12.3 43.8-.4v-36.5l7.6-11.7H249l8 13.4z"/>
  <path fill="#ca3c33" d="M89.7 448h32v-40l-32 6.3z"/>
  <path fill="#389725" d="M221.6 599.1h31.5l-.1-94.6h-31.2z"/>
  <path fill="#ca3c33" d="M193.3 448h32.2v-33.7l-32.2-6.3z"/>
  <path fill="#8d4baf" d="M271.3 455.6H301v-29h-43.4v21h13.8z"/>
  <path fill="#ca3c33" d="m248 372.3 61.2-.5-29.2-91.3.2-3 .8-.5.7-.7h2.8v-1.8h-3.2l-.5-.4-.6-.2V271h-1.4v2.7l-.8.7h-3.8v1.7h3.4l.6.7.6.5v3zm-89-224.8h-.7v-2.2l1-.6.6-1h2v-1.2h-2l-.5-1.1-1.1-.6v-1.5H157v1.6l-1.1.5-.5 1h-2v1.3h2l.6 1 1 .6v2.2h-.7L126 356.4h63.2z"/>
  <rect width="4.7" height="14.8" x="28.1" y="563.3" fill="#2466ea"/>
  <rect width="4.7" height="14.8" x="28.1" y="531.2" fill="#389725"/>
  <rect width="4.7" height="14.8" x="28.1" y="501.2" fill="#8d4baf"/>
  <rect width="4.7" height="14.8" x="28.1" y="471.5" fill="#2466ea"/>
  <path fill="#ca3c33" d="M147.3 511.4v-26.1l.1-1.7.5-1.6.8-1.4 1.2-1.4 1.5-1 1.7-.9 2.1-.5 2.4-.2 2.4.2 2 .5 1.8.8 1.4 1.1 1.2 1.4.9 1.4.5 1.6.1 1.7v26.1z"/>
  <rect width="4.7" height="14.8" x="282.4" y="563.3" fill="#389725"/>
  <rect width="4.7" height="14.8" x="282.4" y="531.2" fill="#8d4baf"/>
  <rect width="4.7" height="14.8" x="282.4" y="501.2" fill="#ca3b33"/>
  <rect width="4.7" height="14.8" x="282.4" y="471.5" fill="#389725"/>
  <path fill="#ca3c33" d="m58 423.4.1-35.2 8-13.5H6.7l7.6 11.8V423z"/>
  <path fill="#8d4baf" d="M27.2 420.9v-36.5l.2-1.2.5-1.2.8-1.2 1.1-1 1.4-.8 1.4-.7 1.7-.4 2-.1h2l1.7.4 1.6.6 1.4.7 1 .9.9 1 .5 1.1.2 1.3v37z"/>
  <path fill="#2466ea" d="M31.2 417.3h10.4v-31.1l-.1-1-.3-.8-1.2-1.6-1.7-1-2-.4-2 .4-1.7 1-1 1.5-.4 1.9zm2.5-51h6.8v-8l-3.4-6.4-3.4 6.4z"/>
  <path fill="#ca3c33" d="M97.7 404.5v-26.2l.2-1.5.6-1.5 1-1.6 1.3-1.4 1.5-1.4 1.8-1 2-.7 2-.2 1.6.1 1.5.5 1.3.5 1.2.8 1 1 .8 1 .4 1.1.2 1.1v26.3z"/>
  <path fill="#389725" d="m101.7 400.9 10.4-1.9v-22.2l-.3-1.6-1-1.2-1.4-1-1.7-.2-1.2.1-1.1.4-1.9 1.3-1.3 2-.4 1z"/>
  <rect width="64.7" height="45.4" x="125.2" y="359.8" fill="#8d4baf"/>
  <path fill="#ca3c33" d="M269.6 420.9v-37.1l.1-1.3.5-1 .8-1.1 1.2-.9 1.4-.7 1.5-.6 1.9-.4h2l1.8.1 1.7.4 1.5.7 1.3.8 1.1 1 .8 1.2.6 1.2.2 1.2V421z"/>
  <path fill="#389725" d="M151.5 352.3v-11l6-7.8 6.2 7.8v11z"/>
  <path fill="#2466ea" d="M153.4 350.5h8.4v-8l-4.2-5-4.2 5zm120.2 66.8H284v-31.1l-.4-1.8-1.1-1.6-1.7-1-2-.4-1.9.4-1.7 1-1.2 1.5-.4 1v31.9"/>
  <path fill="#ca3c33" d="M274.7 366.3h6.7v-8l-3.3-6.4-3.4 6.4zm-57.3 38.2-18.4-3.1v-26.2l.2-1.1.4-1.1.8-1 1-1 1.2-.8 1.4-.6 1.5-.4 1.6-.2 2 .3 2 .8 1.7 1 1.5 1.2 1.3 1.5 1 1.5.6 1.6.2 1.4z"/>
  <path fill="#8d4baf" d="M213.5 400.9v-22.3l-.2-1-.4-1-1.2-2-2-1.3-1-.4h-1.3l-1.7.2-1.4.9-1 1.2-.3 1.6V399z"/>
  <path fill="#ca3c33" d="M272.5 368v-11l5.4-9 5.8 9v11zm-60-13.3-9.3-1.7v-11l4.7-7.2 4.7 8.9z"/>
  <path fill="#8d4baf" d="M210.6 352.5v-8L208 339l-2.8 4.5v8z"/>
  <path fill="#ca3c33" d="M102.6 354.7v-11l4.7-8.8 4.6 7v11z"/>
  <path fill="#2466ea" d="m104.6 352.5 5.4-1v-8l-2.7-4.5-2.7 5.5z"/>
</svg>
