<?xml version="1.0" encoding="UTF-8" standalone="no"?>
<!DOCTYPE svg PUBLIC "-//W3C//DTD SVG 1.1//EN" "http://www.w3.org/Graphics/SVG/1.1/DTD/svg11.dtd">
<svg width="100%" height="100%" viewBox="0 0 248 124" version="1.1" xmlns="http://www.w3.org/2000/svg" xmlns:xlink="http://www.w3.org/1999/xlink" xml:space="preserve" xmlns:serif="http://www.serif.com/" style="fill-rule:evenodd;clip-rule:evenodd;stroke-linejoin:round;stroke-miterlimit:2;">
    <g transform="matrix(1.23581,0,0,1.23581,-1260.1,-43.1599)">
        <g transform="matrix(1.00878,0,0,1.02375,649.055,-2.01697)">
            <path d="M466.501,36.084L375.135,36.084C370.85,36.084 367.371,39.512 367.371,43.734L367.371,126.143C367.371,130.349 370.837,133.764 375.106,133.764L466.501,133.764L466.501,36.084Z" style="fill:#efefef;"/>
        </g>
        <g transform="matrix(1.00878,0,0,1.02375,749.055,-2.01697)">
            <path d="M466.501,43.881C466.501,39.578 462.955,36.084 458.588,36.084L367.371,36.084L367.371,133.764L458.943,133.764C463.114,133.764 466.501,130.427 466.501,126.317L466.501,43.881Z" style="fill:#030303;"/>
        </g>
        <g transform="matrix(2.49412,0,0,2.49412,-242.192,-82.9117)">
            <g transform="matrix(30,0,0,30,547.818,73.98)">
                <path d="M0.025,-0.629C0.039,-0.629 0.054,-0.63 0.07,-0.633C0.086,-0.636 0.101,-0.641 0.114,-0.647C0.127,-0.654 0.138,-0.663 0.147,-0.675C0.156,-0.686 0.16,-0.701 0.16,-0.719L0.386,-0.719L0.386,-0.234C0.386,-0.212 0.392,-0.198 0.402,-0.191C0.413,-0.184 0.426,-0.181 0.443,-0.181L0.476,-0.181L0.476,-0L0.035,-0L0.035,-0.181L0.074,-0.181C0.091,-0.181 0.104,-0.187 0.113,-0.198C0.121,-0.208 0.125,-0.22 0.125,-0.233L0.125,-0.468L0.025,-0.468L0.025,-0.629Z" style="fill:#efefef;fill-rule:nonzero;"/>
            </g>
            <g transform="matrix(30,0,0,30,562.195,73.98)">
                <path d="M0.022,-0.354C0.022,-0.414 0.031,-0.467 0.049,-0.514C0.067,-0.561 0.092,-0.6 0.124,-0.632C0.156,-0.663 0.194,-0.688 0.239,-0.704C0.283,-0.721 0.331,-0.729 0.384,-0.729C0.437,-0.729 0.485,-0.721 0.53,-0.704C0.574,-0.688 0.612,-0.663 0.644,-0.632C0.676,-0.6 0.701,-0.561 0.719,-0.514C0.737,-0.467 0.746,-0.414 0.746,-0.354C0.746,-0.294 0.737,-0.241 0.719,-0.194C0.701,-0.147 0.676,-0.108 0.644,-0.076C0.612,-0.045 0.574,-0.021 0.53,-0.004C0.485,0.013 0.437,0.021 0.384,0.021C0.331,0.021 0.283,0.013 0.239,-0.004C0.194,-0.021 0.156,-0.045 0.124,-0.076C0.092,-0.108 0.067,-0.147 0.049,-0.194C0.031,-0.241 0.022,-0.294 0.022,-0.354ZM0.304,-0.354C0.304,-0.276 0.309,-0.22 0.32,-0.186C0.331,-0.152 0.352,-0.135 0.384,-0.135C0.416,-0.135 0.437,-0.152 0.448,-0.186C0.459,-0.22 0.464,-0.276 0.464,-0.354C0.464,-0.432 0.459,-0.488 0.448,-0.522C0.437,-0.556 0.416,-0.573 0.384,-0.573C0.352,-0.573 0.331,-0.556 0.32,-0.522C0.309,-0.488 0.304,-0.432 0.304,-0.354Z" style="fill:#efefef;fill-rule:nonzero;"/>
            </g>
        </g>
        <g transform="matrix(1.17052,0,0,1.17052,482.368,44.5887)">
            <g transform="matrix(22.1942,0,0,22.1942,547.818,68.4715)">
                <path d="M0.164,0.174C0.173,0.175 0.184,0.175 0.197,0.177C0.209,0.178 0.224,0.178 0.242,0.178C0.291,0.178 0.33,0.172 0.36,0.16C0.389,0.147 0.412,0.125 0.427,0.094L0.713,-0.51L0.505,-0.51L0.358,-0.155L0.211,-0.51L0.003,-0.51L0.237,-0.022L0.305,-0.022C0.305,0.007 0.294,0.027 0.271,0.037C0.248,0.047 0.218,0.052 0.18,0.052L0.164,0.052L0.164,0.174Z" style="fill:#efefef;fill-rule:nonzero;"/>
            </g>
            <g transform="matrix(22.1942,0,0,22.1942,562.6,68.4715)">
                <path d="M0.042,-0.234C0.042,-0.179 0.05,-0.136 0.065,-0.104C0.08,-0.072 0.1,-0.048 0.125,-0.031C0.15,-0.014 0.178,-0.004 0.209,0.001C0.24,0.006 0.271,0.008 0.303,0.008L0.447,0.008C0.482,0.008 0.514,0.006 0.545,0.002C0.576,-0.003 0.603,-0.011 0.626,-0.022C0.649,-0.033 0.667,-0.049 0.68,-0.07C0.693,-0.09 0.7,-0.116 0.7,-0.148L0.7,-0.17L0.52,-0.17C0.52,-0.163 0.519,-0.156 0.518,-0.149C0.516,-0.141 0.511,-0.135 0.505,-0.13C0.498,-0.125 0.487,-0.12 0.472,-0.117C0.457,-0.114 0.437,-0.112 0.411,-0.112L0.352,-0.112C0.312,-0.112 0.282,-0.117 0.263,-0.126C0.244,-0.135 0.234,-0.154 0.234,-0.181L0.234,-0.212L0.7,-0.212L0.7,-0.298C0.7,-0.342 0.695,-0.378 0.684,-0.407C0.673,-0.436 0.656,-0.458 0.633,-0.475C0.61,-0.491 0.58,-0.502 0.543,-0.509C0.506,-0.515 0.463,-0.518 0.412,-0.518L0.278,-0.518C0.243,-0.518 0.211,-0.515 0.182,-0.509C0.153,-0.502 0.129,-0.49 0.108,-0.473C0.087,-0.456 0.07,-0.432 0.059,-0.401C0.048,-0.37 0.042,-0.331 0.042,-0.283L0.042,-0.234ZM0.234,-0.326C0.234,-0.341 0.236,-0.354 0.239,-0.363C0.242,-0.372 0.248,-0.38 0.258,-0.385C0.267,-0.39 0.281,-0.394 0.3,-0.396C0.318,-0.397 0.343,-0.398 0.374,-0.398C0.402,-0.398 0.425,-0.397 0.443,-0.396C0.461,-0.394 0.475,-0.39 0.486,-0.385C0.497,-0.38 0.504,-0.372 0.508,-0.363C0.512,-0.354 0.514,-0.341 0.514,-0.326L0.234,-0.326Z" style="fill:#efefef;fill-rule:nonzero;"/>
            </g>
            <g transform="matrix(22.1942,0,0,22.1942,579.068,68.4715)">
                <path d="M0.034,-0.137C0.034,-0.107 0.039,-0.083 0.048,-0.064C0.056,-0.045 0.069,-0.03 0.086,-0.019C0.103,-0.008 0.123,-0.001 0.147,0.003C0.17,0.006 0.197,0.008 0.226,0.008L0.357,0.008C0.381,0.008 0.401,0.007 0.417,0.006C0.432,0.004 0.446,0 0.458,-0.005C0.469,-0.01 0.48,-0.016 0.491,-0.025C0.501,-0.033 0.513,-0.044 0.526,-0.058L0.526,-0L0.708,-0L0.708,-0.335C0.708,-0.396 0.691,-0.441 0.657,-0.472C0.623,-0.503 0.573,-0.518 0.506,-0.518L0.283,-0.518C0.242,-0.518 0.208,-0.516 0.179,-0.512C0.15,-0.508 0.126,-0.5 0.107,-0.489C0.088,-0.478 0.075,-0.462 0.066,-0.441C0.057,-0.42 0.053,-0.392 0.053,-0.357L0.239,-0.357C0.24,-0.375 0.245,-0.386 0.256,-0.391C0.266,-0.396 0.285,-0.398 0.313,-0.398L0.426,-0.398C0.445,-0.398 0.46,-0.397 0.472,-0.395C0.483,-0.392 0.492,-0.388 0.499,-0.383C0.506,-0.378 0.51,-0.371 0.513,-0.362C0.515,-0.353 0.516,-0.343 0.516,-0.33L0.516,-0.285C0.507,-0.294 0.496,-0.302 0.484,-0.308C0.472,-0.313 0.458,-0.317 0.442,-0.32C0.425,-0.323 0.407,-0.324 0.386,-0.325C0.365,-0.326 0.342,-0.326 0.316,-0.326C0.269,-0.326 0.229,-0.325 0.194,-0.323C0.159,-0.32 0.129,-0.314 0.106,-0.305C0.082,-0.295 0.064,-0.28 0.052,-0.261C0.04,-0.241 0.034,-0.214 0.034,-0.179L0.034,-0.137ZM0.321,-0.112C0.283,-0.112 0.257,-0.116 0.242,-0.123C0.227,-0.13 0.22,-0.141 0.22,-0.158C0.22,-0.169 0.221,-0.178 0.224,-0.185C0.227,-0.192 0.232,-0.199 0.239,-0.204C0.246,-0.209 0.256,-0.212 0.269,-0.215C0.282,-0.217 0.298,-0.218 0.318,-0.218L0.403,-0.218C0.43,-0.218 0.451,-0.217 0.466,-0.215C0.481,-0.213 0.493,-0.21 0.501,-0.206C0.509,-0.202 0.514,-0.197 0.517,-0.19C0.519,-0.183 0.52,-0.175 0.52,-0.166C0.52,-0.157 0.519,-0.15 0.516,-0.143C0.513,-0.136 0.507,-0.131 0.498,-0.126C0.488,-0.121 0.473,-0.118 0.454,-0.116C0.435,-0.113 0.409,-0.112 0.376,-0.112L0.321,-0.112Z" style="fill:#efefef;fill-rule:nonzero;"/>
            </g>
            <g transform="matrix(22.1942,0,0,22.1942,594.937,68.4715)">
                <path d="M0.066,-0L0.258,-0L0.258,-0.282C0.258,-0.313 0.268,-0.335 0.289,-0.348C0.31,-0.361 0.337,-0.368 0.37,-0.368C0.389,-0.368 0.405,-0.366 0.417,-0.362C0.429,-0.358 0.438,-0.352 0.445,-0.344C0.452,-0.336 0.456,-0.326 0.459,-0.314C0.461,-0.302 0.462,-0.288 0.462,-0.272L0.628,-0.272C0.629,-0.281 0.629,-0.29 0.63,-0.297C0.63,-0.304 0.63,-0.31 0.63,-0.317C0.63,-0.388 0.615,-0.439 0.585,-0.471C0.555,-0.502 0.505,-0.518 0.435,-0.518C0.413,-0.518 0.392,-0.516 0.372,-0.513C0.352,-0.51 0.334,-0.504 0.317,-0.496C0.3,-0.488 0.286,-0.477 0.274,-0.464C0.262,-0.45 0.253,-0.433 0.248,-0.413L0.246,-0.413L0.246,-0.51L0.066,-0.51L0.066,-0Z" style="fill:#efefef;fill-rule:nonzero;"/>
            </g>
            <g transform="matrix(22.1942,0,0,22.1942,608.63,68.4715)">
                <path d="M0.047,-0.159C0.047,-0.128 0.051,-0.101 0.06,-0.08C0.069,-0.059 0.083,-0.042 0.102,-0.029C0.121,-0.016 0.146,-0.006 0.177,-0.001C0.208,0.005 0.245,0.008 0.289,0.008L0.471,0.008C0.526,0.008 0.571,0.006 0.606,0.001C0.641,-0.005 0.669,-0.014 0.69,-0.027C0.71,-0.04 0.724,-0.057 0.732,-0.079C0.74,-0.1 0.744,-0.128 0.744,-0.162C0.744,-0.185 0.742,-0.206 0.738,-0.227C0.733,-0.247 0.723,-0.265 0.707,-0.28C0.69,-0.295 0.666,-0.308 0.633,-0.317C0.6,-0.326 0.554,-0.33 0.497,-0.33L0.364,-0.33C0.339,-0.33 0.319,-0.331 0.304,-0.332C0.289,-0.333 0.277,-0.334 0.269,-0.337C0.261,-0.339 0.256,-0.342 0.253,-0.346C0.25,-0.35 0.249,-0.355 0.249,-0.36C0.249,-0.369 0.251,-0.376 0.254,-0.381C0.257,-0.386 0.264,-0.389 0.274,-0.392C0.283,-0.395 0.297,-0.396 0.314,-0.397C0.331,-0.398 0.353,-0.398 0.381,-0.398C0.41,-0.398 0.433,-0.398 0.451,-0.397C0.468,-0.396 0.482,-0.394 0.492,-0.392C0.502,-0.389 0.509,-0.386 0.514,-0.381C0.518,-0.376 0.521,-0.37 0.524,-0.363L0.716,-0.363C0.715,-0.393 0.711,-0.418 0.704,-0.438C0.697,-0.458 0.682,-0.474 0.661,-0.486C0.64,-0.497 0.61,-0.506 0.571,-0.511C0.532,-0.516 0.482,-0.518 0.419,-0.518L0.285,-0.518C0.252,-0.518 0.221,-0.516 0.193,-0.513C0.164,-0.51 0.139,-0.503 0.119,-0.493C0.098,-0.482 0.081,-0.468 0.069,-0.449C0.057,-0.43 0.051,-0.404 0.051,-0.372C0.051,-0.337 0.055,-0.308 0.062,-0.285C0.069,-0.262 0.082,-0.243 0.1,-0.23C0.118,-0.216 0.142,-0.206 0.172,-0.201C0.201,-0.195 0.238,-0.192 0.283,-0.192L0.463,-0.192C0.497,-0.192 0.519,-0.189 0.53,-0.183C0.541,-0.176 0.546,-0.165 0.546,-0.15C0.546,-0.142 0.544,-0.136 0.541,-0.131C0.538,-0.126 0.532,-0.123 0.523,-0.12C0.514,-0.117 0.503,-0.115 0.488,-0.114C0.473,-0.113 0.455,-0.112 0.432,-0.112L0.364,-0.112C0.337,-0.112 0.315,-0.113 0.3,-0.116C0.284,-0.118 0.272,-0.121 0.264,-0.125C0.256,-0.129 0.251,-0.134 0.249,-0.14C0.246,-0.145 0.245,-0.152 0.245,-0.159L0.047,-0.159Z" style="fill:#efefef;fill-rule:nonzero;"/>
            </g>
        </g>
        <g transform="matrix(0.285734,0,0,0.285734,1069.65,84.9244)">
            <g transform="matrix(1,0,0,1,-160,-100)">
                <g id="surface61">
                    <path d="M67.871,164.313C67.871,171.848 67.023,177.934 65.328,182.566C63.633,187.203 61.223,190.801 58.094,193.363C54.969,195.926 51.219,197.641 46.848,198.508C42.477,199.371 37.613,199.805 32.266,199.805C25.027,199.805 19.488,198.676 15.648,196.414C11.805,194.152 9.883,191.441 9.883,188.273C9.883,185.637 10.953,183.414 13.102,181.605C15.25,179.797 18.133,178.895 21.75,178.895C24.465,178.895 26.633,179.629 28.25,181.098C29.871,182.566 31.211,184.02 32.266,185.449C33.469,187.031 34.488,188.086 35.316,188.613C36.145,189.141 36.898,189.406 37.578,189.406C39.008,189.406 40.102,188.559 40.855,186.863C41.609,185.168 41.984,181.871 41.984,176.973L41.984,84.051L67.871,76.93L67.871,164.313M104.738,79.414L104.738,139.215C104.738,140.875 105.059,142.438 105.699,143.906C106.34,145.375 107.227,146.641 108.355,147.695C109.488,148.75 110.805,149.598 112.313,150.238C113.82,150.879 115.441,151.199 117.176,151.199C119.133,151.199 121.359,150.102 124.07,148.203C128.363,145.195 130.965,143.129 130.965,140.684L130.965,79.414L156.738,79.414L156.738,164.313L130.965,164.313L130.965,156.398C127.574,159.262 123.957,161.559 120.113,163.293C116.27,165.027 112.539,165.895 108.922,165.895C104.703,165.895 100.781,165.195 97.164,163.801C93.547,162.406 90.383,160.504 87.672,158.094C84.957,155.684 82.828,152.855 81.281,149.613C79.738,146.375 78.965,142.906 78.965,139.215L78.965,79.414L104.738,79.414M192.883,164.313L167.223,164.313L167.223,45.277L192.883,38.156L192.883,164.313M203.602,84.051L229.375,76.93L229.375,164.313L203.602,164.313L203.602,84.051M283.227,120.449C280.738,121.508 278.23,122.73 275.707,124.125C273.184,125.52 270.883,127.047 268.813,128.703C266.738,130.359 265.063,132.133 263.781,134.016C262.5,135.898 261.859,137.859 261.859,139.895C261.859,141.477 262.066,143.004 262.48,144.473C262.895,145.941 263.48,147.203 264.234,148.258C264.988,149.313 265.816,150.16 266.723,150.801C267.625,151.441 268.605,151.762 269.66,151.762C271.77,151.762 273.898,151.121 276.047,149.84C278.195,148.559 280.586,146.941 283.227,144.98L283.227,120.449M309.109,164.313L283.227,164.313L283.227,157.527C281.793,158.734 280.398,159.848 279.043,160.863C277.688,161.879 276.16,162.766 274.465,163.52C272.77,164.273 270.867,164.855 268.754,165.273C266.645,165.688 264.156,165.895 261.297,165.895C257.375,165.895 253.852,165.328 250.727,164.199C247.598,163.066 244.941,161.523 242.758,159.563C240.57,157.605 238.895,155.285 237.727,152.609C236.559,149.938 235.973,147.016 235.973,143.852C235.973,140.609 236.594,137.672 237.84,135.031C239.082,132.395 240.777,130.023 242.926,127.91C245.074,125.801 247.578,123.918 250.441,122.258C253.305,120.602 256.379,119.074 259.656,117.68C262.934,116.285 266.344,115.008 269.887,113.84C273.426,112.672 276.934,111.559 280.398,110.504L283.227,109.824L283.227,101.461C283.227,96.035 282.188,92.191 280.117,89.93C278.043,87.668 275.273,86.539 271.809,86.539C267.738,86.539 264.91,87.52 263.328,89.477C261.746,91.438 260.953,93.809 260.953,96.598C260.953,98.18 260.785,99.727 260.445,101.234C260.109,102.742 259.523,104.059 258.695,105.191C257.867,106.32 256.68,107.227 255.133,107.902C253.59,108.582 251.648,108.922 249.313,108.922C245.695,108.922 242.758,107.883 240.496,105.813C238.234,103.738 237.105,101.121 237.105,97.953C237.105,95.016 238.102,92.285 240.098,89.762C242.098,87.234 244.789,85.066 248.184,83.262C251.574,81.449 255.492,80.02 259.938,78.965C264.383,77.91 269.094,77.383 274.066,77.383C280.172,77.383 285.43,77.93 289.84,79.02C294.246,80.113 297.883,81.676 300.746,83.711C303.609,85.746 305.719,88.195 307.074,91.059C308.434,93.922 309.109,97.129 309.109,100.668L309.109,164.313" style="fill-rule:nonzero;"/>
                    <path d="M235.273,55.09C235.273,64.758 227.438,72.59 217.773,72.59C208.105,72.59 200.273,64.758 200.273,55.09C200.273,45.426 208.105,37.59 217.773,37.59C227.438,37.59 235.273,45.426 235.273,55.09" style="fill:#ca3b33;fill-rule:nonzero;"/>
                    <path d="M72.953,55.09C72.953,64.758 65.117,72.59 55.453,72.59C45.789,72.59 37.953,64.758 37.953,55.09C37.953,45.426 45.789,37.59 55.453,37.59C65.117,37.59 72.953,45.426 72.953,55.09" style="fill:#4062d7;fill-rule:nonzero;"/>
                    <path d="M277.32,55.09C277.32,64.758 269.484,72.59 259.82,72.59C250.156,72.59 242.32,64.758 242.32,55.09C242.32,45.426 250.156,37.59 259.82,37.59C269.484,37.59 277.32,45.426 277.32,55.09" style="fill:#9457b1;fill-rule:nonzero;"/>
                    <path d="M256.301,18.672C256.301,28.336 248.465,36.172 238.801,36.172C229.133,36.172 221.301,28.336 221.301,18.672C221.301,9.008 229.133,1.172 238.801,1.172C248.465,1.172 256.301,9.008 256.301,18.672" style="fill:#389725;fill-rule:nonzero;"/>
                </g>
            </g>
        </g>
    </g>
</svg>
