<?xml version="1.0" encoding="UTF-8" standalone="no"?>
<!DOCTYPE svg PUBLIC "-//W3C//DTD SVG 1.1//EN" "http://www.w3.org/Graphics/SVG/1.1/DTD/svg11.dtd">
<svg width="100%" height="100%" viewBox="0 0 251 251" version="1.1" xmlns="http://www.w3.org/2000/svg" xmlns:xlink="http://www.w3.org/1999/xlink" xml:space="preserve" xmlns:serif="http://www.serif.com/" style="fill-rule:evenodd;clip-rule:evenodd;stroke-miterlimit:10;">
    <g transform="matrix(0.250672,0,0,0.250672,125.336,125.336)">
        <g transform="matrix(1,0,0,1,-500,-500)">
            <clipPath id="_clip1">
                <rect x="0" y="0" width="1000" height="1000"/>
            </clipPath>
            <g clip-path="url(#_clip1)">
                <path d="M990,500C990,675.059 896.605,836.824 745,924.352C593.395,1011.88 406.605,1011.88 255,924.352C103.395,836.824 10,675.059 10,500C10,324.941 103.395,163.176 255,75.648C406.605,-11.882 593.395,-11.882 745,75.648C896.605,163.176 990,324.941 990,500" style="fill:#1a1a1a;fill-rule:nonzero;"/>
                <path d="M990,500C990,675.059 896.605,836.824 745,924.352C593.395,1011.88 406.605,1011.88 255,924.352C103.395,836.824 10,675.059 10,500C10,324.941 103.395,163.176 255,75.648C406.605,-11.882 593.395,-11.882 745,75.648C896.605,163.176 990,324.941 990,500L930,500C930,653.625 848.043,795.578 715,872.39C581.957,949.203 418.043,949.203 285,872.39C151.957,795.579 70,653.626 70,500C70,346.374 151.957,204.422 285,127.61C418.043,50.797 581.957,50.797 715,127.61C848.043,204.421 930,346.374 930,500" style="fill:#ffd700;fill-rule:nonzero;"/>
                <path d="M990,500C990,675.059 896.605,836.824 745,924.352C593.395,1011.88 406.605,1011.88 255,924.352C103.395,836.824 10,675.059 10,500C10,324.941 103.395,163.176 255,75.648C406.605,-11.882 593.395,-11.882 745,75.648C896.605,163.176 990,324.941 990,500" style="fill:none;fill-rule:nonzero;stroke:#1a1a1a;stroke-width:15px;"/>
                <path d="M857.39,595.762L820.43,685M857.39,595.762L870,500M857.39,595.762L772.543,612.891M857.39,595.762L792.477,538.504M820.43,685L761.629,761.629M820.43,685L772.543,612.89M820.43,685L734.04,679.586M761.629,761.629L685,820.429M761.629,761.629L734.039,679.586M761.629,761.629L679.586,734.039M685,820.43L595.762,857.39M685,820.43L679.586,734.04M685,820.43L612.89,772.543M595.762,857.39L500,870M595.762,857.39L612.891,772.543M595.762,857.39L538.504,792.477M500,870L404.238,857.39M500,870L538.504,792.477M500,870L461.496,792.477M404.238,857.39L315,820.43M404.238,857.39L461.496,792.477M404.238,857.39L387.109,772.543M315,820.43L238.371,761.629M315,820.43L387.11,772.543M315,820.43L320.414,734.04M238.371,761.629L179.571,685M238.371,761.629L320.414,734.039M238.371,761.629L265.961,679.586M179.57,685L142.61,595.762M179.57,685L265.96,679.586M179.57,685L227.457,612.89M142.61,595.762L130,500M142.61,595.762L227.457,612.891M142.61,595.762L207.523,538.504M130,500L142.61,404.238M130,500L207.523,538.504M130,500L207.523,461.496M142.61,404.238L179.57,315M142.61,404.238L207.523,461.496M142.61,404.238L227.457,387.109M179.57,315L238.371,238.371M179.57,315L227.457,387.11M179.57,315L265.96,320.414M238.371,238.371L315,179.571M238.371,238.371L265.961,320.414M238.371,238.371L320.414,265.961M315,179.57L404.238,142.61M315,179.57L320.414,265.96M315,179.57L387.11,227.457M404.238,142.61L500,130M404.238,142.61L387.109,227.457M404.238,142.61L461.496,207.523M500,130L595.762,142.61M500,130L461.496,207.523M500,130L538.504,207.523M595.762,142.61L685,179.57M595.762,142.61L538.504,207.523M595.762,142.61L612.891,227.457M685,179.57L761.629,238.371M685,179.57L612.89,227.457M685,179.57L679.586,265.96M761.629,238.371L820.429,315M761.629,238.371L679.586,265.961M761.629,238.371L734.039,320.414M820.43,315L857.39,404.238M820.43,315L734.04,320.414M820.43,315L772.543,387.11M857.39,404.238L870,500M857.39,404.238L772.543,387.109M857.39,404.238L792.477,461.496M870,500L792.477,461.496M870,500L792.477,538.504M772.543,612.89L734.039,679.586M772.543,612.89L792.477,538.504M734.04,679.586L679.586,734.039M679.586,734.04L612.891,772.543M612.89,772.543L538.504,792.477M538.504,792.477L461.496,792.477M461.496,792.477L387.109,772.543M387.11,772.543L320.414,734.039M320.414,734.04L265.961,679.586M265.96,679.586L227.457,612.891M227.457,612.89L207.523,538.504M207.523,538.504L207.523,461.496M207.523,461.496L227.457,387.109M227.457,387.11L265.961,320.414M265.96,320.414L320.414,265.961M320.414,265.96L387.109,227.457M387.11,227.457L461.496,207.523M461.496,207.523L538.504,207.523M538.504,207.523L612.891,227.457M612.89,227.457L679.586,265.961M679.586,265.96L734.039,320.414M734.04,320.414L772.543,387.109M772.543,387.11L792.477,461.496M792.477,461.496L792.477,538.504" style="fill:none;fill-rule:nonzero;stroke:#1a1a1a;stroke-width:4px;"/>
                <path d="M872.39,595.762C872.39,604.047 865.676,610.762 857.39,610.762C849.11,610.762 842.39,604.047 842.39,595.762C842.39,587.48 849.11,580.762 857.39,580.762C865.676,580.762 872.39,587.48 872.39,595.762M835.43,685C835.43,693.285 828.715,700 820.43,700C812.145,700 805.43,693.285 805.43,685C805.43,676.715 812.145,670 820.43,670C828.715,670 835.43,676.715 835.43,685M776.629,761.629C776.629,769.914 769.914,776.629 761.629,776.629C753.344,776.629 746.629,769.914 746.629,761.629C746.629,753.344 753.344,746.629 761.629,746.629C769.914,746.629 776.629,753.344 776.629,761.629M700,820.43C700,828.715 693.285,835.43 685,835.43C676.715,835.43 670,828.715 670,820.43C670,812.145 676.715,805.43 685,805.43C693.285,805.43 700,812.145 700,820.43M610.762,857.39C610.762,865.676 604.047,872.39 595.762,872.39C587.48,872.39 580.762,865.676 580.762,857.39C580.762,849.11 587.48,842.39 595.762,842.39C604.047,842.39 610.762,849.11 610.762,857.39M515,870C515,878.285 508.285,885 500,885C491.715,885 485,878.285 485,870C485,861.715 491.715,855 500,855C508.285,855 515,861.715 515,870M419.238,857.39C419.238,865.676 412.52,872.39 404.238,872.39C395.953,872.39 389.238,865.676 389.238,857.39C389.238,849.11 395.953,842.39 404.238,842.39C412.52,842.39 419.238,849.11 419.238,857.39M330,820.43C330,828.715 323.285,835.43 315,835.43C306.715,835.43 300,828.715 300,820.43C300,812.145 306.715,805.43 315,805.43C323.285,805.43 330,812.145 330,820.43M253.371,761.629C253.371,769.914 246.656,776.629 238.371,776.629C230.086,776.629 223.371,769.914 223.371,761.629C223.371,753.344 230.086,746.629 238.371,746.629C246.656,746.629 253.371,753.344 253.371,761.629M194.57,685C194.57,693.285 187.855,700 179.57,700C171.285,700 164.57,693.285 164.57,685C164.57,676.715 171.285,670 179.57,670C187.855,670 194.57,676.715 194.57,685M157.61,595.762C157.61,604.047 150.89,610.762 142.61,610.762C134.324,610.762 127.61,604.047 127.61,595.762C127.61,587.48 134.324,580.762 142.61,580.762C150.89,580.762 157.61,587.48 157.61,595.762M145,500C145,508.285 138.285,515 130,515C121.715,515 115,508.285 115,500C115,491.715 121.715,485 130,485C138.285,485 145,491.715 145,500M157.61,404.238C157.61,412.52 150.89,419.238 142.61,419.238C134.324,419.238 127.61,412.52 127.61,404.238C127.61,395.953 134.324,389.238 142.61,389.238C150.89,389.238 157.61,395.953 157.61,404.238M194.57,315C194.57,323.285 187.855,330 179.57,330C171.285,330 164.57,323.285 164.57,315C164.57,306.715 171.285,300 179.57,300C187.855,300 194.57,306.715 194.57,315M253.371,238.371C253.371,246.656 246.656,253.371 238.371,253.371C230.086,253.371 223.371,246.656 223.371,238.371C223.371,230.086 230.086,223.371 238.371,223.371C246.656,223.371 253.371,230.086 253.371,238.371M330,179.57C330,187.855 323.285,194.57 315,194.57C306.715,194.57 300,187.855 300,179.57C300,171.285 306.715,164.57 315,164.57C323.285,164.57 330,171.285 330,179.57M419.238,142.61C419.238,150.89 412.52,157.61 404.238,157.61C395.953,157.61 389.238,150.89 389.238,142.61C389.238,134.324 395.953,127.61 404.238,127.61C412.52,127.61 419.238,134.324 419.238,142.61M515,130C515,138.285 508.285,145 500,145C491.715,145 485,138.285 485,130C485,121.715 491.715,115 500,115C508.285,115 515,121.715 515,130M610.762,142.61C610.762,150.89 604.047,157.61 595.762,157.61C587.48,157.61 580.762,150.89 580.762,142.61C580.762,134.324 587.48,127.61 595.762,127.61C604.047,127.61 610.762,134.324 610.762,142.61M700,179.57C700,187.855 693.285,194.57 685,194.57C676.715,194.57 670,187.855 670,179.57C670,171.285 676.715,164.57 685,164.57C693.285,164.57 700,171.285 700,179.57M776.629,238.371C776.629,246.656 769.914,253.371 761.629,253.371C753.344,253.371 746.629,246.656 746.629,238.371C746.629,230.086 753.344,223.371 761.629,223.371C769.914,223.371 776.629,230.086 776.629,238.371M835.43,315C835.43,323.285 828.715,330 820.43,330C812.145,330 805.43,323.285 805.43,315C805.43,306.715 812.145,300 820.43,300C828.715,300 835.43,306.715 835.43,315M872.39,404.238C872.39,412.52 865.676,419.238 857.39,419.238C849.11,419.238 842.39,412.52 842.39,404.238C842.39,395.953 849.11,389.238 857.39,389.238C865.676,389.238 872.39,395.953 872.39,404.238M885,500C885,508.285 878.285,515 870,515C861.715,515 855,508.285 855,500C855,491.715 861.715,485 870,485C878.285,485 885,491.715 885,500M787.543,612.89C787.543,621.176 780.828,627.89 772.543,627.89C764.262,627.89 757.543,621.176 757.543,612.89C757.543,604.605 764.262,597.89 772.543,597.89C780.828,597.89 787.543,604.605 787.543,612.89M749.04,679.586C749.04,687.867 742.324,694.586 734.04,694.586C725.754,694.586 719.04,687.867 719.04,679.586C719.04,671.301 725.754,664.586 734.04,664.586C742.324,664.586 749.04,671.301 749.04,679.586M694.586,734.04C694.586,742.324 687.867,749.04 679.586,749.04C671.301,749.04 664.586,742.324 664.586,734.04C664.586,725.754 671.301,719.04 679.586,719.04C687.867,719.04 694.586,725.754 694.586,734.04M627.89,772.543C627.89,780.828 621.176,787.543 612.89,787.543C604.605,787.543 597.89,780.828 597.89,772.543C597.89,764.262 604.605,757.543 612.89,757.543C621.176,757.543 627.89,764.262 627.89,772.543M553.504,792.477C553.504,800.762 546.789,807.477 538.504,807.477C530.223,807.477 523.504,800.762 523.504,792.477C523.504,784.191 530.223,777.477 538.504,777.477C546.789,777.477 553.504,784.191 553.504,792.477M476.496,792.477C476.496,800.762 469.777,807.477 461.496,807.477C453.211,807.477 446.496,800.762 446.496,792.477C446.496,784.191 453.211,777.477 461.496,777.477C469.777,777.477 476.496,784.191 476.496,792.477M402.11,772.543C402.11,780.828 395.395,787.543 387.11,787.543C378.824,787.543 372.11,780.828 372.11,772.543C372.11,764.262 378.824,757.543 387.11,757.543C395.395,757.543 402.11,764.262 402.11,772.543M335.414,734.04C335.414,742.324 328.699,749.04 320.414,749.04C312.133,749.04 305.414,742.324 305.414,734.04C305.414,725.754 312.133,719.04 320.414,719.04C328.699,719.04 335.414,725.754 335.414,734.04M280.96,679.586C280.96,687.867 274.246,694.586 265.96,694.586C257.676,694.586 250.96,687.867 250.96,679.586C250.96,671.301 257.676,664.586 265.96,664.586C274.246,664.586 280.96,671.301 280.96,679.586M242.457,612.89C242.457,621.176 235.738,627.89 227.457,627.89C219.172,627.89 212.457,621.176 212.457,612.89C212.457,604.605 219.172,597.89 227.457,597.89C235.738,597.89 242.457,604.605 242.457,612.89M222.523,538.504C222.523,546.789 215.809,553.504 207.523,553.504C199.238,553.504 192.523,546.789 192.523,538.504C192.523,530.223 199.238,523.504 207.523,523.504C215.809,523.504 222.523,530.223 222.523,538.504M222.523,461.496C222.523,469.777 215.809,476.496 207.523,476.496C199.238,476.496 192.523,469.777 192.523,461.496C192.523,453.211 199.238,446.496 207.523,446.496C215.809,446.496 222.523,453.211 222.523,461.496M242.457,387.11C242.457,395.395 235.738,402.11 227.457,402.11C219.172,402.11 212.457,395.395 212.457,387.11C212.457,378.824 219.172,372.11 227.457,372.11C235.738,372.11 242.457,378.824 242.457,387.11M280.96,320.414C280.96,328.699 274.246,335.414 265.96,335.414C257.676,335.414 250.96,328.699 250.96,320.414C250.96,312.133 257.676,305.414 265.96,305.414C274.246,305.414 280.96,312.133 280.96,320.414M335.414,265.96C335.414,274.246 328.699,280.96 320.414,280.96C312.133,280.96 305.414,274.246 305.414,265.96C305.414,257.676 312.133,250.96 320.414,250.96C328.699,250.96 335.414,257.676 335.414,265.96M402.11,227.457C402.11,235.738 395.395,242.457 387.11,242.457C378.824,242.457 372.11,235.738 372.11,227.457C372.11,219.172 378.824,212.457 387.11,212.457C395.395,212.457 402.11,219.172 402.11,227.457M476.496,207.523C476.496,215.809 469.777,222.523 461.496,222.523C453.211,222.523 446.496,215.809 446.496,207.523C446.496,199.238 453.211,192.523 461.496,192.523C469.777,192.523 476.496,199.238 476.496,207.523M553.504,207.523C553.504,215.809 546.789,222.523 538.504,222.523C530.223,222.523 523.504,215.809 523.504,207.523C523.504,199.238 530.223,192.523 538.504,192.523C546.789,192.523 553.504,199.238 553.504,207.523M627.89,227.457C627.89,235.738 621.176,242.457 612.89,242.457C604.605,242.457 597.89,235.738 597.89,227.457C597.89,219.172 604.605,212.457 612.89,212.457C621.176,212.457 627.89,219.172 627.89,227.457M694.586,265.96C694.586,274.246 687.867,280.96 679.586,280.96C671.301,280.96 664.586,274.246 664.586,265.96C664.586,257.676 671.301,250.96 679.586,250.96C687.867,250.96 694.586,257.676 694.586,265.96M749.04,320.414C749.04,328.699 742.324,335.414 734.04,335.414C725.754,335.414 719.04,328.699 719.04,320.414C719.04,312.133 725.754,305.414 734.04,305.414C742.324,305.414 749.04,312.133 749.04,320.414M787.543,387.11C787.543,395.395 780.828,402.11 772.543,402.11C764.262,402.11 757.543,395.395 757.543,387.11C757.543,378.824 764.262,372.11 772.543,372.11C780.828,372.11 787.543,378.824 787.543,387.11M807.477,461.496C807.477,469.777 800.762,476.496 792.477,476.496C784.191,476.496 777.477,469.777 777.477,461.496C777.477,453.211 784.191,446.496 792.477,446.496C800.762,446.496 807.477,453.211 807.477,461.496M807.477,538.504C807.477,546.789 800.762,553.504 792.477,553.504C784.191,553.504 777.477,546.789 777.477,538.504C777.477,530.223 784.191,523.504 792.477,523.504C800.762,523.504 807.477,530.223 807.477,538.504" style="fill:#1a1a1a;fill-rule:nonzero;"/>
                <path d="M487.238,555C487.238,600.563 450.301,637.5 404.738,637.5C359.172,637.5 322.238,600.562 322.238,555C322.238,509.437 359.172,472.5 404.738,472.5C450.301,472.5 487.238,509.438 487.238,555" style="fill:#cb3c33;fill-rule:nonzero;"/>
                <path d="M582.5,390C582.5,435.563 545.562,472.5 500,472.5C454.437,472.5 417.5,435.562 417.5,390C417.5,344.437 454.438,307.5 500,307.5C545.563,307.5 582.5,344.438 582.5,390" style="fill:#389826;fill-rule:nonzero;"/>
                <path d="M677.762,555C677.762,600.563 640.828,637.5 595.262,637.5C549.699,637.5 512.762,600.562 512.762,555C512.762,509.437 549.699,472.5 595.262,472.5C640.828,472.5 677.762,509.438 677.762,555" style="fill:#9558b2;fill-rule:nonzero;"/>
                <path d="M458.543,711.867C458.543,715.257 458.16,717.997 457.398,720.078C456.633,722.168 455.551,723.785 454.141,724.938C452.734,726.09 451.047,726.863 449.082,727.254C447.113,727.641 444.926,727.836 442.52,727.836C439.262,727.836 436.77,727.328 435.043,726.312C433.313,725.293 432.445,724.074 432.445,722.648C432.445,721.461 432.93,720.461 433.895,719.648C434.863,718.832 436.16,718.426 437.789,718.426C439.008,718.426 439.984,718.758 440.711,719.418C441.441,720.078 442.047,720.734 442.52,721.378C443.063,722.09 443.52,722.562 443.89,722.801C444.266,723.039 444.605,723.156 444.91,723.156C445.555,723.156 446.047,722.777 446.387,722.012C446.723,721.25 446.895,719.766 446.895,717.562L446.895,675.746L458.543,672.543L458.543,711.867ZM475.133,673.66L475.133,700.57C475.133,701.32 475.277,702.023 475.566,702.684C475.852,703.344 476.25,703.914 476.762,704.387C477.282,704.87 477.884,705.257 478.539,705.531C479.219,705.821 479.949,705.965 480.73,705.965C481.61,705.965 482.613,705.469 483.832,704.617C485.762,703.262 486.934,702.332 486.934,701.234L486.934,673.66L498.531,673.66L498.531,711.867L486.934,711.867L486.934,708.305C485.459,709.561 483.815,710.605 482.051,711.406C480.321,712.188 478.641,712.578 477.016,712.578C475.117,712.578 473.352,712.262 471.723,711.637C470.098,711.007 468.672,710.152 467.453,709.067C466.245,708.003 465.267,706.704 464.578,705.25C463.882,703.789 463.525,702.189 463.535,700.57L463.535,673.66L475.133,673.66ZM514.797,711.867L503.25,711.867L503.25,658.301L514.797,655.094L514.797,711.867ZM519.621,675.747L531.219,672.543L531.219,711.867L519.62,711.867L519.621,675.747ZM555.453,692.129C554.296,692.619 553.165,693.171 552.066,693.781C550.977,694.381 549.94,695.07 548.965,695.84C548.031,696.586 547.277,697.383 546.703,698.23C546.125,699.078 545.836,699.96 545.836,700.879C545.836,701.589 545.93,702.277 546.117,702.937C546.301,703.597 546.567,704.168 546.907,704.641C547.247,705.117 547.617,705.496 548.023,705.785C548.43,706.075 548.871,706.219 549.348,706.219C550.297,706.219 551.254,705.929 552.223,705.352C553.188,704.777 554.266,704.047 555.453,703.168L555.453,692.129ZM567.098,711.867L555.453,711.867L555.453,708.813C554.84,709.331 554.212,709.831 553.57,710.313C552.96,710.77 552.273,711.168 551.508,711.508C550.684,711.867 549.822,712.131 548.938,712.297C547.988,712.484 546.871,712.578 545.582,712.578C543.82,712.578 542.234,712.324 540.828,711.816C539.418,711.305 538.223,710.609 537.242,709.726C536.268,708.861 535.495,707.793 534.977,706.598C534.453,705.398 534.187,704.082 534.187,702.656C534.187,701.199 534.469,699.879 535.027,698.688C535.595,697.493 536.371,696.408 537.317,695.484C538.333,694.498 539.469,693.643 540.699,692.941C542.037,692.17 543.421,691.483 544.844,690.883C546.354,690.243 547.891,689.666 549.449,689.153C551.02,688.635 552.597,688.135 554.179,687.653L555.453,687.348L555.453,683.582C555.453,681.141 554.984,679.41 554.055,678.395C553.121,677.375 551.875,676.867 550.313,676.867C548.48,676.867 547.211,677.309 546.496,678.187C545.786,679.07 545.43,680.141 545.43,681.395C545.43,682.096 545.353,682.796 545.2,683.48C545.065,684.122 544.798,684.729 544.414,685.262C544.039,685.77 543.508,686.176 542.809,686.48C542.117,686.785 541.242,686.941 540.191,686.941C538.562,686.941 537.242,686.473 536.223,685.539C535.207,684.605 534.699,683.429 534.699,682.004C534.699,680.684 535.145,679.454 536.043,678.316C536.945,677.18 538.156,676.203 539.683,675.395C541.207,674.578 542.973,673.934 544.973,673.461C546.973,672.984 549.093,672.746 551.328,672.746C554.078,672.746 556.445,672.992 558.43,673.484C560.41,673.977 562.047,674.68 563.336,675.594C564.625,676.512 565.574,677.614 566.184,678.902C566.797,680.192 567.098,681.632 567.098,683.227L567.098,711.867Z" style="fill:#1a1a1a;fill-rule:nonzero;"/>
                <path d="M460.828,662.715C460.828,662.716 460.828,662.717 460.828,662.718C460.828,667.036 457.274,670.59 452.956,670.59C452.955,670.59 452.954,670.59 452.953,670.59C448.633,670.59 445.078,667.035 445.078,662.715C445.078,658.395 448.633,654.84 452.953,654.84C457.273,654.84 460.828,658.395 460.828,662.715" style="fill:#4063d8;fill-rule:nonzero;"/>
                <path d="M543.336,646.328C543.336,650.648 539.781,654.203 535.461,654.203C531.141,654.203 527.586,650.648 527.586,646.328C527.586,646.327 527.586,646.326 527.586,646.325C527.586,642.007 531.14,638.453 535.458,638.453C535.459,638.453 535.46,638.453 535.461,638.453C539.781,638.453 543.336,642.008 543.336,646.328" style="fill:#389826;fill-rule:nonzero;"/>
                <path d="M552.793,662.715C552.793,662.716 552.793,662.717 552.793,662.718C552.793,667.036 549.239,670.59 544.921,670.59C544.92,670.59 544.919,670.59 544.918,670.59C540.598,670.59 537.043,667.035 537.043,662.715C537.043,658.395 540.598,654.84 544.918,654.84C549.238,654.84 552.793,658.395 552.793,662.715" style="fill:#9558b2;fill-rule:nonzero;"/>
                <path d="M533.875,662.715C533.875,667.035 530.32,670.59 526,670.59C525.999,670.59 525.998,670.59 525.997,670.59C521.679,670.59 518.125,667.036 518.125,662.718C518.125,662.717 518.125,662.716 518.125,662.715C518.125,658.395 521.68,654.84 526,654.84C530.32,654.84 533.875,658.395 533.875,662.715" style="fill:#cb3c33;fill-rule:nonzero;"/>
                <g>
                    <g id="a" transform="matrix(1,0,0,1,452,760)">
                        <path d="M2.32,-6.762C3.36,-7.695 4.41,-8.613 5.47,-9.52C6.532,-10.426 7.2,-11 7.481,-11.238C9.481,-12.934 10.97,-14.25 11.951,-15.191C12.931,-16.129 13.711,-17.078 14.291,-18.039C14.872,-19 15.161,-20.012 15.161,-21.079C15.161,-21.613 15.024,-22.098 14.751,-22.531C14.483,-22.96 14.107,-23.312 13.661,-23.551C13.213,-23.796 12.711,-23.923 12.201,-23.921C11.575,-23.921 10.993,-23.75 10.461,-23.411C9.927,-23.071 9.505,-22.617 9.192,-22.051C8.878,-21.484 8.716,-20.847 8.72,-20.199L2.72,-20.199C2.72,-23.332 3.599,-25.649 5.353,-27.149C7.106,-28.649 9.481,-29.399 12.481,-29.399C14.041,-29.399 15.513,-29.129 16.891,-28.589C18.252,-28.063 19.43,-27.153 20.282,-25.969C21.162,-24.762 21.602,-23.215 21.602,-21.32C21.602,-19.547 21.095,-17.809 20.079,-16.102C19.083,-14.413 17.874,-12.86 16.481,-11.48C15.095,-10.105 13.341,-8.512 11.22,-6.7C10.833,-6.379 10.173,-5.812 9.24,-5L21.48,-5L21.52,0L2.32,0L2.32,-6.762Z" style="fill:#1a1a1a;fill-rule:nonzero;"/>
                    </g>
                    <g id="b" transform="matrix(1,0,0,1,476,760)">
                        <path d="M12,0.48C9.094,0.48 6.89,-0.113 5.39,-1.3C3.89,-2.488 2.89,-4.14 2.39,-6.262C1.89,-8.379 1.64,-11.148 1.64,-14.559C1.64,-18.266 1.879,-21.145 2.36,-23.191C2.84,-25.238 3.82,-26.785 5.3,-27.828C6.781,-28.875 9.012,-29.398 12,-29.398C14.988,-29.398 17.219,-28.875 18.7,-27.828C20.18,-26.781 21.16,-25.238 21.64,-23.191C22.121,-21.145 22.36,-18.266 22.36,-14.559C22.36,-11.145 22.11,-8.379 21.61,-6.262C21.11,-4.141 20.11,-2.488 18.61,-1.301C17.11,-0.113 14.905,0.48 12,0.48ZM7.441,-14.559C7.441,-11.641 7.543,-9.508 7.75,-8.16C7.957,-6.812 8.375,-5.875 9,-5.352C9.625,-4.824 10.625,-4.559 12,-4.559C13.453,-4.559 14.488,-4.824 15.11,-5.352C15.73,-5.879 16.125,-6.789 16.3,-8.09C16.473,-9.39 16.559,-11.547 16.559,-14.559C16.559,-16.961 16.461,-18.829 16.262,-20.172C16.062,-21.512 15.632,-22.535 14.98,-23.25C14.328,-23.965 13.332,-24.32 12,-24.32C10.668,-24.32 9.672,-23.965 9.02,-23.25C8.367,-22.535 7.941,-21.512 7.738,-20.172C7.539,-18.832 7.441,-16.961 7.441,-14.559ZM12,-18L14.96,-14.559L12,-11.44L9.04,-14.56L12,-18Z" style="fill:#1a1a1a;fill-rule:nonzero;"/>
                    </g>
                    <g id="a1" serif:id="a" transform="matrix(1,0,0,1,500,760)">
                        <path d="M2.32,-6.762C3.36,-7.695 4.41,-8.613 5.47,-9.52C6.532,-10.426 7.2,-11 7.481,-11.238C9.481,-12.934 10.97,-14.25 11.951,-15.191C12.931,-16.129 13.711,-17.078 14.291,-18.039C14.872,-19 15.161,-20.012 15.161,-21.079C15.161,-21.613 15.024,-22.098 14.751,-22.531C14.483,-22.96 14.107,-23.312 13.661,-23.551C13.213,-23.796 12.711,-23.923 12.201,-23.921C11.575,-23.921 10.993,-23.75 10.461,-23.411C9.927,-23.071 9.505,-22.617 9.192,-22.051C8.878,-21.484 8.716,-20.847 8.72,-20.199L2.72,-20.199C2.72,-23.332 3.599,-25.649 5.353,-27.149C7.106,-28.649 9.481,-29.399 12.481,-29.399C14.041,-29.399 15.513,-29.129 16.891,-28.589C18.252,-28.063 19.43,-27.153 20.282,-25.969C21.162,-24.762 21.602,-23.215 21.602,-21.32C21.602,-19.547 21.095,-17.809 20.079,-16.102C19.083,-14.413 17.874,-12.86 16.481,-11.48C15.095,-10.105 13.341,-8.512 11.22,-6.7C10.833,-6.379 10.173,-5.812 9.24,-5L21.48,-5L21.52,0L2.32,0L2.32,-6.762Z" style="fill:#1a1a1a;fill-rule:nonzero;"/>
                    </g>
                    <g id="a2" serif:id="a" transform="matrix(1,0,0,1,524,760)">
                        <path d="M2.32,-6.762C3.36,-7.695 4.41,-8.613 5.47,-9.52C6.532,-10.426 7.2,-11 7.481,-11.238C9.481,-12.934 10.97,-14.25 11.951,-15.191C12.931,-16.129 13.711,-17.078 14.291,-18.039C14.872,-19 15.161,-20.012 15.161,-21.079C15.161,-21.613 15.024,-22.098 14.751,-22.531C14.483,-22.96 14.107,-23.312 13.661,-23.551C13.213,-23.796 12.711,-23.923 12.201,-23.921C11.575,-23.921 10.993,-23.75 10.461,-23.411C9.927,-23.071 9.505,-22.617 9.192,-22.051C8.878,-21.484 8.716,-20.847 8.72,-20.199L2.72,-20.199C2.72,-23.332 3.599,-25.649 5.353,-27.149C7.106,-28.649 9.481,-29.399 12.481,-29.399C14.041,-29.399 15.513,-29.129 16.891,-28.589C18.252,-28.063 19.43,-27.153 20.282,-25.969C21.162,-24.762 21.602,-23.215 21.602,-21.32C21.602,-19.547 21.095,-17.809 20.079,-16.102C19.083,-14.413 17.874,-12.86 16.481,-11.48C15.095,-10.105 13.341,-8.512 11.22,-6.7C10.833,-6.379 10.173,-5.812 9.24,-5L21.48,-5L21.52,0L2.32,0L2.32,-6.762Z" style="fill:#1a1a1a;fill-rule:nonzero;"/>
                    </g>
                </g>
                <g id="c" transform="matrix(1,0,0,1,385.18,699.419)">
                    <path d="M-12.742,12.578L-17.867,9.41L-11.492,-7.105L-8.41,-5.2L-9.598,-1.958L-6.066,0.227L-3.758,-2.32L-0.754,-0.47L-12.742,12.578ZM-10.867,1.098L-13.5,7.734L-12.973,8.063L-8.253,2.715L-10.867,1.098Z" style="fill:#1a1a1a;fill-rule:nonzero;"/>
                </g>
                <g id="d" transform="matrix(1,0,0,1,370.436,690.171)">
                    <path d="M-11.02,13.5L-14.512,10.957L-9.535,0.863L-17.652,8.668L-21.086,6.168L-7.43,-5.41L-4.191,-3.05L-11.02,13.5Z" style="fill:#1a1a1a;fill-rule:nonzero;"/>
                </g>
                <g id="e" transform="matrix(1,0,0,1,356.433,679.835)">
                    <path d="M-14.492,10.516L-19.082,6.609L-10.289,-8.758L-7.531,-6.406L-9.195,-3.379L-6.031,-0.687L-3.363,-2.863L-0.676,-0.574L-14.492,10.516ZM-10.906,-0.551L-14.512,5.613L-14.039,6.016L-8.566,1.437L-10.906,-0.551Z" style="fill:#1a1a1a;fill-rule:nonzero;"/>
                </g>
                <g id="f" transform="matrix(1,0,0,1,343.252,668.469)">
                    <path d="M-13.113,11.5L-17.461,7.195C-18.332,6.332 -18.941,5.406 -19.289,4.415C-19.637,3.422 -19.703,2.449 -19.496,1.496C-19.289,0.543 -18.813,-0.312 -18.063,-1.07C-17.289,-1.848 -16.433,-2.348 -15.484,-2.57C-14.539,-2.793 -13.57,-2.727 -12.578,-2.375L-10.128,-10.031L-7.128,-7.059L-9.438,-0.227L-8.328,0.871L-3.77,-3.734L-0.87,-0.864L-13.113,11.5ZM-11.613,2.48C-12.109,1.992 -12.598,1.64 -13.082,1.434C-13.566,1.223 -14.004,1.141 -14.398,1.184C-14.764,1.215 -15.108,1.374 -15.368,1.633C-15.618,1.883 -15.766,2.203 -15.82,2.586C-15.875,2.973 -15.82,3.379 -15.66,3.813C-15.496,4.243 -15.223,4.648 -14.844,5.027L-13.633,6.227L-10.762,3.328L-11.613,2.48Z" style="fill:#1a1a1a;fill-rule:nonzero;"/>
                </g>
                <g id="g" transform="matrix(1,0,0,1,330.967,656.14)">
                    <path d="M-4.383,-0.074L-5.879,-1.797L-14.074,5.313L-12.594,7.016L-15.078,9.172L-20.628,2.77L-18.145,0.617L-16.699,2.285L-8.504,-4.825L-9.949,-6.492L-7.484,-8.629L-1.918,-2.211L-4.383,-0.074Z" style="fill:#1a1a1a;fill-rule:nonzero;"/>
                </g>
                <g id="i" transform="matrix(1,0,0,1,309.364,628.879)">
                    <path d="M-6.574,0.063C-6.297,-0.907 -6.16,-1.747 -6.16,-2.453C-6.164,-3.16 -6.34,-3.793 -6.691,-4.348C-7.078,-4.965 -7.504,-5.344 -7.969,-5.492C-8.429,-5.641 -8.91,-5.559 -9.41,-5.242C-9.723,-5.043 -9.93,-4.82 -10.031,-4.57C-10.136,-4.309 -10.174,-4.026 -10.141,-3.746C-10.109,-3.441 -10.031,-2.996 -9.906,-2.402C-9.789,-1.859 -9.687,-1.348 -9.602,-0.863C-9.355,0.602 -9.363,1.859 -9.617,2.914C-9.875,3.973 -10.527,4.828 -11.574,5.492C-12.309,5.969 -13.171,6.215 -14.047,6.199C-14.922,6.184 -15.789,5.899 -16.648,5.336C-17.508,4.777 -18.285,3.946 -18.98,2.844C-19.621,1.828 -20.012,0.82 -20.156,-0.187C-20.301,-1.195 -20.215,-2.289 -19.902,-3.469L-16.641,-2.579C-16.731,-2.012 -16.781,-1.531 -16.793,-1.133C-16.808,-0.733 -16.765,-0.333 -16.664,0.055C-16.562,0.449 -16.379,0.852 -16.117,1.265C-15.75,1.848 -15.344,2.227 -14.898,2.41C-14.482,2.595 -13.998,2.552 -13.621,2.297C-13.301,2.097 -13.101,1.812 -13.02,1.441C-12.934,1.074 -12.926,0.664 -12.988,0.219C-13.084,-0.386 -13.2,-0.988 -13.336,-1.586C-13.594,-2.699 -13.754,-3.641 -13.824,-4.406C-13.89,-5.184 -13.78,-5.967 -13.5,-6.696C-13.219,-7.457 -12.656,-8.102 -11.812,-8.636C-10.824,-9.262 -9.836,-9.57 -8.848,-9.563C-7.859,-9.559 -6.93,-9.266 -6.051,-8.683C-5.171,-8.102 -4.395,-7.273 -3.715,-6.199C-2.973,-5.019 -2.594,-3.816 -2.585,-2.589C-2.578,-1.359 -2.785,-0.113 -3.219,1.152L-6.574,0.063Z" style="fill:#1a1a1a;fill-rule:nonzero;"/>
                </g>
                <g id="j" transform="matrix(1,0,0,1,300.169,614.102)">
                    <path d="M-3.098,-6.508C-2.387,-5.164 -2.082,-3.973 -2.188,-2.934C-2.293,-1.894 -2.742,-0.964 -3.531,-0.144C-4.324,0.68 -5.449,1.476 -6.902,2.246L-15.957,7.046L-17.867,3.446L-8.984,-1.266C-8.074,-1.75 -7.379,-2.18 -6.898,-2.546C-6.422,-2.918 -6.121,-3.293 -5.996,-3.672C-5.871,-4.051 -5.93,-4.472 -6.172,-4.93C-6.414,-5.383 -6.722,-5.66 -7.102,-5.758C-7.48,-5.855 -7.949,-5.808 -8.516,-5.618C-9.078,-5.426 -9.824,-5.086 -10.75,-4.598L-19.633,0.113L-21.547,-3.488L-12.492,-8.289C-11.035,-9.063 -9.742,-9.543 -8.617,-9.734C-7.492,-9.922 -6.469,-9.77 -5.547,-9.27C-4.625,-8.77 -3.809,-7.852 -3.097,-6.508L-3.098,-6.508Z" style="fill:#1a1a1a;fill-rule:nonzero;"/>
                </g>
                <g id="k" transform="matrix(1,0,0,1,292.116,598.672)">
                    <path d="M-16.414,5.887L-18.02,2.215L-13.055,-2.129L-19.625,-1.457L-21.23,-5.129L-5.285,-12.098L-3.707,-8.488L-12.09,-4.828L-12.398,-4.758L-12.16,-4.664L-7.422,-5.414L-6.832,-4.074L-10.605,-1.102L-10.691,-0.855L-10.418,-1.004L-2.035,-4.664L-0.473,-1.078L-16.414,5.887Z" style="fill:#1a1a1a;fill-rule:nonzero;"/>
                </g>
                <g id="l" transform="matrix(1,0,0,1,285.253,582.678)">
                    <path d="M-2.082,-6.898C-1.578,-5.465 -1.461,-4.242 -1.719,-3.23C-1.98,-2.219 -2.566,-1.367 -3.473,-0.676C-4.379,0.02 -5.609,0.637 -7.164,1.18L-16.836,4.563L-18.184,0.71L-8.691,-2.606C-7.715,-2.946 -6.965,-3.266 -6.437,-3.56C-5.91,-3.856 -5.555,-4.18 -5.375,-4.536C-5.191,-4.892 -5.187,-5.313 -5.359,-5.806C-5.527,-6.29 -5.793,-6.606 -6.152,-6.763C-6.512,-6.915 -6.984,-6.943 -7.57,-6.837C-8.156,-6.735 -8.945,-6.509 -9.934,-6.165L-19.426,-2.849L-20.773,-6.7L-11.098,-10.08C-9.543,-10.622 -8.195,-10.903 -7.051,-10.923C-5.911,-10.938 -4.921,-10.633 -4.086,-10.001C-3.25,-9.368 -2.582,-8.337 -2.082,-6.899L-2.082,-6.898Z" style="fill:#1a1a1a;fill-rule:nonzero;"/>
                </g>
                <g id="m" transform="matrix(1,0,0,1,279.619,566.211)">
                    <path d="M-6.293,-1.898C-5.738,-2.742 -5.359,-3.5 -5.148,-4.18C-4.941,-4.855 -4.922,-5.512 -5.09,-6.145C-5.277,-6.848 -5.57,-7.34 -5.969,-7.617C-6.367,-7.898 -6.852,-7.961 -7.422,-7.809C-7.777,-7.715 -8.043,-7.562 -8.215,-7.355C-8.387,-7.148 -8.504,-6.895 -8.566,-6.598C-8.625,-6.301 -8.684,-5.848 -8.738,-5.246C-8.789,-4.696 -8.848,-4.176 -8.906,-3.687C-9.109,-2.215 -9.492,-1.016 -10.051,-0.082C-10.609,0.848 -11.488,1.473 -12.687,1.793C-13.529,2.028 -14.423,2.008 -15.254,1.734C-16.086,1.457 -16.828,0.926 -17.48,0.133C-18.137,-0.657 -18.629,-1.68 -18.965,-2.941C-19.273,-4.101 -19.348,-5.184 -19.184,-6.188C-19.024,-7.191 -18.617,-8.211 -17.964,-9.242L-15.117,-7.418C-15.371,-6.906 -15.562,-6.461 -15.695,-6.086C-15.828,-5.709 -15.904,-5.314 -15.922,-4.914C-15.942,-4.508 -15.887,-4.066 -15.762,-3.598C-15.586,-2.934 -15.312,-2.445 -14.942,-2.141C-14.57,-1.832 -14.148,-1.742 -13.687,-1.863C-13.324,-1.961 -13.047,-2.176 -12.855,-2.503C-12.668,-2.832 -12.535,-3.219 -12.465,-3.664C-12.395,-4.109 -12.325,-4.714 -12.254,-5.488C-12.168,-6.628 -12.047,-7.574 -11.883,-8.324C-11.719,-9.078 -11.387,-9.774 -10.895,-10.414C-10.398,-11.054 -9.668,-11.508 -8.699,-11.762C-7.57,-12.062 -6.535,-12.066 -5.598,-11.766C-4.656,-11.465 -3.852,-10.906 -3.188,-10.09C-2.523,-9.273 -2.028,-8.254 -1.699,-7.023C-1.339,-5.68 -1.339,-4.418 -1.695,-3.243C-2.073,-2.026 -2.655,-0.881 -3.415,0.142L-6.293,-1.898Z" style="fill:#1a1a1a;fill-rule:nonzero;"/>
                </g>
                <g id="o" transform="matrix(1,0,0,1,272.157,532.237)">
                    <path d="M-7.082,-6.465C-7.027,-5.965 -7.098,-5.492 -7.297,-5.043C-7.486,-4.602 -7.786,-4.217 -8.168,-3.926C-8.547,-3.633 -9.001,-3.452 -9.477,-3.402C-9.951,-3.346 -10.432,-3.426 -10.863,-3.632C-11.759,-4.041 -12.374,-4.896 -12.477,-5.875C-12.531,-6.375 -12.461,-6.852 -12.262,-7.297C-12.066,-7.747 -11.777,-8.117 -11.391,-8.414C-11.012,-8.707 -10.558,-8.888 -10.082,-8.938C-9.598,-8.992 -9.132,-8.914 -8.695,-8.711C-8.254,-8.504 -7.887,-8.203 -7.598,-7.809C-7.308,-7.414 -7.137,-6.969 -7.082,-6.465ZM-3.195,-0.735C-3.68,-0.684 -4.145,-0.758 -4.585,-0.965C-5.021,-1.165 -5.399,-1.474 -5.68,-1.863C-5.968,-2.257 -6.146,-2.721 -6.195,-3.207C-6.25,-3.707 -6.18,-4.184 -5.985,-4.633C-5.785,-5.078 -5.496,-5.453 -5.109,-5.746C-4.723,-6.043 -4.289,-6.219 -3.801,-6.27C-3.316,-6.324 -2.855,-6.246 -2.414,-6.043C-1.979,-5.842 -1.602,-5.533 -1.32,-5.145C-1.031,-4.75 -0.86,-4.301 -0.805,-3.801C-0.747,-3.315 -0.82,-2.823 -1.015,-2.375C-1.211,-1.925 -1.504,-1.555 -1.887,-1.258C-2.267,-0.967 -2.719,-0.786 -3.195,-0.734L-3.195,-0.735ZM-3.922,-7.367C-4.406,-7.317 -4.872,-7.391 -5.312,-7.597C-5.748,-7.797 -6.125,-8.107 -6.406,-8.497C-6.695,-8.891 -6.873,-9.354 -6.922,-9.84C-7.034,-10.818 -6.62,-11.785 -5.836,-12.38C-5.449,-12.676 -5.016,-12.852 -4.531,-12.902C-4.056,-12.957 -3.574,-12.879 -3.141,-12.676C-2.699,-12.469 -2.336,-12.172 -2.047,-11.773C-1.757,-11.379 -1.586,-10.933 -1.531,-10.43C-1.419,-9.452 -1.833,-8.485 -2.617,-7.89C-3.004,-7.594 -3.437,-7.422 -3.922,-7.367Z" style="fill:#1a1a1a;fill-rule:nonzero;"/>
                </g>
                <g id="q" transform="matrix(1,0,0,1,269.901,497.526)">
                    <path d="M-17.207,-4.953L-16.953,-10.969L0.567,-13.5L0.413,-9.879L-2.997,-9.324L-3.169,-5.18L0.187,-4.41L0.039,-0.887L-17.207,-4.953ZM-6.277,-8.937L-13.355,-7.984L-13.383,-7.359L-6.406,-5.867L-6.277,-8.937Z" style="fill:#1a1a1a;fill-rule:nonzero;"/>
                </g>
                <g id="r" transform="matrix(1,0,0,1,270.746,480.143)">
                    <path d="M-17.168,-2.996L-16.66,-7.286L-5.422,-7.891L-16.203,-11.148L-15.703,-15.368L1.078,-9.128L0.609,-5.148L-17.168,-2.996Z" style="fill:#1a1a1a;fill-rule:nonzero;"/>
                </g>
                <g id="s" transform="matrix(1,0,0,1,272.902,462.872)">
                    <path d="M-16.266,-7.488L-15.106,-13.398L2.598,-13.262L1.898,-9.703L-1.555,-9.672L-2.352,-5.598L0.848,-4.332L0.172,-0.872L-16.266,-7.488ZM-4.859,-9.781L-12,-9.906L-12.121,-9.293L-5.449,-6.766L-4.859,-9.781Z" style="fill:#1a1a1a;fill-rule:nonzero;"/>
                </g>
                <g id="t" transform="matrix(1,0,0,1,276.358,445.814)">
                    <path d="M-16.45,-5.805L-14.824,-11.703C-14.496,-12.883 -13.988,-13.867 -13.293,-14.656C-12.598,-15.446 -11.785,-15.98 -10.852,-16.266C-9.918,-16.551 -8.937,-16.555 -7.91,-16.273C-6.855,-15.98 -6,-15.477 -5.34,-14.762C-4.684,-14.043 -4.266,-13.168 -4.086,-12.129L3.789,-13.742L2.668,-9.672L-4.422,-8.34L-4.836,-6.836L1.41,-5.113L0.324,-1.18L-16.45,-5.805ZM-7.852,-8.91C-7.664,-9.582 -7.602,-10.18 -7.652,-10.707C-7.707,-11.23 -7.852,-11.652 -8.082,-11.977C-8.312,-12.297 -8.602,-12.504 -8.949,-12.597C-9.299,-12.69 -9.67,-12.666 -10.004,-12.527C-10.364,-12.387 -10.695,-12.141 -10.992,-11.785C-11.289,-11.434 -11.508,-10.996 -11.648,-10.48L-12.102,-8.84L-8.168,-7.754L-7.852,-8.91Z" style="fill:#1a1a1a;fill-rule:nonzero;"/>
                </g>
                <g id="u" transform="matrix(1,0,0,1,281.093,429.067)">
                    <path d="M-2.082,-3.86L-1.312,-6.004L-11.523,-9.668L-12.285,-7.547L-15.379,-8.657L-12.516,-16.633L-9.422,-15.52L-10.168,-13.441L0.043,-9.777L0.789,-11.855L3.859,-10.754L0.989,-2.754L-2.082,-3.86Z" style="fill:#1a1a1a;fill-rule:nonzero;"/>
                </g>
                <g id="w" transform="matrix(1,0,0,1,294.286,396.882)">
                    <path d="M-3.273,-5.7C-2.293,-5.934 -1.493,-6.227 -0.879,-6.574C-0.291,-6.894 0.193,-7.375 0.516,-7.961C0.863,-8.601 0.984,-9.161 0.886,-9.637C0.789,-10.113 0.48,-10.492 -0.039,-10.773C-0.363,-10.949 -0.656,-11.02 -0.926,-10.984C-1.206,-10.949 -1.472,-10.843 -1.699,-10.676C-1.949,-10.5 -2.301,-10.215 -2.754,-9.812C-3.172,-9.445 -3.566,-9.105 -3.945,-8.793C-5.105,-7.863 -6.207,-7.253 -7.25,-6.961C-8.297,-6.668 -9.367,-6.812 -10.457,-7.402C-11.231,-7.81 -11.866,-8.44 -12.281,-9.211C-12.699,-9.981 -12.871,-10.879 -12.805,-11.902C-12.738,-12.926 -12.395,-14.012 -11.773,-15.156C-11.203,-16.211 -10.512,-17.051 -9.707,-17.668C-8.898,-18.285 -7.902,-18.746 -6.719,-19.055L-5.902,-15.773C-6.437,-15.57 -6.882,-15.379 -7.234,-15.199C-7.59,-15.015 -7.917,-14.781 -8.207,-14.504C-8.522,-14.189 -8.789,-13.828 -8.997,-13.434C-9.324,-12.828 -9.457,-12.289 -9.395,-11.809C-9.335,-11.332 -9.094,-10.98 -8.672,-10.75C-8.344,-10.57 -7.996,-10.535 -7.632,-10.645C-7.27,-10.754 -6.91,-10.945 -6.551,-11.219C-6.191,-11.492 -5.723,-11.887 -5.145,-12.402C-4.301,-13.172 -3.563,-13.777 -2.925,-14.211C-2.28,-14.649 -1.544,-14.936 -0.773,-15.051C0.027,-15.176 0.867,-15.004 1.747,-14.527C2.773,-13.973 3.527,-13.262 4.007,-12.398C4.484,-11.535 4.687,-10.578 4.609,-9.528C4.531,-8.477 4.191,-7.391 3.586,-6.273C2.922,-5.051 2.059,-4.133 0.992,-3.523C-0.117,-2.898 -1.324,-2.465 -2.578,-2.243L-3.273,-5.7Z" style="fill:#1a1a1a;fill-rule:nonzero;"/>
                </g>
                <g id="x" transform="matrix(1,0,0,1,302.668,381.629)">
                    <path d="M4.156,-5.887C3.336,-4.609 2.446,-3.762 1.488,-3.344C0.531,-2.93 -0.5,-2.864 -1.605,-3.152C-2.711,-3.437 -3.953,-4.027 -5.34,-4.918L-13.957,-10.461L-11.75,-13.895L-3.293,-8.453C-2.426,-7.895 -1.715,-7.5 -1.156,-7.266C-0.598,-7.031 -0.125,-6.949 0.27,-7.027C0.66,-7.102 0.996,-7.359 1.277,-7.797C1.555,-8.227 1.645,-8.633 1.543,-9.007C1.445,-9.387 1.172,-9.777 0.73,-10.176C0.29,-10.574 -0.375,-11.055 -1.254,-11.621L-9.714,-17.062L-7.508,-20.496L1.113,-14.949C2.5,-14.059 3.551,-13.168 4.266,-12.281C4.984,-11.391 5.352,-10.421 5.367,-9.375C5.383,-8.328 4.98,-7.165 4.157,-5.887L4.156,-5.887Z" style="fill:#1a1a1a;fill-rule:nonzero;"/>
                </g>
                <g id="y" transform="matrix(1,0,0,1,312.179,367.053)">
                    <path d="M-13.172,-11.43L-10.754,-14.629L-4.539,-12.426L-8.336,-17.824L-5.922,-21.024L7.961,-10.53L5.586,-7.39L-1.707,-12.901L-1.922,-13.14L-1.887,-12.886L1.09,-9.12L0.207,-7.953L-4.23,-9.785L-4.488,-9.742L-4.227,-9.574L3.066,-4.06L0.711,-0.937L-13.172,-11.43Z" style="fill:#1a1a1a;fill-rule:nonzero;"/>
                </g>
                <g id="z" transform="matrix(1,0,0,1,322.764,353.238)">
                    <path d="M4.996,-5.191C3.992,-4.051 2.984,-3.348 1.976,-3.082C0.965,-2.816 -0.062,-2.906 -1.109,-3.355C-2.16,-3.805 -3.301,-4.578 -4.539,-5.668L-12.223,-12.445L-9.523,-15.508L-1.98,-8.855C-1.207,-8.172 -0.563,-7.672 -0.047,-7.355C0.469,-7.039 0.926,-6.891 1.324,-6.906C1.723,-6.922 2.094,-7.125 2.437,-7.516C2.777,-7.898 2.926,-8.286 2.883,-8.672C2.843,-9.062 2.633,-9.488 2.253,-9.949C1.879,-10.41 1.297,-10.984 0.512,-11.679L-7.031,-18.332L-4.332,-21.391L3.355,-14.613C4.59,-13.523 5.496,-12.484 6.07,-11.496C6.645,-10.508 6.86,-9.496 6.719,-8.457C6.579,-7.422 6.004,-6.332 4.996,-5.191Z" style="fill:#1a1a1a;fill-rule:nonzero;"/>
                </g>
                <g id="A" transform="matrix(1,0,0,1,334.363,340.262)">
                    <path d="M-1.426,-6.418C-0.418,-6.348 0.43,-6.387 1.121,-6.535C1.813,-6.684 2.395,-6.988 2.863,-7.445C3.387,-7.953 3.672,-8.449 3.719,-8.934C3.769,-9.418 3.586,-9.871 3.172,-10.293C2.918,-10.559 2.656,-10.715 2.391,-10.762C2.113,-10.81 1.827,-10.789 1.559,-10.699C1.269,-10.605 0.848,-10.434 0.297,-10.188C-0.211,-9.961 -0.691,-9.758 -1.148,-9.57C-2.528,-9.027 -3.762,-8.773 -4.848,-8.805C-5.934,-8.835 -6.91,-9.297 -7.773,-10.184C-8.392,-10.804 -8.812,-11.594 -8.98,-12.454C-9.148,-13.312 -9.047,-14.219 -8.676,-15.176C-8.309,-16.133 -7.656,-17.066 -6.723,-17.976C-5.863,-18.813 -4.953,-19.406 -4,-19.758C-3.043,-20.105 -1.957,-20.25 -0.734,-20.188L-0.934,-16.816C-1.504,-16.781 -1.984,-16.73 -2.379,-16.664C-2.769,-16.594 -3.145,-16.469 -3.512,-16.289C-3.906,-16.082 -4.267,-15.818 -4.582,-15.504C-5.074,-15.024 -5.363,-14.547 -5.449,-14.074C-5.535,-13.602 -5.41,-13.191 -5.074,-12.848C-4.813,-12.578 -4.492,-12.441 -4.114,-12.434C-3.734,-12.43 -3.332,-12.504 -2.91,-12.66C-2.484,-12.816 -1.922,-13.055 -1.215,-13.371C-0.18,-13.855 0.707,-14.211 1.441,-14.437C2.187,-14.663 2.975,-14.718 3.746,-14.597C4.551,-14.48 5.301,-14.063 5.996,-13.347C6.812,-12.512 7.32,-11.605 7.52,-10.641C7.719,-9.671 7.625,-8.699 7.238,-7.719C6.852,-6.742 6.203,-5.809 5.293,-4.922C4.297,-3.949 3.195,-3.332 1.996,-3.066C0.796,-2.801 -0.469,-2.75 -1.793,-2.91L-1.426,-6.418Z" style="fill:#1a1a1a;fill-rule:nonzero;"/>
                </g>
                <g id="C" transform="matrix(1,0,0,1,360.332,317.121)">
                    <path d="M2.168,-9.344C1.373,-8.764 0.327,-8.651 -0.574,-9.047C-1.016,-9.232 -1.396,-9.539 -1.672,-9.93C-1.953,-10.316 -2.12,-10.774 -2.152,-11.25C-2.192,-11.734 -2.109,-12.2 -1.906,-12.645C-1.703,-13.09 -1.384,-13.473 -0.984,-13.754C-0.574,-14.047 -0.129,-14.219 0.359,-14.266C0.848,-14.312 1.313,-14.242 1.762,-14.051C2.207,-13.859 2.574,-13.566 2.855,-13.168C3.141,-12.77 3.301,-12.328 3.335,-11.844C3.418,-10.864 2.973,-9.91 2.168,-9.344ZM-0.922,-3.144C-1.203,-3.532 -1.37,-3.991 -1.402,-4.469C-1.442,-4.953 -1.359,-5.418 -1.156,-5.863C-0.953,-6.308 -0.635,-6.692 -0.234,-6.973C0.564,-7.545 1.606,-7.658 2.508,-7.27C2.957,-7.078 3.32,-6.781 3.605,-6.387C3.891,-5.988 4.051,-5.547 4.085,-5.063C4.168,-4.081 3.722,-3.126 2.917,-2.559C2.522,-2.273 2.059,-2.096 1.574,-2.047C1.096,-1.998 0.613,-2.072 0.172,-2.262C-0.268,-2.449 -0.646,-2.755 -0.922,-3.145L-0.922,-3.144ZM4.504,-7.027C4.223,-7.415 4.056,-7.874 4.024,-8.352C3.941,-9.334 4.387,-10.289 5.192,-10.856C5.587,-11.142 6.05,-11.318 6.535,-11.367C7.023,-11.414 7.488,-11.344 7.937,-11.152C8.383,-10.961 8.75,-10.664 9.031,-10.266C9.316,-9.871 9.477,-9.43 9.516,-8.946C9.632,-7.435 8.508,-6.087 7,-5.93C6.523,-5.881 6.042,-5.955 5.602,-6.145C5.161,-6.332 4.781,-6.637 4.504,-7.027Z" style="fill:#1a1a1a;fill-rule:nonzero;"/>
                </g>
                <g id="E" transform="matrix(1,0,0,1,389.493,298.158)">
                    <path d="M-4.11,-17.43L1.266,-20.152L12.05,-6.113L8.816,-4.477L6.664,-7.176L2.964,-5.296L3.939,-2L0.792,-0.402L-4.11,-17.43ZM4.72,-9.848L0.422,-15.555L-0.133,-15.273L1.977,-8.457L4.72,-9.848Z" style="fill:#1a1a1a;fill-rule:nonzero;"/>
                </g>
                <g id="F" transform="matrix(1,0,0,1,405.064,290.384)">
                    <path d="M-5.793,-16.434L-1.805,-18.094L4.227,-8.594L1.785,-19.586L5.711,-21.219L8.488,-3.527L4.785,-1.988L-5.793,-16.434Z" style="fill:#1a1a1a;fill-rule:nonzero;"/>
                </g>
                <g id="G" transform="matrix(1,0,0,1,421.179,283.808)">
                    <path d="M-1.434,-17.848L4.289,-19.734L12.832,-4.23L9.391,-3.094L7.67,-6.09L3.728,-4.793L4.196,-1.383L0.844,-0.277L-1.434,-17.848ZM6.148,-9.028L2.762,-15.312L2.168,-15.117L3.23,-8.062L6.148,-9.028Z" style="fill:#1a1a1a;fill-rule:nonzero;"/>
                </g>
                <g id="H" transform="matrix(1,0,0,1,437.744,278.469)">
                    <path d="M-2.992,-17.184L2.949,-18.656C4.137,-18.949 5.242,-18.984 6.269,-18.766C7.297,-18.546 8.164,-18.102 8.871,-17.426C9.578,-16.754 10.059,-15.898 10.312,-14.867C10.578,-13.801 10.559,-12.809 10.254,-11.883C9.954,-10.961 9.391,-10.168 8.574,-9.503L13.84,-3.426L9.738,-2.41L5.105,-7.941L3.59,-7.566L5.148,-1.273L1.188,-0.293L-2.992,-17.184ZM3.926,-11.207C4.602,-11.375 5.156,-11.609 5.586,-11.914C6.02,-12.219 6.316,-12.551 6.484,-12.91C6.652,-13.27 6.691,-13.621 6.605,-13.973C6.514,-14.322 6.311,-14.632 6.027,-14.855C5.727,-15.102 5.352,-15.27 4.895,-15.355C4.441,-15.441 3.953,-15.418 3.434,-15.289L1.781,-14.879L2.761,-10.918L3.926,-11.207Z" style="fill:#1a1a1a;fill-rule:nonzero;"/>
                </g>
                <g id="I" transform="matrix(1,0,0,1,454.665,274.397)">
                    <path d="M2.344,-3.707L4.594,-4.086L2.789,-14.78L0.566,-14.405L0.02,-17.647L8.371,-19.057L8.918,-15.815L6.742,-15.448L8.547,-4.75L10.723,-5.117L11.266,-1.898L2.886,-0.488L2.344,-3.707Z" style="fill:#1a1a1a;fill-rule:nonzero;"/>
                </g>
                <g id="K" transform="matrix(1,0,0,1,489.188,270.141)">
                    <path d="M3.367,-5.645C4.051,-4.902 4.695,-4.352 5.301,-3.985C5.906,-3.617 6.539,-3.438 7.195,-3.449C7.922,-3.461 8.469,-3.625 8.835,-3.941C9.203,-4.261 9.383,-4.715 9.375,-5.309C9.367,-5.676 9.285,-5.969 9.125,-6.187C8.955,-6.412 8.732,-6.591 8.477,-6.711C8.203,-6.844 7.777,-7.008 7.207,-7.207C6.714,-7.38 6.223,-7.56 5.734,-7.747C4.36,-8.3 3.285,-8.96 2.516,-9.73C1.75,-10.5 1.356,-11.504 1.336,-12.742C1.31,-13.617 1.547,-14.48 2.016,-15.219C2.484,-15.957 3.184,-16.551 4.109,-16.992C5.035,-17.434 6.149,-17.668 7.449,-17.687C8.649,-17.707 9.719,-17.516 10.652,-17.113C11.586,-16.711 12.477,-16.07 13.324,-15.188L10.864,-12.868C10.497,-13.184 10.112,-13.478 9.711,-13.75C9.377,-13.969 9.012,-14.139 8.629,-14.254C8.2,-14.377 7.755,-14.434 7.309,-14.422C6.621,-14.41 6.086,-14.262 5.695,-13.977C5.321,-13.716 5.107,-13.28 5.129,-12.824C5.133,-12.449 5.273,-12.129 5.543,-11.867C5.816,-11.602 6.16,-11.383 6.574,-11.203C6.988,-11.027 7.563,-10.813 8.297,-10.559C9.383,-10.199 10.27,-9.852 10.957,-9.508C11.648,-9.168 12.242,-8.68 12.747,-8.043C13.247,-7.406 13.507,-6.59 13.523,-5.59C13.539,-4.422 13.289,-3.418 12.77,-2.578C12.25,-1.738 11.516,-1.094 10.563,-0.645C9.609,-0.199 8.496,0.035 7.227,0.055C5.836,0.078 4.609,-0.227 3.559,-0.86C2.504,-1.492 1.547,-2.32 0.69,-3.348L3.367,-5.645Z" style="fill:#1a1a1a;fill-rule:nonzero;"/>
                </g>
                <g id="L" transform="matrix(1,0,0,1,506.592,269.982)">
                    <path d="M7.168,0.742C5.652,0.652 4.477,0.29 3.645,-0.34C2.812,-0.973 2.254,-1.84 1.96,-2.94C1.67,-4.046 1.573,-5.417 1.675,-7.061L2.288,-17.292L6.358,-17.05L5.757,-7.01C5.694,-5.98 5.698,-5.163 5.769,-4.565C5.835,-3.964 5.999,-3.511 6.257,-3.206C6.515,-2.901 6.901,-2.733 7.421,-2.702C7.933,-2.671 8.331,-2.792 8.608,-3.065C8.89,-3.335 9.097,-3.765 9.229,-4.343C9.359,-4.925 9.456,-5.737 9.519,-6.784L10.12,-16.824L14.194,-16.577L13.581,-6.351C13.483,-4.706 13.218,-3.351 12.796,-2.292C12.37,-1.23 11.707,-0.437 10.8,0.09C9.894,0.617 8.686,0.832 7.167,0.742L7.168,0.742Z" style="fill:#1a1a1a;fill-rule:nonzero;"/>
                </g>
                <g id="M" transform="matrix(1,0,0,1,523.957,271.138)">
                    <path d="M3.516,-17.082L7.488,-16.539L8.613,-10.039L11.461,-15.996L15.43,-15.457L13.078,1.785L9.18,1.254L10.414,-7.809L10.516,-8.109L10.312,-7.953L8.484,-3.516L7.035,-3.715L6.461,-8.48L6.297,-8.684L6.277,-8.371L5.043,0.688L1.164,0.16L3.516,-17.082Z" style="fill:#1a1a1a;fill-rule:nonzero;"/>
                </g>
                <g id="N" transform="matrix(1,0,0,1,541.186,273.603)">
                    <path d="M6.973,1.816C5.488,1.496 4.383,0.961 3.656,0.215C2.93,-0.535 2.504,-1.477 2.383,-2.613C2.262,-3.746 2.375,-5.121 2.719,-6.73L4.867,-16.75L8.859,-15.895L6.75,-6.063C6.535,-5.055 6.414,-4.246 6.39,-3.645C6.367,-3.039 6.46,-2.566 6.668,-2.227C6.878,-1.887 7.238,-1.664 7.746,-1.555C8.246,-1.445 8.656,-1.508 8.976,-1.735C9.293,-1.961 9.562,-2.348 9.777,-2.902C9.997,-3.457 10.215,-4.25 10.434,-5.273L12.543,-15.105L16.531,-14.25L14.383,-4.23C14.039,-2.617 13.574,-1.32 12.996,-0.336C12.418,0.648 11.641,1.332 10.664,1.714C9.691,2.102 8.461,2.133 6.973,1.816Z" style="fill:#1a1a1a;fill-rule:nonzero;"/>
                </g>
                <g id="O" transform="matrix(1,0,0,1,558.18,277.364)">
                    <path d="M4.898,-4.387C5.328,-3.473 5.781,-2.754 6.25,-2.223C6.719,-1.691 7.266,-1.336 7.895,-1.148C8.594,-0.941 9.165,-0.938 9.609,-1.128C10.055,-1.324 10.363,-1.707 10.531,-2.273C10.633,-2.625 10.641,-2.93 10.555,-3.183C10.462,-3.451 10.302,-3.69 10.09,-3.879C9.75,-4.18 9.395,-4.464 9.027,-4.73C8.582,-5.062 8.168,-5.379 7.781,-5.687C6.633,-6.625 5.81,-7.579 5.305,-8.54C4.801,-9.501 4.723,-10.575 5.075,-11.767C5.311,-12.609 5.794,-13.361 6.461,-13.927C7.129,-14.493 7.969,-14.853 8.984,-14.997C10,-15.146 11.133,-15.032 12.383,-14.665C13.535,-14.325 14.496,-13.825 15.27,-13.161C16.043,-12.501 16.7,-11.622 17.242,-10.528L14.203,-9.048C13.947,-9.458 13.667,-9.853 13.367,-10.231C13.113,-10.541 12.816,-10.812 12.484,-11.036C12.113,-11.281 11.706,-11.467 11.277,-11.586C10.617,-11.782 10.059,-11.802 9.602,-11.642C9.168,-11.506 8.832,-11.156 8.715,-10.716C8.609,-10.356 8.648,-10.009 8.828,-9.676C9.008,-9.345 9.273,-9.028 9.613,-8.736C9.957,-8.442 10.441,-8.067 11.066,-7.61C11.996,-6.942 12.738,-6.345 13.293,-5.814C13.852,-5.282 14.273,-4.638 14.563,-3.88C14.852,-3.122 14.855,-2.267 14.574,-1.306C14.242,-0.185 13.704,0.698 12.957,1.347C12.211,1.991 11.32,2.386 10.277,2.53C9.234,2.675 8.102,2.565 6.883,2.206C5.547,1.812 4.469,1.156 3.653,0.237C2.832,-0.681 2.168,-1.755 1.656,-2.989L4.898,-4.387Z" style="fill:#1a1a1a;fill-rule:nonzero;"/>
                </g>
                <g id="Q" transform="matrix(1,0,0,1,591.072,288.676)">
                    <path d="M9.207,-2.684C8.763,-2.887 8.382,-3.205 8.102,-3.605C7.824,-3.996 7.653,-4.453 7.605,-4.93C7.555,-5.414 7.633,-5.879 7.84,-6.32C8.047,-6.762 8.352,-7.117 8.754,-7.387C9.16,-7.657 9.605,-7.813 10.094,-7.852C10.582,-7.895 11.054,-7.809 11.508,-7.594C11.965,-7.379 12.336,-7.074 12.613,-6.672C12.895,-6.27 13.063,-5.828 13.113,-5.344C13.164,-4.859 13.086,-4.398 12.879,-3.957C12.679,-3.523 12.361,-3.154 11.961,-2.891C11.559,-2.621 11.113,-2.465 10.625,-2.421C10.137,-2.383 9.665,-2.469 9.207,-2.684ZM2.293,-2.344C2.5,-2.785 2.805,-3.144 3.211,-3.414C4.028,-3.962 5.076,-4.041 5.965,-3.621C6.408,-3.417 6.789,-3.099 7.07,-2.7C7.348,-2.298 7.516,-1.856 7.566,-1.372C7.617,-0.888 7.539,-0.427 7.332,0.015C7.125,0.456 6.82,0.815 6.414,1.085C6.012,1.355 5.566,1.511 5.078,1.55C4.591,1.591 4.101,1.502 3.66,1.292C3.218,1.088 2.838,0.77 2.56,0.371C2.282,-0.021 2.109,-0.479 2.06,-0.957C2.009,-1.441 2.087,-1.902 2.294,-2.344L2.293,-2.344ZM8.332,0.484C8.539,0.043 8.848,-0.312 9.25,-0.582C9.656,-0.852 10.102,-1.008 10.59,-1.047C11.078,-1.09 11.547,-1.004 12.004,-0.789C12.447,-0.584 12.828,-0.266 13.109,0.133C13.391,0.535 13.555,0.977 13.609,1.461C13.66,1.945 13.582,2.406 13.375,2.848C13.175,3.282 12.857,3.651 12.457,3.914C12.051,4.184 11.605,4.34 11.121,4.383C10.633,4.422 10.161,4.336 9.703,4.121C9.258,3.919 8.877,3.601 8.598,3.2C8.32,2.809 8.149,2.353 8.102,1.876C8.051,1.392 8.125,0.926 8.332,0.486L8.332,0.484Z" style="fill:#1a1a1a;fill-rule:nonzero;"/>
                </g>
                <g id="S" transform="matrix(1,0,0,1,621.884,304.818)">
                    <path d="M13.184,-12.113L18.191,-8.766L11.231,7.512L8.219,5.496L9.523,2.296L6.07,-0.011L3.672,2.457L0.738,0.492L13.184,-12.113ZM10.898,-0.711L13.77,-7.25L13.25,-7.594L8.344,-2.418L10.898,-0.711Z" style="fill:#1a1a1a;fill-rule:nonzero;"/>
                </g>
                <g id="T" transform="matrix(1,0,0,1,636.288,314.588)">
                    <path d="M11.496,-13.098L14.895,-10.434L9.563,-0.524L17.953,-8.031L21.297,-5.411L7.234,5.673L4.078,3.199L11.496,-13.098Z" style="fill:#1a1a1a;fill-rule:nonzero;"/>
                </g>
                <g id="U" transform="matrix(1,0,0,1,649.911,325.419)">
                    <path d="M14.86,-9.988L19.305,-5.922L9.973,9.118L7.297,6.672L9.067,3.707L6.004,0.907L3.258,2.98L0.656,0.598L14.86,-9.988ZM10.878,0.942L14.702,-5.09L14.245,-5.512L8.612,-1.132L10.878,0.942Z" style="fill:#1a1a1a;fill-rule:nonzero;"/>
                </g>
                <g id="V" transform="matrix(1,0,0,1,662.677,337.249)">
                    <path d="M13.52,-11.023L17.71,-6.563C18.547,-5.672 19.121,-4.723 19.434,-3.723C19.746,-2.719 19.777,-1.743 19.539,-0.797C19.297,0.148 18.789,0.984 18.012,1.715C17.215,2.465 16.336,2.934 15.382,3.121C14.43,3.309 13.465,3.211 12.484,2.824L9.762,10.391L6.872,7.312L9.421,0.566L8.355,-0.574L3.633,3.863L0.84,0.891L13.52,-11.023ZM11.695,-2.066C12.172,-1.559 12.648,-1.191 13.125,-0.965C13.602,-0.738 14.039,-0.637 14.43,-0.668C14.824,-0.699 15.152,-0.836 15.418,-1.082C15.672,-1.324 15.836,-1.637 15.902,-2.02C15.972,-2.402 15.934,-2.812 15.785,-3.25C15.62,-3.715 15.356,-4.138 15.012,-4.492L13.848,-5.734L10.871,-2.938L11.695,-2.066Z" style="fill:#1a1a1a;fill-rule:nonzero;"/>
                </g>
                <g id="W" transform="matrix(1,0,0,1,674.513,350.009)">
                    <path d="M4.379,0.23L5.809,2.004L14.254,-4.805L12.84,-6.563L15.398,-8.625L20.715,-2.031L18.156,0.035L16.77,-1.684L8.328,5.125L9.711,6.844L7.17,8.89L1.84,2.277L4.379,0.23Z" style="fill:#1a1a1a;fill-rule:nonzero;"/>
                </g>
                <g id="Y" transform="matrix(1,0,0,1,695.127,378.027)">
                    <path d="M6.57,0.172C6.258,1.132 6.094,1.965 6.07,2.672C6.047,3.379 6.2,4.016 6.531,4.586C6.898,5.215 7.309,5.609 7.766,5.773C8.223,5.938 8.707,5.871 9.219,5.574C9.535,5.391 9.75,5.172 9.863,4.93C9.973,4.684 10.02,4.41 10,4.105C9.98,3.801 9.918,3.352 9.812,2.758C9.72,2.242 9.637,1.725 9.562,1.207C9.372,-0.266 9.422,-1.523 9.719,-2.57C10.012,-3.617 10.691,-4.45 11.766,-5.074C12.516,-5.524 13.384,-5.739 14.258,-5.691C15.133,-5.645 15.988,-5.328 16.828,-4.738C17.668,-4.148 18.414,-3.289 19.07,-2.164C19.676,-1.125 20.031,-0.102 20.137,0.91C20.247,1.922 20.121,3.012 19.766,4.18L16.539,3.172C16.649,2.609 16.715,2.129 16.742,1.734C16.77,1.336 16.742,0.941 16.652,0.543C16.551,0.109 16.382,-0.306 16.152,-0.687C15.805,-1.281 15.414,-1.676 14.977,-1.875C14.567,-2.075 14.082,-2.05 13.695,-1.809C13.371,-1.621 13.156,-1.344 13.062,-0.977C12.963,-0.577 12.938,-0.163 12.988,0.246C13.035,0.696 13.128,1.301 13.27,2.063C13.488,3.183 13.617,4.129 13.656,4.898C13.694,5.678 13.557,6.456 13.254,7.176C12.945,7.926 12.359,8.551 11.492,9.055C10.484,9.641 9.488,9.915 8.5,9.875C7.512,9.832 6.59,9.508 5.734,8.895C4.879,8.281 4.129,7.425 3.492,6.328C2.789,5.125 2.457,3.91 2.492,2.68C2.527,1.453 2.782,0.215 3.258,-1.035L6.57,0.172Z" style="fill:#1a1a1a;fill-rule:nonzero;"/>
                </g>
                <g id="Z" transform="matrix(1,0,0,1,703.787,393.123)">
                    <path d="M2.863,6.613C2.199,5.246 1.938,4.047 2.082,3.012C2.222,1.977 2.707,1.062 3.527,0.27C4.347,-0.523 5.497,-1.281 6.98,-2L16.2,-6.473L17.98,-2.8L8.934,1.586C8.004,2.039 7.297,2.441 6.804,2.793C6.312,3.148 6,3.512 5.859,3.887C5.723,4.262 5.766,4.68 5.992,5.148C6.215,5.609 6.516,5.895 6.891,6.008C7.266,6.121 7.734,6.09 8.309,5.918C8.879,5.75 9.637,5.434 10.579,4.977L19.624,0.59L21.405,4.258L12.187,8.734C10.702,9.454 9.394,9.887 8.261,10.035C7.128,10.184 6.112,9.992 5.21,9.461C4.308,8.93 3.526,7.981 2.862,6.613L2.863,6.613Z" style="fill:#1a1a1a;fill-rule:nonzero;"/>
                </g>
                <g id="aa" transform="matrix(1,0,0,1,711.282,408.831)">
                    <path d="M16.617,-5.297L18.09,-1.57L12.973,2.594L19.559,2.16L21.031,5.887L4.848,12.277L3.402,8.617L11.906,5.257L12.219,5.199L11.984,5.098L7.223,5.676L6.683,4.316L10.56,1.48L10.657,1.238L10.376,1.375L1.868,4.735L0.434,1.093L16.617,-5.297Z" style="fill:#1a1a1a;fill-rule:nonzero;"/>
                </g>
                <g id="ab" transform="matrix(1,0,0,1,717.568,425.061)">
                    <path d="M1.832,6.969C1.382,5.516 1.305,4.293 1.605,3.289C1.902,2.289 2.515,1.461 3.445,0.797C4.375,0.137 5.625,-0.438 7.199,-0.926L16.989,-3.957L18.199,-0.059L8.589,2.918C7.605,3.223 6.844,3.512 6.305,3.789C5.765,4.062 5.402,4.375 5.207,4.727C5.016,5.074 4.992,5.497 5.148,5.992C5.301,6.48 5.551,6.809 5.906,6.977C6.258,7.145 6.73,7.187 7.32,7.105C7.91,7.023 8.707,6.825 9.707,6.515L19.312,3.539L20.52,7.437L10.73,10.469C9.156,10.957 7.797,11.188 6.656,11.168C5.516,11.145 4.539,10.801 3.726,10.141C2.914,9.481 2.281,8.421 1.832,6.969Z" style="fill:#1a1a1a;fill-rule:nonzero;"/>
                </g>
                <g id="ac" transform="matrix(1,0,0,1,722.61,441.719)">
                    <path d="M6.223,2.121C5.637,2.945 5.23,3.691 4.996,4.359C4.766,5.027 4.723,5.684 4.867,6.32C5.031,7.031 5.305,7.535 5.691,7.828C6.078,8.121 6.563,8.199 7.137,8.066C7.497,7.984 7.766,7.844 7.945,7.645C8.125,7.441 8.25,7.195 8.325,6.898C8.395,6.602 8.469,6.156 8.547,5.555C8.617,5.004 8.691,4.488 8.77,4.004C9.027,2.539 9.45,1.355 10.043,0.441C10.633,-0.469 11.535,-1.063 12.743,-1.336C13.594,-1.541 14.488,-1.488 15.309,-1.184C16.129,-0.879 16.852,-0.32 17.477,0.492C18.102,1.305 18.559,2.348 18.847,3.617C19.117,4.789 19.148,5.871 18.953,6.867C18.753,7.867 18.309,8.871 17.621,9.883L14.844,7.957C15.114,7.453 15.32,7.016 15.464,6.645C15.609,6.273 15.699,5.887 15.734,5.48C15.767,5.037 15.73,4.592 15.625,4.16C15.473,3.488 15.215,2.992 14.852,2.672C14.521,2.359 14.05,2.238 13.609,2.355C13.254,2.43 12.945,2.65 12.758,2.961C12.558,3.281 12.414,3.664 12.324,4.105C12.238,4.547 12.144,5.156 12.051,5.922C11.926,7.059 11.766,8 11.578,8.746C11.382,9.501 11.017,10.202 10.512,10.796C9.996,11.422 9.25,11.844 8.273,12.066C7.137,12.328 6.102,12.293 5.172,11.957C4.242,11.625 3.461,11.039 2.824,10.199C2.188,9.359 1.73,8.32 1.445,7.079C1.137,5.723 1.18,4.465 1.578,3.301C1.977,2.141 2.59,1.031 3.418,-0.019L6.223,2.121Z" style="fill:#1a1a1a;fill-rule:nonzero;"/>
                </g>
                <g id="ae" transform="matrix(1,0,0,1,728.851,475.938)">
                    <path d="M6.848,6.715C6.772,5.734 7.22,4.782 8.024,4.215C8.413,3.937 8.871,3.772 9.348,3.738C9.836,3.703 10.293,3.797 10.727,4.016C11.605,4.46 12.186,5.335 12.257,6.316C12.293,6.82 12.207,7.293 11.992,7.734C11.782,8.176 11.477,8.535 11.082,8.816C10.684,9.098 10.242,9.258 9.758,9.293C9.28,9.33 8.802,9.234 8.375,9.016C7.948,8.799 7.583,8.476 7.316,8.078C7.04,7.674 6.878,7.203 6.848,6.715ZM3.168,0.852C3.652,0.816 4.113,0.906 4.547,1.129C4.98,1.348 5.336,1.66 5.609,2.066C5.883,2.473 6.039,2.926 6.074,3.426C6.114,3.93 6.024,4.402 5.813,4.844C5.602,5.285 5.297,5.644 4.898,5.926C4.51,6.205 4.051,6.37 3.574,6.402C3.098,6.44 2.62,6.344 2.195,6.125C1.767,5.908 1.401,5.585 1.133,5.187C0.859,4.782 0.699,4.312 0.668,3.824C0.628,3.324 0.718,2.852 0.93,2.41C1.14,1.969 1.445,1.61 1.844,1.328C2.232,1.049 2.691,0.884 3.168,0.852ZM3.656,7.504C4.145,7.469 4.602,7.559 5.036,7.781C5.469,8.004 5.824,8.316 6.098,8.719C6.371,9.125 6.528,9.579 6.566,10.082C6.602,10.586 6.516,11.055 6.305,11.496C6.09,11.937 5.785,12.296 5.391,12.582C4.598,13.147 3.552,13.224 2.684,12.782C2.256,12.564 1.891,12.24 1.625,11.84C1.349,11.437 1.187,10.967 1.156,10.48C1.078,9.498 1.526,8.546 2.332,7.98C2.72,7.701 3.179,7.536 3.656,7.504Z" style="fill:#1a1a1a;fill-rule:nonzero;"/>
                </g>
                <g id="ag" transform="matrix(1,0,0,1,729.863,510.707)">
                    <path d="M17.02,5.563L16.55,11.57L-1.05,13.473L-0.77,9.859L2.66,9.426L2.98,5.289L-0.344,4.402L-0.07,0.887L17.02,5.563ZM5.953,9.155L13.063,8.456L13.109,7.835L6.191,6.093L5.953,9.155Z" style="fill:#1a1a1a;fill-rule:nonzero;"/>
                </g>
                <g id="ah" transform="matrix(1,0,0,1,728.397,528.05)">
                    <path d="M17.047,3.61L16.387,7.879L5.137,8.082L15.793,11.719L15.145,15.918L-1.406,9.082L-0.793,5.125L17.047,3.61Z" style="fill:#1a1a1a;fill-rule:nonzero;"/>
                </g>
                <g id="ai" transform="matrix(1,0,0,1,725.623,545.232)">
                    <path d="M15.984,8.066L14.617,13.934L-3.07,13.16L-2.246,9.629L1.207,9.719L2.152,5.676L-1.004,4.3L-0.204,0.862L15.984,8.066ZM4.508,9.95L11.637,10.33L11.781,9.724L5.203,6.958L4.508,9.95Z" style="fill:#1a1a1a;fill-rule:nonzero;"/>
                </g>
                <g id="aj" transform="matrix(1,0,0,1,721.559,562.155)">
                    <path d="M16.23,6.39L14.395,12.227C14.027,13.395 13.48,14.359 12.762,15.121C12.039,15.883 11.207,16.391 10.262,16.645C9.32,16.898 8.34,16.863 7.324,16.543C6.277,16.215 5.441,15.68 4.809,14.941C4.179,14.203 3.793,13.312 3.649,12.27L-4.277,13.598L-3.012,9.57L4.121,8.492L4.59,7.004L-1.59,5.059L-0.367,1.168L16.23,6.39ZM7.527,9.189C7.317,9.853 7.23,10.446 7.266,10.974C7.301,11.501 7.43,11.927 7.648,12.259C7.868,12.587 8.148,12.806 8.492,12.911C8.828,13.017 9.18,13.009 9.547,12.88C9.914,12.751 10.254,12.517 10.562,12.173C10.886,11.802 11.127,11.365 11.266,10.892L11.777,9.267L7.887,8.044L7.527,9.189Z" style="fill:#1a1a1a;fill-rule:nonzero;"/>
                </g>
                <g id="ak" transform="matrix(1,0,0,1,716.228,578.723)">
                    <path d="M1.941,3.93L1.098,6.047L11.168,10.074L12.008,7.98L15.058,9.203L11.914,17.07L8.859,15.848L9.679,13.797L-0.39,9.77L-1.21,11.82L-4.241,10.605L-1.085,2.719L1.941,3.93Z" style="fill:#1a1a1a;fill-rule:nonzero;"/>
                </g>
                <g id="am" transform="matrix(1,0,0,1,701.892,610.415)">
                    <path d="M3.066,5.813C2.078,6.012 1.27,6.273 0.641,6.602C0.042,6.9 -0.458,7.363 -0.801,7.937C-1.168,8.567 -1.312,9.121 -1.234,9.597C-1.152,10.078 -0.855,10.465 -0.348,10.766C-0.031,10.953 0.262,11.036 0.532,11.012C0.801,10.988 1.062,10.895 1.316,10.73C1.574,10.562 1.934,10.29 2.402,9.906C2.832,9.555 3.238,9.23 3.629,8.93C4.82,8.043 5.94,7.473 7,7.215C8.055,6.957 9.117,7.145 10.184,7.773C10.944,8.207 11.558,8.859 11.945,9.645C12.332,10.43 12.477,11.332 12.371,12.352C12.266,13.372 11.887,14.445 11.223,15.57C10.613,16.605 9.898,17.414 9.066,18.004C8.238,18.594 7.226,19.02 6.031,19.281L5.332,15.973C5.875,15.793 6.328,15.617 6.688,15.449C7.047,15.277 7.378,15.059 7.68,14.785C7.984,14.515 8.262,14.168 8.508,13.75C8.855,13.156 9.008,12.617 8.968,12.14C8.94,11.685 8.68,11.275 8.281,11.055C7.971,10.866 7.596,10.814 7.246,10.91C6.849,11.019 6.476,11.2 6.145,11.445C5.777,11.707 5.297,12.085 4.699,12.578C3.829,13.32 3.066,13.895 2.414,14.305C1.755,14.722 1.009,14.984 0.234,15.07C-0.57,15.168 -1.406,14.96 -2.266,14.453C-3.273,13.863 -4,13.125 -4.449,12.246C-4.895,11.367 -5.063,10.402 -4.945,9.356C-4.832,8.309 -4.453,7.238 -3.809,6.141C-3.102,4.941 -2.203,4.055 -1.117,3.484C-0.031,2.914 1.176,2.531 2.5,2.332L3.066,5.813Z" style="fill:#1a1a1a;fill-rule:nonzero;"/>
                </g>
                <g id="an" transform="matrix(1,0,0,1,692.969,625.358)">
                    <path d="M-4.367,5.734C-3.5,4.484 -2.578,3.672 -1.605,3.289C-0.633,2.906 0.398,2.879 1.492,3.207C2.586,3.531 3.809,4.168 5.16,5.105L13.574,10.957L11.246,14.305L2.988,8.566C2.141,7.976 1.445,7.555 0.895,7.301C0.348,7.047 -0.125,6.949 -0.52,7.011C-0.914,7.074 -1.258,7.321 -1.555,7.746C-1.848,8.168 -1.949,8.566 -1.863,8.949C-1.777,9.329 -1.523,9.727 -1.093,10.141C-0.664,10.555 -0.023,11.062 0.84,11.661L9.098,17.398L6.77,20.75L-1.648,14.902C-3,13.961 -4.02,13.032 -4.703,12.117C-5.387,11.203 -5.719,10.223 -5.699,9.176C-5.676,8.129 -5.234,6.98 -4.367,5.734Z" style="fill:#1a1a1a;fill-rule:nonzero;"/>
                </g>
                <g id="ao" transform="matrix(1,0,0,1,682.943,639.584)">
                    <path d="M12.754,11.895L10.223,15.004L4.09,12.578L7.695,18.113L5.165,21.223L-8.332,10.238L-5.848,7.188L1.246,12.957L1.449,13.199L1.422,12.945L-1.414,9.075L-0.488,7.941L3.879,9.93L4.137,9.895L3.883,9.719L-3.211,3.945L-0.742,0.915L12.754,11.895Z" style="fill:#1a1a1a;fill-rule:nonzero;"/>
                </g>
                <g id="ap" transform="matrix(1,0,0,1,671.87,653.012)">
                    <path d="M-5.18,5.012C-4.133,3.906 -3.102,3.242 -2.086,3.008C-1.066,2.778 -0.043,2.906 0.992,3.395C2.023,3.883 3.137,4.691 4.332,5.828L11.77,12.875L8.96,15.835L1.664,8.918C0.914,8.207 0.29,7.688 -0.215,7.352C-0.719,7.016 -1.172,6.852 -1.57,6.855C-1.969,6.855 -2.348,7.047 -2.703,7.422C-3.055,7.793 -3.219,8.176 -3.191,8.566C-3.164,8.957 -2.973,9.386 -2.609,9.859C-2.25,10.336 -1.688,10.934 -0.929,11.652L6.371,18.57L3.562,21.531L-3.875,14.484C-5.07,13.348 -5.938,12.277 -6.477,11.27C-7.016,10.266 -7.195,9.246 -7.016,8.215C-6.836,7.184 -6.226,6.113 -5.18,5.012Z" style="fill:#1a1a1a;fill-rule:nonzero;"/>
                </g>
                <g id="aq" transform="matrix(1,0,0,1,659.814,665.564)">
                    <path d="M1.195,6.465C0.191,6.359 -0.656,6.367 -1.355,6.492C-2.051,6.617 -2.645,6.898 -3.129,7.34C-3.668,7.828 -3.973,8.313 -4.039,8.793C-4.105,9.273 -3.938,9.734 -3.539,10.176C-3.293,10.446 -3.039,10.613 -2.773,10.672C-2.512,10.73 -2.234,10.715 -1.941,10.632C-1.648,10.551 -1.219,10.398 -0.661,10.172C-0.175,9.975 0.313,9.786 0.805,9.605C2.203,9.113 3.445,8.902 4.531,8.973C5.613,9.043 6.574,9.535 7.406,10.457C8.001,11.098 8.391,11.902 8.527,12.766C8.664,13.629 8.531,14.536 8.129,15.476C7.727,16.422 7.039,17.332 6.074,18.207C5.184,19.012 4.258,19.574 3.289,19.887C2.324,20.203 1.23,20.309 0.012,20.203L0.332,16.836C0.902,16.824 1.387,16.793 1.782,16.738C2.172,16.684 2.555,16.574 2.926,16.402C3.328,16.214 3.699,15.964 4.023,15.66C4.535,15.195 4.84,14.73 4.941,14.258C5.05,13.817 4.926,13.349 4.613,13.02C4.371,12.748 4.028,12.587 3.664,12.574C3.253,12.56 2.843,12.623 2.454,12.758C2.024,12.898 1.454,13.113 0.734,13.406C-0.316,13.856 -1.215,14.176 -1.957,14.375C-2.699,14.575 -3.473,14.602 -4.27,14.453C-5.066,14.309 -5.8,13.863 -6.473,13.121C-7.258,12.258 -7.73,11.336 -7.895,10.363C-8.059,9.391 -7.93,8.422 -7.512,7.457C-7.09,6.492 -6.406,5.582 -5.465,4.727C-4.434,3.793 -3.313,3.215 -2.105,2.992C-0.895,2.773 0.367,2.766 1.687,2.972L1.195,6.465Z" style="fill:#1a1a1a;fill-rule:nonzero;"/>
                </g>
                <g id="as" transform="matrix(1,0,0,1,633.033,687.761)">
                    <path d="M-2.504,9.258C-1.687,8.71 -0.638,8.634 0.25,9.058C0.691,9.266 1.047,9.574 1.316,9.98C1.586,10.387 1.73,10.836 1.75,11.32C1.77,11.809 1.668,12.27 1.453,12.707C1.234,13.145 0.914,13.5 0.493,13.781C0.088,14.055 -0.383,14.214 -0.871,14.242C-1.349,14.275 -1.828,14.185 -2.261,13.98C-2.694,13.778 -3.063,13.459 -3.324,13.059C-3.59,12.661 -3.741,12.197 -3.758,11.719C-3.802,10.736 -3.325,9.8 -2.504,9.258ZM0.81,3.176C1.08,3.582 1.224,4.031 1.243,4.516C1.287,5.498 0.81,6.434 -0.011,6.976C-0.416,7.249 -0.887,7.409 -1.374,7.441C-1.854,7.473 -2.334,7.382 -2.769,7.176C-3.202,6.973 -3.569,6.654 -3.831,6.254C-4.097,5.856 -4.248,5.392 -4.265,4.914C-4.285,4.426 -4.186,3.964 -3.968,3.527C-3.749,3.09 -3.428,2.734 -3.007,2.453C-2.603,2.18 -2.133,2.021 -1.647,1.993C-1.159,1.961 -0.694,2.047 -0.253,2.253C0.189,2.461 0.54,2.77 0.81,3.176ZM-4.753,6.863C-4.483,7.27 -4.339,7.715 -4.319,8.203C-4.275,9.185 -4.752,10.12 -5.573,10.66C-5.979,10.933 -6.449,11.093 -6.937,11.125C-7.417,11.157 -7.897,11.065 -8.331,10.859C-8.764,10.656 -9.132,10.337 -9.394,9.938C-9.661,9.541 -9.811,9.076 -9.827,8.598C-9.871,7.615 -9.392,6.68 -8.57,6.14C-7.752,5.594 -6.704,5.518 -5.816,5.94C-5.375,6.147 -5.023,6.456 -4.754,6.862L-4.753,6.863Z" style="fill:#1a1a1a;fill-rule:nonzero;"/>
                </g>
                <g id="au" transform="matrix(1,0,0,1,94.243,505.758)">
                    <path d="M-15.191,-11.117L-15.684,-1.023L-9.625,-0.727C-9.463,-0.719 -9.301,-0.715 -9.139,-0.715C-4.024,-0.715 0.243,-4.789 0.48,-9.898L1.82,-37.512C2.078,-42.785 -2.008,-47.359 -7.348,-47.617L-44.602,-49.426L-45.098,-39.203L-8.368,-37.418L-9.656,-10.848L-15.191,-11.117Z" style="fill:#1a1a1a;fill-rule:nonzero;"/>
                </g>
                <g id="av" transform="matrix(1,0,0,1,97.33,448.907)">
                    <path d="M-43.465,-22.367L-45.398,-12.449L-8.797,-5.305C-8.183,-5.184 -7.558,-5.123 -6.932,-5.123C-2.336,-5.123 1.651,-8.413 2.523,-12.925L7.82,-40.06C8.832,-45.243 5.445,-50.356 0.195,-51.38L-36.406,-58.524L-38.367,-48.478L-2.277,-41.435L-7.371,-15.325L-43.465,-22.367Z" style="fill:#1a1a1a;fill-rule:nonzero;"/>
                </g>
                <g id="aw" transform="matrix(1,0,0,1,109.376,390.078)">
                    <path d="M1.23,-3.508L16.746,-47.812L7.148,-51.176L-5.032,-16.406L-39.797,-28.586L-43.137,-19.046L1.23,-3.508Z" style="fill:#1a1a1a;fill-rule:nonzero;"/>
                </g>
                <g id="ax" transform="matrix(1,0,0,1,129.23,336.886)">
                    <path d="M1.555,-3.375L5.816,-12.609L-36.813,-32.273L-41.07,-23.035L1.555,-3.375Z" style="fill:#1a1a1a;fill-rule:nonzero;"/>
                </g>
                <g id="ay" transform="matrix(1,0,0,1,137.144,318.057)">
                    <path d="M-33.645,-35.387C-34.523,-33.903 -34.986,-32.21 -34.986,-30.485C-34.986,-27.071 -33.169,-23.902 -30.223,-22.176L1.918,-3.258L7.043,-11.968L-5.992,-19.641L7.5,-42.566L20.54,-34.895L25.73,-43.715L-6.41,-62.633C-11.02,-65.343 -16.941,-63.762 -19.656,-59.156L-33.645,-35.387ZM-14.758,-24.8L-24.648,-30.62L-11.152,-53.546L-1.266,-47.726L-14.758,-24.8Z" style="fill:#1a1a1a;fill-rule:nonzero;"/>
                </g>
                <g id="aA" transform="matrix(1,0,0,1,185.117,244.978)">
                    <path d="M-21.969,-19.055L-13.32,-29.07L-13.879,-32.312L-13.922,-32.262L-13.937,-32.445L10.098,-11.695L16.618,-19.246L-18.914,-49.926L-25.691,-42.078L-21.969,-19.055Z" style="fill:#1a1a1a;fill-rule:nonzero;"/>
                </g>
                <g id="aB" transform="matrix(1,0,0,1,205.388,220.772)">
                    <path d="M-22.105,-43.477C-25.937,-39.941 -26.051,-33.715 -22.512,-29.883L-4.122,-9.949C-0.628,-6.16 5.896,-5.438 9.728,-8.977L29.614,-27.324C33.45,-30.859 33.251,-37.418 29.759,-41.207L11.369,-61.141C7.829,-64.973 1.619,-65.363 -2.218,-61.824L-22.105,-43.477ZM6.785,-20.723L10.223,-47.668L22.074,-34.824L6.785,-20.723ZM0.457,-50.367L-2.98,-23.422L-14.828,-36.262L0.457,-50.367Z" style="fill:#1a1a1a;fill-rule:nonzero;"/>
                </g>
                <g id="aD" transform="matrix(1,0,0,1,272.02,164.232)">
                    <path d="M12.898,-62.05C11.895,-54.5 10.703,-46.234 9.641,-38.652L-12.449,-47.141L-22.844,-41.023C-17.152,-38.551 -8.719,-34.887 -2.402,-32.246L10.778,-26.687L19.668,-11.57L28.438,-16.727L19.578,-31.789L23.406,-68.23L12.898,-62.05Z" style="fill:#1a1a1a;fill-rule:nonzero;"/>
                </g>
                <g id="aE" transform="matrix(1,0,0,1,322.803,134.966)">
                    <path d="M25.73,-61.352L-14.363,-44.852L3.497,-1.438L43.594,-17.938L39.723,-27.344L9.093,-14.738L5.969,-22.336L30.629,-32.484L26.758,-41.891L2.098,-31.742L-1.027,-39.34L29.602,-51.945L25.73,-61.352Z" style="fill:#1a1a1a;fill-rule:nonzero;"/>
                </g>
                <g id="aF" transform="matrix(1,0,0,1,374.717,113.902)">
                    <path d="M1.566,-48.8C-2.709,-47.734 -5.733,-43.864 -5.733,-39.458C-5.733,-38.659 -5.633,-37.864 -5.437,-37.09L3.668,-0.922L13.468,-3.391L9.778,-18.059L35.574,-24.551L39.266,-9.883L49.191,-12.383L40.09,-48.547C38.785,-53.73 33.496,-56.84 28.312,-55.535L1.566,-48.8ZM7.293,-27.922L4.493,-39.051L30.289,-45.543L33.089,-34.414L7.293,-27.922Z" style="fill:#1a1a1a;fill-rule:nonzero;"/>
                </g>
                <g id="aG" transform="matrix(1,0,0,1,433.584,99.579)">
                    <path d="M46.64,-41.996C46.125,-47.254 41.352,-51.172 36.031,-50.648L-1.019,-47.004L3.57,-0.352L13.624,-1.34L12.151,-16.328C12.221,-16.27 12.351,-16.285 12.351,-16.285C12.327,-16.543 12.249,-16.668 12.121,-16.652L25.479,-18.035L39.905,-3.925L50.288,-4.945L49.948,-8.387C46.319,-11.961 42.343,-15.762 38.651,-19.328L39.104,-19.375C44.424,-19.898 48.347,-24.672 47.827,-29.93L46.64,-41.996ZM10.027,-37.937L36.5,-40.54L37.59,-29.446L11.117,-26.841L10.027,-37.937Z" style="fill:#1a1a1a;fill-rule:nonzero;"/>
                </g>
                <g id="aI" transform="matrix(1,0,0,1,520.254,94.59)">
                    <path d="M18.824,-45.055C18.444,-45.1 18.063,-45.123 17.68,-45.123C12.813,-45.123 8.672,-41.433 8.114,-36.598L3.753,0.442L13.792,1.622L15.558,-13.398L41.979,-10.293L40.21,4.73L50.38,5.926L54.735,-31.114C55.36,-36.422 51.525,-41.207 46.215,-41.832L18.824,-45.055ZM16.75,-23.5L18.09,-34.898L44.508,-31.789L43.168,-20.395L16.75,-23.5Z" style="fill:#1a1a1a;fill-rule:nonzero;"/>
                </g>
                <g id="aJ" transform="matrix(1,0,0,1,580.369,102.129)">
                    <path d="M43.055,-4.48L25.938,-41.586L15.87,-44.332L3.523,0.961L13.273,3.617L21.539,-26.699L38.75,10.566L48.813,13.309L61.164,-31.981L51.285,-34.676L43.055,-4.48Z" style="fill:#1a1a1a;fill-rule:nonzero;"/>
                </g>
                <g id="aK" transform="matrix(1,0,0,1,638.449,118.434)">
                    <path d="M43.242,1.95L31.812,-37.281L22.266,-41.488L3.34,1.472L12.59,5.547L25.258,-23.215L36.754,16.191L46.301,20.398L65.227,-22.562L55.859,-26.692L43.242,1.95Z" style="fill:#1a1a1a;fill-rule:nonzero;"/>
                </g>
                <g id="aL" transform="matrix(1,0,0,1,693.035,143.89)">
                    <path d="M3.234,1.828L12.09,6.832L35.188,-34.035L26.332,-39.039L3.234,1.828Z" style="fill:#1a1a1a;fill-rule:nonzero;"/>
                </g>
                <g id="aM" transform="matrix(1,0,0,1,711.384,152.997)">
                    <path d="M34.828,9.398L38.914,-29.762L29.418,-36.656L23.852,17.309L30.66,22.246L80.234,0.22L70.79,-6.637L34.828,9.398Z" style="fill:#1a1a1a;fill-rule:nonzero;"/>
                </g>
                <g id="aN" transform="matrix(1,0,0,1,768.571,195.832)">
                    <path d="M66.527,0.105L35.852,-30.539L2.676,2.67L33.348,33.315L40.539,26.12L17.105,2.71L22.91,-3.103L41.777,15.745L48.965,8.55L30.102,-10.298L35.906,-16.11L59.34,7.3L66.527,0.105Z" style="fill:#1a1a1a;fill-rule:nonzero;"/>
                </g>
                <g id="aO" transform="matrix(1,0,0,1,807.993,235.635)">
                    <path d="M60.094,18.117C64.32,14.949 65.195,8.832 61.988,4.555L39.668,-25.238L2.148,2.872L8.211,10.957L20.261,1.926C20.25,2.02 20.328,2.121 20.328,2.121C20.535,1.965 20.602,1.836 20.523,1.731L28.629,12.441L24.043,32.09L30.297,40.437L33.062,38.367C34.238,33.414 35.43,28.039 36.566,23.035L36.84,23.398C40.047,27.676 46.16,28.555 50.387,25.387L60.094,18.117ZM37.64,-11.09L53.59,10.2L44.668,16.883L28.715,-4.407L37.64,-11.09Z" style="fill:#1a1a1a;fill-rule:nonzero;"/>
                </g>
                <g id="aP" transform="matrix(1,0,0,1,843.523,283.817)">
                    <path d="M56.715,26.484C61.418,23.941 63.125,18.051 60.613,13.406L47.465,-10.91C45.789,-14.028 42.523,-15.98 38.983,-15.98C37.378,-15.98 35.798,-15.578 34.387,-14.812L26.242,-10.41C23.126,-8.734 21.175,-5.469 21.175,-1.931C21.175,-0.324 21.577,1.257 22.344,2.668L35.21,26.473L27.983,30.379L15.336,6.977L18.719,5.148L13.914,-3.742L10.07,-1.664C6.954,0.012 5.003,3.277 5.003,6.815C5.003,8.422 5.405,10.003 6.172,11.414L19.316,35.73C21.828,40.379 27.691,42.176 32.395,39.633L40.539,35.227C45.242,32.684 46.949,26.797 44.437,22.152L31.508,-1.766L38.735,-5.672L51.388,17.727L48.005,19.559L52.872,28.562L56.715,26.484Z" style="fill:#1a1a1a;fill-rule:nonzero;"/>
                </g>
                <g id="aQ" transform="matrix(1,0,0,1,871.535,336.509)">
                    <path d="M48.71,-3.352C47.34,-7.164 43.703,-9.722 39.652,-9.722C38.528,-9.722 37.412,-9.525 36.356,-9.14L1.29,3.555L4.728,13.059L18.949,7.91L28.004,32.922L13.78,38.07L17.265,47.695L52.336,35C57.363,33.18 59.922,27.61 58.102,22.582L48.71,-3.352ZM28.517,4.445L39.305,0.54L48.359,25.556L37.57,29.46L28.517,4.445Z" style="fill:#1a1a1a;fill-rule:nonzero;"/>
                </g>
                <g id="aR" transform="matrix(1,0,0,1,891.708,393.637)">
                    <path d="M46.477,42.18C51.652,41.137 55.074,35.992 54.016,30.75L46.664,-5.746L0.707,3.516L2.703,13.422L17.469,10.445C17.418,10.523 17.445,10.652 17.445,10.652C17.699,10.602 17.812,10.512 17.789,10.382L20.504,23.535L7.922,39.31L9.98,49.535L13.367,48.852C16.559,44.882 19.941,40.543 23.121,36.512L23.211,36.957C24.266,42.199 29.411,45.621 34.59,44.574L46.477,42.18ZM38.754,6.16L44.008,32.234L33.078,34.437L27.824,8.36L38.754,6.16Z" style="fill:#1a1a1a;fill-rule:nonzero;"/>
                </g>
                <g id="aS" transform="matrix(1,0,0,1,903.052,452.414)">
                    <path d="M49.121,40.043C42.887,35.672 36.098,30.805 29.859,26.367L47.574,10.676L46.938,-1.367C42.117,2.543 34.98,8.34 29.727,12.73L18.719,21.863L1.203,22.789L1.738,32.945L19.188,32.023L49.766,52.22L49.121,40.043Z" style="fill:#1a1a1a;fill-rule:nonzero;"/>
                </g>
                <g id="aU" transform="matrix(1,0,0,1,46.229,579.612)">
                    <path d="M17.656,6.531L15.363,-3.312L9.457,-1.938C5.103,-0.933 1.994,2.976 1.994,7.444C1.994,8.188 2.08,8.928 2.25,9.652L8.523,36.574C9.719,41.719 14.903,44.996 20.109,43.785L56.429,35.32L54.109,25.352L18.293,33.695L12.258,7.79L17.656,6.531Z" style="fill:#1a1a1a;fill-rule:nonzero;"/>
                </g>
                <g id="aV" transform="matrix(1,0,0,1,59.422,634.979)">
                    <path d="M48.75,-3.586L45.23,-13.059L10.273,-0.063C6.499,1.329 3.979,4.947 3.979,8.969C3.979,10.122 4.186,11.265 4.59,12.345L14.223,38.259C16.063,43.208 21.617,45.806 26.629,43.942L61.586,30.946L58.02,21.353L23.55,34.165L14.282,9.23L48.75,-3.586Z" style="fill:#1a1a1a;fill-rule:nonzero;"/>
                </g>
                <g id="aW" transform="matrix(1,0,0,1,80.795,691.081)">
                    <path d="M1.727,3.293L23.52,44.867L32.531,40.148L15.426,7.52L48.055,-9.582L43.359,-18.535L1.727,3.293Z" style="fill:#1a1a1a;fill-rule:nonzero;"/>
                </g>
                <g id="aX" transform="matrix(1,0,0,1,108.052,740.89)">
                    <path d="M1.996,3.137L7.457,11.719L47.062,-13.484L41.602,-22.066L1.996,3.137Z" style="fill:#1a1a1a;fill-rule:nonzero;"/>
                </g>
                <g id="aY" transform="matrix(1,0,0,1,118.481,758.43)">
                    <path d="M45.418,-17.926C43.597,-20.309 40.765,-21.71 37.766,-21.71C35.639,-21.71 33.571,-21.005 31.887,-19.707L2.3,3L8.452,11.016L20.452,1.809L36.648,22.91L24.648,32.121L30.883,40.242L60.469,17.535C64.711,14.281 65.465,8.195 62.211,3.953L45.418,-17.926ZM28.523,-4.383L37.629,-11.371L53.824,9.734L44.72,16.72L28.523,-4.383Z" style="fill:#1a1a1a;fill-rule:nonzero;"/>
                </g>
                <g id="ba" transform="matrix(1,0,0,1,174.651,825.439)">
                    <path d="M20.027,-21.082L29.645,-11.988L32.906,-12.402L32.859,-12.445L33.047,-12.449L11.227,10.617L18.473,17.473L50.73,-16.633L43.2,-23.758L20.027,-21.082Z" style="fill:#1a1a1a;fill-rule:nonzero;"/>
                </g>
                <g id="bb" transform="matrix(1,0,0,1,197.287,847.425)">
                    <path d="M39.172,-29.063C35.043,-32.25 28.887,-31.32 25.699,-27.191L9.117,-5.727C5.97,-1.648 6.347,4.903 10.477,8.09L31.887,24.633C36.016,27.82 42.449,26.527 45.602,22.453L62.18,0.988C65.367,-3.141 64.715,-9.332 60.586,-12.52L39.172,-29.063ZM21.562,3.227L48.707,2.113L38.023,15.941L21.562,3.227ZM49.734,-7.965L22.594,-6.852L33.274,-20.68L49.734,-7.965Z" style="fill:#1a1a1a;fill-rule:nonzero;"/>
                </g>
                <g id="bd" transform="matrix(1,0,0,1,268.348,898.281)">
                    <path d="M59.215,-22.586C52.312,-19.363 44.711,-15.91 37.75,-12.715L32.992,-35.898L22.238,-41.359C23.223,-35.227 24.684,-26.152 25.868,-19.406L28.288,-5.31L20.347,10.327L29.417,14.933L37.327,-0.649L70.085,-17.067L59.215,-22.586Z" style="fill:#1a1a1a;fill-rule:nonzero;"/>
                </g>
                <g id="be" transform="matrix(1,0,0,1,320.805,924.397)">
                    <path d="M60.246,-28.219L19.45,-42.895L3.56,1.281L44.356,15.957L47.802,6.383L16.633,-4.824L19.414,-12.554L44.508,-3.531L47.949,-13.101L22.855,-22.129L25.637,-29.859L56.805,-18.649L60.246,-28.219Z" style="fill:#1a1a1a;fill-rule:nonzero;"/>
                </g>
                <g id="bf" transform="matrix(1,0,0,1,373.586,943.128)">
                    <path d="M23.297,-42.91C22.604,-43.066 21.896,-43.144 21.186,-43.144C16.682,-43.144 12.752,-39.984 11.785,-35.586L3.691,0.82L13.559,3.012L16.839,-11.754L42.81,-5.98L39.523,8.785L49.516,11.008L57.609,-25.398C58.769,-30.618 55.437,-35.766 50.219,-36.926L23.297,-42.91ZM19.047,-21.68L21.535,-32.883L47.504,-27.113L45.012,-15.91L19.047,-21.68Z" style="fill:#1a1a1a;fill-rule:nonzero;"/>
                </g>
                <g id="bg" transform="matrix(1,0,0,1,432.8,955.859)">
                    <path d="M53.605,-32.645C54.07,-37.906 50.102,-42.641 44.777,-43.113L7.691,-46.383L3.571,0.317L13.641,1.203L14.96,-13.8C15.019,-13.73 15.151,-13.718 15.151,-13.718C15.175,-13.976 15.121,-14.112 14.991,-14.124L28.374,-13.011L39.941,3.523L50.336,4.437L50.636,0.997C47.734,-3.187 44.527,-7.66 41.559,-11.848L42.016,-11.808C47.34,-11.336 52.074,-15.305 52.539,-20.566L53.605,-32.645ZM16.871,-35.43L43.367,-33.09L42.391,-21.984L15.891,-24.32L16.871,-35.43Z" style="fill:#1a1a1a;fill-rule:nonzero;"/>
                </g>
                <g id="bi" transform="matrix(1,0,0,1,519.488,960.394)">
                    <path d="M8.605,-48.063C3.708,-47.575 -0.067,-43.406 -0.067,-38.484C-0.067,-38.15 -0.05,-37.816 -0.015,-37.484L3.761,-0.383L13.815,-1.406L12.285,-16.457L38.749,-19.152L40.28,-4.102L50.465,-5.14L46.687,-42.241C46.145,-47.558 41.363,-51.397 36.043,-50.854L8.605,-48.063ZM11.254,-26.574L10.09,-37.992L36.555,-40.684L37.719,-29.27L11.254,-26.574Z" style="fill:#1a1a1a;fill-rule:nonzero;"/>
                </g>
                <g id="bj" transform="matrix(1,0,0,1,579.702,953.854)">
                    <path d="M35.66,-24.535L2.875,-48.925L-7.273,-46.52L3.555,-0.844L13.387,-3.172L6.137,-33.754L39.082,-9.262L49.23,-11.668L38.402,-57.348L28.445,-54.988L35.66,-24.535Z" style="fill:#1a1a1a;fill-rule:nonzero;"/>
                </g>
                <g id="bk" transform="matrix(1,0,0,1,638.291,939.558)">
                    <path d="M32.152,-28.98L-3.539,-48.883L-13.289,-45.172L3.414,-1.3L12.855,-4.894L1.675,-34.264L37.535,-14.288L47.285,-18L30.585,-61.871L21.02,-58.231L32.152,-28.98Z" style="fill:#1a1a1a;fill-rule:nonzero;"/>
                </g>
                <g id="bl" transform="matrix(1,0,0,1,694.17,917.072)">
                    <path d="M3.344,-1.621L12.496,-6.059L-7.977,-48.3L-17.129,-43.862L3.344,-1.621Z" style="fill:#1a1a1a;fill-rule:nonzero;"/>
                </g>
                <g id="bm" transform="matrix(1,0,0,1,712.978,909.035)">
                    <path d="M21.996,-28.59L-12.633,-47.336L-22.633,-41.191L25.11,-15.43L32.274,-19.832L30.86,-74.062L20.919,-67.953L21.996,-28.59Z" style="fill:#1a1a1a;fill-rule:nonzero;"/>
                </g>
                <g id="bn" transform="matrix(1,0,0,1,773.338,870.824)">
                    <path d="M6.512,-66.207L-26.941,-38.629L2.918,-2.406L36.375,-29.984L29.902,-37.832L4.348,-16.766L-0.879,-23.106L19.695,-40.066L13.227,-47.914L-7.348,-30.954L-12.574,-37.289L12.98,-58.36L6.512,-66.207Z" style="fill:#1a1a1a;fill-rule:nonzero;"/>
                </g>
                <g id="bo" transform="matrix(1,0,0,1,816.384,834.999)">
                    <path d="M7.55,-62.309C3.707,-65.929 -2.469,-65.746 -6.137,-61.855L-31.664,-34.754L2.457,-2.609L9.387,-9.965L-1.574,-20.293C-1.48,-20.297 -1.394,-20.391 -1.394,-20.391C-1.582,-20.571 -1.723,-20.613 -1.813,-20.516L7.352,-30.34L27.496,-29.188L34.648,-36.781L32.133,-39.148C27.051,-39.461 21.555,-39.711 16.426,-39.973L16.738,-40.305C20.406,-44.195 20.223,-50.371 16.378,-53.992L7.55,-62.309ZM-17.379,-35.179L0.863,-54.544L8.977,-46.899L-9.262,-27.536L-17.379,-35.179Z" style="fill:#1a1a1a;fill-rule:nonzero;"/>
                </g>
                <g id="bp" transform="matrix(1,0,0,1,857.131,791.162)">
                    <path d="M-0.781,-62.59C-5.113,-65.719 -11.161,-64.7 -14.254,-60.418L-30.449,-38.012C-31.642,-36.368 -32.285,-34.388 -32.285,-32.357C-32.285,-29.26 -30.791,-26.346 -28.277,-24.539L-20.773,-19.117C-19.129,-17.923 -17.148,-17.28 -15.116,-17.28C-12.021,-17.28 -9.108,-18.772 -7.301,-21.285L8.547,-43.215L15.207,-38.402L-0.375,-16.844L-3.496,-19.098L-9.414,-10.906L-5.875,-8.348C-4.23,-7.154 -2.249,-6.51 -0.216,-6.51C2.88,-6.51 5.794,-8.003 7.602,-10.516L23.793,-32.922C26.887,-37.203 25.957,-43.262 21.625,-46.395L14.121,-51.816C9.785,-54.95 3.742,-53.93 0.648,-49.648L-15.277,-27.613L-21.937,-32.426L-6.355,-53.984L-3.238,-51.734L2.758,-60.027L-0.781,-62.59Z" style="fill:#1a1a1a;fill-rule:nonzero;"/>
                </g>
                <g id="bq" transform="matrix(1,0,0,1,891.777,742.597)">
                    <path d="M-34.922,-34.129C-35.687,-32.719 -36.087,-31.14 -36.087,-29.536C-36.087,-25.995 -34.135,-22.728 -31.016,-21.051L1.797,-3.328L6.602,-12.218L-6.707,-19.406L5.933,-42.813L19.243,-35.625L24.109,-44.629L-8.707,-62.355C-13.41,-64.895 -19.273,-63.098 -21.812,-58.395L-34.922,-34.129ZM-15.656,-24.242L-25.754,-29.695L-13.114,-53.102L-3.016,-47.648L-15.656,-24.242Z" style="fill:#1a1a1a;fill-rule:nonzero;"/>
                </g>
                <g id="br" transform="matrix(1,0,0,1,920.192,689.109)">
                    <path d="M-16.77,-60.48C-21.703,-62.363 -27.344,-59.84 -29.25,-54.844L-42.52,-20.062L1.277,-3.352L4.883,-12.793L-9.191,-18.16C-9.105,-18.2 -9.059,-18.32 -9.059,-18.32C-9.305,-18.414 -9.449,-18.398 -9.496,-18.277L-4.77,-30.852L14.293,-37.465L18.012,-47.211L14.785,-48.441C9.97,-46.79 4.79,-44.93 -0.05,-43.215L0.114,-43.641C2.02,-48.637 -0.504,-54.277 -5.44,-56.16L-16.77,-60.48ZM-29.477,-25.902L-19.992,-50.754L-9.578,-46.781L-19.058,-21.926L-29.477,-25.902Z" style="fill:#1a1a1a;fill-rule:nonzero;"/>
                </g>
                <g id="bs" transform="matrix(1,0,0,1,941.123,633.043)">
                    <path d="M-35.695,-52.367C-30.961,-46.402 -25.84,-39.805 -21.117,-33.777L-42.567,-23.777L-45.387,-12.047C-39.652,-14.426 -31.16,-17.949 -24.875,-20.664L-11.719,-26.285L5.332,-22.187L7.711,-32.078L-9.281,-36.16L-32.848,-64.223L-35.695,-52.367Z" style="fill:#1a1a1a;fill-rule:nonzero;"/>
                </g>
            </g>
        </g>
    </g>
</svg>
