<?xml version="1.0" encoding="UTF-8" standalone="no"?>
<!DOCTYPE svg PUBLIC "-//W3C//DTD SVG 1.1//EN" "http://www.w3.org/Graphics/SVG/1.1/DTD/svg11.dtd">
<svg width="100%" height="100%" viewBox="0 0 207 207" version="1.1" xmlns="http://www.w3.org/2000/svg" xmlns:xlink="http://www.w3.org/1999/xlink" xml:space="preserve" xmlns:serif="http://www.serif.com/" style="fill-rule:evenodd;clip-rule:evenodd;stroke-linejoin:round;stroke-miterlimit:2;">
    <g transform="matrix(0.793821,0,0,0.793821,-13.9625,-152.757)">
        <g transform="matrix(0.725441,0,0,0.725441,40.5219,88.5269)">
            <circle cx="147.589" cy="322.433" r="173.65" style="fill:#2e2e2e;"/>
        </g>
        <g transform="matrix(0.710797,0,0,0.621205,42.6831,122.138)">
            <g transform="matrix(1,0,0,1,0.680554,-7.48226)">
                <rect x="35.859" y="220.764" width="67.893" height="20.736" style="fill:#f3b932;"/>
            </g>
            <g transform="matrix(1,0,0,1,1.73571,190.12)">
                <rect x="35.859" y="220.764" width="67.893" height="20.736" style="fill:#f3b932;"/>
            </g>
            <g transform="matrix(1,0,0,1,154.053,-7.48226)">
                <rect x="35.859" y="220.764" width="67.893" height="20.736" style="fill:#f3b932;"/>
            </g>
            <g transform="matrix(1,0,0,1,152.998,190.12)">
                <rect x="35.859" y="220.764" width="67.893" height="20.736" style="fill:#f3b932;"/>
            </g>
            <g transform="matrix(1.22374,0,0,1,-34.3003,0)">
                <path d="M102.001,223.65L80.638,223.65L197.491,424.85L218.853,424.85L102.001,223.65Z" style="fill:#f3b932;"/>
            </g>
            <g transform="matrix(-1.22374,0,0,1,326.924,0)">
                <path d="M97.115,223.65L81.788,223.65L198.641,424.85L213.967,424.85L97.115,223.65Z" style="fill:#f3b932;"/>
            </g>
        </g>
        <g transform="matrix(1.32203,0,0,1.32203,-50.3514,-112.899)">
            <circle cx="149.986" cy="255.734" r="18.91" style="fill:#389725;"/>
        </g>
        <g transform="matrix(1.32203,0,0,1.32203,-49.4629,79.4677)">
            <circle cx="149.986" cy="255.734" r="18.91" style="fill:#4062d7;"/>
        </g>
        <g transform="matrix(1.32203,0,0,1.32203,-132.889,-15.6556)">
            <circle cx="149.986" cy="255.734" r="18.91" style="fill:#ca3b33;"/>
        </g>
        <g transform="matrix(1.32203,0,0,1.32203,31.6874,-15.6556)">
            <circle cx="149.986" cy="255.734" r="18.91" style="fill:#9457b1;"/>
        </g>
    </g>
</svg>
