<?xml version="1.0" encoding="UTF-8" standalone="no"?>
<!DOCTYPE svg PUBLIC "-//W3C//DTD SVG 1.1//EN" "http://www.w3.org/Graphics/SVG/1.1/DTD/svg11.dtd">
<svg width="100%" height="100%" viewBox="0 0 195 107" version="1.1" xmlns="http://www.w3.org/2000/svg" xmlns:xlink="http://www.w3.org/1999/xlink" xml:space="preserve" xmlns:serif="http://www.serif.com/" style="fill-rule:evenodd;clip-rule:evenodd;stroke-linejoin:round;stroke-miterlimit:2;">
    <g transform="matrix(0.966215,0,0,0.966215,-33.2567,-23.957)">
        <g transform="matrix(1,0,0,1,-114.149,-63.013)">
            <g transform="matrix(144,0,0,144,215.868,194.844)">
                <path d="M0.061,-0.234C0.061,-0.195 0.065,-0.16 0.073,-0.13C0.08,-0.1 0.093,-0.075 0.112,-0.054C0.131,-0.033 0.156,-0.018 0.188,-0.008C0.22,0.003 0.261,0.008 0.31,0.008L0.654,0.008C0.703,0.008 0.743,0.003 0.776,-0.008C0.808,-0.018 0.833,-0.033 0.852,-0.054C0.871,-0.075 0.884,-0.1 0.892,-0.13C0.899,-0.16 0.903,-0.195 0.903,-0.234L0.903,-0.49C0.903,-0.529 0.899,-0.564 0.892,-0.594C0.884,-0.624 0.871,-0.649 0.852,-0.67C0.833,-0.691 0.808,-0.706 0.776,-0.717C0.743,-0.727 0.703,-0.732 0.654,-0.732L0.31,-0.732C0.261,-0.732 0.22,-0.727 0.188,-0.717C0.156,-0.706 0.131,-0.691 0.112,-0.67C0.093,-0.649 0.08,-0.624 0.073,-0.594C0.065,-0.564 0.061,-0.529 0.061,-0.49L0.061,-0.234ZM0.811,-0.28C0.811,-0.233 0.809,-0.195 0.804,-0.168C0.799,-0.141 0.788,-0.12 0.773,-0.106C0.758,-0.091 0.736,-0.082 0.707,-0.078C0.678,-0.074 0.639,-0.072 0.591,-0.072L0.373,-0.072C0.325,-0.072 0.286,-0.074 0.258,-0.078C0.229,-0.082 0.206,-0.091 0.191,-0.106C0.176,-0.12 0.166,-0.141 0.161,-0.168C0.156,-0.195 0.153,-0.233 0.153,-0.28L0.153,-0.444C0.153,-0.491 0.156,-0.528 0.161,-0.556C0.166,-0.583 0.176,-0.604 0.191,-0.619C0.206,-0.633 0.229,-0.642 0.258,-0.646C0.286,-0.65 0.325,-0.652 0.373,-0.652L0.591,-0.652C0.639,-0.652 0.678,-0.65 0.707,-0.646C0.736,-0.642 0.758,-0.633 0.773,-0.619C0.788,-0.604 0.799,-0.583 0.804,-0.556C0.809,-0.528 0.811,-0.491 0.811,-0.444L0.811,-0.28Z" style="fill-rule:nonzero;"/>
            </g>
        </g>
        <g transform="matrix(0.90918,0,0,0.90918,-60.3605,-32.669)">
            <g transform="matrix(158.384,0,0,158.384,77.3271,180.932)">
                <path d="M0.51,-0L0.602,-0L0.602,-0.724L0.487,-0.724L0.189,-0.488L0.239,-0.425L0.51,-0.64L0.51,-0Z" style="fill-rule:nonzero;"/>
            </g>
        </g>
        <g transform="matrix(0.285734,0,0,0.285734,170.389,76.2495)">
            <g transform="matrix(1,0,0,1,-160,-100)">
                <g id="surface61">
                    <path d="M67.871,164.313C67.871,171.848 67.023,177.934 65.328,182.566C63.633,187.203 61.223,190.801 58.094,193.363C54.969,195.926 51.219,197.641 46.848,198.508C42.477,199.371 37.613,199.805 32.266,199.805C25.027,199.805 19.488,198.676 15.648,196.414C11.805,194.152 9.883,191.441 9.883,188.273C9.883,185.637 10.953,183.414 13.102,181.605C15.25,179.797 18.133,178.895 21.75,178.895C24.465,178.895 26.633,179.629 28.25,181.098C29.871,182.566 31.211,184.02 32.266,185.449C33.469,187.031 34.488,188.086 35.316,188.613C36.145,189.141 36.898,189.406 37.578,189.406C39.008,189.406 40.102,188.559 40.855,186.863C41.609,185.168 41.984,181.871 41.984,176.973L41.984,84.051L67.871,76.93L67.871,164.313M104.738,79.414L104.738,139.215C104.738,140.875 105.059,142.438 105.699,143.906C106.34,145.375 107.227,146.641 108.355,147.695C109.488,148.75 110.805,149.598 112.313,150.238C113.82,150.879 115.441,151.199 117.176,151.199C119.133,151.199 121.359,150.102 124.07,148.203C128.363,145.195 130.965,143.129 130.965,140.684L130.965,79.414L156.738,79.414L156.738,164.313L130.965,164.313L130.965,156.398C127.574,159.262 123.957,161.559 120.113,163.293C116.27,165.027 112.539,165.895 108.922,165.895C104.703,165.895 100.781,165.195 97.164,163.801C93.547,162.406 90.383,160.504 87.672,158.094C84.957,155.684 82.828,152.855 81.281,149.613C79.738,146.375 78.965,142.906 78.965,139.215L78.965,79.414L104.738,79.414M192.883,164.313L167.223,164.313L167.223,45.277L192.883,38.156L192.883,164.313M203.602,84.051L229.375,76.93L229.375,164.313L203.602,164.313L203.602,84.051M283.227,120.449C280.738,121.508 278.23,122.73 275.707,124.125C273.184,125.52 270.883,127.047 268.813,128.703C266.738,130.359 265.063,132.133 263.781,134.016C262.5,135.898 261.859,137.859 261.859,139.895C261.859,141.477 262.066,143.004 262.48,144.473C262.895,145.941 263.48,147.203 264.234,148.258C264.988,149.313 265.816,150.16 266.723,150.801C267.625,151.441 268.605,151.762 269.66,151.762C271.77,151.762 273.898,151.121 276.047,149.84C278.195,148.559 280.586,146.941 283.227,144.98L283.227,120.449M309.109,164.313L283.227,164.313L283.227,157.527C281.793,158.734 280.398,159.848 279.043,160.863C277.688,161.879 276.16,162.766 274.465,163.52C272.77,164.273 270.867,164.855 268.754,165.273C266.645,165.688 264.156,165.895 261.297,165.895C257.375,165.895 253.852,165.328 250.727,164.199C247.598,163.066 244.941,161.523 242.758,159.563C240.57,157.605 238.895,155.285 237.727,152.609C236.559,149.938 235.973,147.016 235.973,143.852C235.973,140.609 236.594,137.672 237.84,135.031C239.082,132.395 240.777,130.023 242.926,127.91C245.074,125.801 247.578,123.918 250.441,122.258C253.305,120.602 256.379,119.074 259.656,117.68C262.934,116.285 266.344,115.008 269.887,113.84C273.426,112.672 276.934,111.559 280.398,110.504L283.227,109.824L283.227,101.461C283.227,96.035 282.188,92.191 280.117,89.93C278.043,87.668 275.273,86.539 271.809,86.539C267.738,86.539 264.91,87.52 263.328,89.477C261.746,91.438 260.953,93.809 260.953,96.598C260.953,98.18 260.785,99.727 260.445,101.234C260.109,102.742 259.523,104.059 258.695,105.191C257.867,106.32 256.68,107.227 255.133,107.902C253.59,108.582 251.648,108.922 249.313,108.922C245.695,108.922 242.758,107.883 240.496,105.813C238.234,103.738 237.105,101.121 237.105,97.953C237.105,95.016 238.102,92.285 240.098,89.762C242.098,87.234 244.789,85.066 248.184,83.262C251.574,81.449 255.492,80.02 259.938,78.965C264.383,77.91 269.094,77.383 274.066,77.383C280.172,77.383 285.43,77.93 289.84,79.02C294.246,80.113 297.883,81.676 300.746,83.711C303.609,85.746 305.719,88.195 307.074,91.059C308.434,93.922 309.109,97.129 309.109,100.668L309.109,164.313" style="fill-rule:nonzero;"/>
                    <path d="M235.273,55.09C235.273,64.758 227.438,72.59 217.773,72.59C208.105,72.59 200.273,64.758 200.273,55.09C200.273,45.426 208.105,37.59 217.773,37.59C227.438,37.59 235.273,45.426 235.273,55.09" style="fill:#ca3b33;fill-rule:nonzero;"/>
                    <path d="M72.953,55.09C72.953,64.758 65.117,72.59 55.453,72.59C45.789,72.59 37.953,64.758 37.953,55.09C37.953,45.426 45.789,37.59 55.453,37.59C65.117,37.59 72.953,45.426 72.953,55.09" style="fill:#4062d7;fill-rule:nonzero;"/>
                    <path d="M277.32,55.09C277.32,64.758 269.484,72.59 259.82,72.59C250.156,72.59 242.32,64.758 242.32,55.09C242.32,45.426 250.156,37.59 259.82,37.59C269.484,37.59 277.32,45.426 277.32,55.09" style="fill:#9457b1;fill-rule:nonzero;"/>
                    <path d="M256.301,18.672C256.301,28.336 248.465,36.172 238.801,36.172C229.133,36.172 221.301,28.336 221.301,18.672C221.301,9.008 229.133,1.172 238.801,1.172C248.465,1.172 256.301,9.008 256.301,18.672" style="fill:#389725;fill-rule:nonzero;"/>
                </g>
            </g>
        </g>
    </g>
</svg>
