<?xml version="1.0" encoding="UTF-8" standalone="no"?>
<!DOCTYPE svg PUBLIC "-//W3C//DTD SVG 1.1//EN" "http://www.w3.org/Graphics/SVG/1.1/DTD/svg11.dtd">
<svg width="100%" height="100%" viewBox="0 0 187 188" version="1.1" xmlns="http://www.w3.org/2000/svg" xmlns:xlink="http://www.w3.org/1999/xlink" xml:space="preserve" xmlns:serif="http://www.serif.com/" style="fill-rule:evenodd;clip-rule:evenodd;stroke-linejoin:round;stroke-miterlimit:2;">
    <g transform="matrix(1,0,0,1,-28.8292,-428.824)">
        <g transform="matrix(0.867584,0,0,0.873773,13.2152,28.6428)">
            <path d="M231.699,493.658C231.699,474.433 215.979,458.824 196.617,458.824L53.912,458.824C34.549,458.824 18.829,474.433 18.829,493.658L18.829,636.86C18.829,656.085 34.549,671.694 53.912,671.694L196.617,671.694C215.979,671.694 231.699,656.085 231.699,636.86L231.699,493.658Z" style="fill:#2e2e2e;"/>
        </g>
        <g transform="matrix(1.11051,0,0,1.11051,-44.6684,172.774)">
            <circle cx="149.986" cy="255.734" r="18.91" style="fill:#389725;"/>
        </g>
        <g transform="matrix(1.11051,0,0,1.11051,-44.6684,304.278)">
            <circle cx="149.986" cy="255.734" r="18.91" style="fill:#4062d7;"/>
        </g>
        <g transform="matrix(1.11051,0,0,1.11051,-108.822,237.841)">
            <circle cx="149.986" cy="255.734" r="18.91" style="fill:#ca3b33;"/>
        </g>
        <g transform="matrix(1.11051,0,0,1.11051,19.3664,237.841)">
            <circle cx="149.986" cy="255.734" r="18.91" style="fill:#9457b1;"/>
        </g>
        <g transform="matrix(0.622681,0.622681,-0.622681,0.622681,395.744,92.0752)">
            <rect x="113.248" y="462.873" width="24.032" height="204.771" style="fill:#f37f0a;"/>
        </g>
        <g transform="matrix(-0.622681,0.622681,-0.622681,-0.622681,551.743,796.028)">
            <rect x="113.248" y="462.873" width="24.032" height="204.771" style="fill:#f37f0a;"/>
        </g>
    </g>
</svg>
