<?xml version="1.0" encoding="UTF-8" standalone="no"?>
<!DOCTYPE svg PUBLIC "-//W3C//DTD SVG 1.1//EN" "http://www.w3.org/Graphics/SVG/1.1/DTD/svg11.dtd">
<svg width="100%" height="100%" viewBox="0 0 230 214" version="1.1" xmlns="http://www.w3.org/2000/svg" xmlns:xlink="http://www.w3.org/1999/xlink" xml:space="preserve" xmlns:serif="http://www.serif.com/" style="fill-rule:evenodd;clip-rule:evenodd;stroke-linejoin:round;stroke-miterlimit:2;">
    <g transform="matrix(1.41697,0,0,1.41697,-541.743,-633.697)">
        <g transform="matrix(1.08864,0,0,1.08864,-44.9251,-49.6634)">
            <circle cx="506.819" cy="560.274" r="34.663" style="fill:#2f0c64;"/>
        </g>
        <g transform="matrix(1.08864,0,0,1.08864,-131.684,-49.6634)">
            <circle cx="506.819" cy="560.274" r="34.663" style="fill:#2f0c64;"/>
        </g>
        <g transform="matrix(1.08864,0,0,1.08864,-88.6313,-124.983)">
            <circle cx="506.819" cy="560.274" r="34.663" style="fill:#2f0c64;"/>
        </g>
        <g transform="matrix(0.188249,0,0,0.188249,507.257,557.709)">
            <g transform="matrix(1,0,0,1,-162.5,-150)">
                <g id="surface91">
                    <g transform="matrix(0.963692,0,0,0.963692,5.90005,5.4462)">
                        <path d="M150.898,225C150.898,266.422 117.32,300 75.898,300C34.477,300 0.898,266.422 0.898,225C0.898,183.578 34.477,150 75.898,150C117.32,150 150.898,183.578 150.898,225" style="fill:#ca3b33;fill-rule:nonzero;stroke:#f5eaf5;stroke-width:5.71px;"/>
                    </g>
                    <g transform="matrix(0.963692,0,0,0.963692,5.90005,5.4462)">
                        <path d="M237.5,75C237.5,116.422 203.922,150 162.5,150C121.078,150 87.5,116.422 87.5,75C87.5,33.578 121.078,0 162.5,0C203.922,0 237.5,33.578 237.5,75" style="fill:#389725;fill-rule:nonzero;stroke:#f5eaf5;stroke-width:5.71px;"/>
                    </g>
                    <g transform="matrix(0.963692,0,0,0.963692,5.90005,5.4462)">
                        <path d="M324.102,225C324.102,266.422 290.523,300 249.102,300C207.68,300 174.102,266.422 174.102,225C174.102,183.578 207.68,150 249.102,150C290.523,150 324.102,183.578 324.102,225" style="fill:#9457b1;fill-rule:nonzero;stroke:#f5eaf5;stroke-width:5.71px;"/>
                    </g>
                </g>
            </g>
        </g>
        <g transform="matrix(2.25219,0,0,2.12584,-231.707,-706.295)">
            <path d="M307.845,573.919C305.96,572.677 304.27,571.398 302.777,570.081C301.283,568.765 299.927,566.977 298.709,564.72C297.491,562.463 296.882,559.82 296.882,556.791C296.882,555.775 297.075,554.778 297.459,553.8C297.843,552.822 298.427,552.013 299.21,551.373C299.993,550.733 300.957,550.414 302.103,550.414C303.538,550.414 304.854,550.799 306.05,551.571C307.247,552.342 308.062,553.329 308.497,554.533L308.671,554.533C309.092,553.292 309.871,552.295 311.01,551.542C312.148,550.79 313.456,550.414 314.936,550.414C316.777,550.414 318.086,551.044 318.862,552.304C319.637,553.565 320.025,555.06 320.025,556.791C320.025,559.914 319.416,562.623 318.198,564.918C316.98,567.213 315.617,569.023 314.109,570.349C312.601,571.676 310.941,572.922 309.128,574.088L308.628,574.427L307.845,573.919Z" style="fill:#ca3b33;fill-rule:nonzero;"/>
        </g>
        <g transform="matrix(7.45191,0,0,7.45191,-1778.79,-3462.81)">
            <g transform="matrix(6.77935,0,0,6.77935,291.082,542.225)">
                <path d="M0.082,-0.115L0.25,-0.115L0.25,-0.548C0.217,-0.517 0.187,-0.493 0.161,-0.476C0.135,-0.459 0.104,-0.444 0.069,-0.434L0.069,-0.559C0.107,-0.574 0.142,-0.597 0.175,-0.626C0.207,-0.655 0.236,-0.688 0.264,-0.725L0.378,-0.725L0.378,-0.115L0.532,-0.115L0.532,-0L0.082,-0L0.082,-0.115Z" style="fill:#fff;fill-rule:nonzero;"/>
            </g>
            <g transform="matrix(6.77935,0,0,6.77935,294.946,542.225)">
                <path d="M0.301,0.011C0.229,0.011 0.175,-0.004 0.138,-0.034C0.1,-0.063 0.076,-0.104 0.064,-0.157C0.052,-0.21 0.046,-0.279 0.046,-0.365C0.046,-0.455 0.051,-0.526 0.063,-0.578C0.075,-0.629 0.099,-0.668 0.136,-0.695C0.173,-0.722 0.228,-0.735 0.301,-0.735C0.373,-0.735 0.428,-0.722 0.465,-0.695C0.501,-0.668 0.525,-0.629 0.537,-0.577C0.549,-0.526 0.555,-0.455 0.555,-0.365C0.555,-0.279 0.549,-0.21 0.537,-0.157C0.525,-0.104 0.5,-0.063 0.463,-0.034C0.426,-0.004 0.372,0.011 0.301,0.011ZM0.178,-0.365C0.178,-0.293 0.18,-0.239 0.186,-0.204C0.192,-0.168 0.203,-0.142 0.22,-0.127C0.237,-0.111 0.264,-0.103 0.301,-0.103C0.338,-0.103 0.366,-0.111 0.383,-0.127C0.4,-0.142 0.411,-0.167 0.416,-0.202C0.421,-0.237 0.424,-0.291 0.424,-0.365C0.424,-0.426 0.421,-0.475 0.415,-0.51C0.41,-0.545 0.398,-0.573 0.381,-0.592C0.363,-0.611 0.336,-0.62 0.301,-0.62C0.265,-0.62 0.238,-0.611 0.22,-0.592C0.203,-0.573 0.191,-0.545 0.186,-0.51C0.18,-0.475 0.178,-0.427 0.178,-0.365ZM0.301,-0.447L0.372,-0.365L0.301,-0.29L0.229,-0.365L0.301,-0.447Z" style="fill:#fff;fill-rule:nonzero;"/>
            </g>
        </g>
    </g>
</svg>
