<?xml version="1.0" encoding="UTF-8" standalone="no"?>
<!DOCTYPE svg PUBLIC "-//W3C//DTD SVG 1.1//EN" "http://www.w3.org/Graphics/SVG/1.1/DTD/svg11.dtd">
<svg width="100%" height="100%" viewBox="0 0 500 660" version="1.1" xmlns="http://www.w3.org/2000/svg" xmlns:xlink="http://www.w3.org/1999/xlink" xml:space="preserve" xmlns:serif="http://www.serif.com/" style="fill-rule:evenodd;clip-rule:evenodd;stroke-linejoin:round;stroke-miterlimit:2;">
    <g transform="matrix(1.07764,0,0,1.07764,-301.775,-50.2654)">
        <g transform="matrix(2.21535,0,0,2.21535,-824.858,-852.052)">
            <path d="M517.456,607.589L517.614,607.589C518.496,608.364 521.414,608.964 526.369,609.387L538.879,607.985L543.217,607.985C547.537,607.985 551.222,609.458 554.273,612.402C555.56,614.007 556.468,615.435 556.997,616.687C557.967,617.128 558.451,617.445 558.451,617.639L556.997,620.125C556.997,623.282 555.322,626.121 551.971,628.642C548.727,630.211 546.091,630.996 544.063,630.996L543.032,630.996L538.43,630.705L538.297,635.122L538.297,635.281L537.874,635.81L538.165,636.788C537.583,636.894 537.292,637.035 537.292,637.212L537.451,637.873L537.583,637.873L538.165,637.476L538.43,637.476C538.729,640.967 539.646,642.713 541.18,642.713L541.894,642.581L542.767,642.581L543.032,644.062L541.63,644.194L536.446,644.194C534.683,644.194 532.038,644.661 528.511,645.596C527.947,644.82 527.665,644.309 527.665,644.062L527.824,644.062C530.592,643.11 531.976,641.964 531.976,640.623L532.108,638.825L532.108,617.639C530.892,616.493 529.842,615.805 528.961,615.576L528.961,614.889C529.155,614.518 529.446,614.333 529.834,614.333L533.431,614.624L534.277,614.624L542.027,614.333L542.212,615.285C540.59,615.285 539.391,616.387 538.615,618.591C538.315,619.191 538.165,619.835 538.165,620.522L538.165,623.828C537.883,624.163 537.742,624.49 537.742,624.807C538.112,624.93 538.297,625.248 538.297,625.759L538.297,625.891C537.927,626.297 537.742,626.667 537.742,627.002C538.112,627.002 538.297,627.417 538.297,628.245L538.43,628.378L538.615,628.378L543.032,628.51C545.712,628.51 547.881,626.993 549.538,623.961C549.908,622.109 550.094,620.602 550.094,619.438C549.635,616.687 548.965,615.109 548.083,614.703L547.925,614.439L548.956,614.386L549.591,613.884L549.432,613.989L549.062,613.09L548.242,612.72L547.978,613.328L547.237,613.275L547.078,613.619L546.946,613.619C544.918,611.697 542.564,610.736 539.884,610.736C539.884,610.613 539.17,610.524 537.742,610.472C534.656,610.472 529.957,611.344 523.645,613.09L522.772,613.09C520.497,612.826 519.36,612.411 519.36,611.847L517.456,607.589Z" style="fill:#fdf300;fill-rule:nonzero;stroke:#fdf300;stroke-width:0.21px;"/>
            <path d="M559.912,623.963L563.849,624.057L564.717,624.572L565.232,624.221L567.084,624.151L566.896,624.83C566.256,624.971 565.849,625.186 565.678,625.475C565.506,625.764 565.357,626.44 565.232,627.502L565.232,629.893L564.974,630.408L564.623,630.408L563.92,631.229L564.271,631.674L564.271,632.096L564.881,632.377L565.162,632.377L565.162,632.916L565.42,638.143C565.482,638.893 565.771,639.424 566.287,639.736L567.248,639.901L567.248,640.604C564.92,640.494 562.592,640.494 560.264,640.604L560.17,639.736C560.748,639.658 561.127,639.518 561.306,639.315C561.486,639.111 561.607,638.658 561.67,637.955L561.576,626.705C561.342,626.065 561.139,625.627 560.967,625.393C560.795,625.158 560.389,625.041 559.748,625.041L559.912,623.963Z" style="fill:#fdf300;fill-rule:nonzero;stroke:#fdf300;stroke-width:0.21px;"/>
            <path d="M575.779,624.127C577.764,624.19 579.146,624.326 579.928,624.537C580.709,624.748 581.279,625.002 581.639,625.299L582.178,625.744L582.717,626.213C583.076,626.51 583.318,626.815 583.443,627.127L583.631,627.572L583.818,628.041C583.943,628.354 583.959,628.682 583.865,629.026L583.748,629.541L583.607,630.057C583.514,630.401 583.357,630.736 583.139,631.065L582.81,631.557L582.459,632.049C582.24,632.377 582.014,632.604 581.779,632.729L581.428,632.893L580.724,633.268L580.724,633.619L581.146,633.877C581.428,634.065 582.006,634.502 582.881,635.19C583.756,635.877 584.482,636.604 585.06,637.369C585.623,638.151 586.342,639.018 587.217,639.971C588.076,640.924 588.896,641.58 589.678,641.94C590.459,642.299 591.146,642.479 591.74,642.479C592.334,642.479 592.826,642.424 593.217,642.315L593.779,642.174L594.646,641.893C595.224,641.705 595.537,641.729 595.584,641.963L595.631,642.338L595.654,642.69C595.67,642.94 595.514,643.088 595.185,643.135L594.67,643.205L594.459,643.299C594.318,643.377 593.873,643.494 593.123,643.651C592.357,643.807 591.443,643.854 590.381,643.791C589.318,643.744 588.443,643.611 587.756,643.393C587.068,643.19 585.912,642.494 584.287,641.307C582.662,640.119 581.396,639.018 580.49,638.002C579.584,636.986 578.709,636.026 577.865,635.119C577.021,634.229 576.373,633.588 575.92,633.197L575.217,632.635L575.217,631.721L577.631,631.932C578.318,631.869 578.787,631.717 579.037,631.475C579.287,631.233 579.474,630.768 579.599,630.08C579.724,629.393 579.713,628.615 579.564,627.748C579.416,626.881 579.072,626.272 578.533,625.92C577.994,625.569 577.256,625.361 576.318,625.299C575.084,625.408 574.342,625.893 574.092,626.752L574.185,637.885C574.42,638.666 574.709,639.147 575.053,639.326C575.396,639.506 575.849,639.713 576.412,639.947L576.412,640.674L568.724,640.838L568.654,639.596C569.279,639.596 569.681,639.447 569.861,639.151C570.041,638.854 570.178,638.541 570.271,638.213C570.365,637.885 570.412,635.604 570.412,631.369L571.115,631.088L570.342,630.385L570.248,628.791L570.131,627.174C570.084,626.221 569.615,625.596 568.724,625.299L568.935,623.963C571.545,624.197 573.826,624.252 575.779,624.127Z" style="fill:#fdf300;fill-rule:nonzero;stroke:#fdf300;stroke-width:0.21px;"/>
            <path d="M599.881,625.908L599.202,626.119L598.944,626.705C598.631,626.971 598.389,627.26 598.217,627.572L597.702,628.51C597.53,628.822 597.491,629.057 597.584,629.213L597.725,629.424L598.006,629.893L598.499,630.01L598.78,630.479L599.272,630.526C599.741,630.416 600.178,630.424 600.584,630.549L601.194,630.736L601.78,630.947L602.389,631.135L602.389,629.776L602.6,628.416L602.389,627.08L602.389,625.721L601.874,625.674L601.381,625.604L600.866,625.557C600.522,625.526 600.194,625.643 599.881,625.908ZM608.436,623.963L608.436,624.877L607.147,624.877L606.772,625.182C606.522,625.401 606.366,625.768 606.303,626.283L606.209,627.08L605.999,627.174L605.717,626.869L605.577,627.385L605.366,627.502L605.506,627.924L605.6,628.604L605.811,628.744C605.905,629.026 605.905,629.221 605.811,629.33L605.506,629.635L605.366,629.799L605.577,629.986L605.717,630.408L605.999,630.385L606.209,630.596L606.209,632.705L606.069,633.83L606.209,634.815L606.069,636.174L606.209,637.393L606.514,638.096C606.702,638.565 607.006,638.955 607.428,639.268L608.038,639.76L608.694,639.76L608.459,640.604L604.663,640.651L602.741,640.674L600.842,640.697L601.124,640.486L600.842,640.252L600.842,639.83L601.077,639.807L601.288,639.783L601.522,639.76C601.709,639.885 601.92,639.924 602.155,639.877L602.155,639.455L602.366,639.315C602.506,639.221 602.592,639.096 602.624,638.94L602.67,638.682L602.764,638.213L602.741,637.041L602.717,635.846L602.67,633.502L601.241,633.151L599.788,632.799L598.358,632.447L596.905,632.096L596.858,632.588L596.53,632.963L596.413,633.666L596.459,634.182L596.483,634.861L596.178,635.635L596.131,636.385L595.944,637.158L595.381,637.861L594.913,638.494L594.28,639.291C593.905,639.76 593.53,640.174 593.155,640.533L592.616,641.049L592.053,641.588C591.678,641.947 591.303,642.213 590.928,642.385L590.389,642.666L589.827,642.924C589.452,643.111 588.897,643.205 588.163,643.205L587.061,643.205L587.624,642.549L588.139,642.502L588.631,642.455L589.147,642.408C589.475,642.377 589.795,642.197 590.108,641.869L590.577,641.377L591.045,640.908C591.358,640.58 591.647,640.096 591.913,639.455L592.288,638.494L592.686,637.557C592.936,636.916 593.092,636.166 593.155,635.307L593.272,634.018L593.577,632.893L593.459,631.463L593.436,631.252L592.967,630.924L592.733,630.643C592.561,630.471 592.491,630.291 592.522,630.104L592.569,629.846L592.616,629.565C592.647,629.393 592.78,629.315 593.014,629.33L594.069,629.401L594.303,629.002L594.538,628.721L594.749,628.182C595.092,627.963 595.342,627.635 595.499,627.197L595.991,626.611L596.506,626.049C596.834,625.658 597.17,625.432 597.514,625.369L598.053,624.713L598.569,624.338C598.913,624.088 599.249,623.963 599.577,623.963L600.538,623.963L601.217,624.174L602.858,623.963L604.522,624.174L606.584,623.963L608.436,623.963Z" style="fill:#fdf300;fill-rule:nonzero;stroke:#fdf300;stroke-width:0.21px;"/>
            <path d="M610.861,623.846L613.932,624.151L617.799,624.01L621.549,623.916L623.26,624.291L625.275,623.846C625.166,624.799 625.139,625.545 625.193,626.084C625.248,626.623 625.338,627.115 625.463,627.561C625.588,628.006 625.775,628.408 626.025,628.768L624.971,629.565C624.502,628.83 624.1,628.194 623.764,627.654C623.428,627.115 623.045,626.729 622.615,626.494C622.186,626.26 621.736,626.01 621.268,625.744C620.799,625.479 620.518,625.268 620.424,625.111L619.861,624.971L619.791,624.971L619.721,625.041L619.721,625.111L619.791,628.088L619.791,628.393L619.721,628.557L619.791,629.096L619.721,629.096L619.721,629.354L619.861,629.565L619.861,631.768L619.58,633.151L619.486,633.385L619.182,633.572L619.182,633.877L619.346,634.018L619.58,634.182L619.65,634.182L619.721,634.416L619.791,634.861L619.346,635.283L619.416,635.447L619.416,635.518C619.322,635.83 619.275,635.998 619.275,636.022C619.275,636.045 619.322,636.182 619.416,636.432L619.486,636.526L620.025,637.158L619.721,637.557C619.814,638.479 620.006,639.061 620.295,639.303C620.584,639.545 620.803,639.682 620.951,639.713C621.1,639.744 621.564,639.807 622.346,639.901L622.346,640.744L613.861,640.744L613.861,639.901C614.377,639.901 614.791,639.846 615.104,639.736C615.416,639.627 615.635,639.444 615.76,639.186C615.885,638.928 615.924,638.486 615.877,637.861L616.018,634.815L616.018,633.08L616.111,631.44L616.018,631.205L616.018,630.971L616.182,630.76L615.713,629.963L615.947,629.096L615.807,628.018L615.877,625.416L614.869,625.416C614.26,625.416 613.775,625.486 613.416,625.627C613.057,625.768 612.721,626.029 612.408,626.412C612.096,626.795 611.799,627.221 611.518,627.69C611.236,628.158 610.939,628.76 610.627,629.494L609.947,628.955C610.4,627.33 610.705,625.627 610.861,623.846Z" style="fill:#fdf300;fill-rule:nonzero;stroke:#fdf300;stroke-width:0.21px;"/>
            <path d="M629.143,624.127L630.244,624.408L631.463,624.151L632.635,624.174L634.439,624.151L636.221,624.127L639.807,624.104L639.643,625.369L639.9,626.635L640.158,627.971L640.393,629.307L640.158,629.377L639.9,629.447L639.572,628.955L639.221,628.463L638.822,627.666L638.4,626.869L637.088,625.557L636.619,625.369L635.705,625.346L634.838,625.299L633.947,625.276L633.596,625.393L633.221,625.533L633.104,625.815L632.963,626.096L632.963,631.651L634.135,631.604L635.307,631.58L635.939,631.51C636.346,631.463 636.658,631.377 636.877,631.252C637.096,631.127 637.236,630.908 637.299,630.596L637.393,630.151L637.486,629.869L637.557,629.611L637.979,629.822L638.377,630.057L638.377,635.26L637.932,635.283L637.463,635.33L637.346,634.604C637.252,634.135 636.916,633.783 636.338,633.549C635.744,633.315 635.221,633.158 634.768,633.08L634.064,632.963L632.963,632.963L632.963,638.986L634.346,638.963L635.705,639.151L636.689,639.033L637.65,639.151L638.869,639.408L640.064,639.69L641.025,640.041L642.385,639.971L643.018,640.182L644.213,640.276L645.221,640.229C645.893,640.213 646.361,640.143 646.627,640.018L647.002,639.83L647.283,640.252L647.541,640.276L647.939,640.58L648.314,640.908L647.658,640.979C647.221,641.041 646.682,641.096 646.041,641.143L645.057,641.213L642.057,640.979L636.619,640.744L634.299,640.815C632.736,640.877 631.205,640.955 629.705,641.049L627.455,641.213L627.502,640.627L627.549,640.065L627.971,639.971L628.486,639.666C628.814,639.479 629.002,639.33 629.049,639.221L629.119,639.08L629.424,638.916L629.283,638.776L629.283,636.033L629.213,633.502L629.518,633.361L629.893,632.752L629.775,632.307L629.658,631.885L629.939,631.463L630.197,631.041L629.354,630.76L629.33,630.244L629.283,629.729L629.283,628.205C629.283,627.205 629.244,626.502 629.166,626.096C629.072,625.69 628.877,625.463 628.58,625.416L628.111,625.346L627.666,625.299L627.197,625.276L627.385,624.971L627.596,624.69L627.783,624.385L627.971,624.104L629.143,624.127Z" style="fill:#fdf300;fill-rule:nonzero;stroke:#fdf300;stroke-width:0.21px;"/>
            <path d="M658.567,622.838C658.739,624.401 659.208,626.119 659.973,627.994L658.661,628.065C658.364,627.315 657.794,626.678 656.95,626.154C656.106,625.631 655.278,625.252 654.465,625.018C653.653,624.783 652.868,624.74 652.11,624.889C651.352,625.037 650.782,625.385 650.399,625.932C650.016,626.479 650.001,627.014 650.352,627.537C650.704,628.061 651.36,628.6 652.321,629.154C653.282,629.709 654.419,630.248 655.731,630.772C657.044,631.295 658.106,632.01 658.919,632.916C659.731,633.822 660.27,634.783 660.536,635.799C660.801,636.815 660.797,637.705 660.524,638.471C660.251,639.236 659.754,639.967 659.036,640.662C658.317,641.358 657.403,641.936 656.294,642.397C655.184,642.858 654.122,643.119 653.106,643.182C652.09,643.244 651.188,643.201 650.399,643.053C649.61,642.904 648.751,642.51 647.821,641.869C646.891,641.229 646.282,640.588 645.993,639.947C645.704,639.307 645.688,638.651 645.946,637.979C646.204,637.307 646.637,636.725 647.247,636.233C647.856,635.74 648.454,635.42 649.04,635.272C649.626,635.123 650.215,635.08 650.809,635.143C650.747,635.955 650.7,636.705 650.669,637.393C649.981,637.221 649.391,637.197 648.899,637.322C648.407,637.447 648.071,637.799 647.891,638.377C647.711,638.955 647.801,639.553 648.161,640.17C648.52,640.787 649.004,641.209 649.614,641.436C650.223,641.662 650.922,641.822 651.711,641.916C652.501,642.01 653.274,641.967 654.032,641.787C654.79,641.608 655.489,641.24 656.129,640.686C656.77,640.131 657.176,639.537 657.348,638.904C657.52,638.272 657.473,637.588 657.208,636.854C656.942,636.119 656.528,635.604 655.965,635.307L655.567,634.651L655.544,634.018L655.122,633.338C654.622,633.635 654.45,633.979 654.606,634.369L653.411,634.018C651.02,633.08 649.434,632.307 648.653,631.697C647.872,631.088 647.321,630.463 647.001,629.822C646.68,629.182 646.622,628.483 646.825,627.725C647.028,626.967 647.34,626.283 647.762,625.674C648.184,625.065 648.708,624.553 649.333,624.139C649.958,623.725 650.547,623.463 651.102,623.354C651.657,623.244 652.383,623.19 653.282,623.19C654.18,623.19 654.95,623.217 655.59,623.272C656.231,623.326 657.223,623.182 658.567,622.838Z" style="fill:#fdf300;fill-rule:nonzero;stroke:#fdf300;stroke-width:0.21px;"/>
            <path d="M501.51,643.808C502.136,643.413 502.778,643.421 503.436,643.833L504.349,643.857L507.237,643.907C507.896,644.565 511.697,644.483 518.642,643.66L521.456,643.61L524.32,643.561C524.501,646.803 525.093,650.144 526.097,653.583L524.419,654.842C523.695,652.933 522.831,651.386 521.827,650.202C520.823,649.017 519.934,648.247 519.161,647.893C518.387,647.54 517.441,647.42 516.322,647.535L516.297,658.471L516.272,661.779L515.927,664.272L515.013,665.334L515.26,667.531L516.248,669.407C516.495,671.892 517.21,673.661 518.395,674.714L520.074,675.282L520.074,677.06C517.671,677.093 515.565,676.99 513.754,676.751C511.944,676.512 510.739,676.525 510.138,676.788C509.537,677.051 508.044,677.199 505.658,677.232L505.88,675.628C506.999,675.019 508.2,674.188 509.484,673.135L509.36,650.893L509.903,649.683L509.484,647.363C506.999,647.247 505.415,647.572 504.732,648.338C504.049,649.103 503.386,649.872 502.745,650.646L501.831,651.189C501.798,652.193 501.782,653.23 501.782,654.299L500.004,654.102L501.51,643.808Z" style="fill:#fdf300;fill-rule:nonzero;stroke:#fdf300;stroke-width:0.21px;"/>
            <path d="M538.567,670.245C538.567,670.932 538.684,671.397 538.919,671.639C539.153,671.882 539.458,672.018 539.833,672.05C540.114,672.081 540.317,672.116 540.442,672.155C540.567,672.194 540.63,672.276 540.63,672.401C540.63,672.432 540.606,672.487 540.559,672.565C540.512,672.643 540.458,672.721 540.395,672.8C540.333,672.878 540.255,672.956 540.161,673.034C540.067,673.112 539.95,673.151 539.809,673.151C539.622,673.151 539.43,673.143 539.235,673.128C539.04,673.112 538.727,673.089 538.298,673.057C537.868,673.026 537.497,673.01 537.184,673.01C535.684,673.073 534.798,673.112 534.524,673.128C534.251,673.143 534.02,673.151 533.833,673.151C533.551,673.151 533.411,673.05 533.411,672.846C533.411,672.768 533.462,672.639 533.563,672.46C533.665,672.28 533.809,672.151 533.997,672.073C534.216,671.964 534.395,671.854 534.536,671.745C534.676,671.635 534.79,671.444 534.876,671.171C534.962,670.897 535.036,669.776 535.098,667.807C535.098,667.589 535.079,667.382 535.04,667.186C535.001,666.991 534.938,666.776 534.852,666.542C534.766,666.307 534.106,664.956 532.872,662.487L533.317,662.159L533.622,662.065L533.716,661.971L533.434,661.878L533.27,661.737L533.387,661.643L533.458,661.432L533.364,661.175L533.247,661.245L532.825,661.362L532.216,661.268L531.794,660.495L531.348,659.721C531.051,659.221 530.805,658.823 530.61,658.526C530.415,658.229 530.247,658.007 530.106,657.858C529.966,657.71 529.837,657.616 529.719,657.577C529.602,657.538 529.466,657.51 529.309,657.495C529.122,657.479 528.993,657.44 528.923,657.378C528.852,657.315 528.817,657.268 528.817,657.237C528.817,657.19 528.841,657.12 528.887,657.026C528.934,656.932 529.005,656.839 529.098,656.745C529.192,656.651 529.298,656.569 529.415,656.499C529.532,656.428 529.653,656.393 529.778,656.393C529.997,656.393 530.262,656.518 530.575,656.768L531.395,656.604C531.801,656.557 532.247,656.534 532.731,656.534C533.45,656.534 534.106,656.51 534.7,656.464C535.294,656.417 535.692,656.393 535.895,656.393C536.114,656.393 536.255,656.428 536.317,656.499C536.38,656.569 536.411,656.667 536.411,656.792C536.411,656.87 536.352,656.967 536.235,657.085C536.118,657.202 536.036,657.323 535.989,657.448C535.942,657.51 535.848,657.557 535.708,657.589C535.567,657.62 535.438,657.663 535.321,657.717C535.204,657.772 535.091,657.862 534.981,657.987C534.872,658.112 534.817,658.3 534.817,658.55C534.817,658.706 534.852,658.897 534.923,659.124C534.993,659.35 535.126,659.686 535.321,660.132C535.516,660.577 535.794,661.163 536.153,661.889C536.512,662.616 536.95,663.487 537.466,664.503L538.192,663.026L539.294,660.964C539.731,660.135 539.989,659.6 540.067,659.358C540.145,659.116 540.184,658.862 540.184,658.596C540.184,658.206 540.091,657.925 539.903,657.753C539.716,657.581 539.38,657.495 538.895,657.495C538.786,657.495 538.673,657.483 538.555,657.46C538.438,657.436 538.38,657.378 538.38,657.284C538.38,657.253 538.411,657.19 538.473,657.096C538.536,657.003 538.61,656.905 538.696,656.803C538.782,656.702 538.876,656.608 538.977,656.522C539.079,656.436 539.184,656.393 539.294,656.393C539.372,656.393 539.454,656.401 539.54,656.417C539.626,656.432 539.86,656.456 540.243,656.487C540.626,656.518 541.012,656.534 541.403,656.534C542.559,656.503 543.251,656.471 543.477,656.44C543.704,656.409 543.872,656.393 543.981,656.393C544.122,656.393 544.247,656.432 544.356,656.51C544.466,656.589 544.52,656.659 544.52,656.721C544.52,656.8 544.458,656.925 544.333,657.096C544.208,657.268 544.059,657.393 543.887,657.471C543.637,657.596 543.426,657.721 543.255,657.846C543.083,657.971 542.899,658.167 542.704,658.432C542.508,658.698 542.145,659.315 541.614,660.284L540.395,661.667L540.161,663.026C539.52,664.214 539.118,664.987 538.954,665.346C538.79,665.706 538.684,665.987 538.637,666.19C538.591,666.393 538.567,666.612 538.567,666.846L538.567,670.245Z" style="fill:#fdf300;fill-rule:nonzero;stroke:#fdf300;stroke-width:0.21px;"/>
            <path d="M552.7,658.362L552.7,663.143C552.7,663.237 552.755,663.346 552.864,663.471C552.958,663.596 553.075,663.698 553.216,663.776C553.403,663.87 553.598,663.94 553.801,663.987C553.989,664.034 554.13,664.057 554.223,664.057L555.184,664.057C555.669,664.057 556.145,663.776 556.614,663.214C557.098,662.635 557.341,662.096 557.341,661.596L557.341,660.542C557.341,660.339 557.27,660.065 557.13,659.721C556.973,659.393 556.848,659.073 556.755,658.76C556.395,658.635 556.059,658.51 555.747,658.385C555.387,658.245 555.176,658.128 555.114,658.034L554.786,658.198L554.434,658.198C554.216,658.198 553.942,658.206 553.614,658.221C553.27,658.253 553.028,658.284 552.887,658.315L552.7,658.362ZM548.95,668.065L548.95,659.089C548.95,658.682 548.825,658.307 548.575,657.964C548.309,657.62 548.122,657.44 548.012,657.425L547.731,657.401L547.567,657.378C547.458,657.362 547.341,657.346 547.216,657.331C546.997,657.331 546.887,657.276 546.887,657.167L546.887,657.026C546.887,656.995 546.926,656.932 547.005,656.839C547.067,656.76 547.153,656.682 547.262,656.604C547.341,656.51 547.419,656.432 547.497,656.37C547.606,656.307 547.684,656.276 547.731,656.276L547.801,656.276C547.833,656.276 547.895,656.284 547.989,656.3C548.036,656.315 548.153,656.331 548.341,656.346C548.528,656.362 548.708,656.425 548.88,656.534C549.317,656.456 549.692,656.417 550.005,656.417L551.247,656.417L551.973,656.37L553.38,656.276C553.848,656.245 554.309,656.214 554.762,656.182C555.216,656.151 555.567,656.135 555.817,656.135L557.387,656.135C558.216,656.135 558.731,656.237 558.934,656.44L559.286,656.745L559.45,657.003L559.591,657.284L559.473,657.542L559.333,657.823L559.591,657.964L559.801,658.104L560.012,658.01L560.387,657.8L560.786,658.175C560.989,658.378 561.091,658.807 561.091,659.464L561.091,660.964C561.091,661.307 560.903,661.807 560.528,662.464C560.184,663.089 559.723,663.651 559.145,664.151C558.567,664.651 557.919,665.05 557.2,665.346C556.466,665.675 555.911,665.839 555.536,665.839L554.598,665.839C554.286,665.839 553.926,665.698 553.52,665.417C553.145,665.167 552.88,664.979 552.723,664.854L552.7,664.831L552.7,670.268C552.7,670.784 552.856,671.237 553.169,671.628C553.481,672.018 553.778,672.214 554.059,672.214L554.716,672.214C554.872,672.214 554.997,672.253 555.091,672.331C555.169,672.409 555.208,672.471 555.208,672.518L555.208,672.659C555.208,672.706 555.169,672.76 555.091,672.823C555.044,672.87 554.997,672.925 554.95,672.987L554.926,673.034L554.88,673.081C554.848,673.128 554.794,673.182 554.716,673.245C554.606,673.307 554.473,673.339 554.317,673.339L553.801,673.339C553.598,673.339 553.247,673.315 552.747,673.268C552.247,673.221 551.833,673.198 551.505,673.198L550.591,673.198C550.325,673.198 550.012,673.206 549.653,673.221C549.278,673.237 548.966,673.253 548.716,673.268C548.481,673.284 548.294,673.3 548.153,673.315C547.997,673.331 547.903,673.339 547.872,673.339L547.708,673.339C547.583,673.339 547.489,673.323 547.426,673.292C547.317,673.229 547.262,673.175 547.262,673.128L547.262,672.987C547.262,672.94 547.325,672.807 547.45,672.589C547.559,672.385 547.684,672.268 547.825,672.237L547.919,672.214L548.153,672.167C548.247,672.151 548.403,671.987 548.622,671.675C548.841,671.346 548.95,671.042 548.95,670.76L548.95,670.315L549.559,670.104L549.794,670.034L549.7,669.635L549.372,669.307L549.372,668.979L549.348,668.651L549.161,668.346L548.95,668.065Z" style="fill:#fdf300;fill-rule:nonzero;stroke:#fdf300;stroke-width:0.21px;"/>
            <path d="M564.688,656.628L565.789,656.909L567.008,656.651L568.18,656.675L569.985,656.651L571.766,656.628L575.352,656.604L575.188,657.87L575.446,659.135L575.703,660.471L575.938,661.807L575.703,661.878L575.446,661.948L575.117,661.456L574.766,660.964L574.367,660.167L573.946,659.37L572.633,658.057L572.164,657.87L571.25,657.846L570.383,657.8L569.492,657.776L569.141,657.893L568.766,658.034L568.649,658.315L568.508,658.596L568.508,664.151L569.68,664.104L570.852,664.081L571.485,664.01C571.891,663.964 572.203,663.878 572.422,663.753C572.641,663.628 572.781,663.409 572.844,663.096L572.938,662.651L573.031,662.37L573.102,662.112L573.524,662.323L573.922,662.557L573.922,667.76L573.477,667.784L573.008,667.831L572.891,667.104C572.797,666.635 572.461,666.284 571.883,666.05C571.289,665.815 570.766,665.659 570.313,665.581L569.61,665.464L568.508,665.464L568.508,671.487L569.891,671.464L571.25,671.651L572.235,671.534L573.196,671.651L574.414,671.909L575.61,672.19L576.571,672.542L577.93,672.471L578.563,672.682L579.758,672.776L580.766,672.729C581.438,672.714 581.906,672.643 582.172,672.518L582.547,672.331L582.828,672.753L583.086,672.776L583.485,673.081L583.86,673.409L583.203,673.479C582.766,673.542 582.227,673.596 581.586,673.643L580.602,673.714L577.602,673.479L572.164,673.245L569.844,673.315C568.281,673.378 566.75,673.456 565.25,673.55L563,673.714L563.047,673.128L563.094,672.565L563.516,672.471L564.031,672.167C564.36,671.979 564.547,671.831 564.594,671.721L564.664,671.581L564.969,671.417L564.828,671.276L564.828,668.534L564.758,666.003L565.063,665.862L565.438,665.253L565.321,664.807L565.203,664.385L565.485,663.964L565.742,663.542L564.899,663.26L564.875,662.745L564.828,662.229L564.828,660.706C564.828,659.706 564.789,659.003 564.711,658.596C564.617,658.19 564.422,657.964 564.125,657.917L563.656,657.846L563.211,657.8L562.742,657.776L562.93,657.471L563.141,657.19L563.328,656.885L563.516,656.604L564.688,656.628Z" style="fill:#fdf300;fill-rule:nonzero;stroke:#fdf300;stroke-width:0.21px;"/>
            <path d="M616.531,644.276C616.797,646.885 617.531,649.76 618.735,652.901L616.672,653.018C616.203,651.768 615.309,650.706 613.988,649.831C612.668,648.956 611.375,648.323 610.11,647.932C608.844,647.542 607.617,647.467 606.43,647.71C605.242,647.952 604.348,648.53 603.746,649.444C603.145,650.358 603.117,651.253 603.664,652.128C604.211,653.003 604.446,653.62 604.367,653.979L604.25,654.542L604.578,654.729L604.555,655.01L604.766,655.198L604.719,655.432L605.071,655.76L605.047,655.62L605.164,655.596L605.352,655.526L605.469,655.76L605.563,655.62L605.774,655.69L605.703,655.55L605.844,655.339L605.961,655.339L606.102,655.175L606.196,655.128L606.336,655.034L606.758,654.823L607.883,655.526C608.633,655.995 610.035,656.667 612.09,657.542C614.145,658.417 615.809,659.612 617.082,661.128C618.356,662.643 619.696,664.776 621.102,667.526L620.024,669.706C619.305,671.456 618.383,672.909 617.258,674.065C616.133,675.221 614.703,676.182 612.969,676.948C611.235,677.714 609.571,678.151 607.977,678.26C606.383,678.37 604.969,678.303 603.735,678.061C602.5,677.819 601.156,677.163 599.703,676.092C598.25,675.022 597.297,673.952 596.844,672.882C596.391,671.811 596.367,670.714 596.774,669.589C597.18,668.464 597.86,667.491 598.813,666.671C599.766,665.85 600.699,665.315 601.613,665.065C602.528,664.815 603.313,664.745 603.969,664.854C604.141,666.198 604.383,667.448 604.696,668.604C603.258,668.323 602.156,668.284 601.391,668.487C600.625,668.69 600.102,669.276 599.821,670.245C599.539,671.214 599.75,672.19 600.453,673.175C601.156,674.159 601.914,674.862 602.727,675.284C603.539,675.706 604.563,675.995 605.797,676.151C607.031,676.307 608.242,676.237 609.43,675.94C610.617,675.643 611.711,675.03 612.711,674.1C613.711,673.171 614.352,672.175 614.633,671.112L615.406,670.292L615.125,669.12C614.891,669.026 614.656,668.55 614.422,667.69C614,666.471 612.008,664.893 608.446,662.956C604.711,661.393 602.231,660.104 601.004,659.089C599.778,658.073 598.914,657.03 598.414,655.96C597.914,654.889 597.469,653.94 597.078,653.112L598.156,651.776C598.469,650.964 598.953,650.046 599.61,649.022C600.266,647.999 601.086,647.143 602.071,646.456C603.055,645.768 603.981,645.331 604.848,645.143C605.715,644.956 606.852,644.862 608.258,644.862C609.664,644.862 610.867,644.909 611.867,645.003C612.867,645.096 613.899,644.995 614.961,644.698L616.531,644.276Z" style="fill:#fdf300;fill-rule:nonzero;stroke:#fdf300;stroke-width:0.21px;"/>
            <path d="M628.413,670.245C628.413,670.932 628.531,671.397 628.765,671.639C628.999,671.882 629.304,672.018 629.679,672.05C629.96,672.081 630.163,672.116 630.288,672.155C630.413,672.194 630.476,672.276 630.476,672.401C630.476,672.432 630.452,672.487 630.406,672.565C630.359,672.643 630.304,672.721 630.241,672.8C630.179,672.878 630.101,672.956 630.007,673.034C629.913,673.112 629.796,673.151 629.656,673.151C629.468,673.151 629.277,673.143 629.081,673.128C628.886,673.112 628.573,673.089 628.144,673.057C627.714,673.026 627.343,673.01 627.031,673.01C625.531,673.073 624.644,673.112 624.37,673.128C624.097,673.143 623.866,673.151 623.679,673.151C623.398,673.151 623.257,673.05 623.257,672.846C623.257,672.768 623.308,672.639 623.409,672.46C623.511,672.28 623.656,672.151 623.843,672.073C624.062,671.964 624.241,671.854 624.382,671.745C624.523,671.635 624.636,671.444 624.722,671.171C624.808,670.897 624.882,669.776 624.945,667.807C624.945,667.589 624.925,667.382 624.886,667.186C624.847,666.991 624.784,666.776 624.698,666.542C624.613,666.307 623.952,664.956 622.718,662.487L623.163,662.159L623.468,662.065L623.562,661.971L623.281,661.878L623.116,661.737L623.234,661.643L623.304,661.432L623.21,661.175L623.093,661.245L622.671,661.362L622.062,661.268L621.64,660.495L621.195,659.721C620.898,659.221 620.652,658.823 620.456,658.526C620.261,658.229 620.093,658.007 619.952,657.858C619.812,657.71 619.683,657.616 619.566,657.577C619.448,657.538 619.312,657.51 619.156,657.495C618.968,657.479 618.839,657.44 618.769,657.378C618.698,657.315 618.663,657.268 618.663,657.237C618.663,657.19 618.687,657.12 618.734,657.026C618.781,656.932 618.851,656.839 618.945,656.745C619.038,656.651 619.144,656.569 619.261,656.499C619.378,656.428 619.499,656.393 619.624,656.393C619.843,656.393 620.109,656.518 620.421,656.768L621.241,656.604C621.648,656.557 622.093,656.534 622.577,656.534C623.296,656.534 623.952,656.51 624.546,656.464C625.14,656.417 625.538,656.393 625.741,656.393C625.96,656.393 626.101,656.428 626.163,656.499C626.226,656.569 626.257,656.667 626.257,656.792C626.257,656.87 626.198,656.967 626.081,657.085C625.964,657.202 625.882,657.323 625.835,657.448C625.788,657.51 625.695,657.557 625.554,657.589C625.413,657.62 625.284,657.663 625.167,657.717C625.05,657.772 624.937,657.862 624.827,657.987C624.718,658.112 624.663,658.3 624.663,658.55C624.663,658.706 624.698,658.897 624.769,659.124C624.839,659.35 624.972,659.686 625.167,660.132C625.363,660.577 625.64,661.163 625.999,661.889C626.359,662.616 626.796,663.487 627.312,664.503L628.038,663.026L629.14,660.964C629.577,660.135 629.835,659.6 629.913,659.358C629.991,659.116 630.031,658.862 630.031,658.596C630.031,658.206 629.937,657.925 629.749,657.753C629.562,657.581 629.226,657.495 628.741,657.495C628.632,657.495 628.519,657.483 628.402,657.46C628.284,657.436 628.226,657.378 628.226,657.284C628.226,657.253 628.257,657.19 628.32,657.096C628.382,657.003 628.456,656.905 628.542,656.803C628.628,656.702 628.722,656.608 628.823,656.522C628.925,656.436 629.031,656.393 629.14,656.393C629.218,656.393 629.3,656.401 629.386,656.417C629.472,656.432 629.706,656.456 630.089,656.487C630.472,656.518 630.859,656.534 631.249,656.534C632.406,656.503 633.097,656.471 633.323,656.44C633.55,656.409 633.718,656.393 633.827,656.393C633.968,656.393 634.093,656.432 634.202,656.51C634.312,656.589 634.366,656.659 634.366,656.721C634.366,656.8 634.304,656.925 634.179,657.096C634.054,657.268 633.906,657.393 633.734,657.471C633.484,657.596 633.273,657.721 633.101,657.846C632.929,657.971 632.745,658.167 632.55,658.432C632.355,658.698 631.991,659.315 631.46,660.284L630.241,661.667L630.007,663.026C629.366,664.214 628.964,664.987 628.8,665.346C628.636,665.706 628.531,665.987 628.484,666.19C628.437,666.393 628.413,666.612 628.413,666.846L628.413,670.245Z" style="fill:#fdf300;fill-rule:nonzero;stroke:#fdf300;stroke-width:0.21px;"/>
            <path d="M647.586,655.339C647.758,656.901 648.227,658.62 648.992,660.495L647.68,660.565C647.383,659.815 646.813,659.178 645.969,658.655C645.125,658.132 644.297,657.753 643.485,657.518C642.672,657.284 641.887,657.241 641.129,657.389C640.371,657.538 639.801,657.885 639.418,658.432C639.035,658.979 639.02,659.514 639.371,660.038C639.723,660.561 640.379,661.1 641.34,661.655C642.301,662.21 643.438,662.749 644.75,663.272C646.063,663.796 647.125,664.51 647.938,665.417C648.75,666.323 649.289,667.284 649.555,668.3C649.821,669.315 649.817,670.206 649.543,670.971C649.27,671.737 648.774,672.467 648.055,673.163C647.336,673.858 646.422,674.436 645.313,674.897C644.203,675.358 643.141,675.62 642.125,675.682C641.11,675.745 640.207,675.702 639.418,675.553C638.629,675.405 637.77,675.01 636.84,674.37C635.91,673.729 635.301,673.089 635.012,672.448C634.723,671.807 634.707,671.151 634.965,670.479C635.223,669.807 635.656,669.225 636.266,668.733C636.875,668.241 637.473,667.921 638.059,667.772C638.645,667.624 639.235,667.581 639.828,667.643C639.766,668.456 639.719,669.206 639.688,669.893C639,669.721 638.41,669.698 637.918,669.823C637.426,669.948 637.09,670.3 636.91,670.878C636.731,671.456 636.821,672.053 637.18,672.671C637.539,673.288 638.024,673.71 638.633,673.936C639.242,674.163 639.942,674.323 640.731,674.417C641.52,674.51 642.293,674.467 643.051,674.288C643.809,674.108 644.508,673.741 645.149,673.186C645.789,672.632 646.196,672.038 646.367,671.405C646.539,670.772 646.492,670.089 646.227,669.354C645.961,668.62 645.547,668.104 644.985,667.807L644.586,667.151L644.563,666.518L644.141,665.839C643.641,666.135 643.469,666.479 643.625,666.87L642.43,666.518C640.039,665.581 638.453,664.807 637.672,664.198C636.891,663.589 636.34,662.964 636.02,662.323C635.699,661.682 635.641,660.983 635.844,660.225C636.047,659.467 636.36,658.784 636.781,658.175C637.203,657.565 637.727,657.053 638.352,656.639C638.977,656.225 639.567,655.964 640.121,655.854C640.676,655.745 641.403,655.69 642.301,655.69C643.199,655.69 643.969,655.717 644.61,655.772C645.25,655.827 646.242,655.682 647.586,655.339Z" style="fill:#fdf300;fill-rule:nonzero;stroke:#fdf300;stroke-width:0.21px;"/>
            <path d="M651.641,656.346L654.711,656.651L658.578,656.51L662.328,656.417L664.039,656.792L666.055,656.346C665.946,657.3 665.918,658.046 665.973,658.585C666.028,659.124 666.117,659.616 666.242,660.061C666.367,660.507 666.555,660.909 666.805,661.268L665.75,662.065C665.281,661.331 664.879,660.694 664.543,660.155C664.207,659.616 663.824,659.229 663.395,658.995C662.965,658.76 662.516,658.51 662.047,658.245C661.578,657.979 661.297,657.768 661.203,657.612L660.641,657.471L660.571,657.471L660.5,657.542L660.5,657.612L660.571,660.589L660.571,660.893L660.5,661.057L660.571,661.596L660.5,661.596L660.5,661.854L660.641,662.065L660.641,664.268L660.36,665.651L660.266,665.885L659.961,666.073L659.961,666.378L660.125,666.518L660.36,666.682L660.43,666.682L660.5,666.917L660.571,667.362L660.125,667.784L660.196,667.948L660.196,668.018C660.102,668.331 660.055,668.499 660.055,668.522C660.055,668.546 660.102,668.682 660.196,668.932L660.266,669.026L660.805,669.659L660.5,670.057C660.594,670.979 660.785,671.561 661.074,671.803C661.363,672.046 661.582,672.182 661.731,672.214C661.879,672.245 662.344,672.307 663.125,672.401L663.125,673.245L654.641,673.245L654.641,672.401C655.156,672.401 655.571,672.346 655.883,672.237C656.196,672.128 656.414,671.944 656.539,671.686C656.664,671.428 656.703,670.987 656.656,670.362L656.797,667.315L656.797,665.581L656.891,663.94L656.797,663.706L656.797,663.471L656.961,663.26L656.492,662.464L656.727,661.596L656.586,660.518L656.656,657.917L655.649,657.917C655.039,657.917 654.555,657.987 654.196,658.128C653.836,658.268 653.5,658.53 653.188,658.913C652.875,659.296 652.578,659.721 652.297,660.19C652.016,660.659 651.719,661.26 651.406,661.995L650.727,661.456C651.18,659.831 651.485,658.128 651.641,656.346Z" style="fill:#fdf300;fill-rule:nonzero;stroke:#fdf300;stroke-width:0.21px;"/>
            <path d="M669.922,656.628L671.024,656.909L672.242,656.651L673.414,656.675L675.219,656.651L677,656.628L680.586,656.604L680.422,657.87L680.68,659.135L680.938,660.471L681.172,661.807L680.938,661.878L680.68,661.948L680.352,661.456L680,660.964L679.602,660.167L679.18,659.37L677.867,658.057L677.399,657.87L676.485,657.846L675.617,657.8L674.727,657.776L674.375,657.893L674,658.034L673.883,658.315L673.742,658.596L673.742,664.151L674.914,664.104L676.086,664.081L676.719,664.01C677.125,663.964 677.438,663.878 677.656,663.753C677.875,663.628 678.016,663.409 678.078,663.096L678.172,662.651L678.266,662.37L678.336,662.112L678.758,662.323L679.156,662.557L679.156,667.76L678.711,667.784L678.242,667.831L678.125,667.104C678.031,666.635 677.696,666.284 677.117,666.05C676.524,665.815 676,665.659 675.547,665.581L674.844,665.464L673.742,665.464L673.742,671.487L675.125,671.464L676.485,671.651L677.469,671.534L678.43,671.651L679.649,671.909L680.844,672.19L681.805,672.542L683.164,672.471L683.797,672.682L684.992,672.776L686,672.729C686.672,672.714 687.141,672.643 687.406,672.518L687.781,672.331L688.063,672.753L688.321,672.776L688.719,673.081L689.094,673.409L688.438,673.479C688,673.542 687.461,673.596 686.821,673.643L685.836,673.714L682.836,673.479L677.399,673.245L675.078,673.315C673.516,673.378 671.985,673.456 670.485,673.55L668.235,673.714L668.281,673.128L668.328,672.565L668.75,672.471L669.266,672.167C669.594,671.979 669.781,671.831 669.828,671.721L669.899,671.581L670.203,671.417L670.063,671.276L670.063,668.534L669.992,666.003L670.297,665.862L670.672,665.253L670.555,664.807L670.438,664.385L670.719,663.964L670.977,663.542L670.133,663.26L670.11,662.745L670.063,662.229L670.063,660.706C670.063,659.706 670.024,659.003 669.946,658.596C669.852,658.19 669.656,657.964 669.36,657.917L668.891,657.846L668.446,657.8L667.977,657.776L668.164,657.471L668.375,657.19L668.563,656.885L668.75,656.604L669.922,656.628Z" style="fill:#fdf300;fill-rule:nonzero;stroke:#fdf300;stroke-width:0.21px;"/>
            <path d="M695.879,667.76L696.394,666.167L697.144,664.667L697.754,662.089L698.574,659.651L698.808,658.854L699.019,658.057C699.129,657.698 699.207,657.374 699.254,657.085C699.301,656.796 699.418,656.565 699.605,656.393C699.793,656.221 699.941,656.077 700.051,655.96C700.16,655.842 700.332,655.784 700.566,655.784C700.722,655.784 700.953,655.807 701.258,655.854C701.562,655.901 702.058,655.925 702.746,655.925C703.511,655.925 704,656.116 704.211,656.499C704.422,656.882 704.468,657.12 704.351,657.214C704.234,657.307 704.133,657.444 704.047,657.624C703.961,657.803 703.918,658.065 703.918,658.409C703.918,658.612 703.941,658.967 703.988,659.475C704.035,659.983 704.093,660.565 704.164,661.221C704.234,661.878 704.246,662.569 704.199,663.296C704.152,664.022 704.172,664.741 704.258,665.452C704.343,666.163 704.422,666.827 704.492,667.444C704.562,668.061 704.613,668.557 704.644,668.932C704.691,669.62 704.777,670.167 704.902,670.573C705.027,670.979 705.172,671.284 705.336,671.487C705.5,671.69 705.668,671.827 705.84,671.897C706.011,671.967 706.183,672.01 706.355,672.026C706.746,672.104 706.941,672.221 706.941,672.378C706.941,672.456 706.89,672.522 706.789,672.577C706.687,672.632 706.613,672.737 706.566,672.893C706.535,673.003 706.445,673.081 706.297,673.128C706.148,673.175 706.019,673.198 705.91,673.198C705.519,673.198 705.097,673.171 704.644,673.116C704.191,673.061 703.668,673.034 703.074,673.034C702.824,673.034 702.539,673.042 702.218,673.057C701.898,673.073 701.578,673.089 701.258,673.104C700.937,673.12 700.633,673.139 700.343,673.163C700.054,673.186 699.816,673.198 699.629,673.198L699.535,673.198C699.426,673.198 699.34,673.167 699.277,673.104C699.199,673.057 699.16,673.003 699.16,672.94L699.16,672.776C699.16,672.729 699.215,672.651 699.324,672.542C699.402,672.464 699.472,672.378 699.535,672.284L699.582,672.19L699.605,672.167C699.605,672.135 699.699,672.089 699.886,672.026C700.011,671.995 700.152,671.921 700.308,671.803C700.465,671.686 700.613,671.507 700.754,671.264C700.894,671.022 700.965,670.698 700.965,670.292C700.965,669.635 700.972,668.51 700.988,666.917L701.621,666.143L702.113,665.393L701.457,665.253L701.082,664.737L700.66,664.292C700.644,662.464 700.605,661.081 700.543,660.143L700.707,660.143L696.277,672.565L695.668,672.565L694.918,672.612L694.074,672.659L693.629,671.51L693.207,670.362L692.972,668.932L692.293,667.385L691.59,665.206L690.886,663.05L690.16,661.526L689.457,660.073L689.621,660.073C689.574,660.495 689.519,661.003 689.457,661.596C689.394,662.19 689.336,662.819 689.281,663.483C689.226,664.147 689.238,664.815 689.316,665.487C689.394,666.159 689.41,666.8 689.363,667.409C689.316,668.018 689.277,668.569 689.246,669.061C689.215,669.553 689.199,669.94 689.199,670.221C689.199,670.878 689.519,671.479 690.16,672.026L691.215,672.026L691.59,672.214L691.59,672.448L691.519,672.565L691.426,672.682L691.308,672.8L691.191,672.94L691.051,673.057L690.91,673.198L690.769,673.198L689.902,673.104L689.082,673.034C688.238,673.034 687.605,673.061 687.183,673.116C686.761,673.171 686.301,673.198 685.801,673.198C685.519,673.198 685.379,673.104 685.379,672.917C685.379,672.901 685.398,672.85 685.437,672.764C685.476,672.678 685.523,672.589 685.578,672.495C685.633,672.401 685.691,672.307 685.754,672.214C685.816,672.12 685.879,672.057 685.941,672.026C686.144,671.948 686.324,671.831 686.48,671.675C686.636,671.518 686.773,671.264 686.89,670.913C687.008,670.561 687.105,670.1 687.183,669.53C687.261,668.96 687.347,668.245 687.441,667.385C687.457,664.589 687.543,662.448 687.699,660.964C687.855,659.479 687.933,658.542 687.933,658.151C687.933,657.682 687.828,657.362 687.617,657.19C687.406,657.018 687.281,656.725 687.242,656.311C687.203,655.897 687.414,655.717 687.875,655.772C688.336,655.827 688.855,655.854 689.433,655.854C689.871,655.854 690.336,655.831 690.828,655.784C691.32,655.737 691.676,655.714 691.894,655.714C692.051,655.714 692.168,655.749 692.246,655.819C692.324,655.889 692.383,655.991 692.422,656.124C692.461,656.257 692.504,656.436 692.551,656.663C692.597,656.889 692.676,657.182 692.785,657.542L693.136,658.667L693.23,659.581L693.746,660.659L694.097,661.807L694.449,663.237L694.918,664.385L695.386,665.815L695.715,666.8L696.019,667.76L695.879,667.76Z" style="fill:#fdf300;fill-rule:nonzero;stroke:#fdf300;stroke-width:0.21px;"/>
        </g>
        <g transform="matrix(0.711848,0,0,0.711848,307.108,64.2323)">
            <g transform="matrix(48,0,0,48,492.93,689.688)">
                <path d="M0.267,-0.001C0.268,-0.002 0.272,-0.004 0.278,-0.008C0.284,-0.011 0.292,-0.017 0.303,-0.024L0.302,-0.024C0.315,-0.033 0.326,-0.042 0.335,-0.052C0.344,-0.061 0.35,-0.071 0.355,-0.081C0.376,-0.122 0.386,-0.161 0.386,-0.197C0.386,-0.24 0.374,-0.275 0.35,-0.303L0.35,-0.302L0.337,-0.319C0.328,-0.331 0.315,-0.341 0.298,-0.348C0.287,-0.353 0.279,-0.357 0.273,-0.36C0.266,-0.362 0.262,-0.363 0.261,-0.364L0.263,-0.364C0.256,-0.365 0.241,-0.366 0.217,-0.366C0.211,-0.366 0.204,-0.366 0.196,-0.365C0.188,-0.364 0.179,-0.362 0.17,-0.361C0.161,-0.358 0.147,-0.353 0.13,-0.346C0.087,-0.328 0.055,-0.297 0.034,-0.253L0.034,-0.254C0.029,-0.247 0.027,-0.233 0.027,-0.211L0.027,-0.16C0.027,-0.123 0.043,-0.089 0.076,-0.056C0.079,-0.052 0.085,-0.048 0.092,-0.043C0.099,-0.038 0.108,-0.032 0.117,-0.025C0.15,-0.004 0.185,0.007 0.221,0.007C0.235,0.007 0.25,0.005 0.266,-0L0.267,-0.001ZM0.184,-0.308C0.219,-0.308 0.245,-0.296 0.261,-0.273C0.264,-0.266 0.268,-0.259 0.271,-0.252C0.274,-0.245 0.276,-0.239 0.278,-0.233L0.278,-0.235L0.278,-0.233L0.291,-0.201C0.292,-0.198 0.293,-0.193 0.293,-0.185C0.293,-0.163 0.289,-0.141 0.281,-0.118C0.274,-0.093 0.262,-0.076 0.246,-0.067C0.227,-0.058 0.212,-0.053 0.199,-0.053C0.198,-0.053 0.189,-0.058 0.171,-0.069L0.149,-0.081C0.144,-0.084 0.139,-0.089 0.134,-0.096L0.135,-0.093C0.134,-0.096 0.133,-0.098 0.132,-0.102C0.131,-0.105 0.13,-0.107 0.129,-0.11L0.13,-0.109C0.129,-0.112 0.129,-0.113 0.128,-0.113C0.128,-0.113 0.128,-0.114 0.127,-0.116C0.122,-0.129 0.118,-0.139 0.117,-0.146C0.115,-0.153 0.114,-0.158 0.114,-0.159C0.113,-0.164 0.113,-0.17 0.113,-0.177L0.113,-0.202C0.113,-0.215 0.114,-0.227 0.116,-0.236C0.117,-0.245 0.119,-0.252 0.122,-0.258L0.122,-0.257C0.131,-0.275 0.144,-0.29 0.16,-0.303L0.159,-0.303C0.164,-0.306 0.172,-0.308 0.184,-0.308Z" style="fill:#fdf300;fill-rule:nonzero;"/>
            </g>
            <g transform="matrix(48,0,0,48,512.13,689.688)">
                <path d="M0.068,-0.332C0.069,-0.329 0.07,-0.317 0.07,-0.294C0.069,-0.282 0.068,-0.272 0.067,-0.264C0.066,-0.256 0.066,-0.25 0.066,-0.247L0.066,-0.241C0.066,-0.238 0.066,-0.233 0.067,-0.226L0.067,-0.212C0.067,-0.209 0.067,-0.205 0.068,-0.202C0.068,-0.197 0.068,-0.193 0.069,-0.189C0.069,-0.185 0.069,-0.181 0.07,-0.178L0.07,-0.157C0.07,-0.152 0.07,-0.147 0.069,-0.142L0.069,-0.133L0.068,-0.115L0.066,-0.093L0.065,-0.069L0.065,-0.071C0.064,-0.07 0.063,-0.068 0.06,-0.065C0.053,-0.06 0.047,-0.057 0.044,-0.056C0.04,-0.054 0.037,-0.053 0.036,-0.052C0.019,-0.049 0.011,-0.041 0.011,-0.027C0.011,-0.009 0.034,-0 0.08,-0L0.203,-0C0.216,-0.002 0.222,-0.008 0.222,-0.019C0.222,-0.032 0.217,-0.039 0.207,-0.041C0.185,-0.046 0.169,-0.057 0.16,-0.075C0.159,-0.082 0.158,-0.088 0.157,-0.094C0.156,-0.099 0.156,-0.105 0.155,-0.111C0.153,-0.13 0.152,-0.145 0.151,-0.157C0.15,-0.168 0.15,-0.177 0.15,-0.182L0.15,-0.274C0.15,-0.281 0.15,-0.289 0.151,-0.298C0.152,-0.307 0.153,-0.316 0.155,-0.327C0.156,-0.332 0.158,-0.335 0.161,-0.336C0.186,-0.338 0.201,-0.341 0.204,-0.344C0.207,-0.346 0.208,-0.349 0.209,-0.352C0.21,-0.355 0.21,-0.357 0.21,-0.36C0.21,-0.376 0.196,-0.388 0.167,-0.395C0.159,-0.397 0.154,-0.399 0.152,-0.402L0.15,-0.423L0.15,-0.428L0.148,-0.45L0.148,-0.449L0.147,-0.477L0.146,-0.5L0.146,-0.502C0.146,-0.504 0.147,-0.509 0.148,-0.518C0.149,-0.526 0.151,-0.538 0.154,-0.553L0.158,-0.577C0.16,-0.588 0.164,-0.593 0.17,-0.593C0.173,-0.593 0.175,-0.592 0.176,-0.589C0.183,-0.577 0.189,-0.57 0.195,-0.567C0.202,-0.564 0.21,-0.562 0.219,-0.562C0.24,-0.562 0.251,-0.575 0.251,-0.602C0.251,-0.624 0.245,-0.639 0.232,-0.646C0.217,-0.655 0.204,-0.66 0.194,-0.66C0.184,-0.66 0.175,-0.658 0.166,-0.655C0.157,-0.651 0.149,-0.646 0.141,-0.639C0.117,-0.617 0.102,-0.596 0.095,-0.577C0.084,-0.544 0.078,-0.522 0.077,-0.513L0.075,-0.504C0.074,-0.497 0.073,-0.492 0.072,-0.487C0.071,-0.482 0.069,-0.477 0.068,-0.473L0.068,-0.474C0.065,-0.457 0.063,-0.447 0.063,-0.444L0.064,-0.395C0.064,-0.393 0.058,-0.389 0.046,-0.384L0.046,-0.385C0.027,-0.379 0.017,-0.37 0.017,-0.358C0.017,-0.347 0.022,-0.34 0.032,-0.338L0.06,-0.339C0.063,-0.338 0.065,-0.336 0.068,-0.332Z" style="fill:#fdf300;fill-rule:nonzero;"/>
            </g>
            <g transform="matrix(48,0,0,48,492.93,737.688)">
                <path d="M0.036,-0.367C0.019,-0.366 0.011,-0.358 0.011,-0.341C0.011,-0.338 0.012,-0.335 0.013,-0.332C0.014,-0.329 0.016,-0.326 0.017,-0.323L0.016,-0.324C0.019,-0.319 0.024,-0.315 0.031,-0.313C0.038,-0.31 0.047,-0.308 0.058,-0.307C0.066,-0.306 0.07,-0.302 0.07,-0.295C0.07,-0.29 0.069,-0.281 0.067,-0.269L0.066,-0.256C0.066,-0.253 0.066,-0.25 0.067,-0.247L0.067,-0.245L0.067,-0.246L0.067,-0.244C0.068,-0.242 0.068,-0.239 0.068,-0.234L0.069,-0.224C0.07,-0.215 0.07,-0.209 0.07,-0.204L0.07,-0.196L0.071,-0.181C0.072,-0.178 0.072,-0.176 0.072,-0.174L0.072,-0.166C0.072,-0.165 0.071,-0.162 0.07,-0.159C0.069,-0.15 0.068,-0.143 0.067,-0.138C0.066,-0.133 0.066,-0.129 0.066,-0.127C0.066,-0.12 0.067,-0.109 0.069,-0.093L0.068,-0.044C0.068,-0.037 0.071,-0.029 0.078,-0.02L0.078,-0.021C0.092,-0.002 0.112,0.007 0.137,0.007C0.15,0.007 0.16,0.004 0.167,-0.001C0.171,-0.002 0.177,-0.007 0.184,-0.014C0.195,-0.021 0.201,-0.025 0.203,-0.028C0.211,-0.038 0.215,-0.048 0.215,-0.059C0.215,-0.062 0.213,-0.068 0.209,-0.076C0.205,-0.083 0.201,-0.087 0.198,-0.087L0.16,-0.082C0.157,-0.082 0.154,-0.089 0.152,-0.104C0.15,-0.119 0.149,-0.136 0.149,-0.156L0.149,-0.172C0.149,-0.179 0.149,-0.187 0.15,-0.196L0.152,-0.224L0.152,-0.236C0.154,-0.251 0.155,-0.26 0.155,-0.265L0.154,-0.28L0.154,-0.291C0.154,-0.298 0.158,-0.302 0.166,-0.303C0.172,-0.304 0.177,-0.305 0.182,-0.306C0.187,-0.306 0.19,-0.306 0.193,-0.307C0.196,-0.308 0.199,-0.308 0.201,-0.308C0.212,-0.314 0.217,-0.324 0.217,-0.338C0.217,-0.351 0.212,-0.361 0.202,-0.366L0.203,-0.365C0.2,-0.367 0.197,-0.368 0.194,-0.369L0.174,-0.372L0.153,-0.37C0.156,-0.371 0.155,-0.386 0.152,-0.414C0.152,-0.415 0.154,-0.421 0.157,-0.431C0.158,-0.434 0.159,-0.437 0.159,-0.439C0.159,-0.456 0.151,-0.464 0.135,-0.464C0.132,-0.464 0.128,-0.463 0.125,-0.461C0.121,-0.459 0.116,-0.456 0.109,-0.453L0.11,-0.453L0.104,-0.45C0.082,-0.437 0.071,-0.425 0.071,-0.414C0.07,-0.402 0.07,-0.393 0.07,-0.386L0.07,-0.374C0.068,-0.368 0.066,-0.365 0.063,-0.365L0.056,-0.365C0.054,-0.365 0.052,-0.365 0.051,-0.366C0.049,-0.366 0.047,-0.366 0.046,-0.366L0.04,-0.366L0.036,-0.367Z" style="fill:#fdf300;fill-rule:nonzero;"/>
            </g>
            <g transform="matrix(48,0,0,48,503.202,737.688)">
                <path d="M0.14,-0.663C0.132,-0.663 0.121,-0.656 0.108,-0.643L0.097,-0.633L0.091,-0.626L0.091,-0.627C0.084,-0.621 0.077,-0.616 0.072,-0.611C0.067,-0.606 0.061,-0.603 0.056,-0.601C0.036,-0.59 0.026,-0.579 0.026,-0.569C0.026,-0.556 0.032,-0.549 0.044,-0.547L0.043,-0.548L0.063,-0.54L0.062,-0.54C0.061,-0.54 0.062,-0.538 0.064,-0.535C0.067,-0.526 0.07,-0.516 0.073,-0.504C0.072,-0.5 0.072,-0.496 0.072,-0.493C0.071,-0.49 0.071,-0.487 0.071,-0.484L0.071,-0.478L0.072,-0.453L0.072,-0.443L0.071,-0.413C0.07,-0.4 0.07,-0.389 0.07,-0.382L0.07,-0.366L0.069,-0.353C0.073,-0.322 0.075,-0.298 0.075,-0.283L0.075,-0.275L0.072,-0.244L0.071,-0.205L0.071,-0.207L0.069,-0.197L0.069,-0.15C0.07,-0.141 0.07,-0.133 0.07,-0.127L0.07,-0.117C0.071,-0.114 0.071,-0.112 0.071,-0.109L0.071,-0.103C0.071,-0.093 0.069,-0.081 0.064,-0.067C0.064,-0.066 0.064,-0.065 0.064,-0.064C0.063,-0.063 0.063,-0.061 0.063,-0.06L0.063,-0.058C0.062,-0.055 0.061,-0.053 0.06,-0.052C0.059,-0.05 0.058,-0.048 0.055,-0.047L0.056,-0.048C0.049,-0.043 0.043,-0.04 0.039,-0.038C0.035,-0.035 0.032,-0.033 0.031,-0.031C0.029,-0.029 0.028,-0.027 0.028,-0.026C0.027,-0.024 0.027,-0.022 0.027,-0.019L0.027,-0.017C0.027,-0.005 0.037,0.001 0.056,0.001C0.059,0.001 0.063,0.001 0.069,-0C0.074,-0.001 0.081,-0.002 0.089,-0.003L0.1,-0.002C0.11,-0.001 0.118,-0.001 0.123,-0.001L0.133,-0.001C0.144,0 0.152,0.001 0.159,0.002C0.166,0.003 0.17,0.003 0.173,0.003C0.189,0.003 0.197,-0.003 0.197,-0.014C0.197,-0.023 0.192,-0.031 0.181,-0.04L0.182,-0.039C0.173,-0.048 0.169,-0.051 0.169,-0.049C0.167,-0.054 0.166,-0.059 0.165,-0.064C0.164,-0.069 0.164,-0.073 0.164,-0.077C0.164,-0.078 0.164,-0.081 0.165,-0.086C0.165,-0.091 0.165,-0.098 0.166,-0.107C0.166,-0.11 0.166,-0.113 0.165,-0.115C0.164,-0.124 0.163,-0.131 0.162,-0.138C0.161,-0.145 0.161,-0.15 0.161,-0.153C0.161,-0.154 0.161,-0.157 0.162,-0.162C0.163,-0.167 0.164,-0.174 0.165,-0.183L0.164,-0.224L0.161,-0.273L0.161,-0.276C0.161,-0.295 0.166,-0.308 0.177,-0.313C0.187,-0.319 0.199,-0.322 0.214,-0.322C0.223,-0.322 0.231,-0.316 0.238,-0.305C0.247,-0.294 0.251,-0.283 0.251,-0.272L0.25,-0.26L0.25,-0.25C0.25,-0.239 0.25,-0.229 0.251,-0.221C0.252,-0.213 0.253,-0.206 0.254,-0.201C0.259,-0.186 0.261,-0.177 0.261,-0.172C0.261,-0.163 0.261,-0.153 0.26,-0.144C0.259,-0.134 0.258,-0.126 0.257,-0.121C0.257,-0.119 0.257,-0.118 0.257,-0.117C0.256,-0.116 0.256,-0.115 0.256,-0.114C0.256,-0.104 0.256,-0.096 0.256,-0.089C0.255,-0.082 0.255,-0.077 0.254,-0.074L0.254,-0.076C0.253,-0.071 0.251,-0.065 0.249,-0.06C0.246,-0.054 0.243,-0.048 0.24,-0.043C0.235,-0.035 0.232,-0.027 0.232,-0.018C0.232,-0.005 0.239,0.001 0.252,0.001L0.276,-0.003C0.279,-0.004 0.281,-0.005 0.282,-0.005L0.291,-0.005C0.294,-0.005 0.297,-0.004 0.3,-0.003C0.311,-0.001 0.321,0.001 0.328,0.002C0.335,0.003 0.341,0.004 0.346,0.004C0.364,0.004 0.373,-0.002 0.373,-0.014C0.373,-0.022 0.366,-0.032 0.353,-0.043L0.354,-0.043C0.351,-0.046 0.349,-0.048 0.348,-0.05C0.346,-0.051 0.345,-0.053 0.344,-0.055C0.343,-0.06 0.343,-0.065 0.343,-0.072C0.342,-0.079 0.342,-0.086 0.342,-0.094L0.342,-0.125L0.341,-0.156L0.341,-0.163C0.341,-0.166 0.341,-0.169 0.342,-0.173L0.341,-0.171C0.342,-0.174 0.343,-0.177 0.343,-0.178L0.343,-0.183C0.343,-0.184 0.342,-0.186 0.341,-0.189L0.342,-0.187C0.341,-0.202 0.34,-0.213 0.339,-0.22C0.338,-0.231 0.338,-0.242 0.337,-0.253C0.335,-0.264 0.334,-0.274 0.331,-0.284C0.326,-0.307 0.321,-0.321 0.316,-0.328C0.312,-0.333 0.307,-0.339 0.301,-0.344C0.295,-0.349 0.287,-0.355 0.278,-0.36C0.256,-0.373 0.232,-0.38 0.207,-0.38C0.19,-0.38 0.179,-0.378 0.172,-0.374C0.162,-0.366 0.157,-0.362 0.156,-0.362C0.157,-0.362 0.157,-0.363 0.157,-0.365L0.157,-0.372C0.157,-0.376 0.158,-0.381 0.159,-0.387L0.162,-0.41C0.163,-0.421 0.164,-0.427 0.165,-0.429L0.164,-0.456L0.164,-0.491C0.164,-0.498 0.164,-0.507 0.163,-0.516L0.163,-0.558C0.163,-0.561 0.164,-0.568 0.165,-0.581C0.166,-0.594 0.169,-0.612 0.172,-0.636C0.172,-0.641 0.169,-0.646 0.164,-0.651C0.156,-0.659 0.148,-0.663 0.14,-0.663Z" style="fill:#fdf300;fill-rule:nonzero;"/>
            </g>
            <g transform="matrix(48,0,0,48,521.73,737.688)">
                <path d="M0.175,-0.367C0.146,-0.367 0.118,-0.355 0.092,-0.332C0.079,-0.315 0.068,-0.3 0.061,-0.288L0.061,-0.29C0.047,-0.273 0.037,-0.243 0.031,-0.201C0.027,-0.178 0.025,-0.165 0.025,-0.162C0.025,-0.155 0.026,-0.147 0.029,-0.136C0.032,-0.125 0.035,-0.113 0.04,-0.098C0.052,-0.077 0.064,-0.059 0.075,-0.044C0.08,-0.037 0.084,-0.031 0.089,-0.026C0.093,-0.021 0.098,-0.016 0.103,-0.013C0.104,-0.013 0.106,-0.012 0.109,-0.011C0.112,-0.01 0.114,-0.009 0.117,-0.008L0.127,-0.003C0.148,0.004 0.161,0.008 0.168,0.008C0.194,0.008 0.214,0.005 0.227,-0.001C0.232,-0.004 0.237,-0.006 0.242,-0.009C0.247,-0.012 0.253,-0.015 0.258,-0.019C0.261,-0.022 0.264,-0.025 0.267,-0.026C0.269,-0.027 0.271,-0.029 0.272,-0.03C0.281,-0.039 0.287,-0.051 0.29,-0.064L0.289,-0.064C0.289,-0.065 0.29,-0.067 0.291,-0.07C0.294,-0.076 0.296,-0.081 0.296,-0.086C0.296,-0.097 0.291,-0.103 0.28,-0.103C0.276,-0.103 0.273,-0.102 0.27,-0.101C0.266,-0.099 0.262,-0.097 0.259,-0.096C0.256,-0.095 0.252,-0.093 0.248,-0.092C0.235,-0.089 0.225,-0.087 0.216,-0.086C0.207,-0.085 0.2,-0.084 0.195,-0.084C0.192,-0.084 0.188,-0.084 0.183,-0.085C0.178,-0.086 0.172,-0.087 0.166,-0.089L0.166,-0.088C0.16,-0.09 0.15,-0.097 0.135,-0.11C0.116,-0.126 0.105,-0.138 0.102,-0.146C0.101,-0.147 0.099,-0.16 0.096,-0.185C0.095,-0.19 0.095,-0.193 0.095,-0.195L0.095,-0.2C0.095,-0.207 0.096,-0.211 0.098,-0.212C0.105,-0.219 0.113,-0.222 0.124,-0.222C0.128,-0.222 0.139,-0.221 0.157,-0.219L0.156,-0.219C0.159,-0.218 0.162,-0.218 0.165,-0.218L0.197,-0.218L0.217,-0.22C0.222,-0.221 0.227,-0.221 0.231,-0.221L0.242,-0.221C0.243,-0.221 0.244,-0.221 0.246,-0.221C0.247,-0.22 0.249,-0.22 0.252,-0.22C0.255,-0.219 0.257,-0.219 0.259,-0.219L0.266,-0.219C0.291,-0.219 0.304,-0.233 0.304,-0.262C0.304,-0.279 0.296,-0.296 0.281,-0.313C0.248,-0.349 0.212,-0.367 0.175,-0.367ZM0.161,-0.314C0.176,-0.314 0.189,-0.31 0.198,-0.303C0.209,-0.292 0.215,-0.281 0.215,-0.272C0.215,-0.269 0.21,-0.268 0.2,-0.268C0.177,-0.268 0.158,-0.268 0.145,-0.269C0.131,-0.27 0.122,-0.271 0.117,-0.272C0.116,-0.273 0.115,-0.275 0.115,-0.276C0.115,-0.283 0.118,-0.29 0.124,-0.297C0.133,-0.308 0.146,-0.314 0.161,-0.314ZM0.103,-0.013L0.104,-0.013L0.103,-0.013Z" style="fill:#fdf300;fill-rule:nonzero;"/>
            </g>
        </g>
        <g transform="matrix(1.3291,0,0,1.3291,-189.084,-285.421)">
            <g transform="matrix(48,0,0,48,492.93,689.688)">
                <path d="M0.081,-0.106C0.055,-0.106 0.042,-0.088 0.042,-0.051C0.042,-0.035 0.046,-0.023 0.054,-0.014L0.054,-0.015C0.067,-0 0.078,0.007 0.087,0.007C0.108,0.007 0.122,0.002 0.131,-0.009C0.138,-0.018 0.142,-0.03 0.142,-0.047C0.142,-0.062 0.139,-0.073 0.132,-0.08L0.133,-0.079C0.132,-0.082 0.123,-0.088 0.107,-0.095C0.1,-0.099 0.094,-0.102 0.09,-0.104C0.085,-0.105 0.082,-0.106 0.081,-0.106ZM0.081,-0.335C0.055,-0.335 0.042,-0.317 0.042,-0.282C0.042,-0.265 0.046,-0.253 0.054,-0.245L0.054,-0.246C0.067,-0.23 0.078,-0.222 0.087,-0.222C0.09,-0.222 0.093,-0.223 0.097,-0.224C0.101,-0.225 0.105,-0.226 0.11,-0.228C0.115,-0.229 0.119,-0.231 0.123,-0.233C0.126,-0.235 0.129,-0.237 0.131,-0.239C0.138,-0.248 0.142,-0.261 0.142,-0.277C0.142,-0.292 0.139,-0.303 0.132,-0.311C0.131,-0.312 0.128,-0.314 0.124,-0.316C0.12,-0.318 0.114,-0.321 0.107,-0.325C0.1,-0.329 0.094,-0.332 0.09,-0.333C0.085,-0.334 0.082,-0.335 0.081,-0.335Z" style="fill:#fdf300;fill-rule:nonzero;"/>
            </g>
            <g transform="matrix(48,0,0,48,500.946,689.688)">
                <path d="M0.081,-0.106C0.055,-0.106 0.042,-0.088 0.042,-0.051C0.042,-0.035 0.046,-0.023 0.054,-0.014L0.054,-0.015C0.067,-0 0.078,0.007 0.087,0.007C0.108,0.007 0.122,0.002 0.131,-0.009C0.138,-0.018 0.142,-0.03 0.142,-0.047C0.142,-0.062 0.139,-0.073 0.132,-0.08L0.133,-0.079C0.132,-0.082 0.123,-0.088 0.107,-0.095C0.1,-0.099 0.094,-0.102 0.09,-0.104C0.085,-0.105 0.082,-0.106 0.081,-0.106ZM0.081,-0.335C0.055,-0.335 0.042,-0.317 0.042,-0.282C0.042,-0.265 0.046,-0.253 0.054,-0.245L0.054,-0.246C0.067,-0.23 0.078,-0.222 0.087,-0.222C0.09,-0.222 0.093,-0.223 0.097,-0.224C0.101,-0.225 0.105,-0.226 0.11,-0.228C0.115,-0.229 0.119,-0.231 0.123,-0.233C0.126,-0.235 0.129,-0.237 0.131,-0.239C0.138,-0.248 0.142,-0.261 0.142,-0.277C0.142,-0.292 0.139,-0.303 0.132,-0.311C0.131,-0.312 0.128,-0.314 0.124,-0.316C0.12,-0.318 0.114,-0.321 0.107,-0.325C0.1,-0.329 0.094,-0.332 0.09,-0.333C0.085,-0.334 0.082,-0.335 0.081,-0.335Z" style="fill:#fdf300;fill-rule:nonzero;"/>
            </g>
        </g>
    </g>
    <g transform="matrix(0.901879,0,0,0.901879,-236.332,-99.9616)">
        <path d="M540.619,638.588C539.371,639.74 538.171,640.316 537.163,640.316C535.483,640.316 533.371,638.492 533.371,632.684L533.371,631.196C533.371,628.556 533.371,625.724 533.707,624.044C534.427,625.916 535.675,627.356 536.731,627.356C539.803,627.356 540.619,624.332 541.387,621.596L540.811,621.26C540.475,622.028 539.995,622.364 539.467,622.364C538.459,622.364 537.163,621.164 536.203,619.676C534.859,621.116 530.587,623.804 529.627,624.764C527.947,626.444 527.323,629.324 527.323,634.124C527.323,639.308 529.099,642.476 530.203,643.532C531.019,644.348 531.979,644.972 533.659,645.932C536.347,643.484 538.555,641.42 541.291,639.26L540.619,638.588Z" style="fill:#fdf300;fill-rule:nonzero;"/>
        <path d="M556.843,639.644C555.547,640.556 554.491,641.132 553.483,641.132C551.467,641.132 551.035,638.636 551.035,633.5L551.035,631.004C551.035,627.836 551.035,623.948 551.803,623.948C552.427,623.948 553.675,625.292 556.843,626.828L556.843,639.644ZM565.435,640.94C564.859,641.276 564.379,641.468 563.947,641.468C563.083,641.468 562.699,640.604 562.699,639.308L562.699,627.98C562.699,626.396 563.275,625.532 564.907,624.908L564.907,624.62C562.363,623.948 558.667,621.98 555.547,619.82C553.771,622.076 549.019,623.852 547.291,625.58C545.419,627.452 544.939,630.716 544.939,633.884C544.939,641.804 546.427,643.916 550.171,645.98C551.563,644.156 554.011,642.284 556.891,640.7C557.275,643.196 557.803,644.06 560.395,646.028C561.835,644.396 563.803,642.908 565.435,641.852L565.435,640.94Z" style="fill:#fdf300;fill-rule:nonzero;"/>
        <path d="M567.019,625.628L570.475,625.628L570.475,636.908C570.475,640.076 570.091,641.036 568.315,641.372L568.315,641.9C570.859,642.668 572.635,644.252 574.555,646.076C576.667,644.156 578.923,642.428 581.131,640.7L580.699,639.5C579.835,640.364 579.067,640.7 578.443,640.7C576.955,640.7 576.331,639.548 576.331,637.82L576.331,625.58L580.939,625.58L580.939,622.412L576.331,622.412L576.331,611.804L574.411,611.804C572.827,618.476 571.003,621.74 567.019,623.468L567.019,625.628Z" style="fill:#fdf300;fill-rule:nonzero;"/>
        <g transform="matrix(1.50958,0,0,1.50958,-218.386,-207.961)">
            <path d="M484.388,550.716C485.51,549.854 486.763,548.666 487.086,548.384C489.152,549.179 490.647,551.468 490.647,555.697C490.647,559.068 490.393,560.785 487.626,562.661C486.831,563.233 485.305,563.551 483.62,565.554C481.935,564.219 479.073,562.629 477.356,562.311L477.356,562.057C478.596,561.357 478.755,561.039 478.755,560.149L478.755,552.995C478.755,552.168 478.628,551.278 477.864,551.278C477.388,551.278 476.783,551.818 476.593,551.977L476.37,551.341C477.451,550.546 479.105,549.37 480.09,548.384C481.998,549.37 482.634,549.844 482.634,551.466C482.634,551.721 482.619,552.368 482.634,552.677L482.634,560.689L485.687,562.534C485.782,562.597 485.846,562.629 485.941,562.629C486.577,562.629 486.609,560.562 486.609,555.761C486.609,553.723 486.519,551.715 485,551.601L484.388,550.716Z" style="fill:#fdf300;fill-rule:nonzero;"/>
        </g>
    </g>
    <g transform="matrix(0.851995,0,0,0.851995,51.3426,42.6272)">
        <path d="M186,476C204,476 216,466 222,458C224,462 228,463 232,463C234,463 243,462 242,458C249,467 263,476 282,476C302,476 313,465 313,454C313,441 303,433 292,429C305,411 313,374 313,360C313,338 307,316 297,299C314,294 327,291 338,281C337,277 336,277 335,274C324,274 314,273 307,273L286,273C280,273 278,272 277,271C277,270 284,270 294,270C304,270 319,270 334,271C333,269 332,268 332,266C302,268 277,269 277,268L280,265L292,265L331,262C340,249 343,237 343,221C343,206 335,198 331,188C341,149 343,121 343,100C343,92 343,80 339,69C330,75 272,112 257,121C249,120 241,119 233,119C222,119 216,120 208,122C196,114 133,74 123,68C122,78 120,95 120,108C120,132 130,163 135,186C130,198 122,206 122,221C122,235 125,249 135,262L185,265C186,265 188,267 188,268C189,269 157,266 136,266C136,268 136,268 135,271C157,271 189,270 188,271C188,272 187,274 186,274L134,274C133,277 133,277 131,281C138,288 152,294 170,298C159,315 152,332 152,353C152,361 154,377 156,385C151,393 143,404 127,404C112,404 106,391 106,366C106,338 96,303 48,303C9,303 0,338 0,364L0,386C0,387 4,380 4,375L4,373C5,375 7,382 8,380C12,341 26,323 47,323C84,324 80,369 80,394C80,421 97,435 122,435C141,435 156,425 166,415C168,418 171,425 174,429C161,433 152,441 152,454C152,465 163,476 186,476ZM43,277C53,277 98,276 134,274L135,271C98,272 59,273 43,275L43,277ZM136,266C136,265 135,264 135,262C98,260 55,257 44,257L44,259C63,262 101,264 136,266ZM218,375C211,375 205,370 205,363C205,356 211,350 218,350C224,350 230,356 230,363C230,370 224,375 218,375ZM248,375C241,375 236,370 236,363C236,356 241,350 248,350C255,350 260,356 260,363C260,370 255,375 248,375ZM233,349C226,349 220,343 220,336C220,330 226,324 233,324C240,324 245,330 245,336C245,343 240,349 233,349ZM227,294C225,292 228,282 223,282C212,282 207,282.299 204,270.299C208,275.299 216,277 221,277C226,277 231,278 231,274C231,272 230,270 230,267C230,266 236,266 236,267C236,270 235,272 235,274C235,278 240,277 246,277C252,277 256,275.299 260,270.299C257,282.299 253,282 242,282C239,282 241,292 239,294C237,296 229,296 227,294ZM359,478C384,458 393,431 393,404C393,376 385,363 382,355C384,354 384,352 384,351C384,350 383,348 382,348C383,347 389,346 392,346C395,346 397,343 397,341C397,339 394,337 392,338L382,341C375,343 371,332 371,331L361,334C362,339 358,345 354,347C350,349 344,349 344,353L344,354C346,358 350,356 353,354C356,352 359,353 361,354C361,356 361,357 362,358C363,359 364,360 366,360C368,368 370,389 370,404C370,425 354,443 343,451C351,458 357,468 359,478ZM233,264C229,264 223,260 223,257C223,253 227,252 233,252C237,252 243,253 243,257C243,259 237,264 233,264ZM303,348C309,348 318,343 318,338L350,332C353,337 360,341 366,341L367,341C375,341 379,331 379,317C379,304 370,294 360,294C349,294 343,299 343,309L343,313L315,318C315,314 311,310 303,310L300,310C291,310 285,319 285,329C285,339 294,348 303,348ZM143,160C139,166 132,130 132,107C132,100 133,92 134,88L141,108C146,123 165,133 169,140C164,141 160,142 156,145C155,145 150,136 145,131C147,138 152,148 152,149C148,152 146,156 143,160ZM362,329L358,318C355,318 352,317 352,312C352,309 355,305 360,305C364,305 366,306 366,311C366,313 365,315 364,316L368,327L362,329ZM421,277L422,274C401,274 367,272 334,271C334,272 334,273 335,274C370,276 410,277 421,277ZM332,266C358,264 408,261 421,259L421,257C418,257 357,261 331,262L331,263C331,264 331,265 332,266ZM392,205C395,205 398,205 401,204C418,200 445,182 445,162C445,141 402,103 375,70C352,42 293,1 254,1C251,1 251,5 251,9L251,17C251,32 244,48 231,48C218,48 211,37 211,17C211,13 213,1 208,1C166,1 115,41 90,70C64,103 22,135 22,162C22,184 58,204 77,204C92,204 102,195 120,188C152,174 202,163 237,163C268,163 307,172 342,187C367,198 379,205 392,205ZM76,198C62,198 51,190 45,185C39,180 29,173 29,161C29,149 35,143 47,129L94,74C111,54 135,34 160,21C173,14 190,6 199,6C203,6 206,6 206,13L206,20C206,38 215,53 232,53C249,53 257,36 257,22C257,18 256,13 256,10C256,8 257,6 259,6C280,6 305,21 326,34C346,47 360,59 373,74C388,92 405,109 420,128C427,137 434,145 438,154C439,158 439,159 439,161C439,169 434,179 426,186C417,193 410,195 400,198C385,202 369,193 355,187C311,167 274,158 239,158C210,158 196,162 171,167C147,172 123,180 104,190C88,198 85,198 76,198ZM394,193C406,193 417,185 422,181C432,173 432,168 432,163C432,156 427,148 421,141C406,120 387,102 370,82C366,77 363,73 359,69C343,53 324,40 301,28C286,20 277,17 264,14C264,39 256,60 232,60C208,60 196,38 198,14C181,18 162,27 146,38C126,51 112,64 98,80C81,101 72,107 56,129C50,135 35,154 35,160C35,165 38,169 41,172C49,180 64,191 76,191C84,191 95,185 105,181L127,172C120,152 114,132 114,108C114,84 117,72 120,62C129,66 142,75 158,85C180,99 196,107 207,118C208,118 207,120 207,121C207,124 202,127 200,128C184,137 156,155 140,165C139,166 137,168 135,169C160,161 180,157 203,153C216,152 227,151 239,151C266,151 298,157 325,167L323,165C322,165 285,141 263,128C261,127 252,121 254,119C265,108 330,69 342,62C345,70 349,92 349,108C349,133 344,150 338,172C356,179 359,181 367,184C374,187 383,193 394,193ZM246,107C242,107 242,105 243,103L233,98L223,103C224,104 224,105 222,106C221,107 218,107 217,106C216,105 216,104 217,103C215,103 215,103 214,102C213,101 213,97 216,97C219,97 219,98 220,99L229,96L217,90C217,91 216,92 214,92C212,92 211,91 211,89C211,87 213,86 214,86C214,85 214,84 215,84C215,83 216,82 218,82C220,82 221,83 221,85C221,86 221,87 220,87L233,93L247,87C246,86 247,83 250,83C252,83 253,84 253,87C255,87 256,89 256,90C256,92 255,93 254,93C252,93 250,92 250,91L238,96L246,100C247,98 249,96 251,97C253,98 253,99 253,100C253,101 253,103 252,103C251,103 250,103 250,104C250,106 250,105 249,106C248,107 247,107 246,107ZM232,87C231,87 230,87 230,86L230,84C229,84 228,83 226,81C224,79 224,78 224,76C224,72 228,70 233,70C238,70 243,72 243,76C243,78 242,80 240,82L237,84L237,86C237,87 236,87 235,87L232,87ZM231,82C232,82 233,81 233,80C233,79 232,78 231,78C230,78 229,79 229,80C229,81 230,82 231,82ZM236,82C237,82 238,81 238,80C238,79 237,78 236,78C235,78 234,79 234,80C234,81 235,82 236,82ZM322,160C317,153 316,151 314,149C314,148 319,139 320,134C317,138 313,142 310,145C305,142 303,141 297,140C301,133 319,123 324,108L331,88C333,92 333,101 333,109C333,132 327,166 322,160ZM147,230C150,220 160,215 170,215C167,217 163,220 163,225C164,222 167,221 170,221C172,221 177,222 177,227C177,231 173,234 170,234C167,234 165,233 163,229C163,234 164,243 172,250C163,250 147,238 147,230ZM185,218C192,222 200,227 202,239C200,242 193,249 184,250C191,246 192,238 192,235C192,230 189,225 185,218ZM321,230C321,238 305,250 296,250C304,243 305,234 305,229C304,233 301,234 298,234C295,234 291,231 291,227C291,222 296,221 299,221C301,221 304,222 305,225C305,220 301,217 298,215C308,215 318,220 321,230ZM283,218C279,225 276,230 276,235C276,238 277,246 286,250C276,249 269,242 266,239C269,227 276,222 283,218Z" style="fill:#fdf300;fill-rule:nonzero;"/>
    </g>
    <g transform="matrix(0.946369,0,0,0.946369,12.6689,23.2276)">
        <circle cx="252.081" cy="240.475" r="255.167" style="fill:none;stroke:#fdf300;stroke-width:5.28px;stroke-linecap:round;stroke-miterlimit:1.5;"/>
    </g>
</svg>
