<?xml version="1.0" encoding="UTF-8" standalone="no"?>
<!DOCTYPE svg PUBLIC "-//W3C//DTD SVG 1.1//EN" "http://www.w3.org/Graphics/SVG/1.1/DTD/svg11.dtd">
<svg width="100%" height="100%" viewBox="0 0 983 615" version="1.1" xmlns="http://www.w3.org/2000/svg" xmlns:xlink="http://www.w3.org/1999/xlink" xml:space="preserve" xmlns:serif="http://www.serif.com/" style="fill-rule:evenodd;clip-rule:evenodd;stroke-linecap:round;stroke-linejoin:round;stroke-miterlimit:1.5;">
    <g transform="matrix(0.406932,0,0,0.406932,374.556,-1442.98)">
        <path d="M804.001,3549.33L1289.11,3750.27L1490.05,4235.38L1289.11,4720.48L804.001,4921.42L318.894,4720.48L117.956,4235.38L318.894,3750.27L804.001,3549.33Z" style="fill:rgb(50,50,50);stroke:rgb(207,207,207);stroke-width:6.66px;"/>
    </g>
    <g transform="matrix(0.142107,0,0,0.142107,210.811,-167.941)">
        <path d="M804.001,3549.33L1289.11,3750.27L1490.05,4235.38L1289.11,4720.48L804.001,4921.42L318.894,4720.48L117.956,4235.38L318.894,3750.27L804.001,3549.33Z" style="fill:rgb(50,50,50);stroke:rgb(207,207,207);stroke-width:19.06px;"/>
    </g>
    <g transform="matrix(0.0852606,0,0,0.0852606,87.2652,151.965)">
        <path d="M804.001,3549.33L1289.11,3750.27L1490.05,4235.38L1289.11,4720.48L804.001,4921.42L318.894,4720.48L117.956,4235.38L318.894,3750.27L804.001,3549.33Z" style="fill:rgb(50,50,50);stroke:rgb(207,207,207);stroke-width:31.77px;"/>
    </g>
    <g transform="matrix(0.0602748,0,0,0.0602748,-5.75562,316.282)">
        <path d="M804.001,3549.33L1289.11,3750.27L1490.05,4235.38L1289.11,4720.48L804.001,4921.42L318.894,4720.48L117.956,4235.38L318.894,3750.27L804.001,3549.33Z" style="fill:rgb(50,50,50);stroke:rgb(207,207,207);stroke-width:44.93px;"/>
    </g>
    <g id="MIT" transform="matrix(0.263243,0,0,0.263243,574.22,348.226)">
        <g transform="matrix(1,0,0,1,-0.280435,0)">
            <rect x="664.53" y="88.387" width="205.117" height="83.587" style="fill:rgb(194,192,191);stroke:rgb(194,192,191);stroke-width:3.8px;"/>
        </g>
        <g transform="matrix(0.414397,0,0,1,244.466,0)">
            <rect x="664.53" y="88.387" width="205.117" height="83.587" style="fill:rgb(194,192,191);stroke:rgb(194,192,191);stroke-width:4.96px;"/>
        </g>
        <g transform="matrix(1.00924,0,0,1,-14.5432,0)">
            <rect x="112.896" y="88.387" width="84.222" height="398.861" style="fill:rgb(194,192,191);stroke:rgb(194,192,191);stroke-width:3.78px;"/>
        </g>
        <g transform="matrix(1.00924,0,0,1,265.781,0)">
            <rect x="112.896" y="88.387" width="84.222" height="398.861" style="fill:rgb(194,192,191);stroke:rgb(194,192,191);stroke-width:3.78px;"/>
        </g>
        <g transform="matrix(1.04378,0,0,1,-24.0571,0)">
            <rect x="252.561" y="88.387" width="81.435" height="273.096" style="fill:rgb(194,192,191);stroke:rgb(194,192,191);stroke-width:3.72px;"/>
        </g>
        <g transform="matrix(1.04378,0,0,0.955709,260.478,141.776)">
            <rect x="252.561" y="88.387" width="81.435" height="273.096" style="fill:white;"/>
        </g>
        <g transform="matrix(1.04378,0,0,0.955709,400.632,141.776)">
            <rect x="252.561" y="88.387" width="81.435" height="273.096" style="fill:white;"/>
        </g>
    </g>
    <g transform="matrix(0.522599,0,0,0.522599,540.967,127.212)">
        <g transform="matrix(41.4371,0,0,41.4371,325.118,218.707)">
            <path d="M0.476,-0L0.122,-0L0.122,-0.136L0.217,-0.136L0.217,-0.588L0.123,-0.588L0.123,-0.725L0.476,-0.725L0.476,-0.588L0.384,-0.588L0.384,-0.136L0.476,-0.136L0.476,-0Z" style="fill:rgb(211,211,211);fill-rule:nonzero;"/>
        </g>
        <g transform="matrix(41.4371,0,0,41.4371,351.886,218.707)">
            <path d="M0.213,-0L0.051,-0L0.051,-0.725L0.25,-0.725L0.373,-0.374L0.388,-0.325L0.388,-0.725L0.55,-0.725L0.55,-0L0.366,-0L0.213,-0.394L0.213,-0Z" style="fill:rgb(211,211,211);fill-rule:nonzero;"/>
        </g>
        <g transform="matrix(41.4371,0,0,41.4371,378.654,218.707)">
            <path d="M0.388,-0L0.214,-0L0.214,-0.573L0.038,-0.573L0.038,-0.725L0.562,-0.725L0.562,-0.573L0.388,-0.573L0.388,-0Z" style="fill:rgb(211,211,211);fill-rule:nonzero;"/>
        </g>
        <g transform="matrix(41.4371,0,0,41.4371,405.423,218.707)">
            <path d="M0.594,-0L0.418,-0L0.286,-0.27L0.221,-0.27L0.221,-0L0.051,-0L0.051,-0.725L0.306,-0.725C0.357,-0.725 0.402,-0.715 0.442,-0.696C0.481,-0.677 0.511,-0.65 0.533,-0.616C0.555,-0.582 0.566,-0.542 0.566,-0.498C0.566,-0.452 0.555,-0.412 0.534,-0.378C0.512,-0.344 0.482,-0.317 0.442,-0.299L0.594,-0ZM0.221,-0.584L0.221,-0.414L0.271,-0.414C0.3,-0.414 0.325,-0.418 0.345,-0.426C0.366,-0.434 0.381,-0.444 0.392,-0.457C0.402,-0.47 0.407,-0.484 0.407,-0.499C0.407,-0.514 0.402,-0.528 0.393,-0.541C0.383,-0.554 0.369,-0.564 0.352,-0.572C0.334,-0.58 0.314,-0.584 0.292,-0.584L0.221,-0.584Z" style="fill:rgb(211,211,211);fill-rule:nonzero;"/>
        </g>
        <g transform="matrix(41.4371,0,0,41.4371,432.191,218.707)">
            <path d="M0.3,0.017C0.207,0.017 0.139,-0.018 0.096,-0.087C0.053,-0.157 0.031,-0.252 0.031,-0.374C0.031,-0.449 0.042,-0.514 0.064,-0.568C0.086,-0.622 0.117,-0.664 0.158,-0.692C0.198,-0.721 0.246,-0.735 0.3,-0.735C0.355,-0.735 0.402,-0.721 0.443,-0.695C0.483,-0.668 0.515,-0.627 0.537,-0.574C0.559,-0.521 0.57,-0.456 0.57,-0.379C0.57,-0.255 0.548,-0.158 0.505,-0.088C0.462,-0.018 0.393,0.017 0.3,0.017ZM0.301,-0.125C0.331,-0.125 0.354,-0.136 0.369,-0.157C0.385,-0.179 0.395,-0.207 0.4,-0.241C0.405,-0.276 0.408,-0.318 0.408,-0.368C0.408,-0.438 0.401,-0.492 0.386,-0.532C0.371,-0.572 0.344,-0.592 0.304,-0.592C0.276,-0.592 0.253,-0.583 0.237,-0.566C0.221,-0.548 0.21,-0.522 0.204,-0.489C0.197,-0.456 0.194,-0.414 0.194,-0.363C0.194,-0.318 0.197,-0.278 0.202,-0.244C0.207,-0.209 0.217,-0.181 0.233,-0.159C0.249,-0.136 0.271,-0.125 0.301,-0.125Z" style="fill:rgb(211,211,211);fill-rule:nonzero;"/>
        </g>
        <g transform="matrix(41.4371,0,0,41.4371,458.959,218.707)">
            <path d="M0.046,-0L0.046,-0.725L0.225,-0.725C0.3,-0.725 0.362,-0.713 0.41,-0.691C0.458,-0.668 0.494,-0.63 0.519,-0.578C0.543,-0.525 0.555,-0.455 0.555,-0.367C0.555,-0.278 0.544,-0.207 0.521,-0.154C0.499,-0.1 0.463,-0.061 0.414,-0.037C0.365,-0.012 0.299,-0 0.217,-0L0.046,-0ZM0.239,-0.144C0.287,-0.144 0.321,-0.165 0.342,-0.208C0.363,-0.251 0.374,-0.304 0.374,-0.366C0.374,-0.428 0.364,-0.479 0.345,-0.52C0.325,-0.56 0.292,-0.58 0.246,-0.58L0.216,-0.58L0.216,-0.144L0.239,-0.144Z" style="fill:rgb(211,211,211);fill-rule:nonzero;"/>
        </g>
        <g transform="matrix(41.4371,0,0,41.4371,485.728,218.707)">
            <path d="M0.3,0.013C0.237,0.013 0.187,0.001 0.151,-0.022C0.114,-0.045 0.089,-0.079 0.074,-0.124C0.059,-0.168 0.052,-0.224 0.052,-0.293L0.052,-0.725L0.222,-0.725L0.222,-0.303C0.222,-0.26 0.224,-0.226 0.229,-0.202C0.233,-0.178 0.241,-0.16 0.252,-0.148C0.264,-0.137 0.28,-0.131 0.302,-0.131C0.323,-0.131 0.339,-0.137 0.351,-0.148C0.362,-0.16 0.369,-0.178 0.373,-0.202C0.377,-0.226 0.379,-0.26 0.379,-0.303L0.379,-0.725L0.549,-0.725L0.549,-0.293C0.549,-0.224 0.542,-0.168 0.527,-0.124C0.512,-0.079 0.486,-0.045 0.45,-0.022C0.413,0.001 0.363,0.013 0.3,0.013Z" style="fill:rgb(211,211,211);fill-rule:nonzero;"/>
        </g>
        <g transform="matrix(41.4371,0,0,41.4371,512.496,218.707)">
            <path d="M0.31,0.018C0.247,0.018 0.194,0.001 0.151,-0.035C0.108,-0.07 0.077,-0.116 0.057,-0.173C0.036,-0.231 0.026,-0.294 0.026,-0.362C0.026,-0.431 0.037,-0.494 0.058,-0.55C0.08,-0.606 0.114,-0.651 0.162,-0.685C0.209,-0.718 0.269,-0.735 0.343,-0.735C0.391,-0.735 0.433,-0.726 0.469,-0.708C0.505,-0.689 0.541,-0.661 0.578,-0.622L0.491,-0.514C0.471,-0.537 0.45,-0.553 0.429,-0.564C0.408,-0.575 0.384,-0.58 0.356,-0.58C0.321,-0.58 0.291,-0.569 0.267,-0.548C0.243,-0.526 0.225,-0.498 0.213,-0.464C0.201,-0.43 0.195,-0.394 0.195,-0.357C0.195,-0.317 0.201,-0.28 0.213,-0.246C0.225,-0.211 0.243,-0.183 0.267,-0.162C0.291,-0.141 0.321,-0.13 0.356,-0.13C0.376,-0.13 0.398,-0.135 0.422,-0.147C0.447,-0.158 0.468,-0.173 0.485,-0.193L0.568,-0.092C0.545,-0.067 0.522,-0.047 0.499,-0.032C0.477,-0.016 0.45,-0.004 0.42,0.005C0.389,0.014 0.353,0.018 0.31,0.018Z" style="fill:rgb(211,211,211);fill-rule:nonzero;"/>
        </g>
        <g transform="matrix(41.4371,0,0,41.4371,539.264,218.707)">
            <path d="M0.388,-0L0.214,-0L0.214,-0.573L0.038,-0.573L0.038,-0.725L0.562,-0.725L0.562,-0.573L0.388,-0.573L0.388,-0Z" style="fill:rgb(211,211,211);fill-rule:nonzero;"/>
        </g>
        <g transform="matrix(41.4371,0,0,41.4371,566.033,218.707)">
            <path d="M0.476,-0L0.122,-0L0.122,-0.136L0.217,-0.136L0.217,-0.588L0.123,-0.588L0.123,-0.725L0.476,-0.725L0.476,-0.588L0.384,-0.588L0.384,-0.136L0.476,-0.136L0.476,-0Z" style="fill:rgb(211,211,211);fill-rule:nonzero;"/>
        </g>
        <g transform="matrix(41.4371,0,0,41.4371,592.801,218.707)">
            <path d="M0.3,0.017C0.207,0.017 0.139,-0.018 0.096,-0.087C0.053,-0.157 0.031,-0.252 0.031,-0.374C0.031,-0.449 0.042,-0.514 0.064,-0.568C0.086,-0.622 0.117,-0.664 0.158,-0.692C0.198,-0.721 0.246,-0.735 0.3,-0.735C0.355,-0.735 0.402,-0.721 0.443,-0.695C0.483,-0.668 0.515,-0.627 0.537,-0.574C0.559,-0.521 0.57,-0.456 0.57,-0.379C0.57,-0.255 0.548,-0.158 0.505,-0.088C0.462,-0.018 0.393,0.017 0.3,0.017ZM0.301,-0.125C0.331,-0.125 0.354,-0.136 0.369,-0.157C0.385,-0.179 0.395,-0.207 0.4,-0.241C0.405,-0.276 0.408,-0.318 0.408,-0.368C0.408,-0.438 0.401,-0.492 0.386,-0.532C0.371,-0.572 0.344,-0.592 0.304,-0.592C0.276,-0.592 0.253,-0.583 0.237,-0.566C0.221,-0.548 0.21,-0.522 0.204,-0.489C0.197,-0.456 0.194,-0.414 0.194,-0.363C0.194,-0.318 0.197,-0.278 0.202,-0.244C0.207,-0.209 0.217,-0.181 0.233,-0.159C0.249,-0.136 0.271,-0.125 0.301,-0.125Z" style="fill:rgb(211,211,211);fill-rule:nonzero;"/>
        </g>
        <g transform="matrix(41.4371,0,0,41.4371,619.57,218.707)">
            <path d="M0.213,-0L0.051,-0L0.051,-0.725L0.25,-0.725L0.373,-0.374L0.388,-0.325L0.388,-0.725L0.55,-0.725L0.55,-0L0.366,-0L0.213,-0.394L0.213,-0Z" style="fill:rgb(211,211,211);fill-rule:nonzero;"/>
        </g>
        <g transform="matrix(41.4371,0,0,41.4371,673.106,218.707)">
            <path d="M0.388,-0L0.214,-0L0.214,-0.573L0.038,-0.573L0.038,-0.725L0.562,-0.725L0.562,-0.573L0.388,-0.573L0.388,-0Z" style="fill:rgb(211,211,211);fill-rule:nonzero;"/>
        </g>
        <g transform="matrix(41.4371,0,0,41.4371,699.875,218.707)">
            <path d="M0.3,0.017C0.207,0.017 0.139,-0.018 0.096,-0.087C0.053,-0.157 0.031,-0.252 0.031,-0.374C0.031,-0.449 0.042,-0.514 0.064,-0.568C0.086,-0.622 0.117,-0.664 0.158,-0.692C0.198,-0.721 0.246,-0.735 0.3,-0.735C0.355,-0.735 0.402,-0.721 0.443,-0.695C0.483,-0.668 0.515,-0.627 0.537,-0.574C0.559,-0.521 0.57,-0.456 0.57,-0.379C0.57,-0.255 0.548,-0.158 0.505,-0.088C0.462,-0.018 0.393,0.017 0.3,0.017ZM0.301,-0.125C0.331,-0.125 0.354,-0.136 0.369,-0.157C0.385,-0.179 0.395,-0.207 0.4,-0.241C0.405,-0.276 0.408,-0.318 0.408,-0.368C0.408,-0.438 0.401,-0.492 0.386,-0.532C0.371,-0.572 0.344,-0.592 0.304,-0.592C0.276,-0.592 0.253,-0.583 0.237,-0.566C0.221,-0.548 0.21,-0.522 0.204,-0.489C0.197,-0.456 0.194,-0.414 0.194,-0.363C0.194,-0.318 0.197,-0.278 0.202,-0.244C0.207,-0.209 0.217,-0.181 0.233,-0.159C0.249,-0.136 0.271,-0.125 0.301,-0.125Z" style="fill:rgb(211,211,211);fill-rule:nonzero;"/>
        </g>
        <g transform="matrix(42.7938,0,0,42.7938,325.118,264.344)">
            <path d="M0.31,0.018C0.247,0.018 0.194,0.001 0.151,-0.035C0.108,-0.07 0.077,-0.116 0.057,-0.173C0.036,-0.231 0.026,-0.294 0.026,-0.362C0.026,-0.431 0.037,-0.494 0.058,-0.55C0.08,-0.606 0.114,-0.651 0.162,-0.685C0.209,-0.718 0.269,-0.735 0.343,-0.735C0.391,-0.735 0.433,-0.726 0.469,-0.708C0.505,-0.689 0.541,-0.661 0.578,-0.622L0.491,-0.514C0.471,-0.537 0.45,-0.553 0.429,-0.564C0.408,-0.575 0.384,-0.58 0.356,-0.58C0.321,-0.58 0.291,-0.569 0.267,-0.548C0.243,-0.526 0.225,-0.498 0.213,-0.464C0.201,-0.43 0.195,-0.394 0.195,-0.357C0.195,-0.317 0.201,-0.28 0.213,-0.246C0.225,-0.211 0.243,-0.183 0.267,-0.162C0.291,-0.141 0.321,-0.13 0.356,-0.13C0.376,-0.13 0.398,-0.135 0.422,-0.147C0.447,-0.158 0.468,-0.173 0.485,-0.193L0.568,-0.092C0.545,-0.067 0.522,-0.047 0.499,-0.032C0.477,-0.016 0.45,-0.004 0.42,0.005C0.389,0.014 0.353,0.018 0.31,0.018Z" style="fill:rgb(211,211,211);fill-rule:nonzero;"/>
        </g>
        <g transform="matrix(42.7938,0,0,42.7938,352.762,264.344)">
            <path d="M0.3,0.017C0.207,0.017 0.139,-0.018 0.096,-0.087C0.053,-0.157 0.031,-0.252 0.031,-0.374C0.031,-0.449 0.042,-0.514 0.064,-0.568C0.086,-0.622 0.117,-0.664 0.158,-0.692C0.198,-0.721 0.246,-0.735 0.3,-0.735C0.355,-0.735 0.402,-0.721 0.443,-0.695C0.483,-0.668 0.515,-0.627 0.537,-0.574C0.559,-0.521 0.57,-0.456 0.57,-0.379C0.57,-0.255 0.548,-0.158 0.505,-0.088C0.462,-0.018 0.393,0.017 0.3,0.017ZM0.301,-0.125C0.331,-0.125 0.354,-0.136 0.369,-0.157C0.385,-0.179 0.395,-0.207 0.4,-0.241C0.405,-0.276 0.408,-0.318 0.408,-0.368C0.408,-0.438 0.401,-0.492 0.386,-0.532C0.371,-0.572 0.344,-0.592 0.304,-0.592C0.276,-0.592 0.253,-0.583 0.237,-0.566C0.221,-0.548 0.21,-0.522 0.204,-0.489C0.197,-0.456 0.194,-0.414 0.194,-0.363C0.194,-0.318 0.197,-0.278 0.202,-0.244C0.207,-0.209 0.217,-0.181 0.233,-0.159C0.249,-0.136 0.271,-0.125 0.301,-0.125Z" style="fill:rgb(211,211,211);fill-rule:nonzero;"/>
        </g>
        <g transform="matrix(42.7938,0,0,42.7938,380.407,264.344)">
            <path d="M0.299,-0.454L0.383,-0.725L0.546,-0.725L0.546,-0L0.386,-0L0.386,-0.329L0.382,-0.366L0.374,-0.359L0.334,-0.193L0.266,-0.193L0.227,-0.359L0.217,-0.366L0.212,-0.329L0.212,-0L0.053,-0L0.053,-0.725L0.216,-0.725L0.299,-0.454Z" style="fill:rgb(211,211,211);fill-rule:nonzero;"/>
        </g>
        <g transform="matrix(42.7938,0,0,42.7938,408.052,264.344)">
            <path d="M0.05,-0L0.05,-0.725L0.311,-0.725C0.386,-0.725 0.446,-0.709 0.49,-0.678C0.535,-0.646 0.557,-0.592 0.557,-0.515C0.557,-0.463 0.546,-0.42 0.524,-0.386C0.502,-0.352 0.472,-0.328 0.436,-0.312C0.399,-0.296 0.359,-0.288 0.315,-0.288L0.222,-0.288L0.222,-0L0.05,-0ZM0.274,-0.428C0.299,-0.428 0.319,-0.429 0.332,-0.432C0.346,-0.434 0.357,-0.442 0.366,-0.455C0.375,-0.467 0.38,-0.487 0.38,-0.515C0.38,-0.545 0.372,-0.566 0.357,-0.577C0.341,-0.588 0.321,-0.594 0.296,-0.594L0.222,-0.594L0.222,-0.428L0.274,-0.428Z" style="fill:rgb(211,211,211);fill-rule:nonzero;"/>
        </g>
        <g transform="matrix(42.7938,0,0,42.7938,435.697,264.344)">
            <path d="M0.3,0.013C0.237,0.013 0.187,0.001 0.151,-0.022C0.114,-0.045 0.089,-0.079 0.074,-0.124C0.059,-0.168 0.052,-0.224 0.052,-0.293L0.052,-0.725L0.222,-0.725L0.222,-0.303C0.222,-0.26 0.224,-0.226 0.229,-0.202C0.233,-0.178 0.241,-0.16 0.252,-0.148C0.264,-0.137 0.28,-0.131 0.302,-0.131C0.323,-0.131 0.339,-0.137 0.351,-0.148C0.362,-0.16 0.369,-0.178 0.373,-0.202C0.377,-0.226 0.379,-0.26 0.379,-0.303L0.379,-0.725L0.549,-0.725L0.549,-0.293C0.549,-0.224 0.542,-0.168 0.527,-0.124C0.512,-0.079 0.486,-0.045 0.45,-0.022C0.413,0.001 0.363,0.013 0.3,0.013Z" style="fill:rgb(211,211,211);fill-rule:nonzero;"/>
        </g>
        <g transform="matrix(42.7938,0,0,42.7938,463.342,264.344)">
            <path d="M0.388,-0L0.214,-0L0.214,-0.573L0.038,-0.573L0.038,-0.725L0.562,-0.725L0.562,-0.573L0.388,-0.573L0.388,-0Z" style="fill:rgb(211,211,211);fill-rule:nonzero;"/>
        </g>
        <g transform="matrix(42.7938,0,0,42.7938,490.986,264.344)">
            <path d="M0.184,-0L0.037,-0L0.176,-0.725L0.427,-0.725L0.563,-0L0.412,-0L0.383,-0.141L0.21,-0.141L0.184,-0ZM0.283,-0.57L0.233,-0.277L0.361,-0.277L0.309,-0.57L0.283,-0.57Z" style="fill:rgb(211,211,211);fill-rule:nonzero;"/>
        </g>
        <g transform="matrix(42.7938,0,0,42.7938,518.631,264.344)">
            <path d="M0.388,-0L0.214,-0L0.214,-0.573L0.038,-0.573L0.038,-0.725L0.562,-0.725L0.562,-0.573L0.388,-0.573L0.388,-0Z" style="fill:rgb(211,211,211);fill-rule:nonzero;"/>
        </g>
        <g transform="matrix(42.7938,0,0,42.7938,546.276,264.344)">
            <path d="M0.476,-0L0.122,-0L0.122,-0.136L0.217,-0.136L0.217,-0.588L0.123,-0.588L0.123,-0.725L0.476,-0.725L0.476,-0.588L0.384,-0.588L0.384,-0.136L0.476,-0.136L0.476,-0Z" style="fill:rgb(211,211,211);fill-rule:nonzero;"/>
        </g>
        <g transform="matrix(42.7938,0,0,42.7938,573.921,264.344)">
            <path d="M0.3,0.017C0.207,0.017 0.139,-0.018 0.096,-0.087C0.053,-0.157 0.031,-0.252 0.031,-0.374C0.031,-0.449 0.042,-0.514 0.064,-0.568C0.086,-0.622 0.117,-0.664 0.158,-0.692C0.198,-0.721 0.246,-0.735 0.3,-0.735C0.355,-0.735 0.402,-0.721 0.443,-0.695C0.483,-0.668 0.515,-0.627 0.537,-0.574C0.559,-0.521 0.57,-0.456 0.57,-0.379C0.57,-0.255 0.548,-0.158 0.505,-0.088C0.462,-0.018 0.393,0.017 0.3,0.017ZM0.301,-0.125C0.331,-0.125 0.354,-0.136 0.369,-0.157C0.385,-0.179 0.395,-0.207 0.4,-0.241C0.405,-0.276 0.408,-0.318 0.408,-0.368C0.408,-0.438 0.401,-0.492 0.386,-0.532C0.371,-0.572 0.344,-0.592 0.304,-0.592C0.276,-0.592 0.253,-0.583 0.237,-0.566C0.221,-0.548 0.21,-0.522 0.204,-0.489C0.197,-0.456 0.194,-0.414 0.194,-0.363C0.194,-0.318 0.197,-0.278 0.202,-0.244C0.207,-0.209 0.217,-0.181 0.233,-0.159C0.249,-0.136 0.271,-0.125 0.301,-0.125Z" style="fill:rgb(211,211,211);fill-rule:nonzero;"/>
        </g>
        <g transform="matrix(42.7938,0,0,42.7938,601.566,264.344)">
            <path d="M0.213,-0L0.051,-0L0.051,-0.725L0.25,-0.725L0.373,-0.374L0.388,-0.325L0.388,-0.725L0.55,-0.725L0.55,-0L0.366,-0L0.213,-0.394L0.213,-0Z" style="fill:rgb(211,211,211);fill-rule:nonzero;"/>
        </g>
        <g transform="matrix(42.7938,0,0,42.7938,629.211,264.344)">
            <path d="M0.184,-0L0.037,-0L0.176,-0.725L0.427,-0.725L0.563,-0L0.412,-0L0.383,-0.141L0.21,-0.141L0.184,-0ZM0.283,-0.57L0.233,-0.277L0.361,-0.277L0.309,-0.57L0.283,-0.57Z" style="fill:rgb(211,211,211);fill-rule:nonzero;"/>
        </g>
        <g transform="matrix(42.7938,0,0,42.7938,656.855,264.344)">
            <path d="M0.546,-0L0.057,-0L0.057,-0.725L0.228,-0.725L0.228,-0.148L0.546,-0.148L0.546,-0Z" style="fill:rgb(211,211,211);fill-rule:nonzero;"/>
        </g>
        <g transform="matrix(41.4371,0,0,41.4371,325.118,309.982)">
            <path d="M0.388,-0L0.214,-0L0.214,-0.573L0.038,-0.573L0.038,-0.725L0.562,-0.725L0.562,-0.573L0.388,-0.573L0.388,-0Z" style="fill:rgb(211,211,211);fill-rule:nonzero;"/>
        </g>
        <g transform="matrix(41.4371,0,0,41.4371,351.886,309.982)">
            <path d="M0.221,-0L0.054,-0L0.054,-0.725L0.221,-0.725L0.221,-0.453L0.379,-0.453L0.379,-0.725L0.547,-0.725L0.547,-0L0.379,-0L0.379,-0.306L0.221,-0.306L0.221,-0Z" style="fill:rgb(211,211,211);fill-rule:nonzero;"/>
        </g>
        <g transform="matrix(41.4371,0,0,41.4371,378.654,309.982)">
            <path d="M0.476,-0L0.122,-0L0.122,-0.136L0.217,-0.136L0.217,-0.588L0.123,-0.588L0.123,-0.725L0.476,-0.725L0.476,-0.588L0.384,-0.588L0.384,-0.136L0.476,-0.136L0.476,-0Z" style="fill:rgb(211,211,211);fill-rule:nonzero;"/>
        </g>
        <g transform="matrix(41.4371,0,0,41.4371,405.423,309.982)">
            <path d="M0.213,-0L0.051,-0L0.051,-0.725L0.25,-0.725L0.373,-0.374L0.388,-0.325L0.388,-0.725L0.55,-0.725L0.55,-0L0.366,-0L0.213,-0.394L0.213,-0Z" style="fill:rgb(211,211,211);fill-rule:nonzero;"/>
        </g>
        <g transform="matrix(41.4371,0,0,41.4371,432.191,309.982)">
            <path d="M0.392,-0.399L0.587,-0L0.397,-0L0.24,-0.333L0.24,-0L0.075,-0L0.075,-0.725L0.24,-0.725L0.24,-0.454L0.395,-0.725L0.569,-0.725L0.392,-0.399Z" style="fill:rgb(211,211,211);fill-rule:nonzero;"/>
        </g>
        <g transform="matrix(41.4371,0,0,41.4371,458.959,309.982)">
            <path d="M0.476,-0L0.122,-0L0.122,-0.136L0.217,-0.136L0.217,-0.588L0.123,-0.588L0.123,-0.725L0.476,-0.725L0.476,-0.588L0.384,-0.588L0.384,-0.136L0.476,-0.136L0.476,-0Z" style="fill:rgb(211,211,211);fill-rule:nonzero;"/>
        </g>
        <g transform="matrix(41.4371,0,0,41.4371,485.728,309.982)">
            <path d="M0.213,-0L0.051,-0L0.051,-0.725L0.25,-0.725L0.373,-0.374L0.388,-0.325L0.388,-0.725L0.55,-0.725L0.55,-0L0.366,-0L0.213,-0.394L0.213,-0Z" style="fill:rgb(211,211,211);fill-rule:nonzero;"/>
        </g>
        <g transform="matrix(41.4371,0,0,41.4371,512.496,309.982)">
            <path d="M0.297,0.014C0.247,0.014 0.203,-0.001 0.164,-0.03C0.125,-0.059 0.094,-0.102 0.072,-0.157C0.05,-0.213 0.039,-0.278 0.039,-0.354C0.039,-0.432 0.05,-0.5 0.071,-0.557C0.092,-0.614 0.123,-0.658 0.165,-0.689C0.207,-0.72 0.259,-0.735 0.32,-0.735C0.353,-0.735 0.384,-0.729 0.413,-0.716C0.442,-0.704 0.467,-0.688 0.488,-0.668C0.509,-0.648 0.525,-0.626 0.537,-0.603L0.434,-0.514C0.417,-0.54 0.399,-0.558 0.38,-0.568C0.36,-0.577 0.339,-0.582 0.317,-0.582C0.275,-0.582 0.245,-0.561 0.229,-0.52C0.213,-0.478 0.205,-0.422 0.205,-0.352C0.205,-0.286 0.214,-0.231 0.232,-0.188C0.25,-0.144 0.278,-0.122 0.316,-0.122C0.337,-0.122 0.356,-0.128 0.373,-0.139C0.39,-0.15 0.403,-0.167 0.413,-0.189C0.422,-0.211 0.427,-0.237 0.427,-0.267L0.311,-0.267L0.311,-0.395L0.556,-0.395L0.556,-0L0.434,-0L0.434,-0.04L0.428,-0.04C0.419,-0.021 0.401,-0.007 0.376,0.002C0.351,0.01 0.325,0.014 0.297,0.014Z" style="fill:rgb(211,211,211);fill-rule:nonzero;"/>
        </g>
    </g>
    <g transform="matrix(0.737627,0,0,0.737627,591.568,240.225)">
        <g transform="matrix(1,0,0,1,-160,-100)">
            <g id="surface1">
                <path d="M67.871,164.313C67.871,171.848 67.023,177.934 65.328,182.566C63.633,187.203 61.223,190.801 58.094,193.363C54.969,195.926 51.219,197.641 46.848,198.508C42.477,199.371 37.613,199.805 32.266,199.805C25.027,199.805 19.488,198.676 15.648,196.414C11.805,194.152 9.883,191.441 9.883,188.273C9.883,185.637 10.953,183.414 13.102,181.605C15.25,179.797 18.133,178.895 21.75,178.895C24.465,178.895 26.633,179.629 28.25,181.098C29.871,182.566 31.211,184.02 32.266,185.449C33.469,187.031 34.488,188.086 35.316,188.613C36.145,189.141 36.898,189.406 37.578,189.406C39.008,189.406 40.102,188.559 40.855,186.863C41.609,185.168 41.984,181.871 41.984,176.973L41.984,84.051L67.871,76.93L67.871,164.313M104.738,79.414L104.738,139.215C104.738,140.875 105.059,142.438 105.699,143.906C106.34,145.375 107.227,146.641 108.355,147.695C109.488,148.75 110.805,149.598 112.313,150.238C113.82,150.879 115.441,151.199 117.176,151.199C119.133,151.199 121.359,150.102 124.07,148.203C128.363,145.195 130.965,143.129 130.965,140.684L130.965,79.414L156.738,79.414L156.738,164.313L130.965,164.313L130.965,156.398C127.574,159.262 123.957,161.559 120.113,163.293C116.27,165.027 112.539,165.895 108.922,165.895C104.703,165.895 100.781,165.195 97.164,163.801C93.547,162.406 90.383,160.504 87.672,158.094C84.957,155.684 82.828,152.855 81.281,149.613C79.738,146.375 78.965,142.906 78.965,139.215L78.965,79.414L104.738,79.414M192.883,164.313L167.223,164.313L167.223,45.277L192.883,38.156L192.883,164.313M203.602,84.051L229.375,76.93L229.375,164.313L203.602,164.313L203.602,84.051M283.227,120.449C280.738,121.508 278.23,122.73 275.707,124.125C273.184,125.52 270.883,127.047 268.813,128.703C266.738,130.359 265.063,132.133 263.781,134.016C262.5,135.898 261.859,137.859 261.859,139.895C261.859,141.477 262.066,143.004 262.48,144.473C262.895,145.941 263.48,147.203 264.234,148.258C264.988,149.313 265.816,150.16 266.723,150.801C267.625,151.441 268.605,151.762 269.66,151.762C271.77,151.762 273.898,151.121 276.047,149.84C278.195,148.559 280.586,146.941 283.227,144.98L283.227,120.449M309.109,164.313L283.227,164.313L283.227,157.527C281.793,158.734 280.398,159.848 279.043,160.863C277.688,161.879 276.16,162.766 274.465,163.52C272.77,164.273 270.867,164.855 268.754,165.273C266.645,165.688 264.156,165.895 261.297,165.895C257.375,165.895 253.852,165.328 250.727,164.199C247.598,163.066 244.941,161.523 242.758,159.563C240.57,157.605 238.895,155.285 237.727,152.609C236.559,149.938 235.973,147.016 235.973,143.852C235.973,140.609 236.594,137.672 237.84,135.031C239.082,132.395 240.777,130.023 242.926,127.91C245.074,125.801 247.578,123.918 250.441,122.258C253.305,120.602 256.379,119.074 259.656,117.68C262.934,116.285 266.344,115.008 269.887,113.84C273.426,112.672 276.934,111.559 280.398,110.504L283.227,109.824L283.227,101.461C283.227,96.035 282.188,92.191 280.117,89.93C278.043,87.668 275.273,86.539 271.809,86.539C267.738,86.539 264.91,87.52 263.328,89.477C261.746,91.438 260.953,93.809 260.953,96.598C260.953,98.18 260.785,99.727 260.445,101.234C260.109,102.742 259.523,104.059 258.695,105.191C257.867,106.32 256.68,107.227 255.133,107.902C253.59,108.582 251.648,108.922 249.313,108.922C245.695,108.922 242.758,107.883 240.496,105.813C238.234,103.738 237.105,101.121 237.105,97.953C237.105,95.016 238.102,92.285 240.098,89.762C242.098,87.234 244.789,85.066 248.184,83.262C251.574,81.449 255.492,80.02 259.938,78.965C264.383,77.91 269.094,77.383 274.066,77.383C280.172,77.383 285.43,77.93 289.84,79.02C294.246,80.113 297.883,81.676 300.746,83.711C303.609,85.746 305.719,88.195 307.074,91.059C308.434,93.922 309.109,97.129 309.109,100.668L309.109,164.313" style="fill:rgb(254,254,254);fill-rule:nonzero;"/>
                <path d="M235.273,55.09C235.273,64.758 227.438,72.59 217.773,72.59C208.105,72.59 200.273,64.758 200.273,55.09C200.273,45.426 208.105,37.59 217.773,37.59C227.438,37.59 235.273,45.426 235.273,55.09" style="fill:rgb(202,59,51);fill-rule:nonzero;"/>
                <path d="M72.953,55.09C72.953,64.758 65.117,72.59 55.453,72.59C45.789,72.59 37.953,64.758 37.953,55.09C37.953,45.426 45.789,37.59 55.453,37.59C65.117,37.59 72.953,45.426 72.953,55.09" style="fill:rgb(64,98,215);fill-rule:nonzero;"/>
                <path d="M277.32,55.09C277.32,64.758 269.484,72.59 259.82,72.59C250.156,72.59 242.32,64.758 242.32,55.09C242.32,45.426 250.156,37.59 259.82,37.59C269.484,37.59 277.32,45.426 277.32,55.09" style="fill:rgb(148,87,177);fill-rule:nonzero;"/>
                <path d="M256.301,18.672C256.301,28.336 248.465,36.172 238.801,36.172C229.133,36.172 221.301,28.336 221.301,18.672C221.301,9.008 229.133,1.172 238.801,1.172C248.465,1.172 256.301,9.008 256.301,18.672" style="fill:rgb(56,151,37);fill-rule:nonzero;"/>
            </g>
        </g>
    </g>
</svg>
