<?xml version="1.0" encoding="UTF-8"?>
<svg xmlns="http://www.w3.org/2000/svg" xmlns:xlink="http://www.w3.org/1999/xlink" width="2000" height="2000" viewBox="0 0 2000 2000">
<defs>
<radialGradient id="radial-pattern-0" gradientUnits="userSpaceOnUse" cx="10" cy="10" fx="0" fy="0" r="50" spreadMethod="reflect" gradientTransform="matrix(3.333333, 0, 0, 3.333333, 1000, 1000)">
<stop offset="0" stop-color="rgb(75.8%, 56.6%, 19.4%)" stop-opacity="1"/>
<stop offset="1" stop-color="rgb(99.25%, 94.8%, 59.85%)" stop-opacity="1"/>
</radialGradient>
<radialGradient id="radial-pattern-1" gradientUnits="userSpaceOnUse" cx="10" cy="10" fx="0" fy="0" r="50" spreadMethod="reflect" gradientTransform="matrix(3.333333, 0, 0, 3.333333, 1000, 1000)">
<stop offset="0" stop-color="rgb(75.8%, 56.6%, 19.4%)" stop-opacity="1"/>
<stop offset="1" stop-color="rgb(99.25%, 94.8%, 59.85%)" stop-opacity="1"/>
</radialGradient>
<radialGradient id="radial-pattern-2" gradientUnits="userSpaceOnUse" cx="10" cy="10" fx="0" fy="0" r="50" spreadMethod="reflect" gradientTransform="matrix(3.333333, 0, 0, 3.333333, 1000, 1000)">
<stop offset="0" stop-color="rgb(75.8%, 56.6%, 19.4%)" stop-opacity="1"/>
<stop offset="1" stop-color="rgb(99.25%, 94.8%, 59.85%)" stop-opacity="1"/>
</radialGradient>
<radialGradient id="radial-pattern-3" gradientUnits="userSpaceOnUse" cx="10" cy="10" fx="0" fy="0" r="50" spreadMethod="reflect" gradientTransform="matrix(3.333333, 0, 0, 3.333333, 1000, 1000)">
<stop offset="0" stop-color="rgb(75.8%, 56.6%, 19.4%)" stop-opacity="1"/>
<stop offset="1" stop-color="rgb(99.25%, 94.8%, 59.85%)" stop-opacity="1"/>
</radialGradient>
<radialGradient id="radial-pattern-4" gradientUnits="userSpaceOnUse" cx="10" cy="10" fx="0" fy="0" r="50" spreadMethod="reflect" gradientTransform="matrix(3.333333, 0, 0, 3.333333, 1000, 1000)">
<stop offset="0" stop-color="rgb(75.8%, 56.6%, 19.4%)" stop-opacity="1"/>
<stop offset="1" stop-color="rgb(99.25%, 94.8%, 59.85%)" stop-opacity="1"/>
</radialGradient>
<radialGradient id="radial-pattern-5" gradientUnits="userSpaceOnUse" cx="10" cy="10" fx="0" fy="0" r="50" spreadMethod="reflect" gradientTransform="matrix(3.333333, 0, 0, 3.333333, 1000, 1000)">
<stop offset="0" stop-color="rgb(75.8%, 56.6%, 19.4%)" stop-opacity="1"/>
<stop offset="1" stop-color="rgb(99.25%, 94.8%, 59.85%)" stop-opacity="1"/>
</radialGradient>
<radialGradient id="radial-pattern-6" gradientUnits="userSpaceOnUse" cx="10" cy="10" fx="0" fy="0" r="50" spreadMethod="reflect" gradientTransform="matrix(3.333333, 0, 0, 3.333333, 1000, 1000)">
<stop offset="0" stop-color="rgb(75.8%, 56.6%, 19.4%)" stop-opacity="1"/>
<stop offset="1" stop-color="rgb(99.25%, 94.8%, 59.85%)" stop-opacity="1"/>
</radialGradient>
<radialGradient id="radial-pattern-7" gradientUnits="userSpaceOnUse" cx="10" cy="10" fx="0" fy="0" r="50" spreadMethod="reflect" gradientTransform="matrix(3.333333, 0, 0, 3.333333, 1000, 1000)">
<stop offset="0" stop-color="rgb(75.8%, 56.6%, 19.4%)" stop-opacity="1"/>
<stop offset="1" stop-color="rgb(99.25%, 94.8%, 59.85%)" stop-opacity="1"/>
</radialGradient>
<radialGradient id="radial-pattern-8" gradientUnits="userSpaceOnUse" cx="10" cy="10" fx="0" fy="0" r="50" spreadMethod="reflect" gradientTransform="matrix(3.333333, 0, 0, 3.333333, 1000, 1000)">
<stop offset="0" stop-color="rgb(75.8%, 56.6%, 19.4%)" stop-opacity="1"/>
<stop offset="1" stop-color="rgb(99.25%, 94.8%, 59.85%)" stop-opacity="1"/>
</radialGradient>
<radialGradient id="radial-pattern-9" gradientUnits="userSpaceOnUse" cx="10" cy="10" fx="0" fy="0" r="50" spreadMethod="reflect" gradientTransform="matrix(3.333333, 0, 0, 3.333333, 1000, 1000)">
<stop offset="0" stop-color="rgb(75.8%, 56.6%, 19.4%)" stop-opacity="1"/>
<stop offset="1" stop-color="rgb(99.25%, 94.8%, 59.85%)" stop-opacity="1"/>
</radialGradient>
<radialGradient id="radial-pattern-10" gradientUnits="userSpaceOnUse" cx="10" cy="10" fx="0" fy="0" r="50" spreadMethod="reflect" gradientTransform="matrix(3.333333, 0, 0, 3.333333, 1000, 1000)">
<stop offset="0" stop-color="rgb(75.8%, 56.6%, 19.4%)" stop-opacity="1"/>
<stop offset="1" stop-color="rgb(99.25%, 94.8%, 59.85%)" stop-opacity="1"/>
</radialGradient>
<radialGradient id="radial-pattern-11" gradientUnits="userSpaceOnUse" cx="10" cy="10" fx="0" fy="0" r="50" spreadMethod="reflect" gradientTransform="matrix(3.333333, 0, 0, 3.333333, 1000, 1000)">
<stop offset="0" stop-color="rgb(75.8%, 56.6%, 19.4%)" stop-opacity="1"/>
<stop offset="1" stop-color="rgb(99.25%, 94.8%, 59.85%)" stop-opacity="1"/>
</radialGradient>
<radialGradient id="radial-pattern-12" gradientUnits="userSpaceOnUse" cx="10" cy="10" fx="0" fy="0" r="50" spreadMethod="reflect" gradientTransform="matrix(3.333333, 0, 0, 3.333333, 1000, 1000)">
<stop offset="0" stop-color="rgb(75.8%, 56.6%, 19.4%)" stop-opacity="1"/>
<stop offset="1" stop-color="rgb(99.25%, 94.8%, 59.85%)" stop-opacity="1"/>
</radialGradient>
<radialGradient id="radial-pattern-13" gradientUnits="userSpaceOnUse" cx="10" cy="10" fx="0" fy="0" r="50" spreadMethod="reflect" gradientTransform="matrix(3.333333, 0, 0, 3.333333, 1000, 1000)">
<stop offset="0" stop-color="rgb(75.8%, 56.6%, 19.4%)" stop-opacity="1"/>
<stop offset="1" stop-color="rgb(99.25%, 94.8%, 59.85%)" stop-opacity="1"/>
</radialGradient>
<radialGradient id="radial-pattern-14" gradientUnits="userSpaceOnUse" cx="10" cy="10" fx="0" fy="0" r="50" spreadMethod="reflect" gradientTransform="matrix(3.333333, 0, 0, 3.333333, 1000, 1000)">
<stop offset="0" stop-color="rgb(75.8%, 56.6%, 19.4%)" stop-opacity="1"/>
<stop offset="1" stop-color="rgb(99.25%, 94.8%, 59.85%)" stop-opacity="1"/>
</radialGradient>
<radialGradient id="radial-pattern-15" gradientUnits="userSpaceOnUse" cx="10" cy="10" fx="0" fy="0" r="50" spreadMethod="reflect" gradientTransform="matrix(3.333333, 0, 0, 3.333333, 1000, 1000)">
<stop offset="0" stop-color="rgb(75.8%, 56.6%, 19.4%)" stop-opacity="1"/>
<stop offset="1" stop-color="rgb(99.25%, 94.8%, 59.85%)" stop-opacity="1"/>
</radialGradient>
<radialGradient id="radial-pattern-16" gradientUnits="userSpaceOnUse" cx="10" cy="10" fx="0" fy="0" r="50" spreadMethod="reflect" gradientTransform="matrix(3.333333, 0, 0, 3.333333, 1000, 1000)">
<stop offset="0" stop-color="rgb(75.8%, 56.6%, 19.4%)" stop-opacity="1"/>
<stop offset="1" stop-color="rgb(99.25%, 94.8%, 59.85%)" stop-opacity="1"/>
</radialGradient>
<radialGradient id="radial-pattern-17" gradientUnits="userSpaceOnUse" cx="10" cy="10" fx="0" fy="0" r="50" spreadMethod="reflect" gradientTransform="matrix(3.333333, 0, 0, 3.333333, 1000, 1000)">
<stop offset="0" stop-color="rgb(75.8%, 56.6%, 19.4%)" stop-opacity="1"/>
<stop offset="1" stop-color="rgb(99.25%, 94.8%, 59.85%)" stop-opacity="1"/>
</radialGradient>
<radialGradient id="radial-pattern-18" gradientUnits="userSpaceOnUse" cx="10" cy="10" fx="0" fy="0" r="50" spreadMethod="reflect" gradientTransform="matrix(3.333333, 0, 0, 3.333333, 1000, 1000)">
<stop offset="0" stop-color="rgb(75.8%, 56.6%, 19.4%)" stop-opacity="1"/>
<stop offset="1" stop-color="rgb(99.25%, 94.8%, 59.85%)" stop-opacity="1"/>
</radialGradient>
<radialGradient id="radial-pattern-19" gradientUnits="userSpaceOnUse" cx="10" cy="10" fx="0" fy="0" r="50" spreadMethod="reflect" gradientTransform="matrix(3.333333, 0, 0, 3.333333, 1000, 1000)">
<stop offset="0" stop-color="rgb(75.8%, 56.6%, 19.4%)" stop-opacity="1"/>
<stop offset="1" stop-color="rgb(99.25%, 94.8%, 59.85%)" stop-opacity="1"/>
</radialGradient>
<radialGradient id="radial-pattern-20" gradientUnits="userSpaceOnUse" cx="10" cy="10" fx="0" fy="0" r="50" spreadMethod="reflect" gradientTransform="matrix(3.333333, 0, 0, 3.333333, 1000, 1000)">
<stop offset="0" stop-color="rgb(75.8%, 56.6%, 19.4%)" stop-opacity="1"/>
<stop offset="1" stop-color="rgb(99.25%, 94.8%, 59.85%)" stop-opacity="1"/>
</radialGradient>
<radialGradient id="radial-pattern-21" gradientUnits="userSpaceOnUse" cx="10" cy="10" fx="0" fy="0" r="50" spreadMethod="reflect" gradientTransform="matrix(3.333333, 0, 0, 3.333333, 1000, 1000)">
<stop offset="0" stop-color="rgb(75.8%, 56.6%, 19.4%)" stop-opacity="1"/>
<stop offset="1" stop-color="rgb(99.25%, 94.8%, 59.85%)" stop-opacity="1"/>
</radialGradient>
<radialGradient id="radial-pattern-22" gradientUnits="userSpaceOnUse" cx="10" cy="10" fx="0" fy="0" r="50" spreadMethod="reflect" gradientTransform="matrix(3.333333, 0, 0, 3.333333, 1000, 1000)">
<stop offset="0" stop-color="rgb(75.8%, 56.6%, 19.4%)" stop-opacity="1"/>
<stop offset="1" stop-color="rgb(99.25%, 94.8%, 59.85%)" stop-opacity="1"/>
</radialGradient>
<radialGradient id="radial-pattern-23" gradientUnits="userSpaceOnUse" cx="10" cy="10" fx="0" fy="0" r="50" spreadMethod="reflect" gradientTransform="matrix(3.333333, 0, 0, 3.333333, 1000, 1000)">
<stop offset="0" stop-color="rgb(75.8%, 56.6%, 19.4%)" stop-opacity="1"/>
<stop offset="1" stop-color="rgb(99.25%, 94.8%, 59.85%)" stop-opacity="1"/>
</radialGradient>
</defs>
<path fill-rule="nonzero" fill="rgb(0%, 0%, 0%)" fill-opacity="1" d="M 66.667969 1000 C 66.667969 206.667969 206.667969 66.667969 1000 66.667969 C 1793.332031 66.667969 1933.332031 206.667969 1933.332031 1000 C 1933.332031 1793.332031 1793.332031 1933.332031 1000 1933.332031 C 206.667969 1933.332031 66.667969 1793.332031 66.667969 1000 Z M 66.667969 1000 "/>
<path fill-rule="nonzero" fill="rgb(62.6%, 46.3%, 11.3%)" fill-opacity="0.5" d="M 33.332031 1000 C 33.332031 178.332031 178.332031 33.332031 1000 33.332031 C 1821.667969 33.332031 1966.667969 178.332031 1966.667969 1000 C 1966.667969 1821.667969 1821.667969 1966.667969 1000 1966.667969 C 178.332031 1966.667969 33.332031 1821.667969 33.332031 1000 Z M 1866.667969 1000 C 1866.667969 263.332031 1736.667969 133.332031 1000 133.332031 C 263.332031 133.332031 133.332031 263.332031 133.332031 1000 C 133.332031 1736.667969 263.332031 1866.667969 1000 1866.667969 C 1736.667969 1866.667969 1866.667969 1736.667969 1866.667969 1000 Z M 1866.667969 1000 "/>
<path fill-rule="nonzero" fill="rgb(65.4%, 56%, 24.9%)" fill-opacity="0.5" d="M 36.667969 1000 C 36.667969 181.167969 181.167969 36.667969 1000 36.667969 C 1818.832031 36.667969 1963.332031 181.167969 1963.332031 1000 C 1963.332031 1818.832031 1818.832031 1963.332031 1000 1963.332031 C 181.167969 1963.332031 36.667969 1818.832031 36.667969 1000 Z M 1870 1000 C 1870 260.5 1739.5 130 1000 130 C 260.5 130 130 260.5 130 1000 C 130 1739.5 260.5 1870 1000 1870 C 1739.5 1870 1870 1739.5 1870 1000 Z M 1870 1000 "/>
<path fill-rule="nonzero" fill="rgb(71.6%, 61.3%, 28.5%)" fill-opacity="0.5" d="M 40 1000 C 40 184 184 40 1000 40 C 1816 40 1960 184 1960 1000 C 1960 1816 1816 1960 1000 1960 C 184 1960 40 1816 40 1000 Z M 1873.332031 1000 C 1873.332031 257.667969 1742.332031 126.667969 1000 126.667969 C 257.667969 126.667969 126.667969 257.667969 126.667969 1000 C 126.667969 1742.332031 257.667969 1873.332031 1000 1873.332031 C 1742.332031 1873.332031 1873.332031 1742.332031 1873.332031 1000 Z M 1873.332031 1000 "/>
<path fill-rule="nonzero" fill="rgb(72.7%, 55.3%, 15.8%)" fill-opacity="0.5" d="M 43.332031 1000 C 43.332031 186.832031 186.832031 43.332031 1000 43.332031 C 1813.167969 43.332031 1956.667969 186.832031 1956.667969 1000 C 1956.667969 1813.167969 1813.167969 1956.667969 1000 1956.667969 C 186.832031 1956.667969 43.332031 1813.167969 43.332031 1000 Z M 1876.667969 1000 C 1876.667969 254.832031 1745.167969 123.332031 1000 123.332031 C 254.832031 123.332031 123.332031 254.832031 123.332031 1000 C 123.332031 1745.167969 254.832031 1876.667969 1000 1876.667969 C 1745.167969 1876.667969 1876.667969 1745.167969 1876.667969 1000 Z M 1876.667969 1000 "/>
<path fill-rule="nonzero" fill="rgb(76.7%, 66.4%, 33.3%)" fill-opacity="0.5" d="M 46.667969 1000 C 46.667969 189.667969 189.667969 46.667969 1000 46.667969 C 1810.332031 46.667969 1953.332031 189.667969 1953.332031 1000 C 1953.332031 1810.332031 1810.332031 1953.332031 1000 1953.332031 C 189.667969 1953.332031 46.667969 1810.332031 46.667969 1000 Z M 1880 1000 C 1880 252 1748 120 1000 120 C 252 120 120 252 120 1000 C 120 1748 252 1880 1000 1880 C 1748 1880 1880 1748 1880 1000 Z M 1880 1000 "/>
<path fill-rule="nonzero" fill="rgb(80.9%, 71.2%, 39.1%)" fill-opacity="0.5" d="M 50 1000 C 50 192.5 192.5 50 1000 50 C 1807.5 50 1950 192.5 1950 1000 C 1950 1807.5 1807.5 1950 1000 1950 C 192.5 1950 50 1807.5 50 1000 Z M 1883.332031 1000 C 1883.332031 249.167969 1750.832031 116.667969 1000 116.667969 C 249.167969 116.667969 116.667969 249.167969 116.667969 1000 C 116.667969 1750.832031 249.167969 1883.332031 1000 1883.332031 C 1750.832031 1883.332031 1883.332031 1750.832031 1883.332031 1000 Z M 1883.332031 1000 "/>
<path fill-rule="nonzero" fill="rgb(84.8%, 66%, 19.1%)" fill-opacity="0.5" d="M 53.332031 1000 C 53.332031 195.332031 195.332031 53.332031 1000 53.332031 C 1804.667969 53.332031 1946.667969 195.332031 1946.667969 1000 C 1946.667969 1804.667969 1804.667969 1946.667969 1000 1946.667969 C 195.332031 1946.667969 53.332031 1804.667969 53.332031 1000 Z M 1886.667969 1000 C 1886.667969 246.332031 1753.667969 113.332031 1000 113.332031 C 246.332031 113.332031 113.332031 246.332031 113.332031 1000 C 113.332031 1753.667969 246.332031 1886.667969 1000 1886.667969 C 1753.667969 1886.667969 1886.667969 1753.667969 1886.667969 1000 Z M 1886.667969 1000 "/>
<path fill-rule="nonzero" fill="rgb(87.2%, 77.1%, 43.8%)" fill-opacity="0.5" d="M 56.667969 1000 C 56.667969 198.167969 198.167969 56.667969 1000 56.667969 C 1801.832031 56.667969 1943.332031 198.167969 1943.332031 1000 C 1943.332031 1801.832031 1801.832031 1943.332031 1000 1943.332031 C 198.167969 1943.332031 56.667969 1801.832031 56.667969 1000 Z M 1890 1000 C 1890 243.5 1756.5 110 1000 110 C 243.5 110 110 243.5 110 1000 C 110 1756.5 243.5 1890 1000 1890 C 1756.5 1890 1890 1756.5 1890 1000 Z M 1890 1000 "/>
<path fill-rule="nonzero" fill="rgb(90.7%, 77.8%, 30.6%)" fill-opacity="0.5" d="M 60 1000 C 60 201 201 60 1000 60 C 1799 60 1940 201 1940 1000 C 1940 1799 1799 1940 1000 1940 C 201 1940 60 1799 60 1000 Z M 1893.332031 1000 C 1893.332031 240.667969 1759.332031 106.667969 1000 106.667969 C 240.667969 106.667969 106.667969 240.667969 106.667969 1000 C 106.667969 1759.332031 240.667969 1893.332031 1000 1893.332031 C 1759.332031 1893.332031 1893.332031 1759.332031 1893.332031 1000 Z M 1893.332031 1000 "/>
<path fill-rule="nonzero" fill="rgb(92.5%, 75.9%, 30.8%)" fill-opacity="0.5" d="M 63.332031 1000 C 63.332031 203.832031 203.832031 63.332031 1000 63.332031 C 1796.167969 63.332031 1936.667969 203.832031 1936.667969 1000 C 1936.667969 1796.167969 1796.167969 1936.667969 1000 1936.667969 C 203.832031 1936.667969 63.332031 1796.167969 63.332031 1000 Z M 1896.667969 1000 C 1896.667969 237.832031 1762.167969 103.332031 1000 103.332031 C 237.832031 103.332031 103.332031 237.832031 103.332031 1000 C 103.332031 1762.167969 237.832031 1896.667969 1000 1896.667969 C 1762.167969 1896.667969 1896.667969 1762.167969 1896.667969 1000 Z M 1896.667969 1000 "/>
<path fill-rule="nonzero" fill="rgb(96.4%, 90.8%, 45.4%)" fill-opacity="0.5" d="M 66.667969 1000 C 66.667969 206.667969 206.667969 66.667969 1000 66.667969 C 1793.332031 66.667969 1933.332031 206.667969 1933.332031 1000 C 1933.332031 1793.332031 1793.332031 1933.332031 1000 1933.332031 C 206.667969 1933.332031 66.667969 1793.332031 66.667969 1000 Z M 1900 1000 C 1900 235 1765 100 1000 100 C 235 100 100 235 100 1000 C 100 1765 235 1900 1000 1900 C 1765 1900 1900 1765 1900 1000 Z M 1900 1000 "/>
<path fill-rule="nonzero" fill="rgb(98%, 89.2%, 54.3%)" fill-opacity="0.5" d="M 70 1000 C 70 209.5 209.5 70 1000 70 C 1790.5 70 1930 209.5 1930 1000 C 1930 1790.5 1790.5 1930 1000 1930 C 209.5 1930 70 1790.5 70 1000 Z M 1903.332031 1000 C 1903.332031 232.167969 1767.832031 96.667969 1000 96.667969 C 232.167969 96.667969 96.667969 232.167969 96.667969 1000 C 96.667969 1767.832031 232.167969 1903.332031 1000 1903.332031 C 1767.832031 1903.332031 1903.332031 1767.832031 1903.332031 1000 Z M 1903.332031 1000 "/>
<path fill-rule="nonzero" fill="rgb(99%, 98.3%, 73.4%)" fill-opacity="0.5" d="M 73.332031 1000 C 73.332031 212.332031 212.332031 73.332031 1000 73.332031 C 1787.667969 73.332031 1926.667969 212.332031 1926.667969 1000 C 1926.667969 1787.667969 1787.667969 1926.667969 1000 1926.667969 C 212.332031 1926.667969 73.332031 1787.667969 73.332031 1000 Z M 1906.667969 1000 C 1906.667969 229.332031 1770.667969 93.332031 1000 93.332031 C 229.332031 93.332031 93.332031 229.332031 93.332031 1000 C 93.332031 1770.667969 229.332031 1906.667969 1000 1906.667969 C 1770.667969 1906.667969 1906.667969 1770.667969 1906.667969 1000 Z M 1906.667969 1000 "/>
<path fill-rule="nonzero" fill="rgb(99.5%, 97.3%, 57.1%)" fill-opacity="0.5" d="M 76.667969 1000 C 76.667969 215.167969 215.167969 76.667969 1000 76.667969 C 1784.832031 76.667969 1923.332031 215.167969 1923.332031 1000 C 1923.332031 1784.832031 1784.832031 1923.332031 1000 1923.332031 C 215.167969 1923.332031 76.667969 1784.832031 76.667969 1000 Z M 1910 1000 C 1910 226.5 1773.5 90 1000 90 C 226.5 90 90 226.5 90 1000 C 90 1773.5 226.5 1910 1000 1910 C 1773.5 1910 1910 1773.5 1910 1000 Z M 1910 1000 "/>
<path fill-rule="nonzero" fill="rgb(99.6%, 99.1%, 65.5%)" fill-opacity="0.5" d="M 80 1000 C 80 218 218 80 1000 80 C 1782 80 1920 218 1920 1000 C 1920 1782 1782 1920 1000 1920 C 218 1920 80 1782 80 1000 Z M 1913.332031 1000 C 1913.332031 223.667969 1776.332031 86.667969 1000 86.667969 C 223.667969 86.667969 86.667969 223.667969 86.667969 1000 C 86.667969 1776.332031 223.667969 1913.332031 1000 1913.332031 C 1776.332031 1913.332031 1913.332031 1776.332031 1913.332031 1000 Z M 1913.332031 1000 "/>
<path fill-rule="nonzero" fill="url(#radial-pattern-0)" d="M 1393.167969 334.25 L 1398.195312 361.757812 L 1405.457031 388.3125 L 1414.988281 414.140625 L 1426.71875 439.042969 L 1440.550781 462.847656 L 1456.375 485.378906 L 1474.070312 506.464844 L 1493.53125 525.925781 L 1514.621094 543.621094 L 1537.152344 559.445312 L 1560.957031 573.277344 L 1585.863281 585 L 1611.6875 594.53125 L 1638.242188 601.796875 L 1665.753906 606.832031 L 1662.152344 626.503906 L 1633.796875 621.316406 L 1605.574219 613.597656 L 1578.125 603.464844 L 1551.65625 591.003906 L 1526.359375 576.304688 L 1502.421875 559.492188 L 1480.007812 540.6875 L 1459.3125 519.992188 L 1440.5 497.578125 L 1423.6875 473.636719 L 1408.992188 448.34375 L 1396.523438 421.875 L 1386.394531 394.425781 L 1378.675781 366.203125 L 1373.496094 337.84375 Z M 1379 333.546875 L 1387.664062 338.546875 L 1303.328125 484.617188 L 1294.667969 479.617188 Z M 1295.464844 485.652344 L 1302.535156 478.582031 L 1521.417969 697.464844 L 1514.347656 704.535156 Z M 1384.167969 361.375 L 1392.703125 366.585938 L 1314 495.457031 L 1305.464844 490.242188 Z M 1295.464844 485.652344 L 1302.535156 478.582031 L 1521.417969 697.464844 L 1514.347656 704.535156 Z M 1391.734375 388.644531 L 1400.117188 394.097656 L 1326.148438 507.804688 L 1317.769531 502.351562 Z M 1295.464844 485.652344 L 1302.535156 478.582031 L 1521.417969 697.464844 L 1514.347656 704.535156 Z M 1401.65625 415.148438 L 1409.859375 420.867188 L 1339.667969 521.542969 L 1331.464844 515.824219 Z M 1295.464844 485.652344 L 1302.535156 478.582031 L 1521.417969 697.464844 L 1514.347656 704.535156 Z M 1413.855469 440.691406 L 1421.851562 446.695312 L 1354.390625 536.511719 L 1346.394531 530.507812 Z M 1295.464844 485.652344 L 1302.535156 478.582031 L 1521.417969 697.464844 L 1514.347656 704.535156 Z M 1428.238281 465.089844 L 1436 471.394531 L 1370.101562 552.492188 L 1362.339844 546.183594 Z M 1295.464844 485.652344 L 1302.535156 478.582031 L 1521.417969 697.464844 L 1514.347656 704.535156 Z M 1444.6875 488.171875 L 1452.1875 494.785156 L 1386.546875 569.222656 L 1379.046875 562.605469 Z M 1295.464844 485.652344 L 1302.535156 478.582031 L 1521.417969 697.464844 L 1514.347656 704.535156 Z M 1463.082031 509.765625 L 1470.300781 516.6875 L 1403.449219 586.417969 L 1396.230469 579.496094 Z M 1295.464844 485.652344 L 1302.535156 478.582031 L 1521.417969 697.464844 L 1514.347656 704.535156 Z M 1483.308594 529.695312 L 1490.230469 536.914062 L 1420.5 603.769531 L 1413.582031 596.550781 Z M 1295.464844 485.652344 L 1302.535156 478.582031 L 1521.417969 697.464844 L 1514.347656 704.535156 Z M 1505.214844 547.808594 L 1511.828125 555.308594 L 1437.390625 620.949219 L 1430.777344 613.449219 Z M 1295.464844 485.652344 L 1302.535156 478.582031 L 1521.417969 697.464844 L 1514.347656 704.535156 Z M 1528.601562 563.996094 L 1534.910156 571.757812 L 1453.8125 637.65625 L 1447.507812 629.898438 Z M 1295.464844 485.652344 L 1302.535156 478.582031 L 1521.417969 697.464844 L 1514.347656 704.535156 Z M 1553.304688 578.140625 L 1559.308594 586.136719 L 1469.492188 653.601562 L 1463.484375 645.605469 Z M 1295.464844 485.652344 L 1302.535156 478.582031 L 1521.417969 697.464844 L 1514.347656 704.535156 Z M 1579.132812 590.132812 L 1584.851562 598.335938 L 1484.171875 668.53125 L 1478.453125 660.328125 Z M 1295.464844 485.652344 L 1302.535156 478.582031 L 1521.417969 697.464844 L 1514.347656 704.535156 Z M 1605.90625 599.875 L 1611.359375 608.253906 L 1497.644531 682.230469 L 1492.195312 673.847656 Z M 1295.464844 485.652344 L 1302.535156 478.582031 L 1521.417969 697.464844 L 1514.347656 704.535156 Z M 1633.414062 607.289062 L 1638.625 615.824219 L 1509.753906 694.53125 L 1504.539062 685.996094 Z M 1295.464844 485.652344 L 1302.535156 478.582031 L 1521.417969 697.464844 L 1514.347656 704.535156 Z M 1661.453125 612.335938 L 1666.453125 621 L 1520.382812 705.332031 L 1515.382812 696.671875 Z M 1295.464844 485.652344 L 1302.535156 478.582031 L 1521.417969 697.464844 L 1514.347656 704.535156 Z M 1295.464844 485.652344 "/>
<path fill-rule="nonzero" fill="url(#radial-pattern-1)" d="M 1259.925781 565.789062 L 1246.070312 557.789062 L 1376.402344 332.046875 L 1390.261719 340.046875 Z M 1259.925781 565.789062 L 1273 561.789062 C 1273 572.835938 1264.042969 581.789062 1253 581.789062 C 1241.953125 581.789062 1233 572.835938 1233 561.789062 C 1233 550.746094 1241.953125 541.789062 1253 541.789062 C 1264.042969 541.789062 1273 550.746094 1273 561.789062 Z M 1259.925781 565.789062 "/>
<path fill-rule="nonzero" fill="url(#radial-pattern-2)" d="M 1673.371094 620.03125 L 1663.960938 646.367188 L 1656.976562 672.996094 L 1652.316406 700.125 L 1650.023438 727.558594 L 1650.09375 755.085938 L 1652.542969 782.511719 L 1657.320312 809.621094 L 1664.449219 836.207031 L 1673.863281 862.078125 L 1685.460938 887.046875 L 1699.164062 910.925781 L 1714.871094 933.535156 L 1732.46875 954.703125 L 1751.835938 974.269531 L 1773.144531 992.378906 L 1760.191406 1007.621094 L 1738.226562 988.949219 L 1717.644531 968.152344 L 1698.9375 945.65625 L 1682.246094 921.628906 L 1667.683594 896.253906 L 1655.363281 869.722656 L 1645.355469 842.226562 L 1637.777344 813.957031 L 1632.695312 785.140625 L 1630.097656 756.003906 L 1630.019531 726.75 L 1632.460938 697.59375 L 1637.414062 668.757812 L 1644.835938 640.453125 L 1654.535156 613.304688 Z M 1661.453125 612.335938 L 1666.453125 621 L 1520.382812 705.332031 L 1515.382812 696.671875 Z M 1513.054688 702.296875 L 1522.714844 699.707031 L 1602.832031 998.707031 L 1593.171875 1001.292969 Z M 1652.007812 639.019531 L 1656.792969 647.800781 L 1524.203125 720.050781 L 1519.417969 711.269531 Z M 1513.054688 702.296875 L 1522.714844 699.707031 L 1602.832031 998.707031 L 1593.171875 1001.292969 Z M 1644.929688 666.417969 L 1649.460938 675.332031 L 1528.554688 736.820312 L 1524.019531 727.90625 Z M 1513.054688 702.296875 L 1522.714844 699.707031 L 1602.832031 998.707031 L 1593.171875 1001.292969 Z M 1640.265625 694.332031 L 1644.511719 703.386719 L 1533.390625 755.476562 L 1529.144531 746.425781 Z M 1513.054688 702.296875 L 1522.714844 699.707031 L 1602.832031 998.707031 L 1593.171875 1001.292969 Z M 1638.058594 722.554688 L 1641.980469 731.753906 L 1538.65625 775.800781 L 1534.734375 766.601562 Z M 1513.054688 702.296875 L 1522.714844 699.707031 L 1602.832031 998.707031 L 1593.171875 1001.292969 Z M 1638.3125 750.875 L 1641.878906 760.214844 L 1544.269531 797.492188 L 1540.703125 788.152344 Z M 1513.054688 702.296875 L 1522.714844 699.707031 L 1602.832031 998.707031 L 1593.171875 1001.292969 Z M 1641.023438 779.085938 L 1644.214844 788.566406 L 1550.148438 820.207031 L 1546.960938 810.730469 Z M 1513.054688 702.296875 L 1522.714844 699.707031 L 1602.832031 998.707031 L 1593.171875 1001.292969 Z M 1646.152344 806.988281 L 1648.945312 816.589844 L 1556.1875 843.550781 L 1553.398438 833.949219 Z M 1513.054688 702.296875 L 1522.714844 699.707031 L 1602.832031 998.707031 L 1593.171875 1001.292969 Z M 1653.710938 834.359375 L 1656.09375 844.074219 L 1562.28125 867.105469 L 1559.898438 857.394531 Z M 1513.054688 702.296875 L 1522.714844 699.707031 L 1602.832031 998.707031 L 1593.171875 1001.292969 Z M 1663.625 861 L 1665.601562 870.800781 L 1568.316406 890.429688 L 1566.339844 880.628906 Z M 1513.054688 702.296875 L 1522.714844 699.707031 L 1602.832031 998.707031 L 1593.171875 1001.292969 Z M 1675.78125 886.714844 L 1677.363281 896.585938 L 1574.1875 913.109375 L 1572.605469 903.238281 Z M 1513.054688 702.296875 L 1522.714844 699.707031 L 1602.832031 998.707031 L 1593.171875 1001.292969 Z M 1690.101562 911.3125 L 1691.304688 921.242188 L 1579.789062 934.757812 L 1578.585938 924.832031 Z M 1513.054688 702.296875 L 1522.714844 699.707031 L 1602.832031 998.707031 L 1593.171875 1001.292969 Z M 1706.476562 934.613281 L 1707.328125 944.578125 L 1585.039062 955.027344 L 1584.191406 945.0625 Z M 1513.054688 702.296875 L 1522.714844 699.707031 L 1602.832031 998.707031 L 1593.171875 1001.292969 Z M 1724.789062 956.433594 L 1725.320312 966.421875 L 1589.863281 973.628906 L 1589.332031 963.640625 Z M 1513.054688 702.296875 L 1522.714844 699.707031 L 1602.832031 998.707031 L 1593.171875 1001.292969 Z M 1744.90625 976.613281 L 1745.152344 986.609375 L 1594.195312 990.335938 L 1593.949219 980.335938 Z M 1513.054688 702.296875 L 1522.714844 699.707031 L 1602.832031 998.707031 L 1593.171875 1001.292969 Z M 1766.667969 995 L 1766.667969 1005 L 1598 1005 L 1598 995 Z M 1513.054688 702.296875 L 1522.714844 699.707031 L 1602.832031 998.707031 L 1593.171875 1001.292969 Z M 1513.054688 702.296875 "/>
<path fill-rule="nonzero" fill="url(#radial-pattern-3)" d="M 1442.210938 753.929688 L 1434.210938 740.074219 L 1659.953125 609.738281 L 1667.953125 623.597656 Z M 1442.210938 753.929688 L 1458.210938 747 C 1458.210938 758.046875 1449.253906 767 1438.210938 767 C 1427.164062 767 1418.210938 758.046875 1418.210938 747 C 1418.210938 735.957031 1427.164062 727 1438.210938 727 C 1449.253906 727 1458.210938 735.957031 1458.210938 747 Z M 1442.210938 753.929688 "/>
<path fill-rule="nonzero" fill="url(#radial-pattern-4)" d="M 1773.140625 1007.621094 L 1751.828125 1025.726562 L 1732.460938 1045.292969 L 1714.859375 1066.457031 L 1699.15625 1089.070312 L 1685.453125 1112.945312 L 1673.855469 1137.917969 L 1664.445312 1163.789062 L 1657.320312 1190.375 L 1652.539062 1217.484375 L 1650.09375 1244.910156 L 1650.023438 1272.4375 L 1652.320312 1299.871094 L 1656.980469 1327.003906 L 1663.964844 1353.632812 L 1673.371094 1379.96875 L 1654.535156 1386.695312 L 1644.839844 1359.542969 L 1637.414062 1331.242188 L 1632.460938 1302.40625 L 1630.019531 1273.25 L 1630.09375 1243.992188 L 1632.695312 1214.855469 L 1637.773438 1186.039062 L 1645.351562 1157.769531 L 1655.355469 1130.273438 L 1667.675781 1103.738281 L 1682.242188 1078.367188 L 1698.929688 1054.335938 L 1717.636719 1031.839844 L 1738.222656 1011.042969 L 1760.195312 992.378906 Z M 1766.667969 995 L 1766.667969 1005 L 1598 1005 L 1598 995 Z M 1593.171875 998.707031 L 1602.832031 1001.292969 L 1522.714844 1300.292969 L 1513.054688 1297.703125 Z M 1745.148438 1013.382812 L 1744.902344 1023.382812 L 1593.949219 1019.65625 L 1594.195312 1009.660156 Z M 1593.171875 998.707031 L 1602.832031 1001.292969 L 1522.714844 1300.292969 L 1513.054688 1297.703125 Z M 1725.316406 1033.574219 L 1724.785156 1043.558594 L 1589.332031 1036.355469 L 1589.863281 1026.367188 Z M 1593.171875 998.707031 L 1602.832031 1001.292969 L 1522.714844 1300.292969 L 1513.054688 1297.703125 Z M 1707.320312 1055.414062 L 1706.46875 1065.378906 L 1584.191406 1054.929688 L 1585.042969 1044.96875 Z M 1593.171875 998.707031 L 1602.832031 1001.292969 L 1522.714844 1300.292969 L 1513.054688 1297.703125 Z M 1691.300781 1078.753906 L 1690.097656 1088.679688 L 1578.589844 1075.164062 L 1579.792969 1065.238281 Z M 1593.171875 998.707031 L 1602.832031 1001.292969 L 1522.714844 1300.292969 L 1513.054688 1297.703125 Z M 1677.355469 1103.40625 L 1675.773438 1113.28125 L 1572.605469 1096.757812 L 1574.1875 1086.882812 Z M 1593.171875 998.707031 L 1602.832031 1001.292969 L 1522.714844 1300.292969 L 1513.054688 1297.703125 Z M 1665.59375 1129.191406 L 1663.617188 1138.996094 L 1566.339844 1119.367188 L 1568.316406 1109.566406 Z M 1593.171875 998.707031 L 1602.832031 1001.292969 L 1522.714844 1300.292969 L 1513.054688 1297.703125 Z M 1656.089844 1155.921875 L 1653.707031 1165.632812 L 1559.898438 1142.605469 L 1562.28125 1132.894531 Z M 1593.171875 998.707031 L 1602.832031 1001.292969 L 1522.714844 1300.292969 L 1513.054688 1297.703125 Z M 1648.941406 1183.40625 L 1646.152344 1193.007812 L 1553.398438 1166.050781 L 1556.191406 1156.449219 Z M 1593.171875 998.707031 L 1602.832031 1001.292969 L 1522.714844 1300.292969 L 1513.054688 1297.703125 Z M 1644.210938 1211.433594 L 1641.023438 1220.910156 L 1546.960938 1189.269531 L 1550.148438 1179.789062 Z M 1593.171875 998.707031 L 1602.832031 1001.292969 L 1522.714844 1300.292969 L 1513.054688 1297.703125 Z M 1641.878906 1239.78125 L 1638.308594 1249.121094 L 1540.703125 1211.847656 L 1544.273438 1202.503906 Z M 1593.171875 998.707031 L 1602.832031 1001.292969 L 1522.714844 1300.292969 L 1513.054688 1297.703125 Z M 1641.980469 1268.246094 L 1638.058594 1277.445312 L 1534.734375 1233.394531 L 1538.65625 1224.195312 Z M 1593.171875 998.707031 L 1602.832031 1001.292969 L 1522.714844 1300.292969 L 1513.054688 1297.703125 Z M 1644.511719 1296.609375 L 1640.269531 1305.664062 L 1529.144531 1253.574219 L 1533.390625 1244.519531 Z M 1593.171875 998.707031 L 1602.832031 1001.292969 L 1522.714844 1300.292969 L 1513.054688 1297.703125 Z M 1649.464844 1324.664062 L 1644.933594 1333.578125 L 1524.019531 1272.09375 L 1528.554688 1263.179688 Z M 1593.171875 998.707031 L 1602.832031 1001.292969 L 1522.714844 1300.292969 L 1513.054688 1297.703125 Z M 1656.792969 1352.199219 L 1652.011719 1360.980469 L 1519.417969 1288.730469 L 1524.203125 1279.949219 Z M 1593.171875 998.707031 L 1602.832031 1001.292969 L 1522.714844 1300.292969 L 1513.054688 1297.703125 Z M 1666.453125 1379 L 1661.453125 1387.664062 L 1515.382812 1303.328125 L 1520.382812 1294.667969 Z M 1593.171875 998.707031 L 1602.832031 1001.292969 L 1522.714844 1300.292969 L 1513.054688 1297.703125 Z M 1593.171875 998.707031 "/>
<path fill-rule="nonzero" fill="url(#radial-pattern-5)" d="M 1506 1008 L 1506 992 L 1766.667969 992 L 1766.667969 1008 Z M 1506 1008 L 1526 1000 C 1526 1011.046875 1517.046875 1020 1506 1020 C 1494.957031 1020 1486 1011.046875 1486 1000 C 1486 988.953125 1494.957031 980 1506 980 C 1517.046875 980 1526 988.953125 1526 1000 Z M 1506 1008 "/>
<path fill-rule="nonzero" fill="url(#radial-pattern-6)" d="M 1665.75 1393.167969 L 1638.238281 1398.191406 L 1611.683594 1405.457031 L 1585.855469 1414.980469 L 1560.949219 1426.710938 L 1537.144531 1440.539062 L 1514.613281 1456.363281 L 1493.527344 1474.0625 L 1474.0625 1493.527344 L 1456.363281 1514.613281 L 1440.539062 1537.144531 L 1426.710938 1560.949219 L 1414.980469 1585.855469 L 1405.457031 1611.683594 L 1398.191406 1638.238281 L 1393.167969 1665.75 L 1373.496094 1662.15625 L 1378.671875 1633.796875 L 1386.390625 1605.574219 L 1396.519531 1578.121094 L 1408.984375 1551.648438 L 1423.679688 1526.355469 L 1440.492188 1502.414062 L 1459.304688 1480 L 1480 1459.304688 L 1502.414062 1440.492188 L 1526.355469 1423.679688 L 1551.648438 1408.984375 L 1578.121094 1396.519531 L 1605.574219 1386.390625 L 1633.796875 1378.671875 L 1662.15625 1373.496094 Z M 1666.453125 1379 L 1661.453125 1387.664062 L 1515.382812 1303.328125 L 1520.382812 1294.667969 Z M 1514.347656 1295.464844 L 1521.417969 1302.535156 L 1302.535156 1521.417969 L 1295.464844 1514.347656 Z M 1638.625 1384.164062 L 1633.410156 1392.699219 L 1504.546875 1313.996094 L 1509.757812 1305.464844 Z M 1514.347656 1295.464844 L 1521.417969 1302.535156 L 1302.535156 1521.417969 L 1295.464844 1514.347656 Z M 1611.355469 1391.734375 L 1605.902344 1400.113281 L 1492.199219 1326.148438 L 1497.652344 1317.765625 Z M 1514.347656 1295.464844 L 1521.417969 1302.535156 L 1302.535156 1521.417969 L 1295.464844 1514.347656 Z M 1584.847656 1401.648438 L 1579.128906 1409.851562 L 1478.457031 1339.667969 L 1484.175781 1331.464844 Z M 1514.347656 1295.464844 L 1521.417969 1302.535156 L 1302.535156 1521.417969 L 1295.464844 1514.347656 Z M 1559.304688 1413.851562 L 1553.296875 1421.847656 L 1463.488281 1354.386719 L 1469.496094 1346.394531 Z M 1514.347656 1295.464844 L 1521.417969 1302.535156 L 1302.535156 1521.417969 L 1295.464844 1514.347656 Z M 1534.902344 1428.230469 L 1528.597656 1435.988281 L 1447.511719 1370.097656 L 1453.816406 1362.339844 Z M 1514.347656 1295.464844 L 1521.417969 1302.535156 L 1302.535156 1521.417969 L 1295.464844 1514.347656 Z M 1511.820312 1444.679688 L 1505.207031 1452.179688 L 1430.78125 1386.546875 L 1437.394531 1379.046875 Z M 1514.347656 1295.464844 L 1521.417969 1302.535156 L 1302.535156 1521.417969 L 1295.464844 1514.347656 Z M 1490.222656 1463.074219 L 1483.304688 1470.292969 L 1413.582031 1403.449219 L 1420.503906 1396.230469 Z M 1514.347656 1295.464844 L 1521.417969 1302.535156 L 1302.535156 1521.417969 L 1295.464844 1514.347656 Z M 1470.292969 1483.304688 L 1463.074219 1490.222656 L 1396.230469 1420.503906 L 1403.449219 1413.582031 Z M 1514.347656 1295.464844 L 1521.417969 1302.535156 L 1302.535156 1521.417969 L 1295.464844 1514.347656 Z M 1452.179688 1505.207031 L 1444.679688 1511.820312 L 1379.046875 1437.394531 L 1386.546875 1430.78125 Z M 1514.347656 1295.464844 L 1521.417969 1302.535156 L 1302.535156 1521.417969 L 1295.464844 1514.347656 Z M 1435.988281 1528.597656 L 1428.230469 1534.902344 L 1362.339844 1453.816406 L 1370.097656 1447.511719 Z M 1514.347656 1295.464844 L 1521.417969 1302.535156 L 1302.535156 1521.417969 L 1295.464844 1514.347656 Z M 1421.847656 1553.296875 L 1413.851562 1559.304688 L 1346.394531 1469.496094 L 1354.386719 1463.488281 Z M 1514.347656 1295.464844 L 1521.417969 1302.535156 L 1302.535156 1521.417969 L 1295.464844 1514.347656 Z M 1409.851562 1579.128906 L 1401.648438 1584.847656 L 1331.464844 1484.175781 L 1339.667969 1478.457031 Z M 1514.347656 1295.464844 L 1521.417969 1302.535156 L 1302.535156 1521.417969 L 1295.464844 1514.347656 Z M 1400.113281 1605.902344 L 1391.734375 1611.355469 L 1317.765625 1497.652344 L 1326.148438 1492.199219 Z M 1514.347656 1295.464844 L 1521.417969 1302.535156 L 1302.535156 1521.417969 L 1295.464844 1514.347656 Z M 1392.699219 1633.410156 L 1384.164062 1638.625 L 1305.464844 1509.757812 L 1313.996094 1504.546875 Z M 1514.347656 1295.464844 L 1521.417969 1302.535156 L 1302.535156 1521.417969 L 1295.464844 1514.347656 Z M 1387.664062 1661.453125 L 1379 1666.453125 L 1294.667969 1520.382812 L 1303.328125 1515.382812 Z M 1514.347656 1295.464844 L 1521.417969 1302.535156 L 1302.535156 1521.417969 L 1295.464844 1514.347656 Z M 1514.347656 1295.464844 "/>
<path fill-rule="nonzero" fill="url(#radial-pattern-7)" d="M 1434.210938 1259.925781 L 1442.210938 1246.070312 L 1667.953125 1376.402344 L 1659.953125 1390.261719 Z M 1434.210938 1259.925781 L 1458.210938 1253 C 1458.210938 1264.042969 1449.253906 1273 1438.210938 1273 C 1427.164062 1273 1418.210938 1264.042969 1418.210938 1253 C 1418.210938 1241.953125 1427.164062 1233 1438.210938 1233 C 1449.253906 1233 1458.210938 1241.953125 1458.210938 1253 Z M 1434.210938 1259.925781 "/>
<path fill-rule="nonzero" fill="url(#radial-pattern-8)" d="M 1379.96875 1673.371094 L 1353.632812 1663.964844 L 1327.003906 1656.980469 L 1299.871094 1652.320312 L 1272.4375 1650.023438 L 1244.910156 1650.09375 L 1217.484375 1652.539062 L 1190.375 1657.320312 L 1163.789062 1664.445312 L 1137.917969 1673.855469 L 1112.945312 1685.453125 L 1089.070312 1699.15625 L 1066.457031 1714.859375 L 1045.292969 1732.460938 L 1025.726562 1751.828125 L 1007.621094 1773.140625 L 992.378906 1760.195312 L 1011.042969 1738.222656 L 1031.839844 1717.636719 L 1054.335938 1698.929688 L 1078.367188 1682.242188 L 1103.738281 1667.675781 L 1130.273438 1655.355469 L 1157.769531 1645.351562 L 1186.039062 1637.773438 L 1214.855469 1632.695312 L 1243.992188 1630.09375 L 1273.25 1630.019531 L 1302.40625 1632.460938 L 1331.242188 1637.414062 L 1359.542969 1644.839844 L 1386.695312 1654.535156 Z M 1387.664062 1661.453125 L 1379 1666.453125 L 1294.667969 1520.382812 L 1303.328125 1515.382812 Z M 1297.703125 1513.054688 L 1300.292969 1522.714844 L 1001.292969 1602.832031 L 998.707031 1593.171875 Z M 1360.980469 1652.011719 L 1352.199219 1656.792969 L 1279.949219 1524.203125 L 1288.730469 1519.417969 Z M 1297.703125 1513.054688 L 1300.292969 1522.714844 L 1001.292969 1602.832031 L 998.707031 1593.171875 Z M 1333.578125 1644.933594 L 1324.664062 1649.464844 L 1263.179688 1528.554688 L 1272.09375 1524.019531 Z M 1297.703125 1513.054688 L 1300.292969 1522.714844 L 1001.292969 1602.832031 L 998.707031 1593.171875 Z M 1305.664062 1640.269531 L 1296.609375 1644.511719 L 1244.519531 1533.390625 L 1253.574219 1529.144531 Z M 1297.703125 1513.054688 L 1300.292969 1522.714844 L 1001.292969 1602.832031 L 998.707031 1593.171875 Z M 1277.445312 1638.058594 L 1268.246094 1641.980469 L 1224.195312 1538.65625 L 1233.394531 1534.734375 Z M 1297.703125 1513.054688 L 1300.292969 1522.714844 L 1001.292969 1602.832031 L 998.707031 1593.171875 Z M 1249.121094 1638.308594 L 1239.78125 1641.878906 L 1202.503906 1544.273438 L 1211.847656 1540.703125 Z M 1297.703125 1513.054688 L 1300.292969 1522.714844 L 1001.292969 1602.832031 L 998.707031 1593.171875 Z M 1220.910156 1641.023438 L 1211.433594 1644.210938 L 1179.789062 1550.148438 L 1189.269531 1546.960938 Z M 1297.703125 1513.054688 L 1300.292969 1522.714844 L 1001.292969 1602.832031 L 998.707031 1593.171875 Z M 1193.007812 1646.152344 L 1183.40625 1648.941406 L 1156.449219 1556.191406 L 1166.050781 1553.398438 Z M 1297.703125 1513.054688 L 1300.292969 1522.714844 L 1001.292969 1602.832031 L 998.707031 1593.171875 Z M 1165.632812 1653.707031 L 1155.921875 1656.089844 L 1132.894531 1562.28125 L 1142.605469 1559.898438 Z M 1297.703125 1513.054688 L 1300.292969 1522.714844 L 1001.292969 1602.832031 L 998.707031 1593.171875 Z M 1138.996094 1663.617188 L 1129.191406 1665.59375 L 1109.566406 1568.316406 L 1119.367188 1566.339844 Z M 1297.703125 1513.054688 L 1300.292969 1522.714844 L 1001.292969 1602.832031 L 998.707031 1593.171875 Z M 1113.28125 1675.773438 L 1103.40625 1677.355469 L 1086.882812 1574.1875 L 1096.757812 1572.605469 Z M 1297.703125 1513.054688 L 1300.292969 1522.714844 L 1001.292969 1602.832031 L 998.707031 1593.171875 Z M 1088.679688 1690.097656 L 1078.753906 1691.300781 L 1065.238281 1579.792969 L 1075.164062 1578.589844 Z M 1297.703125 1513.054688 L 1300.292969 1522.714844 L 1001.292969 1602.832031 L 998.707031 1593.171875 Z M 1065.378906 1706.46875 L 1055.414062 1707.320312 L 1044.96875 1585.042969 L 1054.929688 1584.191406 Z M 1297.703125 1513.054688 L 1300.292969 1522.714844 L 1001.292969 1602.832031 L 998.707031 1593.171875 Z M 1043.558594 1724.785156 L 1033.574219 1725.316406 L 1026.367188 1589.863281 L 1036.355469 1589.332031 Z M 1297.703125 1513.054688 L 1300.292969 1522.714844 L 1001.292969 1602.832031 L 998.707031 1593.171875 Z M 1023.382812 1744.902344 L 1013.382812 1745.148438 L 1009.660156 1594.195312 L 1019.65625 1593.949219 Z M 1297.703125 1513.054688 L 1300.292969 1522.714844 L 1001.292969 1602.832031 L 998.707031 1593.171875 Z M 1005 1766.667969 L 995 1766.667969 L 995 1598 L 1005 1598 Z M 1297.703125 1513.054688 L 1300.292969 1522.714844 L 1001.292969 1602.832031 L 998.707031 1593.171875 Z M 1297.703125 1513.054688 "/>
<path fill-rule="nonzero" fill="url(#radial-pattern-9)" d="M 1246.070312 1442.210938 L 1259.925781 1434.210938 L 1390.261719 1659.953125 L 1376.402344 1667.953125 Z M 1246.070312 1442.210938 L 1273 1438.210938 C 1273 1449.253906 1264.042969 1458.210938 1253 1458.210938 C 1241.953125 1458.210938 1233 1449.253906 1233 1438.210938 C 1233 1427.164062 1241.953125 1418.210938 1253 1418.210938 C 1264.042969 1418.210938 1273 1427.164062 1273 1438.210938 Z M 1246.070312 1442.210938 "/>
<path fill-rule="nonzero" fill="url(#radial-pattern-10)" d="M 992.378906 1773.144531 L 974.269531 1751.835938 L 954.703125 1732.46875 L 933.535156 1714.871094 L 910.925781 1699.164062 L 887.046875 1685.460938 L 862.078125 1673.863281 L 836.207031 1664.449219 L 809.621094 1657.320312 L 782.511719 1652.542969 L 755.085938 1650.09375 L 727.558594 1650.023438 L 700.125 1652.316406 L 672.996094 1656.976562 L 646.367188 1663.960938 L 620.03125 1673.371094 L 613.304688 1654.535156 L 640.453125 1644.835938 L 668.757812 1637.414062 L 697.59375 1632.460938 L 726.75 1630.019531 L 756.003906 1630.097656 L 785.140625 1632.695312 L 813.957031 1637.777344 L 842.226562 1645.355469 L 869.722656 1655.363281 L 896.253906 1667.683594 L 921.628906 1682.246094 L 945.65625 1698.9375 L 968.152344 1717.644531 L 988.949219 1738.226562 L 1007.621094 1760.191406 Z M 1005 1766.667969 L 995 1766.667969 L 995 1598 L 1005 1598 Z M 1001.292969 1593.171875 L 998.707031 1602.832031 L 699.707031 1522.714844 L 702.296875 1513.054688 Z M 986.609375 1745.152344 L 976.613281 1744.90625 L 980.335938 1593.949219 L 990.335938 1594.195312 Z M 1001.292969 1593.171875 L 998.707031 1602.832031 L 699.707031 1522.714844 L 702.296875 1513.054688 Z M 966.421875 1725.320312 L 956.433594 1724.789062 L 963.640625 1589.332031 L 973.628906 1589.863281 Z M 1001.292969 1593.171875 L 998.707031 1602.832031 L 699.707031 1522.714844 L 702.296875 1513.054688 Z M 944.578125 1707.328125 L 934.613281 1706.476562 L 945.0625 1584.191406 L 955.027344 1585.039062 Z M 1001.292969 1593.171875 L 998.707031 1602.832031 L 699.707031 1522.714844 L 702.296875 1513.054688 Z M 921.242188 1691.304688 L 911.3125 1690.101562 L 924.832031 1578.585938 L 934.757812 1579.789062 Z M 1001.292969 1593.171875 L 998.707031 1602.832031 L 699.707031 1522.714844 L 702.296875 1513.054688 Z M 896.585938 1677.363281 L 886.714844 1675.78125 L 903.238281 1572.605469 L 913.109375 1574.1875 Z M 1001.292969 1593.171875 L 998.707031 1602.832031 L 699.707031 1522.714844 L 702.296875 1513.054688 Z M 870.800781 1665.601562 L 861 1663.625 L 880.628906 1566.339844 L 890.429688 1568.316406 Z M 1001.292969 1593.171875 L 998.707031 1602.832031 L 699.707031 1522.714844 L 702.296875 1513.054688 Z M 844.074219 1656.09375 L 834.359375 1653.710938 L 857.394531 1559.898438 L 867.105469 1562.28125 Z M 1001.292969 1593.171875 L 998.707031 1602.832031 L 699.707031 1522.714844 L 702.296875 1513.054688 Z M 816.589844 1648.945312 L 806.988281 1646.152344 L 833.949219 1553.398438 L 843.550781 1556.1875 Z M 1001.292969 1593.171875 L 998.707031 1602.832031 L 699.707031 1522.714844 L 702.296875 1513.054688 Z M 788.566406 1644.214844 L 779.085938 1641.023438 L 810.730469 1546.960938 L 820.207031 1550.148438 Z M 1001.292969 1593.171875 L 998.707031 1602.832031 L 699.707031 1522.714844 L 702.296875 1513.054688 Z M 760.214844 1641.878906 L 750.875 1638.3125 L 788.152344 1540.703125 L 797.492188 1544.269531 Z M 1001.292969 1593.171875 L 998.707031 1602.832031 L 699.707031 1522.714844 L 702.296875 1513.054688 Z M 731.753906 1641.980469 L 722.554688 1638.058594 L 766.601562 1534.734375 L 775.800781 1538.65625 Z M 1001.292969 1593.171875 L 998.707031 1602.832031 L 699.707031 1522.714844 L 702.296875 1513.054688 Z M 703.386719 1644.511719 L 694.332031 1640.265625 L 746.425781 1529.144531 L 755.476562 1533.390625 Z M 1001.292969 1593.171875 L 998.707031 1602.832031 L 699.707031 1522.714844 L 702.296875 1513.054688 Z M 675.332031 1649.460938 L 666.417969 1644.929688 L 727.90625 1524.019531 L 736.820312 1528.554688 Z M 1001.292969 1593.171875 L 998.707031 1602.832031 L 699.707031 1522.714844 L 702.296875 1513.054688 Z M 647.800781 1656.792969 L 639.019531 1652.007812 L 711.269531 1519.417969 L 720.050781 1524.203125 Z M 1001.292969 1593.171875 L 998.707031 1602.832031 L 699.707031 1522.714844 L 702.296875 1513.054688 Z M 621 1666.453125 L 612.335938 1661.453125 L 696.671875 1515.382812 L 705.332031 1520.382812 Z M 1001.292969 1593.171875 L 998.707031 1602.832031 L 699.707031 1522.714844 L 702.296875 1513.054688 Z M 1001.292969 1593.171875 "/>
<path fill-rule="nonzero" fill="url(#radial-pattern-11)" d="M 992 1506 L 1008 1506 L 1008 1766.667969 L 992 1766.667969 Z M 992 1506 L 1020 1506 C 1020 1517.046875 1011.046875 1526 1000 1526 C 988.953125 1526 980 1517.046875 980 1506 C 980 1494.957031 988.953125 1486 1000 1486 C 1011.046875 1486 1020 1494.957031 1020 1506 Z M 992 1506 "/>
<path fill-rule="nonzero" fill="url(#radial-pattern-12)" d="M 606.832031 1665.753906 L 601.796875 1638.242188 L 594.53125 1611.6875 L 585 1585.863281 L 573.277344 1560.957031 L 559.445312 1537.152344 L 543.621094 1514.621094 L 525.925781 1493.53125 L 506.464844 1474.070312 L 485.378906 1456.375 L 462.847656 1440.550781 L 439.042969 1426.71875 L 414.140625 1414.988281 L 388.3125 1405.457031 L 361.757812 1398.195312 L 334.25 1393.167969 L 337.84375 1373.496094 L 366.203125 1378.675781 L 394.425781 1386.394531 L 421.875 1396.523438 L 448.34375 1408.992188 L 473.636719 1423.6875 L 497.578125 1440.5 L 519.992188 1459.3125 L 540.6875 1480.007812 L 559.492188 1502.421875 L 576.304688 1526.359375 L 591.003906 1551.65625 L 603.464844 1578.125 L 613.597656 1605.574219 L 621.316406 1633.796875 L 626.503906 1662.152344 Z M 621 1666.453125 L 612.335938 1661.453125 L 696.671875 1515.382812 L 705.332031 1520.382812 Z M 704.535156 1514.347656 L 697.464844 1521.417969 L 478.582031 1302.535156 L 485.652344 1295.464844 Z M 615.824219 1638.625 L 607.289062 1633.414062 L 685.996094 1504.539062 L 694.53125 1509.753906 Z M 704.535156 1514.347656 L 697.464844 1521.417969 L 478.582031 1302.535156 L 485.652344 1295.464844 Z M 608.253906 1611.359375 L 599.875 1605.90625 L 673.847656 1492.195312 L 682.230469 1497.644531 Z M 704.535156 1514.347656 L 697.464844 1521.417969 L 478.582031 1302.535156 L 485.652344 1295.464844 Z M 598.335938 1584.851562 L 590.132812 1579.132812 L 660.328125 1478.453125 L 668.53125 1484.171875 Z M 704.535156 1514.347656 L 697.464844 1521.417969 L 478.582031 1302.535156 L 485.652344 1295.464844 Z M 586.136719 1559.308594 L 578.140625 1553.304688 L 645.605469 1463.484375 L 653.601562 1469.492188 Z M 704.535156 1514.347656 L 697.464844 1521.417969 L 478.582031 1302.535156 L 485.652344 1295.464844 Z M 571.757812 1534.910156 L 563.996094 1528.601562 L 629.898438 1447.507812 L 637.65625 1453.8125 Z M 704.535156 1514.347656 L 697.464844 1521.417969 L 478.582031 1302.535156 L 485.652344 1295.464844 Z M 555.308594 1511.828125 L 547.808594 1505.214844 L 613.449219 1430.777344 L 620.949219 1437.390625 Z M 704.535156 1514.347656 L 697.464844 1521.417969 L 478.582031 1302.535156 L 485.652344 1295.464844 Z M 536.914062 1490.230469 L 529.695312 1483.308594 L 596.550781 1413.582031 L 603.769531 1420.5 Z M 704.535156 1514.347656 L 697.464844 1521.417969 L 478.582031 1302.535156 L 485.652344 1295.464844 Z M 516.6875 1470.300781 L 509.765625 1463.082031 L 579.496094 1396.230469 L 586.417969 1403.449219 Z M 704.535156 1514.347656 L 697.464844 1521.417969 L 478.582031 1302.535156 L 485.652344 1295.464844 Z M 494.785156 1452.1875 L 488.171875 1444.6875 L 562.605469 1379.046875 L 569.222656 1386.546875 Z M 704.535156 1514.347656 L 697.464844 1521.417969 L 478.582031 1302.535156 L 485.652344 1295.464844 Z M 471.394531 1436 L 465.089844 1428.238281 L 546.183594 1362.339844 L 552.492188 1370.101562 Z M 704.535156 1514.347656 L 697.464844 1521.417969 L 478.582031 1302.535156 L 485.652344 1295.464844 Z M 446.695312 1421.851562 L 440.691406 1413.855469 L 530.507812 1346.394531 L 536.511719 1354.390625 Z M 704.535156 1514.347656 L 697.464844 1521.417969 L 478.582031 1302.535156 L 485.652344 1295.464844 Z M 420.867188 1409.859375 L 415.148438 1401.65625 L 515.824219 1331.464844 L 521.542969 1339.667969 Z M 704.535156 1514.347656 L 697.464844 1521.417969 L 478.582031 1302.535156 L 485.652344 1295.464844 Z M 394.097656 1400.117188 L 388.644531 1391.734375 L 502.351562 1317.769531 L 507.804688 1326.148438 Z M 704.535156 1514.347656 L 697.464844 1521.417969 L 478.582031 1302.535156 L 485.652344 1295.464844 Z M 366.585938 1392.703125 L 361.375 1384.167969 L 490.242188 1305.464844 L 495.457031 1314 Z M 704.535156 1514.347656 L 697.464844 1521.417969 L 478.582031 1302.535156 L 485.652344 1295.464844 Z M 338.546875 1387.664062 L 333.546875 1379 L 479.617188 1294.667969 L 484.617188 1303.328125 Z M 704.535156 1514.347656 L 697.464844 1521.417969 L 478.582031 1302.535156 L 485.652344 1295.464844 Z M 704.535156 1514.347656 "/>
<path fill-rule="nonzero" fill="url(#radial-pattern-13)" d="M 740.074219 1434.210938 L 753.929688 1442.210938 L 623.597656 1667.953125 L 609.738281 1659.953125 Z M 740.074219 1434.210938 L 767 1438.210938 C 767 1449.253906 758.046875 1458.210938 747 1458.210938 C 735.957031 1458.210938 727 1449.253906 727 1438.210938 C 727 1427.164062 735.957031 1418.210938 747 1418.210938 C 758.046875 1418.210938 767 1427.164062 767 1438.210938 Z M 740.074219 1434.210938 "/>
<path fill-rule="nonzero" fill="url(#radial-pattern-14)" d="M 326.628906 1379.972656 L 336.023438 1353.632812 L 343.007812 1327.003906 L 347.664062 1299.871094 L 349.960938 1272.441406 L 349.886719 1244.910156 L 347.449219 1217.484375 L 342.664062 1190.375 L 335.542969 1163.792969 L 326.128906 1137.921875 L 314.53125 1112.953125 L 300.832031 1089.074219 L 285.128906 1066.464844 L 267.53125 1045.296875 L 248.164062 1025.730469 L 226.855469 1007.621094 L 239.808594 992.378906 L 261.773438 1011.046875 L 282.355469 1031.84375 L 301.058594 1054.34375 L 317.75 1078.371094 L 332.304688 1103.746094 L 344.628906 1130.277344 L 354.632812 1157.773438 L 362.210938 1186.042969 L 367.292969 1214.859375 L 369.882812 1243.996094 L 369.964844 1273.25 L 367.523438 1302.402344 L 362.570312 1331.238281 L 355.148438 1359.539062 L 345.464844 1386.691406 Z M 338.546875 1387.664062 L 333.546875 1379 L 479.617188 1294.667969 L 484.617188 1303.328125 Z M 486.945312 1297.703125 L 477.285156 1300.292969 L 397.167969 1001.292969 L 406.828125 998.707031 Z M 347.980469 1360.976562 L 343.195312 1352.195312 L 475.792969 1279.941406 L 480.578125 1288.722656 Z M 486.945312 1297.703125 L 477.285156 1300.292969 L 397.167969 1001.292969 L 406.828125 998.707031 Z M 355.054688 1333.578125 L 350.523438 1324.664062 L 471.445312 1263.171875 L 475.976562 1272.085938 Z M 486.945312 1297.703125 L 477.285156 1300.292969 L 397.167969 1001.292969 L 406.828125 998.707031 Z M 359.714844 1305.664062 L 355.46875 1296.609375 L 466.609375 1244.511719 L 470.851562 1253.566406 Z M 486.945312 1297.703125 L 477.285156 1300.292969 L 397.167969 1001.292969 L 406.828125 998.707031 Z M 361.925781 1277.441406 L 358.003906 1268.246094 L 461.34375 1224.191406 L 465.265625 1233.390625 Z M 486.945312 1297.703125 L 477.285156 1300.292969 L 397.167969 1001.292969 L 406.828125 998.707031 Z M 361.667969 1249.125 L 358.101562 1239.78125 L 455.726562 1202.5 L 459.292969 1211.839844 Z M 486.945312 1297.703125 L 477.285156 1300.292969 L 397.167969 1001.292969 L 406.828125 998.707031 Z M 358.964844 1220.910156 L 355.777344 1211.433594 L 449.847656 1179.789062 L 453.039062 1189.265625 Z M 486.945312 1297.703125 L 477.285156 1300.292969 L 397.167969 1001.292969 L 406.828125 998.707031 Z M 353.832031 1193.011719 L 351.042969 1183.40625 L 443.808594 1156.445312 L 446.601562 1166.046875 Z M 486.945312 1297.703125 L 477.285156 1300.292969 L 397.167969 1001.292969 L 406.828125 998.707031 Z M 346.28125 1165.636719 L 343.894531 1155.925781 L 437.71875 1132.894531 L 440.101562 1142.605469 Z M 486.945312 1297.703125 L 477.285156 1300.292969 L 397.167969 1001.292969 L 406.828125 998.707031 Z M 336.367188 1139 L 334.390625 1129.199219 L 431.683594 1109.566406 L 433.660156 1119.371094 Z M 486.945312 1297.703125 L 477.285156 1300.292969 L 397.167969 1001.292969 L 406.828125 998.707031 Z M 324.210938 1113.289062 L 322.628906 1103.414062 L 425.8125 1086.886719 L 427.394531 1096.761719 Z M 486.945312 1297.703125 L 477.285156 1300.292969 L 397.167969 1001.292969 L 406.828125 998.707031 Z M 309.894531 1088.6875 L 308.6875 1078.757812 L 420.210938 1065.242188 L 421.414062 1075.167969 Z M 486.945312 1297.703125 L 477.285156 1300.292969 L 397.167969 1001.292969 L 406.828125 998.707031 Z M 293.519531 1065.386719 L 292.667969 1055.421875 L 414.957031 1044.972656 L 415.808594 1054.9375 Z M 486.945312 1297.703125 L 477.285156 1300.292969 L 397.167969 1001.292969 L 406.828125 998.707031 Z M 275.207031 1043.5625 L 274.675781 1033.578125 L 410.136719 1026.371094 L 410.667969 1036.359375 Z M 486.945312 1297.703125 L 477.285156 1300.292969 L 397.167969 1001.292969 L 406.828125 998.707031 Z M 255.09375 1023.386719 L 254.847656 1013.390625 L 405.804688 1009.664062 L 406.050781 1019.660156 Z M 486.945312 1297.703125 L 477.285156 1300.292969 L 397.167969 1001.292969 L 406.828125 998.707031 Z M 233.332031 1005 L 233.332031 995 L 402 995 L 402 1005 Z M 486.945312 1297.703125 L 477.285156 1300.292969 L 397.167969 1001.292969 L 406.828125 998.707031 Z M 486.945312 1297.703125 "/>
<path fill-rule="nonzero" fill="url(#radial-pattern-15)" d="M 557.789062 1246.070312 L 565.789062 1259.925781 L 340.046875 1390.261719 L 332.046875 1376.402344 Z M 557.789062 1246.070312 L 581.789062 1253 C 581.789062 1264.042969 572.835938 1273 561.789062 1273 C 550.746094 1273 541.789062 1264.042969 541.789062 1253 C 541.789062 1241.953125 550.746094 1233 561.789062 1233 C 572.835938 1233 581.789062 1241.953125 581.789062 1253 Z M 557.789062 1246.070312 "/>
<path fill-rule="nonzero" fill="url(#radial-pattern-16)" d="M 226.855469 992.382812 L 248.160156 974.265625 L 267.523438 954.695312 L 285.121094 933.527344 L 300.828125 910.921875 L 314.523438 887.039062 L 326.121094 862.070312 L 335.539062 836.203125 L 342.664062 809.621094 L 347.445312 782.511719 L 349.882812 755.085938 L 349.964844 727.558594 L 347.664062 700.128906 L 343.007812 672.996094 L 336.027344 646.367188 L 326.628906 620.027344 L 345.464844 613.308594 L 355.152344 640.457031 L 362.574219 668.761719 L 367.523438 697.597656 L 369.964844 726.75 L 369.882812 756.003906 L 367.292969 785.140625 L 362.207031 813.953125 L 354.628906 842.222656 L 344.621094 869.71875 L 332.300781 896.246094 L 317.746094 921.621094 L 301.050781 945.648438 L 282.347656 968.148438 L 261.769531 988.945312 L 239.808594 1007.617188 Z M 233.332031 1005 L 233.332031 995 L 402 995 L 402 1005 Z M 406.828125 1001.292969 L 397.167969 998.707031 L 477.285156 699.707031 L 486.945312 702.296875 Z M 254.839844 986.601562 L 255.085938 976.605469 L 406.054688 980.332031 L 405.804688 990.332031 Z M 406.828125 1001.292969 L 397.167969 998.707031 L 477.285156 699.707031 L 486.945312 702.296875 Z M 274.671875 966.414062 L 275.203125 956.429688 L 410.671875 963.636719 L 410.140625 973.621094 Z M 406.828125 1001.292969 L 397.167969 998.707031 L 477.285156 699.707031 L 486.945312 702.296875 Z M 292.660156 944.570312 L 293.511719 934.605469 L 415.8125 945.058594 L 414.960938 955.019531 Z M 406.828125 1001.292969 L 397.167969 998.707031 L 477.285156 699.707031 L 486.945312 702.296875 Z M 308.683594 921.234375 L 309.886719 911.308594 L 421.414062 924.828125 L 420.210938 934.753906 Z M 406.828125 1001.292969 L 397.167969 998.707031 L 477.285156 699.707031 L 486.945312 702.296875 Z M 322.621094 896.582031 L 324.203125 886.707031 L 427.394531 903.234375 L 425.8125 913.105469 Z M 406.828125 1001.292969 L 397.167969 998.707031 L 477.285156 699.707031 L 486.945312 702.296875 Z M 334.382812 870.796875 L 336.363281 860.992188 L 433.660156 880.625 L 431.683594 890.429688 Z M 406.828125 1001.292969 L 397.167969 998.707031 L 477.285156 699.707031 L 486.945312 702.296875 Z M 343.890625 844.070312 L 346.277344 834.355469 L 440.101562 857.390625 L 437.71875 867.105469 Z M 406.828125 1001.292969 L 397.167969 998.707031 L 477.285156 699.707031 L 486.945312 702.296875 Z M 351.039062 816.589844 L 353.832031 806.984375 L 446.601562 833.949219 L 443.8125 843.550781 Z M 406.828125 1001.292969 L 397.167969 998.707031 L 477.285156 699.707031 L 486.945312 702.296875 Z M 355.777344 788.566406 L 358.964844 779.085938 L 453.039062 810.730469 L 449.851562 820.210938 Z M 406.828125 1001.292969 L 397.167969 998.707031 L 477.285156 699.707031 L 486.945312 702.296875 Z M 358.097656 760.214844 L 361.667969 750.875 L 459.296875 788.15625 L 455.726562 797.5 Z M 406.828125 1001.292969 L 397.167969 998.707031 L 477.285156 699.707031 L 486.945312 702.296875 Z M 358.003906 731.753906 L 361.925781 722.554688 L 465.265625 766.609375 L 461.34375 775.808594 Z M 406.828125 1001.292969 L 397.167969 998.707031 L 477.285156 699.707031 L 486.945312 702.296875 Z M 355.472656 703.386719 L 359.714844 694.335938 L 470.851562 746.429688 L 466.609375 755.484375 Z M 406.828125 1001.292969 L 397.167969 998.707031 L 477.285156 699.707031 L 486.945312 702.296875 Z M 350.523438 675.335938 L 355.058594 666.421875 L 475.976562 727.910156 L 471.445312 736.824219 Z M 406.828125 1001.292969 L 397.167969 998.707031 L 477.285156 699.707031 L 486.945312 702.296875 Z M 343.195312 647.804688 L 347.980469 639.023438 L 480.578125 711.273438 L 475.796875 720.054688 Z M 406.828125 1001.292969 L 397.167969 998.707031 L 477.285156 699.707031 L 486.945312 702.296875 Z M 333.546875 621 L 338.546875 612.335938 L 484.617188 696.671875 L 479.617188 705.332031 Z M 406.828125 1001.292969 L 397.167969 998.707031 L 477.285156 699.707031 L 486.945312 702.296875 Z M 406.828125 1001.292969 "/>
<path fill-rule="nonzero" fill="url(#radial-pattern-17)" d="M 494 992 L 494 1008 L 233.332031 1008 L 233.332031 992 Z M 494 992 L 514 1000 C 514 1011.046875 505.042969 1020 494 1020 C 482.953125 1020 474 1011.046875 474 1000 C 474 988.953125 482.953125 980 494 980 C 505.042969 980 514 988.953125 514 1000 Z M 494 992 "/>
<path fill-rule="nonzero" fill="url(#radial-pattern-18)" d="M 334.246094 606.832031 L 361.753906 601.792969 L 388.308594 594.53125 L 414.132812 584.996094 L 439.039062 573.269531 L 462.839844 559.4375 L 485.371094 543.609375 L 506.460938 525.917969 L 525.917969 506.460938 L 543.609375 485.371094 L 559.4375 462.839844 L 573.269531 439.039062 L 584.996094 414.132812 L 594.53125 388.308594 L 601.792969 361.753906 L 606.832031 334.246094 L 626.503906 337.847656 L 621.3125 366.203125 L 613.59375 394.421875 L 603.457031 421.871094 L 590.996094 448.339844 L 576.296875 473.632812 L 559.484375 497.566406 L 540.679688 519.984375 L 519.984375 540.679688 L 497.566406 559.484375 L 473.632812 576.296875 L 448.339844 590.996094 L 421.871094 603.457031 L 394.421875 613.59375 L 366.203125 621.3125 L 337.847656 626.503906 Z M 333.546875 621 L 338.546875 612.335938 L 484.617188 696.671875 L 479.617188 705.332031 Z M 485.652344 704.535156 L 478.582031 697.464844 L 697.464844 478.582031 L 704.535156 485.652344 Z M 361.371094 615.820312 L 366.585938 607.285156 L 495.460938 685.996094 L 490.246094 694.53125 Z M 485.652344 704.535156 L 478.582031 697.464844 L 697.464844 478.582031 L 704.535156 485.652344 Z M 388.640625 608.25 L 394.09375 599.871094 L 507.808594 673.84375 L 502.355469 682.226562 Z M 485.652344 704.535156 L 478.582031 697.464844 L 697.464844 478.582031 L 704.535156 485.652344 Z M 415.140625 598.328125 L 420.859375 590.125 L 521.550781 660.324219 L 515.832031 668.527344 Z M 485.652344 704.535156 L 478.582031 697.464844 L 697.464844 478.582031 L 704.535156 485.652344 Z M 440.6875 586.132812 L 446.691406 578.136719 L 536.515625 645.605469 L 530.511719 653.601562 Z M 485.652344 704.535156 L 478.582031 697.464844 L 697.464844 478.582031 L 704.535156 485.652344 Z M 465.082031 571.746094 L 471.386719 563.984375 L 552.496094 629.894531 L 546.1875 637.65625 Z M 485.652344 704.535156 L 478.582031 697.464844 L 697.464844 478.582031 L 704.535156 485.652344 Z M 488.160156 555.296875 L 494.777344 547.796875 L 569.222656 613.449219 L 562.609375 620.949219 Z M 485.652344 704.535156 L 478.582031 697.464844 L 697.464844 478.582031 L 704.535156 485.652344 Z M 509.761719 536.910156 L 516.683594 529.691406 L 586.417969 596.550781 L 579.496094 603.769531 Z M 485.652344 704.535156 L 478.582031 697.464844 L 697.464844 478.582031 L 704.535156 485.652344 Z M 529.691406 516.683594 L 536.910156 509.761719 L 603.769531 579.496094 L 596.550781 586.417969 Z M 485.652344 704.535156 L 478.582031 697.464844 L 697.464844 478.582031 L 704.535156 485.652344 Z M 547.796875 494.777344 L 555.296875 488.160156 L 620.949219 562.609375 L 613.449219 569.222656 Z M 485.652344 704.535156 L 478.582031 697.464844 L 697.464844 478.582031 L 704.535156 485.652344 Z M 563.984375 471.386719 L 571.746094 465.082031 L 637.65625 546.1875 L 629.894531 552.496094 Z M 485.652344 704.535156 L 478.582031 697.464844 L 697.464844 478.582031 L 704.535156 485.652344 Z M 578.136719 446.691406 L 586.132812 440.6875 L 653.601562 530.511719 L 645.605469 536.515625 Z M 485.652344 704.535156 L 478.582031 697.464844 L 697.464844 478.582031 L 704.535156 485.652344 Z M 590.125 420.859375 L 598.328125 415.140625 L 668.527344 515.832031 L 660.324219 521.550781 Z M 485.652344 704.535156 L 478.582031 697.464844 L 697.464844 478.582031 L 704.535156 485.652344 Z M 599.871094 394.09375 L 608.25 388.640625 L 682.226562 502.355469 L 673.84375 507.808594 Z M 485.652344 704.535156 L 478.582031 697.464844 L 697.464844 478.582031 L 704.535156 485.652344 Z M 607.285156 366.585938 L 615.820312 361.371094 L 694.53125 490.246094 L 685.996094 495.460938 Z M 485.652344 704.535156 L 478.582031 697.464844 L 697.464844 478.582031 L 704.535156 485.652344 Z M 612.335938 338.546875 L 621 333.546875 L 705.332031 479.617188 L 696.671875 484.617188 Z M 485.652344 704.535156 L 478.582031 697.464844 L 697.464844 478.582031 L 704.535156 485.652344 Z M 485.652344 704.535156 "/>
<path fill-rule="nonzero" fill="url(#radial-pattern-19)" d="M 565.789062 740.074219 L 557.789062 753.929688 L 332.046875 623.597656 L 340.046875 609.738281 Z M 565.789062 740.074219 L 581.789062 747 C 581.789062 758.046875 572.835938 767 561.789062 767 C 550.746094 767 541.789062 758.046875 541.789062 747 C 541.789062 735.957031 550.746094 727 561.789062 727 C 572.835938 727 581.789062 735.957031 581.789062 747 Z M 565.789062 740.074219 "/>
<path fill-rule="nonzero" fill="url(#radial-pattern-20)" d="M 620.027344 326.628906 L 646.367188 336.027344 L 672.996094 343.007812 L 700.128906 347.664062 L 727.558594 349.964844 L 755.085938 349.882812 L 782.511719 347.445312 L 809.621094 342.664062 L 836.203125 335.539062 L 862.070312 326.121094 L 887.039062 314.523438 L 910.921875 300.828125 L 933.527344 285.121094 L 954.695312 267.523438 L 974.265625 248.160156 L 992.382812 226.855469 L 1007.617188 239.808594 L 988.945312 261.769531 L 968.148438 282.347656 L 945.648438 301.050781 L 921.621094 317.746094 L 896.246094 332.300781 L 869.71875 344.621094 L 842.222656 354.628906 L 813.953125 362.207031 L 785.140625 367.292969 L 756.003906 369.882812 L 726.75 369.964844 L 697.597656 367.523438 L 668.761719 362.574219 L 640.457031 355.152344 L 613.308594 345.464844 Z M 612.335938 338.546875 L 621 333.546875 L 705.332031 479.617188 L 696.671875 484.617188 Z M 702.296875 486.945312 L 699.707031 477.285156 L 998.707031 397.167969 L 1001.292969 406.828125 Z M 639.023438 347.980469 L 647.804688 343.195312 L 720.054688 475.796875 L 711.273438 480.578125 Z M 702.296875 486.945312 L 699.707031 477.285156 L 998.707031 397.167969 L 1001.292969 406.828125 Z M 666.421875 355.058594 L 675.335938 350.523438 L 736.824219 471.445312 L 727.910156 475.976562 Z M 702.296875 486.945312 L 699.707031 477.285156 L 998.707031 397.167969 L 1001.292969 406.828125 Z M 694.335938 359.714844 L 703.386719 355.472656 L 755.484375 466.609375 L 746.429688 470.851562 Z M 702.296875 486.945312 L 699.707031 477.285156 L 998.707031 397.167969 L 1001.292969 406.828125 Z M 722.554688 361.925781 L 731.753906 358.003906 L 775.808594 461.34375 L 766.609375 465.265625 Z M 702.296875 486.945312 L 699.707031 477.285156 L 998.707031 397.167969 L 1001.292969 406.828125 Z M 750.875 361.667969 L 760.214844 358.097656 L 797.5 455.726562 L 788.15625 459.296875 Z M 702.296875 486.945312 L 699.707031 477.285156 L 998.707031 397.167969 L 1001.292969 406.828125 Z M 779.085938 358.964844 L 788.566406 355.777344 L 820.210938 449.851562 L 810.730469 453.039062 Z M 702.296875 486.945312 L 699.707031 477.285156 L 998.707031 397.167969 L 1001.292969 406.828125 Z M 806.984375 353.832031 L 816.589844 351.039062 L 843.550781 443.8125 L 833.949219 446.601562 Z M 702.296875 486.945312 L 699.707031 477.285156 L 998.707031 397.167969 L 1001.292969 406.828125 Z M 834.355469 346.277344 L 844.070312 343.890625 L 867.105469 437.71875 L 857.390625 440.101562 Z M 702.296875 486.945312 L 699.707031 477.285156 L 998.707031 397.167969 L 1001.292969 406.828125 Z M 860.992188 336.363281 L 870.796875 334.382812 L 890.429688 431.683594 L 880.625 433.660156 Z M 702.296875 486.945312 L 699.707031 477.285156 L 998.707031 397.167969 L 1001.292969 406.828125 Z M 886.707031 324.203125 L 896.582031 322.621094 L 913.105469 425.8125 L 903.234375 427.394531 Z M 702.296875 486.945312 L 699.707031 477.285156 L 998.707031 397.167969 L 1001.292969 406.828125 Z M 911.308594 309.886719 L 921.234375 308.683594 L 934.753906 420.210938 L 924.828125 421.414062 Z M 702.296875 486.945312 L 699.707031 477.285156 L 998.707031 397.167969 L 1001.292969 406.828125 Z M 934.605469 293.511719 L 944.570312 292.660156 L 955.019531 414.960938 L 945.058594 415.8125 Z M 702.296875 486.945312 L 699.707031 477.285156 L 998.707031 397.167969 L 1001.292969 406.828125 Z M 956.429688 275.203125 L 966.414062 274.671875 L 973.621094 410.140625 L 963.636719 410.671875 Z M 702.296875 486.945312 L 699.707031 477.285156 L 998.707031 397.167969 L 1001.292969 406.828125 Z M 976.605469 255.085938 L 986.601562 254.839844 L 990.332031 405.804688 L 980.332031 406.054688 Z M 702.296875 486.945312 L 699.707031 477.285156 L 998.707031 397.167969 L 1001.292969 406.828125 Z M 995 233.332031 L 1005 233.332031 L 1005 402 L 995 402 Z M 702.296875 486.945312 L 699.707031 477.285156 L 998.707031 397.167969 L 1001.292969 406.828125 Z M 702.296875 486.945312 "/>
<path fill-rule="nonzero" fill="url(#radial-pattern-21)" d="M 753.929688 557.789062 L 740.074219 565.789062 L 609.738281 340.046875 L 623.597656 332.046875 Z M 753.929688 557.789062 L 767 561.789062 C 767 572.835938 758.046875 581.789062 747 581.789062 C 735.957031 581.789062 727 572.835938 727 561.789062 C 727 550.746094 735.957031 541.789062 747 541.789062 C 758.046875 541.789062 767 550.746094 767 561.789062 Z M 753.929688 557.789062 "/>
<path fill-rule="nonzero" fill="url(#radial-pattern-22)" d="M 1007.621094 226.855469 L 1025.730469 248.164062 L 1045.296875 267.53125 L 1066.464844 285.128906 L 1089.074219 300.832031 L 1112.953125 314.53125 L 1137.921875 326.128906 L 1163.792969 335.542969 L 1190.375 342.664062 L 1217.484375 347.449219 L 1244.910156 349.886719 L 1272.441406 349.960938 L 1299.871094 347.664062 L 1327.003906 343.007812 L 1353.632812 336.023438 L 1379.972656 326.628906 L 1386.691406 345.464844 L 1359.539062 355.148438 L 1331.238281 362.570312 L 1302.402344 367.523438 L 1273.25 369.964844 L 1243.996094 369.882812 L 1214.859375 367.292969 L 1186.042969 362.210938 L 1157.773438 354.632812 L 1130.277344 344.628906 L 1103.746094 332.304688 L 1078.371094 317.75 L 1054.34375 301.058594 L 1031.84375 282.355469 L 1011.046875 261.773438 L 992.378906 239.808594 Z M 995 233.332031 L 1005 233.332031 L 1005 402 L 995 402 Z M 998.707031 406.828125 L 1001.292969 397.167969 L 1300.292969 477.285156 L 1297.703125 486.945312 Z M 1013.390625 254.847656 L 1023.386719 255.09375 L 1019.660156 406.050781 L 1009.664062 405.804688 Z M 998.707031 406.828125 L 1001.292969 397.167969 L 1300.292969 477.285156 L 1297.703125 486.945312 Z M 1033.578125 274.675781 L 1043.5625 275.207031 L 1036.359375 410.667969 L 1026.371094 410.136719 Z M 998.707031 406.828125 L 1001.292969 397.167969 L 1300.292969 477.285156 L 1297.703125 486.945312 Z M 1055.421875 292.667969 L 1065.386719 293.519531 L 1054.9375 415.808594 L 1044.972656 414.957031 Z M 998.707031 406.828125 L 1001.292969 397.167969 L 1300.292969 477.285156 L 1297.703125 486.945312 Z M 1078.757812 308.6875 L 1088.6875 309.894531 L 1075.167969 421.414062 L 1065.242188 420.210938 Z M 998.707031 406.828125 L 1001.292969 397.167969 L 1300.292969 477.285156 L 1297.703125 486.945312 Z M 1103.414062 322.628906 L 1113.289062 324.210938 L 1096.761719 427.394531 L 1086.886719 425.8125 Z M 998.707031 406.828125 L 1001.292969 397.167969 L 1300.292969 477.285156 L 1297.703125 486.945312 Z M 1129.199219 334.390625 L 1139 336.367188 L 1119.371094 433.660156 L 1109.566406 431.683594 Z M 998.707031 406.828125 L 1001.292969 397.167969 L 1300.292969 477.285156 L 1297.703125 486.945312 Z M 1155.925781 343.894531 L 1165.636719 346.28125 L 1142.605469 440.101562 L 1132.894531 437.71875 Z M 998.707031 406.828125 L 1001.292969 397.167969 L 1300.292969 477.285156 L 1297.703125 486.945312 Z M 1183.40625 351.042969 L 1193.011719 353.832031 L 1166.046875 446.601562 L 1156.445312 443.808594 Z M 998.707031 406.828125 L 1001.292969 397.167969 L 1300.292969 477.285156 L 1297.703125 486.945312 Z M 1211.433594 355.777344 L 1220.910156 358.964844 L 1189.265625 453.039062 L 1179.789062 449.847656 Z M 998.707031 406.828125 L 1001.292969 397.167969 L 1300.292969 477.285156 L 1297.703125 486.945312 Z M 1239.78125 358.101562 L 1249.125 361.667969 L 1211.839844 459.292969 L 1202.5 455.726562 Z M 998.707031 406.828125 L 1001.292969 397.167969 L 1300.292969 477.285156 L 1297.703125 486.945312 Z M 1268.246094 358.003906 L 1277.441406 361.925781 L 1233.390625 465.265625 L 1224.191406 461.34375 Z M 998.707031 406.828125 L 1001.292969 397.167969 L 1300.292969 477.285156 L 1297.703125 486.945312 Z M 1296.609375 355.46875 L 1305.664062 359.714844 L 1253.566406 470.851562 L 1244.511719 466.609375 Z M 998.707031 406.828125 L 1001.292969 397.167969 L 1300.292969 477.285156 L 1297.703125 486.945312 Z M 1324.664062 350.523438 L 1333.578125 355.054688 L 1272.085938 475.976562 L 1263.171875 471.445312 Z M 998.707031 406.828125 L 1001.292969 397.167969 L 1300.292969 477.285156 L 1297.703125 486.945312 Z M 1352.195312 343.195312 L 1360.976562 347.980469 L 1288.722656 480.578125 L 1279.941406 475.792969 Z M 998.707031 406.828125 L 1001.292969 397.167969 L 1300.292969 477.285156 L 1297.703125 486.945312 Z M 1379 333.546875 L 1387.664062 338.546875 L 1303.328125 484.617188 L 1294.667969 479.617188 Z M 998.707031 406.828125 L 1001.292969 397.167969 L 1300.292969 477.285156 L 1297.703125 486.945312 Z M 998.707031 406.828125 "/>
<path fill-rule="nonzero" fill="url(#radial-pattern-23)" d="M 1008 494 L 992 494 L 992 233.332031 L 1008 233.332031 Z M 1008 494 L 1020 494 C 1020 505.042969 1011.046875 514 1000 514 C 988.953125 514 980 505.042969 980 494 C 980 482.953125 988.953125 474 1000 474 C 1011.046875 474 1020 482.953125 1020 494 Z M 1008 494 "/>
</svg>
