<svg xmlns="http://www.w3.org/2000/svg" xml:space="preserve" style="fill-rule:evenodd;clip-rule:evenodd;stroke-linejoin:round;stroke-miterlimit:2" viewBox="0 0 1000 1000">
  <path d="M599.68 679.76a12 12 0 1 1-24 0 12 12 0 0 1 24 0Z" style="fill:#2758fe;fill-opacity:.9;fill-rule:nonzero"/>
  <path d="M388.3 658.4a12.04 12.04 0 1 1-24.09 0 12.04 12.04 0 0 1 24.09 0Z" style="fill:#9457b1;fill-opacity:.9;fill-rule:nonzero"/>
  <path d="M314.5 458a12.1 12.1 0 1 1-24.18 0 12.1 12.1 0 0 1 24.18 0Z" style="fill:#ca3b33;fill-opacity:.9;fill-rule:nonzero"/>
  <path d="M463.03 303.03a12.14 12.14 0 1 1-24.27 0 12.14 12.14 0 0 1 24.27 0Z" style="fill:#389725;fill-opacity:.9;fill-rule:nonzero"/>
  <path d="M668.45 368.87a12.18 12.18 0 1 1-24.36 0 12.18 12.18 0 0 1 24.36 0Z" style="fill:#2758fe;fill-opacity:.9;fill-rule:nonzero"/>
  <path d="M699.5 583.38a12.23 12.23 0 1 1-24.45 0 12.23 12.23 0 0 1 24.45 0Z" style="fill:#9457b1;fill-opacity:.9;fill-rule:nonzero"/>
  <path d="M519.46 705.88a12.27 12.27 0 1 1-24.54 0 12.27 12.27 0 0 1 24.54 0Z" style="fill:#ca3b33;fill-opacity:.9;fill-rule:nonzero"/>
  <path d="M329.55 597.18a12.32 12.32 0 1 1-24.64 0 12.32 12.32 0 0 1 24.64 0Z" style="fill:#389725;fill-opacity:.9;fill-rule:nonzero"/>
  <path d="M344.09 377.74a12.36 12.36 0 1 1-24.73 0 12.36 12.36 0 0 1 24.73 0Z" style="fill:#2758fe;fill-opacity:.9;fill-rule:nonzero"/>
  <path d="M548.7 294.18a12.4 12.4 0 1 1-24.81 0 12.4 12.4 0 0 1 24.8 0Z" style="fill:#9457b1;fill-opacity:.9;fill-rule:nonzero"/>
  <path d="M714.32 442.12a12.45 12.45 0 1 1-24.91 0 12.45 12.45 0 0 1 24.9 0Z" style="fill:#ca3b33;fill-opacity:.9;fill-rule:nonzero"/>
  <path d="M653.68 656.8a12.5 12.5 0 1 1-24.99 0 12.5 12.5 0 0 1 25 0Z" style="fill:#389725;fill-opacity:.9;fill-rule:nonzero"/>
  <path d="M433.13 696.56a12.54 12.54 0 1 1-25.09 0 12.54 12.54 0 0 1 25.08 0Z" style="fill:#2758fe;fill-opacity:.9;fill-rule:nonzero"/>
  <path d="M300.1 514.86a12.58 12.58 0 1 1-25.16 0 12.58 12.58 0 0 1 25.17 0Z" style="fill:#9457b1;fill-opacity:.9;fill-rule:nonzero"/>
  <path d="M405.63 314.67a12.63 12.63 0 1 1-25.26 0 12.63 12.63 0 0 1 25.26 0Z" style="fill:#ca3b33;fill-opacity:.9;fill-rule:nonzero"/>
  <path d="M632.9 321.76a12.68 12.68 0 1 1-25.35 0 12.68 12.68 0 0 1 25.36 0Z" style="fill:#389725;fill-opacity:.9;fill-rule:nonzero"/>
  <path d="M726.62 530.06a12.72 12.72 0 1 1-25.44 0 12.72 12.72 0 0 1 25.44 0Z" style="fill:#2758fe;fill-opacity:.9;fill-rule:nonzero"/>
  <path d="M579.82 706.38a12.77 12.77 0 1 1-25.53 0 12.77 12.77 0 0 1 25.53 0Z" style="fill:#9457b1;fill-opacity:.9;fill-rule:nonzero"/>
  <path d="M356 651.43a12.81 12.81 0 1 1-25.63.01 12.81 12.81 0 0 1 25.63 0Z" style="fill:#ca3b33;fill-opacity:.9;fill-rule:nonzero"/>
  <path d="M307.07 425.1a12.86 12.86 0 1 1-25.72 0 12.86 12.86 0 0 1 25.72 0Z" style="fill:#389725;fill-opacity:.9;fill-rule:nonzero"/>
  <path d="M489.91 281.2a12.9 12.9 0 1 1-25.81 0 12.9 12.9 0 0 1 25.81 0Z" style="fill:#2758fe;fill-opacity:.9;fill-rule:nonzero"/>
  <path d="M700.37 382.89a12.95 12.95 0 1 1-25.9 0 12.95 12.95 0 0 1 25.9 0Z" style="fill:#9457b1;fill-opacity:.9;fill-rule:nonzero"/>
  <path d="M701.26 617.64a13 13 0 1 1-25.99 0 13 13 0 0 1 26 0Z" style="fill:#ca3b33;fill-opacity:.9;fill-rule:nonzero"/>
  <path d="M489.73 721.78a13.04 13.04 0 1 1-26.08 0 13.04 13.04 0 0 1 26.08 0Z" style="fill:#389725;fill-opacity:.9;fill-rule:nonzero"/>
  <path d="M302.6 576.61a13.09 13.09 0 1 1-26.18 0 13.09 13.09 0 0 1 26.17 0Z" style="fill:#2758fe;fill-opacity:.9;fill-rule:nonzero"/>
  <path d="M351.28 343.7a13.13 13.13 0 1 1-26.26 0 13.13 13.13 0 0 1 26.26 0Z" style="fill:#9457b1;fill-opacity:.9;fill-rule:nonzero"/>
  <path d="M583.02 285.06a13.18 13.18 0 1 1-26.36 0 13.18 13.18 0 0 1 26.36 0Z" style="fill:#ca3b33;fill-opacity:.9;fill-rule:nonzero"/>
  <path d="M738.01 468.4a13.22 13.22 0 1 1-26.44.01 13.22 13.22 0 0 1 26.44 0Z" style="fill:#389725;fill-opacity:.9;fill-rule:nonzero"/>
  <path d="M640.76 689.02a13.26 13.26 0 1 1-26.52 0 13.26 13.26 0 0 1 26.52 0Z" style="fill:#2758fe;fill-opacity:.9;fill-rule:nonzero"/>
  <path d="M398.81 698.32a13.31 13.31 0 1 1-26.62 0 13.31 13.31 0 0 1 26.62 0Z" style="fill:#9457b1;fill-opacity:.9;fill-rule:nonzero"/>
  <path d="M283.92 483.96a13.36 13.36 0 1 1-26.72 0 13.36 13.36 0 0 1 26.72 0Z" style="fill:#ca3b33;fill-opacity:.9;fill-rule:nonzero"/>
  <path d="M426.87 285.82a13.4 13.4 0 1 1-26.8 0 13.4 13.4 0 0 1 26.8 0Z" style="fill:#389725;fill-opacity:.9;fill-rule:nonzero"/>
  <path d="M668.68 327.59a13.45 13.45 0 1 1-26.9 0 13.45 13.45 0 0 1 26.9 0Z" style="fill:#2758fe;fill-opacity:.9;fill-rule:nonzero"/>
  <path d="M737.47 564.22a13.49 13.49 0 1 1-26.98 0 13.49 13.49 0 0 1 26.98 0Z" style="fill:#9457b1;fill-opacity:.9;fill-rule:nonzero"/>
  <path d="M554.17 730.45a13.54 13.54 0 1 1-27.08 0 13.54 13.54 0 0 1 27.08 0Z" style="fill:#ca3b33;fill-opacity:.9;fill-rule:nonzero"/>
  <path d="M323.46 638.13a13.58 13.58 0 1 1-27.16 0 13.58 13.58 0 0 1 27.16 0Z" style="fill:#389725;fill-opacity:.9;fill-rule:nonzero"/>
  <path d="M305.25 389.2a13.63 13.63 0 1 1-27.25 0 13.63 13.63 0 0 1 27.25 0Z" style="fill:#2758fe;fill-opacity:.9;fill-rule:nonzero"/>
  <path d="M521.95 263.14a13.67 13.67 0 1 1-27.35 0 13.67 13.67 0 0 1 27.35 0Z" style="fill:#9457b1;fill-opacity:.9;fill-rule:nonzero"/>
  <path d="M731.14 403.2a13.72 13.72 0 1 1-27.43 0 13.72 13.72 0 0 1 27.43 0Z" style="fill:#ca3b33;fill-opacity:.9;fill-rule:nonzero"/>
  <path d="M696.85 653.63a13.76 13.76 0 1 1-27.53 0 13.76 13.76 0 0 1 27.53 0Z" style="fill:#389725;fill-opacity:.9;fill-rule:nonzero"/>
  <path d="M455.75 732.87a13.8 13.8 0 1 1-27.62 0 13.8 13.8 0 0 1 27.62 0Z" style="fill:#2758fe;fill-opacity:.9;fill-rule:nonzero"/>
  <path d="M278.12 550.1a13.86 13.86 0 1 1-27.7 0 13.86 13.86 0 0 1 27.7 0Z" style="fill:#9457b1;fill-opacity:.9;fill-rule:nonzero"/>
  <path d="M364.91 309.3a13.9 13.9 0 1 1-27.8 0 13.9 13.9 0 0 1 27.8 0Z" style="fill:#ca3b33;fill-opacity:.9;fill-rule:nonzero"/>
  <path d="M620.47 281.6a13.95 13.95 0 1 1-27.9 0 13.95 13.95 0 0 1 27.9 0Z" style="fill:#389725;fill-opacity:.9;fill-rule:nonzero"/>
  <path d="M757.99 500a13.99 13.99 0 1 1-27.97 0 13.99 13.99 0 0 1 27.97 0Z" style="fill:#2758fe;fill-opacity:.9;fill-rule:nonzero"/>
  <path d="M621.44 720.2a14.03 14.03 0 1 1-28.07 0 14.03 14.03 0 0 1 28.07 0Z" style="fill:#9457b1;fill-opacity:.9;fill-rule:nonzero"/>
  <path d="M362.63 693.85a14.08 14.08 0 1 1-28.16 0 14.08 14.08 0 0 1 28.16 0Z" style="fill:#ca3b33;fill-opacity:.9;fill-rule:nonzero"/>
  <path d="M272.52 448.64a14.13 14.13 0 1 1-28.25 0 14.13 14.13 0 0 1 28.25 0Z" style="fill:#389725;fill-opacity:.9;fill-rule:nonzero"/>
  <path d="M454.18 259.37a14.18 14.18 0 1 1-28.36-.01 14.18 14.18 0 0 1 28.36 0Z" style="fill:#2758fe;fill-opacity:.9;fill-rule:nonzero"/>
  <path d="M704.96 339.94a14.21 14.21 0 1 1-28.43 0 14.21 14.21 0 0 1 28.43 0Z" style="fill:#9457b1;fill-opacity:.9;fill-rule:nonzero"/>
  <path d="M742.65 601.68a14.26 14.26 0 1 1-28.53 0 14.26 14.26 0 0 1 28.53 0Z" style="fill:#ca3b33;fill-opacity:.9;fill-rule:nonzero"/>
  <path d="M523.07 750.85a14.3 14.3 0 1 1-28.61 0 14.3 14.3 0 0 1 28.6 0Z" style="fill:#389725;fill-opacity:.9;fill-rule:nonzero"/>
  <path d="M291.85 618.3a14.35 14.35 0 1 1-28.7 0 14.35 14.35 0 0 1 28.7 0Z" style="fill:#2758fe;fill-opacity:.9;fill-rule:nonzero"/>
  <path d="M309.71 351.29a14.4 14.4 0 1 1-28.79 0 14.4 14.4 0 0 1 28.8 0Z" style="fill:#9457b1;fill-opacity:.9;fill-rule:nonzero"/>
  <path d="M558.55 249.86a14.44 14.44 0 1 1-28.89 0 14.44 14.44 0 0 1 28.9 0Z" style="fill:#ca3b33;fill-opacity:.9;fill-rule:nonzero"/>
  <path d="M759.6 429.71a14.49 14.49 0 1 1-28.97 0 14.49 14.49 0 0 1 28.98 0Z" style="fill:#389725;fill-opacity:.9;fill-rule:nonzero"/>
  <path d="M685.83 690.25a14.53 14.53 0 1 1-29.07-.01 14.53 14.53 0 0 1 29.07 0Z" style="fill:#2758fe;fill-opacity:.9;fill-rule:nonzero"/>
  <path d="M418.3 738.28a14.58 14.58 0 1 1-29.15 0 14.58 14.58 0 0 1 29.16 0Z" style="fill:#9457b1;fill-opacity:.9;fill-rule:nonzero"/>
  <path d="M257.25 518a14.62 14.62 0 1 1-29.25 0 14.62 14.62 0 0 1 29.25 0Z" style="fill:#ca3b33;fill-opacity:.9;fill-rule:nonzero"/>
  <path d="M385.17 275.7a14.67 14.67 0 1 1-29.34 0 14.67 14.67 0 0 1 29.34 0Z" style="fill:#389725;fill-opacity:.9;fill-rule:nonzero"/>
  <path d="M660.1 284.45a14.71 14.71 0 1 1-29.42 0 14.71 14.71 0 0 1 29.43 0Z" style="fill:#2758fe;fill-opacity:.9;fill-rule:nonzero"/>
  <path d="M773.22 536.32a14.76 14.76 0 1 1-29.52 0 14.76 14.76 0 0 1 29.52 0Z" style="fill:#9457b1;fill-opacity:.9;fill-rule:nonzero"/>
  <path d="M595.77 749.18a14.8 14.8 0 1 1-29.61 0 14.8 14.8 0 0 1 29.6 0Z" style="fill:#ca3b33;fill-opacity:.9;fill-rule:nonzero"/>
  <path d="M325.66 682.7a14.85 14.85 0 1 1-29.7 0 14.85 14.85 0 0 1 29.7 0Z" style="fill:#389725;fill-opacity:.9;fill-rule:nonzero"/>
  <path d="M266.82 409.7a14.9 14.9 0 1 1-29.8 0 14.9 14.9 0 0 1 29.8 0Z" style="fill:#2758fe;fill-opacity:.9;fill-rule:nonzero"/>
  <path d="M487.24 236.45a14.94 14.94 0 1 1-29.88 0 14.94 14.94 0 0 1 29.88 0Z" style="fill:#9457b1;fill-opacity:.9;fill-rule:nonzero"/>
  <path d="M740.57 359.04a14.99 14.99 0 1 1-29.98 0 14.99 14.99 0 0 1 29.98 0Z" style="fill:#ca3b33;fill-opacity:.9;fill-rule:nonzero"/>
  <path d="M741.46 641.49a15.03 15.03 0 1 1-30.06 0 15.03 15.03 0 0 1 30.06 0Z" style="fill:#389725;fill-opacity:.9;fill-rule:nonzero"/>
  <path d="M487.06 766.53a15.07 15.07 0 1 1-30.14 0 15.07 15.07 0 0 1 30.14 0Z" style="fill:#2758fe;fill-opacity:.9;fill-rule:nonzero"/>
  <path d="M262.34 592a15.12 15.12 0 1 1-30.24 0 15.12 15.12 0 0 1 30.24 0Z" style="fill:#9457b1;fill-opacity:.9;fill-rule:nonzero"/>
  <path d="M320.94 312.44a15.17 15.17 0 1 1-30.34 0 15.17 15.17 0 0 1 30.34 0Z" style="fill:#ca3b33;fill-opacity:.9;fill-rule:nonzero"/>
  <path d="M598.95 242.27a15.21 15.21 0 1 1-30.42 0 15.21 15.21 0 0 1 30.42 0Z" style="fill:#389725;fill-opacity:.9;fill-rule:nonzero"/>
  <path d="M784.6 462.14a15.26 15.26 0 1 1-30.5 0 15.26 15.26 0 0 1 30.5 0Z" style="fill:#2758fe;fill-opacity:.9;fill-rule:nonzero"/>
  <path d="M667.96 726.33a15.3 15.3 0 1 1-30.6 0 15.3 15.3 0 0 1 30.6 0Z" style="fill:#9457b1;fill-opacity:.9;fill-rule:nonzero"/>
  <path d="M378.35 737.29a15.35 15.35 0 1 1-30.7 0 15.35 15.35 0 0 1 30.7 0Z" style="fill:#ca3b33;fill-opacity:.9;fill-rule:nonzero"/>
  <path d="M241.06 480.82a15.4 15.4 0 1 1-30.78 0 15.4 15.4 0 0 1 30.78 0Z" style="fill:#389725;fill-opacity:.9;fill-rule:nonzero"/>
  <path d="M412.05 244.1a15.44 15.44 0 1 1-30.88 0 15.44 15.44 0 0 1 30.88 0Z" style="fill:#2758fe;fill-opacity:.9;fill-rule:nonzero"/>
  <path d="M700.83 294.15a15.49 15.49 0 1 1-30.97 0 15.49 15.49 0 0 1 30.97 0Z" style="fill:#9457b1;fill-opacity:.9;fill-rule:nonzero"/>
  <path d="M782.76 576.63a15.53 15.53 0 1 1-31.06 0 15.53 15.53 0 0 1 31.06 0Z" style="fill:#ca3b33;fill-opacity:.9;fill-rule:nonzero"/>
  <path d="M564.02 774.76a15.57 15.57 0 1 1-31.15 0 15.57 15.57 0 0 1 31.15 0Z" style="fill:#389725;fill-opacity:.9;fill-rule:nonzero"/>
  <path d="M289.1 664.58a15.62 15.62 0 1 1-31.24 0 15.62 15.62 0 0 1 31.23 0Z" style="fill:#2758fe;fill-opacity:.9;fill-rule:nonzero"/>
  <path d="M267.56 368.08a15.66 15.66 0 1 1-31.33 0 15.66 15.66 0 0 1 31.33 0Z" style="fill:#9457b1;fill-opacity:.9;fill-rule:nonzero"/>
  <path d="M525.55 218.17a15.7 15.7 0 1 1-31.42 0 15.7 15.7 0 0 1 31.42 0Z" style="fill:#ca3b33;fill-opacity:.9;fill-rule:nonzero"/>
  <path d="M774.29 384.9a15.76 15.76 0 1 1-31.51-.01 15.76 15.76 0 0 1 31.5 0Z" style="fill:#389725;fill-opacity:.9;fill-rule:nonzero"/>
  <path d="M733.36 682.55a15.8 15.8 0 1 1-31.6 0 15.8 15.8 0 0 1 31.6 0Z" style="fill:#2758fe;fill-opacity:.9;fill-rule:nonzero"/>
  <path d="M446.9 776.53a15.84 15.84 0 1 1-31.69 0 15.84 15.84 0 0 1 31.69 0Z" style="fill:#9457b1;fill-opacity:.9;fill-rule:nonzero"/>
  <path d="M236.14 559.46a15.9 15.9 0 1 1-31.78 0 15.9 15.9 0 0 1 31.78 0Z" style="fill:#ca3b33;fill-opacity:.9;fill-rule:nonzero"/>
  <path d="M339.24 273.84a15.94 15.94 0 1 1-31.87 0 15.94 15.94 0 0 1 31.87 0Z" style="fill:#389725;fill-opacity:.9;fill-rule:nonzero"/>
  <path d="M642.23 241.15a15.98 15.98 0 1 1-31.96 0 15.98 15.98 0 0 1 31.96 0Z" style="fill:#2758fe;fill-opacity:.9;fill-rule:nonzero"/>
  <path d="M805.02 500a16.02 16.02 0 1 1-32.04 0 16.02 16.02 0 0 1 32.04 0Z" style="fill:#9457b1;fill-opacity:.9;fill-rule:nonzero"/>
  <path d="M643.2 760.65a16.07 16.07 0 1 1-32.14 0 16.07 16.07 0 0 1 32.14 0Z" style="fill:#ca3b33;fill-opacity:.9;fill-rule:nonzero"/>
  <path d="M336.96 729.31a16.11 16.11 0 1 1-32.23 0 16.11 16.11 0 0 1 32.23 0Z" style="fill:#389725;fill-opacity:.9;fill-rule:nonzero"/>
  <path d="M230.54 439.29a16.16 16.16 0 1 1-32.32 0 16.16 16.16 0 0 1 32.32 0Z" style="fill:#2758fe;fill-opacity:.9;fill-rule:nonzero"/>
  <path d="M445.32 215.7a16.2 16.2 0 1 1-32.41 0 16.2 16.2 0 0 1 32.41 0Z" style="fill:#9457b1;fill-opacity:.9;fill-rule:nonzero"/>
  <path d="M741.47 311.02a16.25 16.25 0 1 1-32.5 0 16.25 16.25 0 0 1 32.5 0Z" style="fill:#ca3b33;fill-opacity:.9;fill-rule:nonzero"/>
  <path d="M785.8 619.99a16.3 16.3 0 1 1-32.6 0 16.3 16.3 0 0 1 32.6 0Z" style="fill:#389725;fill-opacity:.9;fill-rule:nonzero"/>
  <path d="M526.67 795.82a16.34 16.34 0 1 1-32.68 0 16.34 16.34 0 0 1 32.68 0Z" style="fill:#2758fe;fill-opacity:.9;fill-rule:nonzero"/>
  <path d="M254.15 639.43a16.39 16.39 0 1 1-32.77 0 16.39 16.39 0 0 1 32.77 0Z" style="fill:#9457b1;fill-opacity:.9;fill-rule:nonzero"/>
  <path d="M275.34 324.84a16.43 16.43 0 1 1-32.86 0 16.43 16.43 0 0 1 32.86 0Z" style="fill:#ca3b33;fill-opacity:.9;fill-rule:nonzero"/>
  <path d="M568.4 205.54a16.48 16.48 0 1 1-32.95 0 16.48 16.48 0 0 1 32.95 0Z" style="fill:#389725;fill-opacity:.9;fill-rule:nonzero"/>
  <path d="M804.9 417.3a16.52 16.52 0 1 1-33.05 0 16.52 16.52 0 0 1 33.05 0Z" style="fill:#2758fe;fill-opacity:.9;fill-rule:nonzero"/>
  <path d="M717.98 723.69a16.57 16.57 0 1 1-33.14 0 16.57 16.57 0 0 1 33.14 0Z" style="fill:#9457b1;fill-opacity:.9;fill-rule:nonzero"/>
  <path d="M403.48 780a16.61 16.61 0 1 1-33.22.01 16.61 16.61 0 0 1 33.22 0Z" style="fill:#ca3b33;fill-opacity:.9;fill-rule:nonzero"/>
  <path d="M214.4 521.14a16.66 16.66 0 1 1-33.32 0 16.66 16.66 0 0 1 33.31 0Z" style="fill:#389725;fill-opacity:.9;fill-rule:nonzero"/>
  <path d="M364.7 236.73a16.7 16.7 0 1 1-33.4 0 16.7 16.7 0 0 1 33.4 0Z" style="fill:#2758fe;fill-opacity:.9;fill-rule:nonzero"/>
  <path d="M687.3 247.15a16.74 16.74 0 1 1-33.49 0 16.74 16.74 0 0 1 33.5 0Z" style="fill:#9457b1;fill-opacity:.9;fill-rule:nonzero"/>
  <path d="M819.82 542.59a16.8 16.8 0 1 1-33.6 0 16.8 16.8 0 0 1 33.6 0Z" style="fill:#ca3b33;fill-opacity:.9;fill-rule:nonzero"/>
  <path d="M611.7 791.97a16.84 16.84 0 1 1-33.67 0 16.84 16.84 0 0 1 33.68 0Z" style="fill:#389725;fill-opacity:.9;fill-rule:nonzero"/>
  <path d="M295.33 713.95a16.88 16.88 0 1 1-33.77 0 16.88 16.88 0 0 1 33.77 0Z" style="fill:#2758fe;fill-opacity:.9;fill-rule:nonzero"/>
  <path d="M226.57 394.32a16.93 16.93 0 1 1-33.87 0 16.93 16.93 0 0 1 33.87 0Z" style="fill:#9457b1;fill-opacity:.9;fill-rule:nonzero"/>
  <path d="M484.57 191.7a16.97 16.97 0 1 1-33.94 0 16.97 16.97 0 0 1 33.94 0Z" style="fill:#ca3b33;fill-opacity:.9;fill-rule:nonzero"/>
  <path d="M780.76 335.2a17.02 17.02 0 1 1-34.04 0 17.02 17.02 0 0 1 34.04 0Z" style="fill:#389725;fill-opacity:.9;fill-rule:nonzero"/>
  <path d="M781.66 665.34a17.06 17.06 0 1 1-34.13 0 17.06 17.06 0 0 1 34.13 0Z" style="fill:#2758fe;fill-opacity:.9;fill-rule:nonzero"/>
  <path d="M484.4 811.28a17.11 17.11 0 1 1-34.23 0 17.11 17.11 0 0 1 34.22 0Z" style="fill:#9457b1;fill-opacity:.9;fill-rule:nonzero"/>
  <path d="M222.1 607.4a17.16 17.16 0 1 1-34.32 0 17.16 17.16 0 0 1 34.31 0Z" style="fill:#ca3b33;fill-opacity:.9;fill-rule:nonzero"/>
  <path d="M290.6 281.18a17.2 17.2 0 1 1-34.4 0 17.2 17.2 0 0 1 34.4 0Z" style="fill:#389725;fill-opacity:.9;fill-rule:nonzero"/>
  <path d="M614.9 199.47a17.24 17.24 0 1 1-34.5 0 17.24 17.24 0 0 1 34.5 0Z" style="fill:#2758fe;fill-opacity:.9;fill-rule:nonzero"/>
  <path d="M831.2 455.88a17.29 17.29 0 1 1-34.57 0 17.29 17.29 0 0 1 34.58 0Z" style="fill:#9457b1;fill-opacity:.9;fill-rule:nonzero"/>
  <path d="M695.16 763.63a17.34 17.34 0 1 1-34.67 0 17.34 17.34 0 0 1 34.67 0Z" style="fill:#ca3b33;fill-opacity:.9;fill-rule:nonzero"/>
  <path d="M357.88 776.26a17.38 17.38 0 1 1-34.76 0 17.38 17.38 0 0 1 34.76 0Z" style="fill:#389725;fill-opacity:.9;fill-rule:nonzero"/>
  <path d="M198.2 477.68a17.43 17.43 0 1 1-34.85 0 17.43 17.43 0 0 1 34.86 0Z" style="fill:#2758fe;fill-opacity:.9;fill-rule:nonzero"/>
  <path d="M397.22 202.38a17.47 17.47 0 1 1-34.94 0 17.47 17.47 0 0 1 34.94 0Z" style="fill:#9457b1;fill-opacity:.9;fill-rule:nonzero"/>
  <path d="M732.98 260.7a17.52 17.52 0 1 1-35.04 0 17.52 17.52 0 0 1 35.04 0Z" style="fill:#ca3b33;fill-opacity:.9;fill-rule:nonzero"/>
  <path d="M828.05 589.03a17.56 17.56 0 1 1-35.13 0 17.56 17.56 0 0 1 35.13 0Z" style="fill:#389725;fill-opacity:.9;fill-rule:nonzero"/>
  <path d="M573.87 819.08a17.61 17.61 0 1 1-35.22 0 17.61 17.61 0 0 1 35.22 0Z" style="fill:#2758fe;fill-opacity:.9;fill-rule:nonzero"/>
  <path d="M254.72 691.03a17.65 17.65 0 1 1-35.3 0 17.65 17.65 0 0 1 35.3 0Z" style="fill:#9457b1;fill-opacity:.9;fill-rule:nonzero"/>
  <path d="M229.86 346.95a17.7 17.7 0 1 1-35.4 0 17.7 17.7 0 0 1 35.4 0Z" style="fill:#ca3b33;fill-opacity:.9;fill-rule:nonzero"/>
  <path d="M529.16 173.2a17.74 17.74 0 1 1-35.49 0 17.74 17.74 0 0 1 35.49 0Z" style="fill:#389725;fill-opacity:.9;fill-rule:nonzero"/>
  <path d="M817.43 366.59a17.79 17.79 0 1 1-35.58 0 17.79 17.79 0 0 1 35.58 0Z" style="fill:#2758fe;fill-opacity:.9;fill-rule:nonzero"/>
  <path d="M769.86 711.48a17.83 17.83 0 1 1-35.67 0 17.83 17.83 0 0 1 35.67 0Z" style="fill:#9457b1;fill-opacity:.9;fill-rule:nonzero"/>
  <path d="M438.05 820.2a17.88 17.88 0 1 1-35.77-.01 17.88 17.88 0 0 1 35.77 0Z" style="fill:#ca3b33;fill-opacity:.9;fill-rule:nonzero"/>
  <path d="M194.16 568.82a17.92 17.92 0 1 1-35.85 0 17.92 17.92 0 0 1 35.85 0Z" style="fill:#389725;fill-opacity:.9;fill-rule:nonzero"/>
  <path d="M313.57 238.38a17.97 17.97 0 1 1-35.94 0 17.97 17.97 0 0 1 35.94 0Z" style="fill:#2758fe;fill-opacity:.9;fill-rule:nonzero"/>
  <path d="M664 200.7a18.01 18.01 0 1 1-36.03 0 18.01 18.01 0 0 1 36.02 0Z" style="fill:#9457b1;fill-opacity:.9;fill-rule:nonzero"/>
  <path d="M852.06 500a18.06 18.06 0 1 1-36.12 0 18.06 18.06 0 0 1 36.12 0Z" style="fill:#ca3b33;fill-opacity:.9;fill-rule:nonzero"/>
  <path d="M664.96 801.1a18.1 18.1 0 1 1-36.21 0 18.1 18.1 0 0 1 36.21 0Z" style="fill:#389725;fill-opacity:.9;fill-rule:nonzero"/>
  <path d="M311.29 764.77a18.15 18.15 0 1 1-36.3 0 18.15 18.15 0 0 1 36.3 0Z" style="fill:#2758fe;fill-opacity:.9;fill-rule:nonzero"/>
  <path d="M188.56 429.93a18.2 18.2 0 1 1-36.39 0 18.2 18.2 0 0 1 36.39 0Z" style="fill:#9457b1;fill-opacity:.9;fill-rule:nonzero"/>
  <path d="M436.47 172.04a18.24 18.24 0 1 1-36.48 0 18.24 18.24 0 0 1 36.48 0Z" style="fill:#ca3b33;fill-opacity:.9;fill-rule:nonzero"/>
  <path d="M777.98 282.1a18.29 18.29 0 1 1-36.58 0 18.29 18.29 0 0 1 36.58 0Z" style="fill:#389725;fill-opacity:.9;fill-rule:nonzero"/>
  <path d="M828.94 638.29a18.33 18.33 0 1 1-36.67 0 18.33 18.33 0 0 1 36.67 0Z" style="fill:#2758fe;fill-opacity:.9;fill-rule:nonzero"/>
  <path d="M530.28 840.8a18.37 18.37 0 1 1-36.75 0 18.37 18.37 0 0 1 36.75 0Z" style="fill:#9457b1;fill-opacity:.9;fill-rule:nonzero"/>
  <path d="M216.45 660.56a18.42 18.42 0 1 1-36.84 0 18.42 18.42 0 0 1 36.84 0Z" style="fill:#ca3b33;fill-opacity:.9;fill-rule:nonzero"/>
  <path d="M240.97 298.4a18.46 18.46 0 1 1-36.92 0 18.46 18.46 0 0 1 36.92 0Z" style="fill:#389725;fill-opacity:.9;fill-rule:nonzero"/>
  <path d="M578.25 161.23a18.51 18.51 0 1 1-37.02 0 18.51 18.51 0 0 1 37.02 0Z" style="fill:#2758fe;fill-opacity:.9;fill-rule:nonzero"/>
  <path d="M850.2 404.9a18.56 18.56 0 1 1-37.13 0 18.56 18.56 0 0 1 37.12 0Z" style="fill:#9457b1;fill-opacity:.9;fill-rule:nonzero"/>
  <path d="M750.12 757.13a18.6 18.6 0 1 1-37.2 0 18.6 18.6 0 0 1 37.2 0Z" style="fill:#ca3b33;fill-opacity:.9;fill-rule:nonzero"/>
  <path d="M388.66 821.73a18.65 18.65 0 1 1-37.3 0 18.65 18.65 0 0 1 37.3 0Z" style="fill:#389725;fill-opacity:.9;fill-rule:nonzero"/>
  <path d="M171.54 524.27a18.7 18.7 0 1 1-37.39 0 18.7 18.7 0 0 1 37.4 0Z" style="fill:#2758fe;fill-opacity:.9;fill-rule:nonzero"/>
  <path d="M344.24 197.76a18.74 18.74 0 1 1-37.48 0 18.74 18.74 0 0 1 37.48 0Z" style="fill:#9457b1;fill-opacity:.9;fill-rule:nonzero"/>
  <path d="M714.5 209.84a18.78 18.78 0 1 1-37.57 0 18.78 18.78 0 0 1 37.57 0Z" style="fill:#ca3b33;fill-opacity:.9;fill-rule:nonzero"/>
  <path d="M866.41 548.85a18.83 18.83 0 1 1-37.65 0 18.83 18.83 0 0 1 37.65 0Z" style="fill:#389725;fill-opacity:.9;fill-rule:nonzero"/>
  <path d="M627.65 834.77a18.87 18.87 0 1 1-37.75 0 18.87 18.87 0 0 1 37.75 0Z" style="fill:#2758fe;fill-opacity:.9;fill-rule:nonzero"/>
  <path d="M265 745.22a18.92 18.92 0 1 1-37.84 0 18.92 18.92 0 0 1 37.83 0Z" style="fill:#9457b1;fill-opacity:.9;fill-rule:nonzero"/>
  <path d="M186.31 378.93a18.97 18.97 0 1 1-37.93 0 18.97 18.97 0 0 1 37.93 0Z" style="fill:#ca3b33;fill-opacity:.9;fill-rule:nonzero"/>
  <path d="M481.9 146.94a19 19 0 1 1-38.01 0 19 19 0 0 1 38.01 0Z" style="fill:#389725;fill-opacity:.9;fill-rule:nonzero"/>
  <path d="M820.96 311.35a19.05 19.05 0 1 1-38.1 0 19.05 19.05 0 0 1 38.1 0Z" style="fill:#2758fe;fill-opacity:.9;fill-rule:nonzero"/>
  <path d="M821.86 689.18a19.1 19.1 0 1 1-38.2 0 19.1 19.1 0 0 1 38.2 0Z" style="fill:#9457b1;fill-opacity:.9;fill-rule:nonzero"/>
  <path d="M481.72 856.04a19.14 19.14 0 1 1-38.29 0 19.14 19.14 0 0 1 38.3 0Z" style="fill:#ca3b33;fill-opacity:.9;fill-rule:nonzero"/>
  <path d="M181.84 622.78a19.2 19.2 0 1 1-38.38 0 19.2 19.2 0 0 1 38.38 0Z" style="fill:#389725;fill-opacity:.9;fill-rule:nonzero"/>
  <path d="M260.27 249.92a19.24 19.24 0 1 1-38.47 0 19.24 19.24 0 0 1 38.47 0Z" style="fill:#2758fe;fill-opacity:.9;fill-rule:nonzero"/>
  <path d="M630.84 156.67a19.28 19.28 0 1 1-38.57 0 19.28 19.28 0 0 1 38.57 0Z" style="fill:#9457b1;fill-opacity:.9;fill-rule:nonzero"/>
  <path d="M877.8 449.62a19.33 19.33 0 1 1-38.65 0 19.33 19.33 0 0 1 38.65 0Z" style="fill:#ca3b33;fill-opacity:.9;fill-rule:nonzero"/>
  <path d="M722.36 800.94a19.37 19.37 0 1 1-38.74 0 19.37 19.37 0 0 1 38.74 0Z" style="fill:#389725;fill-opacity:.9;fill-rule:nonzero"/>
  <path d="M337.42 815.23a19.42 19.42 0 1 1-38.83 0 19.42 19.42 0 0 1 38.83 0Z" style="fill:#2758fe;fill-opacity:.9;fill-rule:nonzero"/>
  <path d="M155.35 474.54a19.46 19.46 0 1 1-38.92 0 19.46 19.46 0 0 1 38.92 0Z" style="fill:#9457b1;fill-opacity:.9;fill-rule:nonzero"/>
  <path d="M382.4 160.65a19.5 19.5 0 1 1-39.01 0 19.5 19.5 0 0 1 39.01 0Z" style="fill:#ca3b33;fill-opacity:.9;fill-rule:nonzero"/>
  <path d="M765.13 227.27a19.55 19.55 0 1 1-39.11 0 19.55 19.55 0 0 1 39.1 0Z" style="fill:#389725;fill-opacity:.9;fill-rule:nonzero"/>
  <path d="M873.34 601.43a19.6 19.6 0 1 1-39.2 0 19.6 19.6 0 0 1 39.2 0Z" style="fill:#2758fe;fill-opacity:.9;fill-rule:nonzero"/>
  <path d="M583.72 863.4a19.64 19.64 0 1 1-39.29 0 19.64 19.64 0 0 1 39.29 0Z" style="fill:#9457b1;fill-opacity:.9;fill-rule:nonzero"/>
  <path d="M220.35 717.48a19.69 19.69 0 1 1-39.37 0 19.69 19.69 0 0 1 39.37 0Z" style="fill:#ca3b33;fill-opacity:.9;fill-rule:nonzero"/>
  <path d="M192.16 325.82a19.73 19.73 0 1 1-39.47 0 19.73 19.73 0 0 1 39.47 0Z" style="fill:#389725;fill-opacity:.9;fill-rule:nonzero"/>
  <path d="M532.76 128.23a19.78 19.78 0 1 1-39.56 0 19.78 19.78 0 0 1 39.56 0Z" style="fill:#2758fe;fill-opacity:.9;fill-rule:nonzero"/>
  <path d="M860.58 348.29a19.83 19.83 0 1 1-39.66-.01 19.83 19.83 0 0 1 39.66 0Z" style="fill:#9457b1;fill-opacity:.9;fill-rule:nonzero"/>
  <path d="M806.37 740.4a19.87 19.87 0 1 1-39.74 0 19.87 19.87 0 0 1 39.74 0Z" style="fill:#ca3b33;fill-opacity:.9;fill-rule:nonzero"/>
  <path d="M429.2 863.86a19.92 19.92 0 1 1-39.84 0 19.92 19.92 0 0 1 39.83 0Z" style="fill:#389725;fill-opacity:.9;fill-rule:nonzero"/>
  <path d="M152.18 578.18a19.96 19.96 0 1 1-39.92 0 19.96 19.96 0 0 1 39.92 0Z" style="fill:#2758fe;fill-opacity:.9;fill-rule:nonzero"/>
  <path d="M287.9 202.92a20 20 0 1 1-40.01 0 20 20 0 0 1 40.01 0Z" style="fill:#9457b1;fill-opacity:.9;fill-rule:nonzero"/>
  <path d="M685.75 160.25a20.05 20.05 0 1 1-40.1 0 20.05 20.05 0 0 1 40.1 0Z" style="fill:#ca3b33;fill-opacity:.9;fill-rule:nonzero"/>
  <path d="M899.1 500a20.1 20.1 0 1 1-40.2 0 20.1 20.1 0 0 1 40.2 0Z" style="fill:#389725;fill-opacity:.9;fill-rule:nonzero"/>
  <path d="M686.72 841.54a20.14 20.14 0 1 1-40.29 0 20.14 20.14 0 0 1 40.3 0Z" style="fill:#2758fe;fill-opacity:.9;fill-rule:nonzero"/>
  <path d="M285.62 800.23a20.19 20.19 0 1 1-40.37 0 20.19 20.19 0 0 1 40.37 0Z" style="fill:#9457b1;fill-opacity:.9;fill-rule:nonzero"/>
  <path d="M146.58 420.58a20.23 20.23 0 1 1-40.47 0 20.23 20.23 0 0 1 40.47 0Z" style="fill:#ca3b33;fill-opacity:.9;fill-rule:nonzero"/>
  <path d="M427.62 128.38a20.28 20.28 0 1 1-40.55 0 20.28 20.28 0 0 1 40.55 0Z" style="fill:#389725;fill-opacity:.9;fill-rule:nonzero"/>
  <path d="M814.48 253.17a20.32 20.32 0 1 1-40.64 0 20.32 20.32 0 0 1 40.64 0Z" style="fill:#2758fe;fill-opacity:.9;fill-rule:nonzero"/>
  <path d="M872.08 656.6a20.36 20.36 0 1 1-40.73 0 20.36 20.36 0 0 1 40.73 0Z" style="fill:#9457b1;fill-opacity:.9;fill-rule:nonzero"/>
  <path d="M533.88 885.77a20.4 20.4 0 1 1-40.81 0 20.4 20.4 0 0 1 40.81 0Z" style="fill:#ca3b33;fill-opacity:.9;fill-rule:nonzero"/>
  <path d="M178.76 681.68a20.46 20.46 0 1 1-40.92 0 20.46 20.46 0 0 1 40.92 0Z" style="fill:#389725;fill-opacity:.9;fill-rule:nonzero"/>
  <path d="M206.6 271.94a20.5 20.5 0 1 1-41 0 20.5 20.5 0 0 1 41 0Z" style="fill:#2758fe;fill-opacity:.9;fill-rule:nonzero"/>
  <path d="M588.1 116.91a20.55 20.55 0 1 1-41.1 0 20.55 20.55 0 0 1 41.1 0Z" style="fill:#9457b1;fill-opacity:.9;fill-rule:nonzero"/>
  <path d="M895.48 392.5a20.6 20.6 0 1 1-41.18 0 20.6 20.6 0 0 1 41.18 0Z" style="fill:#ca3b33;fill-opacity:.9;fill-rule:nonzero"/>
  <path d="M782.27 790.57a20.64 20.64 0 1 1-41.28 0 20.64 20.64 0 0 1 41.28 0Z" style="fill:#389725;fill-opacity:.9;fill-rule:nonzero"/>
  <path d="M373.84 863.46a20.68 20.68 0 1 1-41.37 0 20.68 20.68 0 0 1 41.37 0Z" style="fill:#2758fe;fill-opacity:.9;fill-rule:nonzero"/>
  <path d="M128.69 527.41a20.73 20.73 0 1 1-41.47 0 20.73 20.73 0 0 1 41.47 0Z" style="fill:#9457b1;fill-opacity:.9;fill-rule:nonzero"/>
  <path d="M323.77 158.78a20.77 20.77 0 1 1-41.54 0 20.77 20.77 0 0 1 41.54 0Z" style="fill:#ca3b33;fill-opacity:.9;fill-rule:nonzero"/>
  <path d="M741.7 172.53a20.82 20.82 0 1 1-41.64 0 20.82 20.82 0 0 1 41.64 0Z" style="fill:#389725;fill-opacity:.9;fill-rule:nonzero"/>
  <path d="M913.01 555.11a20.87 20.87 0 1 1-41.73 0 20.87 20.87 0 0 1 41.73 0Z" style="fill:#2758fe;fill-opacity:.9;fill-rule:nonzero"/>
  <path d="M643.59 877.57a20.91 20.91 0 1 1-41.82 0 20.91 20.91 0 0 1 41.82 0Z" style="fill:#9457b1;fill-opacity:.9;fill-rule:nonzero"/>
  <path d="M234.66 776.47a20.95 20.95 0 1 1-41.91 0 20.95 20.95 0 0 1 41.9 0Z" style="fill:#ca3b33;fill-opacity:.9;fill-rule:nonzero"/>
  <path d="M146.06 363.54a21 21 0 1 1-42 0 21 21 0 0 1 42 0Z" style="fill:#389725;fill-opacity:.9;fill-rule:nonzero"/>
  <path d="M479.23 102.2a21.05 21.05 0 1 1-42.09 0 21.05 21.05 0 0 1 42.1 0Z" style="fill:#2758fe;fill-opacity:.9;fill-rule:nonzero"/>
  <path d="M861.16 287.5a21.1 21.1 0 1 1-42.19 0 21.1 21.1 0 0 1 42.19 0Z" style="fill:#9457b1;fill-opacity:.9;fill-rule:nonzero"/>
  <path d="M862.05 713.03a21.14 21.14 0 1 1-42.27 0 21.14 21.14 0 0 1 42.27 0Z" style="fill:#ca3b33;fill-opacity:.9;fill-rule:nonzero"/>
  <path d="M479.06 900.8a21.18 21.18 0 1 1-42.37 0 21.18 21.18 0 0 1 42.37 0Z" style="fill:#389725;fill-opacity:.9;fill-rule:nonzero"/>
  <path d="M141.59 638.18a21.23 21.23 0 1 1-42.45 0 21.23 21.23 0 0 1 42.45 0Z" style="fill:#2758fe;fill-opacity:.9;fill-rule:nonzero"/>
  <path d="M229.94 218.66a21.27 21.27 0 1 1-42.54 0 21.27 21.27 0 0 1 42.54 0Z" style="fill:#9457b1;fill-opacity:.9;fill-rule:nonzero"/>
  <path d="M646.78 113.87a21.32 21.32 0 1 1-42.63 0 21.32 21.32 0 0 1 42.63 0Z" style="fill:#ca3b33;fill-opacity:.9;fill-rule:nonzero"/>
  <path d="M924.4 443.36a21.36 21.36 0 1 1-42.72 0 21.36 21.36 0 0 1 42.72 0Z" style="fill:#389725;fill-opacity:.9;fill-rule:nonzero"/>
  <path d="M749.56 838.25a21.41 21.41 0 1 1-42.82 0 21.41 21.41 0 0 1 42.82 0Z" style="fill:#2758fe;fill-opacity:.9;fill-rule:nonzero"/>
  <path d="M316.95 854.2a21.45 21.45 0 1 1-42.9 0 21.45 21.45 0 0 1 42.9 0Z" style="fill:#9457b1;fill-opacity:.9;fill-rule:nonzero"/>
  <path d="M112.5 471.4a21.5 21.5 0 1 1-43 0 21.5 21.5 0 0 1 43 0Z" style="fill:#ca3b33;fill-opacity:.9;fill-rule:nonzero"/>
  <path d="M367.58 118.93a21.54 21.54 0 1 1-43.09 0 21.54 21.54 0 0 1 43.09 0Z" style="fill:#389725;fill-opacity:.9;fill-rule:nonzero"/>
  <path d="M797.27 193.82a21.59 21.59 0 1 1-43.18 0 21.59 21.59 0 0 1 43.18 0Z" style="fill:#2758fe;fill-opacity:.9;fill-rule:nonzero"/>
  <path d="M918.63 613.84a21.63 21.63 0 1 1-43.26 0 21.63 21.63 0 0 1 43.26 0Z" style="fill:#9457b1;fill-opacity:.9;fill-rule:nonzero"/>
  <path d="M593.57 907.71a21.68 21.68 0 1 1-43.36 0 21.68 21.68 0 0 1 43.36 0Z" style="fill:#ca3b33;fill-opacity:.9;fill-rule:nonzero"/>
  <path d="M185.98 743.93a21.72 21.72 0 1 1-43.45 0 21.72 21.72 0 0 1 43.45 0Z" style="fill:#389725;fill-opacity:.9;fill-rule:nonzero"/>
  <path d="M154.46 304.7a21.77 21.77 0 1 1-43.54 0 21.77 21.77 0 0 1 43.54 0Z" style="fill:#2758fe;fill-opacity:.9;fill-rule:nonzero"/>
  <path d="M536.37 83.25a21.81 21.81 0 1 1-43.63 0 21.81 21.81 0 0 1 43.63 0Z" style="fill:#9457b1;fill-opacity:.9;fill-rule:nonzero"/>
  <path d="M903.72 329.98a21.86 21.86 0 1 1-43.72 0 21.86 21.86 0 0 1 43.72 0Z" style="fill:#ca3b33;fill-opacity:.9;fill-rule:nonzero"/>
  <path d="M842.88 769.33a21.9 21.9 0 1 1-43.82 0 21.9 21.9 0 0 1 43.82 0Z" style="fill:#389725;fill-opacity:.9;fill-rule:nonzero"/>
  <path d="M420.34 907.52a21.95 21.95 0 1 1-43.9 0 21.95 21.95 0 0 1 43.9 0Z" style="fill:#2758fe;fill-opacity:.9;fill-rule:nonzero"/>
  <path d="M110.2 587.53a22 22 0 1 1-44 0 22 22 0 0 1 44 0Z" style="fill:#9457b1;fill-opacity:.9;fill-rule:nonzero"/>
  <path d="M262.23 167.46a22.04 22.04 0 1 1-44.08 0 22.04 22.04 0 0 1 44.08 0Z" style="fill:#ca3b33;fill-opacity:.9;fill-rule:nonzero"/>
  <path d="M707.52 119.8a22.08 22.08 0 1 1-44.17.01 22.08 22.08 0 0 1 44.17 0Z" style="fill:#389725;fill-opacity:.9;fill-rule:nonzero"/>
  <path d="M946.13 500a22.13 22.13 0 1 1-44.26 0 22.13 22.13 0 0 1 44.26 0Z" style="fill:#2758fe;fill-opacity:.9;fill-rule:nonzero"/>
  <path d="M708.48 881.99a22.18 22.18 0 1 1-44.35 0 22.18 22.18 0 0 1 44.35 0Z" style="fill:#9457b1;fill-opacity:.9;fill-rule:nonzero"/>
  <path d="M259.95 835.7a22.22 22.22 0 1 1-44.45 0 22.22 22.22 0 0 1 44.45 0Z" style="fill:#ca3b33;fill-opacity:.9;fill-rule:nonzero"/>
  <path d="M104.6 411.22a22.27 22.27 0 1 1-44.53 0 22.27 22.27 0 0 1 44.53 0Z" style="fill:#389725;fill-opacity:.9;fill-rule:nonzero"/>
  <path d="M418.77 84.72a22.31 22.31 0 1 1-44.62 0 22.31 22.31 0 0 1 44.62 0Z" style="fill:#2758fe;fill-opacity:.9;fill-rule:nonzero"/>
  <path d="M850.99 224.24a22.36 22.36 0 1 1-44.72 0 22.36 22.36 0 0 1 44.72 0Z" style="fill:#9457b1;fill-opacity:.9;fill-rule:nonzero"/>
  <path d="M915.23 674.9a22.4 22.4 0 1 1-44.8 0 22.4 22.4 0 0 1 44.8 0Z" style="fill:#ca3b33;fill-opacity:.9;fill-rule:nonzero"/>
  <path d="M537.49 930.74a22.45 22.45 0 1 1-44.9 0 22.45 22.45 0 0 1 44.9 0Z" style="fill:#389725;fill-opacity:.9;fill-rule:nonzero"/>
  <path d="M141.06 702.81a22.5 22.5 0 1 1-44.99 0 22.5 22.5 0 0 1 44.99 0Z" style="fill:#2758fe;fill-opacity:.9;fill-rule:nonzero"/>
  <path d="M172.23 245.49a22.54 22.54 0 1 1-45.07 0 22.54 22.54 0 0 1 45.07 0Z" style="fill:#9457b1;fill-opacity:.9;fill-rule:nonzero"/>
  <path d="M597.95 72.6a22.58 22.58 0 1 1-45.17 0 22.58 22.58 0 0 1 45.17 0Z" style="fill:#ca3b33;fill-opacity:.9;fill-rule:nonzero"/>
  <path d="M940.78 380.1a22.63 22.63 0 1 1-45.26 0 22.63 22.63 0 0 1 45.26 0Z" style="fill:#389725;fill-opacity:.9;fill-rule:nonzero"/>
  <path d="M814.41 824.01a22.67 22.67 0 1 1-45.34 0 22.67 22.67 0 0 1 45.34 0Z" style="fill:#2758fe;fill-opacity:.9;fill-rule:nonzero"/>
  <path d="M359.02 905.18a22.72 22.72 0 1 1-45.44 0 22.72 22.72 0 0 1 45.44 0Z" style="fill:#9457b1;fill-opacity:.9;fill-rule:nonzero"/>
  <path d="M85.83 530.55a22.76 22.76 0 1 1-45.52 0 22.76 22.76 0 0 1 45.52 0Z" style="fill:#ca3b33;fill-opacity:.9;fill-rule:nonzero"/>
  <path d="M303.3 119.82a22.81 22.81 0 1 1-45.61 0 22.81 22.81 0 0 1 45.62 0Z" style="fill:#389725;fill-opacity:.9;fill-rule:nonzero"/>
  <path d="M768.9 135.22a22.85 22.85 0 1 1-45.71 0 22.85 22.85 0 0 1 45.7 0Z" style="fill:#2758fe;fill-opacity:.9;fill-rule:nonzero"/>
  <path d="M959.6 561.38a22.9 22.9 0 1 1-45.79 0 22.9 22.9 0 0 1 45.8 0Z" style="fill:#9457b1;fill-opacity:.9;fill-rule:nonzero"/>
  <path d="M659.53 920.37a22.95 22.95 0 1 1-45.9 0 22.95 22.95 0 0 1 45.9 0Z" style="fill:#ca3b33;fill-opacity:.9;fill-rule:nonzero"/>
  <path d="M204.32 807.73a22.99 22.99 0 1 1-45.98 0 22.99 22.99 0 0 1 45.98 0Z" style="fill:#389725;fill-opacity:.9;fill-rule:nonzero"/>
  <path d="M105.81 348.14a23.04 23.04 0 1 1-46.07 0 23.04 23.04 0 0 1 46.07 0Z" style="fill:#2758fe;fill-opacity:.9;fill-rule:nonzero"/>
  <path d="M476.57 57.44a23.08 23.08 0 1 1-46.17 0 23.08 23.08 0 0 1 46.17 0Z" style="fill:#9457b1;fill-opacity:.9;fill-rule:nonzero"/>
  <path d="M901.36 263.66a23.12 23.12 0 1 1-46.25 0 23.12 23.12 0 0 1 46.25 0Z" style="fill:#ca3b33;fill-opacity:.9;fill-rule:nonzero"/>
  <path d="M902.25 736.88a23.17 23.17 0 1 1-46.34 0 23.17 23.17 0 0 1 46.34 0Z" style="fill:#389725;fill-opacity:.9;fill-rule:nonzero"/>
  <path d="M476.39 945.55a23.22 23.22 0 1 1-46.44 0 23.22 23.22 0 0 1 46.44 0Z" style="fill:#2758fe;fill-opacity:.9;fill-rule:nonzero"/>
  <path d="M101.34 653.57a23.26 23.26 0 1 1-46.52 0 23.26 23.26 0 0 1 46.52 0Z" style="fill:#9457b1;fill-opacity:.9;fill-rule:nonzero"/>
  <path d="M345.3 534.78v32.53h8.76v-10.64h10.6c8.09-.41 10.09-2.62 10.09-11.05 0-8.67-2.17-10.84-10.85-10.84h-18.6Zm8.76 14.39v-7.3h7.6c3.91 0 4.33.37 4.33 3.8 0 3.16-.42 3.5-4.34 3.5h-7.59ZM378.92 534.78h8.76v32.53h-8.76zM400.77 567.3h8.76V542.3h10.05v-7.51H390.8v7.5h9.97v25.03ZM432.88 567.3h8.76V542.3h10.06v-7.51h-28.78v7.5h9.96v25.03ZM469.42 560.72c-5.59 0-6.26-.42-6.26-4.34H454c0 9.13 3.21 11.43 15.68 11.43 12.14 0 15.26-1.84 15.26-9.26 0-6.55-3.25-8.8-15.43-11.18-4.42-.91-5.63-1.54-5.63-3.25 0-2.46.63-2.75 5.8-2.75 5.25 0 5.88.46 5.88 4.8h9.18c0-9.51-3.1-11.9-15.06-11.9-11.89 0-14.97 1.97-14.97 9.77 0 6.04 2.67 8.05 13.3 10.17 6.13 1.21 7.76 2 7.76 3.88 0 2.38-.67 2.63-6.34 2.63ZM489.1 534.78v32.53h19.65c7.96 0 10.34-1.71 10.34-8.55 0-4.92-2.33-7.38-7.17-7.88 4-.59 6-2.96 6-7.63 0-6.76-2.12-8.47-9.17-8.47H489.1Zm8.76 25.86v-6.51h8.22c2.71 0 3.88 1 3.88 3.3 0 2.87-.38 3.2-3.88 3.2h-8.22Zm0-13.18v-6h7.38c3.22 0 3.55.28 3.55 3.04 0 2.08-1.04 2.96-3.55 2.96h-7.38ZM552.12 553.96v-19.18h-8.76v19.18c0 6.1-.58 6.76-5.67 6.76s-5.67-.67-5.67-6.76v-19.18h-8.76v19.18c0 11.1 2.88 13.85 14.43 13.85s14.43-2.75 14.43-13.85ZM575.31 534.78h-18.6v32.53h8.76v-11.47h6.5c4.55 0 5 .38 5 3.96v7.5h9.18v-8c0-4.17-2.2-6.09-6.54-6.55 4.54-.62 6.54-3.17 6.54-8.55 0-7.55-2.16-9.42-10.84-9.42Zm-9.84 14.39v-7.3h7.59c3.92 0 4.34.37 4.34 3.59 0 3.33-.42 3.7-4.34 3.7h-7.6ZM607.09 549.88v6.67h6.67c-.16 2.92-2.42 4.17-7.42 4.17-6.55 0-7.26-.96-7.26-9.68 0-8.71.71-9.67 7.26-9.67s7.26.5 7.17 5h9.18c.08-9.67-3.17-12.1-16.35-12.1-13.14 0-16.43 3.34-16.43 16.77s3.3 16.77 16.43 16.77c4.71 0 7.38-1.75 8.42-5.71v5.2h7.93v-17.42h-15.6ZM627.28 567.3h8.75v-12.84h12.51v12.85h8.76v-32.53h-8.75v12.18h-12.52v-12.18h-8.75v32.53Z" style="fill:#fff;fill-rule:nonzero"/>
  <path d="M376.91 487.41c0 4.11-.46 7.43-1.39 9.95a13.32 13.32 0 0 1-3.94 5.89 13.69 13.69 0 0 1-6.13 2.8c-2.38.47-5.03.7-7.95.7-3.94 0-6.96-.6-9.05-1.84-2.1-1.23-3.15-2.71-3.15-4.44 0-1.43.59-2.65 1.76-3.63 1.17-.99 2.74-1.48 4.71-1.48 1.48 0 2.66.4 3.55 1.2.88.8 1.6 1.6 2.18 2.37a7.39 7.39 0 0 0 1.67 1.73c.45.28.86.43 1.23.43.78 0 1.38-.46 1.79-1.39.4-.92.61-2.72.61-5.39v-50.64l14.11-3.89v47.63Zm20.1-46.27v32.6a6.33 6.33 0 0 0 1.97 4.61 7.34 7.34 0 0 0 2.15 1.4c.82.34 1.7.51 2.66.51 1.06 0 2.27-.6 3.75-1.63 2.34-1.64 3.76-2.76 3.76-4.1v-33.4h14.05v46.28H411.3v-4.31a25.37 25.37 0 0 1-5.92 3.76c-2.09.94-4.12 1.41-6.1 1.41-2.3 0-4.43-.38-6.4-1.14-1.98-.76-3.7-1.8-5.18-3.1a14.47 14.47 0 0 1-3.48-4.63 13.02 13.02 0 0 1-1.26-5.67v-32.6H397Zm48.04 46.27h-13.99v-64.88l13.99-3.88v68.76Zm5.84-43.75 14.05-3.88v47.63h-14.05v-43.75Zm43.4 19.84a44.47 44.47 0 0 0-4.1 2c-1.37.77-2.63 1.6-3.75 2.5-1.13.9-2.05 1.87-2.75 2.9a5.62 5.62 0 0 0-1.04 3.2c0 .87.1 1.7.33 2.5s.55 1.48.96 2.06c.41.57.86 1.04 1.36 1.39.49.34 1.02.52 1.6.52 1.15 0 2.3-.35 3.48-1.05a46.7 46.7 0 0 0 3.91-2.65V463.5Zm14.11 23.91h-14.1v-3.7a51.4 51.4 0 0 1-2.29 1.82 12.8 12.8 0 0 1-2.5 1.45c-.92.4-1.95.73-3.1.95-1.16.23-2.51.34-4.07.34-2.14 0-4.06-.3-5.76-.92a13.1 13.1 0 0 1-4.34-2.53 10.88 10.88 0 0 1-2.75-3.79 11.82 11.82 0 0 1-.95-4.77c0-1.77.33-3.37 1.01-4.8.68-1.44 1.6-2.74 2.77-3.89a20.43 20.43 0 0 1 4.1-3.08c1.56-.9 3.24-1.74 5.03-2.5a70.24 70.24 0 0 1 5.57-2.09c1.93-.64 3.84-1.24 5.73-1.82l1.54-.37v-4.56c0-2.95-.56-5.05-1.7-6.28a5.85 5.85 0 0 0-4.52-1.85c-2.22 0-3.76.54-4.62 1.6a5.99 5.99 0 0 0-1.3 3.88c0 .86-.09 1.7-.28 2.53-.18.82-.5 1.54-.95 2.16-.45.61-1.1 1.1-1.94 1.48a7.9 7.9 0 0 1-3.17.55 6.84 6.84 0 0 1-4.8-1.7 5.56 5.56 0 0 1-1.86-4.28c0-1.6.55-3.09 1.63-4.46a13.79 13.79 0 0 1 4.41-3.55 26.56 26.56 0 0 1 6.4-2.34c2.43-.57 5-.86 7.71-.86 3.33 0 6.2.3 8.6.9 2.4.59 4.38 1.44 5.94 2.55a10.36 10.36 0 0 1 3.45 4c.74 1.56 1.11 3.31 1.11 5.24v34.69Z" style="fill:#eee;fill-rule:nonzero"/>
  <path d="M379.68 427.88a9.54 9.54 0 1 1-19.07 0 9.54 9.54 0 0 1 19.07 0" style="fill:#234fe4;fill-rule:nonzero"/>
  <path d="M479.62 408.03a9.54 9.54 0 1 1-19.08 0 9.54 9.54 0 0 1 19.07 0" style="fill:#389725;fill-rule:nonzero"/>
  <path d="M491.07 427.88a9.54 9.54 0 1 1-19.07 0 9.54 9.54 0 0 1 19.07 0" style="fill:#9457b1;fill-rule:nonzero"/>
  <path d="M468.15 427.88a9.54 9.54 0 1 1-19.07 0 9.54 9.54 0 0 1 19.07 0" style="fill:#ca3b33;fill-rule:nonzero"/>
  <path d="M613.1 487.51v-45.97h13.93v3.7a23.2 23.2 0 0 1 13.82-4.53c5 0 8.63 1.3 10.9 3.87 2.25 2.58 3.39 5.98 3.39 10.18v32.75h-13.7v-31.44c0-2.22-.4-3.99-1.19-5.3a3.9 3.9 0 0 0-3.57-1.96c-2.46 0-5.68 1.67-9.65 5v33.7H613.1Zm-76.94.36c-4.2 0-8.08-1.03-11.6-3.1a22.86 22.86 0 0 1-8.35-8.27 21.65 21.65 0 0 1-3.03-11.14c0-4.13 1.05-8.1 3.15-11.9 2.1-3.82 5-6.88 8.7-9.18 3.69-2.3 7.8-3.45 12.32-3.45 2.94 0 5.8.5 8.58 1.49 2.78.99 5.04 2.3 6.79 3.93 1.74 1.63 2.62 3.4 2.62 5.3 0 1.82-.78 3.3-2.33 4.4a9.05 9.05 0 0 1-5.42 1.67 7.51 7.51 0 0 1-4.64-1.43 4.85 4.85 0 0 1-2.03-3.8c-.07-2.07-.35-3.58-.83-4.53-.48-.96-1.7-1.43-3.69-1.43a8.09 8.09 0 0 0-6.97 3.63c-1.7 2.42-2.56 5.74-2.56 9.94 0 4.85 1 9.23 2.98 13.16 1.99 3.93 4.92 5.9 8.81 5.9a9.57 9.57 0 0 0 7.15-3.1c1.98-2.06 3.81-4.92 5.48-8.57l6.55 1.78c-1.6 5.88-4.27 10.46-8.04 13.76-3.77 3.3-8.32 4.94-13.64 4.94Zm48.6 0c-4.61 0-8.84-.97-12.7-2.92a22.94 22.94 0 0 1-9.16-8.21 21.93 21.93 0 0 1-3.4-12.1c0-4.36 1.04-8.35 3.1-11.96 2.06-3.61 5-6.5 8.81-8.63a26 26 0 0 1 12.99-3.22c4.36 0 8.47.93 12.32 2.8a23.52 23.52 0 0 1 9.35 8.04 21.24 21.24 0 0 1 3.57 12.26 24 24 0 0 1-3.1 12.03c-2.06 3.66-5 6.55-8.8 8.7a26.04 26.04 0 0 1-12.99 3.21Zm1.42-5.36c3.02 0 5.2-1.45 6.55-4.35 1.35-2.9 2.03-6.56 2.03-11.01 0-5.72-1.03-10.62-3.1-14.71-2.06-4.09-4.8-6.13-8.22-6.13-3.02 0-5.3 1.52-6.84 4.58-1.55 3.06-2.33 6.77-2.33 11.14a30.8 30.8 0 0 0 3.22 14.17c2.14 4.2 5.04 6.31 8.7 6.31Z" style="fill:#fafafa;fill-rule:nonzero"/>
  <path d="M428.6 508.12h-22.06v6.14h9.5c-.15 1.9-4.1 4.09-9.94 4.09-8.61 0-11.24-2.63-11.24-7.3 0-6.14 4.09-8.91 11.68-8.91 6.14 0 9.06 1.02 9.06 3.8h13c.28-8.77-4.97-11.25-22.2-11.25s-24.1 3.94-24.1 15.62c0 11.98 8.47 15.48 21.47 15.48 10.37 0 12.12-2.04 13.58-4.52v4.08h11.24v-17.23Zm17.66-13h-12.41v30.23h34.9v-6.86h-22.49v-23.36Zm47.9 6.87c8.03 0 10.8 3.21 10.8 8.32s-3.5 7.74-10.8 7.74c-7.3 0-11.1-2.63-11.1-7.74 0-5.1 3.07-8.32 11.1-8.32Zm-23.95 8.18c0 11.39 6.86 15.62 23.95 15.62 17.08 0 23.65-4.23 23.65-15.62 0-11.4-6.13-15.48-23.65-15.48-17.53 0-23.95 4.09-23.95 15.48Zm80.17-15.04h-27.75v30.22h27.75c10.8 0 14.6-1.6 14.6-7.44 0-4.97-2.77-7.16-10.08-7.74 6.14-.73 8.47-2.78 8.47-7.6 0-5.84-3.35-7.44-13-7.44Zm-3.8 23.65h-11.54v-5.84h11.54c3.8 0 5.55 1.02 5.55 2.92 0 2.63-.58 2.92-5.55 2.92Zm-1.17-11.68h-10.37v-5.4h10.37c4.53 0 4.97.44 4.97 2.77 0 1.75-1.46 2.63-4.97 2.63ZM618 525.35l-14.6-30.22h-20.6l-15.03 30.22h13.28l2.63-5.84h17.82l2.48 5.84h14.02Zm-19.57-12.4h-11.54l5.7-11.25h.3l5.54 11.24Zm35.2-17.82h-12.27v30.22h34.75v-6.86h-22.49v-23.36Z" style="fill:#fff;fill-rule:nonzero"/>
</svg>
