<svg xmlns="http://www.w3.org/2000/svg" xml:space="preserve" style="fill-rule:evenodd;clip-rule:evenodd;stroke-linejoin:round;stroke-miterlimit:2" viewBox="0 0 1000 1000">
  <path d="M599.68 679.76a12 12 0 1 1-24 0 12 12 0 0 1 24 0Z" style="fill:#2758fe;fill-opacity:.9;fill-rule:nonzero"/>
  <path d="M388.3 658.4a12.04 12.04 0 1 1-24.09 0 12.04 12.04 0 0 1 24.09 0Z" style="fill:#9457b1;fill-opacity:.9;fill-rule:nonzero"/>
  <path d="M314.5 458a12.1 12.1 0 1 1-24.18 0 12.1 12.1 0 0 1 24.18 0Z" style="fill:#ca3b33;fill-opacity:.9;fill-rule:nonzero"/>
  <path d="M463.03 303.03a12.14 12.14 0 1 1-24.27 0 12.14 12.14 0 0 1 24.27 0Z" style="fill:#389725;fill-opacity:.9;fill-rule:nonzero"/>
  <path d="M668.45 368.87a12.18 12.18 0 1 1-24.36 0 12.18 12.18 0 0 1 24.36 0Z" style="fill:#2758fe;fill-opacity:.9;fill-rule:nonzero"/>
  <path d="M699.5 583.38a12.23 12.23 0 1 1-24.45 0 12.23 12.23 0 0 1 24.45 0Z" style="fill:#9457b1;fill-opacity:.9;fill-rule:nonzero"/>
  <path d="M519.46 705.88a12.27 12.27 0 1 1-24.54 0 12.27 12.27 0 0 1 24.54 0Z" style="fill:#ca3b33;fill-opacity:.9;fill-rule:nonzero"/>
  <path d="M329.55 597.18a12.32 12.32 0 1 1-24.64 0 12.32 12.32 0 0 1 24.64 0Z" style="fill:#389725;fill-opacity:.9;fill-rule:nonzero"/>
  <path d="M344.09 377.74a12.36 12.36 0 1 1-24.73 0 12.36 12.36 0 0 1 24.73 0Z" style="fill:#2758fe;fill-opacity:.9;fill-rule:nonzero"/>
  <path d="M548.7 294.18a12.4 12.4 0 1 1-24.81 0 12.4 12.4 0 0 1 24.8 0Z" style="fill:#9457b1;fill-opacity:.9;fill-rule:nonzero"/>
  <path d="M714.32 442.12a12.45 12.45 0 1 1-24.91 0 12.45 12.45 0 0 1 24.9 0Z" style="fill:#ca3b33;fill-opacity:.9;fill-rule:nonzero"/>
  <path d="M653.68 656.8a12.5 12.5 0 1 1-24.99 0 12.5 12.5 0 0 1 25 0Z" style="fill:#389725;fill-opacity:.9;fill-rule:nonzero"/>
  <path d="M433.13 696.56a12.54 12.54 0 1 1-25.09 0 12.54 12.54 0 0 1 25.08 0Z" style="fill:#2758fe;fill-opacity:.9;fill-rule:nonzero"/>
  <path d="M300.1 514.86a12.58 12.58 0 1 1-25.16 0 12.58 12.58 0 0 1 25.17 0Z" style="fill:#9457b1;fill-opacity:.9;fill-rule:nonzero"/>
  <path d="M405.63 314.67a12.63 12.63 0 1 1-25.26 0 12.63 12.63 0 0 1 25.26 0Z" style="fill:#ca3b33;fill-opacity:.9;fill-rule:nonzero"/>
  <path d="M632.9 321.76a12.68 12.68 0 1 1-25.35 0 12.68 12.68 0 0 1 25.36 0Z" style="fill:#389725;fill-opacity:.9;fill-rule:nonzero"/>
  <path d="M726.62 530.06a12.72 12.72 0 1 1-25.44 0 12.72 12.72 0 0 1 25.44 0Z" style="fill:#2758fe;fill-opacity:.9;fill-rule:nonzero"/>
  <path d="M579.82 706.38a12.77 12.77 0 1 1-25.53 0 12.77 12.77 0 0 1 25.53 0Z" style="fill:#9457b1;fill-opacity:.9;fill-rule:nonzero"/>
  <path d="M356 651.43a12.81 12.81 0 1 1-25.63.01 12.81 12.81 0 0 1 25.63 0Z" style="fill:#ca3b33;fill-opacity:.9;fill-rule:nonzero"/>
  <path d="M307.07 425.1a12.86 12.86 0 1 1-25.72 0 12.86 12.86 0 0 1 25.72 0Z" style="fill:#389725;fill-opacity:.9;fill-rule:nonzero"/>
  <path d="M489.91 281.2a12.9 12.9 0 1 1-25.81 0 12.9 12.9 0 0 1 25.81 0Z" style="fill:#2758fe;fill-opacity:.9;fill-rule:nonzero"/>
  <path d="M700.37 382.89a12.95 12.95 0 1 1-25.9 0 12.95 12.95 0 0 1 25.9 0Z" style="fill:#9457b1;fill-opacity:.9;fill-rule:nonzero"/>
  <path d="M701.26 617.64a13 13 0 1 1-25.99 0 13 13 0 0 1 26 0Z" style="fill:#ca3b33;fill-opacity:.9;fill-rule:nonzero"/>
  <path d="M489.73 721.78a13.04 13.04 0 1 1-26.08 0 13.04 13.04 0 0 1 26.08 0Z" style="fill:#389725;fill-opacity:.9;fill-rule:nonzero"/>
  <path d="M302.6 576.61a13.09 13.09 0 1 1-26.18 0 13.09 13.09 0 0 1 26.17 0Z" style="fill:#2758fe;fill-opacity:.9;fill-rule:nonzero"/>
  <path d="M351.28 343.7a13.13 13.13 0 1 1-26.26 0 13.13 13.13 0 0 1 26.26 0Z" style="fill:#9457b1;fill-opacity:.9;fill-rule:nonzero"/>
  <path d="M583.02 285.06a13.18 13.18 0 1 1-26.36 0 13.18 13.18 0 0 1 26.36 0Z" style="fill:#ca3b33;fill-opacity:.9;fill-rule:nonzero"/>
  <path d="M738.01 468.4a13.22 13.22 0 1 1-26.44.01 13.22 13.22 0 0 1 26.44 0Z" style="fill:#389725;fill-opacity:.9;fill-rule:nonzero"/>
  <path d="M640.76 689.02a13.26 13.26 0 1 1-26.52 0 13.26 13.26 0 0 1 26.52 0Z" style="fill:#2758fe;fill-opacity:.9;fill-rule:nonzero"/>
  <path d="M398.81 698.32a13.31 13.31 0 1 1-26.62 0 13.31 13.31 0 0 1 26.62 0Z" style="fill:#9457b1;fill-opacity:.9;fill-rule:nonzero"/>
  <path d="M283.92 483.96a13.36 13.36 0 1 1-26.72 0 13.36 13.36 0 0 1 26.72 0Z" style="fill:#ca3b33;fill-opacity:.9;fill-rule:nonzero"/>
  <path d="M426.87 285.82a13.4 13.4 0 1 1-26.8 0 13.4 13.4 0 0 1 26.8 0Z" style="fill:#389725;fill-opacity:.9;fill-rule:nonzero"/>
  <path d="M668.68 327.59a13.45 13.45 0 1 1-26.9 0 13.45 13.45 0 0 1 26.9 0Z" style="fill:#2758fe;fill-opacity:.9;fill-rule:nonzero"/>
  <path d="M737.47 564.22a13.49 13.49 0 1 1-26.98 0 13.49 13.49 0 0 1 26.98 0Z" style="fill:#9457b1;fill-opacity:.9;fill-rule:nonzero"/>
  <path d="M554.17 730.45a13.54 13.54 0 1 1-27.08 0 13.54 13.54 0 0 1 27.08 0Z" style="fill:#ca3b33;fill-opacity:.9;fill-rule:nonzero"/>
  <path d="M323.46 638.13a13.58 13.58 0 1 1-27.16 0 13.58 13.58 0 0 1 27.16 0Z" style="fill:#389725;fill-opacity:.9;fill-rule:nonzero"/>
  <path d="M305.25 389.2a13.63 13.63 0 1 1-27.25 0 13.63 13.63 0 0 1 27.25 0Z" style="fill:#2758fe;fill-opacity:.9;fill-rule:nonzero"/>
  <path d="M521.95 263.14a13.67 13.67 0 1 1-27.35 0 13.67 13.67 0 0 1 27.35 0Z" style="fill:#9457b1;fill-opacity:.9;fill-rule:nonzero"/>
  <path d="M731.14 403.2a13.72 13.72 0 1 1-27.43 0 13.72 13.72 0 0 1 27.43 0Z" style="fill:#ca3b33;fill-opacity:.9;fill-rule:nonzero"/>
  <path d="M696.85 653.63a13.76 13.76 0 1 1-27.53 0 13.76 13.76 0 0 1 27.53 0Z" style="fill:#389725;fill-opacity:.9;fill-rule:nonzero"/>
  <path d="M455.75 732.87a13.8 13.8 0 1 1-27.62 0 13.8 13.8 0 0 1 27.62 0Z" style="fill:#2758fe;fill-opacity:.9;fill-rule:nonzero"/>
  <path d="M278.12 550.1a13.86 13.86 0 1 1-27.7 0 13.86 13.86 0 0 1 27.7 0Z" style="fill:#9457b1;fill-opacity:.9;fill-rule:nonzero"/>
  <path d="M364.91 309.3a13.9 13.9 0 1 1-27.8 0 13.9 13.9 0 0 1 27.8 0Z" style="fill:#ca3b33;fill-opacity:.9;fill-rule:nonzero"/>
  <path d="M620.47 281.6a13.95 13.95 0 1 1-27.9 0 13.95 13.95 0 0 1 27.9 0Z" style="fill:#389725;fill-opacity:.9;fill-rule:nonzero"/>
  <path d="M757.99 500a13.99 13.99 0 1 1-27.97 0 13.99 13.99 0 0 1 27.97 0Z" style="fill:#2758fe;fill-opacity:.9;fill-rule:nonzero"/>
  <path d="M621.44 720.2a14.03 14.03 0 1 1-28.07 0 14.03 14.03 0 0 1 28.07 0Z" style="fill:#9457b1;fill-opacity:.9;fill-rule:nonzero"/>
  <path d="M362.63 693.85a14.08 14.08 0 1 1-28.16 0 14.08 14.08 0 0 1 28.16 0Z" style="fill:#ca3b33;fill-opacity:.9;fill-rule:nonzero"/>
  <path d="M272.52 448.64a14.13 14.13 0 1 1-28.25 0 14.13 14.13 0 0 1 28.25 0Z" style="fill:#389725;fill-opacity:.9;fill-rule:nonzero"/>
  <path d="M454.18 259.37a14.18 14.18 0 1 1-28.36-.01 14.18 14.18 0 0 1 28.36 0Z" style="fill:#2758fe;fill-opacity:.9;fill-rule:nonzero"/>
  <path d="M704.96 339.94a14.21 14.21 0 1 1-28.43 0 14.21 14.21 0 0 1 28.43 0Z" style="fill:#9457b1;fill-opacity:.9;fill-rule:nonzero"/>
  <path d="M742.65 601.68a14.26 14.26 0 1 1-28.53 0 14.26 14.26 0 0 1 28.53 0Z" style="fill:#ca3b33;fill-opacity:.9;fill-rule:nonzero"/>
  <path d="M523.07 750.85a14.3 14.3 0 1 1-28.61 0 14.3 14.3 0 0 1 28.6 0Z" style="fill:#389725;fill-opacity:.9;fill-rule:nonzero"/>
  <path d="M291.85 618.3a14.35 14.35 0 1 1-28.7 0 14.35 14.35 0 0 1 28.7 0Z" style="fill:#2758fe;fill-opacity:.9;fill-rule:nonzero"/>
  <path d="M309.71 351.29a14.4 14.4 0 1 1-28.79 0 14.4 14.4 0 0 1 28.8 0Z" style="fill:#9457b1;fill-opacity:.9;fill-rule:nonzero"/>
  <path d="M558.55 249.86a14.44 14.44 0 1 1-28.89 0 14.44 14.44 0 0 1 28.9 0Z" style="fill:#ca3b33;fill-opacity:.9;fill-rule:nonzero"/>
  <path d="M759.6 429.71a14.49 14.49 0 1 1-28.97 0 14.49 14.49 0 0 1 28.98 0Z" style="fill:#389725;fill-opacity:.9;fill-rule:nonzero"/>
  <path d="M685.83 690.25a14.53 14.53 0 1 1-29.07-.01 14.53 14.53 0 0 1 29.07 0Z" style="fill:#2758fe;fill-opacity:.9;fill-rule:nonzero"/>
  <path d="M418.3 738.28a14.58 14.58 0 1 1-29.15 0 14.58 14.58 0 0 1 29.16 0Z" style="fill:#9457b1;fill-opacity:.9;fill-rule:nonzero"/>
  <path d="M257.25 518a14.62 14.62 0 1 1-29.25 0 14.62 14.62 0 0 1 29.25 0Z" style="fill:#ca3b33;fill-opacity:.9;fill-rule:nonzero"/>
  <path d="M385.17 275.7a14.67 14.67 0 1 1-29.34 0 14.67 14.67 0 0 1 29.34 0Z" style="fill:#389725;fill-opacity:.9;fill-rule:nonzero"/>
  <path d="M660.1 284.45a14.71 14.71 0 1 1-29.42 0 14.71 14.71 0 0 1 29.43 0Z" style="fill:#2758fe;fill-opacity:.9;fill-rule:nonzero"/>
  <path d="M773.22 536.32a14.76 14.76 0 1 1-29.52 0 14.76 14.76 0 0 1 29.52 0Z" style="fill:#9457b1;fill-opacity:.9;fill-rule:nonzero"/>
  <path d="M595.77 749.18a14.8 14.8 0 1 1-29.61 0 14.8 14.8 0 0 1 29.6 0Z" style="fill:#ca3b33;fill-opacity:.9;fill-rule:nonzero"/>
  <path d="M325.66 682.7a14.85 14.85 0 1 1-29.7 0 14.85 14.85 0 0 1 29.7 0Z" style="fill:#389725;fill-opacity:.9;fill-rule:nonzero"/>
  <path d="M266.82 409.7a14.9 14.9 0 1 1-29.8 0 14.9 14.9 0 0 1 29.8 0Z" style="fill:#2758fe;fill-opacity:.9;fill-rule:nonzero"/>
  <path d="M487.24 236.45a14.94 14.94 0 1 1-29.88 0 14.94 14.94 0 0 1 29.88 0Z" style="fill:#9457b1;fill-opacity:.9;fill-rule:nonzero"/>
  <path d="M740.57 359.04a14.99 14.99 0 1 1-29.98 0 14.99 14.99 0 0 1 29.98 0Z" style="fill:#ca3b33;fill-opacity:.9;fill-rule:nonzero"/>
  <path d="M741.46 641.49a15.03 15.03 0 1 1-30.06 0 15.03 15.03 0 0 1 30.06 0Z" style="fill:#389725;fill-opacity:.9;fill-rule:nonzero"/>
  <path d="M487.06 766.53a15.07 15.07 0 1 1-30.14 0 15.07 15.07 0 0 1 30.14 0Z" style="fill:#2758fe;fill-opacity:.9;fill-rule:nonzero"/>
  <path d="M262.34 592a15.12 15.12 0 1 1-30.24 0 15.12 15.12 0 0 1 30.24 0Z" style="fill:#9457b1;fill-opacity:.9;fill-rule:nonzero"/>
  <path d="M320.94 312.44a15.17 15.17 0 1 1-30.34 0 15.17 15.17 0 0 1 30.34 0Z" style="fill:#ca3b33;fill-opacity:.9;fill-rule:nonzero"/>
  <path d="M598.95 242.27a15.21 15.21 0 1 1-30.42 0 15.21 15.21 0 0 1 30.42 0Z" style="fill:#389725;fill-opacity:.9;fill-rule:nonzero"/>
  <path d="M784.6 462.14a15.26 15.26 0 1 1-30.5 0 15.26 15.26 0 0 1 30.5 0Z" style="fill:#2758fe;fill-opacity:.9;fill-rule:nonzero"/>
  <path d="M667.96 726.33a15.3 15.3 0 1 1-30.6 0 15.3 15.3 0 0 1 30.6 0Z" style="fill:#9457b1;fill-opacity:.9;fill-rule:nonzero"/>
  <path d="M378.35 737.29a15.35 15.35 0 1 1-30.7 0 15.35 15.35 0 0 1 30.7 0Z" style="fill:#ca3b33;fill-opacity:.9;fill-rule:nonzero"/>
  <path d="M241.06 480.82a15.4 15.4 0 1 1-30.78 0 15.4 15.4 0 0 1 30.78 0Z" style="fill:#389725;fill-opacity:.9;fill-rule:nonzero"/>
  <path d="M412.05 244.1a15.44 15.44 0 1 1-30.88 0 15.44 15.44 0 0 1 30.88 0Z" style="fill:#2758fe;fill-opacity:.9;fill-rule:nonzero"/>
  <path d="M700.83 294.15a15.49 15.49 0 1 1-30.97 0 15.49 15.49 0 0 1 30.97 0Z" style="fill:#9457b1;fill-opacity:.9;fill-rule:nonzero"/>
  <path d="M782.76 576.63a15.53 15.53 0 1 1-31.06 0 15.53 15.53 0 0 1 31.06 0Z" style="fill:#ca3b33;fill-opacity:.9;fill-rule:nonzero"/>
  <path d="M564.02 774.76a15.57 15.57 0 1 1-31.15 0 15.57 15.57 0 0 1 31.15 0Z" style="fill:#389725;fill-opacity:.9;fill-rule:nonzero"/>
  <path d="M289.1 664.58a15.62 15.62 0 1 1-31.24 0 15.62 15.62 0 0 1 31.23 0Z" style="fill:#2758fe;fill-opacity:.9;fill-rule:nonzero"/>
  <path d="M267.56 368.08a15.66 15.66 0 1 1-31.33 0 15.66 15.66 0 0 1 31.33 0Z" style="fill:#9457b1;fill-opacity:.9;fill-rule:nonzero"/>
  <path d="M525.55 218.17a15.7 15.7 0 1 1-31.42 0 15.7 15.7 0 0 1 31.42 0Z" style="fill:#ca3b33;fill-opacity:.9;fill-rule:nonzero"/>
  <path d="M774.29 384.9a15.76 15.76 0 1 1-31.51-.01 15.76 15.76 0 0 1 31.5 0Z" style="fill:#389725;fill-opacity:.9;fill-rule:nonzero"/>
  <path d="M733.36 682.55a15.8 15.8 0 1 1-31.6 0 15.8 15.8 0 0 1 31.6 0Z" style="fill:#2758fe;fill-opacity:.9;fill-rule:nonzero"/>
  <path d="M446.9 776.53a15.84 15.84 0 1 1-31.69 0 15.84 15.84 0 0 1 31.69 0Z" style="fill:#9457b1;fill-opacity:.9;fill-rule:nonzero"/>
  <path d="M236.14 559.46a15.9 15.9 0 1 1-31.78 0 15.9 15.9 0 0 1 31.78 0Z" style="fill:#ca3b33;fill-opacity:.9;fill-rule:nonzero"/>
  <path d="M339.24 273.84a15.94 15.94 0 1 1-31.87 0 15.94 15.94 0 0 1 31.87 0Z" style="fill:#389725;fill-opacity:.9;fill-rule:nonzero"/>
  <path d="M642.23 241.15a15.98 15.98 0 1 1-31.96 0 15.98 15.98 0 0 1 31.96 0Z" style="fill:#2758fe;fill-opacity:.9;fill-rule:nonzero"/>
  <path d="M805.02 500a16.02 16.02 0 1 1-32.04 0 16.02 16.02 0 0 1 32.04 0Z" style="fill:#9457b1;fill-opacity:.9;fill-rule:nonzero"/>
  <path d="M643.2 760.65a16.07 16.07 0 1 1-32.14 0 16.07 16.07 0 0 1 32.14 0Z" style="fill:#ca3b33;fill-opacity:.9;fill-rule:nonzero"/>
  <path d="M336.96 729.31a16.11 16.11 0 1 1-32.23 0 16.11 16.11 0 0 1 32.23 0Z" style="fill:#389725;fill-opacity:.9;fill-rule:nonzero"/>
  <path d="M230.54 439.29a16.16 16.16 0 1 1-32.32 0 16.16 16.16 0 0 1 32.32 0Z" style="fill:#2758fe;fill-opacity:.9;fill-rule:nonzero"/>
  <path d="M445.32 215.7a16.2 16.2 0 1 1-32.41 0 16.2 16.2 0 0 1 32.41 0Z" style="fill:#9457b1;fill-opacity:.9;fill-rule:nonzero"/>
  <path d="M741.47 311.02a16.25 16.25 0 1 1-32.5 0 16.25 16.25 0 0 1 32.5 0Z" style="fill:#ca3b33;fill-opacity:.9;fill-rule:nonzero"/>
  <path d="M785.8 619.99a16.3 16.3 0 1 1-32.6 0 16.3 16.3 0 0 1 32.6 0Z" style="fill:#389725;fill-opacity:.9;fill-rule:nonzero"/>
  <path d="M526.67 795.82a16.34 16.34 0 1 1-32.68 0 16.34 16.34 0 0 1 32.68 0Z" style="fill:#2758fe;fill-opacity:.9;fill-rule:nonzero"/>
  <path d="M254.15 639.43a16.39 16.39 0 1 1-32.77 0 16.39 16.39 0 0 1 32.77 0Z" style="fill:#9457b1;fill-opacity:.9;fill-rule:nonzero"/>
  <path d="M275.34 324.84a16.43 16.43 0 1 1-32.86 0 16.43 16.43 0 0 1 32.86 0Z" style="fill:#ca3b33;fill-opacity:.9;fill-rule:nonzero"/>
  <path d="M568.4 205.54a16.48 16.48 0 1 1-32.95 0 16.48 16.48 0 0 1 32.95 0Z" style="fill:#389725;fill-opacity:.9;fill-rule:nonzero"/>
  <path d="M804.9 417.3a16.52 16.52 0 1 1-33.05 0 16.52 16.52 0 0 1 33.05 0Z" style="fill:#2758fe;fill-opacity:.9;fill-rule:nonzero"/>
  <path d="M717.98 723.69a16.57 16.57 0 1 1-33.14 0 16.57 16.57 0 0 1 33.14 0Z" style="fill:#9457b1;fill-opacity:.9;fill-rule:nonzero"/>
  <path d="M403.48 780a16.61 16.61 0 1 1-33.22.01 16.61 16.61 0 0 1 33.22 0Z" style="fill:#ca3b33;fill-opacity:.9;fill-rule:nonzero"/>
  <path d="M214.4 521.14a16.66 16.66 0 1 1-33.32 0 16.66 16.66 0 0 1 33.31 0Z" style="fill:#389725;fill-opacity:.9;fill-rule:nonzero"/>
  <path d="M364.7 236.73a16.7 16.7 0 1 1-33.4 0 16.7 16.7 0 0 1 33.4 0Z" style="fill:#2758fe;fill-opacity:.9;fill-rule:nonzero"/>
  <path d="M687.3 247.15a16.74 16.74 0 1 1-33.49 0 16.74 16.74 0 0 1 33.5 0Z" style="fill:#9457b1;fill-opacity:.9;fill-rule:nonzero"/>
  <path d="M819.82 542.59a16.8 16.8 0 1 1-33.6 0 16.8 16.8 0 0 1 33.6 0Z" style="fill:#ca3b33;fill-opacity:.9;fill-rule:nonzero"/>
  <path d="M611.7 791.97a16.84 16.84 0 1 1-33.67 0 16.84 16.84 0 0 1 33.68 0Z" style="fill:#389725;fill-opacity:.9;fill-rule:nonzero"/>
  <path d="M295.33 713.95a16.88 16.88 0 1 1-33.77 0 16.88 16.88 0 0 1 33.77 0Z" style="fill:#2758fe;fill-opacity:.9;fill-rule:nonzero"/>
  <path d="M226.57 394.32a16.93 16.93 0 1 1-33.87 0 16.93 16.93 0 0 1 33.87 0Z" style="fill:#9457b1;fill-opacity:.9;fill-rule:nonzero"/>
  <path d="M484.57 191.7a16.97 16.97 0 1 1-33.94 0 16.97 16.97 0 0 1 33.94 0Z" style="fill:#ca3b33;fill-opacity:.9;fill-rule:nonzero"/>
  <path d="M780.76 335.2a17.02 17.02 0 1 1-34.04 0 17.02 17.02 0 0 1 34.04 0Z" style="fill:#389725;fill-opacity:.9;fill-rule:nonzero"/>
  <path d="M781.66 665.34a17.06 17.06 0 1 1-34.13 0 17.06 17.06 0 0 1 34.13 0Z" style="fill:#2758fe;fill-opacity:.9;fill-rule:nonzero"/>
  <path d="M484.4 811.28a17.11 17.11 0 1 1-34.23 0 17.11 17.11 0 0 1 34.22 0Z" style="fill:#9457b1;fill-opacity:.9;fill-rule:nonzero"/>
  <path d="M222.1 607.4a17.16 17.16 0 1 1-34.32 0 17.16 17.16 0 0 1 34.31 0Z" style="fill:#ca3b33;fill-opacity:.9;fill-rule:nonzero"/>
  <path d="M290.6 281.18a17.2 17.2 0 1 1-34.4 0 17.2 17.2 0 0 1 34.4 0Z" style="fill:#389725;fill-opacity:.9;fill-rule:nonzero"/>
  <path d="M614.9 199.47a17.24 17.24 0 1 1-34.5 0 17.24 17.24 0 0 1 34.5 0Z" style="fill:#2758fe;fill-opacity:.9;fill-rule:nonzero"/>
  <path d="M831.2 455.88a17.29 17.29 0 1 1-34.57 0 17.29 17.29 0 0 1 34.58 0Z" style="fill:#9457b1;fill-opacity:.9;fill-rule:nonzero"/>
  <path d="M695.16 763.63a17.34 17.34 0 1 1-34.67 0 17.34 17.34 0 0 1 34.67 0Z" style="fill:#ca3b33;fill-opacity:.9;fill-rule:nonzero"/>
  <path d="M357.88 776.26a17.38 17.38 0 1 1-34.76 0 17.38 17.38 0 0 1 34.76 0Z" style="fill:#389725;fill-opacity:.9;fill-rule:nonzero"/>
  <path d="M198.2 477.68a17.43 17.43 0 1 1-34.85 0 17.43 17.43 0 0 1 34.86 0Z" style="fill:#2758fe;fill-opacity:.9;fill-rule:nonzero"/>
  <path d="M397.22 202.38a17.47 17.47 0 1 1-34.94 0 17.47 17.47 0 0 1 34.94 0Z" style="fill:#9457b1;fill-opacity:.9;fill-rule:nonzero"/>
  <path d="M732.98 260.7a17.52 17.52 0 1 1-35.04 0 17.52 17.52 0 0 1 35.04 0Z" style="fill:#ca3b33;fill-opacity:.9;fill-rule:nonzero"/>
  <path d="M828.05 589.03a17.56 17.56 0 1 1-35.13 0 17.56 17.56 0 0 1 35.13 0Z" style="fill:#389725;fill-opacity:.9;fill-rule:nonzero"/>
  <path d="M573.87 819.08a17.61 17.61 0 1 1-35.22 0 17.61 17.61 0 0 1 35.22 0Z" style="fill:#2758fe;fill-opacity:.9;fill-rule:nonzero"/>
  <path d="M254.72 691.03a17.65 17.65 0 1 1-35.3 0 17.65 17.65 0 0 1 35.3 0Z" style="fill:#9457b1;fill-opacity:.9;fill-rule:nonzero"/>
  <path d="M229.86 346.95a17.7 17.7 0 1 1-35.4 0 17.7 17.7 0 0 1 35.4 0Z" style="fill:#ca3b33;fill-opacity:.9;fill-rule:nonzero"/>
  <path d="M529.16 173.2a17.74 17.74 0 1 1-35.49 0 17.74 17.74 0 0 1 35.49 0Z" style="fill:#389725;fill-opacity:.9;fill-rule:nonzero"/>
  <path d="M817.43 366.59a17.79 17.79 0 1 1-35.58 0 17.79 17.79 0 0 1 35.58 0Z" style="fill:#2758fe;fill-opacity:.9;fill-rule:nonzero"/>
  <path d="M769.86 711.48a17.83 17.83 0 1 1-35.67 0 17.83 17.83 0 0 1 35.67 0Z" style="fill:#9457b1;fill-opacity:.9;fill-rule:nonzero"/>
  <path d="M438.05 820.2a17.88 17.88 0 1 1-35.77-.01 17.88 17.88 0 0 1 35.77 0Z" style="fill:#ca3b33;fill-opacity:.9;fill-rule:nonzero"/>
  <path d="M194.16 568.82a17.92 17.92 0 1 1-35.85 0 17.92 17.92 0 0 1 35.85 0Z" style="fill:#389725;fill-opacity:.9;fill-rule:nonzero"/>
  <path d="M313.57 238.38a17.97 17.97 0 1 1-35.94 0 17.97 17.97 0 0 1 35.94 0Z" style="fill:#2758fe;fill-opacity:.9;fill-rule:nonzero"/>
  <path d="M664 200.7a18.01 18.01 0 1 1-36.03 0 18.01 18.01 0 0 1 36.02 0Z" style="fill:#9457b1;fill-opacity:.9;fill-rule:nonzero"/>
  <path d="M852.06 500a18.06 18.06 0 1 1-36.12 0 18.06 18.06 0 0 1 36.12 0Z" style="fill:#ca3b33;fill-opacity:.9;fill-rule:nonzero"/>
  <path d="M664.96 801.1a18.1 18.1 0 1 1-36.21 0 18.1 18.1 0 0 1 36.21 0Z" style="fill:#389725;fill-opacity:.9;fill-rule:nonzero"/>
  <path d="M311.29 764.77a18.15 18.15 0 1 1-36.3 0 18.15 18.15 0 0 1 36.3 0Z" style="fill:#2758fe;fill-opacity:.9;fill-rule:nonzero"/>
  <path d="M188.56 429.93a18.2 18.2 0 1 1-36.39 0 18.2 18.2 0 0 1 36.39 0Z" style="fill:#9457b1;fill-opacity:.9;fill-rule:nonzero"/>
  <path d="M436.47 172.04a18.24 18.24 0 1 1-36.48 0 18.24 18.24 0 0 1 36.48 0Z" style="fill:#ca3b33;fill-opacity:.9;fill-rule:nonzero"/>
  <path d="M777.98 282.1a18.29 18.29 0 1 1-36.58 0 18.29 18.29 0 0 1 36.58 0Z" style="fill:#389725;fill-opacity:.9;fill-rule:nonzero"/>
  <path d="M828.94 638.29a18.33 18.33 0 1 1-36.67 0 18.33 18.33 0 0 1 36.67 0Z" style="fill:#2758fe;fill-opacity:.9;fill-rule:nonzero"/>
  <path d="M530.28 840.8a18.37 18.37 0 1 1-36.75 0 18.37 18.37 0 0 1 36.75 0Z" style="fill:#9457b1;fill-opacity:.9;fill-rule:nonzero"/>
  <path d="M216.45 660.56a18.42 18.42 0 1 1-36.84 0 18.42 18.42 0 0 1 36.84 0Z" style="fill:#ca3b33;fill-opacity:.9;fill-rule:nonzero"/>
  <path d="M240.97 298.4a18.46 18.46 0 1 1-36.92 0 18.46 18.46 0 0 1 36.92 0Z" style="fill:#389725;fill-opacity:.9;fill-rule:nonzero"/>
  <path d="M578.25 161.23a18.51 18.51 0 1 1-37.02 0 18.51 18.51 0 0 1 37.02 0Z" style="fill:#2758fe;fill-opacity:.9;fill-rule:nonzero"/>
  <path d="M850.2 404.9a18.56 18.56 0 1 1-37.13 0 18.56 18.56 0 0 1 37.12 0Z" style="fill:#9457b1;fill-opacity:.9;fill-rule:nonzero"/>
  <path d="M750.12 757.13a18.6 18.6 0 1 1-37.2 0 18.6 18.6 0 0 1 37.2 0Z" style="fill:#ca3b33;fill-opacity:.9;fill-rule:nonzero"/>
  <path d="M388.66 821.73a18.65 18.65 0 1 1-37.3 0 18.65 18.65 0 0 1 37.3 0Z" style="fill:#389725;fill-opacity:.9;fill-rule:nonzero"/>
  <path d="M171.54 524.27a18.7 18.7 0 1 1-37.39 0 18.7 18.7 0 0 1 37.4 0Z" style="fill:#2758fe;fill-opacity:.9;fill-rule:nonzero"/>
  <path d="M344.24 197.76a18.74 18.74 0 1 1-37.48 0 18.74 18.74 0 0 1 37.48 0Z" style="fill:#9457b1;fill-opacity:.9;fill-rule:nonzero"/>
  <path d="M714.5 209.84a18.78 18.78 0 1 1-37.57 0 18.78 18.78 0 0 1 37.57 0Z" style="fill:#ca3b33;fill-opacity:.9;fill-rule:nonzero"/>
  <path d="M866.41 548.85a18.83 18.83 0 1 1-37.65 0 18.83 18.83 0 0 1 37.65 0Z" style="fill:#389725;fill-opacity:.9;fill-rule:nonzero"/>
  <path d="M627.65 834.77a18.87 18.87 0 1 1-37.75 0 18.87 18.87 0 0 1 37.75 0Z" style="fill:#2758fe;fill-opacity:.9;fill-rule:nonzero"/>
  <path d="M265 745.22a18.92 18.92 0 1 1-37.84 0 18.92 18.92 0 0 1 37.83 0Z" style="fill:#9457b1;fill-opacity:.9;fill-rule:nonzero"/>
  <path d="M186.31 378.93a18.97 18.97 0 1 1-37.93 0 18.97 18.97 0 0 1 37.93 0Z" style="fill:#ca3b33;fill-opacity:.9;fill-rule:nonzero"/>
  <path d="M481.9 146.94a19 19 0 1 1-38.01 0 19 19 0 0 1 38.01 0Z" style="fill:#389725;fill-opacity:.9;fill-rule:nonzero"/>
  <path d="M820.96 311.35a19.05 19.05 0 1 1-38.1 0 19.05 19.05 0 0 1 38.1 0Z" style="fill:#2758fe;fill-opacity:.9;fill-rule:nonzero"/>
  <path d="M821.86 689.18a19.1 19.1 0 1 1-38.2 0 19.1 19.1 0 0 1 38.2 0Z" style="fill:#9457b1;fill-opacity:.9;fill-rule:nonzero"/>
  <path d="M481.72 856.04a19.14 19.14 0 1 1-38.29 0 19.14 19.14 0 0 1 38.3 0Z" style="fill:#ca3b33;fill-opacity:.9;fill-rule:nonzero"/>
  <path d="M181.84 622.78a19.2 19.2 0 1 1-38.38 0 19.2 19.2 0 0 1 38.38 0Z" style="fill:#389725;fill-opacity:.9;fill-rule:nonzero"/>
  <path d="M260.27 249.92a19.24 19.24 0 1 1-38.47 0 19.24 19.24 0 0 1 38.47 0Z" style="fill:#2758fe;fill-opacity:.9;fill-rule:nonzero"/>
  <path d="M630.84 156.67a19.28 19.28 0 1 1-38.57 0 19.28 19.28 0 0 1 38.57 0Z" style="fill:#9457b1;fill-opacity:.9;fill-rule:nonzero"/>
  <path d="M877.8 449.62a19.33 19.33 0 1 1-38.65 0 19.33 19.33 0 0 1 38.65 0Z" style="fill:#ca3b33;fill-opacity:.9;fill-rule:nonzero"/>
  <path d="M722.36 800.94a19.37 19.37 0 1 1-38.74 0 19.37 19.37 0 0 1 38.74 0Z" style="fill:#389725;fill-opacity:.9;fill-rule:nonzero"/>
  <path d="M337.42 815.23a19.42 19.42 0 1 1-38.83 0 19.42 19.42 0 0 1 38.83 0Z" style="fill:#2758fe;fill-opacity:.9;fill-rule:nonzero"/>
  <path d="M155.35 474.54a19.46 19.46 0 1 1-38.92 0 19.46 19.46 0 0 1 38.92 0Z" style="fill:#9457b1;fill-opacity:.9;fill-rule:nonzero"/>
  <path d="M382.4 160.65a19.5 19.5 0 1 1-39.01 0 19.5 19.5 0 0 1 39.01 0Z" style="fill:#ca3b33;fill-opacity:.9;fill-rule:nonzero"/>
  <path d="M765.13 227.27a19.55 19.55 0 1 1-39.11 0 19.55 19.55 0 0 1 39.1 0Z" style="fill:#389725;fill-opacity:.9;fill-rule:nonzero"/>
  <path d="M873.34 601.43a19.6 19.6 0 1 1-39.2 0 19.6 19.6 0 0 1 39.2 0Z" style="fill:#2758fe;fill-opacity:.9;fill-rule:nonzero"/>
  <path d="M583.72 863.4a19.64 19.64 0 1 1-39.29 0 19.64 19.64 0 0 1 39.29 0Z" style="fill:#9457b1;fill-opacity:.9;fill-rule:nonzero"/>
  <path d="M220.35 717.48a19.69 19.69 0 1 1-39.37 0 19.69 19.69 0 0 1 39.37 0Z" style="fill:#ca3b33;fill-opacity:.9;fill-rule:nonzero"/>
  <path d="M192.16 325.82a19.73 19.73 0 1 1-39.47 0 19.73 19.73 0 0 1 39.47 0Z" style="fill:#389725;fill-opacity:.9;fill-rule:nonzero"/>
  <path d="M532.76 128.23a19.78 19.78 0 1 1-39.56 0 19.78 19.78 0 0 1 39.56 0Z" style="fill:#2758fe;fill-opacity:.9;fill-rule:nonzero"/>
  <path d="M860.58 348.29a19.83 19.83 0 1 1-39.66-.01 19.83 19.83 0 0 1 39.66 0Z" style="fill:#9457b1;fill-opacity:.9;fill-rule:nonzero"/>
  <path d="M806.37 740.4a19.87 19.87 0 1 1-39.74 0 19.87 19.87 0 0 1 39.74 0Z" style="fill:#ca3b33;fill-opacity:.9;fill-rule:nonzero"/>
  <path d="M429.2 863.86a19.92 19.92 0 1 1-39.84 0 19.92 19.92 0 0 1 39.83 0Z" style="fill:#389725;fill-opacity:.9;fill-rule:nonzero"/>
  <path d="M152.18 578.18a19.96 19.96 0 1 1-39.92 0 19.96 19.96 0 0 1 39.92 0Z" style="fill:#2758fe;fill-opacity:.9;fill-rule:nonzero"/>
  <path d="M287.9 202.92a20 20 0 1 1-40.01 0 20 20 0 0 1 40.01 0Z" style="fill:#9457b1;fill-opacity:.9;fill-rule:nonzero"/>
  <path d="M685.75 160.25a20.05 20.05 0 1 1-40.1 0 20.05 20.05 0 0 1 40.1 0Z" style="fill:#ca3b33;fill-opacity:.9;fill-rule:nonzero"/>
  <path d="M899.1 500a20.1 20.1 0 1 1-40.2 0 20.1 20.1 0 0 1 40.2 0Z" style="fill:#389725;fill-opacity:.9;fill-rule:nonzero"/>
  <path d="M686.72 841.54a20.14 20.14 0 1 1-40.29 0 20.14 20.14 0 0 1 40.3 0Z" style="fill:#2758fe;fill-opacity:.9;fill-rule:nonzero"/>
  <path d="M285.62 800.23a20.19 20.19 0 1 1-40.37 0 20.19 20.19 0 0 1 40.37 0Z" style="fill:#9457b1;fill-opacity:.9;fill-rule:nonzero"/>
  <path d="M146.58 420.58a20.23 20.23 0 1 1-40.47 0 20.23 20.23 0 0 1 40.47 0Z" style="fill:#ca3b33;fill-opacity:.9;fill-rule:nonzero"/>
  <path d="M427.62 128.38a20.28 20.28 0 1 1-40.55 0 20.28 20.28 0 0 1 40.55 0Z" style="fill:#389725;fill-opacity:.9;fill-rule:nonzero"/>
  <path d="M814.48 253.17a20.32 20.32 0 1 1-40.64 0 20.32 20.32 0 0 1 40.64 0Z" style="fill:#2758fe;fill-opacity:.9;fill-rule:nonzero"/>
  <path d="M872.08 656.6a20.36 20.36 0 1 1-40.73 0 20.36 20.36 0 0 1 40.73 0Z" style="fill:#9457b1;fill-opacity:.9;fill-rule:nonzero"/>
  <path d="M533.88 885.77a20.4 20.4 0 1 1-40.81 0 20.4 20.4 0 0 1 40.81 0Z" style="fill:#ca3b33;fill-opacity:.9;fill-rule:nonzero"/>
  <path d="M178.76 681.68a20.46 20.46 0 1 1-40.92 0 20.46 20.46 0 0 1 40.92 0Z" style="fill:#389725;fill-opacity:.9;fill-rule:nonzero"/>
  <path d="M206.6 271.94a20.5 20.5 0 1 1-41 0 20.5 20.5 0 0 1 41 0Z" style="fill:#2758fe;fill-opacity:.9;fill-rule:nonzero"/>
  <path d="M588.1 116.91a20.55 20.55 0 1 1-41.1 0 20.55 20.55 0 0 1 41.1 0Z" style="fill:#9457b1;fill-opacity:.9;fill-rule:nonzero"/>
  <path d="M895.48 392.5a20.6 20.6 0 1 1-41.18 0 20.6 20.6 0 0 1 41.18 0Z" style="fill:#ca3b33;fill-opacity:.9;fill-rule:nonzero"/>
  <path d="M782.27 790.57a20.64 20.64 0 1 1-41.28 0 20.64 20.64 0 0 1 41.28 0Z" style="fill:#389725;fill-opacity:.9;fill-rule:nonzero"/>
  <path d="M373.84 863.46a20.68 20.68 0 1 1-41.37 0 20.68 20.68 0 0 1 41.37 0Z" style="fill:#2758fe;fill-opacity:.9;fill-rule:nonzero"/>
  <path d="M128.69 527.41a20.73 20.73 0 1 1-41.47 0 20.73 20.73 0 0 1 41.47 0Z" style="fill:#9457b1;fill-opacity:.9;fill-rule:nonzero"/>
  <path d="M323.77 158.78a20.77 20.77 0 1 1-41.54 0 20.77 20.77 0 0 1 41.54 0Z" style="fill:#ca3b33;fill-opacity:.9;fill-rule:nonzero"/>
  <path d="M741.7 172.53a20.82 20.82 0 1 1-41.64 0 20.82 20.82 0 0 1 41.64 0Z" style="fill:#389725;fill-opacity:.9;fill-rule:nonzero"/>
  <path d="M913.01 555.11a20.87 20.87 0 1 1-41.73 0 20.87 20.87 0 0 1 41.73 0Z" style="fill:#2758fe;fill-opacity:.9;fill-rule:nonzero"/>
  <path d="M643.59 877.57a20.91 20.91 0 1 1-41.82 0 20.91 20.91 0 0 1 41.82 0Z" style="fill:#9457b1;fill-opacity:.9;fill-rule:nonzero"/>
  <path d="M234.66 776.47a20.95 20.95 0 1 1-41.91 0 20.95 20.95 0 0 1 41.9 0Z" style="fill:#ca3b33;fill-opacity:.9;fill-rule:nonzero"/>
  <path d="M146.06 363.54a21 21 0 1 1-42 0 21 21 0 0 1 42 0Z" style="fill:#389725;fill-opacity:.9;fill-rule:nonzero"/>
  <path d="M479.23 102.2a21.05 21.05 0 1 1-42.09 0 21.05 21.05 0 0 1 42.1 0Z" style="fill:#2758fe;fill-opacity:.9;fill-rule:nonzero"/>
  <path d="M861.16 287.5a21.1 21.1 0 1 1-42.19 0 21.1 21.1 0 0 1 42.19 0Z" style="fill:#9457b1;fill-opacity:.9;fill-rule:nonzero"/>
  <path d="M862.05 713.03a21.14 21.14 0 1 1-42.27 0 21.14 21.14 0 0 1 42.27 0Z" style="fill:#ca3b33;fill-opacity:.9;fill-rule:nonzero"/>
  <path d="M479.06 900.8a21.18 21.18 0 1 1-42.37 0 21.18 21.18 0 0 1 42.37 0Z" style="fill:#389725;fill-opacity:.9;fill-rule:nonzero"/>
  <path d="M141.59 638.18a21.23 21.23 0 1 1-42.45 0 21.23 21.23 0 0 1 42.45 0Z" style="fill:#2758fe;fill-opacity:.9;fill-rule:nonzero"/>
  <path d="M229.94 218.66a21.27 21.27 0 1 1-42.54 0 21.27 21.27 0 0 1 42.54 0Z" style="fill:#9457b1;fill-opacity:.9;fill-rule:nonzero"/>
  <path d="M646.78 113.87a21.32 21.32 0 1 1-42.63 0 21.32 21.32 0 0 1 42.63 0Z" style="fill:#ca3b33;fill-opacity:.9;fill-rule:nonzero"/>
  <path d="M924.4 443.36a21.36 21.36 0 1 1-42.72 0 21.36 21.36 0 0 1 42.72 0Z" style="fill:#389725;fill-opacity:.9;fill-rule:nonzero"/>
  <path d="M749.56 838.25a21.41 21.41 0 1 1-42.82 0 21.41 21.41 0 0 1 42.82 0Z" style="fill:#2758fe;fill-opacity:.9;fill-rule:nonzero"/>
  <path d="M316.95 854.2a21.45 21.45 0 1 1-42.9 0 21.45 21.45 0 0 1 42.9 0Z" style="fill:#9457b1;fill-opacity:.9;fill-rule:nonzero"/>
  <path d="M112.5 471.4a21.5 21.5 0 1 1-43 0 21.5 21.5 0 0 1 43 0Z" style="fill:#ca3b33;fill-opacity:.9;fill-rule:nonzero"/>
  <path d="M367.58 118.93a21.54 21.54 0 1 1-43.09 0 21.54 21.54 0 0 1 43.09 0Z" style="fill:#389725;fill-opacity:.9;fill-rule:nonzero"/>
  <path d="M797.27 193.82a21.59 21.59 0 1 1-43.18 0 21.59 21.59 0 0 1 43.18 0Z" style="fill:#2758fe;fill-opacity:.9;fill-rule:nonzero"/>
  <path d="M918.63 613.84a21.63 21.63 0 1 1-43.26 0 21.63 21.63 0 0 1 43.26 0Z" style="fill:#9457b1;fill-opacity:.9;fill-rule:nonzero"/>
  <path d="M593.57 907.71a21.68 21.68 0 1 1-43.36 0 21.68 21.68 0 0 1 43.36 0Z" style="fill:#ca3b33;fill-opacity:.9;fill-rule:nonzero"/>
  <path d="M185.98 743.93a21.72 21.72 0 1 1-43.45 0 21.72 21.72 0 0 1 43.45 0Z" style="fill:#389725;fill-opacity:.9;fill-rule:nonzero"/>
  <path d="M154.46 304.7a21.77 21.77 0 1 1-43.54 0 21.77 21.77 0 0 1 43.54 0Z" style="fill:#2758fe;fill-opacity:.9;fill-rule:nonzero"/>
  <path d="M536.37 83.25a21.81 21.81 0 1 1-43.63 0 21.81 21.81 0 0 1 43.63 0Z" style="fill:#9457b1;fill-opacity:.9;fill-rule:nonzero"/>
  <path d="M903.72 329.98a21.86 21.86 0 1 1-43.72 0 21.86 21.86 0 0 1 43.72 0Z" style="fill:#ca3b33;fill-opacity:.9;fill-rule:nonzero"/>
  <path d="M842.88 769.33a21.9 21.9 0 1 1-43.82 0 21.9 21.9 0 0 1 43.82 0Z" style="fill:#389725;fill-opacity:.9;fill-rule:nonzero"/>
  <path d="M420.34 907.52a21.95 21.95 0 1 1-43.9 0 21.95 21.95 0 0 1 43.9 0Z" style="fill:#2758fe;fill-opacity:.9;fill-rule:nonzero"/>
  <path d="M110.2 587.53a22 22 0 1 1-44 0 22 22 0 0 1 44 0Z" style="fill:#9457b1;fill-opacity:.9;fill-rule:nonzero"/>
  <path d="M262.23 167.46a22.04 22.04 0 1 1-44.08 0 22.04 22.04 0 0 1 44.08 0Z" style="fill:#ca3b33;fill-opacity:.9;fill-rule:nonzero"/>
  <path d="M707.52 119.8a22.08 22.08 0 1 1-44.17.01 22.08 22.08 0 0 1 44.17 0Z" style="fill:#389725;fill-opacity:.9;fill-rule:nonzero"/>
  <path d="M946.13 500a22.13 22.13 0 1 1-44.26 0 22.13 22.13 0 0 1 44.26 0Z" style="fill:#2758fe;fill-opacity:.9;fill-rule:nonzero"/>
  <path d="M708.48 881.99a22.18 22.18 0 1 1-44.35 0 22.18 22.18 0 0 1 44.35 0Z" style="fill:#9457b1;fill-opacity:.9;fill-rule:nonzero"/>
  <path d="M259.95 835.7a22.22 22.22 0 1 1-44.45 0 22.22 22.22 0 0 1 44.45 0Z" style="fill:#ca3b33;fill-opacity:.9;fill-rule:nonzero"/>
  <path d="M104.6 411.22a22.27 22.27 0 1 1-44.53 0 22.27 22.27 0 0 1 44.53 0Z" style="fill:#389725;fill-opacity:.9;fill-rule:nonzero"/>
  <path d="M418.77 84.72a22.31 22.31 0 1 1-44.62 0 22.31 22.31 0 0 1 44.62 0Z" style="fill:#2758fe;fill-opacity:.9;fill-rule:nonzero"/>
  <path d="M850.99 224.24a22.36 22.36 0 1 1-44.72 0 22.36 22.36 0 0 1 44.72 0Z" style="fill:#9457b1;fill-opacity:.9;fill-rule:nonzero"/>
  <path d="M915.23 674.9a22.4 22.4 0 1 1-44.8 0 22.4 22.4 0 0 1 44.8 0Z" style="fill:#ca3b33;fill-opacity:.9;fill-rule:nonzero"/>
  <path d="M537.49 930.74a22.45 22.45 0 1 1-44.9 0 22.45 22.45 0 0 1 44.9 0Z" style="fill:#389725;fill-opacity:.9;fill-rule:nonzero"/>
  <path d="M141.06 702.81a22.5 22.5 0 1 1-44.99 0 22.5 22.5 0 0 1 44.99 0Z" style="fill:#2758fe;fill-opacity:.9;fill-rule:nonzero"/>
  <path d="M172.23 245.49a22.54 22.54 0 1 1-45.07 0 22.54 22.54 0 0 1 45.07 0Z" style="fill:#9457b1;fill-opacity:.9;fill-rule:nonzero"/>
  <path d="M597.95 72.6a22.58 22.58 0 1 1-45.17 0 22.58 22.58 0 0 1 45.17 0Z" style="fill:#ca3b33;fill-opacity:.9;fill-rule:nonzero"/>
  <path d="M940.78 380.1a22.63 22.63 0 1 1-45.26 0 22.63 22.63 0 0 1 45.26 0Z" style="fill:#389725;fill-opacity:.9;fill-rule:nonzero"/>
  <path d="M814.41 824.01a22.67 22.67 0 1 1-45.34 0 22.67 22.67 0 0 1 45.34 0Z" style="fill:#2758fe;fill-opacity:.9;fill-rule:nonzero"/>
  <path d="M359.02 905.18a22.72 22.72 0 1 1-45.44 0 22.72 22.72 0 0 1 45.44 0Z" style="fill:#9457b1;fill-opacity:.9;fill-rule:nonzero"/>
  <path d="M85.83 530.55a22.76 22.76 0 1 1-45.52 0 22.76 22.76 0 0 1 45.52 0Z" style="fill:#ca3b33;fill-opacity:.9;fill-rule:nonzero"/>
  <path d="M303.3 119.82a22.81 22.81 0 1 1-45.61 0 22.81 22.81 0 0 1 45.62 0Z" style="fill:#389725;fill-opacity:.9;fill-rule:nonzero"/>
  <path d="M768.9 135.22a22.85 22.85 0 1 1-45.71 0 22.85 22.85 0 0 1 45.7 0Z" style="fill:#2758fe;fill-opacity:.9;fill-rule:nonzero"/>
  <path d="M959.6 561.38a22.9 22.9 0 1 1-45.79 0 22.9 22.9 0 0 1 45.8 0Z" style="fill:#9457b1;fill-opacity:.9;fill-rule:nonzero"/>
  <path d="M659.53 920.37a22.95 22.95 0 1 1-45.9 0 22.95 22.95 0 0 1 45.9 0Z" style="fill:#ca3b33;fill-opacity:.9;fill-rule:nonzero"/>
  <path d="M204.32 807.73a22.99 22.99 0 1 1-45.98 0 22.99 22.99 0 0 1 45.98 0Z" style="fill:#389725;fill-opacity:.9;fill-rule:nonzero"/>
  <path d="M105.81 348.14a23.04 23.04 0 1 1-46.07 0 23.04 23.04 0 0 1 46.07 0Z" style="fill:#2758fe;fill-opacity:.9;fill-rule:nonzero"/>
  <path d="M476.57 57.44a23.08 23.08 0 1 1-46.17 0 23.08 23.08 0 0 1 46.17 0Z" style="fill:#9457b1;fill-opacity:.9;fill-rule:nonzero"/>
  <path d="M901.36 263.66a23.12 23.12 0 1 1-46.25 0 23.12 23.12 0 0 1 46.25 0Z" style="fill:#ca3b33;fill-opacity:.9;fill-rule:nonzero"/>
  <path d="M902.25 736.88a23.17 23.17 0 1 1-46.34 0 23.17 23.17 0 0 1 46.34 0Z" style="fill:#389725;fill-opacity:.9;fill-rule:nonzero"/>
  <path d="M476.39 945.55a23.22 23.22 0 1 1-46.44 0 23.22 23.22 0 0 1 46.44 0Z" style="fill:#2758fe;fill-opacity:.9;fill-rule:nonzero"/>
  <path d="M101.34 653.57a23.26 23.26 0 1 1-46.52 0 23.26 23.26 0 0 1 46.52 0Z" style="fill:#9457b1;fill-opacity:.9;fill-rule:nonzero"/>
  <path d="M418.1 515.68v17.35h4.68v-5.67h5.65c4.31-.22 5.38-1.4 5.38-5.9 0-4.62-1.16-5.78-5.78-5.78h-9.92Zm4.68 7.68v-3.9h4.05c2.09 0 2.3.2 2.3 2.03 0 1.69-.21 1.87-2.3 1.87h-4.05ZM436.03 515.68h4.67v17.35h-4.67zM447.69 533.03h4.67V519.7h5.36v-4h-15.35v4h5.32v13.34ZM464.81 533.03h4.68V519.7h5.36v-4H459.5v4h5.31v13.34ZM484.3 529.52c-2.98 0-3.34-.22-3.34-2.31h-4.89c0 4.87 1.71 6.09 8.36 6.09 6.47 0 8.14-.98 8.14-4.94 0-3.49-1.73-4.7-8.23-5.96-2.35-.49-3-.82-3-1.73 0-1.32.34-1.47 3.1-1.47 2.8 0 3.13.24 3.13 2.56h4.9c0-5.08-1.65-6.34-8.04-6.34-6.34 0-7.98 1.04-7.98 5.2 0 3.23 1.42 4.3 7.1 5.43 3.26.64 4.13 1.07 4.13 2.07 0 1.26-.36 1.4-3.38 1.4ZM494.8 515.68v17.35h10.47c4.25 0 5.52-.9 5.52-4.56 0-2.62-1.25-3.93-3.83-4.2 2.14-.31 3.2-1.58 3.2-4.07 0-3.6-1.13-4.52-4.89-4.52H494.8Zm4.67 13.8V526h4.38c1.45 0 2.07.54 2.07 1.76 0 1.54-.2 1.71-2.07 1.71h-4.38Zm0-7.03v-3.2h3.93c1.72 0 1.9.15 1.9 1.62 0 1.1-.56 1.58-1.9 1.58h-3.93ZM528.4 525.91v-10.23h-4.66v10.24c0 3.24-.32 3.6-3.03 3.6s-3.03-.36-3.03-3.6v-10.24h-4.67v10.24c0 5.91 1.54 7.38 7.7 7.38s7.7-1.47 7.7-7.38ZM540.77 515.68h-9.92v17.35h4.67v-6.11H539c2.43 0 2.67.2 2.67 2.1v4.01h4.9v-4.27c0-2.22-1.18-3.25-3.5-3.49 2.43-.33 3.5-1.69 3.5-4.56 0-4.03-1.16-5.03-5.79-5.03Zm-5.25 7.68v-3.9h4.05c2.1 0 2.31.2 2.31 1.92 0 1.78-.22 1.98-2.3 1.98h-4.06ZM557.72 523.74v3.55h3.56c-.09 1.56-1.3 2.23-3.96 2.23-3.5 0-3.87-.51-3.87-5.16s.38-5.16 3.87-5.16c3.5 0 3.87.26 3.83 2.67h4.89c.04-5.16-1.7-6.45-8.72-6.45-7 0-8.76 1.78-8.76 8.94 0 7.16 1.75 8.94 8.76 8.94 2.51 0 3.94-.93 4.5-3.05v2.78h4.22v-9.3h-8.32ZM568.49 533.03h4.67v-6.85h6.67v6.85h4.67v-17.35h-4.67v6.5h-6.67v-6.5h-4.67v17.35Z" style="fill:#fff;fill-rule:nonzero"/>
  <path d="m583.41 358.76 1.07 5.84 1.54 5.63 2.02 5.48 2.49 5.29 2.93 5.05 3.36 4.78 3.75 4.47 4.13 4.13 4.47 3.75 4.79 3.36 5.05 2.93 5.28 2.49 5.48 2.02 5.63 1.54 5.84 1.07-.77 4.18-6.01-1.1-5.99-1.64-5.82-2.15-5.62-2.65-5.36-3.12-5.08-3.56-4.76-4-4.39-4.38-3.99-4.76-3.57-5.08-3.11-5.36-2.65-5.62-2.15-5.82-1.63-5.99-1.1-6.01 4.17-.77Zm-3-.14 1.83 1.06-17.89 30.98-1.84-1.06 17.9-30.99Zm-17.73 32.26 1.5-1.5 46.44 46.44-1.5 1.5-46.44-46.44Zm18.82-26.36 1.81 1.1-16.7 27.34-1.8-1.1 16.7-27.34Zm-18.82 26.36 1.5-1.5 46.44 46.44-1.5 1.5-46.44-46.44Zm20.43-20.58 1.77 1.16-15.69 24.12-1.78-1.15 15.7-24.13Zm-20.43 20.58 1.5-1.5 46.44 46.44-1.5 1.5-46.44-46.44Zm22.53-14.95 1.74 1.21-14.89 21.36-1.74-1.22 14.9-21.35Zm-22.53 14.95 1.5-1.5 46.44 46.44-1.5 1.5-46.44-46.44Zm25.12-9.53 1.7 1.27-14.32 19.05-1.7-1.27 14.32-19.05Zm-25.12 9.53 1.5-1.5 46.44 46.44-1.5 1.5-46.44-46.44Zm28.17-4.36 1.65 1.34-13.98 17.2-1.65-1.33 13.98-17.2Zm-28.17 4.36 1.5-1.5 46.44 46.44-1.5 1.5-46.44-46.44Zm31.66.54 1.6 1.4-13.93 15.8-1.6-1.41 13.93-15.8Zm-31.66-.54 1.5-1.5 46.44 46.44-1.5 1.5-46.44-46.44Zm35.56 5.12 1.53 1.47-14.18 14.8-1.53-1.48 14.18-14.8Zm-35.56-5.12 1.5-1.5 46.44 46.44-1.5 1.5-46.44-46.44Zm39.85 9.35 1.47 1.53-14.8 14.18-1.46-1.53 14.8-14.18Zm-39.85-9.35 1.5-1.5 46.44 46.44-1.5 1.5-46.44-46.44Zm44.5 13.19 1.4 1.6-15.79 13.92-1.4-1.6 15.79-13.92Zm-44.5-13.19 1.5-1.5 46.44 46.44-1.5 1.5-46.44-46.44Zm49.46 16.62 1.34 1.65-17.2 13.98-1.34-1.64 17.2-13.99Zm-49.46-16.62 1.5-1.5 46.44 46.44-1.5 1.5-46.44-46.44Zm54.7 19.63 1.28 1.7-19.06 14.3-1.27-1.7 19.05-14.3Zm-54.7-19.63 1.5-1.5 46.44 46.44-1.5 1.5-46.44-46.44Zm60.18 22.17 1.21 1.74-21.36 14.9-1.2-1.75 21.35-14.9Zm-60.18-22.17 1.5-1.5 46.44 46.44-1.5 1.5-46.44-46.44Zm65.86 24.24 1.16 1.77-24.13 15.7-1.15-1.78 24.12-15.7Zm-65.86-24.24 1.5-1.5 46.44 46.44-1.5 1.5-46.44-46.44Zm71.7 25.8 1.1 1.82-27.34 16.7-1.1-1.81 27.34-16.7Zm-71.7-25.8 1.5-1.5 46.44 46.44-1.5 1.5-46.44-46.44Zm77.65 26.88 1.06 1.84-31 17.89-1.05-1.84 30.99-17.9Zm-77.65-26.88 1.5-1.5 46.44 46.44-1.5 1.5-46.44-46.44Z" style="fill:url(#a);fill-rule:nonzero"/>
  <path d="m555.14 407.88-2.94-1.7 27.65-47.88 2.94 1.7-27.65 47.88Zm0 0 2.78-.84a4.24 4.24 0 1 1-8.5 0 4.24 4.24 0 0 1 8.5 0l-2.78.84Z" style="fill:url(#b);fill-rule:nonzero"/>
  <path d="m642.85 419.4-2 5.58-1.47 5.65-1 5.75-.48 5.82.01 5.84.52 5.82 1.02 5.75 1.51 5.64 2 5.5 2.46 5.29 2.9 5.06 3.34 4.8 3.73 4.5 4.11 4.14 4.52 3.84-2.75 3.24-4.66-3.96-4.37-4.42-3.96-4.77-3.54-5.1-3.1-5.38-2.6-5.63-2.13-5.83-1.6-6-1.09-6.11-.55-6.18-.01-6.2.51-6.2 1.06-6.11 1.57-6 2.06-5.77 4 1.43Zm-2.52-1.64 1.06 1.84-31 17.89-1.05-1.84 30.99-17.9Zm-31.49 19.08 2.05-.55 17 63.44-2.05.54-17-63.43Zm29.48-13.42 1.02 1.86-28.13 15.33-1.02-1.86 28.13-15.33Zm-29.48 13.42 2.05-.55 17 63.44-2.05.54-17-63.43Zm27.98-7.6.96 1.88-25.65 13.05-.96-1.9 25.65-13.04Zm-27.98 7.6 2.05-.55 17 63.44-2.05.54-17-63.43Zm27-1.69.9 1.93-23.58 11.05-.9-1.92 23.57-11.06Zm-27 1.7 2.05-.56 17 63.44-2.05.54-17-63.43Zm26.52 4.3.83 1.94-21.92 9.35-.83-1.95 21.92-9.35Zm-26.52-4.3 2.05-.56 17 63.44-2.05.54-17-63.43Zm26.58 10.3.75 1.98-20.7 7.9-.76-1.97 20.7-7.91Zm-26.58-10.3 2.05-.56 17 63.44-2.05.54-17-63.43ZM636 453.12l.68 2.02-19.96 6.7-.67-2 19.95-6.72Zm-27.15-16.29 2.05-.55 17 63.44-2.05.54-17-63.43Zm28.24 22.21.6 2.04-19.69 5.72-.59-2.04 19.68-5.72Zm-28.24-22.2 2.05-.56 17 63.44-2.05.54-17-63.43Zm29.84 28.01.5 2.06-19.9 4.89-.5-2.06 19.9-4.89Zm-29.84-28.02 2.05-.55 17 63.44-2.05.54-17-63.43Zm31.94 33.67.43 2.08-20.64 4.17-.42-2.08 20.63-4.17Zm-31.94-33.67 2.05-.55 17 63.44-2.05.54-17-63.43Zm34.52 39.13.34 2.1-21.89 3.5-.33-2.1 21.88-3.5Zm-34.52-39.13 2.05-.55 17 63.44-2.05.54-17-63.43Zm37.56 44.35.26 2.1-23.66 2.87-.25-2.1 23.65-2.87Zm-37.56-44.35 2.05-.55 17 63.44-2.05.54-17-63.43Zm41.04 49.29.18 2.11-25.94 2.22-.19-2.11 25.95-2.22Zm-41.04-49.29 2.05-.55 17 63.44-2.05.54-17-63.43Zm44.92 53.92.12 2.12-28.74 1.53-.12-2.12 28.74-1.53Zm-44.92-53.92 2.05-.55 17 63.44-2.05.54-17-63.43Zm49.2 58.2.04 2.12-32.02.79-.05-2.12 32.02-.8Zm-49.2-58.2 2.05-.55 17 63.44-2.05.54-17-63.43Zm53.8 62.1v2.12h-35.78v-2.12h35.79Zm-53.8-62.1 2.05-.55 17 63.44-2.05.54-17-63.43Z" style="fill:url(#c);fill-rule:nonzero"/>
  <path d="m593.81 447.8-1.7-2.94 47.9-27.65 1.7 2.94-47.9 27.65Zm0 0 3.4-1.47a4.24 4.24 0 1 1-8.49 0 4.24 4.24 0 0 1 8.49 0l-3.4 1.47Z" style="fill:url(#d);fill-rule:nonzero"/>
  <path d="m664.02 501.62-4.52 3.84-4.11 4.15-3.73 4.49-3.33 4.8-2.91 5.06-2.46 5.3-2 5.49-1.51 5.64-1.02 5.75-.51 5.82-.02 5.84.49 5.82.99 5.75 1.48 5.65 2 5.59-4 1.42-2.06-5.75-1.57-6-1.06-6.12-.51-6.19.01-6.2.55-6.19 1.08-6.11 1.6-6 2.13-5.83 2.62-5.63 3.09-5.38 3.54-5.1 3.97-4.77 4.36-4.42 4.66-3.96 2.75 3.24Zm-1.37-2.68v2.12h-35.79v-2.12h35.79Zm-36.81.79 2.05.54-17 63.44-2.05-.55 17-63.43Zm32.24 3.1-.05 2.13-32.02-.79.05-2.12 32.02.79Zm-32.24-3.1 2.05.54-17 63.44-2.05-.55 17-63.43Zm28.03 7.4-.1 2.11-28.75-1.53.12-2.11 28.74 1.52Zm-28.03-7.4 2.05.54-17 63.44-2.05-.55 17-63.43Zm24.22 12.03-.18 2.11-25.95-2.22.19-2.1 25.94 2.2Zm-24.22-12.03 2.05.54-17 63.44-2.05-.55 17-63.43Zm20.82 16.98-.26 2.1-23.65-2.86.25-2.1 23.66 2.86Zm-20.82-16.98 2.05.54-17 63.44-2.05-.55 17-63.43Zm17.86 22.2-.34 2.1-21.88-3.5.33-2.1 21.89 3.5Zm-17.86-22.2 2.05.54-17 63.44-2.05-.55 17-63.43Zm15.36 27.68-.42 2.08-20.63-4.17.42-2.08 20.63 4.17Zm-15.36-27.68 2.05.54-17 63.44-2.05-.55 17-63.43Zm13.35 33.35-.5 2.06-19.9-4.88.5-2.07 19.9 4.89Zm-13.35-33.35 2.05.54-17 63.44-2.05-.55 17-63.43Zm11.83 39.18-.6 2.04-19.67-5.72.6-2.04 19.67 5.72Zm-11.83-39.18 2.05.54-17 63.44-2.05-.55 17-63.43Zm10.83 45.13-.68 2-19.95-6.7.67-2.02 19.96 6.72Zm-10.83-45.13 2.05.54-17 63.44-2.05-.55 17-63.43Zm10.33 51.14-.75 1.98-20.71-7.9.75-1.99 20.71 7.9Zm-10.33-51.14 2.05.54-17 63.44-2.05-.55 17-63.43Zm10.35 57.18-.83 1.95-21.92-9.35.83-1.95 21.92 9.35Zm-10.35-57.18 2.05.54-17 63.44-2.05-.55 17-63.43Zm10.9 63.2-.9 1.92-23.58-11.06.9-1.91 23.57 11.04Zm-10.9-63.2 2.05.54-17 63.44-2.05-.55 17-63.43Zm11.94 69.15-.96 1.89-25.65-13.05.96-1.89 25.65 13.05Zm-11.94-69.15 2.05.54-17 63.44-2.05-.55 17-63.43Zm13.5 74.99-1.02 1.86-28.13-15.33 1.02-1.86 28.13 15.33Zm-13.5-75 2.05.55-17 63.44-2.05-.55 17-63.43Zm15.55 80.68-1.06 1.84-31-17.89 1.07-1.84 30.99 17.9Zm-15.55-80.67 2.05.54-17 63.44-2.05-.55 17-63.43Z" style="fill:url(#e);fill-rule:nonzero"/>
  <path d="M607.35 501.7v-3.4h55.3v3.4h-55.3Zm0 0 4.24-1.7a4.24 4.24 0 1 1-8.48 0 4.24 4.24 0 0 1 8.48 0l-4.24 1.7Z" style="fill:url(#f);fill-rule:nonzero"/>
  <path d="m641.24 583.41-5.84 1.07-5.63 1.54-5.48 2.02-5.29 2.49-5.05 2.93-4.78 3.36-4.47 3.75-4.13 4.13-3.75 4.47-3.36 4.78-2.93 5.05-2.5 5.29-2.01 5.48-1.54 5.63-1.07 5.84-4.17-.76 1.1-6.02 1.63-5.99 2.15-5.82 2.64-5.62 3.12-5.36 3.57-5.08 4-4.76 4.38-4.39 4.75-4 5.09-3.56 5.36-3.12 5.62-2.64 5.82-2.15 5.99-1.64 6.01-1.1.77 4.18Zm.15-3-1.06 1.83-31-17.89 1.07-1.84 30.99 17.9Zm-32.27-17.73 1.5 1.5-46.44 46.44-1.5-1.5 46.44-46.44Zm26.36 18.82-1.1 1.81-27.34-16.7 1.1-1.8 27.34 16.69Zm-26.36-18.82 1.5 1.5-46.44 46.44-1.5-1.5 46.44-46.44Zm20.58 20.43-1.16 1.77-24.12-15.69 1.16-1.78 24.12 15.7Zm-20.58-20.43 1.5 1.5-46.44 46.44-1.5-1.5 46.44-46.44Zm14.95 22.53-1.2 1.74-21.37-14.89 1.22-1.74 21.35 14.89Zm-14.95-22.53 1.5 1.5-46.44 46.44-1.5-1.5 46.44-46.44Zm9.54 25.12-1.28 1.7-19.05-14.32 1.27-1.7 19.06 14.32Zm-9.54-25.12 1.5 1.5-46.44 46.44-1.5-1.5 46.44-46.44Zm4.36 28.17-1.34 1.64-17.2-13.97 1.34-1.65 17.2 13.98Zm-4.36-28.17 1.5 1.5-46.44 46.44-1.5-1.5 46.44-46.44Zm-.54 31.66-1.4 1.59-15.8-13.92 1.41-1.6 15.8 13.93Zm.54-31.66 1.5 1.5-46.44 46.44-1.5-1.5 46.44-46.44ZM604 598.24l-1.47 1.53-14.79-14.18 1.47-1.53L604 598.24Zm5.12-35.56 1.5 1.5-46.44 46.44-1.5-1.5 46.44-46.44Zm-9.35 39.85-1.53 1.47-14.18-14.8 1.53-1.46 14.18 14.8Zm9.35-39.85 1.5 1.5-46.44 46.44-1.5-1.5 46.44-46.44Zm-13.2 44.5-1.58 1.4-13.93-15.79 1.6-1.4 13.92 15.79Zm13.2-44.5 1.5 1.5-46.44 46.44-1.5-1.5 46.44-46.44Zm-16.63 49.46-1.64 1.34-13.98-17.2 1.65-1.34 13.97 17.2Zm16.63-49.46 1.5 1.5-46.44 46.44-1.5-1.5 46.44-46.44Zm-19.63 54.7-1.7 1.28-14.3-19.06 1.7-1.27 14.3 19.05Zm19.63-54.7 1.5 1.5-46.44 46.44-1.5-1.5 46.44-46.44Zm-22.17 60.18-1.74 1.21-14.9-21.35 1.75-1.22 14.89 21.36Zm22.17-60.18 1.5 1.5-46.44 46.44-1.5-1.5 46.44-46.44Zm-24.24 65.86-1.77 1.16-15.7-24.13 1.78-1.15 15.7 24.12Zm24.24-65.86 1.5 1.5-46.44 46.44-1.5-1.5 46.44-46.44Zm-25.81 71.7-1.81 1.1-16.7-27.34 1.82-1.1 16.69 27.34Zm25.8-71.7 1.5 1.5-46.43 46.44-1.5-1.5 46.44-46.44Zm-26.87 77.65-1.84 1.06-17.89-31 1.84-1.05 17.9 30.99Zm26.88-77.65 1.5 1.5-46.44 46.44-1.5-1.5 46.44-46.44Z" style="fill:url(#g);fill-rule:nonzero"/>
  <path d="m592.12 555.14 1.7-2.94 47.88 27.65-1.7 2.94-47.88-27.65Zm0 0 5.09-1.47a4.24 4.24 0 1 1-8.5 0 4.24 4.24 0 0 1 8.5 0l-5.1 1.47Z" style="fill:url(#h);fill-rule:nonzero"/>
  <path d="m580.61 642.85-5.59-2-5.65-1.47-5.75-1-5.82-.48-5.84.01-5.82.52-5.75 1.02-5.64 1.5-5.49 2-5.3 2.47-5.06 2.9-4.8 3.34-4.5 3.73-4.14 4.1-3.84 4.53-3.24-2.75 3.96-4.66 4.42-4.37 4.77-3.96 5.1-3.54 5.38-3.1 5.63-2.6 5.83-2.13 6-1.6 6.11-1.09 6.18-.55 6.21-.01 6.19.51 6.11 1.06 6 1.57 5.76 2.06-1.42 4Zm1.63-2.52-1.84 1.06-17.89-31 1.84-1.05 17.9 30.99Zm-19.08-31.49.55 2.05-63.44 17-.54-2.05 63.43-17Zm13.42 29.48-1.86 1.02-15.33-28.13 1.86-1.02 15.33 28.13Zm-13.42-29.48.55 2.05-63.44 17-.54-2.05 63.43-17Zm7.6 27.98-1.88.96-13.05-25.65 1.9-.96 13.04 25.65Zm-7.6-27.98.55 2.05-63.44 17-.54-2.05 63.43-17Zm1.69 27-1.93.9-11.04-23.58 1.91-.9 11.06 23.57Zm-1.7-27 .56 2.05-63.44 17-.54-2.05 63.43-17Zm-4.3 26.52-1.94.83-9.35-21.92 1.95-.83 9.35 21.92Zm4.3-26.52.56 2.05-63.44 17-.54-2.05 63.43-17Zm-10.3 26.58-1.98.75-7.91-20.7 1.98-.76 7.91 20.7Zm10.3-26.58.56 2.05-63.44 17-.54-2.05 63.43-17ZM546.88 636l-2.01.68-6.72-19.96 2.01-.67 6.72 19.95Zm16.29-27.15.55 2.05-63.44 17-.54-2.05 63.43-17Zm-22.21 28.24-2.04.6-5.72-19.69 2.04-.59 5.72 19.68Zm22.2-28.24.56 2.05-63.44 17-.54-2.05 63.43-17Zm-28.01 29.84-2.06.5-4.89-19.9 2.06-.5 4.89 19.9Zm28.02-29.84.55 2.05-63.44 17-.54-2.05 63.43-17Zm-33.67 31.94-2.08.42-4.16-20.63 2.07-.42 4.17 20.63Zm33.67-31.94.55 2.05-63.44 17-.54-2.05 63.43-17Zm-39.13 34.52-2.1.34-3.5-21.89 2.1-.33 3.5 21.88Zm39.13-34.52.55 2.05-63.44 17-.54-2.05 63.43-17ZM518.8 646.4l-2.1.26-2.87-23.66 2.1-.25 2.87 23.65Zm44.35-37.56.55 2.05-63.44 17-.54-2.05 63.43-17Zm-49.29 41.04-2.11.18-2.22-25.94 2.11-.19 2.22 25.95Zm49.29-41.04.55 2.05-63.44 17-.54-2.05 63.43-17Zm-53.92 44.92-2.12.12-1.52-28.74 2.11-.12 1.53 28.74Zm53.92-44.92.55 2.05-63.44 17-.54-2.05 63.43-17Zm-58.2 49.19-2.12.05-.79-32.02 2.12-.05.8 32.02Zm58.2-49.19.55 2.05-63.44 17-.54-2.05 63.43-17Zm-62.1 53.8h-2.12v-35.78h2.12v35.79Zm62.1-53.8.55 2.05-63.44 17-.54-2.05 63.43-17Z" style="fill:url(#i);fill-rule:nonzero"/>
  <path d="m552.2 593.81 2.94-1.7 27.65 47.9-2.94 1.7-27.65-47.9Zm0 0 5.72-.84a4.24 4.24 0 1 1-8.5 0 4.24 4.24 0 0 1 8.5 0l-5.72.84Z" style="fill:url(#j);fill-rule:nonzero"/>
  <path d="m498.38 664.02-3.84-4.52-4.15-4.1-4.49-3.74-4.8-3.33-5.06-2.91-5.3-2.46-5.49-2-5.64-1.51-5.75-1.02-5.82-.51-5.84-.02-5.82.49-5.75.99-5.65 1.48-5.59 2-1.43-4 5.76-2.06 6-1.57 6.13-1.06 6.18-.51 6.2.01 6.19.55 6.11 1.08 6 1.61 5.83 2.12 5.63 2.62 5.38 3.09 5.1 3.54 4.77 3.97 4.42 4.36 3.96 4.66-3.24 2.75Zm2.68-1.37h-2.12v-35.79h2.12v35.79Zm-.79-36.81-.54 2.05-63.44-17 .55-2.05 63.43 17Zm-3.11 32.24-2.12-.05.79-32.02 2.12.05-.79 32.02Zm3.11-32.24-.54 2.05-63.44-17 .55-2.05 63.43 17Zm-7.4 28.03-2.11-.1 1.53-28.75 2.12.12-1.53 28.74Zm7.4-28.03-.54 2.05-63.44-17 .55-2.05 63.43 17Zm-12.03 24.22-2.11-.18 2.22-25.95 2.11.19-2.22 25.94Zm12.03-24.22-.54 2.05-63.44-17 .55-2.05 63.43 17Zm-16.98 20.82-2.1-.26 2.86-23.65 2.11.25-2.87 23.66Zm16.98-20.82-.54 2.05-63.44-17 .55-2.05 63.43 17Zm-22.2 17.86-2.1-.34 3.5-21.88 2.1.33-3.5 21.89Zm22.2-17.86-.54 2.05-63.44-17 .55-2.05 63.43 17ZM472.6 641.2l-2.08-.43 4.17-20.63 2.08.42-4.17 20.63Zm27.68-15.37-.54 2.05-63.44-17 .55-2.05 63.43 17Zm-33.35 13.35-2.06-.5 4.89-19.9 2.06.5-4.89 19.9Zm33.35-13.35-.54 2.05-63.44-17 .55-2.05 63.43 17Zm-39.18 11.83-2.04-.6 5.72-19.67 2.04.6-5.72 19.67Zm39.18-11.83-.54 2.05-63.44-17 .55-2.05 63.43 17Zm-45.12 10.83-2.02-.68 6.72-19.95 2 .67-6.7 19.96Zm45.12-10.83-.54 2.05-63.44-17 .55-2.05 63.43 17Zm-51.14 10.33-1.98-.75 7.9-20.71 1.99.75-7.9 20.71Zm51.14-10.33-.54 2.05-63.44-17 .55-2.05 63.43 17Zm-57.18 10.35-1.95-.83 9.35-21.92 1.95.83-9.35 21.92Zm57.18-10.35-.54 2.05-63.44-17 .55-2.05 63.43 17Zm-63.2 10.9-1.92-.9 11.06-23.58 1.92.9-11.06 23.57Zm63.2-10.9-.54 2.05-63.44-17 .55-2.05 63.43 17Zm-69.15 11.94-1.89-.96 13.05-25.65 1.89.96-13.05 25.65Zm69.15-11.94-.54 2.05-63.44-17 .55-2.05 63.43 17Zm-74.99 13.5-1.86-1.02 15.33-28.13 1.86 1.02-15.33 28.13Zm75-13.5-.55 2.05-63.44-17 .55-2.05 63.43 17Zm-80.68 15.55-1.84-1.06 17.9-31 1.83 1.07-17.9 30.99Zm80.67-15.55-.54 2.05-63.44-17 .55-2.05 63.43 17Z" style="fill:url(#k);fill-rule:nonzero"/>
  <path d="M498.3 607.35h3.4v55.3h-3.4v-55.3Zm0 0h5.94a4.24 4.24 0 1 1-8.48 0 4.24 4.24 0 0 1 8.48 0h-5.94Z" style="fill:url(#l);fill-rule:nonzero"/>
  <path d="m416.6 641.24-1.08-5.84-1.54-5.63-2.02-5.48-2.49-5.28-2.93-5.05-3.36-4.79-3.75-4.47-4.13-4.13-4.47-3.75-4.78-3.36-5.05-2.93-5.29-2.5-5.48-2.01-5.63-1.54-5.84-1.07.77-4.17 6.01 1.1 5.99 1.63 5.82 2.15 5.62 2.65 5.36 3.12 5.08 3.56 4.76 4 4.39 4.38 3.99 4.76 3.56 5.08 3.12 5.36 2.65 5.62 2.15 5.82 1.63 5.99 1.1 6.01-4.17.77Zm3 .15-1.84-1.06 17.9-31 1.83 1.07-17.9 30.99Zm17.72-32.27-1.5 1.5-46.44-46.44 1.5-1.5 46.44 46.44Zm-18.82 26.36-1.81-1.1 16.7-27.34 1.8 1.1-16.7 27.34Zm18.82-26.36-1.5 1.5-46.44-46.44 1.5-1.5 46.44 46.44Zm-20.43 20.58-1.77-1.16 15.69-24.12 1.78 1.15-15.7 24.13Zm20.43-20.58-1.5 1.5-46.44-46.44 1.5-1.5 46.44 46.44Zm-22.53 14.95-1.74-1.2 14.89-21.37 1.74 1.22-14.9 21.35Zm22.53-14.95-1.5 1.5-46.44-46.44 1.5-1.5 46.44 46.44Zm-25.12 9.54-1.7-1.28 14.32-19.05 1.7 1.27-14.32 19.06Zm25.12-9.54-1.5 1.5-46.44-46.44 1.5-1.5 46.44 46.44Zm-28.17 4.36-1.65-1.34 13.99-17.2 1.64 1.33-13.98 17.21Zm28.17-4.36-1.5 1.5-46.44-46.44 1.5-1.5 46.44 46.44Zm-31.66-.54-1.59-1.4 13.93-15.8 1.59 1.41-13.93 15.8Zm31.66.54-1.5 1.5-46.44-46.44 1.5-1.5 46.44 46.44ZM401.76 604l-1.53-1.47 14.18-14.79 1.53 1.47-14.18 14.8Zm35.56 5.12-1.5 1.5-46.44-46.44 1.5-1.5 46.44 46.44Zm-39.85-9.35-1.47-1.53 14.8-14.18 1.46 1.53-14.8 14.18Zm39.85 9.35-1.5 1.5-46.44-46.44 1.5-1.5 46.44 46.44Zm-44.5-13.19-1.4-1.59 15.79-13.93 1.4 1.6-15.79 13.92Zm44.5 13.19-1.5 1.5-46.44-46.44 1.5-1.5 46.44 46.44Zm-49.46-16.62-1.34-1.65 17.2-13.98 1.34 1.65-17.2 13.98Zm49.46 16.62-1.5 1.5-46.44-46.44 1.5-1.5 46.44 46.44Zm-54.7-19.63-1.27-1.7 19.05-14.3 1.27 1.7-19.05 14.3Zm54.7 19.63-1.5 1.5-46.44-46.44 1.5-1.5 46.44 46.44Zm-60.18-22.17-1.21-1.74 21.35-14.9 1.22 1.75-21.36 14.9Zm60.18 22.17-1.5 1.5-46.44-46.44 1.5-1.5 46.44 46.44Zm-65.86-24.24-1.16-1.77 24.13-15.7 1.15 1.78-24.12 15.7Zm65.86 24.24-1.5 1.5-46.44-46.44 1.5-1.5 46.44 46.44Zm-71.7-25.81-1.1-1.8 27.34-16.7 1.1 1.8-27.34 16.7Zm71.7 25.8-1.5 1.5-46.44-46.43 1.5-1.5 46.44 46.44Zm-77.64-26.87-1.06-1.84 30.98-17.89 1.06 1.84-30.98 17.9Zm77.64 26.88-1.5 1.5-46.44-46.44 1.5-1.5 46.44 46.44Z" style="fill:url(#m);fill-rule:nonzero"/>
  <path d="m444.86 592.12 2.94 1.7-27.65 47.88-2.94-1.7 27.65-47.88Zm0 0 5.71.85a4.24 4.24 0 1 1-8.49 0 4.24 4.24 0 0 1 8.49 0l-5.71-.85Z" style="fill:url(#n);fill-rule:nonzero"/>
  <path d="m357.15 580.61 1.99-5.59 1.48-5.65.99-5.75.49-5.82-.02-5.84-.52-5.82-1.01-5.75-1.51-5.64-2-5.49-2.46-5.3-2.9-5.06-3.34-4.8-3.73-4.49-4.1-4.15-4.53-3.84 2.75-3.24 4.66 3.97 4.37 4.4 3.96 4.78 3.54 5.1 3.1 5.38 2.6 5.63 2.13 5.83 1.6 6 1.08 6.11.55 6.18.02 6.21-.52 6.18-1.05 6.12-1.57 6-2.06 5.76-4-1.42Zm2.53 1.63-1.06-1.84 30.98-17.89 1.06 1.84-30.98 17.9Zm31.48-19.08-2.05.55-17-63.44 2.05-.54 17 63.43Zm-29.48 13.42-1.02-1.86 28.13-15.33 1.02 1.86-28.13 15.33Zm29.48-13.42-2.05.55-17-63.44 2.05-.54 17 63.43Zm-27.98 7.6-.96-1.88 25.65-13.05.96 1.9-25.65 13.04Zm27.98-7.6-2.05.55-17-63.44 2.05-.54 17 63.43Zm-27 1.69-.9-1.93 23.58-11.05.9 1.92-23.57 11.06Zm27-1.7-2.05.56-17-63.44 2.05-.54 17 63.43Zm-26.53-4.3-.83-1.94 21.93-9.35.83 1.95-21.93 9.35Zm26.53 4.3-2.05.56-17-63.44 2.05-.54 17 63.43Zm-26.58-10.3-.76-1.98 20.72-7.91.75 1.98-20.7 7.91Zm26.58 10.3-2.05.56-17-63.44 2.05-.54 17 63.43ZM364 546.88l-.68-2.01 19.96-6.72.67 2.01-19.95 6.72Zm27.15 16.29-2.05.55-17-63.44 2.05-.54 17 63.43Zm-28.24-22.21-.6-2.04 19.69-5.72.59 2.04-19.68 5.72Zm28.24 22.2-2.05.56-17-63.44 2.05-.54 17 63.43Zm-29.84-28.01-.51-2.06 19.9-4.89.51 2.06-19.9 4.89Zm29.84 28.02-2.05.55-17-63.44 2.05-.54 17 63.43Zm-31.95-33.67-.42-2.08 20.64-4.16.42 2.07-20.64 4.17Zm31.95 33.67-2.05.55-17-63.44 2.05-.54 17 63.43Zm-34.53-39.13-.33-2.1 21.89-3.5.33 2.1-21.89 3.5Zm34.53 39.13-2.05.55-17-63.44 2.05-.54 17 63.43Zm-37.56-44.34-.26-2.11 23.66-2.87.26 2.1-23.66 2.88Zm37.56 44.34-2.05.55-17-63.44 2.05-.54 17 63.43Zm-41.04-49.29-.18-2.11 25.95-2.22.18 2.12-25.95 2.21Zm41.04 49.29-2.05.55-17-63.44 2.05-.54 17 63.43Zm-44.92-53.92-.11-2.12 28.73-1.52.12 2.11-28.74 1.53Zm44.92 53.92-2.05.55-17-63.44 2.05-.54 17 63.43Zm-49.19-58.2-.05-2.12 32.02-.79.06 2.12-32.03.8Zm49.19 58.2-2.05.55-17-63.44 2.05-.54 17 63.43Zm-53.8-62.1v-2.12h35.78v2.12h-35.78Zm53.8 62.1-2.05.55-17-63.44 2.05-.54 17 63.43Z" style="fill:url(#o);fill-rule:nonzero"/>
  <path d="m406.19 552.2 1.7 2.94-47.9 27.65-1.7-2.94 47.9-27.65Zm0 0 5.09 1.47a4.24 4.24 0 1 1-8.49 0 4.24 4.24 0 0 1 8.49 0l-5.1-1.47Z" style="fill:url(#p);fill-rule:nonzero"/>
  <path d="m335.98 498.38 4.52-3.84 4.1-4.15 3.74-4.5 3.33-4.79 2.9-5.06 2.47-5.3 2-5.49 1.5-5.64 1.02-5.75.52-5.82.02-5.84-.49-5.82-.99-5.75-1.48-5.65-2-5.59 4-1.43 2.06 5.77 1.57 6 1.05 6.12.52 6.18-.02 6.2-.55 6.19-1.07 6.11-1.61 6-2.13 5.83-2.6 5.63-3.1 5.38-3.54 5.1-3.97 4.77-4.36 4.41-4.66 3.97-2.75-3.24Zm1.38 2.68v-2.12h35.78v2.12h-35.78Zm36.8-.79-2.05-.54 17-63.44 2.05.55-17 63.43Zm-32.24-3.11.05-2.12 32.03.79-.06 2.12-32.02-.8Zm32.24 3.11-2.05-.54 17-63.44 2.05.55-17 63.43Zm-28.04-7.4.12-2.11 28.74 1.53-.12 2.11-28.74-1.52Zm28.04 7.4-2.05-.54 17-63.44 2.05.55-17 63.43Zm-24.22-12.03.18-2.11 25.95 2.22-.18 2.1-25.95-2.2Zm24.22 12.03-2.05-.54 17-63.44 2.05.55-17 63.43Zm-20.82-16.98.26-2.1 23.66 2.86-.26 2.1-23.66-2.86Zm20.82 16.98-2.05-.54 17-63.44 2.05.55-17 63.43Zm-17.86-22.2.33-2.1 21.9 3.5-.34 2.1-21.9-3.5Zm17.86 22.2-2.05-.54 17-63.44 2.05.55-17 63.43ZM358.8 472.6l.42-2.08 20.64 4.17-.42 2.08-20.64-4.17Zm15.37 27.68-2.05-.54 17-63.44 2.05.55-17 63.43Zm-13.35-33.35.5-2.06 19.91 4.89-.5 2.06-19.91-4.89Zm13.35 33.35-2.05-.54 17-63.44 2.05.55-17 63.43Zm-11.83-39.18.59-2.04 19.68 5.72-.6 2.04-19.67-5.72Zm11.83 39.18-2.05-.54 17-63.44 2.05.55-17 63.43Zm-10.83-45.12.68-2.02 19.95 6.72-.67 2-19.96-6.7Zm10.83 45.12-2.05-.54 17-63.44 2.05.55-17 63.43Zm-10.34-51.14.76-1.98 20.71 7.9-.75 2-20.72-7.92Zm10.34 51.14-2.05-.54 17-63.44 2.05.55-17 63.43ZM363.8 443.1l.83-1.95 21.93 9.35-.83 1.95-21.93-9.35Zm10.36 57.18-2.05-.54 17-63.44 2.05.55-17 63.43Zm-10.9-63.2.9-1.92 23.58 11.06-.9 1.92-23.57-11.06Zm10.9 63.2-2.05-.54 17-63.44 2.05.55-17 63.43Zm-11.94-69.15.96-1.89 25.65 13.05-.96 1.89-25.65-13.05Zm11.94 69.15-2.05-.54 17-63.44 2.05.55-17 63.43Zm-13.5-74.99 1.02-1.86 28.13 15.33-1.02 1.86-28.13-15.33Zm13.5 75-2.05-.55 17-63.44 2.05.55-17 63.43Zm-15.55-80.68 1.07-1.84 30.98 17.9-1.06 1.83-30.99-17.9Zm15.55 80.67-2.05-.54 17-63.44 2.05.55-17 63.43Z" style="fill:url(#q);fill-rule:nonzero"/>
  <path d="M392.65 498.3v3.4h-55.3v-3.4h55.3Zm0 0 4.25 1.7a4.24 4.24 0 1 1-8.49 0 4.24 4.24 0 0 1 8.49 0l-4.25-1.7Z" style="fill:url(#r);fill-rule:nonzero"/>
  <path d="m358.76 416.6 5.84-1.08 5.63-1.54 5.48-2.02 5.29-2.49 5.04-2.93 4.78-3.36 4.48-3.75 4.13-4.13 3.75-4.48 3.36-4.78 2.93-5.05 2.49-5.28 2.02-5.48 1.54-5.63 1.07-5.84 4.18.77-1.1 6.01-1.64 5.99-2.15 5.82-2.65 5.62-3.12 5.36-3.56 5.08-4 4.76-4.38 4.39-4.76 3.99-5.08 3.56-5.36 3.12-5.62 2.64-5.82 2.16-5.99 1.63-6.01 1.1-.77-4.17Zm-.14 3 1.06-1.84 30.98 17.9-1.06 1.83-30.99-17.9Zm32.26 17.72-1.5-1.5 46.44-46.44 1.5 1.5-46.44 46.44Zm-26.36-18.82 1.1-1.81 27.34 16.7-1.1 1.8-27.34-16.7Zm26.36 18.82-1.5-1.5 46.44-46.44 1.5 1.5-46.44 46.44Zm-20.58-20.43 1.16-1.77 24.12 15.69-1.15 1.78-24.13-15.7Zm20.58 20.43-1.5-1.5 46.44-46.44 1.5 1.5-46.44 46.44Zm-14.95-22.53 1.2-1.74 21.37 14.89-1.21 1.74-21.37-14.9Zm14.95 22.53-1.5-1.5 46.44-46.44 1.5 1.5-46.44 46.44Zm-9.54-25.12 1.28-1.7 19.05 14.32-1.27 1.7-19.06-14.32Zm9.54 25.12-1.5-1.5 46.44-46.44 1.5 1.5-46.44 46.44Zm-4.36-28.17 1.34-1.65 17.2 13.98-1.33 1.65-17.21-13.98Zm4.36 28.17-1.5-1.5 46.44-46.44 1.5 1.5-46.44 46.44Zm.54-31.66 1.4-1.6 15.8 13.94-1.41 1.59-15.8-13.93Zm-.54 31.66-1.5-1.5 46.44-46.44 1.5 1.5-46.44 46.44Zm5.12-35.56 1.47-1.53 14.8 14.18-1.48 1.53-14.8-14.18Zm-5.12 35.56-1.5-1.5 46.44-46.44 1.5 1.5-46.44 46.44Zm9.35-39.85 1.53-1.47 14.18 14.8-1.53 1.46-14.18-14.8Zm-9.35 39.85-1.5-1.5 46.44-46.44 1.5 1.5-46.44 46.44Zm13.19-44.5 1.59-1.4 13.93 15.79-1.6 1.4-13.92-15.8Zm-13.19 44.5-1.5-1.5 46.44-46.44 1.5 1.5-46.44 46.44Zm16.62-49.46 1.65-1.34 13.98 17.2-1.65 1.34-13.98-17.2Zm-16.62 49.46-1.5-1.5 46.44-46.44 1.5 1.5-46.44 46.44Zm19.62-54.7 1.7-1.28 14.31 19.06-1.7 1.27-14.3-19.05Zm-19.62 54.7-1.5-1.5 46.44-46.44 1.5 1.5-46.44 46.44Zm22.17-60.18 1.74-1.21 14.89 21.36-1.74 1.2-14.9-21.35Zm-22.17 60.18-1.5-1.5 46.44-46.44 1.5 1.5-46.44 46.44Zm24.24-65.86 1.77-1.16 15.7 24.13-1.78 1.15-15.7-24.12Zm-24.24 65.86-1.5-1.5 46.44-46.44 1.5 1.5-46.44 46.44Zm25.8-71.7 1.82-1.1 16.7 27.34-1.81 1.1-16.7-27.34Zm-25.8 71.7-1.5-1.5 46.44-46.44 1.5 1.5-46.44 46.44Zm26.88-77.64 1.84-1.06 17.89 30.98-1.84 1.06-17.9-30.98Zm-26.88 77.64-1.5-1.5 46.44-46.44 1.5 1.5-46.44 46.44Z" style="fill:url(#s);fill-rule:nonzero"/>
  <path d="m407.88 444.86-1.7 2.94-47.88-27.65 1.7-2.94 47.88 27.65Zm0 0 3.4 1.47a4.24 4.24 0 1 1-8.49 0 4.24 4.24 0 0 1 8.49 0l-3.4-1.47Z" style="fill:url(#t);fill-rule:nonzero"/>
  <path d="m419.4 357.15 5.58 2 5.65 1.47 5.75.99 5.82.49 5.84-.02 5.82-.52 5.75-1.01 5.64-1.51 5.49-2 5.3-2.46 5.06-2.9 4.8-3.34 4.49-3.73 4.15-4.11 3.84-4.52 3.24 2.75-3.97 4.66-4.4 4.36-4.78 3.97-5.1 3.54-5.38 3.1-5.63 2.6-5.83 2.13-6 1.6-6.11 1.08-6.18.55-6.2.02-6.2-.52-6.11-1.05-6-1.57-5.77-2.06 1.43-4Zm-1.64 2.53 1.84-1.06 17.89 30.98-1.84 1.06-17.9-30.98Zm19.08 31.48-.55-2.05 63.44-17 .54 2.05-63.43 17Zm-13.42-29.48 1.86-1.02 15.33 28.13-1.86 1.02-15.33-28.13Zm13.42 29.48-.55-2.05 63.44-17 .54 2.05-63.43 17Zm-7.6-27.98 1.88-.96 13.05 25.65-1.9.96-13.04-25.65Zm7.6 27.98-.55-2.05 63.44-17 .54 2.05-63.43 17Zm-1.69-27 1.93-.9 11.05 23.58-1.92.9-11.06-23.57Zm1.7 27-.56-2.05 63.44-17 .54 2.05-63.43 17Zm4.3-26.53 1.94-.83 9.35 21.93-1.95.83-9.35-21.93Zm-4.3 26.53-.56-2.05 63.44-17 .54 2.05-63.43 17Zm10.3-26.58 1.98-.76 7.91 20.72-1.98.75-7.91-20.7Zm-10.3 26.58-.56-2.05 63.44-17 .54 2.05-63.43 17ZM453.12 364l2.02-.68 6.7 19.96-2 .67-6.72-19.95Zm-16.29 27.15-.55-2.05 63.44-17 .54 2.05-63.43 17Zm22.21-28.24 2.04-.6 5.72 19.69-2.04.59-5.72-19.68Zm-22.2 28.24-.56-2.05 63.44-17 .54 2.05-63.43 17Zm28.01-29.84 2.06-.51 4.89 19.9-2.06.51-4.89-19.9Zm-28.02 29.84-.55-2.05 63.44-17 .54 2.05-63.43 17Zm33.67-31.95 2.08-.42 4.17 20.64-2.08.42-4.17-20.64Zm-33.67 31.95-.55-2.05 63.44-17 .54 2.05-63.43 17Zm39.13-34.53 2.1-.33 3.5 21.89-2.1.33-3.5-21.89Zm-39.13 34.53-.55-2.05 63.44-17 .54 2.05-63.43 17Zm44.35-37.56 2.1-.26 2.87 23.66-2.1.26-2.88-23.66Zm-44.35 37.56-.55-2.05 63.44-17 .54 2.05-63.43 17Zm49.29-41.04 2.11-.18 2.22 25.95-2.11.18-2.22-25.95Zm-49.29 41.04-.55-2.05 63.44-17 .54 2.05-63.43 17Zm53.92-44.92 2.12-.12 1.52 28.74-2.11.12-1.53-28.74Zm-53.92 44.92-.55-2.05 63.44-17 .54 2.05-63.43 17Zm58.2-49.19 2.12-.05.79 32.02-2.12.06-.8-32.03Zm-58.2 49.19-.55-2.05 63.44-17 .54 2.05-63.43 17Zm62.1-53.8h2.12v35.78h-2.12v-35.78Zm-62.1 53.8-.55-2.05 63.44-17 .54 2.05-63.43 17Z" style="fill:url(#u);fill-rule:nonzero"/>
  <path d="m447.8 406.19-2.94 1.7-27.65-47.9 2.94-1.7 27.65 47.9Zm0 0 2.77.85a4.24 4.24 0 1 1-8.49 0 4.24 4.24 0 0 1 8.49 0l-2.77-.85Z" style="fill:url(#v);fill-rule:nonzero"/>
  <path d="m501.62 335.98 3.84 4.52 4.15 4.11 4.49 3.73 4.8 3.34 5.06 2.9 5.3 2.46 5.49 2 5.64 1.5 5.75 1.02 5.82.52 5.84.02 5.82-.49 5.75-.99 5.65-1.48 5.59-2 1.42 4-5.75 2.06-6 1.57-6.13 1.05-6.18.52-6.2-.02-6.19-.55-6.11-1.07-6-1.61-5.83-2.12-5.63-2.62-5.38-3.09-5.1-3.54-4.77-3.97-4.41-4.36-3.97-4.66 3.24-2.75Zm-2.68 1.38h2.12v35.78h-2.12v-35.78Zm.79 36.8.54-2.05 63.44 17-.55 2.05-63.43-17Zm3.11-32.24 2.12.05-.79 32.03-2.12-.06.8-32.02Zm-3.11 32.24.54-2.05 63.44 17-.55 2.05-63.43-17Zm7.4-28.03 2.11.1-1.53 28.75-2.11-.12 1.52-28.73Zm-7.4 28.03.54-2.05 63.44 17-.55 2.05-63.43-17Zm12.03-24.22 2.11.18-2.21 25.95-2.12-.18 2.22-25.95Zm-12.03 24.22.54-2.05 63.44 17-.55 2.05-63.43-17Zm16.98-20.82 2.1.26-2.86 23.66-2.1-.26 2.86-23.66Zm-16.98 20.82.54-2.05 63.44 17-.55 2.05-63.43-17Zm22.2-17.86 2.1.33-3.5 21.9-2.1-.34 3.5-21.9Zm-22.2 17.86.54-2.05 63.44 17-.55 2.05-63.43-17Zm27.68-15.37 2.08.42-4.17 20.64-2.08-.42 4.17-20.64Zm-27.68 15.37.54-2.05 63.44 17-.55 2.05-63.43-17Zm33.35-13.35 2.06.5-4.88 19.91-2.07-.5 4.9-19.91Zm-33.35 13.35.54-2.05 63.44 17-.55 2.05-63.43-17Zm39.18-11.83 2.04.59-5.72 19.68-2.04-.6 5.72-19.67Zm-39.18 11.83.54-2.05 63.44 17-.55 2.05-63.43-17Zm45.13-10.83 2 .68-6.7 19.95-2.02-.67 6.72-19.96Zm-45.13 10.83.54-2.05 63.44 17-.55 2.05-63.43-17Zm51.14-10.34 1.98.76-7.9 20.71-1.99-.75 7.9-20.72Zm-51.14 10.34.54-2.05 63.44 17-.55 2.05-63.43-17Zm57.18-10.36 1.95.83-9.35 21.93-1.95-.83 9.35-21.93Zm-57.18 10.36.54-2.05 63.44 17-.55 2.05-63.43-17Zm63.2-10.9 1.92.9-11.06 23.58-1.92-.9 11.05-23.57Zm-63.2 10.9.54-2.05 63.44 17-.55 2.05-63.43-17Zm69.15-11.94 1.89.96-13.05 25.65-1.89-.96 13.05-25.65Zm-69.15 11.94.54-2.05 63.44 17-.55 2.05-63.43-17Zm74.99-13.5 1.86 1.02-15.33 28.13-1.86-1.02 15.33-28.13Zm-75 13.5.55-2.05 63.44 17-.55 2.05-63.43-17Zm80.68-15.55 1.84 1.07-17.89 30.98-1.84-1.06 17.9-30.99Zm-80.67 15.55.54-2.05 63.44 17-.55 2.05-63.43-17Z" style="fill:url(#w);fill-rule:nonzero"/>
  <path d="M501.7 392.65h-3.4v-55.3h3.4v55.3Zm0 0h2.54a4.24 4.24 0 1 1-8.48 0 4.24 4.24 0 0 1 8.48 0h-2.54Z" style="fill:url(#x);fill-rule:nonzero"/>
  <path d="M434.96 490.42c0 2.2-.24 3.96-.74 5.3a7.1 7.1 0 0 1-2.1 3.15c-.9.74-2 1.24-3.27 1.5-1.27.24-2.68.37-4.24.37-2.1 0-3.71-.33-4.83-.99-1.11-.65-1.67-1.44-1.67-2.36 0-.77.3-1.41.93-1.94a3.78 3.78 0 0 1 2.52-.79c.79 0 1.42.21 1.89.64.47.43.86.85 1.16 1.27.35.46.65.76.9.92.23.15.45.23.65.23.41 0 .73-.25.95-.74.22-.5.33-1.45.33-2.88v-27l7.52-2.08v25.4Zm10.72-24.68v17.39a3.37 3.37 0 0 0 1.05 2.46c.33.3.71.56 1.15.74.44.19.91.28 1.42.28.56 0 1.21-.32 2-.87 1.25-.88 2-1.48 2-2.19v-17.8h7.5v24.67h-7.5v-2.3c-.98.83-2.03 1.5-3.15 2-1.12.51-2.2.76-3.25.76-1.23 0-2.37-.2-3.42-.6a8.97 8.97 0 0 1-2.76-1.66 7.72 7.72 0 0 1-1.86-2.47 6.95 6.95 0 0 1-.67-3.02v-17.39h7.49Zm25.62 24.68h-7.46v-34.6l7.46-2.07v36.67Zm3.12-23.33 7.49-2.07v25.4h-7.5V467.1Zm23.14 10.58c-.72.31-1.45.66-2.18 1.07-.74.4-1.4.85-2 1.33-.6.48-1.1 1-1.47 1.55a3 3 0 0 0-.56 1.7c0 .47.06.9.18 1.33.12.43.3.8.51 1.1.22.31.46.56.73.75.26.18.54.27.85.27a3.6 3.6 0 0 0 1.86-.56c.62-.37 1.32-.84 2.08-1.4v-7.14Zm7.53 12.75h-7.53v-1.97c-.41.35-.82.68-1.21.97a6.8 6.8 0 0 1-3 1.28c-.6.12-1.33.18-2.16.18a9.03 9.03 0 0 1-3.07-.49 6.99 6.99 0 0 1-2.32-1.35 5.8 5.8 0 0 1-1.46-2.02 6.29 6.29 0 0 1-.51-2.54c0-.95.18-1.8.54-2.57.36-.77.86-1.46 1.48-2.07a10.9 10.9 0 0 1 2.18-1.64 24.4 24.4 0 0 1 2.68-1.33c.96-.4 1.95-.78 2.98-1.12 1.03-.34 2.05-.66 3.05-.97l.82-.2v-2.43c0-1.57-.3-2.7-.9-3.35-.6-.66-1.4-.99-2.42-.99-1.18 0-2 .29-2.46.86a3.2 3.2 0 0 0-.7 2.07c0 .46-.04.9-.14 1.35-.1.44-.27.82-.5 1.15-.25.33-.6.59-1.04.79-.45.2-1.01.3-1.7.3-1.05 0-1.9-.31-2.56-.91a2.96 2.96 0 0 1-.98-2.29c0-.85.29-1.64.87-2.38a7.34 7.34 0 0 1 2.35-1.89c.98-.53 2.12-.94 3.41-1.25 1.3-.3 2.66-.46 4.11-.46 1.78 0 3.3.16 4.59.48a9.3 9.3 0 0 1 3.17 1.36c.83.6 1.44 1.3 1.84 2.14.4.83.59 1.76.59 2.8v18.5Z" style="fill:#eee;fill-rule:nonzero"/>
  <path d="M436.44 458.67a5.09 5.09 0 1 1-10.17 0 5.09 5.09 0 0 1 10.17 0" style="fill:#234fe4;fill-rule:nonzero"/>
  <path d="M489.74 448.09a5.09 5.09 0 1 1-10.18 0 5.09 5.09 0 0 1 10.18 0" style="fill:#389725;fill-rule:nonzero"/>
  <path d="M495.85 458.67a5.09 5.09 0 1 1-10.18 0 5.09 5.09 0 0 1 10.18 0" style="fill:#9457b1;fill-rule:nonzero"/>
  <path d="M483.63 458.67a5.09 5.09 0 1 1-10.18 0 5.09 5.09 0 0 1 10.18 0" style="fill:#ca3b33;fill-rule:nonzero"/>
  <path d="M560.92 490.48v-24.52h7.44v1.97c2.24-1.61 4.7-2.41 7.36-2.41 2.67 0 4.6.69 5.81 2.06 1.21 1.38 1.82 3.19 1.82 5.43v17.47h-7.31V473.7c0-1.19-.21-2.13-.63-2.83a2.09 2.09 0 0 0-1.9-1.05c-1.32 0-3.04.9-5.15 2.67v17.98h-7.44Zm-41.02.19c-2.25 0-4.31-.55-6.2-1.65a12.2 12.2 0 0 1-4.45-4.42 11.54 11.54 0 0 1-1.61-5.94c0-2.2.56-4.31 1.68-6.35a13.17 13.17 0 0 1 4.64-4.89 12.17 12.17 0 0 1 6.57-1.84c1.57 0 3.09.26 4.57.8 1.48.52 2.7 1.22 3.62 2.09.93.87 1.4 1.81 1.4 2.83 0 .97-.41 1.75-1.24 2.35-.82.59-1.79.89-2.89.89-.97 0-1.8-.26-2.48-.77a2.59 2.59 0 0 1-1.08-2.03 6.24 6.24 0 0 0-.44-2.41c-.25-.51-.91-.76-1.97-.76-1.57 0-2.8.64-3.72 1.93-.9 1.3-1.36 3.06-1.36 5.3 0 2.59.53 4.93 1.59 7.02 1.06 2.1 2.62 3.15 4.7 3.15a5.1 5.1 0 0 0 3.8-1.65 16.4 16.4 0 0 0 2.93-4.58l3.5.96c-.85 3.13-2.28 5.57-4.3 7.33a10.67 10.67 0 0 1-7.26 2.64Zm25.9 0a14.8 14.8 0 0 1-6.76-1.56 12.23 12.23 0 0 1-4.89-4.38 11.7 11.7 0 0 1-1.8-6.45c0-2.33.54-4.45 1.64-6.38a12.13 12.13 0 0 1 4.7-4.6 13.87 13.87 0 0 1 6.93-1.72c2.33 0 4.52.5 6.57 1.5 2.05.99 3.72 2.42 4.99 4.28a11.33 11.33 0 0 1 1.9 6.54c0 2.33-.55 4.47-1.65 6.42a12.07 12.07 0 0 1-4.7 4.63 13.9 13.9 0 0 1-6.92 1.72Zm.77-2.86c1.61 0 2.77-.77 3.5-2.32.71-1.55 1.07-3.5 1.07-5.87 0-3.05-.55-5.67-1.65-7.85-1.1-2.18-2.56-3.27-4.38-3.27-1.61 0-2.83.82-3.65 2.45a13.02 13.02 0 0 0-1.24 5.94c0 2.79.57 5.31 1.71 7.55 1.15 2.25 2.7 3.37 4.64 3.37Z" style="fill:#fafafa;fill-rule:nonzero"/>
  <path d="M462.53 501.47h-11.76v3.27h5.06c-.08 1.01-2.18 2.18-5.3 2.18-4.6 0-6-1.4-6-3.9 0-3.26 2.19-4.74 6.24-4.74 3.27 0 4.83.54 4.83 2.02h6.93c.15-4.67-2.65-6-11.84-6s-12.85 2.1-12.85 8.34c0 6.38 4.52 8.25 11.45 8.25 5.53 0 6.46-1.09 7.24-2.41v2.18h6v-9.2Zm9.42-6.93h-6.62v16.12h18.61V507h-12v-12.46Zm25.54 3.66c4.29 0 5.77 1.71 5.77 4.44 0 2.72-1.87 4.12-5.77 4.12-3.9 0-5.92-1.4-5.92-4.12 0-2.73 1.64-4.44 5.92-4.44Zm-12.77 4.36c0 6.07 3.66 8.33 12.77 8.33s12.62-2.26 12.62-8.33c0-6.08-3.27-8.26-12.62-8.26-9.34 0-12.77 2.18-12.77 8.26Zm42.75-8.02h-14.8v16.12h14.8c5.77 0 7.8-.86 7.8-3.97 0-2.65-1.49-3.82-5.38-4.13 3.27-.4 4.52-1.48 4.52-4.05 0-3.12-1.8-3.97-6.93-3.97Zm-2.02 12.61h-6.15v-3.11h6.15c2.02 0 2.96.54 2.96 1.56 0 1.4-.31 1.55-2.96 1.55Zm-.62-6.23h-5.53v-2.88h5.53c2.41 0 2.64.24 2.64 1.48 0 .94-.77 1.4-2.64 1.4Zm38.7 9.74-7.78-16.12h-10.99l-8.02 16.12h7.09l1.4-3.12h9.5l1.33 3.12h7.47Zm-10.43-6.62h-6.15l3.03-6h.16l2.96 6Zm18.76-9.5h-6.54v16.12h18.54V507h-12v-12.46Z" style="fill:#fff;fill-rule:nonzero"/>
  <defs>
    <radialGradient id="a" cx="0" cy="0" r="1" gradientTransform="matrix(35.36 0 0 35.36 507.07 507.07)" gradientUnits="userSpaceOnUse">
      <stop offset="0" style="stop-color:#c19031;stop-opacity:1"/>
      <stop offset="1" style="stop-color:#fdf198;stop-opacity:1"/>
    </radialGradient>
    <radialGradient id="b" cx="0" cy="0" r="1" gradientTransform="matrix(35.36 0 0 35.36 507.07 507.07)" gradientUnits="userSpaceOnUse">
      <stop offset="0" style="stop-color:#c19031;stop-opacity:1"/>
      <stop offset="1" style="stop-color:#fdf198;stop-opacity:1"/>
    </radialGradient>
    <radialGradient id="c" cx="0" cy="0" r="1" gradientTransform="matrix(35.36 0 0 35.36 507.07 507.07)" gradientUnits="userSpaceOnUse">
      <stop offset="0" style="stop-color:#c19031;stop-opacity:1"/>
      <stop offset="1" style="stop-color:#fdf198;stop-opacity:1"/>
    </radialGradient>
    <radialGradient id="d" cx="0" cy="0" r="1" gradientTransform="matrix(35.36 0 0 35.36 507.07 507.07)" gradientUnits="userSpaceOnUse">
      <stop offset="0" style="stop-color:#c19031;stop-opacity:1"/>
      <stop offset="1" style="stop-color:#fdf198;stop-opacity:1"/>
    </radialGradient>
    <radialGradient id="e" cx="0" cy="0" r="1" gradientTransform="matrix(35.36 0 0 35.36 507.07 507.07)" gradientUnits="userSpaceOnUse">
      <stop offset="0" style="stop-color:#c19031;stop-opacity:1"/>
      <stop offset="1" style="stop-color:#fdf198;stop-opacity:1"/>
    </radialGradient>
    <radialGradient id="f" cx="0" cy="0" r="1" gradientTransform="matrix(35.36 0 0 35.36 507.07 507.07)" gradientUnits="userSpaceOnUse">
      <stop offset="0" style="stop-color:#c19031;stop-opacity:1"/>
      <stop offset="1" style="stop-color:#fdf198;stop-opacity:1"/>
    </radialGradient>
    <radialGradient id="g" cx="0" cy="0" r="1" gradientTransform="matrix(35.36 0 0 35.36 507.07 507.07)" gradientUnits="userSpaceOnUse">
      <stop offset="0" style="stop-color:#c19031;stop-opacity:1"/>
      <stop offset="1" style="stop-color:#fdf198;stop-opacity:1"/>
    </radialGradient>
    <radialGradient id="h" cx="0" cy="0" r="1" gradientTransform="matrix(35.36 0 0 35.36 507.07 507.07)" gradientUnits="userSpaceOnUse">
      <stop offset="0" style="stop-color:#c19031;stop-opacity:1"/>
      <stop offset="1" style="stop-color:#fdf198;stop-opacity:1"/>
    </radialGradient>
    <radialGradient id="i" cx="0" cy="0" r="1" gradientTransform="matrix(35.36 0 0 35.36 507.07 507.07)" gradientUnits="userSpaceOnUse">
      <stop offset="0" style="stop-color:#c19031;stop-opacity:1"/>
      <stop offset="1" style="stop-color:#fdf198;stop-opacity:1"/>
    </radialGradient>
    <radialGradient id="j" cx="0" cy="0" r="1" gradientTransform="matrix(35.36 0 0 35.36 507.07 507.07)" gradientUnits="userSpaceOnUse">
      <stop offset="0" style="stop-color:#c19031;stop-opacity:1"/>
      <stop offset="1" style="stop-color:#fdf198;stop-opacity:1"/>
    </radialGradient>
    <radialGradient id="k" cx="0" cy="0" r="1" gradientTransform="matrix(35.36 0 0 35.36 507.07 507.07)" gradientUnits="userSpaceOnUse">
      <stop offset="0" style="stop-color:#c19031;stop-opacity:1"/>
      <stop offset="1" style="stop-color:#fdf198;stop-opacity:1"/>
    </radialGradient>
    <radialGradient id="l" cx="0" cy="0" r="1" gradientTransform="matrix(35.36 0 0 35.36 507.07 507.07)" gradientUnits="userSpaceOnUse">
      <stop offset="0" style="stop-color:#c19031;stop-opacity:1"/>
      <stop offset="1" style="stop-color:#fdf198;stop-opacity:1"/>
    </radialGradient>
    <radialGradient id="m" cx="0" cy="0" r="1" gradientTransform="matrix(35.36 0 0 35.36 507.07 507.07)" gradientUnits="userSpaceOnUse">
      <stop offset="0" style="stop-color:#c19031;stop-opacity:1"/>
      <stop offset="1" style="stop-color:#fdf198;stop-opacity:1"/>
    </radialGradient>
    <radialGradient id="n" cx="0" cy="0" r="1" gradientTransform="matrix(35.36 0 0 35.36 507.07 507.07)" gradientUnits="userSpaceOnUse">
      <stop offset="0" style="stop-color:#c19031;stop-opacity:1"/>
      <stop offset="1" style="stop-color:#fdf198;stop-opacity:1"/>
    </radialGradient>
    <radialGradient id="o" cx="0" cy="0" r="1" gradientTransform="matrix(35.36 0 0 35.36 507.07 507.07)" gradientUnits="userSpaceOnUse">
      <stop offset="0" style="stop-color:#c19031;stop-opacity:1"/>
      <stop offset="1" style="stop-color:#fdf198;stop-opacity:1"/>
    </radialGradient>
    <radialGradient id="p" cx="0" cy="0" r="1" gradientTransform="matrix(35.36 0 0 35.36 507.07 507.07)" gradientUnits="userSpaceOnUse">
      <stop offset="0" style="stop-color:#c19031;stop-opacity:1"/>
      <stop offset="1" style="stop-color:#fdf198;stop-opacity:1"/>
    </radialGradient>
    <radialGradient id="q" cx="0" cy="0" r="1" gradientTransform="matrix(35.36 0 0 35.36 507.07 507.07)" gradientUnits="userSpaceOnUse">
      <stop offset="0" style="stop-color:#c19031;stop-opacity:1"/>
      <stop offset="1" style="stop-color:#fdf198;stop-opacity:1"/>
    </radialGradient>
    <radialGradient id="r" cx="0" cy="0" r="1" gradientTransform="matrix(35.36 0 0 35.36 507.07 507.07)" gradientUnits="userSpaceOnUse">
      <stop offset="0" style="stop-color:#c19031;stop-opacity:1"/>
      <stop offset="1" style="stop-color:#fdf198;stop-opacity:1"/>
    </radialGradient>
    <radialGradient id="s" cx="0" cy="0" r="1" gradientTransform="matrix(35.36 0 0 35.36 507.07 507.07)" gradientUnits="userSpaceOnUse">
      <stop offset="0" style="stop-color:#c19031;stop-opacity:1"/>
      <stop offset="1" style="stop-color:#fdf198;stop-opacity:1"/>
    </radialGradient>
    <radialGradient id="t" cx="0" cy="0" r="1" gradientTransform="matrix(35.36 0 0 35.36 507.07 507.07)" gradientUnits="userSpaceOnUse">
      <stop offset="0" style="stop-color:#c19031;stop-opacity:1"/>
      <stop offset="1" style="stop-color:#fdf198;stop-opacity:1"/>
    </radialGradient>
    <radialGradient id="u" cx="0" cy="0" r="1" gradientTransform="matrix(35.36 0 0 35.36 507.07 507.07)" gradientUnits="userSpaceOnUse">
      <stop offset="0" style="stop-color:#c19031;stop-opacity:1"/>
      <stop offset="1" style="stop-color:#fdf198;stop-opacity:1"/>
    </radialGradient>
    <radialGradient id="v" cx="0" cy="0" r="1" gradientTransform="matrix(35.36 0 0 35.36 507.07 507.07)" gradientUnits="userSpaceOnUse">
      <stop offset="0" style="stop-color:#c19031;stop-opacity:1"/>
      <stop offset="1" style="stop-color:#fdf198;stop-opacity:1"/>
    </radialGradient>
    <radialGradient id="w" cx="0" cy="0" r="1" gradientTransform="matrix(35.36 0 0 35.36 507.07 507.07)" gradientUnits="userSpaceOnUse">
      <stop offset="0" style="stop-color:#c19031;stop-opacity:1"/>
      <stop offset="1" style="stop-color:#fdf198;stop-opacity:1"/>
    </radialGradient>
    <radialGradient id="x" cx="0" cy="0" r="1" gradientTransform="matrix(35.36 0 0 35.36 507.07 507.07)" gradientUnits="userSpaceOnUse">
      <stop offset="0" style="stop-color:#c19031;stop-opacity:1"/>
      <stop offset="1" style="stop-color:#fdf198;stop-opacity:1"/>
    </radialGradient>
  </defs>
</svg>
