<svg xmlns="http://www.w3.org/2000/svg" xml:space="preserve" style="fill-rule:evenodd;clip-rule:evenodd;stroke-linejoin:round;stroke-miterlimit:2" viewBox="0 0 1000 1000">
  <path d="M599.68 679.76a12 12 0 1 1-24 0 12 12 0 0 1 24 0Z" style="fill:#2758fe;fill-opacity:.9;fill-rule:nonzero"/>
  <path d="M388.3 658.4a12.04 12.04 0 1 1-24.09 0 12.04 12.04 0 0 1 24.09 0Z" style="fill:#9457b1;fill-opacity:.9;fill-rule:nonzero"/>
  <path d="M314.5 458a12.1 12.1 0 1 1-24.18 0 12.1 12.1 0 0 1 24.18 0Z" style="fill:#ca3b33;fill-opacity:.9;fill-rule:nonzero"/>
  <path d="M463.03 303.03a12.14 12.14 0 1 1-24.27 0 12.14 12.14 0 0 1 24.27 0Z" style="fill:#389725;fill-opacity:.9;fill-rule:nonzero"/>
  <path d="M668.45 368.87a12.18 12.18 0 1 1-24.36 0 12.18 12.18 0 0 1 24.36 0Z" style="fill:#2758fe;fill-opacity:.9;fill-rule:nonzero"/>
  <path d="M699.5 583.38a12.23 12.23 0 1 1-24.45 0 12.23 12.23 0 0 1 24.45 0Z" style="fill:#9457b1;fill-opacity:.9;fill-rule:nonzero"/>
  <path d="M519.46 705.88a12.27 12.27 0 1 1-24.54 0 12.27 12.27 0 0 1 24.54 0Z" style="fill:#ca3b33;fill-opacity:.9;fill-rule:nonzero"/>
  <path d="M329.55 597.18a12.32 12.32 0 1 1-24.64 0 12.32 12.32 0 0 1 24.64 0Z" style="fill:#389725;fill-opacity:.9;fill-rule:nonzero"/>
  <path d="M344.09 377.74a12.36 12.36 0 1 1-24.73 0 12.36 12.36 0 0 1 24.73 0Z" style="fill:#2758fe;fill-opacity:.9;fill-rule:nonzero"/>
  <path d="M548.7 294.18a12.4 12.4 0 1 1-24.81 0 12.4 12.4 0 0 1 24.8 0Z" style="fill:#9457b1;fill-opacity:.9;fill-rule:nonzero"/>
  <path d="M714.32 442.12a12.45 12.45 0 1 1-24.91 0 12.45 12.45 0 0 1 24.9 0Z" style="fill:#ca3b33;fill-opacity:.9;fill-rule:nonzero"/>
  <path d="M653.68 656.8a12.5 12.5 0 1 1-24.99 0 12.5 12.5 0 0 1 25 0Z" style="fill:#389725;fill-opacity:.9;fill-rule:nonzero"/>
  <path d="M433.13 696.56a12.54 12.54 0 1 1-25.09 0 12.54 12.54 0 0 1 25.08 0Z" style="fill:#2758fe;fill-opacity:.9;fill-rule:nonzero"/>
  <path d="M300.1 514.86a12.58 12.58 0 1 1-25.16 0 12.58 12.58 0 0 1 25.17 0Z" style="fill:#9457b1;fill-opacity:.9;fill-rule:nonzero"/>
  <path d="M405.63 314.67a12.63 12.63 0 1 1-25.26 0 12.63 12.63 0 0 1 25.26 0Z" style="fill:#ca3b33;fill-opacity:.9;fill-rule:nonzero"/>
  <path d="M632.9 321.76a12.68 12.68 0 1 1-25.35 0 12.68 12.68 0 0 1 25.36 0Z" style="fill:#389725;fill-opacity:.9;fill-rule:nonzero"/>
  <path d="M726.62 530.06a12.72 12.72 0 1 1-25.44 0 12.72 12.72 0 0 1 25.44 0Z" style="fill:#2758fe;fill-opacity:.9;fill-rule:nonzero"/>
  <path d="M579.82 706.38a12.77 12.77 0 1 1-25.53 0 12.77 12.77 0 0 1 25.53 0Z" style="fill:#9457b1;fill-opacity:.9;fill-rule:nonzero"/>
  <path d="M356 651.43a12.81 12.81 0 1 1-25.63.01 12.81 12.81 0 0 1 25.63 0Z" style="fill:#ca3b33;fill-opacity:.9;fill-rule:nonzero"/>
  <path d="M307.07 425.1a12.86 12.86 0 1 1-25.72 0 12.86 12.86 0 0 1 25.72 0Z" style="fill:#389725;fill-opacity:.9;fill-rule:nonzero"/>
  <path d="M489.91 281.2a12.9 12.9 0 1 1-25.81 0 12.9 12.9 0 0 1 25.81 0Z" style="fill:#2758fe;fill-opacity:.9;fill-rule:nonzero"/>
  <path d="M700.37 382.89a12.95 12.95 0 1 1-25.9 0 12.95 12.95 0 0 1 25.9 0Z" style="fill:#9457b1;fill-opacity:.9;fill-rule:nonzero"/>
  <path d="M701.26 617.64a13 13 0 1 1-25.99 0 13 13 0 0 1 26 0Z" style="fill:#ca3b33;fill-opacity:.9;fill-rule:nonzero"/>
  <path d="M489.73 721.78a13.04 13.04 0 1 1-26.08 0 13.04 13.04 0 0 1 26.08 0Z" style="fill:#389725;fill-opacity:.9;fill-rule:nonzero"/>
  <path d="M302.6 576.61a13.09 13.09 0 1 1-26.18 0 13.09 13.09 0 0 1 26.17 0Z" style="fill:#2758fe;fill-opacity:.9;fill-rule:nonzero"/>
  <path d="M351.28 343.7a13.13 13.13 0 1 1-26.26 0 13.13 13.13 0 0 1 26.26 0Z" style="fill:#9457b1;fill-opacity:.9;fill-rule:nonzero"/>
  <path d="M583.02 285.06a13.18 13.18 0 1 1-26.36 0 13.18 13.18 0 0 1 26.36 0Z" style="fill:#ca3b33;fill-opacity:.9;fill-rule:nonzero"/>
  <path d="M738.01 468.4a13.22 13.22 0 1 1-26.44.01 13.22 13.22 0 0 1 26.44 0Z" style="fill:#389725;fill-opacity:.9;fill-rule:nonzero"/>
  <path d="M640.76 689.02a13.26 13.26 0 1 1-26.52 0 13.26 13.26 0 0 1 26.52 0Z" style="fill:#2758fe;fill-opacity:.9;fill-rule:nonzero"/>
  <path d="M398.81 698.32a13.31 13.31 0 1 1-26.62 0 13.31 13.31 0 0 1 26.62 0Z" style="fill:#9457b1;fill-opacity:.9;fill-rule:nonzero"/>
  <path d="M283.92 483.96a13.36 13.36 0 1 1-26.72 0 13.36 13.36 0 0 1 26.72 0Z" style="fill:#ca3b33;fill-opacity:.9;fill-rule:nonzero"/>
  <path d="M426.87 285.82a13.4 13.4 0 1 1-26.8 0 13.4 13.4 0 0 1 26.8 0Z" style="fill:#389725;fill-opacity:.9;fill-rule:nonzero"/>
  <path d="M668.68 327.59a13.45 13.45 0 1 1-26.9 0 13.45 13.45 0 0 1 26.9 0Z" style="fill:#2758fe;fill-opacity:.9;fill-rule:nonzero"/>
  <path d="M737.47 564.22a13.49 13.49 0 1 1-26.98 0 13.49 13.49 0 0 1 26.98 0Z" style="fill:#9457b1;fill-opacity:.9;fill-rule:nonzero"/>
  <path d="M554.17 730.45a13.54 13.54 0 1 1-27.08 0 13.54 13.54 0 0 1 27.08 0Z" style="fill:#ca3b33;fill-opacity:.9;fill-rule:nonzero"/>
  <path d="M323.46 638.13a13.58 13.58 0 1 1-27.16 0 13.58 13.58 0 0 1 27.16 0Z" style="fill:#389725;fill-opacity:.9;fill-rule:nonzero"/>
  <path d="M305.25 389.2a13.63 13.63 0 1 1-27.25 0 13.63 13.63 0 0 1 27.25 0Z" style="fill:#2758fe;fill-opacity:.9;fill-rule:nonzero"/>
  <path d="M521.95 263.14a13.67 13.67 0 1 1-27.35 0 13.67 13.67 0 0 1 27.35 0Z" style="fill:#9457b1;fill-opacity:.9;fill-rule:nonzero"/>
  <path d="M731.14 403.2a13.72 13.72 0 1 1-27.43 0 13.72 13.72 0 0 1 27.43 0Z" style="fill:#ca3b33;fill-opacity:.9;fill-rule:nonzero"/>
  <path d="M696.85 653.63a13.76 13.76 0 1 1-27.53 0 13.76 13.76 0 0 1 27.53 0Z" style="fill:#389725;fill-opacity:.9;fill-rule:nonzero"/>
  <path d="M455.75 732.87a13.8 13.8 0 1 1-27.62 0 13.8 13.8 0 0 1 27.62 0Z" style="fill:#2758fe;fill-opacity:.9;fill-rule:nonzero"/>
  <path d="M278.12 550.1a13.86 13.86 0 1 1-27.7 0 13.86 13.86 0 0 1 27.7 0Z" style="fill:#9457b1;fill-opacity:.9;fill-rule:nonzero"/>
  <path d="M364.91 309.3a13.9 13.9 0 1 1-27.8 0 13.9 13.9 0 0 1 27.8 0Z" style="fill:#ca3b33;fill-opacity:.9;fill-rule:nonzero"/>
  <path d="M620.47 281.6a13.95 13.95 0 1 1-27.9 0 13.95 13.95 0 0 1 27.9 0Z" style="fill:#389725;fill-opacity:.9;fill-rule:nonzero"/>
  <path d="M757.99 500a13.99 13.99 0 1 1-27.97 0 13.99 13.99 0 0 1 27.97 0Z" style="fill:#2758fe;fill-opacity:.9;fill-rule:nonzero"/>
  <path d="M621.44 720.2a14.03 14.03 0 1 1-28.07 0 14.03 14.03 0 0 1 28.07 0Z" style="fill:#9457b1;fill-opacity:.9;fill-rule:nonzero"/>
  <path d="M362.63 693.85a14.08 14.08 0 1 1-28.16 0 14.08 14.08 0 0 1 28.16 0Z" style="fill:#ca3b33;fill-opacity:.9;fill-rule:nonzero"/>
  <path d="M272.52 448.64a14.13 14.13 0 1 1-28.25 0 14.13 14.13 0 0 1 28.25 0Z" style="fill:#389725;fill-opacity:.9;fill-rule:nonzero"/>
  <path d="M454.18 259.37a14.18 14.18 0 1 1-28.36-.01 14.18 14.18 0 0 1 28.36 0Z" style="fill:#2758fe;fill-opacity:.9;fill-rule:nonzero"/>
  <path d="M704.96 339.94a14.21 14.21 0 1 1-28.43 0 14.21 14.21 0 0 1 28.43 0Z" style="fill:#9457b1;fill-opacity:.9;fill-rule:nonzero"/>
  <path d="M742.65 601.68a14.26 14.26 0 1 1-28.53 0 14.26 14.26 0 0 1 28.53 0Z" style="fill:#ca3b33;fill-opacity:.9;fill-rule:nonzero"/>
  <path d="M523.07 750.85a14.3 14.3 0 1 1-28.61 0 14.3 14.3 0 0 1 28.6 0Z" style="fill:#389725;fill-opacity:.9;fill-rule:nonzero"/>
  <path d="M291.85 618.3a14.35 14.35 0 1 1-28.7 0 14.35 14.35 0 0 1 28.7 0Z" style="fill:#2758fe;fill-opacity:.9;fill-rule:nonzero"/>
  <path d="M309.71 351.29a14.4 14.4 0 1 1-28.79 0 14.4 14.4 0 0 1 28.8 0Z" style="fill:#9457b1;fill-opacity:.9;fill-rule:nonzero"/>
  <path d="M558.55 249.86a14.44 14.44 0 1 1-28.89 0 14.44 14.44 0 0 1 28.9 0Z" style="fill:#ca3b33;fill-opacity:.9;fill-rule:nonzero"/>
  <path d="M759.6 429.71a14.49 14.49 0 1 1-28.97 0 14.49 14.49 0 0 1 28.98 0Z" style="fill:#389725;fill-opacity:.9;fill-rule:nonzero"/>
  <path d="M685.83 690.25a14.53 14.53 0 1 1-29.07-.01 14.53 14.53 0 0 1 29.07 0Z" style="fill:#2758fe;fill-opacity:.9;fill-rule:nonzero"/>
  <path d="M418.3 738.28a14.58 14.58 0 1 1-29.15 0 14.58 14.58 0 0 1 29.16 0Z" style="fill:#9457b1;fill-opacity:.9;fill-rule:nonzero"/>
  <path d="M257.25 518a14.62 14.62 0 1 1-29.25 0 14.62 14.62 0 0 1 29.25 0Z" style="fill:#ca3b33;fill-opacity:.9;fill-rule:nonzero"/>
  <path d="M385.17 275.7a14.67 14.67 0 1 1-29.34 0 14.67 14.67 0 0 1 29.34 0Z" style="fill:#389725;fill-opacity:.9;fill-rule:nonzero"/>
  <path d="M660.1 284.45a14.71 14.71 0 1 1-29.42 0 14.71 14.71 0 0 1 29.43 0Z" style="fill:#2758fe;fill-opacity:.9;fill-rule:nonzero"/>
  <path d="M773.22 536.32a14.76 14.76 0 1 1-29.52 0 14.76 14.76 0 0 1 29.52 0Z" style="fill:#9457b1;fill-opacity:.9;fill-rule:nonzero"/>
  <path d="M595.77 749.18a14.8 14.8 0 1 1-29.61 0 14.8 14.8 0 0 1 29.6 0Z" style="fill:#ca3b33;fill-opacity:.9;fill-rule:nonzero"/>
  <path d="M325.66 682.7a14.85 14.85 0 1 1-29.7 0 14.85 14.85 0 0 1 29.7 0Z" style="fill:#389725;fill-opacity:.9;fill-rule:nonzero"/>
  <path d="M266.82 409.7a14.9 14.9 0 1 1-29.8 0 14.9 14.9 0 0 1 29.8 0Z" style="fill:#2758fe;fill-opacity:.9;fill-rule:nonzero"/>
  <path d="M487.24 236.45a14.94 14.94 0 1 1-29.88 0 14.94 14.94 0 0 1 29.88 0Z" style="fill:#9457b1;fill-opacity:.9;fill-rule:nonzero"/>
  <path d="M740.57 359.04a14.99 14.99 0 1 1-29.98 0 14.99 14.99 0 0 1 29.98 0Z" style="fill:#ca3b33;fill-opacity:.9;fill-rule:nonzero"/>
  <path d="M741.46 641.49a15.03 15.03 0 1 1-30.06 0 15.03 15.03 0 0 1 30.06 0Z" style="fill:#389725;fill-opacity:.9;fill-rule:nonzero"/>
  <path d="M487.06 766.53a15.07 15.07 0 1 1-30.14 0 15.07 15.07 0 0 1 30.14 0Z" style="fill:#2758fe;fill-opacity:.9;fill-rule:nonzero"/>
  <path d="M262.34 592a15.12 15.12 0 1 1-30.24 0 15.12 15.12 0 0 1 30.24 0Z" style="fill:#9457b1;fill-opacity:.9;fill-rule:nonzero"/>
  <path d="M320.94 312.44a15.17 15.17 0 1 1-30.34 0 15.17 15.17 0 0 1 30.34 0Z" style="fill:#ca3b33;fill-opacity:.9;fill-rule:nonzero"/>
  <path d="M598.95 242.27a15.21 15.21 0 1 1-30.42 0 15.21 15.21 0 0 1 30.42 0Z" style="fill:#389725;fill-opacity:.9;fill-rule:nonzero"/>
  <path d="M784.6 462.14a15.26 15.26 0 1 1-30.5 0 15.26 15.26 0 0 1 30.5 0Z" style="fill:#2758fe;fill-opacity:.9;fill-rule:nonzero"/>
  <path d="M667.96 726.33a15.3 15.3 0 1 1-30.6 0 15.3 15.3 0 0 1 30.6 0Z" style="fill:#9457b1;fill-opacity:.9;fill-rule:nonzero"/>
  <path d="M378.35 737.29a15.35 15.35 0 1 1-30.7 0 15.35 15.35 0 0 1 30.7 0Z" style="fill:#ca3b33;fill-opacity:.9;fill-rule:nonzero"/>
  <path d="M241.06 480.82a15.4 15.4 0 1 1-30.78 0 15.4 15.4 0 0 1 30.78 0Z" style="fill:#389725;fill-opacity:.9;fill-rule:nonzero"/>
  <path d="M412.05 244.1a15.44 15.44 0 1 1-30.88 0 15.44 15.44 0 0 1 30.88 0Z" style="fill:#2758fe;fill-opacity:.9;fill-rule:nonzero"/>
  <path d="M700.83 294.15a15.49 15.49 0 1 1-30.97 0 15.49 15.49 0 0 1 30.97 0Z" style="fill:#9457b1;fill-opacity:.9;fill-rule:nonzero"/>
  <path d="M782.76 576.63a15.53 15.53 0 1 1-31.06 0 15.53 15.53 0 0 1 31.06 0Z" style="fill:#ca3b33;fill-opacity:.9;fill-rule:nonzero"/>
  <path d="M564.02 774.76a15.57 15.57 0 1 1-31.15 0 15.57 15.57 0 0 1 31.15 0Z" style="fill:#389725;fill-opacity:.9;fill-rule:nonzero"/>
  <path d="M289.1 664.58a15.62 15.62 0 1 1-31.24 0 15.62 15.62 0 0 1 31.23 0Z" style="fill:#2758fe;fill-opacity:.9;fill-rule:nonzero"/>
  <path d="M267.56 368.08a15.66 15.66 0 1 1-31.33 0 15.66 15.66 0 0 1 31.33 0Z" style="fill:#9457b1;fill-opacity:.9;fill-rule:nonzero"/>
  <path d="M525.55 218.17a15.7 15.7 0 1 1-31.42 0 15.7 15.7 0 0 1 31.42 0Z" style="fill:#ca3b33;fill-opacity:.9;fill-rule:nonzero"/>
  <path d="M774.29 384.9a15.76 15.76 0 1 1-31.51-.01 15.76 15.76 0 0 1 31.5 0Z" style="fill:#389725;fill-opacity:.9;fill-rule:nonzero"/>
  <path d="M733.36 682.55a15.8 15.8 0 1 1-31.6 0 15.8 15.8 0 0 1 31.6 0Z" style="fill:#2758fe;fill-opacity:.9;fill-rule:nonzero"/>
  <path d="M446.9 776.53a15.84 15.84 0 1 1-31.69 0 15.84 15.84 0 0 1 31.69 0Z" style="fill:#9457b1;fill-opacity:.9;fill-rule:nonzero"/>
  <path d="M236.14 559.46a15.9 15.9 0 1 1-31.78 0 15.9 15.9 0 0 1 31.78 0Z" style="fill:#ca3b33;fill-opacity:.9;fill-rule:nonzero"/>
  <path d="M339.24 273.84a15.94 15.94 0 1 1-31.87 0 15.94 15.94 0 0 1 31.87 0Z" style="fill:#389725;fill-opacity:.9;fill-rule:nonzero"/>
  <path d="M642.23 241.15a15.98 15.98 0 1 1-31.96 0 15.98 15.98 0 0 1 31.96 0Z" style="fill:#2758fe;fill-opacity:.9;fill-rule:nonzero"/>
  <path d="M805.02 500a16.02 16.02 0 1 1-32.04 0 16.02 16.02 0 0 1 32.04 0Z" style="fill:#9457b1;fill-opacity:.9;fill-rule:nonzero"/>
  <path d="M643.2 760.65a16.07 16.07 0 1 1-32.14 0 16.07 16.07 0 0 1 32.14 0Z" style="fill:#ca3b33;fill-opacity:.9;fill-rule:nonzero"/>
  <path d="M336.96 729.31a16.11 16.11 0 1 1-32.23 0 16.11 16.11 0 0 1 32.23 0Z" style="fill:#389725;fill-opacity:.9;fill-rule:nonzero"/>
  <path d="M230.54 439.29a16.16 16.16 0 1 1-32.32 0 16.16 16.16 0 0 1 32.32 0Z" style="fill:#2758fe;fill-opacity:.9;fill-rule:nonzero"/>
  <path d="M445.32 215.7a16.2 16.2 0 1 1-32.41 0 16.2 16.2 0 0 1 32.41 0Z" style="fill:#9457b1;fill-opacity:.9;fill-rule:nonzero"/>
  <path d="M741.47 311.02a16.25 16.25 0 1 1-32.5 0 16.25 16.25 0 0 1 32.5 0Z" style="fill:#ca3b33;fill-opacity:.9;fill-rule:nonzero"/>
  <path d="M785.8 619.99a16.3 16.3 0 1 1-32.6 0 16.3 16.3 0 0 1 32.6 0Z" style="fill:#389725;fill-opacity:.9;fill-rule:nonzero"/>
  <path d="M526.67 795.82a16.34 16.34 0 1 1-32.68 0 16.34 16.34 0 0 1 32.68 0Z" style="fill:#2758fe;fill-opacity:.9;fill-rule:nonzero"/>
  <path d="M254.15 639.43a16.39 16.39 0 1 1-32.77 0 16.39 16.39 0 0 1 32.77 0Z" style="fill:#9457b1;fill-opacity:.9;fill-rule:nonzero"/>
  <path d="M275.34 324.84a16.43 16.43 0 1 1-32.86 0 16.43 16.43 0 0 1 32.86 0Z" style="fill:#ca3b33;fill-opacity:.9;fill-rule:nonzero"/>
  <path d="M568.4 205.54a16.48 16.48 0 1 1-32.95 0 16.48 16.48 0 0 1 32.95 0Z" style="fill:#389725;fill-opacity:.9;fill-rule:nonzero"/>
  <path d="M804.9 417.3a16.52 16.52 0 1 1-33.05 0 16.52 16.52 0 0 1 33.05 0Z" style="fill:#2758fe;fill-opacity:.9;fill-rule:nonzero"/>
  <path d="M717.98 723.69a16.57 16.57 0 1 1-33.14 0 16.57 16.57 0 0 1 33.14 0Z" style="fill:#9457b1;fill-opacity:.9;fill-rule:nonzero"/>
  <path d="M403.48 780a16.61 16.61 0 1 1-33.22.01 16.61 16.61 0 0 1 33.22 0Z" style="fill:#ca3b33;fill-opacity:.9;fill-rule:nonzero"/>
  <path d="M214.4 521.14a16.66 16.66 0 1 1-33.32 0 16.66 16.66 0 0 1 33.31 0Z" style="fill:#389725;fill-opacity:.9;fill-rule:nonzero"/>
  <path d="M364.7 236.73a16.7 16.7 0 1 1-33.4 0 16.7 16.7 0 0 1 33.4 0Z" style="fill:#2758fe;fill-opacity:.9;fill-rule:nonzero"/>
  <path d="M687.3 247.15a16.74 16.74 0 1 1-33.49 0 16.74 16.74 0 0 1 33.5 0Z" style="fill:#9457b1;fill-opacity:.9;fill-rule:nonzero"/>
  <path d="M819.82 542.59a16.8 16.8 0 1 1-33.6 0 16.8 16.8 0 0 1 33.6 0Z" style="fill:#ca3b33;fill-opacity:.9;fill-rule:nonzero"/>
  <path d="M611.7 791.97a16.84 16.84 0 1 1-33.67 0 16.84 16.84 0 0 1 33.68 0Z" style="fill:#389725;fill-opacity:.9;fill-rule:nonzero"/>
  <path d="M295.33 713.95a16.88 16.88 0 1 1-33.77 0 16.88 16.88 0 0 1 33.77 0Z" style="fill:#2758fe;fill-opacity:.9;fill-rule:nonzero"/>
  <path d="M226.57 394.32a16.93 16.93 0 1 1-33.87 0 16.93 16.93 0 0 1 33.87 0Z" style="fill:#9457b1;fill-opacity:.9;fill-rule:nonzero"/>
  <path d="M484.57 191.7a16.97 16.97 0 1 1-33.94 0 16.97 16.97 0 0 1 33.94 0Z" style="fill:#ca3b33;fill-opacity:.9;fill-rule:nonzero"/>
  <path d="M780.76 335.2a17.02 17.02 0 1 1-34.04 0 17.02 17.02 0 0 1 34.04 0Z" style="fill:#389725;fill-opacity:.9;fill-rule:nonzero"/>
  <path d="M781.66 665.34a17.06 17.06 0 1 1-34.13 0 17.06 17.06 0 0 1 34.13 0Z" style="fill:#2758fe;fill-opacity:.9;fill-rule:nonzero"/>
  <path d="M484.4 811.28a17.11 17.11 0 1 1-34.23 0 17.11 17.11 0 0 1 34.22 0Z" style="fill:#9457b1;fill-opacity:.9;fill-rule:nonzero"/>
  <path d="M222.1 607.4a17.16 17.16 0 1 1-34.32 0 17.16 17.16 0 0 1 34.31 0Z" style="fill:#ca3b33;fill-opacity:.9;fill-rule:nonzero"/>
  <path d="M290.6 281.18a17.2 17.2 0 1 1-34.4 0 17.2 17.2 0 0 1 34.4 0Z" style="fill:#389725;fill-opacity:.9;fill-rule:nonzero"/>
  <path d="M614.9 199.47a17.24 17.24 0 1 1-34.5 0 17.24 17.24 0 0 1 34.5 0Z" style="fill:#2758fe;fill-opacity:.9;fill-rule:nonzero"/>
  <path d="M831.2 455.88a17.29 17.29 0 1 1-34.57 0 17.29 17.29 0 0 1 34.58 0Z" style="fill:#9457b1;fill-opacity:.9;fill-rule:nonzero"/>
  <path d="M695.16 763.63a17.34 17.34 0 1 1-34.67 0 17.34 17.34 0 0 1 34.67 0Z" style="fill:#ca3b33;fill-opacity:.9;fill-rule:nonzero"/>
  <path d="M357.88 776.26a17.38 17.38 0 1 1-34.76 0 17.38 17.38 0 0 1 34.76 0Z" style="fill:#389725;fill-opacity:.9;fill-rule:nonzero"/>
  <path d="M198.2 477.68a17.43 17.43 0 1 1-34.85 0 17.43 17.43 0 0 1 34.86 0Z" style="fill:#2758fe;fill-opacity:.9;fill-rule:nonzero"/>
  <path d="M397.22 202.38a17.47 17.47 0 1 1-34.94 0 17.47 17.47 0 0 1 34.94 0Z" style="fill:#9457b1;fill-opacity:.9;fill-rule:nonzero"/>
  <path d="M732.98 260.7a17.52 17.52 0 1 1-35.04 0 17.52 17.52 0 0 1 35.04 0Z" style="fill:#ca3b33;fill-opacity:.9;fill-rule:nonzero"/>
  <path d="M828.05 589.03a17.56 17.56 0 1 1-35.13 0 17.56 17.56 0 0 1 35.13 0Z" style="fill:#389725;fill-opacity:.9;fill-rule:nonzero"/>
  <path d="M573.87 819.08a17.61 17.61 0 1 1-35.22 0 17.61 17.61 0 0 1 35.22 0Z" style="fill:#2758fe;fill-opacity:.9;fill-rule:nonzero"/>
  <path d="M254.72 691.03a17.65 17.65 0 1 1-35.3 0 17.65 17.65 0 0 1 35.3 0Z" style="fill:#9457b1;fill-opacity:.9;fill-rule:nonzero"/>
  <path d="M229.86 346.95a17.7 17.7 0 1 1-35.4 0 17.7 17.7 0 0 1 35.4 0Z" style="fill:#ca3b33;fill-opacity:.9;fill-rule:nonzero"/>
  <path d="M529.16 173.2a17.74 17.74 0 1 1-35.49 0 17.74 17.74 0 0 1 35.49 0Z" style="fill:#389725;fill-opacity:.9;fill-rule:nonzero"/>
  <path d="M817.43 366.59a17.79 17.79 0 1 1-35.58 0 17.79 17.79 0 0 1 35.58 0Z" style="fill:#2758fe;fill-opacity:.9;fill-rule:nonzero"/>
  <path d="M769.86 711.48a17.83 17.83 0 1 1-35.67 0 17.83 17.83 0 0 1 35.67 0Z" style="fill:#9457b1;fill-opacity:.9;fill-rule:nonzero"/>
  <path d="M438.05 820.2a17.88 17.88 0 1 1-35.77-.01 17.88 17.88 0 0 1 35.77 0Z" style="fill:#ca3b33;fill-opacity:.9;fill-rule:nonzero"/>
  <path d="M194.16 568.82a17.92 17.92 0 1 1-35.85 0 17.92 17.92 0 0 1 35.85 0Z" style="fill:#389725;fill-opacity:.9;fill-rule:nonzero"/>
  <path d="M313.57 238.38a17.97 17.97 0 1 1-35.94 0 17.97 17.97 0 0 1 35.94 0Z" style="fill:#2758fe;fill-opacity:.9;fill-rule:nonzero"/>
  <path d="M664 200.7a18.01 18.01 0 1 1-36.03 0 18.01 18.01 0 0 1 36.02 0Z" style="fill:#9457b1;fill-opacity:.9;fill-rule:nonzero"/>
  <path d="M852.06 500a18.06 18.06 0 1 1-36.12 0 18.06 18.06 0 0 1 36.12 0Z" style="fill:#ca3b33;fill-opacity:.9;fill-rule:nonzero"/>
  <path d="M664.96 801.1a18.1 18.1 0 1 1-36.21 0 18.1 18.1 0 0 1 36.21 0Z" style="fill:#389725;fill-opacity:.9;fill-rule:nonzero"/>
  <path d="M311.29 764.77a18.15 18.15 0 1 1-36.3 0 18.15 18.15 0 0 1 36.3 0Z" style="fill:#2758fe;fill-opacity:.9;fill-rule:nonzero"/>
  <path d="M188.56 429.93a18.2 18.2 0 1 1-36.39 0 18.2 18.2 0 0 1 36.39 0Z" style="fill:#9457b1;fill-opacity:.9;fill-rule:nonzero"/>
  <path d="M436.47 172.04a18.24 18.24 0 1 1-36.48 0 18.24 18.24 0 0 1 36.48 0Z" style="fill:#ca3b33;fill-opacity:.9;fill-rule:nonzero"/>
  <path d="M777.98 282.1a18.29 18.29 0 1 1-36.58 0 18.29 18.29 0 0 1 36.58 0Z" style="fill:#389725;fill-opacity:.9;fill-rule:nonzero"/>
  <path d="M828.94 638.29a18.33 18.33 0 1 1-36.67 0 18.33 18.33 0 0 1 36.67 0Z" style="fill:#2758fe;fill-opacity:.9;fill-rule:nonzero"/>
  <path d="M530.28 840.8a18.37 18.37 0 1 1-36.75 0 18.37 18.37 0 0 1 36.75 0Z" style="fill:#9457b1;fill-opacity:.9;fill-rule:nonzero"/>
  <path d="M216.45 660.56a18.42 18.42 0 1 1-36.84 0 18.42 18.42 0 0 1 36.84 0Z" style="fill:#ca3b33;fill-opacity:.9;fill-rule:nonzero"/>
  <path d="M240.97 298.4a18.46 18.46 0 1 1-36.92 0 18.46 18.46 0 0 1 36.92 0Z" style="fill:#389725;fill-opacity:.9;fill-rule:nonzero"/>
  <path d="M578.25 161.23a18.51 18.51 0 1 1-37.02 0 18.51 18.51 0 0 1 37.02 0Z" style="fill:#2758fe;fill-opacity:.9;fill-rule:nonzero"/>
  <path d="M850.2 404.9a18.56 18.56 0 1 1-37.13 0 18.56 18.56 0 0 1 37.12 0Z" style="fill:#9457b1;fill-opacity:.9;fill-rule:nonzero"/>
  <path d="M750.12 757.13a18.6 18.6 0 1 1-37.2 0 18.6 18.6 0 0 1 37.2 0Z" style="fill:#ca3b33;fill-opacity:.9;fill-rule:nonzero"/>
  <path d="M388.66 821.73a18.65 18.65 0 1 1-37.3 0 18.65 18.65 0 0 1 37.3 0Z" style="fill:#389725;fill-opacity:.9;fill-rule:nonzero"/>
  <path d="M171.54 524.27a18.7 18.7 0 1 1-37.39 0 18.7 18.7 0 0 1 37.4 0Z" style="fill:#2758fe;fill-opacity:.9;fill-rule:nonzero"/>
  <path d="M344.24 197.76a18.74 18.74 0 1 1-37.48 0 18.74 18.74 0 0 1 37.48 0Z" style="fill:#9457b1;fill-opacity:.9;fill-rule:nonzero"/>
  <path d="M714.5 209.84a18.78 18.78 0 1 1-37.57 0 18.78 18.78 0 0 1 37.57 0Z" style="fill:#ca3b33;fill-opacity:.9;fill-rule:nonzero"/>
  <path d="M866.41 548.85a18.83 18.83 0 1 1-37.65 0 18.83 18.83 0 0 1 37.65 0Z" style="fill:#389725;fill-opacity:.9;fill-rule:nonzero"/>
  <path d="M627.65 834.77a18.87 18.87 0 1 1-37.75 0 18.87 18.87 0 0 1 37.75 0Z" style="fill:#2758fe;fill-opacity:.9;fill-rule:nonzero"/>
  <path d="M265 745.22a18.92 18.92 0 1 1-37.84 0 18.92 18.92 0 0 1 37.83 0Z" style="fill:#9457b1;fill-opacity:.9;fill-rule:nonzero"/>
  <path d="M186.31 378.93a18.97 18.97 0 1 1-37.93 0 18.97 18.97 0 0 1 37.93 0Z" style="fill:#ca3b33;fill-opacity:.9;fill-rule:nonzero"/>
  <path d="M481.9 146.94a19 19 0 1 1-38.01 0 19 19 0 0 1 38.01 0Z" style="fill:#389725;fill-opacity:.9;fill-rule:nonzero"/>
  <path d="M820.96 311.35a19.05 19.05 0 1 1-38.1 0 19.05 19.05 0 0 1 38.1 0Z" style="fill:#2758fe;fill-opacity:.9;fill-rule:nonzero"/>
  <path d="M821.86 689.18a19.1 19.1 0 1 1-38.2 0 19.1 19.1 0 0 1 38.2 0Z" style="fill:#9457b1;fill-opacity:.9;fill-rule:nonzero"/>
  <path d="M481.72 856.04a19.14 19.14 0 1 1-38.29 0 19.14 19.14 0 0 1 38.3 0Z" style="fill:#ca3b33;fill-opacity:.9;fill-rule:nonzero"/>
  <path d="M181.84 622.78a19.2 19.2 0 1 1-38.38 0 19.2 19.2 0 0 1 38.38 0Z" style="fill:#389725;fill-opacity:.9;fill-rule:nonzero"/>
  <path d="M260.27 249.92a19.24 19.24 0 1 1-38.47 0 19.24 19.24 0 0 1 38.47 0Z" style="fill:#2758fe;fill-opacity:.9;fill-rule:nonzero"/>
  <path d="M630.84 156.67a19.28 19.28 0 1 1-38.57 0 19.28 19.28 0 0 1 38.57 0Z" style="fill:#9457b1;fill-opacity:.9;fill-rule:nonzero"/>
  <path d="M877.8 449.62a19.33 19.33 0 1 1-38.65 0 19.33 19.33 0 0 1 38.65 0Z" style="fill:#ca3b33;fill-opacity:.9;fill-rule:nonzero"/>
  <path d="M722.36 800.94a19.37 19.37 0 1 1-38.74 0 19.37 19.37 0 0 1 38.74 0Z" style="fill:#389725;fill-opacity:.9;fill-rule:nonzero"/>
  <path d="M337.42 815.23a19.42 19.42 0 1 1-38.83 0 19.42 19.42 0 0 1 38.83 0Z" style="fill:#2758fe;fill-opacity:.9;fill-rule:nonzero"/>
  <path d="M155.35 474.54a19.46 19.46 0 1 1-38.92 0 19.46 19.46 0 0 1 38.92 0Z" style="fill:#9457b1;fill-opacity:.9;fill-rule:nonzero"/>
  <path d="M382.4 160.65a19.5 19.5 0 1 1-39.01 0 19.5 19.5 0 0 1 39.01 0Z" style="fill:#ca3b33;fill-opacity:.9;fill-rule:nonzero"/>
  <path d="M765.13 227.27a19.55 19.55 0 1 1-39.11 0 19.55 19.55 0 0 1 39.1 0Z" style="fill:#389725;fill-opacity:.9;fill-rule:nonzero"/>
  <path d="M873.34 601.43a19.6 19.6 0 1 1-39.2 0 19.6 19.6 0 0 1 39.2 0Z" style="fill:#2758fe;fill-opacity:.9;fill-rule:nonzero"/>
  <path d="M583.72 863.4a19.64 19.64 0 1 1-39.29 0 19.64 19.64 0 0 1 39.29 0Z" style="fill:#9457b1;fill-opacity:.9;fill-rule:nonzero"/>
  <path d="M220.35 717.48a19.69 19.69 0 1 1-39.37 0 19.69 19.69 0 0 1 39.37 0Z" style="fill:#ca3b33;fill-opacity:.9;fill-rule:nonzero"/>
  <path d="M192.16 325.82a19.73 19.73 0 1 1-39.47 0 19.73 19.73 0 0 1 39.47 0Z" style="fill:#389725;fill-opacity:.9;fill-rule:nonzero"/>
  <path d="M532.76 128.23a19.78 19.78 0 1 1-39.56 0 19.78 19.78 0 0 1 39.56 0Z" style="fill:#2758fe;fill-opacity:.9;fill-rule:nonzero"/>
  <path d="M860.58 348.29a19.83 19.83 0 1 1-39.66-.01 19.83 19.83 0 0 1 39.66 0Z" style="fill:#9457b1;fill-opacity:.9;fill-rule:nonzero"/>
  <path d="M806.37 740.4a19.87 19.87 0 1 1-39.74 0 19.87 19.87 0 0 1 39.74 0Z" style="fill:#ca3b33;fill-opacity:.9;fill-rule:nonzero"/>
  <path d="M429.2 863.86a19.92 19.92 0 1 1-39.84 0 19.92 19.92 0 0 1 39.83 0Z" style="fill:#389725;fill-opacity:.9;fill-rule:nonzero"/>
  <path d="M152.18 578.18a19.96 19.96 0 1 1-39.92 0 19.96 19.96 0 0 1 39.92 0Z" style="fill:#2758fe;fill-opacity:.9;fill-rule:nonzero"/>
  <path d="M287.9 202.92a20 20 0 1 1-40.01 0 20 20 0 0 1 40.01 0Z" style="fill:#9457b1;fill-opacity:.9;fill-rule:nonzero"/>
  <path d="M685.75 160.25a20.05 20.05 0 1 1-40.1 0 20.05 20.05 0 0 1 40.1 0Z" style="fill:#ca3b33;fill-opacity:.9;fill-rule:nonzero"/>
  <path d="M899.1 500a20.1 20.1 0 1 1-40.2 0 20.1 20.1 0 0 1 40.2 0Z" style="fill:#389725;fill-opacity:.9;fill-rule:nonzero"/>
  <path d="M686.72 841.54a20.14 20.14 0 1 1-40.29 0 20.14 20.14 0 0 1 40.3 0Z" style="fill:#2758fe;fill-opacity:.9;fill-rule:nonzero"/>
  <path d="M285.62 800.23a20.19 20.19 0 1 1-40.37 0 20.19 20.19 0 0 1 40.37 0Z" style="fill:#9457b1;fill-opacity:.9;fill-rule:nonzero"/>
  <path d="M146.58 420.58a20.23 20.23 0 1 1-40.47 0 20.23 20.23 0 0 1 40.47 0Z" style="fill:#ca3b33;fill-opacity:.9;fill-rule:nonzero"/>
  <path d="M427.62 128.38a20.28 20.28 0 1 1-40.55 0 20.28 20.28 0 0 1 40.55 0Z" style="fill:#389725;fill-opacity:.9;fill-rule:nonzero"/>
  <path d="M814.48 253.17a20.32 20.32 0 1 1-40.64 0 20.32 20.32 0 0 1 40.64 0Z" style="fill:#2758fe;fill-opacity:.9;fill-rule:nonzero"/>
  <path d="M872.08 656.6a20.36 20.36 0 1 1-40.73 0 20.36 20.36 0 0 1 40.73 0Z" style="fill:#9457b1;fill-opacity:.9;fill-rule:nonzero"/>
  <path d="M533.88 885.77a20.4 20.4 0 1 1-40.81 0 20.4 20.4 0 0 1 40.81 0Z" style="fill:#ca3b33;fill-opacity:.9;fill-rule:nonzero"/>
  <path d="M178.76 681.68a20.46 20.46 0 1 1-40.92 0 20.46 20.46 0 0 1 40.92 0Z" style="fill:#389725;fill-opacity:.9;fill-rule:nonzero"/>
  <path d="M206.6 271.94a20.5 20.5 0 1 1-41 0 20.5 20.5 0 0 1 41 0Z" style="fill:#2758fe;fill-opacity:.9;fill-rule:nonzero"/>
  <path d="M588.1 116.91a20.55 20.55 0 1 1-41.1 0 20.55 20.55 0 0 1 41.1 0Z" style="fill:#9457b1;fill-opacity:.9;fill-rule:nonzero"/>
  <path d="M895.48 392.5a20.6 20.6 0 1 1-41.18 0 20.6 20.6 0 0 1 41.18 0Z" style="fill:#ca3b33;fill-opacity:.9;fill-rule:nonzero"/>
  <path d="M782.27 790.57a20.64 20.64 0 1 1-41.28 0 20.64 20.64 0 0 1 41.28 0Z" style="fill:#389725;fill-opacity:.9;fill-rule:nonzero"/>
  <path d="M373.84 863.46a20.68 20.68 0 1 1-41.37 0 20.68 20.68 0 0 1 41.37 0Z" style="fill:#2758fe;fill-opacity:.9;fill-rule:nonzero"/>
  <path d="M128.69 527.41a20.73 20.73 0 1 1-41.47 0 20.73 20.73 0 0 1 41.47 0Z" style="fill:#9457b1;fill-opacity:.9;fill-rule:nonzero"/>
  <path d="M323.77 158.78a20.77 20.77 0 1 1-41.54 0 20.77 20.77 0 0 1 41.54 0Z" style="fill:#ca3b33;fill-opacity:.9;fill-rule:nonzero"/>
  <path d="M741.7 172.53a20.82 20.82 0 1 1-41.64 0 20.82 20.82 0 0 1 41.64 0Z" style="fill:#389725;fill-opacity:.9;fill-rule:nonzero"/>
  <path d="M913.01 555.11a20.87 20.87 0 1 1-41.73 0 20.87 20.87 0 0 1 41.73 0Z" style="fill:#2758fe;fill-opacity:.9;fill-rule:nonzero"/>
  <path d="M643.59 877.57a20.91 20.91 0 1 1-41.82 0 20.91 20.91 0 0 1 41.82 0Z" style="fill:#9457b1;fill-opacity:.9;fill-rule:nonzero"/>
  <path d="M234.66 776.47a20.95 20.95 0 1 1-41.91 0 20.95 20.95 0 0 1 41.9 0Z" style="fill:#ca3b33;fill-opacity:.9;fill-rule:nonzero"/>
  <path d="M146.06 363.54a21 21 0 1 1-42 0 21 21 0 0 1 42 0Z" style="fill:#389725;fill-opacity:.9;fill-rule:nonzero"/>
  <path d="M479.23 102.2a21.05 21.05 0 1 1-42.09 0 21.05 21.05 0 0 1 42.1 0Z" style="fill:#2758fe;fill-opacity:.9;fill-rule:nonzero"/>
  <path d="M861.16 287.5a21.1 21.1 0 1 1-42.19 0 21.1 21.1 0 0 1 42.19 0Z" style="fill:#9457b1;fill-opacity:.9;fill-rule:nonzero"/>
  <path d="M862.05 713.03a21.14 21.14 0 1 1-42.27 0 21.14 21.14 0 0 1 42.27 0Z" style="fill:#ca3b33;fill-opacity:.9;fill-rule:nonzero"/>
  <path d="M479.06 900.8a21.18 21.18 0 1 1-42.37 0 21.18 21.18 0 0 1 42.37 0Z" style="fill:#389725;fill-opacity:.9;fill-rule:nonzero"/>
  <path d="M141.59 638.18a21.23 21.23 0 1 1-42.45 0 21.23 21.23 0 0 1 42.45 0Z" style="fill:#2758fe;fill-opacity:.9;fill-rule:nonzero"/>
  <path d="M229.94 218.66a21.27 21.27 0 1 1-42.54 0 21.27 21.27 0 0 1 42.54 0Z" style="fill:#9457b1;fill-opacity:.9;fill-rule:nonzero"/>
  <path d="M646.78 113.87a21.32 21.32 0 1 1-42.63 0 21.32 21.32 0 0 1 42.63 0Z" style="fill:#ca3b33;fill-opacity:.9;fill-rule:nonzero"/>
  <path d="M924.4 443.36a21.36 21.36 0 1 1-42.72 0 21.36 21.36 0 0 1 42.72 0Z" style="fill:#389725;fill-opacity:.9;fill-rule:nonzero"/>
  <path d="M749.56 838.25a21.41 21.41 0 1 1-42.82 0 21.41 21.41 0 0 1 42.82 0Z" style="fill:#2758fe;fill-opacity:.9;fill-rule:nonzero"/>
  <path d="M316.95 854.2a21.45 21.45 0 1 1-42.9 0 21.45 21.45 0 0 1 42.9 0Z" style="fill:#9457b1;fill-opacity:.9;fill-rule:nonzero"/>
  <path d="M112.5 471.4a21.5 21.5 0 1 1-43 0 21.5 21.5 0 0 1 43 0Z" style="fill:#ca3b33;fill-opacity:.9;fill-rule:nonzero"/>
  <path d="M367.58 118.93a21.54 21.54 0 1 1-43.09 0 21.54 21.54 0 0 1 43.09 0Z" style="fill:#389725;fill-opacity:.9;fill-rule:nonzero"/>
  <path d="M797.27 193.82a21.59 21.59 0 1 1-43.18 0 21.59 21.59 0 0 1 43.18 0Z" style="fill:#2758fe;fill-opacity:.9;fill-rule:nonzero"/>
  <path d="M918.63 613.84a21.63 21.63 0 1 1-43.26 0 21.63 21.63 0 0 1 43.26 0Z" style="fill:#9457b1;fill-opacity:.9;fill-rule:nonzero"/>
  <path d="M593.57 907.71a21.68 21.68 0 1 1-43.36 0 21.68 21.68 0 0 1 43.36 0Z" style="fill:#ca3b33;fill-opacity:.9;fill-rule:nonzero"/>
  <path d="M185.98 743.93a21.72 21.72 0 1 1-43.45 0 21.72 21.72 0 0 1 43.45 0Z" style="fill:#389725;fill-opacity:.9;fill-rule:nonzero"/>
  <path d="M154.46 304.7a21.77 21.77 0 1 1-43.54 0 21.77 21.77 0 0 1 43.54 0Z" style="fill:#2758fe;fill-opacity:.9;fill-rule:nonzero"/>
  <path d="M536.37 83.25a21.81 21.81 0 1 1-43.63 0 21.81 21.81 0 0 1 43.63 0Z" style="fill:#9457b1;fill-opacity:.9;fill-rule:nonzero"/>
  <path d="M903.72 329.98a21.86 21.86 0 1 1-43.72 0 21.86 21.86 0 0 1 43.72 0Z" style="fill:#ca3b33;fill-opacity:.9;fill-rule:nonzero"/>
  <path d="M842.88 769.33a21.9 21.9 0 1 1-43.82 0 21.9 21.9 0 0 1 43.82 0Z" style="fill:#389725;fill-opacity:.9;fill-rule:nonzero"/>
  <path d="M420.34 907.52a21.95 21.95 0 1 1-43.9 0 21.95 21.95 0 0 1 43.9 0Z" style="fill:#2758fe;fill-opacity:.9;fill-rule:nonzero"/>
  <path d="M110.2 587.53a22 22 0 1 1-44 0 22 22 0 0 1 44 0Z" style="fill:#9457b1;fill-opacity:.9;fill-rule:nonzero"/>
  <path d="M262.23 167.46a22.04 22.04 0 1 1-44.08 0 22.04 22.04 0 0 1 44.08 0Z" style="fill:#ca3b33;fill-opacity:.9;fill-rule:nonzero"/>
  <path d="M707.52 119.8a22.08 22.08 0 1 1-44.17.01 22.08 22.08 0 0 1 44.17 0Z" style="fill:#389725;fill-opacity:.9;fill-rule:nonzero"/>
  <path d="M946.13 500a22.13 22.13 0 1 1-44.26 0 22.13 22.13 0 0 1 44.26 0Z" style="fill:#2758fe;fill-opacity:.9;fill-rule:nonzero"/>
  <path d="M708.48 881.99a22.18 22.18 0 1 1-44.35 0 22.18 22.18 0 0 1 44.35 0Z" style="fill:#9457b1;fill-opacity:.9;fill-rule:nonzero"/>
  <path d="M259.95 835.7a22.22 22.22 0 1 1-44.45 0 22.22 22.22 0 0 1 44.45 0Z" style="fill:#ca3b33;fill-opacity:.9;fill-rule:nonzero"/>
  <path d="M104.6 411.22a22.27 22.27 0 1 1-44.53 0 22.27 22.27 0 0 1 44.53 0Z" style="fill:#389725;fill-opacity:.9;fill-rule:nonzero"/>
  <path d="M418.77 84.72a22.31 22.31 0 1 1-44.62 0 22.31 22.31 0 0 1 44.62 0Z" style="fill:#2758fe;fill-opacity:.9;fill-rule:nonzero"/>
  <path d="M850.99 224.24a22.36 22.36 0 1 1-44.72 0 22.36 22.36 0 0 1 44.72 0Z" style="fill:#9457b1;fill-opacity:.9;fill-rule:nonzero"/>
  <path d="M915.23 674.9a22.4 22.4 0 1 1-44.8 0 22.4 22.4 0 0 1 44.8 0Z" style="fill:#ca3b33;fill-opacity:.9;fill-rule:nonzero"/>
  <path d="M537.49 930.74a22.45 22.45 0 1 1-44.9 0 22.45 22.45 0 0 1 44.9 0Z" style="fill:#389725;fill-opacity:.9;fill-rule:nonzero"/>
  <path d="M141.06 702.81a22.5 22.5 0 1 1-44.99 0 22.5 22.5 0 0 1 44.99 0Z" style="fill:#2758fe;fill-opacity:.9;fill-rule:nonzero"/>
  <path d="M172.23 245.49a22.54 22.54 0 1 1-45.07 0 22.54 22.54 0 0 1 45.07 0Z" style="fill:#9457b1;fill-opacity:.9;fill-rule:nonzero"/>
  <path d="M597.95 72.6a22.58 22.58 0 1 1-45.17 0 22.58 22.58 0 0 1 45.17 0Z" style="fill:#ca3b33;fill-opacity:.9;fill-rule:nonzero"/>
  <path d="M940.78 380.1a22.63 22.63 0 1 1-45.26 0 22.63 22.63 0 0 1 45.26 0Z" style="fill:#389725;fill-opacity:.9;fill-rule:nonzero"/>
  <path d="M814.41 824.01a22.67 22.67 0 1 1-45.34 0 22.67 22.67 0 0 1 45.34 0Z" style="fill:#2758fe;fill-opacity:.9;fill-rule:nonzero"/>
  <path d="M359.02 905.18a22.72 22.72 0 1 1-45.44 0 22.72 22.72 0 0 1 45.44 0Z" style="fill:#9457b1;fill-opacity:.9;fill-rule:nonzero"/>
  <path d="M85.83 530.55a22.76 22.76 0 1 1-45.52 0 22.76 22.76 0 0 1 45.52 0Z" style="fill:#ca3b33;fill-opacity:.9;fill-rule:nonzero"/>
  <path d="M303.3 119.82a22.81 22.81 0 1 1-45.61 0 22.81 22.81 0 0 1 45.62 0Z" style="fill:#389725;fill-opacity:.9;fill-rule:nonzero"/>
  <path d="M768.9 135.22a22.85 22.85 0 1 1-45.71 0 22.85 22.85 0 0 1 45.7 0Z" style="fill:#2758fe;fill-opacity:.9;fill-rule:nonzero"/>
  <path d="M959.6 561.38a22.9 22.9 0 1 1-45.79 0 22.9 22.9 0 0 1 45.8 0Z" style="fill:#9457b1;fill-opacity:.9;fill-rule:nonzero"/>
  <path d="M659.53 920.37a22.95 22.95 0 1 1-45.9 0 22.95 22.95 0 0 1 45.9 0Z" style="fill:#ca3b33;fill-opacity:.9;fill-rule:nonzero"/>
  <path d="M204.32 807.73a22.99 22.99 0 1 1-45.98 0 22.99 22.99 0 0 1 45.98 0Z" style="fill:#389725;fill-opacity:.9;fill-rule:nonzero"/>
  <path d="M105.81 348.14a23.04 23.04 0 1 1-46.07 0 23.04 23.04 0 0 1 46.07 0Z" style="fill:#2758fe;fill-opacity:.9;fill-rule:nonzero"/>
  <path d="M476.57 57.44a23.08 23.08 0 1 1-46.17 0 23.08 23.08 0 0 1 46.17 0Z" style="fill:#9457b1;fill-opacity:.9;fill-rule:nonzero"/>
  <path d="M901.36 263.66a23.12 23.12 0 1 1-46.25 0 23.12 23.12 0 0 1 46.25 0Z" style="fill:#ca3b33;fill-opacity:.9;fill-rule:nonzero"/>
  <path d="M902.25 736.88a23.17 23.17 0 1 1-46.34 0 23.17 23.17 0 0 1 46.34 0Z" style="fill:#389725;fill-opacity:.9;fill-rule:nonzero"/>
  <path d="M476.39 945.55a23.22 23.22 0 1 1-46.44 0 23.22 23.22 0 0 1 46.44 0Z" style="fill:#2758fe;fill-opacity:.9;fill-rule:nonzero"/>
  <path d="M101.34 653.57a23.26 23.26 0 1 1-46.52 0 23.26 23.26 0 0 1 46.52 0Z" style="fill:#9457b1;fill-opacity:.9;fill-rule:nonzero"/>
  <path d="M349.07 506.28v31.48h8.48v-10.29h10.25c7.84-.4 9.77-2.54 9.77-10.7 0-8.4-2.1-10.5-10.5-10.5h-18Zm8.48 13.92v-7.06h7.35c3.8 0 4.2.36 4.2 3.67 0 3.07-.4 3.4-4.2 3.4h-7.35ZM381.61 506.28h8.48v31.49h-8.48zM402.76 537.76h8.48v-24.22h9.73v-7.26h-27.85v7.26h9.64v24.22ZM433.85 537.76h8.48v-24.22h9.73v-7.26H424.2v7.26h9.65v24.22ZM469.21 531.39c-5.4 0-6.05-.4-6.05-4.2h-8.89c0 8.84 3.11 11.06 15.18 11.06 11.75 0 14.78-1.78 14.78-8.96 0-6.34-3.15-8.52-14.94-10.82-4.28-.89-5.45-1.5-5.45-3.15 0-2.38.6-2.67 5.61-2.67 5.09 0 5.7.45 5.7 4.65h8.88c0-9.2-2.99-11.5-14.58-11.5-11.5 0-14.49 1.89-14.49 9.44 0 5.85 2.59 7.79 12.88 9.85 5.93 1.17 7.5 1.94 7.5 3.75 0 2.3-.64 2.55-6.13 2.55ZM488.27 506.28v31.48h19c7.72 0 10.02-1.65 10.02-8.27 0-4.76-2.26-7.15-6.94-7.63 3.87-.57 5.81-2.87 5.81-7.39 0-6.54-2.06-8.2-8.88-8.2h-19.01Zm8.47 25.02V525h7.96c2.62 0 3.75.98 3.75 3.2 0 2.78-.36 3.1-3.75 3.1h-7.96Zm0-12.75v-5.81h7.15c3.1 0 3.43.28 3.43 2.94 0 2.02-1.01 2.87-3.43 2.87h-7.15ZM549.26 524.85v-18.57h-8.47v18.57c0 5.89-.57 6.54-5.5 6.54-4.92 0-5.49-.65-5.49-6.54v-18.57h-8.47v18.57c0 10.73 2.78 13.4 13.96 13.4 11.19 0 13.97-2.67 13.97-13.4ZM571.7 506.28h-18v31.48h8.48v-11.1h6.3c4.4 0 4.84.37 4.84 3.84v7.26h8.88v-7.75c0-4.03-2.13-5.9-6.33-6.34 4.4-.6 6.33-3.06 6.33-8.27 0-7.3-2.1-9.12-10.5-9.12Zm-9.52 13.92v-7.06h7.35c3.8 0 4.2.36 4.2 3.47 0 3.23-.4 3.6-4.2 3.6h-7.35ZM602.47 520.89v6.46h6.46c-.16 2.82-2.34 4.04-7.19 4.04-6.34 0-7.02-.93-7.02-9.37s.68-9.37 7.02-9.37 7.03.49 6.95 4.85h8.88c.08-9.37-3.07-11.7-15.83-11.7-12.71 0-15.9 3.22-15.9 16.22 0 13 3.19 16.23 15.9 16.23 4.56 0 7.15-1.7 8.16-5.53v5.04h7.67V520.9h-15.1ZM622 537.76h8.49v-12.43h12.1v12.43h8.48v-31.48h-8.47v11.78h-12.12v-11.78h-8.47v31.48ZM379.67 458.5c0 3.97-.45 7.18-1.34 9.62a12.9 12.9 0 0 1-3.82 5.7 13.25 13.25 0 0 1-5.94 2.71c-2.3.46-4.87.69-7.69.69-3.82 0-6.74-.6-8.76-1.8-2.03-1.18-3.05-2.62-3.05-4.29 0-1.39.57-2.56 1.7-3.51 1.13-.96 2.66-1.43 4.56-1.43 1.44 0 2.58.38 3.44 1.16.85.77 1.56 1.54 2.11 2.3.64.83 1.18 1.38 1.61 1.66.44.28.84.42 1.2.42.75 0 1.33-.45 1.72-1.34.4-.9.6-2.64.6-5.22v-49.02l13.66-3.76v46.1Zm19.45-44.8v31.55a6.13 6.13 0 0 0 1.9 4.47c.6.56 1.3 1 2.1 1.35.79.33 1.64.5 2.56.5 1.03 0 2.2-.58 3.64-1.58 2.26-1.59 3.64-2.67 3.64-3.97V413.7h13.6v44.8h-13.6v-4.18a24.56 24.56 0 0 1-5.73 3.63c-2.03.92-4 1.38-5.9 1.38-2.23 0-4.3-.37-6.2-1.1a16.31 16.31 0 0 1-5.02-3.02 14.02 14.02 0 0 1-3.37-4.47 12.6 12.6 0 0 1-1.22-5.5V413.7h13.6Zm46.5 44.8h-13.54v-62.81l13.54-3.75v66.55Zm5.66-42.35 13.6-3.76v46.1h-13.6v-42.34Zm42 19.2c-1.3.56-2.63 1.2-3.96 1.94a25.52 25.52 0 0 0-3.64 2.42c-1.1.87-1.98 1.8-2.65 2.8a5.44 5.44 0 0 0-1.02 3.1c0 .83.11 1.64.33 2.41.22.78.53 1.44.93 2s.83 1 1.31 1.34c.48.34 1 .51 1.55.51 1.11 0 2.23-.34 3.37-1.01a45.3 45.3 0 0 0 3.79-2.57v-12.94Zm13.66 23.14H493.3v-3.58c-.76.64-1.5 1.23-2.21 1.76-.72.54-1.52 1-2.42 1.4-.9.4-1.9.7-3 .93-1.12.22-2.44.33-3.94.33-2.07 0-3.93-.3-5.58-.9a12.68 12.68 0 0 1-4.2-2.44 10.55 10.55 0 0 1-2.66-3.67 11.45 11.45 0 0 1-.92-4.62c0-1.71.32-3.26.98-4.65.66-1.4 1.55-2.65 2.68-3.76a19.77 19.77 0 0 1 3.97-2.98 44.32 44.32 0 0 1 4.86-2.42c1.73-.74 3.53-1.41 5.4-2.03 1.87-.61 3.72-1.2 5.55-1.76l1.49-.36v-4.4c0-2.87-.55-4.9-1.64-6.1a5.66 5.66 0 0 0-4.39-1.78c-2.14 0-3.64.52-4.47 1.55a5.8 5.8 0 0 0-1.25 3.76c0 .83-.1 1.65-.27 2.44-.18.8-.49 1.5-.92 2.09a4.5 4.5 0 0 1-1.89 1.43c-.81.36-1.83.54-3.07.54-1.9 0-3.45-.55-4.65-1.64a5.38 5.38 0 0 1-1.79-4.15c0-1.55.53-2.99 1.58-4.32a13.35 13.35 0 0 1 4.27-3.43 25.75 25.75 0 0 1 6.2-2.27c2.35-.55 4.83-.83 7.45-.83 3.23 0 6 .29 8.32.86 2.33.58 4.25 1.4 5.76 2.48a10.01 10.01 0 0 1 3.34 3.87 11.7 11.7 0 0 1 1.07 5.07v33.58Z" style="fill:#fff;fill-rule:nonzero"/>
  <path d="M382.35 400.87a9.23 9.23 0 1 1-18.47 0 9.23 9.23 0 0 1 18.47 0" style="fill:#234fe4;fill-rule:nonzero"/>
  <path d="M479.08 381.65a9.23 9.23 0 1 1-18.47 0 9.23 9.23 0 0 1 18.47 0" style="fill:#389725;fill-rule:nonzero"/>
  <path d="M490.17 400.87a9.23 9.23 0 1 1-18.47 0 9.23 9.23 0 0 1 18.47 0" style="fill:#9457b1;fill-rule:nonzero"/>
  <path d="M467.99 400.87a9.23 9.23 0 1 1-18.47 0 9.23 9.23 0 0 1 18.47 0" style="fill:#ca3b33;fill-rule:nonzero"/>
  <path d="M608.28 458.6v-44.5h13.5v3.57a22.45 22.45 0 0 1 13.37-4.38c4.84 0 8.35 1.25 10.54 3.74 2.2 2.5 3.29 5.79 3.29 9.86v31.7h-13.26v-30.43c0-2.15-.38-3.87-1.15-5.13a3.78 3.78 0 0 0-3.46-1.9c-2.38 0-5.5 1.6-9.34 4.84v32.62h-13.49Zm-74.46.34c-4.08 0-7.83-1-11.24-3-3.43-2-6.11-4.67-8.08-8.01a20.95 20.95 0 0 1-2.93-10.78c0-4 1.01-7.84 3.05-11.53a23.9 23.9 0 0 1 8.42-8.88 22.09 22.09 0 0 1 11.93-3.34c2.84 0 5.6.48 8.3 1.44 2.69.96 4.88 2.23 6.57 3.8 1.69 1.58 2.53 3.3 2.53 5.14 0 1.77-.75 3.19-2.25 4.26a8.76 8.76 0 0 1-5.24 1.62 7.28 7.28 0 0 1-4.5-1.39 4.7 4.7 0 0 1-1.96-3.69c-.07-2-.34-3.45-.8-4.38-.46-.92-1.65-1.38-3.58-1.38a7.83 7.83 0 0 0-6.74 3.52c-1.65 2.34-2.48 5.55-2.48 9.62 0 4.69.96 8.94 2.89 12.74 1.92 3.8 4.76 5.7 8.52 5.7 2.7 0 5-1 6.92-3 1.92-1.99 3.7-4.75 5.3-8.3l6.35 1.74c-1.54 5.68-4.14 10.12-7.79 13.31a19.38 19.38 0 0 1-13.2 4.79Zm47.03 0c-4.46 0-8.55-.94-12.28-2.83a22.2 22.2 0 0 1-8.87-7.95 21.22 21.22 0 0 1-3.3-11.7c0-4.23 1-8.1 3-11.59 2-3.5 4.85-6.28 8.54-8.36a25.17 25.17 0 0 1 12.56-3.1 27 27 0 0 1 11.93 2.7c3.73 1.8 6.75 4.4 9.05 7.78a20.57 20.57 0 0 1 3.46 11.88c0 4.22-1 8.1-3 11.64a21.9 21.9 0 0 1-8.53 8.41 25.2 25.2 0 0 1-12.56 3.12Zm1.38-5.19c2.92 0 5.03-1.4 6.34-4.2 1.3-2.81 1.96-6.37 1.96-10.67 0-5.53-1-10.28-3-14.24-2-3.96-4.64-5.94-7.95-5.94-2.92 0-5.13 1.48-6.63 4.44-1.5 2.96-2.25 6.56-2.25 10.78a29.8 29.8 0 0 0 3.12 13.72c2.07 4.07 4.88 6.11 8.41 6.11ZM429.7 479.5h-21.35v5.94h9.19c-.14 1.84-3.96 3.96-9.61 3.96-8.34 0-10.89-2.54-10.89-7.06 0-5.94 3.96-8.63 11.31-8.63 5.94 0 8.76 1 8.76 3.68h12.58c.29-8.48-4.8-10.89-21.48-10.89s-23.32 3.82-23.32 15.13c0 11.59 8.2 14.98 20.78 14.98 10.03 0 11.73-1.98 13.14-4.38v3.96h10.88V479.5Zm17.1-12.57h-12.02v29.26h33.78v-6.65H446.8v-22.61Zm46.36 6.64c7.77 0 10.46 3.11 10.46 8.06 0 4.94-3.4 7.49-10.46 7.49-7.07 0-10.75-2.55-10.75-7.5 0-4.94 2.97-8.05 10.75-8.05Zm-23.18 7.92c0 11.02 6.64 15.12 23.18 15.12 16.53 0 22.9-4.1 22.9-15.12 0-11.03-5.94-14.99-22.9-14.99-16.96 0-23.18 3.96-23.18 14.99Zm77.6-14.56h-26.86v29.26h26.86c10.45 0 14.13-1.56 14.13-7.21 0-4.8-2.69-6.93-9.75-7.5 5.93-.7 8.2-2.68 8.2-7.34 0-5.66-3.26-7.21-12.58-7.21Zm-3.68 22.9h-11.17v-5.66h11.17c3.68 0 5.37 1 5.37 2.83 0 2.54-.56 2.83-5.37 2.83Zm-1.13-11.31h-10.04v-5.23h10.04c4.38 0 4.8.42 4.8 2.68 0 1.7-1.4 2.55-4.8 2.55Zm70.25 17.67-14.14-29.26h-19.93l-14.56 29.26h12.87l2.54-5.66h17.25l2.4 5.66h13.57Zm-18.94-12.02H582.9l5.51-10.88h.29l5.37 10.88Zm34.06-17.24h-11.87v29.26h33.64v-6.65h-21.77v-22.61ZM443.6 600.91v-12.77h-22.38l15.98-13.2c5.96-4.96 5-8.08 5.22-16.03.44-11.35-4.2-14.18-23.26-14.18-18.33 0-23.63 3.83-23.63 19.15h16.2c0-6.31.73-7.1 7.36-7.1 7.5 0 8.32.57 8.32 4.83 0 3.05-1.18 4.82-6.04 8.73l-25.4 20.64v9.93h47.63ZM474.07 556.08c8.25 0 9.13 1.7 9.13 17.16 0 15.47-.88 17.17-9.13 17.17-8.24 0-9.12-1.7-9.12-17.16 0-15.47.88-17.17 9.13-17.17Zm-25.32 17.16c0 22.85 5.08 28.52 25.32 28.52 20.25 0 25.33-5.67 25.33-28.51 0-22.85-5.08-28.52-25.32-28.52-20.25 0-25.33 5.67-25.33 28.51ZM551.88 600.91v-12.77H529.5l15.98-13.2c5.96-4.96 5-8.08 5.22-16.03.44-11.35-4.2-14.18-23.26-14.18-18.33 0-23.63 3.83-23.63 19.15h16.2c0-6.31.73-7.1 7.36-7.1 7.5 0 8.31.57 8.31 4.83 0 3.05-1.17 4.82-6.03 8.73l-25.4 20.64v9.93h47.63ZM604.14 545.58h-42.1l-2.5 33.13H573c1.02-3.76 2.94-4.69 9.64-4.69 8.68 0 9.64.86 9.64 8.45v.07c0 6.46-.88 7.16-8.76 7.16-8.9 0-9.94-.5-9.57-5.32h-16.2c0 13.9 5.46 17.38 26.36 17.38 19.5 0 24.36-3.9 24.36-19.58 0-15.46-3.75-19.36-18.91-19.36-8.84 0-13.55 1.77-15.24 5.81l.8-11h29.01v-12.05Z" style="fill:#fff;fill-rule:nonzero"/>
</svg>
